<?xml version="1.0" encoding="utf-8" standalone="no"?>
<!DOCTYPE svg PUBLIC "-//W3C//DTD SVG 1.1//EN"
  "http://www.w3.org/Graphics/SVG/1.1/DTD/svg11.dtd">
<svg xmlns:xlink="http://www.w3.org/1999/xlink" width="569.894766pt" height="235.166016pt" viewBox="0 0 569.894766 235.166016" xmlns="http://www.w3.org/2000/svg" version="1.1">
 <metadata>
  <rdf:RDF xmlns:dc="http://purl.org/dc/elements/1.1/" xmlns:cc="http://creativecommons.org/ns#" xmlns:rdf="http://www.w3.org/1999/02/22-rdf-syntax-ns#">
   <cc:Work>
    <dc:type rdf:resource="http://purl.org/dc/dcmitype/StillImage"/>
    <dc:date>2026-07-23T00:47:14.885459</dc:date>
    <dc:format>image/svg+xml</dc:format>
    <dc:creator>
     <cc:Agent>
      <dc:title>Matplotlib v3.11.1, https://matplotlib.org/</dc:title>
     </cc:Agent>
    </dc:creator>
   </cc:Work>
  </rdf:RDF>
 </metadata>
 <defs>
  <style type="text/css">*{stroke-linejoin: round; stroke-linecap: butt}</style>
 </defs>
 <g id="figure_1">
  <g id="patch_1">
   <path d="M 0 235.166016 
L 569.894766 235.166016 
L 569.894766 0 
L 0 0 
z
" style="fill: #fcfcfb"/>
  </g>
  <g id="axes_1">
   <g id="patch_2">
    <path d="M 41.82875 194.466016 
L 291.411758 194.466016 
L 291.411758 24.145068 
L 41.82875 24.145068 
z
" style="fill: #fcfcfb"/>
   </g>
   <g id="matplotlib.axis_1">
    <g id="xtick_1">
     <g id="line2d_1">
      <path d="M 53.173432 194.466016 
L 53.173432 24.145068 
" clip-path="url(#p1f56de9327)" style="fill: none; stroke: #e1e0d9; stroke-width: 0.7; stroke-linecap: square"/>
     </g>
     <g id="line2d_2">
      <defs>
       <path id="mdab96d1204" d="M 0 0 
L 0 3.5 
" style="stroke: #898781; stroke-width: 0.8"/>
      </defs>
      <g>
       <use xlink:href="#mdab96d1204" x="53.173432" y="194.466016" style="fill: #898781; stroke: #898781; stroke-width: 0.8"/>
      </g>
     </g>
     <g id="text_1">
      <!-- 3 -->
      <g style="fill: #52514e" transform="translate(50.266245 209.633252) scale(0.105 -0.105)">
       <defs>
        <path id="Cambria-375" d="M 497 3381 
L 497 3975 
Q 859 4147 1175 4231 
Q 1491 4316 1784 4316 
Q 2138 4316 2403 4206 
Q 2669 4097 2809 3892 
Q 2950 3688 2950 3403 
Q 2950 3138 2844 2936 
Q 2738 2734 2545 2584 
Q 2353 2434 2047 2291 
L 2047 2263 
Q 2238 2228 2414 2145 
Q 2591 2063 2728 1931 
Q 2866 1800 2948 1617 
Q 3031 1434 3031 1200 
Q 3031 838 2873 556 
Q 2716 275 2391 112 
Q 2066 -50 1600 -50 
Q 1331 -50 1020 11 
Q 709 72 450 172 
L 450 834 
L 825 834 
Q 934 509 1114 362 
Q 1294 216 1603 216 
Q 2009 216 2217 437 
Q 2425 659 2425 1094 
Q 2425 1550 2150 1790 
Q 1875 2031 1344 2031 
L 1063 2031 
L 1063 2306 
Q 1484 2331 1773 2468 
Q 2063 2606 2203 2822 
Q 2344 3038 2344 3306 
Q 2344 3653 2159 3840 
Q 1975 4028 1622 4028 
Q 1328 4028 1143 3868 
Q 959 3709 872 3381 
L 497 3381 
z
" transform="scale(0.015625)"/>
       </defs>
       <use xlink:href="#Cambria-375"/>
      </g>
     </g>
    </g>
    <g id="xtick_2">
     <g id="line2d_3">
      <path d="M 75.862797 194.466016 
L 75.862797 24.145068 
" clip-path="url(#p1f56de9327)" style="fill: none; stroke: #e1e0d9; stroke-width: 0.7; stroke-linecap: square"/>
     </g>
     <g id="line2d_4">
      <g>
       <use xlink:href="#mdab96d1204" x="75.862797" y="194.466016" style="fill: #898781; stroke: #898781; stroke-width: 0.8"/>
      </g>
     </g>
     <g id="text_2">
      <!-- 5 -->
      <g style="fill: #52514e" transform="translate(72.955609 209.633252) scale(0.105 -0.105)">
       <defs>
        <path id="Cambria-377" d="M 469 172 
L 469 834 
L 847 834 
Q 941 516 1130 366 
Q 1319 216 1619 216 
Q 2034 216 2246 466 
Q 2459 716 2459 1213 
Q 2459 1544 2346 1761 
Q 2234 1978 2043 2075 
Q 1853 2172 1600 2172 
Q 1388 2172 1234 2145 
Q 1081 2119 906 2063 
L 656 2209 
L 656 4266 
L 2378 4266 
Q 2484 4266 2531 4283 
Q 2578 4300 2606 4336 
Q 2634 4372 2672 4472 
L 2916 4472 
L 2869 3747 
L 1072 3747 
L 1072 2375 
Q 1234 2444 1425 2478 
Q 1616 2513 1806 2513 
Q 2178 2513 2465 2361 
Q 2753 2209 2909 1929 
Q 3066 1650 3066 1281 
Q 3066 863 2891 563 
Q 2716 263 2384 106 
Q 2053 -50 1600 -50 
Q 1059 -50 469 172 
z
" transform="scale(0.015625)"/>
       </defs>
       <use xlink:href="#Cambria-377"/>
      </g>
     </g>
    </g>
    <g id="xtick_3">
     <g id="line2d_5">
      <path d="M 98.552161 194.466016 
L 98.552161 24.145068 
" clip-path="url(#p1f56de9327)" style="fill: none; stroke: #e1e0d9; stroke-width: 0.7; stroke-linecap: square"/>
     </g>
     <g id="line2d_6">
      <g>
       <use xlink:href="#mdab96d1204" x="98.552161" y="194.466016" style="fill: #898781; stroke: #898781; stroke-width: 0.8"/>
      </g>
     </g>
     <g id="text_3">
      <!-- 7 -->
      <g style="fill: #52514e" transform="translate(95.644973 209.633252) scale(0.105 -0.105)">
       <defs>
        <path id="Cambria-379" d="M 3206 4116 
L 1388 -22 
L 934 -22 
L 934 131 
L 2619 3697 
L 2619 3744 
L 1244 3744 
Q 1116 3744 1039 3720 
Q 963 3697 911 3653 
Q 859 3609 825 3537 
Q 791 3466 731 3253 
L 463 3253 
L 525 4266 
L 3206 4266 
L 3206 4116 
z
" transform="scale(0.015625)"/>
       </defs>
       <use xlink:href="#Cambria-379"/>
      </g>
     </g>
    </g>
    <g id="xtick_4">
     <g id="line2d_7">
      <path d="M 143.93089 194.466016 
L 143.93089 24.145068 
" clip-path="url(#p1f56de9327)" style="fill: none; stroke: #e1e0d9; stroke-width: 0.7; stroke-linecap: square"/>
     </g>
     <g id="line2d_8">
      <g>
       <use xlink:href="#mdab96d1204" x="143.93089" y="194.466016" style="fill: #898781; stroke: #898781; stroke-width: 0.8"/>
      </g>
     </g>
     <g id="text_4">
      <!-- 11 -->
      <g style="fill: #52514e" transform="translate(138.116515 209.633252) scale(0.105 -0.105)">
       <defs>
        <path id="Cambria-373" d="M 2172 816 
Q 2172 634 2192 542 
Q 2213 450 2264 392 
Q 2316 334 2412 301 
Q 2509 269 2656 251 
Q 2803 234 3044 228 
L 3044 0 
L 734 0 
L 734 228 
Q 1081 244 1229 270 
Q 1378 297 1456 350 
Q 1534 403 1570 500 
Q 1606 597 1606 816 
L 1606 3350 
Q 1606 3475 1562 3533 
Q 1519 3591 1434 3591 
Q 1334 3591 1150 3487 
Q 966 3384 694 3203 
L 556 3444 
L 2019 4316 
L 2191 4316 
Q 2172 4016 2172 3484 
L 2172 816 
z
" transform="scale(0.015625)"/>
       </defs>
       <use xlink:href="#Cambria-373"/>
       <use xlink:href="#Cambria-373" transform="translate(55.375 0)"/>
      </g>
     </g>
    </g>
    <g id="xtick_5">
     <g id="line2d_9">
      <path d="M 166.620254 194.466016 
L 166.620254 24.145068 
" clip-path="url(#p1f56de9327)" style="fill: none; stroke: #e1e0d9; stroke-width: 0.7; stroke-linecap: square"/>
     </g>
     <g id="line2d_10">
      <g>
       <use xlink:href="#mdab96d1204" x="166.620254" y="194.466016" style="fill: #898781; stroke: #898781; stroke-width: 0.8"/>
      </g>
     </g>
     <g id="text_5">
      <!-- 13 -->
      <g style="fill: #52514e" transform="translate(160.805879 209.633252) scale(0.105 -0.105)">
       <use xlink:href="#Cambria-373"/>
       <use xlink:href="#Cambria-375" transform="translate(55.375 0)"/>
      </g>
     </g>
    </g>
    <g id="xtick_6">
     <g id="line2d_11">
      <path d="M 211.998983 194.466016 
L 211.998983 24.145068 
" clip-path="url(#p1f56de9327)" style="fill: none; stroke: #e1e0d9; stroke-width: 0.7; stroke-linecap: square"/>
     </g>
     <g id="line2d_12">
      <g>
       <use xlink:href="#mdab96d1204" x="211.998983" y="194.466016" style="fill: #898781; stroke: #898781; stroke-width: 0.8"/>
      </g>
     </g>
     <g id="text_6">
      <!-- 17 -->
      <g style="fill: #52514e" transform="translate(206.184608 209.633252) scale(0.105 -0.105)">
       <use xlink:href="#Cambria-373"/>
       <use xlink:href="#Cambria-379" transform="translate(55.375 0)"/>
      </g>
     </g>
    </g>
    <g id="xtick_7">
     <g id="line2d_13">
      <path d="M 234.688347 194.466016 
L 234.688347 24.145068 
" clip-path="url(#p1f56de9327)" style="fill: none; stroke: #e1e0d9; stroke-width: 0.7; stroke-linecap: square"/>
     </g>
     <g id="line2d_14">
      <g>
       <use xlink:href="#mdab96d1204" x="234.688347" y="194.466016" style="fill: #898781; stroke: #898781; stroke-width: 0.8"/>
      </g>
     </g>
     <g id="text_7">
      <!-- 19 -->
      <g style="fill: #52514e" transform="translate(228.873972 209.633252) scale(0.105 -0.105)">
       <defs>
        <path id="Cambria-37b" d="M 978 122 
L 978 275 
Q 1416 275 1736 469 
Q 2056 663 2251 1042 
Q 2447 1422 2513 2038 
L 2481 2050 
Q 2219 1863 1964 1775 
Q 1709 1688 1413 1688 
Q 1059 1688 811 1842 
Q 563 1997 438 2276 
Q 313 2556 313 2931 
Q 313 3213 406 3464 
Q 500 3716 684 3905 
Q 869 4094 1145 4205 
Q 1422 4316 1791 4316 
Q 2447 4316 2790 3862 
Q 3134 3409 3134 2559 
Q 3134 1781 2881 1211 
Q 2628 641 2172 323 
Q 1716 6 1106 -50 
L 978 122 
z
M 1628 2016 
Q 1747 2016 1855 2036 
Q 1963 2056 2066 2095 
Q 2169 2134 2267 2195 
Q 2366 2256 2444 2325 
Q 2472 2350 2494 2390 
Q 2516 2431 2528 2497 
Q 2541 2563 2541 2703 
Q 2541 3131 2455 3436 
Q 2369 3741 2192 3895 
Q 2016 4050 1756 4050 
Q 1522 4050 1359 3969 
Q 1197 3888 1095 3745 
Q 994 3603 947 3411 
Q 900 3219 900 2994 
Q 900 2528 1090 2272 
Q 1281 2016 1628 2016 
z
" transform="scale(0.015625)"/>
       </defs>
       <use xlink:href="#Cambria-373"/>
       <use xlink:href="#Cambria-37b" transform="translate(55.375 0)"/>
      </g>
     </g>
    </g>
    <g id="xtick_8">
     <g id="line2d_15">
      <path d="M 280.067076 194.466016 
L 280.067076 24.145068 
" clip-path="url(#p1f56de9327)" style="fill: none; stroke: #e1e0d9; stroke-width: 0.7; stroke-linecap: square"/>
     </g>
     <g id="line2d_16">
      <g>
       <use xlink:href="#mdab96d1204" x="280.067076" y="194.466016" style="fill: #898781; stroke: #898781; stroke-width: 0.8"/>
      </g>
     </g>
     <g id="text_8">
      <!-- 23 -->
      <g style="fill: #52514e" transform="translate(274.252701 209.633252) scale(0.105 -0.105)">
       <defs>
        <path id="Cambria-374" d="M 2194 500 
Q 2347 500 2440 519 
Q 2534 538 2590 581 
Q 2647 625 2680 695 
Q 2713 766 2763 913 
L 3028 913 
L 2975 0 
L 403 0 
L 403 150 
Q 538 478 766 822 
Q 994 1166 1413 1631 
Q 1775 2031 1934 2238 
Q 2109 2463 2195 2627 
Q 2281 2791 2318 2936 
Q 2356 3081 2356 3228 
Q 2356 3463 2281 3642 
Q 2206 3822 2051 3925 
Q 1897 4028 1663 4028 
Q 1078 4028 875 3378 
L 497 3378 
L 497 3978 
Q 875 4156 1204 4236 
Q 1534 4316 1797 4316 
Q 2378 4316 2675 4061 
Q 2972 3806 2972 3322 
Q 2972 3156 2939 3017 
Q 2906 2878 2836 2742 
Q 2766 2606 2647 2450 
Q 2528 2294 2384 2133 
Q 2241 1972 1888 1597 
Q 1294 969 1016 500 
L 2194 500 
z
" transform="scale(0.015625)"/>
       </defs>
       <use xlink:href="#Cambria-374"/>
       <use xlink:href="#Cambria-375" transform="translate(55.375 0)"/>
      </g>
     </g>
    </g>
    <g id="text_9">
     <!-- base field size $q$ -->
     <g style="fill: #0b0b0b" transform="translate(126.960254 225.3) scale(0.12 -0.12)">
      <defs>
       <path id="Cambria-84" d="M 1091 2497 
L 1103 2494 
Q 1322 2722 1467 2825 
Q 1613 2928 1767 2983 
Q 1922 3038 2106 3038 
Q 2441 3038 2680 2867 
Q 2919 2697 3048 2356 
Q 3178 2016 3178 1522 
Q 3178 1013 3023 661 
Q 2869 309 2567 129 
Q 2266 -50 1853 -50 
Q 1622 -50 1417 -8 
Q 1213 34 988 141 
L 769 -50 
L 553 0 
L 553 3397 
Q 553 3697 548 3815 
Q 544 3934 523 4017 
Q 503 4100 467 4147 
Q 431 4194 370 4222 
Q 309 4250 150 4278 
L 150 4441 
L 906 4472 
L 1091 4472 
L 1091 2497 
z
M 1091 1125 
Q 1091 884 1112 742 
Q 1134 600 1186 506 
Q 1238 413 1336 334 
Q 1434 256 1556 226 
Q 1678 197 1828 197 
Q 2203 197 2397 503 
Q 2591 809 2591 1422 
Q 2591 2041 2414 2352 
Q 2238 2663 1881 2663 
Q 1703 2663 1578 2608 
Q 1453 2553 1329 2437 
Q 1206 2322 1148 2209 
Q 1091 2097 1091 1953 
L 1091 1125 
z
" transform="scale(0.015625)"/>
       <path id="Cambria-83" d="M 2109 447 
L 2063 459 
Q 1791 181 1552 65 
Q 1313 -50 1044 -50 
Q 806 -50 625 42 
Q 444 134 347 301 
Q 250 469 250 688 
Q 250 1144 701 1392 
Q 1153 1641 2056 1681 
L 2056 1884 
Q 2056 2209 1993 2396 
Q 1931 2584 1797 2671 
Q 1663 2759 1438 2759 
Q 1194 2759 1045 2631 
Q 897 2503 822 2247 
L 413 2247 
L 413 2653 
Q 713 2809 913 2882 
Q 1113 2956 1313 2998 
Q 1513 3041 1719 3041 
Q 2028 3041 2215 2942 
Q 2403 2844 2497 2641 
Q 2591 2438 2591 2028 
L 2591 941 
Q 2591 709 2594 614 
Q 2597 519 2612 437 
Q 2628 356 2659 307 
Q 2691 259 2752 225 
Q 2813 191 2950 153 
L 2950 0 
L 2094 0 
L 2109 447 
z
M 2056 1425 
Q 1422 1419 1106 1256 
Q 791 1094 791 766 
Q 791 588 862 484 
Q 934 381 1043 342 
Q 1153 303 1303 303 
Q 1516 303 1689 406 
Q 1863 509 1959 668 
Q 2056 828 2056 984 
L 2056 1425 
z
" transform="scale(0.015625)"/>
       <path id="Cambria-95" d="M 2397 2303 
L 2097 2303 
Q 2028 2491 1934 2598 
Q 1841 2706 1722 2750 
Q 1603 2794 1431 2794 
Q 1181 2794 1032 2676 
Q 884 2559 884 2356 
Q 884 2213 943 2119 
Q 1003 2025 1128 1944 
Q 1253 1863 1569 1728 
Q 1888 1591 2061 1475 
Q 2234 1359 2332 1206 
Q 2431 1053 2431 841 
Q 2431 594 2347 425 
Q 2263 256 2109 150 
Q 1956 44 1745 -3 
Q 1534 -50 1284 -50 
Q 1022 -50 775 -11 
Q 528 28 294 91 
L 294 744 
L 600 744 
Q 684 456 850 326 
Q 1016 197 1306 197 
Q 1419 197 1526 220 
Q 1634 244 1718 298 
Q 1803 353 1853 447 
Q 1903 541 1903 681 
Q 1903 841 1840 941 
Q 1778 1041 1647 1123 
Q 1516 1206 1184 1347 
Q 900 1466 728 1578 
Q 556 1691 457 1844 
Q 359 1997 359 2206 
Q 359 2463 498 2652 
Q 638 2841 900 2941 
Q 1163 3041 1516 3041 
Q 1722 3041 1914 3020 
Q 2106 3000 2397 2941 
L 2397 2303 
z
" transform="scale(0.015625)"/>
       <path id="Cambria-87" d="M 2800 531 
Q 2600 322 2433 203 
Q 2266 84 2066 17 
Q 1866 -50 1625 -50 
Q 981 -50 653 336 
Q 325 722 325 1475 
Q 325 1941 492 2297 
Q 659 2653 968 2847 
Q 1278 3041 1681 3041 
Q 1997 3041 2219 2941 
Q 2441 2841 2573 2667 
Q 2706 2494 2779 2230 
Q 2853 1966 2863 1541 
L 894 1541 
L 894 1484 
Q 894 1116 976 864 
Q 1059 613 1248 470 
Q 1438 328 1741 328 
Q 1997 328 2201 423 
Q 2406 519 2609 734 
L 2800 531 
z
M 2275 1800 
Q 2256 2138 2190 2352 
Q 2125 2566 1994 2680 
Q 1863 2794 1650 2794 
Q 1328 2794 1136 2536 
Q 944 2278 909 1800 
L 2275 1800 
z
" transform="scale(0.015625)"/>
       <path id="Cambria-3" transform="scale(0.015625)"/>
       <path id="Cambria-88" d="M 1909 2672 
L 1163 2672 
L 1163 781 
Q 1163 572 1183 465 
Q 1203 359 1242 304 
Q 1281 250 1345 217 
Q 1409 184 1550 153 
L 1550 0 
L 272 0 
L 272 153 
Q 409 191 468 225 
Q 528 259 561 312 
Q 594 366 609 466 
Q 625 566 625 781 
L 625 2672 
L 247 2672 
L 247 2831 
Q 366 2850 405 2861 
Q 444 2872 480 2894 
Q 516 2916 542 2956 
Q 569 2997 589 3076 
Q 609 3156 622 3300 
Q 650 3641 745 3853 
Q 841 4066 1023 4216 
Q 1206 4366 1414 4427 
Q 1622 4488 1903 4488 
Q 2150 4488 2322 4453 
L 2322 3888 
L 2013 3888 
Q 1953 4072 1873 4148 
Q 1794 4225 1650 4225 
Q 1547 4225 1476 4197 
Q 1406 4169 1347 4109 
Q 1288 4050 1245 3950 
Q 1203 3850 1183 3701 
Q 1163 3553 1163 3316 
L 1163 2988 
L 1909 2988 
L 1909 2672 
z
" transform="scale(0.015625)"/>
       <path id="Cambria-8b" d="M 1197 4213 
L 1197 3606 
L 622 3606 
L 622 4213 
L 1197 4213 
z
M 303 153 
Q 425 191 476 219 
Q 528 247 564 297 
Q 600 347 620 450 
Q 641 553 641 772 
L 641 2134 
Q 641 2334 634 2456 
Q 628 2578 590 2651 
Q 553 2725 476 2761 
Q 400 2797 259 2822 
L 259 2988 
L 988 3016 
L 1178 3016 
L 1178 781 
Q 1178 513 1203 408 
Q 1228 303 1298 248 
Q 1369 194 1528 153 
L 1528 0 
L 303 0 
L 303 153 
z
" transform="scale(0.015625)"/>
       <path id="Cambria-8e" d="M 1138 781 
Q 1138 513 1163 408 
Q 1188 303 1258 248 
Q 1328 194 1488 153 
L 1488 0 
L 247 0 
L 247 153 
Q 403 194 464 237 
Q 525 281 551 342 
Q 578 403 589 508 
Q 600 613 600 781 
L 600 3397 
Q 600 3697 595 3815 
Q 591 3934 570 4017 
Q 550 4100 514 4147 
Q 478 4194 417 4222 
Q 356 4250 197 4278 
L 197 4441 
L 950 4472 
L 1138 4472 
L 1138 781 
z
" transform="scale(0.015625)"/>
       <path id="Cambria-86" d="M 2413 3397 
Q 2413 3697 2408 3815 
Q 2403 3934 2383 4017 
Q 2363 4100 2327 4147 
Q 2291 4194 2230 4222 
Q 2169 4250 2009 4278 
L 2009 4441 
L 2766 4472 
L 2950 4472 
L 2950 853 
Q 2950 609 2959 504 
Q 2969 400 3000 337 
Q 3031 275 3098 236 
Q 3166 197 3334 163 
L 3334 0 
L 2597 -31 
L 2409 -31 
L 2447 481 
L 2400 494 
Q 2203 284 2058 179 
Q 1913 75 1748 12 
Q 1584 -50 1397 -50 
Q 884 -50 606 339 
Q 328 728 328 1463 
Q 328 1975 509 2333 
Q 691 2691 998 2866 
Q 1306 3041 1691 3041 
Q 1897 3041 2065 3008 
Q 2234 2975 2413 2900 
L 2413 3397 
z
M 2413 1853 
Q 2413 2097 2391 2244 
Q 2369 2391 2317 2491 
Q 2266 2591 2178 2659 
Q 2091 2728 1986 2759 
Q 1881 2791 1734 2791 
Q 1334 2791 1125 2470 
Q 916 2150 916 1550 
Q 916 950 1087 637 
Q 1259 325 1609 325 
Q 1747 325 1837 348 
Q 1928 372 2015 423 
Q 2103 475 2193 565 
Q 2284 656 2326 731 
Q 2369 806 2391 903 
Q 2413 1000 2413 1153 
L 2413 1853 
z
" transform="scale(0.015625)"/>
       <path id="Cambria-9c" d="M 2659 906 
L 2659 0 
L 253 0 
L 253 153 
L 1966 2734 
L 1119 2734 
Q 963 2734 872 2678 
Q 781 2622 700 2490 
Q 619 2359 544 2138 
L 272 2138 
L 272 2988 
L 2641 2988 
L 2641 2831 
L 931 253 
L 1753 253 
Q 1916 253 1997 278 
Q 2078 303 2137 358 
Q 2197 413 2253 531 
Q 2309 650 2388 906 
L 2659 906 
z
" transform="scale(0.015625)"/>
       <path id="Cmmi10-52" d="M 941 -1159 
Q 963 -1019 1025 -1019 
Q 1256 -1019 1389 -981 
Q 1522 -944 1563 -800 
L 1838 288 
Q 1472 -72 1106 -72 
Q 703 -72 473 233 
Q 244 538 244 953 
Q 244 1363 455 1803 
Q 666 2244 1027 2536 
Q 1388 2828 1806 2828 
Q 2000 2828 2156 2712 
Q 2313 2597 2394 2406 
Q 2431 2481 2601 2654 
Q 2772 2828 2841 2828 
Q 2913 2828 2913 2747 
L 2016 -825 
Q 2000 -919 1997 -934 
Q 1997 -1019 2419 -1019 
Q 2450 -1019 2467 -1044 
Q 2484 -1069 2484 -1100 
Q 2463 -1184 2448 -1212 
Q 2434 -1241 2375 -1241 
L 1006 -1241 
Q 941 -1241 941 -1159 
z
M 1119 97 
Q 1344 97 1558 267 
Q 1772 438 1931 672 
L 2291 2113 
Q 2253 2338 2126 2500 
Q 2000 2663 1791 2663 
Q 1575 2663 1389 2486 
Q 1203 2309 1075 2069 
Q 950 1813 836 1366 
Q 722 919 722 672 
Q 722 450 817 273 
Q 913 97 1119 97 
z
" transform="scale(0.015625)"/>
      </defs>
      <use xlink:href="#Cambria-84" transform="translate(0 0.875)"/>
      <use xlink:href="#Cambria-83" transform="translate(54.736328 0.875)"/>
      <use xlink:href="#Cambria-95" transform="translate(103.564453 0.875)"/>
      <use xlink:href="#Cambria-87" transform="translate(146.533203 0.875)"/>
      <use xlink:href="#Cambria-3" transform="translate(195.3125 0.875)"/>
      <use xlink:href="#Cambria-88" transform="translate(217.333984 0.875)"/>
      <use xlink:href="#Cambria-8b" transform="translate(247.607422 0.875)"/>
      <use xlink:href="#Cambria-87" transform="translate(275.390625 0.875)"/>
      <use xlink:href="#Cambria-8e" transform="translate(324.169922 0.875)"/>
      <use xlink:href="#Cambria-86" transform="translate(351.318359 0.875)"/>
      <use xlink:href="#Cambria-3" transform="translate(406.787109 0.875)"/>
      <use xlink:href="#Cambria-95" transform="translate(428.808594 0.875)"/>
      <use xlink:href="#Cambria-8b" transform="translate(471.777344 0.875)"/>
      <use xlink:href="#Cambria-9c" transform="translate(499.560547 0.875)"/>
      <use xlink:href="#Cambria-87" transform="translate(545.019531 0.875)"/>
      <use xlink:href="#Cambria-3" transform="translate(593.798828 0.875)"/>
      <use xlink:href="#Cmmi10-52" transform="translate(615.820312 0.875)"/>
     </g>
    </g>
   </g>
   <g id="matplotlib.axis_2">
    <g id="ytick_1">
     <g id="line2d_17">
      <path d="M 41.82875 194.466016 
L 291.411758 194.466016 
" clip-path="url(#p1f56de9327)" style="fill: none; stroke: #e1e0d9; stroke-width: 0.7; stroke-linecap: square"/>
     </g>
     <g id="line2d_18">
      <defs>
       <path id="m0d4e213c45" d="M 0 0 
L -3.5 0 
" style="stroke: #898781; stroke-width: 0.8"/>
      </defs>
      <g>
       <use xlink:href="#m0d4e213c45" x="41.82875" y="194.466016" style="fill: #898781; stroke: #898781; stroke-width: 0.8"/>
      </g>
     </g>
     <g id="text_10">
      <!-- 0 -->
      <g style="fill: #52514e" transform="translate(29.014375 198.549634) scale(0.105 -0.105)">
       <defs>
        <path id="Cambria-372" d="M 1738 -50 
Q 1063 -50 733 481 
Q 403 1013 403 2094 
Q 403 2669 504 3087 
Q 606 3506 789 3779 
Q 972 4053 1228 4184 
Q 1484 4316 1788 4316 
Q 2472 4316 2806 3787 
Q 3141 3259 3141 2191 
Q 3141 1084 2783 517 
Q 2425 -50 1738 -50 
z
M 1013 2188 
Q 1013 1169 1202 692 
Q 1391 216 1788 216 
Q 2166 216 2348 664 
Q 2531 1113 2531 2053 
Q 2531 2772 2437 3217 
Q 2344 3663 2176 3856 
Q 2009 4050 1772 4050 
Q 1556 4050 1411 3922 
Q 1266 3794 1177 3553 
Q 1088 3313 1050 2967 
Q 1013 2622 1013 2188 
z
" transform="scale(0.015625)"/>
       </defs>
       <use xlink:href="#Cambria-372"/>
      </g>
     </g>
    </g>
    <g id="ytick_2">
     <g id="line2d_19">
      <path d="M 41.82875 160.401826 
L 291.411758 160.401826 
" clip-path="url(#p1f56de9327)" style="fill: none; stroke: #e1e0d9; stroke-width: 0.7; stroke-linecap: square"/>
     </g>
     <g id="line2d_20">
      <g>
       <use xlink:href="#m0d4e213c45" x="41.82875" y="160.401826" style="fill: #898781; stroke: #898781; stroke-width: 0.8"/>
      </g>
     </g>
     <g id="text_11">
      <!-- 5 -->
      <g style="fill: #52514e" transform="translate(29.014375 164.485444) scale(0.105 -0.105)">
       <use xlink:href="#Cambria-377"/>
      </g>
     </g>
    </g>
    <g id="ytick_3">
     <g id="line2d_21">
      <path d="M 41.82875 126.337637 
L 291.411758 126.337637 
" clip-path="url(#p1f56de9327)" style="fill: none; stroke: #e1e0d9; stroke-width: 0.7; stroke-linecap: square"/>
     </g>
     <g id="line2d_22">
      <g>
       <use xlink:href="#m0d4e213c45" x="41.82875" y="126.337637" style="fill: #898781; stroke: #898781; stroke-width: 0.8"/>
      </g>
     </g>
     <g id="text_12">
      <!-- 10 -->
      <g style="fill: #52514e" transform="translate(23.2 130.421255) scale(0.105 -0.105)">
       <use xlink:href="#Cambria-373"/>
       <use xlink:href="#Cambria-372" transform="translate(55.375 0)"/>
      </g>
     </g>
    </g>
    <g id="ytick_4">
     <g id="line2d_23">
      <path d="M 41.82875 92.273447 
L 291.411758 92.273447 
" clip-path="url(#p1f56de9327)" style="fill: none; stroke: #e1e0d9; stroke-width: 0.7; stroke-linecap: square"/>
     </g>
     <g id="line2d_24">
      <g>
       <use xlink:href="#m0d4e213c45" x="41.82875" y="92.273447" style="fill: #898781; stroke: #898781; stroke-width: 0.8"/>
      </g>
     </g>
     <g id="text_13">
      <!-- 15 -->
      <g style="fill: #52514e" transform="translate(23.2 96.357065) scale(0.105 -0.105)">
       <use xlink:href="#Cambria-373"/>
       <use xlink:href="#Cambria-377" transform="translate(55.375 0)"/>
      </g>
     </g>
    </g>
    <g id="ytick_5">
     <g id="line2d_25">
      <path d="M 41.82875 58.209258 
L 291.411758 58.209258 
" clip-path="url(#p1f56de9327)" style="fill: none; stroke: #e1e0d9; stroke-width: 0.7; stroke-linecap: square"/>
     </g>
     <g id="line2d_26">
      <g>
       <use xlink:href="#m0d4e213c45" x="41.82875" y="58.209258" style="fill: #898781; stroke: #898781; stroke-width: 0.8"/>
      </g>
     </g>
     <g id="text_14">
      <!-- 20 -->
      <g style="fill: #52514e" transform="translate(23.2 62.292876) scale(0.105 -0.105)">
       <use xlink:href="#Cambria-374"/>
       <use xlink:href="#Cambria-372" transform="translate(55.375 0)"/>
      </g>
     </g>
    </g>
    <g id="ytick_6">
     <g id="line2d_27">
      <path d="M 41.82875 24.145068 
L 291.411758 24.145068 
" clip-path="url(#p1f56de9327)" style="fill: none; stroke: #e1e0d9; stroke-width: 0.7; stroke-linecap: square"/>
     </g>
     <g id="line2d_28">
      <g>
       <use xlink:href="#m0d4e213c45" x="41.82875" y="24.145068" style="fill: #898781; stroke: #898781; stroke-width: 0.8"/>
      </g>
     </g>
     <g id="text_15">
      <!-- 25 -->
      <g style="fill: #52514e" transform="translate(23.2 28.228687) scale(0.105 -0.105)">
       <use xlink:href="#Cambria-374"/>
       <use xlink:href="#Cambria-377" transform="translate(55.375 0)"/>
      </g>
     </g>
    </g>
    <g id="text_16">
     <!-- degree -->
     <g style="fill: #0b0b0b" transform="translate(16.533984 126.773042) rotate(-90) scale(0.12 -0.12)">
      <defs>
       <path id="Cambria-89" d="M 3106 2672 
L 2528 2694 
L 2500 2659 
Q 2597 2563 2653 2395 
Q 2709 2228 2709 2034 
Q 2709 1525 2395 1248 
Q 2081 972 1503 972 
Q 1244 972 1056 1038 
Q 819 856 819 681 
Q 819 566 864 506 
Q 909 447 1014 422 
Q 1119 397 1331 397 
L 2081 397 
Q 2413 397 2622 294 
Q 2831 191 2920 17 
Q 3009 -156 3009 -388 
Q 3009 -681 2840 -911 
Q 2672 -1141 2353 -1269 
Q 2034 -1397 1609 -1397 
Q 1294 -1397 1033 -1359 
Q 772 -1322 586 -1233 
Q 400 -1144 298 -998 
Q 197 -853 197 -634 
Q 197 -438 328 -277 
Q 459 -116 700 6 
Q 553 66 468 181 
Q 384 297 384 453 
Q 384 631 484 779 
Q 584 928 838 1119 
Q 613 1250 495 1475 
Q 378 1700 378 1988 
Q 378 2256 467 2454 
Q 556 2653 714 2783 
Q 872 2913 1087 2977 
Q 1303 3041 1553 3041 
Q 1778 3041 2000 2988 
L 3106 2988 
L 3106 2672 
z
M 938 2038 
Q 938 1647 1097 1434 
Q 1256 1222 1556 1222 
Q 1716 1222 1828 1283 
Q 1941 1344 2011 1450 
Q 2081 1556 2114 1695 
Q 2147 1834 2147 1988 
Q 2147 2263 2069 2447 
Q 1991 2631 1856 2717 
Q 1722 2803 1547 2803 
Q 1250 2803 1094 2606 
Q 938 2409 938 2038 
z
M 1016 -50 
Q 856 -169 776 -301 
Q 697 -434 697 -603 
Q 697 -884 920 -1017 
Q 1144 -1150 1603 -1150 
Q 1884 -1150 2086 -1075 
Q 2288 -1000 2394 -859 
Q 2500 -719 2500 -531 
Q 2500 -444 2478 -361 
Q 2456 -278 2395 -212 
Q 2334 -147 2221 -108 
Q 2109 -69 1928 -69 
L 1463 -69 
Q 1209 -69 1016 -50 
z
" transform="scale(0.015625)"/>
       <path id="Cambria-94" d="M 1147 2469 
L 1191 2459 
Q 1363 2669 1509 2789 
Q 1656 2909 1826 2975 
Q 1997 3041 2213 3041 
Q 2394 3041 2541 3022 
L 2541 2303 
L 2188 2303 
Q 2113 2472 2028 2548 
Q 1944 2625 1797 2625 
Q 1684 2625 1573 2559 
Q 1463 2494 1359 2369 
Q 1256 2244 1217 2134 
Q 1178 2025 1178 1875 
L 1178 781 
Q 1178 497 1212 389 
Q 1247 281 1326 231 
Q 1406 181 1566 153 
L 1566 0 
L 306 0 
L 306 153 
Q 425 191 476 219 
Q 528 247 565 297 
Q 603 347 622 450 
Q 641 553 641 772 
L 641 2134 
Q 641 2334 634 2456 
Q 628 2578 590 2651 
Q 553 2725 476 2761 
Q 400 2797 259 2822 
L 259 2984 
L 991 3016 
L 1181 3016 
L 1147 2469 
z
" transform="scale(0.015625)"/>
      </defs>
      <use xlink:href="#Cambria-86"/>
      <use xlink:href="#Cambria-87" transform="translate(55.46875 0)"/>
      <use xlink:href="#Cambria-89" transform="translate(104.25 0)"/>
      <use xlink:href="#Cambria-94" transform="translate(153.671875 0)"/>
      <use xlink:href="#Cambria-87" transform="translate(193.5625 0)"/>
      <use xlink:href="#Cambria-87" transform="translate(242.34375 0)"/>
     </g>
    </g>
   </g>
   <g id="line2d_29">
    <path d="M 53.173432 167.214664 
L 75.862797 160.401826 
L 98.552161 146.77615 
L 143.93089 119.524799 
L 166.620254 105.899123 
L 211.998983 78.647771 
L 234.688347 65.022096 
L 280.067076 37.770744 
" clip-path="url(#p1f56de9327)" style="fill: none; stroke-dasharray: 5.55,2.4; stroke-dashoffset: 0; stroke: #1baf7a; stroke-width: 1.5"/>
    <defs>
     <path id="me08832318d" d="M -4.5 4.5 
L 4.5 4.5 
L 4.5 -4.5 
L -4.5 -4.5 
z
" style="stroke: #1baf7a; stroke-linejoin: miter"/>
    </defs>
    <g clip-path="url(#p1f56de9327)">
     <use xlink:href="#me08832318d" x="53.173432" y="167.214664" style="fill-opacity: 0; stroke: #1baf7a; stroke-linejoin: miter"/>
     <use xlink:href="#me08832318d" x="75.862797" y="160.401826" style="fill-opacity: 0; stroke: #1baf7a; stroke-linejoin: miter"/>
     <use xlink:href="#me08832318d" x="98.552161" y="146.77615" style="fill-opacity: 0; stroke: #1baf7a; stroke-linejoin: miter"/>
     <use xlink:href="#me08832318d" x="143.93089" y="119.524799" style="fill-opacity: 0; stroke: #1baf7a; stroke-linejoin: miter"/>
     <use xlink:href="#me08832318d" x="166.620254" y="105.899123" style="fill-opacity: 0; stroke: #1baf7a; stroke-linejoin: miter"/>
     <use xlink:href="#me08832318d" x="211.998983" y="78.647771" style="fill-opacity: 0; stroke: #1baf7a; stroke-linejoin: miter"/>
     <use xlink:href="#me08832318d" x="234.688347" y="65.022096" style="fill-opacity: 0; stroke: #1baf7a; stroke-linejoin: miter"/>
     <use xlink:href="#me08832318d" x="280.067076" y="37.770744" style="fill-opacity: 0; stroke: #1baf7a; stroke-linejoin: miter"/>
    </g>
   </g>
   <g id="line2d_30">
    <path d="M 53.173432 167.214664 
L 75.862797 160.401826 
L 98.552161 146.77615 
L 143.93089 119.524799 
L 166.620254 105.899123 
L 211.998983 78.647771 
L 234.688347 65.022096 
L 280.067076 37.770744 
" clip-path="url(#p1f56de9327)" style="fill: none; stroke: #2a78d6; stroke-width: 2; stroke-linecap: square"/>
    <defs>
     <path id="mff0dd7c98b" d="M 0 2.75 
C 0.729309 2.75 1.428845 2.460243 1.944544 1.944544 
C 2.460243 1.428845 2.75 0.729309 2.75 0 
C 2.75 -0.729309 2.460243 -1.428845 1.944544 -1.944544 
C 1.428845 -2.460243 0.729309 -2.75 0 -2.75 
C -0.729309 -2.75 -1.428845 -2.460243 -1.944544 -1.944544 
C -2.460243 -1.428845 -2.75 -0.729309 -2.75 0 
C -2.75 0.729309 -2.460243 1.428845 -1.944544 1.944544 
C -1.428845 2.460243 -0.729309 2.75 0 2.75 
z
" style="stroke: #2a78d6"/>
    </defs>
    <g clip-path="url(#p1f56de9327)">
     <use xlink:href="#mff0dd7c98b" x="53.173432" y="167.214664" style="fill: #2a78d6; stroke: #2a78d6"/>
     <use xlink:href="#mff0dd7c98b" x="75.862797" y="160.401826" style="fill: #2a78d6; stroke: #2a78d6"/>
     <use xlink:href="#mff0dd7c98b" x="98.552161" y="146.77615" style="fill: #2a78d6; stroke: #2a78d6"/>
     <use xlink:href="#mff0dd7c98b" x="143.93089" y="119.524799" style="fill: #2a78d6; stroke: #2a78d6"/>
     <use xlink:href="#mff0dd7c98b" x="166.620254" y="105.899123" style="fill: #2a78d6; stroke: #2a78d6"/>
     <use xlink:href="#mff0dd7c98b" x="211.998983" y="78.647771" style="fill: #2a78d6; stroke: #2a78d6"/>
     <use xlink:href="#mff0dd7c98b" x="234.688347" y="65.022096" style="fill: #2a78d6; stroke: #2a78d6"/>
     <use xlink:href="#mff0dd7c98b" x="280.067076" y="37.770744" style="fill: #2a78d6; stroke: #2a78d6"/>
    </g>
   </g>
   <g id="line2d_31">
    <path d="M 53.173432 167.214664 
L 75.862797 160.401826 
L 98.552161 160.401826 
L 143.93089 160.401826 
L 166.620254 160.401826 
L 211.998983 160.401826 
L 234.688347 160.401826 
L 280.067076 160.401826 
" clip-path="url(#p1f56de9327)" style="fill: none; stroke: #eb6834; stroke-width: 2; stroke-linecap: square"/>
    <defs>
     <path id="m7c6b1559db" d="M 0 3.535534 
L 3.535534 0 
L 0 -3.535534 
L -3.535534 0 
z
" style="stroke: #eb6834; stroke-linejoin: miter"/>
    </defs>
    <g clip-path="url(#p1f56de9327)">
     <use xlink:href="#m7c6b1559db" x="53.173432" y="167.214664" style="fill: #eb6834; stroke: #eb6834; stroke-linejoin: miter"/>
     <use xlink:href="#m7c6b1559db" x="75.862797" y="160.401826" style="fill: #eb6834; stroke: #eb6834; stroke-linejoin: miter"/>
     <use xlink:href="#m7c6b1559db" x="98.552161" y="160.401826" style="fill: #eb6834; stroke: #eb6834; stroke-linejoin: miter"/>
     <use xlink:href="#m7c6b1559db" x="143.93089" y="160.401826" style="fill: #eb6834; stroke: #eb6834; stroke-linejoin: miter"/>
     <use xlink:href="#m7c6b1559db" x="166.620254" y="160.401826" style="fill: #eb6834; stroke: #eb6834; stroke-linejoin: miter"/>
     <use xlink:href="#m7c6b1559db" x="211.998983" y="160.401826" style="fill: #eb6834; stroke: #eb6834; stroke-linejoin: miter"/>
     <use xlink:href="#m7c6b1559db" x="234.688347" y="160.401826" style="fill: #eb6834; stroke: #eb6834; stroke-linejoin: miter"/>
     <use xlink:href="#m7c6b1559db" x="280.067076" y="160.401826" style="fill: #eb6834; stroke: #eb6834; stroke-linejoin: miter"/>
    </g>
   </g>
   <g id="patch_3">
    <path d="M 41.82875 194.466016 
L 41.82875 24.145068 
" style="fill: none; stroke: #c3c2b7; stroke-width: 0.9; stroke-linejoin: miter; stroke-linecap: square"/>
   </g>
   <g id="patch_4">
    <path d="M 41.82875 194.466016 
L 291.411758 194.466016 
" style="fill: none; stroke: #c3c2b7; stroke-width: 0.9; stroke-linejoin: miter; stroke-linecap: square"/>
   </g>
   <g id="patch_5">
    <path d="M 239.384907 77.69082 
Q 259.012116 58.431284 277.841318 39.954807 
" style="fill: none; stroke: #52514e; stroke-linecap: round"/>
    <path d="M 273.585496 41.328845 
L 277.841318 39.954807 
L 276.387055 44.183888 
z
" style="fill: #52514e; stroke: #52514e; stroke-linecap: round"/>
   </g>
   <g id="text_17">
    <!-- gap 18 -->
    <g style="fill: #52514e" transform="translate(216.536855 88.867028) scale(0.1 -0.1)">
     <defs>
      <path id="Cambria-92" d="M 1150 94 
L 1150 -566 
Q 1150 -769 1164 -869 
Q 1178 -969 1214 -1026 
Q 1250 -1084 1317 -1121 
Q 1384 -1159 1534 -1191 
L 1534 -1344 
L 259 -1344 
L 259 -1191 
Q 372 -1159 442 -1126 
Q 513 -1094 550 -1030 
Q 588 -966 600 -856 
Q 613 -747 613 -566 
L 613 2116 
Q 613 2341 606 2436 
Q 600 2531 581 2593 
Q 563 2656 527 2697 
Q 491 2738 430 2766 
Q 369 2794 228 2822 
L 228 2988 
L 963 3016 
L 1153 3016 
L 1113 2506 
L 1159 2494 
Q 1353 2691 1465 2780 
Q 1578 2869 1698 2928 
Q 1819 2988 1930 3013 
Q 2041 3038 2166 3038 
Q 2681 3038 2957 2652 
Q 3234 2266 3234 1522 
Q 3234 1006 3078 654 
Q 2922 303 2623 126 
Q 2325 -50 1913 -50 
Q 1681 -50 1493 -11 
Q 1306 28 1150 94 
z
M 1150 1125 
Q 1150 825 1187 662 
Q 1225 500 1320 398 
Q 1416 297 1545 247 
Q 1675 197 1888 197 
Q 2266 197 2456 511 
Q 2647 825 2647 1438 
Q 2647 2663 1931 2663 
Q 1756 2663 1629 2608 
Q 1503 2553 1378 2431 
Q 1253 2309 1201 2195 
Q 1150 2081 1150 1950 
L 1150 1125 
z
" transform="scale(0.015625)"/>
      <path id="Cambria-37a" d="M 2475 2253 
L 2481 2213 
Q 2834 2075 3015 1811 
Q 3197 1547 3197 1175 
Q 3197 809 3022 531 
Q 2847 253 2514 101 
Q 2181 -50 1738 -50 
Q 1322 -50 1008 89 
Q 694 228 520 495 
Q 347 763 347 1125 
Q 347 1397 440 1597 
Q 534 1797 686 1926 
Q 838 2056 1069 2163 
L 1063 2203 
Q 391 2494 391 3200 
Q 391 3522 567 3775 
Q 744 4028 1070 4172 
Q 1397 4316 1794 4316 
Q 2244 4316 2550 4189 
Q 2856 4063 3011 3823 
Q 3166 3584 3166 3250 
Q 3166 2906 2997 2657 
Q 2828 2409 2475 2253 
z
M 978 3228 
Q 978 3044 1022 2881 
Q 1066 2719 1162 2600 
Q 1259 2481 1414 2411 
Q 1569 2341 1794 2341 
Q 2053 2341 2229 2442 
Q 2406 2544 2492 2739 
Q 2578 2934 2578 3191 
Q 2578 3472 2476 3667 
Q 2375 3863 2197 3956 
Q 2019 4050 1788 4050 
Q 1394 4050 1186 3836 
Q 978 3622 978 3228 
z
M 944 1178 
Q 944 975 991 798 
Q 1038 622 1139 494 
Q 1241 366 1400 291 
Q 1559 216 1788 216 
Q 2044 216 2226 320 
Q 2409 425 2504 631 
Q 2600 838 2600 1119 
Q 2600 1419 2497 1636 
Q 2394 1853 2206 1967 
Q 2019 2081 1772 2081 
Q 1541 2081 1383 2009 
Q 1225 1938 1126 1816 
Q 1028 1694 986 1530 
Q 944 1366 944 1178 
z
" transform="scale(0.015625)"/>
     </defs>
     <use xlink:href="#Cambria-89"/>
     <use xlink:href="#Cambria-83" transform="translate(48.59375 0)"/>
     <use xlink:href="#Cambria-92" transform="translate(97.421875 0)"/>
     <use xlink:href="#Cambria-3" transform="translate(153.03125 0)"/>
     <use xlink:href="#Cambria-373" transform="translate(175.046875 0)"/>
     <use xlink:href="#Cambria-37a" transform="translate(230.421875 0)"/>
    </g>
   </g>
   <g id="patch_6">
    <path d="M 249.253911 99.47957 
Q 264.183739 127.017479 278.580695 153.572511 
" style="fill: none; stroke: #52514e; stroke-linecap: round"/>
    <path d="M 278.40281 148.208897 
L 278.580695 153.572511 
L 274.183073 150.496651 
z
" style="fill: #52514e; stroke: #52514e; stroke-linecap: round"/>
   </g>
   <g id="text_18">
    <!-- $n=m=2$: the gap grows with $q$ -->
    <g style="fill: #0b0b0b" transform="translate(41.82875 16.145068) scale(0.115 -0.115)">
     <defs>
      <path id="Cmmi10-7a" d="M 494 109 
Q 494 147 500 166 
L 978 2075 
Q 1025 2253 1025 2388 
Q 1025 2663 838 2663 
Q 638 2663 541 2423 
Q 444 2184 353 1819 
Q 353 1800 334 1789 
Q 316 1778 300 1778 
L 225 1778 
Q 203 1778 187 1801 
Q 172 1825 172 1844 
Q 241 2122 305 2315 
Q 369 2509 505 2668 
Q 641 2828 844 2828 
Q 1084 2828 1268 2676 
Q 1453 2525 1453 2291 
Q 1644 2541 1900 2684 
Q 2156 2828 2444 2828 
Q 2672 2828 2837 2750 
Q 3003 2672 3095 2514 
Q 3188 2356 3188 2138 
Q 3188 1875 3070 1503 
Q 2953 1131 2778 672 
Q 2688 463 2688 288 
Q 2688 97 2834 97 
Q 3084 97 3251 365 
Q 3419 634 3488 941 
Q 3500 978 3541 978 
L 3616 978 
Q 3641 978 3658 962 
Q 3675 947 3675 922 
Q 3675 916 3669 903 
Q 3581 541 3364 234 
Q 3147 -72 2822 -72 
Q 2597 -72 2437 83 
Q 2278 238 2278 459 
Q 2278 578 2328 709 
Q 2409 919 2514 1209 
Q 2619 1500 2686 1765 
Q 2753 2031 2753 2234 
Q 2753 2413 2679 2538 
Q 2606 2663 2431 2663 
Q 2197 2663 2000 2559 
Q 1803 2456 1656 2286 
Q 1509 2116 1388 1881 
L 953 141 
Q 931 53 854 -9 
Q 778 -72 684 -72 
Q 606 -72 550 -22 
Q 494 28 494 109 
z
" transform="scale(0.015625)"/>
      <path id="Cmr10-29" d="M 481 850 
Q 428 850 393 890 
Q 359 931 359 978 
Q 359 1031 393 1068 
Q 428 1106 481 1106 
L 4500 1106 
Q 4547 1106 4581 1068 
Q 4616 1031 4616 978 
Q 4616 931 4581 890 
Q 4547 850 4500 850 
L 481 850 
z
M 481 2094 
Q 428 2094 393 2131 
Q 359 2169 359 2222 
Q 359 2269 393 2309 
Q 428 2350 481 2350 
L 4500 2350 
Q 4547 2350 4581 2309 
Q 4616 2269 4616 2222 
Q 4616 2169 4581 2131 
Q 4547 2094 4500 2094 
L 481 2094 
z
" transform="scale(0.015625)"/>
      <path id="Cmmi10-45" d="M 494 109 
Q 494 147 500 166 
L 978 2075 
Q 1025 2253 1025 2388 
Q 1025 2663 838 2663 
Q 638 2663 541 2423 
Q 444 2184 353 1819 
Q 353 1800 334 1789 
Q 316 1778 300 1778 
L 225 1778 
Q 203 1778 187 1801 
Q 172 1825 172 1844 
Q 241 2122 305 2315 
Q 369 2509 505 2668 
Q 641 2828 844 2828 
Q 1084 2828 1268 2676 
Q 1453 2525 1453 2291 
Q 1644 2541 1900 2684 
Q 2156 2828 2444 2828 
Q 2747 2828 2967 2673 
Q 3188 2519 3188 2234 
Q 3384 2513 3648 2670 
Q 3913 2828 4225 2828 
Q 4556 2828 4757 2648 
Q 4959 2469 4959 2138 
Q 4959 1875 4842 1503 
Q 4725 1131 4550 672 
Q 4459 450 4459 288 
Q 4459 97 4609 97 
Q 4859 97 5025 365 
Q 5191 634 5259 941 
Q 5278 978 5313 978 
L 5388 978 
Q 5413 978 5430 961 
Q 5447 944 5447 922 
Q 5447 916 5441 903 
Q 5353 541 5136 234 
Q 4919 -72 4594 -72 
Q 4369 -72 4209 83 
Q 4050 238 4050 459 
Q 4050 572 4103 709 
Q 4284 1191 4404 1569 
Q 4525 1947 4525 2234 
Q 4525 2413 4453 2538 
Q 4381 2663 4213 2663 
Q 3863 2663 3606 2448 
Q 3350 2234 3163 1881 
Q 3150 1819 3144 1784 
L 2731 141 
Q 2709 53 2632 -9 
Q 2556 -72 2463 -72 
Q 2388 -72 2330 -22 
Q 2272 28 2272 109 
Q 2272 147 2278 166 
L 2688 1797 
Q 2753 2059 2753 2234 
Q 2753 2413 2679 2538 
Q 2606 2663 2431 2663 
Q 2197 2663 2000 2559 
Q 1803 2456 1656 2286 
Q 1509 2116 1388 1881 
L 953 141 
Q 931 53 854 -9 
Q 778 -72 684 -72 
Q 606 -72 550 -22 
Q 494 28 494 109 
z
" transform="scale(0.015625)"/>
      <path id="Cmr10-31" d="M 319 0 
L 319 172 
Q 319 188 331 206 
L 1325 1306 
Q 1550 1550 1690 1715 
Q 1831 1881 1968 2097 
Q 2106 2313 2186 2536 
Q 2266 2759 2266 3009 
Q 2266 3272 2169 3511 
Q 2072 3750 1880 3894 
Q 1688 4038 1416 4038 
Q 1138 4038 916 3870 
Q 694 3703 603 3438 
Q 628 3444 672 3444 
Q 816 3444 917 3347 
Q 1019 3250 1019 3097 
Q 1019 2950 917 2848 
Q 816 2747 672 2747 
Q 522 2747 420 2851 
Q 319 2956 319 3097 
Q 319 3338 409 3548 
Q 500 3759 670 3923 
Q 841 4088 1055 4175 
Q 1269 4263 1509 4263 
Q 1875 4263 2190 4108 
Q 2506 3953 2690 3670 
Q 2875 3388 2875 3009 
Q 2875 2731 2753 2481 
Q 2631 2231 2440 2026 
Q 2250 1822 1953 1562 
Q 1656 1303 1563 1216 
L 838 519 
L 1453 519 
Q 1906 519 2211 526 
Q 2516 534 2534 550 
Q 2609 631 2688 1141 
L 2875 1141 
L 2694 0 
L 319 0 
z
" transform="scale(0.015625)"/>
      <path id="Cambria-1e3" d="M 1156 2822 
L 1156 2091 
L 531 2091 
L 531 2822 
L 1156 2822 
z
M 1156 725 
L 1156 0 
L 531 0 
L 531 725 
L 1156 725 
z
" transform="scale(0.015625)"/>
      <path id="Cambria-96" d="M 116 2831 
Q 272 2856 369 2918 
Q 466 2981 520 3079 
Q 575 3178 606 3326 
Q 638 3475 672 3759 
L 1116 3759 
L 1116 2988 
L 2125 2988 
L 2125 2672 
L 1116 2672 
L 1116 1281 
Q 1116 978 1141 798 
Q 1166 619 1234 517 
Q 1303 416 1390 372 
Q 1478 328 1616 328 
Q 1741 328 1850 379 
Q 1959 431 2066 528 
L 2206 359 
Q 1984 144 1786 47 
Q 1588 -50 1375 -50 
Q 972 -50 775 189 
Q 578 428 578 938 
L 578 2672 
L 116 2672 
L 116 2831 
z
" transform="scale(0.015625)"/>
      <path id="Cambria-8a" d="M 1141 2497 
L 1153 2494 
Q 1397 2741 1539 2839 
Q 1681 2938 1820 2988 
Q 1959 3038 2119 3038 
Q 2291 3038 2425 2997 
Q 2559 2956 2661 2873 
Q 2763 2791 2827 2670 
Q 2891 2550 2922 2383 
Q 2953 2216 2953 1959 
L 2953 781 
Q 2953 509 2976 411 
Q 3000 313 3061 258 
Q 3122 203 3306 153 
L 3306 0 
L 2075 0 
L 2075 153 
Q 2197 191 2250 219 
Q 2303 247 2339 297 
Q 2375 347 2395 451 
Q 2416 556 2416 769 
L 2416 1588 
Q 2416 2003 2373 2223 
Q 2331 2444 2207 2553 
Q 2084 2663 1863 2663 
Q 1738 2663 1638 2619 
Q 1538 2575 1406 2462 
Q 1275 2350 1208 2231 
Q 1141 2113 1141 1978 
L 1141 781 
Q 1141 569 1152 478 
Q 1163 388 1194 327 
Q 1225 266 1289 227 
Q 1353 188 1488 153 
L 1488 0 
L 250 0 
L 250 153 
Q 388 191 447 225 
Q 506 259 539 312 
Q 572 366 587 466 
Q 603 566 603 781 
L 603 3397 
Q 603 3697 598 3815 
Q 594 3934 573 4017 
Q 553 4100 517 4147 
Q 481 4194 420 4222 
Q 359 4250 200 4278 
L 200 4441 
L 953 4472 
L 1141 4472 
L 1141 2497 
z
" transform="scale(0.015625)"/>
      <path id="Cambria-91" d="M 1663 -50 
Q 1013 -50 670 333 
Q 328 716 328 1466 
Q 328 1981 508 2337 
Q 688 2694 1000 2867 
Q 1313 3041 1713 3041 
Q 2381 3041 2725 2652 
Q 3069 2263 3069 1534 
Q 3069 1016 2897 659 
Q 2725 303 2409 126 
Q 2094 -50 1663 -50 
z
M 919 1531 
Q 919 888 1123 542 
Q 1328 197 1709 197 
Q 1919 197 2066 298 
Q 2213 400 2305 572 
Q 2397 744 2437 970 
Q 2478 1197 2478 1444 
Q 2478 1903 2376 2206 
Q 2275 2509 2100 2651 
Q 1925 2794 1700 2794 
Q 1322 2794 1120 2466 
Q 919 2138 919 1531 
z
" transform="scale(0.015625)"/>
      <path id="Cambria-99" d="M 2494 2334 
L 1675 -16 
L 1241 -16 
L 491 2303 
Q 419 2528 370 2620 
Q 322 2713 267 2758 
Q 213 2803 91 2834 
L 91 2988 
L 1325 2988 
L 1325 2834 
Q 1144 2797 1080 2736 
Q 1016 2675 1016 2553 
Q 1016 2469 1034 2376 
Q 1053 2284 1091 2163 
L 1581 569 
L 2384 2988 
L 2825 2988 
L 3506 569 
L 4056 2097 
Q 4100 2216 4128 2323 
Q 4156 2431 4156 2525 
Q 4156 2656 4086 2728 
Q 4016 2800 3847 2834 
L 3847 2988 
L 4938 2988 
L 4938 2834 
Q 4850 2813 4806 2789 
Q 4763 2766 4720 2720 
Q 4678 2675 4626 2579 
Q 4575 2484 4497 2284 
L 3594 -16 
L 3172 -16 
L 2494 2334 
z
" transform="scale(0.015625)"/>
     </defs>
     <use xlink:href="#Cmmi10-7a" transform="translate(0 0.125)"/>
     <use xlink:href="#Cmr10-29" transform="translate(80.009823 0.125)"/>
     <use xlink:href="#Cmmi10-45" transform="translate(177.695427 0.125)"/>
     <use xlink:href="#Cmr10-29" transform="translate(285.488453 0.125)"/>
     <use xlink:href="#Cmr10-31" transform="translate(383.174057 0.125)"/>
     <use xlink:href="#Cambria-1e3" transform="translate(433.174057 0.125)"/>
     <use xlink:href="#Cambria-3" transform="translate(459.541245 0.125)"/>
     <use xlink:href="#Cambria-96" transform="translate(481.562729 0.125)"/>
     <use xlink:href="#Cambria-8a" transform="translate(515.40062 0.125)"/>
     <use xlink:href="#Cambria-87" transform="translate(570.576401 0.125)"/>
     <use xlink:href="#Cambria-3" transform="translate(619.355698 0.125)"/>
     <use xlink:href="#Cambria-89" transform="translate(641.377182 0.125)"/>
     <use xlink:href="#Cambria-83" transform="translate(690.791245 0.125)"/>
     <use xlink:href="#Cambria-92" transform="translate(739.61937 0.125)"/>
     <use xlink:href="#Cambria-3" transform="translate(795.234604 0.125)"/>
     <use xlink:href="#Cambria-89" transform="translate(817.256088 0.125)"/>
     <use xlink:href="#Cambria-94" transform="translate(866.670151 0.125)"/>
     <use xlink:href="#Cambria-91" transform="translate(908.027573 0.125)"/>
     <use xlink:href="#Cambria-99" transform="translate(961.103745 0.125)"/>
     <use xlink:href="#Cambria-95" transform="translate(1038.545151 0.125)"/>
     <use xlink:href="#Cambria-3" transform="translate(1081.513901 0.125)"/>
     <use xlink:href="#Cambria-99" transform="translate(1103.535385 0.125)"/>
     <use xlink:href="#Cambria-8b" transform="translate(1180.976791 0.125)"/>
     <use xlink:href="#Cambria-96" transform="translate(1208.759995 0.125)"/>
     <use xlink:href="#Cambria-8a" transform="translate(1242.597885 0.125)"/>
     <use xlink:href="#Cambria-3" transform="translate(1297.773666 0.125)"/>
     <use xlink:href="#Cmmi10-52" transform="translate(1319.795151 0.125)"/>
    </g>
   </g>
   <g id="legend_1">
    <g id="line2d_32">
     <path d="M 50.37875 36.759473 
L 59.87875 36.759473 
L 69.37875 36.759473 
" style="fill: none; stroke-dasharray: 5.55,2.4; stroke-dashoffset: 0; stroke: #1baf7a; stroke-width: 1.5"/>
     <g>
      <use xlink:href="#me08832318d" x="59.87875" y="36.759473" style="fill-opacity: 0; stroke: #1baf7a; stroke-linejoin: miter"/>
     </g>
    </g>
    <g id="text_19">
     <!-- $d_{\mathrm{reg}}$ -->
     <g transform="translate(76.97875 40.084473) scale(0.095 -0.095)">
      <defs>
       <path id="Cmmi10-51" d="M 1113 -72 
Q 709 -72 476 233 
Q 244 538 244 953 
Q 244 1363 456 1803 
Q 669 2244 1030 2536 
Q 1391 2828 1806 2828 
Q 1994 2828 2145 2723 
Q 2297 2619 2381 2444 
L 2741 3872 
Q 2766 3981 2772 4044 
Q 2772 4147 2356 4147 
Q 2291 4147 2291 4231 
Q 2294 4247 2305 4287 
Q 2316 4328 2333 4350 
Q 2350 4372 2381 4372 
L 3244 4441 
Q 3322 4441 3322 4359 
L 2400 678 
Q 2356 572 2356 372 
Q 2356 97 2541 97 
Q 2741 97 2845 351 
Q 2950 606 3022 941 
Q 3034 978 3072 978 
L 3150 978 
Q 3175 978 3190 956 
Q 3206 934 3206 916 
Q 3094 469 2961 198 
Q 2828 -72 2528 -72 
Q 2313 -72 2147 54 
Q 1981 181 1941 391 
Q 1528 -72 1113 -72 
z
M 1119 97 
Q 1350 97 1567 270 
Q 1784 444 1941 678 
Q 1947 684 1947 703 
L 2297 2113 
Q 2259 2338 2131 2500 
Q 2003 2663 1791 2663 
Q 1575 2663 1389 2486 
Q 1203 2309 1075 2069 
Q 950 1813 836 1366 
Q 722 919 722 672 
Q 722 450 817 273 
Q 913 97 1119 97 
z
" transform="scale(0.015625)"/>
       <path id="Cmr10-84" d="M 166 0 
L 166 225 
Q 384 225 525 259 
Q 666 294 666 428 
L 666 2175 
Q 666 2347 614 2423 
Q 563 2500 466 2517 
Q 369 2534 166 2534 
L 166 2759 
L 1081 2828 
L 1081 2203 
Q 1184 2481 1375 2654 
Q 1566 2828 1838 2828 
Q 2028 2828 2178 2715 
Q 2328 2603 2328 2419 
Q 2328 2303 2245 2217 
Q 2163 2131 2041 2131 
Q 1922 2131 1837 2215 
Q 1753 2300 1753 2419 
Q 1753 2591 1875 2663 
L 1838 2663 
Q 1578 2663 1414 2475 
Q 1250 2288 1181 2009 
Q 1113 1731 1113 1478 
L 1113 428 
Q 1113 225 1734 225 
L 1734 0 
L 166 0 
z
" transform="scale(0.015625)"/>
       <path id="Cmr10-82" d="M 1594 -72 
Q 1203 -72 876 133 
Q 550 338 364 680 
Q 178 1022 178 1403 
Q 178 1778 348 2115 
Q 519 2453 823 2661 
Q 1128 2869 1503 2869 
Q 1797 2869 2014 2770 
Q 2231 2672 2372 2497 
Q 2513 2322 2584 2084 
Q 2656 1847 2656 1563 
Q 2656 1478 2591 1478 
L 738 1478 
L 738 1409 
Q 738 878 952 497 
Q 1166 116 1650 116 
Q 1847 116 2014 203 
Q 2181 291 2304 447 
Q 2428 603 2472 781 
Q 2478 803 2495 820 
Q 2513 838 2534 838 
L 2591 838 
Q 2656 838 2656 756 
Q 2566 394 2266 161 
Q 1966 -72 1594 -72 
z
M 744 1638 
L 2203 1638 
Q 2203 1878 2136 2125 
Q 2069 2372 1912 2536 
Q 1756 2700 1503 2700 
Q 1141 2700 942 2361 
Q 744 2022 744 1638 
z
" transform="scale(0.015625)"/>
       <path id="Cmr10-1b" d="M 178 -500 
Q 178 -272 343 -101 
Q 509 69 738 141 
Q 609 238 542 384 
Q 475 531 475 697 
Q 475 997 666 1228 
Q 372 1516 372 1888 
Q 372 2088 458 2263 
Q 544 2438 697 2566 
Q 850 2694 1037 2761 
Q 1225 2828 1422 2828 
Q 1803 2828 2106 2606 
Q 2238 2747 2417 2823 
Q 2597 2900 2791 2900 
Q 2928 2900 3015 2801 
Q 3103 2703 3103 2566 
Q 3103 2488 3043 2428 
Q 2984 2369 2906 2369 
Q 2825 2369 2765 2428 
Q 2706 2488 2706 2566 
Q 2706 2684 2784 2731 
Q 2453 2731 2216 2503 
Q 2331 2388 2401 2220 
Q 2472 2053 2472 1888 
Q 2472 1616 2322 1398 
Q 2172 1181 1926 1061 
Q 1681 941 1422 941 
Q 1072 941 781 1131 
Q 691 1006 691 850 
Q 691 681 802 554 
Q 913 428 1081 428 
L 1606 428 
Q 1988 428 2294 359 
Q 2600 291 2808 84 
Q 3016 -122 3016 -500 
Q 3016 -781 2778 -967 
Q 2541 -1153 2211 -1236 
Q 1881 -1319 1600 -1319 
Q 1316 -1319 984 -1236 
Q 653 -1153 415 -967 
Q 178 -781 178 -500 
z
M 538 -500 
Q 538 -716 713 -861 
Q 888 -1006 1134 -1076 
Q 1381 -1147 1600 -1147 
Q 1816 -1147 2062 -1076 
Q 2309 -1006 2482 -861 
Q 2656 -716 2656 -500 
Q 2656 -166 2350 -67 
Q 2044 31 1606 31 
L 1081 31 
Q 934 31 811 -39 
Q 688 -109 613 -236 
Q 538 -363 538 -500 
z
M 1422 1113 
Q 1966 1113 1966 1888 
Q 1966 2222 1850 2439 
Q 1734 2656 1422 2656 
Q 1109 2656 993 2439 
Q 878 2222 878 1888 
Q 878 1675 922 1503 
Q 966 1331 1084 1222 
Q 1203 1113 1422 1113 
z
" transform="scale(0.015625)"/>
      </defs>
      <use xlink:href="#Cmmi10-51" transform="translate(0 0.609375)"/>
      <use xlink:href="#Cmr10-84" transform="translate(52.001953 -14.390587) scale(0.7)"/>
      <use xlink:href="#Cmr10-82" transform="translate(79.379883 -14.390587) scale(0.7)"/>
      <use xlink:href="#Cmr10-1b" transform="translate(110.449219 -14.390587) scale(0.7)"/>
     </g>
    </g>
    <g id="line2d_33">
     <path d="M 50.37875 51.748877 
L 59.87875 51.748877 
L 69.37875 51.748877 
" style="fill: none; stroke: #2a78d6; stroke-width: 2; stroke-linecap: square"/>
     <g>
      <use xlink:href="#mff0dd7c98b" x="59.87875" y="51.748877" style="fill: #2a78d6; stroke: #2a78d6"/>
     </g>
    </g>
    <g id="text_20">
     <!-- $\mathrm{sd}_{\mathrm{grevlex}}$ -->
     <g transform="translate(76.97875 55.073877) scale(0.095 -0.095)">
      <defs>
       <path id="Cmr10-52" d="M 213 -19 
L 213 1025 
Q 213 1075 269 1075 
L 347 1075 
Q 384 1075 397 1025 
Q 575 97 1259 97 
Q 1563 97 1767 234 
Q 1972 372 1972 659 
Q 1972 866 1812 1011 
Q 1653 1156 1434 1209 
L 1006 1294 
Q 791 1341 614 1437 
Q 438 1534 325 1695 
Q 213 1856 213 2069 
Q 213 2350 361 2529 
Q 509 2709 746 2789 
Q 984 2869 1259 2869 
Q 1588 2869 1831 2694 
L 2016 2853 
Q 2016 2869 2047 2869 
L 2094 2869 
Q 2113 2869 2128 2851 
Q 2144 2834 2144 2816 
L 2144 1978 
Q 2144 1919 2094 1919 
L 2016 1919 
Q 1959 1919 1959 1978 
Q 1959 2313 1773 2516 
Q 1588 2719 1253 2719 
Q 966 2719 755 2612 
Q 544 2506 544 2247 
Q 544 2069 695 1955 
Q 847 1841 1050 1791 
L 1484 1709 
Q 1703 1659 1892 1540 
Q 2081 1422 2192 1240 
Q 2303 1059 2303 831 
Q 2303 600 2223 429 
Q 2144 259 2001 146 
Q 1859 34 1665 -19 
Q 1472 -72 1259 -72 
Q 859 -72 575 197 
L 341 -56 
Q 341 -72 306 -72 
L 269 -72 
Q 213 -72 213 -19 
z
" transform="scale(0.015625)"/>
       <path id="Cmr10-49" d="M 1563 -72 
Q 1184 -72 871 133 
Q 559 338 386 672 
Q 213 1006 213 1381 
Q 213 1769 402 2101 
Q 591 2434 916 2631 
Q 1241 2828 1631 2828 
Q 1866 2828 2075 2729 
Q 2284 2631 2438 2456 
L 2438 3788 
Q 2438 3959 2386 4036 
Q 2334 4113 2239 4130 
Q 2144 4147 1941 4147 
L 1941 4372 
L 2888 4441 
L 2888 581 
Q 2888 413 2939 336 
Q 2991 259 3086 242 
Q 3181 225 3384 225 
L 3384 0 
L 2419 -72 
L 2419 331 
Q 2253 141 2025 34 
Q 1797 -72 1563 -72 
z
M 909 556 
Q 1019 347 1201 222 
Q 1384 97 1600 97 
Q 1866 97 2087 250 
Q 2309 403 2419 647 
L 2419 2181 
Q 2344 2322 2230 2433 
Q 2116 2544 1973 2603 
Q 1831 2663 1672 2663 
Q 1338 2663 1134 2473 
Q 931 2284 850 1990 
Q 769 1697 769 1375 
Q 769 1119 795 928 
Q 822 738 909 556 
z
" transform="scale(0.015625)"/>
       <path id="Cmr10-25" d="M 1563 0 
L 628 2350 
Q 569 2469 445 2501 
Q 322 2534 122 2534 
L 122 2759 
L 1466 2759 
L 1466 2534 
Q 1106 2534 1106 2381 
Q 1106 2356 1113 2344 
L 1831 538 
L 2478 2169 
Q 2497 2219 2497 2272 
Q 2497 2394 2405 2464 
Q 2313 2534 2188 2534 
L 2188 2759 
L 3250 2759 
L 3250 2534 
Q 3053 2534 2904 2443 
Q 2756 2353 2675 2175 
L 1813 0 
Q 1788 -72 1709 -72 
L 1663 -72 
Q 1584 -72 1563 0 
z
" transform="scale(0.015625)"/>
       <path id="Cmr10-6a" d="M 197 0 
L 197 225 
Q 416 225 556 259 
Q 697 294 697 428 
L 697 3788 
Q 697 3959 645 4036 
Q 594 4113 497 4130 
Q 400 4147 197 4147 
L 197 4372 
L 1147 4441 
L 1147 428 
Q 1147 294 1287 259 
Q 1428 225 1644 225 
L 1644 0 
L 197 0 
z
" transform="scale(0.015625)"/>
       <path id="Cmr10-2d" d="M 78 0 
L 78 225 
Q 322 225 537 320 
Q 753 416 903 603 
L 1484 1344 
L 728 2328 
Q 616 2469 483 2501 
Q 350 2534 109 2534 
L 109 2759 
L 1441 2759 
L 1441 2534 
Q 1356 2534 1282 2496 
Q 1209 2459 1209 2388 
Q 1209 2363 1228 2328 
L 1741 1663 
L 2125 2156 
Q 2203 2250 2203 2344 
Q 2203 2422 2151 2478 
Q 2100 2534 2016 2534 
L 2016 2759 
L 3194 2759 
L 3194 2534 
Q 2947 2534 2730 2439 
Q 2513 2344 2363 2156 
L 1856 1509 
L 2675 428 
Q 2797 288 2928 256 
Q 3059 225 3303 225 
L 3303 0 
L 1972 0 
L 1972 225 
Q 2050 225 2122 262 
Q 2194 300 2194 372 
Q 2194 400 2175 428 
L 1600 1191 
L 1141 603 
Q 1069 522 1069 416 
Q 1069 338 1122 281 
Q 1175 225 1247 225 
L 1247 0 
L 78 0 
z
" transform="scale(0.015625)"/>
      </defs>
      <use xlink:href="#Cmr10-52" transform="translate(0 0.609375)"/>
      <use xlink:href="#Cmr10-49" transform="translate(39.404297 0.609375)"/>
      <use xlink:href="#Cmr10-1b" transform="translate(98.926166 -14.390587) scale(0.7)"/>
      <use xlink:href="#Cmr10-84" transform="translate(133.926166 -14.390587) scale(0.7)"/>
      <use xlink:href="#Cmr10-82" transform="translate(161.304096 -14.390587) scale(0.7)"/>
      <use xlink:href="#Cmr10-25" transform="translate(192.373431 -14.390587) scale(0.7)"/>
      <use xlink:href="#Cmr10-6a" transform="translate(229.253314 -14.390587) scale(0.7)"/>
      <use xlink:href="#Cmr10-82" transform="translate(248.633197 -14.390587) scale(0.7)"/>
      <use xlink:href="#Cmr10-2d" transform="translate(279.702533 -14.390587) scale(0.7)"/>
     </g>
    </g>
    <g id="line2d_34">
     <path d="M 50.37875 66.738281 
L 59.87875 66.738281 
L 69.37875 66.738281 
" style="fill: none; stroke: #eb6834; stroke-width: 2; stroke-linecap: square"/>
     <g>
      <use xlink:href="#m7c6b1559db" x="59.87875" y="66.738281" style="fill: #eb6834; stroke: #eb6834; stroke-linejoin: miter"/>
     </g>
    </g>
    <g id="text_21">
     <!-- $d_{\mathrm{ff}}$ -->
     <g transform="translate(76.97875 70.063281) scale(0.095 -0.095)">
      <defs>
       <path id="Cmr10-50" d="M 206 0 
L 206 225 
Q 422 225 562 259 
Q 703 294 703 428 
L 703 2534 
L 213 2534 
L 213 2759 
L 703 2759 
L 703 3525 
Q 703 3731 789 3911 
Q 875 4091 1020 4225 
Q 1166 4359 1355 4436 
Q 1544 4513 1747 4513 
Q 1963 4513 2136 4384 
Q 2309 4256 2309 4044 
Q 2309 3922 2226 3839 
Q 2144 3756 2022 3756 
Q 1900 3756 1814 3839 
Q 1728 3922 1728 4044 
Q 1728 4244 1900 4313 
Q 1797 4347 1716 4347 
Q 1528 4347 1395 4214 
Q 1263 4081 1197 3890 
Q 1131 3700 1131 3513 
L 1131 2759 
L 1869 2759 
L 1869 2534 
L 1153 2534 
L 1153 428 
Q 1153 297 1340 261 
Q 1528 225 1772 225 
L 1772 0 
L 206 0 
z
" transform="scale(0.015625)"/>
      </defs>
      <use xlink:href="#Cmmi10-51" transform="translate(0 0.609375)"/>
      <use xlink:href="#Cmr10-50" transform="translate(52.001953 -14.390587) scale(0.7)"/>
      <use xlink:href="#Cmr10-50" transform="translate(73.364258 -14.390587) scale(0.7)"/>
     </g>
    </g>
   </g>
  </g>
  <g id="axes_2">
   <g id="patch_7">
    <path d="M 313.111758 194.466016 
L 562.694766 194.466016 
L 562.694766 24.145068 
L 313.111758 24.145068 
z
" style="fill: #fcfcfb"/>
   </g>
   <g id="matplotlib.axis_3">
    <g id="xtick_9">
     <g id="line2d_35">
      <path d="M 324.45644 194.466016 
L 324.45644 24.145068 
" clip-path="url(#p8ecc98af0a)" style="fill: none; stroke: #e1e0d9; stroke-width: 0.7; stroke-linecap: square"/>
     </g>
     <g id="line2d_36">
      <g>
       <use xlink:href="#mdab96d1204" x="324.45644" y="194.466016" style="fill: #898781; stroke: #898781; stroke-width: 0.8"/>
      </g>
     </g>
     <g id="text_22">
      <!-- 3 -->
      <g style="fill: #52514e" transform="translate(321.549252 209.633252) scale(0.105 -0.105)">
       <use xlink:href="#Cambria-375"/>
      </g>
     </g>
    </g>
    <g id="xtick_10">
     <g id="line2d_37">
      <path d="M 356.869818 194.466016 
L 356.869818 24.145068 
" clip-path="url(#p8ecc98af0a)" style="fill: none; stroke: #e1e0d9; stroke-width: 0.7; stroke-linecap: square"/>
     </g>
     <g id="line2d_38">
      <g>
       <use xlink:href="#mdab96d1204" x="356.869818" y="194.466016" style="fill: #898781; stroke: #898781; stroke-width: 0.8"/>
      </g>
     </g>
     <g id="text_23">
      <!-- 5 -->
      <g style="fill: #52514e" transform="translate(353.96263 209.633252) scale(0.105 -0.105)">
       <use xlink:href="#Cambria-377"/>
      </g>
     </g>
    </g>
    <g id="xtick_11">
     <g id="line2d_39">
      <path d="M 389.283195 194.466016 
L 389.283195 24.145068 
" clip-path="url(#p8ecc98af0a)" style="fill: none; stroke: #e1e0d9; stroke-width: 0.7; stroke-linecap: square"/>
     </g>
     <g id="line2d_40">
      <g>
       <use xlink:href="#mdab96d1204" x="389.283195" y="194.466016" style="fill: #898781; stroke: #898781; stroke-width: 0.8"/>
      </g>
     </g>
     <g id="text_24">
      <!-- 7 -->
      <g style="fill: #52514e" transform="translate(386.376008 209.633252) scale(0.105 -0.105)">
       <use xlink:href="#Cambria-379"/>
      </g>
     </g>
    </g>
    <g id="xtick_12">
     <g id="line2d_41">
      <path d="M 454.109951 194.466016 
L 454.109951 24.145068 
" clip-path="url(#p8ecc98af0a)" style="fill: none; stroke: #e1e0d9; stroke-width: 0.7; stroke-linecap: square"/>
     </g>
     <g id="line2d_42">
      <g>
       <use xlink:href="#mdab96d1204" x="454.109951" y="194.466016" style="fill: #898781; stroke: #898781; stroke-width: 0.8"/>
      </g>
     </g>
     <g id="text_25">
      <!-- 11 -->
      <g style="fill: #52514e" transform="translate(448.295576 209.633252) scale(0.105 -0.105)">
       <use xlink:href="#Cambria-373"/>
       <use xlink:href="#Cambria-373" transform="translate(55.375 0)"/>
      </g>
     </g>
    </g>
    <g id="xtick_13">
     <g id="line2d_43">
      <path d="M 486.523328 194.466016 
L 486.523328 24.145068 
" clip-path="url(#p8ecc98af0a)" style="fill: none; stroke: #e1e0d9; stroke-width: 0.7; stroke-linecap: square"/>
     </g>
     <g id="line2d_44">
      <g>
       <use xlink:href="#mdab96d1204" x="486.523328" y="194.466016" style="fill: #898781; stroke: #898781; stroke-width: 0.8"/>
      </g>
     </g>
     <g id="text_26">
      <!-- 13 -->
      <g style="fill: #52514e" transform="translate(480.708953 209.633252) scale(0.105 -0.105)">
       <use xlink:href="#Cambria-373"/>
       <use xlink:href="#Cambria-375" transform="translate(55.375 0)"/>
      </g>
     </g>
    </g>
    <g id="xtick_14">
     <g id="line2d_45">
      <path d="M 551.350083 194.466016 
L 551.350083 24.145068 
" clip-path="url(#p8ecc98af0a)" style="fill: none; stroke: #e1e0d9; stroke-width: 0.7; stroke-linecap: square"/>
     </g>
     <g id="line2d_46">
      <g>
       <use xlink:href="#mdab96d1204" x="551.350083" y="194.466016" style="fill: #898781; stroke: #898781; stroke-width: 0.8"/>
      </g>
     </g>
     <g id="text_27">
      <!-- 17 -->
      <g style="fill: #52514e" transform="translate(545.535708 209.633252) scale(0.105 -0.105)">
       <use xlink:href="#Cambria-373"/>
       <use xlink:href="#Cambria-379" transform="translate(55.375 0)"/>
      </g>
     </g>
    </g>
    <g id="text_28">
     <!-- base field size $q$ -->
     <g style="fill: #0b0b0b" transform="translate(398.243262 225.3) scale(0.12 -0.12)">
      <use xlink:href="#Cambria-84" transform="translate(0 0.875)"/>
      <use xlink:href="#Cambria-83" transform="translate(54.736328 0.875)"/>
      <use xlink:href="#Cambria-95" transform="translate(103.564453 0.875)"/>
      <use xlink:href="#Cambria-87" transform="translate(146.533203 0.875)"/>
      <use xlink:href="#Cambria-3" transform="translate(195.3125 0.875)"/>
      <use xlink:href="#Cambria-88" transform="translate(217.333984 0.875)"/>
      <use xlink:href="#Cambria-8b" transform="translate(247.607422 0.875)"/>
      <use xlink:href="#Cambria-87" transform="translate(275.390625 0.875)"/>
      <use xlink:href="#Cambria-8e" transform="translate(324.169922 0.875)"/>
      <use xlink:href="#Cambria-86" transform="translate(351.318359 0.875)"/>
      <use xlink:href="#Cambria-3" transform="translate(406.787109 0.875)"/>
      <use xlink:href="#Cambria-95" transform="translate(428.808594 0.875)"/>
      <use xlink:href="#Cambria-8b" transform="translate(471.777344 0.875)"/>
      <use xlink:href="#Cambria-9c" transform="translate(499.560547 0.875)"/>
      <use xlink:href="#Cambria-87" transform="translate(545.019531 0.875)"/>
      <use xlink:href="#Cambria-3" transform="translate(593.798828 0.875)"/>
      <use xlink:href="#Cmmi10-52" transform="translate(615.820312 0.875)"/>
     </g>
    </g>
   </g>
   <g id="matplotlib.axis_4">
    <g id="ytick_7">
     <g id="line2d_47">
      <path d="M 313.111758 194.466016 
L 562.694766 194.466016 
" clip-path="url(#p8ecc98af0a)" style="fill: none; stroke: #e1e0d9; stroke-width: 0.7; stroke-linecap: square"/>
     </g>
     <g id="line2d_48">
      <g>
       <use xlink:href="#m0d4e213c45" x="313.111758" y="194.466016" style="fill: #898781; stroke: #898781; stroke-width: 0.8"/>
      </g>
     </g>
     <g id="text_29">
      <!-- 0 -->
      <g style="fill: #52514e" transform="translate(300.297383 198.549634) scale(0.105 -0.105)">
       <use xlink:href="#Cambria-372"/>
      </g>
     </g>
    </g>
    <g id="ytick_8">
     <g id="line2d_49">
      <path d="M 313.111758 160.401826 
L 562.694766 160.401826 
" clip-path="url(#p8ecc98af0a)" style="fill: none; stroke: #e1e0d9; stroke-width: 0.7; stroke-linecap: square"/>
     </g>
     <g id="line2d_50">
      <g>
       <use xlink:href="#m0d4e213c45" x="313.111758" y="160.401826" style="fill: #898781; stroke: #898781; stroke-width: 0.8"/>
      </g>
     </g>
     <g id="text_30">
      <!-- 5 -->
      <g style="fill: #52514e" transform="translate(300.297383 164.485444) scale(0.105 -0.105)">
       <use xlink:href="#Cambria-377"/>
      </g>
     </g>
    </g>
    <g id="ytick_9">
     <g id="line2d_51">
      <path d="M 313.111758 126.337637 
L 562.694766 126.337637 
" clip-path="url(#p8ecc98af0a)" style="fill: none; stroke: #e1e0d9; stroke-width: 0.7; stroke-linecap: square"/>
     </g>
     <g id="line2d_52">
      <g>
       <use xlink:href="#m0d4e213c45" x="313.111758" y="126.337637" style="fill: #898781; stroke: #898781; stroke-width: 0.8"/>
      </g>
     </g>
     <g id="text_31">
      <!-- 10 -->
      <g style="fill: #52514e" transform="translate(294.483008 130.421255) scale(0.105 -0.105)">
       <use xlink:href="#Cambria-373"/>
       <use xlink:href="#Cambria-372" transform="translate(55.375 0)"/>
      </g>
     </g>
    </g>
    <g id="ytick_10">
     <g id="line2d_53">
      <path d="M 313.111758 92.273447 
L 562.694766 92.273447 
" clip-path="url(#p8ecc98af0a)" style="fill: none; stroke: #e1e0d9; stroke-width: 0.7; stroke-linecap: square"/>
     </g>
     <g id="line2d_54">
      <g>
       <use xlink:href="#m0d4e213c45" x="313.111758" y="92.273447" style="fill: #898781; stroke: #898781; stroke-width: 0.8"/>
      </g>
     </g>
     <g id="text_32">
      <!-- 15 -->
      <g style="fill: #52514e" transform="translate(294.483008 96.357065) scale(0.105 -0.105)">
       <use xlink:href="#Cambria-373"/>
       <use xlink:href="#Cambria-377" transform="translate(55.375 0)"/>
      </g>
     </g>
    </g>
    <g id="ytick_11">
     <g id="line2d_55">
      <path d="M 313.111758 58.209258 
L 562.694766 58.209258 
" clip-path="url(#p8ecc98af0a)" style="fill: none; stroke: #e1e0d9; stroke-width: 0.7; stroke-linecap: square"/>
     </g>
     <g id="line2d_56">
      <g>
       <use xlink:href="#m0d4e213c45" x="313.111758" y="58.209258" style="fill: #898781; stroke: #898781; stroke-width: 0.8"/>
      </g>
     </g>
     <g id="text_33">
      <!-- 20 -->
      <g style="fill: #52514e" transform="translate(294.483008 62.292876) scale(0.105 -0.105)">
       <use xlink:href="#Cambria-374"/>
       <use xlink:href="#Cambria-372" transform="translate(55.375 0)"/>
      </g>
     </g>
    </g>
    <g id="ytick_12">
     <g id="line2d_57">
      <path d="M 313.111758 24.145068 
L 562.694766 24.145068 
" clip-path="url(#p8ecc98af0a)" style="fill: none; stroke: #e1e0d9; stroke-width: 0.7; stroke-linecap: square"/>
     </g>
     <g id="line2d_58">
      <g>
       <use xlink:href="#m0d4e213c45" x="313.111758" y="24.145068" style="fill: #898781; stroke: #898781; stroke-width: 0.8"/>
      </g>
     </g>
     <g id="text_34">
      <!-- 25 -->
      <g style="fill: #52514e" transform="translate(294.483008 28.228687) scale(0.105 -0.105)">
       <use xlink:href="#Cambria-374"/>
       <use xlink:href="#Cambria-377" transform="translate(55.375 0)"/>
      </g>
     </g>
    </g>
   </g>
   <g id="line2d_59">
    <path d="M 324.45644 167.214664 
L 356.869818 160.401826 
L 389.283195 146.77615 
L 454.109951 119.524799 
L 486.523328 105.899123 
L 551.350083 78.647771 
" clip-path="url(#p8ecc98af0a)" style="fill: none; stroke-dasharray: 5.55,2.4; stroke-dashoffset: 0; stroke: #1baf7a; stroke-width: 1.5"/>
    <g clip-path="url(#p8ecc98af0a)">
     <use xlink:href="#me08832318d" x="324.45644" y="167.214664" style="fill-opacity: 0; stroke: #1baf7a; stroke-linejoin: miter"/>
     <use xlink:href="#me08832318d" x="356.869818" y="160.401826" style="fill-opacity: 0; stroke: #1baf7a; stroke-linejoin: miter"/>
     <use xlink:href="#me08832318d" x="389.283195" y="146.77615" style="fill-opacity: 0; stroke: #1baf7a; stroke-linejoin: miter"/>
     <use xlink:href="#me08832318d" x="454.109951" y="119.524799" style="fill-opacity: 0; stroke: #1baf7a; stroke-linejoin: miter"/>
     <use xlink:href="#me08832318d" x="486.523328" y="105.899123" style="fill-opacity: 0; stroke: #1baf7a; stroke-linejoin: miter"/>
     <use xlink:href="#me08832318d" x="551.350083" y="78.647771" style="fill-opacity: 0; stroke: #1baf7a; stroke-linejoin: miter"/>
    </g>
   </g>
   <g id="line2d_60">
    <path d="M 324.45644 167.214664 
L 356.869818 167.214664 
L 389.283195 167.214664 
L 454.109951 167.214664 
L 486.523328 167.214664 
L 551.350083 167.214664 
" clip-path="url(#p8ecc98af0a)" style="fill: none; stroke: #2a78d6; stroke-width: 2; stroke-linecap: square"/>
    <g clip-path="url(#p8ecc98af0a)">
     <use xlink:href="#mff0dd7c98b" x="324.45644" y="167.214664" style="fill: #2a78d6; stroke: #2a78d6"/>
     <use xlink:href="#mff0dd7c98b" x="356.869818" y="167.214664" style="fill: #2a78d6; stroke: #2a78d6"/>
     <use xlink:href="#mff0dd7c98b" x="389.283195" y="167.214664" style="fill: #2a78d6; stroke: #2a78d6"/>
     <use xlink:href="#mff0dd7c98b" x="454.109951" y="167.214664" style="fill: #2a78d6; stroke: #2a78d6"/>
     <use xlink:href="#mff0dd7c98b" x="486.523328" y="167.214664" style="fill: #2a78d6; stroke: #2a78d6"/>
     <use xlink:href="#mff0dd7c98b" x="551.350083" y="167.214664" style="fill: #2a78d6; stroke: #2a78d6"/>
    </g>
   </g>
   <g id="line2d_61">
    <path d="M 324.45644 174.027502 
L 356.869818 174.027502 
L 389.283195 174.027502 
L 454.109951 174.027502 
L 486.523328 174.027502 
L 551.350083 174.027502 
" clip-path="url(#p8ecc98af0a)" style="fill: none; stroke: #eb6834; stroke-width: 2; stroke-linecap: square"/>
    <g clip-path="url(#p8ecc98af0a)">
     <use xlink:href="#m7c6b1559db" x="324.45644" y="174.027502" style="fill: #eb6834; stroke: #eb6834; stroke-linejoin: miter"/>
     <use xlink:href="#m7c6b1559db" x="356.869818" y="174.027502" style="fill: #eb6834; stroke: #eb6834; stroke-linejoin: miter"/>
     <use xlink:href="#m7c6b1559db" x="389.283195" y="174.027502" style="fill: #eb6834; stroke: #eb6834; stroke-linejoin: miter"/>
     <use xlink:href="#m7c6b1559db" x="454.109951" y="174.027502" style="fill: #eb6834; stroke: #eb6834; stroke-linejoin: miter"/>
     <use xlink:href="#m7c6b1559db" x="486.523328" y="174.027502" style="fill: #eb6834; stroke: #eb6834; stroke-linejoin: miter"/>
     <use xlink:href="#m7c6b1559db" x="551.350083" y="174.027502" style="fill: #eb6834; stroke: #eb6834; stroke-linejoin: miter"/>
    </g>
   </g>
   <g id="patch_8">
    <path d="M 313.111758 194.466016 
L 313.111758 24.145068 
" style="fill: none; stroke: #c3c2b7; stroke-width: 0.9; stroke-linejoin: miter; stroke-linecap: square"/>
   </g>
   <g id="patch_9">
    <path d="M 313.111758 194.466016 
L 562.694766 194.466016 
" style="fill: none; stroke: #c3c2b7; stroke-width: 0.9; stroke-linejoin: miter; stroke-linecap: square"/>
   </g>
   <g id="text_35">
    <!-- $n=3,\ m=2$: solving degree stays at 4 -->
    <g style="fill: #0b0b0b" transform="translate(313.111758 16.145068) scale(0.115 -0.115)">
     <defs>
      <path id="Cmr10-6e" d="M 609 494 
Q 759 275 1012 169 
Q 1266 63 1556 63 
Q 1928 63 2084 380 
Q 2241 697 2241 1100 
Q 2241 1281 2208 1462 
Q 2175 1644 2097 1800 
Q 2019 1956 1883 2050 
Q 1747 2144 1550 2144 
L 1125 2144 
Q 1069 2144 1069 2203 
L 1069 2259 
Q 1069 2309 1125 2309 
L 1478 2338 
Q 1703 2338 1851 2506 
Q 2000 2675 2069 2917 
Q 2138 3159 2138 3378 
Q 2138 3684 1994 3881 
Q 1850 4078 1556 4078 
Q 1313 4078 1091 3986 
Q 869 3894 738 3706 
Q 750 3709 759 3711 
Q 769 3713 781 3713 
Q 925 3713 1022 3613 
Q 1119 3513 1119 3372 
Q 1119 3234 1022 3134 
Q 925 3034 781 3034 
Q 641 3034 541 3134 
Q 441 3234 441 3372 
Q 441 3647 606 3850 
Q 772 4053 1033 4158 
Q 1294 4263 1556 4263 
Q 1750 4263 1965 4205 
Q 2181 4147 2356 4039 
Q 2531 3931 2642 3762 
Q 2753 3594 2753 3378 
Q 2753 3109 2633 2881 
Q 2513 2653 2303 2487 
Q 2094 2322 1844 2241 
Q 2122 2188 2372 2031 
Q 2622 1875 2773 1631 
Q 2925 1388 2925 1106 
Q 2925 753 2731 467 
Q 2538 181 2222 20 
Q 1906 -141 1556 -141 
Q 1256 -141 954 -26 
Q 653 88 461 316 
Q 269 544 269 863 
Q 269 1022 375 1128 
Q 481 1234 641 1234 
Q 744 1234 830 1186 
Q 916 1138 964 1050 
Q 1013 963 1013 863 
Q 1013 706 903 600 
Q 794 494 641 494 
L 609 494 
z
" transform="scale(0.015625)"/>
      <path id="Cmmi10-2c" d="M 634 -1153 
Q 634 -1125 659 -1100 
Q 891 -878 1019 -587 
Q 1147 -297 1147 25 
L 1147 103 
Q 1044 0 891 0 
Q 744 0 641 103 
Q 538 206 538 353 
Q 538 503 641 603 
Q 744 703 891 703 
Q 1119 703 1216 492 
Q 1313 281 1313 25 
Q 1313 -331 1170 -651 
Q 1028 -972 769 -1228 
Q 744 -1241 728 -1241 
Q 697 -1241 665 -1212 
Q 634 -1184 634 -1153 
z
" transform="scale(0.015625)"/>
      <path id="Cambria-98" d="M 1334 2988 
L 1334 2834 
Q 1191 2800 1131 2769 
Q 1072 2738 1042 2688 
Q 1013 2638 1013 2553 
Q 1013 2469 1033 2376 
Q 1053 2284 1097 2163 
L 1641 581 
L 2278 2097 
Q 2341 2247 2366 2344 
Q 2391 2441 2391 2525 
Q 2391 2656 2320 2725 
Q 2250 2794 2063 2834 
L 2063 2988 
L 3231 2988 
L 3231 2834 
Q 3109 2809 3043 2757 
Q 2978 2706 2912 2595 
Q 2847 2484 2756 2284 
L 1703 -31 
L 1334 -31 
L 488 2303 
Q 400 2544 348 2633 
Q 297 2722 236 2765 
Q 175 2809 59 2834 
L 59 2988 
L 1334 2988 
z
" transform="scale(0.015625)"/>
      <path id="Cambria-90" d="M 3347 0 
L 2116 0 
L 2116 153 
Q 2238 191 2291 219 
Q 2344 247 2380 297 
Q 2416 347 2436 451 
Q 2456 556 2456 769 
L 2456 1588 
Q 2456 1806 2443 1984 
Q 2431 2163 2401 2277 
Q 2372 2391 2330 2455 
Q 2288 2519 2230 2564 
Q 2172 2609 2097 2636 
Q 2022 2663 1900 2663 
Q 1778 2663 1668 2614 
Q 1559 2566 1428 2447 
Q 1297 2328 1237 2212 
Q 1178 2097 1178 1947 
L 1178 781 
Q 1178 513 1203 408 
Q 1228 303 1298 248 
Q 1369 194 1528 153 
L 1528 0 
L 303 0 
L 303 153 
Q 425 191 476 219 
Q 528 247 564 297 
Q 600 347 620 450 
Q 641 553 641 772 
L 641 2134 
Q 641 2334 634 2456 
Q 628 2578 590 2651 
Q 553 2725 476 2761 
Q 400 2797 259 2822 
L 259 2988 
L 991 3016 
L 1181 3016 
L 1147 2506 
L 1191 2494 
Q 1422 2728 1564 2828 
Q 1706 2928 1851 2983 
Q 1997 3038 2159 3038 
Q 2328 3038 2461 2998 
Q 2594 2959 2695 2878 
Q 2797 2797 2862 2676 
Q 2928 2556 2961 2387 
Q 2994 2219 2994 1959 
L 2994 781 
Q 2994 566 3006 469 
Q 3019 372 3050 319 
Q 3081 266 3140 230 
Q 3200 194 3347 153 
L 3347 0 
z
" transform="scale(0.015625)"/>
      <path id="Cambria-9b" d="M 1625 -256 
Q 1453 -644 1290 -884 
Q 1128 -1125 933 -1247 
Q 738 -1369 469 -1369 
Q 297 -1369 81 -1328 
L 81 -709 
L 359 -709 
Q 397 -838 453 -888 
Q 509 -938 616 -938 
Q 709 -938 782 -902 
Q 856 -866 936 -778 
Q 1016 -691 1123 -509 
Q 1231 -328 1366 -50 
L 491 2303 
Q 406 2531 354 2622 
Q 303 2713 243 2759 
Q 184 2806 63 2834 
L 63 2988 
L 1334 2988 
L 1334 2834 
Q 1188 2800 1128 2767 
Q 1069 2734 1041 2682 
Q 1013 2631 1013 2550 
Q 1013 2466 1033 2375 
Q 1053 2284 1097 2163 
L 1653 597 
L 2278 2097 
Q 2331 2222 2361 2326 
Q 2391 2431 2391 2522 
Q 2391 2656 2317 2725 
Q 2244 2794 2063 2834 
L 2063 2988 
L 3231 2988 
L 3231 2834 
Q 3109 2809 3043 2757 
Q 2978 2706 2912 2595 
Q 2847 2484 2756 2284 
L 1625 -256 
z
" transform="scale(0.015625)"/>
      <path id="Cambria-376" d="M 1613 153 
Q 1806 203 1872 264 
Q 1938 325 1958 437 
Q 1978 550 1978 781 
L 1978 1294 
L 241 1294 
L 241 1528 
L 2069 4288 
L 2516 4288 
L 2516 1597 
L 2581 1597 
Q 2763 1597 2841 1623 
Q 2919 1650 2970 1717 
Q 3022 1784 3066 1938 
L 3303 1938 
L 3266 1294 
L 2516 1294 
L 2516 781 
Q 2516 572 2530 475 
Q 2544 378 2576 322 
Q 2609 266 2673 228 
Q 2738 191 2881 153 
L 2881 0 
L 1613 0 
L 1613 153 
z
M 756 1597 
L 1978 1597 
L 1978 2375 
Q 1978 2669 1987 3033 
Q 1997 3397 2009 3581 
L 1978 3581 
L 756 1641 
L 756 1597 
z
" transform="scale(0.015625)"/>
     </defs>
     <use xlink:href="#Cmmi10-7a" transform="translate(0 0.125)"/>
     <use xlink:href="#Cmr10-29" transform="translate(80.009823 0.125)"/>
     <use xlink:href="#Cmr10-6e" transform="translate(177.695427 0.125)"/>
     <use xlink:href="#Cmmi10-2c" transform="translate(227.695427 0.125)"/>
     <use xlink:href="#Cmmi10-45" transform="translate(308.714126 0.125)"/>
     <use xlink:href="#Cmr10-29" transform="translate(416.507152 0.125)"/>
     <use xlink:href="#Cmr10-31" transform="translate(514.192756 0.125)"/>
     <use xlink:href="#Cambria-1e3" transform="translate(564.192756 0.125)"/>
     <use xlink:href="#Cambria-3" transform="translate(590.559944 0.125)"/>
     <use xlink:href="#Cambria-95" transform="translate(612.581428 0.125)"/>
     <use xlink:href="#Cambria-91" transform="translate(655.550178 0.125)"/>
     <use xlink:href="#Cambria-8e" transform="translate(708.62635 0.125)"/>
     <use xlink:href="#Cambria-98" transform="translate(735.774788 0.125)"/>
     <use xlink:href="#Cambria-8b" transform="translate(786.165413 0.125)"/>
     <use xlink:href="#Cambria-90" transform="translate(813.948616 0.125)"/>
     <use xlink:href="#Cambria-89" transform="translate(869.759163 0.125)"/>
     <use xlink:href="#Cambria-3" transform="translate(919.173225 0.125)"/>
     <use xlink:href="#Cambria-86" transform="translate(941.19471 0.125)"/>
     <use xlink:href="#Cambria-87" transform="translate(996.66346 0.125)"/>
     <use xlink:href="#Cambria-89" transform="translate(1045.442756 0.125)"/>
     <use xlink:href="#Cambria-94" transform="translate(1094.856819 0.125)"/>
     <use xlink:href="#Cambria-87" transform="translate(1136.214241 0.125)"/>
     <use xlink:href="#Cambria-87" transform="translate(1184.993538 0.125)"/>
     <use xlink:href="#Cambria-3" transform="translate(1233.772835 0.125)"/>
     <use xlink:href="#Cambria-95" transform="translate(1255.794319 0.125)"/>
     <use xlink:href="#Cambria-96" transform="translate(1298.763069 0.125)"/>
     <use xlink:href="#Cambria-83" transform="translate(1332.60096 0.125)"/>
     <use xlink:href="#Cambria-9b" transform="translate(1381.429085 0.125)"/>
     <use xlink:href="#Cambria-95" transform="translate(1431.81971 0.125)"/>
     <use xlink:href="#Cambria-3" transform="translate(1474.78846 0.125)"/>
     <use xlink:href="#Cambria-83" transform="translate(1496.809944 0.125)"/>
     <use xlink:href="#Cambria-96" transform="translate(1545.638069 0.125)"/>
     <use xlink:href="#Cambria-3" transform="translate(1579.47596 0.125)"/>
     <use xlink:href="#Cambria-376" transform="translate(1601.497444 0.125)"/>
    </g>
   </g>
   <g id="legend_2">
    <g id="line2d_62">
     <path d="M 321.661758 36.759473 
L 331.161758 36.759473 
L 340.661758 36.759473 
" style="fill: none; stroke-dasharray: 5.55,2.4; stroke-dashoffset: 0; stroke: #1baf7a; stroke-width: 1.5"/>
     <g>
      <use xlink:href="#me08832318d" x="331.161758" y="36.759473" style="fill-opacity: 0; stroke: #1baf7a; stroke-linejoin: miter"/>
     </g>
    </g>
    <g id="text_36">
     <!-- $d_{\mathrm{reg}}$ -->
     <g transform="translate(348.261758 40.084473) scale(0.095 -0.095)">
      <use xlink:href="#Cmmi10-51" transform="translate(0 0.609375)"/>
      <use xlink:href="#Cmr10-84" transform="translate(52.001953 -14.390587) scale(0.7)"/>
      <use xlink:href="#Cmr10-82" transform="translate(79.379883 -14.390587) scale(0.7)"/>
      <use xlink:href="#Cmr10-1b" transform="translate(110.449219 -14.390587) scale(0.7)"/>
     </g>
    </g>
    <g id="line2d_63">
     <path d="M 321.661758 51.748877 
L 331.161758 51.748877 
L 340.661758 51.748877 
" style="fill: none; stroke: #2a78d6; stroke-width: 2; stroke-linecap: square"/>
     <g>
      <use xlink:href="#mff0dd7c98b" x="331.161758" y="51.748877" style="fill: #2a78d6; stroke: #2a78d6"/>
     </g>
    </g>
    <g id="text_37">
     <!-- $\mathrm{sd}_{\mathrm{grevlex}}$ -->
     <g transform="translate(348.261758 55.073877) scale(0.095 -0.095)">
      <use xlink:href="#Cmr10-52" transform="translate(0 0.609375)"/>
      <use xlink:href="#Cmr10-49" transform="translate(39.404297 0.609375)"/>
      <use xlink:href="#Cmr10-1b" transform="translate(98.926166 -14.390587) scale(0.7)"/>
      <use xlink:href="#Cmr10-84" transform="translate(133.926166 -14.390587) scale(0.7)"/>
      <use xlink:href="#Cmr10-82" transform="translate(161.304096 -14.390587) scale(0.7)"/>
      <use xlink:href="#Cmr10-25" transform="translate(192.373431 -14.390587) scale(0.7)"/>
      <use xlink:href="#Cmr10-6a" transform="translate(229.253314 -14.390587) scale(0.7)"/>
      <use xlink:href="#Cmr10-82" transform="translate(248.633197 -14.390587) scale(0.7)"/>
      <use xlink:href="#Cmr10-2d" transform="translate(279.702533 -14.390587) scale(0.7)"/>
     </g>
    </g>
    <g id="line2d_64">
     <path d="M 321.661758 66.738281 
L 331.161758 66.738281 
L 340.661758 66.738281 
" style="fill: none; stroke: #eb6834; stroke-width: 2; stroke-linecap: square"/>
     <g>
      <use xlink:href="#m7c6b1559db" x="331.161758" y="66.738281" style="fill: #eb6834; stroke: #eb6834; stroke-linejoin: miter"/>
     </g>
    </g>
    <g id="text_38">
     <!-- $d_{\mathrm{ff}}$ -->
     <g transform="translate(348.261758 70.063281) scale(0.095 -0.095)">
      <use xlink:href="#Cmmi10-51" transform="translate(0 0.609375)"/>
      <use xlink:href="#Cmr10-50" transform="translate(52.001953 -14.390587) scale(0.7)"/>
      <use xlink:href="#Cmr10-50" transform="translate(73.364258 -14.390587) scale(0.7)"/>
     </g>
    </g>
   </g>
  </g>
 </g>
 <defs>
  <clipPath id="p1f56de9327">
   <rect x="41.82875" y="24.145068" width="249.583008" height="170.320947"/>
  </clipPath>
  <clipPath id="p8ecc98af0a">
   <rect x="313.111758" y="24.145068" width="249.583008" height="170.320947"/>
  </clipPath>
 </defs>
</svg>
