<?xml version="1.0" encoding="utf-8" standalone="no"?>
<!DOCTYPE svg PUBLIC "-//W3C//DTD SVG 1.1//EN"
  "http://www.w3.org/Graphics/SVG/1.1/DTD/svg11.dtd">
<svg xmlns:xlink="http://www.w3.org/1999/xlink" width="540.806016pt" height="238.556016pt" viewBox="0 0 540.806016 238.556016" xmlns="http://www.w3.org/2000/svg" version="1.1">
 <metadata>
  <rdf:RDF xmlns:dc="http://purl.org/dc/elements/1.1/" xmlns:cc="http://creativecommons.org/ns#" xmlns:rdf="http://www.w3.org/1999/02/22-rdf-syntax-ns#">
   <cc:Work>
    <dc:type rdf:resource="http://purl.org/dc/dcmitype/StillImage"/>
    <dc:date>2026-07-23T01:01:16.523163</dc:date>
    <dc:format>image/svg+xml</dc:format>
    <dc:creator>
     <cc:Agent>
      <dc:title>Matplotlib v3.11.1, https://matplotlib.org/</dc:title>
     </cc:Agent>
    </dc:creator>
   </cc:Work>
  </rdf:RDF>
 </metadata>
 <defs>
  <style type="text/css">*{stroke-linejoin: round; stroke-linecap: butt}</style>
 </defs>
 <g id="figure_1">
  <g id="patch_1">
   <path d="M 0 238.556016 
L 540.806016 238.556016 
L 540.806016 -0 
L 0 -0 
z
" style="fill: #fcfcfb"/>
  </g>
  <g id="axes_1">
   <g id="patch_2">
    <path d="M 50.99 197.856016 
L 313.059219 197.856016 
L 313.059219 24.44 
L 50.99 24.44 
z
" style="fill: #fcfcfb"/>
   </g>
   <g id="matplotlib.axis_1">
    <g id="xtick_1">
     <g id="line2d_1">
      <path d="M 83.665309 197.856016 
L 83.665309 24.44 
" clip-path="url(#p7a22da13aa)" style="fill: none; stroke: #e1e0d9; stroke-width: 0.7; stroke-linecap: square"/>
     </g>
     <g id="line2d_2">
      <defs>
       <path id="m35203f0e55" d="M 0 0 
L 0 3.5 
" style="stroke: #898781; stroke-width: 0.8"/>
      </defs>
      <g>
       <use xlink:href="#m35203f0e55" x="83.665309" y="197.856016" style="fill: #898781; stroke: #898781; stroke-width: 0.8"/>
      </g>
     </g>
     <g id="text_1">
      <!-- 11 -->
      <g style="fill: #52514e" transform="translate(77.850934 213.023252) scale(0.105 -0.105)">
       <defs>
        <path id="Cambria-373" d="M 2172 816 
Q 2172 634 2192 542 
Q 2213 450 2264 392 
Q 2316 334 2412 301 
Q 2509 269 2656 251 
Q 2803 234 3044 228 
L 3044 0 
L 734 0 
L 734 228 
Q 1081 244 1229 270 
Q 1378 297 1456 350 
Q 1534 403 1570 500 
Q 1606 597 1606 816 
L 1606 3350 
Q 1606 3475 1562 3533 
Q 1519 3591 1434 3591 
Q 1334 3591 1150 3487 
Q 966 3384 694 3203 
L 556 3444 
L 2019 4316 
L 2191 4316 
Q 2172 4016 2172 3484 
L 2172 816 
z
" transform="scale(0.015625)"/>
       </defs>
       <use xlink:href="#Cambria-373"/>
       <use xlink:href="#Cambria-373" transform="translate(55.375 0)"/>
      </g>
     </g>
    </g>
    <g id="xtick_2">
     <g id="line2d_3">
      <path d="M 159.983475 197.856016 
L 159.983475 24.44 
" clip-path="url(#p7a22da13aa)" style="fill: none; stroke: #e1e0d9; stroke-width: 0.7; stroke-linecap: square"/>
     </g>
     <g id="line2d_4">
      <g>
       <use xlink:href="#m35203f0e55" x="159.983475" y="197.856016" style="fill: #898781; stroke: #898781; stroke-width: 0.8"/>
      </g>
     </g>
     <g id="text_2">
      <!-- 23 -->
      <g style="fill: #52514e" transform="translate(154.1691 213.023252) scale(0.105 -0.105)">
       <defs>
        <path id="Cambria-374" d="M 2194 500 
Q 2347 500 2440 519 
Q 2534 538 2590 581 
Q 2647 625 2680 695 
Q 2713 766 2763 913 
L 3028 913 
L 2975 0 
L 403 0 
L 403 150 
Q 538 478 766 822 
Q 994 1166 1413 1631 
Q 1775 2031 1934 2238 
Q 2109 2463 2195 2627 
Q 2281 2791 2318 2936 
Q 2356 3081 2356 3228 
Q 2356 3463 2281 3642 
Q 2206 3822 2051 3925 
Q 1897 4028 1663 4028 
Q 1078 4028 875 3378 
L 497 3378 
L 497 3978 
Q 875 4156 1204 4236 
Q 1534 4316 1797 4316 
Q 2378 4316 2675 4061 
Q 2972 3806 2972 3322 
Q 2972 3156 2939 3017 
Q 2906 2878 2836 2742 
Q 2766 2606 2647 2450 
Q 2528 2294 2384 2133 
Q 2241 1972 1888 1597 
Q 1294 969 1016 500 
L 2194 500 
z
" transform="scale(0.015625)"/>
        <path id="Cambria-375" d="M 497 3381 
L 497 3975 
Q 859 4147 1175 4231 
Q 1491 4316 1784 4316 
Q 2138 4316 2403 4206 
Q 2669 4097 2809 3892 
Q 2950 3688 2950 3403 
Q 2950 3138 2844 2936 
Q 2738 2734 2545 2584 
Q 2353 2434 2047 2291 
L 2047 2263 
Q 2238 2228 2414 2145 
Q 2591 2063 2728 1931 
Q 2866 1800 2948 1617 
Q 3031 1434 3031 1200 
Q 3031 838 2873 556 
Q 2716 275 2391 112 
Q 2066 -50 1600 -50 
Q 1331 -50 1020 11 
Q 709 72 450 172 
L 450 834 
L 825 834 
Q 934 509 1114 362 
Q 1294 216 1603 216 
Q 2009 216 2217 437 
Q 2425 659 2425 1094 
Q 2425 1550 2150 1790 
Q 1875 2031 1344 2031 
L 1063 2031 
L 1063 2306 
Q 1484 2331 1773 2468 
Q 2063 2606 2203 2822 
Q 2344 3038 2344 3306 
Q 2344 3653 2159 3840 
Q 1975 4028 1622 4028 
Q 1328 4028 1143 3868 
Q 959 3709 872 3381 
L 497 3381 
z
" transform="scale(0.015625)"/>
       </defs>
       <use xlink:href="#Cambria-374"/>
       <use xlink:href="#Cambria-375" transform="translate(55.375 0)"/>
      </g>
     </g>
    </g>
    <g id="xtick_3">
     <g id="line2d_5">
      <path d="M 233.927501 197.856016 
L 233.927501 24.44 
" clip-path="url(#p7a22da13aa)" style="fill: none; stroke: #e1e0d9; stroke-width: 0.7; stroke-linecap: square"/>
     </g>
     <g id="line2d_6">
      <g>
       <use xlink:href="#m35203f0e55" x="233.927501" y="197.856016" style="fill: #898781; stroke: #898781; stroke-width: 0.8"/>
      </g>
     </g>
     <g id="text_3">
      <!-- 47 -->
      <g style="fill: #52514e" transform="translate(228.113126 213.023252) scale(0.105 -0.105)">
       <defs>
        <path id="Cambria-376" d="M 1613 153 
Q 1806 203 1872 264 
Q 1938 325 1958 437 
Q 1978 550 1978 781 
L 1978 1294 
L 241 1294 
L 241 1528 
L 2069 4288 
L 2516 4288 
L 2516 1597 
L 2581 1597 
Q 2763 1597 2841 1623 
Q 2919 1650 2970 1717 
Q 3022 1784 3066 1938 
L 3303 1938 
L 3266 1294 
L 2516 1294 
L 2516 781 
Q 2516 572 2530 475 
Q 2544 378 2576 322 
Q 2609 266 2673 228 
Q 2738 191 2881 153 
L 2881 0 
L 1613 0 
L 1613 153 
z
M 756 1597 
L 1978 1597 
L 1978 2375 
Q 1978 2669 1987 3033 
Q 1997 3397 2009 3581 
L 1978 3581 
L 756 1641 
L 756 1597 
z
" transform="scale(0.015625)"/>
        <path id="Cambria-379" d="M 3206 4116 
L 1388 -22 
L 934 -22 
L 934 131 
L 2619 3697 
L 2619 3744 
L 1244 3744 
Q 1116 3744 1039 3720 
Q 963 3697 911 3653 
Q 859 3609 825 3537 
Q 791 3466 731 3253 
L 463 3253 
L 525 4266 
L 3206 4266 
L 3206 4116 
z
" transform="scale(0.015625)"/>
       </defs>
       <use xlink:href="#Cambria-376"/>
       <use xlink:href="#Cambria-379" transform="translate(55.375 0)"/>
      </g>
     </g>
    </g>
    <g id="xtick_4">
     <g id="line2d_7">
      <path d="M 257.455159 197.856016 
L 257.455159 24.44 
" clip-path="url(#p7a22da13aa)" style="fill: none; stroke: #e1e0d9; stroke-width: 0.7; stroke-linecap: square"/>
     </g>
     <g id="line2d_8">
      <g>
       <use xlink:href="#m35203f0e55" x="257.455159" y="197.856016" style="fill: #898781; stroke: #898781; stroke-width: 0.8"/>
      </g>
     </g>
     <g id="text_4">
      <!-- 59 -->
      <g style="fill: #52514e" transform="translate(251.640784 213.023252) scale(0.105 -0.105)">
       <defs>
        <path id="Cambria-377" d="M 469 172 
L 469 834 
L 847 834 
Q 941 516 1130 366 
Q 1319 216 1619 216 
Q 2034 216 2246 466 
Q 2459 716 2459 1213 
Q 2459 1544 2346 1761 
Q 2234 1978 2043 2075 
Q 1853 2172 1600 2172 
Q 1388 2172 1234 2145 
Q 1081 2119 906 2063 
L 656 2209 
L 656 4266 
L 2378 4266 
Q 2484 4266 2531 4283 
Q 2578 4300 2606 4336 
Q 2634 4372 2672 4472 
L 2916 4472 
L 2869 3747 
L 1072 3747 
L 1072 2375 
Q 1234 2444 1425 2478 
Q 1616 2513 1806 2513 
Q 2178 2513 2465 2361 
Q 2753 2209 2909 1929 
Q 3066 1650 3066 1281 
Q 3066 863 2891 563 
Q 2716 263 2384 106 
Q 2053 -50 1600 -50 
Q 1059 -50 469 172 
z
" transform="scale(0.015625)"/>
        <path id="Cambria-37b" d="M 978 122 
L 978 275 
Q 1416 275 1736 469 
Q 2056 663 2251 1042 
Q 2447 1422 2513 2038 
L 2481 2050 
Q 2219 1863 1964 1775 
Q 1709 1688 1413 1688 
Q 1059 1688 811 1842 
Q 563 1997 438 2276 
Q 313 2556 313 2931 
Q 313 3213 406 3464 
Q 500 3716 684 3905 
Q 869 4094 1145 4205 
Q 1422 4316 1791 4316 
Q 2447 4316 2790 3862 
Q 3134 3409 3134 2559 
Q 3134 1781 2881 1211 
Q 2628 641 2172 323 
Q 1716 6 1106 -50 
L 978 122 
z
M 1628 2016 
Q 1747 2016 1855 2036 
Q 1963 2056 2066 2095 
Q 2169 2134 2267 2195 
Q 2366 2256 2444 2325 
Q 2472 2350 2494 2390 
Q 2516 2431 2528 2497 
Q 2541 2563 2541 2703 
Q 2541 3131 2455 3436 
Q 2369 3741 2192 3895 
Q 2016 4050 1756 4050 
Q 1522 4050 1359 3969 
Q 1197 3888 1095 3745 
Q 994 3603 947 3411 
Q 900 3219 900 2994 
Q 900 2528 1090 2272 
Q 1281 2016 1628 2016 
z
" transform="scale(0.015625)"/>
       </defs>
       <use xlink:href="#Cambria-377"/>
       <use xlink:href="#Cambria-37b" transform="translate(55.375 0)"/>
      </g>
     </g>
    </g>
    <g id="xtick_5">
     <g id="line2d_9">
      <path d="M 276.611546 197.856016 
L 276.611546 24.44 
" clip-path="url(#p7a22da13aa)" style="fill: none; stroke: #e1e0d9; stroke-width: 0.7; stroke-linecap: square"/>
     </g>
     <g id="line2d_10">
      <g>
       <use xlink:href="#m35203f0e55" x="276.611546" y="197.856016" style="fill: #898781; stroke: #898781; stroke-width: 0.8"/>
      </g>
     </g>
     <g id="text_5">
      <!-- 71 -->
      <g style="fill: #52514e" transform="translate(270.797171 213.023252) scale(0.105 -0.105)">
       <use xlink:href="#Cambria-379"/>
       <use xlink:href="#Cambria-373" transform="translate(55.375 0)"/>
      </g>
     </g>
    </g>
    <g id="xtick_6">
     <g id="line2d_11">
      <defs>
       <path id="m7040025a6a" d="M 0 0 
L 0 2 
" style="stroke: #898781; stroke-width: 0.6"/>
      </defs>
      <g>
       <use xlink:href="#m7040025a6a" x="62.902237" y="197.856016" style="fill: #898781; stroke: #898781; stroke-width: 0.6"/>
      </g>
     </g>
    </g>
    <g id="xtick_7">
     <g id="line2d_12">
      <g>
       <use xlink:href="#m7040025a6a" x="145.522533" y="197.856016" style="fill: #898781; stroke: #898781; stroke-width: 0.6"/>
      </g>
     </g>
    </g>
    <g id="xtick_8">
     <g id="line2d_13">
      <g>
       <use xlink:href="#m7040025a6a" x="187.47535" y="197.856016" style="fill: #898781; stroke: #898781; stroke-width: 0.6"/>
      </g>
     </g>
    </g>
    <g id="xtick_9">
     <g id="line2d_14">
      <g>
       <use xlink:href="#m7040025a6a" x="217.241348" y="197.856016" style="fill: #898781; stroke: #898781; stroke-width: 0.6"/>
      </g>
     </g>
    </g>
    <g id="xtick_10">
     <g id="line2d_15">
      <g>
       <use xlink:href="#m7040025a6a" x="240.329649" y="197.856016" style="fill: #898781; stroke: #898781; stroke-width: 0.6"/>
      </g>
     </g>
    </g>
    <g id="xtick_11">
     <g id="line2d_16">
      <g>
       <use xlink:href="#m7040025a6a" x="259.194165" y="197.856016" style="fill: #898781; stroke: #898781; stroke-width: 0.6"/>
      </g>
     </g>
    </g>
    <g id="xtick_12">
     <g id="line2d_17">
      <g>
       <use xlink:href="#m7040025a6a" x="275.143885" y="197.856016" style="fill: #898781; stroke: #898781; stroke-width: 0.6"/>
      </g>
     </g>
    </g>
    <g id="xtick_13">
     <g id="line2d_18">
      <g>
       <use xlink:href="#m7040025a6a" x="288.960162" y="197.856016" style="fill: #898781; stroke: #898781; stroke-width: 0.6"/>
      </g>
     </g>
    </g>
    <g id="xtick_14">
     <g id="line2d_19">
      <g>
       <use xlink:href="#m7040025a6a" x="301.146982" y="197.856016" style="fill: #898781; stroke: #898781; stroke-width: 0.6"/>
      </g>
     </g>
    </g>
    <g id="text_6">
     <!-- characteristic $p$ -->
     <g style="fill: #0b0b0b" transform="translate(142.664609 228.69) scale(0.12 -0.12)">
      <defs>
       <path id="Cambria-85" d="M 2631 2916 
L 2631 2263 
L 2234 2263 
Q 2181 2466 2103 2583 
Q 2025 2700 1922 2747 
Q 1819 2794 1666 2794 
Q 1447 2794 1278 2653 
Q 1109 2513 1011 2225 
Q 913 1938 913 1522 
Q 913 1256 950 1036 
Q 988 816 1078 659 
Q 1169 503 1319 415 
Q 1469 328 1691 328 
Q 1906 328 2092 412 
Q 2278 497 2478 709 
L 2656 503 
Q 2497 328 2375 233 
Q 2253 138 2114 73 
Q 1975 9 1839 -20 
Q 1703 -50 1544 -50 
Q 953 -50 640 342 
Q 328 734 328 1475 
Q 328 1938 503 2295 
Q 678 2653 993 2847 
Q 1309 3041 1722 3041 
Q 1978 3041 2195 3011 
Q 2413 2981 2631 2916 
z
" transform="scale(0.015625)"/>
       <path id="Cambria-8a" d="M 1141 2497 
L 1153 2494 
Q 1397 2741 1539 2839 
Q 1681 2938 1820 2988 
Q 1959 3038 2119 3038 
Q 2291 3038 2425 2997 
Q 2559 2956 2661 2873 
Q 2763 2791 2827 2670 
Q 2891 2550 2922 2383 
Q 2953 2216 2953 1959 
L 2953 781 
Q 2953 509 2976 411 
Q 3000 313 3061 258 
Q 3122 203 3306 153 
L 3306 0 
L 2075 0 
L 2075 153 
Q 2197 191 2250 219 
Q 2303 247 2339 297 
Q 2375 347 2395 451 
Q 2416 556 2416 769 
L 2416 1588 
Q 2416 2003 2373 2223 
Q 2331 2444 2207 2553 
Q 2084 2663 1863 2663 
Q 1738 2663 1638 2619 
Q 1538 2575 1406 2462 
Q 1275 2350 1208 2231 
Q 1141 2113 1141 1978 
L 1141 781 
Q 1141 569 1152 478 
Q 1163 388 1194 327 
Q 1225 266 1289 227 
Q 1353 188 1488 153 
L 1488 0 
L 250 0 
L 250 153 
Q 388 191 447 225 
Q 506 259 539 312 
Q 572 366 587 466 
Q 603 566 603 781 
L 603 3397 
Q 603 3697 598 3815 
Q 594 3934 573 4017 
Q 553 4100 517 4147 
Q 481 4194 420 4222 
Q 359 4250 200 4278 
L 200 4441 
L 953 4472 
L 1141 4472 
L 1141 2497 
z
" transform="scale(0.015625)"/>
       <path id="Cambria-83" d="M 2109 447 
L 2063 459 
Q 1791 181 1552 65 
Q 1313 -50 1044 -50 
Q 806 -50 625 42 
Q 444 134 347 301 
Q 250 469 250 688 
Q 250 1144 701 1392 
Q 1153 1641 2056 1681 
L 2056 1884 
Q 2056 2209 1993 2396 
Q 1931 2584 1797 2671 
Q 1663 2759 1438 2759 
Q 1194 2759 1045 2631 
Q 897 2503 822 2247 
L 413 2247 
L 413 2653 
Q 713 2809 913 2882 
Q 1113 2956 1313 2998 
Q 1513 3041 1719 3041 
Q 2028 3041 2215 2942 
Q 2403 2844 2497 2641 
Q 2591 2438 2591 2028 
L 2591 941 
Q 2591 709 2594 614 
Q 2597 519 2612 437 
Q 2628 356 2659 307 
Q 2691 259 2752 225 
Q 2813 191 2950 153 
L 2950 0 
L 2094 0 
L 2109 447 
z
M 2056 1425 
Q 1422 1419 1106 1256 
Q 791 1094 791 766 
Q 791 588 862 484 
Q 934 381 1043 342 
Q 1153 303 1303 303 
Q 1516 303 1689 406 
Q 1863 509 1959 668 
Q 2056 828 2056 984 
L 2056 1425 
z
" transform="scale(0.015625)"/>
       <path id="Cambria-94" d="M 1147 2469 
L 1191 2459 
Q 1363 2669 1509 2789 
Q 1656 2909 1826 2975 
Q 1997 3041 2213 3041 
Q 2394 3041 2541 3022 
L 2541 2303 
L 2188 2303 
Q 2113 2472 2028 2548 
Q 1944 2625 1797 2625 
Q 1684 2625 1573 2559 
Q 1463 2494 1359 2369 
Q 1256 2244 1217 2134 
Q 1178 2025 1178 1875 
L 1178 781 
Q 1178 497 1212 389 
Q 1247 281 1326 231 
Q 1406 181 1566 153 
L 1566 0 
L 306 0 
L 306 153 
Q 425 191 476 219 
Q 528 247 565 297 
Q 603 347 622 450 
Q 641 553 641 772 
L 641 2134 
Q 641 2334 634 2456 
Q 628 2578 590 2651 
Q 553 2725 476 2761 
Q 400 2797 259 2822 
L 259 2984 
L 991 3016 
L 1181 3016 
L 1147 2469 
z
" transform="scale(0.015625)"/>
       <path id="Cambria-96" d="M 116 2831 
Q 272 2856 369 2918 
Q 466 2981 520 3079 
Q 575 3178 606 3326 
Q 638 3475 672 3759 
L 1116 3759 
L 1116 2988 
L 2125 2988 
L 2125 2672 
L 1116 2672 
L 1116 1281 
Q 1116 978 1141 798 
Q 1166 619 1234 517 
Q 1303 416 1390 372 
Q 1478 328 1616 328 
Q 1741 328 1850 379 
Q 1959 431 2066 528 
L 2206 359 
Q 1984 144 1786 47 
Q 1588 -50 1375 -50 
Q 972 -50 775 189 
Q 578 428 578 938 
L 578 2672 
L 116 2672 
L 116 2831 
z
" transform="scale(0.015625)"/>
       <path id="Cambria-87" d="M 2800 531 
Q 2600 322 2433 203 
Q 2266 84 2066 17 
Q 1866 -50 1625 -50 
Q 981 -50 653 336 
Q 325 722 325 1475 
Q 325 1941 492 2297 
Q 659 2653 968 2847 
Q 1278 3041 1681 3041 
Q 1997 3041 2219 2941 
Q 2441 2841 2573 2667 
Q 2706 2494 2779 2230 
Q 2853 1966 2863 1541 
L 894 1541 
L 894 1484 
Q 894 1116 976 864 
Q 1059 613 1248 470 
Q 1438 328 1741 328 
Q 1997 328 2201 423 
Q 2406 519 2609 734 
L 2800 531 
z
M 2275 1800 
Q 2256 2138 2190 2352 
Q 2125 2566 1994 2680 
Q 1863 2794 1650 2794 
Q 1328 2794 1136 2536 
Q 944 2278 909 1800 
L 2275 1800 
z
" transform="scale(0.015625)"/>
       <path id="Cambria-8b" d="M 1197 4213 
L 1197 3606 
L 622 3606 
L 622 4213 
L 1197 4213 
z
M 303 153 
Q 425 191 476 219 
Q 528 247 564 297 
Q 600 347 620 450 
Q 641 553 641 772 
L 641 2134 
Q 641 2334 634 2456 
Q 628 2578 590 2651 
Q 553 2725 476 2761 
Q 400 2797 259 2822 
L 259 2988 
L 988 3016 
L 1178 3016 
L 1178 781 
Q 1178 513 1203 408 
Q 1228 303 1298 248 
Q 1369 194 1528 153 
L 1528 0 
L 303 0 
L 303 153 
z
" transform="scale(0.015625)"/>
       <path id="Cambria-95" d="M 2397 2303 
L 2097 2303 
Q 2028 2491 1934 2598 
Q 1841 2706 1722 2750 
Q 1603 2794 1431 2794 
Q 1181 2794 1032 2676 
Q 884 2559 884 2356 
Q 884 2213 943 2119 
Q 1003 2025 1128 1944 
Q 1253 1863 1569 1728 
Q 1888 1591 2061 1475 
Q 2234 1359 2332 1206 
Q 2431 1053 2431 841 
Q 2431 594 2347 425 
Q 2263 256 2109 150 
Q 1956 44 1745 -3 
Q 1534 -50 1284 -50 
Q 1022 -50 775 -11 
Q 528 28 294 91 
L 294 744 
L 600 744 
Q 684 456 850 326 
Q 1016 197 1306 197 
Q 1419 197 1526 220 
Q 1634 244 1718 298 
Q 1803 353 1853 447 
Q 1903 541 1903 681 
Q 1903 841 1840 941 
Q 1778 1041 1647 1123 
Q 1516 1206 1184 1347 
Q 900 1466 728 1578 
Q 556 1691 457 1844 
Q 359 1997 359 2206 
Q 359 2463 498 2652 
Q 638 2841 900 2941 
Q 1163 3041 1516 3041 
Q 1722 3041 1914 3020 
Q 2106 3000 2397 2941 
L 2397 2303 
z
" transform="scale(0.015625)"/>
       <path id="Cambria-3" transform="scale(0.015625)"/>
       <path id="Cmmi10-80" d="M -159 -1241 
Q -219 -1241 -219 -1159 
Q -197 -1019 -134 -1019 
Q 66 -1019 145 -983 
Q 225 -947 269 -800 
L 991 2081 
Q 1038 2200 1038 2388 
Q 1038 2663 850 2663 
Q 650 2663 553 2423 
Q 456 2184 366 1819 
Q 366 1778 313 1778 
L 238 1778 
Q 222 1778 203 1801 
Q 184 1825 184 1844 
Q 253 2122 317 2315 
Q 381 2509 517 2668 
Q 653 2828 856 2828 
Q 1075 2828 1240 2704 
Q 1406 2581 1453 2369 
Q 1628 2572 1840 2700 
Q 2053 2828 2278 2828 
Q 2547 2828 2745 2684 
Q 2944 2541 3044 2308 
Q 3144 2075 3144 1806 
Q 3144 1394 2933 953 
Q 2722 513 2361 220 
Q 2000 -72 1588 -72 
Q 1400 -72 1248 34 
Q 1097 141 1013 313 
L 722 -825 
Q 706 -919 703 -934 
Q 703 -1019 1125 -1019 
Q 1191 -1019 1191 -1100 
Q 1169 -1184 1155 -1212 
Q 1141 -1241 1081 -1241 
L -159 -1241 
z
M 1594 97 
Q 1816 97 2006 280 
Q 2197 463 2316 691 
Q 2403 863 2479 1111 
Q 2556 1359 2612 1640 
Q 2669 1922 2669 2088 
Q 2669 2234 2630 2362 
Q 2591 2491 2502 2577 
Q 2413 2663 2266 2663 
Q 2031 2663 1823 2495 
Q 1616 2328 1447 2081 
L 1447 2059 
L 1094 647 
Q 1138 419 1263 258 
Q 1388 97 1594 97 
z
" transform="scale(0.015625)"/>
      </defs>
      <use xlink:href="#Cambria-85" transform="translate(0 0.125)"/>
      <use xlink:href="#Cambria-8a" transform="translate(44.091797 0.125)"/>
      <use xlink:href="#Cambria-83" transform="translate(99.267578 0.125)"/>
      <use xlink:href="#Cambria-94" transform="translate(148.095703 0.125)"/>
      <use xlink:href="#Cambria-83" transform="translate(189.453125 0.125)"/>
      <use xlink:href="#Cambria-85" transform="translate(238.28125 0.125)"/>
      <use xlink:href="#Cambria-96" transform="translate(282.373047 0.125)"/>
      <use xlink:href="#Cambria-87" transform="translate(316.210938 0.125)"/>
      <use xlink:href="#Cambria-94" transform="translate(364.990234 0.125)"/>
      <use xlink:href="#Cambria-8b" transform="translate(406.347656 0.125)"/>
      <use xlink:href="#Cambria-95" transform="translate(434.130859 0.125)"/>
      <use xlink:href="#Cambria-96" transform="translate(477.099609 0.125)"/>
      <use xlink:href="#Cambria-8b" transform="translate(510.9375 0.125)"/>
      <use xlink:href="#Cambria-85" transform="translate(538.720703 0.125)"/>
      <use xlink:href="#Cambria-3" transform="translate(582.8125 0.125)"/>
      <use xlink:href="#Cmmi10-80" transform="translate(604.833984 0.125)"/>
     </g>
    </g>
   </g>
   <g id="matplotlib.axis_2">
    <g id="ytick_1">
     <g id="line2d_20">
      <path d="M 50.99 171.190132 
L 313.059219 171.190132 
" clip-path="url(#p7a22da13aa)" style="fill: none; stroke: #e1e0d9; stroke-width: 0.7; stroke-linecap: square"/>
     </g>
     <g id="line2d_21">
      <defs>
       <path id="m87ae13e70e" d="M 0 0 
L -3.5 0 
" style="stroke: #898781; stroke-width: 0.8"/>
      </defs>
      <g>
       <use xlink:href="#m87ae13e70e" x="50.99" y="171.190132" style="fill: #898781; stroke: #898781; stroke-width: 0.8"/>
      </g>
     </g>
     <g id="text_7">
      <!-- $\mathdefault{10^{-1}}$ -->
      <g style="fill: #52514e" transform="translate(23.2 175.862632) scale(0.105 -0.105)">
       <defs>
        <path id="Cambria-372" d="M 1738 -50 
Q 1063 -50 733 481 
Q 403 1013 403 2094 
Q 403 2669 504 3087 
Q 606 3506 789 3779 
Q 972 4053 1228 4184 
Q 1484 4316 1788 4316 
Q 2472 4316 2806 3787 
Q 3141 3259 3141 2191 
Q 3141 1084 2783 517 
Q 2425 -50 1738 -50 
z
M 1013 2188 
Q 1013 1169 1202 692 
Q 1391 216 1788 216 
Q 2166 216 2348 664 
Q 2531 1113 2531 2053 
Q 2531 2772 2437 3217 
Q 2344 3663 2176 3856 
Q 2009 4050 1772 4050 
Q 1556 4050 1411 3922 
Q 1266 3794 1177 3553 
Q 1088 3313 1050 2967 
Q 1013 2622 1013 2188 
z
" transform="scale(0.015625)"/>
        <path id="Cambria-3ab" d="M 397 1613 
L 397 2047 
L 3147 2047 
L 3147 1613 
L 397 1613 
z
" transform="scale(0.015625)"/>
       </defs>
       <use xlink:href="#Cambria-373" transform="translate(0 0.504516)"/>
       <use xlink:href="#Cambria-372" transform="translate(55.371094 0.504516)"/>
       <use xlink:href="#Cambria-3ab" transform="translate(114.746478 41.79375) scale(0.7)"/>
       <use xlink:href="#Cambria-373" transform="translate(153.506244 41.79375) scale(0.7)"/>
      </g>
     </g>
    </g>
    <g id="ytick_2">
     <g id="line2d_22">
      <path d="M 50.99 118.073029 
L 313.059219 118.073029 
" clip-path="url(#p7a22da13aa)" style="fill: none; stroke: #e1e0d9; stroke-width: 0.7; stroke-linecap: square"/>
     </g>
     <g id="line2d_23">
      <g>
       <use xlink:href="#m87ae13e70e" x="50.99" y="118.073029" style="fill: #898781; stroke: #898781; stroke-width: 0.8"/>
      </g>
     </g>
     <g id="text_8">
      <!-- $\mathdefault{10^{0}}$ -->
      <g style="fill: #52514e" transform="translate(27.19 122.745529) scale(0.105 -0.105)">
       <use xlink:href="#Cambria-373" transform="translate(0 0.504516)"/>
       <use xlink:href="#Cambria-372" transform="translate(55.371094 0.504516)"/>
       <use xlink:href="#Cambria-372" transform="translate(114.746478 41.79375) scale(0.7)"/>
      </g>
     </g>
    </g>
    <g id="ytick_3">
     <g id="line2d_24">
      <path d="M 50.99 64.955927 
L 313.059219 64.955927 
" clip-path="url(#p7a22da13aa)" style="fill: none; stroke: #e1e0d9; stroke-width: 0.7; stroke-linecap: square"/>
     </g>
     <g id="line2d_25">
      <g>
       <use xlink:href="#m87ae13e70e" x="50.99" y="64.955927" style="fill: #898781; stroke: #898781; stroke-width: 0.8"/>
      </g>
     </g>
     <g id="text_9">
      <!-- $\mathdefault{10^{1}}$ -->
      <g style="fill: #52514e" transform="translate(27.19 69.628427) scale(0.105 -0.105)">
       <use xlink:href="#Cambria-373" transform="translate(0 0.504516)"/>
       <use xlink:href="#Cambria-372" transform="translate(55.371094 0.504516)"/>
       <use xlink:href="#Cambria-373" transform="translate(114.746478 41.79375) scale(0.7)"/>
      </g>
     </g>
    </g>
    <g id="ytick_4">
     <g id="line2d_26">
      <defs>
       <path id="ma77d044178" d="M 0 0 
L -2 0 
" style="stroke: #898781; stroke-width: 0.6"/>
      </defs>
      <g>
       <use xlink:href="#ma77d044178" x="50.99" y="192.327552" style="fill: #898781; stroke: #898781; stroke-width: 0.6"/>
      </g>
     </g>
    </g>
    <g id="ytick_5">
     <g id="line2d_27">
      <g>
       <use xlink:href="#ma77d044178" x="50.99" y="187.179973" style="fill: #898781; stroke: #898781; stroke-width: 0.6"/>
      </g>
     </g>
    </g>
    <g id="ytick_6">
     <g id="line2d_28">
      <g>
       <use xlink:href="#ma77d044178" x="50.99" y="182.974095" style="fill: #898781; stroke: #898781; stroke-width: 0.6"/>
      </g>
     </g>
    </g>
    <g id="ytick_7">
     <g id="line2d_29">
      <g>
       <use xlink:href="#ma77d044178" x="50.99" y="179.418075" style="fill: #898781; stroke: #898781; stroke-width: 0.6"/>
      </g>
     </g>
    </g>
    <g id="ytick_8">
     <g id="line2d_30">
      <g>
       <use xlink:href="#ma77d044178" x="50.99" y="176.337711" style="fill: #898781; stroke: #898781; stroke-width: 0.6"/>
      </g>
     </g>
    </g>
    <g id="ytick_9">
     <g id="line2d_31">
      <g>
       <use xlink:href="#ma77d044178" x="50.99" y="173.620637" style="fill: #898781; stroke: #898781; stroke-width: 0.6"/>
      </g>
     </g>
    </g>
    <g id="ytick_10">
     <g id="line2d_32">
      <g>
       <use xlink:href="#ma77d044178" x="50.99" y="155.200291" style="fill: #898781; stroke: #898781; stroke-width: 0.6"/>
      </g>
     </g>
    </g>
    <g id="ytick_11">
     <g id="line2d_33">
      <g>
       <use xlink:href="#ma77d044178" x="50.99" y="145.846833" style="fill: #898781; stroke: #898781; stroke-width: 0.6"/>
      </g>
     </g>
    </g>
    <g id="ytick_12">
     <g id="line2d_34">
      <g>
       <use xlink:href="#ma77d044178" x="50.99" y="139.21045" style="fill: #898781; stroke: #898781; stroke-width: 0.6"/>
      </g>
     </g>
    </g>
    <g id="ytick_13">
     <g id="line2d_35">
      <g>
       <use xlink:href="#ma77d044178" x="50.99" y="134.06287" style="fill: #898781; stroke: #898781; stroke-width: 0.6"/>
      </g>
     </g>
    </g>
    <g id="ytick_14">
     <g id="line2d_36">
      <g>
       <use xlink:href="#ma77d044178" x="50.99" y="129.856992" style="fill: #898781; stroke: #898781; stroke-width: 0.6"/>
      </g>
     </g>
    </g>
    <g id="ytick_15">
     <g id="line2d_37">
      <g>
       <use xlink:href="#ma77d044178" x="50.99" y="126.300973" style="fill: #898781; stroke: #898781; stroke-width: 0.6"/>
      </g>
     </g>
    </g>
    <g id="ytick_16">
     <g id="line2d_38">
      <g>
       <use xlink:href="#ma77d044178" x="50.99" y="123.220608" style="fill: #898781; stroke: #898781; stroke-width: 0.6"/>
      </g>
     </g>
    </g>
    <g id="ytick_17">
     <g id="line2d_39">
      <g>
       <use xlink:href="#ma77d044178" x="50.99" y="120.503535" style="fill: #898781; stroke: #898781; stroke-width: 0.6"/>
      </g>
     </g>
    </g>
    <g id="ytick_18">
     <g id="line2d_40">
      <g>
       <use xlink:href="#ma77d044178" x="50.99" y="102.083188" style="fill: #898781; stroke: #898781; stroke-width: 0.6"/>
      </g>
     </g>
    </g>
    <g id="ytick_19">
     <g id="line2d_41">
      <g>
       <use xlink:href="#ma77d044178" x="50.99" y="92.729731" style="fill: #898781; stroke: #898781; stroke-width: 0.6"/>
      </g>
     </g>
    </g>
    <g id="ytick_20">
     <g id="line2d_42">
      <g>
       <use xlink:href="#ma77d044178" x="50.99" y="86.093347" style="fill: #898781; stroke: #898781; stroke-width: 0.6"/>
      </g>
     </g>
    </g>
    <g id="ytick_21">
     <g id="line2d_43">
      <g>
       <use xlink:href="#ma77d044178" x="50.99" y="80.945768" style="fill: #898781; stroke: #898781; stroke-width: 0.6"/>
      </g>
     </g>
    </g>
    <g id="ytick_22">
     <g id="line2d_44">
      <g>
       <use xlink:href="#ma77d044178" x="50.99" y="76.739889" style="fill: #898781; stroke: #898781; stroke-width: 0.6"/>
      </g>
     </g>
    </g>
    <g id="ytick_23">
     <g id="line2d_45">
      <g>
       <use xlink:href="#ma77d044178" x="50.99" y="73.18387" style="fill: #898781; stroke: #898781; stroke-width: 0.6"/>
      </g>
     </g>
    </g>
    <g id="ytick_24">
     <g id="line2d_46">
      <g>
       <use xlink:href="#ma77d044178" x="50.99" y="70.103506" style="fill: #898781; stroke: #898781; stroke-width: 0.6"/>
      </g>
     </g>
    </g>
    <g id="ytick_25">
     <g id="line2d_47">
      <g>
       <use xlink:href="#ma77d044178" x="50.99" y="67.386432" style="fill: #898781; stroke: #898781; stroke-width: 0.6"/>
      </g>
     </g>
    </g>
    <g id="ytick_26">
     <g id="line2d_48">
      <g>
       <use xlink:href="#ma77d044178" x="50.99" y="48.966085" style="fill: #898781; stroke: #898781; stroke-width: 0.6"/>
      </g>
     </g>
    </g>
    <g id="ytick_27">
     <g id="line2d_49">
      <g>
       <use xlink:href="#ma77d044178" x="50.99" y="39.612628" style="fill: #898781; stroke: #898781; stroke-width: 0.6"/>
      </g>
     </g>
    </g>
    <g id="ytick_28">
     <g id="line2d_50">
      <g>
       <use xlink:href="#ma77d044178" x="50.99" y="32.976244" style="fill: #898781; stroke: #898781; stroke-width: 0.6"/>
      </g>
     </g>
    </g>
    <g id="ytick_29">
     <g id="line2d_51">
      <g>
       <use xlink:href="#ma77d044178" x="50.99" y="27.828665" style="fill: #898781; stroke: #898781; stroke-width: 0.6"/>
      </g>
     </g>
    </g>
    <g id="text_10">
     <!-- seconds per round trip -->
     <g style="fill: #0b0b0b" transform="translate(16.533984 169.529883) rotate(-90) scale(0.12 -0.12)">
      <defs>
       <path id="Cambria-91" d="M 1663 -50 
Q 1013 -50 670 333 
Q 328 716 328 1466 
Q 328 1981 508 2337 
Q 688 2694 1000 2867 
Q 1313 3041 1713 3041 
Q 2381 3041 2725 2652 
Q 3069 2263 3069 1534 
Q 3069 1016 2897 659 
Q 2725 303 2409 126 
Q 2094 -50 1663 -50 
z
M 919 1531 
Q 919 888 1123 542 
Q 1328 197 1709 197 
Q 1919 197 2066 298 
Q 2213 400 2305 572 
Q 2397 744 2437 970 
Q 2478 1197 2478 1444 
Q 2478 1903 2376 2206 
Q 2275 2509 2100 2651 
Q 1925 2794 1700 2794 
Q 1322 2794 1120 2466 
Q 919 2138 919 1531 
z
" transform="scale(0.015625)"/>
       <path id="Cambria-90" d="M 3347 0 
L 2116 0 
L 2116 153 
Q 2238 191 2291 219 
Q 2344 247 2380 297 
Q 2416 347 2436 451 
Q 2456 556 2456 769 
L 2456 1588 
Q 2456 1806 2443 1984 
Q 2431 2163 2401 2277 
Q 2372 2391 2330 2455 
Q 2288 2519 2230 2564 
Q 2172 2609 2097 2636 
Q 2022 2663 1900 2663 
Q 1778 2663 1668 2614 
Q 1559 2566 1428 2447 
Q 1297 2328 1237 2212 
Q 1178 2097 1178 1947 
L 1178 781 
Q 1178 513 1203 408 
Q 1228 303 1298 248 
Q 1369 194 1528 153 
L 1528 0 
L 303 0 
L 303 153 
Q 425 191 476 219 
Q 528 247 564 297 
Q 600 347 620 450 
Q 641 553 641 772 
L 641 2134 
Q 641 2334 634 2456 
Q 628 2578 590 2651 
Q 553 2725 476 2761 
Q 400 2797 259 2822 
L 259 2988 
L 991 3016 
L 1181 3016 
L 1147 2506 
L 1191 2494 
Q 1422 2728 1564 2828 
Q 1706 2928 1851 2983 
Q 1997 3038 2159 3038 
Q 2328 3038 2461 2998 
Q 2594 2959 2695 2878 
Q 2797 2797 2862 2676 
Q 2928 2556 2961 2387 
Q 2994 2219 2994 1959 
L 2994 781 
Q 2994 566 3006 469 
Q 3019 372 3050 319 
Q 3081 266 3140 230 
Q 3200 194 3347 153 
L 3347 0 
z
" transform="scale(0.015625)"/>
       <path id="Cambria-86" d="M 2413 3397 
Q 2413 3697 2408 3815 
Q 2403 3934 2383 4017 
Q 2363 4100 2327 4147 
Q 2291 4194 2230 4222 
Q 2169 4250 2009 4278 
L 2009 4441 
L 2766 4472 
L 2950 4472 
L 2950 853 
Q 2950 609 2959 504 
Q 2969 400 3000 337 
Q 3031 275 3098 236 
Q 3166 197 3334 163 
L 3334 0 
L 2597 -31 
L 2409 -31 
L 2447 481 
L 2400 494 
Q 2203 284 2058 179 
Q 1913 75 1748 12 
Q 1584 -50 1397 -50 
Q 884 -50 606 339 
Q 328 728 328 1463 
Q 328 1975 509 2333 
Q 691 2691 998 2866 
Q 1306 3041 1691 3041 
Q 1897 3041 2065 3008 
Q 2234 2975 2413 2900 
L 2413 3397 
z
M 2413 1853 
Q 2413 2097 2391 2244 
Q 2369 2391 2317 2491 
Q 2266 2591 2178 2659 
Q 2091 2728 1986 2759 
Q 1881 2791 1734 2791 
Q 1334 2791 1125 2470 
Q 916 2150 916 1550 
Q 916 950 1087 637 
Q 1259 325 1609 325 
Q 1747 325 1837 348 
Q 1928 372 2015 423 
Q 2103 475 2193 565 
Q 2284 656 2326 731 
Q 2369 806 2391 903 
Q 2413 1000 2413 1153 
L 2413 1853 
z
" transform="scale(0.015625)"/>
       <path id="Cambria-92" d="M 1150 94 
L 1150 -566 
Q 1150 -769 1164 -869 
Q 1178 -969 1214 -1026 
Q 1250 -1084 1317 -1121 
Q 1384 -1159 1534 -1191 
L 1534 -1344 
L 259 -1344 
L 259 -1191 
Q 372 -1159 442 -1126 
Q 513 -1094 550 -1030 
Q 588 -966 600 -856 
Q 613 -747 613 -566 
L 613 2116 
Q 613 2341 606 2436 
Q 600 2531 581 2593 
Q 563 2656 527 2697 
Q 491 2738 430 2766 
Q 369 2794 228 2822 
L 228 2988 
L 963 3016 
L 1153 3016 
L 1113 2506 
L 1159 2494 
Q 1353 2691 1465 2780 
Q 1578 2869 1698 2928 
Q 1819 2988 1930 3013 
Q 2041 3038 2166 3038 
Q 2681 3038 2957 2652 
Q 3234 2266 3234 1522 
Q 3234 1006 3078 654 
Q 2922 303 2623 126 
Q 2325 -50 1913 -50 
Q 1681 -50 1493 -11 
Q 1306 28 1150 94 
z
M 1150 1125 
Q 1150 825 1187 662 
Q 1225 500 1320 398 
Q 1416 297 1545 247 
Q 1675 197 1888 197 
Q 2266 197 2456 511 
Q 2647 825 2647 1438 
Q 2647 2663 1931 2663 
Q 1756 2663 1629 2608 
Q 1503 2553 1378 2431 
Q 1253 2309 1201 2195 
Q 1150 2081 1150 1950 
L 1150 1125 
z
" transform="scale(0.015625)"/>
       <path id="Cambria-97" d="M 228 2988 
L 1119 2988 
L 1119 1397 
Q 1119 1031 1147 840 
Q 1175 650 1231 553 
Q 1288 456 1391 390 
Q 1494 325 1675 325 
Q 1794 325 1903 372 
Q 2013 419 2147 536 
Q 2281 653 2339 768 
Q 2397 884 2397 1038 
L 2397 2209 
Q 2397 2388 2387 2478 
Q 2378 2569 2356 2623 
Q 2334 2678 2304 2712 
Q 2275 2747 2220 2775 
Q 2166 2803 2044 2834 
L 2044 2988 
L 2934 2988 
L 2934 853 
Q 2934 613 2943 506 
Q 2953 400 2984 337 
Q 3016 275 3081 236 
Q 3147 197 3316 163 
L 3316 0 
L 2600 -31 
L 2409 -31 
L 2428 481 
L 2381 494 
Q 2122 213 1886 81 
Q 1650 -50 1413 -50 
Q 1128 -50 943 62 
Q 759 175 668 398 
Q 578 622 578 1028 
L 578 2209 
Q 578 2472 558 2570 
Q 538 2669 480 2726 
Q 422 2784 228 2834 
L 228 2988 
z
" transform="scale(0.015625)"/>
      </defs>
      <use xlink:href="#Cambria-95"/>
      <use xlink:href="#Cambria-87" transform="translate(42.96875 0)"/>
      <use xlink:href="#Cambria-85" transform="translate(91.75 0)"/>
      <use xlink:href="#Cambria-91" transform="translate(135.84375 0)"/>
      <use xlink:href="#Cambria-90" transform="translate(188.921875 0)"/>
      <use xlink:href="#Cambria-86" transform="translate(244.734375 0)"/>
      <use xlink:href="#Cambria-95" transform="translate(300.203125 0)"/>
      <use xlink:href="#Cambria-3" transform="translate(343.171875 0)"/>
      <use xlink:href="#Cambria-92" transform="translate(365.1875 0)"/>
      <use xlink:href="#Cambria-87" transform="translate(420.796875 0)"/>
      <use xlink:href="#Cambria-94" transform="translate(469.578125 0)"/>
      <use xlink:href="#Cambria-3" transform="translate(510.9375 0)"/>
      <use xlink:href="#Cambria-94" transform="translate(532.953125 0)"/>
      <use xlink:href="#Cambria-91" transform="translate(572.84375 0)"/>
      <use xlink:href="#Cambria-97" transform="translate(625.921875 0)"/>
      <use xlink:href="#Cambria-90" transform="translate(681.140625 0)"/>
      <use xlink:href="#Cambria-86" transform="translate(736.953125 0)"/>
      <use xlink:href="#Cambria-3" transform="translate(792.421875 0)"/>
      <use xlink:href="#Cambria-96" transform="translate(814.4375 0)"/>
      <use xlink:href="#Cambria-94" transform="translate(848.28125 0)"/>
      <use xlink:href="#Cambria-8b" transform="translate(889.640625 0)"/>
      <use xlink:href="#Cambria-92" transform="translate(917.421875 0)"/>
     </g>
    </g>
   </g>
   <g id="FillBetweenPolyCollection_1">
    <defs>
     <path id="m19fc7c6fcc" d="M 62.902237 -93.488337 
L 62.902237 -48.582546 
L 64.904294 -49.13453 
L 66.906351 -49.686513 
L 68.908407 -50.238497 
L 70.910464 -50.79048 
L 72.912521 -51.342464 
L 74.914577 -51.894447 
L 76.916634 -52.446431 
L 78.918691 -52.998414 
L 80.920747 -53.550398 
L 82.922804 -54.102381 
L 84.924861 -54.654364 
L 86.926917 -55.206348 
L 88.928974 -55.758331 
L 90.931031 -56.310315 
L 92.933087 -56.862298 
L 94.935144 -57.414282 
L 96.937201 -57.966265 
L 98.939257 -58.518249 
L 100.941314 -59.070232 
L 102.943371 -59.622216 
L 104.945427 -60.174199 
L 106.947484 -60.726183 
L 108.949541 -61.278166 
L 110.951597 -61.83015 
L 112.953654 -62.382133 
L 114.955711 -62.934117 
L 116.957767 -63.4861 
L 118.959824 -64.038084 
L 120.961881 -64.590067 
L 122.963937 -65.142051 
L 124.965994 -65.694034 
L 126.968051 -66.246018 
L 128.970107 -66.798001 
L 130.972164 -67.349985 
L 132.974221 -67.901968 
L 134.976278 -68.453952 
L 136.978334 -69.005935 
L 138.980391 -69.557919 
L 140.982448 -70.109902 
L 142.984504 -70.661886 
L 144.986561 -71.213869 
L 146.988618 -71.765853 
L 148.990674 -72.317836 
L 150.992731 -72.869819 
L 152.994788 -73.421803 
L 154.996844 -73.973786 
L 156.998901 -74.52577 
L 159.000958 -75.077753 
L 161.003014 -75.629737 
L 163.005071 -76.18172 
L 165.007128 -76.733704 
L 167.009184 -77.285687 
L 169.011241 -77.837671 
L 171.013298 -78.389654 
L 173.015354 -78.941638 
L 175.017411 -79.493621 
L 177.019468 -80.045605 
L 179.021524 -80.597588 
L 181.023581 -81.149572 
L 183.025638 -81.701555 
L 185.027694 -82.253539 
L 187.029751 -82.805522 
L 189.031808 -83.357506 
L 191.033864 -83.909489 
L 193.035921 -84.461473 
L 195.037978 -85.013456 
L 197.040034 -85.56544 
L 199.042091 -86.117423 
L 201.044148 -86.669407 
L 203.046204 -87.22139 
L 205.048261 -87.773374 
L 207.050318 -88.325357 
L 209.052374 -88.877341 
L 211.054431 -89.429324 
L 213.056488 -89.981308 
L 215.058545 -90.533291 
L 217.060601 -91.085274 
L 219.062658 -91.637258 
L 221.064715 -92.189241 
L 223.066771 -92.741225 
L 225.068828 -93.293208 
L 227.070885 -93.845192 
L 229.072941 -94.397175 
L 231.074998 -94.949159 
L 233.077055 -95.501142 
L 235.079111 -96.053126 
L 237.081168 -96.605109 
L 239.083225 -97.157093 
L 241.085281 -97.709076 
L 243.087338 -98.26106 
L 245.089395 -98.813043 
L 247.091451 -99.365027 
L 249.093508 -99.91701 
L 251.095565 -100.468994 
L 253.097621 -101.020977 
L 255.099678 -101.572961 
L 257.101735 -102.124944 
L 259.103791 -102.676928 
L 261.105848 -103.228911 
L 263.107905 -103.780895 
L 265.109961 -104.332878 
L 267.112018 -104.884862 
L 269.114075 -105.436845 
L 271.116131 -105.988829 
L 273.118188 -106.540812 
L 275.120245 -107.092796 
L 277.122301 -107.644779 
L 279.124358 -108.196763 
L 281.126415 -108.748746 
L 283.128471 -109.300729 
L 285.130528 -109.852713 
L 287.132585 -110.404696 
L 289.134641 -110.95668 
L 291.136698 -111.508663 
L 293.138755 -112.060647 
L 295.140812 -112.61263 
L 297.142868 -113.164614 
L 299.144925 -113.716597 
L 301.146982 -114.268581 
L 301.146982 -206.233469 
L 301.146982 -206.233469 
L 299.144925 -205.286031 
L 297.142868 -204.338593 
L 295.140812 -203.391155 
L 293.138755 -202.443717 
L 291.136698 -201.496279 
L 289.134641 -200.548841 
L 287.132585 -199.601403 
L 285.130528 -198.653965 
L 283.128471 -197.706527 
L 281.126415 -196.759089 
L 279.124358 -195.811651 
L 277.122301 -194.864212 
L 275.120245 -193.916774 
L 273.118188 -192.969336 
L 271.116131 -192.021898 
L 269.114075 -191.07446 
L 267.112018 -190.127022 
L 265.109961 -189.179584 
L 263.107905 -188.232146 
L 261.105848 -187.284708 
L 259.103791 -186.33727 
L 257.101735 -185.389832 
L 255.099678 -184.442394 
L 253.097621 -183.494955 
L 251.095565 -182.547517 
L 249.093508 -181.600079 
L 247.091451 -180.652641 
L 245.089395 -179.705203 
L 243.087338 -178.757765 
L 241.085281 -177.810327 
L 239.083225 -176.862889 
L 237.081168 -175.915451 
L 235.079111 -174.968013 
L 233.077055 -174.020575 
L 231.074998 -173.073136 
L 229.072941 -172.125698 
L 227.070885 -171.17826 
L 225.068828 -170.230822 
L 223.066771 -169.283384 
L 221.064715 -168.335946 
L 219.062658 -167.388508 
L 217.060601 -166.44107 
L 215.058545 -165.493632 
L 213.056488 -164.546194 
L 211.054431 -163.598756 
L 209.052374 -162.651318 
L 207.050318 -161.703879 
L 205.048261 -160.756441 
L 203.046204 -159.809003 
L 201.044148 -158.861565 
L 199.042091 -157.914127 
L 197.040034 -156.966689 
L 195.037978 -156.019251 
L 193.035921 -155.071813 
L 191.033864 -154.124375 
L 189.031808 -153.176937 
L 187.029751 -152.229499 
L 185.027694 -151.282061 
L 183.025638 -150.334622 
L 181.023581 -149.387184 
L 179.021524 -148.439746 
L 177.019468 -147.492308 
L 175.017411 -146.54487 
L 173.015354 -145.597432 
L 171.013298 -144.649994 
L 169.011241 -143.702556 
L 167.009184 -142.755118 
L 165.007128 -141.80768 
L 163.005071 -140.860242 
L 161.003014 -139.912804 
L 159.000958 -138.965365 
L 156.998901 -138.017927 
L 154.996844 -137.070489 
L 152.994788 -136.123051 
L 150.992731 -135.175613 
L 148.990674 -134.228175 
L 146.988618 -133.280737 
L 144.986561 -132.333299 
L 142.984504 -131.385861 
L 140.982448 -130.438423 
L 138.980391 -129.490985 
L 136.978334 -128.543547 
L 134.976278 -127.596108 
L 132.974221 -126.64867 
L 130.972164 -125.701232 
L 128.970107 -124.753794 
L 126.968051 -123.806356 
L 124.965994 -122.858918 
L 122.963937 -121.91148 
L 120.961881 -120.964042 
L 118.959824 -120.016604 
L 116.957767 -119.069166 
L 114.955711 -118.121728 
L 112.953654 -117.174289 
L 110.951597 -116.226851 
L 108.949541 -115.279413 
L 106.947484 -114.331975 
L 104.945427 -113.384537 
L 102.943371 -112.437099 
L 100.941314 -111.489661 
L 98.939257 -110.542223 
L 96.937201 -109.594785 
L 94.935144 -108.647347 
L 92.933087 -107.699909 
L 90.931031 -106.752471 
L 88.928974 -105.805032 
L 86.926917 -104.857594 
L 84.924861 -103.910156 
L 82.922804 -102.962718 
L 80.920747 -102.01528 
L 78.918691 -101.067842 
L 76.916634 -100.120404 
L 74.914577 -99.172966 
L 72.912521 -98.225528 
L 70.910464 -97.27809 
L 68.908407 -96.330652 
L 66.906351 -95.383214 
L 64.904294 -94.435775 
L 62.902237 -93.488337 
z
"/>
    </defs>
    <g clip-path="url(#p7a22da13aa)">
     <use xlink:href="#m19fc7c6fcc" x="0" y="238.556016" style="fill: #2a78d6; fill-opacity: 0.12"/>
    </g>
   </g>
   <g id="line2d_52">
    <path d="M 62.902237 167.520574 
L 64.904294 166.770863 
L 66.906351 166.021152 
L 68.908407 165.271442 
L 70.910464 164.521731 
L 72.912521 163.77202 
L 74.914577 163.022309 
L 76.916634 162.272598 
L 78.918691 161.522888 
L 80.920747 160.773177 
L 82.922804 160.023466 
L 84.924861 159.273755 
L 86.926917 158.524044 
L 88.928974 157.774334 
L 90.931031 157.024623 
L 92.933087 156.274912 
L 94.935144 155.525201 
L 96.937201 154.775491 
L 98.939257 154.02578 
L 100.941314 153.276069 
L 102.943371 152.526358 
L 104.945427 151.776647 
L 106.947484 151.026937 
L 108.949541 150.277226 
L 110.951597 149.527515 
L 112.953654 148.777804 
L 114.955711 148.028093 
L 116.957767 147.278383 
L 118.959824 146.528672 
L 120.961881 145.778961 
L 122.963937 145.02925 
L 124.965994 144.27954 
L 126.968051 143.529829 
L 128.970107 142.780118 
L 130.972164 142.030407 
L 132.974221 141.280696 
L 134.976278 140.530986 
L 136.978334 139.781275 
L 138.980391 139.031564 
L 140.982448 138.281853 
L 142.984504 137.532142 
L 144.986561 136.782432 
L 146.988618 136.032721 
L 148.990674 135.28301 
L 150.992731 134.533299 
L 152.994788 133.783589 
L 154.996844 133.033878 
L 156.998901 132.284167 
L 159.000958 131.534456 
L 161.003014 130.784745 
L 163.005071 130.035035 
L 165.007128 129.285324 
L 167.009184 128.535613 
L 169.011241 127.785902 
L 171.013298 127.036191 
L 173.015354 126.286481 
L 175.017411 125.53677 
L 177.019468 124.787059 
L 179.021524 124.037348 
L 181.023581 123.287638 
L 183.025638 122.537927 
L 185.027694 121.788216 
L 187.029751 121.038505 
L 189.031808 120.288794 
L 191.033864 119.539084 
L 193.035921 118.789373 
L 195.037978 118.039662 
L 197.040034 117.289951 
L 199.042091 116.54024 
L 201.044148 115.79053 
L 203.046204 115.040819 
L 205.048261 114.291108 
L 207.050318 113.541397 
L 209.052374 112.791687 
L 211.054431 112.041976 
L 213.056488 111.292265 
L 215.058545 110.542554 
L 217.060601 109.792843 
L 219.062658 109.043133 
L 221.064715 108.293422 
L 223.066771 107.543711 
L 225.068828 106.794 
L 227.070885 106.04429 
L 229.072941 105.294579 
L 231.074998 104.544868 
L 233.077055 103.795157 
L 235.079111 103.045446 
L 237.081168 102.295736 
L 239.083225 101.546025 
L 241.085281 100.796314 
L 243.087338 100.046603 
L 245.089395 99.296892 
L 247.091451 98.547182 
L 249.093508 97.797471 
L 251.095565 97.04776 
L 253.097621 96.298049 
L 255.099678 95.548339 
L 257.101735 94.798628 
L 259.103791 94.048917 
L 261.105848 93.299206 
L 263.107905 92.549495 
L 265.109961 91.799785 
L 267.112018 91.050074 
L 269.114075 90.300363 
L 271.116131 89.550652 
L 273.118188 88.800941 
L 275.120245 88.051231 
L 277.122301 87.30152 
L 279.124358 86.551809 
L 281.126415 85.802098 
L 283.128471 85.052388 
L 285.130528 84.302677 
L 287.132585 83.552966 
L 289.134641 82.803255 
L 291.136698 82.053544 
L 293.138755 81.303834 
L 295.140812 80.554123 
L 297.142868 79.804412 
L 299.144925 79.054701 
L 301.146982 78.30499 
" clip-path="url(#p7a22da13aa)" style="fill: none; stroke: #2a78d6; stroke-width: 1.8; stroke-linecap: square"/>
   </g>
   <g id="patch_3">
    <path d="M 50.99 197.856016 
L 50.99 24.44 
" style="fill: none; stroke: #c3c2b7; stroke-width: 0.9; stroke-linejoin: miter; stroke-linecap: square"/>
   </g>
   <g id="patch_4">
    <path d="M 50.99 197.856016 
L 313.059219 197.856016 
" style="fill: none; stroke: #c3c2b7; stroke-width: 0.9; stroke-linejoin: miter; stroke-linecap: square"/>
   </g>
   <g id="PathCollection_1">
    <defs>
     <path id="mc10ec1c1d7" d="M 0 3.24037 
C 0.859356 3.24037 1.683631 2.898944 2.291288 2.291288 
C 2.898944 1.683631 3.24037 0.859356 3.24037 0 
C 3.24037 -0.859356 2.898944 -1.683631 2.291288 -2.291288 
C 1.683631 -2.898944 0.859356 -3.24037 0 -3.24037 
C -0.859356 -3.24037 -1.683631 -2.898944 -2.291288 -2.291288 
C -2.898944 -1.683631 -3.24037 -0.859356 -3.24037 0 
C -3.24037 0.859356 -2.898944 1.683631 -2.291288 2.291288 
C -1.683631 2.898944 -0.859356 3.24037 0 3.24037 
z
" style="stroke: #fcfcfb; stroke-width: 0.8"/>
    </defs>
    <g clip-path="url(#p7a22da13aa)">
     <use xlink:href="#mc10ec1c1d7" x="83.665309" y="156.040175" style="fill: #eb6834; stroke: #fcfcfb; stroke-width: 0.8"/>
     <use xlink:href="#mc10ec1c1d7" x="159.983475" y="136.072024" style="fill: #eb6834; stroke: #fcfcfb; stroke-width: 0.8"/>
     <use xlink:href="#mc10ec1c1d7" x="233.927501" y="106.346047" style="fill: #eb6834; stroke: #fcfcfb; stroke-width: 0.8"/>
     <use xlink:href="#mc10ec1c1d7" x="257.455159" y="95.726996" style="fill: #eb6834; stroke: #fcfcfb; stroke-width: 0.8"/>
     <use xlink:href="#mc10ec1c1d7" x="276.611546" y="82.362465" style="fill: #eb6834; stroke: #fcfcfb; stroke-width: 0.8"/>
    </g>
   </g>
   <g id="text_11">
    <!-- Exhaustive toy round trip, $R^2=0.9798$ -->
    <g style="fill: #0b0b0b" transform="translate(50.99 16.44) scale(0.105 -0.105)">
     <defs>
      <path id="Cambria-8" d="M 3300 4266 
L 3300 3322 
L 2994 3322 
Q 2947 3475 2897 3590 
Q 2847 3706 2794 3784 
Q 2741 3863 2677 3909 
Q 2613 3956 2525 3973 
Q 2438 3991 2316 3991 
L 1328 3991 
L 1328 2353 
L 1997 2353 
Q 2134 2353 2212 2392 
Q 2291 2431 2342 2525 
Q 2394 2619 2441 2819 
L 2734 2819 
L 2734 1619 
L 2441 1619 
Q 2397 1806 2344 1901 
Q 2291 1997 2217 2037 
Q 2144 2078 1997 2078 
L 1328 2078 
L 1328 275 
L 2300 275 
Q 2453 275 2548 301 
Q 2644 328 2712 392 
Q 2781 456 2834 559 
Q 2888 663 2923 773 
Q 2959 884 3022 1097 
L 3331 1097 
L 3272 0 
L 378 0 
L 378 153 
Q 572 203 637 264 
Q 703 325 723 437 
Q 744 550 744 781 
L 744 3484 
Q 744 3700 728 3798 
Q 713 3897 677 3951 
Q 641 4006 581 4039 
Q 522 4072 378 4113 
L 378 4266 
L 3300 4266 
z
" transform="scale(0.015625)"/>
      <path id="Cambria-9a" d="M 1625 1803 
L 2031 2319 
Q 2097 2403 2137 2483 
Q 2178 2563 2178 2647 
Q 2178 2719 2125 2766 
Q 2072 2813 1959 2834 
L 1959 2988 
L 2981 2988 
L 2981 2834 
Q 2863 2800 2739 2700 
Q 2616 2600 2438 2378 
L 1791 1584 
L 2503 625 
Q 2656 419 2778 309 
Q 2900 200 3022 153 
L 3022 0 
L 1766 0 
L 1766 153 
Q 2025 184 2025 347 
Q 2025 413 2003 472 
Q 1981 531 1922 609 
L 1469 1241 
L 988 616 
Q 934 547 904 489 
Q 875 431 875 359 
Q 875 275 933 220 
Q 991 166 1116 153 
L 1116 0 
L 72 0 
L 72 153 
Q 175 191 258 247 
Q 341 303 427 392 
Q 513 481 653 653 
L 1303 1459 
L 638 2372 
Q 500 2559 419 2643 
Q 338 2728 269 2772 
Q 200 2816 131 2834 
L 131 2988 
L 1356 2988 
L 1356 2834 
Q 1109 2797 1109 2641 
Q 1109 2569 1142 2497 
Q 1175 2425 1244 2338 
L 1625 1803 
z
" transform="scale(0.015625)"/>
      <path id="Cambria-98" d="M 1334 2988 
L 1334 2834 
Q 1191 2800 1131 2769 
Q 1072 2738 1042 2688 
Q 1013 2638 1013 2553 
Q 1013 2469 1033 2376 
Q 1053 2284 1097 2163 
L 1641 581 
L 2278 2097 
Q 2341 2247 2366 2344 
Q 2391 2441 2391 2525 
Q 2391 2656 2320 2725 
Q 2250 2794 2063 2834 
L 2063 2988 
L 3231 2988 
L 3231 2834 
Q 3109 2809 3043 2757 
Q 2978 2706 2912 2595 
Q 2847 2484 2756 2284 
L 1703 -31 
L 1334 -31 
L 488 2303 
Q 400 2544 348 2633 
Q 297 2722 236 2765 
Q 175 2809 59 2834 
L 59 2988 
L 1334 2988 
z
" transform="scale(0.015625)"/>
      <path id="Cambria-9b" d="M 1625 -256 
Q 1453 -644 1290 -884 
Q 1128 -1125 933 -1247 
Q 738 -1369 469 -1369 
Q 297 -1369 81 -1328 
L 81 -709 
L 359 -709 
Q 397 -838 453 -888 
Q 509 -938 616 -938 
Q 709 -938 782 -902 
Q 856 -866 936 -778 
Q 1016 -691 1123 -509 
Q 1231 -328 1366 -50 
L 491 2303 
Q 406 2531 354 2622 
Q 303 2713 243 2759 
Q 184 2806 63 2834 
L 63 2988 
L 1334 2988 
L 1334 2834 
Q 1188 2800 1128 2767 
Q 1069 2734 1041 2682 
Q 1013 2631 1013 2550 
Q 1013 2466 1033 2375 
Q 1053 2284 1097 2163 
L 1653 597 
L 2278 2097 
Q 2331 2222 2361 2326 
Q 2391 2431 2391 2522 
Q 2391 2656 2317 2725 
Q 2244 2794 2063 2834 
L 2063 2988 
L 3231 2988 
L 3231 2834 
Q 3109 2809 3043 2757 
Q 2978 2706 2912 2595 
Q 2847 2484 2756 2284 
L 1625 -256 
z
" transform="scale(0.015625)"/>
      <path id="Cambria-1e1" d="M 966 725 
Q 1009 506 1009 294 
Q 1009 75 934 -106 
Q 859 -288 695 -467 
Q 531 -647 244 -863 
L 75 -672 
Q 234 -522 306 -401 
Q 378 -281 409 -128 
Q 441 25 441 256 
Q 441 494 419 725 
L 966 725 
z
" transform="scale(0.015625)"/>
      <path id="Cmmi10-70" d="M 313 0 
Q 250 0 250 84 
Q 253 100 262 139 
Q 272 178 289 201 
Q 306 225 331 225 
Q 722 225 878 269 
Q 959 297 997 441 
L 1875 3956 
Q 1888 4019 1888 4044 
Q 1888 4113 1813 4122 
Q 1691 4147 1350 4147 
Q 1288 4147 1288 4231 
Q 1291 4247 1300 4286 
Q 1309 4325 1326 4348 
Q 1344 4372 1369 4372 
L 3309 4372 
Q 3541 4372 3791 4319 
Q 4041 4266 4250 4152 
Q 4459 4038 4593 3848 
Q 4728 3659 4728 3406 
Q 4728 3084 4515 2831 
Q 4303 2578 3978 2408 
Q 3653 2238 3347 2169 
Q 3597 2078 3756 1879 
Q 3916 1681 3916 1422 
Q 3916 1388 3914 1370 
Q 3913 1353 3909 1331 
L 3859 763 
Q 3853 638 3847 550 
Q 3841 463 3841 409 
Q 3841 234 3892 129 
Q 3944 25 4097 25 
Q 4297 25 4448 211 
Q 4600 397 4647 616 
Q 4675 672 4709 672 
L 4769 672 
Q 4831 672 4831 588 
Q 4784 403 4682 237 
Q 4581 72 4426 -34 
Q 4272 -141 4091 -141 
Q 3716 -141 3452 26 
Q 3188 194 3188 550 
Q 3188 684 3213 788 
L 3353 1356 
Q 3378 1434 3378 1538 
Q 3378 1803 3198 1954 
Q 3019 2106 2747 2106 
L 1959 2106 
L 1538 416 
Q 1522 363 1522 325 
Q 1522 259 1600 250 
Q 1722 225 2059 225 
Q 2125 225 2125 141 
Q 2103 50 2090 25 
Q 2078 0 2016 0 
L 313 0 
z
M 1997 2272 
L 2706 2272 
Q 3403 2272 3756 2625 
Q 3919 2788 4014 3039 
Q 4109 3291 4109 3541 
Q 4109 3778 3970 3912 
Q 3831 4047 3626 4097 
Q 3422 4147 3175 4147 
L 2747 4147 
Q 2572 4147 2515 4117 
Q 2459 4088 2413 3928 
L 1997 2272 
z
" transform="scale(0.015625)"/>
      <path id="Cmr10-31" d="M 319 0 
L 319 172 
Q 319 188 331 206 
L 1325 1306 
Q 1550 1550 1690 1715 
Q 1831 1881 1968 2097 
Q 2106 2313 2186 2536 
Q 2266 2759 2266 3009 
Q 2266 3272 2169 3511 
Q 2072 3750 1880 3894 
Q 1688 4038 1416 4038 
Q 1138 4038 916 3870 
Q 694 3703 603 3438 
Q 628 3444 672 3444 
Q 816 3444 917 3347 
Q 1019 3250 1019 3097 
Q 1019 2950 917 2848 
Q 816 2747 672 2747 
Q 522 2747 420 2851 
Q 319 2956 319 3097 
Q 319 3338 409 3548 
Q 500 3759 670 3923 
Q 841 4088 1055 4175 
Q 1269 4263 1509 4263 
Q 1875 4263 2190 4108 
Q 2506 3953 2690 3670 
Q 2875 3388 2875 3009 
Q 2875 2731 2753 2481 
Q 2631 2231 2440 2026 
Q 2250 1822 1953 1562 
Q 1656 1303 1563 1216 
L 838 519 
L 1453 519 
Q 1906 519 2211 526 
Q 2516 534 2534 550 
Q 2609 631 2688 1141 
L 2875 1141 
L 2694 0 
L 319 0 
z
" transform="scale(0.015625)"/>
      <path id="Cmr10-29" d="M 481 850 
Q 428 850 393 890 
Q 359 931 359 978 
Q 359 1031 393 1068 
Q 428 1106 481 1106 
L 4500 1106 
Q 4547 1106 4581 1068 
Q 4616 1031 4616 978 
Q 4616 931 4581 890 
Q 4547 850 4500 850 
L 481 850 
z
M 481 2094 
Q 428 2094 393 2131 
Q 359 2169 359 2222 
Q 359 2269 393 2309 
Q 428 2350 481 2350 
L 4500 2350 
Q 4547 2350 4581 2309 
Q 4616 2269 4616 2222 
Q 4616 2169 4581 2131 
Q 4547 2094 4500 2094 
L 481 2094 
z
" transform="scale(0.015625)"/>
      <path id="Cmr10-28" d="M 1600 -141 
Q 816 -141 533 504 
Q 250 1150 250 2041 
Q 250 2597 351 3087 
Q 453 3578 754 3920 
Q 1056 4263 1600 4263 
Q 2022 4263 2290 4056 
Q 2559 3850 2700 3523 
Q 2841 3197 2892 2823 
Q 2944 2450 2944 2041 
Q 2944 1491 2842 1011 
Q 2741 531 2444 195 
Q 2147 -141 1600 -141 
z
M 1600 25 
Q 1956 25 2131 390 
Q 2306 756 2347 1200 
Q 2388 1644 2388 2144 
Q 2388 2625 2347 3031 
Q 2306 3438 2132 3767 
Q 1959 4097 1600 4097 
Q 1238 4097 1063 3765 
Q 888 3434 847 3029 
Q 806 2625 806 2144 
Q 806 1788 823 1472 
Q 841 1156 916 820 
Q 991 484 1158 254 
Q 1325 25 1600 25 
z
" transform="scale(0.015625)"/>
      <path id="Cmmi10-33" d="M 538 353 
Q 538 497 644 600 
Q 750 703 891 703 
Q 978 703 1062 656 
Q 1147 609 1194 525 
Q 1241 441 1241 353 
Q 1241 213 1137 106 
Q 1034 0 891 0 
Q 750 0 644 106 
Q 538 213 538 353 
z
" transform="scale(0.015625)"/>
      <path id="Cmr10-16" d="M 722 269 
Q 897 63 1331 63 
Q 1575 63 1786 228 
Q 1997 394 2113 634 
Q 2247 906 2284 1214 
Q 2322 1522 2322 1978 
Q 2213 1719 2008 1553 
Q 1803 1388 1538 1388 
Q 1166 1388 873 1589 
Q 581 1791 425 2120 
Q 269 2450 269 2822 
Q 269 3206 444 3539 
Q 619 3872 928 4067 
Q 1238 4263 1631 4263 
Q 2019 4263 2280 4052 
Q 2541 3841 2678 3508 
Q 2816 3175 2870 2803 
Q 2925 2431 2925 2069 
Q 2925 1575 2744 1061 
Q 2563 547 2202 203 
Q 1841 -141 1331 -141 
Q 953 -141 690 37 
Q 428 216 428 575 
Q 428 706 517 795 
Q 606 884 738 884 
Q 866 884 955 795 
Q 1044 706 1044 575 
Q 1044 450 953 359 
Q 863 269 738 269 
L 722 269 
z
M 1563 1556 
Q 1825 1556 1992 1732 
Q 2159 1909 2234 2171 
Q 2309 2434 2309 2694 
L 2309 2816 
L 2309 2841 
Q 2309 3322 2168 3700 
Q 2028 4078 1631 4078 
Q 1378 4078 1220 3967 
Q 1063 3856 988 3672 
Q 913 3488 892 3278 
Q 872 3069 872 2822 
Q 872 2459 906 2203 
Q 941 1947 1094 1751 
Q 1247 1556 1563 1556 
z
" transform="scale(0.015625)"/>
      <path id="Cmr10-7f" d="M 1113 166 
Q 1113 522 1175 862 
Q 1238 1203 1358 1536 
Q 1478 1869 1648 2189 
Q 1819 2509 2022 2791 
L 2606 3603 
L 1875 3603 
Q 738 3603 703 3572 
Q 619 3469 544 2981 
L 359 2981 
L 569 4325 
L 756 4325 
L 756 4306 
Q 756 4191 1147 4156 
Q 1538 4122 1913 4122 
L 3103 4122 
L 3103 3956 
Q 3103 3950 3101 3947 
Q 3100 3944 3097 3938 
L 2216 2700 
Q 1891 2219 1809 1631 
Q 1728 1044 1728 166 
Q 1728 41 1637 -50 
Q 1547 -141 1422 -141 
Q 1294 -141 1203 -50 
Q 1113 41 1113 166 
z
" transform="scale(0.015625)"/>
      <path id="Cmr10-4d" d="M 269 972 
Q 269 1356 522 1651 
Q 775 1947 1172 2144 
L 934 2297 
Q 716 2441 578 2680 
Q 441 2919 441 3181 
Q 441 3488 602 3734 
Q 763 3981 1030 4122 
Q 1297 4263 1600 4263 
Q 1884 4263 2148 4147 
Q 2413 4031 2583 3815 
Q 2753 3600 2753 3303 
Q 2753 3088 2651 2903 
Q 2550 2719 2373 2572 
Q 2197 2425 1997 2322 
L 2363 2088 
Q 2616 1922 2770 1653 
Q 2925 1384 2925 1088 
Q 2925 741 2739 456 
Q 2553 172 2247 15 
Q 1941 -141 1600 -141 
Q 1269 -141 961 -6 
Q 653 128 461 383 
Q 269 638 269 972 
z
M 616 972 
Q 616 719 755 509 
Q 894 300 1122 181 
Q 1350 63 1600 63 
Q 1972 63 2275 280 
Q 2578 497 2578 856 
Q 2578 978 2529 1098 
Q 2481 1219 2395 1317 
Q 2309 1416 2203 1478 
L 1344 2034 
Q 1144 1928 976 1765 
Q 809 1603 712 1400 
Q 616 1197 616 972 
z
M 1056 2925 
L 1831 2425 
Q 2100 2581 2272 2803 
Q 2444 3025 2444 3303 
Q 2444 3519 2323 3698 
Q 2203 3878 2009 3978 
Q 1816 4078 1594 4078 
Q 1400 4078 1203 4003 
Q 1006 3928 878 3779 
Q 750 3631 750 3431 
Q 750 3131 1056 2925 
z
" transform="scale(0.015625)"/>
     </defs>
     <use xlink:href="#Cambria-8" transform="translate(0 0.084203)"/>
     <use xlink:href="#Cambria-9a" transform="translate(57.519531 0.084203)"/>
     <use xlink:href="#Cambria-8a" transform="translate(105.859375 0.084203)"/>
     <use xlink:href="#Cambria-83" transform="translate(161.035156 0.084203)"/>
     <use xlink:href="#Cambria-97" transform="translate(209.863281 0.084203)"/>
     <use xlink:href="#Cambria-95" transform="translate(265.087891 0.084203)"/>
     <use xlink:href="#Cambria-96" transform="translate(308.056641 0.084203)"/>
     <use xlink:href="#Cambria-8b" transform="translate(341.894531 0.084203)"/>
     <use xlink:href="#Cambria-98" transform="translate(369.677734 0.084203)"/>
     <use xlink:href="#Cambria-87" transform="translate(420.068359 0.084203)"/>
     <use xlink:href="#Cambria-3" transform="translate(468.847656 0.084203)"/>
     <use xlink:href="#Cambria-96" transform="translate(490.869141 0.084203)"/>
     <use xlink:href="#Cambria-91" transform="translate(524.707031 0.084203)"/>
     <use xlink:href="#Cambria-9b" transform="translate(577.783203 0.084203)"/>
     <use xlink:href="#Cambria-3" transform="translate(628.173828 0.084203)"/>
     <use xlink:href="#Cambria-94" transform="translate(650.195312 0.084203)"/>
     <use xlink:href="#Cambria-91" transform="translate(691.552734 0.084203)"/>
     <use xlink:href="#Cambria-97" transform="translate(744.628906 0.084203)"/>
     <use xlink:href="#Cambria-90" transform="translate(799.853516 0.084203)"/>
     <use xlink:href="#Cambria-86" transform="translate(855.664062 0.084203)"/>
     <use xlink:href="#Cambria-3" transform="translate(911.132812 0.084203)"/>
     <use xlink:href="#Cambria-96" transform="translate(933.154297 0.084203)"/>
     <use xlink:href="#Cambria-94" transform="translate(966.992188 0.084203)"/>
     <use xlink:href="#Cambria-8b" transform="translate(1008.349609 0.084203)"/>
     <use xlink:href="#Cambria-92" transform="translate(1036.132812 0.084203)"/>
     <use xlink:href="#Cambria-1e1" transform="translate(1091.748047 0.084203)"/>
     <use xlink:href="#Cambria-3" transform="translate(1112.255859 0.084203)"/>
     <use xlink:href="#Cmmi10-70" transform="translate(1134.277344 0.084203)"/>
     <use xlink:href="#Cmr10-31" transform="translate(1226.482682 41.373437) scale(0.7)"/>
     <use xlink:href="#Cmr10-29" transform="translate(1287.203155 0.084203)"/>
     <use xlink:href="#Cmr10-28" transform="translate(1384.888759 0.084203)"/>
     <use xlink:href="#Cmmi10-33" transform="translate(1434.888759 0.084203)"/>
     <use xlink:href="#Cmr10-16" transform="translate(1462.574306 0.084203)"/>
     <use xlink:href="#Cmr10-7f" transform="translate(1512.574306 0.084203)"/>
     <use xlink:href="#Cmr10-16" transform="translate(1562.574306 0.084203)"/>
     <use xlink:href="#Cmr10-4d" transform="translate(1612.574306 0.084203)"/>
    </g>
   </g>
   <g id="legend_1">
    <g id="line2d_53">
     <path d="M 58.01 35.594 
L 65.81 35.594 
L 73.61 35.594 
" style="fill: none; stroke: #2a78d6; stroke-width: 1.8; stroke-linecap: square"/>
    </g>
    <g id="text_12">
     <!-- fit $T=0.0029\,p^{1.680}$ s -->
     <g transform="translate(79.85 38.324) scale(0.078 -0.078)">
      <defs>
       <path id="Cambria-88" d="M 1909 2672 
L 1163 2672 
L 1163 781 
Q 1163 572 1183 465 
Q 1203 359 1242 304 
Q 1281 250 1345 217 
Q 1409 184 1550 153 
L 1550 0 
L 272 0 
L 272 153 
Q 409 191 468 225 
Q 528 259 561 312 
Q 594 366 609 466 
Q 625 566 625 781 
L 625 2672 
L 247 2672 
L 247 2831 
Q 366 2850 405 2861 
Q 444 2872 480 2894 
Q 516 2916 542 2956 
Q 569 2997 589 3076 
Q 609 3156 622 3300 
Q 650 3641 745 3853 
Q 841 4066 1023 4216 
Q 1206 4366 1414 4427 
Q 1622 4488 1903 4488 
Q 2150 4488 2322 4453 
L 2322 3888 
L 2013 3888 
Q 1953 4072 1873 4148 
Q 1794 4225 1650 4225 
Q 1547 4225 1476 4197 
Q 1406 4169 1347 4109 
Q 1288 4050 1245 3950 
Q 1203 3850 1183 3701 
Q 1163 3553 1163 3316 
L 1163 2988 
L 1909 2988 
L 1909 2672 
z
" transform="scale(0.015625)"/>
       <path id="Cmmi10-78" d="M 294 84 
Q 297 100 308 140 
Q 319 181 336 203 
Q 353 225 384 225 
Q 934 225 1113 256 
Q 1284 300 1319 441 
L 2194 3956 
Q 2222 4034 2222 4097 
Q 2222 4147 1997 4147 
L 1625 4147 
Q 1197 4147 964 4015 
Q 731 3884 622 3668 
Q 513 3453 341 2963 
Q 319 2906 275 2906 
L 219 2906 
Q 153 2906 153 2988 
L 609 4313 
Q 622 4372 672 4372 
L 4453 4372 
Q 4519 4372 4519 4288 
L 4306 2963 
Q 4306 2944 4284 2925 
Q 4263 2906 4244 2906 
L 4184 2906 
Q 4122 2906 4122 2988 
Q 4191 3441 4191 3628 
Q 4191 3853 4097 3968 
Q 4003 4084 3853 4115 
Q 3703 4147 3463 4147 
L 3084 4147 
Q 2913 4147 2853 4115 
Q 2794 4084 2753 3928 
L 1875 416 
Q 1872 403 1870 390 
Q 1869 378 1863 359 
Q 1863 278 1959 256 
Q 2125 225 2669 225 
Q 2731 225 2731 141 
Q 2709 50 2696 25 
Q 2684 0 2625 0 
L 359 0 
Q 294 0 294 84 
z
" transform="scale(0.015625)"/>
       <path id="Cmr10-64" d="M 594 0 
L 594 225 
Q 1394 225 1394 428 
L 1394 3788 
Q 1063 3628 556 3628 
L 556 3853 
Q 1341 3853 1741 4263 
L 1831 4263 
Q 1853 4263 1873 4245 
Q 1894 4228 1894 4206 
L 1894 428 
Q 1894 225 2694 225 
L 2694 0 
L 594 0 
z
" transform="scale(0.015625)"/>
       <path id="Cmr10-45" d="M 1600 -141 
Q 1203 -141 937 70 
Q 672 281 526 617 
Q 381 953 325 1322 
Q 269 1691 269 2069 
Q 269 2575 466 3084 
Q 663 3594 1045 3928 
Q 1428 4263 1953 4263 
Q 2172 4263 2361 4180 
Q 2550 4097 2658 3936 
Q 2766 3775 2766 3547 
Q 2766 3416 2677 3327 
Q 2588 3238 2456 3238 
Q 2331 3238 2240 3328 
Q 2150 3419 2150 3547 
Q 2150 3672 2240 3762 
Q 2331 3853 2456 3853 
L 2491 3853 
Q 2409 3969 2261 4023 
Q 2113 4078 1953 4078 
Q 1759 4078 1595 3993 
Q 1431 3909 1300 3765 
Q 1169 3622 1081 3448 
Q 994 3275 945 3053 
Q 897 2831 884 2637 
Q 872 2444 872 2150 
Q 984 2413 1190 2580 
Q 1397 2747 1656 2747 
Q 1941 2747 2175 2631 
Q 2409 2516 2578 2311 
Q 2747 2106 2836 1843 
Q 2925 1581 2925 1313 
Q 2925 938 2758 598 
Q 2591 259 2287 59 
Q 1984 -141 1600 -141 
z
M 1600 63 
Q 1847 63 1997 175 
Q 2147 288 2217 473 
Q 2288 659 2305 848 
Q 2322 1038 2322 1313 
Q 2322 1675 2287 1931 
Q 2253 2188 2100 2383 
Q 1947 2578 1631 2578 
Q 1372 2578 1205 2403 
Q 1038 2228 961 1961 
Q 884 1694 884 1447 
Q 884 1363 891 1319 
Q 891 1309 889 1303 
Q 888 1297 884 1288 
Q 884 1013 940 731 
Q 997 450 1156 256 
Q 1316 63 1600 63 
z
" transform="scale(0.015625)"/>
      </defs>
      <use xlink:href="#Cambria-88" transform="translate(0 0.084203)"/>
      <use xlink:href="#Cambria-8b" transform="translate(30.273438 0.084203)"/>
      <use xlink:href="#Cambria-96" transform="translate(58.056641 0.084203)"/>
      <use xlink:href="#Cambria-3" transform="translate(91.894531 0.084203)"/>
      <use xlink:href="#Cmmi10-78" transform="translate(113.916016 0.084203)"/>
      <use xlink:href="#Cmr10-29" transform="translate(192.31451 0.084203)"/>
      <use xlink:href="#Cmr10-28" transform="translate(290.000114 0.084203)"/>
      <use xlink:href="#Cmmi10-33" transform="translate(340.000114 0.084203)"/>
      <use xlink:href="#Cmr10-28" transform="translate(367.685661 0.084203)"/>
      <use xlink:href="#Cmr10-28" transform="translate(417.685661 0.084203)"/>
      <use xlink:href="#Cmr10-31" transform="translate(467.685661 0.084203)"/>
      <use xlink:href="#Cmr10-16" transform="translate(517.685661 0.084203)"/>
      <use xlink:href="#Cmmi10-80" transform="translate(584.352709 0.084203)"/>
      <use xlink:href="#Cmr10-64" transform="translate(645.90586 41.373437) scale(0.7)"/>
      <use xlink:href="#Cmmi10-33" transform="translate(680.90586 41.373437) scale(0.7)"/>
      <use xlink:href="#Cmr10-45" transform="translate(700.285742 41.373437) scale(0.7)"/>
      <use xlink:href="#Cmr10-4d" transform="translate(735.285742 41.373437) scale(0.7)"/>
      <use xlink:href="#Cmr10-28" transform="translate(770.285742 41.373437) scale(0.7)"/>
      <use xlink:href="#Cambria-3" transform="translate(811.006158 0.084203)"/>
      <use xlink:href="#Cambria-95" transform="translate(833.027642 0.084203)"/>
     </g>
    </g>
    <g id="patch_5">
     <path d="M 58.01 50.024 
L 73.61 50.024 
L 73.61 44.564 
L 58.01 44.564 
z
" style="fill: #2a78d6; fill-opacity: 0.12"/>
    </g>
    <g id="text_13">
     <!-- exponent 95% CI [1.237, 2.123] -->
     <g transform="translate(79.85 50.024) scale(0.078 -0.078)">
      <defs>
       <path id="Cambria-3a8" d="M 1278 1616 
Q 800 1616 564 1947 
Q 328 2278 328 2944 
Q 328 3406 454 3714 
Q 581 4022 801 4169 
Q 1022 4316 1313 4316 
Q 1584 4316 1768 4219 
Q 1953 4122 2067 3948 
Q 2181 3775 2229 3533 
Q 2278 3291 2278 3000 
Q 2278 2316 2020 1966 
Q 1763 1616 1278 1616 
z
M 791 2997 
Q 791 2391 916 2116 
Q 1041 1841 1313 1841 
Q 1569 1841 1692 2097 
Q 1816 2353 1816 2916 
Q 1816 3516 1692 3803 
Q 1569 4091 1309 4091 
Q 1113 4091 998 3959 
Q 884 3828 837 3589 
Q 791 3350 791 2997 
z
M 4456 4266 
L 1700 -300 
L 1241 -300 
L 4003 4266 
L 4456 4266 
z
M 4366 -350 
Q 3888 -350 3652 -18 
Q 3416 313 3416 978 
Q 3416 1441 3542 1748 
Q 3669 2056 3889 2203 
Q 4109 2350 4400 2350 
Q 4672 2350 4856 2253 
Q 5041 2156 5155 1982 
Q 5269 1809 5317 1567 
Q 5366 1325 5366 1034 
Q 5366 350 5108 0 
Q 4850 -350 4366 -350 
z
M 3878 1031 
Q 3878 425 4003 150 
Q 4128 -125 4400 -125 
Q 4656 -125 4779 131 
Q 4903 388 4903 950 
Q 4903 1550 4779 1837 
Q 4656 2125 4397 2125 
Q 4200 2125 4086 1994 
Q 3972 1863 3925 1623 
Q 3878 1384 3878 1031 
z
" transform="scale(0.015625)"/>
       <path id="Cambria-6" d="M 3256 4175 
L 3256 3309 
L 2947 3309 
Q 2872 3581 2756 3742 
Q 2641 3903 2487 3972 
Q 2334 4041 2119 4041 
Q 1797 4041 1545 3827 
Q 1294 3613 1150 3183 
Q 1006 2753 1006 2144 
Q 1006 1531 1125 1098 
Q 1244 666 1475 445 
Q 1706 225 2044 225 
Q 2300 225 2462 298 
Q 2625 372 2736 531 
Q 2847 691 2947 1000 
L 3256 1000 
L 3256 106 
Q 2963 28 2655 -11 
Q 2347 -50 1978 -50 
Q 1184 -50 778 487 
Q 372 1025 372 2091 
Q 372 2759 583 3262 
Q 794 3766 1203 4041 
Q 1613 4316 2181 4316 
Q 2466 4316 2706 4286 
Q 2947 4256 3256 4175 
z
" transform="scale(0.015625)"/>
       <path id="Cambria-c" d="M 1331 781 
Q 1331 572 1345 475 
Q 1359 378 1392 322 
Q 1425 266 1489 228 
Q 1553 191 1697 153 
L 1697 0 
L 378 0 
L 378 153 
Q 572 203 637 264 
Q 703 325 723 437 
Q 744 550 744 781 
L 744 3484 
Q 744 3700 728 3798 
Q 713 3897 677 3951 
Q 641 4006 581 4039 
Q 522 4072 378 4113 
L 378 4266 
L 1697 4266 
L 1697 4113 
Q 1559 4078 1498 4043 
Q 1438 4009 1402 3957 
Q 1366 3906 1348 3803 
Q 1331 3700 1331 3484 
L 1331 781 
z
" transform="scale(0.015625)"/>
       <path id="Cambria-20f" d="M 2106 -1344 
L 713 -1344 
L 713 4472 
L 2106 4472 
L 2106 4216 
L 1263 4216 
L 1263 -1088 
L 2106 -1088 
L 2106 -1344 
z
" transform="scale(0.015625)"/>
       <path id="Cambria-1e4" d="M 972 725 
L 972 0 
L 341 0 
L 341 725 
L 972 725 
z
" transform="scale(0.015625)"/>
       <path id="Cambria-210" d="M 1528 -1344 
L 134 -1344 
L 134 -1088 
L 978 -1088 
L 978 4216 
L 134 4216 
L 134 4472 
L 1528 4472 
L 1528 -1344 
z
" transform="scale(0.015625)"/>
      </defs>
      <use xlink:href="#Cambria-87"/>
      <use xlink:href="#Cambria-9a" transform="translate(47.609375 0)"/>
      <use xlink:href="#Cambria-92" transform="translate(95.953125 0)"/>
      <use xlink:href="#Cambria-91" transform="translate(151.5625 0)"/>
      <use xlink:href="#Cambria-90" transform="translate(204.640625 0)"/>
      <use xlink:href="#Cambria-87" transform="translate(260.453125 0)"/>
      <use xlink:href="#Cambria-90" transform="translate(309.234375 0)"/>
      <use xlink:href="#Cambria-96" transform="translate(365.046875 0)"/>
      <use xlink:href="#Cambria-3" transform="translate(398.890625 0)"/>
      <use xlink:href="#Cambria-37b" transform="translate(420.90625 0)"/>
      <use xlink:href="#Cambria-377" transform="translate(476.28125 0)"/>
      <use xlink:href="#Cambria-3a8" transform="translate(531.65625 0)"/>
      <use xlink:href="#Cambria-3" transform="translate(620.625 0)"/>
      <use xlink:href="#Cambria-6" transform="translate(642.640625 0)"/>
      <use xlink:href="#Cambria-c" transform="translate(698.890625 0)"/>
      <use xlink:href="#Cambria-3" transform="translate(731.3125 0)"/>
      <use xlink:href="#Cambria-20f" transform="translate(753.328125 0)"/>
      <use xlink:href="#Cambria-373" transform="translate(788.34375 0)"/>
      <use xlink:href="#Cambria-1e4" transform="translate(843.71875 0)"/>
      <use xlink:href="#Cambria-374" transform="translate(864.234375 0)"/>
      <use xlink:href="#Cambria-375" transform="translate(919.609375 0)"/>
      <use xlink:href="#Cambria-379" transform="translate(974.984375 0)"/>
      <use xlink:href="#Cambria-1e1" transform="translate(1030.359375 0)"/>
      <use xlink:href="#Cambria-3" transform="translate(1050.875 0)"/>
      <use xlink:href="#Cambria-374" transform="translate(1072.890625 0)"/>
      <use xlink:href="#Cambria-1e4" transform="translate(1128.265625 0)"/>
      <use xlink:href="#Cambria-373" transform="translate(1148.78125 0)"/>
      <use xlink:href="#Cambria-374" transform="translate(1204.15625 0)"/>
      <use xlink:href="#Cambria-375" transform="translate(1259.53125 0)"/>
      <use xlink:href="#Cambria-210" transform="translate(1314.90625 0)"/>
     </g>
    </g>
    <g id="PathCollection_2">
     <g>
      <use xlink:href="#mc10ec1c1d7" x="65.81" y="59.6765" style="fill: #eb6834; stroke: #fcfcfb; stroke-width: 0.8"/>
     </g>
    </g>
    <g id="text_14">
     <!-- observed (1 trial per $p$) -->
     <g transform="translate(79.85 61.724) scale(0.078 -0.078)">
      <defs>
       <path id="Cambria-84" d="M 1091 2497 
L 1103 2494 
Q 1322 2722 1467 2825 
Q 1613 2928 1767 2983 
Q 1922 3038 2106 3038 
Q 2441 3038 2680 2867 
Q 2919 2697 3048 2356 
Q 3178 2016 3178 1522 
Q 3178 1013 3023 661 
Q 2869 309 2567 129 
Q 2266 -50 1853 -50 
Q 1622 -50 1417 -8 
Q 1213 34 988 141 
L 769 -50 
L 553 0 
L 553 3397 
Q 553 3697 548 3815 
Q 544 3934 523 4017 
Q 503 4100 467 4147 
Q 431 4194 370 4222 
Q 309 4250 150 4278 
L 150 4441 
L 906 4472 
L 1091 4472 
L 1091 2497 
z
M 1091 1125 
Q 1091 884 1112 742 
Q 1134 600 1186 506 
Q 1238 413 1336 334 
Q 1434 256 1556 226 
Q 1678 197 1828 197 
Q 2203 197 2397 503 
Q 2591 809 2591 1422 
Q 2591 2041 2414 2352 
Q 2238 2663 1881 2663 
Q 1703 2663 1578 2608 
Q 1453 2553 1329 2437 
Q 1206 2322 1148 2209 
Q 1091 2097 1091 1953 
L 1091 1125 
z
" transform="scale(0.015625)"/>
       <path id="Cambria-20b" d="M 2309 -1359 
Q 1778 -1359 1442 -1200 
Q 1106 -1041 918 -714 
Q 731 -388 647 134 
Q 563 656 563 1550 
Q 563 2438 645 2964 
Q 728 3491 915 3822 
Q 1103 4153 1440 4318 
Q 1778 4484 2309 4484 
L 2309 4228 
Q 2091 4228 1922 4191 
Q 1731 4147 1597 4022 
Q 1447 3884 1353 3638 
Q 1244 3350 1191 2875 
Q 1134 2372 1134 1575 
Q 1134 872 1181 379 
Q 1228 -113 1338 -425 
Q 1425 -688 1556 -834 
Q 1672 -963 1831 -1028 
Q 2016 -1103 2309 -1103 
L 2309 -1359 
z
" transform="scale(0.015625)"/>
       <path id="Cambria-8e" d="M 1138 781 
Q 1138 513 1163 408 
Q 1188 303 1258 248 
Q 1328 194 1488 153 
L 1488 0 
L 247 0 
L 247 153 
Q 403 194 464 237 
Q 525 281 551 342 
Q 578 403 589 508 
Q 600 613 600 781 
L 600 3397 
Q 600 3697 595 3815 
Q 591 3934 570 4017 
Q 550 4100 514 4147 
Q 478 4194 417 4222 
Q 356 4250 197 4278 
L 197 4441 
L 950 4472 
L 1138 4472 
L 1138 781 
z
" transform="scale(0.015625)"/>
       <path id="Cambria-20c" d="M 134 4484 
Q 666 4484 1002 4325 
Q 1338 4166 1525 3839 
Q 1713 3513 1797 2991 
Q 1881 2469 1881 1575 
Q 1881 688 1798 161 
Q 1716 -366 1528 -697 
Q 1341 -1028 1003 -1193 
Q 666 -1359 134 -1359 
L 134 -1103 
Q 353 -1103 522 -1066 
Q 713 -1022 847 -897 
Q 997 -759 1091 -513 
Q 1200 -225 1253 250 
Q 1309 753 1309 1550 
Q 1309 2253 1262 2745 
Q 1216 3238 1106 3550 
Q 1019 3813 888 3959 
Q 772 4088 613 4153 
Q 428 4228 134 4228 
L 134 4484 
z
" transform="scale(0.015625)"/>
      </defs>
      <use xlink:href="#Cambria-91" transform="translate(0 0.9375)"/>
      <use xlink:href="#Cambria-84" transform="translate(53.076172 0.9375)"/>
      <use xlink:href="#Cambria-95" transform="translate(107.8125 0.9375)"/>
      <use xlink:href="#Cambria-87" transform="translate(150.78125 0.9375)"/>
      <use xlink:href="#Cambria-94" transform="translate(199.560547 0.9375)"/>
      <use xlink:href="#Cambria-98" transform="translate(240.917969 0.9375)"/>
      <use xlink:href="#Cambria-87" transform="translate(291.308594 0.9375)"/>
      <use xlink:href="#Cambria-86" transform="translate(340.087891 0.9375)"/>
      <use xlink:href="#Cambria-3" transform="translate(395.556641 0.9375)"/>
      <use xlink:href="#Cambria-20b" transform="translate(417.578125 0.9375)"/>
      <use xlink:href="#Cambria-373" transform="translate(455.761719 0.9375)"/>
      <use xlink:href="#Cambria-3" transform="translate(511.132812 0.9375)"/>
      <use xlink:href="#Cambria-96" transform="translate(533.154297 0.9375)"/>
      <use xlink:href="#Cambria-94" transform="translate(566.992188 0.9375)"/>
      <use xlink:href="#Cambria-8b" transform="translate(608.349609 0.9375)"/>
      <use xlink:href="#Cambria-83" transform="translate(636.132812 0.9375)"/>
      <use xlink:href="#Cambria-8e" transform="translate(684.960938 0.9375)"/>
      <use xlink:href="#Cambria-3" transform="translate(712.109375 0.9375)"/>
      <use xlink:href="#Cambria-92" transform="translate(734.130859 0.9375)"/>
      <use xlink:href="#Cambria-87" transform="translate(789.746094 0.9375)"/>
      <use xlink:href="#Cambria-94" transform="translate(838.525391 0.9375)"/>
      <use xlink:href="#Cambria-3" transform="translate(879.882812 0.9375)"/>
      <use xlink:href="#Cmmi10-80" transform="translate(901.904297 0.9375)"/>
      <use xlink:href="#Cambria-20c" transform="translate(952.197266 0.9375)"/>
     </g>
    </g>
   </g>
  </g>
  <g id="axes_2">
   <g id="patch_6">
    <path d="M 358.893203 197.856016 
L 533.606016 197.856016 
L 533.606016 24.44 
L 358.893203 24.44 
z
" style="fill: #fcfcfb"/>
   </g>
   <g id="matplotlib.axis_3">
    <g id="xtick_15">
     <g id="line2d_54">
      <path d="M 377.492107 197.856016 
L 377.492107 24.44 
" clip-path="url(#p6ed1c4630f)" style="fill: none; stroke: #e1e0d9; stroke-width: 0.7; stroke-linecap: square"/>
     </g>
     <g id="line2d_55">
      <g>
       <use xlink:href="#m35203f0e55" x="377.492107" y="197.856016" style="fill: #898781; stroke: #898781; stroke-width: 0.8"/>
      </g>
     </g>
     <g id="text_15">
      <!-- 11 -->
      <g style="fill: #52514e" transform="translate(371.677732 213.023252) scale(0.105 -0.105)">
       <use xlink:href="#Cambria-373"/>
       <use xlink:href="#Cambria-373" transform="translate(55.375 0)"/>
      </g>
     </g>
    </g>
    <g id="xtick_16">
     <g id="line2d_56">
      <path d="M 411.870858 197.856016 
L 411.870858 24.44 
" clip-path="url(#p6ed1c4630f)" style="fill: none; stroke: #e1e0d9; stroke-width: 0.7; stroke-linecap: square"/>
     </g>
     <g id="line2d_57">
      <g>
       <use xlink:href="#m35203f0e55" x="411.870858" y="197.856016" style="fill: #898781; stroke: #898781; stroke-width: 0.8"/>
      </g>
     </g>
     <g id="text_16">
      <!-- 23 -->
      <g style="fill: #52514e" transform="translate(406.056483 213.023252) scale(0.105 -0.105)">
       <use xlink:href="#Cambria-374"/>
       <use xlink:href="#Cambria-375" transform="translate(55.375 0)"/>
      </g>
     </g>
    </g>
    <g id="xtick_17">
     <g id="line2d_58">
      <path d="M 446.249609 197.856016 
L 446.249609 24.44 
" clip-path="url(#p6ed1c4630f)" style="fill: none; stroke: #e1e0d9; stroke-width: 0.7; stroke-linecap: square"/>
     </g>
     <g id="line2d_59">
      <g>
       <use xlink:href="#m35203f0e55" x="446.249609" y="197.856016" style="fill: #898781; stroke: #898781; stroke-width: 0.8"/>
      </g>
     </g>
     <g id="text_17">
      <!-- 47 -->
      <g style="fill: #52514e" transform="translate(440.435234 213.023252) scale(0.105 -0.105)">
       <use xlink:href="#Cambria-376"/>
       <use xlink:href="#Cambria-379" transform="translate(55.375 0)"/>
      </g>
     </g>
    </g>
    <g id="xtick_18">
     <g id="line2d_60">
      <path d="M 480.62836 197.856016 
L 480.62836 24.44 
" clip-path="url(#p6ed1c4630f)" style="fill: none; stroke: #e1e0d9; stroke-width: 0.7; stroke-linecap: square"/>
     </g>
     <g id="line2d_61">
      <g>
       <use xlink:href="#m35203f0e55" x="480.62836" y="197.856016" style="fill: #898781; stroke: #898781; stroke-width: 0.8"/>
      </g>
     </g>
     <g id="text_18">
      <!-- 59 -->
      <g style="fill: #52514e" transform="translate(474.813985 213.023252) scale(0.105 -0.105)">
       <use xlink:href="#Cambria-377"/>
       <use xlink:href="#Cambria-37b" transform="translate(55.375 0)"/>
      </g>
     </g>
    </g>
    <g id="xtick_19">
     <g id="line2d_62">
      <path d="M 515.007111 197.856016 
L 515.007111 24.44 
" clip-path="url(#p6ed1c4630f)" style="fill: none; stroke: #e1e0d9; stroke-width: 0.7; stroke-linecap: square"/>
     </g>
     <g id="line2d_63">
      <g>
       <use xlink:href="#m35203f0e55" x="515.007111" y="197.856016" style="fill: #898781; stroke: #898781; stroke-width: 0.8"/>
      </g>
     </g>
     <g id="text_19">
      <!-- 71 -->
      <g style="fill: #52514e" transform="translate(509.192736 213.023252) scale(0.105 -0.105)">
       <use xlink:href="#Cambria-379"/>
       <use xlink:href="#Cambria-373" transform="translate(55.375 0)"/>
      </g>
     </g>
    </g>
    <g id="text_20">
     <!-- characteristic $p$ -->
     <g style="fill: #0b0b0b" transform="translate(406.889609 228.69) scale(0.12 -0.12)">
      <use xlink:href="#Cambria-85" transform="translate(0 0.125)"/>
      <use xlink:href="#Cambria-8a" transform="translate(44.091797 0.125)"/>
      <use xlink:href="#Cambria-83" transform="translate(99.267578 0.125)"/>
      <use xlink:href="#Cambria-94" transform="translate(148.095703 0.125)"/>
      <use xlink:href="#Cambria-83" transform="translate(189.453125 0.125)"/>
      <use xlink:href="#Cambria-85" transform="translate(238.28125 0.125)"/>
      <use xlink:href="#Cambria-96" transform="translate(282.373047 0.125)"/>
      <use xlink:href="#Cambria-87" transform="translate(316.210938 0.125)"/>
      <use xlink:href="#Cambria-94" transform="translate(364.990234 0.125)"/>
      <use xlink:href="#Cambria-8b" transform="translate(406.347656 0.125)"/>
      <use xlink:href="#Cambria-95" transform="translate(434.130859 0.125)"/>
      <use xlink:href="#Cambria-96" transform="translate(477.099609 0.125)"/>
      <use xlink:href="#Cambria-8b" transform="translate(510.9375 0.125)"/>
      <use xlink:href="#Cambria-85" transform="translate(538.720703 0.125)"/>
      <use xlink:href="#Cambria-3" transform="translate(582.8125 0.125)"/>
      <use xlink:href="#Cmmi10-80" transform="translate(604.833984 0.125)"/>
     </g>
    </g>
   </g>
   <g id="matplotlib.axis_4">
    <g id="ytick_30">
     <g id="line2d_64">
      <path d="M 358.893203 185.389659 
L 533.606016 185.389659 
" clip-path="url(#p6ed1c4630f)" style="fill: none; stroke: #e1e0d9; stroke-width: 0.7; stroke-linecap: square"/>
     </g>
     <g id="line2d_65">
      <g>
       <use xlink:href="#m87ae13e70e" x="358.893203" y="185.389659" style="fill: #898781; stroke: #898781; stroke-width: 0.8"/>
      </g>
     </g>
     <g id="text_21">
      <!-- −0.2 -->
      <g style="fill: #52514e" transform="translate(332.295938 189.473277) scale(0.105 -0.105)">
       <use xlink:href="#Cambria-3ab"/>
       <use xlink:href="#Cambria-372" transform="translate(55.375 0)"/>
       <use xlink:href="#Cambria-1e4" transform="translate(110.75 0)"/>
       <use xlink:href="#Cambria-374" transform="translate(131.265625 0)"/>
      </g>
     </g>
    </g>
    <g id="ytick_31">
     <g id="line2d_66">
      <path d="M 358.893203 149.151774 
L 533.606016 149.151774 
" clip-path="url(#p6ed1c4630f)" style="fill: none; stroke: #e1e0d9; stroke-width: 0.7; stroke-linecap: square"/>
     </g>
     <g id="line2d_67">
      <g>
       <use xlink:href="#m87ae13e70e" x="358.893203" y="149.151774" style="fill: #898781; stroke: #898781; stroke-width: 0.8"/>
      </g>
     </g>
     <g id="text_22">
      <!-- −0.1 -->
      <g style="fill: #52514e" transform="translate(332.295938 153.235392) scale(0.105 -0.105)">
       <use xlink:href="#Cambria-3ab"/>
       <use xlink:href="#Cambria-372" transform="translate(55.375 0)"/>
       <use xlink:href="#Cambria-1e4" transform="translate(110.75 0)"/>
       <use xlink:href="#Cambria-373" transform="translate(131.265625 0)"/>
      </g>
     </g>
    </g>
    <g id="ytick_32">
     <g id="line2d_68">
      <path d="M 358.893203 112.913889 
L 533.606016 112.913889 
" clip-path="url(#p6ed1c4630f)" style="fill: none; stroke: #e1e0d9; stroke-width: 0.7; stroke-linecap: square"/>
     </g>
     <g id="line2d_69">
      <g>
       <use xlink:href="#m87ae13e70e" x="358.893203" y="112.913889" style="fill: #898781; stroke: #898781; stroke-width: 0.8"/>
      </g>
     </g>
     <g id="text_23">
      <!-- 0.0 -->
      <g style="fill: #52514e" transform="translate(338.110313 116.997507) scale(0.105 -0.105)">
       <use xlink:href="#Cambria-372"/>
       <use xlink:href="#Cambria-1e4" transform="translate(55.375 0)"/>
       <use xlink:href="#Cambria-372" transform="translate(75.890625 0)"/>
      </g>
     </g>
    </g>
    <g id="ytick_33">
     <g id="line2d_70">
      <path d="M 358.893203 76.676003 
L 533.606016 76.676003 
" clip-path="url(#p6ed1c4630f)" style="fill: none; stroke: #e1e0d9; stroke-width: 0.7; stroke-linecap: square"/>
     </g>
     <g id="line2d_71">
      <g>
       <use xlink:href="#m87ae13e70e" x="358.893203" y="76.676003" style="fill: #898781; stroke: #898781; stroke-width: 0.8"/>
      </g>
     </g>
     <g id="text_24">
      <!-- 0.1 -->
      <g style="fill: #52514e" transform="translate(338.110313 80.759622) scale(0.105 -0.105)">
       <use xlink:href="#Cambria-372"/>
       <use xlink:href="#Cambria-1e4" transform="translate(55.375 0)"/>
       <use xlink:href="#Cambria-373" transform="translate(75.890625 0)"/>
      </g>
     </g>
    </g>
    <g id="ytick_34">
     <g id="line2d_72">
      <path d="M 358.893203 40.438118 
L 533.606016 40.438118 
" clip-path="url(#p6ed1c4630f)" style="fill: none; stroke: #e1e0d9; stroke-width: 0.7; stroke-linecap: square"/>
     </g>
     <g id="line2d_73">
      <g>
       <use xlink:href="#m87ae13e70e" x="358.893203" y="40.438118" style="fill: #898781; stroke: #898781; stroke-width: 0.8"/>
      </g>
     </g>
     <g id="text_25">
      <!-- 0.2 -->
      <g style="fill: #52514e" transform="translate(338.110313 44.521737) scale(0.105 -0.105)">
       <use xlink:href="#Cambria-372"/>
       <use xlink:href="#Cambria-1e4" transform="translate(55.375 0)"/>
       <use xlink:href="#Cambria-374" transform="translate(75.890625 0)"/>
      </g>
     </g>
    </g>
    <g id="text_26">
     <!-- log residual -->
     <g style="fill: #0b0b0b" transform="translate(325.629922 141.013945) rotate(-90) scale(0.12 -0.12)">
      <defs>
       <path id="Cambria-89" d="M 3106 2672 
L 2528 2694 
L 2500 2659 
Q 2597 2563 2653 2395 
Q 2709 2228 2709 2034 
Q 2709 1525 2395 1248 
Q 2081 972 1503 972 
Q 1244 972 1056 1038 
Q 819 856 819 681 
Q 819 566 864 506 
Q 909 447 1014 422 
Q 1119 397 1331 397 
L 2081 397 
Q 2413 397 2622 294 
Q 2831 191 2920 17 
Q 3009 -156 3009 -388 
Q 3009 -681 2840 -911 
Q 2672 -1141 2353 -1269 
Q 2034 -1397 1609 -1397 
Q 1294 -1397 1033 -1359 
Q 772 -1322 586 -1233 
Q 400 -1144 298 -998 
Q 197 -853 197 -634 
Q 197 -438 328 -277 
Q 459 -116 700 6 
Q 553 66 468 181 
Q 384 297 384 453 
Q 384 631 484 779 
Q 584 928 838 1119 
Q 613 1250 495 1475 
Q 378 1700 378 1988 
Q 378 2256 467 2454 
Q 556 2653 714 2783 
Q 872 2913 1087 2977 
Q 1303 3041 1553 3041 
Q 1778 3041 2000 2988 
L 3106 2988 
L 3106 2672 
z
M 938 2038 
Q 938 1647 1097 1434 
Q 1256 1222 1556 1222 
Q 1716 1222 1828 1283 
Q 1941 1344 2011 1450 
Q 2081 1556 2114 1695 
Q 2147 1834 2147 1988 
Q 2147 2263 2069 2447 
Q 1991 2631 1856 2717 
Q 1722 2803 1547 2803 
Q 1250 2803 1094 2606 
Q 938 2409 938 2038 
z
M 1016 -50 
Q 856 -169 776 -301 
Q 697 -434 697 -603 
Q 697 -884 920 -1017 
Q 1144 -1150 1603 -1150 
Q 1884 -1150 2086 -1075 
Q 2288 -1000 2394 -859 
Q 2500 -719 2500 -531 
Q 2500 -444 2478 -361 
Q 2456 -278 2395 -212 
Q 2334 -147 2221 -108 
Q 2109 -69 1928 -69 
L 1463 -69 
Q 1209 -69 1016 -50 
z
" transform="scale(0.015625)"/>
      </defs>
      <use xlink:href="#Cambria-8e"/>
      <use xlink:href="#Cambria-91" transform="translate(27.15625 0)"/>
      <use xlink:href="#Cambria-89" transform="translate(80.234375 0)"/>
      <use xlink:href="#Cambria-3" transform="translate(129.65625 0)"/>
      <use xlink:href="#Cambria-94" transform="translate(151.671875 0)"/>
      <use xlink:href="#Cambria-87" transform="translate(191.5625 0)"/>
      <use xlink:href="#Cambria-95" transform="translate(240.34375 0)"/>
      <use xlink:href="#Cambria-8b" transform="translate(283.3125 0)"/>
      <use xlink:href="#Cambria-86" transform="translate(311.09375 0)"/>
      <use xlink:href="#Cambria-97" transform="translate(366.5625 0)"/>
      <use xlink:href="#Cambria-83" transform="translate(421.78125 0)"/>
      <use xlink:href="#Cambria-8e" transform="translate(470.609375 0)"/>
     </g>
    </g>
   </g>
   <g id="patch_7">
    <path d="M 366.834695 112.913889 
L 388.14952 112.913889 
L 388.14952 54.708775 
L 366.834695 54.708775 
z
" clip-path="url(#p6ed1c4630f)" style="fill: #e87ba4; stroke: #fcfcfb; stroke-width: 0.8; stroke-linejoin: miter"/>
   </g>
   <g id="patch_8">
    <path d="M 401.213446 112.913889 
L 422.528271 112.913889 
L 422.528271 189.973469 
L 401.213446 189.973469 
z
" clip-path="url(#p6ed1c4630f)" style="fill: #e87ba4; stroke: #fcfcfb; stroke-width: 0.8; stroke-linejoin: miter"/>
   </g>
   <g id="patch_9">
    <path d="M 435.592197 112.913889 
L 456.907022 112.913889 
L 456.907022 157.988155 
L 435.592197 157.988155 
z
" clip-path="url(#p6ed1c4630f)" style="fill: #e87ba4; stroke: #fcfcfb; stroke-width: 0.8; stroke-linejoin: miter"/>
   </g>
   <g id="patch_10">
    <path d="M 469.970948 112.913889 
L 491.285773 112.913889 
L 491.285773 129.576498 
L 469.970948 129.576498 
z
" clip-path="url(#p6ed1c4630f)" style="fill: #e87ba4; stroke: #fcfcfb; stroke-width: 0.8; stroke-linejoin: miter"/>
   </g>
   <g id="patch_11">
    <path d="M 504.349699 112.913889 
L 525.664524 112.913889 
L 525.664524 32.322546 
L 504.349699 32.322546 
z
" clip-path="url(#p6ed1c4630f)" style="fill: #e87ba4; stroke: #fcfcfb; stroke-width: 0.8; stroke-linejoin: miter"/>
   </g>
   <g id="line2d_74">
    <path d="M 358.893203 112.913889 
L 533.606016 112.913889 
" clip-path="url(#p6ed1c4630f)" style="fill: none; stroke: #c3c2b7; stroke-width: 0.9; stroke-linecap: square"/>
   </g>
   <g id="patch_12">
    <path d="M 358.893203 197.856016 
L 358.893203 24.44 
" style="fill: none; stroke: #c3c2b7; stroke-width: 0.9; stroke-linejoin: miter; stroke-linecap: square"/>
   </g>
   <g id="patch_13">
    <path d="M 358.893203 197.856016 
L 533.606016 197.856016 
" style="fill: none; stroke: #c3c2b7; stroke-width: 0.9; stroke-linejoin: miter; stroke-linecap: square"/>
   </g>
   <g id="text_27">
    <!-- Stored fit residuals -->
    <g style="fill: #0b0b0b" transform="translate(358.893203 16.44) scale(0.105 -0.105)">
     <defs>
      <path id="Cambria-16" d="M 663 972 
Q 725 697 831 537 
Q 938 378 1106 301 
Q 1275 225 1541 225 
Q 1906 225 2101 415 
Q 2297 606 2297 972 
Q 2297 1206 2215 1365 
Q 2134 1525 1950 1665 
Q 1766 1806 1388 1994 
Q 1022 2175 809 2348 
Q 597 2522 492 2725 
Q 388 2928 388 3169 
Q 388 3519 552 3776 
Q 716 4034 1033 4175 
Q 1350 4316 1759 4316 
Q 1997 4316 2223 4291 
Q 2450 4266 2791 4178 
L 2791 3334 
L 2481 3334 
Q 2409 3609 2300 3762 
Q 2191 3916 2044 3977 
Q 1897 4038 1663 4038 
Q 1459 4038 1298 3963 
Q 1138 3888 1044 3736 
Q 950 3584 950 3375 
Q 950 3153 1029 3000 
Q 1109 2847 1278 2715 
Q 1447 2584 1778 2422 
Q 2178 2222 2398 2050 
Q 2619 1878 2742 1658 
Q 2866 1438 2866 1144 
Q 2866 816 2762 589 
Q 2659 363 2476 220 
Q 2294 78 2039 14 
Q 1784 -50 1481 -50 
Q 991 -50 350 116 
L 350 972 
L 663 972 
z
" transform="scale(0.015625)"/>
      <path id="Cambria-3d0" d="M 1909 2672 
L 1163 2672 
L 1163 781 
Q 1163 572 1183 465 
Q 1203 359 1242 304 
Q 1281 250 1345 217 
Q 1409 184 1550 153 
L 1550 0 
L 272 0 
L 272 153 
Q 409 191 468 225 
Q 528 259 561 312 
Q 594 366 609 466 
Q 625 566 625 781 
L 625 2672 
L 247 2672 
L 247 2831 
Q 416 2850 483 2898 
Q 550 2947 581 3040 
Q 613 3134 622 3300 
Q 644 3684 798 3953 
Q 953 4222 1212 4355 
Q 1472 4488 1816 4488 
Q 1994 4488 2153 4459 
L 2153 3888 
L 1897 3888 
Q 1863 4059 1795 4136 
Q 1728 4213 1603 4213 
Q 1488 4213 1405 4159 
Q 1322 4106 1264 3992 
Q 1206 3878 1184 3697 
Q 1163 3516 1163 3263 
L 1163 2988 
L 1909 2988 
L 1909 2672 
z
" transform="scale(0.015625)"/>
     </defs>
     <use xlink:href="#Cambria-16"/>
     <use xlink:href="#Cambria-96" transform="translate(49.609375 0)"/>
     <use xlink:href="#Cambria-91" transform="translate(82.578125 0)"/>
     <use xlink:href="#Cambria-94" transform="translate(135.65625 0)"/>
     <use xlink:href="#Cambria-87" transform="translate(175.546875 0)"/>
     <use xlink:href="#Cambria-86" transform="translate(224.328125 0)"/>
     <use xlink:href="#Cambria-3" transform="translate(279.796875 0)"/>
     <use xlink:href="#Cambria-3d0" transform="translate(301.8125 0)"/>
     <use xlink:href="#Cambria-8b" transform="translate(332.09375 0)"/>
     <use xlink:href="#Cambria-96" transform="translate(359.875 0)"/>
     <use xlink:href="#Cambria-3" transform="translate(393.71875 0)"/>
     <use xlink:href="#Cambria-94" transform="translate(415.734375 0)"/>
     <use xlink:href="#Cambria-87" transform="translate(455.625 0)"/>
     <use xlink:href="#Cambria-95" transform="translate(504.40625 0)"/>
     <use xlink:href="#Cambria-8b" transform="translate(547.375 0)"/>
     <use xlink:href="#Cambria-86" transform="translate(575.15625 0)"/>
     <use xlink:href="#Cambria-97" transform="translate(630.625 0)"/>
     <use xlink:href="#Cambria-83" transform="translate(685.84375 0)"/>
     <use xlink:href="#Cambria-8e" transform="translate(734.671875 0)"/>
     <use xlink:href="#Cambria-95" transform="translate(761.828125 0)"/>
    </g>
   </g>
  </g>
 </g>
 <defs>
  <clipPath id="p7a22da13aa">
   <rect x="50.99" y="24.44" width="262.069219" height="173.416016"/>
  </clipPath>
  <clipPath id="p6ed1c4630f">
   <rect x="358.893203" y="24.44" width="174.712812" height="173.416016"/>
  </clipPath>
 </defs>
</svg>
