<?xml version="1.0" encoding="utf-8" standalone="no"?>
<!DOCTYPE svg PUBLIC "-//W3C//DTD SVG 1.1//EN"
  "http://www.w3.org/Graphics/SVG/1.1/DTD/svg11.dtd">
<svg xmlns:xlink="http://www.w3.org/1999/xlink" width="411.494766pt" height="245.966016pt" viewBox="0 0 411.494766 245.966016" xmlns="http://www.w3.org/2000/svg" version="1.1">
 <metadata>
  <rdf:RDF xmlns:dc="http://purl.org/dc/elements/1.1/" xmlns:cc="http://creativecommons.org/ns#" xmlns:rdf="http://www.w3.org/1999/02/22-rdf-syntax-ns#">
   <cc:Work>
    <dc:type rdf:resource="http://purl.org/dc/dcmitype/StillImage"/>
    <dc:date>2026-07-23T00:56:54.407252</dc:date>
    <dc:format>image/svg+xml</dc:format>
    <dc:creator>
     <cc:Agent>
      <dc:title>Matplotlib v3.11.1, https://matplotlib.org/</dc:title>
     </cc:Agent>
    </dc:creator>
   </cc:Work>
  </rdf:RDF>
 </metadata>
 <defs>
  <style type="text/css">*{stroke-linejoin: round; stroke-linecap: butt}</style>
 </defs>
 <g id="figure_1">
  <g id="patch_1">
   <path d="M 0 245.966016 
L 411.494766 245.966016 
L 411.494766 0 
L 0 0 
z
" style="fill: #fcfcfb"/>
  </g>
  <g id="axes_1">
   <g id="patch_2">
    <path d="M 41.82875 205.266016 
L 404.294766 205.266016 
L 404.294766 25.311816 
L 41.82875 25.311816 
z
" style="fill: #fcfcfb"/>
   </g>
   <g id="matplotlib.axis_1">
    <g id="xtick_1">
     <g id="line2d_1">
      <path d="M 75.64735 205.266016 
L 75.64735 25.311816 
" clip-path="url(#p5293e48c54)" style="fill: none; stroke: #e1e0d9; stroke-width: 0.7; stroke-linecap: square"/>
     </g>
     <g id="line2d_2">
      <defs>
       <path id="mb249f92c6e" d="M 0 0 
L 0 3.5 
" style="stroke: #898781; stroke-width: 0.8"/>
      </defs>
      <g>
       <use xlink:href="#mb249f92c6e" x="75.64735" y="205.266016" style="fill: #898781; stroke: #898781; stroke-width: 0.8"/>
      </g>
     </g>
     <g id="text_1">
      <!-- 5 -->
      <g style="fill: #52514e" transform="translate(72.740162 220.433252) scale(0.105 -0.105)">
       <defs>
        <path id="Cambria-377" d="M 469 172 
L 469 834 
L 847 834 
Q 941 516 1130 366 
Q 1319 216 1619 216 
Q 2034 216 2246 466 
Q 2459 716 2459 1213 
Q 2459 1544 2346 1761 
Q 2234 1978 2043 2075 
Q 1853 2172 1600 2172 
Q 1388 2172 1234 2145 
Q 1081 2119 906 2063 
L 656 2209 
L 656 4266 
L 2378 4266 
Q 2484 4266 2531 4283 
Q 2578 4300 2606 4336 
Q 2634 4372 2672 4472 
L 2916 4472 
L 2869 3747 
L 1072 3747 
L 1072 2375 
Q 1234 2444 1425 2478 
Q 1616 2513 1806 2513 
Q 2178 2513 2465 2361 
Q 2753 2209 2909 1929 
Q 3066 1650 3066 1281 
Q 3066 863 2891 563 
Q 2716 263 2384 106 
Q 2053 -50 1600 -50 
Q 1059 -50 469 172 
z
" transform="scale(0.015625)"/>
       </defs>
       <use xlink:href="#Cambria-377"/>
      </g>
     </g>
    </g>
    <g id="xtick_2">
     <g id="line2d_3">
      <path d="M 119.004528 205.266016 
L 119.004528 25.311816 
" clip-path="url(#p5293e48c54)" style="fill: none; stroke: #e1e0d9; stroke-width: 0.7; stroke-linecap: square"/>
     </g>
     <g id="line2d_4">
      <g>
       <use xlink:href="#mb249f92c6e" x="119.004528" y="205.266016" style="fill: #898781; stroke: #898781; stroke-width: 0.8"/>
      </g>
     </g>
     <g id="text_2">
      <!-- 10 -->
      <g style="fill: #52514e" transform="translate(113.190153 220.433252) scale(0.105 -0.105)">
       <defs>
        <path id="Cambria-373" d="M 2172 816 
Q 2172 634 2192 542 
Q 2213 450 2264 392 
Q 2316 334 2412 301 
Q 2509 269 2656 251 
Q 2803 234 3044 228 
L 3044 0 
L 734 0 
L 734 228 
Q 1081 244 1229 270 
Q 1378 297 1456 350 
Q 1534 403 1570 500 
Q 1606 597 1606 816 
L 1606 3350 
Q 1606 3475 1562 3533 
Q 1519 3591 1434 3591 
Q 1334 3591 1150 3487 
Q 966 3384 694 3203 
L 556 3444 
L 2019 4316 
L 2191 4316 
Q 2172 4016 2172 3484 
L 2172 816 
z
" transform="scale(0.015625)"/>
        <path id="Cambria-372" d="M 1738 -50 
Q 1063 -50 733 481 
Q 403 1013 403 2094 
Q 403 2669 504 3087 
Q 606 3506 789 3779 
Q 972 4053 1228 4184 
Q 1484 4316 1788 4316 
Q 2472 4316 2806 3787 
Q 3141 3259 3141 2191 
Q 3141 1084 2783 517 
Q 2425 -50 1738 -50 
z
M 1013 2188 
Q 1013 1169 1202 692 
Q 1391 216 1788 216 
Q 2166 216 2348 664 
Q 2531 1113 2531 2053 
Q 2531 2772 2437 3217 
Q 2344 3663 2176 3856 
Q 2009 4050 1772 4050 
Q 1556 4050 1411 3922 
Q 1266 3794 1177 3553 
Q 1088 3313 1050 2967 
Q 1013 2622 1013 2188 
z
" transform="scale(0.015625)"/>
       </defs>
       <use xlink:href="#Cambria-373"/>
       <use xlink:href="#Cambria-372" transform="translate(55.375 0)"/>
      </g>
     </g>
    </g>
    <g id="xtick_3">
     <g id="line2d_5">
      <path d="M 162.361707 205.266016 
L 162.361707 25.311816 
" clip-path="url(#p5293e48c54)" style="fill: none; stroke: #e1e0d9; stroke-width: 0.7; stroke-linecap: square"/>
     </g>
     <g id="line2d_6">
      <g>
       <use xlink:href="#mb249f92c6e" x="162.361707" y="205.266016" style="fill: #898781; stroke: #898781; stroke-width: 0.8"/>
      </g>
     </g>
     <g id="text_3">
      <!-- 15 -->
      <g style="fill: #52514e" transform="translate(156.547332 220.433252) scale(0.105 -0.105)">
       <use xlink:href="#Cambria-373"/>
       <use xlink:href="#Cambria-377" transform="translate(55.375 0)"/>
      </g>
     </g>
    </g>
    <g id="xtick_4">
     <g id="line2d_7">
      <path d="M 205.718886 205.266016 
L 205.718886 25.311816 
" clip-path="url(#p5293e48c54)" style="fill: none; stroke: #e1e0d9; stroke-width: 0.7; stroke-linecap: square"/>
     </g>
     <g id="line2d_8">
      <g>
       <use xlink:href="#mb249f92c6e" x="205.718886" y="205.266016" style="fill: #898781; stroke: #898781; stroke-width: 0.8"/>
      </g>
     </g>
     <g id="text_4">
      <!-- 20 -->
      <g style="fill: #52514e" transform="translate(199.904511 220.433252) scale(0.105 -0.105)">
       <defs>
        <path id="Cambria-374" d="M 2194 500 
Q 2347 500 2440 519 
Q 2534 538 2590 581 
Q 2647 625 2680 695 
Q 2713 766 2763 913 
L 3028 913 
L 2975 0 
L 403 0 
L 403 150 
Q 538 478 766 822 
Q 994 1166 1413 1631 
Q 1775 2031 1934 2238 
Q 2109 2463 2195 2627 
Q 2281 2791 2318 2936 
Q 2356 3081 2356 3228 
Q 2356 3463 2281 3642 
Q 2206 3822 2051 3925 
Q 1897 4028 1663 4028 
Q 1078 4028 875 3378 
L 497 3378 
L 497 3978 
Q 875 4156 1204 4236 
Q 1534 4316 1797 4316 
Q 2378 4316 2675 4061 
Q 2972 3806 2972 3322 
Q 2972 3156 2939 3017 
Q 2906 2878 2836 2742 
Q 2766 2606 2647 2450 
Q 2528 2294 2384 2133 
Q 2241 1972 1888 1597 
Q 1294 969 1016 500 
L 2194 500 
z
" transform="scale(0.015625)"/>
       </defs>
       <use xlink:href="#Cambria-374"/>
       <use xlink:href="#Cambria-372" transform="translate(55.375 0)"/>
      </g>
     </g>
    </g>
    <g id="xtick_5">
     <g id="line2d_9">
      <path d="M 249.076065 205.266016 
L 249.076065 25.311816 
" clip-path="url(#p5293e48c54)" style="fill: none; stroke: #e1e0d9; stroke-width: 0.7; stroke-linecap: square"/>
     </g>
     <g id="line2d_10">
      <g>
       <use xlink:href="#mb249f92c6e" x="249.076065" y="205.266016" style="fill: #898781; stroke: #898781; stroke-width: 0.8"/>
      </g>
     </g>
     <g id="text_5">
      <!-- 25 -->
      <g style="fill: #52514e" transform="translate(243.26169 220.433252) scale(0.105 -0.105)">
       <use xlink:href="#Cambria-374"/>
       <use xlink:href="#Cambria-377" transform="translate(55.375 0)"/>
      </g>
     </g>
    </g>
    <g id="xtick_6">
     <g id="line2d_11">
      <path d="M 292.433244 205.266016 
L 292.433244 25.311816 
" clip-path="url(#p5293e48c54)" style="fill: none; stroke: #e1e0d9; stroke-width: 0.7; stroke-linecap: square"/>
     </g>
     <g id="line2d_12">
      <g>
       <use xlink:href="#mb249f92c6e" x="292.433244" y="205.266016" style="fill: #898781; stroke: #898781; stroke-width: 0.8"/>
      </g>
     </g>
     <g id="text_6">
      <!-- 30 -->
      <g style="fill: #52514e" transform="translate(286.618869 220.433252) scale(0.105 -0.105)">
       <defs>
        <path id="Cambria-375" d="M 497 3381 
L 497 3975 
Q 859 4147 1175 4231 
Q 1491 4316 1784 4316 
Q 2138 4316 2403 4206 
Q 2669 4097 2809 3892 
Q 2950 3688 2950 3403 
Q 2950 3138 2844 2936 
Q 2738 2734 2545 2584 
Q 2353 2434 2047 2291 
L 2047 2263 
Q 2238 2228 2414 2145 
Q 2591 2063 2728 1931 
Q 2866 1800 2948 1617 
Q 3031 1434 3031 1200 
Q 3031 838 2873 556 
Q 2716 275 2391 112 
Q 2066 -50 1600 -50 
Q 1331 -50 1020 11 
Q 709 72 450 172 
L 450 834 
L 825 834 
Q 934 509 1114 362 
Q 1294 216 1603 216 
Q 2009 216 2217 437 
Q 2425 659 2425 1094 
Q 2425 1550 2150 1790 
Q 1875 2031 1344 2031 
L 1063 2031 
L 1063 2306 
Q 1484 2331 1773 2468 
Q 2063 2606 2203 2822 
Q 2344 3038 2344 3306 
Q 2344 3653 2159 3840 
Q 1975 4028 1622 4028 
Q 1328 4028 1143 3868 
Q 959 3709 872 3381 
L 497 3381 
z
" transform="scale(0.015625)"/>
       </defs>
       <use xlink:href="#Cambria-375"/>
       <use xlink:href="#Cambria-372" transform="translate(55.375 0)"/>
      </g>
     </g>
    </g>
    <g id="xtick_7">
     <g id="line2d_13">
      <path d="M 335.790423 205.266016 
L 335.790423 25.311816 
" clip-path="url(#p5293e48c54)" style="fill: none; stroke: #e1e0d9; stroke-width: 0.7; stroke-linecap: square"/>
     </g>
     <g id="line2d_14">
      <g>
       <use xlink:href="#mb249f92c6e" x="335.790423" y="205.266016" style="fill: #898781; stroke: #898781; stroke-width: 0.8"/>
      </g>
     </g>
     <g id="text_7">
      <!-- 35 -->
      <g style="fill: #52514e" transform="translate(329.976048 220.433252) scale(0.105 -0.105)">
       <use xlink:href="#Cambria-375"/>
       <use xlink:href="#Cambria-377" transform="translate(55.375 0)"/>
      </g>
     </g>
    </g>
    <g id="xtick_8">
     <g id="line2d_15">
      <path d="M 379.147602 205.266016 
L 379.147602 25.311816 
" clip-path="url(#p5293e48c54)" style="fill: none; stroke: #e1e0d9; stroke-width: 0.7; stroke-linecap: square"/>
     </g>
     <g id="line2d_16">
      <g>
       <use xlink:href="#mb249f92c6e" x="379.147602" y="205.266016" style="fill: #898781; stroke: #898781; stroke-width: 0.8"/>
      </g>
     </g>
     <g id="text_8">
      <!-- 40 -->
      <g style="fill: #52514e" transform="translate(373.333227 220.433252) scale(0.105 -0.105)">
       <defs>
        <path id="Cambria-376" d="M 1613 153 
Q 1806 203 1872 264 
Q 1938 325 1958 437 
Q 1978 550 1978 781 
L 1978 1294 
L 241 1294 
L 241 1528 
L 2069 4288 
L 2516 4288 
L 2516 1597 
L 2581 1597 
Q 2763 1597 2841 1623 
Q 2919 1650 2970 1717 
Q 3022 1784 3066 1938 
L 3303 1938 
L 3266 1294 
L 2516 1294 
L 2516 781 
Q 2516 572 2530 475 
Q 2544 378 2576 322 
Q 2609 266 2673 228 
Q 2738 191 2881 153 
L 2881 0 
L 1613 0 
L 1613 153 
z
M 756 1597 
L 1978 1597 
L 1978 2375 
Q 1978 2669 1987 3033 
Q 1997 3397 2009 3581 
L 1978 3581 
L 756 1641 
L 756 1597 
z
" transform="scale(0.015625)"/>
       </defs>
       <use xlink:href="#Cambria-376"/>
       <use xlink:href="#Cambria-372" transform="translate(55.375 0)"/>
      </g>
     </g>
    </g>
    <g id="text_9">
     <!-- odd subgroup order $r$ -->
     <g style="fill: #0b0b0b" transform="translate(167.681758 236.1) scale(0.12 -0.12)">
      <defs>
       <path id="Cambria-91" d="M 1663 -50 
Q 1013 -50 670 333 
Q 328 716 328 1466 
Q 328 1981 508 2337 
Q 688 2694 1000 2867 
Q 1313 3041 1713 3041 
Q 2381 3041 2725 2652 
Q 3069 2263 3069 1534 
Q 3069 1016 2897 659 
Q 2725 303 2409 126 
Q 2094 -50 1663 -50 
z
M 919 1531 
Q 919 888 1123 542 
Q 1328 197 1709 197 
Q 1919 197 2066 298 
Q 2213 400 2305 572 
Q 2397 744 2437 970 
Q 2478 1197 2478 1444 
Q 2478 1903 2376 2206 
Q 2275 2509 2100 2651 
Q 1925 2794 1700 2794 
Q 1322 2794 1120 2466 
Q 919 2138 919 1531 
z
" transform="scale(0.015625)"/>
       <path id="Cambria-86" d="M 2413 3397 
Q 2413 3697 2408 3815 
Q 2403 3934 2383 4017 
Q 2363 4100 2327 4147 
Q 2291 4194 2230 4222 
Q 2169 4250 2009 4278 
L 2009 4441 
L 2766 4472 
L 2950 4472 
L 2950 853 
Q 2950 609 2959 504 
Q 2969 400 3000 337 
Q 3031 275 3098 236 
Q 3166 197 3334 163 
L 3334 0 
L 2597 -31 
L 2409 -31 
L 2447 481 
L 2400 494 
Q 2203 284 2058 179 
Q 1913 75 1748 12 
Q 1584 -50 1397 -50 
Q 884 -50 606 339 
Q 328 728 328 1463 
Q 328 1975 509 2333 
Q 691 2691 998 2866 
Q 1306 3041 1691 3041 
Q 1897 3041 2065 3008 
Q 2234 2975 2413 2900 
L 2413 3397 
z
M 2413 1853 
Q 2413 2097 2391 2244 
Q 2369 2391 2317 2491 
Q 2266 2591 2178 2659 
Q 2091 2728 1986 2759 
Q 1881 2791 1734 2791 
Q 1334 2791 1125 2470 
Q 916 2150 916 1550 
Q 916 950 1087 637 
Q 1259 325 1609 325 
Q 1747 325 1837 348 
Q 1928 372 2015 423 
Q 2103 475 2193 565 
Q 2284 656 2326 731 
Q 2369 806 2391 903 
Q 2413 1000 2413 1153 
L 2413 1853 
z
" transform="scale(0.015625)"/>
       <path id="Cambria-3" transform="scale(0.015625)"/>
       <path id="Cambria-95" d="M 2397 2303 
L 2097 2303 
Q 2028 2491 1934 2598 
Q 1841 2706 1722 2750 
Q 1603 2794 1431 2794 
Q 1181 2794 1032 2676 
Q 884 2559 884 2356 
Q 884 2213 943 2119 
Q 1003 2025 1128 1944 
Q 1253 1863 1569 1728 
Q 1888 1591 2061 1475 
Q 2234 1359 2332 1206 
Q 2431 1053 2431 841 
Q 2431 594 2347 425 
Q 2263 256 2109 150 
Q 1956 44 1745 -3 
Q 1534 -50 1284 -50 
Q 1022 -50 775 -11 
Q 528 28 294 91 
L 294 744 
L 600 744 
Q 684 456 850 326 
Q 1016 197 1306 197 
Q 1419 197 1526 220 
Q 1634 244 1718 298 
Q 1803 353 1853 447 
Q 1903 541 1903 681 
Q 1903 841 1840 941 
Q 1778 1041 1647 1123 
Q 1516 1206 1184 1347 
Q 900 1466 728 1578 
Q 556 1691 457 1844 
Q 359 1997 359 2206 
Q 359 2463 498 2652 
Q 638 2841 900 2941 
Q 1163 3041 1516 3041 
Q 1722 3041 1914 3020 
Q 2106 3000 2397 2941 
L 2397 2303 
z
" transform="scale(0.015625)"/>
       <path id="Cambria-97" d="M 228 2988 
L 1119 2988 
L 1119 1397 
Q 1119 1031 1147 840 
Q 1175 650 1231 553 
Q 1288 456 1391 390 
Q 1494 325 1675 325 
Q 1794 325 1903 372 
Q 2013 419 2147 536 
Q 2281 653 2339 768 
Q 2397 884 2397 1038 
L 2397 2209 
Q 2397 2388 2387 2478 
Q 2378 2569 2356 2623 
Q 2334 2678 2304 2712 
Q 2275 2747 2220 2775 
Q 2166 2803 2044 2834 
L 2044 2988 
L 2934 2988 
L 2934 853 
Q 2934 613 2943 506 
Q 2953 400 2984 337 
Q 3016 275 3081 236 
Q 3147 197 3316 163 
L 3316 0 
L 2600 -31 
L 2409 -31 
L 2428 481 
L 2381 494 
Q 2122 213 1886 81 
Q 1650 -50 1413 -50 
Q 1128 -50 943 62 
Q 759 175 668 398 
Q 578 622 578 1028 
L 578 2209 
Q 578 2472 558 2570 
Q 538 2669 480 2726 
Q 422 2784 228 2834 
L 228 2988 
z
" transform="scale(0.015625)"/>
       <path id="Cambria-84" d="M 1091 2497 
L 1103 2494 
Q 1322 2722 1467 2825 
Q 1613 2928 1767 2983 
Q 1922 3038 2106 3038 
Q 2441 3038 2680 2867 
Q 2919 2697 3048 2356 
Q 3178 2016 3178 1522 
Q 3178 1013 3023 661 
Q 2869 309 2567 129 
Q 2266 -50 1853 -50 
Q 1622 -50 1417 -8 
Q 1213 34 988 141 
L 769 -50 
L 553 0 
L 553 3397 
Q 553 3697 548 3815 
Q 544 3934 523 4017 
Q 503 4100 467 4147 
Q 431 4194 370 4222 
Q 309 4250 150 4278 
L 150 4441 
L 906 4472 
L 1091 4472 
L 1091 2497 
z
M 1091 1125 
Q 1091 884 1112 742 
Q 1134 600 1186 506 
Q 1238 413 1336 334 
Q 1434 256 1556 226 
Q 1678 197 1828 197 
Q 2203 197 2397 503 
Q 2591 809 2591 1422 
Q 2591 2041 2414 2352 
Q 2238 2663 1881 2663 
Q 1703 2663 1578 2608 
Q 1453 2553 1329 2437 
Q 1206 2322 1148 2209 
Q 1091 2097 1091 1953 
L 1091 1125 
z
" transform="scale(0.015625)"/>
       <path id="Cambria-89" d="M 3106 2672 
L 2528 2694 
L 2500 2659 
Q 2597 2563 2653 2395 
Q 2709 2228 2709 2034 
Q 2709 1525 2395 1248 
Q 2081 972 1503 972 
Q 1244 972 1056 1038 
Q 819 856 819 681 
Q 819 566 864 506 
Q 909 447 1014 422 
Q 1119 397 1331 397 
L 2081 397 
Q 2413 397 2622 294 
Q 2831 191 2920 17 
Q 3009 -156 3009 -388 
Q 3009 -681 2840 -911 
Q 2672 -1141 2353 -1269 
Q 2034 -1397 1609 -1397 
Q 1294 -1397 1033 -1359 
Q 772 -1322 586 -1233 
Q 400 -1144 298 -998 
Q 197 -853 197 -634 
Q 197 -438 328 -277 
Q 459 -116 700 6 
Q 553 66 468 181 
Q 384 297 384 453 
Q 384 631 484 779 
Q 584 928 838 1119 
Q 613 1250 495 1475 
Q 378 1700 378 1988 
Q 378 2256 467 2454 
Q 556 2653 714 2783 
Q 872 2913 1087 2977 
Q 1303 3041 1553 3041 
Q 1778 3041 2000 2988 
L 3106 2988 
L 3106 2672 
z
M 938 2038 
Q 938 1647 1097 1434 
Q 1256 1222 1556 1222 
Q 1716 1222 1828 1283 
Q 1941 1344 2011 1450 
Q 2081 1556 2114 1695 
Q 2147 1834 2147 1988 
Q 2147 2263 2069 2447 
Q 1991 2631 1856 2717 
Q 1722 2803 1547 2803 
Q 1250 2803 1094 2606 
Q 938 2409 938 2038 
z
M 1016 -50 
Q 856 -169 776 -301 
Q 697 -434 697 -603 
Q 697 -884 920 -1017 
Q 1144 -1150 1603 -1150 
Q 1884 -1150 2086 -1075 
Q 2288 -1000 2394 -859 
Q 2500 -719 2500 -531 
Q 2500 -444 2478 -361 
Q 2456 -278 2395 -212 
Q 2334 -147 2221 -108 
Q 2109 -69 1928 -69 
L 1463 -69 
Q 1209 -69 1016 -50 
z
" transform="scale(0.015625)"/>
       <path id="Cambria-94" d="M 1147 2469 
L 1191 2459 
Q 1363 2669 1509 2789 
Q 1656 2909 1826 2975 
Q 1997 3041 2213 3041 
Q 2394 3041 2541 3022 
L 2541 2303 
L 2188 2303 
Q 2113 2472 2028 2548 
Q 1944 2625 1797 2625 
Q 1684 2625 1573 2559 
Q 1463 2494 1359 2369 
Q 1256 2244 1217 2134 
Q 1178 2025 1178 1875 
L 1178 781 
Q 1178 497 1212 389 
Q 1247 281 1326 231 
Q 1406 181 1566 153 
L 1566 0 
L 306 0 
L 306 153 
Q 425 191 476 219 
Q 528 247 565 297 
Q 603 347 622 450 
Q 641 553 641 772 
L 641 2134 
Q 641 2334 634 2456 
Q 628 2578 590 2651 
Q 553 2725 476 2761 
Q 400 2797 259 2822 
L 259 2984 
L 991 3016 
L 1181 3016 
L 1147 2469 
z
" transform="scale(0.015625)"/>
       <path id="Cambria-92" d="M 1150 94 
L 1150 -566 
Q 1150 -769 1164 -869 
Q 1178 -969 1214 -1026 
Q 1250 -1084 1317 -1121 
Q 1384 -1159 1534 -1191 
L 1534 -1344 
L 259 -1344 
L 259 -1191 
Q 372 -1159 442 -1126 
Q 513 -1094 550 -1030 
Q 588 -966 600 -856 
Q 613 -747 613 -566 
L 613 2116 
Q 613 2341 606 2436 
Q 600 2531 581 2593 
Q 563 2656 527 2697 
Q 491 2738 430 2766 
Q 369 2794 228 2822 
L 228 2988 
L 963 3016 
L 1153 3016 
L 1113 2506 
L 1159 2494 
Q 1353 2691 1465 2780 
Q 1578 2869 1698 2928 
Q 1819 2988 1930 3013 
Q 2041 3038 2166 3038 
Q 2681 3038 2957 2652 
Q 3234 2266 3234 1522 
Q 3234 1006 3078 654 
Q 2922 303 2623 126 
Q 2325 -50 1913 -50 
Q 1681 -50 1493 -11 
Q 1306 28 1150 94 
z
M 1150 1125 
Q 1150 825 1187 662 
Q 1225 500 1320 398 
Q 1416 297 1545 247 
Q 1675 197 1888 197 
Q 2266 197 2456 511 
Q 2647 825 2647 1438 
Q 2647 2663 1931 2663 
Q 1756 2663 1629 2608 
Q 1503 2553 1378 2431 
Q 1253 2309 1201 2195 
Q 1150 2081 1150 1950 
L 1150 1125 
z
" transform="scale(0.015625)"/>
       <path id="Cambria-87" d="M 2800 531 
Q 2600 322 2433 203 
Q 2266 84 2066 17 
Q 1866 -50 1625 -50 
Q 981 -50 653 336 
Q 325 722 325 1475 
Q 325 1941 492 2297 
Q 659 2653 968 2847 
Q 1278 3041 1681 3041 
Q 1997 3041 2219 2941 
Q 2441 2841 2573 2667 
Q 2706 2494 2779 2230 
Q 2853 1966 2863 1541 
L 894 1541 
L 894 1484 
Q 894 1116 976 864 
Q 1059 613 1248 470 
Q 1438 328 1741 328 
Q 1997 328 2201 423 
Q 2406 519 2609 734 
L 2800 531 
z
M 2275 1800 
Q 2256 2138 2190 2352 
Q 2125 2566 1994 2680 
Q 1863 2794 1650 2794 
Q 1328 2794 1136 2536 
Q 944 2278 909 1800 
L 2275 1800 
z
" transform="scale(0.015625)"/>
       <path id="Cmmi10-84" d="M 494 109 
Q 494 147 500 166 
L 978 2075 
Q 1025 2253 1025 2388 
Q 1025 2663 838 2663 
Q 638 2663 541 2423 
Q 444 2184 353 1819 
Q 353 1800 334 1789 
Q 316 1778 300 1778 
L 225 1778 
Q 203 1778 187 1801 
Q 172 1825 172 1844 
Q 241 2122 305 2315 
Q 369 2509 505 2668 
Q 641 2828 844 2828 
Q 1066 2828 1233 2700 
Q 1400 2572 1441 2363 
Q 1603 2575 1811 2701 
Q 2019 2828 2266 2828 
Q 2469 2828 2623 2709 
Q 2778 2591 2778 2388 
Q 2778 2225 2676 2104 
Q 2575 1984 2406 1984 
Q 2303 1984 2233 2048 
Q 2163 2113 2163 2216 
Q 2163 2356 2266 2467 
Q 2369 2578 2503 2578 
Q 2400 2663 2253 2663 
Q 1978 2663 1775 2467 
Q 1572 2272 1409 1972 
L 953 141 
Q 931 53 854 -9 
Q 778 -72 684 -72 
Q 606 -72 550 -22 
Q 494 28 494 109 
z
" transform="scale(0.015625)"/>
      </defs>
      <use xlink:href="#Cambria-91" transform="translate(0 0.125)"/>
      <use xlink:href="#Cambria-86" transform="translate(53.076172 0.125)"/>
      <use xlink:href="#Cambria-86" transform="translate(108.544922 0.125)"/>
      <use xlink:href="#Cambria-3" transform="translate(164.013672 0.125)"/>
      <use xlink:href="#Cambria-95" transform="translate(186.035156 0.125)"/>
      <use xlink:href="#Cambria-97" transform="translate(229.003906 0.125)"/>
      <use xlink:href="#Cambria-84" transform="translate(284.228516 0.125)"/>
      <use xlink:href="#Cambria-89" transform="translate(338.964844 0.125)"/>
      <use xlink:href="#Cambria-94" transform="translate(388.378906 0.125)"/>
      <use xlink:href="#Cambria-91" transform="translate(429.736328 0.125)"/>
      <use xlink:href="#Cambria-97" transform="translate(482.8125 0.125)"/>
      <use xlink:href="#Cambria-92" transform="translate(538.037109 0.125)"/>
      <use xlink:href="#Cambria-3" transform="translate(593.652344 0.125)"/>
      <use xlink:href="#Cambria-91" transform="translate(615.673828 0.125)"/>
      <use xlink:href="#Cambria-94" transform="translate(668.75 0.125)"/>
      <use xlink:href="#Cambria-86" transform="translate(710.107422 0.125)"/>
      <use xlink:href="#Cambria-87" transform="translate(765.576172 0.125)"/>
      <use xlink:href="#Cambria-94" transform="translate(814.355469 0.125)"/>
      <use xlink:href="#Cambria-3" transform="translate(855.712891 0.125)"/>
      <use xlink:href="#Cmmi10-84" transform="translate(877.734375 0.125)"/>
     </g>
    </g>
   </g>
   <g id="matplotlib.axis_2">
    <g id="ytick_1">
     <g id="line2d_17">
      <path d="M 41.82875 197.086279 
L 404.294766 197.086279 
" clip-path="url(#p5293e48c54)" style="fill: none; stroke: #e1e0d9; stroke-width: 0.7; stroke-linecap: square"/>
     </g>
     <g id="line2d_18">
      <defs>
       <path id="m3457c40946" d="M 0 0 
L -3.5 0 
" style="stroke: #898781; stroke-width: 0.8"/>
      </defs>
      <g>
       <use xlink:href="#m3457c40946" x="41.82875" y="197.086279" style="fill: #898781; stroke: #898781; stroke-width: 0.8"/>
      </g>
     </g>
     <g id="text_10">
      <!-- 0 -->
      <g style="fill: #52514e" transform="translate(29.014375 201.169897) scale(0.105 -0.105)">
       <use xlink:href="#Cambria-372"/>
      </g>
     </g>
    </g>
    <g id="ytick_2">
     <g id="line2d_19">
      <path d="M 41.82875 155.138914 
L 404.294766 155.138914 
" clip-path="url(#p5293e48c54)" style="fill: none; stroke: #e1e0d9; stroke-width: 0.7; stroke-linecap: square"/>
     </g>
     <g id="line2d_20">
      <g>
       <use xlink:href="#m3457c40946" x="41.82875" y="155.138914" style="fill: #898781; stroke: #898781; stroke-width: 0.8"/>
      </g>
     </g>
     <g id="text_11">
      <!-- 10 -->
      <g style="fill: #52514e" transform="translate(23.2 159.222532) scale(0.105 -0.105)">
       <use xlink:href="#Cambria-373"/>
       <use xlink:href="#Cambria-372" transform="translate(55.375 0)"/>
      </g>
     </g>
    </g>
    <g id="ytick_3">
     <g id="line2d_21">
      <path d="M 41.82875 113.191548 
L 404.294766 113.191548 
" clip-path="url(#p5293e48c54)" style="fill: none; stroke: #e1e0d9; stroke-width: 0.7; stroke-linecap: square"/>
     </g>
     <g id="line2d_22">
      <g>
       <use xlink:href="#m3457c40946" x="41.82875" y="113.191548" style="fill: #898781; stroke: #898781; stroke-width: 0.8"/>
      </g>
     </g>
     <g id="text_12">
      <!-- 20 -->
      <g style="fill: #52514e" transform="translate(23.2 117.275166) scale(0.105 -0.105)">
       <use xlink:href="#Cambria-374"/>
       <use xlink:href="#Cambria-372" transform="translate(55.375 0)"/>
      </g>
     </g>
    </g>
    <g id="ytick_4">
     <g id="line2d_23">
      <path d="M 41.82875 71.244182 
L 404.294766 71.244182 
" clip-path="url(#p5293e48c54)" style="fill: none; stroke: #e1e0d9; stroke-width: 0.7; stroke-linecap: square"/>
     </g>
     <g id="line2d_24">
      <g>
       <use xlink:href="#m3457c40946" x="41.82875" y="71.244182" style="fill: #898781; stroke: #898781; stroke-width: 0.8"/>
      </g>
     </g>
     <g id="text_13">
      <!-- 30 -->
      <g style="fill: #52514e" transform="translate(23.2 75.3278) scale(0.105 -0.105)">
       <use xlink:href="#Cambria-375"/>
       <use xlink:href="#Cambria-372" transform="translate(55.375 0)"/>
      </g>
     </g>
    </g>
    <g id="ytick_5">
     <g id="line2d_25">
      <path d="M 41.82875 29.296816 
L 404.294766 29.296816 
" clip-path="url(#p5293e48c54)" style="fill: none; stroke: #e1e0d9; stroke-width: 0.7; stroke-linecap: square"/>
     </g>
     <g id="line2d_26">
      <g>
       <use xlink:href="#m3457c40946" x="41.82875" y="29.296816" style="fill: #898781; stroke: #898781; stroke-width: 0.8"/>
      </g>
     </g>
     <g id="text_14">
      <!-- 40 -->
      <g style="fill: #52514e" transform="translate(23.2 33.380434) scale(0.105 -0.105)">
       <use xlink:href="#Cambria-376"/>
       <use xlink:href="#Cambria-372" transform="translate(55.375 0)"/>
      </g>
     </g>
    </g>
    <g id="text_15">
     <!-- affine line / vertical factors -->
     <g style="fill: #0b0b0b" transform="translate(16.533984 184.353604) rotate(-90) scale(0.12 -0.12)">
      <defs>
       <path id="Cambria-83" d="M 2109 447 
L 2063 459 
Q 1791 181 1552 65 
Q 1313 -50 1044 -50 
Q 806 -50 625 42 
Q 444 134 347 301 
Q 250 469 250 688 
Q 250 1144 701 1392 
Q 1153 1641 2056 1681 
L 2056 1884 
Q 2056 2209 1993 2396 
Q 1931 2584 1797 2671 
Q 1663 2759 1438 2759 
Q 1194 2759 1045 2631 
Q 897 2503 822 2247 
L 413 2247 
L 413 2653 
Q 713 2809 913 2882 
Q 1113 2956 1313 2998 
Q 1513 3041 1719 3041 
Q 2028 3041 2215 2942 
Q 2403 2844 2497 2641 
Q 2591 2438 2591 2028 
L 2591 941 
Q 2591 709 2594 614 
Q 2597 519 2612 437 
Q 2628 356 2659 307 
Q 2691 259 2752 225 
Q 2813 191 2950 153 
L 2950 0 
L 2094 0 
L 2109 447 
z
M 2056 1425 
Q 1422 1419 1106 1256 
Q 791 1094 791 766 
Q 791 588 862 484 
Q 934 381 1043 342 
Q 1153 303 1303 303 
Q 1516 303 1689 406 
Q 1863 509 1959 668 
Q 2056 828 2056 984 
L 2056 1425 
z
" transform="scale(0.015625)"/>
       <path id="Cambria-88" d="M 1909 2672 
L 1163 2672 
L 1163 781 
Q 1163 572 1183 465 
Q 1203 359 1242 304 
Q 1281 250 1345 217 
Q 1409 184 1550 153 
L 1550 0 
L 272 0 
L 272 153 
Q 409 191 468 225 
Q 528 259 561 312 
Q 594 366 609 466 
Q 625 566 625 781 
L 625 2672 
L 247 2672 
L 247 2831 
Q 366 2850 405 2861 
Q 444 2872 480 2894 
Q 516 2916 542 2956 
Q 569 2997 589 3076 
Q 609 3156 622 3300 
Q 650 3641 745 3853 
Q 841 4066 1023 4216 
Q 1206 4366 1414 4427 
Q 1622 4488 1903 4488 
Q 2150 4488 2322 4453 
L 2322 3888 
L 2013 3888 
Q 1953 4072 1873 4148 
Q 1794 4225 1650 4225 
Q 1547 4225 1476 4197 
Q 1406 4169 1347 4109 
Q 1288 4050 1245 3950 
Q 1203 3850 1183 3701 
Q 1163 3553 1163 3316 
L 1163 2988 
L 1909 2988 
L 1909 2672 
z
" transform="scale(0.015625)"/>
       <path id="Cambria-3d0" d="M 1909 2672 
L 1163 2672 
L 1163 781 
Q 1163 572 1183 465 
Q 1203 359 1242 304 
Q 1281 250 1345 217 
Q 1409 184 1550 153 
L 1550 0 
L 272 0 
L 272 153 
Q 409 191 468 225 
Q 528 259 561 312 
Q 594 366 609 466 
Q 625 566 625 781 
L 625 2672 
L 247 2672 
L 247 2831 
Q 416 2850 483 2898 
Q 550 2947 581 3040 
Q 613 3134 622 3300 
Q 644 3684 798 3953 
Q 953 4222 1212 4355 
Q 1472 4488 1816 4488 
Q 1994 4488 2153 4459 
L 2153 3888 
L 1897 3888 
Q 1863 4059 1795 4136 
Q 1728 4213 1603 4213 
Q 1488 4213 1405 4159 
Q 1322 4106 1264 3992 
Q 1206 3878 1184 3697 
Q 1163 3516 1163 3263 
L 1163 2988 
L 1909 2988 
L 1909 2672 
z
" transform="scale(0.015625)"/>
       <path id="Cambria-8b" d="M 1197 4213 
L 1197 3606 
L 622 3606 
L 622 4213 
L 1197 4213 
z
M 303 153 
Q 425 191 476 219 
Q 528 247 564 297 
Q 600 347 620 450 
Q 641 553 641 772 
L 641 2134 
Q 641 2334 634 2456 
Q 628 2578 590 2651 
Q 553 2725 476 2761 
Q 400 2797 259 2822 
L 259 2988 
L 988 3016 
L 1178 3016 
L 1178 781 
Q 1178 513 1203 408 
Q 1228 303 1298 248 
Q 1369 194 1528 153 
L 1528 0 
L 303 0 
L 303 153 
z
" transform="scale(0.015625)"/>
       <path id="Cambria-90" d="M 3347 0 
L 2116 0 
L 2116 153 
Q 2238 191 2291 219 
Q 2344 247 2380 297 
Q 2416 347 2436 451 
Q 2456 556 2456 769 
L 2456 1588 
Q 2456 1806 2443 1984 
Q 2431 2163 2401 2277 
Q 2372 2391 2330 2455 
Q 2288 2519 2230 2564 
Q 2172 2609 2097 2636 
Q 2022 2663 1900 2663 
Q 1778 2663 1668 2614 
Q 1559 2566 1428 2447 
Q 1297 2328 1237 2212 
Q 1178 2097 1178 1947 
L 1178 781 
Q 1178 513 1203 408 
Q 1228 303 1298 248 
Q 1369 194 1528 153 
L 1528 0 
L 303 0 
L 303 153 
Q 425 191 476 219 
Q 528 247 564 297 
Q 600 347 620 450 
Q 641 553 641 772 
L 641 2134 
Q 641 2334 634 2456 
Q 628 2578 590 2651 
Q 553 2725 476 2761 
Q 400 2797 259 2822 
L 259 2988 
L 991 3016 
L 1181 3016 
L 1147 2506 
L 1191 2494 
Q 1422 2728 1564 2828 
Q 1706 2928 1851 2983 
Q 1997 3038 2159 3038 
Q 2328 3038 2461 2998 
Q 2594 2959 2695 2878 
Q 2797 2797 2862 2676 
Q 2928 2556 2961 2387 
Q 2994 2219 2994 1959 
L 2994 781 
Q 2994 566 3006 469 
Q 3019 372 3050 319 
Q 3081 266 3140 230 
Q 3200 194 3347 153 
L 3347 0 
z
" transform="scale(0.015625)"/>
       <path id="Cambria-8e" d="M 1138 781 
Q 1138 513 1163 408 
Q 1188 303 1258 248 
Q 1328 194 1488 153 
L 1488 0 
L 247 0 
L 247 153 
Q 403 194 464 237 
Q 525 281 551 342 
Q 578 403 589 508 
Q 600 613 600 781 
L 600 3397 
Q 600 3697 595 3815 
Q 591 3934 570 4017 
Q 550 4100 514 4147 
Q 478 4194 417 4222 
Q 356 4250 197 4278 
L 197 4441 
L 950 4472 
L 1138 4472 
L 1138 781 
z
" transform="scale(0.015625)"/>
       <path id="Cambria-200" d="M 2941 4472 
L 684 -1344 
L 194 -1344 
L 2456 4472 
L 2941 4472 
z
" transform="scale(0.015625)"/>
       <path id="Cambria-98" d="M 1334 2988 
L 1334 2834 
Q 1191 2800 1131 2769 
Q 1072 2738 1042 2688 
Q 1013 2638 1013 2553 
Q 1013 2469 1033 2376 
Q 1053 2284 1097 2163 
L 1641 581 
L 2278 2097 
Q 2341 2247 2366 2344 
Q 2391 2441 2391 2525 
Q 2391 2656 2320 2725 
Q 2250 2794 2063 2834 
L 2063 2988 
L 3231 2988 
L 3231 2834 
Q 3109 2809 3043 2757 
Q 2978 2706 2912 2595 
Q 2847 2484 2756 2284 
L 1703 -31 
L 1334 -31 
L 488 2303 
Q 400 2544 348 2633 
Q 297 2722 236 2765 
Q 175 2809 59 2834 
L 59 2988 
L 1334 2988 
z
" transform="scale(0.015625)"/>
       <path id="Cambria-96" d="M 116 2831 
Q 272 2856 369 2918 
Q 466 2981 520 3079 
Q 575 3178 606 3326 
Q 638 3475 672 3759 
L 1116 3759 
L 1116 2988 
L 2125 2988 
L 2125 2672 
L 1116 2672 
L 1116 1281 
Q 1116 978 1141 798 
Q 1166 619 1234 517 
Q 1303 416 1390 372 
Q 1478 328 1616 328 
Q 1741 328 1850 379 
Q 1959 431 2066 528 
L 2206 359 
Q 1984 144 1786 47 
Q 1588 -50 1375 -50 
Q 972 -50 775 189 
Q 578 428 578 938 
L 578 2672 
L 116 2672 
L 116 2831 
z
" transform="scale(0.015625)"/>
       <path id="Cambria-85" d="M 2631 2916 
L 2631 2263 
L 2234 2263 
Q 2181 2466 2103 2583 
Q 2025 2700 1922 2747 
Q 1819 2794 1666 2794 
Q 1447 2794 1278 2653 
Q 1109 2513 1011 2225 
Q 913 1938 913 1522 
Q 913 1256 950 1036 
Q 988 816 1078 659 
Q 1169 503 1319 415 
Q 1469 328 1691 328 
Q 1906 328 2092 412 
Q 2278 497 2478 709 
L 2656 503 
Q 2497 328 2375 233 
Q 2253 138 2114 73 
Q 1975 9 1839 -20 
Q 1703 -50 1544 -50 
Q 953 -50 640 342 
Q 328 734 328 1475 
Q 328 1938 503 2295 
Q 678 2653 993 2847 
Q 1309 3041 1722 3041 
Q 1978 3041 2195 3011 
Q 2413 2981 2631 2916 
z
" transform="scale(0.015625)"/>
      </defs>
      <use xlink:href="#Cambria-83"/>
      <use xlink:href="#Cambria-88" transform="translate(48.828125 0)"/>
      <use xlink:href="#Cambria-3d0" transform="translate(79.109375 0)"/>
      <use xlink:href="#Cambria-8b" transform="translate(109.390625 0)"/>
      <use xlink:href="#Cambria-90" transform="translate(137.171875 0)"/>
      <use xlink:href="#Cambria-87" transform="translate(192.984375 0)"/>
      <use xlink:href="#Cambria-3" transform="translate(241.765625 0)"/>
      <use xlink:href="#Cambria-8e" transform="translate(263.78125 0)"/>
      <use xlink:href="#Cambria-8b" transform="translate(290.9375 0)"/>
      <use xlink:href="#Cambria-90" transform="translate(318.71875 0)"/>
      <use xlink:href="#Cambria-87" transform="translate(374.53125 0)"/>
      <use xlink:href="#Cambria-3" transform="translate(423.3125 0)"/>
      <use xlink:href="#Cambria-200" transform="translate(445.328125 0)"/>
      <use xlink:href="#Cambria-3" transform="translate(494.359375 0)"/>
      <use xlink:href="#Cambria-98" transform="translate(516.375 0)"/>
      <use xlink:href="#Cambria-87" transform="translate(564.8125 0)"/>
      <use xlink:href="#Cambria-94" transform="translate(613.59375 0)"/>
      <use xlink:href="#Cambria-96" transform="translate(654.953125 0)"/>
      <use xlink:href="#Cambria-8b" transform="translate(688.796875 0)"/>
      <use xlink:href="#Cambria-85" transform="translate(716.578125 0)"/>
      <use xlink:href="#Cambria-83" transform="translate(760.671875 0)"/>
      <use xlink:href="#Cambria-8e" transform="translate(809.5 0)"/>
      <use xlink:href="#Cambria-3" transform="translate(836.65625 0)"/>
      <use xlink:href="#Cambria-88" transform="translate(858.671875 0)"/>
      <use xlink:href="#Cambria-83" transform="translate(887.78125 0)"/>
      <use xlink:href="#Cambria-85" transform="translate(936.609375 0)"/>
      <use xlink:href="#Cambria-96" transform="translate(980.703125 0)"/>
      <use xlink:href="#Cambria-91" transform="translate(1013.671875 0)"/>
      <use xlink:href="#Cambria-94" transform="translate(1066.75 0)"/>
      <use xlink:href="#Cambria-95" transform="translate(1108.109375 0)"/>
     </g>
    </g>
   </g>
   <g id="line2d_27">
    <path d="M 58.304478 192.891543 
L 65.029265 189.638482 
L 71.754052 186.385421 
L 78.478839 183.13236 
L 85.203626 179.879299 
L 91.928413 176.626238 
L 98.6532 173.373177 
L 105.377987 170.120116 
L 112.102773 166.867055 
L 118.82756 163.613994 
L 125.552347 160.360933 
L 132.277134 157.107871 
L 139.001921 153.85481 
L 145.726708 150.601749 
L 152.451495 147.348688 
L 159.176282 144.095627 
L 165.901069 140.842566 
L 172.625856 137.589505 
L 179.350643 134.336444 
L 186.07543 131.083383 
L 192.800217 127.830322 
L 199.525004 124.577261 
L 206.24979 121.3242 
L 212.974577 118.071139 
L 219.699364 114.818078 
L 226.424151 111.565017 
L 233.148938 108.311956 
L 239.873725 105.058895 
L 246.598512 101.805834 
L 253.323299 98.552773 
L 260.048086 95.299712 
L 266.772873 92.046651 
L 273.49766 88.79359 
L 280.222447 85.540529 
L 286.947234 82.287468 
L 293.672021 79.034407 
L 300.396808 75.781346 
L 307.121594 72.528285 
L 313.846381 69.275224 
L 320.571168 66.022163 
L 327.295955 62.769102 
L 334.020742 59.516041 
L 340.745529 56.26298 
L 347.470316 53.009919 
L 354.195103 49.756858 
L 360.91989 46.503797 
L 367.644677 43.250736 
L 374.369464 39.997675 
L 381.094251 36.744614 
L 387.819038 33.491553 
" clip-path="url(#p5293e48c54)" style="fill: none; stroke-dasharray: 4.81,2.08; stroke-dashoffset: 0; stroke: #2a78d6; stroke-width: 1.3"/>
   </g>
   <g id="line2d_28">
    <path d="M 58.304478 197.086279 
L 65.029265 193.833218 
L 71.754052 190.580157 
L 78.478839 187.327096 
L 85.203626 184.074035 
L 91.928413 180.820974 
L 98.6532 177.567913 
L 105.377987 174.314852 
L 112.102773 171.061791 
L 118.82756 167.80873 
L 125.552347 164.555669 
L 132.277134 161.302608 
L 139.001921 158.049547 
L 145.726708 154.796486 
L 152.451495 151.543425 
L 159.176282 148.290364 
L 165.901069 145.037303 
L 172.625856 141.784242 
L 179.350643 138.531181 
L 186.07543 135.27812 
L 192.800217 132.025059 
L 199.525004 128.771998 
L 206.24979 125.518937 
L 212.974577 122.265876 
L 219.699364 119.012815 
L 226.424151 115.759754 
L 233.148938 112.506693 
L 239.873725 109.253632 
L 246.598512 106.000571 
L 253.323299 102.74751 
L 260.048086 99.494449 
L 266.772873 96.241388 
L 273.49766 92.988327 
L 280.222447 89.735266 
L 286.947234 86.482205 
L 293.672021 83.229144 
L 300.396808 79.976083 
L 307.121594 76.723022 
L 313.846381 73.469961 
L 320.571168 70.2169 
L 327.295955 66.963838 
L 334.020742 63.710777 
L 340.745529 60.457716 
L 347.470316 57.204655 
L 354.195103 53.951594 
L 360.91989 50.698533 
L 367.644677 47.445472 
L 374.369464 44.192411 
L 381.094251 40.93935 
L 387.819038 37.686289 
" clip-path="url(#p5293e48c54)" style="fill: none; stroke-dasharray: 4.81,2.08; stroke-dashoffset: 0; stroke: #eb6834; stroke-width: 1.3"/>
   </g>
   <g id="line2d_29">
    <defs>
     <path id="mdb7321f895" d="M 0 3.25 
C 0.86191 3.25 1.688635 2.907559 2.298097 2.298097 
C 2.907559 1.688635 3.25 0.86191 3.25 0 
C 3.25 -0.86191 2.907559 -1.688635 2.298097 -2.298097 
C 1.688635 -2.907559 0.86191 -3.25 0 -3.25 
C -0.86191 -3.25 -1.688635 -2.907559 -2.298097 -2.298097 
C -2.907559 -1.688635 -3.25 -0.86191 -3.25 0 
C -3.25 0.86191 -2.907559 1.688635 -2.298097 2.298097 
C -1.688635 2.907559 -0.86191 3.25 0 3.25 
z
" style="stroke: #2a78d6"/>
    </defs>
    <g clip-path="url(#p5293e48c54)">
     <use xlink:href="#mdb7321f895" x="58.304478" y="192.891543" style="fill: #2a78d6; stroke: #2a78d6"/>
     <use xlink:href="#mdb7321f895" x="75.64735" y="184.50207" style="fill: #2a78d6; stroke: #2a78d6"/>
     <use xlink:href="#mdb7321f895" x="92.990221" y="176.112596" style="fill: #2a78d6; stroke: #2a78d6"/>
     <use xlink:href="#mdb7321f895" x="127.675964" y="159.33365" style="fill: #2a78d6; stroke: #2a78d6"/>
     <use xlink:href="#mdb7321f895" x="145.018836" y="150.944177" style="fill: #2a78d6; stroke: #2a78d6"/>
     <use xlink:href="#mdb7321f895" x="179.704579" y="134.165231" style="fill: #2a78d6; stroke: #2a78d6"/>
     <use xlink:href="#mdb7321f895" x="197.04745" y="125.775757" style="fill: #2a78d6; stroke: #2a78d6"/>
     <use xlink:href="#mdb7321f895" x="231.733194" y="108.996811" style="fill: #2a78d6; stroke: #2a78d6"/>
     <use xlink:href="#mdb7321f895" x="283.761808" y="83.828392" style="fill: #2a78d6; stroke: #2a78d6"/>
     <use xlink:href="#mdb7321f895" x="301.10468" y="75.438919" style="fill: #2a78d6; stroke: #2a78d6"/>
     <use xlink:href="#mdb7321f895" x="387.819038" y="33.491553" style="fill: #2a78d6; stroke: #2a78d6"/>
    </g>
   </g>
   <g id="line2d_30">
    <defs>
     <path id="m7fd12e4e6b" d="M -3 3 
L 3 3 
L 3 -3 
L -3 -3 
z
" style="stroke: #eb6834; stroke-linejoin: miter"/>
    </defs>
    <g clip-path="url(#p5293e48c54)">
     <use xlink:href="#m7fd12e4e6b" x="58.304478" y="197.086279" style="fill: #eb6834; stroke: #eb6834; stroke-linejoin: miter"/>
     <use xlink:href="#m7fd12e4e6b" x="75.64735" y="188.696806" style="fill: #eb6834; stroke: #eb6834; stroke-linejoin: miter"/>
     <use xlink:href="#m7fd12e4e6b" x="92.990221" y="180.307333" style="fill: #eb6834; stroke: #eb6834; stroke-linejoin: miter"/>
     <use xlink:href="#m7fd12e4e6b" x="127.675964" y="163.528387" style="fill: #eb6834; stroke: #eb6834; stroke-linejoin: miter"/>
     <use xlink:href="#m7fd12e4e6b" x="145.018836" y="155.138914" style="fill: #eb6834; stroke: #eb6834; stroke-linejoin: miter"/>
     <use xlink:href="#m7fd12e4e6b" x="179.704579" y="138.359967" style="fill: #eb6834; stroke: #eb6834; stroke-linejoin: miter"/>
     <use xlink:href="#m7fd12e4e6b" x="197.04745" y="129.970494" style="fill: #eb6834; stroke: #eb6834; stroke-linejoin: miter"/>
     <use xlink:href="#m7fd12e4e6b" x="231.733194" y="113.191548" style="fill: #eb6834; stroke: #eb6834; stroke-linejoin: miter"/>
     <use xlink:href="#m7fd12e4e6b" x="283.761808" y="88.023128" style="fill: #eb6834; stroke: #eb6834; stroke-linejoin: miter"/>
     <use xlink:href="#m7fd12e4e6b" x="301.10468" y="79.633655" style="fill: #eb6834; stroke: #eb6834; stroke-linejoin: miter"/>
     <use xlink:href="#m7fd12e4e6b" x="387.819038" y="37.686289" style="fill: #eb6834; stroke: #eb6834; stroke-linejoin: miter"/>
    </g>
   </g>
   <g id="line2d_31">
    <defs>
     <path id="m1d2a5c5e98" d="M 0 6.5 
C 1.72382 6.5 3.377269 5.815119 4.596194 4.596194 
C 5.815119 3.377269 6.5 1.72382 6.5 0 
C 6.5 -1.72382 5.815119 -3.377269 4.596194 -4.596194 
C 3.377269 -5.815119 1.72382 -6.5 0 -6.5 
C -1.72382 -6.5 -3.377269 -5.815119 -4.596194 -4.596194 
C -5.815119 -3.377269 -6.5 -1.72382 -6.5 0 
C -6.5 1.72382 -5.815119 3.377269 -4.596194 4.596194 
C -3.377269 5.815119 -1.72382 6.5 0 6.5 
z
" style="stroke: #e34948; stroke-width: 1.6"/>
    </defs>
    <g clip-path="url(#p5293e48c54)">
     <use xlink:href="#m1d2a5c5e98" x="127.675964" y="159.33365" style="fill-opacity: 0; stroke: #e34948; stroke-width: 1.6"/>
    </g>
   </g>
   <g id="patch_3">
    <path d="M 41.82875 205.266016 
L 41.82875 25.311816 
" style="fill: none; stroke: #c3c2b7; stroke-width: 0.9; stroke-linejoin: miter; stroke-linecap: square"/>
   </g>
   <g id="patch_4">
    <path d="M 41.82875 205.266016 
L 404.294766 205.266016 
" style="fill: none; stroke: #c3c2b7; stroke-width: 0.9; stroke-linejoin: miter; stroke-linecap: square"/>
   </g>
   <g id="patch_5">
    <path d="M 161.430401 166.276151 
Q 145.531781 163.006176 129.633161 159.7362 
" style="fill: none; stroke: #898781; stroke-width: 0.8; stroke-linecap: round"/>
   </g>
   <g id="text_16">
    <!-- exact $p=43$, $r=11$ expansion -->
    <g style="fill: #52514e" transform="translate(153.690272 176.282641) scale(0.088 -0.088)">
     <defs>
      <path id="Cambria-9a" d="M 1625 1803 
L 2031 2319 
Q 2097 2403 2137 2483 
Q 2178 2563 2178 2647 
Q 2178 2719 2125 2766 
Q 2072 2813 1959 2834 
L 1959 2988 
L 2981 2988 
L 2981 2834 
Q 2863 2800 2739 2700 
Q 2616 2600 2438 2378 
L 1791 1584 
L 2503 625 
Q 2656 419 2778 309 
Q 2900 200 3022 153 
L 3022 0 
L 1766 0 
L 1766 153 
Q 2025 184 2025 347 
Q 2025 413 2003 472 
Q 1981 531 1922 609 
L 1469 1241 
L 988 616 
Q 934 547 904 489 
Q 875 431 875 359 
Q 875 275 933 220 
Q 991 166 1116 153 
L 1116 0 
L 72 0 
L 72 153 
Q 175 191 258 247 
Q 341 303 427 392 
Q 513 481 653 653 
L 1303 1459 
L 638 2372 
Q 500 2559 419 2643 
Q 338 2728 269 2772 
Q 200 2816 131 2834 
L 131 2988 
L 1356 2988 
L 1356 2834 
Q 1109 2797 1109 2641 
Q 1109 2569 1142 2497 
Q 1175 2425 1244 2338 
L 1625 1803 
z
" transform="scale(0.015625)"/>
      <path id="Cmmi10-80" d="M -159 -1241 
Q -219 -1241 -219 -1159 
Q -197 -1019 -134 -1019 
Q 66 -1019 145 -983 
Q 225 -947 269 -800 
L 991 2081 
Q 1038 2200 1038 2388 
Q 1038 2663 850 2663 
Q 650 2663 553 2423 
Q 456 2184 366 1819 
Q 366 1778 313 1778 
L 238 1778 
Q 222 1778 203 1801 
Q 184 1825 184 1844 
Q 253 2122 317 2315 
Q 381 2509 517 2668 
Q 653 2828 856 2828 
Q 1075 2828 1240 2704 
Q 1406 2581 1453 2369 
Q 1628 2572 1840 2700 
Q 2053 2828 2278 2828 
Q 2547 2828 2745 2684 
Q 2944 2541 3044 2308 
Q 3144 2075 3144 1806 
Q 3144 1394 2933 953 
Q 2722 513 2361 220 
Q 2000 -72 1588 -72 
Q 1400 -72 1248 34 
Q 1097 141 1013 313 
L 722 -825 
Q 706 -919 703 -934 
Q 703 -1019 1125 -1019 
Q 1191 -1019 1191 -1100 
Q 1169 -1184 1155 -1212 
Q 1141 -1241 1081 -1241 
L -159 -1241 
z
M 1594 97 
Q 1816 97 2006 280 
Q 2197 463 2316 691 
Q 2403 863 2479 1111 
Q 2556 1359 2612 1640 
Q 2669 1922 2669 2088 
Q 2669 2234 2630 2362 
Q 2591 2491 2502 2577 
Q 2413 2663 2266 2663 
Q 2031 2663 1823 2495 
Q 1616 2328 1447 2081 
L 1447 2059 
L 1094 647 
Q 1138 419 1263 258 
Q 1388 97 1594 97 
z
" transform="scale(0.015625)"/>
      <path id="Cmr10-29" d="M 481 850 
Q 428 850 393 890 
Q 359 931 359 978 
Q 359 1031 393 1068 
Q 428 1106 481 1106 
L 4500 1106 
Q 4547 1106 4581 1068 
Q 4616 1031 4616 978 
Q 4616 931 4581 890 
Q 4547 850 4500 850 
L 481 850 
z
M 481 2094 
Q 428 2094 393 2131 
Q 359 2169 359 2222 
Q 359 2269 393 2309 
Q 428 2350 481 2350 
L 4500 2350 
Q 4547 2350 4581 2309 
Q 4616 2269 4616 2222 
Q 4616 2169 4581 2131 
Q 4547 2094 4500 2094 
L 481 2094 
z
" transform="scale(0.015625)"/>
      <path id="Cmr10-3b" d="M 178 1056 
L 178 1281 
L 2156 4231 
Q 2178 4263 2222 4263 
L 2316 4263 
Q 2388 4263 2388 4191 
L 2388 1281 
L 3016 1281 
L 3016 1056 
L 2388 1056 
L 2388 428 
Q 2388 297 2575 261 
Q 2763 225 3009 225 
L 3009 0 
L 1247 0 
L 1247 225 
Q 1494 225 1681 261 
Q 1869 297 1869 428 
L 1869 1056 
L 178 1056 
z
M 391 1281 
L 1906 1281 
L 1906 3547 
L 391 1281 
z
" transform="scale(0.015625)"/>
      <path id="Cmr10-6e" d="M 609 494 
Q 759 275 1012 169 
Q 1266 63 1556 63 
Q 1928 63 2084 380 
Q 2241 697 2241 1100 
Q 2241 1281 2208 1462 
Q 2175 1644 2097 1800 
Q 2019 1956 1883 2050 
Q 1747 2144 1550 2144 
L 1125 2144 
Q 1069 2144 1069 2203 
L 1069 2259 
Q 1069 2309 1125 2309 
L 1478 2338 
Q 1703 2338 1851 2506 
Q 2000 2675 2069 2917 
Q 2138 3159 2138 3378 
Q 2138 3684 1994 3881 
Q 1850 4078 1556 4078 
Q 1313 4078 1091 3986 
Q 869 3894 738 3706 
Q 750 3709 759 3711 
Q 769 3713 781 3713 
Q 925 3713 1022 3613 
Q 1119 3513 1119 3372 
Q 1119 3234 1022 3134 
Q 925 3034 781 3034 
Q 641 3034 541 3134 
Q 441 3234 441 3372 
Q 441 3647 606 3850 
Q 772 4053 1033 4158 
Q 1294 4263 1556 4263 
Q 1750 4263 1965 4205 
Q 2181 4147 2356 4039 
Q 2531 3931 2642 3762 
Q 2753 3594 2753 3378 
Q 2753 3109 2633 2881 
Q 2513 2653 2303 2487 
Q 2094 2322 1844 2241 
Q 2122 2188 2372 2031 
Q 2622 1875 2773 1631 
Q 2925 1388 2925 1106 
Q 2925 753 2731 467 
Q 2538 181 2222 20 
Q 1906 -141 1556 -141 
Q 1256 -141 954 -26 
Q 653 88 461 316 
Q 269 544 269 863 
Q 269 1022 375 1128 
Q 481 1234 641 1234 
Q 744 1234 830 1186 
Q 916 1138 964 1050 
Q 1013 963 1013 863 
Q 1013 706 903 600 
Q 794 494 641 494 
L 609 494 
z
" transform="scale(0.015625)"/>
      <path id="Cambria-1e1" d="M 966 725 
Q 1009 506 1009 294 
Q 1009 75 934 -106 
Q 859 -288 695 -467 
Q 531 -647 244 -863 
L 75 -672 
Q 234 -522 306 -401 
Q 378 -281 409 -128 
Q 441 25 441 256 
Q 441 494 419 725 
L 966 725 
z
" transform="scale(0.015625)"/>
      <path id="Cmr10-64" d="M 594 0 
L 594 225 
Q 1394 225 1394 428 
L 1394 3788 
Q 1063 3628 556 3628 
L 556 3853 
Q 1341 3853 1741 4263 
L 1831 4263 
Q 1853 4263 1873 4245 
Q 1894 4228 1894 4206 
L 1894 428 
Q 1894 225 2694 225 
L 2694 0 
L 594 0 
z
" transform="scale(0.015625)"/>
     </defs>
     <use xlink:href="#Cambria-87" transform="translate(0 0.390625)"/>
     <use xlink:href="#Cambria-9a" transform="translate(48.779297 0.390625)"/>
     <use xlink:href="#Cambria-83" transform="translate(97.119141 0.390625)"/>
     <use xlink:href="#Cambria-85" transform="translate(145.947266 0.390625)"/>
     <use xlink:href="#Cambria-96" transform="translate(190.039062 0.390625)"/>
     <use xlink:href="#Cambria-3" transform="translate(223.876953 0.390625)"/>
     <use xlink:href="#Cmmi10-80" transform="translate(245.898438 0.390625)"/>
     <use xlink:href="#Cmr10-29" transform="translate(316.191463 0.390625)"/>
     <use xlink:href="#Cmr10-3b" transform="translate(413.877068 0.390625)"/>
     <use xlink:href="#Cmr10-6e" transform="translate(463.877068 0.390625)"/>
     <use xlink:href="#Cambria-1e1" transform="translate(513.877068 0.390625)"/>
     <use xlink:href="#Cambria-3" transform="translate(534.38488 0.390625)"/>
     <use xlink:href="#Cmmi10-84" transform="translate(556.406364 0.390625)"/>
     <use xlink:href="#Cmr10-29" transform="translate(621.523609 0.390625)"/>
     <use xlink:href="#Cmr10-64" transform="translate(719.209213 0.390625)"/>
     <use xlink:href="#Cmr10-64" transform="translate(769.209213 0.390625)"/>
     <use xlink:href="#Cambria-3" transform="translate(819.209213 0.390625)"/>
     <use xlink:href="#Cambria-87" transform="translate(841.230698 0.390625)"/>
     <use xlink:href="#Cambria-9a" transform="translate(890.009995 0.390625)"/>
     <use xlink:href="#Cambria-92" transform="translate(938.349838 0.390625)"/>
     <use xlink:href="#Cambria-83" transform="translate(993.965073 0.390625)"/>
     <use xlink:href="#Cambria-90" transform="translate(1042.793198 0.390625)"/>
     <use xlink:href="#Cambria-95" transform="translate(1098.603745 0.390625)"/>
     <use xlink:href="#Cambria-8b" transform="translate(1141.572495 0.390625)"/>
     <use xlink:href="#Cambria-91" transform="translate(1169.355698 0.390625)"/>
     <use xlink:href="#Cambria-90" transform="translate(1222.43187 0.390625)"/>
    </g>
    <!-- (degrees $9/8$; $\deg A=13$, $\deg B=12$) -->
    <g style="fill: #52514e" transform="translate(153.690272 186.599438) scale(0.088 -0.088)">
     <defs>
      <path id="Cambria-20b" d="M 2309 -1359 
Q 1778 -1359 1442 -1200 
Q 1106 -1041 918 -714 
Q 731 -388 647 134 
Q 563 656 563 1550 
Q 563 2438 645 2964 
Q 728 3491 915 3822 
Q 1103 4153 1440 4318 
Q 1778 4484 2309 4484 
L 2309 4228 
Q 2091 4228 1922 4191 
Q 1731 4147 1597 4022 
Q 1447 3884 1353 3638 
Q 1244 3350 1191 2875 
Q 1134 2372 1134 1575 
Q 1134 872 1181 379 
Q 1228 -113 1338 -425 
Q 1425 -688 1556 -834 
Q 1672 -963 1831 -1028 
Q 2016 -1103 2309 -1103 
L 2309 -1359 
z
" transform="scale(0.015625)"/>
      <path id="Cmr10-16" d="M 722 269 
Q 897 63 1331 63 
Q 1575 63 1786 228 
Q 1997 394 2113 634 
Q 2247 906 2284 1214 
Q 2322 1522 2322 1978 
Q 2213 1719 2008 1553 
Q 1803 1388 1538 1388 
Q 1166 1388 873 1589 
Q 581 1791 425 2120 
Q 269 2450 269 2822 
Q 269 3206 444 3539 
Q 619 3872 928 4067 
Q 1238 4263 1631 4263 
Q 2019 4263 2280 4052 
Q 2541 3841 2678 3508 
Q 2816 3175 2870 2803 
Q 2925 2431 2925 2069 
Q 2925 1575 2744 1061 
Q 2563 547 2202 203 
Q 1841 -141 1331 -141 
Q 953 -141 690 37 
Q 428 216 428 575 
Q 428 706 517 795 
Q 606 884 738 884 
Q 866 884 955 795 
Q 1044 706 1044 575 
Q 1044 450 953 359 
Q 863 269 738 269 
L 722 269 
z
M 1563 1556 
Q 1825 1556 1992 1732 
Q 2159 1909 2234 2171 
Q 2309 2434 2309 2694 
L 2309 2816 
L 2309 2841 
Q 2309 3322 2168 3700 
Q 2028 4078 1631 4078 
Q 1378 4078 1220 3967 
Q 1063 3856 988 3672 
Q 913 3488 892 3278 
Q 872 3069 872 2822 
Q 872 2459 906 2203 
Q 941 1947 1094 1751 
Q 1247 1556 1563 1556 
z
" transform="scale(0.015625)"/>
      <path id="Cmmi10-62" d="M 359 -1472 
Q 359 -1453 366 -1447 
L 2591 4722 
Q 2603 4759 2634 4779 
Q 2666 4800 2706 4800 
Q 2763 4800 2798 4765 
Q 2834 4731 2834 4672 
L 2834 4647 
L 609 -1522 
Q 572 -1600 488 -1600 
Q 434 -1600 396 -1562 
Q 359 -1525 359 -1472 
z
" transform="scale(0.015625)"/>
      <path id="Cmr10-4d" d="M 269 972 
Q 269 1356 522 1651 
Q 775 1947 1172 2144 
L 934 2297 
Q 716 2441 578 2680 
Q 441 2919 441 3181 
Q 441 3488 602 3734 
Q 763 3981 1030 4122 
Q 1297 4263 1600 4263 
Q 1884 4263 2148 4147 
Q 2413 4031 2583 3815 
Q 2753 3600 2753 3303 
Q 2753 3088 2651 2903 
Q 2550 2719 2373 2572 
Q 2197 2425 1997 2322 
L 2363 2088 
Q 2616 1922 2770 1653 
Q 2925 1384 2925 1088 
Q 2925 741 2739 456 
Q 2553 172 2247 15 
Q 1941 -141 1600 -141 
Q 1269 -141 961 -6 
Q 653 128 461 383 
Q 269 638 269 972 
z
M 616 972 
Q 616 719 755 509 
Q 894 300 1122 181 
Q 1350 63 1600 63 
Q 1972 63 2275 280 
Q 2578 497 2578 856 
Q 2578 978 2529 1098 
Q 2481 1219 2395 1317 
Q 2309 1416 2203 1478 
L 1344 2034 
Q 1144 1928 976 1765 
Q 809 1603 712 1400 
Q 616 1197 616 972 
z
M 1056 2925 
L 1831 2425 
Q 2100 2581 2272 2803 
Q 2444 3025 2444 3303 
Q 2444 3519 2323 3698 
Q 2203 3878 2009 3978 
Q 1816 4078 1594 4078 
Q 1400 4078 1203 4003 
Q 1006 3928 878 3779 
Q 750 3631 750 3431 
Q 750 3131 1056 2925 
z
" transform="scale(0.015625)"/>
      <path id="Cambria-1e2" d="M 1119 725 
Q 1163 506 1163 294 
Q 1163 75 1088 -106 
Q 1013 -288 848 -467 
Q 684 -647 397 -863 
L 228 -672 
Q 388 -522 459 -401 
Q 531 -281 562 -128 
Q 594 25 594 256 
Q 594 494 572 725 
L 1119 725 
z
M 1156 2822 
L 1156 2091 
L 531 2091 
L 531 2822 
L 1156 2822 
z
" transform="scale(0.015625)"/>
      <path id="Cmr10-49" d="M 1563 -72 
Q 1184 -72 871 133 
Q 559 338 386 672 
Q 213 1006 213 1381 
Q 213 1769 402 2101 
Q 591 2434 916 2631 
Q 1241 2828 1631 2828 
Q 1866 2828 2075 2729 
Q 2284 2631 2438 2456 
L 2438 3788 
Q 2438 3959 2386 4036 
Q 2334 4113 2239 4130 
Q 2144 4147 1941 4147 
L 1941 4372 
L 2888 4441 
L 2888 581 
Q 2888 413 2939 336 
Q 2991 259 3086 242 
Q 3181 225 3384 225 
L 3384 0 
L 2419 -72 
L 2419 331 
Q 2253 141 2025 34 
Q 1797 -72 1563 -72 
z
M 909 556 
Q 1019 347 1201 222 
Q 1384 97 1600 97 
Q 1866 97 2087 250 
Q 2309 403 2419 647 
L 2419 2181 
Q 2344 2322 2230 2433 
Q 2116 2544 1973 2603 
Q 1831 2663 1672 2663 
Q 1338 2663 1134 2473 
Q 931 2284 850 1990 
Q 769 1697 769 1375 
Q 769 1119 795 928 
Q 822 738 909 556 
z
" transform="scale(0.015625)"/>
      <path id="Cmr10-82" d="M 1594 -72 
Q 1203 -72 876 133 
Q 550 338 364 680 
Q 178 1022 178 1403 
Q 178 1778 348 2115 
Q 519 2453 823 2661 
Q 1128 2869 1503 2869 
Q 1797 2869 2014 2770 
Q 2231 2672 2372 2497 
Q 2513 2322 2584 2084 
Q 2656 1847 2656 1563 
Q 2656 1478 2591 1478 
L 738 1478 
L 738 1409 
Q 738 878 952 497 
Q 1166 116 1650 116 
Q 1847 116 2014 203 
Q 2181 291 2304 447 
Q 2428 603 2472 781 
Q 2478 803 2495 820 
Q 2513 838 2534 838 
L 2591 838 
Q 2656 838 2656 756 
Q 2566 394 2266 161 
Q 1966 -72 1594 -72 
z
M 744 1638 
L 2203 1638 
Q 2203 1878 2136 2125 
Q 2069 2372 1912 2536 
Q 1756 2700 1503 2700 
Q 1141 2700 942 2361 
Q 744 2022 744 1638 
z
" transform="scale(0.015625)"/>
      <path id="Cmr10-1b" d="M 178 -500 
Q 178 -272 343 -101 
Q 509 69 738 141 
Q 609 238 542 384 
Q 475 531 475 697 
Q 475 997 666 1228 
Q 372 1516 372 1888 
Q 372 2088 458 2263 
Q 544 2438 697 2566 
Q 850 2694 1037 2761 
Q 1225 2828 1422 2828 
Q 1803 2828 2106 2606 
Q 2238 2747 2417 2823 
Q 2597 2900 2791 2900 
Q 2928 2900 3015 2801 
Q 3103 2703 3103 2566 
Q 3103 2488 3043 2428 
Q 2984 2369 2906 2369 
Q 2825 2369 2765 2428 
Q 2706 2488 2706 2566 
Q 2706 2684 2784 2731 
Q 2453 2731 2216 2503 
Q 2331 2388 2401 2220 
Q 2472 2053 2472 1888 
Q 2472 1616 2322 1398 
Q 2172 1181 1926 1061 
Q 1681 941 1422 941 
Q 1072 941 781 1131 
Q 691 1006 691 850 
Q 691 681 802 554 
Q 913 428 1081 428 
L 1606 428 
Q 1988 428 2294 359 
Q 2600 291 2808 84 
Q 3016 -122 3016 -500 
Q 3016 -781 2778 -967 
Q 2541 -1153 2211 -1236 
Q 1881 -1319 1600 -1319 
Q 1316 -1319 984 -1236 
Q 653 -1153 415 -967 
Q 178 -781 178 -500 
z
M 538 -500 
Q 538 -716 713 -861 
Q 888 -1006 1134 -1076 
Q 1381 -1147 1600 -1147 
Q 1816 -1147 2062 -1076 
Q 2309 -1006 2482 -861 
Q 2656 -716 2656 -500 
Q 2656 -166 2350 -67 
Q 2044 31 1606 31 
L 1081 31 
Q 934 31 811 -39 
Q 688 -109 613 -236 
Q 538 -363 538 -500 
z
M 1422 1113 
Q 1966 1113 1966 1888 
Q 1966 2222 1850 2439 
Q 1734 2656 1422 2656 
Q 1109 2656 993 2439 
Q 878 2222 878 1888 
Q 878 1675 922 1503 
Q 966 1331 1084 1222 
Q 1203 1113 1422 1113 
z
" transform="scale(0.015625)"/>
      <path id="Cmmi10-5c" d="M 288 0 
Q 225 0 225 84 
Q 250 225 306 225 
Q 566 225 755 328 
Q 944 431 1081 647 
Q 1094 659 1094 659 
L 3378 4513 
Q 3428 4581 3500 4581 
L 3584 4581 
Q 3603 4581 3622 4573 
Q 3641 4566 3655 4548 
Q 3669 4531 3669 4513 
L 4056 378 
Q 4056 350 4084 294 
Q 4147 225 4563 225 
Q 4628 225 4628 141 
Q 4606 56 4592 28 
Q 4578 0 4519 0 
L 2919 0 
Q 2859 0 2859 84 
Q 2894 225 2944 225 
Q 3450 225 3481 397 
L 3384 1453 
L 1806 1453 
L 1294 594 
Q 1247 525 1247 434 
Q 1247 322 1355 273 
Q 1463 225 1594 225 
Q 1656 225 1656 141 
Q 1634 50 1621 25 
Q 1609 0 1550 0 
L 288 0 
z
M 1931 1678 
L 3359 1678 
L 3169 3750 
L 1931 1678 
z
" transform="scale(0.015625)"/>
      <path id="Cmmi10-34" d="M 319 0 
Q 256 0 256 84 
Q 259 100 268 137 
Q 278 175 293 200 
Q 309 225 341 225 
Q 522 225 656 234 
Q 791 244 884 269 
Q 959 297 1006 441 
L 1881 3956 
Q 1894 4019 1894 4044 
Q 1894 4113 1819 4122 
Q 1697 4147 1356 4147 
Q 1294 4147 1294 4231 
Q 1297 4247 1306 4286 
Q 1316 4325 1333 4348 
Q 1350 4372 1375 4372 
L 3669 4372 
Q 3878 4372 4083 4320 
Q 4288 4269 4461 4156 
Q 4634 4044 4736 3876 
Q 4838 3709 4838 3488 
Q 4838 3247 4714 3040 
Q 4591 2834 4395 2681 
Q 4200 2528 3973 2429 
Q 3747 2331 3500 2284 
Q 3675 2284 3854 2215 
Q 4034 2147 4175 2028 
Q 4316 1909 4402 1743 
Q 4488 1578 4488 1388 
Q 4488 1003 4219 684 
Q 3950 366 3542 183 
Q 3134 0 2753 0 
L 319 0 
z
M 1497 275 
Q 1497 225 1716 225 
L 2631 225 
Q 2944 225 3231 398 
Q 3519 572 3692 859 
Q 3866 1147 3866 1459 
Q 3866 1650 3786 1820 
Q 3706 1991 3556 2089 
Q 3406 2188 3213 2188 
L 1966 2188 
L 1522 416 
Q 1497 328 1497 275 
z
M 2009 2356 
L 2981 2356 
Q 3288 2356 3577 2512 
Q 3866 2669 4048 2937 
Q 4231 3206 4231 3506 
Q 4231 3784 4057 3965 
Q 3884 4147 3609 4147 
L 2731 4147 
Q 2559 4147 2500 4115 
Q 2441 4084 2400 3928 
L 2009 2356 
z
" transform="scale(0.015625)"/>
      <path id="Cmr10-31" d="M 319 0 
L 319 172 
Q 319 188 331 206 
L 1325 1306 
Q 1550 1550 1690 1715 
Q 1831 1881 1968 2097 
Q 2106 2313 2186 2536 
Q 2266 2759 2266 3009 
Q 2266 3272 2169 3511 
Q 2072 3750 1880 3894 
Q 1688 4038 1416 4038 
Q 1138 4038 916 3870 
Q 694 3703 603 3438 
Q 628 3444 672 3444 
Q 816 3444 917 3347 
Q 1019 3250 1019 3097 
Q 1019 2950 917 2848 
Q 816 2747 672 2747 
Q 522 2747 420 2851 
Q 319 2956 319 3097 
Q 319 3338 409 3548 
Q 500 3759 670 3923 
Q 841 4088 1055 4175 
Q 1269 4263 1509 4263 
Q 1875 4263 2190 4108 
Q 2506 3953 2690 3670 
Q 2875 3388 2875 3009 
Q 2875 2731 2753 2481 
Q 2631 2231 2440 2026 
Q 2250 1822 1953 1562 
Q 1656 1303 1563 1216 
L 838 519 
L 1453 519 
Q 1906 519 2211 526 
Q 2516 534 2534 550 
Q 2609 631 2688 1141 
L 2875 1141 
L 2694 0 
L 319 0 
z
" transform="scale(0.015625)"/>
      <path id="Cambria-20c" d="M 134 4484 
Q 666 4484 1002 4325 
Q 1338 4166 1525 3839 
Q 1713 3513 1797 2991 
Q 1881 2469 1881 1575 
Q 1881 688 1798 161 
Q 1716 -366 1528 -697 
Q 1341 -1028 1003 -1193 
Q 666 -1359 134 -1359 
L 134 -1103 
Q 353 -1103 522 -1066 
Q 713 -1022 847 -897 
Q 997 -759 1091 -513 
Q 1200 -225 1253 250 
Q 1309 753 1309 1550 
Q 1309 2253 1262 2745 
Q 1216 3238 1106 3550 
Q 1019 3813 888 3959 
Q 772 4088 613 4153 
Q 428 4228 134 4228 
L 134 4484 
z
" transform="scale(0.015625)"/>
     </defs>
     <use xlink:href="#Cambria-20b"/>
     <use xlink:href="#Cambria-86" transform="translate(38.183594 0)"/>
     <use xlink:href="#Cambria-87" transform="translate(93.652344 0)"/>
     <use xlink:href="#Cambria-89" transform="translate(142.431641 0)"/>
     <use xlink:href="#Cambria-94" transform="translate(191.845703 0)"/>
     <use xlink:href="#Cambria-87" transform="translate(233.203125 0)"/>
     <use xlink:href="#Cambria-87" transform="translate(281.982422 0)"/>
     <use xlink:href="#Cambria-95" transform="translate(330.761719 0)"/>
     <use xlink:href="#Cambria-3" transform="translate(373.730469 0)"/>
     <use xlink:href="#Cmr10-16" transform="translate(395.751953 0)"/>
     <use xlink:href="#Cmmi10-62" transform="translate(445.751953 0)"/>
     <use xlink:href="#Cmr10-4d" transform="translate(495.751953 0)"/>
     <use xlink:href="#Cambria-1e2" transform="translate(545.751953 0)"/>
     <use xlink:href="#Cambria-3" transform="translate(572.119141 0)"/>
     <use xlink:href="#Cmr10-49" transform="translate(594.140625 0)"/>
     <use xlink:href="#Cmr10-82" transform="translate(649.658203 0)"/>
     <use xlink:href="#Cmr10-1b" transform="translate(694.042969 0)"/>
     <use xlink:href="#Cmmi10-5c" transform="translate(760.710016 0)"/>
     <use xlink:href="#Cmr10-29" transform="translate(855.710074 0)"/>
     <use xlink:href="#Cmr10-64" transform="translate(953.395678 0)"/>
     <use xlink:href="#Cmr10-6e" transform="translate(1003.395678 0)"/>
     <use xlink:href="#Cambria-1e1" transform="translate(1053.395678 0)"/>
     <use xlink:href="#Cambria-3" transform="translate(1073.90349 0)"/>
     <use xlink:href="#Cmr10-49" transform="translate(1095.924975 0)"/>
     <use xlink:href="#Cmr10-82" transform="translate(1151.442553 0)"/>
     <use xlink:href="#Cmr10-1b" transform="translate(1195.827318 0)"/>
     <use xlink:href="#Cmmi10-34" transform="translate(1262.494366 0)"/>
     <use xlink:href="#Cmr10-29" transform="translate(1358.275673 0)"/>
     <use xlink:href="#Cmr10-64" transform="translate(1455.961277 0)"/>
     <use xlink:href="#Cmr10-31" transform="translate(1505.961277 0)"/>
     <use xlink:href="#Cambria-20c" transform="translate(1555.961277 0)"/>
    </g>
   </g>
   <g id="text_17">
    <!-- Fixed-argument Miller factor counts after final cancellation -->
    <g style="fill: #0b0b0b" transform="translate(41.82875 17.311816) scale(0.13 -0.13)">
     <defs>
      <path id="Cambria-9" d="M 3228 4266 
L 3228 3322 
L 2922 3322 
Q 2853 3534 2789 3665 
Q 2725 3797 2654 3865 
Q 2584 3934 2490 3962 
Q 2397 3991 2244 3991 
L 1328 3991 
L 1328 2291 
L 1972 2291 
Q 2109 2291 2187 2336 
Q 2266 2381 2317 2487 
Q 2369 2594 2416 2816 
L 2709 2816 
L 2709 1497 
L 2416 1497 
Q 2369 1709 2316 1817 
Q 2263 1925 2189 1970 
Q 2116 2016 1972 2016 
L 1328 2016 
L 1328 791 
Q 1328 603 1350 490 
Q 1372 378 1422 312 
Q 1472 247 1556 214 
Q 1641 181 1766 153 
L 1766 0 
L 378 0 
L 378 153 
Q 572 203 637 264 
Q 703 325 723 437 
Q 744 550 744 781 
L 744 3484 
Q 744 3700 728 3798 
Q 713 3897 677 3951 
Q 641 4006 581 4039 
Q 522 4072 378 4113 
L 378 4266 
L 3228 4266 
z
" transform="scale(0.015625)"/>
      <path id="Cambria-1e6" d="M 1788 1403 
L 338 1403 
L 338 1888 
L 1788 1888 
L 1788 1403 
z
" transform="scale(0.015625)"/>
      <path id="Cambria-8f" d="M 1147 2506 
L 1191 2494 
Q 1378 2681 1498 2776 
Q 1619 2872 1731 2930 
Q 1844 2988 1942 3013 
Q 2041 3038 2144 3038 
Q 2456 3038 2653 2894 
Q 2850 2750 2925 2453 
Q 3159 2691 3304 2803 
Q 3450 2916 3601 2977 
Q 3753 3038 3928 3038 
Q 4138 3038 4289 2977 
Q 4441 2916 4545 2789 
Q 4650 2663 4698 2472 
Q 4747 2281 4747 1959 
L 4747 781 
Q 4747 544 4762 453 
Q 4778 363 4808 313 
Q 4838 263 4897 227 
Q 4956 191 5097 153 
L 5097 0 
L 3869 0 
L 3869 153 
Q 3991 191 4044 219 
Q 4097 247 4133 297 
Q 4169 347 4189 451 
Q 4209 556 4209 769 
L 4209 1588 
Q 4209 1853 4195 2026 
Q 4181 2200 4151 2303 
Q 4122 2406 4080 2465 
Q 4038 2525 3984 2569 
Q 3931 2613 3859 2638 
Q 3788 2663 3669 2663 
Q 3544 2663 3436 2613 
Q 3328 2563 3201 2444 
Q 3075 2325 3019 2204 
Q 2963 2084 2963 1922 
L 2963 781 
Q 2963 544 2978 453 
Q 2994 363 3023 313 
Q 3053 263 3112 227 
Q 3172 191 3313 153 
L 3313 0 
L 2084 0 
L 2084 153 
Q 2206 191 2259 219 
Q 2313 247 2348 297 
Q 2384 347 2404 451 
Q 2425 556 2425 769 
L 2425 1588 
Q 2425 1866 2409 2041 
Q 2394 2216 2361 2322 
Q 2328 2428 2276 2493 
Q 2225 2559 2172 2593 
Q 2119 2628 2047 2645 
Q 1975 2663 1884 2663 
Q 1756 2663 1643 2605 
Q 1531 2547 1414 2437 
Q 1297 2328 1237 2209 
Q 1178 2091 1178 1953 
L 1178 781 
Q 1178 603 1187 509 
Q 1197 416 1217 362 
Q 1238 309 1269 276 
Q 1300 244 1358 214 
Q 1416 184 1531 153 
L 1531 0 
L 306 0 
L 306 153 
Q 425 191 476 219 
Q 528 247 565 297 
Q 603 347 622 450 
Q 641 553 641 772 
L 641 2134 
Q 641 2334 634 2456 
Q 628 2578 590 2651 
Q 553 2725 476 2761 
Q 400 2797 259 2822 
L 259 2988 
L 991 3016 
L 1181 3016 
L 1147 2506 
z
" transform="scale(0.015625)"/>
      <path id="Cambria-10" d="M 4841 4113 
Q 4703 4078 4642 4043 
Q 4581 4009 4545 3957 
Q 4509 3906 4492 3803 
Q 4475 3700 4475 3484 
L 4475 781 
Q 4475 572 4489 475 
Q 4503 378 4536 322 
Q 4569 266 4633 228 
Q 4697 191 4841 153 
L 4841 0 
L 3538 0 
L 3538 153 
Q 3716 197 3784 253 
Q 3853 309 3878 418 
Q 3903 528 3903 781 
L 3903 1978 
Q 3903 2450 3917 2933 
Q 3931 3416 3950 3594 
L 3897 3594 
L 2659 497 
L 2300 497 
L 1150 3644 
L 1097 3644 
Q 1113 3453 1127 2953 
Q 1141 2453 1141 1925 
L 1141 781 
Q 1141 572 1155 475 
Q 1169 378 1201 322 
Q 1234 266 1298 228 
Q 1363 191 1506 153 
L 1506 0 
L 366 0 
L 366 153 
Q 559 203 625 264 
Q 691 325 711 437 
Q 731 550 731 781 
L 731 3484 
Q 731 3700 715 3798 
Q 700 3897 664 3951 
Q 628 4006 568 4039 
Q 509 4072 366 4113 
L 366 4266 
L 1481 4266 
L 2578 1225 
L 3784 4266 
L 4841 4266 
L 4841 4113 
z
" transform="scale(0.015625)"/>
     </defs>
     <use xlink:href="#Cambria-9"/>
     <use xlink:href="#Cambria-8b" transform="translate(53.65625 0)"/>
     <use xlink:href="#Cambria-9a" transform="translate(81.4375 0)"/>
     <use xlink:href="#Cambria-87" transform="translate(127.578125 0)"/>
     <use xlink:href="#Cambria-86" transform="translate(176.359375 0)"/>
     <use xlink:href="#Cambria-1e6" transform="translate(231.828125 0)"/>
     <use xlink:href="#Cambria-83" transform="translate(265.03125 0)"/>
     <use xlink:href="#Cambria-94" transform="translate(313.859375 0)"/>
     <use xlink:href="#Cambria-89" transform="translate(354.53125 0)"/>
     <use xlink:href="#Cambria-97" transform="translate(403.953125 0)"/>
     <use xlink:href="#Cambria-8f" transform="translate(459.171875 0)"/>
     <use xlink:href="#Cambria-87" transform="translate(542.375 0)"/>
     <use xlink:href="#Cambria-90" transform="translate(591.15625 0)"/>
     <use xlink:href="#Cambria-96" transform="translate(646.96875 0)"/>
     <use xlink:href="#Cambria-3" transform="translate(680.8125 0)"/>
     <use xlink:href="#Cambria-10" transform="translate(702.828125 0)"/>
     <use xlink:href="#Cambria-8b" transform="translate(784.375 0)"/>
     <use xlink:href="#Cambria-8e" transform="translate(812.15625 0)"/>
     <use xlink:href="#Cambria-8e" transform="translate(839.3125 0)"/>
     <use xlink:href="#Cambria-87" transform="translate(866.46875 0)"/>
     <use xlink:href="#Cambria-94" transform="translate(915.25 0)"/>
     <use xlink:href="#Cambria-3" transform="translate(956.609375 0)"/>
     <use xlink:href="#Cambria-88" transform="translate(978.625 0)"/>
     <use xlink:href="#Cambria-83" transform="translate(1007.734375 0)"/>
     <use xlink:href="#Cambria-85" transform="translate(1056.5625 0)"/>
     <use xlink:href="#Cambria-96" transform="translate(1100.65625 0)"/>
     <use xlink:href="#Cambria-91" transform="translate(1133.625 0)"/>
     <use xlink:href="#Cambria-94" transform="translate(1186.703125 0)"/>
     <use xlink:href="#Cambria-3" transform="translate(1228.0625 0)"/>
     <use xlink:href="#Cambria-85" transform="translate(1250.078125 0)"/>
     <use xlink:href="#Cambria-91" transform="translate(1294.171875 0)"/>
     <use xlink:href="#Cambria-97" transform="translate(1347.25 0)"/>
     <use xlink:href="#Cambria-90" transform="translate(1402.46875 0)"/>
     <use xlink:href="#Cambria-96" transform="translate(1458.28125 0)"/>
     <use xlink:href="#Cambria-95" transform="translate(1492.125 0)"/>
     <use xlink:href="#Cambria-3" transform="translate(1535.09375 0)"/>
     <use xlink:href="#Cambria-83" transform="translate(1557.109375 0)"/>
     <use xlink:href="#Cambria-88" transform="translate(1605.9375 0)"/>
     <use xlink:href="#Cambria-96" transform="translate(1636.21875 0)"/>
     <use xlink:href="#Cambria-87" transform="translate(1669.1875 0)"/>
     <use xlink:href="#Cambria-94" transform="translate(1717.96875 0)"/>
     <use xlink:href="#Cambria-3" transform="translate(1759.328125 0)"/>
     <use xlink:href="#Cambria-3d0" transform="translate(1781.34375 0)"/>
     <use xlink:href="#Cambria-8b" transform="translate(1811.625 0)"/>
     <use xlink:href="#Cambria-90" transform="translate(1839.40625 0)"/>
     <use xlink:href="#Cambria-83" transform="translate(1895.21875 0)"/>
     <use xlink:href="#Cambria-8e" transform="translate(1944.046875 0)"/>
     <use xlink:href="#Cambria-3" transform="translate(1971.203125 0)"/>
     <use xlink:href="#Cambria-85" transform="translate(1993.21875 0)"/>
     <use xlink:href="#Cambria-83" transform="translate(2037.3125 0)"/>
     <use xlink:href="#Cambria-90" transform="translate(2086.140625 0)"/>
     <use xlink:href="#Cambria-85" transform="translate(2141.953125 0)"/>
     <use xlink:href="#Cambria-87" transform="translate(2186.046875 0)"/>
     <use xlink:href="#Cambria-8e" transform="translate(2234.828125 0)"/>
     <use xlink:href="#Cambria-8e" transform="translate(2261.984375 0)"/>
     <use xlink:href="#Cambria-83" transform="translate(2289.140625 0)"/>
     <use xlink:href="#Cambria-96" transform="translate(2337.96875 0)"/>
     <use xlink:href="#Cambria-8b" transform="translate(2371.8125 0)"/>
     <use xlink:href="#Cambria-91" transform="translate(2399.59375 0)"/>
     <use xlink:href="#Cambria-90" transform="translate(2452.671875 0)"/>
    </g>
   </g>
   <g id="legend_1">
    <g id="line2d_32">
     <path d="M 49.74875 36.996738 
L 58.54875 36.996738 
L 67.34875 36.996738 
" style="fill: none; stroke-dasharray: 4.81,2.08; stroke-dashoffset: 0; stroke: #2a78d6; stroke-width: 1.3"/>
    </g>
    <g id="text_18">
     <!-- proved $r-2$ (numerator lines) -->
     <g transform="translate(74.38875 40.076738) scale(0.088 -0.088)">
      <defs>
       <path id="Cmsy10-11" d="M 653 1472 
Q 600 1472 565 1512 
Q 531 1553 531 1600 
Q 531 1647 565 1687 
Q 600 1728 653 1728 
L 4325 1728 
Q 4375 1728 4408 1687 
Q 4441 1647 4441 1600 
Q 4441 1553 4408 1512 
Q 4375 1472 4325 1472 
L 653 1472 
z
" transform="scale(0.015625)"/>
      </defs>
      <use xlink:href="#Cambria-92" transform="translate(0 0.9375)"/>
      <use xlink:href="#Cambria-94" transform="translate(55.615234 0.9375)"/>
      <use xlink:href="#Cambria-91" transform="translate(96.972656 0.9375)"/>
      <use xlink:href="#Cambria-98" transform="translate(150.048828 0.9375)"/>
      <use xlink:href="#Cambria-87" transform="translate(200.439453 0.9375)"/>
      <use xlink:href="#Cambria-86" transform="translate(249.21875 0.9375)"/>
      <use xlink:href="#Cambria-3" transform="translate(304.6875 0.9375)"/>
      <use xlink:href="#Cmmi10-84" transform="translate(326.708984 0.9375)"/>
      <use xlink:href="#Cmsy10-11" transform="translate(391.826229 0.9375)"/>
      <use xlink:href="#Cmr10-31" transform="translate(489.511833 0.9375)"/>
      <use xlink:href="#Cambria-3" transform="translate(539.511833 0.9375)"/>
      <use xlink:href="#Cambria-20b" transform="translate(561.533318 0.9375)"/>
      <use xlink:href="#Cambria-90" transform="translate(599.716911 0.9375)"/>
      <use xlink:href="#Cambria-97" transform="translate(655.527458 0.9375)"/>
      <use xlink:href="#Cambria-8f" transform="translate(710.752068 0.9375)"/>
      <use xlink:href="#Cambria-87" transform="translate(793.955193 0.9375)"/>
      <use xlink:href="#Cambria-94" transform="translate(842.734489 0.9375)"/>
      <use xlink:href="#Cambria-83" transform="translate(884.091911 0.9375)"/>
      <use xlink:href="#Cambria-96" transform="translate(932.920036 0.9375)"/>
      <use xlink:href="#Cambria-91" transform="translate(966.757927 0.9375)"/>
      <use xlink:href="#Cambria-94" transform="translate(1019.834099 0.9375)"/>
      <use xlink:href="#Cambria-3" transform="translate(1061.191521 0.9375)"/>
      <use xlink:href="#Cambria-8e" transform="translate(1083.213005 0.9375)"/>
      <use xlink:href="#Cambria-8b" transform="translate(1110.361443 0.9375)"/>
      <use xlink:href="#Cambria-90" transform="translate(1138.144646 0.9375)"/>
      <use xlink:href="#Cambria-87" transform="translate(1193.955193 0.9375)"/>
      <use xlink:href="#Cambria-95" transform="translate(1242.734489 0.9375)"/>
      <use xlink:href="#Cambria-20c" transform="translate(1285.703239 0.9375)"/>
     </g>
    </g>
    <g id="line2d_33">
     <path d="M 49.74875 50.196738 
L 58.54875 50.196738 
L 67.34875 50.196738 
" style="fill: none; stroke-dasharray: 4.81,2.08; stroke-dashoffset: 0; stroke: #eb6834; stroke-width: 1.3"/>
    </g>
    <g id="text_19">
     <!-- proved $r-3$ (denominator verticals) -->
     <g transform="translate(74.38875 53.276738) scale(0.088 -0.088)">
      <use xlink:href="#Cambria-92" transform="translate(0 0.9375)"/>
      <use xlink:href="#Cambria-94" transform="translate(55.615234 0.9375)"/>
      <use xlink:href="#Cambria-91" transform="translate(96.972656 0.9375)"/>
      <use xlink:href="#Cambria-98" transform="translate(150.048828 0.9375)"/>
      <use xlink:href="#Cambria-87" transform="translate(200.439453 0.9375)"/>
      <use xlink:href="#Cambria-86" transform="translate(249.21875 0.9375)"/>
      <use xlink:href="#Cambria-3" transform="translate(304.6875 0.9375)"/>
      <use xlink:href="#Cmmi10-84" transform="translate(326.708984 0.9375)"/>
      <use xlink:href="#Cmsy10-11" transform="translate(391.826229 0.9375)"/>
      <use xlink:href="#Cmr10-6e" transform="translate(489.511833 0.9375)"/>
      <use xlink:href="#Cambria-3" transform="translate(539.511833 0.9375)"/>
      <use xlink:href="#Cambria-20b" transform="translate(561.533318 0.9375)"/>
      <use xlink:href="#Cambria-86" transform="translate(599.716911 0.9375)"/>
      <use xlink:href="#Cambria-87" transform="translate(655.185661 0.9375)"/>
      <use xlink:href="#Cambria-90" transform="translate(703.964958 0.9375)"/>
      <use xlink:href="#Cambria-91" transform="translate(759.775505 0.9375)"/>
      <use xlink:href="#Cambria-8f" transform="translate(812.851677 0.9375)"/>
      <use xlink:href="#Cambria-8b" transform="translate(896.054802 0.9375)"/>
      <use xlink:href="#Cambria-90" transform="translate(923.838005 0.9375)"/>
      <use xlink:href="#Cambria-83" transform="translate(979.648552 0.9375)"/>
      <use xlink:href="#Cambria-96" transform="translate(1028.476677 0.9375)"/>
      <use xlink:href="#Cambria-91" transform="translate(1062.314568 0.9375)"/>
      <use xlink:href="#Cambria-94" transform="translate(1115.390739 0.9375)"/>
      <use xlink:href="#Cambria-3" transform="translate(1156.748161 0.9375)"/>
      <use xlink:href="#Cambria-98" transform="translate(1178.769646 0.9375)"/>
      <use xlink:href="#Cambria-87" transform="translate(1229.160271 0.9375)"/>
      <use xlink:href="#Cambria-94" transform="translate(1277.939568 0.9375)"/>
      <use xlink:href="#Cambria-96" transform="translate(1319.296989 0.9375)"/>
      <use xlink:href="#Cambria-8b" transform="translate(1353.13488 0.9375)"/>
      <use xlink:href="#Cambria-85" transform="translate(1380.918083 0.9375)"/>
      <use xlink:href="#Cambria-83" transform="translate(1425.00988 0.9375)"/>
      <use xlink:href="#Cambria-8e" transform="translate(1473.838005 0.9375)"/>
      <use xlink:href="#Cambria-95" transform="translate(1500.986443 0.9375)"/>
      <use xlink:href="#Cambria-20c" transform="translate(1543.955193 0.9375)"/>
     </g>
    </g>
    <g id="line2d_34">
     <g>
      <use xlink:href="#mdb7321f895" x="58.54875" y="63.396738" style="fill: #2a78d6; stroke: #2a78d6"/>
     </g>
    </g>
    <g id="text_20">
     <!-- binary-loop count, numerator -->
     <g transform="translate(74.38875 66.476738) scale(0.088 -0.088)">
      <defs>
       <path id="Cambria-9b" d="M 1625 -256 
Q 1453 -644 1290 -884 
Q 1128 -1125 933 -1247 
Q 738 -1369 469 -1369 
Q 297 -1369 81 -1328 
L 81 -709 
L 359 -709 
Q 397 -838 453 -888 
Q 509 -938 616 -938 
Q 709 -938 782 -902 
Q 856 -866 936 -778 
Q 1016 -691 1123 -509 
Q 1231 -328 1366 -50 
L 491 2303 
Q 406 2531 354 2622 
Q 303 2713 243 2759 
Q 184 2806 63 2834 
L 63 2988 
L 1334 2988 
L 1334 2834 
Q 1188 2800 1128 2767 
Q 1069 2734 1041 2682 
Q 1013 2631 1013 2550 
Q 1013 2466 1033 2375 
Q 1053 2284 1097 2163 
L 1653 597 
L 2278 2097 
Q 2331 2222 2361 2326 
Q 2391 2431 2391 2522 
Q 2391 2656 2317 2725 
Q 2244 2794 2063 2834 
L 2063 2988 
L 3231 2988 
L 3231 2834 
Q 3109 2809 3043 2757 
Q 2978 2706 2912 2595 
Q 2847 2484 2756 2284 
L 1625 -256 
z
" transform="scale(0.015625)"/>
      </defs>
      <use xlink:href="#Cambria-84"/>
      <use xlink:href="#Cambria-8b" transform="translate(54.734375 0)"/>
      <use xlink:href="#Cambria-90" transform="translate(82.515625 0)"/>
      <use xlink:href="#Cambria-83" transform="translate(138.328125 0)"/>
      <use xlink:href="#Cambria-94" transform="translate(187.15625 0)"/>
      <use xlink:href="#Cambria-9b" transform="translate(228.515625 0)"/>
      <use xlink:href="#Cambria-1e6" transform="translate(277.4375 0)"/>
      <use xlink:href="#Cambria-8e" transform="translate(310.640625 0)"/>
      <use xlink:href="#Cambria-91" transform="translate(337.796875 0)"/>
      <use xlink:href="#Cambria-91" transform="translate(390.875 0)"/>
      <use xlink:href="#Cambria-92" transform="translate(443.953125 0)"/>
      <use xlink:href="#Cambria-3" transform="translate(499.5625 0)"/>
      <use xlink:href="#Cambria-85" transform="translate(521.578125 0)"/>
      <use xlink:href="#Cambria-91" transform="translate(565.671875 0)"/>
      <use xlink:href="#Cambria-97" transform="translate(618.75 0)"/>
      <use xlink:href="#Cambria-90" transform="translate(673.96875 0)"/>
      <use xlink:href="#Cambria-96" transform="translate(729.78125 0)"/>
      <use xlink:href="#Cambria-1e1" transform="translate(765.09375 0)"/>
      <use xlink:href="#Cambria-3" transform="translate(785.609375 0)"/>
      <use xlink:href="#Cambria-90" transform="translate(807.625 0)"/>
      <use xlink:href="#Cambria-97" transform="translate(863.4375 0)"/>
      <use xlink:href="#Cambria-8f" transform="translate(918.65625 0)"/>
      <use xlink:href="#Cambria-87" transform="translate(1001.859375 0)"/>
      <use xlink:href="#Cambria-94" transform="translate(1050.640625 0)"/>
      <use xlink:href="#Cambria-83" transform="translate(1090.296875 0)"/>
      <use xlink:href="#Cambria-96" transform="translate(1139.125 0)"/>
      <use xlink:href="#Cambria-91" transform="translate(1172.09375 0)"/>
      <use xlink:href="#Cambria-94" transform="translate(1225.171875 0)"/>
     </g>
    </g>
    <g id="line2d_35">
     <g>
      <use xlink:href="#m7fd12e4e6b" x="58.54875" y="76.596738" style="fill: #eb6834; stroke: #eb6834; stroke-linejoin: miter"/>
     </g>
    </g>
    <g id="text_21">
     <!-- binary-loop count, denominator -->
     <g transform="translate(74.38875 79.676738) scale(0.088 -0.088)">
      <use xlink:href="#Cambria-84"/>
      <use xlink:href="#Cambria-8b" transform="translate(54.734375 0)"/>
      <use xlink:href="#Cambria-90" transform="translate(82.515625 0)"/>
      <use xlink:href="#Cambria-83" transform="translate(138.328125 0)"/>
      <use xlink:href="#Cambria-94" transform="translate(187.15625 0)"/>
      <use xlink:href="#Cambria-9b" transform="translate(228.515625 0)"/>
      <use xlink:href="#Cambria-1e6" transform="translate(277.4375 0)"/>
      <use xlink:href="#Cambria-8e" transform="translate(310.640625 0)"/>
      <use xlink:href="#Cambria-91" transform="translate(337.796875 0)"/>
      <use xlink:href="#Cambria-91" transform="translate(390.875 0)"/>
      <use xlink:href="#Cambria-92" transform="translate(443.953125 0)"/>
      <use xlink:href="#Cambria-3" transform="translate(499.5625 0)"/>
      <use xlink:href="#Cambria-85" transform="translate(521.578125 0)"/>
      <use xlink:href="#Cambria-91" transform="translate(565.671875 0)"/>
      <use xlink:href="#Cambria-97" transform="translate(618.75 0)"/>
      <use xlink:href="#Cambria-90" transform="translate(673.96875 0)"/>
      <use xlink:href="#Cambria-96" transform="translate(729.78125 0)"/>
      <use xlink:href="#Cambria-1e1" transform="translate(765.09375 0)"/>
      <use xlink:href="#Cambria-3" transform="translate(785.609375 0)"/>
      <use xlink:href="#Cambria-86" transform="translate(807.625 0)"/>
      <use xlink:href="#Cambria-87" transform="translate(863.09375 0)"/>
      <use xlink:href="#Cambria-90" transform="translate(911.875 0)"/>
      <use xlink:href="#Cambria-91" transform="translate(967.6875 0)"/>
      <use xlink:href="#Cambria-8f" transform="translate(1020.765625 0)"/>
      <use xlink:href="#Cambria-8b" transform="translate(1103.96875 0)"/>
      <use xlink:href="#Cambria-90" transform="translate(1131.75 0)"/>
      <use xlink:href="#Cambria-83" transform="translate(1187.5625 0)"/>
      <use xlink:href="#Cambria-96" transform="translate(1236.390625 0)"/>
      <use xlink:href="#Cambria-91" transform="translate(1269.359375 0)"/>
      <use xlink:href="#Cambria-94" transform="translate(1322.4375 0)"/>
     </g>
    </g>
   </g>
  </g>
 </g>
 <defs>
  <clipPath id="p5293e48c54">
   <rect x="41.82875" y="25.311816" width="362.466016" height="179.954199"/>
  </clipPath>
 </defs>
</svg>
