<?xml version="1.0" encoding="utf-8" standalone="no"?>
<!DOCTYPE svg PUBLIC "-//W3C//DTD SVG 1.1//EN"
  "http://www.w3.org/Graphics/SVG/1.1/DTD/svg11.dtd">
<svg xmlns:xlink="http://www.w3.org/1999/xlink" width="454.694766pt" height="253.2pt" viewBox="0 0 454.694766 253.2" xmlns="http://www.w3.org/2000/svg" version="1.1">
 <metadata>
  <rdf:RDF xmlns:dc="http://purl.org/dc/elements/1.1/" xmlns:cc="http://creativecommons.org/ns#" xmlns:rdf="http://www.w3.org/1999/02/22-rdf-syntax-ns#">
   <cc:Work>
    <dc:type rdf:resource="http://purl.org/dc/dcmitype/StillImage"/>
    <dc:date>2026-07-23T00:56:54.608606</dc:date>
    <dc:format>image/svg+xml</dc:format>
    <dc:creator>
     <cc:Agent>
      <dc:title>Matplotlib v3.11.1, https://matplotlib.org/</dc:title>
     </cc:Agent>
    </dc:creator>
   </cc:Work>
  </rdf:RDF>
 </metadata>
 <defs>
  <style type="text/css">*{stroke-linejoin: round; stroke-linecap: butt}</style>
 </defs>
 <g id="figure_1">
  <g id="patch_1">
   <path d="M 0 253.2 
L 454.694766 253.2 
L 454.694766 0 
L 0 0 
z
" style="fill: #fcfcfb"/>
  </g>
  <g id="axes_1">
   <g id="patch_2">
    <path d="M 41.82875 217.897461 
L 447.494766 217.897461 
L 447.494766 25.311816 
L 41.82875 25.311816 
z
" style="fill: #fcfcfb"/>
   </g>
   <g id="matplotlib.axis_1">
    <g id="xtick_1">
     <g id="line2d_1">
      <path d="M 84.597831 217.897461 
L 84.597831 25.311816 
" clip-path="url(#p57d9577b92)" style="fill: none; stroke: #e1e0d9; stroke-width: 0.7; stroke-linecap: square"/>
     </g>
     <g id="line2d_2">
      <defs>
       <path id="meb9f9ac347" d="M 0 0 
L 0 3.5 
" style="stroke: #898781; stroke-width: 0.8"/>
      </defs>
      <g>
       <use xlink:href="#meb9f9ac347" x="84.597831" y="217.897461" style="fill: #898781; stroke: #898781; stroke-width: 0.8"/>
      </g>
     </g>
     <g id="text_1">
      <!-- $p=43$ -->
      <g style="fill: #52514e" transform="translate(72.537831 232.673584) scale(0.09 -0.09)">
       <defs>
        <path id="Cmmi10-80" d="M -159 -1241 
Q -219 -1241 -219 -1159 
Q -197 -1019 -134 -1019 
Q 66 -1019 145 -983 
Q 225 -947 269 -800 
L 991 2081 
Q 1038 2200 1038 2388 
Q 1038 2663 850 2663 
Q 650 2663 553 2423 
Q 456 2184 366 1819 
Q 366 1778 313 1778 
L 238 1778 
Q 222 1778 203 1801 
Q 184 1825 184 1844 
Q 253 2122 317 2315 
Q 381 2509 517 2668 
Q 653 2828 856 2828 
Q 1075 2828 1240 2704 
Q 1406 2581 1453 2369 
Q 1628 2572 1840 2700 
Q 2053 2828 2278 2828 
Q 2547 2828 2745 2684 
Q 2944 2541 3044 2308 
Q 3144 2075 3144 1806 
Q 3144 1394 2933 953 
Q 2722 513 2361 220 
Q 2000 -72 1588 -72 
Q 1400 -72 1248 34 
Q 1097 141 1013 313 
L 722 -825 
Q 706 -919 703 -934 
Q 703 -1019 1125 -1019 
Q 1191 -1019 1191 -1100 
Q 1169 -1184 1155 -1212 
Q 1141 -1241 1081 -1241 
L -159 -1241 
z
M 1594 97 
Q 1816 97 2006 280 
Q 2197 463 2316 691 
Q 2403 863 2479 1111 
Q 2556 1359 2612 1640 
Q 2669 1922 2669 2088 
Q 2669 2234 2630 2362 
Q 2591 2491 2502 2577 
Q 2413 2663 2266 2663 
Q 2031 2663 1823 2495 
Q 1616 2328 1447 2081 
L 1447 2059 
L 1094 647 
Q 1138 419 1263 258 
Q 1388 97 1594 97 
z
" transform="scale(0.015625)"/>
        <path id="Cmr10-29" d="M 481 850 
Q 428 850 393 890 
Q 359 931 359 978 
Q 359 1031 393 1068 
Q 428 1106 481 1106 
L 4500 1106 
Q 4547 1106 4581 1068 
Q 4616 1031 4616 978 
Q 4616 931 4581 890 
Q 4547 850 4500 850 
L 481 850 
z
M 481 2094 
Q 428 2094 393 2131 
Q 359 2169 359 2222 
Q 359 2269 393 2309 
Q 428 2350 481 2350 
L 4500 2350 
Q 4547 2350 4581 2309 
Q 4616 2269 4616 2222 
Q 4616 2169 4581 2131 
Q 4547 2094 4500 2094 
L 481 2094 
z
" transform="scale(0.015625)"/>
        <path id="Cmr10-3b" d="M 178 1056 
L 178 1281 
L 2156 4231 
Q 2178 4263 2222 4263 
L 2316 4263 
Q 2388 4263 2388 4191 
L 2388 1281 
L 3016 1281 
L 3016 1056 
L 2388 1056 
L 2388 428 
Q 2388 297 2575 261 
Q 2763 225 3009 225 
L 3009 0 
L 1247 0 
L 1247 225 
Q 1494 225 1681 261 
Q 1869 297 1869 428 
L 1869 1056 
L 178 1056 
z
M 391 1281 
L 1906 1281 
L 1906 3547 
L 391 1281 
z
" transform="scale(0.015625)"/>
        <path id="Cmr10-6e" d="M 609 494 
Q 759 275 1012 169 
Q 1266 63 1556 63 
Q 1928 63 2084 380 
Q 2241 697 2241 1100 
Q 2241 1281 2208 1462 
Q 2175 1644 2097 1800 
Q 2019 1956 1883 2050 
Q 1747 2144 1550 2144 
L 1125 2144 
Q 1069 2144 1069 2203 
L 1069 2259 
Q 1069 2309 1125 2309 
L 1478 2338 
Q 1703 2338 1851 2506 
Q 2000 2675 2069 2917 
Q 2138 3159 2138 3378 
Q 2138 3684 1994 3881 
Q 1850 4078 1556 4078 
Q 1313 4078 1091 3986 
Q 869 3894 738 3706 
Q 750 3709 759 3711 
Q 769 3713 781 3713 
Q 925 3713 1022 3613 
Q 1119 3513 1119 3372 
Q 1119 3234 1022 3134 
Q 925 3034 781 3034 
Q 641 3034 541 3134 
Q 441 3234 441 3372 
Q 441 3647 606 3850 
Q 772 4053 1033 4158 
Q 1294 4263 1556 4263 
Q 1750 4263 1965 4205 
Q 2181 4147 2356 4039 
Q 2531 3931 2642 3762 
Q 2753 3594 2753 3378 
Q 2753 3109 2633 2881 
Q 2513 2653 2303 2487 
Q 2094 2322 1844 2241 
Q 2122 2188 2372 2031 
Q 2622 1875 2773 1631 
Q 2925 1388 2925 1106 
Q 2925 753 2731 467 
Q 2538 181 2222 20 
Q 1906 -141 1556 -141 
Q 1256 -141 954 -26 
Q 653 88 461 316 
Q 269 544 269 863 
Q 269 1022 375 1128 
Q 481 1234 641 1234 
Q 744 1234 830 1186 
Q 916 1138 964 1050 
Q 1013 963 1013 863 
Q 1013 706 903 600 
Q 794 494 641 494 
L 609 494 
z
" transform="scale(0.015625)"/>
       </defs>
       <use xlink:href="#Cmmi10-80" transform="translate(0 0.390625)"/>
       <use xlink:href="#Cmr10-29" transform="translate(70.293026 0.390625)"/>
       <use xlink:href="#Cmr10-3b" transform="translate(167.97863 0.390625)"/>
       <use xlink:href="#Cmr10-6e" transform="translate(217.97863 0.390625)"/>
      </g>
      <!-- $r=11$ -->
      <g style="fill: #52514e" transform="translate(72.762831 243.224854) scale(0.09 -0.09)">
       <defs>
        <path id="Cmmi10-84" d="M 494 109 
Q 494 147 500 166 
L 978 2075 
Q 1025 2253 1025 2388 
Q 1025 2663 838 2663 
Q 638 2663 541 2423 
Q 444 2184 353 1819 
Q 353 1800 334 1789 
Q 316 1778 300 1778 
L 225 1778 
Q 203 1778 187 1801 
Q 172 1825 172 1844 
Q 241 2122 305 2315 
Q 369 2509 505 2668 
Q 641 2828 844 2828 
Q 1066 2828 1233 2700 
Q 1400 2572 1441 2363 
Q 1603 2575 1811 2701 
Q 2019 2828 2266 2828 
Q 2469 2828 2623 2709 
Q 2778 2591 2778 2388 
Q 2778 2225 2676 2104 
Q 2575 1984 2406 1984 
Q 2303 1984 2233 2048 
Q 2163 2113 2163 2216 
Q 2163 2356 2266 2467 
Q 2369 2578 2503 2578 
Q 2400 2663 2253 2663 
Q 1978 2663 1775 2467 
Q 1572 2272 1409 1972 
L 953 141 
Q 931 53 854 -9 
Q 778 -72 684 -72 
Q 606 -72 550 -22 
Q 494 28 494 109 
z
" transform="scale(0.015625)"/>
        <path id="Cmr10-64" d="M 594 0 
L 594 225 
Q 1394 225 1394 428 
L 1394 3788 
Q 1063 3628 556 3628 
L 556 3853 
Q 1341 3853 1741 4263 
L 1831 4263 
Q 1853 4263 1873 4245 
Q 1894 4228 1894 4206 
L 1894 428 
Q 1894 225 2694 225 
L 2694 0 
L 594 0 
z
" transform="scale(0.015625)"/>
       </defs>
       <use xlink:href="#Cmmi10-84" transform="translate(0 0.390625)"/>
       <use xlink:href="#Cmr10-29" transform="translate(65.117245 0.390625)"/>
       <use xlink:href="#Cmr10-64" transform="translate(162.802849 0.390625)"/>
       <use xlink:href="#Cmr10-64" transform="translate(212.802849 0.390625)"/>
      </g>
     </g>
    </g>
    <g id="xtick_2">
     <g id="line2d_3">
      <path d="M 148.623402 217.897461 
L 148.623402 25.311816 
" clip-path="url(#p57d9577b92)" style="fill: none; stroke: #e1e0d9; stroke-width: 0.7; stroke-linecap: square"/>
     </g>
     <g id="line2d_4">
      <g>
       <use xlink:href="#meb9f9ac347" x="148.623402" y="217.897461" style="fill: #898781; stroke: #898781; stroke-width: 0.8"/>
      </g>
     </g>
     <g id="text_2">
      <!-- $p=59$ -->
      <g style="fill: #52514e" transform="translate(136.563402 232.673584) scale(0.09 -0.09)">
       <defs>
        <path id="Cmr10-78" d="M 556 728 
Q 622 541 758 387 
Q 894 234 1080 148 
Q 1266 63 1466 63 
Q 1928 63 2103 422 
Q 2278 781 2278 1294 
Q 2278 1516 2270 1667 
Q 2263 1819 2228 1959 
Q 2169 2184 2020 2353 
Q 1872 2522 1656 2522 
Q 1441 2522 1286 2456 
Q 1131 2391 1034 2303 
Q 938 2216 863 2119 
Q 788 2022 769 2016 
L 697 2016 
Q 681 2016 657 2036 
Q 634 2056 634 2075 
L 634 4213 
Q 634 4228 654 4245 
Q 675 4263 697 4263 
L 716 4263 
Q 1147 4056 1631 4056 
Q 2106 4056 2547 4263 
L 2566 4263 
Q 2588 4263 2606 4247 
Q 2625 4231 2625 4213 
L 2625 4153 
Q 2625 4122 2613 4122 
Q 2394 3831 2064 3668 
Q 1734 3506 1381 3506 
Q 1125 3506 856 3578 
L 856 2369 
Q 1069 2541 1236 2614 
Q 1403 2688 1663 2688 
Q 2016 2688 2295 2484 
Q 2575 2281 2725 1954 
Q 2875 1628 2875 1288 
Q 2875 903 2686 575 
Q 2497 247 2172 53 
Q 1847 -141 1466 -141 
Q 1150 -141 886 21 
Q 622 184 470 459 
Q 319 734 319 1044 
Q 319 1188 412 1278 
Q 506 1369 647 1369 
Q 788 1369 883 1276 
Q 978 1184 978 1044 
Q 978 906 883 811 
Q 788 716 647 716 
Q 625 716 597 720 
Q 569 725 556 728 
z
" transform="scale(0.015625)"/>
        <path id="Cmr10-16" d="M 722 269 
Q 897 63 1331 63 
Q 1575 63 1786 228 
Q 1997 394 2113 634 
Q 2247 906 2284 1214 
Q 2322 1522 2322 1978 
Q 2213 1719 2008 1553 
Q 1803 1388 1538 1388 
Q 1166 1388 873 1589 
Q 581 1791 425 2120 
Q 269 2450 269 2822 
Q 269 3206 444 3539 
Q 619 3872 928 4067 
Q 1238 4263 1631 4263 
Q 2019 4263 2280 4052 
Q 2541 3841 2678 3508 
Q 2816 3175 2870 2803 
Q 2925 2431 2925 2069 
Q 2925 1575 2744 1061 
Q 2563 547 2202 203 
Q 1841 -141 1331 -141 
Q 953 -141 690 37 
Q 428 216 428 575 
Q 428 706 517 795 
Q 606 884 738 884 
Q 866 884 955 795 
Q 1044 706 1044 575 
Q 1044 450 953 359 
Q 863 269 738 269 
L 722 269 
z
M 1563 1556 
Q 1825 1556 1992 1732 
Q 2159 1909 2234 2171 
Q 2309 2434 2309 2694 
L 2309 2816 
L 2309 2841 
Q 2309 3322 2168 3700 
Q 2028 4078 1631 4078 
Q 1378 4078 1220 3967 
Q 1063 3856 988 3672 
Q 913 3488 892 3278 
Q 872 3069 872 2822 
Q 872 2459 906 2203 
Q 941 1947 1094 1751 
Q 1247 1556 1563 1556 
z
" transform="scale(0.015625)"/>
       </defs>
       <use xlink:href="#Cmmi10-80" transform="translate(0 0.390625)"/>
       <use xlink:href="#Cmr10-29" transform="translate(70.293026 0.390625)"/>
       <use xlink:href="#Cmr10-78" transform="translate(167.97863 0.390625)"/>
       <use xlink:href="#Cmr10-16" transform="translate(217.97863 0.390625)"/>
      </g>
      <!-- $r=5$ -->
      <g style="fill: #52514e" transform="translate(139.038402 243.224854) scale(0.09 -0.09)">
       <use xlink:href="#Cmmi10-84" transform="translate(0 0.390625)"/>
       <use xlink:href="#Cmr10-29" transform="translate(65.117245 0.390625)"/>
       <use xlink:href="#Cmr10-78" transform="translate(162.802849 0.390625)"/>
      </g>
     </g>
    </g>
    <g id="xtick_3">
     <g id="line2d_5">
      <path d="M 212.648972 217.897461 
L 212.648972 25.311816 
" clip-path="url(#p57d9577b92)" style="fill: none; stroke: #e1e0d9; stroke-width: 0.7; stroke-linecap: square"/>
     </g>
     <g id="line2d_6">
      <g>
       <use xlink:href="#meb9f9ac347" x="212.648972" y="217.897461" style="fill: #898781; stroke: #898781; stroke-width: 0.8"/>
      </g>
     </g>
     <g id="text_3">
      <!-- $p=83$ -->
      <g style="fill: #52514e" transform="translate(200.588972 232.673584) scale(0.09 -0.09)">
       <defs>
        <path id="Cmr10-4d" d="M 269 972 
Q 269 1356 522 1651 
Q 775 1947 1172 2144 
L 934 2297 
Q 716 2441 578 2680 
Q 441 2919 441 3181 
Q 441 3488 602 3734 
Q 763 3981 1030 4122 
Q 1297 4263 1600 4263 
Q 1884 4263 2148 4147 
Q 2413 4031 2583 3815 
Q 2753 3600 2753 3303 
Q 2753 3088 2651 2903 
Q 2550 2719 2373 2572 
Q 2197 2425 1997 2322 
L 2363 2088 
Q 2616 1922 2770 1653 
Q 2925 1384 2925 1088 
Q 2925 741 2739 456 
Q 2553 172 2247 15 
Q 1941 -141 1600 -141 
Q 1269 -141 961 -6 
Q 653 128 461 383 
Q 269 638 269 972 
z
M 616 972 
Q 616 719 755 509 
Q 894 300 1122 181 
Q 1350 63 1600 63 
Q 1972 63 2275 280 
Q 2578 497 2578 856 
Q 2578 978 2529 1098 
Q 2481 1219 2395 1317 
Q 2309 1416 2203 1478 
L 1344 2034 
Q 1144 1928 976 1765 
Q 809 1603 712 1400 
Q 616 1197 616 972 
z
M 1056 2925 
L 1831 2425 
Q 2100 2581 2272 2803 
Q 2444 3025 2444 3303 
Q 2444 3519 2323 3698 
Q 2203 3878 2009 3978 
Q 1816 4078 1594 4078 
Q 1400 4078 1203 4003 
Q 1006 3928 878 3779 
Q 750 3631 750 3431 
Q 750 3131 1056 2925 
z
" transform="scale(0.015625)"/>
       </defs>
       <use xlink:href="#Cmmi10-80" transform="translate(0 0.390625)"/>
       <use xlink:href="#Cmr10-29" transform="translate(70.293026 0.390625)"/>
       <use xlink:href="#Cmr10-4d" transform="translate(167.97863 0.390625)"/>
       <use xlink:href="#Cmr10-6e" transform="translate(217.97863 0.390625)"/>
      </g>
      <!-- $r=7$ -->
      <g style="fill: #52514e" transform="translate(203.063972 243.224854) scale(0.09 -0.09)">
       <defs>
        <path id="Cmr10-7f" d="M 1113 166 
Q 1113 522 1175 862 
Q 1238 1203 1358 1536 
Q 1478 1869 1648 2189 
Q 1819 2509 2022 2791 
L 2606 3603 
L 1875 3603 
Q 738 3603 703 3572 
Q 619 3469 544 2981 
L 359 2981 
L 569 4325 
L 756 4325 
L 756 4306 
Q 756 4191 1147 4156 
Q 1538 4122 1913 4122 
L 3103 4122 
L 3103 3956 
Q 3103 3950 3101 3947 
Q 3100 3944 3097 3938 
L 2216 2700 
Q 1891 2219 1809 1631 
Q 1728 1044 1728 166 
Q 1728 41 1637 -50 
Q 1547 -141 1422 -141 
Q 1294 -141 1203 -50 
Q 1113 41 1113 166 
z
" transform="scale(0.015625)"/>
       </defs>
       <use xlink:href="#Cmmi10-84" transform="translate(0 0.421875)"/>
       <use xlink:href="#Cmr10-29" transform="translate(65.117245 0.421875)"/>
       <use xlink:href="#Cmr10-7f" transform="translate(162.802849 0.421875)"/>
      </g>
     </g>
    </g>
    <g id="xtick_4">
     <g id="line2d_7">
      <path d="M 276.674543 217.897461 
L 276.674543 25.311816 
" clip-path="url(#p57d9577b92)" style="fill: none; stroke: #e1e0d9; stroke-width: 0.7; stroke-linecap: square"/>
     </g>
     <g id="line2d_8">
      <g>
       <use xlink:href="#meb9f9ac347" x="276.674543" y="217.897461" style="fill: #898781; stroke: #898781; stroke-width: 0.8"/>
      </g>
     </g>
     <g id="text_4">
      <!-- $p=103$ -->
      <g style="fill: #52514e" transform="translate(262.364543 232.673584) scale(0.09 -0.09)">
       <defs>
        <path id="Cmr10-28" d="M 1600 -141 
Q 816 -141 533 504 
Q 250 1150 250 2041 
Q 250 2597 351 3087 
Q 453 3578 754 3920 
Q 1056 4263 1600 4263 
Q 2022 4263 2290 4056 
Q 2559 3850 2700 3523 
Q 2841 3197 2892 2823 
Q 2944 2450 2944 2041 
Q 2944 1491 2842 1011 
Q 2741 531 2444 195 
Q 2147 -141 1600 -141 
z
M 1600 25 
Q 1956 25 2131 390 
Q 2306 756 2347 1200 
Q 2388 1644 2388 2144 
Q 2388 2625 2347 3031 
Q 2306 3438 2132 3767 
Q 1959 4097 1600 4097 
Q 1238 4097 1063 3765 
Q 888 3434 847 3029 
Q 806 2625 806 2144 
Q 806 1788 823 1472 
Q 841 1156 916 820 
Q 991 484 1158 254 
Q 1325 25 1600 25 
z
" transform="scale(0.015625)"/>
       </defs>
       <use xlink:href="#Cmmi10-80" transform="translate(0 0.390625)"/>
       <use xlink:href="#Cmr10-29" transform="translate(70.293026 0.390625)"/>
       <use xlink:href="#Cmr10-64" transform="translate(167.97863 0.390625)"/>
       <use xlink:href="#Cmr10-28" transform="translate(217.97863 0.390625)"/>
       <use xlink:href="#Cmr10-6e" transform="translate(267.97863 0.390625)"/>
      </g>
      <!-- $r=13$ -->
      <g style="fill: #52514e" transform="translate(264.839543 243.224854) scale(0.09 -0.09)">
       <use xlink:href="#Cmmi10-84" transform="translate(0 0.390625)"/>
       <use xlink:href="#Cmr10-29" transform="translate(65.117245 0.390625)"/>
       <use xlink:href="#Cmr10-64" transform="translate(162.802849 0.390625)"/>
       <use xlink:href="#Cmr10-6e" transform="translate(212.802849 0.390625)"/>
      </g>
     </g>
    </g>
    <g id="xtick_5">
     <g id="line2d_9">
      <path d="M 340.700114 217.897461 
L 340.700114 25.311816 
" clip-path="url(#p57d9577b92)" style="fill: none; stroke: #e1e0d9; stroke-width: 0.7; stroke-linecap: square"/>
     </g>
     <g id="line2d_10">
      <g>
       <use xlink:href="#meb9f9ac347" x="340.700114" y="217.897461" style="fill: #898781; stroke: #898781; stroke-width: 0.8"/>
      </g>
     </g>
     <g id="text_5">
      <!-- $p=131$ -->
      <g style="fill: #52514e" transform="translate(326.390114 232.673584) scale(0.09 -0.09)">
       <use xlink:href="#Cmmi10-80" transform="translate(0 0.390625)"/>
       <use xlink:href="#Cmr10-29" transform="translate(70.293026 0.390625)"/>
       <use xlink:href="#Cmr10-64" transform="translate(167.97863 0.390625)"/>
       <use xlink:href="#Cmr10-6e" transform="translate(217.97863 0.390625)"/>
       <use xlink:href="#Cmr10-64" transform="translate(267.97863 0.390625)"/>
      </g>
      <!-- $r=11$ -->
      <g style="fill: #52514e" transform="translate(328.865114 243.224854) scale(0.09 -0.09)">
       <use xlink:href="#Cmmi10-84" transform="translate(0 0.390625)"/>
       <use xlink:href="#Cmr10-29" transform="translate(65.117245 0.390625)"/>
       <use xlink:href="#Cmr10-64" transform="translate(162.802849 0.390625)"/>
       <use xlink:href="#Cmr10-64" transform="translate(212.802849 0.390625)"/>
      </g>
     </g>
    </g>
    <g id="xtick_6">
     <g id="line2d_11">
      <path d="M 404.725684 217.897461 
L 404.725684 25.311816 
" clip-path="url(#p57d9577b92)" style="fill: none; stroke: #e1e0d9; stroke-width: 0.7; stroke-linecap: square"/>
     </g>
     <g id="line2d_12">
      <g>
       <use xlink:href="#meb9f9ac347" x="404.725684" y="217.897461" style="fill: #898781; stroke: #898781; stroke-width: 0.8"/>
      </g>
     </g>
     <g id="text_6">
      <!-- $p=163$ -->
      <g style="fill: #52514e" transform="translate(390.415684 232.673584) scale(0.09 -0.09)">
       <defs>
        <path id="Cmr10-45" d="M 1600 -141 
Q 1203 -141 937 70 
Q 672 281 526 617 
Q 381 953 325 1322 
Q 269 1691 269 2069 
Q 269 2575 466 3084 
Q 663 3594 1045 3928 
Q 1428 4263 1953 4263 
Q 2172 4263 2361 4180 
Q 2550 4097 2658 3936 
Q 2766 3775 2766 3547 
Q 2766 3416 2677 3327 
Q 2588 3238 2456 3238 
Q 2331 3238 2240 3328 
Q 2150 3419 2150 3547 
Q 2150 3672 2240 3762 
Q 2331 3853 2456 3853 
L 2491 3853 
Q 2409 3969 2261 4023 
Q 2113 4078 1953 4078 
Q 1759 4078 1595 3993 
Q 1431 3909 1300 3765 
Q 1169 3622 1081 3448 
Q 994 3275 945 3053 
Q 897 2831 884 2637 
Q 872 2444 872 2150 
Q 984 2413 1190 2580 
Q 1397 2747 1656 2747 
Q 1941 2747 2175 2631 
Q 2409 2516 2578 2311 
Q 2747 2106 2836 1843 
Q 2925 1581 2925 1313 
Q 2925 938 2758 598 
Q 2591 259 2287 59 
Q 1984 -141 1600 -141 
z
M 1600 63 
Q 1847 63 1997 175 
Q 2147 288 2217 473 
Q 2288 659 2305 848 
Q 2322 1038 2322 1313 
Q 2322 1675 2287 1931 
Q 2253 2188 2100 2383 
Q 1947 2578 1631 2578 
Q 1372 2578 1205 2403 
Q 1038 2228 961 1961 
Q 884 1694 884 1447 
Q 884 1363 891 1319 
Q 891 1309 889 1303 
Q 888 1297 884 1288 
Q 884 1013 940 731 
Q 997 450 1156 256 
Q 1316 63 1600 63 
z
" transform="scale(0.015625)"/>
       </defs>
       <use xlink:href="#Cmmi10-80" transform="translate(0 0.390625)"/>
       <use xlink:href="#Cmr10-29" transform="translate(70.293026 0.390625)"/>
       <use xlink:href="#Cmr10-64" transform="translate(167.97863 0.390625)"/>
       <use xlink:href="#Cmr10-45" transform="translate(217.97863 0.390625)"/>
       <use xlink:href="#Cmr10-6e" transform="translate(267.97863 0.390625)"/>
      </g>
      <!-- $r=41$ -->
      <g style="fill: #52514e" transform="translate(392.890684 243.224854) scale(0.09 -0.09)">
       <use xlink:href="#Cmmi10-84" transform="translate(0 0.390625)"/>
       <use xlink:href="#Cmr10-29" transform="translate(65.117245 0.390625)"/>
       <use xlink:href="#Cmr10-3b" transform="translate(162.802849 0.390625)"/>
       <use xlink:href="#Cmr10-64" transform="translate(212.802849 0.390625)"/>
      </g>
     </g>
    </g>
   </g>
   <g id="matplotlib.axis_2">
    <g id="ytick_1">
     <g id="line2d_13">
      <path d="M 41.82875 217.897461 
L 447.494766 217.897461 
" clip-path="url(#p57d9577b92)" style="fill: none; stroke: #e1e0d9; stroke-width: 0.7; stroke-linecap: square"/>
     </g>
     <g id="line2d_14">
      <defs>
       <path id="m8e3574f9b4" d="M 0 0 
L -3.5 0 
" style="stroke: #898781; stroke-width: 0.8"/>
      </defs>
      <g>
       <use xlink:href="#m8e3574f9b4" x="41.82875" y="217.897461" style="fill: #898781; stroke: #898781; stroke-width: 0.8"/>
      </g>
     </g>
     <g id="text_7">
      <!-- 0 -->
      <g style="fill: #52514e" transform="translate(29.014375 221.981079) scale(0.105 -0.105)">
       <defs>
        <path id="Cambria-372" d="M 1738 -50 
Q 1063 -50 733 481 
Q 403 1013 403 2094 
Q 403 2669 504 3087 
Q 606 3506 789 3779 
Q 972 4053 1228 4184 
Q 1484 4316 1788 4316 
Q 2472 4316 2806 3787 
Q 3141 3259 3141 2191 
Q 3141 1084 2783 517 
Q 2425 -50 1738 -50 
z
M 1013 2188 
Q 1013 1169 1202 692 
Q 1391 216 1788 216 
Q 2166 216 2348 664 
Q 2531 1113 2531 2053 
Q 2531 2772 2437 3217 
Q 2344 3663 2176 3856 
Q 2009 4050 1772 4050 
Q 1556 4050 1411 3922 
Q 1266 3794 1177 3553 
Q 1088 3313 1050 2967 
Q 1013 2622 1013 2188 
z
" transform="scale(0.015625)"/>
       </defs>
       <use xlink:href="#Cambria-372"/>
      </g>
     </g>
    </g>
    <g id="ytick_2">
     <g id="line2d_15">
      <path d="M 41.82875 189.354314 
L 447.494766 189.354314 
" clip-path="url(#p57d9577b92)" style="fill: none; stroke: #e1e0d9; stroke-width: 0.7; stroke-linecap: square"/>
     </g>
     <g id="line2d_16">
      <g>
       <use xlink:href="#m8e3574f9b4" x="41.82875" y="189.354314" style="fill: #898781; stroke: #898781; stroke-width: 0.8"/>
      </g>
     </g>
     <g id="text_8">
      <!-- 10 -->
      <g style="fill: #52514e" transform="translate(23.2 193.437932) scale(0.105 -0.105)">
       <defs>
        <path id="Cambria-373" d="M 2172 816 
Q 2172 634 2192 542 
Q 2213 450 2264 392 
Q 2316 334 2412 301 
Q 2509 269 2656 251 
Q 2803 234 3044 228 
L 3044 0 
L 734 0 
L 734 228 
Q 1081 244 1229 270 
Q 1378 297 1456 350 
Q 1534 403 1570 500 
Q 1606 597 1606 816 
L 1606 3350 
Q 1606 3475 1562 3533 
Q 1519 3591 1434 3591 
Q 1334 3591 1150 3487 
Q 966 3384 694 3203 
L 556 3444 
L 2019 4316 
L 2191 4316 
Q 2172 4016 2172 3484 
L 2172 816 
z
" transform="scale(0.015625)"/>
       </defs>
       <use xlink:href="#Cambria-373"/>
       <use xlink:href="#Cambria-372" transform="translate(55.375 0)"/>
      </g>
     </g>
    </g>
    <g id="ytick_3">
     <g id="line2d_17">
      <path d="M 41.82875 160.811167 
L 447.494766 160.811167 
" clip-path="url(#p57d9577b92)" style="fill: none; stroke: #e1e0d9; stroke-width: 0.7; stroke-linecap: square"/>
     </g>
     <g id="line2d_18">
      <g>
       <use xlink:href="#m8e3574f9b4" x="41.82875" y="160.811167" style="fill: #898781; stroke: #898781; stroke-width: 0.8"/>
      </g>
     </g>
     <g id="text_9">
      <!-- 20 -->
      <g style="fill: #52514e" transform="translate(23.2 164.894785) scale(0.105 -0.105)">
       <defs>
        <path id="Cambria-374" d="M 2194 500 
Q 2347 500 2440 519 
Q 2534 538 2590 581 
Q 2647 625 2680 695 
Q 2713 766 2763 913 
L 3028 913 
L 2975 0 
L 403 0 
L 403 150 
Q 538 478 766 822 
Q 994 1166 1413 1631 
Q 1775 2031 1934 2238 
Q 2109 2463 2195 2627 
Q 2281 2791 2318 2936 
Q 2356 3081 2356 3228 
Q 2356 3463 2281 3642 
Q 2206 3822 2051 3925 
Q 1897 4028 1663 4028 
Q 1078 4028 875 3378 
L 497 3378 
L 497 3978 
Q 875 4156 1204 4236 
Q 1534 4316 1797 4316 
Q 2378 4316 2675 4061 
Q 2972 3806 2972 3322 
Q 2972 3156 2939 3017 
Q 2906 2878 2836 2742 
Q 2766 2606 2647 2450 
Q 2528 2294 2384 2133 
Q 2241 1972 1888 1597 
Q 1294 969 1016 500 
L 2194 500 
z
" transform="scale(0.015625)"/>
       </defs>
       <use xlink:href="#Cambria-374"/>
       <use xlink:href="#Cambria-372" transform="translate(55.375 0)"/>
      </g>
     </g>
    </g>
    <g id="ytick_4">
     <g id="line2d_19">
      <path d="M 41.82875 132.26802 
L 447.494766 132.26802 
" clip-path="url(#p57d9577b92)" style="fill: none; stroke: #e1e0d9; stroke-width: 0.7; stroke-linecap: square"/>
     </g>
     <g id="line2d_20">
      <g>
       <use xlink:href="#m8e3574f9b4" x="41.82875" y="132.26802" style="fill: #898781; stroke: #898781; stroke-width: 0.8"/>
      </g>
     </g>
     <g id="text_10">
      <!-- 30 -->
      <g style="fill: #52514e" transform="translate(23.2 136.351638) scale(0.105 -0.105)">
       <defs>
        <path id="Cambria-375" d="M 497 3381 
L 497 3975 
Q 859 4147 1175 4231 
Q 1491 4316 1784 4316 
Q 2138 4316 2403 4206 
Q 2669 4097 2809 3892 
Q 2950 3688 2950 3403 
Q 2950 3138 2844 2936 
Q 2738 2734 2545 2584 
Q 2353 2434 2047 2291 
L 2047 2263 
Q 2238 2228 2414 2145 
Q 2591 2063 2728 1931 
Q 2866 1800 2948 1617 
Q 3031 1434 3031 1200 
Q 3031 838 2873 556 
Q 2716 275 2391 112 
Q 2066 -50 1600 -50 
Q 1331 -50 1020 11 
Q 709 72 450 172 
L 450 834 
L 825 834 
Q 934 509 1114 362 
Q 1294 216 1603 216 
Q 2009 216 2217 437 
Q 2425 659 2425 1094 
Q 2425 1550 2150 1790 
Q 1875 2031 1344 2031 
L 1063 2031 
L 1063 2306 
Q 1484 2331 1773 2468 
Q 2063 2606 2203 2822 
Q 2344 3038 2344 3306 
Q 2344 3653 2159 3840 
Q 1975 4028 1622 4028 
Q 1328 4028 1143 3868 
Q 959 3709 872 3381 
L 497 3381 
z
" transform="scale(0.015625)"/>
       </defs>
       <use xlink:href="#Cambria-375"/>
       <use xlink:href="#Cambria-372" transform="translate(55.375 0)"/>
      </g>
     </g>
    </g>
    <g id="ytick_5">
     <g id="line2d_21">
      <path d="M 41.82875 103.724872 
L 447.494766 103.724872 
" clip-path="url(#p57d9577b92)" style="fill: none; stroke: #e1e0d9; stroke-width: 0.7; stroke-linecap: square"/>
     </g>
     <g id="line2d_22">
      <g>
       <use xlink:href="#m8e3574f9b4" x="41.82875" y="103.724872" style="fill: #898781; stroke: #898781; stroke-width: 0.8"/>
      </g>
     </g>
     <g id="text_11">
      <!-- 40 -->
      <g style="fill: #52514e" transform="translate(23.2 107.808491) scale(0.105 -0.105)">
       <defs>
        <path id="Cambria-376" d="M 1613 153 
Q 1806 203 1872 264 
Q 1938 325 1958 437 
Q 1978 550 1978 781 
L 1978 1294 
L 241 1294 
L 241 1528 
L 2069 4288 
L 2516 4288 
L 2516 1597 
L 2581 1597 
Q 2763 1597 2841 1623 
Q 2919 1650 2970 1717 
Q 3022 1784 3066 1938 
L 3303 1938 
L 3266 1294 
L 2516 1294 
L 2516 781 
Q 2516 572 2530 475 
Q 2544 378 2576 322 
Q 2609 266 2673 228 
Q 2738 191 2881 153 
L 2881 0 
L 1613 0 
L 1613 153 
z
M 756 1597 
L 1978 1597 
L 1978 2375 
Q 1978 2669 1987 3033 
Q 1997 3397 2009 3581 
L 1978 3581 
L 756 1641 
L 756 1597 
z
" transform="scale(0.015625)"/>
       </defs>
       <use xlink:href="#Cambria-376"/>
       <use xlink:href="#Cambria-372" transform="translate(55.375 0)"/>
      </g>
     </g>
    </g>
    <g id="ytick_6">
     <g id="line2d_23">
      <path d="M 41.82875 75.181725 
L 447.494766 75.181725 
" clip-path="url(#p57d9577b92)" style="fill: none; stroke: #e1e0d9; stroke-width: 0.7; stroke-linecap: square"/>
     </g>
     <g id="line2d_24">
      <g>
       <use xlink:href="#m8e3574f9b4" x="41.82875" y="75.181725" style="fill: #898781; stroke: #898781; stroke-width: 0.8"/>
      </g>
     </g>
     <g id="text_12">
      <!-- 50 -->
      <g style="fill: #52514e" transform="translate(23.2 79.265343) scale(0.105 -0.105)">
       <defs>
        <path id="Cambria-377" d="M 469 172 
L 469 834 
L 847 834 
Q 941 516 1130 366 
Q 1319 216 1619 216 
Q 2034 216 2246 466 
Q 2459 716 2459 1213 
Q 2459 1544 2346 1761 
Q 2234 1978 2043 2075 
Q 1853 2172 1600 2172 
Q 1388 2172 1234 2145 
Q 1081 2119 906 2063 
L 656 2209 
L 656 4266 
L 2378 4266 
Q 2484 4266 2531 4283 
Q 2578 4300 2606 4336 
Q 2634 4372 2672 4472 
L 2916 4472 
L 2869 3747 
L 1072 3747 
L 1072 2375 
Q 1234 2444 1425 2478 
Q 1616 2513 1806 2513 
Q 2178 2513 2465 2361 
Q 2753 2209 2909 1929 
Q 3066 1650 3066 1281 
Q 3066 863 2891 563 
Q 2716 263 2384 106 
Q 2053 -50 1600 -50 
Q 1059 -50 469 172 
z
" transform="scale(0.015625)"/>
       </defs>
       <use xlink:href="#Cambria-377"/>
       <use xlink:href="#Cambria-372" transform="translate(55.375 0)"/>
      </g>
     </g>
    </g>
    <g id="ytick_7">
     <g id="line2d_25">
      <path d="M 41.82875 46.638578 
L 447.494766 46.638578 
" clip-path="url(#p57d9577b92)" style="fill: none; stroke: #e1e0d9; stroke-width: 0.7; stroke-linecap: square"/>
     </g>
     <g id="line2d_26">
      <g>
       <use xlink:href="#m8e3574f9b4" x="41.82875" y="46.638578" style="fill: #898781; stroke: #898781; stroke-width: 0.8"/>
      </g>
     </g>
     <g id="text_13">
      <!-- 60 -->
      <g style="fill: #52514e" transform="translate(23.2 50.722196) scale(0.105 -0.105)">
       <defs>
        <path id="Cambria-378" d="M 2847 4144 
L 2847 3991 
Q 2366 3991 1994 3784 
Q 1622 3578 1376 3178 
Q 1131 2778 1031 2228 
L 1063 2216 
Q 1325 2403 1579 2490 
Q 1834 2578 2131 2578 
Q 2484 2578 2732 2423 
Q 2981 2269 3106 1989 
Q 3231 1709 3231 1334 
Q 3231 928 3075 617 
Q 2919 306 2592 128 
Q 2266 -50 1788 -50 
Q 1103 -50 754 375 
Q 406 800 406 1628 
Q 406 2184 581 2668 
Q 756 3153 1078 3514 
Q 1400 3875 1825 4083 
Q 2250 4291 2719 4316 
L 2847 4144 
z
M 1916 2250 
Q 1763 2250 1620 2215 
Q 1478 2181 1353 2115 
Q 1228 2050 1109 1950 
Q 1072 1916 1053 1878 
Q 1022 1819 1012 1731 
Q 1003 1644 1003 1438 
Q 1003 841 1203 528 
Q 1403 216 1809 216 
Q 2044 216 2203 297 
Q 2363 378 2461 520 
Q 2559 663 2601 855 
Q 2644 1047 2644 1272 
Q 2644 1734 2453 1992 
Q 2263 2250 1916 2250 
z
" transform="scale(0.015625)"/>
       </defs>
       <use xlink:href="#Cambria-378"/>
       <use xlink:href="#Cambria-372" transform="translate(55.375 0)"/>
      </g>
     </g>
    </g>
    <g id="text_14">
     <!-- mean time per raw target (ms) -->
     <g style="fill: #0b0b0b" transform="translate(16.533984 200.121201) rotate(-90) scale(0.12 -0.12)">
      <defs>
       <path id="Cambria-8f" d="M 1147 2506 
L 1191 2494 
Q 1378 2681 1498 2776 
Q 1619 2872 1731 2930 
Q 1844 2988 1942 3013 
Q 2041 3038 2144 3038 
Q 2456 3038 2653 2894 
Q 2850 2750 2925 2453 
Q 3159 2691 3304 2803 
Q 3450 2916 3601 2977 
Q 3753 3038 3928 3038 
Q 4138 3038 4289 2977 
Q 4441 2916 4545 2789 
Q 4650 2663 4698 2472 
Q 4747 2281 4747 1959 
L 4747 781 
Q 4747 544 4762 453 
Q 4778 363 4808 313 
Q 4838 263 4897 227 
Q 4956 191 5097 153 
L 5097 0 
L 3869 0 
L 3869 153 
Q 3991 191 4044 219 
Q 4097 247 4133 297 
Q 4169 347 4189 451 
Q 4209 556 4209 769 
L 4209 1588 
Q 4209 1853 4195 2026 
Q 4181 2200 4151 2303 
Q 4122 2406 4080 2465 
Q 4038 2525 3984 2569 
Q 3931 2613 3859 2638 
Q 3788 2663 3669 2663 
Q 3544 2663 3436 2613 
Q 3328 2563 3201 2444 
Q 3075 2325 3019 2204 
Q 2963 2084 2963 1922 
L 2963 781 
Q 2963 544 2978 453 
Q 2994 363 3023 313 
Q 3053 263 3112 227 
Q 3172 191 3313 153 
L 3313 0 
L 2084 0 
L 2084 153 
Q 2206 191 2259 219 
Q 2313 247 2348 297 
Q 2384 347 2404 451 
Q 2425 556 2425 769 
L 2425 1588 
Q 2425 1866 2409 2041 
Q 2394 2216 2361 2322 
Q 2328 2428 2276 2493 
Q 2225 2559 2172 2593 
Q 2119 2628 2047 2645 
Q 1975 2663 1884 2663 
Q 1756 2663 1643 2605 
Q 1531 2547 1414 2437 
Q 1297 2328 1237 2209 
Q 1178 2091 1178 1953 
L 1178 781 
Q 1178 603 1187 509 
Q 1197 416 1217 362 
Q 1238 309 1269 276 
Q 1300 244 1358 214 
Q 1416 184 1531 153 
L 1531 0 
L 306 0 
L 306 153 
Q 425 191 476 219 
Q 528 247 565 297 
Q 603 347 622 450 
Q 641 553 641 772 
L 641 2134 
Q 641 2334 634 2456 
Q 628 2578 590 2651 
Q 553 2725 476 2761 
Q 400 2797 259 2822 
L 259 2988 
L 991 3016 
L 1181 3016 
L 1147 2506 
z
" transform="scale(0.015625)"/>
       <path id="Cambria-87" d="M 2800 531 
Q 2600 322 2433 203 
Q 2266 84 2066 17 
Q 1866 -50 1625 -50 
Q 981 -50 653 336 
Q 325 722 325 1475 
Q 325 1941 492 2297 
Q 659 2653 968 2847 
Q 1278 3041 1681 3041 
Q 1997 3041 2219 2941 
Q 2441 2841 2573 2667 
Q 2706 2494 2779 2230 
Q 2853 1966 2863 1541 
L 894 1541 
L 894 1484 
Q 894 1116 976 864 
Q 1059 613 1248 470 
Q 1438 328 1741 328 
Q 1997 328 2201 423 
Q 2406 519 2609 734 
L 2800 531 
z
M 2275 1800 
Q 2256 2138 2190 2352 
Q 2125 2566 1994 2680 
Q 1863 2794 1650 2794 
Q 1328 2794 1136 2536 
Q 944 2278 909 1800 
L 2275 1800 
z
" transform="scale(0.015625)"/>
       <path id="Cambria-83" d="M 2109 447 
L 2063 459 
Q 1791 181 1552 65 
Q 1313 -50 1044 -50 
Q 806 -50 625 42 
Q 444 134 347 301 
Q 250 469 250 688 
Q 250 1144 701 1392 
Q 1153 1641 2056 1681 
L 2056 1884 
Q 2056 2209 1993 2396 
Q 1931 2584 1797 2671 
Q 1663 2759 1438 2759 
Q 1194 2759 1045 2631 
Q 897 2503 822 2247 
L 413 2247 
L 413 2653 
Q 713 2809 913 2882 
Q 1113 2956 1313 2998 
Q 1513 3041 1719 3041 
Q 2028 3041 2215 2942 
Q 2403 2844 2497 2641 
Q 2591 2438 2591 2028 
L 2591 941 
Q 2591 709 2594 614 
Q 2597 519 2612 437 
Q 2628 356 2659 307 
Q 2691 259 2752 225 
Q 2813 191 2950 153 
L 2950 0 
L 2094 0 
L 2109 447 
z
M 2056 1425 
Q 1422 1419 1106 1256 
Q 791 1094 791 766 
Q 791 588 862 484 
Q 934 381 1043 342 
Q 1153 303 1303 303 
Q 1516 303 1689 406 
Q 1863 509 1959 668 
Q 2056 828 2056 984 
L 2056 1425 
z
" transform="scale(0.015625)"/>
       <path id="Cambria-90" d="M 3347 0 
L 2116 0 
L 2116 153 
Q 2238 191 2291 219 
Q 2344 247 2380 297 
Q 2416 347 2436 451 
Q 2456 556 2456 769 
L 2456 1588 
Q 2456 1806 2443 1984 
Q 2431 2163 2401 2277 
Q 2372 2391 2330 2455 
Q 2288 2519 2230 2564 
Q 2172 2609 2097 2636 
Q 2022 2663 1900 2663 
Q 1778 2663 1668 2614 
Q 1559 2566 1428 2447 
Q 1297 2328 1237 2212 
Q 1178 2097 1178 1947 
L 1178 781 
Q 1178 513 1203 408 
Q 1228 303 1298 248 
Q 1369 194 1528 153 
L 1528 0 
L 303 0 
L 303 153 
Q 425 191 476 219 
Q 528 247 564 297 
Q 600 347 620 450 
Q 641 553 641 772 
L 641 2134 
Q 641 2334 634 2456 
Q 628 2578 590 2651 
Q 553 2725 476 2761 
Q 400 2797 259 2822 
L 259 2988 
L 991 3016 
L 1181 3016 
L 1147 2506 
L 1191 2494 
Q 1422 2728 1564 2828 
Q 1706 2928 1851 2983 
Q 1997 3038 2159 3038 
Q 2328 3038 2461 2998 
Q 2594 2959 2695 2878 
Q 2797 2797 2862 2676 
Q 2928 2556 2961 2387 
Q 2994 2219 2994 1959 
L 2994 781 
Q 2994 566 3006 469 
Q 3019 372 3050 319 
Q 3081 266 3140 230 
Q 3200 194 3347 153 
L 3347 0 
z
" transform="scale(0.015625)"/>
       <path id="Cambria-3" transform="scale(0.015625)"/>
       <path id="Cambria-96" d="M 116 2831 
Q 272 2856 369 2918 
Q 466 2981 520 3079 
Q 575 3178 606 3326 
Q 638 3475 672 3759 
L 1116 3759 
L 1116 2988 
L 2125 2988 
L 2125 2672 
L 1116 2672 
L 1116 1281 
Q 1116 978 1141 798 
Q 1166 619 1234 517 
Q 1303 416 1390 372 
Q 1478 328 1616 328 
Q 1741 328 1850 379 
Q 1959 431 2066 528 
L 2206 359 
Q 1984 144 1786 47 
Q 1588 -50 1375 -50 
Q 972 -50 775 189 
Q 578 428 578 938 
L 578 2672 
L 116 2672 
L 116 2831 
z
" transform="scale(0.015625)"/>
       <path id="Cambria-8b" d="M 1197 4213 
L 1197 3606 
L 622 3606 
L 622 4213 
L 1197 4213 
z
M 303 153 
Q 425 191 476 219 
Q 528 247 564 297 
Q 600 347 620 450 
Q 641 553 641 772 
L 641 2134 
Q 641 2334 634 2456 
Q 628 2578 590 2651 
Q 553 2725 476 2761 
Q 400 2797 259 2822 
L 259 2988 
L 988 3016 
L 1178 3016 
L 1178 781 
Q 1178 513 1203 408 
Q 1228 303 1298 248 
Q 1369 194 1528 153 
L 1528 0 
L 303 0 
L 303 153 
z
" transform="scale(0.015625)"/>
       <path id="Cambria-92" d="M 1150 94 
L 1150 -566 
Q 1150 -769 1164 -869 
Q 1178 -969 1214 -1026 
Q 1250 -1084 1317 -1121 
Q 1384 -1159 1534 -1191 
L 1534 -1344 
L 259 -1344 
L 259 -1191 
Q 372 -1159 442 -1126 
Q 513 -1094 550 -1030 
Q 588 -966 600 -856 
Q 613 -747 613 -566 
L 613 2116 
Q 613 2341 606 2436 
Q 600 2531 581 2593 
Q 563 2656 527 2697 
Q 491 2738 430 2766 
Q 369 2794 228 2822 
L 228 2988 
L 963 3016 
L 1153 3016 
L 1113 2506 
L 1159 2494 
Q 1353 2691 1465 2780 
Q 1578 2869 1698 2928 
Q 1819 2988 1930 3013 
Q 2041 3038 2166 3038 
Q 2681 3038 2957 2652 
Q 3234 2266 3234 1522 
Q 3234 1006 3078 654 
Q 2922 303 2623 126 
Q 2325 -50 1913 -50 
Q 1681 -50 1493 -11 
Q 1306 28 1150 94 
z
M 1150 1125 
Q 1150 825 1187 662 
Q 1225 500 1320 398 
Q 1416 297 1545 247 
Q 1675 197 1888 197 
Q 2266 197 2456 511 
Q 2647 825 2647 1438 
Q 2647 2663 1931 2663 
Q 1756 2663 1629 2608 
Q 1503 2553 1378 2431 
Q 1253 2309 1201 2195 
Q 1150 2081 1150 1950 
L 1150 1125 
z
" transform="scale(0.015625)"/>
       <path id="Cambria-94" d="M 1147 2469 
L 1191 2459 
Q 1363 2669 1509 2789 
Q 1656 2909 1826 2975 
Q 1997 3041 2213 3041 
Q 2394 3041 2541 3022 
L 2541 2303 
L 2188 2303 
Q 2113 2472 2028 2548 
Q 1944 2625 1797 2625 
Q 1684 2625 1573 2559 
Q 1463 2494 1359 2369 
Q 1256 2244 1217 2134 
Q 1178 2025 1178 1875 
L 1178 781 
Q 1178 497 1212 389 
Q 1247 281 1326 231 
Q 1406 181 1566 153 
L 1566 0 
L 306 0 
L 306 153 
Q 425 191 476 219 
Q 528 247 565 297 
Q 603 347 622 450 
Q 641 553 641 772 
L 641 2134 
Q 641 2334 634 2456 
Q 628 2578 590 2651 
Q 553 2725 476 2761 
Q 400 2797 259 2822 
L 259 2984 
L 991 3016 
L 1181 3016 
L 1147 2469 
z
" transform="scale(0.015625)"/>
       <path id="Cambria-99" d="M 2494 2334 
L 1675 -16 
L 1241 -16 
L 491 2303 
Q 419 2528 370 2620 
Q 322 2713 267 2758 
Q 213 2803 91 2834 
L 91 2988 
L 1325 2988 
L 1325 2834 
Q 1144 2797 1080 2736 
Q 1016 2675 1016 2553 
Q 1016 2469 1034 2376 
Q 1053 2284 1091 2163 
L 1581 569 
L 2384 2988 
L 2825 2988 
L 3506 569 
L 4056 2097 
Q 4100 2216 4128 2323 
Q 4156 2431 4156 2525 
Q 4156 2656 4086 2728 
Q 4016 2800 3847 2834 
L 3847 2988 
L 4938 2988 
L 4938 2834 
Q 4850 2813 4806 2789 
Q 4763 2766 4720 2720 
Q 4678 2675 4626 2579 
Q 4575 2484 4497 2284 
L 3594 -16 
L 3172 -16 
L 2494 2334 
z
" transform="scale(0.015625)"/>
       <path id="Cambria-89" d="M 3106 2672 
L 2528 2694 
L 2500 2659 
Q 2597 2563 2653 2395 
Q 2709 2228 2709 2034 
Q 2709 1525 2395 1248 
Q 2081 972 1503 972 
Q 1244 972 1056 1038 
Q 819 856 819 681 
Q 819 566 864 506 
Q 909 447 1014 422 
Q 1119 397 1331 397 
L 2081 397 
Q 2413 397 2622 294 
Q 2831 191 2920 17 
Q 3009 -156 3009 -388 
Q 3009 -681 2840 -911 
Q 2672 -1141 2353 -1269 
Q 2034 -1397 1609 -1397 
Q 1294 -1397 1033 -1359 
Q 772 -1322 586 -1233 
Q 400 -1144 298 -998 
Q 197 -853 197 -634 
Q 197 -438 328 -277 
Q 459 -116 700 6 
Q 553 66 468 181 
Q 384 297 384 453 
Q 384 631 484 779 
Q 584 928 838 1119 
Q 613 1250 495 1475 
Q 378 1700 378 1988 
Q 378 2256 467 2454 
Q 556 2653 714 2783 
Q 872 2913 1087 2977 
Q 1303 3041 1553 3041 
Q 1778 3041 2000 2988 
L 3106 2988 
L 3106 2672 
z
M 938 2038 
Q 938 1647 1097 1434 
Q 1256 1222 1556 1222 
Q 1716 1222 1828 1283 
Q 1941 1344 2011 1450 
Q 2081 1556 2114 1695 
Q 2147 1834 2147 1988 
Q 2147 2263 2069 2447 
Q 1991 2631 1856 2717 
Q 1722 2803 1547 2803 
Q 1250 2803 1094 2606 
Q 938 2409 938 2038 
z
M 1016 -50 
Q 856 -169 776 -301 
Q 697 -434 697 -603 
Q 697 -884 920 -1017 
Q 1144 -1150 1603 -1150 
Q 1884 -1150 2086 -1075 
Q 2288 -1000 2394 -859 
Q 2500 -719 2500 -531 
Q 2500 -444 2478 -361 
Q 2456 -278 2395 -212 
Q 2334 -147 2221 -108 
Q 2109 -69 1928 -69 
L 1463 -69 
Q 1209 -69 1016 -50 
z
" transform="scale(0.015625)"/>
       <path id="Cambria-20b" d="M 2309 -1359 
Q 1778 -1359 1442 -1200 
Q 1106 -1041 918 -714 
Q 731 -388 647 134 
Q 563 656 563 1550 
Q 563 2438 645 2964 
Q 728 3491 915 3822 
Q 1103 4153 1440 4318 
Q 1778 4484 2309 4484 
L 2309 4228 
Q 2091 4228 1922 4191 
Q 1731 4147 1597 4022 
Q 1447 3884 1353 3638 
Q 1244 3350 1191 2875 
Q 1134 2372 1134 1575 
Q 1134 872 1181 379 
Q 1228 -113 1338 -425 
Q 1425 -688 1556 -834 
Q 1672 -963 1831 -1028 
Q 2016 -1103 2309 -1103 
L 2309 -1359 
z
" transform="scale(0.015625)"/>
       <path id="Cambria-95" d="M 2397 2303 
L 2097 2303 
Q 2028 2491 1934 2598 
Q 1841 2706 1722 2750 
Q 1603 2794 1431 2794 
Q 1181 2794 1032 2676 
Q 884 2559 884 2356 
Q 884 2213 943 2119 
Q 1003 2025 1128 1944 
Q 1253 1863 1569 1728 
Q 1888 1591 2061 1475 
Q 2234 1359 2332 1206 
Q 2431 1053 2431 841 
Q 2431 594 2347 425 
Q 2263 256 2109 150 
Q 1956 44 1745 -3 
Q 1534 -50 1284 -50 
Q 1022 -50 775 -11 
Q 528 28 294 91 
L 294 744 
L 600 744 
Q 684 456 850 326 
Q 1016 197 1306 197 
Q 1419 197 1526 220 
Q 1634 244 1718 298 
Q 1803 353 1853 447 
Q 1903 541 1903 681 
Q 1903 841 1840 941 
Q 1778 1041 1647 1123 
Q 1516 1206 1184 1347 
Q 900 1466 728 1578 
Q 556 1691 457 1844 
Q 359 1997 359 2206 
Q 359 2463 498 2652 
Q 638 2841 900 2941 
Q 1163 3041 1516 3041 
Q 1722 3041 1914 3020 
Q 2106 3000 2397 2941 
L 2397 2303 
z
" transform="scale(0.015625)"/>
       <path id="Cambria-20c" d="M 134 4484 
Q 666 4484 1002 4325 
Q 1338 4166 1525 3839 
Q 1713 3513 1797 2991 
Q 1881 2469 1881 1575 
Q 1881 688 1798 161 
Q 1716 -366 1528 -697 
Q 1341 -1028 1003 -1193 
Q 666 -1359 134 -1359 
L 134 -1103 
Q 353 -1103 522 -1066 
Q 713 -1022 847 -897 
Q 997 -759 1091 -513 
Q 1200 -225 1253 250 
Q 1309 753 1309 1550 
Q 1309 2253 1262 2745 
Q 1216 3238 1106 3550 
Q 1019 3813 888 3959 
Q 772 4088 613 4153 
Q 428 4228 134 4228 
L 134 4484 
z
" transform="scale(0.015625)"/>
      </defs>
      <use xlink:href="#Cambria-8f"/>
      <use xlink:href="#Cambria-87" transform="translate(83.203125 0)"/>
      <use xlink:href="#Cambria-83" transform="translate(131.984375 0)"/>
      <use xlink:href="#Cambria-90" transform="translate(180.8125 0)"/>
      <use xlink:href="#Cambria-3" transform="translate(236.625 0)"/>
      <use xlink:href="#Cambria-96" transform="translate(258.640625 0)"/>
      <use xlink:href="#Cambria-8b" transform="translate(292.484375 0)"/>
      <use xlink:href="#Cambria-8f" transform="translate(320.265625 0)"/>
      <use xlink:href="#Cambria-87" transform="translate(403.46875 0)"/>
      <use xlink:href="#Cambria-3" transform="translate(452.25 0)"/>
      <use xlink:href="#Cambria-92" transform="translate(474.265625 0)"/>
      <use xlink:href="#Cambria-87" transform="translate(529.875 0)"/>
      <use xlink:href="#Cambria-94" transform="translate(578.65625 0)"/>
      <use xlink:href="#Cambria-3" transform="translate(620.015625 0)"/>
      <use xlink:href="#Cambria-94" transform="translate(642.03125 0)"/>
      <use xlink:href="#Cambria-83" transform="translate(681.6875 0)"/>
      <use xlink:href="#Cambria-99" transform="translate(729.203125 0)"/>
      <use xlink:href="#Cambria-3" transform="translate(806.640625 0)"/>
      <use xlink:href="#Cambria-96" transform="translate(828.65625 0)"/>
      <use xlink:href="#Cambria-83" transform="translate(862.5 0)"/>
      <use xlink:href="#Cambria-94" transform="translate(911.328125 0)"/>
      <use xlink:href="#Cambria-89" transform="translate(952 0)"/>
      <use xlink:href="#Cambria-87" transform="translate(1001.421875 0)"/>
      <use xlink:href="#Cambria-96" transform="translate(1050.203125 0)"/>
      <use xlink:href="#Cambria-3" transform="translate(1084.046875 0)"/>
      <use xlink:href="#Cambria-20b" transform="translate(1106.0625 0)"/>
      <use xlink:href="#Cambria-8f" transform="translate(1144.25 0)"/>
      <use xlink:href="#Cambria-95" transform="translate(1227.453125 0)"/>
      <use xlink:href="#Cambria-20c" transform="translate(1270.421875 0)"/>
     </g>
    </g>
   </g>
   <g id="patch_3">
    <path d="M 60.268114 217.897461 
L 84.597831 217.897461 
L 84.597831 194.637976 
L 60.268114 194.637976 
z
" clip-path="url(#p57d9577b92)" style="fill: #eb6834; stroke: #fcfcfb; stroke-width: 0.8; stroke-linejoin: miter"/>
   </g>
   <g id="patch_4">
    <path d="M 124.293685 217.897461 
L 148.623402 217.897461 
L 148.623402 212.208686 
L 124.293685 212.208686 
z
" clip-path="url(#p57d9577b92)" style="fill: #eb6834; stroke: #fcfcfb; stroke-width: 0.8; stroke-linejoin: miter"/>
   </g>
   <g id="patch_5">
    <path d="M 188.319256 217.897461 
L 212.648972 217.897461 
L 212.648972 205.847566 
L 188.319256 205.847566 
z
" clip-path="url(#p57d9577b92)" style="fill: #eb6834; stroke: #fcfcfb; stroke-width: 0.8; stroke-linejoin: miter"/>
   </g>
   <g id="patch_6">
    <path d="M 252.344826 217.897461 
L 276.674543 217.897461 
L 276.674543 174.381304 
L 252.344826 174.381304 
z
" clip-path="url(#p57d9577b92)" style="fill: #eb6834; stroke: #fcfcfb; stroke-width: 0.8; stroke-linejoin: miter"/>
   </g>
   <g id="patch_7">
    <path d="M 316.370397 217.897461 
L 340.700114 217.897461 
L 340.700114 180.685161 
L 316.370397 180.685161 
z
" clip-path="url(#p57d9577b92)" style="fill: #eb6834; stroke: #fcfcfb; stroke-width: 0.8; stroke-linejoin: miter"/>
   </g>
   <g id="patch_8">
    <path d="M 380.395968 217.897461 
L 404.725684 217.897461 
L 404.725684 59.220392 
L 380.395968 59.220392 
z
" clip-path="url(#p57d9577b92)" style="fill: #eb6834; stroke: #fcfcfb; stroke-width: 0.8; stroke-linejoin: miter"/>
   </g>
   <g id="patch_9">
    <path d="M 84.597831 217.897461 
L 108.927548 217.897461 
L 108.927548 203.436766 
L 84.597831 203.436766 
z
" clip-path="url(#p57d9577b92)" style="fill: #2a78d6; stroke: #fcfcfb; stroke-width: 0.8; stroke-linejoin: miter"/>
   </g>
   <g id="patch_10">
    <path d="M 148.623402 217.897461 
L 172.953119 217.897461 
L 172.953119 208.25888 
L 148.623402 208.25888 
z
" clip-path="url(#p57d9577b92)" style="fill: #2a78d6; stroke: #fcfcfb; stroke-width: 0.8; stroke-linejoin: miter"/>
   </g>
   <g id="patch_11">
    <path d="M 212.648972 217.897461 
L 236.978689 217.897461 
L 236.978689 205.346645 
L 212.648972 205.346645 
z
" clip-path="url(#p57d9577b92)" style="fill: #2a78d6; stroke: #fcfcfb; stroke-width: 0.8; stroke-linejoin: miter"/>
   </g>
   <g id="patch_12">
    <path d="M 276.674543 217.897461 
L 301.00426 217.897461 
L 301.00426 204.175685 
L 276.674543 204.175685 
z
" clip-path="url(#p57d9577b92)" style="fill: #2a78d6; stroke: #fcfcfb; stroke-width: 0.8; stroke-linejoin: miter"/>
   </g>
   <g id="patch_13">
    <path d="M 340.700114 217.897461 
L 365.029831 217.897461 
L 365.029831 204.357956 
L 340.700114 204.357956 
z
" clip-path="url(#p57d9577b92)" style="fill: #2a78d6; stroke: #fcfcfb; stroke-width: 0.8; stroke-linejoin: miter"/>
   </g>
   <g id="patch_14">
    <path d="M 404.725684 217.897461 
L 429.055401 217.897461 
L 429.055401 195.273717 
L 404.725684 195.273717 
z
" clip-path="url(#p57d9577b92)" style="fill: #2a78d6; stroke: #fcfcfb; stroke-width: 0.8; stroke-linejoin: miter"/>
   </g>
   <g id="LineCollection_1">
    <path d="M 72.432973 197.723319 
L 72.432973 191.552633 
" clip-path="url(#p57d9577b92)" style="fill: none; stroke: #000000; stroke-width: 2"/>
    <path d="M 136.458543 212.930903 
L 136.458543 211.486469 
" clip-path="url(#p57d9577b92)" style="fill: none; stroke: #000000; stroke-width: 2"/>
    <path d="M 200.484114 207.560544 
L 200.484114 204.134588 
" clip-path="url(#p57d9577b92)" style="fill: none; stroke: #000000; stroke-width: 2"/>
    <path d="M 264.509685 180.166391 
L 264.509685 168.596216 
" clip-path="url(#p57d9577b92)" style="fill: none; stroke: #000000; stroke-width: 2"/>
    <path d="M 328.535255 185.569705 
L 328.535255 175.800616 
" clip-path="url(#p57d9577b92)" style="fill: none; stroke: #000000; stroke-width: 2"/>
    <path d="M 392.560826 83.958222 
L 392.560826 34.482561 
" clip-path="url(#p57d9577b92)" style="fill: none; stroke: #000000; stroke-width: 2"/>
   </g>
   <g id="line2d_27">
    <defs>
     <path id="mc85221ac05" d="M 2 0 
L -2 -0 
" style="stroke: #000000"/>
    </defs>
    <g clip-path="url(#p57d9577b92)">
     <use xlink:href="#mc85221ac05" x="72.432973" y="197.723319" style="fill: #1f77b4; stroke: #000000"/>
     <use xlink:href="#mc85221ac05" x="136.458543" y="212.930903" style="fill: #1f77b4; stroke: #000000"/>
     <use xlink:href="#mc85221ac05" x="200.484114" y="207.560544" style="fill: #1f77b4; stroke: #000000"/>
     <use xlink:href="#mc85221ac05" x="264.509685" y="180.166391" style="fill: #1f77b4; stroke: #000000"/>
     <use xlink:href="#mc85221ac05" x="328.535255" y="185.569705" style="fill: #1f77b4; stroke: #000000"/>
     <use xlink:href="#mc85221ac05" x="392.560826" y="83.958222" style="fill: #1f77b4; stroke: #000000"/>
    </g>
   </g>
   <g id="line2d_28">
    <g clip-path="url(#p57d9577b92)">
     <use xlink:href="#mc85221ac05" x="72.432973" y="191.552633" style="fill: #1f77b4; stroke: #000000"/>
     <use xlink:href="#mc85221ac05" x="136.458543" y="211.486469" style="fill: #1f77b4; stroke: #000000"/>
     <use xlink:href="#mc85221ac05" x="200.484114" y="204.134588" style="fill: #1f77b4; stroke: #000000"/>
     <use xlink:href="#mc85221ac05" x="264.509685" y="168.596216" style="fill: #1f77b4; stroke: #000000"/>
     <use xlink:href="#mc85221ac05" x="328.535255" y="175.800616" style="fill: #1f77b4; stroke: #000000"/>
     <use xlink:href="#mc85221ac05" x="392.560826" y="34.482561" style="fill: #1f77b4; stroke: #000000"/>
    </g>
   </g>
   <g id="LineCollection_2">
    <path d="M 96.76269 204.877927 
L 96.76269 201.995605 
" clip-path="url(#p57d9577b92)" style="fill: none; stroke: #000000; stroke-width: 2"/>
    <path d="M 160.78826 209.265604 
L 160.78826 207.252156 
" clip-path="url(#p57d9577b92)" style="fill: none; stroke: #000000; stroke-width: 2"/>
    <path d="M 224.813831 206.446025 
L 224.813831 204.247266 
" clip-path="url(#p57d9577b92)" style="fill: none; stroke: #000000; stroke-width: 2"/>
    <path d="M 288.839402 205.42734 
L 288.839402 202.924031 
" clip-path="url(#p57d9577b92)" style="fill: none; stroke: #000000; stroke-width: 2"/>
    <path d="M 352.864972 205.599146 
L 352.864972 203.116767 
" clip-path="url(#p57d9577b92)" style="fill: none; stroke: #000000; stroke-width: 2"/>
    <path d="M 416.890543 197.542057 
L 416.890543 193.005378 
" clip-path="url(#p57d9577b92)" style="fill: none; stroke: #000000; stroke-width: 2"/>
   </g>
   <g id="line2d_29">
    <g clip-path="url(#p57d9577b92)">
     <use xlink:href="#mc85221ac05" x="96.76269" y="204.877927" style="fill: #1f77b4; stroke: #000000"/>
     <use xlink:href="#mc85221ac05" x="160.78826" y="209.265604" style="fill: #1f77b4; stroke: #000000"/>
     <use xlink:href="#mc85221ac05" x="224.813831" y="206.446025" style="fill: #1f77b4; stroke: #000000"/>
     <use xlink:href="#mc85221ac05" x="288.839402" y="205.42734" style="fill: #1f77b4; stroke: #000000"/>
     <use xlink:href="#mc85221ac05" x="352.864972" y="205.599146" style="fill: #1f77b4; stroke: #000000"/>
     <use xlink:href="#mc85221ac05" x="416.890543" y="197.542057" style="fill: #1f77b4; stroke: #000000"/>
    </g>
   </g>
   <g id="line2d_30">
    <g clip-path="url(#p57d9577b92)">
     <use xlink:href="#mc85221ac05" x="96.76269" y="201.995605" style="fill: #1f77b4; stroke: #000000"/>
     <use xlink:href="#mc85221ac05" x="160.78826" y="207.252156" style="fill: #1f77b4; stroke: #000000"/>
     <use xlink:href="#mc85221ac05" x="224.813831" y="204.247266" style="fill: #1f77b4; stroke: #000000"/>
     <use xlink:href="#mc85221ac05" x="288.839402" y="202.924031" style="fill: #1f77b4; stroke: #000000"/>
     <use xlink:href="#mc85221ac05" x="352.864972" y="203.116767" style="fill: #1f77b4; stroke: #000000"/>
     <use xlink:href="#mc85221ac05" x="416.890543" y="193.005378" style="fill: #1f77b4; stroke: #000000"/>
    </g>
   </g>
   <g id="patch_15">
    <path d="M 41.82875 217.897461 
L 41.82875 25.311816 
" style="fill: none; stroke: #c3c2b7; stroke-width: 0.9; stroke-linejoin: miter; stroke-linecap: square"/>
   </g>
   <g id="patch_16">
    <path d="M 41.82875 217.897461 
L 447.494766 217.897461 
" style="fill: none; stroke: #c3c2b7; stroke-width: 0.9; stroke-linejoin: miter; stroke-linecap: square"/>
   </g>
   <g id="text_15">
    <!-- 1.9 -->
    <g style="fill: #52514e" transform="translate(91.380799 200.011589) scale(0.082 -0.082)">
     <defs>
      <path id="Cambria-1e4" d="M 972 725 
L 972 0 
L 341 0 
L 341 725 
L 972 725 
z
" transform="scale(0.015625)"/>
      <path id="Cambria-37b" d="M 978 122 
L 978 275 
Q 1416 275 1736 469 
Q 2056 663 2251 1042 
Q 2447 1422 2513 2038 
L 2481 2050 
Q 2219 1863 1964 1775 
Q 1709 1688 1413 1688 
Q 1059 1688 811 1842 
Q 563 1997 438 2276 
Q 313 2556 313 2931 
Q 313 3213 406 3464 
Q 500 3716 684 3905 
Q 869 4094 1145 4205 
Q 1422 4316 1791 4316 
Q 2447 4316 2790 3862 
Q 3134 3409 3134 2559 
Q 3134 1781 2881 1211 
Q 2628 641 2172 323 
Q 1716 6 1106 -50 
L 978 122 
z
M 1628 2016 
Q 1747 2016 1855 2036 
Q 1963 2056 2066 2095 
Q 2169 2134 2267 2195 
Q 2366 2256 2444 2325 
Q 2472 2350 2494 2390 
Q 2516 2431 2528 2497 
Q 2541 2563 2541 2703 
Q 2541 3131 2455 3436 
Q 2369 3741 2192 3895 
Q 2016 4050 1756 4050 
Q 1522 4050 1359 3969 
Q 1197 3888 1095 3745 
Q 994 3603 947 3411 
Q 900 3219 900 2994 
Q 900 2528 1090 2272 
Q 1281 2016 1628 2016 
z
" transform="scale(0.015625)"/>
     </defs>
     <use xlink:href="#Cambria-373"/>
     <use xlink:href="#Cambria-1e4" transform="translate(55.375 0)"/>
     <use xlink:href="#Cambria-37b" transform="translate(75.890625 0)"/>
    </g>
   </g>
   <g id="text_16">
    <!-- 2.6 -->
    <g style="fill: #52514e" transform="translate(155.40637 204.833702) scale(0.082 -0.082)">
     <use xlink:href="#Cambria-374"/>
     <use xlink:href="#Cambria-1e4" transform="translate(55.375 0)"/>
     <use xlink:href="#Cambria-378" transform="translate(75.890625 0)"/>
    </g>
   </g>
   <g id="text_17">
    <!-- 3.0 -->
    <g style="fill: #52514e" transform="translate(219.43194 201.921468) scale(0.082 -0.082)">
     <use xlink:href="#Cambria-375"/>
     <use xlink:href="#Cambria-1e4" transform="translate(55.375 0)"/>
     <use xlink:href="#Cambria-372" transform="translate(75.890625 0)"/>
    </g>
   </g>
   <g id="text_18">
    <!-- 2.0 -->
    <g style="fill: #52514e" transform="translate(283.457511 200.750508) scale(0.082 -0.082)">
     <use xlink:href="#Cambria-374"/>
     <use xlink:href="#Cambria-1e4" transform="translate(55.375 0)"/>
     <use xlink:href="#Cambria-372" transform="translate(75.890625 0)"/>
    </g>
   </g>
   <g id="text_19">
    <!-- 2.0 -->
    <g style="fill: #52514e" transform="translate(347.483082 200.932779) scale(0.082 -0.082)">
     <use xlink:href="#Cambria-374"/>
     <use xlink:href="#Cambria-1e4" transform="translate(55.375 0)"/>
     <use xlink:href="#Cambria-372" transform="translate(75.890625 0)"/>
    </g>
   </g>
   <g id="text_20">
    <!-- 2.2 -->
    <g style="fill: #52514e" transform="translate(411.508652 191.84854) scale(0.082 -0.082)">
     <use xlink:href="#Cambria-374"/>
     <use xlink:href="#Cambria-1e4" transform="translate(55.375 0)"/>
     <use xlink:href="#Cambria-374" transform="translate(75.890625 0)"/>
    </g>
   </g>
   <g id="text_21">
    <!-- Raw Miller inversion: scan vs distortion-transferred Satoh algorithm -->
    <g style="fill: #0b0b0b" transform="translate(41.82875 17.311816) scale(0.13 -0.13)">
     <defs>
      <path id="Cambria-15" d="M 1331 1853 
L 1331 791 
Q 1331 566 1348 464 
Q 1366 363 1400 311 
Q 1434 259 1493 226 
Q 1553 194 1697 153 
L 1697 0 
L 378 0 
L 378 153 
Q 572 203 637 264 
Q 703 325 723 437 
Q 744 550 744 781 
L 744 3484 
Q 744 3700 728 3798 
Q 713 3897 677 3951 
Q 641 4006 581 4039 
Q 522 4072 378 4113 
L 378 4266 
L 1925 4266 
Q 2656 4266 3018 4000 
Q 3381 3734 3381 3175 
Q 3381 2747 3145 2447 
Q 2909 2147 2438 1978 
L 2438 1953 
Q 2628 1875 2764 1729 
Q 2900 1584 3066 1278 
L 3347 766 
Q 3469 541 3556 422 
Q 3644 303 3734 240 
Q 3825 178 3975 153 
L 3975 0 
L 3109 0 
Q 2991 166 2884 356 
Q 2778 547 2675 744 
L 2400 1266 
Q 2275 1503 2195 1615 
Q 2116 1728 2048 1773 
Q 1981 1819 1904 1836 
Q 1828 1853 1675 1853 
L 1331 1853 
z
M 1331 3978 
L 1331 2122 
L 1684 2122 
Q 1956 2122 2125 2161 
Q 2294 2200 2437 2309 
Q 2581 2419 2667 2614 
Q 2753 2809 2753 3094 
Q 2753 3391 2651 3587 
Q 2550 3784 2344 3887 
Q 2138 3991 1788 3991 
Q 1506 3991 1331 3978 
z
" transform="scale(0.015625)"/>
      <path id="Cambria-10" d="M 4841 4113 
Q 4703 4078 4642 4043 
Q 4581 4009 4545 3957 
Q 4509 3906 4492 3803 
Q 4475 3700 4475 3484 
L 4475 781 
Q 4475 572 4489 475 
Q 4503 378 4536 322 
Q 4569 266 4633 228 
Q 4697 191 4841 153 
L 4841 0 
L 3538 0 
L 3538 153 
Q 3716 197 3784 253 
Q 3853 309 3878 418 
Q 3903 528 3903 781 
L 3903 1978 
Q 3903 2450 3917 2933 
Q 3931 3416 3950 3594 
L 3897 3594 
L 2659 497 
L 2300 497 
L 1150 3644 
L 1097 3644 
Q 1113 3453 1127 2953 
Q 1141 2453 1141 1925 
L 1141 781 
Q 1141 572 1155 475 
Q 1169 378 1201 322 
Q 1234 266 1298 228 
Q 1363 191 1506 153 
L 1506 0 
L 366 0 
L 366 153 
Q 559 203 625 264 
Q 691 325 711 437 
Q 731 550 731 781 
L 731 3484 
Q 731 3700 715 3798 
Q 700 3897 664 3951 
Q 628 4006 568 4039 
Q 509 4072 366 4113 
L 366 4266 
L 1481 4266 
L 2578 1225 
L 3784 4266 
L 4841 4266 
L 4841 4113 
z
" transform="scale(0.015625)"/>
      <path id="Cambria-8e" d="M 1138 781 
Q 1138 513 1163 408 
Q 1188 303 1258 248 
Q 1328 194 1488 153 
L 1488 0 
L 247 0 
L 247 153 
Q 403 194 464 237 
Q 525 281 551 342 
Q 578 403 589 508 
Q 600 613 600 781 
L 600 3397 
Q 600 3697 595 3815 
Q 591 3934 570 4017 
Q 550 4100 514 4147 
Q 478 4194 417 4222 
Q 356 4250 197 4278 
L 197 4441 
L 950 4472 
L 1138 4472 
L 1138 781 
z
" transform="scale(0.015625)"/>
      <path id="Cambria-98" d="M 1334 2988 
L 1334 2834 
Q 1191 2800 1131 2769 
Q 1072 2738 1042 2688 
Q 1013 2638 1013 2553 
Q 1013 2469 1033 2376 
Q 1053 2284 1097 2163 
L 1641 581 
L 2278 2097 
Q 2341 2247 2366 2344 
Q 2391 2441 2391 2525 
Q 2391 2656 2320 2725 
Q 2250 2794 2063 2834 
L 2063 2988 
L 3231 2988 
L 3231 2834 
Q 3109 2809 3043 2757 
Q 2978 2706 2912 2595 
Q 2847 2484 2756 2284 
L 1703 -31 
L 1334 -31 
L 488 2303 
Q 400 2544 348 2633 
Q 297 2722 236 2765 
Q 175 2809 59 2834 
L 59 2988 
L 1334 2988 
z
" transform="scale(0.015625)"/>
      <path id="Cambria-91" d="M 1663 -50 
Q 1013 -50 670 333 
Q 328 716 328 1466 
Q 328 1981 508 2337 
Q 688 2694 1000 2867 
Q 1313 3041 1713 3041 
Q 2381 3041 2725 2652 
Q 3069 2263 3069 1534 
Q 3069 1016 2897 659 
Q 2725 303 2409 126 
Q 2094 -50 1663 -50 
z
M 919 1531 
Q 919 888 1123 542 
Q 1328 197 1709 197 
Q 1919 197 2066 298 
Q 2213 400 2305 572 
Q 2397 744 2437 970 
Q 2478 1197 2478 1444 
Q 2478 1903 2376 2206 
Q 2275 2509 2100 2651 
Q 1925 2794 1700 2794 
Q 1322 2794 1120 2466 
Q 919 2138 919 1531 
z
" transform="scale(0.015625)"/>
      <path id="Cambria-1e3" d="M 1156 2822 
L 1156 2091 
L 531 2091 
L 531 2822 
L 1156 2822 
z
M 1156 725 
L 1156 0 
L 531 0 
L 531 725 
L 1156 725 
z
" transform="scale(0.015625)"/>
      <path id="Cambria-85" d="M 2631 2916 
L 2631 2263 
L 2234 2263 
Q 2181 2466 2103 2583 
Q 2025 2700 1922 2747 
Q 1819 2794 1666 2794 
Q 1447 2794 1278 2653 
Q 1109 2513 1011 2225 
Q 913 1938 913 1522 
Q 913 1256 950 1036 
Q 988 816 1078 659 
Q 1169 503 1319 415 
Q 1469 328 1691 328 
Q 1906 328 2092 412 
Q 2278 497 2478 709 
L 2656 503 
Q 2497 328 2375 233 
Q 2253 138 2114 73 
Q 1975 9 1839 -20 
Q 1703 -50 1544 -50 
Q 953 -50 640 342 
Q 328 734 328 1475 
Q 328 1938 503 2295 
Q 678 2653 993 2847 
Q 1309 3041 1722 3041 
Q 1978 3041 2195 3011 
Q 2413 2981 2631 2916 
z
" transform="scale(0.015625)"/>
      <path id="Cambria-86" d="M 2413 3397 
Q 2413 3697 2408 3815 
Q 2403 3934 2383 4017 
Q 2363 4100 2327 4147 
Q 2291 4194 2230 4222 
Q 2169 4250 2009 4278 
L 2009 4441 
L 2766 4472 
L 2950 4472 
L 2950 853 
Q 2950 609 2959 504 
Q 2969 400 3000 337 
Q 3031 275 3098 236 
Q 3166 197 3334 163 
L 3334 0 
L 2597 -31 
L 2409 -31 
L 2447 481 
L 2400 494 
Q 2203 284 2058 179 
Q 1913 75 1748 12 
Q 1584 -50 1397 -50 
Q 884 -50 606 339 
Q 328 728 328 1463 
Q 328 1975 509 2333 
Q 691 2691 998 2866 
Q 1306 3041 1691 3041 
Q 1897 3041 2065 3008 
Q 2234 2975 2413 2900 
L 2413 3397 
z
M 2413 1853 
Q 2413 2097 2391 2244 
Q 2369 2391 2317 2491 
Q 2266 2591 2178 2659 
Q 2091 2728 1986 2759 
Q 1881 2791 1734 2791 
Q 1334 2791 1125 2470 
Q 916 2150 916 1550 
Q 916 950 1087 637 
Q 1259 325 1609 325 
Q 1747 325 1837 348 
Q 1928 372 2015 423 
Q 2103 475 2193 565 
Q 2284 656 2326 731 
Q 2369 806 2391 903 
Q 2413 1000 2413 1153 
L 2413 1853 
z
" transform="scale(0.015625)"/>
      <path id="Cambria-1e6" d="M 1788 1403 
L 338 1403 
L 338 1888 
L 1788 1888 
L 1788 1403 
z
" transform="scale(0.015625)"/>
      <path id="Cambria-88" d="M 1909 2672 
L 1163 2672 
L 1163 781 
Q 1163 572 1183 465 
Q 1203 359 1242 304 
Q 1281 250 1345 217 
Q 1409 184 1550 153 
L 1550 0 
L 272 0 
L 272 153 
Q 409 191 468 225 
Q 528 259 561 312 
Q 594 366 609 466 
Q 625 566 625 781 
L 625 2672 
L 247 2672 
L 247 2831 
Q 366 2850 405 2861 
Q 444 2872 480 2894 
Q 516 2916 542 2956 
Q 569 2997 589 3076 
Q 609 3156 622 3300 
Q 650 3641 745 3853 
Q 841 4066 1023 4216 
Q 1206 4366 1414 4427 
Q 1622 4488 1903 4488 
Q 2150 4488 2322 4453 
L 2322 3888 
L 2013 3888 
Q 1953 4072 1873 4148 
Q 1794 4225 1650 4225 
Q 1547 4225 1476 4197 
Q 1406 4169 1347 4109 
Q 1288 4050 1245 3950 
Q 1203 3850 1183 3701 
Q 1163 3553 1163 3316 
L 1163 2988 
L 1909 2988 
L 1909 2672 
z
" transform="scale(0.015625)"/>
      <path id="Cambria-16" d="M 663 972 
Q 725 697 831 537 
Q 938 378 1106 301 
Q 1275 225 1541 225 
Q 1906 225 2101 415 
Q 2297 606 2297 972 
Q 2297 1206 2215 1365 
Q 2134 1525 1950 1665 
Q 1766 1806 1388 1994 
Q 1022 2175 809 2348 
Q 597 2522 492 2725 
Q 388 2928 388 3169 
Q 388 3519 552 3776 
Q 716 4034 1033 4175 
Q 1350 4316 1759 4316 
Q 1997 4316 2223 4291 
Q 2450 4266 2791 4178 
L 2791 3334 
L 2481 3334 
Q 2409 3609 2300 3762 
Q 2191 3916 2044 3977 
Q 1897 4038 1663 4038 
Q 1459 4038 1298 3963 
Q 1138 3888 1044 3736 
Q 950 3584 950 3375 
Q 950 3153 1029 3000 
Q 1109 2847 1278 2715 
Q 1447 2584 1778 2422 
Q 2178 2222 2398 2050 
Q 2619 1878 2742 1658 
Q 2866 1438 2866 1144 
Q 2866 816 2762 589 
Q 2659 363 2476 220 
Q 2294 78 2039 14 
Q 1784 -50 1481 -50 
Q 991 -50 350 116 
L 350 972 
L 663 972 
z
" transform="scale(0.015625)"/>
      <path id="Cambria-8a" d="M 1141 2497 
L 1153 2494 
Q 1397 2741 1539 2839 
Q 1681 2938 1820 2988 
Q 1959 3038 2119 3038 
Q 2291 3038 2425 2997 
Q 2559 2956 2661 2873 
Q 2763 2791 2827 2670 
Q 2891 2550 2922 2383 
Q 2953 2216 2953 1959 
L 2953 781 
Q 2953 509 2976 411 
Q 3000 313 3061 258 
Q 3122 203 3306 153 
L 3306 0 
L 2075 0 
L 2075 153 
Q 2197 191 2250 219 
Q 2303 247 2339 297 
Q 2375 347 2395 451 
Q 2416 556 2416 769 
L 2416 1588 
Q 2416 2003 2373 2223 
Q 2331 2444 2207 2553 
Q 2084 2663 1863 2663 
Q 1738 2663 1638 2619 
Q 1538 2575 1406 2462 
Q 1275 2350 1208 2231 
Q 1141 2113 1141 1978 
L 1141 781 
Q 1141 569 1152 478 
Q 1163 388 1194 327 
Q 1225 266 1289 227 
Q 1353 188 1488 153 
L 1488 0 
L 250 0 
L 250 153 
Q 388 191 447 225 
Q 506 259 539 312 
Q 572 366 587 466 
Q 603 566 603 781 
L 603 3397 
Q 603 3697 598 3815 
Q 594 3934 573 4017 
Q 553 4100 517 4147 
Q 481 4194 420 4222 
Q 359 4250 200 4278 
L 200 4441 
L 953 4472 
L 1141 4472 
L 1141 2497 
z
" transform="scale(0.015625)"/>
     </defs>
     <use xlink:href="#Cambria-15"/>
     <use xlink:href="#Cambria-83" transform="translate(61.328125 0)"/>
     <use xlink:href="#Cambria-99" transform="translate(108.84375 0)"/>
     <use xlink:href="#Cambria-3" transform="translate(186.28125 0)"/>
     <use xlink:href="#Cambria-10" transform="translate(208.296875 0)"/>
     <use xlink:href="#Cambria-8b" transform="translate(289.84375 0)"/>
     <use xlink:href="#Cambria-8e" transform="translate(317.625 0)"/>
     <use xlink:href="#Cambria-8e" transform="translate(344.78125 0)"/>
     <use xlink:href="#Cambria-87" transform="translate(371.9375 0)"/>
     <use xlink:href="#Cambria-94" transform="translate(420.71875 0)"/>
     <use xlink:href="#Cambria-3" transform="translate(462.078125 0)"/>
     <use xlink:href="#Cambria-8b" transform="translate(484.09375 0)"/>
     <use xlink:href="#Cambria-90" transform="translate(511.875 0)"/>
     <use xlink:href="#Cambria-98" transform="translate(565.734375 0)"/>
     <use xlink:href="#Cambria-87" transform="translate(614.171875 0)"/>
     <use xlink:href="#Cambria-94" transform="translate(662.953125 0)"/>
     <use xlink:href="#Cambria-95" transform="translate(704.3125 0)"/>
     <use xlink:href="#Cambria-8b" transform="translate(747.28125 0)"/>
     <use xlink:href="#Cambria-91" transform="translate(775.0625 0)"/>
     <use xlink:href="#Cambria-90" transform="translate(828.140625 0)"/>
     <use xlink:href="#Cambria-1e3" transform="translate(883.953125 0)"/>
     <use xlink:href="#Cambria-3" transform="translate(910.328125 0)"/>
     <use xlink:href="#Cambria-95" transform="translate(932.34375 0)"/>
     <use xlink:href="#Cambria-85" transform="translate(975.3125 0)"/>
     <use xlink:href="#Cambria-83" transform="translate(1019.40625 0)"/>
     <use xlink:href="#Cambria-90" transform="translate(1068.234375 0)"/>
     <use xlink:href="#Cambria-3" transform="translate(1124.046875 0)"/>
     <use xlink:href="#Cambria-98" transform="translate(1146.0625 0)"/>
     <use xlink:href="#Cambria-95" transform="translate(1195.375 0)"/>
     <use xlink:href="#Cambria-3" transform="translate(1238.34375 0)"/>
     <use xlink:href="#Cambria-86" transform="translate(1260.359375 0)"/>
     <use xlink:href="#Cambria-8b" transform="translate(1315.828125 0)"/>
     <use xlink:href="#Cambria-95" transform="translate(1343.609375 0)"/>
     <use xlink:href="#Cambria-96" transform="translate(1386.578125 0)"/>
     <use xlink:href="#Cambria-91" transform="translate(1419.546875 0)"/>
     <use xlink:href="#Cambria-94" transform="translate(1472.625 0)"/>
     <use xlink:href="#Cambria-96" transform="translate(1513.984375 0)"/>
     <use xlink:href="#Cambria-8b" transform="translate(1547.828125 0)"/>
     <use xlink:href="#Cambria-91" transform="translate(1575.609375 0)"/>
     <use xlink:href="#Cambria-90" transform="translate(1628.6875 0)"/>
     <use xlink:href="#Cambria-1e6" transform="translate(1684.5 0)"/>
     <use xlink:href="#Cambria-96" transform="translate(1717.703125 0)"/>
     <use xlink:href="#Cambria-94" transform="translate(1751.546875 0)"/>
     <use xlink:href="#Cambria-83" transform="translate(1791.203125 0)"/>
     <use xlink:href="#Cambria-90" transform="translate(1840.03125 0)"/>
     <use xlink:href="#Cambria-95" transform="translate(1895.84375 0)"/>
     <use xlink:href="#Cambria-88" transform="translate(1938.8125 0)"/>
     <use xlink:href="#Cambria-87" transform="translate(1967.875 0)"/>
     <use xlink:href="#Cambria-94" transform="translate(2016.65625 0)"/>
     <use xlink:href="#Cambria-94" transform="translate(2058.015625 0)"/>
     <use xlink:href="#Cambria-87" transform="translate(2097.90625 0)"/>
     <use xlink:href="#Cambria-86" transform="translate(2146.6875 0)"/>
     <use xlink:href="#Cambria-3" transform="translate(2202.15625 0)"/>
     <use xlink:href="#Cambria-16" transform="translate(2224.171875 0)"/>
     <use xlink:href="#Cambria-83" transform="translate(2273.78125 0)"/>
     <use xlink:href="#Cambria-96" transform="translate(2322.609375 0)"/>
     <use xlink:href="#Cambria-91" transform="translate(2355.578125 0)"/>
     <use xlink:href="#Cambria-8a" transform="translate(2408.65625 0)"/>
     <use xlink:href="#Cambria-3" transform="translate(2463.828125 0)"/>
     <use xlink:href="#Cambria-83" transform="translate(2485.84375 0)"/>
     <use xlink:href="#Cambria-8e" transform="translate(2534.671875 0)"/>
     <use xlink:href="#Cambria-89" transform="translate(2561.828125 0)"/>
     <use xlink:href="#Cambria-91" transform="translate(2611.25 0)"/>
     <use xlink:href="#Cambria-94" transform="translate(2664.328125 0)"/>
     <use xlink:href="#Cambria-8b" transform="translate(2705.6875 0)"/>
     <use xlink:href="#Cambria-96" transform="translate(2733.46875 0)"/>
     <use xlink:href="#Cambria-8a" transform="translate(2767.3125 0)"/>
     <use xlink:href="#Cambria-8f" transform="translate(2822.484375 0)"/>
    </g>
   </g>
   <g id="legend_1">
    <g id="patch_17">
     <path d="M 49.92875 40.412305 
L 67.92875 40.412305 
L 67.92875 34.112305 
L 49.92875 34.112305 
z
" style="fill: #eb6834; stroke: #fcfcfb; stroke-width: 0.8; stroke-linejoin: miter"/>
    </g>
    <g id="text_22">
     <!-- naive scan over the cyclic domain -->
     <g transform="translate(75.12875 40.412305) scale(0.09 -0.09)">
      <defs>
       <path id="Cambria-9b" d="M 1625 -256 
Q 1453 -644 1290 -884 
Q 1128 -1125 933 -1247 
Q 738 -1369 469 -1369 
Q 297 -1369 81 -1328 
L 81 -709 
L 359 -709 
Q 397 -838 453 -888 
Q 509 -938 616 -938 
Q 709 -938 782 -902 
Q 856 -866 936 -778 
Q 1016 -691 1123 -509 
Q 1231 -328 1366 -50 
L 491 2303 
Q 406 2531 354 2622 
Q 303 2713 243 2759 
Q 184 2806 63 2834 
L 63 2988 
L 1334 2988 
L 1334 2834 
Q 1188 2800 1128 2767 
Q 1069 2734 1041 2682 
Q 1013 2631 1013 2550 
Q 1013 2466 1033 2375 
Q 1053 2284 1097 2163 
L 1653 597 
L 2278 2097 
Q 2331 2222 2361 2326 
Q 2391 2431 2391 2522 
Q 2391 2656 2317 2725 
Q 2244 2794 2063 2834 
L 2063 2988 
L 3231 2988 
L 3231 2834 
Q 3109 2809 3043 2757 
Q 2978 2706 2912 2595 
Q 2847 2484 2756 2284 
L 1625 -256 
z
" transform="scale(0.015625)"/>
      </defs>
      <use xlink:href="#Cambria-90"/>
      <use xlink:href="#Cambria-83" transform="translate(55.8125 0)"/>
      <use xlink:href="#Cambria-8b" transform="translate(104.640625 0)"/>
      <use xlink:href="#Cambria-98" transform="translate(130.421875 0)"/>
      <use xlink:href="#Cambria-87" transform="translate(178.859375 0)"/>
      <use xlink:href="#Cambria-3" transform="translate(227.640625 0)"/>
      <use xlink:href="#Cambria-95" transform="translate(249.65625 0)"/>
      <use xlink:href="#Cambria-85" transform="translate(292.625 0)"/>
      <use xlink:href="#Cambria-83" transform="translate(336.71875 0)"/>
      <use xlink:href="#Cambria-90" transform="translate(385.546875 0)"/>
      <use xlink:href="#Cambria-3" transform="translate(441.359375 0)"/>
      <use xlink:href="#Cambria-91" transform="translate(463.375 0)"/>
      <use xlink:href="#Cambria-98" transform="translate(514.984375 0)"/>
      <use xlink:href="#Cambria-87" transform="translate(563.421875 0)"/>
      <use xlink:href="#Cambria-94" transform="translate(612.203125 0)"/>
      <use xlink:href="#Cambria-3" transform="translate(653.5625 0)"/>
      <use xlink:href="#Cambria-96" transform="translate(675.578125 0)"/>
      <use xlink:href="#Cambria-8a" transform="translate(709.421875 0)"/>
      <use xlink:href="#Cambria-87" transform="translate(764.59375 0)"/>
      <use xlink:href="#Cambria-3" transform="translate(813.375 0)"/>
      <use xlink:href="#Cambria-85" transform="translate(835.390625 0)"/>
      <use xlink:href="#Cambria-9b" transform="translate(879.484375 0)"/>
      <use xlink:href="#Cambria-85" transform="translate(927.921875 0)"/>
      <use xlink:href="#Cambria-8e" transform="translate(972.015625 0)"/>
      <use xlink:href="#Cambria-8b" transform="translate(999.171875 0)"/>
      <use xlink:href="#Cambria-85" transform="translate(1026.953125 0)"/>
      <use xlink:href="#Cambria-3" transform="translate(1071.046875 0)"/>
      <use xlink:href="#Cambria-86" transform="translate(1093.0625 0)"/>
      <use xlink:href="#Cambria-91" transform="translate(1148.53125 0)"/>
      <use xlink:href="#Cambria-8f" transform="translate(1201.609375 0)"/>
      <use xlink:href="#Cambria-83" transform="translate(1284.8125 0)"/>
      <use xlink:href="#Cambria-8b" transform="translate(1333.640625 0)"/>
      <use xlink:href="#Cambria-90" transform="translate(1361.421875 0)"/>
     </g>
    </g>
    <g id="patch_18">
     <path d="M 49.92875 53.912305 
L 67.92875 53.912305 
L 67.92875 47.612305 
L 49.92875 47.612305 
z
" style="fill: #2a78d6; stroke: #fcfcfb; stroke-width: 0.8; stroke-linejoin: miter"/>
    </g>
    <g id="text_23">
     <!-- transferred Satoh inverse ($\leq 4$ candidates) -->
     <g transform="translate(75.12875 53.912305) scale(0.09 -0.09)">
      <defs>
       <path id="Cmsy10-e" d="M 653 -878 
Q 600 -878 565 -837 
Q 531 -797 531 -750 
Q 531 -697 565 -659 
Q 600 -622 653 -622 
L 4325 -622 
Q 4375 -622 4408 -659 
Q 4441 -697 4441 -750 
Q 4441 -797 4408 -837 
Q 4375 -878 4325 -878 
L 653 -878 
z
M 594 2113 
Q 531 2131 531 2222 
Q 531 2303 616 2338 
L 4269 4063 
Q 4281 4072 4313 4072 
Q 4366 4072 4403 4034 
Q 4441 3997 4441 3944 
Q 4441 3859 4366 3828 
L 959 2222 
L 4384 603 
Q 4441 572 4441 494 
Q 4441 438 4403 402 
Q 4366 366 4313 366 
Q 4281 366 4269 378 
L 594 2113 
z
" transform="scale(0.015625)"/>
      </defs>
      <use xlink:href="#Cambria-96" transform="translate(0 0.875)"/>
      <use xlink:href="#Cambria-94" transform="translate(33.837891 0.875)"/>
      <use xlink:href="#Cambria-83" transform="translate(75.195312 0.875)"/>
      <use xlink:href="#Cambria-90" transform="translate(124.023438 0.875)"/>
      <use xlink:href="#Cambria-95" transform="translate(179.833984 0.875)"/>
      <use xlink:href="#Cambria-88" transform="translate(222.802734 0.875)"/>
      <use xlink:href="#Cambria-87" transform="translate(253.076172 0.875)"/>
      <use xlink:href="#Cambria-94" transform="translate(301.855469 0.875)"/>
      <use xlink:href="#Cambria-94" transform="translate(343.212891 0.875)"/>
      <use xlink:href="#Cambria-87" transform="translate(384.570312 0.875)"/>
      <use xlink:href="#Cambria-86" transform="translate(433.349609 0.875)"/>
      <use xlink:href="#Cambria-3" transform="translate(488.818359 0.875)"/>
      <use xlink:href="#Cambria-16" transform="translate(510.839844 0.875)"/>
      <use xlink:href="#Cambria-83" transform="translate(560.449219 0.875)"/>
      <use xlink:href="#Cambria-96" transform="translate(609.277344 0.875)"/>
      <use xlink:href="#Cambria-91" transform="translate(643.115234 0.875)"/>
      <use xlink:href="#Cambria-8a" transform="translate(696.191406 0.875)"/>
      <use xlink:href="#Cambria-3" transform="translate(751.367188 0.875)"/>
      <use xlink:href="#Cambria-8b" transform="translate(773.388672 0.875)"/>
      <use xlink:href="#Cambria-90" transform="translate(801.171875 0.875)"/>
      <use xlink:href="#Cambria-98" transform="translate(856.982422 0.875)"/>
      <use xlink:href="#Cambria-87" transform="translate(907.373047 0.875)"/>
      <use xlink:href="#Cambria-94" transform="translate(956.152344 0.875)"/>
      <use xlink:href="#Cambria-95" transform="translate(997.509766 0.875)"/>
      <use xlink:href="#Cambria-87" transform="translate(1040.478516 0.875)"/>
      <use xlink:href="#Cambria-3" transform="translate(1089.257812 0.875)"/>
      <use xlink:href="#Cambria-20b" transform="translate(1111.279297 0.875)"/>
      <use xlink:href="#Cmsy10-e" transform="translate(1169.462948 0.875)"/>
      <use xlink:href="#Cmr10-3b" transform="translate(1267.148552 0.875)"/>
      <use xlink:href="#Cambria-3" transform="translate(1317.148552 0.875)"/>
      <use xlink:href="#Cambria-85" transform="translate(1339.170036 0.875)"/>
      <use xlink:href="#Cambria-83" transform="translate(1383.261833 0.875)"/>
      <use xlink:href="#Cambria-90" transform="translate(1432.089958 0.875)"/>
      <use xlink:href="#Cambria-86" transform="translate(1487.900505 0.875)"/>
      <use xlink:href="#Cambria-8b" transform="translate(1543.369255 0.875)"/>
      <use xlink:href="#Cambria-86" transform="translate(1571.152458 0.875)"/>
      <use xlink:href="#Cambria-83" transform="translate(1626.621208 0.875)"/>
      <use xlink:href="#Cambria-96" transform="translate(1675.449333 0.875)"/>
      <use xlink:href="#Cambria-87" transform="translate(1709.287224 0.875)"/>
      <use xlink:href="#Cambria-95" transform="translate(1758.066521 0.875)"/>
      <use xlink:href="#Cambria-20c" transform="translate(1801.035271 0.875)"/>
     </g>
    </g>
   </g>
  </g>
 </g>
 <defs>
  <clipPath id="p57d9577b92">
   <rect x="41.82875" y="25.311816" width="405.666016" height="192.585645"/>
  </clipPath>
 </defs>
</svg>
