<?xml version="1.0" encoding="utf-8" standalone="no"?>
<!DOCTYPE svg PUBLIC "-//W3C//DTD SVG 1.1//EN"
  "http://www.w3.org/Graphics/SVG/1.1/DTD/svg11.dtd">
<svg xmlns:xlink="http://www.w3.org/1999/xlink" width="440.066016pt" height="274.661016pt" viewBox="0 0 440.066016 274.661016" xmlns="http://www.w3.org/2000/svg" version="1.1">
 <metadata>
  <rdf:RDF xmlns:dc="http://purl.org/dc/elements/1.1/" xmlns:cc="http://creativecommons.org/ns#" xmlns:rdf="http://www.w3.org/1999/02/22-rdf-syntax-ns#">
   <cc:Work>
    <dc:type rdf:resource="http://purl.org/dc/dcmitype/StillImage"/>
    <dc:date>2026-07-23T00:47:53.077286</dc:date>
    <dc:format>image/svg+xml</dc:format>
    <dc:creator>
     <cc:Agent>
      <dc:title>Matplotlib v3.11.1, https://matplotlib.org/</dc:title>
     </cc:Agent>
    </dc:creator>
   </cc:Work>
  </rdf:RDF>
 </metadata>
 <defs>
  <style type="text/css">*{stroke-linejoin: round; stroke-linecap: butt}</style>
 </defs>
 <g id="figure_1">
  <g id="patch_1">
   <path d="M 0 274.661016 
L 440.066016 274.661016 
L 440.066016 0 
L 0 0 
z
" style="fill: #fcfcfb"/>
  </g>
  <g id="axes_1">
   <g id="patch_2">
    <path d="M 47 232.783252 
L 432.866016 232.783252 
L 432.866016 25.311816 
L 47 25.311816 
z
" style="fill: #fcfcfb"/>
   </g>
   <g id="matplotlib.axis_1">
    <g id="xtick_1">
     <g id="line2d_1">
      <path d="M 52.673356 232.783252 
L 52.673356 25.311816 
" clip-path="url(#p088432e3fe)" style="fill: none; stroke: #e1e0d9; stroke-width: 0.7; stroke-linecap: square"/>
     </g>
     <g id="line2d_2">
      <defs>
       <path id="mdb521236fe" d="M 0 0 
L 0 3.5 
" style="stroke: #898781; stroke-width: 0.8"/>
      </defs>
      <g>
       <use xlink:href="#mdb521236fe" x="52.673356" y="232.783252" style="fill: #898781; stroke: #898781; stroke-width: 0.8"/>
      </g>
     </g>
     <g id="text_1">
      <!-- $\mathdefault{10^{2}}$ -->
      <g style="fill: #52514e" transform="translate(44.273356 249.128252) scale(0.105 -0.105)">
       <defs>
        <path id="Cambria-373" d="M 2172 816 
Q 2172 634 2192 542 
Q 2213 450 2264 392 
Q 2316 334 2412 301 
Q 2509 269 2656 251 
Q 2803 234 3044 228 
L 3044 0 
L 734 0 
L 734 228 
Q 1081 244 1229 270 
Q 1378 297 1456 350 
Q 1534 403 1570 500 
Q 1606 597 1606 816 
L 1606 3350 
Q 1606 3475 1562 3533 
Q 1519 3591 1434 3591 
Q 1334 3591 1150 3487 
Q 966 3384 694 3203 
L 556 3444 
L 2019 4316 
L 2191 4316 
Q 2172 4016 2172 3484 
L 2172 816 
z
" transform="scale(0.015625)"/>
        <path id="Cambria-372" d="M 1738 -50 
Q 1063 -50 733 481 
Q 403 1013 403 2094 
Q 403 2669 504 3087 
Q 606 3506 789 3779 
Q 972 4053 1228 4184 
Q 1484 4316 1788 4316 
Q 2472 4316 2806 3787 
Q 3141 3259 3141 2191 
Q 3141 1084 2783 517 
Q 2425 -50 1738 -50 
z
M 1013 2188 
Q 1013 1169 1202 692 
Q 1391 216 1788 216 
Q 2166 216 2348 664 
Q 2531 1113 2531 2053 
Q 2531 2772 2437 3217 
Q 2344 3663 2176 3856 
Q 2009 4050 1772 4050 
Q 1556 4050 1411 3922 
Q 1266 3794 1177 3553 
Q 1088 3313 1050 2967 
Q 1013 2622 1013 2188 
z
" transform="scale(0.015625)"/>
        <path id="Cambria-374" d="M 2194 500 
Q 2347 500 2440 519 
Q 2534 538 2590 581 
Q 2647 625 2680 695 
Q 2713 766 2763 913 
L 3028 913 
L 2975 0 
L 403 0 
L 403 150 
Q 538 478 766 822 
Q 994 1166 1413 1631 
Q 1775 2031 1934 2238 
Q 2109 2463 2195 2627 
Q 2281 2791 2318 2936 
Q 2356 3081 2356 3228 
Q 2356 3463 2281 3642 
Q 2206 3822 2051 3925 
Q 1897 4028 1663 4028 
Q 1078 4028 875 3378 
L 497 3378 
L 497 3978 
Q 875 4156 1204 4236 
Q 1534 4316 1797 4316 
Q 2378 4316 2675 4061 
Q 2972 3806 2972 3322 
Q 2972 3156 2939 3017 
Q 2906 2878 2836 2742 
Q 2766 2606 2647 2450 
Q 2528 2294 2384 2133 
Q 2241 1972 1888 1597 
Q 1294 969 1016 500 
L 2194 500 
z
" transform="scale(0.015625)"/>
       </defs>
       <use xlink:href="#Cambria-373" transform="translate(0 0.504516)"/>
       <use xlink:href="#Cambria-372" transform="translate(55.371094 0.504516)"/>
       <use xlink:href="#Cambria-374" transform="translate(114.746478 41.79375) scale(0.7)"/>
      </g>
     </g>
    </g>
    <g id="xtick_2">
     <g id="line2d_3">
      <path d="M 116.344504 232.783252 
L 116.344504 25.311816 
" clip-path="url(#p088432e3fe)" style="fill: none; stroke: #e1e0d9; stroke-width: 0.7; stroke-linecap: square"/>
     </g>
     <g id="line2d_4">
      <g>
       <use xlink:href="#mdb521236fe" x="116.344504" y="232.783252" style="fill: #898781; stroke: #898781; stroke-width: 0.8"/>
      </g>
     </g>
     <g id="text_2">
      <!-- $\mathdefault{10^{4}}$ -->
      <g style="fill: #52514e" transform="translate(107.944504 249.128252) scale(0.105 -0.105)">
       <defs>
        <path id="Cambria-376" d="M 1613 153 
Q 1806 203 1872 264 
Q 1938 325 1958 437 
Q 1978 550 1978 781 
L 1978 1294 
L 241 1294 
L 241 1528 
L 2069 4288 
L 2516 4288 
L 2516 1597 
L 2581 1597 
Q 2763 1597 2841 1623 
Q 2919 1650 2970 1717 
Q 3022 1784 3066 1938 
L 3303 1938 
L 3266 1294 
L 2516 1294 
L 2516 781 
Q 2516 572 2530 475 
Q 2544 378 2576 322 
Q 2609 266 2673 228 
Q 2738 191 2881 153 
L 2881 0 
L 1613 0 
L 1613 153 
z
M 756 1597 
L 1978 1597 
L 1978 2375 
Q 1978 2669 1987 3033 
Q 1997 3397 2009 3581 
L 1978 3581 
L 756 1641 
L 756 1597 
z
" transform="scale(0.015625)"/>
       </defs>
       <use xlink:href="#Cambria-373" transform="translate(0 0.810766)"/>
       <use xlink:href="#Cambria-372" transform="translate(55.371094 0.810766)"/>
       <use xlink:href="#Cambria-376" transform="translate(114.746478 42.1) scale(0.7)"/>
      </g>
     </g>
    </g>
    <g id="xtick_3">
     <g id="line2d_5">
      <path d="M 180.015652 232.783252 
L 180.015652 25.311816 
" clip-path="url(#p088432e3fe)" style="fill: none; stroke: #e1e0d9; stroke-width: 0.7; stroke-linecap: square"/>
     </g>
     <g id="line2d_6">
      <g>
       <use xlink:href="#mdb521236fe" x="180.015652" y="232.783252" style="fill: #898781; stroke: #898781; stroke-width: 0.8"/>
      </g>
     </g>
     <g id="text_3">
      <!-- $\mathdefault{10^{6}}$ -->
      <g style="fill: #52514e" transform="translate(171.615652 249.128252) scale(0.105 -0.105)">
       <defs>
        <path id="Cambria-378" d="M 2847 4144 
L 2847 3991 
Q 2366 3991 1994 3784 
Q 1622 3578 1376 3178 
Q 1131 2778 1031 2228 
L 1063 2216 
Q 1325 2403 1579 2490 
Q 1834 2578 2131 2578 
Q 2484 2578 2732 2423 
Q 2981 2269 3106 1989 
Q 3231 1709 3231 1334 
Q 3231 928 3075 617 
Q 2919 306 2592 128 
Q 2266 -50 1788 -50 
Q 1103 -50 754 375 
Q 406 800 406 1628 
Q 406 2184 581 2668 
Q 756 3153 1078 3514 
Q 1400 3875 1825 4083 
Q 2250 4291 2719 4316 
L 2847 4144 
z
M 1916 2250 
Q 1763 2250 1620 2215 
Q 1478 2181 1353 2115 
Q 1228 2050 1109 1950 
Q 1072 1916 1053 1878 
Q 1022 1819 1012 1731 
Q 1003 1644 1003 1438 
Q 1003 841 1203 528 
Q 1403 216 1809 216 
Q 2044 216 2203 297 
Q 2363 378 2461 520 
Q 2559 663 2601 855 
Q 2644 1047 2644 1272 
Q 2644 1734 2453 1992 
Q 2263 2250 1916 2250 
z
" transform="scale(0.015625)"/>
       </defs>
       <use xlink:href="#Cambria-373" transform="translate(0 0.504516)"/>
       <use xlink:href="#Cambria-372" transform="translate(55.371094 0.504516)"/>
       <use xlink:href="#Cambria-378" transform="translate(114.746478 41.79375) scale(0.7)"/>
      </g>
     </g>
    </g>
    <g id="xtick_4">
     <g id="line2d_7">
      <path d="M 243.686799 232.783252 
L 243.686799 25.311816 
" clip-path="url(#p088432e3fe)" style="fill: none; stroke: #e1e0d9; stroke-width: 0.7; stroke-linecap: square"/>
     </g>
     <g id="line2d_8">
      <g>
       <use xlink:href="#mdb521236fe" x="243.686799" y="232.783252" style="fill: #898781; stroke: #898781; stroke-width: 0.8"/>
      </g>
     </g>
     <g id="text_4">
      <!-- $\mathdefault{10^{8}}$ -->
      <g style="fill: #52514e" transform="translate(235.286799 249.128252) scale(0.105 -0.105)">
       <defs>
        <path id="Cambria-37a" d="M 2475 2253 
L 2481 2213 
Q 2834 2075 3015 1811 
Q 3197 1547 3197 1175 
Q 3197 809 3022 531 
Q 2847 253 2514 101 
Q 2181 -50 1738 -50 
Q 1322 -50 1008 89 
Q 694 228 520 495 
Q 347 763 347 1125 
Q 347 1397 440 1597 
Q 534 1797 686 1926 
Q 838 2056 1069 2163 
L 1063 2203 
Q 391 2494 391 3200 
Q 391 3522 567 3775 
Q 744 4028 1070 4172 
Q 1397 4316 1794 4316 
Q 2244 4316 2550 4189 
Q 2856 4063 3011 3823 
Q 3166 3584 3166 3250 
Q 3166 2906 2997 2657 
Q 2828 2409 2475 2253 
z
M 978 3228 
Q 978 3044 1022 2881 
Q 1066 2719 1162 2600 
Q 1259 2481 1414 2411 
Q 1569 2341 1794 2341 
Q 2053 2341 2229 2442 
Q 2406 2544 2492 2739 
Q 2578 2934 2578 3191 
Q 2578 3472 2476 3667 
Q 2375 3863 2197 3956 
Q 2019 4050 1788 4050 
Q 1394 4050 1186 3836 
Q 978 3622 978 3228 
z
M 944 1178 
Q 944 975 991 798 
Q 1038 622 1139 494 
Q 1241 366 1400 291 
Q 1559 216 1788 216 
Q 2044 216 2226 320 
Q 2409 425 2504 631 
Q 2600 838 2600 1119 
Q 2600 1419 2497 1636 
Q 2394 1853 2206 1967 
Q 2019 2081 1772 2081 
Q 1541 2081 1383 2009 
Q 1225 1938 1126 1816 
Q 1028 1694 986 1530 
Q 944 1366 944 1178 
z
" transform="scale(0.015625)"/>
       </defs>
       <use xlink:href="#Cambria-373" transform="translate(0 0.504516)"/>
       <use xlink:href="#Cambria-372" transform="translate(55.371094 0.504516)"/>
       <use xlink:href="#Cambria-37a" transform="translate(114.746478 41.79375) scale(0.7)"/>
      </g>
     </g>
    </g>
    <g id="xtick_5">
     <g id="line2d_9">
      <path d="M 307.357947 232.783252 
L 307.357947 25.311816 
" clip-path="url(#p088432e3fe)" style="fill: none; stroke: #e1e0d9; stroke-width: 0.7; stroke-linecap: square"/>
     </g>
     <g id="line2d_10">
      <g>
       <use xlink:href="#mdb521236fe" x="307.357947" y="232.783252" style="fill: #898781; stroke: #898781; stroke-width: 0.8"/>
      </g>
     </g>
     <g id="text_5">
      <!-- $\mathdefault{10^{10}}$ -->
      <g style="fill: #52514e" transform="translate(296.962947 249.128252) scale(0.105 -0.105)">
       <use xlink:href="#Cambria-373" transform="translate(0 0.504516)"/>
       <use xlink:href="#Cambria-372" transform="translate(55.371094 0.504516)"/>
       <use xlink:href="#Cambria-373" transform="translate(114.746478 41.79375) scale(0.7)"/>
       <use xlink:href="#Cambria-372" transform="translate(153.506244 41.79375) scale(0.7)"/>
      </g>
     </g>
    </g>
    <g id="xtick_6">
     <g id="line2d_11">
      <path d="M 371.029094 232.783252 
L 371.029094 25.311816 
" clip-path="url(#p088432e3fe)" style="fill: none; stroke: #e1e0d9; stroke-width: 0.7; stroke-linecap: square"/>
     </g>
     <g id="line2d_12">
      <g>
       <use xlink:href="#mdb521236fe" x="371.029094" y="232.783252" style="fill: #898781; stroke: #898781; stroke-width: 0.8"/>
      </g>
     </g>
     <g id="text_6">
      <!-- $\mathdefault{10^{12}}$ -->
      <g style="fill: #52514e" transform="translate(360.634094 249.128252) scale(0.105 -0.105)">
       <use xlink:href="#Cambria-373" transform="translate(0 0.504516)"/>
       <use xlink:href="#Cambria-372" transform="translate(55.371094 0.504516)"/>
       <use xlink:href="#Cambria-373" transform="translate(114.746478 41.79375) scale(0.7)"/>
       <use xlink:href="#Cambria-374" transform="translate(153.506244 41.79375) scale(0.7)"/>
      </g>
     </g>
    </g>
    <g id="text_7">
     <!-- prime group order $n$ -->
     <g style="fill: #0b0b0b" transform="translate(187.253008 264.795) scale(0.12 -0.12)">
      <defs>
       <path id="Cambria-92" d="M 1150 94 
L 1150 -566 
Q 1150 -769 1164 -869 
Q 1178 -969 1214 -1026 
Q 1250 -1084 1317 -1121 
Q 1384 -1159 1534 -1191 
L 1534 -1344 
L 259 -1344 
L 259 -1191 
Q 372 -1159 442 -1126 
Q 513 -1094 550 -1030 
Q 588 -966 600 -856 
Q 613 -747 613 -566 
L 613 2116 
Q 613 2341 606 2436 
Q 600 2531 581 2593 
Q 563 2656 527 2697 
Q 491 2738 430 2766 
Q 369 2794 228 2822 
L 228 2988 
L 963 3016 
L 1153 3016 
L 1113 2506 
L 1159 2494 
Q 1353 2691 1465 2780 
Q 1578 2869 1698 2928 
Q 1819 2988 1930 3013 
Q 2041 3038 2166 3038 
Q 2681 3038 2957 2652 
Q 3234 2266 3234 1522 
Q 3234 1006 3078 654 
Q 2922 303 2623 126 
Q 2325 -50 1913 -50 
Q 1681 -50 1493 -11 
Q 1306 28 1150 94 
z
M 1150 1125 
Q 1150 825 1187 662 
Q 1225 500 1320 398 
Q 1416 297 1545 247 
Q 1675 197 1888 197 
Q 2266 197 2456 511 
Q 2647 825 2647 1438 
Q 2647 2663 1931 2663 
Q 1756 2663 1629 2608 
Q 1503 2553 1378 2431 
Q 1253 2309 1201 2195 
Q 1150 2081 1150 1950 
L 1150 1125 
z
" transform="scale(0.015625)"/>
       <path id="Cambria-94" d="M 1147 2469 
L 1191 2459 
Q 1363 2669 1509 2789 
Q 1656 2909 1826 2975 
Q 1997 3041 2213 3041 
Q 2394 3041 2541 3022 
L 2541 2303 
L 2188 2303 
Q 2113 2472 2028 2548 
Q 1944 2625 1797 2625 
Q 1684 2625 1573 2559 
Q 1463 2494 1359 2369 
Q 1256 2244 1217 2134 
Q 1178 2025 1178 1875 
L 1178 781 
Q 1178 497 1212 389 
Q 1247 281 1326 231 
Q 1406 181 1566 153 
L 1566 0 
L 306 0 
L 306 153 
Q 425 191 476 219 
Q 528 247 565 297 
Q 603 347 622 450 
Q 641 553 641 772 
L 641 2134 
Q 641 2334 634 2456 
Q 628 2578 590 2651 
Q 553 2725 476 2761 
Q 400 2797 259 2822 
L 259 2984 
L 991 3016 
L 1181 3016 
L 1147 2469 
z
" transform="scale(0.015625)"/>
       <path id="Cambria-8b" d="M 1197 4213 
L 1197 3606 
L 622 3606 
L 622 4213 
L 1197 4213 
z
M 303 153 
Q 425 191 476 219 
Q 528 247 564 297 
Q 600 347 620 450 
Q 641 553 641 772 
L 641 2134 
Q 641 2334 634 2456 
Q 628 2578 590 2651 
Q 553 2725 476 2761 
Q 400 2797 259 2822 
L 259 2988 
L 988 3016 
L 1178 3016 
L 1178 781 
Q 1178 513 1203 408 
Q 1228 303 1298 248 
Q 1369 194 1528 153 
L 1528 0 
L 303 0 
L 303 153 
z
" transform="scale(0.015625)"/>
       <path id="Cambria-8f" d="M 1147 2506 
L 1191 2494 
Q 1378 2681 1498 2776 
Q 1619 2872 1731 2930 
Q 1844 2988 1942 3013 
Q 2041 3038 2144 3038 
Q 2456 3038 2653 2894 
Q 2850 2750 2925 2453 
Q 3159 2691 3304 2803 
Q 3450 2916 3601 2977 
Q 3753 3038 3928 3038 
Q 4138 3038 4289 2977 
Q 4441 2916 4545 2789 
Q 4650 2663 4698 2472 
Q 4747 2281 4747 1959 
L 4747 781 
Q 4747 544 4762 453 
Q 4778 363 4808 313 
Q 4838 263 4897 227 
Q 4956 191 5097 153 
L 5097 0 
L 3869 0 
L 3869 153 
Q 3991 191 4044 219 
Q 4097 247 4133 297 
Q 4169 347 4189 451 
Q 4209 556 4209 769 
L 4209 1588 
Q 4209 1853 4195 2026 
Q 4181 2200 4151 2303 
Q 4122 2406 4080 2465 
Q 4038 2525 3984 2569 
Q 3931 2613 3859 2638 
Q 3788 2663 3669 2663 
Q 3544 2663 3436 2613 
Q 3328 2563 3201 2444 
Q 3075 2325 3019 2204 
Q 2963 2084 2963 1922 
L 2963 781 
Q 2963 544 2978 453 
Q 2994 363 3023 313 
Q 3053 263 3112 227 
Q 3172 191 3313 153 
L 3313 0 
L 2084 0 
L 2084 153 
Q 2206 191 2259 219 
Q 2313 247 2348 297 
Q 2384 347 2404 451 
Q 2425 556 2425 769 
L 2425 1588 
Q 2425 1866 2409 2041 
Q 2394 2216 2361 2322 
Q 2328 2428 2276 2493 
Q 2225 2559 2172 2593 
Q 2119 2628 2047 2645 
Q 1975 2663 1884 2663 
Q 1756 2663 1643 2605 
Q 1531 2547 1414 2437 
Q 1297 2328 1237 2209 
Q 1178 2091 1178 1953 
L 1178 781 
Q 1178 603 1187 509 
Q 1197 416 1217 362 
Q 1238 309 1269 276 
Q 1300 244 1358 214 
Q 1416 184 1531 153 
L 1531 0 
L 306 0 
L 306 153 
Q 425 191 476 219 
Q 528 247 565 297 
Q 603 347 622 450 
Q 641 553 641 772 
L 641 2134 
Q 641 2334 634 2456 
Q 628 2578 590 2651 
Q 553 2725 476 2761 
Q 400 2797 259 2822 
L 259 2988 
L 991 3016 
L 1181 3016 
L 1147 2506 
z
" transform="scale(0.015625)"/>
       <path id="Cambria-87" d="M 2800 531 
Q 2600 322 2433 203 
Q 2266 84 2066 17 
Q 1866 -50 1625 -50 
Q 981 -50 653 336 
Q 325 722 325 1475 
Q 325 1941 492 2297 
Q 659 2653 968 2847 
Q 1278 3041 1681 3041 
Q 1997 3041 2219 2941 
Q 2441 2841 2573 2667 
Q 2706 2494 2779 2230 
Q 2853 1966 2863 1541 
L 894 1541 
L 894 1484 
Q 894 1116 976 864 
Q 1059 613 1248 470 
Q 1438 328 1741 328 
Q 1997 328 2201 423 
Q 2406 519 2609 734 
L 2800 531 
z
M 2275 1800 
Q 2256 2138 2190 2352 
Q 2125 2566 1994 2680 
Q 1863 2794 1650 2794 
Q 1328 2794 1136 2536 
Q 944 2278 909 1800 
L 2275 1800 
z
" transform="scale(0.015625)"/>
       <path id="Cambria-3" transform="scale(0.015625)"/>
       <path id="Cambria-89" d="M 3106 2672 
L 2528 2694 
L 2500 2659 
Q 2597 2563 2653 2395 
Q 2709 2228 2709 2034 
Q 2709 1525 2395 1248 
Q 2081 972 1503 972 
Q 1244 972 1056 1038 
Q 819 856 819 681 
Q 819 566 864 506 
Q 909 447 1014 422 
Q 1119 397 1331 397 
L 2081 397 
Q 2413 397 2622 294 
Q 2831 191 2920 17 
Q 3009 -156 3009 -388 
Q 3009 -681 2840 -911 
Q 2672 -1141 2353 -1269 
Q 2034 -1397 1609 -1397 
Q 1294 -1397 1033 -1359 
Q 772 -1322 586 -1233 
Q 400 -1144 298 -998 
Q 197 -853 197 -634 
Q 197 -438 328 -277 
Q 459 -116 700 6 
Q 553 66 468 181 
Q 384 297 384 453 
Q 384 631 484 779 
Q 584 928 838 1119 
Q 613 1250 495 1475 
Q 378 1700 378 1988 
Q 378 2256 467 2454 
Q 556 2653 714 2783 
Q 872 2913 1087 2977 
Q 1303 3041 1553 3041 
Q 1778 3041 2000 2988 
L 3106 2988 
L 3106 2672 
z
M 938 2038 
Q 938 1647 1097 1434 
Q 1256 1222 1556 1222 
Q 1716 1222 1828 1283 
Q 1941 1344 2011 1450 
Q 2081 1556 2114 1695 
Q 2147 1834 2147 1988 
Q 2147 2263 2069 2447 
Q 1991 2631 1856 2717 
Q 1722 2803 1547 2803 
Q 1250 2803 1094 2606 
Q 938 2409 938 2038 
z
M 1016 -50 
Q 856 -169 776 -301 
Q 697 -434 697 -603 
Q 697 -884 920 -1017 
Q 1144 -1150 1603 -1150 
Q 1884 -1150 2086 -1075 
Q 2288 -1000 2394 -859 
Q 2500 -719 2500 -531 
Q 2500 -444 2478 -361 
Q 2456 -278 2395 -212 
Q 2334 -147 2221 -108 
Q 2109 -69 1928 -69 
L 1463 -69 
Q 1209 -69 1016 -50 
z
" transform="scale(0.015625)"/>
       <path id="Cambria-91" d="M 1663 -50 
Q 1013 -50 670 333 
Q 328 716 328 1466 
Q 328 1981 508 2337 
Q 688 2694 1000 2867 
Q 1313 3041 1713 3041 
Q 2381 3041 2725 2652 
Q 3069 2263 3069 1534 
Q 3069 1016 2897 659 
Q 2725 303 2409 126 
Q 2094 -50 1663 -50 
z
M 919 1531 
Q 919 888 1123 542 
Q 1328 197 1709 197 
Q 1919 197 2066 298 
Q 2213 400 2305 572 
Q 2397 744 2437 970 
Q 2478 1197 2478 1444 
Q 2478 1903 2376 2206 
Q 2275 2509 2100 2651 
Q 1925 2794 1700 2794 
Q 1322 2794 1120 2466 
Q 919 2138 919 1531 
z
" transform="scale(0.015625)"/>
       <path id="Cambria-97" d="M 228 2988 
L 1119 2988 
L 1119 1397 
Q 1119 1031 1147 840 
Q 1175 650 1231 553 
Q 1288 456 1391 390 
Q 1494 325 1675 325 
Q 1794 325 1903 372 
Q 2013 419 2147 536 
Q 2281 653 2339 768 
Q 2397 884 2397 1038 
L 2397 2209 
Q 2397 2388 2387 2478 
Q 2378 2569 2356 2623 
Q 2334 2678 2304 2712 
Q 2275 2747 2220 2775 
Q 2166 2803 2044 2834 
L 2044 2988 
L 2934 2988 
L 2934 853 
Q 2934 613 2943 506 
Q 2953 400 2984 337 
Q 3016 275 3081 236 
Q 3147 197 3316 163 
L 3316 0 
L 2600 -31 
L 2409 -31 
L 2428 481 
L 2381 494 
Q 2122 213 1886 81 
Q 1650 -50 1413 -50 
Q 1128 -50 943 62 
Q 759 175 668 398 
Q 578 622 578 1028 
L 578 2209 
Q 578 2472 558 2570 
Q 538 2669 480 2726 
Q 422 2784 228 2834 
L 228 2988 
z
" transform="scale(0.015625)"/>
       <path id="Cambria-86" d="M 2413 3397 
Q 2413 3697 2408 3815 
Q 2403 3934 2383 4017 
Q 2363 4100 2327 4147 
Q 2291 4194 2230 4222 
Q 2169 4250 2009 4278 
L 2009 4441 
L 2766 4472 
L 2950 4472 
L 2950 853 
Q 2950 609 2959 504 
Q 2969 400 3000 337 
Q 3031 275 3098 236 
Q 3166 197 3334 163 
L 3334 0 
L 2597 -31 
L 2409 -31 
L 2447 481 
L 2400 494 
Q 2203 284 2058 179 
Q 1913 75 1748 12 
Q 1584 -50 1397 -50 
Q 884 -50 606 339 
Q 328 728 328 1463 
Q 328 1975 509 2333 
Q 691 2691 998 2866 
Q 1306 3041 1691 3041 
Q 1897 3041 2065 3008 
Q 2234 2975 2413 2900 
L 2413 3397 
z
M 2413 1853 
Q 2413 2097 2391 2244 
Q 2369 2391 2317 2491 
Q 2266 2591 2178 2659 
Q 2091 2728 1986 2759 
Q 1881 2791 1734 2791 
Q 1334 2791 1125 2470 
Q 916 2150 916 1550 
Q 916 950 1087 637 
Q 1259 325 1609 325 
Q 1747 325 1837 348 
Q 1928 372 2015 423 
Q 2103 475 2193 565 
Q 2284 656 2326 731 
Q 2369 806 2391 903 
Q 2413 1000 2413 1153 
L 2413 1853 
z
" transform="scale(0.015625)"/>
       <path id="Cmmi10-7a" d="M 494 109 
Q 494 147 500 166 
L 978 2075 
Q 1025 2253 1025 2388 
Q 1025 2663 838 2663 
Q 638 2663 541 2423 
Q 444 2184 353 1819 
Q 353 1800 334 1789 
Q 316 1778 300 1778 
L 225 1778 
Q 203 1778 187 1801 
Q 172 1825 172 1844 
Q 241 2122 305 2315 
Q 369 2509 505 2668 
Q 641 2828 844 2828 
Q 1084 2828 1268 2676 
Q 1453 2525 1453 2291 
Q 1644 2541 1900 2684 
Q 2156 2828 2444 2828 
Q 2672 2828 2837 2750 
Q 3003 2672 3095 2514 
Q 3188 2356 3188 2138 
Q 3188 1875 3070 1503 
Q 2953 1131 2778 672 
Q 2688 463 2688 288 
Q 2688 97 2834 97 
Q 3084 97 3251 365 
Q 3419 634 3488 941 
Q 3500 978 3541 978 
L 3616 978 
Q 3641 978 3658 962 
Q 3675 947 3675 922 
Q 3675 916 3669 903 
Q 3581 541 3364 234 
Q 3147 -72 2822 -72 
Q 2597 -72 2437 83 
Q 2278 238 2278 459 
Q 2278 578 2328 709 
Q 2409 919 2514 1209 
Q 2619 1500 2686 1765 
Q 2753 2031 2753 2234 
Q 2753 2413 2679 2538 
Q 2606 2663 2431 2663 
Q 2197 2663 2000 2559 
Q 1803 2456 1656 2286 
Q 1509 2116 1388 1881 
L 953 141 
Q 931 53 854 -9 
Q 778 -72 684 -72 
Q 606 -72 550 -22 
Q 494 28 494 109 
z
" transform="scale(0.015625)"/>
      </defs>
      <use xlink:href="#Cambria-92" transform="translate(0 0.125)"/>
      <use xlink:href="#Cambria-94" transform="translate(55.615234 0.125)"/>
      <use xlink:href="#Cambria-8b" transform="translate(96.972656 0.125)"/>
      <use xlink:href="#Cambria-8f" transform="translate(124.755859 0.125)"/>
      <use xlink:href="#Cambria-87" transform="translate(207.958984 0.125)"/>
      <use xlink:href="#Cambria-3" transform="translate(256.738281 0.125)"/>
      <use xlink:href="#Cambria-89" transform="translate(278.759766 0.125)"/>
      <use xlink:href="#Cambria-94" transform="translate(328.173828 0.125)"/>
      <use xlink:href="#Cambria-91" transform="translate(369.53125 0.125)"/>
      <use xlink:href="#Cambria-97" transform="translate(422.607422 0.125)"/>
      <use xlink:href="#Cambria-92" transform="translate(477.832031 0.125)"/>
      <use xlink:href="#Cambria-3" transform="translate(533.447266 0.125)"/>
      <use xlink:href="#Cambria-91" transform="translate(555.46875 0.125)"/>
      <use xlink:href="#Cambria-94" transform="translate(608.544922 0.125)"/>
      <use xlink:href="#Cambria-86" transform="translate(649.902344 0.125)"/>
      <use xlink:href="#Cambria-87" transform="translate(705.371094 0.125)"/>
      <use xlink:href="#Cambria-94" transform="translate(754.150391 0.125)"/>
      <use xlink:href="#Cambria-3" transform="translate(795.507812 0.125)"/>
      <use xlink:href="#Cmmi10-7a" transform="translate(817.529297 0.125)"/>
     </g>
    </g>
   </g>
   <g id="matplotlib.axis_2">
    <g id="ytick_1">
     <g id="line2d_13">
      <path d="M 47 226.355259 
L 432.866016 226.355259 
" clip-path="url(#p088432e3fe)" style="fill: none; stroke: #e1e0d9; stroke-width: 0.7; stroke-linecap: square"/>
     </g>
     <g id="line2d_14">
      <defs>
       <path id="m2943c1358d" d="M 0 0 
L -3.5 0 
" style="stroke: #898781; stroke-width: 0.8"/>
      </defs>
      <g>
       <use xlink:href="#m2943c1358d" x="47" y="226.355259" style="fill: #898781; stroke: #898781; stroke-width: 0.8"/>
      </g>
     </g>
     <g id="text_8">
      <!-- $\mathdefault{10^{1}}$ -->
      <g style="fill: #52514e" transform="translate(23.2 231.027759) scale(0.105 -0.105)">
       <use xlink:href="#Cambria-373" transform="translate(0 0.504516)"/>
       <use xlink:href="#Cambria-372" transform="translate(55.371094 0.504516)"/>
       <use xlink:href="#Cambria-373" transform="translate(114.746478 41.79375) scale(0.7)"/>
      </g>
     </g>
    </g>
    <g id="ytick_2">
     <g id="line2d_15">
      <path d="M 47 158.835446 
L 432.866016 158.835446 
" clip-path="url(#p088432e3fe)" style="fill: none; stroke: #e1e0d9; stroke-width: 0.7; stroke-linecap: square"/>
     </g>
     <g id="line2d_16">
      <g>
       <use xlink:href="#m2943c1358d" x="47" y="158.835446" style="fill: #898781; stroke: #898781; stroke-width: 0.8"/>
      </g>
     </g>
     <g id="text_9">
      <!-- $\mathdefault{10^{2}}$ -->
      <g style="fill: #52514e" transform="translate(23.2 163.507946) scale(0.105 -0.105)">
       <use xlink:href="#Cambria-373" transform="translate(0 0.504516)"/>
       <use xlink:href="#Cambria-372" transform="translate(55.371094 0.504516)"/>
       <use xlink:href="#Cambria-374" transform="translate(114.746478 41.79375) scale(0.7)"/>
      </g>
     </g>
    </g>
    <g id="ytick_3">
     <g id="line2d_17">
      <path d="M 47 91.315632 
L 432.866016 91.315632 
" clip-path="url(#p088432e3fe)" style="fill: none; stroke: #e1e0d9; stroke-width: 0.7; stroke-linecap: square"/>
     </g>
     <g id="line2d_18">
      <g>
       <use xlink:href="#m2943c1358d" x="47" y="91.315632" style="fill: #898781; stroke: #898781; stroke-width: 0.8"/>
      </g>
     </g>
     <g id="text_10">
      <!-- $\mathdefault{10^{3}}$ -->
      <g style="fill: #52514e" transform="translate(23.2 95.988132) scale(0.105 -0.105)">
       <defs>
        <path id="Cambria-375" d="M 497 3381 
L 497 3975 
Q 859 4147 1175 4231 
Q 1491 4316 1784 4316 
Q 2138 4316 2403 4206 
Q 2669 4097 2809 3892 
Q 2950 3688 2950 3403 
Q 2950 3138 2844 2936 
Q 2738 2734 2545 2584 
Q 2353 2434 2047 2291 
L 2047 2263 
Q 2238 2228 2414 2145 
Q 2591 2063 2728 1931 
Q 2866 1800 2948 1617 
Q 3031 1434 3031 1200 
Q 3031 838 2873 556 
Q 2716 275 2391 112 
Q 2066 -50 1600 -50 
Q 1331 -50 1020 11 
Q 709 72 450 172 
L 450 834 
L 825 834 
Q 934 509 1114 362 
Q 1294 216 1603 216 
Q 2009 216 2217 437 
Q 2425 659 2425 1094 
Q 2425 1550 2150 1790 
Q 1875 2031 1344 2031 
L 1063 2031 
L 1063 2306 
Q 1484 2331 1773 2468 
Q 2063 2606 2203 2822 
Q 2344 3038 2344 3306 
Q 2344 3653 2159 3840 
Q 1975 4028 1622 4028 
Q 1328 4028 1143 3868 
Q 959 3709 872 3381 
L 497 3381 
z
" transform="scale(0.015625)"/>
       </defs>
       <use xlink:href="#Cambria-373" transform="translate(0 0.504516)"/>
       <use xlink:href="#Cambria-372" transform="translate(55.371094 0.504516)"/>
       <use xlink:href="#Cambria-375" transform="translate(114.746478 41.79375) scale(0.7)"/>
      </g>
     </g>
    </g>
    <g id="ytick_4">
     <g id="line2d_19">
      <defs>
       <path id="m540848815c" d="M 0 0 
L -2 0 
" style="stroke: #898781; stroke-width: 0.6"/>
      </defs>
      <g>
       <use xlink:href="#m540848815c" x="47" y="229.444796" style="fill: #898781; stroke: #898781; stroke-width: 0.6"/>
      </g>
     </g>
    </g>
    <g id="ytick_5">
     <g id="line2d_20">
      <g>
       <use xlink:href="#m540848815c" x="47" y="206.02977" style="fill: #898781; stroke: #898781; stroke-width: 0.6"/>
      </g>
     </g>
    </g>
    <g id="ytick_6">
     <g id="line2d_21">
      <g>
       <use xlink:href="#m540848815c" x="47" y="194.140121" style="fill: #898781; stroke: #898781; stroke-width: 0.6"/>
      </g>
     </g>
    </g>
    <g id="ytick_7">
     <g id="line2d_22">
      <g>
       <use xlink:href="#m540848815c" x="47" y="185.704281" style="fill: #898781; stroke: #898781; stroke-width: 0.6"/>
      </g>
     </g>
    </g>
    <g id="ytick_8">
     <g id="line2d_23">
      <g>
       <use xlink:href="#m540848815c" x="47" y="179.160935" style="fill: #898781; stroke: #898781; stroke-width: 0.6"/>
      </g>
     </g>
    </g>
    <g id="ytick_9">
     <g id="line2d_24">
      <g>
       <use xlink:href="#m540848815c" x="47" y="173.814632" style="fill: #898781; stroke: #898781; stroke-width: 0.6"/>
      </g>
     </g>
    </g>
    <g id="ytick_10">
     <g id="line2d_25">
      <g>
       <use xlink:href="#m540848815c" x="47" y="169.294397" style="fill: #898781; stroke: #898781; stroke-width: 0.6"/>
      </g>
     </g>
    </g>
    <g id="ytick_11">
     <g id="line2d_26">
      <g>
       <use xlink:href="#m540848815c" x="47" y="165.378792" style="fill: #898781; stroke: #898781; stroke-width: 0.6"/>
      </g>
     </g>
    </g>
    <g id="ytick_12">
     <g id="line2d_27">
      <g>
       <use xlink:href="#m540848815c" x="47" y="161.924983" style="fill: #898781; stroke: #898781; stroke-width: 0.6"/>
      </g>
     </g>
    </g>
    <g id="ytick_13">
     <g id="line2d_28">
      <g>
       <use xlink:href="#m540848815c" x="47" y="138.509956" style="fill: #898781; stroke: #898781; stroke-width: 0.6"/>
      </g>
     </g>
    </g>
    <g id="ytick_14">
     <g id="line2d_29">
      <g>
       <use xlink:href="#m540848815c" x="47" y="126.620308" style="fill: #898781; stroke: #898781; stroke-width: 0.6"/>
      </g>
     </g>
    </g>
    <g id="ytick_15">
     <g id="line2d_30">
      <g>
       <use xlink:href="#m540848815c" x="47" y="118.184467" style="fill: #898781; stroke: #898781; stroke-width: 0.6"/>
      </g>
     </g>
    </g>
    <g id="ytick_16">
     <g id="line2d_31">
      <g>
       <use xlink:href="#m540848815c" x="47" y="111.641121" style="fill: #898781; stroke: #898781; stroke-width: 0.6"/>
      </g>
     </g>
    </g>
    <g id="ytick_17">
     <g id="line2d_32">
      <g>
       <use xlink:href="#m540848815c" x="47" y="106.294818" style="fill: #898781; stroke: #898781; stroke-width: 0.6"/>
      </g>
     </g>
    </g>
    <g id="ytick_18">
     <g id="line2d_33">
      <g>
       <use xlink:href="#m540848815c" x="47" y="101.774584" style="fill: #898781; stroke: #898781; stroke-width: 0.6"/>
      </g>
     </g>
    </g>
    <g id="ytick_19">
     <g id="line2d_34">
      <g>
       <use xlink:href="#m540848815c" x="47" y="97.858978" style="fill: #898781; stroke: #898781; stroke-width: 0.6"/>
      </g>
     </g>
    </g>
    <g id="ytick_20">
     <g id="line2d_35">
      <g>
       <use xlink:href="#m540848815c" x="47" y="94.405169" style="fill: #898781; stroke: #898781; stroke-width: 0.6"/>
      </g>
     </g>
    </g>
    <g id="ytick_21">
     <g id="line2d_36">
      <g>
       <use xlink:href="#m540848815c" x="47" y="70.990143" style="fill: #898781; stroke: #898781; stroke-width: 0.6"/>
      </g>
     </g>
    </g>
    <g id="ytick_22">
     <g id="line2d_37">
      <g>
       <use xlink:href="#m540848815c" x="47" y="59.100494" style="fill: #898781; stroke: #898781; stroke-width: 0.6"/>
      </g>
     </g>
    </g>
    <g id="ytick_23">
     <g id="line2d_38">
      <g>
       <use xlink:href="#m540848815c" x="47" y="50.664654" style="fill: #898781; stroke: #898781; stroke-width: 0.6"/>
      </g>
     </g>
    </g>
    <g id="ytick_24">
     <g id="line2d_39">
      <g>
       <use xlink:href="#m540848815c" x="47" y="44.121308" style="fill: #898781; stroke: #898781; stroke-width: 0.6"/>
      </g>
     </g>
    </g>
    <g id="ytick_25">
     <g id="line2d_40">
      <g>
       <use xlink:href="#m540848815c" x="47" y="38.775005" style="fill: #898781; stroke: #898781; stroke-width: 0.6"/>
      </g>
     </g>
    </g>
    <g id="ytick_26">
     <g id="line2d_41">
      <g>
       <use xlink:href="#m540848815c" x="47" y="34.25477" style="fill: #898781; stroke: #898781; stroke-width: 0.6"/>
      </g>
     </g>
    </g>
    <g id="ytick_27">
     <g id="line2d_42">
      <g>
       <use xlink:href="#m540848815c" x="47" y="30.339165" style="fill: #898781; stroke: #898781; stroke-width: 0.6"/>
      </g>
     </g>
    </g>
    <g id="ytick_28">
     <g id="line2d_43">
      <g>
       <use xlink:href="#m540848815c" x="47" y="26.885356" style="fill: #898781; stroke: #898781; stroke-width: 0.6"/>
      </g>
     </g>
    </g>
    <g id="text_11">
     <!-- median oracle exponentiations -->
     <g style="fill: #0b0b0b" transform="translate(16.533984 207.916597) rotate(-90) scale(0.12 -0.12)">
      <defs>
       <path id="Cambria-83" d="M 2109 447 
L 2063 459 
Q 1791 181 1552 65 
Q 1313 -50 1044 -50 
Q 806 -50 625 42 
Q 444 134 347 301 
Q 250 469 250 688 
Q 250 1144 701 1392 
Q 1153 1641 2056 1681 
L 2056 1884 
Q 2056 2209 1993 2396 
Q 1931 2584 1797 2671 
Q 1663 2759 1438 2759 
Q 1194 2759 1045 2631 
Q 897 2503 822 2247 
L 413 2247 
L 413 2653 
Q 713 2809 913 2882 
Q 1113 2956 1313 2998 
Q 1513 3041 1719 3041 
Q 2028 3041 2215 2942 
Q 2403 2844 2497 2641 
Q 2591 2438 2591 2028 
L 2591 941 
Q 2591 709 2594 614 
Q 2597 519 2612 437 
Q 2628 356 2659 307 
Q 2691 259 2752 225 
Q 2813 191 2950 153 
L 2950 0 
L 2094 0 
L 2109 447 
z
M 2056 1425 
Q 1422 1419 1106 1256 
Q 791 1094 791 766 
Q 791 588 862 484 
Q 934 381 1043 342 
Q 1153 303 1303 303 
Q 1516 303 1689 406 
Q 1863 509 1959 668 
Q 2056 828 2056 984 
L 2056 1425 
z
" transform="scale(0.015625)"/>
       <path id="Cambria-90" d="M 3347 0 
L 2116 0 
L 2116 153 
Q 2238 191 2291 219 
Q 2344 247 2380 297 
Q 2416 347 2436 451 
Q 2456 556 2456 769 
L 2456 1588 
Q 2456 1806 2443 1984 
Q 2431 2163 2401 2277 
Q 2372 2391 2330 2455 
Q 2288 2519 2230 2564 
Q 2172 2609 2097 2636 
Q 2022 2663 1900 2663 
Q 1778 2663 1668 2614 
Q 1559 2566 1428 2447 
Q 1297 2328 1237 2212 
Q 1178 2097 1178 1947 
L 1178 781 
Q 1178 513 1203 408 
Q 1228 303 1298 248 
Q 1369 194 1528 153 
L 1528 0 
L 303 0 
L 303 153 
Q 425 191 476 219 
Q 528 247 564 297 
Q 600 347 620 450 
Q 641 553 641 772 
L 641 2134 
Q 641 2334 634 2456 
Q 628 2578 590 2651 
Q 553 2725 476 2761 
Q 400 2797 259 2822 
L 259 2988 
L 991 3016 
L 1181 3016 
L 1147 2506 
L 1191 2494 
Q 1422 2728 1564 2828 
Q 1706 2928 1851 2983 
Q 1997 3038 2159 3038 
Q 2328 3038 2461 2998 
Q 2594 2959 2695 2878 
Q 2797 2797 2862 2676 
Q 2928 2556 2961 2387 
Q 2994 2219 2994 1959 
L 2994 781 
Q 2994 566 3006 469 
Q 3019 372 3050 319 
Q 3081 266 3140 230 
Q 3200 194 3347 153 
L 3347 0 
z
" transform="scale(0.015625)"/>
       <path id="Cambria-85" d="M 2631 2916 
L 2631 2263 
L 2234 2263 
Q 2181 2466 2103 2583 
Q 2025 2700 1922 2747 
Q 1819 2794 1666 2794 
Q 1447 2794 1278 2653 
Q 1109 2513 1011 2225 
Q 913 1938 913 1522 
Q 913 1256 950 1036 
Q 988 816 1078 659 
Q 1169 503 1319 415 
Q 1469 328 1691 328 
Q 1906 328 2092 412 
Q 2278 497 2478 709 
L 2656 503 
Q 2497 328 2375 233 
Q 2253 138 2114 73 
Q 1975 9 1839 -20 
Q 1703 -50 1544 -50 
Q 953 -50 640 342 
Q 328 734 328 1475 
Q 328 1938 503 2295 
Q 678 2653 993 2847 
Q 1309 3041 1722 3041 
Q 1978 3041 2195 3011 
Q 2413 2981 2631 2916 
z
" transform="scale(0.015625)"/>
       <path id="Cambria-8e" d="M 1138 781 
Q 1138 513 1163 408 
Q 1188 303 1258 248 
Q 1328 194 1488 153 
L 1488 0 
L 247 0 
L 247 153 
Q 403 194 464 237 
Q 525 281 551 342 
Q 578 403 589 508 
Q 600 613 600 781 
L 600 3397 
Q 600 3697 595 3815 
Q 591 3934 570 4017 
Q 550 4100 514 4147 
Q 478 4194 417 4222 
Q 356 4250 197 4278 
L 197 4441 
L 950 4472 
L 1138 4472 
L 1138 781 
z
" transform="scale(0.015625)"/>
       <path id="Cambria-9a" d="M 1625 1803 
L 2031 2319 
Q 2097 2403 2137 2483 
Q 2178 2563 2178 2647 
Q 2178 2719 2125 2766 
Q 2072 2813 1959 2834 
L 1959 2988 
L 2981 2988 
L 2981 2834 
Q 2863 2800 2739 2700 
Q 2616 2600 2438 2378 
L 1791 1584 
L 2503 625 
Q 2656 419 2778 309 
Q 2900 200 3022 153 
L 3022 0 
L 1766 0 
L 1766 153 
Q 2025 184 2025 347 
Q 2025 413 2003 472 
Q 1981 531 1922 609 
L 1469 1241 
L 988 616 
Q 934 547 904 489 
Q 875 431 875 359 
Q 875 275 933 220 
Q 991 166 1116 153 
L 1116 0 
L 72 0 
L 72 153 
Q 175 191 258 247 
Q 341 303 427 392 
Q 513 481 653 653 
L 1303 1459 
L 638 2372 
Q 500 2559 419 2643 
Q 338 2728 269 2772 
Q 200 2816 131 2834 
L 131 2988 
L 1356 2988 
L 1356 2834 
Q 1109 2797 1109 2641 
Q 1109 2569 1142 2497 
Q 1175 2425 1244 2338 
L 1625 1803 
z
" transform="scale(0.015625)"/>
       <path id="Cambria-96" d="M 116 2831 
Q 272 2856 369 2918 
Q 466 2981 520 3079 
Q 575 3178 606 3326 
Q 638 3475 672 3759 
L 1116 3759 
L 1116 2988 
L 2125 2988 
L 2125 2672 
L 1116 2672 
L 1116 1281 
Q 1116 978 1141 798 
Q 1166 619 1234 517 
Q 1303 416 1390 372 
Q 1478 328 1616 328 
Q 1741 328 1850 379 
Q 1959 431 2066 528 
L 2206 359 
Q 1984 144 1786 47 
Q 1588 -50 1375 -50 
Q 972 -50 775 189 
Q 578 428 578 938 
L 578 2672 
L 116 2672 
L 116 2831 
z
" transform="scale(0.015625)"/>
       <path id="Cambria-95" d="M 2397 2303 
L 2097 2303 
Q 2028 2491 1934 2598 
Q 1841 2706 1722 2750 
Q 1603 2794 1431 2794 
Q 1181 2794 1032 2676 
Q 884 2559 884 2356 
Q 884 2213 943 2119 
Q 1003 2025 1128 1944 
Q 1253 1863 1569 1728 
Q 1888 1591 2061 1475 
Q 2234 1359 2332 1206 
Q 2431 1053 2431 841 
Q 2431 594 2347 425 
Q 2263 256 2109 150 
Q 1956 44 1745 -3 
Q 1534 -50 1284 -50 
Q 1022 -50 775 -11 
Q 528 28 294 91 
L 294 744 
L 600 744 
Q 684 456 850 326 
Q 1016 197 1306 197 
Q 1419 197 1526 220 
Q 1634 244 1718 298 
Q 1803 353 1853 447 
Q 1903 541 1903 681 
Q 1903 841 1840 941 
Q 1778 1041 1647 1123 
Q 1516 1206 1184 1347 
Q 900 1466 728 1578 
Q 556 1691 457 1844 
Q 359 1997 359 2206 
Q 359 2463 498 2652 
Q 638 2841 900 2941 
Q 1163 3041 1516 3041 
Q 1722 3041 1914 3020 
Q 2106 3000 2397 2941 
L 2397 2303 
z
" transform="scale(0.015625)"/>
      </defs>
      <use xlink:href="#Cambria-8f"/>
      <use xlink:href="#Cambria-87" transform="translate(83.203125 0)"/>
      <use xlink:href="#Cambria-86" transform="translate(131.984375 0)"/>
      <use xlink:href="#Cambria-8b" transform="translate(187.453125 0)"/>
      <use xlink:href="#Cambria-83" transform="translate(215.234375 0)"/>
      <use xlink:href="#Cambria-90" transform="translate(264.0625 0)"/>
      <use xlink:href="#Cambria-3" transform="translate(319.875 0)"/>
      <use xlink:href="#Cambria-91" transform="translate(341.890625 0)"/>
      <use xlink:href="#Cambria-94" transform="translate(394.96875 0)"/>
      <use xlink:href="#Cambria-83" transform="translate(434.625 0)"/>
      <use xlink:href="#Cambria-85" transform="translate(483.453125 0)"/>
      <use xlink:href="#Cambria-8e" transform="translate(527.546875 0)"/>
      <use xlink:href="#Cambria-87" transform="translate(554.703125 0)"/>
      <use xlink:href="#Cambria-3" transform="translate(603.484375 0)"/>
      <use xlink:href="#Cambria-87" transform="translate(625.5 0)"/>
      <use xlink:href="#Cambria-9a" transform="translate(673.109375 0)"/>
      <use xlink:href="#Cambria-92" transform="translate(721.453125 0)"/>
      <use xlink:href="#Cambria-91" transform="translate(777.0625 0)"/>
      <use xlink:href="#Cambria-90" transform="translate(830.140625 0)"/>
      <use xlink:href="#Cambria-87" transform="translate(885.953125 0)"/>
      <use xlink:href="#Cambria-90" transform="translate(934.734375 0)"/>
      <use xlink:href="#Cambria-96" transform="translate(990.546875 0)"/>
      <use xlink:href="#Cambria-8b" transform="translate(1024.390625 0)"/>
      <use xlink:href="#Cambria-83" transform="translate(1052.171875 0)"/>
      <use xlink:href="#Cambria-96" transform="translate(1101 0)"/>
      <use xlink:href="#Cambria-8b" transform="translate(1134.84375 0)"/>
      <use xlink:href="#Cambria-91" transform="translate(1162.625 0)"/>
      <use xlink:href="#Cambria-90" transform="translate(1215.703125 0)"/>
      <use xlink:href="#Cambria-95" transform="translate(1271.515625 0)"/>
     </g>
    </g>
   </g>
   <g id="FillBetweenPolyCollection_1">
    <defs>
     <path id="mf276a27d3f" d="M 64.539364 -51.308283 
L 64.539364 -54.643345 
L 66.302115 -55.563421 
L 68.064865 -56.483496 
L 69.827615 -57.403572 
L 71.590365 -58.323648 
L 73.353115 -59.243724 
L 75.115865 -60.1638 
L 76.878616 -61.083876 
L 78.641366 -62.003951 
L 80.404116 -62.924027 
L 82.166866 -63.844103 
L 83.929616 -64.764179 
L 85.692367 -65.684255 
L 87.455117 -66.604331 
L 89.217867 -67.524406 
L 90.980617 -68.444482 
L 92.743367 -69.364558 
L 94.506118 -70.284634 
L 96.268868 -71.20471 
L 98.031618 -72.124786 
L 99.794368 -73.044861 
L 101.557118 -73.964937 
L 103.319868 -74.885013 
L 105.082619 -75.805089 
L 106.845369 -76.725165 
L 108.608119 -77.645241 
L 110.370869 -78.565316 
L 112.133619 -79.485392 
L 113.89637 -80.405468 
L 115.65912 -81.325544 
L 117.42187 -82.24562 
L 119.18462 -83.165696 
L 120.94737 -84.085771 
L 122.71012 -85.005847 
L 124.472871 -85.925923 
L 126.235621 -86.845999 
L 127.998371 -87.766075 
L 129.761121 -88.686151 
L 131.523871 -89.606226 
L 133.286622 -90.526302 
L 135.049372 -91.446378 
L 136.812122 -92.366454 
L 138.574872 -93.28653 
L 140.337622 -94.206606 
L 142.100373 -95.126681 
L 143.863123 -96.046757 
L 145.625873 -96.966833 
L 147.388623 -97.886909 
L 149.151373 -98.806985 
L 150.914123 -99.727061 
L 152.676874 -100.647136 
L 154.439624 -101.567212 
L 156.202374 -102.487288 
L 157.965124 -103.407364 
L 159.727874 -104.32744 
L 161.490625 -105.247516 
L 163.253375 -106.167591 
L 165.016125 -107.087667 
L 166.778875 -108.007743 
L 168.541625 -108.927819 
L 170.304375 -109.847895 
L 172.067126 -110.767971 
L 173.829876 -111.688046 
L 175.592626 -112.608122 
L 177.355376 -113.528198 
L 179.118126 -114.448274 
L 180.880877 -115.36835 
L 182.643627 -116.288426 
L 184.406377 -117.208501 
L 186.169127 -118.128577 
L 187.931877 -119.048653 
L 189.694628 -119.968729 
L 191.457378 -120.888805 
L 193.220128 -121.808881 
L 194.982878 -122.728956 
L 196.745628 -123.649032 
L 198.508378 -124.569108 
L 200.271129 -125.489184 
L 202.033879 -126.40926 
L 203.796629 -127.329336 
L 205.559379 -128.249411 
L 207.322129 -129.169487 
L 209.08488 -130.089563 
L 210.84763 -131.009639 
L 212.61038 -131.929715 
L 214.37313 -132.849791 
L 216.13588 -133.769866 
L 217.89863 -134.689942 
L 219.661381 -135.610018 
L 221.424131 -136.530094 
L 223.186881 -137.45017 
L 224.949631 -138.370246 
L 226.712381 -139.290321 
L 228.475132 -140.210397 
L 230.237882 -141.130473 
L 232.000632 -142.050549 
L 233.763382 -142.970625 
L 235.526132 -143.890701 
L 237.288883 -144.810776 
L 239.051633 -145.730852 
L 240.814383 -146.650928 
L 242.577133 -147.571004 
L 244.339883 -148.49108 
L 246.102633 -149.411156 
L 247.865384 -150.331231 
L 249.628134 -151.251307 
L 251.390884 -152.171383 
L 253.153634 -153.091459 
L 254.916384 -154.011535 
L 256.679135 -154.931611 
L 258.441885 -155.851686 
L 260.204635 -156.771762 
L 261.967385 -157.691838 
L 263.730135 -158.611914 
L 265.492886 -159.53199 
L 267.255636 -160.452066 
L 269.018386 -161.372141 
L 270.781136 -162.292217 
L 272.543886 -163.212293 
L 274.306636 -164.132369 
L 276.069387 -165.052445 
L 277.832137 -165.972521 
L 279.594887 -166.892596 
L 281.357637 -167.812672 
L 283.120387 -168.732748 
L 284.883138 -169.652824 
L 286.645888 -170.5729 
L 288.408638 -171.492976 
L 290.171388 -172.413051 
L 291.934138 -173.333127 
L 293.696888 -174.253203 
L 295.459639 -175.173279 
L 297.222389 -176.093355 
L 298.985139 -177.013431 
L 300.747889 -177.933506 
L 302.510639 -178.853582 
L 304.27339 -179.773658 
L 306.03614 -180.693734 
L 307.79889 -181.61381 
L 309.56164 -182.533885 
L 311.32439 -183.453961 
L 313.087141 -184.374037 
L 314.849891 -185.294113 
L 316.612641 -186.214189 
L 318.375391 -187.134265 
L 320.138141 -188.05434 
L 321.900891 -188.974416 
L 323.663642 -189.894492 
L 325.426392 -190.814568 
L 327.189142 -191.734644 
L 328.951892 -192.65472 
L 330.714642 -193.574795 
L 332.477393 -194.494871 
L 334.240143 -195.414947 
L 336.002893 -196.335023 
L 337.765643 -197.255099 
L 339.528393 -198.175175 
L 341.291143 -199.09525 
L 343.053894 -200.015326 
L 344.816644 -200.935402 
L 346.579394 -201.855478 
L 348.342144 -202.775554 
L 350.104894 -203.69563 
L 351.867645 -204.615705 
L 353.630395 -205.535781 
L 355.393145 -206.455857 
L 357.155895 -207.375933 
L 358.918645 -208.296009 
L 360.681396 -209.216085 
L 362.444146 -210.13616 
L 364.206896 -211.056236 
L 365.969646 -211.976312 
L 367.732396 -212.896388 
L 369.495146 -213.816464 
L 371.257897 -214.73654 
L 373.020647 -215.656615 
L 374.783397 -216.576691 
L 376.546147 -217.496767 
L 378.308897 -218.416843 
L 380.071648 -219.336919 
L 381.834398 -220.256995 
L 383.597148 -221.17707 
L 385.359898 -222.097146 
L 387.122648 -223.017222 
L 388.885398 -223.937298 
L 390.648149 -224.857374 
L 392.410899 -225.77745 
L 394.173649 -226.697525 
L 395.936399 -227.617601 
L 397.699149 -228.537677 
L 399.4619 -229.457753 
L 401.22465 -230.377829 
L 402.9874 -231.297905 
L 404.75015 -232.21798 
L 406.5129 -233.138056 
L 408.275651 -234.058132 
L 410.038401 -234.978208 
L 411.801151 -235.898284 
L 413.563901 -236.81836 
L 415.326651 -237.738435 
L 415.326651 -239.918679 
L 415.326651 -239.918679 
L 413.563901 -238.970888 
L 411.801151 -238.023098 
L 410.038401 -237.075307 
L 408.275651 -236.127516 
L 406.5129 -235.179725 
L 404.75015 -234.231934 
L 402.9874 -233.284143 
L 401.22465 -232.336352 
L 399.4619 -231.388561 
L 397.699149 -230.44077 
L 395.936399 -229.492979 
L 394.173649 -228.545188 
L 392.410899 -227.597397 
L 390.648149 -226.649606 
L 388.885398 -225.701815 
L 387.122648 -224.754024 
L 385.359898 -223.806234 
L 383.597148 -222.858443 
L 381.834398 -221.910652 
L 380.071648 -220.962861 
L 378.308897 -220.01507 
L 376.546147 -219.067279 
L 374.783397 -218.119488 
L 373.020647 -217.171697 
L 371.257897 -216.223906 
L 369.495146 -215.276115 
L 367.732396 -214.328324 
L 365.969646 -213.380533 
L 364.206896 -212.432742 
L 362.444146 -211.484951 
L 360.681396 -210.53716 
L 358.918645 -209.58937 
L 357.155895 -208.641579 
L 355.393145 -207.693788 
L 353.630395 -206.745997 
L 351.867645 -205.798206 
L 350.104894 -204.850415 
L 348.342144 -203.902624 
L 346.579394 -202.954833 
L 344.816644 -202.007042 
L 343.053894 -201.059251 
L 341.291143 -200.11146 
L 339.528393 -199.163669 
L 337.765643 -198.215878 
L 336.002893 -197.268087 
L 334.240143 -196.320296 
L 332.477393 -195.372506 
L 330.714642 -194.424715 
L 328.951892 -193.476924 
L 327.189142 -192.529133 
L 325.426392 -191.581342 
L 323.663642 -190.633551 
L 321.900891 -189.68576 
L 320.138141 -188.737969 
L 318.375391 -187.790178 
L 316.612641 -186.842387 
L 314.849891 -185.894596 
L 313.087141 -184.946805 
L 311.32439 -183.999014 
L 309.56164 -183.051223 
L 307.79889 -182.103432 
L 306.03614 -181.155641 
L 304.27339 -180.207851 
L 302.510639 -179.26006 
L 300.747889 -178.312269 
L 298.985139 -177.364478 
L 297.222389 -176.416687 
L 295.459639 -175.468896 
L 293.696888 -174.521105 
L 291.934138 -173.573314 
L 290.171388 -172.625523 
L 288.408638 -171.677732 
L 286.645888 -170.729941 
L 284.883138 -169.78215 
L 283.120387 -168.834359 
L 281.357637 -167.886568 
L 279.594887 -166.938777 
L 277.832137 -165.990987 
L 276.069387 -165.043196 
L 274.306636 -164.095405 
L 272.543886 -163.147614 
L 270.781136 -162.199823 
L 269.018386 -161.252032 
L 267.255636 -160.304241 
L 265.492886 -159.35645 
L 263.730135 -158.408659 
L 261.967385 -157.460868 
L 260.204635 -156.513077 
L 258.441885 -155.565286 
L 256.679135 -154.617495 
L 254.916384 -153.669704 
L 253.153634 -152.721913 
L 251.390884 -151.774123 
L 249.628134 -150.826332 
L 247.865384 -149.878541 
L 246.102633 -148.93075 
L 244.339883 -147.982959 
L 242.577133 -147.035168 
L 240.814383 -146.087377 
L 239.051633 -145.139586 
L 237.288883 -144.191795 
L 235.526132 -143.244004 
L 233.763382 -142.296213 
L 232.000632 -141.348422 
L 230.237882 -140.400631 
L 228.475132 -139.45284 
L 226.712381 -138.505049 
L 224.949631 -137.557259 
L 223.186881 -136.609468 
L 221.424131 -135.661677 
L 219.661381 -134.713886 
L 217.89863 -133.766095 
L 216.13588 -132.818304 
L 214.37313 -131.870513 
L 212.61038 -130.922722 
L 210.84763 -129.974931 
L 209.08488 -129.02714 
L 207.322129 -128.079349 
L 205.559379 -127.131558 
L 203.796629 -126.183767 
L 202.033879 -125.235976 
L 200.271129 -124.288185 
L 198.508378 -123.340394 
L 196.745628 -122.392604 
L 194.982878 -121.444813 
L 193.220128 -120.497022 
L 191.457378 -119.549231 
L 189.694628 -118.60144 
L 187.931877 -117.653649 
L 186.169127 -116.705858 
L 184.406377 -115.758067 
L 182.643627 -114.810276 
L 180.880877 -113.862485 
L 179.118126 -112.914694 
L 177.355376 -111.966903 
L 175.592626 -111.019112 
L 173.829876 -110.071321 
L 172.067126 -109.12353 
L 170.304375 -108.17574 
L 168.541625 -107.227949 
L 166.778875 -106.280158 
L 165.016125 -105.332367 
L 163.253375 -104.384576 
L 161.490625 -103.436785 
L 159.727874 -102.488994 
L 157.965124 -101.541203 
L 156.202374 -100.593412 
L 154.439624 -99.645621 
L 152.676874 -98.69783 
L 150.914123 -97.750039 
L 149.151373 -96.802248 
L 147.388623 -95.854457 
L 145.625873 -94.906666 
L 143.863123 -93.958876 
L 142.100373 -93.011085 
L 140.337622 -92.063294 
L 138.574872 -91.115503 
L 136.812122 -90.167712 
L 135.049372 -89.219921 
L 133.286622 -88.27213 
L 131.523871 -87.324339 
L 129.761121 -86.376548 
L 127.998371 -85.428757 
L 126.235621 -84.480966 
L 124.472871 -83.533175 
L 122.71012 -82.585384 
L 120.94737 -81.637593 
L 119.18462 -80.689802 
L 117.42187 -79.742012 
L 115.65912 -78.794221 
L 113.89637 -77.84643 
L 112.133619 -76.898639 
L 110.370869 -75.950848 
L 108.608119 -75.003057 
L 106.845369 -74.055266 
L 105.082619 -73.107475 
L 103.319868 -72.159684 
L 101.557118 -71.211893 
L 99.794368 -70.264102 
L 98.031618 -69.316311 
L 96.268868 -68.36852 
L 94.506118 -67.420729 
L 92.743367 -66.472938 
L 90.980617 -65.525147 
L 89.217867 -64.577357 
L 87.455117 -63.629566 
L 85.692367 -62.681775 
L 83.929616 -61.733984 
L 82.166866 -60.786193 
L 80.404116 -59.838402 
L 78.641366 -58.890611 
L 76.878616 -57.94282 
L 75.115865 -56.995029 
L 73.353115 -56.047238 
L 71.590365 -55.099447 
L 69.827615 -54.151656 
L 68.064865 -53.203865 
L 66.302115 -52.256074 
L 64.539364 -51.308283 
z
"/>
    </defs>
    <g clip-path="url(#p088432e3fe)">
     <use xlink:href="#mf276a27d3f" x="0" y="274.661016" style="fill: #2a78d6; fill-opacity: 0.14"/>
    </g>
   </g>
   <g id="line2d_44">
    <path d="M 64.539364 221.776293 
L 415.326651 35.772909 
L 415.326651 35.772909 
" clip-path="url(#p088432e3fe)" style="fill: none; stroke: #2a78d6; stroke-width: 1.6; stroke-linecap: square"/>
   </g>
   <g id="line2d_45">
    <path d="M 64.539364 221.771517 
L 415.326651 35.776031 
L 415.326651 35.776031 
" clip-path="url(#p088432e3fe)" style="fill: none; stroke-dasharray: 1,1.65; stroke-dashoffset: 0; stroke: #898781"/>
   </g>
   <g id="patch_3">
    <path d="M 47 232.783252 
L 47 25.311816 
" style="fill: none; stroke: #c3c2b7; stroke-width: 0.9; stroke-linejoin: miter; stroke-linecap: square"/>
   </g>
   <g id="patch_4">
    <path d="M 47 232.783252 
L 432.866016 232.783252 
" style="fill: none; stroke: #c3c2b7; stroke-width: 0.9; stroke-linejoin: miter; stroke-linecap: square"/>
   </g>
   <g id="text_12">
    <!-- Divisor-case recovery cost tracks a quarter power of $n$ -->
    <g style="fill: #0b0b0b" transform="translate(47 17.311816) scale(0.13 -0.13)">
     <defs>
      <path id="Cambria-7" d="M 375 0 
L 375 153 
Q 519 191 581 225 
Q 644 259 678 312 
Q 713 366 728 466 
Q 744 566 744 781 
L 744 3484 
Q 744 3703 728 3801 
Q 713 3900 677 3953 
Q 641 4006 581 4039 
Q 522 4072 375 4113 
L 375 4266 
L 1744 4266 
Q 2334 4266 2711 4136 
Q 3088 4006 3347 3753 
Q 3606 3500 3734 3123 
Q 3863 2747 3863 2225 
Q 3863 1697 3742 1295 
Q 3622 894 3391 622 
Q 3191 384 2900 231 
Q 2659 106 2343 53 
Q 2028 0 1506 0 
L 375 0 
z
M 1328 291 
Q 1453 278 1697 278 
Q 1959 278 2165 322 
Q 2372 366 2540 459 
Q 2709 553 2843 720 
Q 2978 888 3062 1105 
Q 3147 1322 3186 1587 
Q 3225 1853 3225 2169 
Q 3225 2803 3042 3211 
Q 2859 3619 2526 3806 
Q 2194 3994 1731 3994 
Q 1519 3994 1328 3981 
L 1328 291 
z
" transform="scale(0.015625)"/>
      <path id="Cambria-98" d="M 1334 2988 
L 1334 2834 
Q 1191 2800 1131 2769 
Q 1072 2738 1042 2688 
Q 1013 2638 1013 2553 
Q 1013 2469 1033 2376 
Q 1053 2284 1097 2163 
L 1641 581 
L 2278 2097 
Q 2341 2247 2366 2344 
Q 2391 2441 2391 2525 
Q 2391 2656 2320 2725 
Q 2250 2794 2063 2834 
L 2063 2988 
L 3231 2988 
L 3231 2834 
Q 3109 2809 3043 2757 
Q 2978 2706 2912 2595 
Q 2847 2484 2756 2284 
L 1703 -31 
L 1334 -31 
L 488 2303 
Q 400 2544 348 2633 
Q 297 2722 236 2765 
Q 175 2809 59 2834 
L 59 2988 
L 1334 2988 
z
" transform="scale(0.015625)"/>
      <path id="Cambria-1e6" d="M 1788 1403 
L 338 1403 
L 338 1888 
L 1788 1888 
L 1788 1403 
z
" transform="scale(0.015625)"/>
      <path id="Cambria-9b" d="M 1625 -256 
Q 1453 -644 1290 -884 
Q 1128 -1125 933 -1247 
Q 738 -1369 469 -1369 
Q 297 -1369 81 -1328 
L 81 -709 
L 359 -709 
Q 397 -838 453 -888 
Q 509 -938 616 -938 
Q 709 -938 782 -902 
Q 856 -866 936 -778 
Q 1016 -691 1123 -509 
Q 1231 -328 1366 -50 
L 491 2303 
Q 406 2531 354 2622 
Q 303 2713 243 2759 
Q 184 2806 63 2834 
L 63 2988 
L 1334 2988 
L 1334 2834 
Q 1188 2800 1128 2767 
Q 1069 2734 1041 2682 
Q 1013 2631 1013 2550 
Q 1013 2466 1033 2375 
Q 1053 2284 1097 2163 
L 1653 597 
L 2278 2097 
Q 2331 2222 2361 2326 
Q 2391 2431 2391 2522 
Q 2391 2656 2317 2725 
Q 2244 2794 2063 2834 
L 2063 2988 
L 3231 2988 
L 3231 2834 
Q 3109 2809 3043 2757 
Q 2978 2706 2912 2595 
Q 2847 2484 2756 2284 
L 1625 -256 
z
" transform="scale(0.015625)"/>
      <path id="Cambria-8d" d="M 1138 1741 
L 1238 1741 
Q 1341 1741 1406 1763 
Q 1484 1791 1578 1858 
Q 1672 1925 1844 2084 
Q 1988 2219 2061 2312 
Q 2134 2406 2163 2484 
Q 2188 2550 2188 2616 
Q 2188 2709 2130 2762 
Q 2072 2816 1941 2834 
L 1941 2988 
L 3288 2988 
L 3288 2834 
Q 3144 2806 2981 2706 
Q 2819 2606 2647 2444 
L 1928 1763 
L 2828 588 
Q 2984 381 3111 282 
Q 3238 184 3388 153 
L 3388 0 
L 2188 0 
L 2188 153 
Q 2269 163 2308 189 
Q 2347 216 2347 278 
Q 2347 325 2330 370 
Q 2313 416 2259 494 
Q 2206 572 2066 766 
L 1694 1266 
Q 1588 1406 1542 1450 
Q 1497 1494 1447 1512 
Q 1397 1531 1313 1531 
L 1138 1531 
L 1138 781 
Q 1138 513 1163 408 
Q 1188 303 1258 248 
Q 1328 194 1488 153 
L 1488 0 
L 247 0 
L 247 153 
Q 403 194 464 237 
Q 525 281 551 342 
Q 578 403 589 508 
Q 600 613 600 781 
L 600 3397 
Q 600 3697 595 3815 
Q 591 3934 570 4017 
Q 550 4100 514 4147 
Q 478 4194 417 4222 
Q 356 4250 197 4278 
L 197 4441 
L 950 4472 
L 1138 4472 
L 1138 1741 
z
" transform="scale(0.015625)"/>
      <path id="Cambria-93" d="M 3300 -1344 
L 2025 -1344 
L 2025 -1191 
Q 2175 -1159 2242 -1121 
Q 2309 -1084 2345 -1026 
Q 2381 -969 2395 -870 
Q 2409 -772 2409 -566 
L 2409 513 
Q 2241 322 2095 208 
Q 1950 94 1772 22 
Q 1594 -50 1394 -50 
Q 878 -50 601 334 
Q 325 719 325 1453 
Q 325 1972 504 2330 
Q 684 2688 1006 2864 
Q 1328 3041 1750 3041 
Q 1972 3041 2150 2995 
Q 2328 2950 2516 2850 
L 2734 3041 
L 2947 2991 
L 2947 -566 
Q 2947 -750 2961 -858 
Q 2975 -966 3011 -1028 
Q 3047 -1091 3117 -1125 
Q 3188 -1159 3300 -1191 
L 3300 -1344 
z
M 2409 1863 
Q 2409 2153 2371 2312 
Q 2334 2472 2243 2583 
Q 2153 2694 2031 2742 
Q 1909 2791 1744 2791 
Q 1341 2791 1127 2466 
Q 913 2141 913 1550 
Q 913 950 1086 637 
Q 1259 325 1606 325 
Q 1738 325 1830 348 
Q 1922 372 2011 425 
Q 2100 478 2192 568 
Q 2284 659 2325 732 
Q 2366 806 2387 903 
Q 2409 1000 2409 1153 
L 2409 1863 
z
" transform="scale(0.015625)"/>
      <path id="Cambria-99" d="M 2494 2334 
L 1675 -16 
L 1241 -16 
L 491 2303 
Q 419 2528 370 2620 
Q 322 2713 267 2758 
Q 213 2803 91 2834 
L 91 2988 
L 1325 2988 
L 1325 2834 
Q 1144 2797 1080 2736 
Q 1016 2675 1016 2553 
Q 1016 2469 1034 2376 
Q 1053 2284 1091 2163 
L 1581 569 
L 2384 2988 
L 2825 2988 
L 3506 569 
L 4056 2097 
Q 4100 2216 4128 2323 
Q 4156 2431 4156 2525 
Q 4156 2656 4086 2728 
Q 4016 2800 3847 2834 
L 3847 2988 
L 4938 2988 
L 4938 2834 
Q 4850 2813 4806 2789 
Q 4763 2766 4720 2720 
Q 4678 2675 4626 2579 
Q 4575 2484 4497 2284 
L 3594 -16 
L 3172 -16 
L 2494 2334 
z
" transform="scale(0.015625)"/>
      <path id="Cambria-88" d="M 1909 2672 
L 1163 2672 
L 1163 781 
Q 1163 572 1183 465 
Q 1203 359 1242 304 
Q 1281 250 1345 217 
Q 1409 184 1550 153 
L 1550 0 
L 272 0 
L 272 153 
Q 409 191 468 225 
Q 528 259 561 312 
Q 594 366 609 466 
Q 625 566 625 781 
L 625 2672 
L 247 2672 
L 247 2831 
Q 366 2850 405 2861 
Q 444 2872 480 2894 
Q 516 2916 542 2956 
Q 569 2997 589 3076 
Q 609 3156 622 3300 
Q 650 3641 745 3853 
Q 841 4066 1023 4216 
Q 1206 4366 1414 4427 
Q 1622 4488 1903 4488 
Q 2150 4488 2322 4453 
L 2322 3888 
L 2013 3888 
Q 1953 4072 1873 4148 
Q 1794 4225 1650 4225 
Q 1547 4225 1476 4197 
Q 1406 4169 1347 4109 
Q 1288 4050 1245 3950 
Q 1203 3850 1183 3701 
Q 1163 3553 1163 3316 
L 1163 2988 
L 1909 2988 
L 1909 2672 
z
" transform="scale(0.015625)"/>
     </defs>
     <use xlink:href="#Cambria-7" transform="translate(0 0.875)"/>
     <use xlink:href="#Cambria-8b" transform="translate(66.162109 0.875)"/>
     <use xlink:href="#Cambria-98" transform="translate(93.945312 0.875)"/>
     <use xlink:href="#Cambria-8b" transform="translate(144.335938 0.875)"/>
     <use xlink:href="#Cambria-95" transform="translate(172.119141 0.875)"/>
     <use xlink:href="#Cambria-91" transform="translate(215.087891 0.875)"/>
     <use xlink:href="#Cambria-94" transform="translate(268.164062 0.875)"/>
     <use xlink:href="#Cambria-1e6" transform="translate(309.521484 0.875)"/>
     <use xlink:href="#Cambria-85" transform="translate(342.724609 0.875)"/>
     <use xlink:href="#Cambria-83" transform="translate(386.816406 0.875)"/>
     <use xlink:href="#Cambria-95" transform="translate(435.644531 0.875)"/>
     <use xlink:href="#Cambria-87" transform="translate(478.613281 0.875)"/>
     <use xlink:href="#Cambria-3" transform="translate(527.392578 0.875)"/>
     <use xlink:href="#Cambria-94" transform="translate(549.414062 0.875)"/>
     <use xlink:href="#Cambria-87" transform="translate(590.771484 0.875)"/>
     <use xlink:href="#Cambria-85" transform="translate(639.550781 0.875)"/>
     <use xlink:href="#Cambria-91" transform="translate(683.642578 0.875)"/>
     <use xlink:href="#Cambria-98" transform="translate(736.71875 0.875)"/>
     <use xlink:href="#Cambria-87" transform="translate(787.109375 0.875)"/>
     <use xlink:href="#Cambria-94" transform="translate(835.888672 0.875)"/>
     <use xlink:href="#Cambria-9b" transform="translate(877.246094 0.875)"/>
     <use xlink:href="#Cambria-3" transform="translate(927.636719 0.875)"/>
     <use xlink:href="#Cambria-85" transform="translate(949.658203 0.875)"/>
     <use xlink:href="#Cambria-91" transform="translate(993.75 0.875)"/>
     <use xlink:href="#Cambria-95" transform="translate(1046.826172 0.875)"/>
     <use xlink:href="#Cambria-96" transform="translate(1089.794922 0.875)"/>
     <use xlink:href="#Cambria-3" transform="translate(1123.632812 0.875)"/>
     <use xlink:href="#Cambria-96" transform="translate(1145.654297 0.875)"/>
     <use xlink:href="#Cambria-94" transform="translate(1179.492188 0.875)"/>
     <use xlink:href="#Cambria-83" transform="translate(1220.849609 0.875)"/>
     <use xlink:href="#Cambria-85" transform="translate(1269.677734 0.875)"/>
     <use xlink:href="#Cambria-8d" transform="translate(1313.769531 0.875)"/>
     <use xlink:href="#Cambria-95" transform="translate(1366.210938 0.875)"/>
     <use xlink:href="#Cambria-3" transform="translate(1409.179688 0.875)"/>
     <use xlink:href="#Cambria-83" transform="translate(1431.201172 0.875)"/>
     <use xlink:href="#Cambria-3" transform="translate(1480.029297 0.875)"/>
     <use xlink:href="#Cambria-93" transform="translate(1502.050781 0.875)"/>
     <use xlink:href="#Cambria-97" transform="translate(1556.738281 0.875)"/>
     <use xlink:href="#Cambria-83" transform="translate(1611.962891 0.875)"/>
     <use xlink:href="#Cambria-94" transform="translate(1660.791016 0.875)"/>
     <use xlink:href="#Cambria-96" transform="translate(1702.148438 0.875)"/>
     <use xlink:href="#Cambria-87" transform="translate(1735.986328 0.875)"/>
     <use xlink:href="#Cambria-94" transform="translate(1784.765625 0.875)"/>
     <use xlink:href="#Cambria-3" transform="translate(1826.123047 0.875)"/>
     <use xlink:href="#Cambria-92" transform="translate(1848.144531 0.875)"/>
     <use xlink:href="#Cambria-91" transform="translate(1903.759766 0.875)"/>
     <use xlink:href="#Cambria-99" transform="translate(1956.835938 0.875)"/>
     <use xlink:href="#Cambria-87" transform="translate(2034.277344 0.875)"/>
     <use xlink:href="#Cambria-94" transform="translate(2083.056641 0.875)"/>
     <use xlink:href="#Cambria-3" transform="translate(2124.414062 0.875)"/>
     <use xlink:href="#Cambria-91" transform="translate(2146.435547 0.875)"/>
     <use xlink:href="#Cambria-88" transform="translate(2199.511719 0.875)"/>
     <use xlink:href="#Cambria-3" transform="translate(2229.785156 0.875)"/>
     <use xlink:href="#Cmmi10-7a" transform="translate(2251.806641 0.875)"/>
    </g>
   </g>
   <g id="PathCollection_1">
    <defs>
     <path id="mfcf97038b6" d="M 0 3.24037 
C 0.859356 3.24037 1.683631 2.898944 2.291288 2.291288 
C 2.898944 1.683631 3.24037 0.859356 3.24037 0 
C 3.24037 -0.859356 2.898944 -1.683631 2.291288 -2.291288 
C 1.683631 -2.898944 0.859356 -3.24037 0 -3.24037 
C -0.859356 -3.24037 -1.683631 -2.898944 -2.291288 -2.291288 
C -2.898944 -1.683631 -3.24037 -0.859356 -3.24037 0 
C -3.24037 0.859356 -2.898944 1.683631 -2.291288 2.291288 
C -1.683631 2.898944 -0.859356 3.24037 0 3.24037 
z
" style="stroke: #fcfcfb; stroke-width: 0.8"/>
    </defs>
    <g clip-path="url(#p088432e3fe)">
     <use xlink:href="#mfcf97038b6" x="143.42785" y="180.975337" style="fill: #2a78d6; stroke: #fcfcfb; stroke-width: 0.8"/>
     <use xlink:href="#mfcf97038b6" x="180.711921" y="158.254764" style="fill: #2a78d6; stroke: #fcfcfb; stroke-width: 0.8"/>
     <use xlink:href="#mfcf97038b6" x="219.076017" y="140.79606" style="fill: #2a78d6; stroke: #fcfcfb; stroke-width: 0.8"/>
     <use xlink:href="#mfcf97038b6" x="257.346756" y="119.38151" style="fill: #2a78d6; stroke: #fcfcfb; stroke-width: 0.8"/>
     <use xlink:href="#mfcf97038b6" x="295.674068" y="99.67338" style="fill: #2a78d6; stroke: #fcfcfb; stroke-width: 0.8"/>
     <use xlink:href="#mfcf97038b6" x="334.009237" y="78.426659" style="fill: #2a78d6; stroke: #fcfcfb; stroke-width: 0.8"/>
     <use xlink:href="#mfcf97038b6" x="372.34078" y="58.309744" style="fill: #2a78d6; stroke: #fcfcfb; stroke-width: 0.8"/>
     <use xlink:href="#mfcf97038b6" x="410.674581" y="38.594732" style="fill: #2a78d6; stroke: #fcfcfb; stroke-width: 0.8"/>
    </g>
   </g>
   <g id="PathCollection_2">
    <defs>
     <path id="m08de6775bc" d="M -3.24037 3.24037 
L 3.24037 3.24037 
L 3.24037 -3.24037 
L -3.24037 -3.24037 
z
" style="stroke: #fcfcfb; stroke-width: 0.8"/>
    </defs>
    <g clip-path="url(#p088432e3fe)">
     <use xlink:href="#m08de6775bc" x="69.470757" y="216.488721" style="fill: #eb6834; stroke: #fcfcfb; stroke-width: 0.8"/>
     <use xlink:href="#m08de6775bc" x="87.583051" y="207.533868" style="fill: #eb6834; stroke: #fcfcfb; stroke-width: 0.8"/>
     <use xlink:href="#m08de6775bc" x="104.640348" y="195.134233" style="fill: #eb6834; stroke: #fcfcfb; stroke-width: 0.8"/>
     <use xlink:href="#m08de6775bc" x="124.508837" y="192.247627" style="fill: #eb6834; stroke: #fcfcfb; stroke-width: 0.8"/>
    </g>
   </g>
   <g id="legend_1">
    <g id="patch_5">
     <path d="M 54.56 39.405605 
L 71.36 39.405605 
L 71.36 33.525605 
L 54.56 33.525605 
z
" style="fill: #2a78d6; fill-opacity: 0.14"/>
    </g>
    <g id="text_13">
     <!-- 95% CI on slope [0.2461, 0.2535] -->
     <g transform="translate(78.08 39.405605) scale(0.084 -0.084)">
      <defs>
       <path id="Cambria-37b" d="M 978 122 
L 978 275 
Q 1416 275 1736 469 
Q 2056 663 2251 1042 
Q 2447 1422 2513 2038 
L 2481 2050 
Q 2219 1863 1964 1775 
Q 1709 1688 1413 1688 
Q 1059 1688 811 1842 
Q 563 1997 438 2276 
Q 313 2556 313 2931 
Q 313 3213 406 3464 
Q 500 3716 684 3905 
Q 869 4094 1145 4205 
Q 1422 4316 1791 4316 
Q 2447 4316 2790 3862 
Q 3134 3409 3134 2559 
Q 3134 1781 2881 1211 
Q 2628 641 2172 323 
Q 1716 6 1106 -50 
L 978 122 
z
M 1628 2016 
Q 1747 2016 1855 2036 
Q 1963 2056 2066 2095 
Q 2169 2134 2267 2195 
Q 2366 2256 2444 2325 
Q 2472 2350 2494 2390 
Q 2516 2431 2528 2497 
Q 2541 2563 2541 2703 
Q 2541 3131 2455 3436 
Q 2369 3741 2192 3895 
Q 2016 4050 1756 4050 
Q 1522 4050 1359 3969 
Q 1197 3888 1095 3745 
Q 994 3603 947 3411 
Q 900 3219 900 2994 
Q 900 2528 1090 2272 
Q 1281 2016 1628 2016 
z
" transform="scale(0.015625)"/>
       <path id="Cambria-377" d="M 469 172 
L 469 834 
L 847 834 
Q 941 516 1130 366 
Q 1319 216 1619 216 
Q 2034 216 2246 466 
Q 2459 716 2459 1213 
Q 2459 1544 2346 1761 
Q 2234 1978 2043 2075 
Q 1853 2172 1600 2172 
Q 1388 2172 1234 2145 
Q 1081 2119 906 2063 
L 656 2209 
L 656 4266 
L 2378 4266 
Q 2484 4266 2531 4283 
Q 2578 4300 2606 4336 
Q 2634 4372 2672 4472 
L 2916 4472 
L 2869 3747 
L 1072 3747 
L 1072 2375 
Q 1234 2444 1425 2478 
Q 1616 2513 1806 2513 
Q 2178 2513 2465 2361 
Q 2753 2209 2909 1929 
Q 3066 1650 3066 1281 
Q 3066 863 2891 563 
Q 2716 263 2384 106 
Q 2053 -50 1600 -50 
Q 1059 -50 469 172 
z
" transform="scale(0.015625)"/>
       <path id="Cambria-3a8" d="M 1278 1616 
Q 800 1616 564 1947 
Q 328 2278 328 2944 
Q 328 3406 454 3714 
Q 581 4022 801 4169 
Q 1022 4316 1313 4316 
Q 1584 4316 1768 4219 
Q 1953 4122 2067 3948 
Q 2181 3775 2229 3533 
Q 2278 3291 2278 3000 
Q 2278 2316 2020 1966 
Q 1763 1616 1278 1616 
z
M 791 2997 
Q 791 2391 916 2116 
Q 1041 1841 1313 1841 
Q 1569 1841 1692 2097 
Q 1816 2353 1816 2916 
Q 1816 3516 1692 3803 
Q 1569 4091 1309 4091 
Q 1113 4091 998 3959 
Q 884 3828 837 3589 
Q 791 3350 791 2997 
z
M 4456 4266 
L 1700 -300 
L 1241 -300 
L 4003 4266 
L 4456 4266 
z
M 4366 -350 
Q 3888 -350 3652 -18 
Q 3416 313 3416 978 
Q 3416 1441 3542 1748 
Q 3669 2056 3889 2203 
Q 4109 2350 4400 2350 
Q 4672 2350 4856 2253 
Q 5041 2156 5155 1982 
Q 5269 1809 5317 1567 
Q 5366 1325 5366 1034 
Q 5366 350 5108 0 
Q 4850 -350 4366 -350 
z
M 3878 1031 
Q 3878 425 4003 150 
Q 4128 -125 4400 -125 
Q 4656 -125 4779 131 
Q 4903 388 4903 950 
Q 4903 1550 4779 1837 
Q 4656 2125 4397 2125 
Q 4200 2125 4086 1994 
Q 3972 1863 3925 1623 
Q 3878 1384 3878 1031 
z
" transform="scale(0.015625)"/>
       <path id="Cambria-6" d="M 3256 4175 
L 3256 3309 
L 2947 3309 
Q 2872 3581 2756 3742 
Q 2641 3903 2487 3972 
Q 2334 4041 2119 4041 
Q 1797 4041 1545 3827 
Q 1294 3613 1150 3183 
Q 1006 2753 1006 2144 
Q 1006 1531 1125 1098 
Q 1244 666 1475 445 
Q 1706 225 2044 225 
Q 2300 225 2462 298 
Q 2625 372 2736 531 
Q 2847 691 2947 1000 
L 3256 1000 
L 3256 106 
Q 2963 28 2655 -11 
Q 2347 -50 1978 -50 
Q 1184 -50 778 487 
Q 372 1025 372 2091 
Q 372 2759 583 3262 
Q 794 3766 1203 4041 
Q 1613 4316 2181 4316 
Q 2466 4316 2706 4286 
Q 2947 4256 3256 4175 
z
" transform="scale(0.015625)"/>
       <path id="Cambria-c" d="M 1331 781 
Q 1331 572 1345 475 
Q 1359 378 1392 322 
Q 1425 266 1489 228 
Q 1553 191 1697 153 
L 1697 0 
L 378 0 
L 378 153 
Q 572 203 637 264 
Q 703 325 723 437 
Q 744 550 744 781 
L 744 3484 
Q 744 3700 728 3798 
Q 713 3897 677 3951 
Q 641 4006 581 4039 
Q 522 4072 378 4113 
L 378 4266 
L 1697 4266 
L 1697 4113 
Q 1559 4078 1498 4043 
Q 1438 4009 1402 3957 
Q 1366 3906 1348 3803 
Q 1331 3700 1331 3484 
L 1331 781 
z
" transform="scale(0.015625)"/>
       <path id="Cambria-20f" d="M 2106 -1344 
L 713 -1344 
L 713 4472 
L 2106 4472 
L 2106 4216 
L 1263 4216 
L 1263 -1088 
L 2106 -1088 
L 2106 -1344 
z
" transform="scale(0.015625)"/>
       <path id="Cambria-1e4" d="M 972 725 
L 972 0 
L 341 0 
L 341 725 
L 972 725 
z
" transform="scale(0.015625)"/>
       <path id="Cambria-1e1" d="M 966 725 
Q 1009 506 1009 294 
Q 1009 75 934 -106 
Q 859 -288 695 -467 
Q 531 -647 244 -863 
L 75 -672 
Q 234 -522 306 -401 
Q 378 -281 409 -128 
Q 441 25 441 256 
Q 441 494 419 725 
L 966 725 
z
" transform="scale(0.015625)"/>
       <path id="Cambria-210" d="M 1528 -1344 
L 134 -1344 
L 134 -1088 
L 978 -1088 
L 978 4216 
L 134 4216 
L 134 4472 
L 1528 4472 
L 1528 -1344 
z
" transform="scale(0.015625)"/>
      </defs>
      <use xlink:href="#Cambria-37b"/>
      <use xlink:href="#Cambria-377" transform="translate(55.375 0)"/>
      <use xlink:href="#Cambria-3a8" transform="translate(110.75 0)"/>
      <use xlink:href="#Cambria-3" transform="translate(199.71875 0)"/>
      <use xlink:href="#Cambria-6" transform="translate(221.734375 0)"/>
      <use xlink:href="#Cambria-c" transform="translate(277.984375 0)"/>
      <use xlink:href="#Cambria-3" transform="translate(310.40625 0)"/>
      <use xlink:href="#Cambria-91" transform="translate(332.421875 0)"/>
      <use xlink:href="#Cambria-90" transform="translate(385.5 0)"/>
      <use xlink:href="#Cambria-3" transform="translate(441.3125 0)"/>
      <use xlink:href="#Cambria-95" transform="translate(463.328125 0)"/>
      <use xlink:href="#Cambria-8e" transform="translate(506.296875 0)"/>
      <use xlink:href="#Cambria-91" transform="translate(533.453125 0)"/>
      <use xlink:href="#Cambria-92" transform="translate(586.53125 0)"/>
      <use xlink:href="#Cambria-87" transform="translate(642.140625 0)"/>
      <use xlink:href="#Cambria-3" transform="translate(690.921875 0)"/>
      <use xlink:href="#Cambria-20f" transform="translate(712.9375 0)"/>
      <use xlink:href="#Cambria-372" transform="translate(747.953125 0)"/>
      <use xlink:href="#Cambria-1e4" transform="translate(803.328125 0)"/>
      <use xlink:href="#Cambria-374" transform="translate(823.84375 0)"/>
      <use xlink:href="#Cambria-376" transform="translate(879.21875 0)"/>
      <use xlink:href="#Cambria-378" transform="translate(934.59375 0)"/>
      <use xlink:href="#Cambria-373" transform="translate(989.96875 0)"/>
      <use xlink:href="#Cambria-1e1" transform="translate(1045.34375 0)"/>
      <use xlink:href="#Cambria-3" transform="translate(1065.859375 0)"/>
      <use xlink:href="#Cambria-372" transform="translate(1087.875 0)"/>
      <use xlink:href="#Cambria-1e4" transform="translate(1143.25 0)"/>
      <use xlink:href="#Cambria-374" transform="translate(1163.765625 0)"/>
      <use xlink:href="#Cambria-377" transform="translate(1219.140625 0)"/>
      <use xlink:href="#Cambria-375" transform="translate(1274.515625 0)"/>
      <use xlink:href="#Cambria-377" transform="translate(1329.890625 0)"/>
      <use xlink:href="#Cambria-210" transform="translate(1385.265625 0)"/>
     </g>
    </g>
    <g id="line2d_46">
     <path d="M 54.56 49.065605 
L 62.96 49.065605 
L 71.36 49.065605 
" style="fill: none; stroke: #2a78d6; stroke-width: 1.6; stroke-linecap: square"/>
    </g>
    <g id="text_14">
     <!-- fit: slope 0.2500 -->
     <g transform="translate(78.08 52.005605) scale(0.084 -0.084)">
      <defs>
       <path id="Cambria-3d0" d="M 1909 2672 
L 1163 2672 
L 1163 781 
Q 1163 572 1183 465 
Q 1203 359 1242 304 
Q 1281 250 1345 217 
Q 1409 184 1550 153 
L 1550 0 
L 272 0 
L 272 153 
Q 409 191 468 225 
Q 528 259 561 312 
Q 594 366 609 466 
Q 625 566 625 781 
L 625 2672 
L 247 2672 
L 247 2831 
Q 416 2850 483 2898 
Q 550 2947 581 3040 
Q 613 3134 622 3300 
Q 644 3684 798 3953 
Q 953 4222 1212 4355 
Q 1472 4488 1816 4488 
Q 1994 4488 2153 4459 
L 2153 3888 
L 1897 3888 
Q 1863 4059 1795 4136 
Q 1728 4213 1603 4213 
Q 1488 4213 1405 4159 
Q 1322 4106 1264 3992 
Q 1206 3878 1184 3697 
Q 1163 3516 1163 3263 
L 1163 2988 
L 1909 2988 
L 1909 2672 
z
" transform="scale(0.015625)"/>
       <path id="Cambria-1e3" d="M 1156 2822 
L 1156 2091 
L 531 2091 
L 531 2822 
L 1156 2822 
z
M 1156 725 
L 1156 0 
L 531 0 
L 531 725 
L 1156 725 
z
" transform="scale(0.015625)"/>
      </defs>
      <use xlink:href="#Cambria-3d0"/>
      <use xlink:href="#Cambria-8b" transform="translate(30.28125 0)"/>
      <use xlink:href="#Cambria-96" transform="translate(58.0625 0)"/>
      <use xlink:href="#Cambria-1e3" transform="translate(91.90625 0)"/>
      <use xlink:href="#Cambria-3" transform="translate(118.28125 0)"/>
      <use xlink:href="#Cambria-95" transform="translate(140.296875 0)"/>
      <use xlink:href="#Cambria-8e" transform="translate(183.265625 0)"/>
      <use xlink:href="#Cambria-91" transform="translate(210.421875 0)"/>
      <use xlink:href="#Cambria-92" transform="translate(263.5 0)"/>
      <use xlink:href="#Cambria-87" transform="translate(319.109375 0)"/>
      <use xlink:href="#Cambria-3" transform="translate(367.890625 0)"/>
      <use xlink:href="#Cambria-372" transform="translate(389.90625 0)"/>
      <use xlink:href="#Cambria-1e4" transform="translate(445.28125 0)"/>
      <use xlink:href="#Cambria-374" transform="translate(465.796875 0)"/>
      <use xlink:href="#Cambria-377" transform="translate(521.171875 0)"/>
      <use xlink:href="#Cambria-372" transform="translate(576.546875 0)"/>
      <use xlink:href="#Cambria-372" transform="translate(631.921875 0)"/>
     </g>
    </g>
    <g id="line2d_47">
     <path d="M 54.56 63.027816 
L 62.96 63.027816 
L 71.36 63.027816 
" style="fill: none; stroke-dasharray: 1,1.65; stroke-dashoffset: 0; stroke: #898781"/>
    </g>
    <g id="text_15">
     <!-- reference $n^{1/4}$ -->
     <g transform="translate(78.08 65.967816) scale(0.084 -0.084)">
      <defs>
       <path id="Cmr10-64" d="M 594 0 
L 594 225 
Q 1394 225 1394 428 
L 1394 3788 
Q 1063 3628 556 3628 
L 556 3853 
Q 1341 3853 1741 4263 
L 1831 4263 
Q 1853 4263 1873 4245 
Q 1894 4228 1894 4206 
L 1894 428 
Q 1894 225 2694 225 
L 2694 0 
L 594 0 
z
" transform="scale(0.015625)"/>
       <path id="Cmmi10-62" d="M 359 -1472 
Q 359 -1453 366 -1447 
L 2591 4722 
Q 2603 4759 2634 4779 
Q 2666 4800 2706 4800 
Q 2763 4800 2798 4765 
Q 2834 4731 2834 4672 
L 2834 4647 
L 609 -1522 
Q 572 -1600 488 -1600 
Q 434 -1600 396 -1562 
Q 359 -1525 359 -1472 
z
" transform="scale(0.015625)"/>
       <path id="Cmr10-3b" d="M 178 1056 
L 178 1281 
L 2156 4231 
Q 2178 4263 2222 4263 
L 2316 4263 
Q 2388 4263 2388 4191 
L 2388 1281 
L 3016 1281 
L 3016 1056 
L 2388 1056 
L 2388 428 
Q 2388 297 2575 261 
Q 2763 225 3009 225 
L 3009 0 
L 1247 0 
L 1247 225 
Q 1494 225 1681 261 
Q 1869 297 1869 428 
L 1869 1056 
L 178 1056 
z
M 391 1281 
L 1906 1281 
L 1906 3547 
L 391 1281 
z
" transform="scale(0.015625)"/>
      </defs>
      <use xlink:href="#Cambria-94" transform="translate(0 0.210766)"/>
      <use xlink:href="#Cambria-87" transform="translate(41.357422 0.210766)"/>
      <use xlink:href="#Cambria-88" transform="translate(90.136719 0.210766)"/>
      <use xlink:href="#Cambria-87" transform="translate(120.410156 0.210766)"/>
      <use xlink:href="#Cambria-94" transform="translate(169.189453 0.210766)"/>
      <use xlink:href="#Cambria-87" transform="translate(210.546875 0.210766)"/>
      <use xlink:href="#Cambria-90" transform="translate(259.326172 0.210766)"/>
      <use xlink:href="#Cambria-85" transform="translate(315.136719 0.210766)"/>
      <use xlink:href="#Cambria-87" transform="translate(359.228516 0.210766)"/>
      <use xlink:href="#Cambria-3" transform="translate(408.007812 0.210766)"/>
      <use xlink:href="#Cmmi10-7a" transform="translate(430.029297 0.210766)"/>
      <use xlink:href="#Cmr10-64" transform="translate(501.299244 41.5) scale(0.7)"/>
      <use xlink:href="#Cmmi10-62" transform="translate(536.299244 41.5) scale(0.7)"/>
      <use xlink:href="#Cmr10-3b" transform="translate(571.299244 41.5) scale(0.7)"/>
     </g>
    </g>
    <g id="PathCollection_3">
     <g>
      <use xlink:href="#mfcf97038b6" x="62.96" y="76.362816" style="fill: #2a78d6; stroke: #fcfcfb; stroke-width: 0.8"/>
     </g>
    </g>
    <g id="text_16">
     <!-- hb8-22 sweep (41 trials/size) -->
     <g transform="translate(78.08 78.567816) scale(0.084 -0.084)">
      <defs>
       <path id="Cambria-8a" d="M 1141 2497 
L 1153 2494 
Q 1397 2741 1539 2839 
Q 1681 2938 1820 2988 
Q 1959 3038 2119 3038 
Q 2291 3038 2425 2997 
Q 2559 2956 2661 2873 
Q 2763 2791 2827 2670 
Q 2891 2550 2922 2383 
Q 2953 2216 2953 1959 
L 2953 781 
Q 2953 509 2976 411 
Q 3000 313 3061 258 
Q 3122 203 3306 153 
L 3306 0 
L 2075 0 
L 2075 153 
Q 2197 191 2250 219 
Q 2303 247 2339 297 
Q 2375 347 2395 451 
Q 2416 556 2416 769 
L 2416 1588 
Q 2416 2003 2373 2223 
Q 2331 2444 2207 2553 
Q 2084 2663 1863 2663 
Q 1738 2663 1638 2619 
Q 1538 2575 1406 2462 
Q 1275 2350 1208 2231 
Q 1141 2113 1141 1978 
L 1141 781 
Q 1141 569 1152 478 
Q 1163 388 1194 327 
Q 1225 266 1289 227 
Q 1353 188 1488 153 
L 1488 0 
L 250 0 
L 250 153 
Q 388 191 447 225 
Q 506 259 539 312 
Q 572 366 587 466 
Q 603 566 603 781 
L 603 3397 
Q 603 3697 598 3815 
Q 594 3934 573 4017 
Q 553 4100 517 4147 
Q 481 4194 420 4222 
Q 359 4250 200 4278 
L 200 4441 
L 953 4472 
L 1141 4472 
L 1141 2497 
z
" transform="scale(0.015625)"/>
       <path id="Cambria-84" d="M 1091 2497 
L 1103 2494 
Q 1322 2722 1467 2825 
Q 1613 2928 1767 2983 
Q 1922 3038 2106 3038 
Q 2441 3038 2680 2867 
Q 2919 2697 3048 2356 
Q 3178 2016 3178 1522 
Q 3178 1013 3023 661 
Q 2869 309 2567 129 
Q 2266 -50 1853 -50 
Q 1622 -50 1417 -8 
Q 1213 34 988 141 
L 769 -50 
L 553 0 
L 553 3397 
Q 553 3697 548 3815 
Q 544 3934 523 4017 
Q 503 4100 467 4147 
Q 431 4194 370 4222 
Q 309 4250 150 4278 
L 150 4441 
L 906 4472 
L 1091 4472 
L 1091 2497 
z
M 1091 1125 
Q 1091 884 1112 742 
Q 1134 600 1186 506 
Q 1238 413 1336 334 
Q 1434 256 1556 226 
Q 1678 197 1828 197 
Q 2203 197 2397 503 
Q 2591 809 2591 1422 
Q 2591 2041 2414 2352 
Q 2238 2663 1881 2663 
Q 1703 2663 1578 2608 
Q 1453 2553 1329 2437 
Q 1206 2322 1148 2209 
Q 1091 2097 1091 1953 
L 1091 1125 
z
" transform="scale(0.015625)"/>
       <path id="Cambria-20b" d="M 2309 -1359 
Q 1778 -1359 1442 -1200 
Q 1106 -1041 918 -714 
Q 731 -388 647 134 
Q 563 656 563 1550 
Q 563 2438 645 2964 
Q 728 3491 915 3822 
Q 1103 4153 1440 4318 
Q 1778 4484 2309 4484 
L 2309 4228 
Q 2091 4228 1922 4191 
Q 1731 4147 1597 4022 
Q 1447 3884 1353 3638 
Q 1244 3350 1191 2875 
Q 1134 2372 1134 1575 
Q 1134 872 1181 379 
Q 1228 -113 1338 -425 
Q 1425 -688 1556 -834 
Q 1672 -963 1831 -1028 
Q 2016 -1103 2309 -1103 
L 2309 -1359 
z
" transform="scale(0.015625)"/>
       <path id="Cambria-200" d="M 2941 4472 
L 684 -1344 
L 194 -1344 
L 2456 4472 
L 2941 4472 
z
" transform="scale(0.015625)"/>
       <path id="Cambria-9c" d="M 2659 906 
L 2659 0 
L 253 0 
L 253 153 
L 1966 2734 
L 1119 2734 
Q 963 2734 872 2678 
Q 781 2622 700 2490 
Q 619 2359 544 2138 
L 272 2138 
L 272 2988 
L 2641 2988 
L 2641 2831 
L 931 253 
L 1753 253 
Q 1916 253 1997 278 
Q 2078 303 2137 358 
Q 2197 413 2253 531 
Q 2309 650 2388 906 
L 2659 906 
z
" transform="scale(0.015625)"/>
       <path id="Cambria-20c" d="M 134 4484 
Q 666 4484 1002 4325 
Q 1338 4166 1525 3839 
Q 1713 3513 1797 2991 
Q 1881 2469 1881 1575 
Q 1881 688 1798 161 
Q 1716 -366 1528 -697 
Q 1341 -1028 1003 -1193 
Q 666 -1359 134 -1359 
L 134 -1103 
Q 353 -1103 522 -1066 
Q 713 -1022 847 -897 
Q 997 -759 1091 -513 
Q 1200 -225 1253 250 
Q 1309 753 1309 1550 
Q 1309 2253 1262 2745 
Q 1216 3238 1106 3550 
Q 1019 3813 888 3959 
Q 772 4088 613 4153 
Q 428 4228 134 4228 
L 134 4484 
z
" transform="scale(0.015625)"/>
      </defs>
      <use xlink:href="#Cambria-8a"/>
      <use xlink:href="#Cambria-84" transform="translate(55.171875 0)"/>
      <use xlink:href="#Cambria-37a" transform="translate(109.90625 0)"/>
      <use xlink:href="#Cambria-1e6" transform="translate(165.28125 0)"/>
      <use xlink:href="#Cambria-374" transform="translate(198.484375 0)"/>
      <use xlink:href="#Cambria-374" transform="translate(253.859375 0)"/>
      <use xlink:href="#Cambria-3" transform="translate(309.234375 0)"/>
      <use xlink:href="#Cambria-95" transform="translate(331.25 0)"/>
      <use xlink:href="#Cambria-99" transform="translate(373.734375 0)"/>
      <use xlink:href="#Cambria-87" transform="translate(449.90625 0)"/>
      <use xlink:href="#Cambria-87" transform="translate(498.6875 0)"/>
      <use xlink:href="#Cambria-92" transform="translate(547.46875 0)"/>
      <use xlink:href="#Cambria-3" transform="translate(603.078125 0)"/>
      <use xlink:href="#Cambria-20b" transform="translate(625.09375 0)"/>
      <use xlink:href="#Cambria-376" transform="translate(663.28125 0)"/>
      <use xlink:href="#Cambria-373" transform="translate(718.65625 0)"/>
      <use xlink:href="#Cambria-3" transform="translate(774.03125 0)"/>
      <use xlink:href="#Cambria-96" transform="translate(796.046875 0)"/>
      <use xlink:href="#Cambria-94" transform="translate(829.890625 0)"/>
      <use xlink:href="#Cambria-8b" transform="translate(871.25 0)"/>
      <use xlink:href="#Cambria-83" transform="translate(899.03125 0)"/>
      <use xlink:href="#Cambria-8e" transform="translate(947.859375 0)"/>
      <use xlink:href="#Cambria-95" transform="translate(975.015625 0)"/>
      <use xlink:href="#Cambria-200" transform="translate(1017.984375 0)"/>
      <use xlink:href="#Cambria-95" transform="translate(1067.015625 0)"/>
      <use xlink:href="#Cambria-8b" transform="translate(1109.984375 0)"/>
      <use xlink:href="#Cambria-9c" transform="translate(1137.765625 0)"/>
      <use xlink:href="#Cambria-87" transform="translate(1183.21875 0)"/>
      <use xlink:href="#Cambria-20c" transform="translate(1232 0)"/>
     </g>
    </g>
    <g id="PathCollection_4">
     <g>
      <use xlink:href="#m08de6775bc" x="62.96" y="88.962816" style="fill: #eb6834; stroke: #fcfcfb; stroke-width: 0.8"/>
     </g>
    </g>
    <g id="text_17">
     <!-- hb4-7 sweep (3 trials/size) -->
     <g transform="translate(78.08 91.167816) scale(0.084 -0.084)">
      <defs>
       <path id="Cambria-379" d="M 3206 4116 
L 1388 -22 
L 934 -22 
L 934 131 
L 2619 3697 
L 2619 3744 
L 1244 3744 
Q 1116 3744 1039 3720 
Q 963 3697 911 3653 
Q 859 3609 825 3537 
Q 791 3466 731 3253 
L 463 3253 
L 525 4266 
L 3206 4266 
L 3206 4116 
z
" transform="scale(0.015625)"/>
      </defs>
      <use xlink:href="#Cambria-8a"/>
      <use xlink:href="#Cambria-84" transform="translate(55.171875 0)"/>
      <use xlink:href="#Cambria-376" transform="translate(109.90625 0)"/>
      <use xlink:href="#Cambria-1e6" transform="translate(165.28125 0)"/>
      <use xlink:href="#Cambria-379" transform="translate(198.484375 0)"/>
      <use xlink:href="#Cambria-3" transform="translate(253.859375 0)"/>
      <use xlink:href="#Cambria-95" transform="translate(275.875 0)"/>
      <use xlink:href="#Cambria-99" transform="translate(318.359375 0)"/>
      <use xlink:href="#Cambria-87" transform="translate(394.53125 0)"/>
      <use xlink:href="#Cambria-87" transform="translate(443.3125 0)"/>
      <use xlink:href="#Cambria-92" transform="translate(492.09375 0)"/>
      <use xlink:href="#Cambria-3" transform="translate(547.703125 0)"/>
      <use xlink:href="#Cambria-20b" transform="translate(569.71875 0)"/>
      <use xlink:href="#Cambria-375" transform="translate(607.90625 0)"/>
      <use xlink:href="#Cambria-3" transform="translate(663.28125 0)"/>
      <use xlink:href="#Cambria-96" transform="translate(685.296875 0)"/>
      <use xlink:href="#Cambria-94" transform="translate(719.140625 0)"/>
      <use xlink:href="#Cambria-8b" transform="translate(760.5 0)"/>
      <use xlink:href="#Cambria-83" transform="translate(788.28125 0)"/>
      <use xlink:href="#Cambria-8e" transform="translate(837.109375 0)"/>
      <use xlink:href="#Cambria-95" transform="translate(864.265625 0)"/>
      <use xlink:href="#Cambria-200" transform="translate(907.234375 0)"/>
      <use xlink:href="#Cambria-95" transform="translate(956.265625 0)"/>
      <use xlink:href="#Cambria-8b" transform="translate(999.234375 0)"/>
      <use xlink:href="#Cambria-9c" transform="translate(1027.015625 0)"/>
      <use xlink:href="#Cambria-87" transform="translate(1072.46875 0)"/>
      <use xlink:href="#Cambria-20c" transform="translate(1121.25 0)"/>
     </g>
    </g>
   </g>
  </g>
 </g>
 <defs>
  <clipPath id="p088432e3fe">
   <rect x="47" y="25.311816" width="385.866016" height="207.471436"/>
  </clipPath>
 </defs>
</svg>
