<?xml version="1.0" encoding="utf-8" standalone="no"?>
<!DOCTYPE svg PUBLIC "-//W3C//DTD SVG 1.1//EN"
  "http://www.w3.org/Graphics/SVG/1.1/DTD/svg11.dtd">
<svg xmlns:xlink="http://www.w3.org/1999/xlink" width="498pt" height="289.2pt" viewBox="0 0 498 289.2" xmlns="http://www.w3.org/2000/svg" version="1.1">
 <metadata>
  <rdf:RDF xmlns:dc="http://purl.org/dc/elements/1.1/" xmlns:cc="http://creativecommons.org/ns#" xmlns:rdf="http://www.w3.org/1999/02/22-rdf-syntax-ns#">
   <cc:Work>
    <dc:type rdf:resource="http://purl.org/dc/dcmitype/StillImage"/>
    <dc:date>2026-07-23T00:47:53.795132</dc:date>
    <dc:format>image/svg+xml</dc:format>
    <dc:creator>
     <cc:Agent>
      <dc:title>Matplotlib v3.11.1, https://matplotlib.org/</dc:title>
     </cc:Agent>
    </dc:creator>
   </cc:Work>
  </rdf:RDF>
 </metadata>
 <defs>
  <style type="text/css">*{stroke-linejoin: round; stroke-linecap: butt}</style>
 </defs>
 <g id="figure_1">
  <g id="patch_1">
   <path d="M 0 289.2 
L 498 289.2 
L 498 0 
L 0 0 
z
" style="fill: #fcfcfb"/>
  </g>
  <g id="axes_1">
   <g id="patch_2">
    <path d="M 20.7408 52.583636 
L 477.2592 52.583636 
Q 483.0624 52.583636 483.0624 47.587273 
L 483.0624 18.858182 
Q 483.0624 13.861818 477.2592 13.861818 
L 20.7408 13.861818 
Q 14.9376 13.861818 14.9376 18.858182 
L 14.9376 47.587273 
Q 14.9376 52.583636 20.7408 52.583636 
z
" clip-path="url(#pab371282ef)" style="fill: #fbe9df; stroke: #eb6834; stroke-width: 1.2; stroke-linejoin: miter"/>
   </g>
   <g id="patch_3">
    <path d="M 20.7408 135.856364 
L 129.0672 135.856364 
Q 134.8704 135.856364 134.8704 130.86 
L 134.8704 81.312727 
Q 134.8704 76.316364 129.0672 76.316364 
L 20.7408 76.316364 
Q 14.9376 76.316364 14.9376 81.312727 
L 14.9376 130.86 
Q 14.9376 135.856364 20.7408 135.856364 
z
" clip-path="url(#pab371282ef)" style="fill: #cde2fb; stroke: #2a78d6; stroke-width: 1.2; stroke-linejoin: miter"/>
   </g>
   <g id="patch_4">
    <path d="M 163.4028 135.856364 
L 307.9992 135.856364 
Q 313.8024 135.856364 313.8024 130.86 
L 313.8024 81.312727 
Q 313.8024 76.316364 307.9992 76.316364 
L 163.4028 76.316364 
Q 157.5996 76.316364 157.5996 81.312727 
L 157.5996 130.86 
Q 157.5996 135.856364 163.4028 135.856364 
z
" clip-path="url(#pab371282ef)" style="fill: #fcfcfb; stroke: #2a78d6; stroke-width: 1.2; stroke-linejoin: miter"/>
   </g>
   <g id="patch_5">
    <path d="M 342.3348 135.856364 
L 482.0952 135.856364 
Q 487.8984 135.856364 487.8984 130.86 
L 487.8984 81.312727 
Q 487.8984 76.316364 482.0952 76.316364 
L 342.3348 76.316364 
Q 336.5316 76.316364 336.5316 81.312727 
L 336.5316 130.86 
Q 336.5316 135.856364 342.3348 135.856364 
z
" clip-path="url(#pab371282ef)" style="fill: #fcfcfb; stroke: #1baf7a; stroke-width: 1.2; stroke-linejoin: miter"/>
   </g>
   <g id="patch_6">
    <path d="M 137.35434 106.294545 
Q 146.234061 106.294545 153.43673 106.294545 
" clip-path="url(#pab371282ef)" style="fill: none; stroke: #52514e; stroke-width: 1.5; stroke-linecap: round"/>
    <path d="M 148.23673 103.694545 
L 153.43673 106.294545 
L 148.23673 108.894545 
z
" clip-path="url(#pab371282ef)" style="fill: #52514e; stroke: #52514e; stroke-width: 1.5; stroke-linecap: round"/>
   </g>
   <g id="patch_7">
    <path d="M 316.28634 106.294545 
Q 325.166061 106.294545 332.36873 106.294545 
" clip-path="url(#pab371282ef)" style="fill: none; stroke: #52514e; stroke-width: 1.5; stroke-linecap: round"/>
    <path d="M 327.16873 103.694545 
L 332.36873 106.294545 
L 327.16873 108.894545 
z
" clip-path="url(#pab371282ef)" style="fill: #52514e; stroke: #52514e; stroke-width: 1.5; stroke-linecap: round"/>
   </g>
   <g id="patch_8">
    <path d="M 54.5928 260.765455 
L 443.4072 260.765455 
Q 449.2104 260.765455 449.2104 255.769091 
L 449.2104 206.221818 
Q 449.2104 201.225455 443.4072 201.225455 
L 54.5928 201.225455 
Q 48.7896 201.225455 48.7896 206.221818 
L 48.7896 255.769091 
Q 48.7896 260.765455 54.5928 260.765455 
z
" clip-path="url(#pab371282ef)" style="fill: #f7e2e2; stroke: #e34948; stroke-width: 1.2; stroke-linejoin: miter"/>
   </g>
   <g id="text_1">
    <!-- $\mathbb{F}_n^{*}=\langle\zeta\rangle$,   order $n-1=d\cdot q$,   with the divisor condition $d\mid n-1$ -->
    <g style="fill: #0b0b0b" transform="translate(110.52 36.678727) scale(0.096 -0.096)">
     <defs>
      <path id="STIXNonUnicode-Italic-c" d="M 4250 4179 
L 4192 3942 
L 2150 3942 
L 1683 2176 
L 3494 2176 
L 3424 1939 
L 1619 1939 
L 1101 0 
L 115 0 
L 1229 4179 
L 4250 4179 
z
M 1914 3942 
L 1414 3942 
L 416 237 
L 928 237 
L 1914 3942 
z
" transform="scale(0.015625)"/>
      <path id="Cmsy10-9" d="M 603 813 
Q 531 813 473 873 
Q 416 934 416 1006 
Q 416 1116 506 1159 
L 1428 1600 
L 506 2034 
Q 416 2072 416 2188 
Q 416 2259 473 2320 
Q 531 2381 603 2381 
Q 650 2381 691 2350 
L 1509 1753 
L 1416 2797 
Q 1416 2875 1469 2925 
Q 1522 2975 1600 2975 
Q 1675 2975 1726 2928 
Q 1778 2881 1778 2809 
L 1778 2797 
L 1684 1753 
L 2503 2350 
Q 2544 2381 2591 2381 
Q 2669 2381 2723 2320 
Q 2778 2259 2778 2188 
Q 2778 2072 2688 2034 
L 1766 1600 
L 2688 1159 
Q 2778 1116 2778 1006 
Q 2778 934 2723 873 
Q 2669 813 2591 813 
Q 2544 813 2503 844 
L 1684 1441 
L 1778 403 
L 1778 384 
Q 1778 313 1723 266 
Q 1669 219 1600 219 
Q 1525 219 1470 270 
Q 1416 322 1416 397 
L 1509 1441 
L 691 844 
Q 650 813 603 813 
z
" transform="scale(0.015625)"/>
      <path id="Cmmi10-7a" d="M 494 109 
Q 494 147 500 166 
L 978 2075 
Q 1025 2253 1025 2388 
Q 1025 2663 838 2663 
Q 638 2663 541 2423 
Q 444 2184 353 1819 
Q 353 1800 334 1789 
Q 316 1778 300 1778 
L 225 1778 
Q 203 1778 187 1801 
Q 172 1825 172 1844 
Q 241 2122 305 2315 
Q 369 2509 505 2668 
Q 641 2828 844 2828 
Q 1084 2828 1268 2676 
Q 1453 2525 1453 2291 
Q 1644 2541 1900 2684 
Q 2156 2828 2444 2828 
Q 2672 2828 2837 2750 
Q 3003 2672 3095 2514 
Q 3188 2356 3188 2138 
Q 3188 1875 3070 1503 
Q 2953 1131 2778 672 
Q 2688 463 2688 288 
Q 2688 97 2834 97 
Q 3084 97 3251 365 
Q 3419 634 3488 941 
Q 3500 978 3541 978 
L 3616 978 
Q 3641 978 3658 962 
Q 3675 947 3675 922 
Q 3675 916 3669 903 
Q 3581 541 3364 234 
Q 3147 -72 2822 -72 
Q 2597 -72 2437 83 
Q 2278 238 2278 459 
Q 2278 578 2328 709 
Q 2409 919 2514 1209 
Q 2619 1500 2686 1765 
Q 2753 2031 2753 2234 
Q 2753 2413 2679 2538 
Q 2606 2663 2431 2663 
Q 2197 2663 2000 2559 
Q 1803 2456 1656 2286 
Q 1509 2116 1388 1881 
L 953 141 
Q 931 53 854 -9 
Q 778 -72 684 -72 
Q 606 -72 550 -22 
Q 494 28 494 109 
z
" transform="scale(0.015625)"/>
      <path id="Cmr10-29" d="M 481 850 
Q 428 850 393 890 
Q 359 931 359 978 
Q 359 1031 393 1068 
Q 428 1106 481 1106 
L 4500 1106 
Q 4547 1106 4581 1068 
Q 4616 1031 4616 978 
Q 4616 931 4581 890 
Q 4547 850 4500 850 
L 481 850 
z
M 481 2094 
Q 428 2094 393 2131 
Q 359 2169 359 2222 
Q 359 2269 393 2309 
Q 428 2350 481 2350 
L 4500 2350 
Q 4547 2350 4581 2309 
Q 4616 2269 4616 2222 
Q 4616 2169 4581 2131 
Q 4547 2094 4500 2094 
L 481 2094 
z
" transform="scale(0.015625)"/>
      <path id="Cmex10-61" d="M 2272 -7347 
L 641 -3634 
Q 628 -3616 628 -3584 
Q 628 -3553 641 -3541 
L 2272 178 
Q 2303 256 2388 256 
Q 2434 256 2475 215 
Q 2516 175 2516 128 
Q 2516 97 2509 84 
L 897 -3584 
L 2509 -7250 
Q 2516 -7263 2516 -7297 
Q 2516 -7344 2475 -7384 
Q 2434 -7425 2388 -7425 
Q 2306 -7425 2272 -7347 
z
" transform="scale(0.015625)"/>
      <path id="Cmmi10-a" d="M 1131 -997 
Q 1147 -922 1222 -922 
Q 1234 -922 1332 -986 
Q 1431 -1050 1542 -1098 
Q 1653 -1147 1784 -1147 
Q 1922 -1147 2014 -1019 
Q 2106 -891 2106 -744 
Q 2106 -597 2009 -494 
Q 1913 -391 1766 -341 
L 1113 -122 
Q 713 16 503 317 
Q 294 619 294 1050 
Q 294 1416 426 1831 
Q 559 2247 793 2637 
Q 1028 3028 1334 3339 
Q 1641 3650 1972 3822 
Q 1906 3953 1906 4128 
Q 1906 4475 2041 4475 
Q 2075 4475 2100 4450 
Q 2125 4425 2125 4391 
Q 2125 4344 2109 4245 
Q 2094 4147 2094 4122 
Q 2094 4006 2131 3897 
Q 2297 3963 2438 3963 
Q 3028 3963 3028 3781 
Q 3028 3566 2375 3566 
Q 2181 3566 2069 3681 
Q 1794 3525 1539 3244 
Q 1284 2963 1087 2613 
Q 891 2263 781 1906 
Q 672 1550 672 1228 
Q 672 538 1300 319 
L 1984 91 
Q 2200 25 2336 -139 
Q 2472 -303 2472 -531 
Q 2472 -716 2378 -898 
Q 2284 -1081 2125 -1197 
Q 1966 -1313 1772 -1313 
Q 1619 -1313 1375 -1211 
Q 1131 -1109 1131 -997 
z
M 2247 3763 
Q 2241 3763 2303 3738 
Q 2331 3738 2348 3736 
Q 2366 3734 2388 3731 
Q 2694 3731 2828 3769 
Q 2706 3794 2438 3794 
Q 2350 3794 2247 3763 
z
" transform="scale(0.015625)"/>
      <path id="Cmex10-40" d="M 500 -7297 
Q 500 -7263 513 -7250 
L 2119 -3584 
L 513 84 
Q 500 97 500 128 
Q 500 175 537 215 
Q 575 256 628 256 
Q 703 256 750 178 
L 2381 -3541 
Q 2388 -3553 2388 -3584 
Q 2388 -3616 2381 -3634 
L 750 -7347 
Q 700 -7425 628 -7425 
Q 575 -7425 537 -7384 
Q 500 -7344 500 -7297 
z
" transform="scale(0.015625)"/>
      <path id="Cambria-Bold-1e1" d="M 1134 944 
Q 1163 816 1178 659 
Q 1194 503 1194 378 
Q 1194 119 1109 -81 
Q 1025 -281 839 -476 
Q 653 -672 316 -909 
L 75 -638 
Q 209 -519 286 -387 
Q 363 -256 395 -95 
Q 428 66 428 303 
Q 428 584 391 944 
L 1134 944 
z
" transform="scale(0.015625)"/>
      <path id="Cambria-Bold-3" transform="scale(0.015625)"/>
      <path id="Cambria-Bold-91" d="M 1784 -50 
Q 1325 -50 992 111 
Q 659 272 471 626 
Q 284 981 284 1528 
Q 284 1947 400 2253 
Q 516 2559 722 2759 
Q 928 2959 1214 3054 
Q 1500 3150 1834 3150 
Q 2591 3150 2975 2751 
Q 3359 2353 3359 1584 
Q 3359 1041 3168 673 
Q 2978 306 2625 128 
Q 2272 -50 1784 -50 
z
M 1234 1597 
Q 1234 934 1382 604 
Q 1531 275 1831 275 
Q 1997 275 2108 359 
Q 2219 444 2286 603 
Q 2353 763 2381 986 
Q 2409 1209 2409 1488 
Q 2409 2159 2261 2492 
Q 2113 2825 1822 2825 
Q 1609 2825 1481 2690 
Q 1353 2556 1293 2287 
Q 1234 2019 1234 1597 
z
" transform="scale(0.015625)"/>
      <path id="Cambria-Bold-94" d="M 1434 2653 
L 1475 2644 
Q 1703 2913 1943 3031 
Q 2184 3150 2466 3150 
Q 2656 3150 2866 3109 
L 2866 2247 
L 2300 2247 
Q 2247 2428 2161 2525 
Q 2075 2622 1931 2622 
Q 1863 2622 1780 2580 
Q 1697 2538 1626 2461 
Q 1556 2384 1526 2304 
Q 1497 2225 1487 2144 
Q 1478 2063 1478 1900 
L 1478 903 
Q 1478 606 1500 487 
Q 1522 369 1587 301 
Q 1653 234 1809 206 
L 1809 0 
L 269 0 
L 269 206 
Q 419 247 476 312 
Q 534 378 554 490 
Q 575 603 575 900 
L 575 2184 
Q 575 2416 567 2527 
Q 559 2638 529 2705 
Q 500 2772 439 2814 
Q 378 2856 228 2888 
L 228 3100 
L 1084 3125 
L 1478 3125 
L 1434 2653 
z
" transform="scale(0.015625)"/>
      <path id="Cambria-Bold-86" d="M 3288 913 
Q 3288 675 3295 565 
Q 3303 456 3331 390 
Q 3359 325 3421 283 
Q 3484 241 3631 209 
L 3631 0 
L 2781 -28 
L 2403 -28 
L 2431 422 
L 2384 425 
Q 2159 197 1911 73 
Q 1663 -50 1434 -50 
Q 866 -50 583 340 
Q 300 731 300 1516 
Q 300 2047 472 2411 
Q 644 2775 983 2962 
Q 1322 3150 1800 3150 
Q 1938 3150 2070 3133 
Q 2203 3116 2384 3066 
L 2384 3350 
Q 2384 3684 2375 3823 
Q 2366 3963 2336 4036 
Q 2306 4109 2247 4150 
Q 2188 4191 2031 4222 
L 2031 4431 
L 2897 4475 
L 3288 4475 
L 3288 913 
z
M 2384 2075 
Q 2384 2456 2256 2640 
Q 2128 2825 1863 2825 
Q 1669 2825 1530 2686 
Q 1391 2547 1320 2284 
Q 1250 2022 1250 1663 
Q 1250 1047 1384 744 
Q 1519 441 1803 441 
Q 1938 441 2070 508 
Q 2203 575 2293 714 
Q 2384 853 2384 1034 
L 2384 2075 
z
" transform="scale(0.015625)"/>
      <path id="Cambria-Bold-87" d="M 3097 569 
Q 2778 231 2465 90 
Q 2153 -50 1747 -50 
Q 1019 -50 651 348 
Q 284 747 284 1531 
Q 284 2038 473 2405 
Q 663 2772 1009 2961 
Q 1356 3150 1816 3150 
Q 2100 3150 2314 3084 
Q 2528 3019 2681 2901 
Q 2834 2784 2934 2619 
Q 3053 2422 3113 2169 
Q 3175 1909 3178 1541 
L 1197 1541 
Q 1200 975 1398 708 
Q 1597 441 2003 441 
Q 2241 441 2431 530 
Q 2622 619 2844 844 
L 3097 569 
z
M 2253 1878 
Q 2241 2356 2128 2590 
Q 2016 2825 1766 2825 
Q 1525 2825 1383 2581 
Q 1241 2338 1213 1878 
L 2253 1878 
z
" transform="scale(0.015625)"/>
      <path id="Cmsy10-11" d="M 653 1472 
Q 600 1472 565 1512 
Q 531 1553 531 1600 
Q 531 1647 565 1687 
Q 600 1728 653 1728 
L 4325 1728 
Q 4375 1728 4408 1687 
Q 4441 1647 4441 1600 
Q 4441 1553 4408 1512 
Q 4375 1472 4325 1472 
L 653 1472 
z
" transform="scale(0.015625)"/>
      <path id="Cmr10-64" d="M 594 0 
L 594 225 
Q 1394 225 1394 428 
L 1394 3788 
Q 1063 3628 556 3628 
L 556 3853 
Q 1341 3853 1741 4263 
L 1831 4263 
Q 1853 4263 1873 4245 
Q 1894 4228 1894 4206 
L 1894 428 
Q 1894 225 2694 225 
L 2694 0 
L 594 0 
z
" transform="scale(0.015625)"/>
      <path id="Cmmi10-51" d="M 1113 -72 
Q 709 -72 476 233 
Q 244 538 244 953 
Q 244 1363 456 1803 
Q 669 2244 1030 2536 
Q 1391 2828 1806 2828 
Q 1994 2828 2145 2723 
Q 2297 2619 2381 2444 
L 2741 3872 
Q 2766 3981 2772 4044 
Q 2772 4147 2356 4147 
Q 2291 4147 2291 4231 
Q 2294 4247 2305 4287 
Q 2316 4328 2333 4350 
Q 2350 4372 2381 4372 
L 3244 4441 
Q 3322 4441 3322 4359 
L 2400 678 
Q 2356 572 2356 372 
Q 2356 97 2541 97 
Q 2741 97 2845 351 
Q 2950 606 3022 941 
Q 3034 978 3072 978 
L 3150 978 
Q 3175 978 3190 956 
Q 3206 934 3206 916 
Q 3094 469 2961 198 
Q 2828 -72 2528 -72 
Q 2313 -72 2147 54 
Q 1981 181 1941 391 
Q 1528 -72 1113 -72 
z
M 1119 97 
Q 1350 97 1567 270 
Q 1784 444 1941 678 
Q 1947 684 1947 703 
L 2297 2113 
Q 2259 2338 2131 2500 
Q 2003 2663 1791 2663 
Q 1575 2663 1389 2486 
Q 1203 2309 1075 2069 
Q 950 1813 836 1366 
Q 722 919 722 672 
Q 722 450 817 273 
Q 913 97 1119 97 
z
" transform="scale(0.015625)"/>
      <path id="Cmsy10-4e" d="M 538 1600 
Q 538 1691 584 1772 
Q 631 1853 714 1903 
Q 797 1953 891 1953 
Q 981 1953 1064 1903 
Q 1147 1853 1194 1772 
Q 1241 1691 1241 1600 
Q 1241 1456 1139 1351 
Q 1038 1247 891 1247 
Q 747 1247 642 1351 
Q 538 1456 538 1600 
z
" transform="scale(0.015625)"/>
      <path id="Cmmi10-52" d="M 941 -1159 
Q 963 -1019 1025 -1019 
Q 1256 -1019 1389 -981 
Q 1522 -944 1563 -800 
L 1838 288 
Q 1472 -72 1106 -72 
Q 703 -72 473 233 
Q 244 538 244 953 
Q 244 1363 455 1803 
Q 666 2244 1027 2536 
Q 1388 2828 1806 2828 
Q 2000 2828 2156 2712 
Q 2313 2597 2394 2406 
Q 2431 2481 2601 2654 
Q 2772 2828 2841 2828 
Q 2913 2828 2913 2747 
L 2016 -825 
Q 2000 -919 1997 -934 
Q 1997 -1019 2419 -1019 
Q 2450 -1019 2467 -1044 
Q 2484 -1069 2484 -1100 
Q 2463 -1184 2448 -1212 
Q 2434 -1241 2375 -1241 
L 1006 -1241 
Q 941 -1241 941 -1159 
z
M 1119 97 
Q 1344 97 1558 267 
Q 1772 438 1931 672 
L 2291 2113 
Q 2253 2338 2126 2500 
Q 2000 2663 1791 2663 
Q 1575 2663 1389 2486 
Q 1203 2309 1075 2069 
Q 950 1813 836 1366 
Q 722 919 722 672 
Q 722 450 817 273 
Q 913 97 1119 97 
z
" transform="scale(0.015625)"/>
      <path id="Cambria-Bold-99" d="M 3128 -31 
L 2541 1984 
L 1856 -31 
L 1225 -31 
L 466 2347 
Q 397 2566 350 2664 
Q 303 2763 243 2817 
Q 184 2872 84 2894 
L 84 3100 
L 1613 3100 
L 1613 2894 
Q 1466 2869 1392 2805 
Q 1319 2741 1319 2625 
Q 1319 2547 1344 2451 
Q 1369 2356 1400 2250 
L 1791 953 
L 2509 3100 
L 3091 3100 
L 3697 953 
L 4106 2081 
Q 4169 2250 4192 2365 
Q 4216 2481 4216 2569 
Q 4216 2700 4141 2786 
Q 4066 2872 3928 2894 
L 3928 3100 
L 5106 3100 
L 5106 2891 
Q 5013 2863 4961 2825 
Q 4909 2788 4864 2722 
Q 4819 2656 4761 2531 
Q 4703 2406 4594 2128 
L 3753 -31 
L 3128 -31 
z
" transform="scale(0.015625)"/>
      <path id="Cambria-Bold-8b" d="M 1453 4347 
L 1453 3581 
L 597 3581 
L 597 4347 
L 1453 4347 
z
M 266 206 
Q 419 247 476 312 
Q 534 378 554 490 
Q 575 603 575 900 
L 575 2353 
Q 575 2506 561 2600 
Q 547 2694 508 2750 
Q 469 2806 401 2836 
Q 334 2866 228 2888 
L 228 3100 
L 1088 3125 
L 1478 3125 
L 1478 903 
Q 1478 728 1483 633 
Q 1488 538 1497 486 
Q 1506 434 1523 393 
Q 1541 353 1569 318 
Q 1597 284 1650 256 
Q 1703 228 1791 206 
L 1791 0 
L 266 0 
L 266 206 
z
" transform="scale(0.015625)"/>
      <path id="Cambria-Bold-96" d="M 2406 375 
Q 2131 141 1906 45 
Q 1681 -50 1431 -50 
Q 966 -50 736 201 
Q 506 453 506 963 
L 506 2709 
L 116 2709 
L 116 2925 
Q 306 2956 397 3018 
Q 488 3081 538 3186 
Q 588 3291 617 3459 
Q 647 3628 663 3881 
L 1409 3881 
L 1409 3100 
L 2300 3100 
L 2300 2709 
L 1409 2709 
L 1409 1300 
Q 1409 947 1442 778 
Q 1475 609 1553 529 
Q 1631 450 1747 450 
Q 1834 450 1903 465 
Q 1972 481 2048 522 
Q 2125 563 2209 638 
L 2406 375 
z
" transform="scale(0.015625)"/>
      <path id="Cambria-Bold-8a" d="M 1450 2688 
Q 1734 2941 1957 3045 
Q 2181 3150 2416 3150 
Q 2759 3150 2946 3023 
Q 3134 2897 3220 2659 
Q 3306 2422 3306 2044 
L 3306 903 
Q 3306 766 3311 645 
Q 3316 525 3334 453 
Q 3353 381 3386 336 
Q 3419 291 3478 259 
Q 3538 228 3622 206 
L 3622 0 
L 2106 0 
L 2106 206 
Q 2253 241 2308 306 
Q 2363 372 2383 487 
Q 2403 603 2403 900 
L 2403 1716 
Q 2403 2028 2383 2201 
Q 2363 2375 2314 2470 
Q 2266 2566 2189 2612 
Q 2113 2659 1988 2659 
Q 1869 2659 1739 2586 
Q 1609 2513 1523 2386 
Q 1438 2259 1438 2116 
L 1438 903 
Q 1438 728 1442 633 
Q 1447 538 1456 486 
Q 1466 434 1483 393 
Q 1500 353 1528 318 
Q 1556 284 1609 256 
Q 1663 228 1750 206 
L 1750 0 
L 219 0 
L 219 206 
Q 313 228 366 258 
Q 419 288 448 327 
Q 478 366 500 427 
Q 522 488 528 595 
Q 534 703 534 903 
L 534 3341 
Q 534 3609 529 3736 
Q 525 3863 509 3948 
Q 494 4034 462 4086 
Q 431 4138 372 4169 
Q 313 4200 181 4225 
L 181 4431 
L 1047 4475 
L 1438 4475 
L 1438 2691 
L 1450 2688 
z
" transform="scale(0.015625)"/>
      <path id="Cambria-Bold-98" d="M 1619 3100 
L 1619 2894 
Q 1472 2866 1403 2809 
Q 1334 2753 1334 2641 
Q 1334 2491 1416 2250 
L 1866 884 
L 2363 2081 
Q 2425 2231 2456 2345 
Q 2488 2459 2488 2569 
Q 2488 2700 2413 2786 
Q 2338 2872 2200 2894 
L 2200 3100 
L 3416 3100 
L 3416 2891 
Q 3325 2863 3270 2822 
Q 3216 2781 3167 2715 
Q 3119 2650 3050 2520 
Q 2981 2391 2863 2128 
L 1888 -31 
L 1297 -31 
L 472 2347 
Q 388 2594 334 2686 
Q 281 2778 217 2826 
Q 153 2875 59 2894 
L 59 3100 
L 1619 3100 
z
" transform="scale(0.015625)"/>
      <path id="Cambria-Bold-95" d="M 672 844 
Q 747 559 909 417 
Q 1072 275 1344 275 
Q 1578 275 1698 381 
Q 1819 488 1819 691 
Q 1819 819 1764 909 
Q 1709 1000 1582 1083 
Q 1456 1166 1150 1300 
Q 978 1375 826 1465 
Q 675 1556 562 1670 
Q 450 1784 384 1925 
Q 319 2066 319 2238 
Q 319 2519 481 2725 
Q 644 2931 945 3040 
Q 1247 3150 1634 3150 
Q 1863 3150 2081 3131 
Q 2300 3113 2647 3050 
L 2647 2322 
L 2234 2322 
Q 2163 2522 2077 2631 
Q 1991 2741 1887 2783 
Q 1784 2825 1641 2825 
Q 1434 2825 1312 2731 
Q 1191 2638 1191 2469 
Q 1191 2350 1234 2265 
Q 1278 2181 1390 2101 
Q 1503 2022 1825 1888 
Q 2119 1766 2303 1633 
Q 2488 1500 2584 1326 
Q 2681 1153 2681 922 
Q 2681 669 2587 486 
Q 2494 303 2325 184 
Q 2156 66 1920 8 
Q 1684 -50 1400 -50 
Q 884 -50 253 97 
L 253 844 
L 672 844 
z
" transform="scale(0.015625)"/>
      <path id="Cambria-Bold-85" d="M 2650 800 
L 2891 509 
Q 2584 209 2298 79 
Q 2013 -50 1675 -50 
Q 997 -50 640 348 
Q 284 747 284 1506 
Q 284 2019 479 2392 
Q 675 2766 1040 2958 
Q 1406 3150 1878 3150 
Q 2131 3150 2382 3114 
Q 2634 3078 2841 3016 
L 2841 2263 
L 2222 2263 
Q 2175 2556 2081 2690 
Q 1988 2825 1813 2825 
Q 1697 2825 1592 2767 
Q 1488 2709 1408 2567 
Q 1328 2425 1281 2186 
Q 1234 1947 1234 1581 
Q 1234 1216 1303 964 
Q 1372 713 1525 577 
Q 1678 441 1928 441 
Q 2109 441 2270 519 
Q 2431 597 2650 800 
z
" transform="scale(0.015625)"/>
      <path id="Cambria-Bold-90" d="M 3666 0 
L 2150 0 
L 2150 206 
Q 2294 241 2350 308 
Q 2406 375 2426 489 
Q 2447 603 2447 900 
L 2447 1734 
Q 2447 1956 2437 2098 
Q 2428 2241 2408 2331 
Q 2388 2422 2352 2483 
Q 2316 2544 2272 2583 
Q 2228 2622 2172 2640 
Q 2116 2659 2028 2659 
Q 1909 2659 1781 2586 
Q 1653 2513 1565 2383 
Q 1478 2253 1478 2106 
L 1478 903 
Q 1478 606 1497 490 
Q 1516 375 1573 308 
Q 1631 241 1778 206 
L 1778 0 
L 269 0 
L 269 206 
Q 419 247 476 312 
Q 534 378 554 490 
Q 575 603 575 900 
L 575 2184 
Q 575 2416 567 2527 
Q 559 2638 529 2705 
Q 500 2772 439 2814 
Q 378 2856 228 2888 
L 228 3100 
L 1084 3125 
L 1478 3125 
L 1431 2675 
L 1469 2666 
Q 1663 2838 1809 2936 
Q 1956 3034 2117 3092 
Q 2278 3150 2456 3150 
Q 2713 3150 2881 3076 
Q 3050 3003 3154 2862 
Q 3259 2722 3304 2519 
Q 3350 2316 3350 2047 
L 3350 903 
Q 3350 766 3354 645 
Q 3359 525 3378 453 
Q 3397 381 3430 336 
Q 3463 291 3522 259 
Q 3581 228 3666 206 
L 3666 0 
z
" transform="scale(0.015625)"/>
      <path id="Cmsy10-2f" d="M 763 -1484 
L 763 4684 
Q 763 4734 800 4767 
Q 838 4800 891 4800 
Q 938 4800 978 4767 
Q 1019 4734 1019 4684 
L 1019 -1484 
Q 1019 -1534 978 -1567 
Q 938 -1600 891 -1600 
Q 838 -1600 800 -1567 
Q 763 -1534 763 -1484 
z
" transform="scale(0.015625)"/>
     </defs>
     <use xlink:href="#STIXNonUnicode-Italic-c" transform="translate(0 0.658854)"/>
     <use xlink:href="#Cmsy10-9" transform="translate(50.904239 41.948088) scale(0.7)"/>
     <use xlink:href="#Cmmi10-7a" transform="translate(50.904239 -24.062864) scale(0.7)"/>
     <use xlink:href="#Cmr10-29" transform="translate(118.631548 0.658854)"/>
     <use xlink:href="#Cmex10-61" transform="translate(216.317152 94)"/>
     <use xlink:href="#Cmmi10-a" transform="translate(263.533949 0.658854)"/>
     <use xlink:href="#Cmex10-40" transform="translate(307.23512 94)"/>
     <use xlink:href="#Cambria-Bold-1e1" transform="translate(354.451917 0.658854)"/>
     <use xlink:href="#Cambria-Bold-3" transform="translate(377.645277 0.658854)"/>
     <use xlink:href="#Cambria-Bold-3" transform="translate(399.666761 0.658854)"/>
     <use xlink:href="#Cambria-Bold-3" transform="translate(421.688245 0.658854)"/>
     <use xlink:href="#Cambria-Bold-91" transform="translate(443.70973 0.658854)"/>
     <use xlink:href="#Cambria-Bold-94" transform="translate(500.643324 0.658854)"/>
     <use xlink:href="#Cambria-Bold-86" transform="translate(546.785902 0.658854)"/>
     <use xlink:href="#Cambria-Bold-87" transform="translate(606.502699 0.658854)"/>
     <use xlink:href="#Cambria-Bold-94" transform="translate(659.57887 0.658854)"/>
     <use xlink:href="#Cambria-Bold-3" transform="translate(705.721449 0.658854)"/>
     <use xlink:href="#Cmmi10-7a" transform="translate(727.742933 0.658854)"/>
     <use xlink:href="#Cmsy10-11" transform="translate(807.752756 0.658854)"/>
     <use xlink:href="#Cmr10-64" transform="translate(905.43836 0.658854)"/>
     <use xlink:href="#Cmr10-29" transform="translate(975.438417 0.658854)"/>
     <use xlink:href="#Cmmi10-51" transform="translate(1073.124021 0.658854)"/>
     <use xlink:href="#Cmsy10-4e" transform="translate(1145.126032 0.658854)"/>
     <use xlink:href="#Cmmi10-52" transform="translate(1192.811636 0.658854)"/>
     <use xlink:href="#Cambria-Bold-1e1" transform="translate(1237.391714 0.658854)"/>
     <use xlink:href="#Cambria-Bold-3" transform="translate(1260.585073 0.658854)"/>
     <use xlink:href="#Cambria-Bold-3" transform="translate(1282.606558 0.658854)"/>
     <use xlink:href="#Cambria-Bold-3" transform="translate(1304.628042 0.658854)"/>
     <use xlink:href="#Cambria-Bold-99" transform="translate(1326.649526 0.658854)"/>
     <use xlink:href="#Cambria-Bold-8b" transform="translate(1406.483511 0.658854)"/>
     <use xlink:href="#Cambria-Bold-96" transform="translate(1437.928823 0.658854)"/>
     <use xlink:href="#Cambria-Bold-8a" transform="translate(1474.452261 0.658854)"/>
     <use xlink:href="#Cambria-Bold-3" transform="translate(1534.120229 0.658854)"/>
     <use xlink:href="#Cambria-Bold-96" transform="translate(1556.141714 0.658854)"/>
     <use xlink:href="#Cambria-Bold-8a" transform="translate(1592.665151 0.658854)"/>
     <use xlink:href="#Cambria-Bold-87" transform="translate(1652.33312 0.658854)"/>
     <use xlink:href="#Cambria-Bold-3" transform="translate(1705.409292 0.658854)"/>
     <use xlink:href="#Cambria-Bold-86" transform="translate(1727.430776 0.658854)"/>
     <use xlink:href="#Cambria-Bold-8b" transform="translate(1787.147573 0.658854)"/>
     <use xlink:href="#Cambria-Bold-98" transform="translate(1818.592886 0.658854)"/>
     <use xlink:href="#Cambria-Bold-8b" transform="translate(1871.669058 0.658854)"/>
     <use xlink:href="#Cambria-Bold-95" transform="translate(1903.11437 0.658854)"/>
     <use xlink:href="#Cambria-Bold-91" transform="translate(1949.012808 0.658854)"/>
     <use xlink:href="#Cambria-Bold-94" transform="translate(2005.946401 0.658854)"/>
     <use xlink:href="#Cambria-Bold-3" transform="translate(2052.088979 0.658854)"/>
     <use xlink:href="#Cambria-Bold-85" transform="translate(2074.110464 0.658854)"/>
     <use xlink:href="#Cambria-Bold-91" transform="translate(2120.985464 0.658854)"/>
     <use xlink:href="#Cambria-Bold-90" transform="translate(2177.919058 0.658854)"/>
     <use xlink:href="#Cambria-Bold-86" transform="translate(2238.27062 0.658854)"/>
     <use xlink:href="#Cambria-Bold-8b" transform="translate(2297.987417 0.658854)"/>
     <use xlink:href="#Cambria-Bold-96" transform="translate(2329.432729 0.658854)"/>
     <use xlink:href="#Cambria-Bold-8b" transform="translate(2365.956167 0.658854)"/>
     <use xlink:href="#Cambria-Bold-91" transform="translate(2397.401479 0.658854)"/>
     <use xlink:href="#Cambria-Bold-90" transform="translate(2454.335073 0.658854)"/>
     <use xlink:href="#Cambria-Bold-3" transform="translate(2514.686636 0.658854)"/>
     <use xlink:href="#Cmmi10-51" transform="translate(2536.70812 0.658854)"/>
     <use xlink:href="#Cmsy10-2f" transform="translate(2608.71013 0.658854)"/>
     <use xlink:href="#Cmmi10-7a" transform="translate(2656.395734 0.658854)"/>
     <use xlink:href="#Cmsy10-11" transform="translate(2736.405557 0.658854)"/>
     <use xlink:href="#Cmr10-64" transform="translate(2834.091161 0.658854)"/>
    </g>
   </g>
   <g id="text_2">
    <!-- inputs -->
    <g style="fill: #0b0b0b" transform="translate(60.219625 95.780211) scale(0.1 -0.1)">
     <defs>
      <path id="Cambria-Bold-92" d="M 1438 -559 
Q 1438 -794 1463 -891 
Q 1488 -988 1552 -1044 
Q 1616 -1100 1778 -1138 
L 1778 -1344 
L 222 -1344 
L 222 -1138 
Q 369 -1094 426 -1041 
Q 484 -988 509 -892 
Q 534 -797 534 -559 
L 534 2175 
Q 534 2397 529 2490 
Q 525 2584 508 2650 
Q 491 2716 459 2758 
Q 428 2800 367 2831 
Q 306 2863 188 2888 
L 188 3100 
L 1053 3125 
L 1438 3125 
L 1391 2672 
L 1428 2663 
Q 1697 2922 1930 3036 
Q 2163 3150 2409 3150 
Q 2966 3150 3244 2758 
Q 3522 2366 3522 1584 
Q 3522 1044 3358 680 
Q 3194 316 2869 133 
Q 2544 -50 2069 -50 
Q 1747 -50 1438 31 
L 1438 -559 
z
M 1438 1025 
Q 1438 641 1570 458 
Q 1703 275 1981 275 
Q 2269 275 2420 576 
Q 2572 878 2572 1438 
Q 2572 2059 2436 2359 
Q 2300 2659 2013 2659 
Q 1872 2659 1739 2587 
Q 1606 2516 1522 2383 
Q 1438 2250 1438 2084 
L 1438 1025 
z
" transform="scale(0.015625)"/>
      <path id="Cambria-Bold-97" d="M 200 3100 
L 1416 3100 
L 1416 1366 
Q 1416 1066 1434 897 
Q 1453 728 1506 629 
Q 1559 531 1636 486 
Q 1713 441 1831 441 
Q 1947 441 2075 512 
Q 2203 584 2292 714 
Q 2381 844 2381 991 
L 2381 2197 
Q 2381 2425 2372 2536 
Q 2363 2647 2336 2709 
Q 2309 2772 2253 2814 
Q 2197 2856 2069 2894 
L 2069 3100 
L 3288 3100 
L 3288 913 
Q 3288 675 3295 565 
Q 3303 456 3331 390 
Q 3359 325 3421 283 
Q 3484 241 3631 209 
L 3631 0 
L 2781 -28 
L 2403 -28 
L 2431 422 
L 2394 431 
Q 2103 163 1875 56 
Q 1647 -50 1416 -50 
Q 1084 -50 886 73 
Q 688 197 600 436 
Q 513 675 513 1053 
L 513 2197 
Q 513 2372 508 2465 
Q 503 2559 493 2611 
Q 484 2663 467 2705 
Q 450 2747 420 2781 
Q 391 2816 339 2844 
Q 288 2872 200 2894 
L 200 3100 
z
" transform="scale(0.015625)"/>
     </defs>
     <use xlink:href="#Cambria-Bold-8b"/>
     <use xlink:href="#Cambria-Bold-90" transform="translate(31.453125 0)"/>
     <use xlink:href="#Cambria-Bold-92" transform="translate(91.8125 0)"/>
     <use xlink:href="#Cambria-Bold-97" transform="translate(151.53125 0)"/>
     <use xlink:href="#Cambria-Bold-96" transform="translate(211.25 0)"/>
     <use xlink:href="#Cambria-Bold-95" transform="translate(247.78125 0)"/>
    </g>
    <!--  -->
    <g style="fill: #0b0b0b" transform="translate(74.904 107.503844) scale(0.1 -0.1)"/>
    <!-- $g,\ g^{x},\ g^{x^{d}}$ -->
    <g style="fill: #0b0b0b" transform="translate(52.054 121.949157) scale(0.1 -0.1)">
     <defs>
      <path id="Cmmi10-2f" d="M 91 -916 
Q 91 -759 198 -642 
Q 306 -525 459 -525 
Q 563 -525 633 -589 
Q 703 -653 703 -756 
Q 703 -872 637 -964 
Q 572 -1056 469 -1094 
Q 641 -1147 1006 -1147 
Q 1300 -1147 1544 -920 
Q 1788 -694 1863 -397 
L 2047 353 
Q 1700 0 1325 0 
Q 1050 0 854 140 
Q 659 281 556 515 
Q 453 750 453 1013 
Q 453 1306 573 1628 
Q 694 1950 911 2225 
Q 1128 2500 1409 2664 
Q 1691 2828 2003 2828 
Q 2191 2828 2341 2725 
Q 2491 2622 2578 2450 
Q 2641 2700 2853 2700 
Q 2934 2700 2990 2651 
Q 3047 2603 3047 2522 
Q 3047 2503 3045 2493 
Q 3044 2484 3041 2472 
L 2309 -434 
Q 2259 -634 2125 -800 
Q 1991 -966 1809 -1077 
Q 1628 -1188 1412 -1250 
Q 1197 -1313 997 -1313 
Q 631 -1313 361 -1242 
Q 91 -1172 91 -916 
z
M 1338 166 
Q 1747 166 2144 728 
L 2497 2125 
Q 2453 2347 2322 2505 
Q 2191 2663 1991 2663 
Q 1778 2663 1589 2489 
Q 1400 2316 1275 2075 
Q 1156 1844 1045 1411 
Q 934 978 934 728 
Q 934 509 1034 337 
Q 1134 166 1338 166 
z
" transform="scale(0.015625)"/>
      <path id="Cmmi10-2c" d="M 634 -1153 
Q 634 -1125 659 -1100 
Q 891 -878 1019 -587 
Q 1147 -297 1147 25 
L 1147 103 
Q 1044 0 891 0 
Q 744 0 641 103 
Q 538 206 538 353 
Q 538 503 641 603 
Q 744 703 891 703 
Q 1119 703 1216 492 
Q 1313 281 1313 25 
Q 1313 -331 1170 -651 
Q 1028 -972 769 -1228 
Q 744 -1241 728 -1241 
Q 697 -1241 665 -1212 
Q 634 -1184 634 -1153 
z
" transform="scale(0.015625)"/>
      <path id="Cmmi10-3f" d="M 500 184 
Q 613 97 819 97 
Q 1019 97 1172 289 
Q 1325 481 1381 709 
L 1672 1844 
Q 1741 2153 1741 2266 
Q 1741 2425 1652 2544 
Q 1563 2663 1403 2663 
Q 1200 2663 1022 2536 
Q 844 2409 722 2214 
Q 600 2019 550 1819 
Q 538 1778 500 1778 
L 422 1778 
Q 372 1778 372 1838 
L 372 1856 
Q 434 2094 584 2320 
Q 734 2547 951 2687 
Q 1169 2828 1416 2828 
Q 1650 2828 1839 2703 
Q 2028 2578 2106 2363 
Q 2216 2559 2386 2693 
Q 2556 2828 2759 2828 
Q 2897 2828 3040 2779 
Q 3184 2731 3275 2631 
Q 3366 2531 3366 2381 
Q 3366 2219 3261 2101 
Q 3156 1984 2994 1984 
Q 2891 1984 2822 2050 
Q 2753 2116 2753 2216 
Q 2753 2350 2845 2451 
Q 2938 2553 3066 2572 
Q 2950 2663 2747 2663 
Q 2541 2663 2389 2472 
Q 2238 2281 2175 2047 
L 1894 916 
Q 1825 659 1825 494 
Q 1825 331 1917 214 
Q 2009 97 2163 97 
Q 2463 97 2698 361 
Q 2934 625 3009 941 
Q 3022 978 3059 978 
L 3138 978 
Q 3163 978 3178 961 
Q 3194 944 3194 922 
Q 3194 916 3188 903 
Q 3097 522 2806 225 
Q 2516 -72 2150 -72 
Q 1916 -72 1727 54 
Q 1538 181 1459 397 
Q 1359 209 1182 68 
Q 1006 -72 806 -72 
Q 669 -72 523 -23 
Q 378 25 287 125 
Q 197 225 197 378 
Q 197 528 301 651 
Q 406 775 563 775 
Q 669 775 741 711 
Q 813 647 813 544 
Q 813 409 723 309 
Q 634 209 500 184 
z
" transform="scale(0.015625)"/>
     </defs>
     <use xlink:href="#Cmmi10-2f" transform="translate(0 0.806896)"/>
     <use xlink:href="#Cmmi10-2c" transform="translate(47.705078 0.806896)"/>
     <use xlink:href="#Cmmi10-2f" transform="translate(128.723778 0.806896)"/>
     <use xlink:href="#Cmmi10-3f" transform="translate(187.689038 42.09613) scale(0.7)"/>
     <use xlink:href="#Cmmi10-2c" transform="translate(233.365508 0.806896)"/>
     <use xlink:href="#Cmmi10-2f" transform="translate(314.384207 0.806896)"/>
     <use xlink:href="#Cmmi10-3f" transform="translate(373.349467 42.09613) scale(0.7)"/>
     <use xlink:href="#Cmmi10-51" transform="translate(421.187649 70.998594) scale(0.49)"/>
    </g>
   </g>
   <g id="text_3">
    <!-- Stage 1: BSGS in -->
    <g style="fill: #0b0b0b" transform="translate(206.318562 96.759395) scale(0.086 -0.086)">
     <defs>
      <path id="Cambria-16" d="M 663 972 
Q 725 697 831 537 
Q 938 378 1106 301 
Q 1275 225 1541 225 
Q 1906 225 2101 415 
Q 2297 606 2297 972 
Q 2297 1206 2215 1365 
Q 2134 1525 1950 1665 
Q 1766 1806 1388 1994 
Q 1022 2175 809 2348 
Q 597 2522 492 2725 
Q 388 2928 388 3169 
Q 388 3519 552 3776 
Q 716 4034 1033 4175 
Q 1350 4316 1759 4316 
Q 1997 4316 2223 4291 
Q 2450 4266 2791 4178 
L 2791 3334 
L 2481 3334 
Q 2409 3609 2300 3762 
Q 2191 3916 2044 3977 
Q 1897 4038 1663 4038 
Q 1459 4038 1298 3963 
Q 1138 3888 1044 3736 
Q 950 3584 950 3375 
Q 950 3153 1029 3000 
Q 1109 2847 1278 2715 
Q 1447 2584 1778 2422 
Q 2178 2222 2398 2050 
Q 2619 1878 2742 1658 
Q 2866 1438 2866 1144 
Q 2866 816 2762 589 
Q 2659 363 2476 220 
Q 2294 78 2039 14 
Q 1784 -50 1481 -50 
Q 991 -50 350 116 
L 350 972 
L 663 972 
z
" transform="scale(0.015625)"/>
      <path id="Cambria-96" d="M 116 2831 
Q 272 2856 369 2918 
Q 466 2981 520 3079 
Q 575 3178 606 3326 
Q 638 3475 672 3759 
L 1116 3759 
L 1116 2988 
L 2125 2988 
L 2125 2672 
L 1116 2672 
L 1116 1281 
Q 1116 978 1141 798 
Q 1166 619 1234 517 
Q 1303 416 1390 372 
Q 1478 328 1616 328 
Q 1741 328 1850 379 
Q 1959 431 2066 528 
L 2206 359 
Q 1984 144 1786 47 
Q 1588 -50 1375 -50 
Q 972 -50 775 189 
Q 578 428 578 938 
L 578 2672 
L 116 2672 
L 116 2831 
z
" transform="scale(0.015625)"/>
      <path id="Cambria-83" d="M 2109 447 
L 2063 459 
Q 1791 181 1552 65 
Q 1313 -50 1044 -50 
Q 806 -50 625 42 
Q 444 134 347 301 
Q 250 469 250 688 
Q 250 1144 701 1392 
Q 1153 1641 2056 1681 
L 2056 1884 
Q 2056 2209 1993 2396 
Q 1931 2584 1797 2671 
Q 1663 2759 1438 2759 
Q 1194 2759 1045 2631 
Q 897 2503 822 2247 
L 413 2247 
L 413 2653 
Q 713 2809 913 2882 
Q 1113 2956 1313 2998 
Q 1513 3041 1719 3041 
Q 2028 3041 2215 2942 
Q 2403 2844 2497 2641 
Q 2591 2438 2591 2028 
L 2591 941 
Q 2591 709 2594 614 
Q 2597 519 2612 437 
Q 2628 356 2659 307 
Q 2691 259 2752 225 
Q 2813 191 2950 153 
L 2950 0 
L 2094 0 
L 2109 447 
z
M 2056 1425 
Q 1422 1419 1106 1256 
Q 791 1094 791 766 
Q 791 588 862 484 
Q 934 381 1043 342 
Q 1153 303 1303 303 
Q 1516 303 1689 406 
Q 1863 509 1959 668 
Q 2056 828 2056 984 
L 2056 1425 
z
" transform="scale(0.015625)"/>
      <path id="Cambria-89" d="M 3106 2672 
L 2528 2694 
L 2500 2659 
Q 2597 2563 2653 2395 
Q 2709 2228 2709 2034 
Q 2709 1525 2395 1248 
Q 2081 972 1503 972 
Q 1244 972 1056 1038 
Q 819 856 819 681 
Q 819 566 864 506 
Q 909 447 1014 422 
Q 1119 397 1331 397 
L 2081 397 
Q 2413 397 2622 294 
Q 2831 191 2920 17 
Q 3009 -156 3009 -388 
Q 3009 -681 2840 -911 
Q 2672 -1141 2353 -1269 
Q 2034 -1397 1609 -1397 
Q 1294 -1397 1033 -1359 
Q 772 -1322 586 -1233 
Q 400 -1144 298 -998 
Q 197 -853 197 -634 
Q 197 -438 328 -277 
Q 459 -116 700 6 
Q 553 66 468 181 
Q 384 297 384 453 
Q 384 631 484 779 
Q 584 928 838 1119 
Q 613 1250 495 1475 
Q 378 1700 378 1988 
Q 378 2256 467 2454 
Q 556 2653 714 2783 
Q 872 2913 1087 2977 
Q 1303 3041 1553 3041 
Q 1778 3041 2000 2988 
L 3106 2988 
L 3106 2672 
z
M 938 2038 
Q 938 1647 1097 1434 
Q 1256 1222 1556 1222 
Q 1716 1222 1828 1283 
Q 1941 1344 2011 1450 
Q 2081 1556 2114 1695 
Q 2147 1834 2147 1988 
Q 2147 2263 2069 2447 
Q 1991 2631 1856 2717 
Q 1722 2803 1547 2803 
Q 1250 2803 1094 2606 
Q 938 2409 938 2038 
z
M 1016 -50 
Q 856 -169 776 -301 
Q 697 -434 697 -603 
Q 697 -884 920 -1017 
Q 1144 -1150 1603 -1150 
Q 1884 -1150 2086 -1075 
Q 2288 -1000 2394 -859 
Q 2500 -719 2500 -531 
Q 2500 -444 2478 -361 
Q 2456 -278 2395 -212 
Q 2334 -147 2221 -108 
Q 2109 -69 1928 -69 
L 1463 -69 
Q 1209 -69 1016 -50 
z
" transform="scale(0.015625)"/>
      <path id="Cambria-87" d="M 2800 531 
Q 2600 322 2433 203 
Q 2266 84 2066 17 
Q 1866 -50 1625 -50 
Q 981 -50 653 336 
Q 325 722 325 1475 
Q 325 1941 492 2297 
Q 659 2653 968 2847 
Q 1278 3041 1681 3041 
Q 1997 3041 2219 2941 
Q 2441 2841 2573 2667 
Q 2706 2494 2779 2230 
Q 2853 1966 2863 1541 
L 894 1541 
L 894 1484 
Q 894 1116 976 864 
Q 1059 613 1248 470 
Q 1438 328 1741 328 
Q 1997 328 2201 423 
Q 2406 519 2609 734 
L 2800 531 
z
M 2275 1800 
Q 2256 2138 2190 2352 
Q 2125 2566 1994 2680 
Q 1863 2794 1650 2794 
Q 1328 2794 1136 2536 
Q 944 2278 909 1800 
L 2275 1800 
z
" transform="scale(0.015625)"/>
      <path id="Cambria-3" transform="scale(0.015625)"/>
      <path id="Cambria-373" d="M 2172 816 
Q 2172 634 2192 542 
Q 2213 450 2264 392 
Q 2316 334 2412 301 
Q 2509 269 2656 251 
Q 2803 234 3044 228 
L 3044 0 
L 734 0 
L 734 228 
Q 1081 244 1229 270 
Q 1378 297 1456 350 
Q 1534 403 1570 500 
Q 1606 597 1606 816 
L 1606 3350 
Q 1606 3475 1562 3533 
Q 1519 3591 1434 3591 
Q 1334 3591 1150 3487 
Q 966 3384 694 3203 
L 556 3444 
L 2019 4316 
L 2191 4316 
Q 2172 4016 2172 3484 
L 2172 816 
z
" transform="scale(0.015625)"/>
      <path id="Cambria-1e3" d="M 1156 2822 
L 1156 2091 
L 531 2091 
L 531 2822 
L 1156 2822 
z
M 1156 725 
L 1156 0 
L 531 0 
L 531 725 
L 1156 725 
z
" transform="scale(0.015625)"/>
      <path id="Cambria-5" d="M 378 0 
L 378 153 
Q 572 203 637 264 
Q 703 325 723 437 
Q 744 550 744 781 
L 744 3484 
Q 744 3700 728 3798 
Q 713 3897 677 3951 
Q 641 4006 581 4039 
Q 522 4072 378 4113 
L 378 4266 
L 2088 4266 
Q 2584 4266 2886 4159 
Q 3188 4053 3334 3845 
Q 3481 3638 3481 3309 
Q 3481 3038 3376 2838 
Q 3272 2638 3103 2506 
Q 2934 2375 2669 2263 
L 2669 2234 
Q 3094 2106 3312 1839 
Q 3531 1572 3531 1203 
Q 3531 778 3342 509 
Q 3153 241 2812 120 
Q 2472 0 1988 0 
L 378 0 
z
M 1875 2353 
Q 2350 2353 2601 2583 
Q 2853 2813 2853 3250 
Q 2853 3466 2783 3608 
Q 2713 3750 2589 3834 
Q 2466 3919 2297 3955 
Q 2128 3991 1931 3991 
Q 1813 3991 1619 3984 
Q 1425 3978 1328 3972 
L 1328 2353 
L 1875 2353 
z
M 1328 297 
Q 1556 275 1838 275 
Q 2247 275 2473 378 
Q 2700 481 2801 682 
Q 2903 884 2903 1188 
Q 2903 1491 2792 1687 
Q 2681 1884 2450 1981 
Q 2219 2078 1813 2078 
L 1328 2078 
L 1328 297 
z
" transform="scale(0.015625)"/>
      <path id="Cambria-a" d="M 3369 16 
L 3125 -50 
L 2897 194 
Q 2694 69 2472 9 
Q 2250 -50 1963 -50 
Q 1172 -50 772 492 
Q 372 1034 372 2103 
Q 372 2769 590 3272 
Q 809 3775 1218 4045 
Q 1628 4316 2181 4316 
Q 2472 4316 2740 4283 
Q 3009 4250 3338 4169 
L 3338 3309 
L 3028 3309 
Q 2944 3591 2828 3748 
Q 2713 3906 2552 3973 
Q 2391 4041 2144 4041 
Q 1803 4041 1547 3822 
Q 1291 3603 1148 3176 
Q 1006 2750 1006 2147 
Q 1006 1534 1126 1100 
Q 1247 666 1484 445 
Q 1722 225 2069 225 
Q 2438 225 2616 386 
Q 2794 547 2794 881 
L 2794 1069 
Q 2794 1350 2764 1475 
Q 2734 1600 2659 1669 
Q 2584 1738 2413 1781 
L 2413 1934 
L 3675 1934 
L 3675 1781 
Q 3563 1744 3506 1695 
Q 3450 1647 3420 1575 
Q 3391 1503 3380 1398 
Q 3369 1294 3369 1100 
L 3369 16 
z
" transform="scale(0.015625)"/>
      <path id="Cambria-8b" d="M 1197 4213 
L 1197 3606 
L 622 3606 
L 622 4213 
L 1197 4213 
z
M 303 153 
Q 425 191 476 219 
Q 528 247 564 297 
Q 600 347 620 450 
Q 641 553 641 772 
L 641 2134 
Q 641 2334 634 2456 
Q 628 2578 590 2651 
Q 553 2725 476 2761 
Q 400 2797 259 2822 
L 259 2988 
L 988 3016 
L 1178 3016 
L 1178 781 
Q 1178 513 1203 408 
Q 1228 303 1298 248 
Q 1369 194 1528 153 
L 1528 0 
L 303 0 
L 303 153 
z
" transform="scale(0.015625)"/>
      <path id="Cambria-90" d="M 3347 0 
L 2116 0 
L 2116 153 
Q 2238 191 2291 219 
Q 2344 247 2380 297 
Q 2416 347 2436 451 
Q 2456 556 2456 769 
L 2456 1588 
Q 2456 1806 2443 1984 
Q 2431 2163 2401 2277 
Q 2372 2391 2330 2455 
Q 2288 2519 2230 2564 
Q 2172 2609 2097 2636 
Q 2022 2663 1900 2663 
Q 1778 2663 1668 2614 
Q 1559 2566 1428 2447 
Q 1297 2328 1237 2212 
Q 1178 2097 1178 1947 
L 1178 781 
Q 1178 513 1203 408 
Q 1228 303 1298 248 
Q 1369 194 1528 153 
L 1528 0 
L 303 0 
L 303 153 
Q 425 191 476 219 
Q 528 247 564 297 
Q 600 347 620 450 
Q 641 553 641 772 
L 641 2134 
Q 641 2334 634 2456 
Q 628 2578 590 2651 
Q 553 2725 476 2761 
Q 400 2797 259 2822 
L 259 2988 
L 991 3016 
L 1181 3016 
L 1147 2506 
L 1191 2494 
Q 1422 2728 1564 2828 
Q 1706 2928 1851 2983 
Q 1997 3038 2159 3038 
Q 2328 3038 2461 2998 
Q 2594 2959 2695 2878 
Q 2797 2797 2862 2676 
Q 2928 2556 2961 2387 
Q 2994 2219 2994 1959 
L 2994 781 
Q 2994 566 3006 469 
Q 3019 372 3050 319 
Q 3081 266 3140 230 
Q 3200 194 3347 153 
L 3347 0 
z
" transform="scale(0.015625)"/>
     </defs>
     <use xlink:href="#Cambria-16"/>
     <use xlink:href="#Cambria-96" transform="translate(49.609375 0)"/>
     <use xlink:href="#Cambria-83" transform="translate(83.453125 0)"/>
     <use xlink:href="#Cambria-89" transform="translate(132.28125 0)"/>
     <use xlink:href="#Cambria-87" transform="translate(181.703125 0)"/>
     <use xlink:href="#Cambria-3" transform="translate(230.484375 0)"/>
     <use xlink:href="#Cambria-373" transform="translate(252.5 0)"/>
     <use xlink:href="#Cambria-1e3" transform="translate(307.875 0)"/>
     <use xlink:href="#Cambria-3" transform="translate(334.25 0)"/>
     <use xlink:href="#Cambria-5" transform="translate(356.265625 0)"/>
     <use xlink:href="#Cambria-16" transform="translate(417.40625 0)"/>
     <use xlink:href="#Cambria-a" transform="translate(467.015625 0)"/>
     <use xlink:href="#Cambria-16" transform="translate(528.09375 0)"/>
     <use xlink:href="#Cambria-3" transform="translate(577.703125 0)"/>
     <use xlink:href="#Cambria-8b" transform="translate(599.71875 0)"/>
     <use xlink:href="#Cambria-90" transform="translate(627.5 0)"/>
    </g>
    <!-- $\langle\zeta^{d}\rangle$ of order $q=(n-1)/d$ -->
    <g style="fill: #0b0b0b" transform="translate(185.993 108.580364) scale(0.086 -0.086)">
     <defs>
      <path id="Cambria-91" d="M 1663 -50 
Q 1013 -50 670 333 
Q 328 716 328 1466 
Q 328 1981 508 2337 
Q 688 2694 1000 2867 
Q 1313 3041 1713 3041 
Q 2381 3041 2725 2652 
Q 3069 2263 3069 1534 
Q 3069 1016 2897 659 
Q 2725 303 2409 126 
Q 2094 -50 1663 -50 
z
M 919 1531 
Q 919 888 1123 542 
Q 1328 197 1709 197 
Q 1919 197 2066 298 
Q 2213 400 2305 572 
Q 2397 744 2437 970 
Q 2478 1197 2478 1444 
Q 2478 1903 2376 2206 
Q 2275 2509 2100 2651 
Q 1925 2794 1700 2794 
Q 1322 2794 1120 2466 
Q 919 2138 919 1531 
z
" transform="scale(0.015625)"/>
      <path id="Cambria-88" d="M 1909 2672 
L 1163 2672 
L 1163 781 
Q 1163 572 1183 465 
Q 1203 359 1242 304 
Q 1281 250 1345 217 
Q 1409 184 1550 153 
L 1550 0 
L 272 0 
L 272 153 
Q 409 191 468 225 
Q 528 259 561 312 
Q 594 366 609 466 
Q 625 566 625 781 
L 625 2672 
L 247 2672 
L 247 2831 
Q 366 2850 405 2861 
Q 444 2872 480 2894 
Q 516 2916 542 2956 
Q 569 2997 589 3076 
Q 609 3156 622 3300 
Q 650 3641 745 3853 
Q 841 4066 1023 4216 
Q 1206 4366 1414 4427 
Q 1622 4488 1903 4488 
Q 2150 4488 2322 4453 
L 2322 3888 
L 2013 3888 
Q 1953 4072 1873 4148 
Q 1794 4225 1650 4225 
Q 1547 4225 1476 4197 
Q 1406 4169 1347 4109 
Q 1288 4050 1245 3950 
Q 1203 3850 1183 3701 
Q 1163 3553 1163 3316 
L 1163 2988 
L 1909 2988 
L 1909 2672 
z
" transform="scale(0.015625)"/>
      <path id="Cambria-94" d="M 1147 2469 
L 1191 2459 
Q 1363 2669 1509 2789 
Q 1656 2909 1826 2975 
Q 1997 3041 2213 3041 
Q 2394 3041 2541 3022 
L 2541 2303 
L 2188 2303 
Q 2113 2472 2028 2548 
Q 1944 2625 1797 2625 
Q 1684 2625 1573 2559 
Q 1463 2494 1359 2369 
Q 1256 2244 1217 2134 
Q 1178 2025 1178 1875 
L 1178 781 
Q 1178 497 1212 389 
Q 1247 281 1326 231 
Q 1406 181 1566 153 
L 1566 0 
L 306 0 
L 306 153 
Q 425 191 476 219 
Q 528 247 565 297 
Q 603 347 622 450 
Q 641 553 641 772 
L 641 2134 
Q 641 2334 634 2456 
Q 628 2578 590 2651 
Q 553 2725 476 2761 
Q 400 2797 259 2822 
L 259 2984 
L 991 3016 
L 1181 3016 
L 1147 2469 
z
" transform="scale(0.015625)"/>
      <path id="Cambria-86" d="M 2413 3397 
Q 2413 3697 2408 3815 
Q 2403 3934 2383 4017 
Q 2363 4100 2327 4147 
Q 2291 4194 2230 4222 
Q 2169 4250 2009 4278 
L 2009 4441 
L 2766 4472 
L 2950 4472 
L 2950 853 
Q 2950 609 2959 504 
Q 2969 400 3000 337 
Q 3031 275 3098 236 
Q 3166 197 3334 163 
L 3334 0 
L 2597 -31 
L 2409 -31 
L 2447 481 
L 2400 494 
Q 2203 284 2058 179 
Q 1913 75 1748 12 
Q 1584 -50 1397 -50 
Q 884 -50 606 339 
Q 328 728 328 1463 
Q 328 1975 509 2333 
Q 691 2691 998 2866 
Q 1306 3041 1691 3041 
Q 1897 3041 2065 3008 
Q 2234 2975 2413 2900 
L 2413 3397 
z
M 2413 1853 
Q 2413 2097 2391 2244 
Q 2369 2391 2317 2491 
Q 2266 2591 2178 2659 
Q 2091 2728 1986 2759 
Q 1881 2791 1734 2791 
Q 1334 2791 1125 2470 
Q 916 2150 916 1550 
Q 916 950 1087 637 
Q 1259 325 1609 325 
Q 1747 325 1837 348 
Q 1928 372 2015 423 
Q 2103 475 2193 565 
Q 2284 656 2326 731 
Q 2369 806 2391 903 
Q 2413 1000 2413 1153 
L 2413 1853 
z
" transform="scale(0.015625)"/>
      <path id="Cmr10-77" d="M 1984 -1588 
Q 1628 -1306 1370 -942 
Q 1113 -578 948 -165 
Q 784 247 703 697 
Q 622 1147 622 1600 
Q 622 2059 703 2509 
Q 784 2959 951 3375 
Q 1119 3791 1378 4153 
Q 1638 4516 1984 4788 
Q 1984 4800 2016 4800 
L 2075 4800 
Q 2094 4800 2109 4783 
Q 2125 4766 2125 4744 
Q 2125 4716 2113 4703 
Q 1800 4397 1592 4047 
Q 1384 3697 1257 3301 
Q 1131 2906 1075 2482 
Q 1019 2059 1019 1600 
Q 1019 -434 2106 -1491 
Q 2125 -1509 2125 -1544 
Q 2125 -1559 2108 -1579 
Q 2091 -1600 2075 -1600 
L 2016 -1600 
Q 1984 -1600 1984 -1588 
z
" transform="scale(0.015625)"/>
      <path id="Cmr10-44" d="M 416 -1600 
Q 359 -1600 359 -1544 
Q 359 -1516 372 -1503 
Q 1466 -434 1466 1600 
Q 1466 3634 384 4691 
Q 359 4706 359 4744 
Q 359 4766 376 4783 
Q 394 4800 416 4800 
L 475 4800 
Q 494 4800 506 4788 
Q 966 4425 1272 3906 
Q 1578 3388 1720 2800 
Q 1863 2213 1863 1600 
Q 1863 1147 1786 708 
Q 1709 269 1542 -157 
Q 1375 -584 1119 -945 
Q 863 -1306 506 -1588 
Q 494 -1600 475 -1600 
L 416 -1600 
z
" transform="scale(0.015625)"/>
      <path id="Cmmi10-62" d="M 359 -1472 
Q 359 -1453 366 -1447 
L 2591 4722 
Q 2603 4759 2634 4779 
Q 2666 4800 2706 4800 
Q 2763 4800 2798 4765 
Q 2834 4731 2834 4672 
L 2834 4647 
L 609 -1522 
Q 572 -1600 488 -1600 
Q 434 -1600 396 -1562 
Q 359 -1525 359 -1472 
z
" transform="scale(0.015625)"/>
     </defs>
     <use xlink:href="#Cmex10-61" transform="translate(0 94)"/>
     <use xlink:href="#Cmmi10-a" transform="translate(47.216797 0.658854)"/>
     <use xlink:href="#Cmmi10-51" transform="translate(107.582369 41.948088) scale(0.7)"/>
     <use xlink:href="#Cmex10-40" transform="translate(149.704152 94)"/>
     <use xlink:href="#Cambria-3" transform="translate(196.920949 0.658854)"/>
     <use xlink:href="#Cambria-91" transform="translate(218.942433 0.658854)"/>
     <use xlink:href="#Cambria-88" transform="translate(272.018605 0.658854)"/>
     <use xlink:href="#Cambria-3" transform="translate(302.292043 0.658854)"/>
     <use xlink:href="#Cambria-91" transform="translate(324.313527 0.658854)"/>
     <use xlink:href="#Cambria-94" transform="translate(377.389699 0.658854)"/>
     <use xlink:href="#Cambria-86" transform="translate(418.747121 0.658854)"/>
     <use xlink:href="#Cambria-87" transform="translate(474.215871 0.658854)"/>
     <use xlink:href="#Cambria-94" transform="translate(522.995168 0.658854)"/>
     <use xlink:href="#Cambria-3" transform="translate(564.35259 0.658854)"/>
     <use xlink:href="#Cmmi10-52" transform="translate(586.374074 0.658854)"/>
     <use xlink:href="#Cmr10-29" transform="translate(650.954209 0.658854)"/>
     <use xlink:href="#Cmr10-77" transform="translate(748.639813 0.658854)"/>
     <use xlink:href="#Cmmi10-7a" transform="translate(787.458173 0.658854)"/>
     <use xlink:href="#Cmsy10-11" transform="translate(867.467996 0.658854)"/>
     <use xlink:href="#Cmr10-64" transform="translate(965.1536 0.658854)"/>
     <use xlink:href="#Cmr10-44" transform="translate(1015.1536 0.658854)"/>
     <use xlink:href="#Cmmi10-62" transform="translate(1053.971959 0.658854)"/>
     <use xlink:href="#Cmmi10-51" transform="translate(1103.971959 0.658854)"/>
    </g>
    <!-- recovers $x^{d}=(\zeta^{d})^{k_1}$ -->
    <g style="fill: #0b0b0b" transform="translate(198.033 119.952688) scale(0.086 -0.086)">
     <defs>
      <path id="Cambria-85" d="M 2631 2916 
L 2631 2263 
L 2234 2263 
Q 2181 2466 2103 2583 
Q 2025 2700 1922 2747 
Q 1819 2794 1666 2794 
Q 1447 2794 1278 2653 
Q 1109 2513 1011 2225 
Q 913 1938 913 1522 
Q 913 1256 950 1036 
Q 988 816 1078 659 
Q 1169 503 1319 415 
Q 1469 328 1691 328 
Q 1906 328 2092 412 
Q 2278 497 2478 709 
L 2656 503 
Q 2497 328 2375 233 
Q 2253 138 2114 73 
Q 1975 9 1839 -20 
Q 1703 -50 1544 -50 
Q 953 -50 640 342 
Q 328 734 328 1475 
Q 328 1938 503 2295 
Q 678 2653 993 2847 
Q 1309 3041 1722 3041 
Q 1978 3041 2195 3011 
Q 2413 2981 2631 2916 
z
" transform="scale(0.015625)"/>
      <path id="Cambria-98" d="M 1334 2988 
L 1334 2834 
Q 1191 2800 1131 2769 
Q 1072 2738 1042 2688 
Q 1013 2638 1013 2553 
Q 1013 2469 1033 2376 
Q 1053 2284 1097 2163 
L 1641 581 
L 2278 2097 
Q 2341 2247 2366 2344 
Q 2391 2441 2391 2525 
Q 2391 2656 2320 2725 
Q 2250 2794 2063 2834 
L 2063 2988 
L 3231 2988 
L 3231 2834 
Q 3109 2809 3043 2757 
Q 2978 2706 2912 2595 
Q 2847 2484 2756 2284 
L 1703 -31 
L 1334 -31 
L 488 2303 
Q 400 2544 348 2633 
Q 297 2722 236 2765 
Q 175 2809 59 2834 
L 59 2988 
L 1334 2988 
z
" transform="scale(0.015625)"/>
      <path id="Cambria-95" d="M 2397 2303 
L 2097 2303 
Q 2028 2491 1934 2598 
Q 1841 2706 1722 2750 
Q 1603 2794 1431 2794 
Q 1181 2794 1032 2676 
Q 884 2559 884 2356 
Q 884 2213 943 2119 
Q 1003 2025 1128 1944 
Q 1253 1863 1569 1728 
Q 1888 1591 2061 1475 
Q 2234 1359 2332 1206 
Q 2431 1053 2431 841 
Q 2431 594 2347 425 
Q 2263 256 2109 150 
Q 1956 44 1745 -3 
Q 1534 -50 1284 -50 
Q 1022 -50 775 -11 
Q 528 28 294 91 
L 294 744 
L 600 744 
Q 684 456 850 326 
Q 1016 197 1306 197 
Q 1419 197 1526 220 
Q 1634 244 1718 298 
Q 1803 353 1853 447 
Q 1903 541 1903 681 
Q 1903 841 1840 941 
Q 1778 1041 1647 1123 
Q 1516 1206 1184 1347 
Q 900 1466 728 1578 
Q 556 1691 457 1844 
Q 359 1997 359 2206 
Q 359 2463 498 2652 
Q 638 2841 900 2941 
Q 1163 3041 1516 3041 
Q 1722 3041 1914 3020 
Q 2106 3000 2397 2941 
L 2397 2303 
z
" transform="scale(0.015625)"/>
      <path id="Cmmi10-3e" d="M 341 116 
Q 341 153 347 172 
L 1275 3872 
Q 1300 3981 1306 4044 
Q 1306 4147 891 4147 
Q 825 4147 825 4231 
Q 828 4247 839 4287 
Q 850 4328 867 4350 
Q 884 4372 916 4372 
L 1778 4441 
L 1797 4441 
Q 1797 4434 1819 4423 
Q 1841 4413 1844 4409 
Q 1856 4378 1856 4359 
L 1184 1684 
Q 1416 1781 1767 2145 
Q 2119 2509 2317 2668 
Q 2516 2828 2816 2828 
Q 2994 2828 3119 2706 
Q 3244 2584 3244 2406 
Q 3244 2294 3197 2198 
Q 3150 2103 3065 2043 
Q 2981 1984 2869 1984 
Q 2766 1984 2695 2048 
Q 2625 2113 2625 2216 
Q 2625 2369 2733 2473 
Q 2841 2578 2994 2578 
Q 2931 2663 2803 2663 
Q 2613 2663 2436 2553 
Q 2259 2444 2054 2239 
Q 1850 2034 1681 1864 
Q 1513 1694 1369 1606 
Q 1747 1563 2025 1408 
Q 2303 1253 2303 934 
Q 2303 869 2278 769 
Q 2222 528 2222 384 
Q 2222 97 2419 97 
Q 2650 97 2770 350 
Q 2891 603 2969 941 
Q 2981 978 3022 978 
L 3097 978 
Q 3122 978 3139 962 
Q 3156 947 3156 922 
Q 3156 916 3150 903 
Q 2909 -72 2406 -72 
Q 2225 -72 2086 12 
Q 1947 97 1872 242 
Q 1797 388 1797 569 
Q 1797 672 1825 781 
Q 1844 856 1844 922 
Q 1844 1169 1625 1297 
Q 1406 1425 1125 1453 
L 800 147 
Q 775 50 703 -11 
Q 631 -72 538 -72 
Q 456 -72 398 -17 
Q 341 38 341 116 
z
" transform="scale(0.015625)"/>
     </defs>
     <use xlink:href="#Cambria-94" transform="translate(0 0.137328)"/>
     <use xlink:href="#Cambria-87" transform="translate(41.357422 0.137328)"/>
     <use xlink:href="#Cambria-85" transform="translate(90.136719 0.137328)"/>
     <use xlink:href="#Cambria-91" transform="translate(134.228516 0.137328)"/>
     <use xlink:href="#Cambria-98" transform="translate(187.304688 0.137328)"/>
     <use xlink:href="#Cambria-87" transform="translate(237.695312 0.137328)"/>
     <use xlink:href="#Cambria-94" transform="translate(286.474609 0.137328)"/>
     <use xlink:href="#Cambria-95" transform="translate(327.832031 0.137328)"/>
     <use xlink:href="#Cambria-3" transform="translate(370.800781 0.137328)"/>
     <use xlink:href="#Cmmi10-3f" transform="translate(392.822266 0.137328)"/>
     <use xlink:href="#Cmmi10-51" transform="translate(461.162526 41.426563) scale(0.7)"/>
     <use xlink:href="#Cmr10-29" transform="translate(523.284365 0.137328)"/>
     <use xlink:href="#Cmr10-77" transform="translate(620.96997 0.137328)"/>
     <use xlink:href="#Cmmi10-a" transform="translate(659.788329 0.137328)"/>
     <use xlink:href="#Cmmi10-51" transform="translate(720.153901 41.426563) scale(0.7)"/>
     <use xlink:href="#Cmr10-44" transform="translate(762.275684 0.137328)"/>
     <use xlink:href="#Cmmi10-3e" transform="translate(805.098334 41.426563) scale(0.7)"/>
     <use xlink:href="#Cmr10-64" transform="translate(841.499702 30.926589) scale(0.49)"/>
    </g>
   </g>
   <g id="text_4">
    <!-- Stage 2: BSGS in -->
    <g style="fill: #0b0b0b" transform="translate(382.832562 96.845395) scale(0.086 -0.086)">
     <defs>
      <path id="Cambria-374" d="M 2194 500 
Q 2347 500 2440 519 
Q 2534 538 2590 581 
Q 2647 625 2680 695 
Q 2713 766 2763 913 
L 3028 913 
L 2975 0 
L 403 0 
L 403 150 
Q 538 478 766 822 
Q 994 1166 1413 1631 
Q 1775 2031 1934 2238 
Q 2109 2463 2195 2627 
Q 2281 2791 2318 2936 
Q 2356 3081 2356 3228 
Q 2356 3463 2281 3642 
Q 2206 3822 2051 3925 
Q 1897 4028 1663 4028 
Q 1078 4028 875 3378 
L 497 3378 
L 497 3978 
Q 875 4156 1204 4236 
Q 1534 4316 1797 4316 
Q 2378 4316 2675 4061 
Q 2972 3806 2972 3322 
Q 2972 3156 2939 3017 
Q 2906 2878 2836 2742 
Q 2766 2606 2647 2450 
Q 2528 2294 2384 2133 
Q 2241 1972 1888 1597 
Q 1294 969 1016 500 
L 2194 500 
z
" transform="scale(0.015625)"/>
     </defs>
     <use xlink:href="#Cambria-16"/>
     <use xlink:href="#Cambria-96" transform="translate(49.609375 0)"/>
     <use xlink:href="#Cambria-83" transform="translate(83.453125 0)"/>
     <use xlink:href="#Cambria-89" transform="translate(132.28125 0)"/>
     <use xlink:href="#Cambria-87" transform="translate(181.703125 0)"/>
     <use xlink:href="#Cambria-3" transform="translate(230.484375 0)"/>
     <use xlink:href="#Cambria-374" transform="translate(252.5 0)"/>
     <use xlink:href="#Cambria-1e3" transform="translate(307.875 0)"/>
     <use xlink:href="#Cambria-3" transform="translate(334.25 0)"/>
     <use xlink:href="#Cambria-5" transform="translate(356.265625 0)"/>
     <use xlink:href="#Cambria-16" transform="translate(417.40625 0)"/>
     <use xlink:href="#Cambria-a" transform="translate(467.015625 0)"/>
     <use xlink:href="#Cambria-16" transform="translate(528.09375 0)"/>
     <use xlink:href="#Cambria-3" transform="translate(577.703125 0)"/>
     <use xlink:href="#Cambria-8b" transform="translate(599.71875 0)"/>
     <use xlink:href="#Cambria-90" transform="translate(627.5 0)"/>
    </g>
    <!-- $\langle\zeta^{q}\rangle$ of order $d$ -->
    <g style="fill: #0b0b0b" transform="translate(384.953 108.666364) scale(0.086 -0.086)">
     <use xlink:href="#Cmex10-61" transform="translate(0 94)"/>
     <use xlink:href="#Cmmi10-a" transform="translate(47.216797 0.658854)"/>
     <use xlink:href="#Cmmi10-52" transform="translate(107.582369 41.948088) scale(0.7)"/>
     <use xlink:href="#Cmex10-40" transform="translate(144.50884 94)"/>
     <use xlink:href="#Cambria-3" transform="translate(191.725636 0.658854)"/>
     <use xlink:href="#Cambria-91" transform="translate(213.747121 0.658854)"/>
     <use xlink:href="#Cambria-88" transform="translate(266.823293 0.658854)"/>
     <use xlink:href="#Cambria-3" transform="translate(297.09673 0.658854)"/>
     <use xlink:href="#Cambria-91" transform="translate(319.118215 0.658854)"/>
     <use xlink:href="#Cambria-94" transform="translate(372.194386 0.658854)"/>
     <use xlink:href="#Cambria-86" transform="translate(413.551808 0.658854)"/>
     <use xlink:href="#Cambria-87" transform="translate(469.020558 0.658854)"/>
     <use xlink:href="#Cambria-94" transform="translate(517.799855 0.658854)"/>
     <use xlink:href="#Cambria-3" transform="translate(559.157277 0.658854)"/>
     <use xlink:href="#Cmmi10-51" transform="translate(581.178761 0.658854)"/>
    </g>
    <!-- recovers $x=\zeta^{k_1}(\zeta^{q})^{k_2}$ -->
    <g style="fill: #0b0b0b" transform="translate(371.408 119.866688) scale(0.086 -0.086)">
     <defs>
      <path id="Cmr10-31" d="M 319 0 
L 319 172 
Q 319 188 331 206 
L 1325 1306 
Q 1550 1550 1690 1715 
Q 1831 1881 1968 2097 
Q 2106 2313 2186 2536 
Q 2266 2759 2266 3009 
Q 2266 3272 2169 3511 
Q 2072 3750 1880 3894 
Q 1688 4038 1416 4038 
Q 1138 4038 916 3870 
Q 694 3703 603 3438 
Q 628 3444 672 3444 
Q 816 3444 917 3347 
Q 1019 3250 1019 3097 
Q 1019 2950 917 2848 
Q 816 2747 672 2747 
Q 522 2747 420 2851 
Q 319 2956 319 3097 
Q 319 3338 409 3548 
Q 500 3759 670 3923 
Q 841 4088 1055 4175 
Q 1269 4263 1509 4263 
Q 1875 4263 2190 4108 
Q 2506 3953 2690 3670 
Q 2875 3388 2875 3009 
Q 2875 2731 2753 2481 
Q 2631 2231 2440 2026 
Q 2250 1822 1953 1562 
Q 1656 1303 1563 1216 
L 838 519 
L 1453 519 
Q 1906 519 2211 526 
Q 2516 534 2534 550 
Q 2609 631 2688 1141 
L 2875 1141 
L 2694 0 
L 319 0 
z
" transform="scale(0.015625)"/>
     </defs>
     <use xlink:href="#Cambria-94" transform="translate(0 0.137328)"/>
     <use xlink:href="#Cambria-87" transform="translate(41.357422 0.137328)"/>
     <use xlink:href="#Cambria-85" transform="translate(90.136719 0.137328)"/>
     <use xlink:href="#Cambria-91" transform="translate(134.228516 0.137328)"/>
     <use xlink:href="#Cambria-98" transform="translate(187.304688 0.137328)"/>
     <use xlink:href="#Cambria-87" transform="translate(237.695312 0.137328)"/>
     <use xlink:href="#Cambria-94" transform="translate(286.474609 0.137328)"/>
     <use xlink:href="#Cambria-95" transform="translate(327.832031 0.137328)"/>
     <use xlink:href="#Cambria-3" transform="translate(370.800781 0.137328)"/>
     <use xlink:href="#Cmmi10-3f" transform="translate(392.822266 0.137328)"/>
     <use xlink:href="#Cmr10-29" transform="translate(469.902401 0.137328)"/>
     <use xlink:href="#Cmmi10-a" transform="translate(567.588005 0.137328)"/>
     <use xlink:href="#Cmmi10-3e" transform="translate(627.953578 41.426563) scale(0.7)"/>
     <use xlink:href="#Cmr10-64" transform="translate(664.354945 30.926589) scale(0.49)"/>
     <use xlink:href="#Cmr10-77" transform="translate(698.579651 0.137328)"/>
     <use xlink:href="#Cmmi10-a" transform="translate(737.39801 0.137328)"/>
     <use xlink:href="#Cmmi10-52" transform="translate(797.763583 41.426563) scale(0.7)"/>
     <use xlink:href="#Cmr10-44" transform="translate(834.690053 0.137328)"/>
     <use xlink:href="#Cmmi10-3e" transform="translate(877.512703 41.426563) scale(0.7)"/>
     <use xlink:href="#Cmr10-31" transform="translate(913.91407 30.926589) scale(0.49)"/>
    </g>
   </g>
   <g id="text_5">
    <!-- cost $\approx 2\,(\sqrt{q}+\sqrt{d})$ exponentiations, minimized at $d\approx\sqrt{n}\ \Rightarrow\ \Theta(n^{1/4})$ -->
    <g style="fill: #0b0b0b" transform="translate(103.958 171.354) scale(0.094 -0.094)">
     <defs>
      <path id="Cmsy10-17" d="M 447 359 
Q 378 359 359 519 
L 359 556 
Q 359 847 501 1087 
Q 644 1328 891 1464 
Q 1138 1600 1422 1600 
Q 1766 1600 2130 1379 
Q 2494 1159 2853 937 
Q 3213 716 3553 716 
Q 3881 716 4157 919 
Q 4434 1122 4434 1441 
Q 4453 1600 4525 1600 
Q 4597 1600 4616 1441 
L 4616 1403 
Q 4616 1113 4472 872 
Q 4328 631 4083 495 
Q 3838 359 3553 359 
Q 3284 359 3048 470 
Q 2813 581 2495 795 
Q 2178 1009 1937 1125 
Q 1697 1241 1422 1241 
Q 1219 1241 1009 1150 
Q 800 1059 669 895 
Q 538 731 538 519 
Q 519 359 447 359 
z
M 447 1850 
Q 378 1850 359 2009 
L 359 2047 
Q 359 2338 501 2578 
Q 644 2819 891 2955 
Q 1138 3091 1422 3091 
Q 1766 3091 2130 2870 
Q 2494 2650 2853 2429 
Q 3213 2209 3553 2209 
Q 3881 2209 4157 2412 
Q 4434 2616 4434 2931 
Q 4453 3091 4525 3091 
Q 4597 3091 4616 2931 
L 4616 2894 
Q 4616 2603 4472 2362 
Q 4328 2122 4083 1986 
Q 3838 1850 3553 1850 
Q 3284 1850 3048 1961 
Q 2813 2072 2495 2286 
Q 2178 2500 1937 2615 
Q 1697 2731 1422 2731 
Q 1219 2731 1009 2640 
Q 800 2550 669 2386 
Q 538 2222 538 2009 
Q 519 1850 447 1850 
z
" transform="scale(0.015625)"/>
      <path id="Cmex10-30" d="M 2713 -7425 
L 1269 -4063 
L 819 -4409 
L 703 -4294 
L 1619 -3584 
L 2969 -6725 
L 6291 197 
Q 6322 256 6400 256 
Q 6453 256 6490 218 
Q 6528 181 6528 128 
Q 6528 97 6522 84 
L 2950 -7366 
Q 2925 -7425 2853 -7425 
L 2713 -7425 
z
" transform="scale(0.015625)"/>
      <path id="Cmr10-4c" d="M 481 1472 
Q 428 1472 393 1512 
Q 359 1553 359 1600 
Q 359 1647 393 1687 
Q 428 1728 481 1728 
L 2363 1728 
L 2363 3616 
Q 2363 3666 2400 3698 
Q 2438 3731 2491 3731 
Q 2538 3731 2578 3698 
Q 2619 3666 2619 3616 
L 2619 1728 
L 4500 1728 
Q 4547 1728 4581 1687 
Q 4616 1647 4616 1600 
Q 4616 1553 4581 1512 
Q 4547 1472 4500 1472 
L 2619 1472 
L 2619 -416 
Q 2619 -466 2578 -498 
Q 2538 -531 2491 -531 
Q 2438 -531 2400 -498 
Q 2363 -466 2363 -416 
L 2363 1472 
L 481 1472 
z
" transform="scale(0.015625)"/>
      <path id="Cambria-9a" d="M 1625 1803 
L 2031 2319 
Q 2097 2403 2137 2483 
Q 2178 2563 2178 2647 
Q 2178 2719 2125 2766 
Q 2072 2813 1959 2834 
L 1959 2988 
L 2981 2988 
L 2981 2834 
Q 2863 2800 2739 2700 
Q 2616 2600 2438 2378 
L 1791 1584 
L 2503 625 
Q 2656 419 2778 309 
Q 2900 200 3022 153 
L 3022 0 
L 1766 0 
L 1766 153 
Q 2025 184 2025 347 
Q 2025 413 2003 472 
Q 1981 531 1922 609 
L 1469 1241 
L 988 616 
Q 934 547 904 489 
Q 875 431 875 359 
Q 875 275 933 220 
Q 991 166 1116 153 
L 1116 0 
L 72 0 
L 72 153 
Q 175 191 258 247 
Q 341 303 427 392 
Q 513 481 653 653 
L 1303 1459 
L 638 2372 
Q 500 2559 419 2643 
Q 338 2728 269 2772 
Q 200 2816 131 2834 
L 131 2988 
L 1356 2988 
L 1356 2834 
Q 1109 2797 1109 2641 
Q 1109 2569 1142 2497 
Q 1175 2425 1244 2338 
L 1625 1803 
z
" transform="scale(0.015625)"/>
      <path id="Cambria-92" d="M 1150 94 
L 1150 -566 
Q 1150 -769 1164 -869 
Q 1178 -969 1214 -1026 
Q 1250 -1084 1317 -1121 
Q 1384 -1159 1534 -1191 
L 1534 -1344 
L 259 -1344 
L 259 -1191 
Q 372 -1159 442 -1126 
Q 513 -1094 550 -1030 
Q 588 -966 600 -856 
Q 613 -747 613 -566 
L 613 2116 
Q 613 2341 606 2436 
Q 600 2531 581 2593 
Q 563 2656 527 2697 
Q 491 2738 430 2766 
Q 369 2794 228 2822 
L 228 2988 
L 963 3016 
L 1153 3016 
L 1113 2506 
L 1159 2494 
Q 1353 2691 1465 2780 
Q 1578 2869 1698 2928 
Q 1819 2988 1930 3013 
Q 2041 3038 2166 3038 
Q 2681 3038 2957 2652 
Q 3234 2266 3234 1522 
Q 3234 1006 3078 654 
Q 2922 303 2623 126 
Q 2325 -50 1913 -50 
Q 1681 -50 1493 -11 
Q 1306 28 1150 94 
z
M 1150 1125 
Q 1150 825 1187 662 
Q 1225 500 1320 398 
Q 1416 297 1545 247 
Q 1675 197 1888 197 
Q 2266 197 2456 511 
Q 2647 825 2647 1438 
Q 2647 2663 1931 2663 
Q 1756 2663 1629 2608 
Q 1503 2553 1378 2431 
Q 1253 2309 1201 2195 
Q 1150 2081 1150 1950 
L 1150 1125 
z
" transform="scale(0.015625)"/>
      <path id="Cambria-1e1" d="M 966 725 
Q 1009 506 1009 294 
Q 1009 75 934 -106 
Q 859 -288 695 -467 
Q 531 -647 244 -863 
L 75 -672 
Q 234 -522 306 -401 
Q 378 -281 409 -128 
Q 441 25 441 256 
Q 441 494 419 725 
L 966 725 
z
" transform="scale(0.015625)"/>
      <path id="Cambria-8f" d="M 1147 2506 
L 1191 2494 
Q 1378 2681 1498 2776 
Q 1619 2872 1731 2930 
Q 1844 2988 1942 3013 
Q 2041 3038 2144 3038 
Q 2456 3038 2653 2894 
Q 2850 2750 2925 2453 
Q 3159 2691 3304 2803 
Q 3450 2916 3601 2977 
Q 3753 3038 3928 3038 
Q 4138 3038 4289 2977 
Q 4441 2916 4545 2789 
Q 4650 2663 4698 2472 
Q 4747 2281 4747 1959 
L 4747 781 
Q 4747 544 4762 453 
Q 4778 363 4808 313 
Q 4838 263 4897 227 
Q 4956 191 5097 153 
L 5097 0 
L 3869 0 
L 3869 153 
Q 3991 191 4044 219 
Q 4097 247 4133 297 
Q 4169 347 4189 451 
Q 4209 556 4209 769 
L 4209 1588 
Q 4209 1853 4195 2026 
Q 4181 2200 4151 2303 
Q 4122 2406 4080 2465 
Q 4038 2525 3984 2569 
Q 3931 2613 3859 2638 
Q 3788 2663 3669 2663 
Q 3544 2663 3436 2613 
Q 3328 2563 3201 2444 
Q 3075 2325 3019 2204 
Q 2963 2084 2963 1922 
L 2963 781 
Q 2963 544 2978 453 
Q 2994 363 3023 313 
Q 3053 263 3112 227 
Q 3172 191 3313 153 
L 3313 0 
L 2084 0 
L 2084 153 
Q 2206 191 2259 219 
Q 2313 247 2348 297 
Q 2384 347 2404 451 
Q 2425 556 2425 769 
L 2425 1588 
Q 2425 1866 2409 2041 
Q 2394 2216 2361 2322 
Q 2328 2428 2276 2493 
Q 2225 2559 2172 2593 
Q 2119 2628 2047 2645 
Q 1975 2663 1884 2663 
Q 1756 2663 1643 2605 
Q 1531 2547 1414 2437 
Q 1297 2328 1237 2209 
Q 1178 2091 1178 1953 
L 1178 781 
Q 1178 603 1187 509 
Q 1197 416 1217 362 
Q 1238 309 1269 276 
Q 1300 244 1358 214 
Q 1416 184 1531 153 
L 1531 0 
L 306 0 
L 306 153 
Q 425 191 476 219 
Q 528 247 565 297 
Q 603 347 622 450 
Q 641 553 641 772 
L 641 2134 
Q 641 2334 634 2456 
Q 628 2578 590 2651 
Q 553 2725 476 2761 
Q 400 2797 259 2822 
L 259 2988 
L 991 3016 
L 1181 3016 
L 1147 2506 
z
" transform="scale(0.015625)"/>
      <path id="Cambria-9c" d="M 2659 906 
L 2659 0 
L 253 0 
L 253 153 
L 1966 2734 
L 1119 2734 
Q 963 2734 872 2678 
Q 781 2622 700 2490 
Q 619 2359 544 2138 
L 272 2138 
L 272 2988 
L 2641 2988 
L 2641 2831 
L 931 253 
L 1753 253 
Q 1916 253 1997 278 
Q 2078 303 2137 358 
Q 2197 413 2253 531 
Q 2309 650 2388 906 
L 2659 906 
z
" transform="scale(0.015625)"/>
      <path id="Cmsy10-70" d="M 481 850 
Q 428 850 393 890 
Q 359 931 359 978 
Q 359 1031 393 1068 
Q 428 1106 481 1106 
L 4634 1106 
Q 5009 1416 5453 1600 
Q 5009 1784 4634 2094 
L 481 2094 
Q 428 2094 393 2131 
Q 359 2169 359 2222 
Q 359 2269 393 2309 
Q 428 2350 481 2350 
L 4353 2350 
Q 4194 2516 3950 2850 
Q 3706 3184 3706 3291 
Q 3706 3319 3723 3339 
Q 3741 3359 3769 3359 
L 3897 3359 
Q 3938 3359 3950 3322 
Q 4109 3009 4314 2750 
Q 4519 2491 4787 2272 
Q 5056 2053 5353 1906 
Q 5650 1759 5991 1672 
Q 6034 1644 6034 1600 
Q 6034 1550 5991 1538 
Q 5325 1369 4792 934 
Q 4259 500 3950 -122 
Q 3938 -159 3897 -159 
L 3769 -159 
Q 3706 -159 3706 -91 
Q 3706 -16 3832 179 
Q 3959 375 4111 567 
Q 4263 759 4353 850 
L 481 850 
z
" transform="scale(0.015625)"/>
      <path id="Cmr10-7" d="M 2491 -141 
Q 1881 -141 1395 182 
Q 909 506 634 1042 
Q 359 1578 359 2169 
Q 359 2606 517 3034 
Q 675 3463 958 3794 
Q 1241 4125 1637 4319 
Q 2034 4513 2491 4513 
Q 2944 4513 3342 4317 
Q 3741 4122 4025 3787 
Q 4309 3453 4462 3037 
Q 4616 2622 4616 2169 
Q 4616 1578 4341 1042 
Q 4066 506 3578 182 
Q 3091 -141 2491 -141 
z
M 1403 647 
Q 1525 469 1692 330 
Q 1859 191 2064 111 
Q 2269 31 2491 31 
Q 2813 31 3095 198 
Q 3378 366 3572 647 
Q 3969 1219 3969 2169 
Q 3969 3128 3572 3719 
Q 3381 4000 3098 4173 
Q 2816 4347 2491 4347 
Q 2159 4347 1876 4173 
Q 1594 4000 1403 3719 
Q 1188 3397 1097 3008 
Q 1006 2619 1006 2169 
Q 1006 1878 1042 1614 
Q 1078 1350 1167 1104 
Q 1256 859 1403 647 
z
M 1369 1716 
L 1369 2663 
L 1556 2663 
L 1556 2444 
L 3419 2444 
L 3419 2663 
L 3603 2663 
L 3603 1716 
L 3419 1716 
L 3419 1931 
L 1556 1931 
L 1556 1716 
L 1369 1716 
z
" transform="scale(0.015625)"/>
      <path id="Cmr10-3b" d="M 178 1056 
L 178 1281 
L 2156 4231 
Q 2178 4263 2222 4263 
L 2316 4263 
Q 2388 4263 2388 4191 
L 2388 1281 
L 3016 1281 
L 3016 1056 
L 2388 1056 
L 2388 428 
Q 2388 297 2575 261 
Q 2763 225 3009 225 
L 3009 0 
L 1247 0 
L 1247 225 
Q 1494 225 1681 261 
Q 1869 297 1869 428 
L 1869 1056 
L 178 1056 
z
M 391 1281 
L 1906 1281 
L 1906 3547 
L 391 1281 
z
" transform="scale(0.015625)"/>
     </defs>
     <use xlink:href="#Cambria-85" transform="translate(0 0.375)"/>
     <use xlink:href="#Cambria-91" transform="translate(44.091797 0.375)"/>
     <use xlink:href="#Cambria-95" transform="translate(97.167969 0.375)"/>
     <use xlink:href="#Cambria-96" transform="translate(140.136719 0.375)"/>
     <use xlink:href="#Cambria-3" transform="translate(173.974609 0.375)"/>
     <use xlink:href="#Cmsy10-17" transform="translate(215.996151 0.375)"/>
     <use xlink:href="#Cmr10-31" transform="translate(313.681755 0.375)"/>
     <use xlink:href="#Cmr10-77" transform="translate(380.348803 0.375)"/>
     <use xlink:href="#Cmex10-30" transform="translate(419.167162 72.640625) scale(0.790131)"/>
     <use xlink:href="#Cmmi10-52" transform="translate(510.667162 0.359375)"/>
     <use xlink:href="#Cmr10-4c" transform="translate(587.747297 0.375)"/>
     <use xlink:href="#Cmex10-30" transform="translate(685.432902 97.609375) scale(0.847936)"/>
     <use xlink:href="#Cmmi10-51" transform="translate(782.714152 0.359375)"/>
     <use xlink:href="#Cmr10-44" transform="translate(847.216105 0.375)"/>
     <use xlink:href="#Cambria-3" transform="translate(886.034464 0.375)"/>
     <use xlink:href="#Cambria-87" transform="translate(908.055948 0.375)"/>
     <use xlink:href="#Cambria-9a" transform="translate(956.835245 0.375)"/>
     <use xlink:href="#Cambria-92" transform="translate(1005.175089 0.375)"/>
     <use xlink:href="#Cambria-91" transform="translate(1060.790323 0.375)"/>
     <use xlink:href="#Cambria-90" transform="translate(1113.866495 0.375)"/>
     <use xlink:href="#Cambria-87" transform="translate(1169.677042 0.375)"/>
     <use xlink:href="#Cambria-90" transform="translate(1218.456339 0.375)"/>
     <use xlink:href="#Cambria-96" transform="translate(1274.266886 0.375)"/>
     <use xlink:href="#Cambria-8b" transform="translate(1308.104777 0.375)"/>
     <use xlink:href="#Cambria-83" transform="translate(1335.88798 0.375)"/>
     <use xlink:href="#Cambria-96" transform="translate(1384.716105 0.375)"/>
     <use xlink:href="#Cambria-8b" transform="translate(1418.553995 0.375)"/>
     <use xlink:href="#Cambria-91" transform="translate(1446.337198 0.375)"/>
     <use xlink:href="#Cambria-90" transform="translate(1499.41337 0.375)"/>
     <use xlink:href="#Cambria-95" transform="translate(1555.223917 0.375)"/>
     <use xlink:href="#Cambria-1e1" transform="translate(1598.192667 0.375)"/>
     <use xlink:href="#Cambria-3" transform="translate(1618.70048 0.375)"/>
     <use xlink:href="#Cambria-8f" transform="translate(1640.721964 0.375)"/>
     <use xlink:href="#Cambria-8b" transform="translate(1723.925089 0.375)"/>
     <use xlink:href="#Cambria-90" transform="translate(1751.708292 0.375)"/>
     <use xlink:href="#Cambria-8b" transform="translate(1807.518839 0.375)"/>
     <use xlink:href="#Cambria-8f" transform="translate(1835.302042 0.375)"/>
     <use xlink:href="#Cambria-8b" transform="translate(1918.505167 0.375)"/>
     <use xlink:href="#Cambria-9c" transform="translate(1946.28837 0.375)"/>
     <use xlink:href="#Cambria-87" transform="translate(1991.747355 0.375)"/>
     <use xlink:href="#Cambria-86" transform="translate(2040.526652 0.375)"/>
     <use xlink:href="#Cambria-3" transform="translate(2095.995402 0.375)"/>
     <use xlink:href="#Cambria-83" transform="translate(2118.016886 0.375)"/>
     <use xlink:href="#Cambria-96" transform="translate(2166.845011 0.375)"/>
     <use xlink:href="#Cambria-3" transform="translate(2200.682902 0.375)"/>
     <use xlink:href="#Cmmi10-51" transform="translate(2222.704386 0.375)"/>
     <use xlink:href="#Cmsy10-17" transform="translate(2294.706396 0.375)"/>
     <use xlink:href="#Cmex10-30" transform="translate(2392.392 73.25) scale(0.637938)"/>
     <use xlink:href="#Cmmi10-7a" transform="translate(2468.67325 0.359375)"/>
     <use xlink:href="#Cmsy10-70" transform="translate(2594.516169 0.375)"/>
     <use xlink:href="#Cmr10-7" transform="translate(2747.849321 0.375)"/>
     <use xlink:href="#Cmr10-77" transform="translate(2825.534868 0.375)"/>
     <use xlink:href="#Cmmi10-7a" transform="translate(2864.353227 0.375)"/>
     <use xlink:href="#Cmr10-64" transform="translate(2935.623175 41.664234) scale(0.7)"/>
     <use xlink:href="#Cmmi10-62" transform="translate(2970.623175 41.664234) scale(0.7)"/>
     <use xlink:href="#Cmr10-3b" transform="translate(3005.623175 41.664234) scale(0.7)"/>
     <use xlink:href="#Cmr10-44" transform="translate(3046.34359 0.375)"/>
     <path d="M 498.167162 75.546875 
L 498.167162 81.796875 
L 567.74724 81.796875 
L 567.74724 75.546875 
L 498.167162 75.546875 
z
"/>
     <path d="M 770.214152 100.75 
L 770.214152 107 
L 847.216105 107 
L 847.216105 100.75 
L 770.214152 100.75 
z
"/>
     <path d="M 2456.17325 75.546875 
L 2456.17325 81.796875 
L 2541.183016 81.796875 
L 2541.183016 75.546875 
L 2456.17325 75.546875 
z
"/>
    </g>
   </g>
   <g id="text_6">
    <!-- $d\nmid n\pm 1$:  no pair of exact multiplicative orbits of orders -->
    <g style="fill: #8a2b2b" transform="translate(131.976 222.765767) scale(0.092 -0.092)">
     <defs>
      <path id="STIXGeneral-Regular-437" d="M 2438 1946 
L 1504 1466 
L 1504 -1210 
L 1082 -1210 
L 1082 1248 
L 301 851 
L 147 1190 
L 1082 1664 
L 1082 4416 
L 1504 4416 
L 1504 1882 
L 2285 2278 
L 2438 1946 
z
" transform="scale(0.015625)"/>
      <path id="Cmsy10-8" d="M 481 0 
Q 428 0 393 37 
Q 359 75 359 128 
Q 359 175 393 215 
Q 428 256 481 256 
L 2363 256 
L 2363 2003 
L 481 2003 
Q 428 2003 393 2043 
Q 359 2084 359 2131 
Q 359 2178 393 2218 
Q 428 2259 481 2259 
L 2363 2259 
L 2363 4147 
Q 2363 4197 2400 4230 
Q 2438 4263 2491 4263 
Q 2534 4263 2576 4230 
Q 2619 4197 2619 4147 
L 2619 2259 
L 4500 2259 
Q 4547 2259 4581 2218 
Q 4616 2178 4616 2131 
Q 4616 2084 4581 2043 
Q 4547 2003 4500 2003 
L 2619 2003 
L 2619 256 
L 4500 256 
Q 4547 256 4581 215 
Q 4616 175 4616 128 
Q 4616 75 4581 37 
Q 4547 0 4500 0 
L 481 0 
z
" transform="scale(0.015625)"/>
      <path id="Cambria-Bold-1e3" d="M 1316 2916 
L 1316 1972 
L 475 1972 
L 475 2916 
L 1316 2916 
z
M 1316 944 
L 1316 0 
L 475 0 
L 475 944 
L 1316 944 
z
M 944 3100 
L 944 3100 
z
" transform="scale(0.015625)"/>
      <path id="Cambria-Bold-83" d="M 2116 409 
L 2069 425 
Q 1813 175 1570 62 
Q 1328 -50 1056 -50 
Q 788 -50 589 48 
Q 391 147 289 322 
Q 188 497 188 725 
Q 188 1184 639 1448 
Q 1091 1713 2009 1781 
L 2009 2078 
Q 2009 2369 1943 2526 
Q 1878 2684 1775 2748 
Q 1672 2813 1528 2813 
Q 1384 2813 1279 2763 
Q 1175 2713 1090 2573 
Q 1006 2434 966 2188 
L 375 2188 
L 375 2756 
Q 663 2884 853 2953 
Q 1044 3022 1230 3067 
Q 1416 3113 1562 3131 
Q 1709 3150 1856 3150 
Q 2234 3150 2461 3050 
Q 2688 2950 2800 2725 
Q 2913 2500 2913 2103 
L 2913 884 
Q 2913 678 2922 565 
Q 2931 453 2951 398 
Q 2972 344 3003 311 
Q 3034 278 3079 258 
Q 3125 238 3250 206 
L 3250 0 
L 2088 0 
L 2116 409 
z
M 2013 1475 
Q 1528 1463 1295 1294 
Q 1063 1125 1063 800 
Q 1063 606 1169 504 
Q 1275 403 1463 403 
Q 1606 403 1734 479 
Q 1863 556 1938 684 
Q 2013 813 2013 956 
L 2013 1475 
z
" transform="scale(0.015625)"/>
      <path id="Cambria-Bold-88" d="M 263 206 
Q 409 250 467 303 
Q 525 356 550 451 
Q 575 547 575 784 
L 575 2709 
L 194 2709 
L 194 2925 
Q 341 2947 398 2973 
Q 456 3000 493 3045 
Q 531 3091 553 3162 
Q 575 3234 584 3347 
Q 634 3909 1001 4198 
Q 1369 4488 2041 4488 
Q 2309 4488 2519 4444 
L 2519 3806 
L 2094 3806 
Q 2041 3978 1977 4059 
Q 1913 4141 1809 4141 
Q 1675 4141 1603 4052 
Q 1531 3963 1504 3798 
Q 1478 3634 1478 3338 
L 1478 3100 
L 2081 3100 
L 2081 2709 
L 1478 2709 
L 1478 784 
Q 1478 550 1503 453 
Q 1528 356 1592 300 
Q 1656 244 1819 206 
L 1819 0 
L 263 0 
L 263 206 
z
" transform="scale(0.015625)"/>
      <path id="Cambria-Bold-9a" d="M 2063 1713 
L 2794 675 
Q 2897 528 2976 433 
Q 3056 338 3132 284 
Q 3209 231 3300 206 
L 3300 0 
L 1778 0 
L 1778 206 
Q 1972 228 1972 369 
Q 1972 406 1962 439 
Q 1953 472 1934 505 
Q 1916 538 1859 619 
L 1506 1125 
L 1178 722 
Q 1072 594 1045 534 
Q 1019 475 1019 400 
Q 1019 325 1075 272 
Q 1131 219 1253 206 
L 1253 0 
L 50 0 
L 50 206 
Q 184 234 320 343 
Q 456 453 650 675 
L 1303 1416 
L 569 2453 
Q 500 2553 450 2617 
Q 400 2681 347 2739 
Q 294 2797 251 2830 
Q 209 2863 173 2877 
Q 138 2891 103 2894 
L 103 3100 
L 1616 3100 
L 1616 2894 
Q 1419 2853 1419 2719 
Q 1419 2666 1447 2608 
Q 1475 2550 1538 2463 
L 1859 2003 
L 2178 2400 
Q 2253 2494 2283 2558 
Q 2313 2622 2313 2691 
Q 2313 2778 2248 2833 
Q 2184 2888 2075 2894 
L 2075 3100 
L 3266 3100 
L 3266 2894 
Q 3125 2859 3006 2761 
Q 2888 2663 2663 2391 
L 2063 1713 
z
" transform="scale(0.015625)"/>
      <path id="Cambria-Bold-8f" d="M 1431 2675 
L 1469 2666 
Q 1753 2931 1981 3040 
Q 2209 3150 2447 3150 
Q 2678 3150 2831 3090 
Q 2984 3031 3090 2917 
Q 3197 2803 3263 2619 
Q 3578 2913 3811 3031 
Q 4044 3150 4297 3150 
Q 4547 3150 4711 3084 
Q 4875 3019 4981 2881 
Q 5088 2744 5136 2537 
Q 5184 2331 5184 2044 
L 5184 903 
Q 5184 766 5189 645 
Q 5194 525 5212 453 
Q 5231 381 5264 336 
Q 5297 291 5356 259 
Q 5416 228 5500 206 
L 5500 0 
L 3994 0 
L 3994 206 
Q 4134 241 4187 306 
Q 4241 372 4261 487 
Q 4281 603 4281 900 
L 4281 1738 
Q 4281 2019 4262 2195 
Q 4244 2372 4191 2472 
Q 4138 2572 4064 2615 
Q 3991 2659 3872 2659 
Q 3791 2659 3722 2634 
Q 3653 2609 3583 2557 
Q 3513 2506 3463 2453 
Q 3413 2400 3383 2334 
Q 3353 2269 3342 2187 
Q 3331 2106 3331 1922 
L 3331 903 
Q 3331 691 3339 578 
Q 3347 466 3372 397 
Q 3397 328 3451 283 
Q 3506 238 3622 206 
L 3622 0 
L 2134 0 
L 2134 206 
Q 2278 241 2333 306 
Q 2388 372 2406 486 
Q 2425 600 2425 900 
L 2425 1738 
Q 2425 1944 2417 2086 
Q 2409 2228 2390 2315 
Q 2372 2403 2339 2468 
Q 2306 2534 2264 2575 
Q 2222 2616 2164 2637 
Q 2106 2659 2019 2659 
Q 1903 2659 1776 2587 
Q 1650 2516 1564 2387 
Q 1478 2259 1478 2113 
L 1478 903 
Q 1478 609 1495 492 
Q 1513 375 1569 308 
Q 1625 241 1766 206 
L 1766 0 
L 269 0 
L 269 206 
Q 419 247 476 312 
Q 534 378 554 490 
Q 575 603 575 900 
L 575 2184 
Q 575 2416 567 2527 
Q 559 2638 529 2705 
Q 500 2772 439 2814 
Q 378 2856 228 2888 
L 228 3100 
L 1084 3125 
L 1478 3125 
L 1431 2675 
z
" transform="scale(0.015625)"/>
      <path id="Cambria-Bold-8e" d="M 1438 903 
Q 1438 606 1456 493 
Q 1475 381 1533 314 
Q 1591 247 1750 206 
L 1750 0 
L 219 0 
L 219 206 
Q 313 228 366 258 
Q 419 288 448 327 
Q 478 366 500 427 
Q 522 488 528 595 
Q 534 703 534 903 
L 534 3341 
Q 534 3609 529 3736 
Q 525 3863 511 3948 
Q 497 4034 464 4086 
Q 431 4138 372 4169 
Q 313 4200 181 4225 
L 181 4431 
L 1047 4475 
L 1438 4475 
L 1438 903 
z
" transform="scale(0.015625)"/>
      <path id="Cambria-Bold-84" d="M 497 3397 
Q 497 3622 494 3740 
Q 491 3859 475 3946 
Q 459 4034 425 4084 
Q 391 4134 333 4165 
Q 275 4197 144 4225 
L 144 4431 
L 1016 4475 
L 1400 4475 
L 1400 2684 
L 1403 2681 
Q 1591 2853 1731 2947 
Q 1872 3041 2031 3095 
Q 2191 3150 2372 3150 
Q 2928 3150 3206 2758 
Q 3484 2366 3484 1584 
Q 3484 1044 3320 680 
Q 3156 316 2831 133 
Q 2506 -50 2031 -50 
Q 1538 -50 1128 128 
L 897 -50 
L 497 6 
L 497 3397 
z
M 1400 1025 
Q 1400 641 1533 458 
Q 1666 275 1944 275 
Q 2231 275 2382 576 
Q 2534 878 2534 1438 
Q 2534 2053 2400 2356 
Q 2266 2659 1981 2659 
Q 1844 2659 1709 2587 
Q 1575 2516 1487 2383 
Q 1400 2250 1400 2091 
L 1400 1025 
z
" transform="scale(0.015625)"/>
     </defs>
     <use xlink:href="#Cmmi10-51" transform="translate(0 0.875)"/>
     <use xlink:href="#STIXGeneral-Regular-437" transform="translate(72.00201 0.875)"/>
     <use xlink:href="#Cmmi10-7a" transform="translate(132.402031 0.875)"/>
     <use xlink:href="#Cmsy10-8" transform="translate(212.411854 0.875)"/>
     <use xlink:href="#Cmr10-64" transform="translate(310.097458 0.875)"/>
     <use xlink:href="#Cambria-Bold-1e3" transform="translate(360.097458 0.875)"/>
     <use xlink:href="#Cambria-Bold-3" transform="translate(388.075974 0.875)"/>
     <use xlink:href="#Cambria-Bold-3" transform="translate(410.097458 0.875)"/>
     <use xlink:href="#Cambria-Bold-90" transform="translate(432.118942 0.875)"/>
     <use xlink:href="#Cambria-Bold-91" transform="translate(492.470505 0.875)"/>
     <use xlink:href="#Cambria-Bold-3" transform="translate(549.404099 0.875)"/>
     <use xlink:href="#Cambria-Bold-92" transform="translate(571.425583 0.875)"/>
     <use xlink:href="#Cambria-Bold-83" transform="translate(631.14238 0.875)"/>
     <use xlink:href="#Cambria-Bold-8b" transform="translate(684.658005 0.875)"/>
     <use xlink:href="#Cambria-Bold-94" transform="translate(716.103317 0.875)"/>
     <use xlink:href="#Cambria-Bold-3" transform="translate(762.245895 0.875)"/>
     <use xlink:href="#Cambria-Bold-91" transform="translate(784.26738 0.875)"/>
     <use xlink:href="#Cambria-Bold-88" transform="translate(841.200974 0.875)"/>
     <use xlink:href="#Cambria-Bold-3" transform="translate(873.818161 0.875)"/>
     <use xlink:href="#Cambria-Bold-87" transform="translate(895.839645 0.875)"/>
     <use xlink:href="#Cambria-Bold-9a" transform="translate(948.915817 0.875)"/>
     <use xlink:href="#Cambria-Bold-83" transform="translate(1001.45488 0.875)"/>
     <use xlink:href="#Cambria-Bold-85" transform="translate(1054.970505 0.875)"/>
     <use xlink:href="#Cambria-Bold-96" transform="translate(1101.845505 0.875)"/>
     <use xlink:href="#Cambria-Bold-3" transform="translate(1138.368942 0.875)"/>
     <use xlink:href="#Cambria-Bold-8f" transform="translate(1160.390427 0.875)"/>
     <use xlink:href="#Cambria-Bold-97" transform="translate(1249.404099 0.875)"/>
     <use xlink:href="#Cambria-Bold-8e" transform="translate(1309.120895 0.875)"/>
     <use xlink:href="#Cambria-Bold-96" transform="translate(1339.931442 0.875)"/>
     <use xlink:href="#Cambria-Bold-8b" transform="translate(1376.45488 0.875)"/>
     <use xlink:href="#Cambria-Bold-92" transform="translate(1407.900192 0.875)"/>
     <use xlink:href="#Cambria-Bold-8e" transform="translate(1467.616989 0.875)"/>
     <use xlink:href="#Cambria-Bold-8b" transform="translate(1498.427536 0.875)"/>
     <use xlink:href="#Cambria-Bold-85" transform="translate(1529.872849 0.875)"/>
     <use xlink:href="#Cambria-Bold-83" transform="translate(1576.747849 0.875)"/>
     <use xlink:href="#Cambria-Bold-96" transform="translate(1630.263474 0.875)"/>
     <use xlink:href="#Cambria-Bold-8b" transform="translate(1666.786911 0.875)"/>
     <use xlink:href="#Cambria-Bold-98" transform="translate(1698.232224 0.875)"/>
     <use xlink:href="#Cambria-Bold-87" transform="translate(1751.308395 0.875)"/>
     <use xlink:href="#Cambria-Bold-3" transform="translate(1804.384567 0.875)"/>
     <use xlink:href="#Cambria-Bold-91" transform="translate(1826.406052 0.875)"/>
     <use xlink:href="#Cambria-Bold-94" transform="translate(1883.339645 0.875)"/>
     <use xlink:href="#Cambria-Bold-84" transform="translate(1929.482224 0.875)"/>
     <use xlink:href="#Cambria-Bold-8b" transform="translate(1988.613083 0.875)"/>
     <use xlink:href="#Cambria-Bold-96" transform="translate(2020.058395 0.875)"/>
     <use xlink:href="#Cambria-Bold-95" transform="translate(2056.581833 0.875)"/>
     <use xlink:href="#Cambria-Bold-3" transform="translate(2102.48027 0.875)"/>
     <use xlink:href="#Cambria-Bold-91" transform="translate(2124.501755 0.875)"/>
     <use xlink:href="#Cambria-Bold-88" transform="translate(2181.435349 0.875)"/>
     <use xlink:href="#Cambria-Bold-3" transform="translate(2214.052536 0.875)"/>
     <use xlink:href="#Cambria-Bold-91" transform="translate(2236.07402 0.875)"/>
     <use xlink:href="#Cambria-Bold-94" transform="translate(2293.007614 0.875)"/>
     <use xlink:href="#Cambria-Bold-86" transform="translate(2339.150192 0.875)"/>
     <use xlink:href="#Cambria-Bold-87" transform="translate(2398.866989 0.875)"/>
     <use xlink:href="#Cambria-Bold-94" transform="translate(2451.943161 0.875)"/>
     <use xlink:href="#Cambria-Bold-95" transform="translate(2498.085739 0.875)"/>
    </g>
    <!-- $q$ and $d$ exists $-$ both search sets vanish. -->
    <g style="fill: #8a2b2b" transform="translate(165.464 233.551509) scale(0.092 -0.092)">
     <defs>
      <path id="Cambria-Bold-1e4" d="M 1163 944 
L 1163 0 
L 322 0 
L 322 944 
L 1163 944 
z
" transform="scale(0.015625)"/>
     </defs>
     <use xlink:href="#Cmmi10-52" transform="translate(0 0.078125)"/>
     <use xlink:href="#Cambria-Bold-3" transform="translate(44.580078 0.078125)"/>
     <use xlink:href="#Cambria-Bold-83" transform="translate(66.601562 0.078125)"/>
     <use xlink:href="#Cambria-Bold-90" transform="translate(120.117188 0.078125)"/>
     <use xlink:href="#Cambria-Bold-86" transform="translate(180.46875 0.078125)"/>
     <use xlink:href="#Cambria-Bold-3" transform="translate(240.185547 0.078125)"/>
     <use xlink:href="#Cmmi10-51" transform="translate(262.207031 0.078125)"/>
     <use xlink:href="#Cambria-Bold-3" transform="translate(314.208984 0.078125)"/>
     <use xlink:href="#Cambria-Bold-87" transform="translate(336.230469 0.078125)"/>
     <use xlink:href="#Cambria-Bold-9a" transform="translate(389.306641 0.078125)"/>
     <use xlink:href="#Cambria-Bold-8b" transform="translate(441.845703 0.078125)"/>
     <use xlink:href="#Cambria-Bold-95" transform="translate(473.291016 0.078125)"/>
     <use xlink:href="#Cambria-Bold-96" transform="translate(519.189453 0.078125)"/>
     <use xlink:href="#Cambria-Bold-95" transform="translate(555.712891 0.078125)"/>
     <use xlink:href="#Cambria-Bold-3" transform="translate(601.611328 0.078125)"/>
     <use xlink:href="#Cmsy10-11" transform="translate(623.632812 0.078125)"/>
     <use xlink:href="#Cambria-Bold-3" transform="translate(701.318359 0.078125)"/>
     <use xlink:href="#Cambria-Bold-84" transform="translate(723.339844 0.078125)"/>
     <use xlink:href="#Cambria-Bold-91" transform="translate(782.470703 0.078125)"/>
     <use xlink:href="#Cambria-Bold-96" transform="translate(839.404297 0.078125)"/>
     <use xlink:href="#Cambria-Bold-8a" transform="translate(875.927734 0.078125)"/>
     <use xlink:href="#Cambria-Bold-3" transform="translate(935.595703 0.078125)"/>
     <use xlink:href="#Cambria-Bold-95" transform="translate(957.617188 0.078125)"/>
     <use xlink:href="#Cambria-Bold-87" transform="translate(1003.515625 0.078125)"/>
     <use xlink:href="#Cambria-Bold-83" transform="translate(1056.591797 0.078125)"/>
     <use xlink:href="#Cambria-Bold-94" transform="translate(1110.107422 0.078125)"/>
     <use xlink:href="#Cambria-Bold-85" transform="translate(1156.25 0.078125)"/>
     <use xlink:href="#Cambria-Bold-8a" transform="translate(1203.125 0.078125)"/>
     <use xlink:href="#Cambria-Bold-3" transform="translate(1262.792969 0.078125)"/>
     <use xlink:href="#Cambria-Bold-95" transform="translate(1284.814453 0.078125)"/>
     <use xlink:href="#Cambria-Bold-87" transform="translate(1330.712891 0.078125)"/>
     <use xlink:href="#Cambria-Bold-96" transform="translate(1383.789062 0.078125)"/>
     <use xlink:href="#Cambria-Bold-95" transform="translate(1420.3125 0.078125)"/>
     <use xlink:href="#Cambria-Bold-3" transform="translate(1466.210938 0.078125)"/>
     <use xlink:href="#Cambria-Bold-98" transform="translate(1488.232422 0.078125)"/>
     <use xlink:href="#Cambria-Bold-83" transform="translate(1541.308594 0.078125)"/>
     <use xlink:href="#Cambria-Bold-90" transform="translate(1594.824219 0.078125)"/>
     <use xlink:href="#Cambria-Bold-8b" transform="translate(1655.175781 0.078125)"/>
     <use xlink:href="#Cambria-Bold-95" transform="translate(1686.621094 0.078125)"/>
     <use xlink:href="#Cambria-Bold-8a" transform="translate(1732.519531 0.078125)"/>
     <use xlink:href="#Cambria-Bold-1e4" transform="translate(1792.1875 0.078125)"/>
    </g>
    <!-- SG-04 open: no falsifiable non-divisor adaptation found. -->
    <g style="fill: #8a2b2b" transform="translate(131.3205 244.337251) scale(0.092 -0.092)">
     <defs>
      <path id="Cambria-Bold-16" d="M 691 1053 
Q 769 681 951 498 
Q 1134 316 1488 316 
Q 1672 316 1819 378 
Q 1966 441 2055 580 
Q 2144 719 2144 928 
Q 2144 1122 2072 1264 
Q 2000 1406 1840 1534 
Q 1681 1663 1397 1806 
Q 1153 1928 956 2059 
Q 759 2191 620 2348 
Q 481 2506 404 2693 
Q 328 2881 328 3116 
Q 328 3500 518 3769 
Q 709 4038 1070 4177 
Q 1431 4316 1906 4316 
Q 2184 4316 2437 4286 
Q 2691 4256 3016 4181 
L 3016 3275 
L 2588 3275 
Q 2528 3522 2436 3667 
Q 2344 3813 2206 3881 
Q 2069 3950 1859 3950 
Q 1681 3950 1540 3887 
Q 1400 3825 1319 3701 
Q 1238 3578 1238 3403 
Q 1238 3222 1308 3089 
Q 1378 2956 1543 2829 
Q 1709 2703 2025 2541 
Q 2409 2341 2629 2148 
Q 2850 1956 2954 1729 
Q 3059 1503 3059 1203 
Q 3059 819 2881 536 
Q 2703 253 2362 101 
Q 2022 -50 1575 -50 
Q 1256 -50 911 -14 
Q 566 22 263 91 
L 263 1053 
L 691 1053 
z
" transform="scale(0.015625)"/>
      <path id="Cambria-Bold-a" d="M 3578 4150 
L 3578 3263 
L 3150 3263 
Q 3078 3525 2986 3667 
Q 2894 3809 2748 3879 
Q 2603 3950 2375 3950 
Q 2066 3950 1828 3761 
Q 1591 3572 1453 3158 
Q 1316 2744 1316 2109 
Q 1316 1563 1408 1161 
Q 1500 759 1689 537 
Q 1878 316 2156 316 
Q 2431 316 2562 480 
Q 2694 644 2694 1003 
L 2694 1122 
Q 2694 1359 2678 1461 
Q 2663 1563 2630 1613 
Q 2597 1663 2544 1694 
Q 2491 1725 2356 1766 
L 2356 1972 
L 3956 1972 
L 3956 1766 
Q 3800 1719 3744 1659 
Q 3688 1600 3667 1501 
Q 3647 1403 3647 1225 
L 3647 47 
L 3197 -47 
L 2984 178 
Q 2613 -50 2131 -50 
Q 1219 -50 770 483 
Q 322 1016 322 2097 
Q 322 2666 481 3097 
Q 641 3528 923 3798 
Q 1206 4069 1561 4192 
Q 1916 4316 2322 4316 
Q 3006 4316 3578 4150 
z
" transform="scale(0.015625)"/>
      <path id="Cambria-Bold-1e6" d="M 1819 1378 
L 338 1378 
L 338 2034 
L 1819 2034 
L 1819 1378 
z
" transform="scale(0.015625)"/>
      <path id="Cambria-Bold-372" d="M 1856 -50 
Q 1369 -50 1039 164 
Q 709 378 531 856 
Q 353 1334 353 2094 
Q 353 2809 534 3304 
Q 716 3800 1067 4058 
Q 1419 4316 1913 4316 
Q 2681 4316 3059 3792 
Q 3438 3269 3438 2191 
Q 3438 1084 3036 517 
Q 2634 -50 1856 -50 
z
M 1303 2184 
Q 1303 1497 1364 1090 
Q 1425 684 1556 492 
Q 1688 300 1906 300 
Q 2025 300 2114 358 
Q 2203 416 2273 539 
Q 2344 663 2394 867 
Q 2444 1072 2466 1376 
Q 2488 1681 2488 2056 
Q 2488 2616 2445 2997 
Q 2403 3378 2325 3584 
Q 2247 3791 2140 3878 
Q 2034 3966 1894 3966 
Q 1728 3966 1614 3856 
Q 1500 3747 1431 3525 
Q 1363 3303 1333 2968 
Q 1303 2634 1303 2184 
z
" transform="scale(0.015625)"/>
      <path id="Cambria-Bold-376" d="M 1503 206 
Q 1616 238 1683 273 
Q 1750 309 1784 370 
Q 1819 431 1828 528 
Q 1838 625 1838 772 
L 1838 1238 
L 163 1238 
L 163 1575 
L 2059 4288 
L 2763 4288 
L 2763 1631 
L 2859 1631 
Q 3013 1631 3075 1651 
Q 3138 1672 3183 1728 
Q 3228 1784 3269 1928 
L 3597 1928 
L 3559 1238 
L 2763 1238 
L 2763 772 
Q 2763 606 2778 507 
Q 2794 409 2831 351 
Q 2869 294 2934 264 
Q 3000 234 3100 206 
L 3100 0 
L 1503 0 
L 1503 206 
z
M 769 1631 
L 1838 1631 
L 1838 2347 
Q 1838 2797 1869 3294 
L 1838 3294 
L 769 1684 
L 769 1631 
z
" transform="scale(0.015625)"/>
      <path id="Cambria-Bold-3d0" d="M 263 206 
Q 409 250 467 303 
Q 525 356 550 451 
Q 575 547 575 784 
L 575 2709 
L 194 2709 
L 194 2925 
Q 341 2947 398 2973 
Q 456 3000 493 3045 
Q 531 3091 553 3162 
Q 575 3234 584 3347 
Q 634 3909 1001 4198 
Q 1369 4488 2041 4488 
Q 2194 4488 2388 4459 
L 2388 3856 
L 2038 3856 
Q 2000 4141 1797 4141 
Q 1672 4141 1601 4045 
Q 1531 3950 1504 3776 
Q 1478 3603 1478 3338 
L 1478 3100 
L 2081 3100 
L 2081 2709 
L 1478 2709 
L 1478 784 
Q 1478 550 1503 453 
Q 1528 356 1592 300 
Q 1656 244 1819 206 
L 1819 0 
L 263 0 
L 263 206 
z
" transform="scale(0.015625)"/>
     </defs>
     <use xlink:href="#Cambria-Bold-16"/>
     <use xlink:href="#Cambria-Bold-a" transform="translate(51.3125 0)"/>
     <use xlink:href="#Cambria-Bold-1e6" transform="translate(115.96875 0)"/>
     <use xlink:href="#Cambria-Bold-372" transform="translate(149.65625 0)"/>
     <use xlink:href="#Cambria-Bold-376" transform="translate(208.890625 0)"/>
     <use xlink:href="#Cambria-Bold-3" transform="translate(268.125 0)"/>
     <use xlink:href="#Cambria-Bold-91" transform="translate(290.140625 0)"/>
     <use xlink:href="#Cambria-Bold-92" transform="translate(347.078125 0)"/>
     <use xlink:href="#Cambria-Bold-87" transform="translate(406.796875 0)"/>
     <use xlink:href="#Cambria-Bold-90" transform="translate(459.875 0)"/>
     <use xlink:href="#Cambria-Bold-1e3" transform="translate(520.234375 0)"/>
     <use xlink:href="#Cambria-Bold-3" transform="translate(548.21875 0)"/>
     <use xlink:href="#Cambria-Bold-90" transform="translate(570.234375 0)"/>
     <use xlink:href="#Cambria-Bold-91" transform="translate(630.59375 0)"/>
     <use xlink:href="#Cambria-Bold-3" transform="translate(687.53125 0)"/>
     <use xlink:href="#Cambria-Bold-88" transform="translate(709.546875 0)"/>
     <use xlink:href="#Cambria-Bold-83" transform="translate(742.171875 0)"/>
     <use xlink:href="#Cambria-Bold-8e" transform="translate(795.6875 0)"/>
     <use xlink:href="#Cambria-Bold-95" transform="translate(826.5 0)"/>
     <use xlink:href="#Cambria-Bold-8b" transform="translate(872.40625 0)"/>
     <use xlink:href="#Cambria-Bold-3d0" transform="translate(903.859375 0)"/>
     <use xlink:href="#Cambria-Bold-8b" transform="translate(936.484375 0)"/>
     <use xlink:href="#Cambria-Bold-83" transform="translate(967.9375 0)"/>
     <use xlink:href="#Cambria-Bold-84" transform="translate(1021.453125 0)"/>
     <use xlink:href="#Cambria-Bold-8e" transform="translate(1080.578125 0)"/>
     <use xlink:href="#Cambria-Bold-87" transform="translate(1111.390625 0)"/>
     <use xlink:href="#Cambria-Bold-3" transform="translate(1164.46875 0)"/>
     <use xlink:href="#Cambria-Bold-90" transform="translate(1186.484375 0)"/>
     <use xlink:href="#Cambria-Bold-91" transform="translate(1246.84375 0)"/>
     <use xlink:href="#Cambria-Bold-90" transform="translate(1303.78125 0)"/>
     <use xlink:href="#Cambria-Bold-1e6" transform="translate(1364.140625 0)"/>
     <use xlink:href="#Cambria-Bold-86" transform="translate(1397.828125 0)"/>
     <use xlink:href="#Cambria-Bold-8b" transform="translate(1457.546875 0)"/>
     <use xlink:href="#Cambria-Bold-98" transform="translate(1486.359375 0)"/>
     <use xlink:href="#Cambria-Bold-8b" transform="translate(1539.4375 0)"/>
     <use xlink:href="#Cambria-Bold-95" transform="translate(1570.890625 0)"/>
     <use xlink:href="#Cambria-Bold-91" transform="translate(1616.796875 0)"/>
     <use xlink:href="#Cambria-Bold-94" transform="translate(1673.734375 0)"/>
     <use xlink:href="#Cambria-Bold-3" transform="translate(1719.875 0)"/>
     <use xlink:href="#Cambria-Bold-83" transform="translate(1741.890625 0)"/>
     <use xlink:href="#Cambria-Bold-86" transform="translate(1795.40625 0)"/>
     <use xlink:href="#Cambria-Bold-83" transform="translate(1855.125 0)"/>
     <use xlink:href="#Cambria-Bold-92" transform="translate(1908.640625 0)"/>
     <use xlink:href="#Cambria-Bold-96" transform="translate(1968.359375 0)"/>
     <use xlink:href="#Cambria-Bold-83" transform="translate(2004.890625 0)"/>
     <use xlink:href="#Cambria-Bold-96" transform="translate(2058.40625 0)"/>
     <use xlink:href="#Cambria-Bold-8b" transform="translate(2094.9375 0)"/>
     <use xlink:href="#Cambria-Bold-91" transform="translate(2126.390625 0)"/>
     <use xlink:href="#Cambria-Bold-90" transform="translate(2183.328125 0)"/>
     <use xlink:href="#Cambria-Bold-3" transform="translate(2243.6875 0)"/>
     <use xlink:href="#Cambria-Bold-88" transform="translate(2265.703125 0)"/>
     <use xlink:href="#Cambria-Bold-91" transform="translate(2298.328125 0)"/>
     <use xlink:href="#Cambria-Bold-97" transform="translate(2355.265625 0)"/>
     <use xlink:href="#Cambria-Bold-90" transform="translate(2414.984375 0)"/>
     <use xlink:href="#Cambria-Bold-86" transform="translate(2475.34375 0)"/>
     <use xlink:href="#Cambria-Bold-1e4" transform="translate(2535.0625 0)"/>
    </g>
   </g>
   <g id="PathCollection_1">
    <defs>
     <path id="m902194102e" d="M -6.123724 6.123724 
L 6.123724 -6.123724 
M -6.123724 -6.123724 
L 6.123724 6.123724 
" style="stroke: #a03a3a; stroke-width: 2.6"/>
    </defs>
    <g clip-path="url(#pab371282ef)">
     <use xlink:href="#m902194102e" x="31.38" y="231.203636" style="fill: #a03a3a; stroke: #a03a3a; stroke-width: 2.6"/>
     <use xlink:href="#m902194102e" x="466.62" y="231.203636" style="fill: #a03a3a; stroke: #a03a3a; stroke-width: 2.6"/>
    </g>
   </g>
  </g>
 </g>
 <defs>
  <clipPath id="pab371282ef">
   <rect x="7.2" y="7.2" width="483.6" height="274.8"/>
  </clipPath>
 </defs>
</svg>
