<?xml version="1.0" encoding="utf-8" standalone="no"?>
<!DOCTYPE svg PUBLIC "-//W3C//DTD SVG 1.1//EN"
  "http://www.w3.org/Graphics/SVG/1.1/DTD/svg11.dtd">
<svg xmlns:xlink="http://www.w3.org/1999/xlink" width="440.35pt" height="245.749512pt" viewBox="0 0 440.35 245.749512" xmlns="http://www.w3.org/2000/svg" version="1.1">
 <metadata>
  <rdf:RDF xmlns:dc="http://purl.org/dc/elements/1.1/" xmlns:cc="http://creativecommons.org/ns#" xmlns:rdf="http://www.w3.org/1999/02/22-rdf-syntax-ns#">
   <cc:Work>
    <dc:type rdf:resource="http://purl.org/dc/dcmitype/StillImage"/>
    <dc:date>2026-07-23T00:54:01.944072</dc:date>
    <dc:format>image/svg+xml</dc:format>
    <dc:creator>
     <cc:Agent>
      <dc:title>Matplotlib v3.11.1, https://matplotlib.org/</dc:title>
     </cc:Agent>
    </dc:creator>
   </cc:Work>
  </rdf:RDF>
 </metadata>
 <defs>
  <style type="text/css">*{stroke-linejoin: round; stroke-linecap: butt}</style>
 </defs>
 <g id="figure_1">
  <g id="patch_1">
   <path d="M 0 245.749512 
L 440.35 245.749512 
L 440.35 0 
L 0 0 
z
" style="fill: #fcfcfb"/>
  </g>
  <g id="axes_1">
   <g id="patch_2">
    <path d="M 32.7 213.946973 
L 433.15 213.946973 
L 433.15 23.756152 
L 32.7 23.756152 
z
" style="fill: #fcfcfb"/>
   </g>
   <g id="patch_3">
    <path d="M 32.7 23.756152 
L 126.80575 23.756152 
L 126.80575 68.450995 
L 32.7 68.450995 
z
" clip-path="url(#p8ee6f9726f)" style="fill: #86b6ef; stroke: #e1e0d9; stroke-width: 0.8; stroke-linejoin: miter"/>
   </g>
   <g id="patch_4">
    <path d="M 35.703375 25.182583 
L 123.802375 25.182583 
L 123.802375 67.024564 
L 35.703375 67.024564 
L 35.703375 25.182583 
z
" clip-path="url(#p8ee6f9726f)" style="fill: none; stroke: #e34948; stroke-width: 2; stroke-linejoin: miter"/>
   </g>
   <g id="patch_5">
    <path d="M 132.8125 23.756152 
L 226.91825 23.756152 
L 226.91825 68.450995 
L 132.8125 68.450995 
z
" clip-path="url(#p8ee6f9726f)" style="fill: #3987e5; stroke: #e1e0d9; stroke-width: 0.8; stroke-linejoin: miter"/>
   </g>
   <g id="patch_6">
    <path d="M 232.925 23.756152 
L 327.03075 23.756152 
L 327.03075 68.450995 
L 232.925 68.450995 
z
" clip-path="url(#p8ee6f9726f)" style="fill: #cde2fb; stroke: #e1e0d9; stroke-width: 0.8; stroke-linejoin: miter"/>
   </g>
   <g id="patch_7">
    <path d="M 333.0375 23.756152 
L 427.14325 23.756152 
L 427.14325 68.450995 
L 333.0375 68.450995 
z
" clip-path="url(#p8ee6f9726f)" style="fill: #cde2fb; stroke: #e1e0d9; stroke-width: 0.8; stroke-linejoin: miter"/>
   </g>
   <g id="patch_8">
    <path d="M 32.7 71.303857 
L 126.80575 71.303857 
L 126.80575 115.9987 
L 32.7 115.9987 
z
" clip-path="url(#p8ee6f9726f)" style="fill: #1c5cab; stroke: #e1e0d9; stroke-width: 0.8; stroke-linejoin: miter"/>
   </g>
   <g id="patch_9">
    <path d="M 132.8125 71.303857 
L 226.91825 71.303857 
L 226.91825 115.9987 
L 132.8125 115.9987 
z
" clip-path="url(#p8ee6f9726f)" style="fill: #3987e5; stroke: #e1e0d9; stroke-width: 0.8; stroke-linejoin: miter"/>
   </g>
   <g id="patch_10">
    <path d="M 232.925 71.303857 
L 327.03075 71.303857 
L 327.03075 115.9987 
L 232.925 115.9987 
z
" clip-path="url(#p8ee6f9726f)" style="fill: #86b6ef; stroke: #e1e0d9; stroke-width: 0.8; stroke-linejoin: miter"/>
   </g>
   <g id="patch_11">
    <path d="M 333.0375 71.303857 
L 427.14325 71.303857 
L 427.14325 115.9987 
L 333.0375 115.9987 
z
" clip-path="url(#p8ee6f9726f)" style="fill: #cde2fb; stroke: #e1e0d9; stroke-width: 0.8; stroke-linejoin: miter"/>
   </g>
   <g id="patch_12">
    <path d="M 32.7 118.851562 
L 126.80575 118.851562 
L 126.80575 163.546405 
L 32.7 163.546405 
z
" clip-path="url(#p8ee6f9726f)" style="fill: #1c5cab; stroke: #e1e0d9; stroke-width: 0.8; stroke-linejoin: miter"/>
   </g>
   <g id="patch_13">
    <path d="M 132.8125 118.851562 
L 226.91825 118.851562 
L 226.91825 163.546405 
L 132.8125 163.546405 
z
" clip-path="url(#p8ee6f9726f)" style="fill: #1c5cab; stroke: #e1e0d9; stroke-width: 0.8; stroke-linejoin: miter"/>
   </g>
   <g id="patch_14">
    <path d="M 232.925 118.851562 
L 327.03075 118.851562 
L 327.03075 163.546405 
L 232.925 163.546405 
z
" clip-path="url(#p8ee6f9726f)" style="fill: #1c5cab; stroke: #e1e0d9; stroke-width: 0.8; stroke-linejoin: miter"/>
   </g>
   <g id="patch_15">
    <path d="M 333.0375 118.851562 
L 427.14325 118.851562 
L 427.14325 163.546405 
L 333.0375 163.546405 
z
" clip-path="url(#p8ee6f9726f)" style="fill: #1c5cab; stroke: #e1e0d9; stroke-width: 0.8; stroke-linejoin: miter"/>
   </g>
   <g id="patch_16">
    <path d="M 32.7 166.399268 
L 126.80575 166.399268 
L 126.80575 211.09411 
L 32.7 211.09411 
z
" clip-path="url(#p8ee6f9726f)" style="fill: #1c5cab; stroke: #e1e0d9; stroke-width: 0.8; stroke-linejoin: miter"/>
   </g>
   <g id="patch_17">
    <path d="M 132.8125 166.399268 
L 226.91825 166.399268 
L 226.91825 211.09411 
L 132.8125 211.09411 
z
" clip-path="url(#p8ee6f9726f)" style="fill: #1c5cab; stroke: #e1e0d9; stroke-width: 0.8; stroke-linejoin: miter"/>
   </g>
   <g id="patch_18">
    <path d="M 232.925 166.399268 
L 327.03075 166.399268 
L 327.03075 211.09411 
L 232.925 211.09411 
z
" clip-path="url(#p8ee6f9726f)" style="fill: #1c5cab; stroke: #e1e0d9; stroke-width: 0.8; stroke-linejoin: miter"/>
   </g>
   <g id="patch_19">
    <path d="M 333.0375 166.399268 
L 427.14325 166.399268 
L 427.14325 211.09411 
L 333.0375 211.09411 
z
" clip-path="url(#p8ee6f9726f)" style="fill: #1c5cab; stroke: #e1e0d9; stroke-width: 0.8; stroke-linejoin: miter"/>
   </g>
   <g id="matplotlib.axis_1">
    <g id="xtick_1">
     <g id="line2d_1"/>
     <g id="text_1">
      <!-- $b=5$ -->
      <g style="fill: #52514e" transform="translate(70.257875 225.223096) scale(0.09 -0.09)">
       <defs>
        <path id="Cmmi10-4b" d="M 1106 -72 
Q 719 -72 503 231 
Q 288 534 288 941 
Q 288 1000 317 1173 
Q 347 1347 347 1388 
L 966 3872 
Q 991 3981 997 4044 
Q 997 4147 581 4147 
Q 519 4147 519 4231 
Q 522 4247 533 4287 
Q 544 4328 561 4350 
Q 578 4372 609 4372 
L 1472 4441 
Q 1550 4441 1550 4359 
L 1075 2472 
Q 1438 2828 1806 2828 
Q 2078 2828 2273 2684 
Q 2469 2541 2566 2306 
Q 2663 2072 2663 1806 
Q 2663 1497 2542 1167 
Q 2422 838 2209 555 
Q 1997 272 1712 100 
Q 1428 -72 1106 -72 
z
M 1119 97 
Q 1338 97 1528 280 
Q 1719 463 1838 691 
Q 1966 947 2077 1386 
Q 2188 1825 2188 2088 
Q 2188 2316 2092 2489 
Q 1997 2663 1791 2663 
Q 1559 2663 1348 2492 
Q 1138 2322 978 2088 
L 800 1363 
Q 697 959 691 716 
Q 691 475 795 286 
Q 900 97 1119 97 
z
" transform="scale(0.015625)"/>
        <path id="Cmr10-29" d="M 481 850 
Q 428 850 393 890 
Q 359 931 359 978 
Q 359 1031 393 1068 
Q 428 1106 481 1106 
L 4500 1106 
Q 4547 1106 4581 1068 
Q 4616 1031 4616 978 
Q 4616 931 4581 890 
Q 4547 850 4500 850 
L 481 850 
z
M 481 2094 
Q 428 2094 393 2131 
Q 359 2169 359 2222 
Q 359 2269 393 2309 
Q 428 2350 481 2350 
L 4500 2350 
Q 4547 2350 4581 2309 
Q 4616 2269 4616 2222 
Q 4616 2169 4581 2131 
Q 4547 2094 4500 2094 
L 481 2094 
z
" transform="scale(0.015625)"/>
        <path id="Cmr10-78" d="M 556 728 
Q 622 541 758 387 
Q 894 234 1080 148 
Q 1266 63 1466 63 
Q 1928 63 2103 422 
Q 2278 781 2278 1294 
Q 2278 1516 2270 1667 
Q 2263 1819 2228 1959 
Q 2169 2184 2020 2353 
Q 1872 2522 1656 2522 
Q 1441 2522 1286 2456 
Q 1131 2391 1034 2303 
Q 938 2216 863 2119 
Q 788 2022 769 2016 
L 697 2016 
Q 681 2016 657 2036 
Q 634 2056 634 2075 
L 634 4213 
Q 634 4228 654 4245 
Q 675 4263 697 4263 
L 716 4263 
Q 1147 4056 1631 4056 
Q 2106 4056 2547 4263 
L 2566 4263 
Q 2588 4263 2606 4247 
Q 2625 4231 2625 4213 
L 2625 4153 
Q 2625 4122 2613 4122 
Q 2394 3831 2064 3668 
Q 1734 3506 1381 3506 
Q 1125 3506 856 3578 
L 856 2369 
Q 1069 2541 1236 2614 
Q 1403 2688 1663 2688 
Q 2016 2688 2295 2484 
Q 2575 2281 2725 1954 
Q 2875 1628 2875 1288 
Q 2875 903 2686 575 
Q 2497 247 2172 53 
Q 1847 -141 1466 -141 
Q 1150 -141 886 21 
Q 622 184 470 459 
Q 319 734 319 1044 
Q 319 1188 412 1278 
Q 506 1369 647 1369 
Q 788 1369 883 1276 
Q 978 1184 978 1044 
Q 978 906 883 811 
Q 788 716 647 716 
Q 625 716 597 720 
Q 569 725 556 728 
z
" transform="scale(0.015625)"/>
       </defs>
       <use xlink:href="#Cmmi10-4b" transform="translate(0 0.609375)"/>
       <use xlink:href="#Cmr10-29" transform="translate(62.919979 0.609375)"/>
       <use xlink:href="#Cmr10-78" transform="translate(160.605583 0.609375)"/>
      </g>
      <!-- ($p=31$) -->
      <g style="fill: #52514e" transform="translate(64.227875 235.774365) scale(0.09 -0.09)">
       <defs>
        <path id="Cambria-20b" d="M 2309 -1359 
Q 1778 -1359 1442 -1200 
Q 1106 -1041 918 -714 
Q 731 -388 647 134 
Q 563 656 563 1550 
Q 563 2438 645 2964 
Q 728 3491 915 3822 
Q 1103 4153 1440 4318 
Q 1778 4484 2309 4484 
L 2309 4228 
Q 2091 4228 1922 4191 
Q 1731 4147 1597 4022 
Q 1447 3884 1353 3638 
Q 1244 3350 1191 2875 
Q 1134 2372 1134 1575 
Q 1134 872 1181 379 
Q 1228 -113 1338 -425 
Q 1425 -688 1556 -834 
Q 1672 -963 1831 -1028 
Q 2016 -1103 2309 -1103 
L 2309 -1359 
z
" transform="scale(0.015625)"/>
        <path id="Cmmi10-80" d="M -159 -1241 
Q -219 -1241 -219 -1159 
Q -197 -1019 -134 -1019 
Q 66 -1019 145 -983 
Q 225 -947 269 -800 
L 991 2081 
Q 1038 2200 1038 2388 
Q 1038 2663 850 2663 
Q 650 2663 553 2423 
Q 456 2184 366 1819 
Q 366 1778 313 1778 
L 238 1778 
Q 222 1778 203 1801 
Q 184 1825 184 1844 
Q 253 2122 317 2315 
Q 381 2509 517 2668 
Q 653 2828 856 2828 
Q 1075 2828 1240 2704 
Q 1406 2581 1453 2369 
Q 1628 2572 1840 2700 
Q 2053 2828 2278 2828 
Q 2547 2828 2745 2684 
Q 2944 2541 3044 2308 
Q 3144 2075 3144 1806 
Q 3144 1394 2933 953 
Q 2722 513 2361 220 
Q 2000 -72 1588 -72 
Q 1400 -72 1248 34 
Q 1097 141 1013 313 
L 722 -825 
Q 706 -919 703 -934 
Q 703 -1019 1125 -1019 
Q 1191 -1019 1191 -1100 
Q 1169 -1184 1155 -1212 
Q 1141 -1241 1081 -1241 
L -159 -1241 
z
M 1594 97 
Q 1816 97 2006 280 
Q 2197 463 2316 691 
Q 2403 863 2479 1111 
Q 2556 1359 2612 1640 
Q 2669 1922 2669 2088 
Q 2669 2234 2630 2362 
Q 2591 2491 2502 2577 
Q 2413 2663 2266 2663 
Q 2031 2663 1823 2495 
Q 1616 2328 1447 2081 
L 1447 2059 
L 1094 647 
Q 1138 419 1263 258 
Q 1388 97 1594 97 
z
" transform="scale(0.015625)"/>
        <path id="Cmr10-6e" d="M 609 494 
Q 759 275 1012 169 
Q 1266 63 1556 63 
Q 1928 63 2084 380 
Q 2241 697 2241 1100 
Q 2241 1281 2208 1462 
Q 2175 1644 2097 1800 
Q 2019 1956 1883 2050 
Q 1747 2144 1550 2144 
L 1125 2144 
Q 1069 2144 1069 2203 
L 1069 2259 
Q 1069 2309 1125 2309 
L 1478 2338 
Q 1703 2338 1851 2506 
Q 2000 2675 2069 2917 
Q 2138 3159 2138 3378 
Q 2138 3684 1994 3881 
Q 1850 4078 1556 4078 
Q 1313 4078 1091 3986 
Q 869 3894 738 3706 
Q 750 3709 759 3711 
Q 769 3713 781 3713 
Q 925 3713 1022 3613 
Q 1119 3513 1119 3372 
Q 1119 3234 1022 3134 
Q 925 3034 781 3034 
Q 641 3034 541 3134 
Q 441 3234 441 3372 
Q 441 3647 606 3850 
Q 772 4053 1033 4158 
Q 1294 4263 1556 4263 
Q 1750 4263 1965 4205 
Q 2181 4147 2356 4039 
Q 2531 3931 2642 3762 
Q 2753 3594 2753 3378 
Q 2753 3109 2633 2881 
Q 2513 2653 2303 2487 
Q 2094 2322 1844 2241 
Q 2122 2188 2372 2031 
Q 2622 1875 2773 1631 
Q 2925 1388 2925 1106 
Q 2925 753 2731 467 
Q 2538 181 2222 20 
Q 1906 -141 1556 -141 
Q 1256 -141 954 -26 
Q 653 88 461 316 
Q 269 544 269 863 
Q 269 1022 375 1128 
Q 481 1234 641 1234 
Q 744 1234 830 1186 
Q 916 1138 964 1050 
Q 1013 963 1013 863 
Q 1013 706 903 600 
Q 794 494 641 494 
L 609 494 
z
" transform="scale(0.015625)"/>
        <path id="Cmr10-64" d="M 594 0 
L 594 225 
Q 1394 225 1394 428 
L 1394 3788 
Q 1063 3628 556 3628 
L 556 3853 
Q 1341 3853 1741 4263 
L 1831 4263 
Q 1853 4263 1873 4245 
Q 1894 4228 1894 4206 
L 1894 428 
Q 1894 225 2694 225 
L 2694 0 
L 594 0 
z
" transform="scale(0.015625)"/>
        <path id="Cambria-20c" d="M 134 4484 
Q 666 4484 1002 4325 
Q 1338 4166 1525 3839 
Q 1713 3513 1797 2991 
Q 1881 2469 1881 1575 
Q 1881 688 1798 161 
Q 1716 -366 1528 -697 
Q 1341 -1028 1003 -1193 
Q 666 -1359 134 -1359 
L 134 -1103 
Q 353 -1103 522 -1066 
Q 713 -1022 847 -897 
Q 997 -759 1091 -513 
Q 1200 -225 1253 250 
Q 1309 753 1309 1550 
Q 1309 2253 1262 2745 
Q 1216 3238 1106 3550 
Q 1019 3813 888 3959 
Q 772 4088 613 4153 
Q 428 4228 134 4228 
L 134 4484 
z
" transform="scale(0.015625)"/>
       </defs>
       <use xlink:href="#Cambria-20b" transform="translate(0 0.9375)"/>
       <use xlink:href="#Cmmi10-80" transform="translate(38.183594 0.9375)"/>
       <use xlink:href="#Cmr10-29" transform="translate(108.47662 0.9375)"/>
       <use xlink:href="#Cmr10-6e" transform="translate(206.162224 0.9375)"/>
       <use xlink:href="#Cmr10-64" transform="translate(256.162224 0.9375)"/>
       <use xlink:href="#Cambria-20c" transform="translate(306.162224 0.9375)"/>
      </g>
     </g>
    </g>
    <g id="xtick_2">
     <g id="line2d_2"/>
     <g id="text_2">
      <!-- $b=7$ -->
      <g style="fill: #52514e" transform="translate(170.370375 225.223096) scale(0.09 -0.09)">
       <defs>
        <path id="Cmr10-7f" d="M 1113 166 
Q 1113 522 1175 862 
Q 1238 1203 1358 1536 
Q 1478 1869 1648 2189 
Q 1819 2509 2022 2791 
L 2606 3603 
L 1875 3603 
Q 738 3603 703 3572 
Q 619 3469 544 2981 
L 359 2981 
L 569 4325 
L 756 4325 
L 756 4306 
Q 756 4191 1147 4156 
Q 1538 4122 1913 4122 
L 3103 4122 
L 3103 3956 
Q 3103 3950 3101 3947 
Q 3100 3944 3097 3938 
L 2216 2700 
Q 1891 2219 1809 1631 
Q 1728 1044 1728 166 
Q 1728 41 1637 -50 
Q 1547 -141 1422 -141 
Q 1294 -141 1203 -50 
Q 1113 41 1113 166 
z
" transform="scale(0.015625)"/>
       </defs>
       <use xlink:href="#Cmmi10-4b" transform="translate(0 0.609375)"/>
       <use xlink:href="#Cmr10-29" transform="translate(62.919979 0.609375)"/>
       <use xlink:href="#Cmr10-7f" transform="translate(160.605583 0.609375)"/>
      </g>
      <!-- ($p=127$) -->
      <g style="fill: #52514e" transform="translate(162.090375 235.774365) scale(0.09 -0.09)">
       <defs>
        <path id="Cmr10-31" d="M 319 0 
L 319 172 
Q 319 188 331 206 
L 1325 1306 
Q 1550 1550 1690 1715 
Q 1831 1881 1968 2097 
Q 2106 2313 2186 2536 
Q 2266 2759 2266 3009 
Q 2266 3272 2169 3511 
Q 2072 3750 1880 3894 
Q 1688 4038 1416 4038 
Q 1138 4038 916 3870 
Q 694 3703 603 3438 
Q 628 3444 672 3444 
Q 816 3444 917 3347 
Q 1019 3250 1019 3097 
Q 1019 2950 917 2848 
Q 816 2747 672 2747 
Q 522 2747 420 2851 
Q 319 2956 319 3097 
Q 319 3338 409 3548 
Q 500 3759 670 3923 
Q 841 4088 1055 4175 
Q 1269 4263 1509 4263 
Q 1875 4263 2190 4108 
Q 2506 3953 2690 3670 
Q 2875 3388 2875 3009 
Q 2875 2731 2753 2481 
Q 2631 2231 2440 2026 
Q 2250 1822 1953 1562 
Q 1656 1303 1563 1216 
L 838 519 
L 1453 519 
Q 1906 519 2211 526 
Q 2516 534 2534 550 
Q 2609 631 2688 1141 
L 2875 1141 
L 2694 0 
L 319 0 
z
" transform="scale(0.015625)"/>
       </defs>
       <use xlink:href="#Cambria-20b" transform="translate(0 0.9375)"/>
       <use xlink:href="#Cmmi10-80" transform="translate(38.183594 0.9375)"/>
       <use xlink:href="#Cmr10-29" transform="translate(108.47662 0.9375)"/>
       <use xlink:href="#Cmr10-64" transform="translate(206.162224 0.9375)"/>
       <use xlink:href="#Cmr10-31" transform="translate(256.162224 0.9375)"/>
       <use xlink:href="#Cmr10-7f" transform="translate(306.162224 0.9375)"/>
       <use xlink:href="#Cambria-20c" transform="translate(356.162224 0.9375)"/>
      </g>
     </g>
    </g>
    <g id="xtick_3">
     <g id="line2d_3"/>
     <g id="text_3">
      <!-- $b=9$ -->
      <g style="fill: #52514e" transform="translate(270.482875 225.223096) scale(0.09 -0.09)">
       <defs>
        <path id="Cmr10-16" d="M 722 269 
Q 897 63 1331 63 
Q 1575 63 1786 228 
Q 1997 394 2113 634 
Q 2247 906 2284 1214 
Q 2322 1522 2322 1978 
Q 2213 1719 2008 1553 
Q 1803 1388 1538 1388 
Q 1166 1388 873 1589 
Q 581 1791 425 2120 
Q 269 2450 269 2822 
Q 269 3206 444 3539 
Q 619 3872 928 4067 
Q 1238 4263 1631 4263 
Q 2019 4263 2280 4052 
Q 2541 3841 2678 3508 
Q 2816 3175 2870 2803 
Q 2925 2431 2925 2069 
Q 2925 1575 2744 1061 
Q 2563 547 2202 203 
Q 1841 -141 1331 -141 
Q 953 -141 690 37 
Q 428 216 428 575 
Q 428 706 517 795 
Q 606 884 738 884 
Q 866 884 955 795 
Q 1044 706 1044 575 
Q 1044 450 953 359 
Q 863 269 738 269 
L 722 269 
z
M 1563 1556 
Q 1825 1556 1992 1732 
Q 2159 1909 2234 2171 
Q 2309 2434 2309 2694 
L 2309 2816 
L 2309 2841 
Q 2309 3322 2168 3700 
Q 2028 4078 1631 4078 
Q 1378 4078 1220 3967 
Q 1063 3856 988 3672 
Q 913 3488 892 3278 
Q 872 3069 872 2822 
Q 872 2459 906 2203 
Q 941 1947 1094 1751 
Q 1247 1556 1563 1556 
z
" transform="scale(0.015625)"/>
       </defs>
       <use xlink:href="#Cmmi10-4b" transform="translate(0 0.609375)"/>
       <use xlink:href="#Cmr10-29" transform="translate(62.919979 0.609375)"/>
       <use xlink:href="#Cmr10-16" transform="translate(160.605583 0.609375)"/>
      </g>
      <!-- ($p=503$) -->
      <g style="fill: #52514e" transform="translate(262.202875 235.774365) scale(0.09 -0.09)">
       <defs>
        <path id="Cmr10-28" d="M 1600 -141 
Q 816 -141 533 504 
Q 250 1150 250 2041 
Q 250 2597 351 3087 
Q 453 3578 754 3920 
Q 1056 4263 1600 4263 
Q 2022 4263 2290 4056 
Q 2559 3850 2700 3523 
Q 2841 3197 2892 2823 
Q 2944 2450 2944 2041 
Q 2944 1491 2842 1011 
Q 2741 531 2444 195 
Q 2147 -141 1600 -141 
z
M 1600 25 
Q 1956 25 2131 390 
Q 2306 756 2347 1200 
Q 2388 1644 2388 2144 
Q 2388 2625 2347 3031 
Q 2306 3438 2132 3767 
Q 1959 4097 1600 4097 
Q 1238 4097 1063 3765 
Q 888 3434 847 3029 
Q 806 2625 806 2144 
Q 806 1788 823 1472 
Q 841 1156 916 820 
Q 991 484 1158 254 
Q 1325 25 1600 25 
z
" transform="scale(0.015625)"/>
       </defs>
       <use xlink:href="#Cambria-20b" transform="translate(0 0.9375)"/>
       <use xlink:href="#Cmmi10-80" transform="translate(38.183594 0.9375)"/>
       <use xlink:href="#Cmr10-29" transform="translate(108.47662 0.9375)"/>
       <use xlink:href="#Cmr10-78" transform="translate(206.162224 0.9375)"/>
       <use xlink:href="#Cmr10-28" transform="translate(256.162224 0.9375)"/>
       <use xlink:href="#Cmr10-6e" transform="translate(306.162224 0.9375)"/>
       <use xlink:href="#Cambria-20c" transform="translate(356.162224 0.9375)"/>
      </g>
     </g>
    </g>
    <g id="xtick_4">
     <g id="line2d_4"/>
     <g id="text_4">
      <!-- $b=11$ -->
      <g style="fill: #52514e" transform="translate(368.345375 225.223096) scale(0.09 -0.09)">
       <use xlink:href="#Cmmi10-4b" transform="translate(0 0.609375)"/>
       <use xlink:href="#Cmr10-29" transform="translate(62.919979 0.609375)"/>
       <use xlink:href="#Cmr10-64" transform="translate(160.605583 0.609375)"/>
       <use xlink:href="#Cmr10-64" transform="translate(210.605583 0.609375)"/>
      </g>
      <!-- ($p=2039$) -->
      <g style="fill: #52514e" transform="translate(360.065375 235.774365) scale(0.09 -0.09)">
       <use xlink:href="#Cambria-20b" transform="translate(0 0.9375)"/>
       <use xlink:href="#Cmmi10-80" transform="translate(38.183594 0.9375)"/>
       <use xlink:href="#Cmr10-29" transform="translate(108.47662 0.9375)"/>
       <use xlink:href="#Cmr10-31" transform="translate(206.162224 0.9375)"/>
       <use xlink:href="#Cmr10-28" transform="translate(256.162224 0.9375)"/>
       <use xlink:href="#Cmr10-6e" transform="translate(306.162224 0.9375)"/>
       <use xlink:href="#Cmr10-16" transform="translate(356.162224 0.9375)"/>
       <use xlink:href="#Cambria-20c" transform="translate(406.162224 0.9375)"/>
      </g>
     </g>
    </g>
   </g>
   <g id="matplotlib.axis_2">
    <g id="ytick_1">
     <g id="line2d_5"/>
     <g id="text_5">
      <!-- $k=1$ -->
      <g style="fill: #52514e" transform="translate(7.2 49.992734) scale(0.1 -0.1)">
       <defs>
        <path id="Cmmi10-3e" d="M 341 116 
Q 341 153 347 172 
L 1275 3872 
Q 1300 3981 1306 4044 
Q 1306 4147 891 4147 
Q 825 4147 825 4231 
Q 828 4247 839 4287 
Q 850 4328 867 4350 
Q 884 4372 916 4372 
L 1778 4441 
L 1797 4441 
Q 1797 4434 1819 4423 
Q 1841 4413 1844 4409 
Q 1856 4378 1856 4359 
L 1184 1684 
Q 1416 1781 1767 2145 
Q 2119 2509 2317 2668 
Q 2516 2828 2816 2828 
Q 2994 2828 3119 2706 
Q 3244 2584 3244 2406 
Q 3244 2294 3197 2198 
Q 3150 2103 3065 2043 
Q 2981 1984 2869 1984 
Q 2766 1984 2695 2048 
Q 2625 2113 2625 2216 
Q 2625 2369 2733 2473 
Q 2841 2578 2994 2578 
Q 2931 2663 2803 2663 
Q 2613 2663 2436 2553 
Q 2259 2444 2054 2239 
Q 1850 2034 1681 1864 
Q 1513 1694 1369 1606 
Q 1747 1563 2025 1408 
Q 2303 1253 2303 934 
Q 2303 869 2278 769 
Q 2222 528 2222 384 
Q 2222 97 2419 97 
Q 2650 97 2770 350 
Q 2891 603 2969 941 
Q 2981 978 3022 978 
L 3097 978 
Q 3122 978 3139 962 
Q 3156 947 3156 922 
Q 3156 916 3150 903 
Q 2909 -72 2406 -72 
Q 2225 -72 2086 12 
Q 1947 97 1872 242 
Q 1797 388 1797 569 
Q 1797 672 1825 781 
Q 1844 856 1844 922 
Q 1844 1169 1625 1297 
Q 1406 1425 1125 1453 
L 800 147 
Q 775 50 703 -11 
Q 631 -72 538 -72 
Q 456 -72 398 -17 
Q 341 38 341 116 
z
" transform="scale(0.015625)"/>
       </defs>
       <use xlink:href="#Cmmi10-3e" transform="translate(0 0.609375)"/>
       <use xlink:href="#Cmr10-29" transform="translate(72.00201 0.609375)"/>
       <use xlink:href="#Cmr10-64" transform="translate(169.687614 0.609375)"/>
      </g>
     </g>
    </g>
    <g id="ytick_2">
     <g id="line2d_6"/>
     <g id="text_6">
      <!-- $k=2$ -->
      <g style="fill: #52514e" transform="translate(7.2 97.540439) scale(0.1 -0.1)">
       <use xlink:href="#Cmmi10-3e" transform="translate(0 0.609375)"/>
       <use xlink:href="#Cmr10-29" transform="translate(72.00201 0.609375)"/>
       <use xlink:href="#Cmr10-31" transform="translate(169.687614 0.609375)"/>
      </g>
     </g>
    </g>
    <g id="ytick_3">
     <g id="line2d_7"/>
     <g id="text_7">
      <!-- $k=3$ -->
      <g style="fill: #52514e" transform="translate(7.2 145.088144) scale(0.1 -0.1)">
       <use xlink:href="#Cmmi10-3e" transform="translate(0 0.609375)"/>
       <use xlink:href="#Cmr10-29" transform="translate(72.00201 0.609375)"/>
       <use xlink:href="#Cmr10-6e" transform="translate(169.687614 0.609375)"/>
      </g>
     </g>
    </g>
    <g id="ytick_4">
     <g id="line2d_8"/>
     <g id="text_8">
      <!-- $k=4$ -->
      <g style="fill: #52514e" transform="translate(7.2 192.635849) scale(0.1 -0.1)">
       <defs>
        <path id="Cmr10-3b" d="M 178 1056 
L 178 1281 
L 2156 4231 
Q 2178 4263 2222 4263 
L 2316 4263 
Q 2388 4263 2388 4191 
L 2388 1281 
L 3016 1281 
L 3016 1056 
L 2388 1056 
L 2388 428 
Q 2388 297 2575 261 
Q 2763 225 3009 225 
L 3009 0 
L 1247 0 
L 1247 225 
Q 1494 225 1681 261 
Q 1869 297 1869 428 
L 1869 1056 
L 178 1056 
z
M 391 1281 
L 1906 1281 
L 1906 3547 
L 391 1281 
z
" transform="scale(0.015625)"/>
       </defs>
       <use xlink:href="#Cmmi10-3e" transform="translate(0 0.609375)"/>
       <use xlink:href="#Cmr10-29" transform="translate(72.00201 0.609375)"/>
       <use xlink:href="#Cmr10-3b" transform="translate(169.687614 0.609375)"/>
      </g>
     </g>
    </g>
   </g>
   <g id="text_9">
    <!-- 3/9 -->
    <g style="fill: #0b0b0b" transform="translate(71.302875 45.553555) scale(0.1 -0.1)">
     <defs>
      <path id="Cambria-Bold-375" d="M 456 3238 
L 456 3978 
Q 1247 4316 1891 4316 
Q 2275 4316 2570 4209 
Q 2866 4103 3027 3898 
Q 3188 3694 3188 3403 
Q 3188 3138 3081 2936 
Q 2975 2734 2783 2584 
Q 2591 2434 2284 2291 
L 2284 2263 
Q 2556 2216 2779 2081 
Q 3003 1947 3136 1722 
Q 3269 1497 3269 1200 
Q 3269 838 3092 555 
Q 2916 272 2556 111 
Q 2197 -50 1684 -50 
Q 1331 -50 990 14 
Q 650 78 397 194 
L 397 978 
L 959 978 
Q 1050 622 1215 461 
Q 1381 300 1650 300 
Q 2313 300 2313 1119 
Q 2313 1559 2080 1775 
Q 1847 1991 1372 1991 
L 1125 1991 
L 1125 2347 
Q 1669 2369 1950 2601 
Q 2231 2834 2231 3275 
Q 2231 3622 2090 3798 
Q 1950 3975 1681 3975 
Q 1528 3975 1398 3908 
Q 1269 3841 1167 3673 
Q 1066 3506 1019 3238 
L 456 3238 
z
" transform="scale(0.015625)"/>
      <path id="Cambria-Bold-200" d="M 3053 4472 
L 797 -1344 
L 181 -1344 
L 2444 4472 
L 3053 4472 
z
" transform="scale(0.015625)"/>
      <path id="Cambria-Bold-37b" d="M 1019 134 
L 1019 359 
Q 1222 363 1375 397 
Q 1556 434 1717 517 
Q 1878 600 2000 722 
Q 2150 869 2250 1058 
Q 2350 1247 2408 1472 
Q 2466 1697 2494 1941 
L 2463 1953 
Q 2222 1788 1989 1713 
Q 1756 1638 1431 1638 
Q 1063 1638 805 1795 
Q 547 1953 419 2236 
Q 291 2519 291 2897 
Q 291 3313 486 3639 
Q 681 3966 1047 4141 
Q 1413 4316 1913 4316 
Q 2416 4316 2761 4108 
Q 3106 3900 3276 3503 
Q 3447 3106 3447 2544 
Q 3447 1759 3181 1196 
Q 2916 634 2408 318 
Q 1900 3 1181 -50 
L 1019 134 
z
M 1794 2066 
Q 1909 2066 2009 2087 
Q 2109 2109 2198 2154 
Q 2288 2200 2364 2264 
Q 2441 2328 2466 2368 
Q 2491 2409 2508 2487 
Q 2525 2566 2525 2700 
Q 2525 3313 2361 3639 
Q 2197 3966 1881 3966 
Q 1697 3966 1570 3894 
Q 1444 3822 1364 3690 
Q 1284 3559 1250 3376 
Q 1216 3194 1216 2975 
Q 1216 2066 1794 2066 
z
" transform="scale(0.015625)"/>
     </defs>
     <use xlink:href="#Cambria-Bold-375"/>
     <use xlink:href="#Cambria-Bold-200" transform="translate(59.234375 0)"/>
     <use xlink:href="#Cambria-Bold-37b" transform="translate(109.765625 0)"/>
    </g>
   </g>
   <g id="text_10">
    <!-- 2 rational -->
    <g style="fill: #e34948" transform="translate(61.800375 60.213156) scale(0.08 -0.08)">
     <defs>
      <path id="Cambria-Bold-374" d="M 2356 766 
Q 2559 766 2659 795 
Q 2759 825 2817 898 
Q 2875 972 2913 1119 
L 3272 1119 
L 3200 0 
L 338 0 
L 338 206 
Q 469 506 717 859 
Q 966 1213 1322 1631 
Q 1659 2028 1836 2284 
Q 2013 2541 2100 2769 
Q 2188 2997 2188 3241 
Q 2188 3584 2034 3779 
Q 1881 3975 1616 3975 
Q 1366 3975 1202 3798 
Q 1038 3622 963 3241 
L 400 3241 
L 400 3978 
Q 781 4131 997 4192 
Q 1213 4253 1423 4284 
Q 1634 4316 1881 4316 
Q 2341 4316 2631 4192 
Q 2922 4069 3051 3858 
Q 3181 3647 3181 3366 
Q 3181 3119 3089 2906 
Q 2997 2694 2770 2422 
Q 2544 2150 2006 1644 
Q 1766 1409 1556 1170 
Q 1347 931 1247 797 
L 1247 766 
L 2356 766 
z
" transform="scale(0.015625)"/>
      <path id="Cambria-Bold-3" transform="scale(0.015625)"/>
      <path id="Cambria-Bold-94" d="M 1434 2653 
L 1475 2644 
Q 1703 2913 1943 3031 
Q 2184 3150 2466 3150 
Q 2656 3150 2866 3109 
L 2866 2247 
L 2300 2247 
Q 2247 2428 2161 2525 
Q 2075 2622 1931 2622 
Q 1863 2622 1780 2580 
Q 1697 2538 1626 2461 
Q 1556 2384 1526 2304 
Q 1497 2225 1487 2144 
Q 1478 2063 1478 1900 
L 1478 903 
Q 1478 606 1500 487 
Q 1522 369 1587 301 
Q 1653 234 1809 206 
L 1809 0 
L 269 0 
L 269 206 
Q 419 247 476 312 
Q 534 378 554 490 
Q 575 603 575 900 
L 575 2184 
Q 575 2416 567 2527 
Q 559 2638 529 2705 
Q 500 2772 439 2814 
Q 378 2856 228 2888 
L 228 3100 
L 1084 3125 
L 1478 3125 
L 1434 2653 
z
" transform="scale(0.015625)"/>
      <path id="Cambria-Bold-83" d="M 2116 409 
L 2069 425 
Q 1813 175 1570 62 
Q 1328 -50 1056 -50 
Q 788 -50 589 48 
Q 391 147 289 322 
Q 188 497 188 725 
Q 188 1184 639 1448 
Q 1091 1713 2009 1781 
L 2009 2078 
Q 2009 2369 1943 2526 
Q 1878 2684 1775 2748 
Q 1672 2813 1528 2813 
Q 1384 2813 1279 2763 
Q 1175 2713 1090 2573 
Q 1006 2434 966 2188 
L 375 2188 
L 375 2756 
Q 663 2884 853 2953 
Q 1044 3022 1230 3067 
Q 1416 3113 1562 3131 
Q 1709 3150 1856 3150 
Q 2234 3150 2461 3050 
Q 2688 2950 2800 2725 
Q 2913 2500 2913 2103 
L 2913 884 
Q 2913 678 2922 565 
Q 2931 453 2951 398 
Q 2972 344 3003 311 
Q 3034 278 3079 258 
Q 3125 238 3250 206 
L 3250 0 
L 2088 0 
L 2116 409 
z
M 2013 1475 
Q 1528 1463 1295 1294 
Q 1063 1125 1063 800 
Q 1063 606 1169 504 
Q 1275 403 1463 403 
Q 1606 403 1734 479 
Q 1863 556 1938 684 
Q 2013 813 2013 956 
L 2013 1475 
z
" transform="scale(0.015625)"/>
      <path id="Cambria-Bold-96" d="M 2406 375 
Q 2131 141 1906 45 
Q 1681 -50 1431 -50 
Q 966 -50 736 201 
Q 506 453 506 963 
L 506 2709 
L 116 2709 
L 116 2925 
Q 306 2956 397 3018 
Q 488 3081 538 3186 
Q 588 3291 617 3459 
Q 647 3628 663 3881 
L 1409 3881 
L 1409 3100 
L 2300 3100 
L 2300 2709 
L 1409 2709 
L 1409 1300 
Q 1409 947 1442 778 
Q 1475 609 1553 529 
Q 1631 450 1747 450 
Q 1834 450 1903 465 
Q 1972 481 2048 522 
Q 2125 563 2209 638 
L 2406 375 
z
" transform="scale(0.015625)"/>
      <path id="Cambria-Bold-8b" d="M 1453 4347 
L 1453 3581 
L 597 3581 
L 597 4347 
L 1453 4347 
z
M 266 206 
Q 419 247 476 312 
Q 534 378 554 490 
Q 575 603 575 900 
L 575 2353 
Q 575 2506 561 2600 
Q 547 2694 508 2750 
Q 469 2806 401 2836 
Q 334 2866 228 2888 
L 228 3100 
L 1088 3125 
L 1478 3125 
L 1478 903 
Q 1478 728 1483 633 
Q 1488 538 1497 486 
Q 1506 434 1523 393 
Q 1541 353 1569 318 
Q 1597 284 1650 256 
Q 1703 228 1791 206 
L 1791 0 
L 266 0 
L 266 206 
z
" transform="scale(0.015625)"/>
      <path id="Cambria-Bold-91" d="M 1784 -50 
Q 1325 -50 992 111 
Q 659 272 471 626 
Q 284 981 284 1528 
Q 284 1947 400 2253 
Q 516 2559 722 2759 
Q 928 2959 1214 3054 
Q 1500 3150 1834 3150 
Q 2591 3150 2975 2751 
Q 3359 2353 3359 1584 
Q 3359 1041 3168 673 
Q 2978 306 2625 128 
Q 2272 -50 1784 -50 
z
M 1234 1597 
Q 1234 934 1382 604 
Q 1531 275 1831 275 
Q 1997 275 2108 359 
Q 2219 444 2286 603 
Q 2353 763 2381 986 
Q 2409 1209 2409 1488 
Q 2409 2159 2261 2492 
Q 2113 2825 1822 2825 
Q 1609 2825 1481 2690 
Q 1353 2556 1293 2287 
Q 1234 2019 1234 1597 
z
" transform="scale(0.015625)"/>
      <path id="Cambria-Bold-90" d="M 3666 0 
L 2150 0 
L 2150 206 
Q 2294 241 2350 308 
Q 2406 375 2426 489 
Q 2447 603 2447 900 
L 2447 1734 
Q 2447 1956 2437 2098 
Q 2428 2241 2408 2331 
Q 2388 2422 2352 2483 
Q 2316 2544 2272 2583 
Q 2228 2622 2172 2640 
Q 2116 2659 2028 2659 
Q 1909 2659 1781 2586 
Q 1653 2513 1565 2383 
Q 1478 2253 1478 2106 
L 1478 903 
Q 1478 606 1497 490 
Q 1516 375 1573 308 
Q 1631 241 1778 206 
L 1778 0 
L 269 0 
L 269 206 
Q 419 247 476 312 
Q 534 378 554 490 
Q 575 603 575 900 
L 575 2184 
Q 575 2416 567 2527 
Q 559 2638 529 2705 
Q 500 2772 439 2814 
Q 378 2856 228 2888 
L 228 3100 
L 1084 3125 
L 1478 3125 
L 1431 2675 
L 1469 2666 
Q 1663 2838 1809 2936 
Q 1956 3034 2117 3092 
Q 2278 3150 2456 3150 
Q 2713 3150 2881 3076 
Q 3050 3003 3154 2862 
Q 3259 2722 3304 2519 
Q 3350 2316 3350 2047 
L 3350 903 
Q 3350 766 3354 645 
Q 3359 525 3378 453 
Q 3397 381 3430 336 
Q 3463 291 3522 259 
Q 3581 228 3666 206 
L 3666 0 
z
" transform="scale(0.015625)"/>
      <path id="Cambria-Bold-8e" d="M 1438 903 
Q 1438 606 1456 493 
Q 1475 381 1533 314 
Q 1591 247 1750 206 
L 1750 0 
L 219 0 
L 219 206 
Q 313 228 366 258 
Q 419 288 448 327 
Q 478 366 500 427 
Q 522 488 528 595 
Q 534 703 534 903 
L 534 3341 
Q 534 3609 529 3736 
Q 525 3863 511 3948 
Q 497 4034 464 4086 
Q 431 4138 372 4169 
Q 313 4200 181 4225 
L 181 4431 
L 1047 4475 
L 1438 4475 
L 1438 903 
z
" transform="scale(0.015625)"/>
     </defs>
     <use xlink:href="#Cambria-Bold-374"/>
     <use xlink:href="#Cambria-Bold-3" transform="translate(59.234375 0)"/>
     <use xlink:href="#Cambria-Bold-94" transform="translate(81.25 0)"/>
     <use xlink:href="#Cambria-Bold-83" transform="translate(125.6875 0)"/>
     <use xlink:href="#Cambria-Bold-96" transform="translate(179.203125 0)"/>
     <use xlink:href="#Cambria-Bold-8b" transform="translate(215.734375 0)"/>
     <use xlink:href="#Cambria-Bold-91" transform="translate(247.1875 0)"/>
     <use xlink:href="#Cambria-Bold-90" transform="translate(304.125 0)"/>
     <use xlink:href="#Cambria-Bold-83" transform="translate(364.484375 0)"/>
     <use xlink:href="#Cambria-Bold-8e" transform="translate(418 0)"/>
    </g>
   </g>
   <g id="text_11">
    <!-- 6/9 -->
    <g style="fill: #fcfcfb" transform="translate(171.415375 45.553555) scale(0.1 -0.1)">
     <defs>
      <path id="Cambria-Bold-378" d="M 2975 4100 
L 2975 3906 
Q 2291 3891 1866 3483 
Q 1441 3075 1300 2316 
L 1331 2303 
Q 1575 2472 1822 2550 
Q 2069 2628 2363 2628 
Q 2722 2628 2980 2470 
Q 3238 2313 3369 2025 
Q 3500 1738 3500 1356 
Q 3500 941 3325 623 
Q 3150 306 2786 128 
Q 2422 -50 1894 -50 
Q 1409 -50 1061 144 
Q 713 338 528 716 
Q 344 1094 344 1634 
Q 344 2366 651 2956 
Q 959 3547 1525 3906 
Q 2091 4266 2806 4316 
L 2975 4100 
z
M 1994 2197 
Q 1841 2197 1706 2151 
Q 1572 2106 1469 2029 
Q 1366 1953 1330 1904 
Q 1294 1856 1278 1765 
Q 1263 1675 1263 1447 
Q 1263 875 1422 587 
Q 1581 300 1909 300 
Q 2097 300 2223 372 
Q 2350 444 2428 573 
Q 2506 703 2540 886 
Q 2575 1069 2575 1291 
Q 2575 1738 2426 1967 
Q 2278 2197 1994 2197 
z
" transform="scale(0.015625)"/>
     </defs>
     <use xlink:href="#Cambria-Bold-378"/>
     <use xlink:href="#Cambria-Bold-200" transform="translate(59.234375 0)"/>
     <use xlink:href="#Cambria-Bold-37b" transform="translate(109.765625 0)"/>
    </g>
   </g>
   <g id="text_12">
    <!-- 0/9 -->
    <g style="fill: #0b0b0b" transform="translate(271.527875 45.553555) scale(0.1 -0.1)">
     <defs>
      <path id="Cambria-Bold-372" d="M 1856 -50 
Q 1369 -50 1039 164 
Q 709 378 531 856 
Q 353 1334 353 2094 
Q 353 2809 534 3304 
Q 716 3800 1067 4058 
Q 1419 4316 1913 4316 
Q 2681 4316 3059 3792 
Q 3438 3269 3438 2191 
Q 3438 1084 3036 517 
Q 2634 -50 1856 -50 
z
M 1303 2184 
Q 1303 1497 1364 1090 
Q 1425 684 1556 492 
Q 1688 300 1906 300 
Q 2025 300 2114 358 
Q 2203 416 2273 539 
Q 2344 663 2394 867 
Q 2444 1072 2466 1376 
Q 2488 1681 2488 2056 
Q 2488 2616 2445 2997 
Q 2403 3378 2325 3584 
Q 2247 3791 2140 3878 
Q 2034 3966 1894 3966 
Q 1728 3966 1614 3856 
Q 1500 3747 1431 3525 
Q 1363 3303 1333 2968 
Q 1303 2634 1303 2184 
z
" transform="scale(0.015625)"/>
     </defs>
     <use xlink:href="#Cambria-Bold-372"/>
     <use xlink:href="#Cambria-Bold-200" transform="translate(59.234375 0)"/>
     <use xlink:href="#Cambria-Bold-37b" transform="translate(109.765625 0)"/>
    </g>
   </g>
   <g id="text_13">
    <!-- 0/9 -->
    <g style="fill: #0b0b0b" transform="translate(371.640375 45.553555) scale(0.1 -0.1)">
     <use xlink:href="#Cambria-Bold-372"/>
     <use xlink:href="#Cambria-Bold-200" transform="translate(59.234375 0)"/>
     <use xlink:href="#Cambria-Bold-37b" transform="translate(109.765625 0)"/>
    </g>
   </g>
   <g id="text_14">
    <!-- 9/9 -->
    <g style="fill: #fcfcfb" transform="translate(71.302875 93.10126) scale(0.1 -0.1)">
     <use xlink:href="#Cambria-Bold-37b"/>
     <use xlink:href="#Cambria-Bold-200" transform="translate(59.234375 0)"/>
     <use xlink:href="#Cambria-Bold-37b" transform="translate(109.765625 0)"/>
    </g>
   </g>
   <g id="text_15">
    <!-- 6/9 -->
    <g style="fill: #fcfcfb" transform="translate(171.415375 93.10126) scale(0.1 -0.1)">
     <use xlink:href="#Cambria-Bold-378"/>
     <use xlink:href="#Cambria-Bold-200" transform="translate(59.234375 0)"/>
     <use xlink:href="#Cambria-Bold-37b" transform="translate(109.765625 0)"/>
    </g>
   </g>
   <g id="text_16">
    <!-- 3/9 -->
    <g style="fill: #0b0b0b" transform="translate(271.527875 93.10126) scale(0.1 -0.1)">
     <use xlink:href="#Cambria-Bold-375"/>
     <use xlink:href="#Cambria-Bold-200" transform="translate(59.234375 0)"/>
     <use xlink:href="#Cambria-Bold-37b" transform="translate(109.765625 0)"/>
    </g>
   </g>
   <g id="text_17">
    <!-- 0/9 -->
    <g style="fill: #0b0b0b" transform="translate(371.640375 93.10126) scale(0.1 -0.1)">
     <use xlink:href="#Cambria-Bold-372"/>
     <use xlink:href="#Cambria-Bold-200" transform="translate(59.234375 0)"/>
     <use xlink:href="#Cambria-Bold-37b" transform="translate(109.765625 0)"/>
    </g>
   </g>
   <g id="text_18">
    <!-- 9/9 -->
    <g style="fill: #fcfcfb" transform="translate(71.302875 140.648965) scale(0.1 -0.1)">
     <use xlink:href="#Cambria-Bold-37b"/>
     <use xlink:href="#Cambria-Bold-200" transform="translate(59.234375 0)"/>
     <use xlink:href="#Cambria-Bold-37b" transform="translate(109.765625 0)"/>
    </g>
   </g>
   <g id="text_19">
    <!-- 9/9 -->
    <g style="fill: #fcfcfb" transform="translate(171.415375 140.648965) scale(0.1 -0.1)">
     <use xlink:href="#Cambria-Bold-37b"/>
     <use xlink:href="#Cambria-Bold-200" transform="translate(59.234375 0)"/>
     <use xlink:href="#Cambria-Bold-37b" transform="translate(109.765625 0)"/>
    </g>
   </g>
   <g id="text_20">
    <!-- 9/9 -->
    <g style="fill: #fcfcfb" transform="translate(271.527875 140.648965) scale(0.1 -0.1)">
     <use xlink:href="#Cambria-Bold-37b"/>
     <use xlink:href="#Cambria-Bold-200" transform="translate(59.234375 0)"/>
     <use xlink:href="#Cambria-Bold-37b" transform="translate(109.765625 0)"/>
    </g>
   </g>
   <g id="text_21">
    <!-- 9/9 -->
    <g style="fill: #fcfcfb" transform="translate(371.640375 140.648965) scale(0.1 -0.1)">
     <use xlink:href="#Cambria-Bold-37b"/>
     <use xlink:href="#Cambria-Bold-200" transform="translate(59.234375 0)"/>
     <use xlink:href="#Cambria-Bold-37b" transform="translate(109.765625 0)"/>
    </g>
   </g>
   <g id="text_22">
    <!-- 9/9 -->
    <g style="fill: #fcfcfb" transform="translate(71.302875 188.19667) scale(0.1 -0.1)">
     <use xlink:href="#Cambria-Bold-37b"/>
     <use xlink:href="#Cambria-Bold-200" transform="translate(59.234375 0)"/>
     <use xlink:href="#Cambria-Bold-37b" transform="translate(109.765625 0)"/>
    </g>
   </g>
   <g id="text_23">
    <!-- 9/9 -->
    <g style="fill: #fcfcfb" transform="translate(171.415375 188.19667) scale(0.1 -0.1)">
     <use xlink:href="#Cambria-Bold-37b"/>
     <use xlink:href="#Cambria-Bold-200" transform="translate(59.234375 0)"/>
     <use xlink:href="#Cambria-Bold-37b" transform="translate(109.765625 0)"/>
    </g>
   </g>
   <g id="text_24">
    <!-- 9/9 -->
    <g style="fill: #fcfcfb" transform="translate(271.527875 188.19667) scale(0.1 -0.1)">
     <use xlink:href="#Cambria-Bold-37b"/>
     <use xlink:href="#Cambria-Bold-200" transform="translate(59.234375 0)"/>
     <use xlink:href="#Cambria-Bold-37b" transform="translate(109.765625 0)"/>
    </g>
   </g>
   <g id="text_25">
    <!-- 9/9 -->
    <g style="fill: #fcfcfb" transform="translate(371.640375 188.19667) scale(0.1 -0.1)">
     <use xlink:href="#Cambria-Bold-37b"/>
     <use xlink:href="#Cambria-Bold-200" transform="translate(59.234375 0)"/>
     <use xlink:href="#Cambria-Bold-37b" transform="translate(109.765625 0)"/>
    </g>
   </g>
   <g id="text_26">
    <!-- Finite-field relations through bound 8 (count/variants); rational relations outlined -->
    <g style="fill: #0b0b0b" transform="translate(32.7 15.756152) scale(0.11 -0.11)">
     <defs>
      <path id="Cambria-9" d="M 3228 4266 
L 3228 3322 
L 2922 3322 
Q 2853 3534 2789 3665 
Q 2725 3797 2654 3865 
Q 2584 3934 2490 3962 
Q 2397 3991 2244 3991 
L 1328 3991 
L 1328 2291 
L 1972 2291 
Q 2109 2291 2187 2336 
Q 2266 2381 2317 2487 
Q 2369 2594 2416 2816 
L 2709 2816 
L 2709 1497 
L 2416 1497 
Q 2369 1709 2316 1817 
Q 2263 1925 2189 1970 
Q 2116 2016 1972 2016 
L 1328 2016 
L 1328 791 
Q 1328 603 1350 490 
Q 1372 378 1422 312 
Q 1472 247 1556 214 
Q 1641 181 1766 153 
L 1766 0 
L 378 0 
L 378 153 
Q 572 203 637 264 
Q 703 325 723 437 
Q 744 550 744 781 
L 744 3484 
Q 744 3700 728 3798 
Q 713 3897 677 3951 
Q 641 4006 581 4039 
Q 522 4072 378 4113 
L 378 4266 
L 3228 4266 
z
" transform="scale(0.015625)"/>
      <path id="Cambria-8b" d="M 1197 4213 
L 1197 3606 
L 622 3606 
L 622 4213 
L 1197 4213 
z
M 303 153 
Q 425 191 476 219 
Q 528 247 564 297 
Q 600 347 620 450 
Q 641 553 641 772 
L 641 2134 
Q 641 2334 634 2456 
Q 628 2578 590 2651 
Q 553 2725 476 2761 
Q 400 2797 259 2822 
L 259 2988 
L 988 3016 
L 1178 3016 
L 1178 781 
Q 1178 513 1203 408 
Q 1228 303 1298 248 
Q 1369 194 1528 153 
L 1528 0 
L 303 0 
L 303 153 
z
" transform="scale(0.015625)"/>
      <path id="Cambria-90" d="M 3347 0 
L 2116 0 
L 2116 153 
Q 2238 191 2291 219 
Q 2344 247 2380 297 
Q 2416 347 2436 451 
Q 2456 556 2456 769 
L 2456 1588 
Q 2456 1806 2443 1984 
Q 2431 2163 2401 2277 
Q 2372 2391 2330 2455 
Q 2288 2519 2230 2564 
Q 2172 2609 2097 2636 
Q 2022 2663 1900 2663 
Q 1778 2663 1668 2614 
Q 1559 2566 1428 2447 
Q 1297 2328 1237 2212 
Q 1178 2097 1178 1947 
L 1178 781 
Q 1178 513 1203 408 
Q 1228 303 1298 248 
Q 1369 194 1528 153 
L 1528 0 
L 303 0 
L 303 153 
Q 425 191 476 219 
Q 528 247 564 297 
Q 600 347 620 450 
Q 641 553 641 772 
L 641 2134 
Q 641 2334 634 2456 
Q 628 2578 590 2651 
Q 553 2725 476 2761 
Q 400 2797 259 2822 
L 259 2988 
L 991 3016 
L 1181 3016 
L 1147 2506 
L 1191 2494 
Q 1422 2728 1564 2828 
Q 1706 2928 1851 2983 
Q 1997 3038 2159 3038 
Q 2328 3038 2461 2998 
Q 2594 2959 2695 2878 
Q 2797 2797 2862 2676 
Q 2928 2556 2961 2387 
Q 2994 2219 2994 1959 
L 2994 781 
Q 2994 566 3006 469 
Q 3019 372 3050 319 
Q 3081 266 3140 230 
Q 3200 194 3347 153 
L 3347 0 
z
" transform="scale(0.015625)"/>
      <path id="Cambria-96" d="M 116 2831 
Q 272 2856 369 2918 
Q 466 2981 520 3079 
Q 575 3178 606 3326 
Q 638 3475 672 3759 
L 1116 3759 
L 1116 2988 
L 2125 2988 
L 2125 2672 
L 1116 2672 
L 1116 1281 
Q 1116 978 1141 798 
Q 1166 619 1234 517 
Q 1303 416 1390 372 
Q 1478 328 1616 328 
Q 1741 328 1850 379 
Q 1959 431 2066 528 
L 2206 359 
Q 1984 144 1786 47 
Q 1588 -50 1375 -50 
Q 972 -50 775 189 
Q 578 428 578 938 
L 578 2672 
L 116 2672 
L 116 2831 
z
" transform="scale(0.015625)"/>
      <path id="Cambria-87" d="M 2800 531 
Q 2600 322 2433 203 
Q 2266 84 2066 17 
Q 1866 -50 1625 -50 
Q 981 -50 653 336 
Q 325 722 325 1475 
Q 325 1941 492 2297 
Q 659 2653 968 2847 
Q 1278 3041 1681 3041 
Q 1997 3041 2219 2941 
Q 2441 2841 2573 2667 
Q 2706 2494 2779 2230 
Q 2853 1966 2863 1541 
L 894 1541 
L 894 1484 
Q 894 1116 976 864 
Q 1059 613 1248 470 
Q 1438 328 1741 328 
Q 1997 328 2201 423 
Q 2406 519 2609 734 
L 2800 531 
z
M 2275 1800 
Q 2256 2138 2190 2352 
Q 2125 2566 1994 2680 
Q 1863 2794 1650 2794 
Q 1328 2794 1136 2536 
Q 944 2278 909 1800 
L 2275 1800 
z
" transform="scale(0.015625)"/>
      <path id="Cambria-1e6" d="M 1788 1403 
L 338 1403 
L 338 1888 
L 1788 1888 
L 1788 1403 
z
" transform="scale(0.015625)"/>
      <path id="Cambria-3d0" d="M 1909 2672 
L 1163 2672 
L 1163 781 
Q 1163 572 1183 465 
Q 1203 359 1242 304 
Q 1281 250 1345 217 
Q 1409 184 1550 153 
L 1550 0 
L 272 0 
L 272 153 
Q 409 191 468 225 
Q 528 259 561 312 
Q 594 366 609 466 
Q 625 566 625 781 
L 625 2672 
L 247 2672 
L 247 2831 
Q 416 2850 483 2898 
Q 550 2947 581 3040 
Q 613 3134 622 3300 
Q 644 3684 798 3953 
Q 953 4222 1212 4355 
Q 1472 4488 1816 4488 
Q 1994 4488 2153 4459 
L 2153 3888 
L 1897 3888 
Q 1863 4059 1795 4136 
Q 1728 4213 1603 4213 
Q 1488 4213 1405 4159 
Q 1322 4106 1264 3992 
Q 1206 3878 1184 3697 
Q 1163 3516 1163 3263 
L 1163 2988 
L 1909 2988 
L 1909 2672 
z
" transform="scale(0.015625)"/>
      <path id="Cambria-8e" d="M 1138 781 
Q 1138 513 1163 408 
Q 1188 303 1258 248 
Q 1328 194 1488 153 
L 1488 0 
L 247 0 
L 247 153 
Q 403 194 464 237 
Q 525 281 551 342 
Q 578 403 589 508 
Q 600 613 600 781 
L 600 3397 
Q 600 3697 595 3815 
Q 591 3934 570 4017 
Q 550 4100 514 4147 
Q 478 4194 417 4222 
Q 356 4250 197 4278 
L 197 4441 
L 950 4472 
L 1138 4472 
L 1138 781 
z
" transform="scale(0.015625)"/>
      <path id="Cambria-86" d="M 2413 3397 
Q 2413 3697 2408 3815 
Q 2403 3934 2383 4017 
Q 2363 4100 2327 4147 
Q 2291 4194 2230 4222 
Q 2169 4250 2009 4278 
L 2009 4441 
L 2766 4472 
L 2950 4472 
L 2950 853 
Q 2950 609 2959 504 
Q 2969 400 3000 337 
Q 3031 275 3098 236 
Q 3166 197 3334 163 
L 3334 0 
L 2597 -31 
L 2409 -31 
L 2447 481 
L 2400 494 
Q 2203 284 2058 179 
Q 1913 75 1748 12 
Q 1584 -50 1397 -50 
Q 884 -50 606 339 
Q 328 728 328 1463 
Q 328 1975 509 2333 
Q 691 2691 998 2866 
Q 1306 3041 1691 3041 
Q 1897 3041 2065 3008 
Q 2234 2975 2413 2900 
L 2413 3397 
z
M 2413 1853 
Q 2413 2097 2391 2244 
Q 2369 2391 2317 2491 
Q 2266 2591 2178 2659 
Q 2091 2728 1986 2759 
Q 1881 2791 1734 2791 
Q 1334 2791 1125 2470 
Q 916 2150 916 1550 
Q 916 950 1087 637 
Q 1259 325 1609 325 
Q 1747 325 1837 348 
Q 1928 372 2015 423 
Q 2103 475 2193 565 
Q 2284 656 2326 731 
Q 2369 806 2391 903 
Q 2413 1000 2413 1153 
L 2413 1853 
z
" transform="scale(0.015625)"/>
      <path id="Cambria-3" transform="scale(0.015625)"/>
      <path id="Cambria-94" d="M 1147 2469 
L 1191 2459 
Q 1363 2669 1509 2789 
Q 1656 2909 1826 2975 
Q 1997 3041 2213 3041 
Q 2394 3041 2541 3022 
L 2541 2303 
L 2188 2303 
Q 2113 2472 2028 2548 
Q 1944 2625 1797 2625 
Q 1684 2625 1573 2559 
Q 1463 2494 1359 2369 
Q 1256 2244 1217 2134 
Q 1178 2025 1178 1875 
L 1178 781 
Q 1178 497 1212 389 
Q 1247 281 1326 231 
Q 1406 181 1566 153 
L 1566 0 
L 306 0 
L 306 153 
Q 425 191 476 219 
Q 528 247 565 297 
Q 603 347 622 450 
Q 641 553 641 772 
L 641 2134 
Q 641 2334 634 2456 
Q 628 2578 590 2651 
Q 553 2725 476 2761 
Q 400 2797 259 2822 
L 259 2984 
L 991 3016 
L 1181 3016 
L 1147 2469 
z
" transform="scale(0.015625)"/>
      <path id="Cambria-83" d="M 2109 447 
L 2063 459 
Q 1791 181 1552 65 
Q 1313 -50 1044 -50 
Q 806 -50 625 42 
Q 444 134 347 301 
Q 250 469 250 688 
Q 250 1144 701 1392 
Q 1153 1641 2056 1681 
L 2056 1884 
Q 2056 2209 1993 2396 
Q 1931 2584 1797 2671 
Q 1663 2759 1438 2759 
Q 1194 2759 1045 2631 
Q 897 2503 822 2247 
L 413 2247 
L 413 2653 
Q 713 2809 913 2882 
Q 1113 2956 1313 2998 
Q 1513 3041 1719 3041 
Q 2028 3041 2215 2942 
Q 2403 2844 2497 2641 
Q 2591 2438 2591 2028 
L 2591 941 
Q 2591 709 2594 614 
Q 2597 519 2612 437 
Q 2628 356 2659 307 
Q 2691 259 2752 225 
Q 2813 191 2950 153 
L 2950 0 
L 2094 0 
L 2109 447 
z
M 2056 1425 
Q 1422 1419 1106 1256 
Q 791 1094 791 766 
Q 791 588 862 484 
Q 934 381 1043 342 
Q 1153 303 1303 303 
Q 1516 303 1689 406 
Q 1863 509 1959 668 
Q 2056 828 2056 984 
L 2056 1425 
z
" transform="scale(0.015625)"/>
      <path id="Cambria-91" d="M 1663 -50 
Q 1013 -50 670 333 
Q 328 716 328 1466 
Q 328 1981 508 2337 
Q 688 2694 1000 2867 
Q 1313 3041 1713 3041 
Q 2381 3041 2725 2652 
Q 3069 2263 3069 1534 
Q 3069 1016 2897 659 
Q 2725 303 2409 126 
Q 2094 -50 1663 -50 
z
M 919 1531 
Q 919 888 1123 542 
Q 1328 197 1709 197 
Q 1919 197 2066 298 
Q 2213 400 2305 572 
Q 2397 744 2437 970 
Q 2478 1197 2478 1444 
Q 2478 1903 2376 2206 
Q 2275 2509 2100 2651 
Q 1925 2794 1700 2794 
Q 1322 2794 1120 2466 
Q 919 2138 919 1531 
z
" transform="scale(0.015625)"/>
      <path id="Cambria-95" d="M 2397 2303 
L 2097 2303 
Q 2028 2491 1934 2598 
Q 1841 2706 1722 2750 
Q 1603 2794 1431 2794 
Q 1181 2794 1032 2676 
Q 884 2559 884 2356 
Q 884 2213 943 2119 
Q 1003 2025 1128 1944 
Q 1253 1863 1569 1728 
Q 1888 1591 2061 1475 
Q 2234 1359 2332 1206 
Q 2431 1053 2431 841 
Q 2431 594 2347 425 
Q 2263 256 2109 150 
Q 1956 44 1745 -3 
Q 1534 -50 1284 -50 
Q 1022 -50 775 -11 
Q 528 28 294 91 
L 294 744 
L 600 744 
Q 684 456 850 326 
Q 1016 197 1306 197 
Q 1419 197 1526 220 
Q 1634 244 1718 298 
Q 1803 353 1853 447 
Q 1903 541 1903 681 
Q 1903 841 1840 941 
Q 1778 1041 1647 1123 
Q 1516 1206 1184 1347 
Q 900 1466 728 1578 
Q 556 1691 457 1844 
Q 359 1997 359 2206 
Q 359 2463 498 2652 
Q 638 2841 900 2941 
Q 1163 3041 1516 3041 
Q 1722 3041 1914 3020 
Q 2106 3000 2397 2941 
L 2397 2303 
z
" transform="scale(0.015625)"/>
      <path id="Cambria-8a" d="M 1141 2497 
L 1153 2494 
Q 1397 2741 1539 2839 
Q 1681 2938 1820 2988 
Q 1959 3038 2119 3038 
Q 2291 3038 2425 2997 
Q 2559 2956 2661 2873 
Q 2763 2791 2827 2670 
Q 2891 2550 2922 2383 
Q 2953 2216 2953 1959 
L 2953 781 
Q 2953 509 2976 411 
Q 3000 313 3061 258 
Q 3122 203 3306 153 
L 3306 0 
L 2075 0 
L 2075 153 
Q 2197 191 2250 219 
Q 2303 247 2339 297 
Q 2375 347 2395 451 
Q 2416 556 2416 769 
L 2416 1588 
Q 2416 2003 2373 2223 
Q 2331 2444 2207 2553 
Q 2084 2663 1863 2663 
Q 1738 2663 1638 2619 
Q 1538 2575 1406 2462 
Q 1275 2350 1208 2231 
Q 1141 2113 1141 1978 
L 1141 781 
Q 1141 569 1152 478 
Q 1163 388 1194 327 
Q 1225 266 1289 227 
Q 1353 188 1488 153 
L 1488 0 
L 250 0 
L 250 153 
Q 388 191 447 225 
Q 506 259 539 312 
Q 572 366 587 466 
Q 603 566 603 781 
L 603 3397 
Q 603 3697 598 3815 
Q 594 3934 573 4017 
Q 553 4100 517 4147 
Q 481 4194 420 4222 
Q 359 4250 200 4278 
L 200 4441 
L 953 4472 
L 1141 4472 
L 1141 2497 
z
" transform="scale(0.015625)"/>
      <path id="Cambria-97" d="M 228 2988 
L 1119 2988 
L 1119 1397 
Q 1119 1031 1147 840 
Q 1175 650 1231 553 
Q 1288 456 1391 390 
Q 1494 325 1675 325 
Q 1794 325 1903 372 
Q 2013 419 2147 536 
Q 2281 653 2339 768 
Q 2397 884 2397 1038 
L 2397 2209 
Q 2397 2388 2387 2478 
Q 2378 2569 2356 2623 
Q 2334 2678 2304 2712 
Q 2275 2747 2220 2775 
Q 2166 2803 2044 2834 
L 2044 2988 
L 2934 2988 
L 2934 853 
Q 2934 613 2943 506 
Q 2953 400 2984 337 
Q 3016 275 3081 236 
Q 3147 197 3316 163 
L 3316 0 
L 2600 -31 
L 2409 -31 
L 2428 481 
L 2381 494 
Q 2122 213 1886 81 
Q 1650 -50 1413 -50 
Q 1128 -50 943 62 
Q 759 175 668 398 
Q 578 622 578 1028 
L 578 2209 
Q 578 2472 558 2570 
Q 538 2669 480 2726 
Q 422 2784 228 2834 
L 228 2988 
z
" transform="scale(0.015625)"/>
      <path id="Cambria-89" d="M 3106 2672 
L 2528 2694 
L 2500 2659 
Q 2597 2563 2653 2395 
Q 2709 2228 2709 2034 
Q 2709 1525 2395 1248 
Q 2081 972 1503 972 
Q 1244 972 1056 1038 
Q 819 856 819 681 
Q 819 566 864 506 
Q 909 447 1014 422 
Q 1119 397 1331 397 
L 2081 397 
Q 2413 397 2622 294 
Q 2831 191 2920 17 
Q 3009 -156 3009 -388 
Q 3009 -681 2840 -911 
Q 2672 -1141 2353 -1269 
Q 2034 -1397 1609 -1397 
Q 1294 -1397 1033 -1359 
Q 772 -1322 586 -1233 
Q 400 -1144 298 -998 
Q 197 -853 197 -634 
Q 197 -438 328 -277 
Q 459 -116 700 6 
Q 553 66 468 181 
Q 384 297 384 453 
Q 384 631 484 779 
Q 584 928 838 1119 
Q 613 1250 495 1475 
Q 378 1700 378 1988 
Q 378 2256 467 2454 
Q 556 2653 714 2783 
Q 872 2913 1087 2977 
Q 1303 3041 1553 3041 
Q 1778 3041 2000 2988 
L 3106 2988 
L 3106 2672 
z
M 938 2038 
Q 938 1647 1097 1434 
Q 1256 1222 1556 1222 
Q 1716 1222 1828 1283 
Q 1941 1344 2011 1450 
Q 2081 1556 2114 1695 
Q 2147 1834 2147 1988 
Q 2147 2263 2069 2447 
Q 1991 2631 1856 2717 
Q 1722 2803 1547 2803 
Q 1250 2803 1094 2606 
Q 938 2409 938 2038 
z
M 1016 -50 
Q 856 -169 776 -301 
Q 697 -434 697 -603 
Q 697 -884 920 -1017 
Q 1144 -1150 1603 -1150 
Q 1884 -1150 2086 -1075 
Q 2288 -1000 2394 -859 
Q 2500 -719 2500 -531 
Q 2500 -444 2478 -361 
Q 2456 -278 2395 -212 
Q 2334 -147 2221 -108 
Q 2109 -69 1928 -69 
L 1463 -69 
Q 1209 -69 1016 -50 
z
" transform="scale(0.015625)"/>
      <path id="Cambria-84" d="M 1091 2497 
L 1103 2494 
Q 1322 2722 1467 2825 
Q 1613 2928 1767 2983 
Q 1922 3038 2106 3038 
Q 2441 3038 2680 2867 
Q 2919 2697 3048 2356 
Q 3178 2016 3178 1522 
Q 3178 1013 3023 661 
Q 2869 309 2567 129 
Q 2266 -50 1853 -50 
Q 1622 -50 1417 -8 
Q 1213 34 988 141 
L 769 -50 
L 553 0 
L 553 3397 
Q 553 3697 548 3815 
Q 544 3934 523 4017 
Q 503 4100 467 4147 
Q 431 4194 370 4222 
Q 309 4250 150 4278 
L 150 4441 
L 906 4472 
L 1091 4472 
L 1091 2497 
z
M 1091 1125 
Q 1091 884 1112 742 
Q 1134 600 1186 506 
Q 1238 413 1336 334 
Q 1434 256 1556 226 
Q 1678 197 1828 197 
Q 2203 197 2397 503 
Q 2591 809 2591 1422 
Q 2591 2041 2414 2352 
Q 2238 2663 1881 2663 
Q 1703 2663 1578 2608 
Q 1453 2553 1329 2437 
Q 1206 2322 1148 2209 
Q 1091 2097 1091 1953 
L 1091 1125 
z
" transform="scale(0.015625)"/>
      <path id="Cambria-37a" d="M 2475 2253 
L 2481 2213 
Q 2834 2075 3015 1811 
Q 3197 1547 3197 1175 
Q 3197 809 3022 531 
Q 2847 253 2514 101 
Q 2181 -50 1738 -50 
Q 1322 -50 1008 89 
Q 694 228 520 495 
Q 347 763 347 1125 
Q 347 1397 440 1597 
Q 534 1797 686 1926 
Q 838 2056 1069 2163 
L 1063 2203 
Q 391 2494 391 3200 
Q 391 3522 567 3775 
Q 744 4028 1070 4172 
Q 1397 4316 1794 4316 
Q 2244 4316 2550 4189 
Q 2856 4063 3011 3823 
Q 3166 3584 3166 3250 
Q 3166 2906 2997 2657 
Q 2828 2409 2475 2253 
z
M 978 3228 
Q 978 3044 1022 2881 
Q 1066 2719 1162 2600 
Q 1259 2481 1414 2411 
Q 1569 2341 1794 2341 
Q 2053 2341 2229 2442 
Q 2406 2544 2492 2739 
Q 2578 2934 2578 3191 
Q 2578 3472 2476 3667 
Q 2375 3863 2197 3956 
Q 2019 4050 1788 4050 
Q 1394 4050 1186 3836 
Q 978 3622 978 3228 
z
M 944 1178 
Q 944 975 991 798 
Q 1038 622 1139 494 
Q 1241 366 1400 291 
Q 1559 216 1788 216 
Q 2044 216 2226 320 
Q 2409 425 2504 631 
Q 2600 838 2600 1119 
Q 2600 1419 2497 1636 
Q 2394 1853 2206 1967 
Q 2019 2081 1772 2081 
Q 1541 2081 1383 2009 
Q 1225 1938 1126 1816 
Q 1028 1694 986 1530 
Q 944 1366 944 1178 
z
" transform="scale(0.015625)"/>
      <path id="Cambria-85" d="M 2631 2916 
L 2631 2263 
L 2234 2263 
Q 2181 2466 2103 2583 
Q 2025 2700 1922 2747 
Q 1819 2794 1666 2794 
Q 1447 2794 1278 2653 
Q 1109 2513 1011 2225 
Q 913 1938 913 1522 
Q 913 1256 950 1036 
Q 988 816 1078 659 
Q 1169 503 1319 415 
Q 1469 328 1691 328 
Q 1906 328 2092 412 
Q 2278 497 2478 709 
L 2656 503 
Q 2497 328 2375 233 
Q 2253 138 2114 73 
Q 1975 9 1839 -20 
Q 1703 -50 1544 -50 
Q 953 -50 640 342 
Q 328 734 328 1475 
Q 328 1938 503 2295 
Q 678 2653 993 2847 
Q 1309 3041 1722 3041 
Q 1978 3041 2195 3011 
Q 2413 2981 2631 2916 
z
" transform="scale(0.015625)"/>
      <path id="Cambria-200" d="M 2941 4472 
L 684 -1344 
L 194 -1344 
L 2456 4472 
L 2941 4472 
z
" transform="scale(0.015625)"/>
      <path id="Cambria-98" d="M 1334 2988 
L 1334 2834 
Q 1191 2800 1131 2769 
Q 1072 2738 1042 2688 
Q 1013 2638 1013 2553 
Q 1013 2469 1033 2376 
Q 1053 2284 1097 2163 
L 1641 581 
L 2278 2097 
Q 2341 2247 2366 2344 
Q 2391 2441 2391 2525 
Q 2391 2656 2320 2725 
Q 2250 2794 2063 2834 
L 2063 2988 
L 3231 2988 
L 3231 2834 
Q 3109 2809 3043 2757 
Q 2978 2706 2912 2595 
Q 2847 2484 2756 2284 
L 1703 -31 
L 1334 -31 
L 488 2303 
Q 400 2544 348 2633 
Q 297 2722 236 2765 
Q 175 2809 59 2834 
L 59 2988 
L 1334 2988 
z
" transform="scale(0.015625)"/>
      <path id="Cambria-1e2" d="M 1119 725 
Q 1163 506 1163 294 
Q 1163 75 1088 -106 
Q 1013 -288 848 -467 
Q 684 -647 397 -863 
L 228 -672 
Q 388 -522 459 -401 
Q 531 -281 562 -128 
Q 594 25 594 256 
Q 594 494 572 725 
L 1119 725 
z
M 1156 2822 
L 1156 2091 
L 531 2091 
L 531 2822 
L 1156 2822 
z
" transform="scale(0.015625)"/>
     </defs>
     <use xlink:href="#Cambria-9"/>
     <use xlink:href="#Cambria-8b" transform="translate(53.65625 0)"/>
     <use xlink:href="#Cambria-90" transform="translate(81.4375 0)"/>
     <use xlink:href="#Cambria-8b" transform="translate(137.25 0)"/>
     <use xlink:href="#Cambria-96" transform="translate(165.03125 0)"/>
     <use xlink:href="#Cambria-87" transform="translate(198 0)"/>
     <use xlink:href="#Cambria-1e6" transform="translate(246.78125 0)"/>
     <use xlink:href="#Cambria-3d0" transform="translate(279.984375 0)"/>
     <use xlink:href="#Cambria-8b" transform="translate(310.265625 0)"/>
     <use xlink:href="#Cambria-87" transform="translate(338.046875 0)"/>
     <use xlink:href="#Cambria-8e" transform="translate(386.828125 0)"/>
     <use xlink:href="#Cambria-86" transform="translate(413.984375 0)"/>
     <use xlink:href="#Cambria-3" transform="translate(469.453125 0)"/>
     <use xlink:href="#Cambria-94" transform="translate(491.46875 0)"/>
     <use xlink:href="#Cambria-87" transform="translate(531.359375 0)"/>
     <use xlink:href="#Cambria-8e" transform="translate(580.140625 0)"/>
     <use xlink:href="#Cambria-83" transform="translate(607.296875 0)"/>
     <use xlink:href="#Cambria-96" transform="translate(656.125 0)"/>
     <use xlink:href="#Cambria-8b" transform="translate(689.96875 0)"/>
     <use xlink:href="#Cambria-91" transform="translate(717.75 0)"/>
     <use xlink:href="#Cambria-90" transform="translate(770.828125 0)"/>
     <use xlink:href="#Cambria-95" transform="translate(826.640625 0)"/>
     <use xlink:href="#Cambria-3" transform="translate(869.609375 0)"/>
     <use xlink:href="#Cambria-96" transform="translate(891.625 0)"/>
     <use xlink:href="#Cambria-8a" transform="translate(925.46875 0)"/>
     <use xlink:href="#Cambria-94" transform="translate(980.640625 0)"/>
     <use xlink:href="#Cambria-91" transform="translate(1020.53125 0)"/>
     <use xlink:href="#Cambria-97" transform="translate(1073.609375 0)"/>
     <use xlink:href="#Cambria-89" transform="translate(1128.828125 0)"/>
     <use xlink:href="#Cambria-8a" transform="translate(1177.5625 0)"/>
     <use xlink:href="#Cambria-3" transform="translate(1232.734375 0)"/>
     <use xlink:href="#Cambria-84" transform="translate(1254.75 0)"/>
     <use xlink:href="#Cambria-91" transform="translate(1309.484375 0)"/>
     <use xlink:href="#Cambria-97" transform="translate(1362.5625 0)"/>
     <use xlink:href="#Cambria-90" transform="translate(1417.78125 0)"/>
     <use xlink:href="#Cambria-86" transform="translate(1473.59375 0)"/>
     <use xlink:href="#Cambria-3" transform="translate(1529.0625 0)"/>
     <use xlink:href="#Cambria-37a" transform="translate(1551.078125 0)"/>
     <use xlink:href="#Cambria-3" transform="translate(1606.453125 0)"/>
     <use xlink:href="#Cambria-20b" transform="translate(1628.46875 0)"/>
     <use xlink:href="#Cambria-85" transform="translate(1666.65625 0)"/>
     <use xlink:href="#Cambria-91" transform="translate(1710.75 0)"/>
     <use xlink:href="#Cambria-97" transform="translate(1763.828125 0)"/>
     <use xlink:href="#Cambria-90" transform="translate(1819.046875 0)"/>
     <use xlink:href="#Cambria-96" transform="translate(1874.859375 0)"/>
     <use xlink:href="#Cambria-200" transform="translate(1908.703125 0)"/>
     <use xlink:href="#Cambria-98" transform="translate(1957.734375 0)"/>
     <use xlink:href="#Cambria-83" transform="translate(2005.984375 0)"/>
     <use xlink:href="#Cambria-94" transform="translate(2054.8125 0)"/>
     <use xlink:href="#Cambria-8b" transform="translate(2096.171875 0)"/>
     <use xlink:href="#Cambria-83" transform="translate(2123.953125 0)"/>
     <use xlink:href="#Cambria-90" transform="translate(2172.78125 0)"/>
     <use xlink:href="#Cambria-96" transform="translate(2228.59375 0)"/>
     <use xlink:href="#Cambria-95" transform="translate(2262.4375 0)"/>
     <use xlink:href="#Cambria-20c" transform="translate(2305.40625 0)"/>
     <use xlink:href="#Cambria-1e2" transform="translate(2343.59375 0)"/>
     <use xlink:href="#Cambria-3" transform="translate(2369.96875 0)"/>
     <use xlink:href="#Cambria-94" transform="translate(2391.984375 0)"/>
     <use xlink:href="#Cambria-83" transform="translate(2431.640625 0)"/>
     <use xlink:href="#Cambria-96" transform="translate(2480.46875 0)"/>
     <use xlink:href="#Cambria-8b" transform="translate(2514.3125 0)"/>
     <use xlink:href="#Cambria-91" transform="translate(2542.09375 0)"/>
     <use xlink:href="#Cambria-90" transform="translate(2595.171875 0)"/>
     <use xlink:href="#Cambria-83" transform="translate(2650.984375 0)"/>
     <use xlink:href="#Cambria-8e" transform="translate(2699.8125 0)"/>
     <use xlink:href="#Cambria-3" transform="translate(2726.96875 0)"/>
     <use xlink:href="#Cambria-94" transform="translate(2748.984375 0)"/>
     <use xlink:href="#Cambria-87" transform="translate(2788.875 0)"/>
     <use xlink:href="#Cambria-8e" transform="translate(2837.65625 0)"/>
     <use xlink:href="#Cambria-83" transform="translate(2864.8125 0)"/>
     <use xlink:href="#Cambria-96" transform="translate(2913.640625 0)"/>
     <use xlink:href="#Cambria-8b" transform="translate(2947.484375 0)"/>
     <use xlink:href="#Cambria-91" transform="translate(2975.265625 0)"/>
     <use xlink:href="#Cambria-90" transform="translate(3028.34375 0)"/>
     <use xlink:href="#Cambria-95" transform="translate(3084.15625 0)"/>
     <use xlink:href="#Cambria-3" transform="translate(3127.125 0)"/>
     <use xlink:href="#Cambria-91" transform="translate(3149.140625 0)"/>
     <use xlink:href="#Cambria-97" transform="translate(3202.21875 0)"/>
     <use xlink:href="#Cambria-96" transform="translate(3257.4375 0)"/>
     <use xlink:href="#Cambria-8e" transform="translate(3291.28125 0)"/>
     <use xlink:href="#Cambria-8b" transform="translate(3318.4375 0)"/>
     <use xlink:href="#Cambria-90" transform="translate(3346.21875 0)"/>
     <use xlink:href="#Cambria-87" transform="translate(3402.03125 0)"/>
     <use xlink:href="#Cambria-86" transform="translate(3450.8125 0)"/>
    </g>
   </g>
  </g>
 </g>
 <defs>
  <clipPath id="p8ee6f9726f">
   <rect x="32.7" y="23.756152" width="400.45" height="190.19082"/>
  </clipPath>
 </defs>
</svg>
