<?xml version="1.0" encoding="utf-8" standalone="no"?>
<!DOCTYPE svg PUBLIC "-//W3C//DTD SVG 1.1//EN"
  "http://www.w3.org/Graphics/SVG/1.1/DTD/svg11.dtd">
<svg xmlns:xlink="http://www.w3.org/1999/xlink" width="483.651016pt" height="245.543281pt" viewBox="0 0 483.651016 245.543281" xmlns="http://www.w3.org/2000/svg" version="1.1">
 <metadata>
  <rdf:RDF xmlns:dc="http://purl.org/dc/elements/1.1/" xmlns:cc="http://creativecommons.org/ns#" xmlns:rdf="http://www.w3.org/1999/02/22-rdf-syntax-ns#">
   <cc:Work>
    <dc:type rdf:resource="http://purl.org/dc/dcmitype/StillImage"/>
    <dc:date>2026-07-23T00:53:11.247305</dc:date>
    <dc:format>image/svg+xml</dc:format>
    <dc:creator>
     <cc:Agent>
      <dc:title>Matplotlib v3.11.1, https://matplotlib.org/</dc:title>
     </cc:Agent>
    </dc:creator>
   </cc:Work>
  </rdf:RDF>
 </metadata>
 <defs>
  <style type="text/css">*{stroke-linejoin: round; stroke-linecap: butt}</style>
 </defs>
 <g id="figure_1">
  <g id="patch_1">
   <path d="M 0 245.543281 
L 483.651016 245.543281 
L 483.651016 0 
L 0 0 
z
" style="fill: #fcfcfb"/>
  </g>
  <g id="axes_1">
   <g id="patch_2">
    <path d="M 84.451016 205.365264 
L 476.451016 205.365264 
L 476.451016 25.033281 
L 84.451016 25.033281 
z
" style="fill: #fcfcfb"/>
   </g>
   <g id="matplotlib.axis_1">
    <g id="xtick_1">
     <g id="line2d_1">
      <path d="M 84.451016 205.365264 
L 84.451016 25.033281 
" clip-path="url(#pe38a6b9dc4)" style="fill: none; stroke: #e1e0d9; stroke-width: 0.7; stroke-linecap: square"/>
     </g>
     <g id="line2d_2">
      <defs>
       <path id="m8187ca557a" d="M 0 0 
L 0 3.5 
" style="stroke: #898781; stroke-width: 0.8"/>
      </defs>
      <g>
       <use xlink:href="#m8187ca557a" x="84.451016" y="205.365264" style="fill: #898781; stroke: #898781; stroke-width: 0.8"/>
      </g>
     </g>
     <g id="text_1">
      <!-- 0 -->
      <g style="fill: #52514e" transform="translate(81.228828 220.306914) scale(0.105 -0.105)">
       <defs>
        <path id="Georgia-13" d="M 3209 2919 
Q 3409 2678 3507 2354 
Q 3606 2031 3606 1678 
Q 3606 1253 3484 917 
Q 3363 581 3150 359 
Q 2931 131 2631 15 
Q 2331 -100 1963 -100 
Q 1559 -100 1243 34 
Q 928 169 731 403 
Q 525 647 423 973 
Q 322 1300 322 1678 
Q 322 2050 420 2362 
Q 519 2675 728 2928 
Q 928 3172 1243 3312 
Q 1559 3453 1966 3453 
Q 2394 3453 2700 3309 
Q 3006 3166 3209 2919 
z
M 2916 1678 
Q 2916 2422 2661 2831 
Q 2406 3241 1969 3241 
Q 1525 3241 1269 2831 
Q 1013 2422 1013 1678 
Q 1013 972 1258 542 
Q 1503 113 1963 113 
Q 2422 113 2669 542 
Q 2916 972 2916 1678 
z
" transform="scale(0.015625)"/>
       </defs>
       <use xlink:href="#Georgia-13"/>
      </g>
     </g>
    </g>
    <g id="xtick_2">
     <g id="line2d_3">
      <path d="M 167.855271 205.365264 
L 167.855271 25.033281 
" clip-path="url(#pe38a6b9dc4)" style="fill: none; stroke: #e1e0d9; stroke-width: 0.7; stroke-linecap: square"/>
     </g>
     <g id="line2d_4">
      <g>
       <use xlink:href="#m8187ca557a" x="167.855271" y="205.365264" style="fill: #898781; stroke: #898781; stroke-width: 0.8"/>
      </g>
     </g>
     <g id="text_2">
      <!-- 100 -->
      <g style="fill: #52514e" transform="translate(159.155037 220.306914) scale(0.105 -0.105)">
       <defs>
        <path id="Georgia-14" d="M 2528 0 
L 422 0 
L 422 222 
Q 516 228 714 248 
Q 913 269 988 291 
Q 1084 322 1136 392 
Q 1188 463 1188 603 
L 1188 2797 
L 409 2797 
L 409 3059 
L 581 3059 
Q 919 3059 1186 3184 
Q 1453 3309 1569 3453 
L 1828 3453 
Q 1819 3250 1809 2978 
Q 1800 2706 1800 2491 
L 1800 638 
Q 1800 528 1848 442 
Q 1897 356 1988 316 
Q 2069 281 2253 253 
Q 2438 225 2528 222 
L 2528 0 
z
" transform="scale(0.015625)"/>
       </defs>
       <use xlink:href="#Georgia-14"/>
       <use xlink:href="#Georgia-13" transform="translate(42.96875 0)"/>
       <use xlink:href="#Georgia-13" transform="translate(104.34375 0)"/>
      </g>
     </g>
    </g>
    <g id="xtick_3">
     <g id="line2d_5">
      <path d="M 251.259526 205.365264 
L 251.259526 25.033281 
" clip-path="url(#pe38a6b9dc4)" style="fill: none; stroke: #e1e0d9; stroke-width: 0.7; stroke-linecap: square"/>
     </g>
     <g id="line2d_6">
      <g>
       <use xlink:href="#m8187ca557a" x="251.259526" y="205.365264" style="fill: #898781; stroke: #898781; stroke-width: 0.8"/>
      </g>
     </g>
     <g id="text_3">
      <!-- 200 -->
      <g style="fill: #52514e" transform="translate(241.882534 220.306914) scale(0.105 -0.105)">
       <defs>
        <path id="Georgia-15" d="M 3272 0 
L 344 0 
L 344 425 
Q 428 522 578 642 
Q 728 763 934 903 
Q 1059 988 1234 1088 
Q 1409 1188 1631 1306 
Q 1878 1438 2011 1538 
Q 2144 1638 2253 1784 
Q 2325 1881 2369 2026 
Q 2413 2172 2413 2441 
Q 2413 2831 2203 3014 
Q 1994 3197 1666 3197 
Q 1463 3197 1281 3117 
Q 1100 3038 1009 2897 
Q 1031 2797 1064 2659 
Q 1097 2522 1097 2391 
Q 1097 2272 998 2180 
Q 900 2088 706 2088 
Q 550 2088 465 2195 
Q 381 2303 381 2484 
Q 381 2653 475 2823 
Q 569 2994 744 3138 
Q 916 3278 1169 3365 
Q 1422 3453 1716 3453 
Q 2356 3453 2732 3167 
Q 3109 2881 3109 2403 
Q 3109 2175 3042 1987 
Q 2975 1800 2825 1656 
Q 2659 1497 2437 1383 
Q 2216 1269 1759 1066 
Q 1488 944 1253 811 
Q 1019 678 869 553 
L 3272 553 
L 3272 0 
z
" transform="scale(0.015625)"/>
       </defs>
       <use xlink:href="#Georgia-15"/>
       <use xlink:href="#Georgia-13" transform="translate(55.859375 0)"/>
       <use xlink:href="#Georgia-13" transform="translate(117.234375 0)"/>
      </g>
     </g>
    </g>
    <g id="xtick_4">
     <g id="line2d_7">
      <path d="M 334.663782 205.365264 
L 334.663782 25.033281 
" clip-path="url(#pe38a6b9dc4)" style="fill: none; stroke: #e1e0d9; stroke-width: 0.7; stroke-linecap: square"/>
     </g>
     <g id="line2d_8">
      <g>
       <use xlink:href="#m8187ca557a" x="334.663782" y="205.365264" style="fill: #898781; stroke: #898781; stroke-width: 0.8"/>
      </g>
     </g>
     <g id="text_4">
      <!-- 300 -->
      <g style="fill: #52514e" transform="translate(325.322883 220.306914) scale(0.105 -0.105)">
       <defs>
        <path id="Georgia-16" d="M 1522 -1141 
Q 1228 -1141 984 -1067 
Q 741 -994 566 -869 
Q 391 -744 295 -581 
Q 200 -419 200 -247 
Q 200 -94 275 29 
Q 350 153 516 153 
Q 703 153 801 61 
Q 900 -31 900 -150 
Q 900 -250 867 -403 
Q 834 -556 816 -622 
Q 838 -650 895 -697 
Q 953 -744 1038 -781 
Q 1138 -828 1247 -856 
Q 1356 -884 1556 -884 
Q 1744 -884 1917 -821 
Q 2091 -759 2222 -622 
Q 2359 -478 2436 -286 
Q 2513 -94 2513 219 
Q 2513 388 2477 553 
Q 2441 719 2344 841 
Q 2247 963 2080 1030 
Q 1913 1097 1656 1097 
L 1247 1097 
L 1247 1456 
L 1519 1456 
Q 1950 1456 2140 1693 
Q 2331 1931 2331 2409 
Q 2331 2800 2147 2998 
Q 1963 3197 1625 3197 
Q 1463 3197 1358 3158 
Q 1253 3119 1188 3081 
Q 1109 3038 1059 2984 
Q 1009 2931 984 2906 
Q 1006 2806 1037 2661 
Q 1069 2516 1069 2384 
Q 1069 2269 970 2176 
Q 872 2084 681 2084 
Q 516 2084 439 2203 
Q 363 2322 363 2478 
Q 363 2641 453 2809 
Q 544 2978 722 3125 
Q 900 3272 1156 3362 
Q 1413 3453 1747 3453 
Q 2131 3453 2382 3339 
Q 2634 3225 2778 3063 
Q 2919 2903 2972 2728 
Q 3025 2553 3025 2428 
Q 3025 2272 2981 2114 
Q 2938 1956 2838 1822 
Q 2728 1675 2548 1554 
Q 2369 1434 2097 1359 
L 2097 1309 
Q 2272 1294 2470 1231 
Q 2669 1169 2828 1047 
Q 2994 919 3100 717 
Q 3206 516 3206 206 
Q 3206 -394 2725 -767 
Q 2244 -1141 1522 -1141 
z
" transform="scale(0.015625)"/>
       </defs>
       <use xlink:href="#Georgia-16"/>
       <use xlink:href="#Georgia-13" transform="translate(55.171875 0)"/>
       <use xlink:href="#Georgia-13" transform="translate(116.546875 0)"/>
      </g>
     </g>
    </g>
    <g id="xtick_5">
     <g id="line2d_9">
      <path d="M 418.068037 205.365264 
L 418.068037 25.033281 
" clip-path="url(#pe38a6b9dc4)" style="fill: none; stroke: #e1e0d9; stroke-width: 0.7; stroke-linecap: square"/>
     </g>
     <g id="line2d_10">
      <g>
       <use xlink:href="#m8187ca557a" x="418.068037" y="205.365264" style="fill: #898781; stroke: #898781; stroke-width: 0.8"/>
      </g>
     </g>
     <g id="text_5">
      <!-- 400 -->
      <g style="fill: #52514e" transform="translate(408.657412 220.306914) scale(0.105 -0.105)">
       <defs>
        <path id="Georgia-17" d="M 3388 281 
L 2753 281 
L 2753 -1141 
L 2153 -1141 
L 2153 281 
L 153 281 
L 153 763 
L 2344 3434 
L 2753 3434 
L 2753 691 
L 3388 691 
L 3388 281 
z
M 2153 691 
L 2153 2738 
L 466 691 
L 2153 691 
z
" transform="scale(0.015625)"/>
       </defs>
       <use xlink:href="#Georgia-17"/>
       <use xlink:href="#Georgia-13" transform="translate(56.5 0)"/>
       <use xlink:href="#Georgia-13" transform="translate(117.875 0)"/>
      </g>
     </g>
    </g>
    <g id="text_6">
     <!-- conditional cap on designer selection capacity $b$ (bits) -->
     <g style="fill: #0b0b0b" transform="translate(139.631016 235.703281) scale(0.12 -0.12)">
      <defs>
       <path id="Georgia-46" d="M 1650 -81 
Q 981 -81 603 362 
Q 225 806 225 1553 
Q 225 1878 326 2161 
Q 428 2444 622 2675 
Q 806 2897 1084 3033 
Q 1363 3169 1691 3169 
Q 2144 3169 2428 2951 
Q 2713 2734 2713 2359 
Q 2713 2203 2638 2083 
Q 2563 1963 2391 1963 
Q 2206 1963 2104 2056 
Q 2003 2150 2003 2266 
Q 2003 2406 2040 2554 
Q 2078 2703 2084 2772 
Q 2028 2869 1917 2901 
Q 1806 2934 1678 2934 
Q 1528 2934 1392 2870 
Q 1256 2806 1128 2634 
Q 1013 2478 941 2212 
Q 869 1947 869 1578 
Q 869 997 1126 630 
Q 1384 263 1803 263 
Q 2106 263 2311 409 
Q 2516 556 2691 850 
L 2891 719 
Q 2684 350 2346 134 
Q 2009 -81 1650 -81 
z
" transform="scale(0.015625)"/>
       <path id="Georgia-52" d="M 3228 1572 
Q 3228 1247 3125 933 
Q 3022 619 2831 400 
Q 2616 150 2331 28 
Q 2047 -94 1694 -94 
Q 1400 -94 1134 17 
Q 869 128 663 341 
Q 459 550 339 851 
Q 219 1153 219 1528 
Q 219 2250 639 2709 
Q 1059 3169 1741 3169 
Q 2388 3169 2808 2733 
Q 3228 2297 3228 1572 
z
M 2581 1566 
Q 2581 1800 2534 2061 
Q 2488 2322 2394 2503 
Q 2294 2697 2131 2814 
Q 1969 2931 1734 2931 
Q 1494 2931 1323 2812 
Q 1153 2694 1047 2488 
Q 947 2297 906 2053 
Q 866 1809 866 1581 
Q 866 1281 914 1026 
Q 963 772 1069 572 
Q 1175 372 1336 258 
Q 1497 144 1734 144 
Q 2125 144 2353 522 
Q 2581 900 2581 1566 
z
" transform="scale(0.015625)"/>
       <path id="Georgia-51" d="M 3628 0 
L 2119 0 
L 2119 206 
Q 2191 213 2277 219 
Q 2363 225 2419 244 
Q 2506 272 2548 342 
Q 2591 413 2591 525 
L 2591 2109 
Q 2591 2438 2436 2616 
Q 2281 2794 2059 2794 
Q 1894 2794 1756 2742 
Q 1619 2691 1513 2616 
Q 1409 2544 1348 2461 
Q 1288 2378 1259 2328 
L 1259 556 
Q 1259 450 1303 381 
Q 1347 313 1434 275 
Q 1500 244 1576 228 
Q 1653 213 1734 206 
L 1734 0 
L 225 0 
L 225 206 
Q 297 213 373 219 
Q 450 225 506 244 
Q 594 272 636 342 
Q 678 413 678 525 
L 678 2428 
Q 678 2534 633 2623 
Q 588 2713 506 2769 
Q 447 2806 365 2823 
Q 284 2841 191 2847 
L 191 3050 
L 1216 3119 
L 1259 3075 
L 1259 2641 
L 1275 2641 
Q 1350 2716 1462 2820 
Q 1575 2925 1675 2991 
Q 1791 3066 1950 3116 
Q 2109 3166 2309 3166 
Q 2753 3166 2967 2889 
Q 3181 2613 3181 2153 
L 3181 550 
Q 3181 441 3218 373 
Q 3256 306 3347 269 
Q 3422 238 3476 225 
Q 3531 213 3628 206 
L 3628 0 
z
" transform="scale(0.015625)"/>
       <path id="Georgia-47" d="M 3600 56 
L 2525 -13 
L 2478 31 
L 2478 319 
L 2453 325 
Q 2291 144 2052 28 
Q 1813 -88 1559 -88 
Q 1297 -88 1051 29 
Q 806 147 625 359 
Q 441 575 333 878 
Q 225 1181 225 1547 
Q 225 1881 340 2181 
Q 456 2481 659 2706 
Q 850 2916 1126 3041 
Q 1403 3166 1691 3166 
Q 1906 3166 2114 3111 
Q 2322 3056 2472 2972 
L 2472 4044 
Q 2472 4175 2428 4283 
Q 2384 4391 2306 4447 
Q 2219 4506 2070 4532 
Q 1922 4559 1750 4572 
L 1750 4766 
L 3009 4838 
L 3056 4791 
L 3056 634 
Q 3056 525 3098 448 
Q 3141 372 3222 319 
Q 3281 281 3393 272 
Q 3506 263 3600 259 
L 3600 56 
z
M 2472 597 
L 2472 2400 
Q 2447 2481 2390 2575 
Q 2334 2669 2250 2747 
Q 2159 2825 2037 2876 
Q 1916 2928 1753 2928 
Q 1566 2928 1408 2831 
Q 1250 2734 1128 2553 
Q 1013 2378 945 2108 
Q 878 1838 878 1509 
Q 878 1247 928 1033 
Q 978 819 1097 634 
Q 1206 459 1376 353 
Q 1547 247 1781 247 
Q 2031 247 2195 356 
Q 2359 466 2472 597 
z
" transform="scale(0.015625)"/>
       <path id="Georgia-4c" d="M 1722 0 
L 231 0 
L 231 206 
Q 303 213 379 219 
Q 456 225 513 244 
Q 600 272 642 342 
Q 684 413 684 525 
L 684 2428 
Q 684 2528 639 2611 
Q 594 2694 513 2750 
Q 453 2788 340 2814 
Q 228 2841 134 2847 
L 134 3050 
L 1222 3119 
L 1266 3075 
L 1266 563 
Q 1266 453 1308 381 
Q 1350 309 1441 275 
Q 1509 247 1575 230 
Q 1641 213 1722 206 
L 1722 0 
z
M 1328 4334 
Q 1328 4156 1211 4023 
Q 1094 3891 922 3891 
Q 763 3891 645 4017 
Q 528 4144 528 4306 
Q 528 4478 645 4606 
Q 763 4734 922 4734 
Q 1100 4734 1214 4614 
Q 1328 4494 1328 4334 
z
" transform="scale(0.015625)"/>
       <path id="Georgia-57" d="M 2128 134 
Q 1925 50 1744 -8 
Q 1563 -66 1300 -66 
Q 913 -66 755 129 
Q 597 325 597 681 
L 597 2769 
L 41 2769 
L 41 3069 
L 609 3069 
L 609 4028 
L 1178 4028 
L 1178 3069 
L 2063 3069 
L 2063 2769 
L 1184 2769 
L 1184 1047 
Q 1184 853 1198 723 
Q 1213 594 1266 497 
Q 1316 406 1416 359 
Q 1516 313 1684 313 
Q 1763 313 1914 327 
Q 2066 341 2128 363 
L 2128 134 
z
" transform="scale(0.015625)"/>
       <path id="Georgia-44" d="M 3144 56 
Q 2997 3 2886 -30 
Q 2775 -63 2634 -63 
Q 2391 -63 2245 51 
Q 2100 166 2059 384 
L 2041 384 
Q 1838 159 1605 40 
Q 1372 -78 1044 -78 
Q 697 -78 473 134 
Q 250 347 250 691 
Q 250 869 300 1009 
Q 350 1150 450 1263 
Q 528 1356 656 1429 
Q 784 1503 897 1547 
Q 1038 1600 1467 1744 
Q 1897 1888 2047 1969 
L 2047 2278 
Q 2047 2319 2030 2434 
Q 2013 2550 1956 2653 
Q 1894 2769 1780 2855 
Q 1666 2941 1456 2941 
Q 1313 2941 1189 2892 
Q 1066 2844 1016 2791 
Q 1016 2728 1045 2606 
Q 1075 2484 1075 2381 
Q 1075 2272 976 2181 
Q 878 2091 703 2091 
Q 547 2091 473 2202 
Q 400 2313 400 2450 
Q 400 2594 501 2725 
Q 603 2856 766 2959 
Q 906 3047 1106 3108 
Q 1306 3169 1497 3169 
Q 1759 3169 1954 3133 
Q 2150 3097 2309 2978 
Q 2469 2863 2551 2664 
Q 2634 2466 2634 2153 
Q 2634 1706 2625 1361 
Q 2616 1016 2616 606 
Q 2616 484 2658 412 
Q 2700 341 2788 291 
Q 2834 263 2936 259 
Q 3038 256 3144 256 
L 3144 56 
z
M 2053 1706 
Q 1788 1628 1588 1553 
Q 1388 1478 1216 1366 
Q 1059 1259 968 1114 
Q 878 969 878 769 
Q 878 509 1014 387 
Q 1150 266 1359 266 
Q 1581 266 1750 373 
Q 1919 481 2034 628 
L 2053 1706 
z
" transform="scale(0.015625)"/>
       <path id="Georgia-4f" d="M 1669 0 
L 166 0 
L 166 206 
Q 238 213 319 220 
Q 400 228 453 244 
Q 541 272 584 342 
Q 628 413 628 525 
L 628 4094 
Q 628 4206 579 4304 
Q 531 4403 453 4459 
Q 397 4497 247 4528 
Q 97 4559 6 4566 
L 6 4766 
L 1166 4838 
L 1209 4791 
L 1209 563 
Q 1209 453 1250 383 
Q 1291 313 1381 275 
Q 1450 244 1517 228 
Q 1584 213 1669 206 
L 1669 0 
z
" transform="scale(0.015625)"/>
       <path id="Georgia-3" transform="scale(0.015625)"/>
       <path id="Georgia-53" d="M 3041 2716 
Q 3225 2497 3326 2208 
Q 3428 1919 3428 1547 
Q 3428 1181 3306 879 
Q 3184 578 2984 366 
Q 2775 150 2519 34 
Q 2263 -81 1975 -81 
Q 1697 -81 1519 -18 
Q 1341 44 1228 128 
L 1203 128 
L 1203 -797 
Q 1203 -909 1247 -984 
Q 1291 -1059 1381 -1094 
Q 1456 -1122 1595 -1148 
Q 1734 -1175 1825 -1178 
L 1825 -1388 
L 103 -1388 
L 103 -1178 
Q 200 -1172 290 -1162 
Q 381 -1153 453 -1131 
Q 547 -1100 584 -1022 
Q 622 -944 622 -838 
L 622 2441 
Q 622 2534 575 2621 
Q 528 2709 453 2763 
Q 397 2800 297 2820 
Q 197 2841 103 2847 
L 103 3050 
L 1153 3119 
L 1197 3081 
L 1197 2734 
L 1222 2728 
Q 1384 2916 1625 3041 
Q 1866 3166 2103 3166 
Q 2391 3166 2630 3044 
Q 2869 2922 3041 2716 
z
M 2531 500 
Q 2656 694 2715 950 
Q 2775 1206 2775 1522 
Q 2775 1753 2725 1993 
Q 2675 2234 2569 2413 
Q 2463 2594 2291 2706 
Q 2119 2819 1878 2819 
Q 1647 2819 1484 2717 
Q 1322 2616 1203 2475 
L 1203 653 
Q 1231 569 1295 478 
Q 1359 388 1438 322 
Q 1534 244 1646 195 
Q 1759 147 1922 147 
Q 2097 147 2259 239 
Q 2422 331 2531 500 
z
" transform="scale(0.015625)"/>
       <path id="Georgia-48" d="M 2963 725 
Q 2769 356 2444 137 
Q 2119 -81 1697 -81 
Q 1325 -81 1045 50 
Q 766 181 584 406 
Q 403 631 314 931 
Q 225 1231 225 1566 
Q 225 1866 320 2155 
Q 416 2444 600 2675 
Q 778 2897 1042 3033 
Q 1306 3169 1634 3169 
Q 1972 3169 2212 3062 
Q 2453 2956 2603 2772 
Q 2747 2597 2817 2359 
Q 2888 2122 2888 1844 
L 2888 1638 
L 847 1638 
Q 847 1334 905 1087 
Q 963 841 1088 653 
Q 1209 472 1406 367 
Q 1603 263 1875 263 
Q 2153 263 2354 392 
Q 2556 522 2744 859 
L 2963 725 
z
M 2272 1900 
Q 2272 2075 2242 2275 
Q 2213 2475 2147 2609 
Q 2075 2753 1950 2843 
Q 1825 2934 1628 2934 
Q 1300 2934 1083 2661 
Q 866 2388 847 1900 
L 2272 1900 
z
" transform="scale(0.015625)"/>
       <path id="Georgia-56" d="M 2259 1509 
Q 2388 1397 2456 1250 
Q 2525 1103 2525 891 
Q 2525 463 2204 191 
Q 1884 -81 1375 -81 
Q 1106 -81 879 16 
Q 653 113 556 194 
L 494 -9 
L 259 -9 
L 228 1063 
L 444 1063 
Q 469 941 550 778 
Q 631 616 747 484 
Q 869 347 1039 253 
Q 1209 159 1422 159 
Q 1722 159 1884 295 
Q 2047 431 2047 684 
Q 2047 816 1995 911 
Q 1944 1006 1844 1078 
Q 1741 1150 1591 1208 
Q 1441 1266 1256 1322 
Q 1109 1366 929 1442 
Q 750 1519 622 1622 
Q 484 1731 396 1890 
Q 309 2050 309 2266 
Q 309 2644 590 2906 
Q 872 3169 1344 3169 
Q 1525 3169 1714 3122 
Q 1903 3075 2022 3009 
L 2094 3172 
L 2319 3172 
L 2366 2181 
L 2150 2181 
Q 2084 2513 1867 2720 
Q 1650 2928 1338 2928 
Q 1081 2928 934 2800 
Q 788 2672 788 2491 
Q 788 2350 836 2256 
Q 884 2163 981 2097 
Q 1075 2034 1217 1979 
Q 1359 1925 1569 1856 
Q 1775 1791 1958 1703 
Q 2141 1616 2259 1509 
z
" transform="scale(0.015625)"/>
       <path id="Georgia-4a" d="M 2866 319 
Q 2991 200 3062 50 
Q 3134 -100 3134 -322 
Q 3134 -544 3037 -739 
Q 2941 -934 2744 -1078 
Q 2534 -1225 2243 -1306 
Q 1953 -1388 1525 -1388 
Q 825 -1388 478 -1183 
Q 131 -978 131 -584 
Q 131 -266 381 -81 
Q 631 103 1019 119 
L 1019 163 
Q 925 191 825 233 
Q 725 275 653 331 
Q 572 397 522 486 
Q 472 575 472 706 
Q 472 872 589 1011 
Q 706 1150 944 1250 
L 944 1297 
Q 644 1438 478 1658 
Q 313 1878 313 2169 
Q 313 2606 639 2887 
Q 966 3169 1475 3169 
Q 1616 3169 1755 3141 
Q 1894 3113 2038 3069 
L 3113 3069 
L 3113 2769 
L 2388 2769 
L 2388 2750 
Q 2503 2616 2559 2453 
Q 2616 2291 2616 2134 
Q 2616 1728 2286 1447 
Q 1956 1166 1519 1166 
L 1141 1166 
Q 1069 1141 991 1075 
Q 913 1009 913 897 
Q 913 781 978 720 
Q 1044 659 1138 638 
Q 1228 613 1348 606 
Q 1469 600 1597 597 
Q 1734 594 1973 578 
Q 2213 563 2313 559 
Q 2456 553 2601 490 
Q 2747 428 2866 319 
z
M 2022 2147 
Q 2022 2513 1873 2730 
Q 1725 2947 1456 2947 
Q 1309 2947 1204 2886 
Q 1100 2825 1034 2713 
Q 972 2609 945 2464 
Q 919 2319 919 2166 
Q 919 1819 1070 1600 
Q 1222 1381 1463 1381 
Q 1731 1381 1876 1598 
Q 2022 1816 2022 2147 
z
M 2622 -438 
Q 2622 -263 2540 -150 
Q 2459 -38 2294 3 
Q 2206 16 1934 31 
Q 1663 47 1303 47 
Q 966 -19 823 -173 
Q 681 -328 681 -572 
Q 681 -681 728 -781 
Q 775 -881 891 -966 
Q 1000 -1047 1184 -1098 
Q 1369 -1150 1634 -1150 
Q 2094 -1150 2358 -973 
Q 2622 -797 2622 -438 
z
" transform="scale(0.015625)"/>
       <path id="Georgia-55" d="M 2584 2684 
Q 2584 2525 2506 2401 
Q 2428 2278 2266 2278 
Q 2091 2278 1998 2368 
Q 1906 2459 1906 2569 
Q 1906 2638 1917 2694 
Q 1928 2750 1938 2806 
Q 1791 2806 1594 2687 
Q 1397 2569 1259 2350 
L 1259 556 
Q 1259 447 1301 378 
Q 1344 309 1434 275 
Q 1513 244 1636 228 
Q 1759 213 1850 206 
L 1850 0 
L 225 0 
L 225 206 
Q 297 213 373 219 
Q 450 225 506 244 
Q 594 272 636 342 
Q 678 413 678 525 
L 678 2428 
Q 678 2525 633 2619 
Q 588 2713 506 2769 
Q 447 2806 365 2823 
Q 284 2841 191 2847 
L 191 3050 
L 1216 3119 
L 1259 3075 
L 1259 2641 
L 1275 2641 
Q 1469 2894 1706 3025 
Q 1944 3156 2141 3156 
Q 2338 3156 2461 3028 
Q 2584 2900 2584 2684 
z
" transform="scale(0.015625)"/>
       <path id="Georgia-5c" d="M -9 -1006 
Q -9 -850 77 -751 
Q 163 -653 291 -653 
Q 391 -653 462 -690 
Q 534 -728 591 -788 
Q 638 -834 691 -915 
Q 744 -997 775 -1050 
Q 931 -966 1148 -609 
Q 1366 -253 1463 16 
Q 1166 756 925 1340 
Q 684 1925 422 2550 
Q 363 2694 222 2773 
Q 81 2853 -59 2875 
L -59 3081 
L 1347 3081 
L 1347 2863 
Q 1253 2859 1122 2823 
Q 991 2788 991 2741 
Q 991 2722 1005 2678 
Q 1019 2634 1038 2588 
Q 1156 2278 1400 1695 
Q 1644 1113 1778 763 
Q 1919 1097 2070 1455 
Q 2222 1813 2409 2300 
Q 2431 2359 2472 2464 
Q 2513 2569 2513 2644 
Q 2513 2725 2370 2795 
Q 2228 2866 2100 2881 
L 2100 3081 
L 3244 3081 
L 3244 2888 
Q 3150 2872 2997 2780 
Q 2844 2688 2769 2519 
Q 2397 1656 2108 947 
Q 1819 238 1669 -97 
Q 1472 -534 1317 -779 
Q 1163 -1025 1016 -1166 
Q 872 -1297 755 -1342 
Q 638 -1388 513 -1388 
Q 269 -1388 130 -1272 
Q -9 -1156 -9 -1006 
z
" transform="scale(0.015625)"/>
       <path id="Cmmi10-4b" d="M 1106 -72 
Q 719 -72 503 231 
Q 288 534 288 941 
Q 288 1000 317 1173 
Q 347 1347 347 1388 
L 966 3872 
Q 991 3981 997 4044 
Q 997 4147 581 4147 
Q 519 4147 519 4231 
Q 522 4247 533 4287 
Q 544 4328 561 4350 
Q 578 4372 609 4372 
L 1472 4441 
Q 1550 4441 1550 4359 
L 1075 2472 
Q 1438 2828 1806 2828 
Q 2078 2828 2273 2684 
Q 2469 2541 2566 2306 
Q 2663 2072 2663 1806 
Q 2663 1497 2542 1167 
Q 2422 838 2209 555 
Q 1997 272 1712 100 
Q 1428 -72 1106 -72 
z
M 1119 97 
Q 1338 97 1528 280 
Q 1719 463 1838 691 
Q 1966 947 2077 1386 
Q 2188 1825 2188 2088 
Q 2188 2316 2092 2489 
Q 1997 2663 1791 2663 
Q 1559 2663 1348 2492 
Q 1138 2322 978 2088 
L 800 1363 
Q 697 959 691 716 
Q 691 475 795 286 
Q 900 97 1119 97 
z
" transform="scale(0.015625)"/>
       <path id="Georgia-b" d="M 2191 -1025 
Q 1338 -919 852 -165 
Q 366 588 366 1863 
Q 366 3159 852 3917 
Q 1338 4675 2191 4788 
L 2191 4528 
Q 1591 4419 1278 3762 
Q 966 3106 966 1856 
Q 966 666 1272 5 
Q 1578 -656 2191 -769 
L 2191 -1025 
z
" transform="scale(0.015625)"/>
       <path id="Georgia-45" d="M 3353 1544 
Q 3353 850 2915 378 
Q 2478 -94 1900 -94 
Q 1647 -94 1401 -15 
Q 1156 63 941 194 
L 709 -166 
L 516 -122 
Q 531 109 537 434 
Q 544 759 544 1063 
L 544 4113 
Q 544 4219 495 4325 
Q 447 4431 372 4478 
Q 313 4519 173 4539 
Q 34 4559 -50 4566 
L -50 4766 
L 1081 4838 
L 1125 4791 
L 1125 2759 
L 1147 2753 
Q 1341 2959 1570 3062 
Q 1800 3166 2022 3166 
Q 2591 3166 2972 2716 
Q 3353 2266 3353 1544 
z
M 2700 1522 
Q 2700 1753 2650 1993 
Q 2600 2234 2494 2413 
Q 2388 2594 2216 2706 
Q 2044 2819 1803 2819 
Q 1584 2819 1420 2733 
Q 1256 2647 1125 2500 
L 1125 706 
Q 1144 631 1198 531 
Q 1253 431 1347 341 
Q 1441 253 1559 198 
Q 1678 144 1850 144 
Q 2231 144 2465 512 
Q 2700 881 2700 1522 
z
" transform="scale(0.015625)"/>
       <path id="Georgia-c" d="M 2034 1863 
Q 2034 588 1548 -165 
Q 1063 -919 209 -1025 
L 209 -769 
Q 822 -656 1128 5 
Q 1434 666 1434 1856 
Q 1434 3106 1121 3762 
Q 809 4419 209 4528 
L 209 4788 
Q 1063 4675 1548 3917 
Q 2034 3159 2034 1863 
z
" transform="scale(0.015625)"/>
      </defs>
      <use xlink:href="#Georgia-46" transform="translate(0 0.40625)"/>
      <use xlink:href="#Georgia-52" transform="translate(45.410156 0.40625)"/>
      <use xlink:href="#Georgia-51" transform="translate(99.316406 0.40625)"/>
      <use xlink:href="#Georgia-47" transform="translate(158.398438 0.40625)"/>
      <use xlink:href="#Georgia-4c" transform="translate(215.820312 0.40625)"/>
      <use xlink:href="#Georgia-57" transform="translate(245.117188 0.40625)"/>
      <use xlink:href="#Georgia-4c" transform="translate(279.638672 0.40625)"/>
      <use xlink:href="#Georgia-52" transform="translate(308.935547 0.40625)"/>
      <use xlink:href="#Georgia-51" transform="translate(362.841797 0.40625)"/>
      <use xlink:href="#Georgia-44" transform="translate(421.923828 0.40625)"/>
      <use xlink:href="#Georgia-4f" transform="translate(472.314453 0.40625)"/>
      <use xlink:href="#Georgia-3" transform="translate(500.927734 0.40625)"/>
      <use xlink:href="#Georgia-46" transform="translate(525.048828 0.40625)"/>
      <use xlink:href="#Georgia-44" transform="translate(570.458984 0.40625)"/>
      <use xlink:href="#Georgia-53" transform="translate(620.849609 0.40625)"/>
      <use xlink:href="#Georgia-3" transform="translate(677.978516 0.40625)"/>
      <use xlink:href="#Georgia-52" transform="translate(702.099609 0.40625)"/>
      <use xlink:href="#Georgia-51" transform="translate(756.005859 0.40625)"/>
      <use xlink:href="#Georgia-3" transform="translate(815.087891 0.40625)"/>
      <use xlink:href="#Georgia-47" transform="translate(839.208984 0.40625)"/>
      <use xlink:href="#Georgia-48" transform="translate(896.630859 0.40625)"/>
      <use xlink:href="#Georgia-56" transform="translate(944.970703 0.40625)"/>
      <use xlink:href="#Georgia-4c" transform="translate(988.183594 0.40625)"/>
      <use xlink:href="#Georgia-4a" transform="translate(1017.480469 0.40625)"/>
      <use xlink:href="#Georgia-51" transform="translate(1068.408203 0.40625)"/>
      <use xlink:href="#Georgia-48" transform="translate(1127.490234 0.40625)"/>
      <use xlink:href="#Georgia-55" transform="translate(1175.830078 0.40625)"/>
      <use xlink:href="#Georgia-3" transform="translate(1216.796875 0.40625)"/>
      <use xlink:href="#Georgia-56" transform="translate(1240.917969 0.40625)"/>
      <use xlink:href="#Georgia-48" transform="translate(1284.130859 0.40625)"/>
      <use xlink:href="#Georgia-4f" transform="translate(1332.470703 0.40625)"/>
      <use xlink:href="#Georgia-48" transform="translate(1361.083984 0.40625)"/>
      <use xlink:href="#Georgia-46" transform="translate(1409.423828 0.40625)"/>
      <use xlink:href="#Georgia-57" transform="translate(1454.833984 0.40625)"/>
      <use xlink:href="#Georgia-4c" transform="translate(1489.355469 0.40625)"/>
      <use xlink:href="#Georgia-52" transform="translate(1518.652344 0.40625)"/>
      <use xlink:href="#Georgia-51" transform="translate(1572.558594 0.40625)"/>
      <use xlink:href="#Georgia-3" transform="translate(1631.640625 0.40625)"/>
      <use xlink:href="#Georgia-46" transform="translate(1655.761719 0.40625)"/>
      <use xlink:href="#Georgia-44" transform="translate(1701.171875 0.40625)"/>
      <use xlink:href="#Georgia-53" transform="translate(1751.5625 0.40625)"/>
      <use xlink:href="#Georgia-44" transform="translate(1808.691406 0.40625)"/>
      <use xlink:href="#Georgia-46" transform="translate(1859.082031 0.40625)"/>
      <use xlink:href="#Georgia-4c" transform="translate(1904.492188 0.40625)"/>
      <use xlink:href="#Georgia-57" transform="translate(1933.789062 0.40625)"/>
      <use xlink:href="#Georgia-5c" transform="translate(1968.310547 0.40625)"/>
      <use xlink:href="#Georgia-3" transform="translate(2017.529297 0.40625)"/>
      <use xlink:href="#Cmmi10-4b" transform="translate(2041.650391 0.40625)"/>
      <use xlink:href="#Georgia-3" transform="translate(2084.570312 0.40625)"/>
      <use xlink:href="#Georgia-b" transform="translate(2108.691406 0.40625)"/>
      <use xlink:href="#Georgia-45" transform="translate(2146.191406 0.40625)"/>
      <use xlink:href="#Georgia-4c" transform="translate(2202.197266 0.40625)"/>
      <use xlink:href="#Georgia-57" transform="translate(2231.494141 0.40625)"/>
      <use xlink:href="#Georgia-56" transform="translate(2266.015625 0.40625)"/>
      <use xlink:href="#Georgia-c" transform="translate(2309.228516 0.40625)"/>
     </g>
    </g>
   </g>
   <g id="matplotlib.axis_2">
    <g id="ytick_1">
     <g id="line2d_11">
      <path d="M 84.451016 44.344641 
L 476.451016 44.344641 
" clip-path="url(#pe38a6b9dc4)" style="fill: none; stroke: #e1e0d9; stroke-width: 0.7; stroke-linecap: square"/>
     </g>
     <g id="line2d_12">
      <defs>
       <path id="mb8163daf74" d="M 0 0 
L -3.5 0 
" style="stroke: #898781; stroke-width: 0.8"/>
      </defs>
      <g>
       <use xlink:href="#mb8163daf74" x="84.451016" y="44.344641" style="fill: #898781; stroke: #898781; stroke-width: 0.8"/>
      </g>
     </g>
     <g id="text_7">
      <!-- NIST P-256 -->
      <g style="fill: #52514e" transform="translate(27.914453 47.937293) scale(0.095 -0.095)">
       <defs>
        <path id="Georgia-31" d="M 4856 4213 
Q 4769 4209 4587 4162 
Q 4406 4116 4328 4066 
Q 4216 3988 4177 3766 
Q 4138 3544 4138 3203 
L 4138 -44 
L 3866 -44 
L 1178 3584 
L 1178 1297 
Q 1178 913 1226 706 
Q 1275 500 1375 413 
Q 1447 344 1672 284 
Q 1897 225 1969 222 
L 1969 0 
L 150 0 
L 150 222 
Q 234 228 434 283 
Q 634 338 684 381 
Q 794 469 834 648 
Q 875 828 875 1263 
L 875 3447 
Q 875 3591 825 3734 
Q 775 3878 691 3956 
Q 578 4059 386 4132 
Q 194 4206 75 4213 
L 75 4434 
L 1341 4434 
L 3834 1053 
L 3834 3163 
Q 3834 3550 3784 3758 
Q 3734 3966 3641 4034 
Q 3553 4094 3354 4150 
Q 3156 4206 3053 4213 
L 3053 4434 
L 4856 4434 
L 4856 4213 
z
" transform="scale(0.015625)"/>
        <path id="Georgia-2c" d="M 2244 0 
L 247 0 
L 247 222 
Q 331 228 490 240 
Q 650 253 716 278 
Q 819 319 866 389 
Q 913 459 913 584 
L 913 3797 
Q 913 3906 878 3979 
Q 844 4053 716 4103 
Q 622 4141 480 4173 
Q 338 4206 247 4213 
L 247 4434 
L 2244 4434 
L 2244 4213 
Q 2147 4209 2012 4189 
Q 1878 4169 1778 4138 
Q 1659 4100 1618 4015 
Q 1578 3931 1578 3828 
L 1578 619 
Q 1578 516 1623 436 
Q 1669 356 1778 309 
Q 1844 284 1992 254 
Q 2141 225 2244 222 
L 2244 0 
z
" transform="scale(0.015625)"/>
        <path id="Georgia-36" d="M 3066 2034 
Q 3206 1878 3273 1692 
Q 3341 1506 3341 1259 
Q 3341 672 2906 290 
Q 2472 -91 1828 -91 
Q 1531 -91 1234 1 
Q 938 94 722 225 
L 588 -3 
L 338 -3 
L 294 1516 
L 547 1516 
Q 625 1234 729 1007 
Q 834 781 1006 584 
Q 1169 400 1386 290 
Q 1603 181 1891 181 
Q 2106 181 2267 237 
Q 2428 294 2528 397 
Q 2628 500 2676 639 
Q 2725 778 2725 959 
Q 2725 1225 2575 1454 
Q 2425 1684 2128 1803 
Q 1925 1884 1662 1982 
Q 1400 2081 1209 2169 
Q 834 2338 626 2611 
Q 419 2884 419 3325 
Q 419 3578 522 3797 
Q 625 4016 816 4188 
Q 997 4350 1244 4442 
Q 1491 4534 1759 4534 
Q 2066 4534 2308 4440 
Q 2550 4347 2750 4222 
L 2878 4434 
L 3128 4434 
L 3153 2963 
L 2900 2963 
Q 2831 3216 2745 3447 
Q 2659 3678 2522 3866 
Q 2388 4047 2194 4155 
Q 2000 4263 1719 4263 
Q 1422 4263 1212 4072 
Q 1003 3881 1003 3606 
Q 1003 3319 1137 3130 
Q 1272 2941 1528 2819 
Q 1756 2709 1976 2629 
Q 2197 2550 2403 2459 
Q 2591 2378 2764 2275 
Q 2938 2172 3066 2034 
z
" transform="scale(0.015625)"/>
        <path id="Georgia-37" d="M 3909 3231 
L 3694 3231 
Q 3666 3344 3592 3498 
Q 3519 3653 3428 3791 
Q 3334 3934 3223 4042 
Q 3113 4150 3009 4166 
Q 2913 4178 2766 4184 
Q 2619 4191 2494 4191 
L 2313 4191 
L 2313 644 
Q 2313 541 2356 455 
Q 2400 369 2509 322 
Q 2566 300 2745 262 
Q 2925 225 3025 222 
L 3025 0 
L 931 0 
L 931 222 
Q 1019 228 1198 247 
Q 1378 266 1447 294 
Q 1550 334 1598 411 
Q 1647 488 1647 616 
L 1647 4191 
L 1466 4191 
Q 1369 4191 1225 4186 
Q 1081 4181 950 4166 
Q 847 4153 736 4042 
Q 625 3931 531 3791 
Q 438 3650 366 3492 
Q 294 3334 266 3231 
L 47 3231 
L 47 4434 
L 3909 4434 
L 3909 3231 
z
" transform="scale(0.015625)"/>
        <path id="Georgia-33" d="M 3700 3341 
Q 3700 2994 3564 2726 
Q 3428 2459 3188 2284 
Q 2950 2109 2665 2028 
Q 2381 1947 2063 1947 
L 1566 1947 
L 1566 603 
Q 1566 494 1602 411 
Q 1638 328 1750 284 
Q 1806 263 1948 244 
Q 2091 225 2209 222 
L 2209 0 
L 306 0 
L 306 222 
Q 381 228 523 243 
Q 666 259 722 284 
Q 816 325 858 403 
Q 900 481 900 603 
L 900 3803 
Q 900 3913 869 4000 
Q 838 4088 722 4131 
Q 603 4172 486 4189 
Q 369 4206 284 4213 
L 284 4434 
L 2309 4434 
Q 2928 4434 3314 4136 
Q 3700 3838 3700 3341 
z
M 2750 2584 
Q 2856 2734 2890 2895 
Q 2925 3056 2925 3184 
Q 2925 3363 2883 3547 
Q 2841 3731 2738 3869 
Q 2628 4016 2450 4097 
Q 2272 4178 2006 4178 
L 1566 4178 
L 1566 2219 
L 1884 2219 
Q 2222 2219 2433 2323 
Q 2644 2428 2750 2584 
z
" transform="scale(0.015625)"/>
        <path id="Georgia-10" d="M 2128 1453 
L 266 1453 
L 266 1944 
L 2128 1944 
L 2128 1453 
z
" transform="scale(0.015625)"/>
        <path id="Georgia-18" d="M 2634 1466 
Q 2841 1303 2977 1047 
Q 3113 791 3113 406 
Q 3113 -266 2653 -703 
Q 2194 -1141 1488 -1141 
Q 941 -1141 562 -881 
Q 184 -622 184 -278 
Q 184 -119 262 0 
Q 341 119 503 119 
Q 691 119 789 20 
Q 888 -78 888 -194 
Q 888 -294 853 -444 
Q 819 -594 800 -666 
Q 825 -688 881 -725 
Q 938 -763 1016 -797 
Q 1097 -831 1214 -857 
Q 1331 -884 1488 -884 
Q 1688 -884 1866 -803 
Q 2044 -722 2166 -563 
Q 2300 -388 2367 -164 
Q 2434 59 2434 403 
Q 2434 844 2189 1133 
Q 1944 1422 1544 1422 
Q 1294 1422 1076 1328 
Q 859 1234 688 1016 
L 478 1097 
L 744 3353 
L 2981 3353 
L 2981 2797 
L 997 2797 
L 834 1472 
Q 975 1572 1204 1670 
Q 1434 1769 1709 1769 
Q 1938 1769 2183 1698 
Q 2428 1628 2634 1466 
z
" transform="scale(0.015625)"/>
        <path id="Georgia-19" d="M 3359 1441 
Q 3359 1116 3242 831 
Q 3125 547 2928 347 
Q 2700 119 2423 9 
Q 2147 -100 1847 -100 
Q 1500 -100 1219 28 
Q 938 156 741 391 
Q 541 628 431 972 
Q 322 1316 322 1744 
Q 322 2859 986 3625 
Q 1650 4391 2766 4544 
L 2822 4263 
L 2541 4213 
Q 1863 3994 1492 3531 
Q 1122 3069 1013 2409 
Q 1281 2644 1543 2741 
Q 1806 2838 2097 2838 
Q 2619 2838 2989 2438 
Q 3359 2038 3359 1441 
z
M 2681 1356 
Q 2681 1863 2448 2169 
Q 2216 2475 1825 2475 
Q 1591 2475 1389 2387 
Q 1188 2300 1000 2094 
Q 997 2056 990 1920 
Q 984 1784 984 1706 
Q 984 975 1223 561 
Q 1463 147 1853 147 
Q 2225 147 2453 470 
Q 2681 794 2681 1356 
z
" transform="scale(0.015625)"/>
       </defs>
       <use xlink:href="#Georgia-31"/>
       <use xlink:href="#Georgia-2c" transform="translate(76.703125 0)"/>
       <use xlink:href="#Georgia-36" transform="translate(115.671875 0)"/>
       <use xlink:href="#Georgia-37" transform="translate(171.78125 0)"/>
       <use xlink:href="#Georgia-3" transform="translate(233.640625 0)"/>
       <use xlink:href="#Georgia-33" transform="translate(257.765625 0)"/>
       <use xlink:href="#Georgia-10" transform="translate(318.75 0)"/>
       <use xlink:href="#Georgia-15" transform="translate(356.15625 0)"/>
       <use xlink:href="#Georgia-18" transform="translate(412.015625 0)"/>
       <use xlink:href="#Georgia-19" transform="translate(464.84375 0)"/>
      </g>
     </g>
    </g>
    <g id="ytick_2">
     <g id="line2d_13">
      <path d="M 84.451016 79.077304 
L 476.451016 79.077304 
" clip-path="url(#pe38a6b9dc4)" style="fill: none; stroke: #e1e0d9; stroke-width: 0.7; stroke-linecap: square"/>
     </g>
     <g id="line2d_14">
      <g>
       <use xlink:href="#mb8163daf74" x="84.451016" y="79.077304" style="fill: #898781; stroke: #898781; stroke-width: 0.8"/>
      </g>
     </g>
     <g id="text_8">
      <!-- Curve25519 -->
      <g style="fill: #52514e" transform="translate(27.883281 82.669955) scale(0.095 -0.095)">
       <defs>
        <path id="Georgia-26" d="M 2259 -103 
Q 1863 -103 1498 53 
Q 1134 209 853 503 
Q 575 797 409 1220 
Q 244 1644 244 2175 
Q 244 2706 406 3139 
Q 569 3572 856 3884 
Q 1141 4194 1528 4362 
Q 1916 4531 2356 4531 
Q 2684 4531 2950 4450 
Q 3216 4369 3456 4222 
L 3584 4434 
L 3834 4434 
L 3863 2853 
L 3606 2853 
Q 3556 3084 3456 3354 
Q 3356 3625 3222 3813 
Q 3072 4025 2865 4145 
Q 2659 4266 2394 4266 
Q 2091 4266 1830 4131 
Q 1569 3997 1378 3734 
Q 1197 3481 1094 3090 
Q 991 2700 991 2219 
Q 991 1794 1098 1439 
Q 1206 1084 1406 816 
Q 1606 550 1879 400 
Q 2153 250 2491 250 
Q 2744 250 2956 329 
Q 3169 409 3325 541 
Q 3481 678 3600 853 
Q 3719 1028 3794 1234 
L 4028 1122 
Q 3759 463 3315 180 
Q 2872 -103 2259 -103 
z
" transform="scale(0.015625)"/>
        <path id="Georgia-58" d="M 3528 56 
L 2525 -13 
L 2478 31 
L 2478 422 
L 2459 422 
Q 2384 344 2290 255 
Q 2197 166 2075 94 
Q 1934 9 1803 -34 
Q 1672 -78 1431 -78 
Q 1022 -78 808 189 
Q 594 456 594 966 
L 594 2441 
Q 594 2553 551 2629 
Q 509 2706 428 2763 
Q 372 2800 287 2817 
Q 203 2834 109 2841 
L 109 3044 
L 1138 3119 
L 1184 3075 
L 1184 934 
Q 1184 600 1334 431 
Q 1484 263 1694 263 
Q 1866 263 2000 316 
Q 2134 369 2225 441 
Q 2309 506 2373 579 
Q 2438 653 2472 716 
L 2472 2463 
Q 2472 2566 2428 2645 
Q 2384 2725 2306 2781 
Q 2250 2819 2139 2826 
Q 2028 2834 1891 2841 
L 1891 3044 
L 3009 3119 
L 3056 3075 
L 3056 628 
Q 3056 522 3100 447 
Q 3144 372 3222 319 
Q 3278 284 3356 273 
Q 3434 263 3528 259 
L 3528 56 
z
" transform="scale(0.015625)"/>
        <path id="Georgia-59" d="M 3269 2891 
Q 3128 2866 3001 2789 
Q 2875 2713 2784 2519 
Q 2600 2100 2403 1645 
Q 2206 1191 1994 691 
Q 1931 547 1861 350 
Q 1791 153 1731 -28 
L 1488 -28 
Q 1191 706 941 1311 
Q 691 1916 422 2550 
Q 359 2694 220 2773 
Q 81 2853 -59 2875 
L -59 3081 
L 1366 3081 
L 1366 2863 
Q 1272 2859 1131 2823 
Q 991 2788 991 2725 
Q 991 2716 1006 2677 
Q 1022 2638 1038 2588 
Q 1166 2269 1400 1697 
Q 1634 1125 1781 775 
Q 1894 1044 2064 1444 
Q 2234 1844 2431 2338 
Q 2463 2422 2491 2495 
Q 2519 2569 2519 2644 
Q 2519 2697 2467 2739 
Q 2416 2781 2344 2813 
Q 2272 2844 2203 2859 
Q 2134 2875 2091 2881 
L 2091 3081 
L 3269 3081 
L 3269 2891 
z
" transform="scale(0.015625)"/>
        <path id="Georgia-1c" d="M 3300 1613 
Q 3300 1069 3128 589 
Q 2956 109 2634 -253 
Q 2319 -609 1864 -845 
Q 1409 -1081 847 -1156 
L 791 -875 
L 1072 -825 
Q 1744 -613 2122 -172 
Q 2500 269 2609 947 
Q 2353 728 2098 626 
Q 1844 525 1525 525 
Q 1016 525 639 922 
Q 263 1319 263 1922 
Q 263 2569 698 3012 
Q 1134 3456 1775 3456 
Q 2472 3456 2886 2959 
Q 3300 2463 3300 1613 
z
M 2638 1650 
Q 2638 2381 2398 2795 
Q 2159 3209 1769 3209 
Q 1397 3209 1169 2889 
Q 941 2569 941 2006 
Q 941 1500 1173 1194 
Q 1406 888 1797 888 
Q 2041 888 2244 977 
Q 2447 1066 2622 1263 
Q 2622 1275 2626 1312 
Q 2631 1350 2631 1419 
Q 2631 1463 2634 1525 
Q 2638 1588 2638 1650 
z
" transform="scale(0.015625)"/>
       </defs>
       <use xlink:href="#Georgia-26"/>
       <use xlink:href="#Georgia-58" transform="translate(64.203125 0)"/>
       <use xlink:href="#Georgia-55" transform="translate(121.71875 0)"/>
       <use xlink:href="#Georgia-59" transform="translate(162.6875 0)"/>
       <use xlink:href="#Georgia-48" transform="translate(212.34375 0)"/>
       <use xlink:href="#Georgia-15" transform="translate(260.6875 0)"/>
       <use xlink:href="#Georgia-18" transform="translate(316.546875 0)"/>
       <use xlink:href="#Georgia-18" transform="translate(369.375 0)"/>
       <use xlink:href="#Georgia-14" transform="translate(422.203125 0)"/>
       <use xlink:href="#Georgia-1c" transform="translate(465.171875 0)"/>
      </g>
     </g>
    </g>
    <g id="ytick_3">
     <g id="line2d_15">
      <path d="M 84.451016 113.809966 
L 476.451016 113.809966 
" clip-path="url(#pe38a6b9dc4)" style="fill: none; stroke: #e1e0d9; stroke-width: 0.7; stroke-linecap: square"/>
     </g>
     <g id="line2d_16">
      <g>
       <use xlink:href="#mb8163daf74" x="84.451016" y="113.809966" style="fill: #898781; stroke: #898781; stroke-width: 0.8"/>
      </g>
     </g>
     <g id="text_9">
      <!-- brainpoolP256r1 -->
      <g style="fill: #52514e" transform="translate(7.2 117.402617) scale(0.095 -0.095)">
       <use xlink:href="#Georgia-45"/>
       <use xlink:href="#Georgia-55" transform="translate(56 0)"/>
       <use xlink:href="#Georgia-44" transform="translate(96.96875 0)"/>
       <use xlink:href="#Georgia-4c" transform="translate(147.359375 0)"/>
       <use xlink:href="#Georgia-51" transform="translate(176.65625 0)"/>
       <use xlink:href="#Georgia-53" transform="translate(235.734375 0)"/>
       <use xlink:href="#Georgia-52" transform="translate(292.859375 0)"/>
       <use xlink:href="#Georgia-52" transform="translate(346.765625 0)"/>
       <use xlink:href="#Georgia-4f" transform="translate(400.671875 0)"/>
       <use xlink:href="#Georgia-33" transform="translate(429.28125 0)"/>
       <use xlink:href="#Georgia-15" transform="translate(490.265625 0)"/>
       <use xlink:href="#Georgia-18" transform="translate(546.125 0)"/>
       <use xlink:href="#Georgia-19" transform="translate(598.953125 0)"/>
       <use xlink:href="#Georgia-55" transform="translate(655.546875 0)"/>
       <use xlink:href="#Georgia-14" transform="translate(696.515625 0)"/>
      </g>
     </g>
    </g>
    <g id="ytick_4">
     <g id="line2d_17">
      <path d="M 84.451016 148.542628 
L 476.451016 148.542628 
" clip-path="url(#pe38a6b9dc4)" style="fill: none; stroke: #e1e0d9; stroke-width: 0.7; stroke-linecap: square"/>
     </g>
     <g id="line2d_18">
      <g>
       <use xlink:href="#mb8163daf74" x="84.451016" y="148.542628" style="fill: #898781; stroke: #898781; stroke-width: 0.8"/>
      </g>
     </g>
     <g id="text_10">
      <!-- secp256k1 -->
      <g style="fill: #52514e" transform="translate(34.139922 152.13528) scale(0.095 -0.095)">
       <defs>
        <path id="Georgia-4e" d="M 3491 0 
L 2559 0 
Q 2316 353 2037 756 
Q 1759 1159 1459 1541 
L 1203 1300 
L 1203 569 
Q 1203 456 1243 382 
Q 1284 309 1375 275 
Q 1450 244 1519 228 
Q 1588 213 1678 206 
L 1678 0 
L 166 0 
L 166 206 
Q 238 213 316 220 
Q 394 228 447 244 
Q 534 272 578 342 
Q 622 413 622 525 
L 622 4106 
Q 622 4222 573 4323 
Q 525 4425 447 4478 
Q 381 4528 242 4543 
Q 103 4559 19 4566 
L 19 4766 
L 1159 4838 
L 1203 4791 
L 1203 1531 
Q 1447 1775 1730 2054 
Q 2013 2334 2206 2553 
Q 2231 2581 2261 2626 
Q 2291 2672 2291 2700 
Q 2291 2784 2155 2825 
Q 2019 2866 1894 2881 
L 1894 3081 
L 3250 3081 
L 3250 2888 
Q 2988 2809 2786 2692 
Q 2584 2575 2478 2481 
Q 2403 2419 2265 2278 
Q 2128 2138 1881 1909 
Q 2138 1594 2458 1153 
Q 2778 713 2925 516 
Q 3063 331 3172 275 
Q 3281 219 3491 206 
L 3491 0 
z
" transform="scale(0.015625)"/>
       </defs>
       <use xlink:href="#Georgia-56"/>
       <use xlink:href="#Georgia-48" transform="translate(43.21875 0)"/>
       <use xlink:href="#Georgia-46" transform="translate(91.5625 0)"/>
       <use xlink:href="#Georgia-53" transform="translate(136.96875 0)"/>
       <use xlink:href="#Georgia-15" transform="translate(194.09375 0)"/>
       <use xlink:href="#Georgia-18" transform="translate(249.953125 0)"/>
       <use xlink:href="#Georgia-19" transform="translate(302.78125 0)"/>
       <use xlink:href="#Georgia-4e" transform="translate(359.375 0)"/>
       <use xlink:href="#Georgia-14" transform="translate(412.9375 0)"/>
      </g>
     </g>
    </g>
    <g id="ytick_5">
     <g id="line2d_19">
      <path d="M 84.451016 183.27529 
L 476.451016 183.27529 
" clip-path="url(#pe38a6b9dc4)" style="fill: none; stroke: #e1e0d9; stroke-width: 0.7; stroke-linecap: square"/>
     </g>
     <g id="line2d_20">
      <g>
       <use xlink:href="#mb8163daf74" x="84.451016" y="183.27529" style="fill: #898781; stroke: #898781; stroke-width: 0.8"/>
      </g>
     </g>
     <g id="text_11">
      <!-- BLS12-381 -->
      <g style="fill: #52514e" transform="translate(32.245859 186.867942) scale(0.095 -0.095)">
       <defs>
        <path id="Georgia-25" d="M 3450 2066 
Q 3644 1934 3772 1721 
Q 3900 1509 3900 1206 
Q 3900 897 3765 669 
Q 3631 441 3416 294 
Q 3206 150 2942 75 
Q 2678 0 2397 0 
L 297 0 
L 297 222 
Q 372 228 515 248 
Q 659 269 722 297 
Q 819 341 859 414 
Q 900 488 900 603 
L 900 3791 
Q 900 3897 864 3978 
Q 828 4059 722 4109 
Q 628 4156 512 4181 
Q 397 4206 319 4213 
L 319 4434 
L 2366 4434 
Q 2603 4434 2820 4387 
Q 3038 4341 3234 4222 
Q 3419 4113 3537 3925 
Q 3656 3738 3656 3469 
Q 3656 3234 3572 3051 
Q 3488 2869 3334 2738 
Q 3191 2613 3005 2527 
Q 2819 2441 2603 2394 
L 2603 2366 
Q 2794 2344 3030 2270 
Q 3266 2197 3450 2066 
z
M 2697 2734 
Q 2813 2869 2858 3028 
Q 2903 3188 2903 3406 
Q 2903 3772 2703 3980 
Q 2503 4188 2072 4188 
Q 1972 4188 1820 4183 
Q 1669 4178 1566 4175 
L 1566 2472 
L 1963 2472 
Q 2219 2472 2401 2537 
Q 2584 2603 2697 2734 
z
M 3128 1319 
Q 3128 1713 2864 1966 
Q 2600 2219 2109 2219 
Q 1909 2219 1771 2214 
Q 1634 2209 1566 2206 
L 1566 644 
Q 1566 447 1725 347 
Q 1884 247 2169 247 
Q 2634 247 2881 519 
Q 3128 791 3128 1319 
z
" transform="scale(0.015625)"/>
        <path id="Georgia-2f" d="M 3866 1319 
L 3772 0 
L 306 0 
L 306 222 
Q 381 228 523 243 
Q 666 259 722 284 
Q 816 325 858 403 
Q 900 481 900 603 
L 900 3778 
Q 900 3884 864 3965 
Q 828 4047 722 4097 
Q 650 4134 520 4170 
Q 391 4206 306 4213 
L 306 4434 
L 2178 4434 
L 2178 4213 
Q 2091 4209 1952 4181 
Q 1813 4153 1750 4131 
Q 1644 4094 1605 4003 
Q 1566 3913 1566 3809 
L 1566 831 
Q 1566 625 1586 511 
Q 1606 397 1681 334 
Q 1753 278 1895 261 
Q 2038 244 2294 244 
Q 2409 244 2534 250 
Q 2659 256 2772 275 
Q 2881 294 2973 326 
Q 3066 359 3109 409 
Q 3238 553 3408 845 
Q 3578 1138 3644 1319 
L 3866 1319 
z
" transform="scale(0.015625)"/>
        <path id="Georgia-1b" d="M 3491 1175 
Q 3491 650 3037 272 
Q 2584 -106 1847 -106 
Q 1156 -106 740 241 
Q 325 588 325 1134 
Q 325 1538 570 1808 
Q 816 2078 1297 2266 
Q 900 2488 703 2753 
Q 506 3019 506 3353 
Q 506 3863 939 4206 
Q 1372 4550 1975 4550 
Q 2578 4550 2951 4225 
Q 3325 3900 3325 3409 
Q 3325 3094 3119 2811 
Q 2913 2528 2513 2347 
Q 3031 2125 3261 1856 
Q 3491 1588 3491 1175 
z
M 2734 3444 
Q 2734 3825 2507 4064 
Q 2281 4303 1928 4303 
Q 1575 4303 1350 4073 
Q 1125 3844 1125 3503 
Q 1125 3175 1381 2947 
Q 1638 2719 2294 2459 
Q 2528 2609 2631 2856 
Q 2734 3103 2734 3444 
z
M 2866 1028 
Q 2866 1225 2781 1373 
Q 2697 1522 2538 1644 
Q 2384 1763 2111 1892 
Q 1838 2022 1519 2156 
Q 1219 1994 1078 1742 
Q 938 1491 938 1169 
Q 938 709 1208 426 
Q 1478 144 1928 144 
Q 2359 144 2612 394 
Q 2866 644 2866 1028 
z
" transform="scale(0.015625)"/>
       </defs>
       <use xlink:href="#Georgia-25"/>
       <use xlink:href="#Georgia-2f" transform="translate(65.375 0)"/>
       <use xlink:href="#Georgia-36" transform="translate(125.734375 0)"/>
       <use xlink:href="#Georgia-14" transform="translate(181.84375 0)"/>
       <use xlink:href="#Georgia-15" transform="translate(224.8125 0)"/>
       <use xlink:href="#Georgia-10" transform="translate(280.671875 0)"/>
       <use xlink:href="#Georgia-16" transform="translate(318.078125 0)"/>
       <use xlink:href="#Georgia-1b" transform="translate(373.25 0)"/>
       <use xlink:href="#Georgia-14" transform="translate(432.875 0)"/>
      </g>
     </g>
    </g>
   </g>
   <g id="patch_3">
    <path d="M 84.451016 43.649988 
L 218.731867 43.649988 
L 218.731867 33.23019 
L 84.451016 33.23019 
z
" clip-path="url(#pe38a6b9dc4)" style="fill: #2a78d6"/>
   </g>
   <g id="patch_4">
    <path d="M 84.451016 55.459093 
L 432.24676 55.459093 
L 432.24676 45.039295 
L 84.451016 45.039295 
z
" clip-path="url(#pe38a6b9dc4)" style="fill: #eb6834"/>
   </g>
   <g id="patch_5">
    <path d="M 84.451016 78.38265 
L 84.451016 78.38265 
L 84.451016 67.962852 
L 84.451016 67.962852 
z
" clip-path="url(#pe38a6b9dc4)" style="fill: #2a78d6"/>
   </g>
   <g id="patch_6">
    <path d="M 84.451016 90.191756 
L 85.285058 90.191756 
L 85.285058 79.771957 
L 84.451016 79.771957 
z
" clip-path="url(#pe38a6b9dc4)" style="fill: #eb6834"/>
   </g>
   <g id="patch_7">
    <path d="M 84.451016 113.115313 
L 84.451016 113.115313 
L 84.451016 102.695514 
L 84.451016 102.695514 
z
" clip-path="url(#pe38a6b9dc4)" style="fill: #2a78d6"/>
   </g>
   <g id="patch_8">
    <path d="M 84.451016 124.924418 
L 85.285058 124.924418 
L 85.285058 114.504619 
L 84.451016 114.504619 
z
" clip-path="url(#pe38a6b9dc4)" style="fill: #eb6834"/>
   </g>
   <g id="patch_9">
    <path d="M 84.451016 162.435693 
L 476.451016 162.435693 
L 476.451016 134.649563 
L 84.451016 134.649563 
z
" clip-path="url(#pe38a6b9dc4)" style="fill: url(#h4072a353f2); opacity: 0.55; stroke: #898781; stroke-width: 0.7; stroke-linejoin: miter"/>
   </g>
   <g id="patch_10">
    <path d="M 84.451016 197.168355 
L 476.451016 197.168355 
L 476.451016 169.382226 
L 84.451016 169.382226 
z
" clip-path="url(#pe38a6b9dc4)" style="fill: url(#h4072a353f2); opacity: 0.55; stroke: #898781; stroke-width: 0.7; stroke-linejoin: miter"/>
   </g>
   <g id="patch_11">
    <path d="M 84.451016 205.365264 
L 84.451016 25.033281 
" style="fill: none; stroke: #c3c2b7; stroke-width: 0.9; stroke-linejoin: miter; stroke-linecap: square"/>
   </g>
   <g id="patch_12">
    <path d="M 84.451016 205.365264 
L 476.451016 205.365264 
" style="fill: none; stroke: #c3c2b7; stroke-width: 0.9; stroke-linejoin: miter; stroke-linecap: square"/>
   </g>
   <g id="text_12">
    <!-- $\leq 161$ -->
    <g style="fill: #52514e" transform="translate(223.736122 40.760157) scale(0.086 -0.086)">
     <defs>
      <path id="Cmsy10-e" d="M 653 -878 
Q 600 -878 565 -837 
Q 531 -797 531 -750 
Q 531 -697 565 -659 
Q 600 -622 653 -622 
L 4325 -622 
Q 4375 -622 4408 -659 
Q 4441 -697 4441 -750 
Q 4441 -797 4408 -837 
Q 4375 -878 4325 -878 
L 653 -878 
z
M 594 2113 
Q 531 2131 531 2222 
Q 531 2303 616 2338 
L 4269 4063 
Q 4281 4072 4313 4072 
Q 4366 4072 4403 4034 
Q 4441 3997 4441 3944 
Q 4441 3859 4366 3828 
L 959 2222 
L 4384 603 
Q 4441 572 4441 494 
Q 4441 438 4403 402 
Q 4366 366 4313 366 
Q 4281 366 4269 378 
L 594 2113 
z
" transform="scale(0.015625)"/>
      <path id="Cmr10-64" d="M 594 0 
L 594 225 
Q 1394 225 1394 428 
L 1394 3788 
Q 1063 3628 556 3628 
L 556 3853 
Q 1341 3853 1741 4263 
L 1831 4263 
Q 1853 4263 1873 4245 
Q 1894 4228 1894 4206 
L 1894 428 
Q 1894 225 2694 225 
L 2694 0 
L 594 0 
z
" transform="scale(0.015625)"/>
      <path id="Cmr10-45" d="M 1600 -141 
Q 1203 -141 937 70 
Q 672 281 526 617 
Q 381 953 325 1322 
Q 269 1691 269 2069 
Q 269 2575 466 3084 
Q 663 3594 1045 3928 
Q 1428 4263 1953 4263 
Q 2172 4263 2361 4180 
Q 2550 4097 2658 3936 
Q 2766 3775 2766 3547 
Q 2766 3416 2677 3327 
Q 2588 3238 2456 3238 
Q 2331 3238 2240 3328 
Q 2150 3419 2150 3547 
Q 2150 3672 2240 3762 
Q 2331 3853 2456 3853 
L 2491 3853 
Q 2409 3969 2261 4023 
Q 2113 4078 1953 4078 
Q 1759 4078 1595 3993 
Q 1431 3909 1300 3765 
Q 1169 3622 1081 3448 
Q 994 3275 945 3053 
Q 897 2831 884 2637 
Q 872 2444 872 2150 
Q 984 2413 1190 2580 
Q 1397 2747 1656 2747 
Q 1941 2747 2175 2631 
Q 2409 2516 2578 2311 
Q 2747 2106 2836 1843 
Q 2925 1581 2925 1313 
Q 2925 938 2758 598 
Q 2591 259 2287 59 
Q 1984 -141 1600 -141 
z
M 1600 63 
Q 1847 63 1997 175 
Q 2147 288 2217 473 
Q 2288 659 2305 848 
Q 2322 1038 2322 1313 
Q 2322 1675 2287 1931 
Q 2253 2188 2100 2383 
Q 1947 2578 1631 2578 
Q 1372 2578 1205 2403 
Q 1038 2228 961 1961 
Q 884 1694 884 1447 
Q 884 1363 891 1319 
Q 891 1309 889 1303 
Q 888 1297 884 1288 
Q 884 1013 940 731 
Q 997 450 1156 256 
Q 1316 63 1600 63 
z
" transform="scale(0.015625)"/>
     </defs>
     <use xlink:href="#Cmsy10-e" transform="translate(20.000057 0.390625)"/>
     <use xlink:href="#Cmr10-64" transform="translate(117.685661 0.390625)"/>
     <use xlink:href="#Cmr10-45" transform="translate(167.685661 0.390625)"/>
     <use xlink:href="#Cmr10-64" transform="translate(217.685661 0.390625)"/>
    </g>
   </g>
   <g id="text_13">
    <!-- $\leq 417$ -->
    <g style="fill: #52514e" transform="translate(437.251016 52.569262) scale(0.086 -0.086)">
     <defs>
      <path id="Cmr10-3b" d="M 178 1056 
L 178 1281 
L 2156 4231 
Q 2178 4263 2222 4263 
L 2316 4263 
Q 2388 4263 2388 4191 
L 2388 1281 
L 3016 1281 
L 3016 1056 
L 2388 1056 
L 2388 428 
Q 2388 297 2575 261 
Q 2763 225 3009 225 
L 3009 0 
L 1247 0 
L 1247 225 
Q 1494 225 1681 261 
Q 1869 297 1869 428 
L 1869 1056 
L 178 1056 
z
M 391 1281 
L 1906 1281 
L 1906 3547 
L 391 1281 
z
" transform="scale(0.015625)"/>
      <path id="Cmr10-7f" d="M 1113 166 
Q 1113 522 1175 862 
Q 1238 1203 1358 1536 
Q 1478 1869 1648 2189 
Q 1819 2509 2022 2791 
L 2606 3603 
L 1875 3603 
Q 738 3603 703 3572 
Q 619 3469 544 2981 
L 359 2981 
L 569 4325 
L 756 4325 
L 756 4306 
Q 756 4191 1147 4156 
Q 1538 4122 1913 4122 
L 3103 4122 
L 3103 3956 
Q 3103 3950 3101 3947 
Q 3100 3944 3097 3938 
L 2216 2700 
Q 1891 2219 1809 1631 
Q 1728 1044 1728 166 
Q 1728 41 1637 -50 
Q 1547 -141 1422 -141 
Q 1294 -141 1203 -50 
Q 1113 41 1113 166 
z
" transform="scale(0.015625)"/>
     </defs>
     <use xlink:href="#Cmsy10-e" transform="translate(20.000057 0.421875)"/>
     <use xlink:href="#Cmr10-3b" transform="translate(117.685661 0.421875)"/>
     <use xlink:href="#Cmr10-64" transform="translate(167.685661 0.421875)"/>
     <use xlink:href="#Cmr10-7f" transform="translate(217.685661 0.421875)"/>
    </g>
   </g>
   <g id="text_14">
    <!-- $0$ (given $p$) -->
    <g style="fill: #52514e" transform="translate(89.455271 75.479046) scale(0.086 -0.086)">
     <defs>
      <path id="Cmr10-28" d="M 1600 -141 
Q 816 -141 533 504 
Q 250 1150 250 2041 
Q 250 2597 351 3087 
Q 453 3578 754 3920 
Q 1056 4263 1600 4263 
Q 2022 4263 2290 4056 
Q 2559 3850 2700 3523 
Q 2841 3197 2892 2823 
Q 2944 2450 2944 2041 
Q 2944 1491 2842 1011 
Q 2741 531 2444 195 
Q 2147 -141 1600 -141 
z
M 1600 25 
Q 1956 25 2131 390 
Q 2306 756 2347 1200 
Q 2388 1644 2388 2144 
Q 2388 2625 2347 3031 
Q 2306 3438 2132 3767 
Q 1959 4097 1600 4097 
Q 1238 4097 1063 3765 
Q 888 3434 847 3029 
Q 806 2625 806 2144 
Q 806 1788 823 1472 
Q 841 1156 916 820 
Q 991 484 1158 254 
Q 1325 25 1600 25 
z
" transform="scale(0.015625)"/>
      <path id="Cmmi10-80" d="M -159 -1241 
Q -219 -1241 -219 -1159 
Q -197 -1019 -134 -1019 
Q 66 -1019 145 -983 
Q 225 -947 269 -800 
L 991 2081 
Q 1038 2200 1038 2388 
Q 1038 2663 850 2663 
Q 650 2663 553 2423 
Q 456 2184 366 1819 
Q 366 1778 313 1778 
L 238 1778 
Q 222 1778 203 1801 
Q 184 1825 184 1844 
Q 253 2122 317 2315 
Q 381 2509 517 2668 
Q 653 2828 856 2828 
Q 1075 2828 1240 2704 
Q 1406 2581 1453 2369 
Q 1628 2572 1840 2700 
Q 2053 2828 2278 2828 
Q 2547 2828 2745 2684 
Q 2944 2541 3044 2308 
Q 3144 2075 3144 1806 
Q 3144 1394 2933 953 
Q 2722 513 2361 220 
Q 2000 -72 1588 -72 
Q 1400 -72 1248 34 
Q 1097 141 1013 313 
L 722 -825 
Q 706 -919 703 -934 
Q 703 -1019 1125 -1019 
Q 1191 -1019 1191 -1100 
Q 1169 -1184 1155 -1212 
Q 1141 -1241 1081 -1241 
L -159 -1241 
z
M 1594 97 
Q 1816 97 2006 280 
Q 2197 463 2316 691 
Q 2403 863 2479 1111 
Q 2556 1359 2612 1640 
Q 2669 1922 2669 2088 
Q 2669 2234 2630 2362 
Q 2591 2491 2502 2577 
Q 2413 2663 2266 2663 
Q 2031 2663 1823 2495 
Q 1616 2328 1447 2081 
L 1447 2059 
L 1094 647 
Q 1138 419 1263 258 
Q 1388 97 1594 97 
z
" transform="scale(0.015625)"/>
     </defs>
     <use xlink:href="#Cmr10-28" transform="translate(0 0.1875)"/>
     <use xlink:href="#Georgia-3" transform="translate(50 0.1875)"/>
     <use xlink:href="#Georgia-b" transform="translate(74.121094 0.1875)"/>
     <use xlink:href="#Georgia-4a" transform="translate(111.621094 0.1875)"/>
     <use xlink:href="#Georgia-4c" transform="translate(162.548828 0.1875)"/>
     <use xlink:href="#Georgia-59" transform="translate(191.845703 0.1875)"/>
     <use xlink:href="#Georgia-48" transform="translate(241.503906 0.1875)"/>
     <use xlink:href="#Georgia-51" transform="translate(289.84375 0.1875)"/>
     <use xlink:href="#Georgia-3" transform="translate(348.925781 0.1875)"/>
     <use xlink:href="#Cmmi10-80" transform="translate(373.046875 0.1875)"/>
     <use xlink:href="#Georgia-c" transform="translate(423.339844 0.1875)"/>
    </g>
   </g>
   <g id="text_15">
    <!-- $\leq 1$ (affine sign; 0 $u$-only) -->
    <g style="fill: #52514e" transform="translate(90.289313 87.303856) scale(0.086 -0.086)">
     <defs>
      <path id="Georgia-49" d="M 2519 4466 
Q 2519 4325 2444 4228 
Q 2369 4131 2216 4131 
Q 2119 4131 2045 4172 
Q 1972 4213 1909 4281 
Q 1847 4350 1794 4437 
Q 1741 4525 1703 4578 
Q 1494 4569 1380 4286 
Q 1266 4003 1266 3384 
L 1266 3069 
L 2059 3069 
L 2059 2769 
L 1266 2769 
L 1266 556 
Q 1266 447 1308 378 
Q 1350 309 1441 275 
Q 1516 247 1641 230 
Q 1766 213 1856 206 
L 1856 0 
L 231 0 
L 231 206 
Q 303 213 379 219 
Q 456 225 513 244 
Q 600 272 642 342 
Q 684 413 684 525 
L 684 2769 
L 75 2769 
L 75 3069 
L 684 3069 
L 684 3266 
Q 684 3969 1048 4405 
Q 1413 4841 1959 4841 
Q 2238 4841 2378 4731 
Q 2519 4622 2519 4466 
z
" transform="scale(0.015625)"/>
      <path id="Georgia-1e" d="M 1428 2666 
Q 1428 2491 1301 2366 
Q 1175 2241 1000 2241 
Q 825 2241 698 2366 
Q 572 2491 572 2666 
Q 572 2841 697 2967 
Q 822 3094 1000 3094 
Q 1178 3094 1303 2967 
Q 1428 2841 1428 2666 
z
M 1481 109 
Q 1481 -116 1379 -314 
Q 1278 -513 1147 -659 
Q 1013 -809 863 -925 
Q 713 -1041 588 -1106 
L 444 -897 
Q 594 -803 711 -708 
Q 828 -613 906 -522 
Q 1000 -413 1065 -284 
Q 1131 -156 1150 6 
L 991 6 
Q 781 6 664 115 
Q 547 225 547 409 
Q 547 541 653 664 
Q 759 788 944 788 
Q 1213 788 1347 608 
Q 1481 428 1481 109 
z
" transform="scale(0.015625)"/>
      <path id="Cmmi10-60" d="M 678 697 
Q 678 906 734 1126 
Q 791 1347 892 1617 
Q 994 1888 1069 2088 
Q 1153 2322 1153 2472 
Q 1153 2663 1013 2663 
Q 759 2663 595 2402 
Q 431 2141 353 1819 
Q 341 1778 300 1778 
L 225 1778 
Q 172 1778 172 1838 
L 172 1856 
Q 275 2238 487 2533 
Q 700 2828 1025 2828 
Q 1253 2828 1411 2678 
Q 1569 2528 1569 2297 
Q 1569 2178 1516 2047 
Q 1488 1969 1388 1706 
Q 1288 1444 1234 1272 
Q 1181 1100 1147 934 
Q 1113 769 1113 603 
Q 1113 391 1203 244 
Q 1294 97 1497 97 
Q 1906 97 2216 603 
Q 2222 628 2226 651 
Q 2231 675 2234 697 
L 2694 2553 
Q 2716 2638 2794 2698 
Q 2872 2759 2963 2759 
Q 3041 2759 3098 2709 
Q 3156 2659 3156 2578 
Q 3156 2541 3150 2528 
L 2688 684 
Q 2644 494 2644 372 
Q 2644 97 2828 97 
Q 3034 97 3136 351 
Q 3238 606 3309 941 
Q 3322 978 3359 978 
L 3438 978 
Q 3463 978 3478 956 
Q 3494 934 3494 916 
Q 3425 641 3361 444 
Q 3297 247 3159 87 
Q 3022 -72 2816 -72 
Q 2613 -72 2452 39 
Q 2291 150 2234 341 
Q 2088 153 1894 40 
Q 1700 -72 1484 -72 
Q 1116 -72 897 129 
Q 678 331 678 697 
z
" transform="scale(0.015625)"/>
     </defs>
     <use xlink:href="#Cmsy10-e" transform="translate(20.000057 0.359375)"/>
     <use xlink:href="#Cmr10-64" transform="translate(117.685661 0.359375)"/>
     <use xlink:href="#Georgia-3" transform="translate(167.685661 0.359375)"/>
     <use xlink:href="#Georgia-b" transform="translate(191.806755 0.359375)"/>
     <use xlink:href="#Georgia-44" transform="translate(229.306755 0.359375)"/>
     <use xlink:href="#Georgia-49" transform="translate(279.69738 0.359375)"/>
     <use xlink:href="#Georgia-49" transform="translate(312.216911 0.359375)"/>
     <use xlink:href="#Georgia-4c" transform="translate(344.736443 0.359375)"/>
     <use xlink:href="#Georgia-51" transform="translate(374.033318 0.359375)"/>
     <use xlink:href="#Georgia-48" transform="translate(433.115349 0.359375)"/>
     <use xlink:href="#Georgia-3" transform="translate(481.455193 0.359375)"/>
     <use xlink:href="#Georgia-56" transform="translate(505.576286 0.359375)"/>
     <use xlink:href="#Georgia-4c" transform="translate(548.789177 0.359375)"/>
     <use xlink:href="#Georgia-4a" transform="translate(578.086052 0.359375)"/>
     <use xlink:href="#Georgia-51" transform="translate(629.013786 0.359375)"/>
     <use xlink:href="#Georgia-1e" transform="translate(688.095818 0.359375)"/>
     <use xlink:href="#Georgia-3" transform="translate(719.345818 0.359375)"/>
     <use xlink:href="#Georgia-13" transform="translate(743.466911 0.359375)"/>
     <use xlink:href="#Georgia-3" transform="translate(804.843864 0.359375)"/>
     <use xlink:href="#Cmmi10-60" transform="translate(828.964958 0.359375)"/>
     <use xlink:href="#Georgia-10" transform="translate(886.142693 0.359375)"/>
     <use xlink:href="#Georgia-52" transform="translate(923.545036 0.359375)"/>
     <use xlink:href="#Georgia-51" transform="translate(977.451286 0.359375)"/>
     <use xlink:href="#Georgia-4f" transform="translate(1036.533318 0.359375)"/>
     <use xlink:href="#Georgia-5c" transform="translate(1065.146599 0.359375)"/>
     <use xlink:href="#Georgia-c" transform="translate(1114.365349 0.359375)"/>
    </g>
   </g>
   <g id="text_16">
    <!-- $0$ -->
    <g style="fill: #52514e" transform="translate(89.455271 110.225482) scale(0.086 -0.086)">
     <use xlink:href="#Cmr10-28" transform="translate(0 0.390625)"/>
    </g>
   </g>
   <g id="text_17">
    <!-- $1$ (point sign) -->
    <g style="fill: #52514e" transform="translate(90.289313 122.020813) scale(0.086 -0.086)">
     <use xlink:href="#Cmr10-64" transform="translate(0 0.1875)"/>
     <use xlink:href="#Georgia-3" transform="translate(50 0.1875)"/>
     <use xlink:href="#Georgia-b" transform="translate(74.121094 0.1875)"/>
     <use xlink:href="#Georgia-53" transform="translate(111.621094 0.1875)"/>
     <use xlink:href="#Georgia-52" transform="translate(168.75 0.1875)"/>
     <use xlink:href="#Georgia-4c" transform="translate(222.65625 0.1875)"/>
     <use xlink:href="#Georgia-51" transform="translate(251.953125 0.1875)"/>
     <use xlink:href="#Georgia-57" transform="translate(311.035156 0.1875)"/>
     <use xlink:href="#Georgia-3" transform="translate(345.556641 0.1875)"/>
     <use xlink:href="#Georgia-56" transform="translate(369.677734 0.1875)"/>
     <use xlink:href="#Georgia-4c" transform="translate(412.890625 0.1875)"/>
     <use xlink:href="#Georgia-4a" transform="translate(442.1875 0.1875)"/>
     <use xlink:href="#Georgia-51" transform="translate(493.115234 0.1875)"/>
     <use xlink:href="#Georgia-c" transform="translate(552.197266 0.1875)"/>
    </g>
   </g>
   <g id="text_18">
    <!-- $\perp$ — not identifiable from the cited source record -->
    <g style="fill: #52514e" transform="translate(184.223016 150.932722) scale(0.088 -0.088)">
     <defs>
      <path id="STIXGeneral-Regular-67a" d="M 4102 0 
L 333 0 
L 333 422 
L 2010 422 
L 2010 4237 
L 2432 4237 
L 2432 422 
L 4102 422 
L 4102 0 
z
" transform="scale(0.015625)"/>
      <path id="Georgia-b2" d="M 5166 1553 
L 319 1553 
L 319 1944 
L 5166 1944 
L 5166 1553 
z
" transform="scale(0.015625)"/>
      <path id="Georgia-50" d="M 5503 0 
L 4000 0 
L 4000 206 
Q 4072 213 4145 219 
Q 4219 225 4275 244 
Q 4363 272 4405 342 
Q 4447 413 4447 525 
L 4447 2116 
Q 4447 2441 4298 2617 
Q 4150 2794 3928 2794 
Q 3775 2794 3640 2747 
Q 3506 2700 3394 2616 
Q 3303 2547 3242 2467 
Q 3181 2388 3150 2334 
L 3150 556 
Q 3150 447 3187 376 
Q 3225 306 3316 269 
Q 3388 241 3445 227 
Q 3503 213 3597 206 
L 3597 0 
L 2125 0 
L 2125 206 
Q 2197 213 2264 219 
Q 2331 225 2388 244 
Q 2475 272 2517 342 
Q 2559 413 2559 525 
L 2559 2116 
Q 2559 2441 2411 2617 
Q 2263 2794 2041 2794 
Q 1888 2794 1753 2745 
Q 1619 2697 1506 2613 
Q 1416 2544 1353 2458 
Q 1291 2372 1259 2328 
L 1259 563 
Q 1259 456 1303 384 
Q 1347 313 1434 275 
Q 1500 244 1569 228 
Q 1638 213 1722 206 
L 1722 0 
L 225 0 
L 225 206 
Q 297 213 373 219 
Q 450 225 506 244 
Q 594 272 636 342 
Q 678 413 678 525 
L 678 2441 
Q 678 2541 633 2620 
Q 588 2700 506 2756 
Q 447 2794 359 2817 
Q 272 2841 178 2847 
L 178 3050 
L 1209 3119 
L 1253 3075 
L 1253 2634 
L 1275 2634 
Q 1353 2713 1465 2819 
Q 1578 2925 1675 2991 
Q 1784 3066 1948 3116 
Q 2113 3166 2303 3166 
Q 2603 3166 2818 3005 
Q 3034 2844 3128 2616 
Q 3241 2725 3327 2808 
Q 3413 2891 3553 2984 
Q 3672 3066 3833 3116 
Q 3994 3166 4191 3166 
Q 4581 3166 4809 2909 
Q 5038 2653 5038 2122 
L 5038 556 
Q 5038 447 5075 376 
Q 5113 306 5203 269 
Q 5275 241 5345 227 
Q 5416 213 5503 206 
L 5503 0 
z
" transform="scale(0.015625)"/>
      <path id="Georgia-4b" d="M 3572 0 
L 2059 0 
L 2059 206 
Q 2131 213 2218 219 
Q 2306 225 2363 244 
Q 2450 272 2492 342 
Q 2534 413 2534 525 
L 2534 2109 
Q 2534 2438 2379 2616 
Q 2225 2794 2003 2794 
Q 1841 2794 1702 2742 
Q 1563 2691 1453 2616 
Q 1347 2538 1290 2459 
Q 1234 2381 1203 2328 
L 1203 556 
Q 1203 450 1245 381 
Q 1288 313 1375 275 
Q 1444 244 1517 228 
Q 1591 213 1678 206 
L 1678 0 
L 166 0 
L 166 206 
Q 238 213 316 220 
Q 394 228 447 244 
Q 534 272 578 342 
Q 622 413 622 525 
L 622 4113 
Q 622 4219 573 4325 
Q 525 4431 447 4484 
Q 391 4525 248 4542 
Q 106 4559 19 4566 
L 19 4766 
L 1159 4838 
L 1203 4791 
L 1203 2641 
L 1216 2641 
Q 1319 2744 1403 2823 
Q 1488 2903 1625 2991 
Q 1744 3066 1905 3116 
Q 2066 3166 2266 3166 
Q 2678 3166 2900 2905 
Q 3122 2644 3122 2153 
L 3122 550 
Q 3122 441 3161 373 
Q 3200 306 3291 269 
Q 3363 241 3420 227 
Q 3478 213 3572 206 
L 3572 0 
z
" transform="scale(0.015625)"/>
     </defs>
     <use xlink:href="#STIXGeneral-Regular-67a" transform="translate(20.000057 0.359375)"/>
     <use xlink:href="#Georgia-3" transform="translate(109.300041 0.359375)"/>
     <use xlink:href="#Georgia-b2" transform="translate(133.421135 0.359375)"/>
     <use xlink:href="#Georgia-3" transform="translate(219.114494 0.359375)"/>
     <use xlink:href="#Georgia-51" transform="translate(243.235588 0.359375)"/>
     <use xlink:href="#Georgia-52" transform="translate(302.317619 0.359375)"/>
     <use xlink:href="#Georgia-57" transform="translate(356.223869 0.359375)"/>
     <use xlink:href="#Georgia-3" transform="translate(390.745354 0.359375)"/>
     <use xlink:href="#Georgia-4c" transform="translate(414.866447 0.359375)"/>
     <use xlink:href="#Georgia-47" transform="translate(444.163322 0.359375)"/>
     <use xlink:href="#Georgia-48" transform="translate(501.585197 0.359375)"/>
     <use xlink:href="#Georgia-51" transform="translate(549.925041 0.359375)"/>
     <use xlink:href="#Georgia-57" transform="translate(609.007072 0.359375)"/>
     <use xlink:href="#Georgia-4c" transform="translate(643.528557 0.359375)"/>
     <use xlink:href="#Georgia-49" transform="translate(672.825432 0.359375)"/>
     <use xlink:href="#Georgia-4c" transform="translate(705.344963 0.359375)"/>
     <use xlink:href="#Georgia-44" transform="translate(734.641838 0.359375)"/>
     <use xlink:href="#Georgia-45" transform="translate(785.032463 0.359375)"/>
     <use xlink:href="#Georgia-4f" transform="translate(841.038322 0.359375)"/>
     <use xlink:href="#Georgia-48" transform="translate(869.651604 0.359375)"/>
     <use xlink:href="#Georgia-3" transform="translate(917.991447 0.359375)"/>
     <use xlink:href="#Georgia-49" transform="translate(942.112541 0.359375)"/>
     <use xlink:href="#Georgia-55" transform="translate(974.632072 0.359375)"/>
     <use xlink:href="#Georgia-52" transform="translate(1015.598869 0.359375)"/>
     <use xlink:href="#Georgia-50" transform="translate(1069.505119 0.359375)"/>
     <use xlink:href="#Georgia-3" transform="translate(1157.591057 0.359375)"/>
     <use xlink:href="#Georgia-57" transform="translate(1181.712151 0.359375)"/>
     <use xlink:href="#Georgia-4b" transform="translate(1216.233635 0.359375)"/>
     <use xlink:href="#Georgia-48" transform="translate(1274.43676 0.359375)"/>
     <use xlink:href="#Georgia-3" transform="translate(1322.776604 0.359375)"/>
     <use xlink:href="#Georgia-46" transform="translate(1346.897697 0.359375)"/>
     <use xlink:href="#Georgia-4c" transform="translate(1392.307854 0.359375)"/>
     <use xlink:href="#Georgia-57" transform="translate(1421.604729 0.359375)"/>
     <use xlink:href="#Georgia-48" transform="translate(1456.126213 0.359375)"/>
     <use xlink:href="#Georgia-47" transform="translate(1504.466057 0.359375)"/>
     <use xlink:href="#Georgia-3" transform="translate(1561.887932 0.359375)"/>
     <use xlink:href="#Georgia-56" transform="translate(1586.009026 0.359375)"/>
     <use xlink:href="#Georgia-52" transform="translate(1629.221916 0.359375)"/>
     <use xlink:href="#Georgia-58" transform="translate(1683.128166 0.359375)"/>
     <use xlink:href="#Georgia-55" transform="translate(1740.647697 0.359375)"/>
     <use xlink:href="#Georgia-46" transform="translate(1781.614494 0.359375)"/>
     <use xlink:href="#Georgia-48" transform="translate(1827.024651 0.359375)"/>
     <use xlink:href="#Georgia-3" transform="translate(1875.364494 0.359375)"/>
     <use xlink:href="#Georgia-55" transform="translate(1899.485588 0.359375)"/>
     <use xlink:href="#Georgia-48" transform="translate(1940.452385 0.359375)"/>
     <use xlink:href="#Georgia-46" transform="translate(1988.792229 0.359375)"/>
     <use xlink:href="#Georgia-52" transform="translate(2034.202385 0.359375)"/>
     <use xlink:href="#Georgia-55" transform="translate(2088.108635 0.359375)"/>
     <use xlink:href="#Georgia-47" transform="translate(2129.075432 0.359375)"/>
    </g>
   </g>
   <g id="text_19">
    <!-- $\perp$ — not identifiable from the cited source record -->
    <g style="fill: #52514e" transform="translate(184.223016 185.665384) scale(0.088 -0.088)">
     <use xlink:href="#STIXGeneral-Regular-67a" transform="translate(20.000057 0.359375)"/>
     <use xlink:href="#Georgia-3" transform="translate(109.300041 0.359375)"/>
     <use xlink:href="#Georgia-b2" transform="translate(133.421135 0.359375)"/>
     <use xlink:href="#Georgia-3" transform="translate(219.114494 0.359375)"/>
     <use xlink:href="#Georgia-51" transform="translate(243.235588 0.359375)"/>
     <use xlink:href="#Georgia-52" transform="translate(302.317619 0.359375)"/>
     <use xlink:href="#Georgia-57" transform="translate(356.223869 0.359375)"/>
     <use xlink:href="#Georgia-3" transform="translate(390.745354 0.359375)"/>
     <use xlink:href="#Georgia-4c" transform="translate(414.866447 0.359375)"/>
     <use xlink:href="#Georgia-47" transform="translate(444.163322 0.359375)"/>
     <use xlink:href="#Georgia-48" transform="translate(501.585197 0.359375)"/>
     <use xlink:href="#Georgia-51" transform="translate(549.925041 0.359375)"/>
     <use xlink:href="#Georgia-57" transform="translate(609.007072 0.359375)"/>
     <use xlink:href="#Georgia-4c" transform="translate(643.528557 0.359375)"/>
     <use xlink:href="#Georgia-49" transform="translate(672.825432 0.359375)"/>
     <use xlink:href="#Georgia-4c" transform="translate(705.344963 0.359375)"/>
     <use xlink:href="#Georgia-44" transform="translate(734.641838 0.359375)"/>
     <use xlink:href="#Georgia-45" transform="translate(785.032463 0.359375)"/>
     <use xlink:href="#Georgia-4f" transform="translate(841.038322 0.359375)"/>
     <use xlink:href="#Georgia-48" transform="translate(869.651604 0.359375)"/>
     <use xlink:href="#Georgia-3" transform="translate(917.991447 0.359375)"/>
     <use xlink:href="#Georgia-49" transform="translate(942.112541 0.359375)"/>
     <use xlink:href="#Georgia-55" transform="translate(974.632072 0.359375)"/>
     <use xlink:href="#Georgia-52" transform="translate(1015.598869 0.359375)"/>
     <use xlink:href="#Georgia-50" transform="translate(1069.505119 0.359375)"/>
     <use xlink:href="#Georgia-3" transform="translate(1157.591057 0.359375)"/>
     <use xlink:href="#Georgia-57" transform="translate(1181.712151 0.359375)"/>
     <use xlink:href="#Georgia-4b" transform="translate(1216.233635 0.359375)"/>
     <use xlink:href="#Georgia-48" transform="translate(1274.43676 0.359375)"/>
     <use xlink:href="#Georgia-3" transform="translate(1322.776604 0.359375)"/>
     <use xlink:href="#Georgia-46" transform="translate(1346.897697 0.359375)"/>
     <use xlink:href="#Georgia-4c" transform="translate(1392.307854 0.359375)"/>
     <use xlink:href="#Georgia-57" transform="translate(1421.604729 0.359375)"/>
     <use xlink:href="#Georgia-48" transform="translate(1456.126213 0.359375)"/>
     <use xlink:href="#Georgia-47" transform="translate(1504.466057 0.359375)"/>
     <use xlink:href="#Georgia-3" transform="translate(1561.887932 0.359375)"/>
     <use xlink:href="#Georgia-56" transform="translate(1586.009026 0.359375)"/>
     <use xlink:href="#Georgia-52" transform="translate(1629.221916 0.359375)"/>
     <use xlink:href="#Georgia-58" transform="translate(1683.128166 0.359375)"/>
     <use xlink:href="#Georgia-55" transform="translate(1740.647697 0.359375)"/>
     <use xlink:href="#Georgia-46" transform="translate(1781.614494 0.359375)"/>
     <use xlink:href="#Georgia-48" transform="translate(1827.024651 0.359375)"/>
     <use xlink:href="#Georgia-3" transform="translate(1875.364494 0.359375)"/>
     <use xlink:href="#Georgia-55" transform="translate(1899.485588 0.359375)"/>
     <use xlink:href="#Georgia-48" transform="translate(1940.452385 0.359375)"/>
     <use xlink:href="#Georgia-46" transform="translate(1988.792229 0.359375)"/>
     <use xlink:href="#Georgia-52" transform="translate(2034.202385 0.359375)"/>
     <use xlink:href="#Georgia-55" transform="translate(2088.108635 0.359375)"/>
     <use xlink:href="#Georgia-47" transform="translate(2129.075432 0.359375)"/>
    </g>
   </g>
   <g id="text_20">
    <!-- A256 audit: curve-core and full-package caps -->
    <g style="fill: #0b0b0b" transform="translate(84.451016 17.033281) scale(0.13 -0.13)">
     <defs>
      <path id="Georgia-24" d="M 4441 0 
L 2594 0 
L 2594 222 
Q 2838 238 2998 284 
Q 3159 331 3159 400 
Q 3159 428 3153 468 
Q 3147 509 3134 541 
L 2766 1534 
L 1213 1534 
Q 1125 1316 1070 1153 
Q 1016 991 972 853 
Q 931 719 915 634 
Q 900 550 900 497 
Q 900 372 1097 303 
Q 1294 234 1541 222 
L 1541 0 
L -128 0 
L -128 222 
Q -47 228 75 258 
Q 197 288 275 338 
Q 400 422 469 514 
Q 538 606 603 769 
Q 938 1603 1341 2643 
Q 1744 3684 2059 4497 
L 2309 4497 
L 3788 672 
Q 3834 550 3893 475 
Q 3953 400 4059 328 
Q 4131 284 4247 254 
Q 4363 225 4441 222 
L 4441 0 
z
M 2653 1813 
L 1981 3531 
L 1322 1813 
L 2653 1813 
z
" transform="scale(0.015625)"/>
      <path id="Georgia-1d" d="M 1428 2666 
Q 1428 2491 1301 2366 
Q 1175 2241 1000 2241 
Q 825 2241 698 2366 
Q 572 2491 572 2666 
Q 572 2841 697 2967 
Q 822 3094 1000 3094 
Q 1178 3094 1303 2967 
Q 1428 2841 1428 2666 
z
M 1428 359 
Q 1428 184 1301 60 
Q 1175 -63 1000 -63 
Q 825 -63 698 60 
Q 572 184 572 359 
Q 572 534 698 661 
Q 825 788 1000 788 
Q 1175 788 1301 661 
Q 1428 534 1428 359 
z
" transform="scale(0.015625)"/>
     </defs>
     <use xlink:href="#Georgia-24"/>
     <use xlink:href="#Georgia-15" transform="translate(67.09375 0)"/>
     <use xlink:href="#Georgia-18" transform="translate(122.953125 0)"/>
     <use xlink:href="#Georgia-19" transform="translate(175.78125 0)"/>
     <use xlink:href="#Georgia-3" transform="translate(232.375 0)"/>
     <use xlink:href="#Georgia-44" transform="translate(256.5 0)"/>
     <use xlink:href="#Georgia-58" transform="translate(306.890625 0)"/>
     <use xlink:href="#Georgia-47" transform="translate(364.40625 0)"/>
     <use xlink:href="#Georgia-4c" transform="translate(421.828125 0)"/>
     <use xlink:href="#Georgia-57" transform="translate(451.125 0)"/>
     <use xlink:href="#Georgia-1d" transform="translate(485.640625 0)"/>
     <use xlink:href="#Georgia-3" transform="translate(516.890625 0)"/>
     <use xlink:href="#Georgia-46" transform="translate(541.015625 0)"/>
     <use xlink:href="#Georgia-58" transform="translate(586.421875 0)"/>
     <use xlink:href="#Georgia-55" transform="translate(643.9375 0)"/>
     <use xlink:href="#Georgia-59" transform="translate(684.90625 0)"/>
     <use xlink:href="#Georgia-48" transform="translate(734.5625 0)"/>
     <use xlink:href="#Georgia-10" transform="translate(782.90625 0)"/>
     <use xlink:href="#Georgia-46" transform="translate(820.3125 0)"/>
     <use xlink:href="#Georgia-52" transform="translate(865.71875 0)"/>
     <use xlink:href="#Georgia-55" transform="translate(919.625 0)"/>
     <use xlink:href="#Georgia-48" transform="translate(960.59375 0)"/>
     <use xlink:href="#Georgia-3" transform="translate(1008.9375 0)"/>
     <use xlink:href="#Georgia-44" transform="translate(1033.0625 0)"/>
     <use xlink:href="#Georgia-51" transform="translate(1083.453125 0)"/>
     <use xlink:href="#Georgia-47" transform="translate(1142.53125 0)"/>
     <use xlink:href="#Georgia-3" transform="translate(1199.953125 0)"/>
     <use xlink:href="#Georgia-49" transform="translate(1224.078125 0)"/>
     <use xlink:href="#Georgia-58" transform="translate(1256.59375 0)"/>
     <use xlink:href="#Georgia-4f" transform="translate(1314.109375 0)"/>
     <use xlink:href="#Georgia-4f" transform="translate(1342.71875 0)"/>
     <use xlink:href="#Georgia-10" transform="translate(1371.328125 0)"/>
     <use xlink:href="#Georgia-53" transform="translate(1408.734375 0)"/>
     <use xlink:href="#Georgia-44" transform="translate(1465.859375 0)"/>
     <use xlink:href="#Georgia-46" transform="translate(1516.25 0)"/>
     <use xlink:href="#Georgia-4e" transform="translate(1561.65625 0)"/>
     <use xlink:href="#Georgia-44" transform="translate(1615.21875 0)"/>
     <use xlink:href="#Georgia-4a" transform="translate(1665.609375 0)"/>
     <use xlink:href="#Georgia-48" transform="translate(1716.53125 0)"/>
     <use xlink:href="#Georgia-3" transform="translate(1764.875 0)"/>
     <use xlink:href="#Georgia-46" transform="translate(1789 0)"/>
     <use xlink:href="#Georgia-44" transform="translate(1834.40625 0)"/>
     <use xlink:href="#Georgia-53" transform="translate(1884.796875 0)"/>
     <use xlink:href="#Georgia-56" transform="translate(1941.921875 0)"/>
    </g>
   </g>
   <g id="legend_1">
    <g id="patch_13">
     <path d="M 357.197234 102.167296 
L 374.397234 102.167296 
L 374.397234 96.147296 
L 357.197234 96.147296 
z
" style="fill: #2a78d6"/>
    </g>
    <g id="text_21">
     <!-- curve-core projection -->
     <g transform="translate(381.277234 102.167296) scale(0.086 -0.086)">
      <defs>
       <path id="Georgia-4d" d="M 1347 188 
Q 1347 -156 1247 -457 
Q 1147 -759 981 -956 
Q 803 -1166 579 -1277 
Q 356 -1388 88 -1388 
Q -191 -1388 -331 -1277 
Q -472 -1166 -472 -1016 
Q -472 -881 -397 -779 
Q -322 -678 -178 -678 
Q -81 -678 -6 -718 
Q 69 -759 125 -825 
Q 175 -881 226 -964 
Q 278 -1047 325 -1125 
Q 563 -1125 664 -837 
Q 766 -550 766 84 
L 766 2403 
Q 766 2503 717 2595 
Q 669 2688 591 2744 
Q 541 2778 352 2812 
Q 163 2847 66 2856 
L 66 3050 
L 1303 3119 
L 1347 3075 
L 1347 188 
z
M 1394 4338 
Q 1394 4159 1276 4026 
Q 1159 3894 988 3894 
Q 828 3894 711 4020 
Q 594 4147 594 4309 
Q 594 4481 711 4609 
Q 828 4738 988 4738 
Q 1166 4738 1280 4617 
Q 1394 4497 1394 4338 
z
" transform="scale(0.015625)"/>
      </defs>
      <use xlink:href="#Georgia-46"/>
      <use xlink:href="#Georgia-58" transform="translate(45.40625 0)"/>
      <use xlink:href="#Georgia-55" transform="translate(102.921875 0)"/>
      <use xlink:href="#Georgia-59" transform="translate(143.890625 0)"/>
      <use xlink:href="#Georgia-48" transform="translate(193.546875 0)"/>
      <use xlink:href="#Georgia-10" transform="translate(241.890625 0)"/>
      <use xlink:href="#Georgia-46" transform="translate(279.296875 0)"/>
      <use xlink:href="#Georgia-52" transform="translate(324.703125 0)"/>
      <use xlink:href="#Georgia-55" transform="translate(378.609375 0)"/>
      <use xlink:href="#Georgia-48" transform="translate(419.578125 0)"/>
      <use xlink:href="#Georgia-3" transform="translate(467.921875 0)"/>
      <use xlink:href="#Georgia-53" transform="translate(492.046875 0)"/>
      <use xlink:href="#Georgia-55" transform="translate(549.171875 0)"/>
      <use xlink:href="#Georgia-52" transform="translate(590.140625 0)"/>
      <use xlink:href="#Georgia-4d" transform="translate(644.046875 0)"/>
      <use xlink:href="#Georgia-48" transform="translate(673.25 0)"/>
      <use xlink:href="#Georgia-46" transform="translate(721.59375 0)"/>
      <use xlink:href="#Georgia-57" transform="translate(767 0)"/>
      <use xlink:href="#Georgia-4c" transform="translate(801.515625 0)"/>
      <use xlink:href="#Georgia-52" transform="translate(830.8125 0)"/>
      <use xlink:href="#Georgia-51" transform="translate(884.71875 0)"/>
     </g>
    </g>
    <g id="patch_14">
     <path d="M 357.197234 114.837515 
L 374.397234 114.837515 
L 374.397234 108.817515 
L 357.197234 108.817515 
z
" style="fill: #eb6834"/>
    </g>
    <g id="text_22">
     <!-- full-package projection -->
     <g transform="translate(381.277234 114.837515) scale(0.086 -0.086)">
      <use xlink:href="#Georgia-49"/>
      <use xlink:href="#Georgia-58" transform="translate(32.515625 0)"/>
      <use xlink:href="#Georgia-4f" transform="translate(90.03125 0)"/>
      <use xlink:href="#Georgia-4f" transform="translate(118.640625 0)"/>
      <use xlink:href="#Georgia-10" transform="translate(147.25 0)"/>
      <use xlink:href="#Georgia-53" transform="translate(184.65625 0)"/>
      <use xlink:href="#Georgia-44" transform="translate(241.78125 0)"/>
      <use xlink:href="#Georgia-46" transform="translate(292.171875 0)"/>
      <use xlink:href="#Georgia-4e" transform="translate(337.578125 0)"/>
      <use xlink:href="#Georgia-44" transform="translate(391.140625 0)"/>
      <use xlink:href="#Georgia-4a" transform="translate(441.53125 0)"/>
      <use xlink:href="#Georgia-48" transform="translate(492.453125 0)"/>
      <use xlink:href="#Georgia-3" transform="translate(540.796875 0)"/>
      <use xlink:href="#Georgia-53" transform="translate(564.921875 0)"/>
      <use xlink:href="#Georgia-55" transform="translate(622.046875 0)"/>
      <use xlink:href="#Georgia-52" transform="translate(663.015625 0)"/>
      <use xlink:href="#Georgia-4d" transform="translate(716.921875 0)"/>
      <use xlink:href="#Georgia-48" transform="translate(746.125 0)"/>
      <use xlink:href="#Georgia-46" transform="translate(794.46875 0)"/>
      <use xlink:href="#Georgia-57" transform="translate(839.875 0)"/>
      <use xlink:href="#Georgia-4c" transform="translate(874.390625 0)"/>
      <use xlink:href="#Georgia-52" transform="translate(903.6875 0)"/>
      <use xlink:href="#Georgia-51" transform="translate(957.59375 0)"/>
     </g>
    </g>
   </g>
  </g>
 </g>
 <defs>
  <clipPath id="pe38a6b9dc4">
   <rect x="84.451016" y="25.033281" width="392" height="180.331982"/>
  </clipPath>
 </defs>
 <defs>
  <pattern id="h4072a353f2" patternUnits="userSpaceOnUse" x="0" y="0" width="72" height="72">
   <rect x="0" y="0" width="73" height="73" fill="#e1e0d9"/>
   <path d="M -36 36 
L 36 -36 
M -32 40 
L 40 -32 
M -28 44 
L 44 -28 
M -24 48 
L 48 -24 
M -20 52 
L 52 -20 
M -16 56 
L 56 -16 
M -12 60 
L 60 -12 
M -8 64 
L 64 -8 
M -4 68 
L 68 -4 
M 0 72 
L 72 0 
M 4 76 
L 76 4 
M 8 80 
L 80 8 
M 12 84 
L 84 12 
M 16 88 
L 88 16 
M 20 92 
L 92 20 
M 24 96 
L 96 24 
M 28 100 
L 100 28 
M 32 104 
L 104 32 
M 36 108 
L 108 36 
" style="fill: #898781; stroke: #898781; stroke-width: 1.0; stroke-linecap: butt; stroke-linejoin: miter; stroke-opacity: 0.55"/>
  </pattern>
 </defs>
</svg>
