<?xml version="1.0" encoding="utf-8" standalone="no"?>
<!DOCTYPE svg PUBLIC "-//W3C//DTD SVG 1.1//EN"
  "http://www.w3.org/Graphics/SVG/1.1/DTD/svg11.dtd">
<svg xmlns:xlink="http://www.w3.org/1999/xlink" width="432.998906pt" height="260.366016pt" viewBox="0 0 432.998906 260.366016" xmlns="http://www.w3.org/2000/svg" version="1.1">
 <metadata>
  <rdf:RDF xmlns:dc="http://purl.org/dc/elements/1.1/" xmlns:cc="http://creativecommons.org/ns#" xmlns:rdf="http://www.w3.org/1999/02/22-rdf-syntax-ns#">
   <cc:Work>
    <dc:type rdf:resource="http://purl.org/dc/dcmitype/StillImage"/>
    <dc:date>2026-07-23T00:47:03.627958</dc:date>
    <dc:format>image/svg+xml</dc:format>
    <dc:creator>
     <cc:Agent>
      <dc:title>Matplotlib v3.11.1, https://matplotlib.org/</dc:title>
     </cc:Agent>
    </dc:creator>
   </cc:Work>
  </rdf:RDF>
 </metadata>
 <defs>
  <style type="text/css">*{stroke-linejoin: round; stroke-linecap: butt}</style>
 </defs>
 <g id="figure_1">
  <g id="patch_1">
   <path d="M -0 260.366016 
L 432.998906 260.366016 
L 432.998906 0 
L -0 0 
z
" style="fill: #fcfcfb"/>
  </g>
  <g id="axes_1">
   <g id="patch_2">
    <path d="M 43.982891 219.666016 
L 425.798906 219.666016 
L 425.798906 25.311816 
L 43.982891 25.311816 
z
" style="fill: #fcfcfb"/>
   </g>
   <g id="matplotlib.axis_1">
    <g id="xtick_1">
     <g id="line2d_1">
      <path d="M 46.875436 219.666016 
L 46.875436 25.311816 
" clip-path="url(#p96625bd308)" style="fill: none; stroke: #e1e0d9; stroke-width: 0.7; stroke-linecap: square"/>
     </g>
     <g id="line2d_2">
      <defs>
       <path id="mc1b679df42" d="M 0 0 
L 0 3.5 
" style="stroke: #898781; stroke-width: 0.8"/>
      </defs>
      <g>
       <use xlink:href="#mc1b679df42" x="46.875436" y="219.666016" style="fill: #898781; stroke: #898781; stroke-width: 0.8"/>
      </g>
     </g>
     <g id="text_1">
      <!-- 10 -->
      <g style="fill: #52514e" transform="translate(41.061061 234.833252) scale(0.105 -0.105)">
       <defs>
        <path id="Cambria-373" d="M 2172 816 
Q 2172 634 2192 542 
Q 2213 450 2264 392 
Q 2316 334 2412 301 
Q 2509 269 2656 251 
Q 2803 234 3044 228 
L 3044 0 
L 734 0 
L 734 228 
Q 1081 244 1229 270 
Q 1378 297 1456 350 
Q 1534 403 1570 500 
Q 1606 597 1606 816 
L 1606 3350 
Q 1606 3475 1562 3533 
Q 1519 3591 1434 3591 
Q 1334 3591 1150 3487 
Q 966 3384 694 3203 
L 556 3444 
L 2019 4316 
L 2191 4316 
Q 2172 4016 2172 3484 
L 2172 816 
z
" transform="scale(0.015625)"/>
        <path id="Cambria-372" d="M 1738 -50 
Q 1063 -50 733 481 
Q 403 1013 403 2094 
Q 403 2669 504 3087 
Q 606 3506 789 3779 
Q 972 4053 1228 4184 
Q 1484 4316 1788 4316 
Q 2472 4316 2806 3787 
Q 3141 3259 3141 2191 
Q 3141 1084 2783 517 
Q 2425 -50 1738 -50 
z
M 1013 2188 
Q 1013 1169 1202 692 
Q 1391 216 1788 216 
Q 2166 216 2348 664 
Q 2531 1113 2531 2053 
Q 2531 2772 2437 3217 
Q 2344 3663 2176 3856 
Q 2009 4050 1772 4050 
Q 1556 4050 1411 3922 
Q 1266 3794 1177 3553 
Q 1088 3313 1050 2967 
Q 1013 2622 1013 2188 
z
" transform="scale(0.015625)"/>
       </defs>
       <use xlink:href="#Cambria-373"/>
       <use xlink:href="#Cambria-372" transform="translate(55.375 0)"/>
      </g>
     </g>
    </g>
    <g id="xtick_2">
     <g id="line2d_3">
      <path d="M 119.189076 219.666016 
L 119.189076 25.311816 
" clip-path="url(#p96625bd308)" style="fill: none; stroke: #e1e0d9; stroke-width: 0.7; stroke-linecap: square"/>
     </g>
     <g id="line2d_4">
      <g>
       <use xlink:href="#mc1b679df42" x="119.189076" y="219.666016" style="fill: #898781; stroke: #898781; stroke-width: 0.8"/>
      </g>
     </g>
     <g id="text_2">
      <!-- 20 -->
      <g style="fill: #52514e" transform="translate(113.374701 234.833252) scale(0.105 -0.105)">
       <defs>
        <path id="Cambria-374" d="M 2194 500 
Q 2347 500 2440 519 
Q 2534 538 2590 581 
Q 2647 625 2680 695 
Q 2713 766 2763 913 
L 3028 913 
L 2975 0 
L 403 0 
L 403 150 
Q 538 478 766 822 
Q 994 1166 1413 1631 
Q 1775 2031 1934 2238 
Q 2109 2463 2195 2627 
Q 2281 2791 2318 2936 
Q 2356 3081 2356 3228 
Q 2356 3463 2281 3642 
Q 2206 3822 2051 3925 
Q 1897 4028 1663 4028 
Q 1078 4028 875 3378 
L 497 3378 
L 497 3978 
Q 875 4156 1204 4236 
Q 1534 4316 1797 4316 
Q 2378 4316 2675 4061 
Q 2972 3806 2972 3322 
Q 2972 3156 2939 3017 
Q 2906 2878 2836 2742 
Q 2766 2606 2647 2450 
Q 2528 2294 2384 2133 
Q 2241 1972 1888 1597 
Q 1294 969 1016 500 
L 2194 500 
z
" transform="scale(0.015625)"/>
       </defs>
       <use xlink:href="#Cambria-374"/>
       <use xlink:href="#Cambria-372" transform="translate(55.375 0)"/>
      </g>
     </g>
    </g>
    <g id="xtick_3">
     <g id="line2d_5">
      <path d="M 191.502715 219.666016 
L 191.502715 25.311816 
" clip-path="url(#p96625bd308)" style="fill: none; stroke: #e1e0d9; stroke-width: 0.7; stroke-linecap: square"/>
     </g>
     <g id="line2d_6">
      <g>
       <use xlink:href="#mc1b679df42" x="191.502715" y="219.666016" style="fill: #898781; stroke: #898781; stroke-width: 0.8"/>
      </g>
     </g>
     <g id="text_3">
      <!-- 30 -->
      <g style="fill: #52514e" transform="translate(185.68834 234.833252) scale(0.105 -0.105)">
       <defs>
        <path id="Cambria-375" d="M 497 3381 
L 497 3975 
Q 859 4147 1175 4231 
Q 1491 4316 1784 4316 
Q 2138 4316 2403 4206 
Q 2669 4097 2809 3892 
Q 2950 3688 2950 3403 
Q 2950 3138 2844 2936 
Q 2738 2734 2545 2584 
Q 2353 2434 2047 2291 
L 2047 2263 
Q 2238 2228 2414 2145 
Q 2591 2063 2728 1931 
Q 2866 1800 2948 1617 
Q 3031 1434 3031 1200 
Q 3031 838 2873 556 
Q 2716 275 2391 112 
Q 2066 -50 1600 -50 
Q 1331 -50 1020 11 
Q 709 72 450 172 
L 450 834 
L 825 834 
Q 934 509 1114 362 
Q 1294 216 1603 216 
Q 2009 216 2217 437 
Q 2425 659 2425 1094 
Q 2425 1550 2150 1790 
Q 1875 2031 1344 2031 
L 1063 2031 
L 1063 2306 
Q 1484 2331 1773 2468 
Q 2063 2606 2203 2822 
Q 2344 3038 2344 3306 
Q 2344 3653 2159 3840 
Q 1975 4028 1622 4028 
Q 1328 4028 1143 3868 
Q 959 3709 872 3381 
L 497 3381 
z
" transform="scale(0.015625)"/>
       </defs>
       <use xlink:href="#Cambria-375"/>
       <use xlink:href="#Cambria-372" transform="translate(55.375 0)"/>
      </g>
     </g>
    </g>
    <g id="xtick_4">
     <g id="line2d_7">
      <path d="M 263.816354 219.666016 
L 263.816354 25.311816 
" clip-path="url(#p96625bd308)" style="fill: none; stroke: #e1e0d9; stroke-width: 0.7; stroke-linecap: square"/>
     </g>
     <g id="line2d_8">
      <g>
       <use xlink:href="#mc1b679df42" x="263.816354" y="219.666016" style="fill: #898781; stroke: #898781; stroke-width: 0.8"/>
      </g>
     </g>
     <g id="text_4">
      <!-- 40 -->
      <g style="fill: #52514e" transform="translate(258.001979 234.833252) scale(0.105 -0.105)">
       <defs>
        <path id="Cambria-376" d="M 1613 153 
Q 1806 203 1872 264 
Q 1938 325 1958 437 
Q 1978 550 1978 781 
L 1978 1294 
L 241 1294 
L 241 1528 
L 2069 4288 
L 2516 4288 
L 2516 1597 
L 2581 1597 
Q 2763 1597 2841 1623 
Q 2919 1650 2970 1717 
Q 3022 1784 3066 1938 
L 3303 1938 
L 3266 1294 
L 2516 1294 
L 2516 781 
Q 2516 572 2530 475 
Q 2544 378 2576 322 
Q 2609 266 2673 228 
Q 2738 191 2881 153 
L 2881 0 
L 1613 0 
L 1613 153 
z
M 756 1597 
L 1978 1597 
L 1978 2375 
Q 1978 2669 1987 3033 
Q 1997 3397 2009 3581 
L 1978 3581 
L 756 1641 
L 756 1597 
z
" transform="scale(0.015625)"/>
       </defs>
       <use xlink:href="#Cambria-376"/>
       <use xlink:href="#Cambria-372" transform="translate(55.375 0)"/>
      </g>
     </g>
    </g>
    <g id="xtick_5">
     <g id="line2d_9">
      <path d="M 336.129993 219.666016 
L 336.129993 25.311816 
" clip-path="url(#p96625bd308)" style="fill: none; stroke: #e1e0d9; stroke-width: 0.7; stroke-linecap: square"/>
     </g>
     <g id="line2d_10">
      <g>
       <use xlink:href="#mc1b679df42" x="336.129993" y="219.666016" style="fill: #898781; stroke: #898781; stroke-width: 0.8"/>
      </g>
     </g>
     <g id="text_5">
      <!-- 50 -->
      <g style="fill: #52514e" transform="translate(330.315618 234.833252) scale(0.105 -0.105)">
       <defs>
        <path id="Cambria-377" d="M 469 172 
L 469 834 
L 847 834 
Q 941 516 1130 366 
Q 1319 216 1619 216 
Q 2034 216 2246 466 
Q 2459 716 2459 1213 
Q 2459 1544 2346 1761 
Q 2234 1978 2043 2075 
Q 1853 2172 1600 2172 
Q 1388 2172 1234 2145 
Q 1081 2119 906 2063 
L 656 2209 
L 656 4266 
L 2378 4266 
Q 2484 4266 2531 4283 
Q 2578 4300 2606 4336 
Q 2634 4372 2672 4472 
L 2916 4472 
L 2869 3747 
L 1072 3747 
L 1072 2375 
Q 1234 2444 1425 2478 
Q 1616 2513 1806 2513 
Q 2178 2513 2465 2361 
Q 2753 2209 2909 1929 
Q 3066 1650 3066 1281 
Q 3066 863 2891 563 
Q 2716 263 2384 106 
Q 2053 -50 1600 -50 
Q 1059 -50 469 172 
z
" transform="scale(0.015625)"/>
       </defs>
       <use xlink:href="#Cambria-377"/>
       <use xlink:href="#Cambria-372" transform="translate(55.375 0)"/>
      </g>
     </g>
    </g>
    <g id="xtick_6">
     <g id="line2d_11">
      <path d="M 408.443633 219.666016 
L 408.443633 25.311816 
" clip-path="url(#p96625bd308)" style="fill: none; stroke: #e1e0d9; stroke-width: 0.7; stroke-linecap: square"/>
     </g>
     <g id="line2d_12">
      <g>
       <use xlink:href="#mc1b679df42" x="408.443633" y="219.666016" style="fill: #898781; stroke: #898781; stroke-width: 0.8"/>
      </g>
     </g>
     <g id="text_6">
      <!-- 60 -->
      <g style="fill: #52514e" transform="translate(402.629258 234.833252) scale(0.105 -0.105)">
       <defs>
        <path id="Cambria-378" d="M 2847 4144 
L 2847 3991 
Q 2366 3991 1994 3784 
Q 1622 3578 1376 3178 
Q 1131 2778 1031 2228 
L 1063 2216 
Q 1325 2403 1579 2490 
Q 1834 2578 2131 2578 
Q 2484 2578 2732 2423 
Q 2981 2269 3106 1989 
Q 3231 1709 3231 1334 
Q 3231 928 3075 617 
Q 2919 306 2592 128 
Q 2266 -50 1788 -50 
Q 1103 -50 754 375 
Q 406 800 406 1628 
Q 406 2184 581 2668 
Q 756 3153 1078 3514 
Q 1400 3875 1825 4083 
Q 2250 4291 2719 4316 
L 2847 4144 
z
M 1916 2250 
Q 1763 2250 1620 2215 
Q 1478 2181 1353 2115 
Q 1228 2050 1109 1950 
Q 1072 1916 1053 1878 
Q 1022 1819 1012 1731 
Q 1003 1644 1003 1438 
Q 1003 841 1203 528 
Q 1403 216 1809 216 
Q 2044 216 2203 297 
Q 2363 378 2461 520 
Q 2559 663 2601 855 
Q 2644 1047 2644 1272 
Q 2644 1734 2453 1992 
Q 2263 2250 1916 2250 
z
" transform="scale(0.015625)"/>
       </defs>
       <use xlink:href="#Cambria-378"/>
       <use xlink:href="#Cambria-372" transform="translate(55.375 0)"/>
      </g>
     </g>
    </g>
    <g id="text_7">
     <!-- bit length of the prime $r$ -->
     <g style="fill: #0b0b0b" transform="translate(173.690898 250.5) scale(0.12 -0.12)">
      <defs>
       <path id="Cambria-84" d="M 1091 2497 
L 1103 2494 
Q 1322 2722 1467 2825 
Q 1613 2928 1767 2983 
Q 1922 3038 2106 3038 
Q 2441 3038 2680 2867 
Q 2919 2697 3048 2356 
Q 3178 2016 3178 1522 
Q 3178 1013 3023 661 
Q 2869 309 2567 129 
Q 2266 -50 1853 -50 
Q 1622 -50 1417 -8 
Q 1213 34 988 141 
L 769 -50 
L 553 0 
L 553 3397 
Q 553 3697 548 3815 
Q 544 3934 523 4017 
Q 503 4100 467 4147 
Q 431 4194 370 4222 
Q 309 4250 150 4278 
L 150 4441 
L 906 4472 
L 1091 4472 
L 1091 2497 
z
M 1091 1125 
Q 1091 884 1112 742 
Q 1134 600 1186 506 
Q 1238 413 1336 334 
Q 1434 256 1556 226 
Q 1678 197 1828 197 
Q 2203 197 2397 503 
Q 2591 809 2591 1422 
Q 2591 2041 2414 2352 
Q 2238 2663 1881 2663 
Q 1703 2663 1578 2608 
Q 1453 2553 1329 2437 
Q 1206 2322 1148 2209 
Q 1091 2097 1091 1953 
L 1091 1125 
z
" transform="scale(0.015625)"/>
       <path id="Cambria-8b" d="M 1197 4213 
L 1197 3606 
L 622 3606 
L 622 4213 
L 1197 4213 
z
M 303 153 
Q 425 191 476 219 
Q 528 247 564 297 
Q 600 347 620 450 
Q 641 553 641 772 
L 641 2134 
Q 641 2334 634 2456 
Q 628 2578 590 2651 
Q 553 2725 476 2761 
Q 400 2797 259 2822 
L 259 2988 
L 988 3016 
L 1178 3016 
L 1178 781 
Q 1178 513 1203 408 
Q 1228 303 1298 248 
Q 1369 194 1528 153 
L 1528 0 
L 303 0 
L 303 153 
z
" transform="scale(0.015625)"/>
       <path id="Cambria-96" d="M 116 2831 
Q 272 2856 369 2918 
Q 466 2981 520 3079 
Q 575 3178 606 3326 
Q 638 3475 672 3759 
L 1116 3759 
L 1116 2988 
L 2125 2988 
L 2125 2672 
L 1116 2672 
L 1116 1281 
Q 1116 978 1141 798 
Q 1166 619 1234 517 
Q 1303 416 1390 372 
Q 1478 328 1616 328 
Q 1741 328 1850 379 
Q 1959 431 2066 528 
L 2206 359 
Q 1984 144 1786 47 
Q 1588 -50 1375 -50 
Q 972 -50 775 189 
Q 578 428 578 938 
L 578 2672 
L 116 2672 
L 116 2831 
z
" transform="scale(0.015625)"/>
       <path id="Cambria-3" transform="scale(0.015625)"/>
       <path id="Cambria-8e" d="M 1138 781 
Q 1138 513 1163 408 
Q 1188 303 1258 248 
Q 1328 194 1488 153 
L 1488 0 
L 247 0 
L 247 153 
Q 403 194 464 237 
Q 525 281 551 342 
Q 578 403 589 508 
Q 600 613 600 781 
L 600 3397 
Q 600 3697 595 3815 
Q 591 3934 570 4017 
Q 550 4100 514 4147 
Q 478 4194 417 4222 
Q 356 4250 197 4278 
L 197 4441 
L 950 4472 
L 1138 4472 
L 1138 781 
z
" transform="scale(0.015625)"/>
       <path id="Cambria-87" d="M 2800 531 
Q 2600 322 2433 203 
Q 2266 84 2066 17 
Q 1866 -50 1625 -50 
Q 981 -50 653 336 
Q 325 722 325 1475 
Q 325 1941 492 2297 
Q 659 2653 968 2847 
Q 1278 3041 1681 3041 
Q 1997 3041 2219 2941 
Q 2441 2841 2573 2667 
Q 2706 2494 2779 2230 
Q 2853 1966 2863 1541 
L 894 1541 
L 894 1484 
Q 894 1116 976 864 
Q 1059 613 1248 470 
Q 1438 328 1741 328 
Q 1997 328 2201 423 
Q 2406 519 2609 734 
L 2800 531 
z
M 2275 1800 
Q 2256 2138 2190 2352 
Q 2125 2566 1994 2680 
Q 1863 2794 1650 2794 
Q 1328 2794 1136 2536 
Q 944 2278 909 1800 
L 2275 1800 
z
" transform="scale(0.015625)"/>
       <path id="Cambria-90" d="M 3347 0 
L 2116 0 
L 2116 153 
Q 2238 191 2291 219 
Q 2344 247 2380 297 
Q 2416 347 2436 451 
Q 2456 556 2456 769 
L 2456 1588 
Q 2456 1806 2443 1984 
Q 2431 2163 2401 2277 
Q 2372 2391 2330 2455 
Q 2288 2519 2230 2564 
Q 2172 2609 2097 2636 
Q 2022 2663 1900 2663 
Q 1778 2663 1668 2614 
Q 1559 2566 1428 2447 
Q 1297 2328 1237 2212 
Q 1178 2097 1178 1947 
L 1178 781 
Q 1178 513 1203 408 
Q 1228 303 1298 248 
Q 1369 194 1528 153 
L 1528 0 
L 303 0 
L 303 153 
Q 425 191 476 219 
Q 528 247 564 297 
Q 600 347 620 450 
Q 641 553 641 772 
L 641 2134 
Q 641 2334 634 2456 
Q 628 2578 590 2651 
Q 553 2725 476 2761 
Q 400 2797 259 2822 
L 259 2988 
L 991 3016 
L 1181 3016 
L 1147 2506 
L 1191 2494 
Q 1422 2728 1564 2828 
Q 1706 2928 1851 2983 
Q 1997 3038 2159 3038 
Q 2328 3038 2461 2998 
Q 2594 2959 2695 2878 
Q 2797 2797 2862 2676 
Q 2928 2556 2961 2387 
Q 2994 2219 2994 1959 
L 2994 781 
Q 2994 566 3006 469 
Q 3019 372 3050 319 
Q 3081 266 3140 230 
Q 3200 194 3347 153 
L 3347 0 
z
" transform="scale(0.015625)"/>
       <path id="Cambria-89" d="M 3106 2672 
L 2528 2694 
L 2500 2659 
Q 2597 2563 2653 2395 
Q 2709 2228 2709 2034 
Q 2709 1525 2395 1248 
Q 2081 972 1503 972 
Q 1244 972 1056 1038 
Q 819 856 819 681 
Q 819 566 864 506 
Q 909 447 1014 422 
Q 1119 397 1331 397 
L 2081 397 
Q 2413 397 2622 294 
Q 2831 191 2920 17 
Q 3009 -156 3009 -388 
Q 3009 -681 2840 -911 
Q 2672 -1141 2353 -1269 
Q 2034 -1397 1609 -1397 
Q 1294 -1397 1033 -1359 
Q 772 -1322 586 -1233 
Q 400 -1144 298 -998 
Q 197 -853 197 -634 
Q 197 -438 328 -277 
Q 459 -116 700 6 
Q 553 66 468 181 
Q 384 297 384 453 
Q 384 631 484 779 
Q 584 928 838 1119 
Q 613 1250 495 1475 
Q 378 1700 378 1988 
Q 378 2256 467 2454 
Q 556 2653 714 2783 
Q 872 2913 1087 2977 
Q 1303 3041 1553 3041 
Q 1778 3041 2000 2988 
L 3106 2988 
L 3106 2672 
z
M 938 2038 
Q 938 1647 1097 1434 
Q 1256 1222 1556 1222 
Q 1716 1222 1828 1283 
Q 1941 1344 2011 1450 
Q 2081 1556 2114 1695 
Q 2147 1834 2147 1988 
Q 2147 2263 2069 2447 
Q 1991 2631 1856 2717 
Q 1722 2803 1547 2803 
Q 1250 2803 1094 2606 
Q 938 2409 938 2038 
z
M 1016 -50 
Q 856 -169 776 -301 
Q 697 -434 697 -603 
Q 697 -884 920 -1017 
Q 1144 -1150 1603 -1150 
Q 1884 -1150 2086 -1075 
Q 2288 -1000 2394 -859 
Q 2500 -719 2500 -531 
Q 2500 -444 2478 -361 
Q 2456 -278 2395 -212 
Q 2334 -147 2221 -108 
Q 2109 -69 1928 -69 
L 1463 -69 
Q 1209 -69 1016 -50 
z
" transform="scale(0.015625)"/>
       <path id="Cambria-8a" d="M 1141 2497 
L 1153 2494 
Q 1397 2741 1539 2839 
Q 1681 2938 1820 2988 
Q 1959 3038 2119 3038 
Q 2291 3038 2425 2997 
Q 2559 2956 2661 2873 
Q 2763 2791 2827 2670 
Q 2891 2550 2922 2383 
Q 2953 2216 2953 1959 
L 2953 781 
Q 2953 509 2976 411 
Q 3000 313 3061 258 
Q 3122 203 3306 153 
L 3306 0 
L 2075 0 
L 2075 153 
Q 2197 191 2250 219 
Q 2303 247 2339 297 
Q 2375 347 2395 451 
Q 2416 556 2416 769 
L 2416 1588 
Q 2416 2003 2373 2223 
Q 2331 2444 2207 2553 
Q 2084 2663 1863 2663 
Q 1738 2663 1638 2619 
Q 1538 2575 1406 2462 
Q 1275 2350 1208 2231 
Q 1141 2113 1141 1978 
L 1141 781 
Q 1141 569 1152 478 
Q 1163 388 1194 327 
Q 1225 266 1289 227 
Q 1353 188 1488 153 
L 1488 0 
L 250 0 
L 250 153 
Q 388 191 447 225 
Q 506 259 539 312 
Q 572 366 587 466 
Q 603 566 603 781 
L 603 3397 
Q 603 3697 598 3815 
Q 594 3934 573 4017 
Q 553 4100 517 4147 
Q 481 4194 420 4222 
Q 359 4250 200 4278 
L 200 4441 
L 953 4472 
L 1141 4472 
L 1141 2497 
z
" transform="scale(0.015625)"/>
       <path id="Cambria-91" d="M 1663 -50 
Q 1013 -50 670 333 
Q 328 716 328 1466 
Q 328 1981 508 2337 
Q 688 2694 1000 2867 
Q 1313 3041 1713 3041 
Q 2381 3041 2725 2652 
Q 3069 2263 3069 1534 
Q 3069 1016 2897 659 
Q 2725 303 2409 126 
Q 2094 -50 1663 -50 
z
M 919 1531 
Q 919 888 1123 542 
Q 1328 197 1709 197 
Q 1919 197 2066 298 
Q 2213 400 2305 572 
Q 2397 744 2437 970 
Q 2478 1197 2478 1444 
Q 2478 1903 2376 2206 
Q 2275 2509 2100 2651 
Q 1925 2794 1700 2794 
Q 1322 2794 1120 2466 
Q 919 2138 919 1531 
z
" transform="scale(0.015625)"/>
       <path id="Cambria-88" d="M 1909 2672 
L 1163 2672 
L 1163 781 
Q 1163 572 1183 465 
Q 1203 359 1242 304 
Q 1281 250 1345 217 
Q 1409 184 1550 153 
L 1550 0 
L 272 0 
L 272 153 
Q 409 191 468 225 
Q 528 259 561 312 
Q 594 366 609 466 
Q 625 566 625 781 
L 625 2672 
L 247 2672 
L 247 2831 
Q 366 2850 405 2861 
Q 444 2872 480 2894 
Q 516 2916 542 2956 
Q 569 2997 589 3076 
Q 609 3156 622 3300 
Q 650 3641 745 3853 
Q 841 4066 1023 4216 
Q 1206 4366 1414 4427 
Q 1622 4488 1903 4488 
Q 2150 4488 2322 4453 
L 2322 3888 
L 2013 3888 
Q 1953 4072 1873 4148 
Q 1794 4225 1650 4225 
Q 1547 4225 1476 4197 
Q 1406 4169 1347 4109 
Q 1288 4050 1245 3950 
Q 1203 3850 1183 3701 
Q 1163 3553 1163 3316 
L 1163 2988 
L 1909 2988 
L 1909 2672 
z
" transform="scale(0.015625)"/>
       <path id="Cambria-92" d="M 1150 94 
L 1150 -566 
Q 1150 -769 1164 -869 
Q 1178 -969 1214 -1026 
Q 1250 -1084 1317 -1121 
Q 1384 -1159 1534 -1191 
L 1534 -1344 
L 259 -1344 
L 259 -1191 
Q 372 -1159 442 -1126 
Q 513 -1094 550 -1030 
Q 588 -966 600 -856 
Q 613 -747 613 -566 
L 613 2116 
Q 613 2341 606 2436 
Q 600 2531 581 2593 
Q 563 2656 527 2697 
Q 491 2738 430 2766 
Q 369 2794 228 2822 
L 228 2988 
L 963 3016 
L 1153 3016 
L 1113 2506 
L 1159 2494 
Q 1353 2691 1465 2780 
Q 1578 2869 1698 2928 
Q 1819 2988 1930 3013 
Q 2041 3038 2166 3038 
Q 2681 3038 2957 2652 
Q 3234 2266 3234 1522 
Q 3234 1006 3078 654 
Q 2922 303 2623 126 
Q 2325 -50 1913 -50 
Q 1681 -50 1493 -11 
Q 1306 28 1150 94 
z
M 1150 1125 
Q 1150 825 1187 662 
Q 1225 500 1320 398 
Q 1416 297 1545 247 
Q 1675 197 1888 197 
Q 2266 197 2456 511 
Q 2647 825 2647 1438 
Q 2647 2663 1931 2663 
Q 1756 2663 1629 2608 
Q 1503 2553 1378 2431 
Q 1253 2309 1201 2195 
Q 1150 2081 1150 1950 
L 1150 1125 
z
" transform="scale(0.015625)"/>
       <path id="Cambria-94" d="M 1147 2469 
L 1191 2459 
Q 1363 2669 1509 2789 
Q 1656 2909 1826 2975 
Q 1997 3041 2213 3041 
Q 2394 3041 2541 3022 
L 2541 2303 
L 2188 2303 
Q 2113 2472 2028 2548 
Q 1944 2625 1797 2625 
Q 1684 2625 1573 2559 
Q 1463 2494 1359 2369 
Q 1256 2244 1217 2134 
Q 1178 2025 1178 1875 
L 1178 781 
Q 1178 497 1212 389 
Q 1247 281 1326 231 
Q 1406 181 1566 153 
L 1566 0 
L 306 0 
L 306 153 
Q 425 191 476 219 
Q 528 247 565 297 
Q 603 347 622 450 
Q 641 553 641 772 
L 641 2134 
Q 641 2334 634 2456 
Q 628 2578 590 2651 
Q 553 2725 476 2761 
Q 400 2797 259 2822 
L 259 2984 
L 991 3016 
L 1181 3016 
L 1147 2469 
z
" transform="scale(0.015625)"/>
       <path id="Cambria-8f" d="M 1147 2506 
L 1191 2494 
Q 1378 2681 1498 2776 
Q 1619 2872 1731 2930 
Q 1844 2988 1942 3013 
Q 2041 3038 2144 3038 
Q 2456 3038 2653 2894 
Q 2850 2750 2925 2453 
Q 3159 2691 3304 2803 
Q 3450 2916 3601 2977 
Q 3753 3038 3928 3038 
Q 4138 3038 4289 2977 
Q 4441 2916 4545 2789 
Q 4650 2663 4698 2472 
Q 4747 2281 4747 1959 
L 4747 781 
Q 4747 544 4762 453 
Q 4778 363 4808 313 
Q 4838 263 4897 227 
Q 4956 191 5097 153 
L 5097 0 
L 3869 0 
L 3869 153 
Q 3991 191 4044 219 
Q 4097 247 4133 297 
Q 4169 347 4189 451 
Q 4209 556 4209 769 
L 4209 1588 
Q 4209 1853 4195 2026 
Q 4181 2200 4151 2303 
Q 4122 2406 4080 2465 
Q 4038 2525 3984 2569 
Q 3931 2613 3859 2638 
Q 3788 2663 3669 2663 
Q 3544 2663 3436 2613 
Q 3328 2563 3201 2444 
Q 3075 2325 3019 2204 
Q 2963 2084 2963 1922 
L 2963 781 
Q 2963 544 2978 453 
Q 2994 363 3023 313 
Q 3053 263 3112 227 
Q 3172 191 3313 153 
L 3313 0 
L 2084 0 
L 2084 153 
Q 2206 191 2259 219 
Q 2313 247 2348 297 
Q 2384 347 2404 451 
Q 2425 556 2425 769 
L 2425 1588 
Q 2425 1866 2409 2041 
Q 2394 2216 2361 2322 
Q 2328 2428 2276 2493 
Q 2225 2559 2172 2593 
Q 2119 2628 2047 2645 
Q 1975 2663 1884 2663 
Q 1756 2663 1643 2605 
Q 1531 2547 1414 2437 
Q 1297 2328 1237 2209 
Q 1178 2091 1178 1953 
L 1178 781 
Q 1178 603 1187 509 
Q 1197 416 1217 362 
Q 1238 309 1269 276 
Q 1300 244 1358 214 
Q 1416 184 1531 153 
L 1531 0 
L 306 0 
L 306 153 
Q 425 191 476 219 
Q 528 247 565 297 
Q 603 347 622 450 
Q 641 553 641 772 
L 641 2134 
Q 641 2334 634 2456 
Q 628 2578 590 2651 
Q 553 2725 476 2761 
Q 400 2797 259 2822 
L 259 2988 
L 991 3016 
L 1181 3016 
L 1147 2506 
z
" transform="scale(0.015625)"/>
       <path id="Cmmi10-84" d="M 494 109 
Q 494 147 500 166 
L 978 2075 
Q 1025 2253 1025 2388 
Q 1025 2663 838 2663 
Q 638 2663 541 2423 
Q 444 2184 353 1819 
Q 353 1800 334 1789 
Q 316 1778 300 1778 
L 225 1778 
Q 203 1778 187 1801 
Q 172 1825 172 1844 
Q 241 2122 305 2315 
Q 369 2509 505 2668 
Q 641 2828 844 2828 
Q 1066 2828 1233 2700 
Q 1400 2572 1441 2363 
Q 1603 2575 1811 2701 
Q 2019 2828 2266 2828 
Q 2469 2828 2623 2709 
Q 2778 2591 2778 2388 
Q 2778 2225 2676 2104 
Q 2575 1984 2406 1984 
Q 2303 1984 2233 2048 
Q 2163 2113 2163 2216 
Q 2163 2356 2266 2467 
Q 2369 2578 2503 2578 
Q 2400 2663 2253 2663 
Q 1978 2663 1775 2467 
Q 1572 2272 1409 1972 
L 953 141 
Q 931 53 854 -9 
Q 778 -72 684 -72 
Q 606 -72 550 -22 
Q 494 28 494 109 
z
" transform="scale(0.015625)"/>
      </defs>
      <use xlink:href="#Cambria-84" transform="translate(0 0.875)"/>
      <use xlink:href="#Cambria-8b" transform="translate(54.736328 0.875)"/>
      <use xlink:href="#Cambria-96" transform="translate(82.519531 0.875)"/>
      <use xlink:href="#Cambria-3" transform="translate(116.357422 0.875)"/>
      <use xlink:href="#Cambria-8e" transform="translate(138.378906 0.875)"/>
      <use xlink:href="#Cambria-87" transform="translate(165.527344 0.875)"/>
      <use xlink:href="#Cambria-90" transform="translate(214.306641 0.875)"/>
      <use xlink:href="#Cambria-89" transform="translate(270.117188 0.875)"/>
      <use xlink:href="#Cambria-96" transform="translate(319.53125 0.875)"/>
      <use xlink:href="#Cambria-8a" transform="translate(353.369141 0.875)"/>
      <use xlink:href="#Cambria-3" transform="translate(408.544922 0.875)"/>
      <use xlink:href="#Cambria-91" transform="translate(430.566406 0.875)"/>
      <use xlink:href="#Cambria-88" transform="translate(483.642578 0.875)"/>
      <use xlink:href="#Cambria-3" transform="translate(513.916016 0.875)"/>
      <use xlink:href="#Cambria-96" transform="translate(535.9375 0.875)"/>
      <use xlink:href="#Cambria-8a" transform="translate(569.775391 0.875)"/>
      <use xlink:href="#Cambria-87" transform="translate(624.951172 0.875)"/>
      <use xlink:href="#Cambria-3" transform="translate(673.730469 0.875)"/>
      <use xlink:href="#Cambria-92" transform="translate(695.751953 0.875)"/>
      <use xlink:href="#Cambria-94" transform="translate(751.367188 0.875)"/>
      <use xlink:href="#Cambria-8b" transform="translate(792.724609 0.875)"/>
      <use xlink:href="#Cambria-8f" transform="translate(820.507812 0.875)"/>
      <use xlink:href="#Cambria-87" transform="translate(903.710938 0.875)"/>
      <use xlink:href="#Cambria-3" transform="translate(952.490234 0.875)"/>
      <use xlink:href="#Cmmi10-84" transform="translate(974.511719 0.875)"/>
     </g>
    </g>
   </g>
   <g id="matplotlib.axis_2">
    <g id="ytick_1">
     <g id="line2d_13">
      <path d="M 43.982891 212.786221 
L 425.798906 212.786221 
" clip-path="url(#p96625bd308)" style="fill: none; stroke: #e1e0d9; stroke-width: 0.7; stroke-linecap: square"/>
     </g>
     <g id="line2d_14">
      <defs>
       <path id="m0a5efa57e1" d="M 0 0 
L -3.5 0 
" style="stroke: #898781; stroke-width: 0.8"/>
      </defs>
      <g>
       <use xlink:href="#m0a5efa57e1" x="43.982891" y="212.786221" style="fill: #898781; stroke: #898781; stroke-width: 0.8"/>
      </g>
     </g>
     <g id="text_8">
      <!-- 0.0 -->
      <g style="fill: #52514e" transform="translate(23.2 216.869839) scale(0.105 -0.105)">
       <defs>
        <path id="Cambria-1e4" d="M 972 725 
L 972 0 
L 341 0 
L 341 725 
L 972 725 
z
" transform="scale(0.015625)"/>
       </defs>
       <use xlink:href="#Cambria-372"/>
       <use xlink:href="#Cambria-1e4" transform="translate(55.375 0)"/>
       <use xlink:href="#Cambria-372" transform="translate(75.890625 0)"/>
      </g>
     </g>
    </g>
    <g id="ytick_2">
     <g id="line2d_15">
      <path d="M 43.982891 178.387248 
L 425.798906 178.387248 
" clip-path="url(#p96625bd308)" style="fill: none; stroke: #e1e0d9; stroke-width: 0.7; stroke-linecap: square"/>
     </g>
     <g id="line2d_16">
      <g>
       <use xlink:href="#m0a5efa57e1" x="43.982891" y="178.387248" style="fill: #898781; stroke: #898781; stroke-width: 0.8"/>
      </g>
     </g>
     <g id="text_9">
      <!-- 0.2 -->
      <g style="fill: #52514e" transform="translate(23.2 182.470866) scale(0.105 -0.105)">
       <use xlink:href="#Cambria-372"/>
       <use xlink:href="#Cambria-1e4" transform="translate(55.375 0)"/>
       <use xlink:href="#Cambria-374" transform="translate(75.890625 0)"/>
      </g>
     </g>
    </g>
    <g id="ytick_3">
     <g id="line2d_17">
      <path d="M 43.982891 143.988274 
L 425.798906 143.988274 
" clip-path="url(#p96625bd308)" style="fill: none; stroke: #e1e0d9; stroke-width: 0.7; stroke-linecap: square"/>
     </g>
     <g id="line2d_18">
      <g>
       <use xlink:href="#m0a5efa57e1" x="43.982891" y="143.988274" style="fill: #898781; stroke: #898781; stroke-width: 0.8"/>
      </g>
     </g>
     <g id="text_10">
      <!-- 0.4 -->
      <g style="fill: #52514e" transform="translate(23.2 148.071893) scale(0.105 -0.105)">
       <use xlink:href="#Cambria-372"/>
       <use xlink:href="#Cambria-1e4" transform="translate(55.375 0)"/>
       <use xlink:href="#Cambria-376" transform="translate(75.890625 0)"/>
      </g>
     </g>
    </g>
    <g id="ytick_4">
     <g id="line2d_19">
      <path d="M 43.982891 109.589301 
L 425.798906 109.589301 
" clip-path="url(#p96625bd308)" style="fill: none; stroke: #e1e0d9; stroke-width: 0.7; stroke-linecap: square"/>
     </g>
     <g id="line2d_20">
      <g>
       <use xlink:href="#m0a5efa57e1" x="43.982891" y="109.589301" style="fill: #898781; stroke: #898781; stroke-width: 0.8"/>
      </g>
     </g>
     <g id="text_11">
      <!-- 0.6 -->
      <g style="fill: #52514e" transform="translate(23.2 113.672919) scale(0.105 -0.105)">
       <use xlink:href="#Cambria-372"/>
       <use xlink:href="#Cambria-1e4" transform="translate(55.375 0)"/>
       <use xlink:href="#Cambria-378" transform="translate(75.890625 0)"/>
      </g>
     </g>
    </g>
    <g id="ytick_5">
     <g id="line2d_21">
      <path d="M 43.982891 75.190328 
L 425.798906 75.190328 
" clip-path="url(#p96625bd308)" style="fill: none; stroke: #e1e0d9; stroke-width: 0.7; stroke-linecap: square"/>
     </g>
     <g id="line2d_22">
      <g>
       <use xlink:href="#m0a5efa57e1" x="43.982891" y="75.190328" style="fill: #898781; stroke: #898781; stroke-width: 0.8"/>
      </g>
     </g>
     <g id="text_12">
      <!-- 0.8 -->
      <g style="fill: #52514e" transform="translate(23.2 79.273946) scale(0.105 -0.105)">
       <defs>
        <path id="Cambria-37a" d="M 2475 2253 
L 2481 2213 
Q 2834 2075 3015 1811 
Q 3197 1547 3197 1175 
Q 3197 809 3022 531 
Q 2847 253 2514 101 
Q 2181 -50 1738 -50 
Q 1322 -50 1008 89 
Q 694 228 520 495 
Q 347 763 347 1125 
Q 347 1397 440 1597 
Q 534 1797 686 1926 
Q 838 2056 1069 2163 
L 1063 2203 
Q 391 2494 391 3200 
Q 391 3522 567 3775 
Q 744 4028 1070 4172 
Q 1397 4316 1794 4316 
Q 2244 4316 2550 4189 
Q 2856 4063 3011 3823 
Q 3166 3584 3166 3250 
Q 3166 2906 2997 2657 
Q 2828 2409 2475 2253 
z
M 978 3228 
Q 978 3044 1022 2881 
Q 1066 2719 1162 2600 
Q 1259 2481 1414 2411 
Q 1569 2341 1794 2341 
Q 2053 2341 2229 2442 
Q 2406 2544 2492 2739 
Q 2578 2934 2578 3191 
Q 2578 3472 2476 3667 
Q 2375 3863 2197 3956 
Q 2019 4050 1788 4050 
Q 1394 4050 1186 3836 
Q 978 3622 978 3228 
z
M 944 1178 
Q 944 975 991 798 
Q 1038 622 1139 494 
Q 1241 366 1400 291 
Q 1559 216 1788 216 
Q 2044 216 2226 320 
Q 2409 425 2504 631 
Q 2600 838 2600 1119 
Q 2600 1419 2497 1636 
Q 2394 1853 2206 1967 
Q 2019 2081 1772 2081 
Q 1541 2081 1383 2009 
Q 1225 1938 1126 1816 
Q 1028 1694 986 1530 
Q 944 1366 944 1178 
z
" transform="scale(0.015625)"/>
       </defs>
       <use xlink:href="#Cambria-372"/>
       <use xlink:href="#Cambria-1e4" transform="translate(55.375 0)"/>
       <use xlink:href="#Cambria-37a" transform="translate(75.890625 0)"/>
      </g>
     </g>
    </g>
    <g id="ytick_6">
     <g id="line2d_23">
      <path d="M 43.982891 40.791354 
L 425.798906 40.791354 
" clip-path="url(#p96625bd308)" style="fill: none; stroke: #e1e0d9; stroke-width: 0.7; stroke-linecap: square"/>
     </g>
     <g id="line2d_24">
      <g>
       <use xlink:href="#m0a5efa57e1" x="43.982891" y="40.791354" style="fill: #898781; stroke: #898781; stroke-width: 0.8"/>
      </g>
     </g>
     <g id="text_13">
      <!-- 1.0 -->
      <g style="fill: #52514e" transform="translate(23.2 44.874973) scale(0.105 -0.105)">
       <use xlink:href="#Cambria-373"/>
       <use xlink:href="#Cambria-1e4" transform="translate(55.375 0)"/>
       <use xlink:href="#Cambria-372" transform="translate(75.890625 0)"/>
      </g>
     </g>
    </g>
    <g id="text_14">
     <!-- coverage fraction of tested primes -->
     <g style="fill: #0b0b0b" transform="translate(16.533984 209.251729) rotate(-90) scale(0.12 -0.12)">
      <defs>
       <path id="Cambria-85" d="M 2631 2916 
L 2631 2263 
L 2234 2263 
Q 2181 2466 2103 2583 
Q 2025 2700 1922 2747 
Q 1819 2794 1666 2794 
Q 1447 2794 1278 2653 
Q 1109 2513 1011 2225 
Q 913 1938 913 1522 
Q 913 1256 950 1036 
Q 988 816 1078 659 
Q 1169 503 1319 415 
Q 1469 328 1691 328 
Q 1906 328 2092 412 
Q 2278 497 2478 709 
L 2656 503 
Q 2497 328 2375 233 
Q 2253 138 2114 73 
Q 1975 9 1839 -20 
Q 1703 -50 1544 -50 
Q 953 -50 640 342 
Q 328 734 328 1475 
Q 328 1938 503 2295 
Q 678 2653 993 2847 
Q 1309 3041 1722 3041 
Q 1978 3041 2195 3011 
Q 2413 2981 2631 2916 
z
" transform="scale(0.015625)"/>
       <path id="Cambria-98" d="M 1334 2988 
L 1334 2834 
Q 1191 2800 1131 2769 
Q 1072 2738 1042 2688 
Q 1013 2638 1013 2553 
Q 1013 2469 1033 2376 
Q 1053 2284 1097 2163 
L 1641 581 
L 2278 2097 
Q 2341 2247 2366 2344 
Q 2391 2441 2391 2525 
Q 2391 2656 2320 2725 
Q 2250 2794 2063 2834 
L 2063 2988 
L 3231 2988 
L 3231 2834 
Q 3109 2809 3043 2757 
Q 2978 2706 2912 2595 
Q 2847 2484 2756 2284 
L 1703 -31 
L 1334 -31 
L 488 2303 
Q 400 2544 348 2633 
Q 297 2722 236 2765 
Q 175 2809 59 2834 
L 59 2988 
L 1334 2988 
z
" transform="scale(0.015625)"/>
       <path id="Cambria-83" d="M 2109 447 
L 2063 459 
Q 1791 181 1552 65 
Q 1313 -50 1044 -50 
Q 806 -50 625 42 
Q 444 134 347 301 
Q 250 469 250 688 
Q 250 1144 701 1392 
Q 1153 1641 2056 1681 
L 2056 1884 
Q 2056 2209 1993 2396 
Q 1931 2584 1797 2671 
Q 1663 2759 1438 2759 
Q 1194 2759 1045 2631 
Q 897 2503 822 2247 
L 413 2247 
L 413 2653 
Q 713 2809 913 2882 
Q 1113 2956 1313 2998 
Q 1513 3041 1719 3041 
Q 2028 3041 2215 2942 
Q 2403 2844 2497 2641 
Q 2591 2438 2591 2028 
L 2591 941 
Q 2591 709 2594 614 
Q 2597 519 2612 437 
Q 2628 356 2659 307 
Q 2691 259 2752 225 
Q 2813 191 2950 153 
L 2950 0 
L 2094 0 
L 2109 447 
z
M 2056 1425 
Q 1422 1419 1106 1256 
Q 791 1094 791 766 
Q 791 588 862 484 
Q 934 381 1043 342 
Q 1153 303 1303 303 
Q 1516 303 1689 406 
Q 1863 509 1959 668 
Q 2056 828 2056 984 
L 2056 1425 
z
" transform="scale(0.015625)"/>
       <path id="Cambria-95" d="M 2397 2303 
L 2097 2303 
Q 2028 2491 1934 2598 
Q 1841 2706 1722 2750 
Q 1603 2794 1431 2794 
Q 1181 2794 1032 2676 
Q 884 2559 884 2356 
Q 884 2213 943 2119 
Q 1003 2025 1128 1944 
Q 1253 1863 1569 1728 
Q 1888 1591 2061 1475 
Q 2234 1359 2332 1206 
Q 2431 1053 2431 841 
Q 2431 594 2347 425 
Q 2263 256 2109 150 
Q 1956 44 1745 -3 
Q 1534 -50 1284 -50 
Q 1022 -50 775 -11 
Q 528 28 294 91 
L 294 744 
L 600 744 
Q 684 456 850 326 
Q 1016 197 1306 197 
Q 1419 197 1526 220 
Q 1634 244 1718 298 
Q 1803 353 1853 447 
Q 1903 541 1903 681 
Q 1903 841 1840 941 
Q 1778 1041 1647 1123 
Q 1516 1206 1184 1347 
Q 900 1466 728 1578 
Q 556 1691 457 1844 
Q 359 1997 359 2206 
Q 359 2463 498 2652 
Q 638 2841 900 2941 
Q 1163 3041 1516 3041 
Q 1722 3041 1914 3020 
Q 2106 3000 2397 2941 
L 2397 2303 
z
" transform="scale(0.015625)"/>
       <path id="Cambria-86" d="M 2413 3397 
Q 2413 3697 2408 3815 
Q 2403 3934 2383 4017 
Q 2363 4100 2327 4147 
Q 2291 4194 2230 4222 
Q 2169 4250 2009 4278 
L 2009 4441 
L 2766 4472 
L 2950 4472 
L 2950 853 
Q 2950 609 2959 504 
Q 2969 400 3000 337 
Q 3031 275 3098 236 
Q 3166 197 3334 163 
L 3334 0 
L 2597 -31 
L 2409 -31 
L 2447 481 
L 2400 494 
Q 2203 284 2058 179 
Q 1913 75 1748 12 
Q 1584 -50 1397 -50 
Q 884 -50 606 339 
Q 328 728 328 1463 
Q 328 1975 509 2333 
Q 691 2691 998 2866 
Q 1306 3041 1691 3041 
Q 1897 3041 2065 3008 
Q 2234 2975 2413 2900 
L 2413 3397 
z
M 2413 1853 
Q 2413 2097 2391 2244 
Q 2369 2391 2317 2491 
Q 2266 2591 2178 2659 
Q 2091 2728 1986 2759 
Q 1881 2791 1734 2791 
Q 1334 2791 1125 2470 
Q 916 2150 916 1550 
Q 916 950 1087 637 
Q 1259 325 1609 325 
Q 1747 325 1837 348 
Q 1928 372 2015 423 
Q 2103 475 2193 565 
Q 2284 656 2326 731 
Q 2369 806 2391 903 
Q 2413 1000 2413 1153 
L 2413 1853 
z
" transform="scale(0.015625)"/>
      </defs>
      <use xlink:href="#Cambria-85"/>
      <use xlink:href="#Cambria-91" transform="translate(44.09375 0)"/>
      <use xlink:href="#Cambria-98" transform="translate(95.703125 0)"/>
      <use xlink:href="#Cambria-87" transform="translate(144.140625 0)"/>
      <use xlink:href="#Cambria-94" transform="translate(192.921875 0)"/>
      <use xlink:href="#Cambria-83" transform="translate(232.578125 0)"/>
      <use xlink:href="#Cambria-89" transform="translate(281.40625 0)"/>
      <use xlink:href="#Cambria-87" transform="translate(330.828125 0)"/>
      <use xlink:href="#Cambria-3" transform="translate(379.609375 0)"/>
      <use xlink:href="#Cambria-88" transform="translate(401.625 0)"/>
      <use xlink:href="#Cambria-94" transform="translate(431.90625 0)"/>
      <use xlink:href="#Cambria-83" transform="translate(471.5625 0)"/>
      <use xlink:href="#Cambria-85" transform="translate(520.390625 0)"/>
      <use xlink:href="#Cambria-96" transform="translate(564.484375 0)"/>
      <use xlink:href="#Cambria-8b" transform="translate(598.328125 0)"/>
      <use xlink:href="#Cambria-91" transform="translate(626.109375 0)"/>
      <use xlink:href="#Cambria-90" transform="translate(679.1875 0)"/>
      <use xlink:href="#Cambria-3" transform="translate(735 0)"/>
      <use xlink:href="#Cambria-91" transform="translate(757.015625 0)"/>
      <use xlink:href="#Cambria-88" transform="translate(810.09375 0)"/>
      <use xlink:href="#Cambria-3" transform="translate(840.375 0)"/>
      <use xlink:href="#Cambria-96" transform="translate(862.390625 0)"/>
      <use xlink:href="#Cambria-87" transform="translate(895.359375 0)"/>
      <use xlink:href="#Cambria-95" transform="translate(944.140625 0)"/>
      <use xlink:href="#Cambria-96" transform="translate(987.109375 0)"/>
      <use xlink:href="#Cambria-87" transform="translate(1020.078125 0)"/>
      <use xlink:href="#Cambria-86" transform="translate(1068.859375 0)"/>
      <use xlink:href="#Cambria-3" transform="translate(1124.328125 0)"/>
      <use xlink:href="#Cambria-92" transform="translate(1146.34375 0)"/>
      <use xlink:href="#Cambria-94" transform="translate(1201.953125 0)"/>
      <use xlink:href="#Cambria-8b" transform="translate(1243.3125 0)"/>
      <use xlink:href="#Cambria-8f" transform="translate(1271.09375 0)"/>
      <use xlink:href="#Cambria-87" transform="translate(1354.296875 0)"/>
      <use xlink:href="#Cambria-95" transform="translate(1403.078125 0)"/>
     </g>
    </g>
   </g>
   <g id="LineCollection_1">
    <path d="M 61.338164 59.225626 
L 61.338164 40.791354 
" clip-path="url(#p96625bd308)" style="fill: none; stroke: #2a78d6; stroke-width: 1.7"/>
    <path d="M 90.26362 59.225626 
L 90.26362 40.791354 
" clip-path="url(#p96625bd308)" style="fill: none; stroke: #2a78d6; stroke-width: 1.7"/>
    <path d="M 119.189076 59.225626 
L 119.189076 40.791354 
" clip-path="url(#p96625bd308)" style="fill: none; stroke: #2a78d6; stroke-width: 1.7"/>
    <path d="M 148.114531 59.225626 
L 148.114531 40.791354 
" clip-path="url(#p96625bd308)" style="fill: none; stroke: #2a78d6; stroke-width: 1.7"/>
    <path d="M 177.039987 59.225626 
L 177.039987 40.791354 
" clip-path="url(#p96625bd308)" style="fill: none; stroke: #2a78d6; stroke-width: 1.7"/>
    <path d="M 205.965443 59.225626 
L 205.965443 40.791354 
" clip-path="url(#p96625bd308)" style="fill: none; stroke: #2a78d6; stroke-width: 1.7"/>
    <path d="M 234.890898 59.225626 
L 234.890898 40.791354 
" clip-path="url(#p96625bd308)" style="fill: none; stroke: #2a78d6; stroke-width: 1.7"/>
    <path d="M 263.816354 59.225626 
L 263.816354 40.791354 
" clip-path="url(#p96625bd308)" style="fill: none; stroke: #2a78d6; stroke-width: 1.7"/>
    <path d="M 292.74181 45.802761 
L 292.74181 40.791354 
" clip-path="url(#p96625bd308)" style="fill: none; stroke: #2a78d6; stroke-width: 1.7"/>
    <path d="M 321.667266 45.802761 
L 321.667266 40.791354 
" clip-path="url(#p96625bd308)" style="fill: none; stroke: #2a78d6; stroke-width: 1.7"/>
    <path d="M 350.592721 45.802761 
L 350.592721 40.791354 
" clip-path="url(#p96625bd308)" style="fill: none; stroke: #2a78d6; stroke-width: 1.7"/>
    <path d="M 379.518177 45.802761 
L 379.518177 40.791354 
" clip-path="url(#p96625bd308)" style="fill: none; stroke: #2a78d6; stroke-width: 1.7"/>
    <path d="M 408.443633 45.802761 
L 408.443633 40.791354 
" clip-path="url(#p96625bd308)" style="fill: none; stroke: #2a78d6; stroke-width: 1.7"/>
   </g>
   <g id="line2d_25">
    <defs>
     <path id="mea1a4c04d8" d="M 2.2 0 
L -2.2 -0 
" style="stroke: #2a78d6"/>
    </defs>
    <g clip-path="url(#p96625bd308)">
     <use xlink:href="#mea1a4c04d8" x="61.338164" y="59.225626" style="fill: #2a78d6; stroke: #2a78d6"/>
     <use xlink:href="#mea1a4c04d8" x="90.26362" y="59.225626" style="fill: #2a78d6; stroke: #2a78d6"/>
     <use xlink:href="#mea1a4c04d8" x="119.189076" y="59.225626" style="fill: #2a78d6; stroke: #2a78d6"/>
     <use xlink:href="#mea1a4c04d8" x="148.114531" y="59.225626" style="fill: #2a78d6; stroke: #2a78d6"/>
     <use xlink:href="#mea1a4c04d8" x="177.039987" y="59.225626" style="fill: #2a78d6; stroke: #2a78d6"/>
     <use xlink:href="#mea1a4c04d8" x="205.965443" y="59.225626" style="fill: #2a78d6; stroke: #2a78d6"/>
     <use xlink:href="#mea1a4c04d8" x="234.890898" y="59.225626" style="fill: #2a78d6; stroke: #2a78d6"/>
     <use xlink:href="#mea1a4c04d8" x="263.816354" y="59.225626" style="fill: #2a78d6; stroke: #2a78d6"/>
     <use xlink:href="#mea1a4c04d8" x="292.74181" y="45.802761" style="fill: #2a78d6; stroke: #2a78d6"/>
     <use xlink:href="#mea1a4c04d8" x="321.667266" y="45.802761" style="fill: #2a78d6; stroke: #2a78d6"/>
     <use xlink:href="#mea1a4c04d8" x="350.592721" y="45.802761" style="fill: #2a78d6; stroke: #2a78d6"/>
     <use xlink:href="#mea1a4c04d8" x="379.518177" y="45.802761" style="fill: #2a78d6; stroke: #2a78d6"/>
     <use xlink:href="#mea1a4c04d8" x="408.443633" y="45.802761" style="fill: #2a78d6; stroke: #2a78d6"/>
    </g>
   </g>
   <g id="line2d_26">
    <g clip-path="url(#p96625bd308)">
     <use xlink:href="#mea1a4c04d8" x="61.338164" y="40.791354" style="fill: #2a78d6; stroke: #2a78d6"/>
     <use xlink:href="#mea1a4c04d8" x="90.26362" y="40.791354" style="fill: #2a78d6; stroke: #2a78d6"/>
     <use xlink:href="#mea1a4c04d8" x="119.189076" y="40.791354" style="fill: #2a78d6; stroke: #2a78d6"/>
     <use xlink:href="#mea1a4c04d8" x="148.114531" y="40.791354" style="fill: #2a78d6; stroke: #2a78d6"/>
     <use xlink:href="#mea1a4c04d8" x="177.039987" y="40.791354" style="fill: #2a78d6; stroke: #2a78d6"/>
     <use xlink:href="#mea1a4c04d8" x="205.965443" y="40.791354" style="fill: #2a78d6; stroke: #2a78d6"/>
     <use xlink:href="#mea1a4c04d8" x="234.890898" y="40.791354" style="fill: #2a78d6; stroke: #2a78d6"/>
     <use xlink:href="#mea1a4c04d8" x="263.816354" y="40.791354" style="fill: #2a78d6; stroke: #2a78d6"/>
     <use xlink:href="#mea1a4c04d8" x="292.74181" y="40.791354" style="fill: #2a78d6; stroke: #2a78d6"/>
     <use xlink:href="#mea1a4c04d8" x="321.667266" y="40.791354" style="fill: #2a78d6; stroke: #2a78d6"/>
     <use xlink:href="#mea1a4c04d8" x="350.592721" y="40.791354" style="fill: #2a78d6; stroke: #2a78d6"/>
     <use xlink:href="#mea1a4c04d8" x="379.518177" y="40.791354" style="fill: #2a78d6; stroke: #2a78d6"/>
     <use xlink:href="#mea1a4c04d8" x="408.443633" y="40.791354" style="fill: #2a78d6; stroke: #2a78d6"/>
    </g>
   </g>
   <g id="LineCollection_2">
    <path d="M 61.338164 59.225626 
L 61.338164 40.791354 
" clip-path="url(#p96625bd308)" style="fill: none; stroke: #eb6834; stroke-width: 1.7"/>
    <path d="M 90.26362 59.225626 
L 90.26362 40.791354 
" clip-path="url(#p96625bd308)" style="fill: none; stroke: #eb6834; stroke-width: 1.7"/>
    <path d="M 119.189076 59.225626 
L 119.189076 40.791354 
" clip-path="url(#p96625bd308)" style="fill: none; stroke: #eb6834; stroke-width: 1.7"/>
    <path d="M 148.114531 59.225626 
L 148.114531 40.791354 
" clip-path="url(#p96625bd308)" style="fill: none; stroke: #eb6834; stroke-width: 1.7"/>
    <path d="M 177.039987 59.225626 
L 177.039987 40.791354 
" clip-path="url(#p96625bd308)" style="fill: none; stroke: #eb6834; stroke-width: 1.7"/>
    <path d="M 205.965443 67.87068 
L 205.965443 41.743838 
" clip-path="url(#p96625bd308)" style="fill: none; stroke: #eb6834; stroke-width: 1.7"/>
    <path d="M 234.890898 59.225626 
L 234.890898 40.791354 
" clip-path="url(#p96625bd308)" style="fill: none; stroke: #eb6834; stroke-width: 1.7"/>
    <path d="M 263.816354 75.443372 
L 263.816354 43.768683 
" clip-path="url(#p96625bd308)" style="fill: none; stroke: #eb6834; stroke-width: 1.7"/>
    <path d="M 292.74181 61.170667 
L 292.74181 46.296381 
" clip-path="url(#p96625bd308)" style="fill: none; stroke: #eb6834; stroke-width: 1.7"/>
    <path d="M 321.667266 81.694843 
L 321.667266 59.690721 
" clip-path="url(#p96625bd308)" style="fill: none; stroke: #eb6834; stroke-width: 1.7"/>
    <path d="M 350.592721 116.03948 
L 350.592721 87.964881 
" clip-path="url(#p96625bd308)" style="fill: none; stroke: #eb6834; stroke-width: 1.7"/>
    <path d="M 379.518177 146.658535 
L 379.518177 117.355507 
" clip-path="url(#p96625bd308)" style="fill: none; stroke: #eb6834; stroke-width: 1.7"/>
    <path d="M 408.443633 169.300786 
L 408.443633 141.677354 
" clip-path="url(#p96625bd308)" style="fill: none; stroke: #eb6834; stroke-width: 1.7"/>
   </g>
   <g id="line2d_27">
    <defs>
     <path id="m6f7173adc5" d="M 2.2 0 
L -2.2 -0 
" style="stroke: #eb6834"/>
    </defs>
    <g clip-path="url(#p96625bd308)">
     <use xlink:href="#m6f7173adc5" x="61.338164" y="59.225626" style="fill: #eb6834; stroke: #eb6834"/>
     <use xlink:href="#m6f7173adc5" x="90.26362" y="59.225626" style="fill: #eb6834; stroke: #eb6834"/>
     <use xlink:href="#m6f7173adc5" x="119.189076" y="59.225626" style="fill: #eb6834; stroke: #eb6834"/>
     <use xlink:href="#m6f7173adc5" x="148.114531" y="59.225626" style="fill: #eb6834; stroke: #eb6834"/>
     <use xlink:href="#m6f7173adc5" x="177.039987" y="59.225626" style="fill: #eb6834; stroke: #eb6834"/>
     <use xlink:href="#m6f7173adc5" x="205.965443" y="67.87068" style="fill: #eb6834; stroke: #eb6834"/>
     <use xlink:href="#m6f7173adc5" x="234.890898" y="59.225626" style="fill: #eb6834; stroke: #eb6834"/>
     <use xlink:href="#m6f7173adc5" x="263.816354" y="75.443372" style="fill: #eb6834; stroke: #eb6834"/>
     <use xlink:href="#m6f7173adc5" x="292.74181" y="61.170667" style="fill: #eb6834; stroke: #eb6834"/>
     <use xlink:href="#m6f7173adc5" x="321.667266" y="81.694843" style="fill: #eb6834; stroke: #eb6834"/>
     <use xlink:href="#m6f7173adc5" x="350.592721" y="116.03948" style="fill: #eb6834; stroke: #eb6834"/>
     <use xlink:href="#m6f7173adc5" x="379.518177" y="146.658535" style="fill: #eb6834; stroke: #eb6834"/>
     <use xlink:href="#m6f7173adc5" x="408.443633" y="169.300786" style="fill: #eb6834; stroke: #eb6834"/>
    </g>
   </g>
   <g id="line2d_28">
    <g clip-path="url(#p96625bd308)">
     <use xlink:href="#m6f7173adc5" x="61.338164" y="40.791354" style="fill: #eb6834; stroke: #eb6834"/>
     <use xlink:href="#m6f7173adc5" x="90.26362" y="40.791354" style="fill: #eb6834; stroke: #eb6834"/>
     <use xlink:href="#m6f7173adc5" x="119.189076" y="40.791354" style="fill: #eb6834; stroke: #eb6834"/>
     <use xlink:href="#m6f7173adc5" x="148.114531" y="40.791354" style="fill: #eb6834; stroke: #eb6834"/>
     <use xlink:href="#m6f7173adc5" x="177.039987" y="40.791354" style="fill: #eb6834; stroke: #eb6834"/>
     <use xlink:href="#m6f7173adc5" x="205.965443" y="41.743838" style="fill: #eb6834; stroke: #eb6834"/>
     <use xlink:href="#m6f7173adc5" x="234.890898" y="40.791354" style="fill: #eb6834; stroke: #eb6834"/>
     <use xlink:href="#m6f7173adc5" x="263.816354" y="43.768683" style="fill: #eb6834; stroke: #eb6834"/>
     <use xlink:href="#m6f7173adc5" x="292.74181" y="46.296381" style="fill: #eb6834; stroke: #eb6834"/>
     <use xlink:href="#m6f7173adc5" x="321.667266" y="59.690721" style="fill: #eb6834; stroke: #eb6834"/>
     <use xlink:href="#m6f7173adc5" x="350.592721" y="87.964881" style="fill: #eb6834; stroke: #eb6834"/>
     <use xlink:href="#m6f7173adc5" x="379.518177" y="117.355507" style="fill: #eb6834; stroke: #eb6834"/>
     <use xlink:href="#m6f7173adc5" x="408.443633" y="141.677354" style="fill: #eb6834; stroke: #eb6834"/>
    </g>
   </g>
   <g id="LineCollection_3">
    <path d="M 61.338164 59.225626 
L 61.338164 40.791354 
" clip-path="url(#p96625bd308)" style="fill: none; stroke: #1baf7a; stroke-width: 1.7"/>
    <path d="M 90.26362 67.87068 
L 90.26362 41.743838 
" clip-path="url(#p96625bd308)" style="fill: none; stroke: #1baf7a; stroke-width: 1.7"/>
    <path d="M 119.189076 82.445337 
L 119.189076 46.364255 
" clip-path="url(#p96625bd308)" style="fill: none; stroke: #1baf7a; stroke-width: 1.7"/>
    <path d="M 148.114531 75.443372 
L 148.114531 43.768683 
" clip-path="url(#p96625bd308)" style="fill: none; stroke: #1baf7a; stroke-width: 1.7"/>
    <path d="M 177.039987 101.521289 
L 177.039987 56.080915 
" clip-path="url(#p96625bd308)" style="fill: none; stroke: #1baf7a; stroke-width: 1.7"/>
    <path d="M 205.965443 107.447954 
L 205.965443 59.751787 
" clip-path="url(#p96625bd308)" style="fill: none; stroke: #1baf7a; stroke-width: 1.7"/>
    <path d="M 234.890898 150.094923 
L 234.890898 93.885116 
" clip-path="url(#p96625bd308)" style="fill: none; stroke: #1baf7a; stroke-width: 1.7"/>
    <path d="M 263.816354 154.942829 
L 263.816354 98.634747 
" clip-path="url(#p96625bd308)" style="fill: none; stroke: #1baf7a; stroke-width: 1.7"/>
    <path d="M 292.74181 156.87017 
L 292.74181 128.016804 
" clip-path="url(#p96625bd308)" style="fill: none; stroke: #1baf7a; stroke-width: 1.7"/>
    <path d="M 321.667266 169.300786 
L 321.667266 141.677354 
" clip-path="url(#p96625bd308)" style="fill: none; stroke: #1baf7a; stroke-width: 1.7"/>
    <path d="M 350.592721 178.945369 
L 350.592721 152.905703 
" clip-path="url(#p96625bd308)" style="fill: none; stroke: #1baf7a; stroke-width: 1.7"/>
    <path d="M 379.518177 190.536721 
L 379.518177 167.405516 
" clip-path="url(#p96625bd308)" style="fill: none; stroke: #1baf7a; stroke-width: 1.7"/>
    <path d="M 408.443633 200.348099 
L 408.443633 181.076188 
" clip-path="url(#p96625bd308)" style="fill: none; stroke: #1baf7a; stroke-width: 1.7"/>
   </g>
   <g id="line2d_29">
    <defs>
     <path id="m10652724de" d="M 2.2 0 
L -2.2 -0 
" style="stroke: #1baf7a"/>
    </defs>
    <g clip-path="url(#p96625bd308)">
     <use xlink:href="#m10652724de" x="61.338164" y="59.225626" style="fill: #1baf7a; stroke: #1baf7a"/>
     <use xlink:href="#m10652724de" x="90.26362" y="67.87068" style="fill: #1baf7a; stroke: #1baf7a"/>
     <use xlink:href="#m10652724de" x="119.189076" y="82.445337" style="fill: #1baf7a; stroke: #1baf7a"/>
     <use xlink:href="#m10652724de" x="148.114531" y="75.443372" style="fill: #1baf7a; stroke: #1baf7a"/>
     <use xlink:href="#m10652724de" x="177.039987" y="101.521289" style="fill: #1baf7a; stroke: #1baf7a"/>
     <use xlink:href="#m10652724de" x="205.965443" y="107.447954" style="fill: #1baf7a; stroke: #1baf7a"/>
     <use xlink:href="#m10652724de" x="234.890898" y="150.094923" style="fill: #1baf7a; stroke: #1baf7a"/>
     <use xlink:href="#m10652724de" x="263.816354" y="154.942829" style="fill: #1baf7a; stroke: #1baf7a"/>
     <use xlink:href="#m10652724de" x="292.74181" y="156.87017" style="fill: #1baf7a; stroke: #1baf7a"/>
     <use xlink:href="#m10652724de" x="321.667266" y="169.300786" style="fill: #1baf7a; stroke: #1baf7a"/>
     <use xlink:href="#m10652724de" x="350.592721" y="178.945369" style="fill: #1baf7a; stroke: #1baf7a"/>
     <use xlink:href="#m10652724de" x="379.518177" y="190.536721" style="fill: #1baf7a; stroke: #1baf7a"/>
     <use xlink:href="#m10652724de" x="408.443633" y="200.348099" style="fill: #1baf7a; stroke: #1baf7a"/>
    </g>
   </g>
   <g id="line2d_30">
    <g clip-path="url(#p96625bd308)">
     <use xlink:href="#m10652724de" x="61.338164" y="40.791354" style="fill: #1baf7a; stroke: #1baf7a"/>
     <use xlink:href="#m10652724de" x="90.26362" y="41.743838" style="fill: #1baf7a; stroke: #1baf7a"/>
     <use xlink:href="#m10652724de" x="119.189076" y="46.364255" style="fill: #1baf7a; stroke: #1baf7a"/>
     <use xlink:href="#m10652724de" x="148.114531" y="43.768683" style="fill: #1baf7a; stroke: #1baf7a"/>
     <use xlink:href="#m10652724de" x="177.039987" y="56.080915" style="fill: #1baf7a; stroke: #1baf7a"/>
     <use xlink:href="#m10652724de" x="205.965443" y="59.751787" style="fill: #1baf7a; stroke: #1baf7a"/>
     <use xlink:href="#m10652724de" x="234.890898" y="93.885116" style="fill: #1baf7a; stroke: #1baf7a"/>
     <use xlink:href="#m10652724de" x="263.816354" y="98.634747" style="fill: #1baf7a; stroke: #1baf7a"/>
     <use xlink:href="#m10652724de" x="292.74181" y="128.016804" style="fill: #1baf7a; stroke: #1baf7a"/>
     <use xlink:href="#m10652724de" x="321.667266" y="141.677354" style="fill: #1baf7a; stroke: #1baf7a"/>
     <use xlink:href="#m10652724de" x="350.592721" y="152.905703" style="fill: #1baf7a; stroke: #1baf7a"/>
     <use xlink:href="#m10652724de" x="379.518177" y="167.405516" style="fill: #1baf7a; stroke: #1baf7a"/>
     <use xlink:href="#m10652724de" x="408.443633" y="181.076188" style="fill: #1baf7a; stroke: #1baf7a"/>
    </g>
   </g>
   <g id="line2d_31">
    <path d="M 61.338164 40.791354 
L 90.26362 40.791354 
L 119.189076 40.791354 
L 148.114531 40.791354 
L 177.039987 40.791354 
L 205.965443 40.791354 
L 234.890898 40.791354 
L 263.816354 40.791354 
L 292.74181 40.791354 
L 321.667266 40.791354 
L 350.592721 40.791354 
L 379.518177 40.791354 
L 408.443633 40.791354 
" clip-path="url(#p96625bd308)" style="fill: none; stroke: #2a78d6; stroke-width: 1.7; stroke-linecap: square"/>
    <defs>
     <path id="m8fee3d45ac" d="M 0 2.2 
C 0.583447 2.2 1.143076 1.968194 1.555635 1.555635 
C 1.968194 1.143076 2.2 0.583447 2.2 0 
C 2.2 -0.583447 1.968194 -1.143076 1.555635 -1.555635 
C 1.143076 -1.968194 0.583447 -2.2 0 -2.2 
C -0.583447 -2.2 -1.143076 -1.968194 -1.555635 -1.555635 
C -1.968194 -1.143076 -2.2 -0.583447 -2.2 0 
C -2.2 0.583447 -1.968194 1.143076 -1.555635 1.555635 
C -1.143076 1.968194 -0.583447 2.2 0 2.2 
z
" style="stroke: #2a78d6"/>
    </defs>
    <g clip-path="url(#p96625bd308)">
     <use xlink:href="#m8fee3d45ac" x="61.338164" y="40.791354" style="fill: #2a78d6; stroke: #2a78d6"/>
     <use xlink:href="#m8fee3d45ac" x="90.26362" y="40.791354" style="fill: #2a78d6; stroke: #2a78d6"/>
     <use xlink:href="#m8fee3d45ac" x="119.189076" y="40.791354" style="fill: #2a78d6; stroke: #2a78d6"/>
     <use xlink:href="#m8fee3d45ac" x="148.114531" y="40.791354" style="fill: #2a78d6; stroke: #2a78d6"/>
     <use xlink:href="#m8fee3d45ac" x="177.039987" y="40.791354" style="fill: #2a78d6; stroke: #2a78d6"/>
     <use xlink:href="#m8fee3d45ac" x="205.965443" y="40.791354" style="fill: #2a78d6; stroke: #2a78d6"/>
     <use xlink:href="#m8fee3d45ac" x="234.890898" y="40.791354" style="fill: #2a78d6; stroke: #2a78d6"/>
     <use xlink:href="#m8fee3d45ac" x="263.816354" y="40.791354" style="fill: #2a78d6; stroke: #2a78d6"/>
     <use xlink:href="#m8fee3d45ac" x="292.74181" y="40.791354" style="fill: #2a78d6; stroke: #2a78d6"/>
     <use xlink:href="#m8fee3d45ac" x="321.667266" y="40.791354" style="fill: #2a78d6; stroke: #2a78d6"/>
     <use xlink:href="#m8fee3d45ac" x="350.592721" y="40.791354" style="fill: #2a78d6; stroke: #2a78d6"/>
     <use xlink:href="#m8fee3d45ac" x="379.518177" y="40.791354" style="fill: #2a78d6; stroke: #2a78d6"/>
     <use xlink:href="#m8fee3d45ac" x="408.443633" y="40.791354" style="fill: #2a78d6; stroke: #2a78d6"/>
    </g>
   </g>
   <g id="line2d_32">
    <path d="M 61.338164 40.791354 
L 90.26362 40.791354 
L 119.189076 40.791354 
L 148.114531 40.791354 
L 177.039987 40.791354 
L 205.965443 46.166194 
L 234.890898 40.791354 
L 263.816354 51.541034 
L 292.74181 51.541034 
L 321.667266 69.009262 
L 350.592721 101.2583 
L 379.518177 132.163627 
L 408.443633 156.350405 
" clip-path="url(#p96625bd308)" style="fill: none; stroke: #eb6834; stroke-width: 1.7; stroke-linecap: square"/>
    <defs>
     <path id="m32257aafc3" d="M -2.2 2.2 
L 2.2 2.2 
L 2.2 -2.2 
L -2.2 -2.2 
z
" style="stroke: #eb6834; stroke-linejoin: miter"/>
    </defs>
    <g clip-path="url(#p96625bd308)">
     <use xlink:href="#m32257aafc3" x="61.338164" y="40.791354" style="fill: #eb6834; stroke: #eb6834; stroke-linejoin: miter"/>
     <use xlink:href="#m32257aafc3" x="90.26362" y="40.791354" style="fill: #eb6834; stroke: #eb6834; stroke-linejoin: miter"/>
     <use xlink:href="#m32257aafc3" x="119.189076" y="40.791354" style="fill: #eb6834; stroke: #eb6834; stroke-linejoin: miter"/>
     <use xlink:href="#m32257aafc3" x="148.114531" y="40.791354" style="fill: #eb6834; stroke: #eb6834; stroke-linejoin: miter"/>
     <use xlink:href="#m32257aafc3" x="177.039987" y="40.791354" style="fill: #eb6834; stroke: #eb6834; stroke-linejoin: miter"/>
     <use xlink:href="#m32257aafc3" x="205.965443" y="46.166194" style="fill: #eb6834; stroke: #eb6834; stroke-linejoin: miter"/>
     <use xlink:href="#m32257aafc3" x="234.890898" y="40.791354" style="fill: #eb6834; stroke: #eb6834; stroke-linejoin: miter"/>
     <use xlink:href="#m32257aafc3" x="263.816354" y="51.541034" style="fill: #eb6834; stroke: #eb6834; stroke-linejoin: miter"/>
     <use xlink:href="#m32257aafc3" x="292.74181" y="51.541034" style="fill: #eb6834; stroke: #eb6834; stroke-linejoin: miter"/>
     <use xlink:href="#m32257aafc3" x="321.667266" y="69.009262" style="fill: #eb6834; stroke: #eb6834; stroke-linejoin: miter"/>
     <use xlink:href="#m32257aafc3" x="350.592721" y="101.2583" style="fill: #eb6834; stroke: #eb6834; stroke-linejoin: miter"/>
     <use xlink:href="#m32257aafc3" x="379.518177" y="132.163627" style="fill: #eb6834; stroke: #eb6834; stroke-linejoin: miter"/>
     <use xlink:href="#m32257aafc3" x="408.443633" y="156.350405" style="fill: #eb6834; stroke: #eb6834; stroke-linejoin: miter"/>
    </g>
   </g>
   <g id="line2d_33">
    <path d="M 61.338164 40.791354 
L 90.26362 46.166194 
L 119.189076 56.915873 
L 148.114531 51.541034 
L 177.039987 73.040392 
L 205.965443 78.415231 
L 234.890898 121.413948 
L 263.816354 126.788788 
L 292.74181 142.913306 
L 321.667266 156.350405 
L 350.592721 167.100085 
L 379.518177 180.537183 
L 408.443633 192.630573 
" clip-path="url(#p96625bd308)" style="fill: none; stroke: #1baf7a; stroke-width: 1.7; stroke-linecap: square"/>
    <defs>
     <path id="m61717a44a4" d="M 0 3.11127 
L 1.866762 0 
L 0 -3.11127 
L -1.866762 0 
z
" style="stroke: #1baf7a; stroke-linejoin: miter"/>
    </defs>
    <g clip-path="url(#p96625bd308)">
     <use xlink:href="#m61717a44a4" x="61.338164" y="40.791354" style="fill: #1baf7a; stroke: #1baf7a; stroke-linejoin: miter"/>
     <use xlink:href="#m61717a44a4" x="90.26362" y="46.166194" style="fill: #1baf7a; stroke: #1baf7a; stroke-linejoin: miter"/>
     <use xlink:href="#m61717a44a4" x="119.189076" y="56.915873" style="fill: #1baf7a; stroke: #1baf7a; stroke-linejoin: miter"/>
     <use xlink:href="#m61717a44a4" x="148.114531" y="51.541034" style="fill: #1baf7a; stroke: #1baf7a; stroke-linejoin: miter"/>
     <use xlink:href="#m61717a44a4" x="177.039987" y="73.040392" style="fill: #1baf7a; stroke: #1baf7a; stroke-linejoin: miter"/>
     <use xlink:href="#m61717a44a4" x="205.965443" y="78.415231" style="fill: #1baf7a; stroke: #1baf7a; stroke-linejoin: miter"/>
     <use xlink:href="#m61717a44a4" x="234.890898" y="121.413948" style="fill: #1baf7a; stroke: #1baf7a; stroke-linejoin: miter"/>
     <use xlink:href="#m61717a44a4" x="263.816354" y="126.788788" style="fill: #1baf7a; stroke: #1baf7a; stroke-linejoin: miter"/>
     <use xlink:href="#m61717a44a4" x="292.74181" y="142.913306" style="fill: #1baf7a; stroke: #1baf7a; stroke-linejoin: miter"/>
     <use xlink:href="#m61717a44a4" x="321.667266" y="156.350405" style="fill: #1baf7a; stroke: #1baf7a; stroke-linejoin: miter"/>
     <use xlink:href="#m61717a44a4" x="350.592721" y="167.100085" style="fill: #1baf7a; stroke: #1baf7a; stroke-linejoin: miter"/>
     <use xlink:href="#m61717a44a4" x="379.518177" y="180.537183" style="fill: #1baf7a; stroke: #1baf7a; stroke-linejoin: miter"/>
     <use xlink:href="#m61717a44a4" x="408.443633" y="192.630573" style="fill: #1baf7a; stroke: #1baf7a; stroke-linejoin: miter"/>
    </g>
   </g>
   <g id="patch_3">
    <path d="M 43.982891 219.666016 
L 43.982891 25.311816 
" style="fill: none; stroke: #c3c2b7; stroke-width: 0.9; stroke-linejoin: miter; stroke-linecap: square"/>
   </g>
   <g id="patch_4">
    <path d="M 43.982891 219.666016 
L 425.798906 219.666016 
" style="fill: none; stroke: #c3c2b7; stroke-width: 0.9; stroke-linejoin: miter; stroke-linecap: square"/>
   </g>
   <g id="text_15">
    <!-- Coverage of the tested prime ensembles by CM orders -->
    <g style="fill: #0b0b0b" transform="translate(43.982891 17.311816) scale(0.13 -0.13)">
     <defs>
      <path id="Cambria-6" d="M 3256 4175 
L 3256 3309 
L 2947 3309 
Q 2872 3581 2756 3742 
Q 2641 3903 2487 3972 
Q 2334 4041 2119 4041 
Q 1797 4041 1545 3827 
Q 1294 3613 1150 3183 
Q 1006 2753 1006 2144 
Q 1006 1531 1125 1098 
Q 1244 666 1475 445 
Q 1706 225 2044 225 
Q 2300 225 2462 298 
Q 2625 372 2736 531 
Q 2847 691 2947 1000 
L 3256 1000 
L 3256 106 
Q 2963 28 2655 -11 
Q 2347 -50 1978 -50 
Q 1184 -50 778 487 
Q 372 1025 372 2091 
Q 372 2759 583 3262 
Q 794 3766 1203 4041 
Q 1613 4316 2181 4316 
Q 2466 4316 2706 4286 
Q 2947 4256 3256 4175 
z
" transform="scale(0.015625)"/>
      <path id="Cambria-9b" d="M 1625 -256 
Q 1453 -644 1290 -884 
Q 1128 -1125 933 -1247 
Q 738 -1369 469 -1369 
Q 297 -1369 81 -1328 
L 81 -709 
L 359 -709 
Q 397 -838 453 -888 
Q 509 -938 616 -938 
Q 709 -938 782 -902 
Q 856 -866 936 -778 
Q 1016 -691 1123 -509 
Q 1231 -328 1366 -50 
L 491 2303 
Q 406 2531 354 2622 
Q 303 2713 243 2759 
Q 184 2806 63 2834 
L 63 2988 
L 1334 2988 
L 1334 2834 
Q 1188 2800 1128 2767 
Q 1069 2734 1041 2682 
Q 1013 2631 1013 2550 
Q 1013 2466 1033 2375 
Q 1053 2284 1097 2163 
L 1653 597 
L 2278 2097 
Q 2331 2222 2361 2326 
Q 2391 2431 2391 2522 
Q 2391 2656 2317 2725 
Q 2244 2794 2063 2834 
L 2063 2988 
L 3231 2988 
L 3231 2834 
Q 3109 2809 3043 2757 
Q 2978 2706 2912 2595 
Q 2847 2484 2756 2284 
L 1625 -256 
z
" transform="scale(0.015625)"/>
      <path id="Cambria-10" d="M 4841 4113 
Q 4703 4078 4642 4043 
Q 4581 4009 4545 3957 
Q 4509 3906 4492 3803 
Q 4475 3700 4475 3484 
L 4475 781 
Q 4475 572 4489 475 
Q 4503 378 4536 322 
Q 4569 266 4633 228 
Q 4697 191 4841 153 
L 4841 0 
L 3538 0 
L 3538 153 
Q 3716 197 3784 253 
Q 3853 309 3878 418 
Q 3903 528 3903 781 
L 3903 1978 
Q 3903 2450 3917 2933 
Q 3931 3416 3950 3594 
L 3897 3594 
L 2659 497 
L 2300 497 
L 1150 3644 
L 1097 3644 
Q 1113 3453 1127 2953 
Q 1141 2453 1141 1925 
L 1141 781 
Q 1141 572 1155 475 
Q 1169 378 1201 322 
Q 1234 266 1298 228 
Q 1363 191 1506 153 
L 1506 0 
L 366 0 
L 366 153 
Q 559 203 625 264 
Q 691 325 711 437 
Q 731 550 731 781 
L 731 3484 
Q 731 3700 715 3798 
Q 700 3897 664 3951 
Q 628 4006 568 4039 
Q 509 4072 366 4113 
L 366 4266 
L 1481 4266 
L 2578 1225 
L 3784 4266 
L 4841 4266 
L 4841 4113 
z
" transform="scale(0.015625)"/>
     </defs>
     <use xlink:href="#Cambria-6"/>
     <use xlink:href="#Cambria-91" transform="translate(56.25 0)"/>
     <use xlink:href="#Cambria-98" transform="translate(107.859375 0)"/>
     <use xlink:href="#Cambria-87" transform="translate(156.296875 0)"/>
     <use xlink:href="#Cambria-94" transform="translate(205.078125 0)"/>
     <use xlink:href="#Cambria-83" transform="translate(244.734375 0)"/>
     <use xlink:href="#Cambria-89" transform="translate(293.5625 0)"/>
     <use xlink:href="#Cambria-87" transform="translate(342.984375 0)"/>
     <use xlink:href="#Cambria-3" transform="translate(391.765625 0)"/>
     <use xlink:href="#Cambria-91" transform="translate(413.78125 0)"/>
     <use xlink:href="#Cambria-88" transform="translate(466.859375 0)"/>
     <use xlink:href="#Cambria-3" transform="translate(497.140625 0)"/>
     <use xlink:href="#Cambria-96" transform="translate(519.15625 0)"/>
     <use xlink:href="#Cambria-8a" transform="translate(553 0)"/>
     <use xlink:href="#Cambria-87" transform="translate(608.171875 0)"/>
     <use xlink:href="#Cambria-3" transform="translate(656.953125 0)"/>
     <use xlink:href="#Cambria-96" transform="translate(678.96875 0)"/>
     <use xlink:href="#Cambria-87" transform="translate(711.9375 0)"/>
     <use xlink:href="#Cambria-95" transform="translate(760.71875 0)"/>
     <use xlink:href="#Cambria-96" transform="translate(803.6875 0)"/>
     <use xlink:href="#Cambria-87" transform="translate(836.65625 0)"/>
     <use xlink:href="#Cambria-86" transform="translate(885.4375 0)"/>
     <use xlink:href="#Cambria-3" transform="translate(940.90625 0)"/>
     <use xlink:href="#Cambria-92" transform="translate(962.921875 0)"/>
     <use xlink:href="#Cambria-94" transform="translate(1018.53125 0)"/>
     <use xlink:href="#Cambria-8b" transform="translate(1059.890625 0)"/>
     <use xlink:href="#Cambria-8f" transform="translate(1087.671875 0)"/>
     <use xlink:href="#Cambria-87" transform="translate(1170.875 0)"/>
     <use xlink:href="#Cambria-3" transform="translate(1219.65625 0)"/>
     <use xlink:href="#Cambria-87" transform="translate(1241.671875 0)"/>
     <use xlink:href="#Cambria-90" transform="translate(1290.453125 0)"/>
     <use xlink:href="#Cambria-95" transform="translate(1346.265625 0)"/>
     <use xlink:href="#Cambria-87" transform="translate(1389.234375 0)"/>
     <use xlink:href="#Cambria-8f" transform="translate(1438.015625 0)"/>
     <use xlink:href="#Cambria-84" transform="translate(1521.21875 0)"/>
     <use xlink:href="#Cambria-8e" transform="translate(1575.953125 0)"/>
     <use xlink:href="#Cambria-87" transform="translate(1603.109375 0)"/>
     <use xlink:href="#Cambria-95" transform="translate(1651.890625 0)"/>
     <use xlink:href="#Cambria-3" transform="translate(1694.859375 0)"/>
     <use xlink:href="#Cambria-84" transform="translate(1716.875 0)"/>
     <use xlink:href="#Cambria-9b" transform="translate(1770.140625 0)"/>
     <use xlink:href="#Cambria-3" transform="translate(1820.53125 0)"/>
     <use xlink:href="#Cambria-6" transform="translate(1842.546875 0)"/>
     <use xlink:href="#Cambria-10" transform="translate(1898.796875 0)"/>
     <use xlink:href="#Cambria-3" transform="translate(1980.34375 0)"/>
     <use xlink:href="#Cambria-91" transform="translate(2002.359375 0)"/>
     <use xlink:href="#Cambria-94" transform="translate(2055.4375 0)"/>
     <use xlink:href="#Cambria-86" transform="translate(2095.328125 0)"/>
     <use xlink:href="#Cambria-87" transform="translate(2150.796875 0)"/>
     <use xlink:href="#Cambria-94" transform="translate(2199.578125 0)"/>
     <use xlink:href="#Cambria-95" transform="translate(2240.9375 0)"/>
    </g>
   </g>
   <g id="legend_1">
    <g id="LineCollection_4">
     <path d="M 60.322891 183.269371 
L 60.322891 174.669371 
" style="fill: none; stroke: #2a78d6; stroke-width: 1.7"/>
    </g>
    <g id="line2d_34">
     <g>
      <use xlink:href="#mea1a4c04d8" x="60.322891" y="183.269371" style="fill: #2a78d6; stroke: #2a78d6"/>
     </g>
    </g>
    <g id="line2d_35">
     <g>
      <use xlink:href="#mea1a4c04d8" x="60.322891" y="174.669371" style="fill: #2a78d6; stroke: #2a78d6"/>
     </g>
    </g>
    <g id="line2d_36">
     <path d="M 51.722891 178.969371 
L 68.922891 178.969371 
" style="fill: none; stroke: #2a78d6; stroke-width: 1.7; stroke-linecap: square"/>
    </g>
    <g id="line2d_37">
     <g>
      <use xlink:href="#m8fee3d45ac" x="60.322891" y="178.969371" style="fill: #2a78d6; stroke: #2a78d6"/>
     </g>
    </g>
    <g id="text_16">
     <!-- bounded CM, $B=|D|_{\max}=L^3$ -->
     <g transform="translate(75.802891 181.979371) scale(0.086 -0.086)">
      <defs>
       <path id="Cambria-97" d="M 228 2988 
L 1119 2988 
L 1119 1397 
Q 1119 1031 1147 840 
Q 1175 650 1231 553 
Q 1288 456 1391 390 
Q 1494 325 1675 325 
Q 1794 325 1903 372 
Q 2013 419 2147 536 
Q 2281 653 2339 768 
Q 2397 884 2397 1038 
L 2397 2209 
Q 2397 2388 2387 2478 
Q 2378 2569 2356 2623 
Q 2334 2678 2304 2712 
Q 2275 2747 2220 2775 
Q 2166 2803 2044 2834 
L 2044 2988 
L 2934 2988 
L 2934 853 
Q 2934 613 2943 506 
Q 2953 400 2984 337 
Q 3016 275 3081 236 
Q 3147 197 3316 163 
L 3316 0 
L 2600 -31 
L 2409 -31 
L 2428 481 
L 2381 494 
Q 2122 213 1886 81 
Q 1650 -50 1413 -50 
Q 1128 -50 943 62 
Q 759 175 668 398 
Q 578 622 578 1028 
L 578 2209 
Q 578 2472 558 2570 
Q 538 2669 480 2726 
Q 422 2784 228 2834 
L 228 2988 
z
" transform="scale(0.015625)"/>
       <path id="Cambria-1e1" d="M 966 725 
Q 1009 506 1009 294 
Q 1009 75 934 -106 
Q 859 -288 695 -467 
Q 531 -647 244 -863 
L 75 -672 
Q 234 -522 306 -401 
Q 378 -281 409 -128 
Q 441 25 441 256 
Q 441 494 419 725 
L 966 725 
z
" transform="scale(0.015625)"/>
       <path id="Cmmi10-34" d="M 319 0 
Q 256 0 256 84 
Q 259 100 268 137 
Q 278 175 293 200 
Q 309 225 341 225 
Q 522 225 656 234 
Q 791 244 884 269 
Q 959 297 1006 441 
L 1881 3956 
Q 1894 4019 1894 4044 
Q 1894 4113 1819 4122 
Q 1697 4147 1356 4147 
Q 1294 4147 1294 4231 
Q 1297 4247 1306 4286 
Q 1316 4325 1333 4348 
Q 1350 4372 1375 4372 
L 3669 4372 
Q 3878 4372 4083 4320 
Q 4288 4269 4461 4156 
Q 4634 4044 4736 3876 
Q 4838 3709 4838 3488 
Q 4838 3247 4714 3040 
Q 4591 2834 4395 2681 
Q 4200 2528 3973 2429 
Q 3747 2331 3500 2284 
Q 3675 2284 3854 2215 
Q 4034 2147 4175 2028 
Q 4316 1909 4402 1743 
Q 4488 1578 4488 1388 
Q 4488 1003 4219 684 
Q 3950 366 3542 183 
Q 3134 0 2753 0 
L 319 0 
z
M 1497 275 
Q 1497 225 1716 225 
L 2631 225 
Q 2944 225 3231 398 
Q 3519 572 3692 859 
Q 3866 1147 3866 1459 
Q 3866 1650 3786 1820 
Q 3706 1991 3556 2089 
Q 3406 2188 3213 2188 
L 1966 2188 
L 1522 416 
Q 1497 328 1497 275 
z
M 2009 2356 
L 2981 2356 
Q 3288 2356 3577 2512 
Q 3866 2669 4048 2937 
Q 4231 3206 4231 3506 
Q 4231 3784 4057 3965 
Q 3884 4147 3609 4147 
L 2731 4147 
Q 2559 4147 2500 4115 
Q 2441 4084 2400 3928 
L 2009 2356 
z
" transform="scale(0.015625)"/>
       <path id="Cmr10-29" d="M 481 850 
Q 428 850 393 890 
Q 359 931 359 978 
Q 359 1031 393 1068 
Q 428 1106 481 1106 
L 4500 1106 
Q 4547 1106 4581 1068 
Q 4616 1031 4616 978 
Q 4616 931 4581 890 
Q 4547 850 4500 850 
L 481 850 
z
M 481 2094 
Q 428 2094 393 2131 
Q 359 2169 359 2222 
Q 359 2269 393 2309 
Q 428 2350 481 2350 
L 4500 2350 
Q 4547 2350 4581 2309 
Q 4616 2269 4616 2222 
Q 4616 2169 4581 2131 
Q 4547 2094 4500 2094 
L 481 2094 
z
" transform="scale(0.015625)"/>
       <path id="Cmsy10-2f" d="M 763 -1484 
L 763 4684 
Q 763 4734 800 4767 
Q 838 4800 891 4800 
Q 938 4800 978 4767 
Q 1019 4734 1019 4684 
L 1019 -1484 
Q 1019 -1534 978 -1567 
Q 938 -1600 891 -1600 
Q 838 -1600 800 -1567 
Q 763 -1534 763 -1484 
z
" transform="scale(0.015625)"/>
       <path id="Cmmi10-3b" d="M 313 0 
Q 250 0 250 84 
Q 253 100 262 139 
Q 272 178 289 201 
Q 306 225 331 225 
Q 722 225 878 269 
Q 959 297 997 441 
L 1875 3956 
Q 1888 4019 1888 4044 
Q 1888 4113 1813 4122 
Q 1691 4147 1350 4147 
Q 1288 4147 1288 4231 
Q 1291 4247 1300 4286 
Q 1309 4325 1326 4348 
Q 1344 4372 1369 4372 
L 3669 4372 
Q 4116 4372 4450 4155 
Q 4784 3938 4962 3570 
Q 5141 3203 5141 2759 
Q 5141 2269 4937 1778 
Q 4734 1288 4368 881 
Q 4003 475 3534 237 
Q 3066 0 2572 0 
L 313 0 
z
M 1509 275 
Q 1509 225 1728 225 
L 2472 225 
Q 2828 225 3159 372 
Q 3491 519 3750 775 
Q 3991 1016 4175 1406 
Q 4359 1797 4461 2222 
Q 4563 2647 4563 3003 
Q 4563 3263 4486 3472 
Q 4409 3681 4270 3831 
Q 4131 3981 3922 4064 
Q 3713 4147 3450 4147 
L 2747 4147 
Q 2572 4147 2515 4117 
Q 2459 4088 2413 3928 
L 1538 416 
Q 1509 338 1509 275 
z
" transform="scale(0.015625)"/>
       <path id="Cmr10-38" d="M 191 0 
L 191 225 
Q 409 225 550 259 
Q 691 294 691 428 
L 691 2175 
Q 691 2347 639 2423 
Q 588 2500 491 2517 
Q 394 2534 191 2534 
L 191 2759 
L 1119 2828 
L 1119 2203 
Q 1247 2478 1498 2653 
Q 1750 2828 2047 2828 
Q 2784 2828 2913 2228 
Q 3041 2497 3287 2662 
Q 3534 2828 3828 2828 
Q 4119 2828 4317 2734 
Q 4516 2641 4616 2448 
Q 4716 2256 4716 1966 
L 4716 428 
Q 4716 294 4858 259 
Q 5000 225 5216 225 
L 5216 0 
L 3750 0 
L 3750 225 
Q 3969 225 4109 259 
Q 4250 294 4250 428 
L 4250 1947 
Q 4250 2269 4159 2466 
Q 4069 2663 3788 2663 
Q 3419 2663 3178 2366 
Q 2938 2069 2938 1691 
L 2938 428 
Q 2938 294 3078 259 
Q 3219 225 3438 225 
L 3438 0 
L 1972 0 
L 1972 225 
Q 2191 225 2331 259 
Q 2472 294 2472 428 
L 2472 1947 
Q 2472 2259 2381 2461 
Q 2291 2663 2009 2663 
Q 1638 2663 1398 2366 
Q 1159 2069 1159 1691 
L 1159 428 
Q 1159 294 1300 259 
Q 1441 225 1656 225 
L 1656 0 
L 191 0 
z
" transform="scale(0.015625)"/>
       <path id="Cmr10-73" d="M 256 628 
Q 256 1009 556 1248 
Q 856 1488 1276 1586 
Q 1697 1684 2075 1684 
L 2075 1947 
Q 2075 2131 1994 2304 
Q 1913 2478 1759 2589 
Q 1606 2700 1422 2700 
Q 997 2700 775 2509 
Q 897 2509 976 2417 
Q 1056 2325 1056 2203 
Q 1056 2075 965 1984 
Q 875 1894 750 1894 
Q 622 1894 531 1984 
Q 441 2075 441 2203 
Q 441 2541 747 2705 
Q 1053 2869 1422 2869 
Q 1681 2869 1943 2758 
Q 2206 2647 2373 2440 
Q 2541 2234 2541 1959 
L 2541 519 
Q 2541 394 2594 289 
Q 2647 184 2759 184 
Q 2866 184 2917 290 
Q 2969 397 2969 519 
L 2969 928 
L 3156 928 
L 3156 519 
Q 3156 375 3081 245 
Q 3006 116 2879 39 
Q 2753 -38 2606 -38 
Q 2419 -38 2283 107 
Q 2147 253 2131 453 
Q 2013 213 1781 70 
Q 1550 -72 1288 -72 
Q 1044 -72 808 0 
Q 572 72 414 226 
Q 256 381 256 628 
z
M 775 628 
Q 775 403 940 250 
Q 1106 97 1331 97 
Q 1538 97 1706 200 
Q 1875 303 1975 481 
Q 2075 659 2075 856 
L 2075 1522 
Q 1784 1522 1479 1426 
Q 1175 1331 975 1128 
Q 775 925 775 628 
z
" transform="scale(0.015625)"/>
       <path id="Cmr10-2d" d="M 78 0 
L 78 225 
Q 322 225 537 320 
Q 753 416 903 603 
L 1484 1344 
L 728 2328 
Q 616 2469 483 2501 
Q 350 2534 109 2534 
L 109 2759 
L 1441 2759 
L 1441 2534 
Q 1356 2534 1282 2496 
Q 1209 2459 1209 2388 
Q 1209 2363 1228 2328 
L 1741 1663 
L 2125 2156 
Q 2203 2250 2203 2344 
Q 2203 2422 2151 2478 
Q 2100 2534 2016 2534 
L 2016 2759 
L 3194 2759 
L 3194 2534 
Q 2947 2534 2730 2439 
Q 2513 2344 2363 2156 
L 1856 1509 
L 2675 428 
Q 2797 288 2928 256 
Q 3059 225 3303 225 
L 3303 0 
L 1972 0 
L 1972 225 
Q 2050 225 2122 262 
Q 2194 300 2194 372 
Q 2194 400 2175 428 
L 1600 1191 
L 1141 603 
Q 1069 522 1069 416 
Q 1069 338 1122 281 
Q 1175 225 1247 225 
L 1247 0 
L 78 0 
z
" transform="scale(0.015625)"/>
       <path id="Cmmi10-55" d="M 300 0 
Q 238 0 238 84 
Q 241 100 250 139 
Q 259 178 276 201 
Q 294 225 319 225 
Q 709 225 863 269 
Q 947 297 984 441 
L 1863 3956 
Q 1875 4019 1875 4044 
Q 1875 4113 1797 4122 
Q 1678 4147 1338 4147 
Q 1275 4147 1275 4231 
Q 1297 4313 1309 4342 
Q 1322 4372 1381 4372 
L 3272 4372 
Q 3328 4372 3328 4288 
Q 3319 4222 3306 4184 
Q 3294 4147 3244 4147 
Q 2772 4147 2613 4116 
Q 2456 4088 2419 3928 
L 1544 416 
Q 1516 338 1516 275 
Q 1516 225 1734 225 
L 2328 225 
Q 2831 225 3143 425 
Q 3456 625 3606 876 
Q 3756 1128 3857 1398 
Q 3959 1669 4006 1678 
L 4063 1678 
Q 4128 1678 4128 1594 
L 3559 44 
Q 3550 0 3500 0 
L 300 0 
z
" transform="scale(0.015625)"/>
       <path id="Cmr10-6e" d="M 609 494 
Q 759 275 1012 169 
Q 1266 63 1556 63 
Q 1928 63 2084 380 
Q 2241 697 2241 1100 
Q 2241 1281 2208 1462 
Q 2175 1644 2097 1800 
Q 2019 1956 1883 2050 
Q 1747 2144 1550 2144 
L 1125 2144 
Q 1069 2144 1069 2203 
L 1069 2259 
Q 1069 2309 1125 2309 
L 1478 2338 
Q 1703 2338 1851 2506 
Q 2000 2675 2069 2917 
Q 2138 3159 2138 3378 
Q 2138 3684 1994 3881 
Q 1850 4078 1556 4078 
Q 1313 4078 1091 3986 
Q 869 3894 738 3706 
Q 750 3709 759 3711 
Q 769 3713 781 3713 
Q 925 3713 1022 3613 
Q 1119 3513 1119 3372 
Q 1119 3234 1022 3134 
Q 925 3034 781 3034 
Q 641 3034 541 3134 
Q 441 3234 441 3372 
Q 441 3647 606 3850 
Q 772 4053 1033 4158 
Q 1294 4263 1556 4263 
Q 1750 4263 1965 4205 
Q 2181 4147 2356 4039 
Q 2531 3931 2642 3762 
Q 2753 3594 2753 3378 
Q 2753 3109 2633 2881 
Q 2513 2653 2303 2487 
Q 2094 2322 1844 2241 
Q 2122 2188 2372 2031 
Q 2622 1875 2773 1631 
Q 2925 1388 2925 1106 
Q 2925 753 2731 467 
Q 2538 181 2222 20 
Q 1906 -141 1556 -141 
Q 1256 -141 954 -26 
Q 653 88 461 316 
Q 269 544 269 863 
Q 269 1022 375 1128 
Q 481 1234 641 1234 
Q 744 1234 830 1186 
Q 916 1138 964 1050 
Q 1013 963 1013 863 
Q 1013 706 903 600 
Q 794 494 641 494 
L 609 494 
z
" transform="scale(0.015625)"/>
      </defs>
      <use xlink:href="#Cambria-84" transform="translate(0 0.084203)"/>
      <use xlink:href="#Cambria-91" transform="translate(54.736328 0.084203)"/>
      <use xlink:href="#Cambria-97" transform="translate(107.8125 0.084203)"/>
      <use xlink:href="#Cambria-90" transform="translate(163.037109 0.084203)"/>
      <use xlink:href="#Cambria-86" transform="translate(218.847656 0.084203)"/>
      <use xlink:href="#Cambria-87" transform="translate(274.316406 0.084203)"/>
      <use xlink:href="#Cambria-86" transform="translate(323.095703 0.084203)"/>
      <use xlink:href="#Cambria-3" transform="translate(378.564453 0.084203)"/>
      <use xlink:href="#Cambria-6" transform="translate(400.585938 0.084203)"/>
      <use xlink:href="#Cambria-10" transform="translate(456.835938 0.084203)"/>
      <use xlink:href="#Cambria-1e1" transform="translate(538.378906 0.084203)"/>
      <use xlink:href="#Cambria-3" transform="translate(558.886719 0.084203)"/>
      <use xlink:href="#Cmmi10-34" transform="translate(580.908203 0.084203)"/>
      <use xlink:href="#Cmr10-29" transform="translate(676.68951 0.084203)"/>
      <use xlink:href="#Cmsy10-2f" transform="translate(774.375114 0.084203)"/>
      <use xlink:href="#Cmmi10-3b" transform="translate(802.060661 0.084203)"/>
      <use xlink:href="#Cmsy10-2f" transform="translate(884.775505 0.084203)"/>
      <use xlink:href="#Cmr10-38" transform="translate(916.465343 -14.915759) scale(0.7)"/>
      <use xlink:href="#Cmr10-73" transform="translate(974.77589 -14.915759) scale(0.7)"/>
      <use xlink:href="#Cmr10-2d" transform="translate(1009.77589 -14.915759) scale(0.7)"/>
      <use xlink:href="#Cmr10-29" transform="translate(1084.043179 0.084203)"/>
      <use xlink:href="#Cmmi10-55" transform="translate(1181.728783 0.084203)"/>
      <use xlink:href="#Cmr10-6e" transform="translate(1266.072793 41.373437) scale(0.7)"/>
     </g>
    </g>
    <g id="LineCollection_5">
     <path d="M 60.322891 197.287371 
L 60.322891 188.687371 
" style="fill: none; stroke: #eb6834; stroke-width: 1.7"/>
    </g>
    <g id="line2d_38">
     <g>
      <use xlink:href="#m6f7173adc5" x="60.322891" y="197.287371" style="fill: #eb6834; stroke: #eb6834"/>
     </g>
    </g>
    <g id="line2d_39">
     <g>
      <use xlink:href="#m6f7173adc5" x="60.322891" y="188.687371" style="fill: #eb6834; stroke: #eb6834"/>
     </g>
    </g>
    <g id="line2d_40">
     <path d="M 51.722891 192.987371 
L 68.922891 192.987371 
" style="fill: none; stroke: #eb6834; stroke-width: 1.7; stroke-linecap: square"/>
    </g>
    <g id="line2d_41">
     <g>
      <use xlink:href="#m32257aafc3" x="60.322891" y="192.987371" style="fill: #eb6834; stroke: #eb6834; stroke-linejoin: miter"/>
     </g>
    </g>
    <g id="text_17">
     <!-- bounded CM, $B=L^2$, $|D|\leq L^3$ -->
     <g transform="translate(75.802891 195.997371) scale(0.086 -0.086)">
      <defs>
       <path id="Cmr10-31" d="M 319 0 
L 319 172 
Q 319 188 331 206 
L 1325 1306 
Q 1550 1550 1690 1715 
Q 1831 1881 1968 2097 
Q 2106 2313 2186 2536 
Q 2266 2759 2266 3009 
Q 2266 3272 2169 3511 
Q 2072 3750 1880 3894 
Q 1688 4038 1416 4038 
Q 1138 4038 916 3870 
Q 694 3703 603 3438 
Q 628 3444 672 3444 
Q 816 3444 917 3347 
Q 1019 3250 1019 3097 
Q 1019 2950 917 2848 
Q 816 2747 672 2747 
Q 522 2747 420 2851 
Q 319 2956 319 3097 
Q 319 3338 409 3548 
Q 500 3759 670 3923 
Q 841 4088 1055 4175 
Q 1269 4263 1509 4263 
Q 1875 4263 2190 4108 
Q 2506 3953 2690 3670 
Q 2875 3388 2875 3009 
Q 2875 2731 2753 2481 
Q 2631 2231 2440 2026 
Q 2250 1822 1953 1562 
Q 1656 1303 1563 1216 
L 838 519 
L 1453 519 
Q 1906 519 2211 526 
Q 2516 534 2534 550 
Q 2609 631 2688 1141 
L 2875 1141 
L 2694 0 
L 319 0 
z
" transform="scale(0.015625)"/>
       <path id="Cmsy10-e" d="M 653 -878 
Q 600 -878 565 -837 
Q 531 -797 531 -750 
Q 531 -697 565 -659 
Q 600 -622 653 -622 
L 4325 -622 
Q 4375 -622 4408 -659 
Q 4441 -697 4441 -750 
Q 4441 -797 4408 -837 
Q 4375 -878 4325 -878 
L 653 -878 
z
M 594 2113 
Q 531 2131 531 2222 
Q 531 2303 616 2338 
L 4269 4063 
Q 4281 4072 4313 4072 
Q 4366 4072 4403 4034 
Q 4441 3997 4441 3944 
Q 4441 3859 4366 3828 
L 959 2222 
L 4384 603 
Q 4441 572 4441 494 
Q 4441 438 4403 402 
Q 4366 366 4313 366 
Q 4281 366 4269 378 
L 594 2113 
z
" transform="scale(0.015625)"/>
      </defs>
      <use xlink:href="#Cambria-84" transform="translate(0 0.084203)"/>
      <use xlink:href="#Cambria-91" transform="translate(54.736328 0.084203)"/>
      <use xlink:href="#Cambria-97" transform="translate(107.8125 0.084203)"/>
      <use xlink:href="#Cambria-90" transform="translate(163.037109 0.084203)"/>
      <use xlink:href="#Cambria-86" transform="translate(218.847656 0.084203)"/>
      <use xlink:href="#Cambria-87" transform="translate(274.316406 0.084203)"/>
      <use xlink:href="#Cambria-86" transform="translate(323.095703 0.084203)"/>
      <use xlink:href="#Cambria-3" transform="translate(378.564453 0.084203)"/>
      <use xlink:href="#Cambria-6" transform="translate(400.585938 0.084203)"/>
      <use xlink:href="#Cambria-10" transform="translate(456.835938 0.084203)"/>
      <use xlink:href="#Cambria-1e1" transform="translate(538.378906 0.084203)"/>
      <use xlink:href="#Cambria-3" transform="translate(558.886719 0.084203)"/>
      <use xlink:href="#Cmmi10-34" transform="translate(580.908203 0.084203)"/>
      <use xlink:href="#Cmr10-29" transform="translate(676.68951 0.084203)"/>
      <use xlink:href="#Cmmi10-55" transform="translate(774.375114 0.084203)"/>
      <use xlink:href="#Cmr10-31" transform="translate(858.719124 41.373437) scale(0.7)"/>
      <use xlink:href="#Cambria-1e1" transform="translate(899.43954 0.084203)"/>
      <use xlink:href="#Cambria-3" transform="translate(919.947352 0.084203)"/>
      <use xlink:href="#Cmsy10-2f" transform="translate(941.968837 0.084203)"/>
      <use xlink:href="#Cmmi10-3b" transform="translate(969.654384 0.084203)"/>
      <use xlink:href="#Cmsy10-2f" transform="translate(1052.369227 0.084203)"/>
      <use xlink:href="#Cmsy10-e" transform="translate(1100.054831 0.084203)"/>
      <use xlink:href="#Cmmi10-55" transform="translate(1197.740436 0.084203)"/>
      <use xlink:href="#Cmr10-6e" transform="translate(1282.084446 41.373437) scale(0.7)"/>
     </g>
    </g>
    <g id="LineCollection_6">
     <path d="M 60.322891 211.305371 
L 60.322891 202.705371 
" style="fill: none; stroke: #1baf7a; stroke-width: 1.7"/>
    </g>
    <g id="line2d_42">
     <g>
      <use xlink:href="#m10652724de" x="60.322891" y="211.305371" style="fill: #1baf7a; stroke: #1baf7a"/>
     </g>
    </g>
    <g id="line2d_43">
     <g>
      <use xlink:href="#m10652724de" x="60.322891" y="202.705371" style="fill: #1baf7a; stroke: #1baf7a"/>
     </g>
    </g>
    <g id="line2d_44">
     <path d="M 51.722891 207.005371 
L 68.922891 207.005371 
" style="fill: none; stroke: #1baf7a; stroke-width: 1.7; stroke-linecap: square"/>
    </g>
    <g id="line2d_45">
     <g>
      <use xlink:href="#m61717a44a4" x="60.322891" y="207.005371" style="fill: #1baf7a; stroke: #1baf7a; stroke-linejoin: miter"/>
     </g>
    </g>
    <g id="text_18">
     <!-- explicit $j=0,1728$ families, $B=L^3$ -->
     <g transform="translate(75.802891 210.015371) scale(0.086 -0.086)">
      <defs>
       <path id="Cambria-9a" d="M 1625 1803 
L 2031 2319 
Q 2097 2403 2137 2483 
Q 2178 2563 2178 2647 
Q 2178 2719 2125 2766 
Q 2072 2813 1959 2834 
L 1959 2988 
L 2981 2988 
L 2981 2834 
Q 2863 2800 2739 2700 
Q 2616 2600 2438 2378 
L 1791 1584 
L 2503 625 
Q 2656 419 2778 309 
Q 2900 200 3022 153 
L 3022 0 
L 1766 0 
L 1766 153 
Q 2025 184 2025 347 
Q 2025 413 2003 472 
Q 1981 531 1922 609 
L 1469 1241 
L 988 616 
Q 934 547 904 489 
Q 875 431 875 359 
Q 875 275 933 220 
Q 991 166 1116 153 
L 1116 0 
L 72 0 
L 72 153 
Q 175 191 258 247 
Q 341 303 427 392 
Q 513 481 653 653 
L 1303 1459 
L 638 2372 
Q 500 2559 419 2643 
Q 338 2728 269 2772 
Q 200 2816 131 2834 
L 131 2988 
L 1356 2988 
L 1356 2834 
Q 1109 2797 1109 2641 
Q 1109 2569 1142 2497 
Q 1175 2425 1244 2338 
L 1625 1803 
z
" transform="scale(0.015625)"/>
       <path id="Cmmi10-69" d="M -84 -909 
Q -84 -753 23 -639 
Q 131 -525 288 -525 
Q 391 -525 461 -589 
Q 531 -653 531 -756 
Q 531 -878 454 -976 
Q 378 -1075 263 -1106 
Q 375 -1147 488 -1147 
Q 759 -1147 959 -895 
Q 1159 -644 1241 -331 
L 1844 2075 
Q 1888 2259 1888 2388 
Q 1888 2663 1697 2663 
Q 1416 2663 1205 2408 
Q 994 2153 863 1819 
Q 850 1778 813 1778 
L 738 1778 
Q 684 1778 684 1838 
L 684 1856 
Q 828 2241 1093 2534 
Q 1359 2828 1709 2828 
Q 1975 2828 2145 2662 
Q 2316 2497 2316 2241 
Q 2316 2150 2297 2059 
L 1691 -372 
Q 1625 -631 1440 -847 
Q 1256 -1063 1000 -1188 
Q 744 -1313 475 -1313 
Q 259 -1313 87 -1209 
Q -84 -1106 -84 -909 
z
M 1941 3878 
Q 1941 4019 2050 4125 
Q 2159 4231 2297 4231 
Q 2406 4231 2476 4164 
Q 2547 4097 2547 3994 
Q 2547 3850 2433 3742 
Q 2319 3634 2181 3634 
Q 2078 3634 2009 3706 
Q 1941 3778 1941 3878 
z
" transform="scale(0.015625)"/>
       <path id="Cmr10-28" d="M 1600 -141 
Q 816 -141 533 504 
Q 250 1150 250 2041 
Q 250 2597 351 3087 
Q 453 3578 754 3920 
Q 1056 4263 1600 4263 
Q 2022 4263 2290 4056 
Q 2559 3850 2700 3523 
Q 2841 3197 2892 2823 
Q 2944 2450 2944 2041 
Q 2944 1491 2842 1011 
Q 2741 531 2444 195 
Q 2147 -141 1600 -141 
z
M 1600 25 
Q 1956 25 2131 390 
Q 2306 756 2347 1200 
Q 2388 1644 2388 2144 
Q 2388 2625 2347 3031 
Q 2306 3438 2132 3767 
Q 1959 4097 1600 4097 
Q 1238 4097 1063 3765 
Q 888 3434 847 3029 
Q 806 2625 806 2144 
Q 806 1788 823 1472 
Q 841 1156 916 820 
Q 991 484 1158 254 
Q 1325 25 1600 25 
z
" transform="scale(0.015625)"/>
       <path id="Cmmi10-2c" d="M 634 -1153 
Q 634 -1125 659 -1100 
Q 891 -878 1019 -587 
Q 1147 -297 1147 25 
L 1147 103 
Q 1044 0 891 0 
Q 744 0 641 103 
Q 538 206 538 353 
Q 538 503 641 603 
Q 744 703 891 703 
Q 1119 703 1216 492 
Q 1313 281 1313 25 
Q 1313 -331 1170 -651 
Q 1028 -972 769 -1228 
Q 744 -1241 728 -1241 
Q 697 -1241 665 -1212 
Q 634 -1184 634 -1153 
z
" transform="scale(0.015625)"/>
       <path id="Cmr10-64" d="M 594 0 
L 594 225 
Q 1394 225 1394 428 
L 1394 3788 
Q 1063 3628 556 3628 
L 556 3853 
Q 1341 3853 1741 4263 
L 1831 4263 
Q 1853 4263 1873 4245 
Q 1894 4228 1894 4206 
L 1894 428 
Q 1894 225 2694 225 
L 2694 0 
L 594 0 
z
" transform="scale(0.015625)"/>
       <path id="Cmr10-7f" d="M 1113 166 
Q 1113 522 1175 862 
Q 1238 1203 1358 1536 
Q 1478 1869 1648 2189 
Q 1819 2509 2022 2791 
L 2606 3603 
L 1875 3603 
Q 738 3603 703 3572 
Q 619 3469 544 2981 
L 359 2981 
L 569 4325 
L 756 4325 
L 756 4306 
Q 756 4191 1147 4156 
Q 1538 4122 1913 4122 
L 3103 4122 
L 3103 3956 
Q 3103 3950 3101 3947 
Q 3100 3944 3097 3938 
L 2216 2700 
Q 1891 2219 1809 1631 
Q 1728 1044 1728 166 
Q 1728 41 1637 -50 
Q 1547 -141 1422 -141 
Q 1294 -141 1203 -50 
Q 1113 41 1113 166 
z
" transform="scale(0.015625)"/>
       <path id="Cmr10-4d" d="M 269 972 
Q 269 1356 522 1651 
Q 775 1947 1172 2144 
L 934 2297 
Q 716 2441 578 2680 
Q 441 2919 441 3181 
Q 441 3488 602 3734 
Q 763 3981 1030 4122 
Q 1297 4263 1600 4263 
Q 1884 4263 2148 4147 
Q 2413 4031 2583 3815 
Q 2753 3600 2753 3303 
Q 2753 3088 2651 2903 
Q 2550 2719 2373 2572 
Q 2197 2425 1997 2322 
L 2363 2088 
Q 2616 1922 2770 1653 
Q 2925 1384 2925 1088 
Q 2925 741 2739 456 
Q 2553 172 2247 15 
Q 1941 -141 1600 -141 
Q 1269 -141 961 -6 
Q 653 128 461 383 
Q 269 638 269 972 
z
M 616 972 
Q 616 719 755 509 
Q 894 300 1122 181 
Q 1350 63 1600 63 
Q 1972 63 2275 280 
Q 2578 497 2578 856 
Q 2578 978 2529 1098 
Q 2481 1219 2395 1317 
Q 2309 1416 2203 1478 
L 1344 2034 
Q 1144 1928 976 1765 
Q 809 1603 712 1400 
Q 616 1197 616 972 
z
M 1056 2925 
L 1831 2425 
Q 2100 2581 2272 2803 
Q 2444 3025 2444 3303 
Q 2444 3519 2323 3698 
Q 2203 3878 2009 3978 
Q 1816 4078 1594 4078 
Q 1400 4078 1203 4003 
Q 1006 3928 878 3779 
Q 750 3631 750 3431 
Q 750 3131 1056 2925 
z
" transform="scale(0.015625)"/>
      </defs>
      <use xlink:href="#Cambria-87" transform="translate(0 0.084203)"/>
      <use xlink:href="#Cambria-9a" transform="translate(48.779297 0.084203)"/>
      <use xlink:href="#Cambria-92" transform="translate(97.119141 0.084203)"/>
      <use xlink:href="#Cambria-8e" transform="translate(152.734375 0.084203)"/>
      <use xlink:href="#Cambria-8b" transform="translate(179.882812 0.084203)"/>
      <use xlink:href="#Cambria-85" transform="translate(207.666016 0.084203)"/>
      <use xlink:href="#Cambria-8b" transform="translate(251.757812 0.084203)"/>
      <use xlink:href="#Cambria-96" transform="translate(279.541016 0.084203)"/>
      <use xlink:href="#Cambria-3" transform="translate(313.378906 0.084203)"/>
      <use xlink:href="#Cmmi10-69" transform="translate(335.400391 0.084203)"/>
      <use xlink:href="#Cmr10-29" transform="translate(396.513729 0.084203)"/>
      <use xlink:href="#Cmr10-28" transform="translate(494.199333 0.084203)"/>
      <use xlink:href="#Cmmi10-2c" transform="translate(544.199333 0.084203)"/>
      <use xlink:href="#Cmr10-64" transform="translate(591.884937 0.084203)"/>
      <use xlink:href="#Cmr10-7f" transform="translate(641.884937 0.084203)"/>
      <use xlink:href="#Cmr10-31" transform="translate(691.884937 0.084203)"/>
      <use xlink:href="#Cmr10-4d" transform="translate(741.884937 0.084203)"/>
      <use xlink:href="#Cambria-3" transform="translate(791.884937 0.084203)"/>
      <use xlink:href="#Cambria-88" transform="translate(813.906422 0.084203)"/>
      <use xlink:href="#Cambria-83" transform="translate(844.179859 0.084203)"/>
      <use xlink:href="#Cambria-8f" transform="translate(893.007984 0.084203)"/>
      <use xlink:href="#Cambria-8b" transform="translate(976.211109 0.084203)"/>
      <use xlink:href="#Cambria-8e" transform="translate(1003.994312 0.084203)"/>
      <use xlink:href="#Cambria-8b" transform="translate(1031.14275 0.084203)"/>
      <use xlink:href="#Cambria-87" transform="translate(1058.925953 0.084203)"/>
      <use xlink:href="#Cambria-95" transform="translate(1107.70525 0.084203)"/>
      <use xlink:href="#Cambria-1e1" transform="translate(1150.674 0.084203)"/>
      <use xlink:href="#Cambria-3" transform="translate(1171.181812 0.084203)"/>
      <use xlink:href="#Cmmi10-34" transform="translate(1193.203297 0.084203)"/>
      <use xlink:href="#Cmr10-29" transform="translate(1288.984604 0.084203)"/>
      <use xlink:href="#Cmmi10-55" transform="translate(1386.670208 0.084203)"/>
      <use xlink:href="#Cmr10-6e" transform="translate(1471.014218 41.373437) scale(0.7)"/>
     </g>
    </g>
   </g>
  </g>
 </g>
 <defs>
  <clipPath id="p96625bd308">
   <rect x="43.982891" y="25.311816" width="381.816016" height="194.354199"/>
  </clipPath>
 </defs>
</svg>
