<?xml version="1.0" encoding="utf-8" standalone="no"?>
<!DOCTYPE svg PUBLIC "-//W3C//DTD SVG 1.1//EN"
  "http://www.w3.org/Graphics/SVG/1.1/DTD/svg11.dtd">
<svg xmlns:xlink="http://www.w3.org/1999/xlink" width="432.806016pt" height="260.366016pt" viewBox="0 0 432.806016 260.366016" xmlns="http://www.w3.org/2000/svg" version="1.1">
 <metadata>
  <rdf:RDF xmlns:dc="http://purl.org/dc/elements/1.1/" xmlns:cc="http://creativecommons.org/ns#" xmlns:rdf="http://www.w3.org/1999/02/22-rdf-syntax-ns#">
   <cc:Work>
    <dc:type rdf:resource="http://purl.org/dc/dcmitype/StillImage"/>
    <dc:date>2026-07-23T00:47:03.246354</dc:date>
    <dc:format>image/svg+xml</dc:format>
    <dc:creator>
     <cc:Agent>
      <dc:title>Matplotlib v3.11.1, https://matplotlib.org/</dc:title>
     </cc:Agent>
    </dc:creator>
   </cc:Work>
  </rdf:RDF>
 </metadata>
 <defs>
  <style type="text/css">*{stroke-linejoin: round; stroke-linecap: butt}</style>
 </defs>
 <g id="figure_1">
  <g id="patch_1">
   <path d="M 0 260.366016 
L 432.806016 260.366016 
L 432.806016 0 
L 0 0 
z
" style="fill: #fcfcfb"/>
  </g>
  <g id="axes_1">
   <g id="patch_2">
    <path d="M 50.99 219.666016 
L 425.606016 219.666016 
L 425.606016 25.311816 
L 50.99 25.311816 
z
" style="fill: #fcfcfb"/>
   </g>
   <g id="matplotlib.axis_1">
    <g id="xtick_1">
     <g id="line2d_1">
      <path d="M 104.506574 219.666016 
L 104.506574 25.311816 
" clip-path="url(#p8154aa85aa)" style="fill: none; stroke: #e1e0d9; stroke-width: 0.7; stroke-linecap: square"/>
     </g>
     <g id="line2d_2">
      <defs>
       <path id="m71e4c5bc13" d="M 0 0 
L 0 3.5 
" style="stroke: #898781; stroke-width: 0.8"/>
      </defs>
      <g>
       <use xlink:href="#m71e4c5bc13" x="104.506574" y="219.666016" style="fill: #898781; stroke: #898781; stroke-width: 0.8"/>
      </g>
     </g>
     <g id="text_1">
      <!-- 15 -->
      <g style="fill: #52514e" transform="translate(98.692199 234.833252) scale(0.105 -0.105)">
       <defs>
        <path id="Cambria-373" d="M 2172 816 
Q 2172 634 2192 542 
Q 2213 450 2264 392 
Q 2316 334 2412 301 
Q 2509 269 2656 251 
Q 2803 234 3044 228 
L 3044 0 
L 734 0 
L 734 228 
Q 1081 244 1229 270 
Q 1378 297 1456 350 
Q 1534 403 1570 500 
Q 1606 597 1606 816 
L 1606 3350 
Q 1606 3475 1562 3533 
Q 1519 3591 1434 3591 
Q 1334 3591 1150 3487 
Q 966 3384 694 3203 
L 556 3444 
L 2019 4316 
L 2191 4316 
Q 2172 4016 2172 3484 
L 2172 816 
z
" transform="scale(0.015625)"/>
        <path id="Cambria-377" d="M 469 172 
L 469 834 
L 847 834 
Q 941 516 1130 366 
Q 1319 216 1619 216 
Q 2034 216 2246 466 
Q 2459 716 2459 1213 
Q 2459 1544 2346 1761 
Q 2234 1978 2043 2075 
Q 1853 2172 1600 2172 
Q 1388 2172 1234 2145 
Q 1081 2119 906 2063 
L 656 2209 
L 656 4266 
L 2378 4266 
Q 2484 4266 2531 4283 
Q 2578 4300 2606 4336 
Q 2634 4372 2672 4472 
L 2916 4472 
L 2869 3747 
L 1072 3747 
L 1072 2375 
Q 1234 2444 1425 2478 
Q 1616 2513 1806 2513 
Q 2178 2513 2465 2361 
Q 2753 2209 2909 1929 
Q 3066 1650 3066 1281 
Q 3066 863 2891 563 
Q 2716 263 2384 106 
Q 2053 -50 1600 -50 
Q 1059 -50 469 172 
z
" transform="scale(0.015625)"/>
       </defs>
       <use xlink:href="#Cambria-373"/>
       <use xlink:href="#Cambria-377" transform="translate(55.375 0)"/>
      </g>
     </g>
    </g>
    <g id="xtick_2">
     <g id="line2d_3">
      <path d="M 165.320862 219.666016 
L 165.320862 25.311816 
" clip-path="url(#p8154aa85aa)" style="fill: none; stroke: #e1e0d9; stroke-width: 0.7; stroke-linecap: square"/>
     </g>
     <g id="line2d_4">
      <g>
       <use xlink:href="#m71e4c5bc13" x="165.320862" y="219.666016" style="fill: #898781; stroke: #898781; stroke-width: 0.8"/>
      </g>
     </g>
     <g id="text_2">
      <!-- 20 -->
      <g style="fill: #52514e" transform="translate(159.506487 234.833252) scale(0.105 -0.105)">
       <defs>
        <path id="Cambria-374" d="M 2194 500 
Q 2347 500 2440 519 
Q 2534 538 2590 581 
Q 2647 625 2680 695 
Q 2713 766 2763 913 
L 3028 913 
L 2975 0 
L 403 0 
L 403 150 
Q 538 478 766 822 
Q 994 1166 1413 1631 
Q 1775 2031 1934 2238 
Q 2109 2463 2195 2627 
Q 2281 2791 2318 2936 
Q 2356 3081 2356 3228 
Q 2356 3463 2281 3642 
Q 2206 3822 2051 3925 
Q 1897 4028 1663 4028 
Q 1078 4028 875 3378 
L 497 3378 
L 497 3978 
Q 875 4156 1204 4236 
Q 1534 4316 1797 4316 
Q 2378 4316 2675 4061 
Q 2972 3806 2972 3322 
Q 2972 3156 2939 3017 
Q 2906 2878 2836 2742 
Q 2766 2606 2647 2450 
Q 2528 2294 2384 2133 
Q 2241 1972 1888 1597 
Q 1294 969 1016 500 
L 2194 500 
z
" transform="scale(0.015625)"/>
        <path id="Cambria-372" d="M 1738 -50 
Q 1063 -50 733 481 
Q 403 1013 403 2094 
Q 403 2669 504 3087 
Q 606 3506 789 3779 
Q 972 4053 1228 4184 
Q 1484 4316 1788 4316 
Q 2472 4316 2806 3787 
Q 3141 3259 3141 2191 
Q 3141 1084 2783 517 
Q 2425 -50 1738 -50 
z
M 1013 2188 
Q 1013 1169 1202 692 
Q 1391 216 1788 216 
Q 2166 216 2348 664 
Q 2531 1113 2531 2053 
Q 2531 2772 2437 3217 
Q 2344 3663 2176 3856 
Q 2009 4050 1772 4050 
Q 1556 4050 1411 3922 
Q 1266 3794 1177 3553 
Q 1088 3313 1050 2967 
Q 1013 2622 1013 2188 
z
" transform="scale(0.015625)"/>
       </defs>
       <use xlink:href="#Cambria-374"/>
       <use xlink:href="#Cambria-372" transform="translate(55.375 0)"/>
      </g>
     </g>
    </g>
    <g id="xtick_3">
     <g id="line2d_5">
      <path d="M 226.13515 219.666016 
L 226.13515 25.311816 
" clip-path="url(#p8154aa85aa)" style="fill: none; stroke: #e1e0d9; stroke-width: 0.7; stroke-linecap: square"/>
     </g>
     <g id="line2d_6">
      <g>
       <use xlink:href="#m71e4c5bc13" x="226.13515" y="219.666016" style="fill: #898781; stroke: #898781; stroke-width: 0.8"/>
      </g>
     </g>
     <g id="text_3">
      <!-- 25 -->
      <g style="fill: #52514e" transform="translate(220.320775 234.833252) scale(0.105 -0.105)">
       <use xlink:href="#Cambria-374"/>
       <use xlink:href="#Cambria-377" transform="translate(55.375 0)"/>
      </g>
     </g>
    </g>
    <g id="xtick_4">
     <g id="line2d_7">
      <path d="M 286.949438 219.666016 
L 286.949438 25.311816 
" clip-path="url(#p8154aa85aa)" style="fill: none; stroke: #e1e0d9; stroke-width: 0.7; stroke-linecap: square"/>
     </g>
     <g id="line2d_8">
      <g>
       <use xlink:href="#m71e4c5bc13" x="286.949438" y="219.666016" style="fill: #898781; stroke: #898781; stroke-width: 0.8"/>
      </g>
     </g>
     <g id="text_4">
      <!-- 30 -->
      <g style="fill: #52514e" transform="translate(281.135063 234.833252) scale(0.105 -0.105)">
       <defs>
        <path id="Cambria-375" d="M 497 3381 
L 497 3975 
Q 859 4147 1175 4231 
Q 1491 4316 1784 4316 
Q 2138 4316 2403 4206 
Q 2669 4097 2809 3892 
Q 2950 3688 2950 3403 
Q 2950 3138 2844 2936 
Q 2738 2734 2545 2584 
Q 2353 2434 2047 2291 
L 2047 2263 
Q 2238 2228 2414 2145 
Q 2591 2063 2728 1931 
Q 2866 1800 2948 1617 
Q 3031 1434 3031 1200 
Q 3031 838 2873 556 
Q 2716 275 2391 112 
Q 2066 -50 1600 -50 
Q 1331 -50 1020 11 
Q 709 72 450 172 
L 450 834 
L 825 834 
Q 934 509 1114 362 
Q 1294 216 1603 216 
Q 2009 216 2217 437 
Q 2425 659 2425 1094 
Q 2425 1550 2150 1790 
Q 1875 2031 1344 2031 
L 1063 2031 
L 1063 2306 
Q 1484 2331 1773 2468 
Q 2063 2606 2203 2822 
Q 2344 3038 2344 3306 
Q 2344 3653 2159 3840 
Q 1975 4028 1622 4028 
Q 1328 4028 1143 3868 
Q 959 3709 872 3381 
L 497 3381 
z
" transform="scale(0.015625)"/>
       </defs>
       <use xlink:href="#Cambria-375"/>
       <use xlink:href="#Cambria-372" transform="translate(55.375 0)"/>
      </g>
     </g>
    </g>
    <g id="xtick_5">
     <g id="line2d_9">
      <path d="M 347.763727 219.666016 
L 347.763727 25.311816 
" clip-path="url(#p8154aa85aa)" style="fill: none; stroke: #e1e0d9; stroke-width: 0.7; stroke-linecap: square"/>
     </g>
     <g id="line2d_10">
      <g>
       <use xlink:href="#m71e4c5bc13" x="347.763727" y="219.666016" style="fill: #898781; stroke: #898781; stroke-width: 0.8"/>
      </g>
     </g>
     <g id="text_5">
      <!-- 35 -->
      <g style="fill: #52514e" transform="translate(341.949352 234.833252) scale(0.105 -0.105)">
       <use xlink:href="#Cambria-375"/>
       <use xlink:href="#Cambria-377" transform="translate(55.375 0)"/>
      </g>
     </g>
    </g>
    <g id="xtick_6">
     <g id="line2d_11">
      <path d="M 408.578015 219.666016 
L 408.578015 25.311816 
" clip-path="url(#p8154aa85aa)" style="fill: none; stroke: #e1e0d9; stroke-width: 0.7; stroke-linecap: square"/>
     </g>
     <g id="line2d_12">
      <g>
       <use xlink:href="#m71e4c5bc13" x="408.578015" y="219.666016" style="fill: #898781; stroke: #898781; stroke-width: 0.8"/>
      </g>
     </g>
     <g id="text_6">
      <!-- 40 -->
      <g style="fill: #52514e" transform="translate(402.76364 234.833252) scale(0.105 -0.105)">
       <defs>
        <path id="Cambria-376" d="M 1613 153 
Q 1806 203 1872 264 
Q 1938 325 1958 437 
Q 1978 550 1978 781 
L 1978 1294 
L 241 1294 
L 241 1528 
L 2069 4288 
L 2516 4288 
L 2516 1597 
L 2581 1597 
Q 2763 1597 2841 1623 
Q 2919 1650 2970 1717 
Q 3022 1784 3066 1938 
L 3303 1938 
L 3266 1294 
L 2516 1294 
L 2516 781 
Q 2516 572 2530 475 
Q 2544 378 2576 322 
Q 2609 266 2673 228 
Q 2738 191 2881 153 
L 2881 0 
L 1613 0 
L 1613 153 
z
M 756 1597 
L 1978 1597 
L 1978 2375 
Q 1978 2669 1987 3033 
Q 1997 3397 2009 3581 
L 1978 3581 
L 756 1641 
L 756 1597 
z
" transform="scale(0.015625)"/>
       </defs>
       <use xlink:href="#Cambria-376"/>
       <use xlink:href="#Cambria-372" transform="translate(55.375 0)"/>
      </g>
     </g>
    </g>
    <g id="text_7">
     <!-- bit length of the prime $r$ -->
     <g style="fill: #0b0b0b" transform="translate(177.098008 250.5) scale(0.12 -0.12)">
      <defs>
       <path id="Cambria-84" d="M 1091 2497 
L 1103 2494 
Q 1322 2722 1467 2825 
Q 1613 2928 1767 2983 
Q 1922 3038 2106 3038 
Q 2441 3038 2680 2867 
Q 2919 2697 3048 2356 
Q 3178 2016 3178 1522 
Q 3178 1013 3023 661 
Q 2869 309 2567 129 
Q 2266 -50 1853 -50 
Q 1622 -50 1417 -8 
Q 1213 34 988 141 
L 769 -50 
L 553 0 
L 553 3397 
Q 553 3697 548 3815 
Q 544 3934 523 4017 
Q 503 4100 467 4147 
Q 431 4194 370 4222 
Q 309 4250 150 4278 
L 150 4441 
L 906 4472 
L 1091 4472 
L 1091 2497 
z
M 1091 1125 
Q 1091 884 1112 742 
Q 1134 600 1186 506 
Q 1238 413 1336 334 
Q 1434 256 1556 226 
Q 1678 197 1828 197 
Q 2203 197 2397 503 
Q 2591 809 2591 1422 
Q 2591 2041 2414 2352 
Q 2238 2663 1881 2663 
Q 1703 2663 1578 2608 
Q 1453 2553 1329 2437 
Q 1206 2322 1148 2209 
Q 1091 2097 1091 1953 
L 1091 1125 
z
" transform="scale(0.015625)"/>
       <path id="Cambria-8b" d="M 1197 4213 
L 1197 3606 
L 622 3606 
L 622 4213 
L 1197 4213 
z
M 303 153 
Q 425 191 476 219 
Q 528 247 564 297 
Q 600 347 620 450 
Q 641 553 641 772 
L 641 2134 
Q 641 2334 634 2456 
Q 628 2578 590 2651 
Q 553 2725 476 2761 
Q 400 2797 259 2822 
L 259 2988 
L 988 3016 
L 1178 3016 
L 1178 781 
Q 1178 513 1203 408 
Q 1228 303 1298 248 
Q 1369 194 1528 153 
L 1528 0 
L 303 0 
L 303 153 
z
" transform="scale(0.015625)"/>
       <path id="Cambria-96" d="M 116 2831 
Q 272 2856 369 2918 
Q 466 2981 520 3079 
Q 575 3178 606 3326 
Q 638 3475 672 3759 
L 1116 3759 
L 1116 2988 
L 2125 2988 
L 2125 2672 
L 1116 2672 
L 1116 1281 
Q 1116 978 1141 798 
Q 1166 619 1234 517 
Q 1303 416 1390 372 
Q 1478 328 1616 328 
Q 1741 328 1850 379 
Q 1959 431 2066 528 
L 2206 359 
Q 1984 144 1786 47 
Q 1588 -50 1375 -50 
Q 972 -50 775 189 
Q 578 428 578 938 
L 578 2672 
L 116 2672 
L 116 2831 
z
" transform="scale(0.015625)"/>
       <path id="Cambria-3" transform="scale(0.015625)"/>
       <path id="Cambria-8e" d="M 1138 781 
Q 1138 513 1163 408 
Q 1188 303 1258 248 
Q 1328 194 1488 153 
L 1488 0 
L 247 0 
L 247 153 
Q 403 194 464 237 
Q 525 281 551 342 
Q 578 403 589 508 
Q 600 613 600 781 
L 600 3397 
Q 600 3697 595 3815 
Q 591 3934 570 4017 
Q 550 4100 514 4147 
Q 478 4194 417 4222 
Q 356 4250 197 4278 
L 197 4441 
L 950 4472 
L 1138 4472 
L 1138 781 
z
" transform="scale(0.015625)"/>
       <path id="Cambria-87" d="M 2800 531 
Q 2600 322 2433 203 
Q 2266 84 2066 17 
Q 1866 -50 1625 -50 
Q 981 -50 653 336 
Q 325 722 325 1475 
Q 325 1941 492 2297 
Q 659 2653 968 2847 
Q 1278 3041 1681 3041 
Q 1997 3041 2219 2941 
Q 2441 2841 2573 2667 
Q 2706 2494 2779 2230 
Q 2853 1966 2863 1541 
L 894 1541 
L 894 1484 
Q 894 1116 976 864 
Q 1059 613 1248 470 
Q 1438 328 1741 328 
Q 1997 328 2201 423 
Q 2406 519 2609 734 
L 2800 531 
z
M 2275 1800 
Q 2256 2138 2190 2352 
Q 2125 2566 1994 2680 
Q 1863 2794 1650 2794 
Q 1328 2794 1136 2536 
Q 944 2278 909 1800 
L 2275 1800 
z
" transform="scale(0.015625)"/>
       <path id="Cambria-90" d="M 3347 0 
L 2116 0 
L 2116 153 
Q 2238 191 2291 219 
Q 2344 247 2380 297 
Q 2416 347 2436 451 
Q 2456 556 2456 769 
L 2456 1588 
Q 2456 1806 2443 1984 
Q 2431 2163 2401 2277 
Q 2372 2391 2330 2455 
Q 2288 2519 2230 2564 
Q 2172 2609 2097 2636 
Q 2022 2663 1900 2663 
Q 1778 2663 1668 2614 
Q 1559 2566 1428 2447 
Q 1297 2328 1237 2212 
Q 1178 2097 1178 1947 
L 1178 781 
Q 1178 513 1203 408 
Q 1228 303 1298 248 
Q 1369 194 1528 153 
L 1528 0 
L 303 0 
L 303 153 
Q 425 191 476 219 
Q 528 247 564 297 
Q 600 347 620 450 
Q 641 553 641 772 
L 641 2134 
Q 641 2334 634 2456 
Q 628 2578 590 2651 
Q 553 2725 476 2761 
Q 400 2797 259 2822 
L 259 2988 
L 991 3016 
L 1181 3016 
L 1147 2506 
L 1191 2494 
Q 1422 2728 1564 2828 
Q 1706 2928 1851 2983 
Q 1997 3038 2159 3038 
Q 2328 3038 2461 2998 
Q 2594 2959 2695 2878 
Q 2797 2797 2862 2676 
Q 2928 2556 2961 2387 
Q 2994 2219 2994 1959 
L 2994 781 
Q 2994 566 3006 469 
Q 3019 372 3050 319 
Q 3081 266 3140 230 
Q 3200 194 3347 153 
L 3347 0 
z
" transform="scale(0.015625)"/>
       <path id="Cambria-89" d="M 3106 2672 
L 2528 2694 
L 2500 2659 
Q 2597 2563 2653 2395 
Q 2709 2228 2709 2034 
Q 2709 1525 2395 1248 
Q 2081 972 1503 972 
Q 1244 972 1056 1038 
Q 819 856 819 681 
Q 819 566 864 506 
Q 909 447 1014 422 
Q 1119 397 1331 397 
L 2081 397 
Q 2413 397 2622 294 
Q 2831 191 2920 17 
Q 3009 -156 3009 -388 
Q 3009 -681 2840 -911 
Q 2672 -1141 2353 -1269 
Q 2034 -1397 1609 -1397 
Q 1294 -1397 1033 -1359 
Q 772 -1322 586 -1233 
Q 400 -1144 298 -998 
Q 197 -853 197 -634 
Q 197 -438 328 -277 
Q 459 -116 700 6 
Q 553 66 468 181 
Q 384 297 384 453 
Q 384 631 484 779 
Q 584 928 838 1119 
Q 613 1250 495 1475 
Q 378 1700 378 1988 
Q 378 2256 467 2454 
Q 556 2653 714 2783 
Q 872 2913 1087 2977 
Q 1303 3041 1553 3041 
Q 1778 3041 2000 2988 
L 3106 2988 
L 3106 2672 
z
M 938 2038 
Q 938 1647 1097 1434 
Q 1256 1222 1556 1222 
Q 1716 1222 1828 1283 
Q 1941 1344 2011 1450 
Q 2081 1556 2114 1695 
Q 2147 1834 2147 1988 
Q 2147 2263 2069 2447 
Q 1991 2631 1856 2717 
Q 1722 2803 1547 2803 
Q 1250 2803 1094 2606 
Q 938 2409 938 2038 
z
M 1016 -50 
Q 856 -169 776 -301 
Q 697 -434 697 -603 
Q 697 -884 920 -1017 
Q 1144 -1150 1603 -1150 
Q 1884 -1150 2086 -1075 
Q 2288 -1000 2394 -859 
Q 2500 -719 2500 -531 
Q 2500 -444 2478 -361 
Q 2456 -278 2395 -212 
Q 2334 -147 2221 -108 
Q 2109 -69 1928 -69 
L 1463 -69 
Q 1209 -69 1016 -50 
z
" transform="scale(0.015625)"/>
       <path id="Cambria-8a" d="M 1141 2497 
L 1153 2494 
Q 1397 2741 1539 2839 
Q 1681 2938 1820 2988 
Q 1959 3038 2119 3038 
Q 2291 3038 2425 2997 
Q 2559 2956 2661 2873 
Q 2763 2791 2827 2670 
Q 2891 2550 2922 2383 
Q 2953 2216 2953 1959 
L 2953 781 
Q 2953 509 2976 411 
Q 3000 313 3061 258 
Q 3122 203 3306 153 
L 3306 0 
L 2075 0 
L 2075 153 
Q 2197 191 2250 219 
Q 2303 247 2339 297 
Q 2375 347 2395 451 
Q 2416 556 2416 769 
L 2416 1588 
Q 2416 2003 2373 2223 
Q 2331 2444 2207 2553 
Q 2084 2663 1863 2663 
Q 1738 2663 1638 2619 
Q 1538 2575 1406 2462 
Q 1275 2350 1208 2231 
Q 1141 2113 1141 1978 
L 1141 781 
Q 1141 569 1152 478 
Q 1163 388 1194 327 
Q 1225 266 1289 227 
Q 1353 188 1488 153 
L 1488 0 
L 250 0 
L 250 153 
Q 388 191 447 225 
Q 506 259 539 312 
Q 572 366 587 466 
Q 603 566 603 781 
L 603 3397 
Q 603 3697 598 3815 
Q 594 3934 573 4017 
Q 553 4100 517 4147 
Q 481 4194 420 4222 
Q 359 4250 200 4278 
L 200 4441 
L 953 4472 
L 1141 4472 
L 1141 2497 
z
" transform="scale(0.015625)"/>
       <path id="Cambria-91" d="M 1663 -50 
Q 1013 -50 670 333 
Q 328 716 328 1466 
Q 328 1981 508 2337 
Q 688 2694 1000 2867 
Q 1313 3041 1713 3041 
Q 2381 3041 2725 2652 
Q 3069 2263 3069 1534 
Q 3069 1016 2897 659 
Q 2725 303 2409 126 
Q 2094 -50 1663 -50 
z
M 919 1531 
Q 919 888 1123 542 
Q 1328 197 1709 197 
Q 1919 197 2066 298 
Q 2213 400 2305 572 
Q 2397 744 2437 970 
Q 2478 1197 2478 1444 
Q 2478 1903 2376 2206 
Q 2275 2509 2100 2651 
Q 1925 2794 1700 2794 
Q 1322 2794 1120 2466 
Q 919 2138 919 1531 
z
" transform="scale(0.015625)"/>
       <path id="Cambria-88" d="M 1909 2672 
L 1163 2672 
L 1163 781 
Q 1163 572 1183 465 
Q 1203 359 1242 304 
Q 1281 250 1345 217 
Q 1409 184 1550 153 
L 1550 0 
L 272 0 
L 272 153 
Q 409 191 468 225 
Q 528 259 561 312 
Q 594 366 609 466 
Q 625 566 625 781 
L 625 2672 
L 247 2672 
L 247 2831 
Q 366 2850 405 2861 
Q 444 2872 480 2894 
Q 516 2916 542 2956 
Q 569 2997 589 3076 
Q 609 3156 622 3300 
Q 650 3641 745 3853 
Q 841 4066 1023 4216 
Q 1206 4366 1414 4427 
Q 1622 4488 1903 4488 
Q 2150 4488 2322 4453 
L 2322 3888 
L 2013 3888 
Q 1953 4072 1873 4148 
Q 1794 4225 1650 4225 
Q 1547 4225 1476 4197 
Q 1406 4169 1347 4109 
Q 1288 4050 1245 3950 
Q 1203 3850 1183 3701 
Q 1163 3553 1163 3316 
L 1163 2988 
L 1909 2988 
L 1909 2672 
z
" transform="scale(0.015625)"/>
       <path id="Cambria-92" d="M 1150 94 
L 1150 -566 
Q 1150 -769 1164 -869 
Q 1178 -969 1214 -1026 
Q 1250 -1084 1317 -1121 
Q 1384 -1159 1534 -1191 
L 1534 -1344 
L 259 -1344 
L 259 -1191 
Q 372 -1159 442 -1126 
Q 513 -1094 550 -1030 
Q 588 -966 600 -856 
Q 613 -747 613 -566 
L 613 2116 
Q 613 2341 606 2436 
Q 600 2531 581 2593 
Q 563 2656 527 2697 
Q 491 2738 430 2766 
Q 369 2794 228 2822 
L 228 2988 
L 963 3016 
L 1153 3016 
L 1113 2506 
L 1159 2494 
Q 1353 2691 1465 2780 
Q 1578 2869 1698 2928 
Q 1819 2988 1930 3013 
Q 2041 3038 2166 3038 
Q 2681 3038 2957 2652 
Q 3234 2266 3234 1522 
Q 3234 1006 3078 654 
Q 2922 303 2623 126 
Q 2325 -50 1913 -50 
Q 1681 -50 1493 -11 
Q 1306 28 1150 94 
z
M 1150 1125 
Q 1150 825 1187 662 
Q 1225 500 1320 398 
Q 1416 297 1545 247 
Q 1675 197 1888 197 
Q 2266 197 2456 511 
Q 2647 825 2647 1438 
Q 2647 2663 1931 2663 
Q 1756 2663 1629 2608 
Q 1503 2553 1378 2431 
Q 1253 2309 1201 2195 
Q 1150 2081 1150 1950 
L 1150 1125 
z
" transform="scale(0.015625)"/>
       <path id="Cambria-94" d="M 1147 2469 
L 1191 2459 
Q 1363 2669 1509 2789 
Q 1656 2909 1826 2975 
Q 1997 3041 2213 3041 
Q 2394 3041 2541 3022 
L 2541 2303 
L 2188 2303 
Q 2113 2472 2028 2548 
Q 1944 2625 1797 2625 
Q 1684 2625 1573 2559 
Q 1463 2494 1359 2369 
Q 1256 2244 1217 2134 
Q 1178 2025 1178 1875 
L 1178 781 
Q 1178 497 1212 389 
Q 1247 281 1326 231 
Q 1406 181 1566 153 
L 1566 0 
L 306 0 
L 306 153 
Q 425 191 476 219 
Q 528 247 565 297 
Q 603 347 622 450 
Q 641 553 641 772 
L 641 2134 
Q 641 2334 634 2456 
Q 628 2578 590 2651 
Q 553 2725 476 2761 
Q 400 2797 259 2822 
L 259 2984 
L 991 3016 
L 1181 3016 
L 1147 2469 
z
" transform="scale(0.015625)"/>
       <path id="Cambria-8f" d="M 1147 2506 
L 1191 2494 
Q 1378 2681 1498 2776 
Q 1619 2872 1731 2930 
Q 1844 2988 1942 3013 
Q 2041 3038 2144 3038 
Q 2456 3038 2653 2894 
Q 2850 2750 2925 2453 
Q 3159 2691 3304 2803 
Q 3450 2916 3601 2977 
Q 3753 3038 3928 3038 
Q 4138 3038 4289 2977 
Q 4441 2916 4545 2789 
Q 4650 2663 4698 2472 
Q 4747 2281 4747 1959 
L 4747 781 
Q 4747 544 4762 453 
Q 4778 363 4808 313 
Q 4838 263 4897 227 
Q 4956 191 5097 153 
L 5097 0 
L 3869 0 
L 3869 153 
Q 3991 191 4044 219 
Q 4097 247 4133 297 
Q 4169 347 4189 451 
Q 4209 556 4209 769 
L 4209 1588 
Q 4209 1853 4195 2026 
Q 4181 2200 4151 2303 
Q 4122 2406 4080 2465 
Q 4038 2525 3984 2569 
Q 3931 2613 3859 2638 
Q 3788 2663 3669 2663 
Q 3544 2663 3436 2613 
Q 3328 2563 3201 2444 
Q 3075 2325 3019 2204 
Q 2963 2084 2963 1922 
L 2963 781 
Q 2963 544 2978 453 
Q 2994 363 3023 313 
Q 3053 263 3112 227 
Q 3172 191 3313 153 
L 3313 0 
L 2084 0 
L 2084 153 
Q 2206 191 2259 219 
Q 2313 247 2348 297 
Q 2384 347 2404 451 
Q 2425 556 2425 769 
L 2425 1588 
Q 2425 1866 2409 2041 
Q 2394 2216 2361 2322 
Q 2328 2428 2276 2493 
Q 2225 2559 2172 2593 
Q 2119 2628 2047 2645 
Q 1975 2663 1884 2663 
Q 1756 2663 1643 2605 
Q 1531 2547 1414 2437 
Q 1297 2328 1237 2209 
Q 1178 2091 1178 1953 
L 1178 781 
Q 1178 603 1187 509 
Q 1197 416 1217 362 
Q 1238 309 1269 276 
Q 1300 244 1358 214 
Q 1416 184 1531 153 
L 1531 0 
L 306 0 
L 306 153 
Q 425 191 476 219 
Q 528 247 565 297 
Q 603 347 622 450 
Q 641 553 641 772 
L 641 2134 
Q 641 2334 634 2456 
Q 628 2578 590 2651 
Q 553 2725 476 2761 
Q 400 2797 259 2822 
L 259 2988 
L 991 3016 
L 1181 3016 
L 1147 2506 
z
" transform="scale(0.015625)"/>
       <path id="Cmmi10-84" d="M 494 109 
Q 494 147 500 166 
L 978 2075 
Q 1025 2253 1025 2388 
Q 1025 2663 838 2663 
Q 638 2663 541 2423 
Q 444 2184 353 1819 
Q 353 1800 334 1789 
Q 316 1778 300 1778 
L 225 1778 
Q 203 1778 187 1801 
Q 172 1825 172 1844 
Q 241 2122 305 2315 
Q 369 2509 505 2668 
Q 641 2828 844 2828 
Q 1066 2828 1233 2700 
Q 1400 2572 1441 2363 
Q 1603 2575 1811 2701 
Q 2019 2828 2266 2828 
Q 2469 2828 2623 2709 
Q 2778 2591 2778 2388 
Q 2778 2225 2676 2104 
Q 2575 1984 2406 1984 
Q 2303 1984 2233 2048 
Q 2163 2113 2163 2216 
Q 2163 2356 2266 2467 
Q 2369 2578 2503 2578 
Q 2400 2663 2253 2663 
Q 1978 2663 1775 2467 
Q 1572 2272 1409 1972 
L 953 141 
Q 931 53 854 -9 
Q 778 -72 684 -72 
Q 606 -72 550 -22 
Q 494 28 494 109 
z
" transform="scale(0.015625)"/>
      </defs>
      <use xlink:href="#Cambria-84" transform="translate(0 0.875)"/>
      <use xlink:href="#Cambria-8b" transform="translate(54.736328 0.875)"/>
      <use xlink:href="#Cambria-96" transform="translate(82.519531 0.875)"/>
      <use xlink:href="#Cambria-3" transform="translate(116.357422 0.875)"/>
      <use xlink:href="#Cambria-8e" transform="translate(138.378906 0.875)"/>
      <use xlink:href="#Cambria-87" transform="translate(165.527344 0.875)"/>
      <use xlink:href="#Cambria-90" transform="translate(214.306641 0.875)"/>
      <use xlink:href="#Cambria-89" transform="translate(270.117188 0.875)"/>
      <use xlink:href="#Cambria-96" transform="translate(319.53125 0.875)"/>
      <use xlink:href="#Cambria-8a" transform="translate(353.369141 0.875)"/>
      <use xlink:href="#Cambria-3" transform="translate(408.544922 0.875)"/>
      <use xlink:href="#Cambria-91" transform="translate(430.566406 0.875)"/>
      <use xlink:href="#Cambria-88" transform="translate(483.642578 0.875)"/>
      <use xlink:href="#Cambria-3" transform="translate(513.916016 0.875)"/>
      <use xlink:href="#Cambria-96" transform="translate(535.9375 0.875)"/>
      <use xlink:href="#Cambria-8a" transform="translate(569.775391 0.875)"/>
      <use xlink:href="#Cambria-87" transform="translate(624.951172 0.875)"/>
      <use xlink:href="#Cambria-3" transform="translate(673.730469 0.875)"/>
      <use xlink:href="#Cambria-92" transform="translate(695.751953 0.875)"/>
      <use xlink:href="#Cambria-94" transform="translate(751.367188 0.875)"/>
      <use xlink:href="#Cambria-8b" transform="translate(792.724609 0.875)"/>
      <use xlink:href="#Cambria-8f" transform="translate(820.507812 0.875)"/>
      <use xlink:href="#Cambria-87" transform="translate(903.710938 0.875)"/>
      <use xlink:href="#Cambria-3" transform="translate(952.490234 0.875)"/>
      <use xlink:href="#Cmmi10-84" transform="translate(974.511719 0.875)"/>
     </g>
    </g>
   </g>
   <g id="matplotlib.axis_2">
    <g id="ytick_1">
     <g id="line2d_13">
      <path d="M 50.99 174.044704 
L 425.606016 174.044704 
" clip-path="url(#p8154aa85aa)" style="fill: none; stroke: #e1e0d9; stroke-width: 0.7; stroke-linecap: square"/>
     </g>
     <g id="line2d_14">
      <defs>
       <path id="m7889adf642" d="M 0 0 
L -3.5 0 
" style="stroke: #898781; stroke-width: 0.8"/>
      </defs>
      <g>
       <use xlink:href="#m7889adf642" x="50.99" y="174.044704" style="fill: #898781; stroke: #898781; stroke-width: 0.8"/>
      </g>
     </g>
     <g id="text_8">
      <!-- $\mathdefault{10^{-2}}$ -->
      <g style="fill: #52514e" transform="translate(23.2 178.717204) scale(0.105 -0.105)">
       <defs>
        <path id="Cambria-3ab" d="M 397 1613 
L 397 2047 
L 3147 2047 
L 3147 1613 
L 397 1613 
z
" transform="scale(0.015625)"/>
       </defs>
       <use xlink:href="#Cambria-373" transform="translate(0 0.504516)"/>
       <use xlink:href="#Cambria-372" transform="translate(55.371094 0.504516)"/>
       <use xlink:href="#Cambria-3ab" transform="translate(114.746478 41.79375) scale(0.7)"/>
       <use xlink:href="#Cambria-374" transform="translate(153.506244 41.79375) scale(0.7)"/>
      </g>
     </g>
    </g>
    <g id="ytick_2">
     <g id="line2d_15">
      <path d="M 50.99 102.864018 
L 425.606016 102.864018 
" clip-path="url(#p8154aa85aa)" style="fill: none; stroke: #e1e0d9; stroke-width: 0.7; stroke-linecap: square"/>
     </g>
     <g id="line2d_16">
      <g>
       <use xlink:href="#m7889adf642" x="50.99" y="102.864018" style="fill: #898781; stroke: #898781; stroke-width: 0.8"/>
      </g>
     </g>
     <g id="text_9">
      <!-- $\mathdefault{10^{-1}}$ -->
      <g style="fill: #52514e" transform="translate(23.2 107.536518) scale(0.105 -0.105)">
       <use xlink:href="#Cambria-373" transform="translate(0 0.504516)"/>
       <use xlink:href="#Cambria-372" transform="translate(55.371094 0.504516)"/>
       <use xlink:href="#Cambria-3ab" transform="translate(114.746478 41.79375) scale(0.7)"/>
       <use xlink:href="#Cambria-373" transform="translate(153.506244 41.79375) scale(0.7)"/>
      </g>
     </g>
    </g>
    <g id="ytick_3">
     <g id="line2d_17">
      <path d="M 50.99 31.683333 
L 425.606016 31.683333 
" clip-path="url(#p8154aa85aa)" style="fill: none; stroke: #e1e0d9; stroke-width: 0.7; stroke-linecap: square"/>
     </g>
     <g id="line2d_18">
      <g>
       <use xlink:href="#m7889adf642" x="50.99" y="31.683333" style="fill: #898781; stroke: #898781; stroke-width: 0.8"/>
      </g>
     </g>
     <g id="text_10">
      <!-- $\mathdefault{10^{0}}$ -->
      <g style="fill: #52514e" transform="translate(27.19 36.355833) scale(0.105 -0.105)">
       <use xlink:href="#Cambria-373" transform="translate(0 0.504516)"/>
       <use xlink:href="#Cambria-372" transform="translate(55.371094 0.504516)"/>
       <use xlink:href="#Cambria-372" transform="translate(114.746478 41.79375) scale(0.7)"/>
      </g>
     </g>
    </g>
    <g id="ytick_4">
     <g id="line2d_19">
      <defs>
       <path id="m0c90776b62" d="M 0 0 
L -2 0 
" style="stroke: #898781; stroke-width: 0.6"/>
      </defs>
      <g>
       <use xlink:href="#m0c90776b62" x="50.99" y="211.263572" style="fill: #898781; stroke: #898781; stroke-width: 0.6"/>
      </g>
     </g>
    </g>
    <g id="ytick_5">
     <g id="line2d_20">
      <g>
       <use xlink:href="#m0c90776b62" x="50.99" y="202.370347" style="fill: #898781; stroke: #898781; stroke-width: 0.6"/>
      </g>
     </g>
    </g>
    <g id="ytick_6">
     <g id="line2d_21">
      <g>
       <use xlink:href="#m0c90776b62" x="50.99" y="195.472225" style="fill: #898781; stroke: #898781; stroke-width: 0.6"/>
      </g>
     </g>
    </g>
    <g id="ytick_7">
     <g id="line2d_22">
      <g>
       <use xlink:href="#m0c90776b62" x="50.99" y="189.83605" style="fill: #898781; stroke: #898781; stroke-width: 0.6"/>
      </g>
     </g>
    </g>
    <g id="ytick_8">
     <g id="line2d_23">
      <g>
       <use xlink:href="#m0c90776b62" x="50.99" y="185.070732" style="fill: #898781; stroke: #898781; stroke-width: 0.6"/>
      </g>
     </g>
    </g>
    <g id="ytick_9">
     <g id="line2d_24">
      <g>
       <use xlink:href="#m0c90776b62" x="50.99" y="180.942825" style="fill: #898781; stroke: #898781; stroke-width: 0.6"/>
      </g>
     </g>
    </g>
    <g id="ytick_10">
     <g id="line2d_25">
      <g>
       <use xlink:href="#m0c90776b62" x="50.99" y="177.301754" style="fill: #898781; stroke: #898781; stroke-width: 0.6"/>
      </g>
     </g>
    </g>
    <g id="ytick_11">
     <g id="line2d_26">
      <g>
       <use xlink:href="#m0c90776b62" x="50.99" y="152.617183" style="fill: #898781; stroke: #898781; stroke-width: 0.6"/>
      </g>
     </g>
    </g>
    <g id="ytick_12">
     <g id="line2d_27">
      <g>
       <use xlink:href="#m0c90776b62" x="50.99" y="140.082886" style="fill: #898781; stroke: #898781; stroke-width: 0.6"/>
      </g>
     </g>
    </g>
    <g id="ytick_13">
     <g id="line2d_28">
      <g>
       <use xlink:href="#m0c90776b62" x="50.99" y="131.189661" style="fill: #898781; stroke: #898781; stroke-width: 0.6"/>
      </g>
     </g>
    </g>
    <g id="ytick_14">
     <g id="line2d_29">
      <g>
       <use xlink:href="#m0c90776b62" x="50.99" y="124.29154" style="fill: #898781; stroke: #898781; stroke-width: 0.6"/>
      </g>
     </g>
    </g>
    <g id="ytick_15">
     <g id="line2d_30">
      <g>
       <use xlink:href="#m0c90776b62" x="50.99" y="118.655364" style="fill: #898781; stroke: #898781; stroke-width: 0.6"/>
      </g>
     </g>
    </g>
    <g id="ytick_16">
     <g id="line2d_31">
      <g>
       <use xlink:href="#m0c90776b62" x="50.99" y="113.890046" style="fill: #898781; stroke: #898781; stroke-width: 0.6"/>
      </g>
     </g>
    </g>
    <g id="ytick_17">
     <g id="line2d_32">
      <g>
       <use xlink:href="#m0c90776b62" x="50.99" y="109.76214" style="fill: #898781; stroke: #898781; stroke-width: 0.6"/>
      </g>
     </g>
    </g>
    <g id="ytick_18">
     <g id="line2d_33">
      <g>
       <use xlink:href="#m0c90776b62" x="50.99" y="106.121068" style="fill: #898781; stroke: #898781; stroke-width: 0.6"/>
      </g>
     </g>
    </g>
    <g id="ytick_19">
     <g id="line2d_34">
      <g>
       <use xlink:href="#m0c90776b62" x="50.99" y="81.436497" style="fill: #898781; stroke: #898781; stroke-width: 0.6"/>
      </g>
     </g>
    </g>
    <g id="ytick_20">
     <g id="line2d_35">
      <g>
       <use xlink:href="#m0c90776b62" x="50.99" y="68.9022" style="fill: #898781; stroke: #898781; stroke-width: 0.6"/>
      </g>
     </g>
    </g>
    <g id="ytick_21">
     <g id="line2d_36">
      <g>
       <use xlink:href="#m0c90776b62" x="50.99" y="60.008975" style="fill: #898781; stroke: #898781; stroke-width: 0.6"/>
      </g>
     </g>
    </g>
    <g id="ytick_22">
     <g id="line2d_37">
      <g>
       <use xlink:href="#m0c90776b62" x="50.99" y="53.110854" style="fill: #898781; stroke: #898781; stroke-width: 0.6"/>
      </g>
     </g>
    </g>
    <g id="ytick_23">
     <g id="line2d_38">
      <g>
       <use xlink:href="#m0c90776b62" x="50.99" y="47.474679" style="fill: #898781; stroke: #898781; stroke-width: 0.6"/>
      </g>
     </g>
    </g>
    <g id="ytick_24">
     <g id="line2d_39">
      <g>
       <use xlink:href="#m0c90776b62" x="50.99" y="42.70936" style="fill: #898781; stroke: #898781; stroke-width: 0.6"/>
      </g>
     </g>
    </g>
    <g id="ytick_25">
     <g id="line2d_40">
      <g>
       <use xlink:href="#m0c90776b62" x="50.99" y="38.581454" style="fill: #898781; stroke: #898781; stroke-width: 0.6"/>
      </g>
     </g>
    </g>
    <g id="ytick_26">
     <g id="line2d_41">
      <g>
       <use xlink:href="#m0c90776b62" x="50.99" y="34.940382" style="fill: #898781; stroke: #898781; stroke-width: 0.6"/>
      </g>
     </g>
    </g>
    <g id="text_11">
     <!-- $B$-smooth success probability -->
     <g style="fill: #0b0b0b" transform="translate(16.533984 198.748916) rotate(-90) scale(0.12 -0.12)">
      <defs>
       <path id="Cmmi10-34" d="M 319 0 
Q 256 0 256 84 
Q 259 100 268 137 
Q 278 175 293 200 
Q 309 225 341 225 
Q 522 225 656 234 
Q 791 244 884 269 
Q 959 297 1006 441 
L 1881 3956 
Q 1894 4019 1894 4044 
Q 1894 4113 1819 4122 
Q 1697 4147 1356 4147 
Q 1294 4147 1294 4231 
Q 1297 4247 1306 4286 
Q 1316 4325 1333 4348 
Q 1350 4372 1375 4372 
L 3669 4372 
Q 3878 4372 4083 4320 
Q 4288 4269 4461 4156 
Q 4634 4044 4736 3876 
Q 4838 3709 4838 3488 
Q 4838 3247 4714 3040 
Q 4591 2834 4395 2681 
Q 4200 2528 3973 2429 
Q 3747 2331 3500 2284 
Q 3675 2284 3854 2215 
Q 4034 2147 4175 2028 
Q 4316 1909 4402 1743 
Q 4488 1578 4488 1388 
Q 4488 1003 4219 684 
Q 3950 366 3542 183 
Q 3134 0 2753 0 
L 319 0 
z
M 1497 275 
Q 1497 225 1716 225 
L 2631 225 
Q 2944 225 3231 398 
Q 3519 572 3692 859 
Q 3866 1147 3866 1459 
Q 3866 1650 3786 1820 
Q 3706 1991 3556 2089 
Q 3406 2188 3213 2188 
L 1966 2188 
L 1522 416 
Q 1497 328 1497 275 
z
M 2009 2356 
L 2981 2356 
Q 3288 2356 3577 2512 
Q 3866 2669 4048 2937 
Q 4231 3206 4231 3506 
Q 4231 3784 4057 3965 
Q 3884 4147 3609 4147 
L 2731 4147 
Q 2559 4147 2500 4115 
Q 2441 4084 2400 3928 
L 2009 2356 
z
" transform="scale(0.015625)"/>
       <path id="Cambria-1e6" d="M 1788 1403 
L 338 1403 
L 338 1888 
L 1788 1888 
L 1788 1403 
z
" transform="scale(0.015625)"/>
       <path id="Cambria-95" d="M 2397 2303 
L 2097 2303 
Q 2028 2491 1934 2598 
Q 1841 2706 1722 2750 
Q 1603 2794 1431 2794 
Q 1181 2794 1032 2676 
Q 884 2559 884 2356 
Q 884 2213 943 2119 
Q 1003 2025 1128 1944 
Q 1253 1863 1569 1728 
Q 1888 1591 2061 1475 
Q 2234 1359 2332 1206 
Q 2431 1053 2431 841 
Q 2431 594 2347 425 
Q 2263 256 2109 150 
Q 1956 44 1745 -3 
Q 1534 -50 1284 -50 
Q 1022 -50 775 -11 
Q 528 28 294 91 
L 294 744 
L 600 744 
Q 684 456 850 326 
Q 1016 197 1306 197 
Q 1419 197 1526 220 
Q 1634 244 1718 298 
Q 1803 353 1853 447 
Q 1903 541 1903 681 
Q 1903 841 1840 941 
Q 1778 1041 1647 1123 
Q 1516 1206 1184 1347 
Q 900 1466 728 1578 
Q 556 1691 457 1844 
Q 359 1997 359 2206 
Q 359 2463 498 2652 
Q 638 2841 900 2941 
Q 1163 3041 1516 3041 
Q 1722 3041 1914 3020 
Q 2106 3000 2397 2941 
L 2397 2303 
z
" transform="scale(0.015625)"/>
       <path id="Cambria-97" d="M 228 2988 
L 1119 2988 
L 1119 1397 
Q 1119 1031 1147 840 
Q 1175 650 1231 553 
Q 1288 456 1391 390 
Q 1494 325 1675 325 
Q 1794 325 1903 372 
Q 2013 419 2147 536 
Q 2281 653 2339 768 
Q 2397 884 2397 1038 
L 2397 2209 
Q 2397 2388 2387 2478 
Q 2378 2569 2356 2623 
Q 2334 2678 2304 2712 
Q 2275 2747 2220 2775 
Q 2166 2803 2044 2834 
L 2044 2988 
L 2934 2988 
L 2934 853 
Q 2934 613 2943 506 
Q 2953 400 2984 337 
Q 3016 275 3081 236 
Q 3147 197 3316 163 
L 3316 0 
L 2600 -31 
L 2409 -31 
L 2428 481 
L 2381 494 
Q 2122 213 1886 81 
Q 1650 -50 1413 -50 
Q 1128 -50 943 62 
Q 759 175 668 398 
Q 578 622 578 1028 
L 578 2209 
Q 578 2472 558 2570 
Q 538 2669 480 2726 
Q 422 2784 228 2834 
L 228 2988 
z
" transform="scale(0.015625)"/>
       <path id="Cambria-85" d="M 2631 2916 
L 2631 2263 
L 2234 2263 
Q 2181 2466 2103 2583 
Q 2025 2700 1922 2747 
Q 1819 2794 1666 2794 
Q 1447 2794 1278 2653 
Q 1109 2513 1011 2225 
Q 913 1938 913 1522 
Q 913 1256 950 1036 
Q 988 816 1078 659 
Q 1169 503 1319 415 
Q 1469 328 1691 328 
Q 1906 328 2092 412 
Q 2278 497 2478 709 
L 2656 503 
Q 2497 328 2375 233 
Q 2253 138 2114 73 
Q 1975 9 1839 -20 
Q 1703 -50 1544 -50 
Q 953 -50 640 342 
Q 328 734 328 1475 
Q 328 1938 503 2295 
Q 678 2653 993 2847 
Q 1309 3041 1722 3041 
Q 1978 3041 2195 3011 
Q 2413 2981 2631 2916 
z
" transform="scale(0.015625)"/>
       <path id="Cambria-83" d="M 2109 447 
L 2063 459 
Q 1791 181 1552 65 
Q 1313 -50 1044 -50 
Q 806 -50 625 42 
Q 444 134 347 301 
Q 250 469 250 688 
Q 250 1144 701 1392 
Q 1153 1641 2056 1681 
L 2056 1884 
Q 2056 2209 1993 2396 
Q 1931 2584 1797 2671 
Q 1663 2759 1438 2759 
Q 1194 2759 1045 2631 
Q 897 2503 822 2247 
L 413 2247 
L 413 2653 
Q 713 2809 913 2882 
Q 1113 2956 1313 2998 
Q 1513 3041 1719 3041 
Q 2028 3041 2215 2942 
Q 2403 2844 2497 2641 
Q 2591 2438 2591 2028 
L 2591 941 
Q 2591 709 2594 614 
Q 2597 519 2612 437 
Q 2628 356 2659 307 
Q 2691 259 2752 225 
Q 2813 191 2950 153 
L 2950 0 
L 2094 0 
L 2109 447 
z
M 2056 1425 
Q 1422 1419 1106 1256 
Q 791 1094 791 766 
Q 791 588 862 484 
Q 934 381 1043 342 
Q 1153 303 1303 303 
Q 1516 303 1689 406 
Q 1863 509 1959 668 
Q 2056 828 2056 984 
L 2056 1425 
z
" transform="scale(0.015625)"/>
       <path id="Cambria-9b" d="M 1625 -256 
Q 1453 -644 1290 -884 
Q 1128 -1125 933 -1247 
Q 738 -1369 469 -1369 
Q 297 -1369 81 -1328 
L 81 -709 
L 359 -709 
Q 397 -838 453 -888 
Q 509 -938 616 -938 
Q 709 -938 782 -902 
Q 856 -866 936 -778 
Q 1016 -691 1123 -509 
Q 1231 -328 1366 -50 
L 491 2303 
Q 406 2531 354 2622 
Q 303 2713 243 2759 
Q 184 2806 63 2834 
L 63 2988 
L 1334 2988 
L 1334 2834 
Q 1188 2800 1128 2767 
Q 1069 2734 1041 2682 
Q 1013 2631 1013 2550 
Q 1013 2466 1033 2375 
Q 1053 2284 1097 2163 
L 1653 597 
L 2278 2097 
Q 2331 2222 2361 2326 
Q 2391 2431 2391 2522 
Q 2391 2656 2317 2725 
Q 2244 2794 2063 2834 
L 2063 2988 
L 3231 2988 
L 3231 2834 
Q 3109 2809 3043 2757 
Q 2978 2706 2912 2595 
Q 2847 2484 2756 2284 
L 1625 -256 
z
" transform="scale(0.015625)"/>
      </defs>
      <use xlink:href="#Cmmi10-34" transform="translate(0 0.125)"/>
      <use xlink:href="#Cambria-1e6" transform="translate(75.78125 0.125)"/>
      <use xlink:href="#Cambria-95" transform="translate(108.984375 0.125)"/>
      <use xlink:href="#Cambria-8f" transform="translate(151.953125 0.125)"/>
      <use xlink:href="#Cambria-91" transform="translate(235.15625 0.125)"/>
      <use xlink:href="#Cambria-91" transform="translate(288.232422 0.125)"/>
      <use xlink:href="#Cambria-96" transform="translate(341.308594 0.125)"/>
      <use xlink:href="#Cambria-8a" transform="translate(375.146484 0.125)"/>
      <use xlink:href="#Cambria-3" transform="translate(430.322266 0.125)"/>
      <use xlink:href="#Cambria-95" transform="translate(452.34375 0.125)"/>
      <use xlink:href="#Cambria-97" transform="translate(495.3125 0.125)"/>
      <use xlink:href="#Cambria-85" transform="translate(550.537109 0.125)"/>
      <use xlink:href="#Cambria-85" transform="translate(594.628906 0.125)"/>
      <use xlink:href="#Cambria-87" transform="translate(638.720703 0.125)"/>
      <use xlink:href="#Cambria-95" transform="translate(687.5 0.125)"/>
      <use xlink:href="#Cambria-95" transform="translate(730.46875 0.125)"/>
      <use xlink:href="#Cambria-3" transform="translate(773.4375 0.125)"/>
      <use xlink:href="#Cambria-92" transform="translate(795.458984 0.125)"/>
      <use xlink:href="#Cambria-94" transform="translate(851.074219 0.125)"/>
      <use xlink:href="#Cambria-91" transform="translate(892.431641 0.125)"/>
      <use xlink:href="#Cambria-84" transform="translate(945.507812 0.125)"/>
      <use xlink:href="#Cambria-83" transform="translate(1000.244141 0.125)"/>
      <use xlink:href="#Cambria-84" transform="translate(1049.072266 0.125)"/>
      <use xlink:href="#Cambria-8b" transform="translate(1103.808594 0.125)"/>
      <use xlink:href="#Cambria-8e" transform="translate(1131.591797 0.125)"/>
      <use xlink:href="#Cambria-8b" transform="translate(1158.740234 0.125)"/>
      <use xlink:href="#Cambria-96" transform="translate(1186.523438 0.125)"/>
      <use xlink:href="#Cambria-9b" transform="translate(1220.361328 0.125)"/>
     </g>
    </g>
   </g>
   <g id="LineCollection_1">
    <path d="M 68.018001 54.362362 
L 68.018001 49.258164 
" clip-path="url(#p8154aa85aa)" style="fill: none; stroke: #2a78d6; stroke-width: 1.8"/>
    <path d="M 116.669431 69.081727 
L 116.669431 61.600086 
" clip-path="url(#p8154aa85aa)" style="fill: none; stroke: #2a78d6; stroke-width: 1.8"/>
    <path d="M 165.320862 86.691988 
L 165.320862 76.050869 
" clip-path="url(#p8154aa85aa)" style="fill: none; stroke: #2a78d6; stroke-width: 1.8"/>
    <path d="M 213.972293 99.521881 
L 213.972293 86.223567 
" clip-path="url(#p8154aa85aa)" style="fill: none; stroke: #2a78d6; stroke-width: 1.8"/>
    <path d="M 262.623723 131.404305 
L 262.623723 109.699836 
" clip-path="url(#p8154aa85aa)" style="fill: none; stroke: #2a78d6; stroke-width: 1.8"/>
    <path d="M 311.275154 143.361756 
L 311.275154 117.698417 
" clip-path="url(#p8154aa85aa)" style="fill: none; stroke: #2a78d6; stroke-width: 1.8"/>
    <path d="M 359.926584 158.833651 
L 359.926584 127.295115 
" clip-path="url(#p8154aa85aa)" style="fill: none; stroke: #2a78d6; stroke-width: 1.8"/>
    <path d="M 408.578015 210.831734 
L 408.578015 152.751305 
" clip-path="url(#p8154aa85aa)" style="fill: none; stroke: #2a78d6; stroke-width: 1.8"/>
   </g>
   <g id="line2d_42">
    <defs>
     <path id="m2d46c57aa6" d="M 2.5 0 
L -2.5 -0 
" style="stroke: #2a78d6"/>
    </defs>
    <g clip-path="url(#p8154aa85aa)">
     <use xlink:href="#m2d46c57aa6" x="68.018001" y="54.362362" style="fill: #2a78d6; stroke: #2a78d6"/>
     <use xlink:href="#m2d46c57aa6" x="116.669431" y="69.081727" style="fill: #2a78d6; stroke: #2a78d6"/>
     <use xlink:href="#m2d46c57aa6" x="165.320862" y="86.691988" style="fill: #2a78d6; stroke: #2a78d6"/>
     <use xlink:href="#m2d46c57aa6" x="213.972293" y="99.521881" style="fill: #2a78d6; stroke: #2a78d6"/>
     <use xlink:href="#m2d46c57aa6" x="262.623723" y="131.404305" style="fill: #2a78d6; stroke: #2a78d6"/>
     <use xlink:href="#m2d46c57aa6" x="311.275154" y="143.361756" style="fill: #2a78d6; stroke: #2a78d6"/>
     <use xlink:href="#m2d46c57aa6" x="359.926584" y="158.833651" style="fill: #2a78d6; stroke: #2a78d6"/>
     <use xlink:href="#m2d46c57aa6" x="408.578015" y="210.831734" style="fill: #2a78d6; stroke: #2a78d6"/>
    </g>
   </g>
   <g id="line2d_43">
    <g clip-path="url(#p8154aa85aa)">
     <use xlink:href="#m2d46c57aa6" x="68.018001" y="49.258164" style="fill: #2a78d6; stroke: #2a78d6"/>
     <use xlink:href="#m2d46c57aa6" x="116.669431" y="61.600086" style="fill: #2a78d6; stroke: #2a78d6"/>
     <use xlink:href="#m2d46c57aa6" x="165.320862" y="76.050869" style="fill: #2a78d6; stroke: #2a78d6"/>
     <use xlink:href="#m2d46c57aa6" x="213.972293" y="86.223567" style="fill: #2a78d6; stroke: #2a78d6"/>
     <use xlink:href="#m2d46c57aa6" x="262.623723" y="109.699836" style="fill: #2a78d6; stroke: #2a78d6"/>
     <use xlink:href="#m2d46c57aa6" x="311.275154" y="117.698417" style="fill: #2a78d6; stroke: #2a78d6"/>
     <use xlink:href="#m2d46c57aa6" x="359.926584" y="127.295115" style="fill: #2a78d6; stroke: #2a78d6"/>
     <use xlink:href="#m2d46c57aa6" x="408.578015" y="152.751305" style="fill: #2a78d6; stroke: #2a78d6"/>
    </g>
   </g>
   <g id="line2d_44">
    <path d="M 68.018001 57.957098 
L 116.669431 72.63406 
L 165.320862 89.156983 
L 213.972293 106.06807 
L 262.623723 124.035522 
L 311.275154 142.716716 
L 359.926584 162.123016 
L 408.578015 182.384027 
" clip-path="url(#p8154aa85aa)" style="fill: none; stroke-dasharray: 5.18,2.24; stroke-dashoffset: 0; stroke: #2a78d6; stroke-width: 1.4"/>
   </g>
   <g id="line2d_45">
    <path d="M 68.018001 54.037412 
L 116.669431 68.189054 
L 165.320862 84.421485 
L 213.972293 101.358983 
L 262.623723 119.395002 
L 311.275154 138.186817 
L 359.926584 157.436761 
L 408.578015 177.182569 
" clip-path="url(#p8154aa85aa)" style="fill: none; stroke-dasharray: 1.1,1.815; stroke-dashoffset: 0; stroke: #2a78d6; stroke-opacity: 0.7; stroke-width: 1.1"/>
   </g>
   <g id="LineCollection_2">
    <path d="M 68.018001 35.93891 
L 68.018001 34.146098 
" clip-path="url(#p8154aa85aa)" style="fill: none; stroke: #eb6834; stroke-width: 1.8"/>
    <path d="M 116.669431 42.954289 
L 116.669431 39.731563 
" clip-path="url(#p8154aa85aa)" style="fill: none; stroke: #eb6834; stroke-width: 1.8"/>
    <path d="M 165.320862 51.481143 
L 165.320862 46.836699 
" clip-path="url(#p8154aa85aa)" style="fill: none; stroke: #eb6834; stroke-width: 1.8"/>
    <path d="M 213.972293 59.062372 
L 213.972293 53.210718 
" clip-path="url(#p8154aa85aa)" style="fill: none; stroke: #eb6834; stroke-width: 1.8"/>
    <path d="M 262.623723 68.120904 
L 262.623723 60.799343 
" clip-path="url(#p8154aa85aa)" style="fill: none; stroke: #eb6834; stroke-width: 1.8"/>
    <path d="M 311.275154 81.193485 
L 311.275154 71.591459 
" clip-path="url(#p8154aa85aa)" style="fill: none; stroke: #eb6834; stroke-width: 1.8"/>
    <path d="M 359.926584 88.748882 
L 359.926584 77.704695 
" clip-path="url(#p8154aa85aa)" style="fill: none; stroke: #eb6834; stroke-width: 1.8"/>
    <path d="M 408.578015 110.428594 
L 408.578015 94.571942 
" clip-path="url(#p8154aa85aa)" style="fill: none; stroke: #eb6834; stroke-width: 1.8"/>
   </g>
   <g id="line2d_46">
    <defs>
     <path id="m7cc132929b" d="M 2.5 0 
L -2.5 -0 
" style="stroke: #eb6834"/>
    </defs>
    <g clip-path="url(#p8154aa85aa)">
     <use xlink:href="#m7cc132929b" x="68.018001" y="35.93891" style="fill: #eb6834; stroke: #eb6834"/>
     <use xlink:href="#m7cc132929b" x="116.669431" y="42.954289" style="fill: #eb6834; stroke: #eb6834"/>
     <use xlink:href="#m7cc132929b" x="165.320862" y="51.481143" style="fill: #eb6834; stroke: #eb6834"/>
     <use xlink:href="#m7cc132929b" x="213.972293" y="59.062372" style="fill: #eb6834; stroke: #eb6834"/>
     <use xlink:href="#m7cc132929b" x="262.623723" y="68.120904" style="fill: #eb6834; stroke: #eb6834"/>
     <use xlink:href="#m7cc132929b" x="311.275154" y="81.193485" style="fill: #eb6834; stroke: #eb6834"/>
     <use xlink:href="#m7cc132929b" x="359.926584" y="88.748882" style="fill: #eb6834; stroke: #eb6834"/>
     <use xlink:href="#m7cc132929b" x="408.578015" y="110.428594" style="fill: #eb6834; stroke: #eb6834"/>
    </g>
   </g>
   <g id="line2d_47">
    <g clip-path="url(#p8154aa85aa)">
     <use xlink:href="#m7cc132929b" x="68.018001" y="34.146098" style="fill: #eb6834; stroke: #eb6834"/>
     <use xlink:href="#m7cc132929b" x="116.669431" y="39.731563" style="fill: #eb6834; stroke: #eb6834"/>
     <use xlink:href="#m7cc132929b" x="165.320862" y="46.836699" style="fill: #eb6834; stroke: #eb6834"/>
     <use xlink:href="#m7cc132929b" x="213.972293" y="53.210718" style="fill: #eb6834; stroke: #eb6834"/>
     <use xlink:href="#m7cc132929b" x="262.623723" y="60.799343" style="fill: #eb6834; stroke: #eb6834"/>
     <use xlink:href="#m7cc132929b" x="311.275154" y="71.591459" style="fill: #eb6834; stroke: #eb6834"/>
     <use xlink:href="#m7cc132929b" x="359.926584" y="77.704695" style="fill: #eb6834; stroke: #eb6834"/>
     <use xlink:href="#m7cc132929b" x="408.578015" y="94.571942" style="fill: #eb6834; stroke: #eb6834"/>
    </g>
   </g>
   <g id="line2d_48">
    <path d="M 68.018001 38.130156 
L 116.669431 44.445102 
L 165.320862 51.687179 
L 213.972293 59.324119 
L 262.623723 68.11282 
L 311.275154 77.875285 
L 359.926584 87.765374 
L 408.578015 97.961497 
" clip-path="url(#p8154aa85aa)" style="fill: none; stroke-dasharray: 5.18,2.24; stroke-dashoffset: 0; stroke: #eb6834; stroke-width: 1.4"/>
   </g>
   <g id="line2d_49">
    <path d="M 68.018001 35.264036 
L 116.669431 42.16638 
L 165.320862 49.241462 
L 213.972293 56.82137 
L 262.623723 65.336693 
L 311.275154 74.96914 
L 359.926584 84.814153 
L 408.578015 94.936803 
" clip-path="url(#p8154aa85aa)" style="fill: none; stroke-dasharray: 1.1,1.815; stroke-dashoffset: 0; stroke: #eb6834; stroke-opacity: 0.7; stroke-width: 1.1"/>
   </g>
   <g id="line2d_50">
    <path d="M 68.018001 51.694727 
L 116.669431 65.22537 
L 165.320862 81.255892 
L 213.972293 92.757188 
L 262.623723 120.436534 
L 311.275154 130.41455 
L 359.926584 142.948847 
L 408.578015 181.675983 
" clip-path="url(#p8154aa85aa)" style="fill: none; stroke: #2a78d6; stroke-width: 1.8; stroke-linecap: square"/>
    <defs>
     <path id="mabb5686509" d="M 0 2.25 
C 0.596707 2.25 1.169055 2.012926 1.59099 1.59099 
C 2.012926 1.169055 2.25 0.596707 2.25 0 
C 2.25 -0.596707 2.012926 -1.169055 1.59099 -1.59099 
C 1.169055 -2.012926 0.596707 -2.25 0 -2.25 
C -0.596707 -2.25 -1.169055 -2.012926 -1.59099 -1.59099 
C -2.012926 -1.169055 -2.25 -0.596707 -2.25 0 
C -2.25 0.596707 -2.012926 1.169055 -1.59099 1.59099 
C -1.169055 2.012926 -0.596707 2.25 0 2.25 
z
" style="stroke: #2a78d6"/>
    </defs>
    <g clip-path="url(#p8154aa85aa)">
     <use xlink:href="#mabb5686509" x="68.018001" y="51.694727" style="fill: #2a78d6; stroke: #2a78d6"/>
     <use xlink:href="#mabb5686509" x="116.669431" y="65.22537" style="fill: #2a78d6; stroke: #2a78d6"/>
     <use xlink:href="#mabb5686509" x="165.320862" y="81.255892" style="fill: #2a78d6; stroke: #2a78d6"/>
     <use xlink:href="#mabb5686509" x="213.972293" y="92.757188" style="fill: #2a78d6; stroke: #2a78d6"/>
     <use xlink:href="#mabb5686509" x="262.623723" y="120.436534" style="fill: #2a78d6; stroke: #2a78d6"/>
     <use xlink:href="#mabb5686509" x="311.275154" y="130.41455" style="fill: #2a78d6; stroke: #2a78d6"/>
     <use xlink:href="#mabb5686509" x="359.926584" y="142.948847" style="fill: #2a78d6; stroke: #2a78d6"/>
     <use xlink:href="#mabb5686509" x="408.578015" y="181.675983" style="fill: #2a78d6; stroke: #2a78d6"/>
    </g>
   </g>
   <g id="line2d_51">
    <path d="M 68.018001 34.926968 
L 116.669431 41.22739 
L 165.320862 49.043384 
L 213.972293 56.021008 
L 262.623723 64.344587 
L 311.275154 76.276935 
L 359.926584 83.111252 
L 408.578015 102.384732 
" clip-path="url(#p8154aa85aa)" style="fill: none; stroke: #eb6834; stroke-width: 1.8; stroke-linecap: square"/>
    <defs>
     <path id="m96ef7d544a" d="M 0 2.25 
C 0.596707 2.25 1.169055 2.012926 1.59099 1.59099 
C 2.012926 1.169055 2.25 0.596707 2.25 0 
C 2.25 -0.596707 2.012926 -1.169055 1.59099 -1.59099 
C 1.169055 -2.012926 0.596707 -2.25 0 -2.25 
C -0.596707 -2.25 -1.169055 -2.012926 -1.59099 -1.59099 
C -2.012926 -1.169055 -2.25 -0.596707 -2.25 0 
C -2.25 0.596707 -2.012926 1.169055 -1.59099 1.59099 
C -1.169055 2.012926 -0.596707 2.25 0 2.25 
z
" style="stroke: #eb6834"/>
    </defs>
    <g clip-path="url(#p8154aa85aa)">
     <use xlink:href="#m96ef7d544a" x="68.018001" y="34.926968" style="fill: #eb6834; stroke: #eb6834"/>
     <use xlink:href="#m96ef7d544a" x="116.669431" y="41.22739" style="fill: #eb6834; stroke: #eb6834"/>
     <use xlink:href="#m96ef7d544a" x="165.320862" y="49.043384" style="fill: #eb6834; stroke: #eb6834"/>
     <use xlink:href="#m96ef7d544a" x="213.972293" y="56.021008" style="fill: #eb6834; stroke: #eb6834"/>
     <use xlink:href="#m96ef7d544a" x="262.623723" y="64.344587" style="fill: #eb6834; stroke: #eb6834"/>
     <use xlink:href="#m96ef7d544a" x="311.275154" y="76.276935" style="fill: #eb6834; stroke: #eb6834"/>
     <use xlink:href="#m96ef7d544a" x="359.926584" y="83.111252" style="fill: #eb6834; stroke: #eb6834"/>
     <use xlink:href="#m96ef7d544a" x="408.578015" y="102.384732" style="fill: #eb6834; stroke: #eb6834"/>
    </g>
   </g>
   <g id="patch_3">
    <path d="M 50.99 219.666016 
L 50.99 25.311816 
" style="fill: none; stroke: #c3c2b7; stroke-width: 0.9; stroke-linejoin: miter; stroke-linecap: square"/>
   </g>
   <g id="patch_4">
    <path d="M 50.99 219.666016 
L 425.606016 219.666016 
" style="fill: none; stroke: #c3c2b7; stroke-width: 0.9; stroke-linejoin: miter; stroke-linecap: square"/>
   </g>
   <g id="text_12">
    <!-- Blind curve sampling vs the integer baseline -->
    <g style="fill: #0b0b0b" transform="translate(50.99 17.311816) scale(0.13 -0.13)">
     <defs>
      <path id="Cambria-5" d="M 378 0 
L 378 153 
Q 572 203 637 264 
Q 703 325 723 437 
Q 744 550 744 781 
L 744 3484 
Q 744 3700 728 3798 
Q 713 3897 677 3951 
Q 641 4006 581 4039 
Q 522 4072 378 4113 
L 378 4266 
L 2088 4266 
Q 2584 4266 2886 4159 
Q 3188 4053 3334 3845 
Q 3481 3638 3481 3309 
Q 3481 3038 3376 2838 
Q 3272 2638 3103 2506 
Q 2934 2375 2669 2263 
L 2669 2234 
Q 3094 2106 3312 1839 
Q 3531 1572 3531 1203 
Q 3531 778 3342 509 
Q 3153 241 2812 120 
Q 2472 0 1988 0 
L 378 0 
z
M 1875 2353 
Q 2350 2353 2601 2583 
Q 2853 2813 2853 3250 
Q 2853 3466 2783 3608 
Q 2713 3750 2589 3834 
Q 2466 3919 2297 3955 
Q 2128 3991 1931 3991 
Q 1813 3991 1619 3984 
Q 1425 3978 1328 3972 
L 1328 2353 
L 1875 2353 
z
M 1328 297 
Q 1556 275 1838 275 
Q 2247 275 2473 378 
Q 2700 481 2801 682 
Q 2903 884 2903 1188 
Q 2903 1491 2792 1687 
Q 2681 1884 2450 1981 
Q 2219 2078 1813 2078 
L 1328 2078 
L 1328 297 
z
" transform="scale(0.015625)"/>
      <path id="Cambria-86" d="M 2413 3397 
Q 2413 3697 2408 3815 
Q 2403 3934 2383 4017 
Q 2363 4100 2327 4147 
Q 2291 4194 2230 4222 
Q 2169 4250 2009 4278 
L 2009 4441 
L 2766 4472 
L 2950 4472 
L 2950 853 
Q 2950 609 2959 504 
Q 2969 400 3000 337 
Q 3031 275 3098 236 
Q 3166 197 3334 163 
L 3334 0 
L 2597 -31 
L 2409 -31 
L 2447 481 
L 2400 494 
Q 2203 284 2058 179 
Q 1913 75 1748 12 
Q 1584 -50 1397 -50 
Q 884 -50 606 339 
Q 328 728 328 1463 
Q 328 1975 509 2333 
Q 691 2691 998 2866 
Q 1306 3041 1691 3041 
Q 1897 3041 2065 3008 
Q 2234 2975 2413 2900 
L 2413 3397 
z
M 2413 1853 
Q 2413 2097 2391 2244 
Q 2369 2391 2317 2491 
Q 2266 2591 2178 2659 
Q 2091 2728 1986 2759 
Q 1881 2791 1734 2791 
Q 1334 2791 1125 2470 
Q 916 2150 916 1550 
Q 916 950 1087 637 
Q 1259 325 1609 325 
Q 1747 325 1837 348 
Q 1928 372 2015 423 
Q 2103 475 2193 565 
Q 2284 656 2326 731 
Q 2369 806 2391 903 
Q 2413 1000 2413 1153 
L 2413 1853 
z
" transform="scale(0.015625)"/>
      <path id="Cambria-98" d="M 1334 2988 
L 1334 2834 
Q 1191 2800 1131 2769 
Q 1072 2738 1042 2688 
Q 1013 2638 1013 2553 
Q 1013 2469 1033 2376 
Q 1053 2284 1097 2163 
L 1641 581 
L 2278 2097 
Q 2341 2247 2366 2344 
Q 2391 2441 2391 2525 
Q 2391 2656 2320 2725 
Q 2250 2794 2063 2834 
L 2063 2988 
L 3231 2988 
L 3231 2834 
Q 3109 2809 3043 2757 
Q 2978 2706 2912 2595 
Q 2847 2484 2756 2284 
L 1703 -31 
L 1334 -31 
L 488 2303 
Q 400 2544 348 2633 
Q 297 2722 236 2765 
Q 175 2809 59 2834 
L 59 2988 
L 1334 2988 
z
" transform="scale(0.015625)"/>
     </defs>
     <use xlink:href="#Cambria-5"/>
     <use xlink:href="#Cambria-8e" transform="translate(61.140625 0)"/>
     <use xlink:href="#Cambria-8b" transform="translate(88.296875 0)"/>
     <use xlink:href="#Cambria-90" transform="translate(116.078125 0)"/>
     <use xlink:href="#Cambria-86" transform="translate(171.890625 0)"/>
     <use xlink:href="#Cambria-3" transform="translate(227.359375 0)"/>
     <use xlink:href="#Cambria-85" transform="translate(249.375 0)"/>
     <use xlink:href="#Cambria-97" transform="translate(293.46875 0)"/>
     <use xlink:href="#Cambria-94" transform="translate(348.6875 0)"/>
     <use xlink:href="#Cambria-98" transform="translate(390.046875 0)"/>
     <use xlink:href="#Cambria-87" transform="translate(438.484375 0)"/>
     <use xlink:href="#Cambria-3" transform="translate(487.265625 0)"/>
     <use xlink:href="#Cambria-95" transform="translate(509.28125 0)"/>
     <use xlink:href="#Cambria-83" transform="translate(552.25 0)"/>
     <use xlink:href="#Cambria-8f" transform="translate(601.078125 0)"/>
     <use xlink:href="#Cambria-92" transform="translate(684.28125 0)"/>
     <use xlink:href="#Cambria-8e" transform="translate(739.890625 0)"/>
     <use xlink:href="#Cambria-8b" transform="translate(767.046875 0)"/>
     <use xlink:href="#Cambria-90" transform="translate(794.828125 0)"/>
     <use xlink:href="#Cambria-89" transform="translate(850.640625 0)"/>
     <use xlink:href="#Cambria-3" transform="translate(900.0625 0)"/>
     <use xlink:href="#Cambria-98" transform="translate(922.078125 0)"/>
     <use xlink:href="#Cambria-95" transform="translate(971.390625 0)"/>
     <use xlink:href="#Cambria-3" transform="translate(1014.359375 0)"/>
     <use xlink:href="#Cambria-96" transform="translate(1036.375 0)"/>
     <use xlink:href="#Cambria-8a" transform="translate(1070.21875 0)"/>
     <use xlink:href="#Cambria-87" transform="translate(1125.390625 0)"/>
     <use xlink:href="#Cambria-3" transform="translate(1174.171875 0)"/>
     <use xlink:href="#Cambria-8b" transform="translate(1196.1875 0)"/>
     <use xlink:href="#Cambria-90" transform="translate(1223.96875 0)"/>
     <use xlink:href="#Cambria-96" transform="translate(1279.78125 0)"/>
     <use xlink:href="#Cambria-87" transform="translate(1312.75 0)"/>
     <use xlink:href="#Cambria-89" transform="translate(1361.53125 0)"/>
     <use xlink:href="#Cambria-87" transform="translate(1410.953125 0)"/>
     <use xlink:href="#Cambria-94" transform="translate(1459.734375 0)"/>
     <use xlink:href="#Cambria-3" transform="translate(1501.09375 0)"/>
     <use xlink:href="#Cambria-84" transform="translate(1523.109375 0)"/>
     <use xlink:href="#Cambria-83" transform="translate(1577.84375 0)"/>
     <use xlink:href="#Cambria-95" transform="translate(1626.671875 0)"/>
     <use xlink:href="#Cambria-87" transform="translate(1669.640625 0)"/>
     <use xlink:href="#Cambria-8e" transform="translate(1718.421875 0)"/>
     <use xlink:href="#Cambria-8b" transform="translate(1745.578125 0)"/>
     <use xlink:href="#Cambria-90" transform="translate(1773.359375 0)"/>
     <use xlink:href="#Cambria-87" transform="translate(1829.171875 0)"/>
    </g>
   </g>
   <g id="legend_1">
    <g id="line2d_52">
     <path d="M 58.73 165.669438 
L 67.33 165.669438 
L 75.93 165.669438 
" style="fill: none; stroke-dasharray: 5.18,2.24; stroke-dashoffset: 0; stroke: #2a78d6; stroke-width: 1.4"/>
    </g>
    <g id="text_13">
     <!-- exact interval rate, $B=L^2$ -->
     <g transform="translate(82.81 168.679438) scale(0.086 -0.086)">
      <defs>
       <path id="Cambria-9a" d="M 1625 1803 
L 2031 2319 
Q 2097 2403 2137 2483 
Q 2178 2563 2178 2647 
Q 2178 2719 2125 2766 
Q 2072 2813 1959 2834 
L 1959 2988 
L 2981 2988 
L 2981 2834 
Q 2863 2800 2739 2700 
Q 2616 2600 2438 2378 
L 1791 1584 
L 2503 625 
Q 2656 419 2778 309 
Q 2900 200 3022 153 
L 3022 0 
L 1766 0 
L 1766 153 
Q 2025 184 2025 347 
Q 2025 413 2003 472 
Q 1981 531 1922 609 
L 1469 1241 
L 988 616 
Q 934 547 904 489 
Q 875 431 875 359 
Q 875 275 933 220 
Q 991 166 1116 153 
L 1116 0 
L 72 0 
L 72 153 
Q 175 191 258 247 
Q 341 303 427 392 
Q 513 481 653 653 
L 1303 1459 
L 638 2372 
Q 500 2559 419 2643 
Q 338 2728 269 2772 
Q 200 2816 131 2834 
L 131 2988 
L 1356 2988 
L 1356 2834 
Q 1109 2797 1109 2641 
Q 1109 2569 1142 2497 
Q 1175 2425 1244 2338 
L 1625 1803 
z
" transform="scale(0.015625)"/>
       <path id="Cambria-1e1" d="M 966 725 
Q 1009 506 1009 294 
Q 1009 75 934 -106 
Q 859 -288 695 -467 
Q 531 -647 244 -863 
L 75 -672 
Q 234 -522 306 -401 
Q 378 -281 409 -128 
Q 441 25 441 256 
Q 441 494 419 725 
L 966 725 
z
" transform="scale(0.015625)"/>
       <path id="Cmr10-29" d="M 481 850 
Q 428 850 393 890 
Q 359 931 359 978 
Q 359 1031 393 1068 
Q 428 1106 481 1106 
L 4500 1106 
Q 4547 1106 4581 1068 
Q 4616 1031 4616 978 
Q 4616 931 4581 890 
Q 4547 850 4500 850 
L 481 850 
z
M 481 2094 
Q 428 2094 393 2131 
Q 359 2169 359 2222 
Q 359 2269 393 2309 
Q 428 2350 481 2350 
L 4500 2350 
Q 4547 2350 4581 2309 
Q 4616 2269 4616 2222 
Q 4616 2169 4581 2131 
Q 4547 2094 4500 2094 
L 481 2094 
z
" transform="scale(0.015625)"/>
       <path id="Cmmi10-55" d="M 300 0 
Q 238 0 238 84 
Q 241 100 250 139 
Q 259 178 276 201 
Q 294 225 319 225 
Q 709 225 863 269 
Q 947 297 984 441 
L 1863 3956 
Q 1875 4019 1875 4044 
Q 1875 4113 1797 4122 
Q 1678 4147 1338 4147 
Q 1275 4147 1275 4231 
Q 1297 4313 1309 4342 
Q 1322 4372 1381 4372 
L 3272 4372 
Q 3328 4372 3328 4288 
Q 3319 4222 3306 4184 
Q 3294 4147 3244 4147 
Q 2772 4147 2613 4116 
Q 2456 4088 2419 3928 
L 1544 416 
Q 1516 338 1516 275 
Q 1516 225 1734 225 
L 2328 225 
Q 2831 225 3143 425 
Q 3456 625 3606 876 
Q 3756 1128 3857 1398 
Q 3959 1669 4006 1678 
L 4063 1678 
Q 4128 1678 4128 1594 
L 3559 44 
Q 3550 0 3500 0 
L 300 0 
z
" transform="scale(0.015625)"/>
       <path id="Cmr10-31" d="M 319 0 
L 319 172 
Q 319 188 331 206 
L 1325 1306 
Q 1550 1550 1690 1715 
Q 1831 1881 1968 2097 
Q 2106 2313 2186 2536 
Q 2266 2759 2266 3009 
Q 2266 3272 2169 3511 
Q 2072 3750 1880 3894 
Q 1688 4038 1416 4038 
Q 1138 4038 916 3870 
Q 694 3703 603 3438 
Q 628 3444 672 3444 
Q 816 3444 917 3347 
Q 1019 3250 1019 3097 
Q 1019 2950 917 2848 
Q 816 2747 672 2747 
Q 522 2747 420 2851 
Q 319 2956 319 3097 
Q 319 3338 409 3548 
Q 500 3759 670 3923 
Q 841 4088 1055 4175 
Q 1269 4263 1509 4263 
Q 1875 4263 2190 4108 
Q 2506 3953 2690 3670 
Q 2875 3388 2875 3009 
Q 2875 2731 2753 2481 
Q 2631 2231 2440 2026 
Q 2250 1822 1953 1562 
Q 1656 1303 1563 1216 
L 838 519 
L 1453 519 
Q 1906 519 2211 526 
Q 2516 534 2534 550 
Q 2609 631 2688 1141 
L 2875 1141 
L 2694 0 
L 319 0 
z
" transform="scale(0.015625)"/>
      </defs>
      <use xlink:href="#Cambria-87" transform="translate(0 0.084203)"/>
      <use xlink:href="#Cambria-9a" transform="translate(48.779297 0.084203)"/>
      <use xlink:href="#Cambria-83" transform="translate(97.119141 0.084203)"/>
      <use xlink:href="#Cambria-85" transform="translate(145.947266 0.084203)"/>
      <use xlink:href="#Cambria-96" transform="translate(190.039062 0.084203)"/>
      <use xlink:href="#Cambria-3" transform="translate(223.876953 0.084203)"/>
      <use xlink:href="#Cambria-8b" transform="translate(245.898438 0.084203)"/>
      <use xlink:href="#Cambria-90" transform="translate(273.681641 0.084203)"/>
      <use xlink:href="#Cambria-96" transform="translate(329.492188 0.084203)"/>
      <use xlink:href="#Cambria-87" transform="translate(363.330078 0.084203)"/>
      <use xlink:href="#Cambria-94" transform="translate(412.109375 0.084203)"/>
      <use xlink:href="#Cambria-98" transform="translate(453.466797 0.084203)"/>
      <use xlink:href="#Cambria-83" transform="translate(503.857422 0.084203)"/>
      <use xlink:href="#Cambria-8e" transform="translate(552.685547 0.084203)"/>
      <use xlink:href="#Cambria-3" transform="translate(579.833984 0.084203)"/>
      <use xlink:href="#Cambria-94" transform="translate(601.855469 0.084203)"/>
      <use xlink:href="#Cambria-83" transform="translate(643.212891 0.084203)"/>
      <use xlink:href="#Cambria-96" transform="translate(692.041016 0.084203)"/>
      <use xlink:href="#Cambria-87" transform="translate(725.878906 0.084203)"/>
      <use xlink:href="#Cambria-1e1" transform="translate(774.658203 0.084203)"/>
      <use xlink:href="#Cambria-3" transform="translate(795.166016 0.084203)"/>
      <use xlink:href="#Cmmi10-34" transform="translate(817.1875 0.084203)"/>
      <use xlink:href="#Cmr10-29" transform="translate(912.968807 0.084203)"/>
      <use xlink:href="#Cmmi10-55" transform="translate(1010.654411 0.084203)"/>
      <use xlink:href="#Cmr10-31" transform="translate(1094.998421 41.373437) scale(0.7)"/>
     </g>
    </g>
    <g id="line2d_53">
     <path d="M 58.73 179.448082 
L 67.33 179.448082 
L 75.93 179.448082 
" style="fill: none; stroke-dasharray: 5.18,2.24; stroke-dashoffset: 0; stroke: #eb6834; stroke-width: 1.4"/>
    </g>
    <g id="text_14">
     <!-- exact interval rate, $B=L^3$ -->
     <g transform="translate(82.81 182.458082) scale(0.086 -0.086)">
      <defs>
       <path id="Cmr10-6e" d="M 609 494 
Q 759 275 1012 169 
Q 1266 63 1556 63 
Q 1928 63 2084 380 
Q 2241 697 2241 1100 
Q 2241 1281 2208 1462 
Q 2175 1644 2097 1800 
Q 2019 1956 1883 2050 
Q 1747 2144 1550 2144 
L 1125 2144 
Q 1069 2144 1069 2203 
L 1069 2259 
Q 1069 2309 1125 2309 
L 1478 2338 
Q 1703 2338 1851 2506 
Q 2000 2675 2069 2917 
Q 2138 3159 2138 3378 
Q 2138 3684 1994 3881 
Q 1850 4078 1556 4078 
Q 1313 4078 1091 3986 
Q 869 3894 738 3706 
Q 750 3709 759 3711 
Q 769 3713 781 3713 
Q 925 3713 1022 3613 
Q 1119 3513 1119 3372 
Q 1119 3234 1022 3134 
Q 925 3034 781 3034 
Q 641 3034 541 3134 
Q 441 3234 441 3372 
Q 441 3647 606 3850 
Q 772 4053 1033 4158 
Q 1294 4263 1556 4263 
Q 1750 4263 1965 4205 
Q 2181 4147 2356 4039 
Q 2531 3931 2642 3762 
Q 2753 3594 2753 3378 
Q 2753 3109 2633 2881 
Q 2513 2653 2303 2487 
Q 2094 2322 1844 2241 
Q 2122 2188 2372 2031 
Q 2622 1875 2773 1631 
Q 2925 1388 2925 1106 
Q 2925 753 2731 467 
Q 2538 181 2222 20 
Q 1906 -141 1556 -141 
Q 1256 -141 954 -26 
Q 653 88 461 316 
Q 269 544 269 863 
Q 269 1022 375 1128 
Q 481 1234 641 1234 
Q 744 1234 830 1186 
Q 916 1138 964 1050 
Q 1013 963 1013 863 
Q 1013 706 903 600 
Q 794 494 641 494 
L 609 494 
z
" transform="scale(0.015625)"/>
      </defs>
      <use xlink:href="#Cambria-87" transform="translate(0 0.084203)"/>
      <use xlink:href="#Cambria-9a" transform="translate(48.779297 0.084203)"/>
      <use xlink:href="#Cambria-83" transform="translate(97.119141 0.084203)"/>
      <use xlink:href="#Cambria-85" transform="translate(145.947266 0.084203)"/>
      <use xlink:href="#Cambria-96" transform="translate(190.039062 0.084203)"/>
      <use xlink:href="#Cambria-3" transform="translate(223.876953 0.084203)"/>
      <use xlink:href="#Cambria-8b" transform="translate(245.898438 0.084203)"/>
      <use xlink:href="#Cambria-90" transform="translate(273.681641 0.084203)"/>
      <use xlink:href="#Cambria-96" transform="translate(329.492188 0.084203)"/>
      <use xlink:href="#Cambria-87" transform="translate(363.330078 0.084203)"/>
      <use xlink:href="#Cambria-94" transform="translate(412.109375 0.084203)"/>
      <use xlink:href="#Cambria-98" transform="translate(453.466797 0.084203)"/>
      <use xlink:href="#Cambria-83" transform="translate(503.857422 0.084203)"/>
      <use xlink:href="#Cambria-8e" transform="translate(552.685547 0.084203)"/>
      <use xlink:href="#Cambria-3" transform="translate(579.833984 0.084203)"/>
      <use xlink:href="#Cambria-94" transform="translate(601.855469 0.084203)"/>
      <use xlink:href="#Cambria-83" transform="translate(643.212891 0.084203)"/>
      <use xlink:href="#Cambria-96" transform="translate(692.041016 0.084203)"/>
      <use xlink:href="#Cambria-87" transform="translate(725.878906 0.084203)"/>
      <use xlink:href="#Cambria-1e1" transform="translate(774.658203 0.084203)"/>
      <use xlink:href="#Cambria-3" transform="translate(795.166016 0.084203)"/>
      <use xlink:href="#Cmmi10-34" transform="translate(817.1875 0.084203)"/>
      <use xlink:href="#Cmr10-29" transform="translate(912.968807 0.084203)"/>
      <use xlink:href="#Cmmi10-55" transform="translate(1010.654411 0.084203)"/>
      <use xlink:href="#Cmr10-6e" transform="translate(1094.998421 41.373437) scale(0.7)"/>
     </g>
    </g>
    <g id="LineCollection_3">
     <path d="M 67.33 197.526727 
L 67.33 188.926727 
" style="fill: none; stroke: #2a78d6; stroke-width: 1.8"/>
    </g>
    <g id="line2d_54">
     <g>
      <use xlink:href="#m2d46c57aa6" x="67.33" y="197.526727" style="fill: #2a78d6; stroke: #2a78d6"/>
     </g>
    </g>
    <g id="line2d_55">
     <g>
      <use xlink:href="#m2d46c57aa6" x="67.33" y="188.926727" style="fill: #2a78d6; stroke: #2a78d6"/>
     </g>
    </g>
    <g id="line2d_56">
     <path d="M 58.73 193.226727 
L 75.93 193.226727 
" style="fill: none; stroke: #2a78d6; stroke-width: 1.8; stroke-linecap: square"/>
    </g>
    <g id="line2d_57">
     <g>
      <use xlink:href="#mabb5686509" x="67.33" y="193.226727" style="fill: #2a78d6; stroke: #2a78d6"/>
     </g>
    </g>
    <g id="text_15">
     <!-- curves, $B=L^2$ (Wilson 95%) -->
     <g transform="translate(82.81 196.236727) scale(0.086 -0.086)">
      <defs>
       <path id="Cambria-20b" d="M 2309 -1359 
Q 1778 -1359 1442 -1200 
Q 1106 -1041 918 -714 
Q 731 -388 647 134 
Q 563 656 563 1550 
Q 563 2438 645 2964 
Q 728 3491 915 3822 
Q 1103 4153 1440 4318 
Q 1778 4484 2309 4484 
L 2309 4228 
Q 2091 4228 1922 4191 
Q 1731 4147 1597 4022 
Q 1447 3884 1353 3638 
Q 1244 3350 1191 2875 
Q 1134 2372 1134 1575 
Q 1134 872 1181 379 
Q 1228 -113 1338 -425 
Q 1425 -688 1556 -834 
Q 1672 -963 1831 -1028 
Q 2016 -1103 2309 -1103 
L 2309 -1359 
z
" transform="scale(0.015625)"/>
       <path id="Cambria-1a" d="M 2941 3469 
L 1941 -22 
L 1434 -22 
L 525 3372 
Q 469 3584 422 3718 
Q 375 3853 328 3929 
Q 281 4006 226 4045 
Q 172 4084 69 4113 
L 69 4266 
L 1406 4266 
L 1406 4113 
Q 1213 4075 1136 4000 
Q 1059 3925 1059 3791 
Q 1059 3681 1087 3531 
Q 1116 3381 1166 3191 
L 1794 722 
L 2800 4266 
L 3325 4266 
L 4141 719 
L 4878 3103 
Q 5013 3538 5013 3722 
Q 5013 3913 4933 3997 
Q 4853 4081 4669 4113 
L 4669 4266 
L 5900 4266 
L 5900 4113 
Q 5806 4081 5750 4042 
Q 5694 4003 5642 3936 
Q 5591 3869 5530 3728 
Q 5469 3588 5388 3350 
L 4250 -22 
L 3803 -22 
L 2941 3469 
z
" transform="scale(0.015625)"/>
       <path id="Cambria-37b" d="M 978 122 
L 978 275 
Q 1416 275 1736 469 
Q 2056 663 2251 1042 
Q 2447 1422 2513 2038 
L 2481 2050 
Q 2219 1863 1964 1775 
Q 1709 1688 1413 1688 
Q 1059 1688 811 1842 
Q 563 1997 438 2276 
Q 313 2556 313 2931 
Q 313 3213 406 3464 
Q 500 3716 684 3905 
Q 869 4094 1145 4205 
Q 1422 4316 1791 4316 
Q 2447 4316 2790 3862 
Q 3134 3409 3134 2559 
Q 3134 1781 2881 1211 
Q 2628 641 2172 323 
Q 1716 6 1106 -50 
L 978 122 
z
M 1628 2016 
Q 1747 2016 1855 2036 
Q 1963 2056 2066 2095 
Q 2169 2134 2267 2195 
Q 2366 2256 2444 2325 
Q 2472 2350 2494 2390 
Q 2516 2431 2528 2497 
Q 2541 2563 2541 2703 
Q 2541 3131 2455 3436 
Q 2369 3741 2192 3895 
Q 2016 4050 1756 4050 
Q 1522 4050 1359 3969 
Q 1197 3888 1095 3745 
Q 994 3603 947 3411 
Q 900 3219 900 2994 
Q 900 2528 1090 2272 
Q 1281 2016 1628 2016 
z
" transform="scale(0.015625)"/>
       <path id="Cambria-3a8" d="M 1278 1616 
Q 800 1616 564 1947 
Q 328 2278 328 2944 
Q 328 3406 454 3714 
Q 581 4022 801 4169 
Q 1022 4316 1313 4316 
Q 1584 4316 1768 4219 
Q 1953 4122 2067 3948 
Q 2181 3775 2229 3533 
Q 2278 3291 2278 3000 
Q 2278 2316 2020 1966 
Q 1763 1616 1278 1616 
z
M 791 2997 
Q 791 2391 916 2116 
Q 1041 1841 1313 1841 
Q 1569 1841 1692 2097 
Q 1816 2353 1816 2916 
Q 1816 3516 1692 3803 
Q 1569 4091 1309 4091 
Q 1113 4091 998 3959 
Q 884 3828 837 3589 
Q 791 3350 791 2997 
z
M 4456 4266 
L 1700 -300 
L 1241 -300 
L 4003 4266 
L 4456 4266 
z
M 4366 -350 
Q 3888 -350 3652 -18 
Q 3416 313 3416 978 
Q 3416 1441 3542 1748 
Q 3669 2056 3889 2203 
Q 4109 2350 4400 2350 
Q 4672 2350 4856 2253 
Q 5041 2156 5155 1982 
Q 5269 1809 5317 1567 
Q 5366 1325 5366 1034 
Q 5366 350 5108 0 
Q 4850 -350 4366 -350 
z
M 3878 1031 
Q 3878 425 4003 150 
Q 4128 -125 4400 -125 
Q 4656 -125 4779 131 
Q 4903 388 4903 950 
Q 4903 1550 4779 1837 
Q 4656 2125 4397 2125 
Q 4200 2125 4086 1994 
Q 3972 1863 3925 1623 
Q 3878 1384 3878 1031 
z
" transform="scale(0.015625)"/>
       <path id="Cambria-20c" d="M 134 4484 
Q 666 4484 1002 4325 
Q 1338 4166 1525 3839 
Q 1713 3513 1797 2991 
Q 1881 2469 1881 1575 
Q 1881 688 1798 161 
Q 1716 -366 1528 -697 
Q 1341 -1028 1003 -1193 
Q 666 -1359 134 -1359 
L 134 -1103 
Q 353 -1103 522 -1066 
Q 713 -1022 847 -897 
Q 997 -759 1091 -513 
Q 1200 -225 1253 250 
Q 1309 753 1309 1550 
Q 1309 2253 1262 2745 
Q 1216 3238 1106 3550 
Q 1019 3813 888 3959 
Q 772 4088 613 4153 
Q 428 4228 134 4228 
L 134 4484 
z
" transform="scale(0.015625)"/>
      </defs>
      <use xlink:href="#Cambria-85" transform="translate(0 0.084203)"/>
      <use xlink:href="#Cambria-97" transform="translate(44.091797 0.084203)"/>
      <use xlink:href="#Cambria-94" transform="translate(99.316406 0.084203)"/>
      <use xlink:href="#Cambria-98" transform="translate(140.673828 0.084203)"/>
      <use xlink:href="#Cambria-87" transform="translate(191.064453 0.084203)"/>
      <use xlink:href="#Cambria-95" transform="translate(239.84375 0.084203)"/>
      <use xlink:href="#Cambria-1e1" transform="translate(282.8125 0.084203)"/>
      <use xlink:href="#Cambria-3" transform="translate(303.320312 0.084203)"/>
      <use xlink:href="#Cmmi10-34" transform="translate(325.341797 0.084203)"/>
      <use xlink:href="#Cmr10-29" transform="translate(421.123104 0.084203)"/>
      <use xlink:href="#Cmmi10-55" transform="translate(518.808708 0.084203)"/>
      <use xlink:href="#Cmr10-31" transform="translate(603.152718 41.373437) scale(0.7)"/>
      <use xlink:href="#Cambria-3" transform="translate(643.873134 0.084203)"/>
      <use xlink:href="#Cambria-20b" transform="translate(665.894618 0.084203)"/>
      <use xlink:href="#Cambria-1a" transform="translate(704.078212 0.084203)"/>
      <use xlink:href="#Cambria-8b" transform="translate(796.216884 0.084203)"/>
      <use xlink:href="#Cambria-8e" transform="translate(824.000087 0.084203)"/>
      <use xlink:href="#Cambria-95" transform="translate(851.148524 0.084203)"/>
      <use xlink:href="#Cambria-91" transform="translate(894.117274 0.084203)"/>
      <use xlink:href="#Cambria-90" transform="translate(947.193446 0.084203)"/>
      <use xlink:href="#Cambria-3" transform="translate(1003.003993 0.084203)"/>
      <use xlink:href="#Cambria-37b" transform="translate(1025.025477 0.084203)"/>
      <use xlink:href="#Cambria-377" transform="translate(1080.396571 0.084203)"/>
      <use xlink:href="#Cambria-3a8" transform="translate(1135.767665 0.084203)"/>
      <use xlink:href="#Cambria-20c" transform="translate(1224.732509 0.084203)"/>
     </g>
    </g>
    <g id="LineCollection_4">
     <path d="M 67.33 211.305371 
L 67.33 202.705371 
" style="fill: none; stroke: #eb6834; stroke-width: 1.8"/>
    </g>
    <g id="line2d_58">
     <g>
      <use xlink:href="#m7cc132929b" x="67.33" y="211.305371" style="fill: #eb6834; stroke: #eb6834"/>
     </g>
    </g>
    <g id="line2d_59">
     <g>
      <use xlink:href="#m7cc132929b" x="67.33" y="202.705371" style="fill: #eb6834; stroke: #eb6834"/>
     </g>
    </g>
    <g id="line2d_60">
     <path d="M 58.73 207.005371 
L 75.93 207.005371 
" style="fill: none; stroke: #eb6834; stroke-width: 1.8; stroke-linecap: square"/>
    </g>
    <g id="line2d_61">
     <g>
      <use xlink:href="#m96ef7d544a" x="67.33" y="207.005371" style="fill: #eb6834; stroke: #eb6834"/>
     </g>
    </g>
    <g id="text_16">
     <!-- curves, $B=L^3$ (Wilson 95%) -->
     <g transform="translate(82.81 210.015371) scale(0.086 -0.086)">
      <use xlink:href="#Cambria-85" transform="translate(0 0.084203)"/>
      <use xlink:href="#Cambria-97" transform="translate(44.091797 0.084203)"/>
      <use xlink:href="#Cambria-94" transform="translate(99.316406 0.084203)"/>
      <use xlink:href="#Cambria-98" transform="translate(140.673828 0.084203)"/>
      <use xlink:href="#Cambria-87" transform="translate(191.064453 0.084203)"/>
      <use xlink:href="#Cambria-95" transform="translate(239.84375 0.084203)"/>
      <use xlink:href="#Cambria-1e1" transform="translate(282.8125 0.084203)"/>
      <use xlink:href="#Cambria-3" transform="translate(303.320312 0.084203)"/>
      <use xlink:href="#Cmmi10-34" transform="translate(325.341797 0.084203)"/>
      <use xlink:href="#Cmr10-29" transform="translate(421.123104 0.084203)"/>
      <use xlink:href="#Cmmi10-55" transform="translate(518.808708 0.084203)"/>
      <use xlink:href="#Cmr10-6e" transform="translate(603.152718 41.373437) scale(0.7)"/>
      <use xlink:href="#Cambria-3" transform="translate(643.873134 0.084203)"/>
      <use xlink:href="#Cambria-20b" transform="translate(665.894618 0.084203)"/>
      <use xlink:href="#Cambria-1a" transform="translate(704.078212 0.084203)"/>
      <use xlink:href="#Cambria-8b" transform="translate(796.216884 0.084203)"/>
      <use xlink:href="#Cambria-8e" transform="translate(824.000087 0.084203)"/>
      <use xlink:href="#Cambria-95" transform="translate(851.148524 0.084203)"/>
      <use xlink:href="#Cambria-91" transform="translate(894.117274 0.084203)"/>
      <use xlink:href="#Cambria-90" transform="translate(947.193446 0.084203)"/>
      <use xlink:href="#Cambria-3" transform="translate(1003.003993 0.084203)"/>
      <use xlink:href="#Cambria-37b" transform="translate(1025.025477 0.084203)"/>
      <use xlink:href="#Cambria-377" transform="translate(1080.396571 0.084203)"/>
      <use xlink:href="#Cambria-3a8" transform="translate(1135.767665 0.084203)"/>
      <use xlink:href="#Cambria-20c" transform="translate(1224.732509 0.084203)"/>
     </g>
    </g>
   </g>
  </g>
 </g>
 <defs>
  <clipPath id="p8154aa85aa">
   <rect x="50.99" y="25.311816" width="374.616016" height="194.354199"/>
  </clipPath>
 </defs>
</svg>
