<?xml version="1.0" encoding="utf-8" standalone="no"?>
<!DOCTYPE svg PUBLIC "-//W3C//DTD SVG 1.1//EN"
  "http://www.w3.org/Graphics/SVG/1.1/DTD/svg11.dtd">
<svg xmlns:xlink="http://www.w3.org/1999/xlink" width="524.784342pt" height="224.126016pt" viewBox="0 0 524.784342 224.126016" xmlns="http://www.w3.org/2000/svg" version="1.1">
 <metadata>
  <rdf:RDF xmlns:dc="http://purl.org/dc/elements/1.1/" xmlns:cc="http://creativecommons.org/ns#" xmlns:rdf="http://www.w3.org/1999/02/22-rdf-syntax-ns#">
   <cc:Work>
    <dc:type rdf:resource="http://purl.org/dc/dcmitype/StillImage"/>
    <dc:date>2026-07-23T01:06:24.633919</dc:date>
    <dc:format>image/svg+xml</dc:format>
    <dc:creator>
     <cc:Agent>
      <dc:title>Matplotlib v3.11.1, https://matplotlib.org/</dc:title>
     </cc:Agent>
    </dc:creator>
   </cc:Work>
  </rdf:RDF>
 </metadata>
 <defs>
  <style type="text/css">*{stroke-linejoin: round; stroke-linecap: butt}</style>
 </defs>
 <g id="figure_1">
  <g id="patch_1">
   <path d="M 0 224.126016 
L 524.784342 224.126016 
L 524.784342 0 
L 0 0 
z
" style="fill: #fcfcfb"/>
  </g>
  <g id="axes_1">
   <g id="patch_2">
    <path d="M 54.683516 182.2 
L 259.49235 182.2 
L 259.49235 25.311816 
L 54.683516 25.311816 
z
" style="fill: #fcfcfb"/>
   </g>
   <g id="matplotlib.axis_1">
    <g id="xtick_1">
     <g id="line2d_1">
      <path d="M 60.193215 182.2 
L 60.193215 25.311816 
" clip-path="url(#p247097b155)" style="fill: none; stroke: #e1e0d9; stroke-width: 0.7; stroke-linecap: square"/>
     </g>
     <g id="line2d_2">
      <defs>
       <path id="m33db556d2f" d="M 0 0 
L 0 3.5 
" style="stroke: #898781; stroke-width: 0.8"/>
      </defs>
      <g>
       <use xlink:href="#m33db556d2f" x="60.193215" y="182.2" style="fill: #898781; stroke: #898781; stroke-width: 0.8"/>
      </g>
     </g>
     <g id="text_1">
      <!-- 0 -->
      <g style="fill: #52514e" transform="translate(57.286028 197.367236) scale(0.105 -0.105)">
       <defs>
        <path id="Cambria-372" d="M 1738 -50 
Q 1063 -50 733 481 
Q 403 1013 403 2094 
Q 403 2669 504 3087 
Q 606 3506 789 3779 
Q 972 4053 1228 4184 
Q 1484 4316 1788 4316 
Q 2472 4316 2806 3787 
Q 3141 3259 3141 2191 
Q 3141 1084 2783 517 
Q 2425 -50 1738 -50 
z
M 1013 2188 
Q 1013 1169 1202 692 
Q 1391 216 1788 216 
Q 2166 216 2348 664 
Q 2531 1113 2531 2053 
Q 2531 2772 2437 3217 
Q 2344 3663 2176 3856 
Q 2009 4050 1772 4050 
Q 1556 4050 1411 3922 
Q 1266 3794 1177 3553 
Q 1088 3313 1050 2967 
Q 1013 2622 1013 2188 
z
" transform="scale(0.015625)"/>
       </defs>
       <use xlink:href="#Cambria-372"/>
      </g>
     </g>
    </g>
    <g id="xtick_2">
     <g id="line2d_3">
      <path d="M 98.191144 182.2 
L 98.191144 25.311816 
" clip-path="url(#p247097b155)" style="fill: none; stroke: #e1e0d9; stroke-width: 0.7; stroke-linecap: square"/>
     </g>
     <g id="line2d_4">
      <g>
       <use xlink:href="#m33db556d2f" x="98.191144" y="182.2" style="fill: #898781; stroke: #898781; stroke-width: 0.8"/>
      </g>
     </g>
     <g id="text_2">
      <!-- 2 -->
      <g style="fill: #52514e" transform="translate(95.283956 197.367236) scale(0.105 -0.105)">
       <defs>
        <path id="Cambria-374" d="M 2194 500 
Q 2347 500 2440 519 
Q 2534 538 2590 581 
Q 2647 625 2680 695 
Q 2713 766 2763 913 
L 3028 913 
L 2975 0 
L 403 0 
L 403 150 
Q 538 478 766 822 
Q 994 1166 1413 1631 
Q 1775 2031 1934 2238 
Q 2109 2463 2195 2627 
Q 2281 2791 2318 2936 
Q 2356 3081 2356 3228 
Q 2356 3463 2281 3642 
Q 2206 3822 2051 3925 
Q 1897 4028 1663 4028 
Q 1078 4028 875 3378 
L 497 3378 
L 497 3978 
Q 875 4156 1204 4236 
Q 1534 4316 1797 4316 
Q 2378 4316 2675 4061 
Q 2972 3806 2972 3322 
Q 2972 3156 2939 3017 
Q 2906 2878 2836 2742 
Q 2766 2606 2647 2450 
Q 2528 2294 2384 2133 
Q 2241 1972 1888 1597 
Q 1294 969 1016 500 
L 2194 500 
z
" transform="scale(0.015625)"/>
       </defs>
       <use xlink:href="#Cambria-374"/>
      </g>
     </g>
    </g>
    <g id="xtick_3">
     <g id="line2d_5">
      <path d="M 136.189072 182.2 
L 136.189072 25.311816 
" clip-path="url(#p247097b155)" style="fill: none; stroke: #e1e0d9; stroke-width: 0.7; stroke-linecap: square"/>
     </g>
     <g id="line2d_6">
      <g>
       <use xlink:href="#m33db556d2f" x="136.189072" y="182.2" style="fill: #898781; stroke: #898781; stroke-width: 0.8"/>
      </g>
     </g>
     <g id="text_3">
      <!-- 4 -->
      <g style="fill: #52514e" transform="translate(133.281885 197.367236) scale(0.105 -0.105)">
       <defs>
        <path id="Cambria-376" d="M 1613 153 
Q 1806 203 1872 264 
Q 1938 325 1958 437 
Q 1978 550 1978 781 
L 1978 1294 
L 241 1294 
L 241 1528 
L 2069 4288 
L 2516 4288 
L 2516 1597 
L 2581 1597 
Q 2763 1597 2841 1623 
Q 2919 1650 2970 1717 
Q 3022 1784 3066 1938 
L 3303 1938 
L 3266 1294 
L 2516 1294 
L 2516 781 
Q 2516 572 2530 475 
Q 2544 378 2576 322 
Q 2609 266 2673 228 
Q 2738 191 2881 153 
L 2881 0 
L 1613 0 
L 1613 153 
z
M 756 1597 
L 1978 1597 
L 1978 2375 
Q 1978 2669 1987 3033 
Q 1997 3397 2009 3581 
L 1978 3581 
L 756 1641 
L 756 1597 
z
" transform="scale(0.015625)"/>
       </defs>
       <use xlink:href="#Cambria-376"/>
      </g>
     </g>
    </g>
    <g id="xtick_4">
     <g id="line2d_7">
      <path d="M 174.187001 182.2 
L 174.187001 25.311816 
" clip-path="url(#p247097b155)" style="fill: none; stroke: #e1e0d9; stroke-width: 0.7; stroke-linecap: square"/>
     </g>
     <g id="line2d_8">
      <g>
       <use xlink:href="#m33db556d2f" x="174.187001" y="182.2" style="fill: #898781; stroke: #898781; stroke-width: 0.8"/>
      </g>
     </g>
     <g id="text_4">
      <!-- 6 -->
      <g style="fill: #52514e" transform="translate(171.279813 197.367236) scale(0.105 -0.105)">
       <defs>
        <path id="Cambria-378" d="M 2847 4144 
L 2847 3991 
Q 2366 3991 1994 3784 
Q 1622 3578 1376 3178 
Q 1131 2778 1031 2228 
L 1063 2216 
Q 1325 2403 1579 2490 
Q 1834 2578 2131 2578 
Q 2484 2578 2732 2423 
Q 2981 2269 3106 1989 
Q 3231 1709 3231 1334 
Q 3231 928 3075 617 
Q 2919 306 2592 128 
Q 2266 -50 1788 -50 
Q 1103 -50 754 375 
Q 406 800 406 1628 
Q 406 2184 581 2668 
Q 756 3153 1078 3514 
Q 1400 3875 1825 4083 
Q 2250 4291 2719 4316 
L 2847 4144 
z
M 1916 2250 
Q 1763 2250 1620 2215 
Q 1478 2181 1353 2115 
Q 1228 2050 1109 1950 
Q 1072 1916 1053 1878 
Q 1022 1819 1012 1731 
Q 1003 1644 1003 1438 
Q 1003 841 1203 528 
Q 1403 216 1809 216 
Q 2044 216 2203 297 
Q 2363 378 2461 520 
Q 2559 663 2601 855 
Q 2644 1047 2644 1272 
Q 2644 1734 2453 1992 
Q 2263 2250 1916 2250 
z
" transform="scale(0.015625)"/>
       </defs>
       <use xlink:href="#Cambria-378"/>
      </g>
     </g>
    </g>
    <g id="xtick_5">
     <g id="line2d_9">
      <path d="M 212.184929 182.2 
L 212.184929 25.311816 
" clip-path="url(#p247097b155)" style="fill: none; stroke: #e1e0d9; stroke-width: 0.7; stroke-linecap: square"/>
     </g>
     <g id="line2d_10">
      <g>
       <use xlink:href="#m33db556d2f" x="212.184929" y="182.2" style="fill: #898781; stroke: #898781; stroke-width: 0.8"/>
      </g>
     </g>
     <g id="text_5">
      <!-- 8 -->
      <g style="fill: #52514e" transform="translate(209.277741 197.367236) scale(0.105 -0.105)">
       <defs>
        <path id="Cambria-37a" d="M 2475 2253 
L 2481 2213 
Q 2834 2075 3015 1811 
Q 3197 1547 3197 1175 
Q 3197 809 3022 531 
Q 2847 253 2514 101 
Q 2181 -50 1738 -50 
Q 1322 -50 1008 89 
Q 694 228 520 495 
Q 347 763 347 1125 
Q 347 1397 440 1597 
Q 534 1797 686 1926 
Q 838 2056 1069 2163 
L 1063 2203 
Q 391 2494 391 3200 
Q 391 3522 567 3775 
Q 744 4028 1070 4172 
Q 1397 4316 1794 4316 
Q 2244 4316 2550 4189 
Q 2856 4063 3011 3823 
Q 3166 3584 3166 3250 
Q 3166 2906 2997 2657 
Q 2828 2409 2475 2253 
z
M 978 3228 
Q 978 3044 1022 2881 
Q 1066 2719 1162 2600 
Q 1259 2481 1414 2411 
Q 1569 2341 1794 2341 
Q 2053 2341 2229 2442 
Q 2406 2544 2492 2739 
Q 2578 2934 2578 3191 
Q 2578 3472 2476 3667 
Q 2375 3863 2197 3956 
Q 2019 4050 1788 4050 
Q 1394 4050 1186 3836 
Q 978 3622 978 3228 
z
M 944 1178 
Q 944 975 991 798 
Q 1038 622 1139 494 
Q 1241 366 1400 291 
Q 1559 216 1788 216 
Q 2044 216 2226 320 
Q 2409 425 2504 631 
Q 2600 838 2600 1119 
Q 2600 1419 2497 1636 
Q 2394 1853 2206 1967 
Q 2019 2081 1772 2081 
Q 1541 2081 1383 2009 
Q 1225 1938 1126 1816 
Q 1028 1694 986 1530 
Q 944 1366 944 1178 
z
" transform="scale(0.015625)"/>
       </defs>
       <use xlink:href="#Cambria-37a"/>
      </g>
     </g>
    </g>
    <g id="xtick_6">
     <g id="line2d_11">
      <path d="M 250.182857 182.2 
L 250.182857 25.311816 
" clip-path="url(#p247097b155)" style="fill: none; stroke: #e1e0d9; stroke-width: 0.7; stroke-linecap: square"/>
     </g>
     <g id="line2d_12">
      <g>
       <use xlink:href="#m33db556d2f" x="250.182857" y="182.2" style="fill: #898781; stroke: #898781; stroke-width: 0.8"/>
      </g>
     </g>
     <g id="text_6">
      <!-- 10 -->
      <g style="fill: #52514e" transform="translate(244.368482 197.367236) scale(0.105 -0.105)">
       <defs>
        <path id="Cambria-373" d="M 2172 816 
Q 2172 634 2192 542 
Q 2213 450 2264 392 
Q 2316 334 2412 301 
Q 2509 269 2656 251 
Q 2803 234 3044 228 
L 3044 0 
L 734 0 
L 734 228 
Q 1081 244 1229 270 
Q 1378 297 1456 350 
Q 1534 403 1570 500 
Q 1606 597 1606 816 
L 1606 3350 
Q 1606 3475 1562 3533 
Q 1519 3591 1434 3591 
Q 1334 3591 1150 3487 
Q 966 3384 694 3203 
L 556 3444 
L 2019 4316 
L 2191 4316 
Q 2172 4016 2172 3484 
L 2172 816 
z
" transform="scale(0.015625)"/>
       </defs>
       <use xlink:href="#Cambria-373"/>
       <use xlink:href="#Cambria-372" transform="translate(55.375 0)"/>
      </g>
     </g>
    </g>
    <g id="text_7">
     <!-- cutoff $x$  ($\times 10^8$) -->
     <g style="fill: #0b0b0b" transform="translate(116.947933 214.26) scale(0.12 -0.12)">
      <defs>
       <path id="Cambria-85" d="M 2631 2916 
L 2631 2263 
L 2234 2263 
Q 2181 2466 2103 2583 
Q 2025 2700 1922 2747 
Q 1819 2794 1666 2794 
Q 1447 2794 1278 2653 
Q 1109 2513 1011 2225 
Q 913 1938 913 1522 
Q 913 1256 950 1036 
Q 988 816 1078 659 
Q 1169 503 1319 415 
Q 1469 328 1691 328 
Q 1906 328 2092 412 
Q 2278 497 2478 709 
L 2656 503 
Q 2497 328 2375 233 
Q 2253 138 2114 73 
Q 1975 9 1839 -20 
Q 1703 -50 1544 -50 
Q 953 -50 640 342 
Q 328 734 328 1475 
Q 328 1938 503 2295 
Q 678 2653 993 2847 
Q 1309 3041 1722 3041 
Q 1978 3041 2195 3011 
Q 2413 2981 2631 2916 
z
" transform="scale(0.015625)"/>
       <path id="Cambria-97" d="M 228 2988 
L 1119 2988 
L 1119 1397 
Q 1119 1031 1147 840 
Q 1175 650 1231 553 
Q 1288 456 1391 390 
Q 1494 325 1675 325 
Q 1794 325 1903 372 
Q 2013 419 2147 536 
Q 2281 653 2339 768 
Q 2397 884 2397 1038 
L 2397 2209 
Q 2397 2388 2387 2478 
Q 2378 2569 2356 2623 
Q 2334 2678 2304 2712 
Q 2275 2747 2220 2775 
Q 2166 2803 2044 2834 
L 2044 2988 
L 2934 2988 
L 2934 853 
Q 2934 613 2943 506 
Q 2953 400 2984 337 
Q 3016 275 3081 236 
Q 3147 197 3316 163 
L 3316 0 
L 2600 -31 
L 2409 -31 
L 2428 481 
L 2381 494 
Q 2122 213 1886 81 
Q 1650 -50 1413 -50 
Q 1128 -50 943 62 
Q 759 175 668 398 
Q 578 622 578 1028 
L 578 2209 
Q 578 2472 558 2570 
Q 538 2669 480 2726 
Q 422 2784 228 2834 
L 228 2988 
z
" transform="scale(0.015625)"/>
       <path id="Cambria-96" d="M 116 2831 
Q 272 2856 369 2918 
Q 466 2981 520 3079 
Q 575 3178 606 3326 
Q 638 3475 672 3759 
L 1116 3759 
L 1116 2988 
L 2125 2988 
L 2125 2672 
L 1116 2672 
L 1116 1281 
Q 1116 978 1141 798 
Q 1166 619 1234 517 
Q 1303 416 1390 372 
Q 1478 328 1616 328 
Q 1741 328 1850 379 
Q 1959 431 2066 528 
L 2206 359 
Q 1984 144 1786 47 
Q 1588 -50 1375 -50 
Q 972 -50 775 189 
Q 578 428 578 938 
L 578 2672 
L 116 2672 
L 116 2831 
z
" transform="scale(0.015625)"/>
       <path id="Cambria-91" d="M 1663 -50 
Q 1013 -50 670 333 
Q 328 716 328 1466 
Q 328 1981 508 2337 
Q 688 2694 1000 2867 
Q 1313 3041 1713 3041 
Q 2381 3041 2725 2652 
Q 3069 2263 3069 1534 
Q 3069 1016 2897 659 
Q 2725 303 2409 126 
Q 2094 -50 1663 -50 
z
M 919 1531 
Q 919 888 1123 542 
Q 1328 197 1709 197 
Q 1919 197 2066 298 
Q 2213 400 2305 572 
Q 2397 744 2437 970 
Q 2478 1197 2478 1444 
Q 2478 1903 2376 2206 
Q 2275 2509 2100 2651 
Q 1925 2794 1700 2794 
Q 1322 2794 1120 2466 
Q 919 2138 919 1531 
z
" transform="scale(0.015625)"/>
       <path id="Cambria-88" d="M 1909 2672 
L 1163 2672 
L 1163 781 
Q 1163 572 1183 465 
Q 1203 359 1242 304 
Q 1281 250 1345 217 
Q 1409 184 1550 153 
L 1550 0 
L 272 0 
L 272 153 
Q 409 191 468 225 
Q 528 259 561 312 
Q 594 366 609 466 
Q 625 566 625 781 
L 625 2672 
L 247 2672 
L 247 2831 
Q 366 2850 405 2861 
Q 444 2872 480 2894 
Q 516 2916 542 2956 
Q 569 2997 589 3076 
Q 609 3156 622 3300 
Q 650 3641 745 3853 
Q 841 4066 1023 4216 
Q 1206 4366 1414 4427 
Q 1622 4488 1903 4488 
Q 2150 4488 2322 4453 
L 2322 3888 
L 2013 3888 
Q 1953 4072 1873 4148 
Q 1794 4225 1650 4225 
Q 1547 4225 1476 4197 
Q 1406 4169 1347 4109 
Q 1288 4050 1245 3950 
Q 1203 3850 1183 3701 
Q 1163 3553 1163 3316 
L 1163 2988 
L 1909 2988 
L 1909 2672 
z
" transform="scale(0.015625)"/>
       <path id="Cambria-3" transform="scale(0.015625)"/>
       <path id="Cmmi10-3f" d="M 500 184 
Q 613 97 819 97 
Q 1019 97 1172 289 
Q 1325 481 1381 709 
L 1672 1844 
Q 1741 2153 1741 2266 
Q 1741 2425 1652 2544 
Q 1563 2663 1403 2663 
Q 1200 2663 1022 2536 
Q 844 2409 722 2214 
Q 600 2019 550 1819 
Q 538 1778 500 1778 
L 422 1778 
Q 372 1778 372 1838 
L 372 1856 
Q 434 2094 584 2320 
Q 734 2547 951 2687 
Q 1169 2828 1416 2828 
Q 1650 2828 1839 2703 
Q 2028 2578 2106 2363 
Q 2216 2559 2386 2693 
Q 2556 2828 2759 2828 
Q 2897 2828 3040 2779 
Q 3184 2731 3275 2631 
Q 3366 2531 3366 2381 
Q 3366 2219 3261 2101 
Q 3156 1984 2994 1984 
Q 2891 1984 2822 2050 
Q 2753 2116 2753 2216 
Q 2753 2350 2845 2451 
Q 2938 2553 3066 2572 
Q 2950 2663 2747 2663 
Q 2541 2663 2389 2472 
Q 2238 2281 2175 2047 
L 1894 916 
Q 1825 659 1825 494 
Q 1825 331 1917 214 
Q 2009 97 2163 97 
Q 2463 97 2698 361 
Q 2934 625 3009 941 
Q 3022 978 3059 978 
L 3138 978 
Q 3163 978 3178 961 
Q 3194 944 3194 922 
Q 3194 916 3188 903 
Q 3097 522 2806 225 
Q 2516 -72 2150 -72 
Q 1916 -72 1727 54 
Q 1538 181 1459 397 
Q 1359 209 1182 68 
Q 1006 -72 806 -72 
Q 669 -72 523 -23 
Q 378 25 287 125 
Q 197 225 197 378 
Q 197 528 301 651 
Q 406 775 563 775 
Q 669 775 741 711 
Q 813 647 813 544 
Q 813 409 723 309 
Q 634 209 500 184 
z
" transform="scale(0.015625)"/>
       <path id="Cambria-20b" d="M 2309 -1359 
Q 1778 -1359 1442 -1200 
Q 1106 -1041 918 -714 
Q 731 -388 647 134 
Q 563 656 563 1550 
Q 563 2438 645 2964 
Q 728 3491 915 3822 
Q 1103 4153 1440 4318 
Q 1778 4484 2309 4484 
L 2309 4228 
Q 2091 4228 1922 4191 
Q 1731 4147 1597 4022 
Q 1447 3884 1353 3638 
Q 1244 3350 1191 2875 
Q 1134 2372 1134 1575 
Q 1134 872 1181 379 
Q 1228 -113 1338 -425 
Q 1425 -688 1556 -834 
Q 1672 -963 1831 -1028 
Q 2016 -1103 2309 -1103 
L 2309 -1359 
z
" transform="scale(0.015625)"/>
       <path id="Cmsy10-d" d="M 941 184 
Q 941 234 972 275 
L 2303 1600 
L 972 2931 
Q 941 2963 941 3016 
Q 941 3063 978 3103 
Q 1016 3144 1069 3144 
Q 1113 3144 1166 3103 
L 2491 1778 
L 3809 3103 
Q 3863 3144 3903 3144 
Q 3956 3144 3993 3106 
Q 4031 3069 4031 3016 
Q 4031 2963 4000 2931 
L 2669 1600 
L 4000 275 
Q 4031 234 4031 184 
Q 4031 131 3993 93 
Q 3956 56 3903 56 
Q 3856 56 3809 103 
L 2491 1422 
L 1166 103 
Q 1119 56 1069 56 
Q 1016 56 978 97 
Q 941 138 941 184 
z
" transform="scale(0.015625)"/>
       <path id="Cmr10-64" d="M 594 0 
L 594 225 
Q 1394 225 1394 428 
L 1394 3788 
Q 1063 3628 556 3628 
L 556 3853 
Q 1341 3853 1741 4263 
L 1831 4263 
Q 1853 4263 1873 4245 
Q 1894 4228 1894 4206 
L 1894 428 
Q 1894 225 2694 225 
L 2694 0 
L 594 0 
z
" transform="scale(0.015625)"/>
       <path id="Cmr10-28" d="M 1600 -141 
Q 816 -141 533 504 
Q 250 1150 250 2041 
Q 250 2597 351 3087 
Q 453 3578 754 3920 
Q 1056 4263 1600 4263 
Q 2022 4263 2290 4056 
Q 2559 3850 2700 3523 
Q 2841 3197 2892 2823 
Q 2944 2450 2944 2041 
Q 2944 1491 2842 1011 
Q 2741 531 2444 195 
Q 2147 -141 1600 -141 
z
M 1600 25 
Q 1956 25 2131 390 
Q 2306 756 2347 1200 
Q 2388 1644 2388 2144 
Q 2388 2625 2347 3031 
Q 2306 3438 2132 3767 
Q 1959 4097 1600 4097 
Q 1238 4097 1063 3765 
Q 888 3434 847 3029 
Q 806 2625 806 2144 
Q 806 1788 823 1472 
Q 841 1156 916 820 
Q 991 484 1158 254 
Q 1325 25 1600 25 
z
" transform="scale(0.015625)"/>
       <path id="Cmr10-4d" d="M 269 972 
Q 269 1356 522 1651 
Q 775 1947 1172 2144 
L 934 2297 
Q 716 2441 578 2680 
Q 441 2919 441 3181 
Q 441 3488 602 3734 
Q 763 3981 1030 4122 
Q 1297 4263 1600 4263 
Q 1884 4263 2148 4147 
Q 2413 4031 2583 3815 
Q 2753 3600 2753 3303 
Q 2753 3088 2651 2903 
Q 2550 2719 2373 2572 
Q 2197 2425 1997 2322 
L 2363 2088 
Q 2616 1922 2770 1653 
Q 2925 1384 2925 1088 
Q 2925 741 2739 456 
Q 2553 172 2247 15 
Q 1941 -141 1600 -141 
Q 1269 -141 961 -6 
Q 653 128 461 383 
Q 269 638 269 972 
z
M 616 972 
Q 616 719 755 509 
Q 894 300 1122 181 
Q 1350 63 1600 63 
Q 1972 63 2275 280 
Q 2578 497 2578 856 
Q 2578 978 2529 1098 
Q 2481 1219 2395 1317 
Q 2309 1416 2203 1478 
L 1344 2034 
Q 1144 1928 976 1765 
Q 809 1603 712 1400 
Q 616 1197 616 972 
z
M 1056 2925 
L 1831 2425 
Q 2100 2581 2272 2803 
Q 2444 3025 2444 3303 
Q 2444 3519 2323 3698 
Q 2203 3878 2009 3978 
Q 1816 4078 1594 4078 
Q 1400 4078 1203 4003 
Q 1006 3928 878 3779 
Q 750 3631 750 3431 
Q 750 3131 1056 2925 
z
" transform="scale(0.015625)"/>
       <path id="Cambria-20c" d="M 134 4484 
Q 666 4484 1002 4325 
Q 1338 4166 1525 3839 
Q 1713 3513 1797 2991 
Q 1881 2469 1881 1575 
Q 1881 688 1798 161 
Q 1716 -366 1528 -697 
Q 1341 -1028 1003 -1193 
Q 666 -1359 134 -1359 
L 134 -1103 
Q 353 -1103 522 -1066 
Q 713 -1022 847 -897 
Q 997 -759 1091 -513 
Q 1200 -225 1253 250 
Q 1309 753 1309 1550 
Q 1309 2253 1262 2745 
Q 1216 3238 1106 3550 
Q 1019 3813 888 3959 
Q 772 4088 613 4153 
Q 428 4228 134 4228 
L 134 4484 
z
" transform="scale(0.015625)"/>
      </defs>
      <use xlink:href="#Cambria-85" transform="translate(0 0.084203)"/>
      <use xlink:href="#Cambria-97" transform="translate(44.091797 0.084203)"/>
      <use xlink:href="#Cambria-96" transform="translate(99.316406 0.084203)"/>
      <use xlink:href="#Cambria-91" transform="translate(133.154297 0.084203)"/>
      <use xlink:href="#Cambria-88" transform="translate(186.230469 0.084203)"/>
      <use xlink:href="#Cambria-88" transform="translate(216.503906 0.084203)"/>
      <use xlink:href="#Cambria-3" transform="translate(246.777344 0.084203)"/>
      <use xlink:href="#Cmmi10-3f" transform="translate(268.798828 0.084203)"/>
      <use xlink:href="#Cambria-3" transform="translate(325.878906 0.084203)"/>
      <use xlink:href="#Cambria-3" transform="translate(347.900391 0.084203)"/>
      <use xlink:href="#Cambria-20b" transform="translate(369.921875 0.084203)"/>
      <use xlink:href="#Cmsy10-d" transform="translate(408.105469 0.084203)"/>
      <use xlink:href="#Cmr10-64" transform="translate(485.791016 0.084203)"/>
      <use xlink:href="#Cmr10-28" transform="translate(535.791016 0.084203)"/>
      <use xlink:href="#Cmr10-4d" transform="translate(589.795306 41.373437) scale(0.7)"/>
      <use xlink:href="#Cambria-20c" transform="translate(630.515722 0.084203)"/>
     </g>
    </g>
   </g>
   <g id="matplotlib.axis_2">
    <g id="ytick_1">
     <g id="line2d_13">
      <path d="M 54.683516 179.80896 
L 259.49235 179.80896 
" clip-path="url(#p247097b155)" style="fill: none; stroke: #e1e0d9; stroke-width: 0.7; stroke-linecap: square"/>
     </g>
     <g id="line2d_14">
      <defs>
       <path id="m08cc62d4c1" d="M 0 0 
L -3.5 0 
" style="stroke: #898781; stroke-width: 0.8"/>
      </defs>
      <g>
       <use xlink:href="#m08cc62d4c1" x="54.683516" y="179.80896" style="fill: #898781; stroke: #898781; stroke-width: 0.8"/>
      </g>
     </g>
     <g id="text_8">
      <!-- 0 -->
      <g style="fill: #52514e" transform="translate(41.869141 183.892578) scale(0.105 -0.105)">
       <use xlink:href="#Cambria-372"/>
      </g>
     </g>
    </g>
    <g id="ytick_2">
     <g id="line2d_15">
      <path d="M 54.683516 156.035006 
L 259.49235 156.035006 
" clip-path="url(#p247097b155)" style="fill: none; stroke: #e1e0d9; stroke-width: 0.7; stroke-linecap: square"/>
     </g>
     <g id="line2d_16">
      <g>
       <use xlink:href="#m08cc62d4c1" x="54.683516" y="156.035006" style="fill: #898781; stroke: #898781; stroke-width: 0.8"/>
      </g>
     </g>
     <g id="text_9">
      <!-- 250 -->
      <g style="fill: #52514e" transform="translate(30.240391 160.118624) scale(0.105 -0.105)">
       <defs>
        <path id="Cambria-377" d="M 469 172 
L 469 834 
L 847 834 
Q 941 516 1130 366 
Q 1319 216 1619 216 
Q 2034 216 2246 466 
Q 2459 716 2459 1213 
Q 2459 1544 2346 1761 
Q 2234 1978 2043 2075 
Q 1853 2172 1600 2172 
Q 1388 2172 1234 2145 
Q 1081 2119 906 2063 
L 656 2209 
L 656 4266 
L 2378 4266 
Q 2484 4266 2531 4283 
Q 2578 4300 2606 4336 
Q 2634 4372 2672 4472 
L 2916 4472 
L 2869 3747 
L 1072 3747 
L 1072 2375 
Q 1234 2444 1425 2478 
Q 1616 2513 1806 2513 
Q 2178 2513 2465 2361 
Q 2753 2209 2909 1929 
Q 3066 1650 3066 1281 
Q 3066 863 2891 563 
Q 2716 263 2384 106 
Q 2053 -50 1600 -50 
Q 1059 -50 469 172 
z
" transform="scale(0.015625)"/>
       </defs>
       <use xlink:href="#Cambria-374"/>
       <use xlink:href="#Cambria-377" transform="translate(55.375 0)"/>
       <use xlink:href="#Cambria-372" transform="translate(110.75 0)"/>
      </g>
     </g>
    </g>
    <g id="ytick_3">
     <g id="line2d_17">
      <path d="M 54.683516 132.261052 
L 259.49235 132.261052 
" clip-path="url(#p247097b155)" style="fill: none; stroke: #e1e0d9; stroke-width: 0.7; stroke-linecap: square"/>
     </g>
     <g id="line2d_18">
      <g>
       <use xlink:href="#m08cc62d4c1" x="54.683516" y="132.261052" style="fill: #898781; stroke: #898781; stroke-width: 0.8"/>
      </g>
     </g>
     <g id="text_10">
      <!-- 500 -->
      <g style="fill: #52514e" transform="translate(30.240391 136.34467) scale(0.105 -0.105)">
       <use xlink:href="#Cambria-377"/>
       <use xlink:href="#Cambria-372" transform="translate(55.375 0)"/>
       <use xlink:href="#Cambria-372" transform="translate(110.75 0)"/>
      </g>
     </g>
    </g>
    <g id="ytick_4">
     <g id="line2d_19">
      <path d="M 54.683516 108.487097 
L 259.49235 108.487097 
" clip-path="url(#p247097b155)" style="fill: none; stroke: #e1e0d9; stroke-width: 0.7; stroke-linecap: square"/>
     </g>
     <g id="line2d_20">
      <g>
       <use xlink:href="#m08cc62d4c1" x="54.683516" y="108.487097" style="fill: #898781; stroke: #898781; stroke-width: 0.8"/>
      </g>
     </g>
     <g id="text_11">
      <!-- 750 -->
      <g style="fill: #52514e" transform="translate(30.240391 112.570715) scale(0.105 -0.105)">
       <defs>
        <path id="Cambria-379" d="M 3206 4116 
L 1388 -22 
L 934 -22 
L 934 131 
L 2619 3697 
L 2619 3744 
L 1244 3744 
Q 1116 3744 1039 3720 
Q 963 3697 911 3653 
Q 859 3609 825 3537 
Q 791 3466 731 3253 
L 463 3253 
L 525 4266 
L 3206 4266 
L 3206 4116 
z
" transform="scale(0.015625)"/>
       </defs>
       <use xlink:href="#Cambria-379"/>
       <use xlink:href="#Cambria-377" transform="translate(55.375 0)"/>
       <use xlink:href="#Cambria-372" transform="translate(110.75 0)"/>
      </g>
     </g>
    </g>
    <g id="ytick_5">
     <g id="line2d_21">
      <path d="M 54.683516 84.713143 
L 259.49235 84.713143 
" clip-path="url(#p247097b155)" style="fill: none; stroke: #e1e0d9; stroke-width: 0.7; stroke-linecap: square"/>
     </g>
     <g id="line2d_22">
      <g>
       <use xlink:href="#m08cc62d4c1" x="54.683516" y="84.713143" style="fill: #898781; stroke: #898781; stroke-width: 0.8"/>
      </g>
     </g>
     <g id="text_12">
      <!-- 1000 -->
      <g style="fill: #52514e" transform="translate(24.426016 88.796761) scale(0.105 -0.105)">
       <use xlink:href="#Cambria-373"/>
       <use xlink:href="#Cambria-372" transform="translate(55.375 0)"/>
       <use xlink:href="#Cambria-372" transform="translate(110.75 0)"/>
       <use xlink:href="#Cambria-372" transform="translate(166.125 0)"/>
      </g>
     </g>
    </g>
    <g id="ytick_6">
     <g id="line2d_23">
      <path d="M 54.683516 60.939189 
L 259.49235 60.939189 
" clip-path="url(#p247097b155)" style="fill: none; stroke: #e1e0d9; stroke-width: 0.7; stroke-linecap: square"/>
     </g>
     <g id="line2d_24">
      <g>
       <use xlink:href="#m08cc62d4c1" x="54.683516" y="60.939189" style="fill: #898781; stroke: #898781; stroke-width: 0.8"/>
      </g>
     </g>
     <g id="text_13">
      <!-- 1250 -->
      <g style="fill: #52514e" transform="translate(24.426016 65.022807) scale(0.105 -0.105)">
       <use xlink:href="#Cambria-373"/>
       <use xlink:href="#Cambria-374" transform="translate(55.375 0)"/>
       <use xlink:href="#Cambria-377" transform="translate(110.75 0)"/>
       <use xlink:href="#Cambria-372" transform="translate(166.125 0)"/>
      </g>
     </g>
    </g>
    <g id="ytick_7">
     <g id="line2d_25">
      <path d="M 54.683516 37.165234 
L 259.49235 37.165234 
" clip-path="url(#p247097b155)" style="fill: none; stroke: #e1e0d9; stroke-width: 0.7; stroke-linecap: square"/>
     </g>
     <g id="line2d_26">
      <g>
       <use xlink:href="#m08cc62d4c1" x="54.683516" y="37.165234" style="fill: #898781; stroke: #898781; stroke-width: 0.8"/>
      </g>
     </g>
     <g id="text_14">
      <!-- 1500 -->
      <g style="fill: #52514e" transform="translate(24.426016 41.248853) scale(0.105 -0.105)">
       <use xlink:href="#Cambria-373"/>
       <use xlink:href="#Cambria-377" transform="translate(55.375 0)"/>
       <use xlink:href="#Cambria-372" transform="translate(110.75 0)"/>
       <use xlink:href="#Cambria-372" transform="translate(166.125 0)"/>
      </g>
     </g>
    </g>
    <g id="text_15">
     <!-- prime-quotient events ($\times 10^3$) -->
     <g style="fill: #0b0b0b" transform="translate(17.76 180.375908) rotate(-90) scale(0.12 -0.12)">
      <defs>
       <path id="Cambria-92" d="M 1150 94 
L 1150 -566 
Q 1150 -769 1164 -869 
Q 1178 -969 1214 -1026 
Q 1250 -1084 1317 -1121 
Q 1384 -1159 1534 -1191 
L 1534 -1344 
L 259 -1344 
L 259 -1191 
Q 372 -1159 442 -1126 
Q 513 -1094 550 -1030 
Q 588 -966 600 -856 
Q 613 -747 613 -566 
L 613 2116 
Q 613 2341 606 2436 
Q 600 2531 581 2593 
Q 563 2656 527 2697 
Q 491 2738 430 2766 
Q 369 2794 228 2822 
L 228 2988 
L 963 3016 
L 1153 3016 
L 1113 2506 
L 1159 2494 
Q 1353 2691 1465 2780 
Q 1578 2869 1698 2928 
Q 1819 2988 1930 3013 
Q 2041 3038 2166 3038 
Q 2681 3038 2957 2652 
Q 3234 2266 3234 1522 
Q 3234 1006 3078 654 
Q 2922 303 2623 126 
Q 2325 -50 1913 -50 
Q 1681 -50 1493 -11 
Q 1306 28 1150 94 
z
M 1150 1125 
Q 1150 825 1187 662 
Q 1225 500 1320 398 
Q 1416 297 1545 247 
Q 1675 197 1888 197 
Q 2266 197 2456 511 
Q 2647 825 2647 1438 
Q 2647 2663 1931 2663 
Q 1756 2663 1629 2608 
Q 1503 2553 1378 2431 
Q 1253 2309 1201 2195 
Q 1150 2081 1150 1950 
L 1150 1125 
z
" transform="scale(0.015625)"/>
       <path id="Cambria-94" d="M 1147 2469 
L 1191 2459 
Q 1363 2669 1509 2789 
Q 1656 2909 1826 2975 
Q 1997 3041 2213 3041 
Q 2394 3041 2541 3022 
L 2541 2303 
L 2188 2303 
Q 2113 2472 2028 2548 
Q 1944 2625 1797 2625 
Q 1684 2625 1573 2559 
Q 1463 2494 1359 2369 
Q 1256 2244 1217 2134 
Q 1178 2025 1178 1875 
L 1178 781 
Q 1178 497 1212 389 
Q 1247 281 1326 231 
Q 1406 181 1566 153 
L 1566 0 
L 306 0 
L 306 153 
Q 425 191 476 219 
Q 528 247 565 297 
Q 603 347 622 450 
Q 641 553 641 772 
L 641 2134 
Q 641 2334 634 2456 
Q 628 2578 590 2651 
Q 553 2725 476 2761 
Q 400 2797 259 2822 
L 259 2984 
L 991 3016 
L 1181 3016 
L 1147 2469 
z
" transform="scale(0.015625)"/>
       <path id="Cambria-8b" d="M 1197 4213 
L 1197 3606 
L 622 3606 
L 622 4213 
L 1197 4213 
z
M 303 153 
Q 425 191 476 219 
Q 528 247 564 297 
Q 600 347 620 450 
Q 641 553 641 772 
L 641 2134 
Q 641 2334 634 2456 
Q 628 2578 590 2651 
Q 553 2725 476 2761 
Q 400 2797 259 2822 
L 259 2988 
L 988 3016 
L 1178 3016 
L 1178 781 
Q 1178 513 1203 408 
Q 1228 303 1298 248 
Q 1369 194 1528 153 
L 1528 0 
L 303 0 
L 303 153 
z
" transform="scale(0.015625)"/>
       <path id="Cambria-8f" d="M 1147 2506 
L 1191 2494 
Q 1378 2681 1498 2776 
Q 1619 2872 1731 2930 
Q 1844 2988 1942 3013 
Q 2041 3038 2144 3038 
Q 2456 3038 2653 2894 
Q 2850 2750 2925 2453 
Q 3159 2691 3304 2803 
Q 3450 2916 3601 2977 
Q 3753 3038 3928 3038 
Q 4138 3038 4289 2977 
Q 4441 2916 4545 2789 
Q 4650 2663 4698 2472 
Q 4747 2281 4747 1959 
L 4747 781 
Q 4747 544 4762 453 
Q 4778 363 4808 313 
Q 4838 263 4897 227 
Q 4956 191 5097 153 
L 5097 0 
L 3869 0 
L 3869 153 
Q 3991 191 4044 219 
Q 4097 247 4133 297 
Q 4169 347 4189 451 
Q 4209 556 4209 769 
L 4209 1588 
Q 4209 1853 4195 2026 
Q 4181 2200 4151 2303 
Q 4122 2406 4080 2465 
Q 4038 2525 3984 2569 
Q 3931 2613 3859 2638 
Q 3788 2663 3669 2663 
Q 3544 2663 3436 2613 
Q 3328 2563 3201 2444 
Q 3075 2325 3019 2204 
Q 2963 2084 2963 1922 
L 2963 781 
Q 2963 544 2978 453 
Q 2994 363 3023 313 
Q 3053 263 3112 227 
Q 3172 191 3313 153 
L 3313 0 
L 2084 0 
L 2084 153 
Q 2206 191 2259 219 
Q 2313 247 2348 297 
Q 2384 347 2404 451 
Q 2425 556 2425 769 
L 2425 1588 
Q 2425 1866 2409 2041 
Q 2394 2216 2361 2322 
Q 2328 2428 2276 2493 
Q 2225 2559 2172 2593 
Q 2119 2628 2047 2645 
Q 1975 2663 1884 2663 
Q 1756 2663 1643 2605 
Q 1531 2547 1414 2437 
Q 1297 2328 1237 2209 
Q 1178 2091 1178 1953 
L 1178 781 
Q 1178 603 1187 509 
Q 1197 416 1217 362 
Q 1238 309 1269 276 
Q 1300 244 1358 214 
Q 1416 184 1531 153 
L 1531 0 
L 306 0 
L 306 153 
Q 425 191 476 219 
Q 528 247 565 297 
Q 603 347 622 450 
Q 641 553 641 772 
L 641 2134 
Q 641 2334 634 2456 
Q 628 2578 590 2651 
Q 553 2725 476 2761 
Q 400 2797 259 2822 
L 259 2988 
L 991 3016 
L 1181 3016 
L 1147 2506 
z
" transform="scale(0.015625)"/>
       <path id="Cambria-87" d="M 2800 531 
Q 2600 322 2433 203 
Q 2266 84 2066 17 
Q 1866 -50 1625 -50 
Q 981 -50 653 336 
Q 325 722 325 1475 
Q 325 1941 492 2297 
Q 659 2653 968 2847 
Q 1278 3041 1681 3041 
Q 1997 3041 2219 2941 
Q 2441 2841 2573 2667 
Q 2706 2494 2779 2230 
Q 2853 1966 2863 1541 
L 894 1541 
L 894 1484 
Q 894 1116 976 864 
Q 1059 613 1248 470 
Q 1438 328 1741 328 
Q 1997 328 2201 423 
Q 2406 519 2609 734 
L 2800 531 
z
M 2275 1800 
Q 2256 2138 2190 2352 
Q 2125 2566 1994 2680 
Q 1863 2794 1650 2794 
Q 1328 2794 1136 2536 
Q 944 2278 909 1800 
L 2275 1800 
z
" transform="scale(0.015625)"/>
       <path id="Cambria-1e6" d="M 1788 1403 
L 338 1403 
L 338 1888 
L 1788 1888 
L 1788 1403 
z
" transform="scale(0.015625)"/>
       <path id="Cambria-93" d="M 3300 -1344 
L 2025 -1344 
L 2025 -1191 
Q 2175 -1159 2242 -1121 
Q 2309 -1084 2345 -1026 
Q 2381 -969 2395 -870 
Q 2409 -772 2409 -566 
L 2409 513 
Q 2241 322 2095 208 
Q 1950 94 1772 22 
Q 1594 -50 1394 -50 
Q 878 -50 601 334 
Q 325 719 325 1453 
Q 325 1972 504 2330 
Q 684 2688 1006 2864 
Q 1328 3041 1750 3041 
Q 1972 3041 2150 2995 
Q 2328 2950 2516 2850 
L 2734 3041 
L 2947 2991 
L 2947 -566 
Q 2947 -750 2961 -858 
Q 2975 -966 3011 -1028 
Q 3047 -1091 3117 -1125 
Q 3188 -1159 3300 -1191 
L 3300 -1344 
z
M 2409 1863 
Q 2409 2153 2371 2312 
Q 2334 2472 2243 2583 
Q 2153 2694 2031 2742 
Q 1909 2791 1744 2791 
Q 1341 2791 1127 2466 
Q 913 2141 913 1550 
Q 913 950 1086 637 
Q 1259 325 1606 325 
Q 1738 325 1830 348 
Q 1922 372 2011 425 
Q 2100 478 2192 568 
Q 2284 659 2325 732 
Q 2366 806 2387 903 
Q 2409 1000 2409 1153 
L 2409 1863 
z
" transform="scale(0.015625)"/>
       <path id="Cambria-90" d="M 3347 0 
L 2116 0 
L 2116 153 
Q 2238 191 2291 219 
Q 2344 247 2380 297 
Q 2416 347 2436 451 
Q 2456 556 2456 769 
L 2456 1588 
Q 2456 1806 2443 1984 
Q 2431 2163 2401 2277 
Q 2372 2391 2330 2455 
Q 2288 2519 2230 2564 
Q 2172 2609 2097 2636 
Q 2022 2663 1900 2663 
Q 1778 2663 1668 2614 
Q 1559 2566 1428 2447 
Q 1297 2328 1237 2212 
Q 1178 2097 1178 1947 
L 1178 781 
Q 1178 513 1203 408 
Q 1228 303 1298 248 
Q 1369 194 1528 153 
L 1528 0 
L 303 0 
L 303 153 
Q 425 191 476 219 
Q 528 247 564 297 
Q 600 347 620 450 
Q 641 553 641 772 
L 641 2134 
Q 641 2334 634 2456 
Q 628 2578 590 2651 
Q 553 2725 476 2761 
Q 400 2797 259 2822 
L 259 2988 
L 991 3016 
L 1181 3016 
L 1147 2506 
L 1191 2494 
Q 1422 2728 1564 2828 
Q 1706 2928 1851 2983 
Q 1997 3038 2159 3038 
Q 2328 3038 2461 2998 
Q 2594 2959 2695 2878 
Q 2797 2797 2862 2676 
Q 2928 2556 2961 2387 
Q 2994 2219 2994 1959 
L 2994 781 
Q 2994 566 3006 469 
Q 3019 372 3050 319 
Q 3081 266 3140 230 
Q 3200 194 3347 153 
L 3347 0 
z
" transform="scale(0.015625)"/>
       <path id="Cambria-98" d="M 1334 2988 
L 1334 2834 
Q 1191 2800 1131 2769 
Q 1072 2738 1042 2688 
Q 1013 2638 1013 2553 
Q 1013 2469 1033 2376 
Q 1053 2284 1097 2163 
L 1641 581 
L 2278 2097 
Q 2341 2247 2366 2344 
Q 2391 2441 2391 2525 
Q 2391 2656 2320 2725 
Q 2250 2794 2063 2834 
L 2063 2988 
L 3231 2988 
L 3231 2834 
Q 3109 2809 3043 2757 
Q 2978 2706 2912 2595 
Q 2847 2484 2756 2284 
L 1703 -31 
L 1334 -31 
L 488 2303 
Q 400 2544 348 2633 
Q 297 2722 236 2765 
Q 175 2809 59 2834 
L 59 2988 
L 1334 2988 
z
" transform="scale(0.015625)"/>
       <path id="Cambria-95" d="M 2397 2303 
L 2097 2303 
Q 2028 2491 1934 2598 
Q 1841 2706 1722 2750 
Q 1603 2794 1431 2794 
Q 1181 2794 1032 2676 
Q 884 2559 884 2356 
Q 884 2213 943 2119 
Q 1003 2025 1128 1944 
Q 1253 1863 1569 1728 
Q 1888 1591 2061 1475 
Q 2234 1359 2332 1206 
Q 2431 1053 2431 841 
Q 2431 594 2347 425 
Q 2263 256 2109 150 
Q 1956 44 1745 -3 
Q 1534 -50 1284 -50 
Q 1022 -50 775 -11 
Q 528 28 294 91 
L 294 744 
L 600 744 
Q 684 456 850 326 
Q 1016 197 1306 197 
Q 1419 197 1526 220 
Q 1634 244 1718 298 
Q 1803 353 1853 447 
Q 1903 541 1903 681 
Q 1903 841 1840 941 
Q 1778 1041 1647 1123 
Q 1516 1206 1184 1347 
Q 900 1466 728 1578 
Q 556 1691 457 1844 
Q 359 1997 359 2206 
Q 359 2463 498 2652 
Q 638 2841 900 2941 
Q 1163 3041 1516 3041 
Q 1722 3041 1914 3020 
Q 2106 3000 2397 2941 
L 2397 2303 
z
" transform="scale(0.015625)"/>
       <path id="Cmr10-6e" d="M 609 494 
Q 759 275 1012 169 
Q 1266 63 1556 63 
Q 1928 63 2084 380 
Q 2241 697 2241 1100 
Q 2241 1281 2208 1462 
Q 2175 1644 2097 1800 
Q 2019 1956 1883 2050 
Q 1747 2144 1550 2144 
L 1125 2144 
Q 1069 2144 1069 2203 
L 1069 2259 
Q 1069 2309 1125 2309 
L 1478 2338 
Q 1703 2338 1851 2506 
Q 2000 2675 2069 2917 
Q 2138 3159 2138 3378 
Q 2138 3684 1994 3881 
Q 1850 4078 1556 4078 
Q 1313 4078 1091 3986 
Q 869 3894 738 3706 
Q 750 3709 759 3711 
Q 769 3713 781 3713 
Q 925 3713 1022 3613 
Q 1119 3513 1119 3372 
Q 1119 3234 1022 3134 
Q 925 3034 781 3034 
Q 641 3034 541 3134 
Q 441 3234 441 3372 
Q 441 3647 606 3850 
Q 772 4053 1033 4158 
Q 1294 4263 1556 4263 
Q 1750 4263 1965 4205 
Q 2181 4147 2356 4039 
Q 2531 3931 2642 3762 
Q 2753 3594 2753 3378 
Q 2753 3109 2633 2881 
Q 2513 2653 2303 2487 
Q 2094 2322 1844 2241 
Q 2122 2188 2372 2031 
Q 2622 1875 2773 1631 
Q 2925 1388 2925 1106 
Q 2925 753 2731 467 
Q 2538 181 2222 20 
Q 1906 -141 1556 -141 
Q 1256 -141 954 -26 
Q 653 88 461 316 
Q 269 544 269 863 
Q 269 1022 375 1128 
Q 481 1234 641 1234 
Q 744 1234 830 1186 
Q 916 1138 964 1050 
Q 1013 963 1013 863 
Q 1013 706 903 600 
Q 794 494 641 494 
L 609 494 
z
" transform="scale(0.015625)"/>
      </defs>
      <use xlink:href="#Cambria-92" transform="translate(0 0.084203)"/>
      <use xlink:href="#Cambria-94" transform="translate(55.615234 0.084203)"/>
      <use xlink:href="#Cambria-8b" transform="translate(96.972656 0.084203)"/>
      <use xlink:href="#Cambria-8f" transform="translate(124.755859 0.084203)"/>
      <use xlink:href="#Cambria-87" transform="translate(207.958984 0.084203)"/>
      <use xlink:href="#Cambria-1e6" transform="translate(256.738281 0.084203)"/>
      <use xlink:href="#Cambria-93" transform="translate(289.941406 0.084203)"/>
      <use xlink:href="#Cambria-97" transform="translate(344.628906 0.084203)"/>
      <use xlink:href="#Cambria-91" transform="translate(399.853516 0.084203)"/>
      <use xlink:href="#Cambria-96" transform="translate(452.929688 0.084203)"/>
      <use xlink:href="#Cambria-8b" transform="translate(486.767578 0.084203)"/>
      <use xlink:href="#Cambria-87" transform="translate(514.550781 0.084203)"/>
      <use xlink:href="#Cambria-90" transform="translate(563.330078 0.084203)"/>
      <use xlink:href="#Cambria-96" transform="translate(619.140625 0.084203)"/>
      <use xlink:href="#Cambria-3" transform="translate(652.978516 0.084203)"/>
      <use xlink:href="#Cambria-87" transform="translate(675 0.084203)"/>
      <use xlink:href="#Cambria-98" transform="translate(723.779297 0.084203)"/>
      <use xlink:href="#Cambria-87" transform="translate(774.169922 0.084203)"/>
      <use xlink:href="#Cambria-90" transform="translate(822.949219 0.084203)"/>
      <use xlink:href="#Cambria-96" transform="translate(878.759766 0.084203)"/>
      <use xlink:href="#Cambria-95" transform="translate(912.597656 0.084203)"/>
      <use xlink:href="#Cambria-3" transform="translate(955.566406 0.084203)"/>
      <use xlink:href="#Cambria-20b" transform="translate(977.587891 0.084203)"/>
      <use xlink:href="#Cmsy10-d" transform="translate(1015.771484 0.084203)"/>
      <use xlink:href="#Cmr10-64" transform="translate(1093.457031 0.084203)"/>
      <use xlink:href="#Cmr10-28" transform="translate(1143.457031 0.084203)"/>
      <use xlink:href="#Cmr10-6e" transform="translate(1197.461322 41.373437) scale(0.7)"/>
      <use xlink:href="#Cambria-20c" transform="translate(1238.181738 0.084203)"/>
     </g>
    </g>
   </g>
   <g id="line2d_27">
    <path d="M 63.993008 175.0482 
L 67.792801 171.142462 
L 71.592594 167.479976 
L 75.392387 163.963075 
L 79.192179 160.548782 
L 82.991972 157.213045 
L 86.791765 153.940574 
L 90.591558 150.720837 
L 94.391351 147.546164 
L 98.191144 144.410732 
L 101.990937 141.309985 
L 105.790729 138.240261 
L 109.590522 135.198562 
L 113.390315 132.182386 
L 117.190108 129.189621 
L 120.989901 126.218457 
L 124.789694 123.267332 
L 128.589486 120.334879 
L 132.389279 117.419898 
L 136.189072 114.521325 
L 139.988865 111.638211 
L 143.788658 108.769703 
L 147.588451 105.915034 
L 151.388243 103.073509 
L 155.188036 100.244494 
L 158.987829 97.42741 
L 162.787622 94.621729 
L 166.587415 91.826961 
L 170.387208 89.042656 
L 174.187001 86.268399 
L 177.986793 83.503801 
L 181.786586 80.748504 
L 185.586379 78.002172 
L 189.386172 75.264492 
L 193.185965 72.535169 
L 196.985758 69.813929 
L 200.78555 67.100512 
L 204.585343 64.394674 
L 208.385136 61.696186 
L 212.184929 59.004831 
L 215.984722 56.320402 
L 219.784515 53.642704 
L 223.584308 50.971554 
L 227.3841 48.306776 
L 231.183893 45.648202 
L 234.983686 42.995675 
L 238.783479 40.349042 
L 242.583272 37.708159 
L 246.383065 35.072888 
L 250.182857 32.443097 
" clip-path="url(#p247097b155)" style="fill: none; stroke: #eb6834; stroke-width: 1.6; stroke-linecap: square"/>
   </g>
   <g id="line2d_28">
    <path d="M 63.993008 175.068719 
L 67.792801 171.148204 
L 71.592594 167.478836 
L 75.392387 163.982258 
L 79.192179 160.569555 
L 82.991972 157.233023 
L 86.791765 153.955736 
L 90.591558 150.733509 
L 94.391351 147.572714 
L 98.191144 144.419813 
L 101.990937 141.317216 
L 105.790729 138.24952 
L 109.590522 135.208832 
L 113.390315 132.18041 
L 117.190108 129.185177 
L 120.989901 126.211721 
L 124.789694 123.26784 
L 128.589486 120.33518 
L 132.389279 117.412981 
L 136.189072 114.505712 
L 139.988865 111.668813 
L 143.788658 108.796064 
L 147.588451 105.947183 
L 151.388243 103.123218 
L 155.188036 100.301249 
L 158.987829 97.464636 
L 162.787622 94.667488 
L 166.587415 91.866916 
L 170.387208 89.067105 
L 174.187001 86.290307 
L 177.986793 83.513224 
L 181.786586 80.768759 
L 185.586379 78.007081 
L 189.386172 75.269177 
L 193.185965 72.545918 
L 196.985758 69.821518 
L 200.78555 67.113094 
L 204.585343 64.416462 
L 208.385136 61.700336 
L 212.184929 59.016827 
L 215.984722 56.334744 
L 219.784515 53.665405 
L 223.584308 50.980184 
L 227.3841 48.29658 
L 231.183893 45.649018 
L 234.983686 43.011535 
L 238.783479 40.384893 
L 242.583272 37.75616 
L 246.383065 35.141976 
L 250.182857 32.527792 
" clip-path="url(#p247097b155)" style="fill: none"/>
    <defs>
     <path id="m68b94d3a03" d="M 0 1.6 
C 0.424325 1.6 0.831328 1.431414 1.131371 1.131371 
C 1.431414 0.831328 1.6 0.424325 1.6 0 
C 1.6 -0.424325 1.431414 -0.831328 1.131371 -1.131371 
C 0.831328 -1.431414 0.424325 -1.6 0 -1.6 
C -0.424325 -1.6 -0.831328 -1.431414 -1.131371 -1.131371 
C -1.431414 -0.831328 -1.6 -0.424325 -1.6 0 
C -1.6 0.424325 -1.431414 0.831328 -1.131371 1.131371 
C -0.831328 1.431414 -0.424325 1.6 0 1.6 
z
" style="stroke: #2a78d6"/>
    </defs>
    <g clip-path="url(#p247097b155)">
     <use xlink:href="#m68b94d3a03" x="63.993008" y="175.068719" style="fill: #2a78d6; stroke: #2a78d6"/>
     <use xlink:href="#m68b94d3a03" x="67.792801" y="171.148204" style="fill: #2a78d6; stroke: #2a78d6"/>
     <use xlink:href="#m68b94d3a03" x="71.592594" y="167.478836" style="fill: #2a78d6; stroke: #2a78d6"/>
     <use xlink:href="#m68b94d3a03" x="75.392387" y="163.982258" style="fill: #2a78d6; stroke: #2a78d6"/>
     <use xlink:href="#m68b94d3a03" x="79.192179" y="160.569555" style="fill: #2a78d6; stroke: #2a78d6"/>
     <use xlink:href="#m68b94d3a03" x="82.991972" y="157.233023" style="fill: #2a78d6; stroke: #2a78d6"/>
     <use xlink:href="#m68b94d3a03" x="86.791765" y="153.955736" style="fill: #2a78d6; stroke: #2a78d6"/>
     <use xlink:href="#m68b94d3a03" x="90.591558" y="150.733509" style="fill: #2a78d6; stroke: #2a78d6"/>
     <use xlink:href="#m68b94d3a03" x="94.391351" y="147.572714" style="fill: #2a78d6; stroke: #2a78d6"/>
     <use xlink:href="#m68b94d3a03" x="98.191144" y="144.419813" style="fill: #2a78d6; stroke: #2a78d6"/>
     <use xlink:href="#m68b94d3a03" x="101.990937" y="141.317216" style="fill: #2a78d6; stroke: #2a78d6"/>
     <use xlink:href="#m68b94d3a03" x="105.790729" y="138.24952" style="fill: #2a78d6; stroke: #2a78d6"/>
     <use xlink:href="#m68b94d3a03" x="109.590522" y="135.208832" style="fill: #2a78d6; stroke: #2a78d6"/>
     <use xlink:href="#m68b94d3a03" x="113.390315" y="132.18041" style="fill: #2a78d6; stroke: #2a78d6"/>
     <use xlink:href="#m68b94d3a03" x="117.190108" y="129.185177" style="fill: #2a78d6; stroke: #2a78d6"/>
     <use xlink:href="#m68b94d3a03" x="120.989901" y="126.211721" style="fill: #2a78d6; stroke: #2a78d6"/>
     <use xlink:href="#m68b94d3a03" x="124.789694" y="123.26784" style="fill: #2a78d6; stroke: #2a78d6"/>
     <use xlink:href="#m68b94d3a03" x="128.589486" y="120.33518" style="fill: #2a78d6; stroke: #2a78d6"/>
     <use xlink:href="#m68b94d3a03" x="132.389279" y="117.412981" style="fill: #2a78d6; stroke: #2a78d6"/>
     <use xlink:href="#m68b94d3a03" x="136.189072" y="114.505712" style="fill: #2a78d6; stroke: #2a78d6"/>
     <use xlink:href="#m68b94d3a03" x="139.988865" y="111.668813" style="fill: #2a78d6; stroke: #2a78d6"/>
     <use xlink:href="#m68b94d3a03" x="143.788658" y="108.796064" style="fill: #2a78d6; stroke: #2a78d6"/>
     <use xlink:href="#m68b94d3a03" x="147.588451" y="105.947183" style="fill: #2a78d6; stroke: #2a78d6"/>
     <use xlink:href="#m68b94d3a03" x="151.388243" y="103.123218" style="fill: #2a78d6; stroke: #2a78d6"/>
     <use xlink:href="#m68b94d3a03" x="155.188036" y="100.301249" style="fill: #2a78d6; stroke: #2a78d6"/>
     <use xlink:href="#m68b94d3a03" x="158.987829" y="97.464636" style="fill: #2a78d6; stroke: #2a78d6"/>
     <use xlink:href="#m68b94d3a03" x="162.787622" y="94.667488" style="fill: #2a78d6; stroke: #2a78d6"/>
     <use xlink:href="#m68b94d3a03" x="166.587415" y="91.866916" style="fill: #2a78d6; stroke: #2a78d6"/>
     <use xlink:href="#m68b94d3a03" x="170.387208" y="89.067105" style="fill: #2a78d6; stroke: #2a78d6"/>
     <use xlink:href="#m68b94d3a03" x="174.187001" y="86.290307" style="fill: #2a78d6; stroke: #2a78d6"/>
     <use xlink:href="#m68b94d3a03" x="177.986793" y="83.513224" style="fill: #2a78d6; stroke: #2a78d6"/>
     <use xlink:href="#m68b94d3a03" x="181.786586" y="80.768759" style="fill: #2a78d6; stroke: #2a78d6"/>
     <use xlink:href="#m68b94d3a03" x="185.586379" y="78.007081" style="fill: #2a78d6; stroke: #2a78d6"/>
     <use xlink:href="#m68b94d3a03" x="189.386172" y="75.269177" style="fill: #2a78d6; stroke: #2a78d6"/>
     <use xlink:href="#m68b94d3a03" x="193.185965" y="72.545918" style="fill: #2a78d6; stroke: #2a78d6"/>
     <use xlink:href="#m68b94d3a03" x="196.985758" y="69.821518" style="fill: #2a78d6; stroke: #2a78d6"/>
     <use xlink:href="#m68b94d3a03" x="200.78555" y="67.113094" style="fill: #2a78d6; stroke: #2a78d6"/>
     <use xlink:href="#m68b94d3a03" x="204.585343" y="64.416462" style="fill: #2a78d6; stroke: #2a78d6"/>
     <use xlink:href="#m68b94d3a03" x="208.385136" y="61.700336" style="fill: #2a78d6; stroke: #2a78d6"/>
     <use xlink:href="#m68b94d3a03" x="212.184929" y="59.016827" style="fill: #2a78d6; stroke: #2a78d6"/>
     <use xlink:href="#m68b94d3a03" x="215.984722" y="56.334744" style="fill: #2a78d6; stroke: #2a78d6"/>
     <use xlink:href="#m68b94d3a03" x="219.784515" y="53.665405" style="fill: #2a78d6; stroke: #2a78d6"/>
     <use xlink:href="#m68b94d3a03" x="223.584308" y="50.980184" style="fill: #2a78d6; stroke: #2a78d6"/>
     <use xlink:href="#m68b94d3a03" x="227.3841" y="48.29658" style="fill: #2a78d6; stroke: #2a78d6"/>
     <use xlink:href="#m68b94d3a03" x="231.183893" y="45.649018" style="fill: #2a78d6; stroke: #2a78d6"/>
     <use xlink:href="#m68b94d3a03" x="234.983686" y="43.011535" style="fill: #2a78d6; stroke: #2a78d6"/>
     <use xlink:href="#m68b94d3a03" x="238.783479" y="40.384893" style="fill: #2a78d6; stroke: #2a78d6"/>
     <use xlink:href="#m68b94d3a03" x="242.583272" y="37.75616" style="fill: #2a78d6; stroke: #2a78d6"/>
     <use xlink:href="#m68b94d3a03" x="246.383065" y="35.141976" style="fill: #2a78d6; stroke: #2a78d6"/>
     <use xlink:href="#m68b94d3a03" x="250.182857" y="32.527792" style="fill: #2a78d6; stroke: #2a78d6"/>
    </g>
   </g>
   <g id="patch_3">
    <path d="M 54.683516 182.2 
L 54.683516 25.311816 
" style="fill: none; stroke: #c3c2b7; stroke-width: 0.9; stroke-linejoin: miter; stroke-linecap: square"/>
   </g>
   <g id="patch_4">
    <path d="M 54.683516 182.2 
L 259.49235 182.2 
" style="fill: none; stroke: #c3c2b7; stroke-width: 0.9; stroke-linejoin: miter; stroke-linecap: square"/>
   </g>
   <g id="text_16">
    <!-- Counts, 50 checkpoints -->
    <g style="fill: #0b0b0b" transform="translate(54.683516 17.311816) scale(0.13 -0.13)">
     <defs>
      <path id="Cambria-6" d="M 3256 4175 
L 3256 3309 
L 2947 3309 
Q 2872 3581 2756 3742 
Q 2641 3903 2487 3972 
Q 2334 4041 2119 4041 
Q 1797 4041 1545 3827 
Q 1294 3613 1150 3183 
Q 1006 2753 1006 2144 
Q 1006 1531 1125 1098 
Q 1244 666 1475 445 
Q 1706 225 2044 225 
Q 2300 225 2462 298 
Q 2625 372 2736 531 
Q 2847 691 2947 1000 
L 3256 1000 
L 3256 106 
Q 2963 28 2655 -11 
Q 2347 -50 1978 -50 
Q 1184 -50 778 487 
Q 372 1025 372 2091 
Q 372 2759 583 3262 
Q 794 3766 1203 4041 
Q 1613 4316 2181 4316 
Q 2466 4316 2706 4286 
Q 2947 4256 3256 4175 
z
" transform="scale(0.015625)"/>
      <path id="Cambria-1e1" d="M 966 725 
Q 1009 506 1009 294 
Q 1009 75 934 -106 
Q 859 -288 695 -467 
Q 531 -647 244 -863 
L 75 -672 
Q 234 -522 306 -401 
Q 378 -281 409 -128 
Q 441 25 441 256 
Q 441 494 419 725 
L 966 725 
z
" transform="scale(0.015625)"/>
      <path id="Cambria-8a" d="M 1141 2497 
L 1153 2494 
Q 1397 2741 1539 2839 
Q 1681 2938 1820 2988 
Q 1959 3038 2119 3038 
Q 2291 3038 2425 2997 
Q 2559 2956 2661 2873 
Q 2763 2791 2827 2670 
Q 2891 2550 2922 2383 
Q 2953 2216 2953 1959 
L 2953 781 
Q 2953 509 2976 411 
Q 3000 313 3061 258 
Q 3122 203 3306 153 
L 3306 0 
L 2075 0 
L 2075 153 
Q 2197 191 2250 219 
Q 2303 247 2339 297 
Q 2375 347 2395 451 
Q 2416 556 2416 769 
L 2416 1588 
Q 2416 2003 2373 2223 
Q 2331 2444 2207 2553 
Q 2084 2663 1863 2663 
Q 1738 2663 1638 2619 
Q 1538 2575 1406 2462 
Q 1275 2350 1208 2231 
Q 1141 2113 1141 1978 
L 1141 781 
Q 1141 569 1152 478 
Q 1163 388 1194 327 
Q 1225 266 1289 227 
Q 1353 188 1488 153 
L 1488 0 
L 250 0 
L 250 153 
Q 388 191 447 225 
Q 506 259 539 312 
Q 572 366 587 466 
Q 603 566 603 781 
L 603 3397 
Q 603 3697 598 3815 
Q 594 3934 573 4017 
Q 553 4100 517 4147 
Q 481 4194 420 4222 
Q 359 4250 200 4278 
L 200 4441 
L 953 4472 
L 1141 4472 
L 1141 2497 
z
" transform="scale(0.015625)"/>
      <path id="Cambria-8d" d="M 1138 1741 
L 1238 1741 
Q 1341 1741 1406 1763 
Q 1484 1791 1578 1858 
Q 1672 1925 1844 2084 
Q 1988 2219 2061 2312 
Q 2134 2406 2163 2484 
Q 2188 2550 2188 2616 
Q 2188 2709 2130 2762 
Q 2072 2816 1941 2834 
L 1941 2988 
L 3288 2988 
L 3288 2834 
Q 3144 2806 2981 2706 
Q 2819 2606 2647 2444 
L 1928 1763 
L 2828 588 
Q 2984 381 3111 282 
Q 3238 184 3388 153 
L 3388 0 
L 2188 0 
L 2188 153 
Q 2269 163 2308 189 
Q 2347 216 2347 278 
Q 2347 325 2330 370 
Q 2313 416 2259 494 
Q 2206 572 2066 766 
L 1694 1266 
Q 1588 1406 1542 1450 
Q 1497 1494 1447 1512 
Q 1397 1531 1313 1531 
L 1138 1531 
L 1138 781 
Q 1138 513 1163 408 
Q 1188 303 1258 248 
Q 1328 194 1488 153 
L 1488 0 
L 247 0 
L 247 153 
Q 403 194 464 237 
Q 525 281 551 342 
Q 578 403 589 508 
Q 600 613 600 781 
L 600 3397 
Q 600 3697 595 3815 
Q 591 3934 570 4017 
Q 550 4100 514 4147 
Q 478 4194 417 4222 
Q 356 4250 197 4278 
L 197 4441 
L 950 4472 
L 1138 4472 
L 1138 1741 
z
" transform="scale(0.015625)"/>
     </defs>
     <use xlink:href="#Cambria-6"/>
     <use xlink:href="#Cambria-91" transform="translate(56.25 0)"/>
     <use xlink:href="#Cambria-97" transform="translate(109.328125 0)"/>
     <use xlink:href="#Cambria-90" transform="translate(164.546875 0)"/>
     <use xlink:href="#Cambria-96" transform="translate(220.359375 0)"/>
     <use xlink:href="#Cambria-95" transform="translate(254.203125 0)"/>
     <use xlink:href="#Cambria-1e1" transform="translate(297.171875 0)"/>
     <use xlink:href="#Cambria-3" transform="translate(317.6875 0)"/>
     <use xlink:href="#Cambria-377" transform="translate(339.703125 0)"/>
     <use xlink:href="#Cambria-372" transform="translate(395.078125 0)"/>
     <use xlink:href="#Cambria-3" transform="translate(450.453125 0)"/>
     <use xlink:href="#Cambria-85" transform="translate(472.46875 0)"/>
     <use xlink:href="#Cambria-8a" transform="translate(516.5625 0)"/>
     <use xlink:href="#Cambria-87" transform="translate(571.734375 0)"/>
     <use xlink:href="#Cambria-85" transform="translate(620.515625 0)"/>
     <use xlink:href="#Cambria-8d" transform="translate(664.609375 0)"/>
     <use xlink:href="#Cambria-92" transform="translate(716.3125 0)"/>
     <use xlink:href="#Cambria-91" transform="translate(771.921875 0)"/>
     <use xlink:href="#Cambria-8b" transform="translate(825 0)"/>
     <use xlink:href="#Cambria-90" transform="translate(852.78125 0)"/>
     <use xlink:href="#Cambria-96" transform="translate(908.59375 0)"/>
     <use xlink:href="#Cambria-95" transform="translate(942.4375 0)"/>
    </g>
   </g>
   <g id="legend_1">
    <g id="line2d_29">
     <path d="M 62.603516 36.996738 
L 71.403516 36.996738 
L 80.203516 36.996738 
" style="fill: none; stroke: #eb6834; stroke-width: 1.6; stroke-linecap: square"/>
    </g>
    <g id="text_17">
     <!-- integral prediction (eq. 7.1) -->
     <g transform="translate(87.243516 40.076738) scale(0.088 -0.088)">
      <defs>
       <path id="Cambria-89" d="M 3106 2672 
L 2528 2694 
L 2500 2659 
Q 2597 2563 2653 2395 
Q 2709 2228 2709 2034 
Q 2709 1525 2395 1248 
Q 2081 972 1503 972 
Q 1244 972 1056 1038 
Q 819 856 819 681 
Q 819 566 864 506 
Q 909 447 1014 422 
Q 1119 397 1331 397 
L 2081 397 
Q 2413 397 2622 294 
Q 2831 191 2920 17 
Q 3009 -156 3009 -388 
Q 3009 -681 2840 -911 
Q 2672 -1141 2353 -1269 
Q 2034 -1397 1609 -1397 
Q 1294 -1397 1033 -1359 
Q 772 -1322 586 -1233 
Q 400 -1144 298 -998 
Q 197 -853 197 -634 
Q 197 -438 328 -277 
Q 459 -116 700 6 
Q 553 66 468 181 
Q 384 297 384 453 
Q 384 631 484 779 
Q 584 928 838 1119 
Q 613 1250 495 1475 
Q 378 1700 378 1988 
Q 378 2256 467 2454 
Q 556 2653 714 2783 
Q 872 2913 1087 2977 
Q 1303 3041 1553 3041 
Q 1778 3041 2000 2988 
L 3106 2988 
L 3106 2672 
z
M 938 2038 
Q 938 1647 1097 1434 
Q 1256 1222 1556 1222 
Q 1716 1222 1828 1283 
Q 1941 1344 2011 1450 
Q 2081 1556 2114 1695 
Q 2147 1834 2147 1988 
Q 2147 2263 2069 2447 
Q 1991 2631 1856 2717 
Q 1722 2803 1547 2803 
Q 1250 2803 1094 2606 
Q 938 2409 938 2038 
z
M 1016 -50 
Q 856 -169 776 -301 
Q 697 -434 697 -603 
Q 697 -884 920 -1017 
Q 1144 -1150 1603 -1150 
Q 1884 -1150 2086 -1075 
Q 2288 -1000 2394 -859 
Q 2500 -719 2500 -531 
Q 2500 -444 2478 -361 
Q 2456 -278 2395 -212 
Q 2334 -147 2221 -108 
Q 2109 -69 1928 -69 
L 1463 -69 
Q 1209 -69 1016 -50 
z
" transform="scale(0.015625)"/>
       <path id="Cambria-83" d="M 2109 447 
L 2063 459 
Q 1791 181 1552 65 
Q 1313 -50 1044 -50 
Q 806 -50 625 42 
Q 444 134 347 301 
Q 250 469 250 688 
Q 250 1144 701 1392 
Q 1153 1641 2056 1681 
L 2056 1884 
Q 2056 2209 1993 2396 
Q 1931 2584 1797 2671 
Q 1663 2759 1438 2759 
Q 1194 2759 1045 2631 
Q 897 2503 822 2247 
L 413 2247 
L 413 2653 
Q 713 2809 913 2882 
Q 1113 2956 1313 2998 
Q 1513 3041 1719 3041 
Q 2028 3041 2215 2942 
Q 2403 2844 2497 2641 
Q 2591 2438 2591 2028 
L 2591 941 
Q 2591 709 2594 614 
Q 2597 519 2612 437 
Q 2628 356 2659 307 
Q 2691 259 2752 225 
Q 2813 191 2950 153 
L 2950 0 
L 2094 0 
L 2109 447 
z
M 2056 1425 
Q 1422 1419 1106 1256 
Q 791 1094 791 766 
Q 791 588 862 484 
Q 934 381 1043 342 
Q 1153 303 1303 303 
Q 1516 303 1689 406 
Q 1863 509 1959 668 
Q 2056 828 2056 984 
L 2056 1425 
z
" transform="scale(0.015625)"/>
       <path id="Cambria-8e" d="M 1138 781 
Q 1138 513 1163 408 
Q 1188 303 1258 248 
Q 1328 194 1488 153 
L 1488 0 
L 247 0 
L 247 153 
Q 403 194 464 237 
Q 525 281 551 342 
Q 578 403 589 508 
Q 600 613 600 781 
L 600 3397 
Q 600 3697 595 3815 
Q 591 3934 570 4017 
Q 550 4100 514 4147 
Q 478 4194 417 4222 
Q 356 4250 197 4278 
L 197 4441 
L 950 4472 
L 1138 4472 
L 1138 781 
z
" transform="scale(0.015625)"/>
       <path id="Cambria-86" d="M 2413 3397 
Q 2413 3697 2408 3815 
Q 2403 3934 2383 4017 
Q 2363 4100 2327 4147 
Q 2291 4194 2230 4222 
Q 2169 4250 2009 4278 
L 2009 4441 
L 2766 4472 
L 2950 4472 
L 2950 853 
Q 2950 609 2959 504 
Q 2969 400 3000 337 
Q 3031 275 3098 236 
Q 3166 197 3334 163 
L 3334 0 
L 2597 -31 
L 2409 -31 
L 2447 481 
L 2400 494 
Q 2203 284 2058 179 
Q 1913 75 1748 12 
Q 1584 -50 1397 -50 
Q 884 -50 606 339 
Q 328 728 328 1463 
Q 328 1975 509 2333 
Q 691 2691 998 2866 
Q 1306 3041 1691 3041 
Q 1897 3041 2065 3008 
Q 2234 2975 2413 2900 
L 2413 3397 
z
M 2413 1853 
Q 2413 2097 2391 2244 
Q 2369 2391 2317 2491 
Q 2266 2591 2178 2659 
Q 2091 2728 1986 2759 
Q 1881 2791 1734 2791 
Q 1334 2791 1125 2470 
Q 916 2150 916 1550 
Q 916 950 1087 637 
Q 1259 325 1609 325 
Q 1747 325 1837 348 
Q 1928 372 2015 423 
Q 2103 475 2193 565 
Q 2284 656 2326 731 
Q 2369 806 2391 903 
Q 2413 1000 2413 1153 
L 2413 1853 
z
" transform="scale(0.015625)"/>
       <path id="Cambria-1e4" d="M 972 725 
L 972 0 
L 341 0 
L 341 725 
L 972 725 
z
" transform="scale(0.015625)"/>
      </defs>
      <use xlink:href="#Cambria-8b"/>
      <use xlink:href="#Cambria-90" transform="translate(27.78125 0)"/>
      <use xlink:href="#Cambria-96" transform="translate(83.59375 0)"/>
      <use xlink:href="#Cambria-87" transform="translate(116.5625 0)"/>
      <use xlink:href="#Cambria-89" transform="translate(165.34375 0)"/>
      <use xlink:href="#Cambria-94" transform="translate(214.765625 0)"/>
      <use xlink:href="#Cambria-83" transform="translate(254.421875 0)"/>
      <use xlink:href="#Cambria-8e" transform="translate(303.25 0)"/>
      <use xlink:href="#Cambria-3" transform="translate(330.40625 0)"/>
      <use xlink:href="#Cambria-92" transform="translate(352.421875 0)"/>
      <use xlink:href="#Cambria-94" transform="translate(408.03125 0)"/>
      <use xlink:href="#Cambria-87" transform="translate(447.921875 0)"/>
      <use xlink:href="#Cambria-86" transform="translate(496.703125 0)"/>
      <use xlink:href="#Cambria-8b" transform="translate(552.171875 0)"/>
      <use xlink:href="#Cambria-85" transform="translate(579.953125 0)"/>
      <use xlink:href="#Cambria-96" transform="translate(624.046875 0)"/>
      <use xlink:href="#Cambria-8b" transform="translate(657.890625 0)"/>
      <use xlink:href="#Cambria-91" transform="translate(685.671875 0)"/>
      <use xlink:href="#Cambria-90" transform="translate(738.75 0)"/>
      <use xlink:href="#Cambria-3" transform="translate(794.5625 0)"/>
      <use xlink:href="#Cambria-20b" transform="translate(816.578125 0)"/>
      <use xlink:href="#Cambria-87" transform="translate(854.765625 0)"/>
      <use xlink:href="#Cambria-93" transform="translate(903.546875 0)"/>
      <use xlink:href="#Cambria-1e4" transform="translate(958.234375 0)"/>
      <use xlink:href="#Cambria-3" transform="translate(978.75 0)"/>
      <use xlink:href="#Cambria-379" transform="translate(1000.765625 0)"/>
      <use xlink:href="#Cambria-1e4" transform="translate(1056.140625 0)"/>
      <use xlink:href="#Cambria-373" transform="translate(1076.65625 0)"/>
      <use xlink:href="#Cambria-20c" transform="translate(1132.03125 0)"/>
     </g>
    </g>
    <g id="line2d_30">
     <path d="M 62.603516 50.196738 
L 71.403516 50.196738 
L 80.203516 50.196738 
" style="fill: none"/>
     <g>
      <use xlink:href="#m68b94d3a03" x="71.403516" y="50.196738" style="fill: #2a78d6; stroke: #2a78d6"/>
     </g>
    </g>
    <g id="text_18">
     <!-- exact count -->
     <g transform="translate(87.243516 53.276738) scale(0.088 -0.088)">
      <defs>
       <path id="Cambria-9a" d="M 1625 1803 
L 2031 2319 
Q 2097 2403 2137 2483 
Q 2178 2563 2178 2647 
Q 2178 2719 2125 2766 
Q 2072 2813 1959 2834 
L 1959 2988 
L 2981 2988 
L 2981 2834 
Q 2863 2800 2739 2700 
Q 2616 2600 2438 2378 
L 1791 1584 
L 2503 625 
Q 2656 419 2778 309 
Q 2900 200 3022 153 
L 3022 0 
L 1766 0 
L 1766 153 
Q 2025 184 2025 347 
Q 2025 413 2003 472 
Q 1981 531 1922 609 
L 1469 1241 
L 988 616 
Q 934 547 904 489 
Q 875 431 875 359 
Q 875 275 933 220 
Q 991 166 1116 153 
L 1116 0 
L 72 0 
L 72 153 
Q 175 191 258 247 
Q 341 303 427 392 
Q 513 481 653 653 
L 1303 1459 
L 638 2372 
Q 500 2559 419 2643 
Q 338 2728 269 2772 
Q 200 2816 131 2834 
L 131 2988 
L 1356 2988 
L 1356 2834 
Q 1109 2797 1109 2641 
Q 1109 2569 1142 2497 
Q 1175 2425 1244 2338 
L 1625 1803 
z
" transform="scale(0.015625)"/>
      </defs>
      <use xlink:href="#Cambria-87"/>
      <use xlink:href="#Cambria-9a" transform="translate(47.609375 0)"/>
      <use xlink:href="#Cambria-83" transform="translate(94.59375 0)"/>
      <use xlink:href="#Cambria-85" transform="translate(143.421875 0)"/>
      <use xlink:href="#Cambria-96" transform="translate(187.515625 0)"/>
      <use xlink:href="#Cambria-3" transform="translate(221.359375 0)"/>
      <use xlink:href="#Cambria-85" transform="translate(243.375 0)"/>
      <use xlink:href="#Cambria-91" transform="translate(287.46875 0)"/>
      <use xlink:href="#Cambria-97" transform="translate(340.546875 0)"/>
      <use xlink:href="#Cambria-90" transform="translate(395.765625 0)"/>
      <use xlink:href="#Cambria-96" transform="translate(451.578125 0)"/>
     </g>
    </g>
   </g>
  </g>
  <g id="axes_2">
   <g id="patch_5">
    <path d="M 312.775508 182.2 
L 517.584342 182.2 
L 517.584342 25.311816 
L 312.775508 25.311816 
z
" style="fill: #fcfcfb"/>
   </g>
   <g id="matplotlib.axis_3">
    <g id="xtick_7">
     <g id="line2d_31">
      <path d="M 318.285207 182.2 
L 318.285207 25.311816 
" clip-path="url(#p79ed421f6c)" style="fill: none; stroke: #e1e0d9; stroke-width: 0.7; stroke-linecap: square"/>
     </g>
     <g id="line2d_32">
      <g>
       <use xlink:href="#m33db556d2f" x="318.285207" y="182.2" style="fill: #898781; stroke: #898781; stroke-width: 0.8"/>
      </g>
     </g>
     <g id="text_19">
      <!-- 0 -->
      <g style="fill: #52514e" transform="translate(315.37802 197.367236) scale(0.105 -0.105)">
       <use xlink:href="#Cambria-372"/>
      </g>
     </g>
    </g>
    <g id="xtick_8">
     <g id="line2d_33">
      <path d="M 356.283136 182.2 
L 356.283136 25.311816 
" clip-path="url(#p79ed421f6c)" style="fill: none; stroke: #e1e0d9; stroke-width: 0.7; stroke-linecap: square"/>
     </g>
     <g id="line2d_34">
      <g>
       <use xlink:href="#m33db556d2f" x="356.283136" y="182.2" style="fill: #898781; stroke: #898781; stroke-width: 0.8"/>
      </g>
     </g>
     <g id="text_20">
      <!-- 2 -->
      <g style="fill: #52514e" transform="translate(353.375948 197.367236) scale(0.105 -0.105)">
       <use xlink:href="#Cambria-374"/>
      </g>
     </g>
    </g>
    <g id="xtick_9">
     <g id="line2d_35">
      <path d="M 394.281064 182.2 
L 394.281064 25.311816 
" clip-path="url(#p79ed421f6c)" style="fill: none; stroke: #e1e0d9; stroke-width: 0.7; stroke-linecap: square"/>
     </g>
     <g id="line2d_36">
      <g>
       <use xlink:href="#m33db556d2f" x="394.281064" y="182.2" style="fill: #898781; stroke: #898781; stroke-width: 0.8"/>
      </g>
     </g>
     <g id="text_21">
      <!-- 4 -->
      <g style="fill: #52514e" transform="translate(391.373877 197.367236) scale(0.105 -0.105)">
       <use xlink:href="#Cambria-376"/>
      </g>
     </g>
    </g>
    <g id="xtick_10">
     <g id="line2d_37">
      <path d="M 432.278993 182.2 
L 432.278993 25.311816 
" clip-path="url(#p79ed421f6c)" style="fill: none; stroke: #e1e0d9; stroke-width: 0.7; stroke-linecap: square"/>
     </g>
     <g id="line2d_38">
      <g>
       <use xlink:href="#m33db556d2f" x="432.278993" y="182.2" style="fill: #898781; stroke: #898781; stroke-width: 0.8"/>
      </g>
     </g>
     <g id="text_22">
      <!-- 6 -->
      <g style="fill: #52514e" transform="translate(429.371805 197.367236) scale(0.105 -0.105)">
       <use xlink:href="#Cambria-378"/>
      </g>
     </g>
    </g>
    <g id="xtick_11">
     <g id="line2d_39">
      <path d="M 470.276921 182.2 
L 470.276921 25.311816 
" clip-path="url(#p79ed421f6c)" style="fill: none; stroke: #e1e0d9; stroke-width: 0.7; stroke-linecap: square"/>
     </g>
     <g id="line2d_40">
      <g>
       <use xlink:href="#m33db556d2f" x="470.276921" y="182.2" style="fill: #898781; stroke: #898781; stroke-width: 0.8"/>
      </g>
     </g>
     <g id="text_23">
      <!-- 8 -->
      <g style="fill: #52514e" transform="translate(467.369734 197.367236) scale(0.105 -0.105)">
       <use xlink:href="#Cambria-37a"/>
      </g>
     </g>
    </g>
    <g id="xtick_12">
     <g id="line2d_41">
      <path d="M 508.27485 182.2 
L 508.27485 25.311816 
" clip-path="url(#p79ed421f6c)" style="fill: none; stroke: #e1e0d9; stroke-width: 0.7; stroke-linecap: square"/>
     </g>
     <g id="line2d_42">
      <g>
       <use xlink:href="#m33db556d2f" x="508.27485" y="182.2" style="fill: #898781; stroke: #898781; stroke-width: 0.8"/>
      </g>
     </g>
     <g id="text_24">
      <!-- 10 -->
      <g style="fill: #52514e" transform="translate(502.460475 197.367236) scale(0.105 -0.105)">
       <use xlink:href="#Cambria-373"/>
       <use xlink:href="#Cambria-372" transform="translate(55.375 0)"/>
      </g>
     </g>
    </g>
    <g id="text_25">
     <!-- cutoff $x$  ($\times 10^8$) -->
     <g style="fill: #0b0b0b" transform="translate(375.039925 214.26) scale(0.12 -0.12)">
      <use xlink:href="#Cambria-85" transform="translate(0 0.084203)"/>
      <use xlink:href="#Cambria-97" transform="translate(44.091797 0.084203)"/>
      <use xlink:href="#Cambria-96" transform="translate(99.316406 0.084203)"/>
      <use xlink:href="#Cambria-91" transform="translate(133.154297 0.084203)"/>
      <use xlink:href="#Cambria-88" transform="translate(186.230469 0.084203)"/>
      <use xlink:href="#Cambria-88" transform="translate(216.503906 0.084203)"/>
      <use xlink:href="#Cambria-3" transform="translate(246.777344 0.084203)"/>
      <use xlink:href="#Cmmi10-3f" transform="translate(268.798828 0.084203)"/>
      <use xlink:href="#Cambria-3" transform="translate(325.878906 0.084203)"/>
      <use xlink:href="#Cambria-3" transform="translate(347.900391 0.084203)"/>
      <use xlink:href="#Cambria-20b" transform="translate(369.921875 0.084203)"/>
      <use xlink:href="#Cmsy10-d" transform="translate(408.105469 0.084203)"/>
      <use xlink:href="#Cmr10-64" transform="translate(485.791016 0.084203)"/>
      <use xlink:href="#Cmr10-28" transform="translate(535.791016 0.084203)"/>
      <use xlink:href="#Cmr10-4d" transform="translate(589.795306 41.373437) scale(0.7)"/>
      <use xlink:href="#Cambria-20c" transform="translate(630.515722 0.084203)"/>
     </g>
    </g>
   </g>
   <g id="matplotlib.axis_4">
    <g id="ytick_8">
     <g id="line2d_43">
      <path d="M 312.775508 182.2 
L 517.584342 182.2 
" clip-path="url(#p79ed421f6c)" style="fill: none; stroke: #e1e0d9; stroke-width: 0.7; stroke-linecap: square"/>
     </g>
     <g id="line2d_44">
      <g>
       <use xlink:href="#m08cc62d4c1" x="312.775508" y="182.2" style="fill: #898781; stroke: #898781; stroke-width: 0.8"/>
      </g>
     </g>
     <g id="text_26">
      <!-- 0.995 -->
      <g style="fill: #52514e" transform="translate(280.363867 186.283618) scale(0.105 -0.105)">
       <defs>
        <path id="Cambria-37b" d="M 978 122 
L 978 275 
Q 1416 275 1736 469 
Q 2056 663 2251 1042 
Q 2447 1422 2513 2038 
L 2481 2050 
Q 2219 1863 1964 1775 
Q 1709 1688 1413 1688 
Q 1059 1688 811 1842 
Q 563 1997 438 2276 
Q 313 2556 313 2931 
Q 313 3213 406 3464 
Q 500 3716 684 3905 
Q 869 4094 1145 4205 
Q 1422 4316 1791 4316 
Q 2447 4316 2790 3862 
Q 3134 3409 3134 2559 
Q 3134 1781 2881 1211 
Q 2628 641 2172 323 
Q 1716 6 1106 -50 
L 978 122 
z
M 1628 2016 
Q 1747 2016 1855 2036 
Q 1963 2056 2066 2095 
Q 2169 2134 2267 2195 
Q 2366 2256 2444 2325 
Q 2472 2350 2494 2390 
Q 2516 2431 2528 2497 
Q 2541 2563 2541 2703 
Q 2541 3131 2455 3436 
Q 2369 3741 2192 3895 
Q 2016 4050 1756 4050 
Q 1522 4050 1359 3969 
Q 1197 3888 1095 3745 
Q 994 3603 947 3411 
Q 900 3219 900 2994 
Q 900 2528 1090 2272 
Q 1281 2016 1628 2016 
z
" transform="scale(0.015625)"/>
       </defs>
       <use xlink:href="#Cambria-372"/>
       <use xlink:href="#Cambria-1e4" transform="translate(55.375 0)"/>
       <use xlink:href="#Cambria-37b" transform="translate(75.890625 0)"/>
       <use xlink:href="#Cambria-37b" transform="translate(131.265625 0)"/>
       <use xlink:href="#Cambria-377" transform="translate(186.640625 0)"/>
      </g>
     </g>
    </g>
    <g id="ytick_9">
     <g id="line2d_45">
      <path d="M 312.775508 156.051969 
L 517.584342 156.051969 
" clip-path="url(#p79ed421f6c)" style="fill: none; stroke: #e1e0d9; stroke-width: 0.7; stroke-linecap: square"/>
     </g>
     <g id="line2d_46">
      <g>
       <use xlink:href="#m08cc62d4c1" x="312.775508" y="156.051969" style="fill: #898781; stroke: #898781; stroke-width: 0.8"/>
      </g>
     </g>
     <g id="text_27">
      <!-- 0.996 -->
      <g style="fill: #52514e" transform="translate(280.363867 160.135588) scale(0.105 -0.105)">
       <use xlink:href="#Cambria-372"/>
       <use xlink:href="#Cambria-1e4" transform="translate(55.375 0)"/>
       <use xlink:href="#Cambria-37b" transform="translate(75.890625 0)"/>
       <use xlink:href="#Cambria-37b" transform="translate(131.265625 0)"/>
       <use xlink:href="#Cambria-378" transform="translate(186.640625 0)"/>
      </g>
     </g>
    </g>
    <g id="ytick_10">
     <g id="line2d_47">
      <path d="M 312.775508 129.903939 
L 517.584342 129.903939 
" clip-path="url(#p79ed421f6c)" style="fill: none; stroke: #e1e0d9; stroke-width: 0.7; stroke-linecap: square"/>
     </g>
     <g id="line2d_48">
      <g>
       <use xlink:href="#m08cc62d4c1" x="312.775508" y="129.903939" style="fill: #898781; stroke: #898781; stroke-width: 0.8"/>
      </g>
     </g>
     <g id="text_28">
      <!-- 0.997 -->
      <g style="fill: #52514e" transform="translate(280.363867 133.987557) scale(0.105 -0.105)">
       <use xlink:href="#Cambria-372"/>
       <use xlink:href="#Cambria-1e4" transform="translate(55.375 0)"/>
       <use xlink:href="#Cambria-37b" transform="translate(75.890625 0)"/>
       <use xlink:href="#Cambria-37b" transform="translate(131.265625 0)"/>
       <use xlink:href="#Cambria-379" transform="translate(186.640625 0)"/>
      </g>
     </g>
    </g>
    <g id="ytick_11">
     <g id="line2d_49">
      <path d="M 312.775508 103.755908 
L 517.584342 103.755908 
" clip-path="url(#p79ed421f6c)" style="fill: none; stroke: #e1e0d9; stroke-width: 0.7; stroke-linecap: square"/>
     </g>
     <g id="line2d_50">
      <g>
       <use xlink:href="#m08cc62d4c1" x="312.775508" y="103.755908" style="fill: #898781; stroke: #898781; stroke-width: 0.8"/>
      </g>
     </g>
     <g id="text_29">
      <!-- 0.998 -->
      <g style="fill: #52514e" transform="translate(280.363867 107.839526) scale(0.105 -0.105)">
       <use xlink:href="#Cambria-372"/>
       <use xlink:href="#Cambria-1e4" transform="translate(55.375 0)"/>
       <use xlink:href="#Cambria-37b" transform="translate(75.890625 0)"/>
       <use xlink:href="#Cambria-37b" transform="translate(131.265625 0)"/>
       <use xlink:href="#Cambria-37a" transform="translate(186.640625 0)"/>
      </g>
     </g>
    </g>
    <g id="ytick_12">
     <g id="line2d_51">
      <path d="M 312.775508 77.607878 
L 517.584342 77.607878 
" clip-path="url(#p79ed421f6c)" style="fill: none; stroke: #e1e0d9; stroke-width: 0.7; stroke-linecap: square"/>
     </g>
     <g id="line2d_52">
      <g>
       <use xlink:href="#m08cc62d4c1" x="312.775508" y="77.607878" style="fill: #898781; stroke: #898781; stroke-width: 0.8"/>
      </g>
     </g>
     <g id="text_30">
      <!-- 0.999 -->
      <g style="fill: #52514e" transform="translate(280.363867 81.691496) scale(0.105 -0.105)">
       <use xlink:href="#Cambria-372"/>
       <use xlink:href="#Cambria-1e4" transform="translate(55.375 0)"/>
       <use xlink:href="#Cambria-37b" transform="translate(75.890625 0)"/>
       <use xlink:href="#Cambria-37b" transform="translate(131.265625 0)"/>
       <use xlink:href="#Cambria-37b" transform="translate(186.640625 0)"/>
      </g>
     </g>
    </g>
    <g id="ytick_13">
     <g id="line2d_53">
      <path d="M 312.775508 51.459847 
L 517.584342 51.459847 
" clip-path="url(#p79ed421f6c)" style="fill: none; stroke: #e1e0d9; stroke-width: 0.7; stroke-linecap: square"/>
     </g>
     <g id="line2d_54">
      <g>
       <use xlink:href="#m08cc62d4c1" x="312.775508" y="51.459847" style="fill: #898781; stroke: #898781; stroke-width: 0.8"/>
      </g>
     </g>
     <g id="text_31">
      <!-- 1.000 -->
      <g style="fill: #52514e" transform="translate(280.363867 55.543465) scale(0.105 -0.105)">
       <use xlink:href="#Cambria-373"/>
       <use xlink:href="#Cambria-1e4" transform="translate(55.375 0)"/>
       <use xlink:href="#Cambria-372" transform="translate(75.890625 0)"/>
       <use xlink:href="#Cambria-372" transform="translate(131.265625 0)"/>
       <use xlink:href="#Cambria-372" transform="translate(186.640625 0)"/>
      </g>
     </g>
    </g>
    <g id="ytick_14">
     <g id="line2d_55">
      <path d="M 312.775508 25.311816 
L 517.584342 25.311816 
" clip-path="url(#p79ed421f6c)" style="fill: none; stroke: #e1e0d9; stroke-width: 0.7; stroke-linecap: square"/>
     </g>
     <g id="line2d_56">
      <g>
       <use xlink:href="#m08cc62d4c1" x="312.775508" y="25.311816" style="fill: #898781; stroke: #898781; stroke-width: 0.8"/>
      </g>
     </g>
     <g id="text_32">
      <!-- 1.001 -->
      <g style="fill: #52514e" transform="translate(280.363867 29.395435) scale(0.105 -0.105)">
       <use xlink:href="#Cambria-373"/>
       <use xlink:href="#Cambria-1e4" transform="translate(55.375 0)"/>
       <use xlink:href="#Cambria-372" transform="translate(75.890625 0)"/>
       <use xlink:href="#Cambria-372" transform="translate(131.265625 0)"/>
       <use xlink:href="#Cambria-373" transform="translate(186.640625 0)"/>
      </g>
     </g>
    </g>
    <g id="text_33">
     <!-- observed / predicted -->
     <g style="fill: #0b0b0b" transform="translate(273.697852 157.486846) rotate(-90) scale(0.12 -0.12)">
      <defs>
       <path id="Cambria-84" d="M 1091 2497 
L 1103 2494 
Q 1322 2722 1467 2825 
Q 1613 2928 1767 2983 
Q 1922 3038 2106 3038 
Q 2441 3038 2680 2867 
Q 2919 2697 3048 2356 
Q 3178 2016 3178 1522 
Q 3178 1013 3023 661 
Q 2869 309 2567 129 
Q 2266 -50 1853 -50 
Q 1622 -50 1417 -8 
Q 1213 34 988 141 
L 769 -50 
L 553 0 
L 553 3397 
Q 553 3697 548 3815 
Q 544 3934 523 4017 
Q 503 4100 467 4147 
Q 431 4194 370 4222 
Q 309 4250 150 4278 
L 150 4441 
L 906 4472 
L 1091 4472 
L 1091 2497 
z
M 1091 1125 
Q 1091 884 1112 742 
Q 1134 600 1186 506 
Q 1238 413 1336 334 
Q 1434 256 1556 226 
Q 1678 197 1828 197 
Q 2203 197 2397 503 
Q 2591 809 2591 1422 
Q 2591 2041 2414 2352 
Q 2238 2663 1881 2663 
Q 1703 2663 1578 2608 
Q 1453 2553 1329 2437 
Q 1206 2322 1148 2209 
Q 1091 2097 1091 1953 
L 1091 1125 
z
" transform="scale(0.015625)"/>
       <path id="Cambria-200" d="M 2941 4472 
L 684 -1344 
L 194 -1344 
L 2456 4472 
L 2941 4472 
z
" transform="scale(0.015625)"/>
      </defs>
      <use xlink:href="#Cambria-91"/>
      <use xlink:href="#Cambria-84" transform="translate(53.078125 0)"/>
      <use xlink:href="#Cambria-95" transform="translate(107.8125 0)"/>
      <use xlink:href="#Cambria-87" transform="translate(150.78125 0)"/>
      <use xlink:href="#Cambria-94" transform="translate(199.5625 0)"/>
      <use xlink:href="#Cambria-98" transform="translate(240.921875 0)"/>
      <use xlink:href="#Cambria-87" transform="translate(289.359375 0)"/>
      <use xlink:href="#Cambria-86" transform="translate(338.140625 0)"/>
      <use xlink:href="#Cambria-3" transform="translate(393.609375 0)"/>
      <use xlink:href="#Cambria-200" transform="translate(415.625 0)"/>
      <use xlink:href="#Cambria-3" transform="translate(464.65625 0)"/>
      <use xlink:href="#Cambria-92" transform="translate(486.671875 0)"/>
      <use xlink:href="#Cambria-94" transform="translate(542.28125 0)"/>
      <use xlink:href="#Cambria-87" transform="translate(582.171875 0)"/>
      <use xlink:href="#Cambria-86" transform="translate(630.953125 0)"/>
      <use xlink:href="#Cambria-8b" transform="translate(686.421875 0)"/>
      <use xlink:href="#Cambria-85" transform="translate(714.203125 0)"/>
      <use xlink:href="#Cambria-96" transform="translate(758.296875 0)"/>
      <use xlink:href="#Cambria-87" transform="translate(791.265625 0)"/>
      <use xlink:href="#Cambria-86" transform="translate(840.046875 0)"/>
     </g>
    </g>
   </g>
   <g id="line2d_57">
    <path d="M 322.085 164.159451 
L 325.884793 68.783934 
L 329.684586 49.042218 
L 333.484379 83.115722 
L 337.284172 79.661711 
L 341.083964 74.578586 
L 344.883757 66.785515 
L 348.68355 62.850936 
L 352.483343 72.978449 
L 356.283136 58.167204 
L 360.082929 56.371264 
L 363.882722 57.284072 
L 367.682514 57.479534 
L 371.482307 50.375205 
L 375.2821 49.164645 
L 379.081893 48.173279 
L 382.881686 51.69498 
L 386.681479 51.592232 
L 390.481271 48.560589 
L 394.281064 45.206388 
L 398.080857 63.197859 
L 401.88065 61.162575 
L 405.680443 62.835967 
L 409.480236 68.398396 
L 413.280029 70.111994 
L 417.079821 63.275381 
L 420.879614 65.505521 
L 424.679407 63.334464 
L 428.4792 58.503038 
L 432.278993 57.584039 
L 436.078786 54.018193 
L 439.878578 56.806162 
L 443.678371 52.720568 
L 447.478164 52.631743 
L 451.277957 54.079974 
L 455.07775 53.264025 
L 458.877543 54.378954 
L 462.677335 56.396072 
L 466.477128 52.378398 
L 470.276921 54.0564 
L 474.076714 54.496861 
L 477.876507 56.164535 
L 481.6763 53.211334 
L 485.476093 49.432545 
L 489.275885 51.618752 
L 493.075678 54.491118 
L 496.875471 58.181885 
L 500.675264 60.292543 
L 504.475057 63.941256 
L 508.27485 66.487678 
" clip-path="url(#p79ed421f6c)" style="fill: none; stroke: #2a78d6; stroke-width: 2; stroke-linecap: square"/>
    <g clip-path="url(#p79ed421f6c)">
     <use xlink:href="#m68b94d3a03" x="322.085" y="164.159451" style="fill: #2a78d6; stroke: #2a78d6"/>
     <use xlink:href="#m68b94d3a03" x="325.884793" y="68.783934" style="fill: #2a78d6; stroke: #2a78d6"/>
     <use xlink:href="#m68b94d3a03" x="329.684586" y="49.042218" style="fill: #2a78d6; stroke: #2a78d6"/>
     <use xlink:href="#m68b94d3a03" x="333.484379" y="83.115722" style="fill: #2a78d6; stroke: #2a78d6"/>
     <use xlink:href="#m68b94d3a03" x="337.284172" y="79.661711" style="fill: #2a78d6; stroke: #2a78d6"/>
     <use xlink:href="#m68b94d3a03" x="341.083964" y="74.578586" style="fill: #2a78d6; stroke: #2a78d6"/>
     <use xlink:href="#m68b94d3a03" x="344.883757" y="66.785515" style="fill: #2a78d6; stroke: #2a78d6"/>
     <use xlink:href="#m68b94d3a03" x="348.68355" y="62.850936" style="fill: #2a78d6; stroke: #2a78d6"/>
     <use xlink:href="#m68b94d3a03" x="352.483343" y="72.978449" style="fill: #2a78d6; stroke: #2a78d6"/>
     <use xlink:href="#m68b94d3a03" x="356.283136" y="58.167204" style="fill: #2a78d6; stroke: #2a78d6"/>
     <use xlink:href="#m68b94d3a03" x="360.082929" y="56.371264" style="fill: #2a78d6; stroke: #2a78d6"/>
     <use xlink:href="#m68b94d3a03" x="363.882722" y="57.284072" style="fill: #2a78d6; stroke: #2a78d6"/>
     <use xlink:href="#m68b94d3a03" x="367.682514" y="57.479534" style="fill: #2a78d6; stroke: #2a78d6"/>
     <use xlink:href="#m68b94d3a03" x="371.482307" y="50.375205" style="fill: #2a78d6; stroke: #2a78d6"/>
     <use xlink:href="#m68b94d3a03" x="375.2821" y="49.164645" style="fill: #2a78d6; stroke: #2a78d6"/>
     <use xlink:href="#m68b94d3a03" x="379.081893" y="48.173279" style="fill: #2a78d6; stroke: #2a78d6"/>
     <use xlink:href="#m68b94d3a03" x="382.881686" y="51.69498" style="fill: #2a78d6; stroke: #2a78d6"/>
     <use xlink:href="#m68b94d3a03" x="386.681479" y="51.592232" style="fill: #2a78d6; stroke: #2a78d6"/>
     <use xlink:href="#m68b94d3a03" x="390.481271" y="48.560589" style="fill: #2a78d6; stroke: #2a78d6"/>
     <use xlink:href="#m68b94d3a03" x="394.281064" y="45.206388" style="fill: #2a78d6; stroke: #2a78d6"/>
     <use xlink:href="#m68b94d3a03" x="398.080857" y="63.197859" style="fill: #2a78d6; stroke: #2a78d6"/>
     <use xlink:href="#m68b94d3a03" x="401.88065" y="61.162575" style="fill: #2a78d6; stroke: #2a78d6"/>
     <use xlink:href="#m68b94d3a03" x="405.680443" y="62.835967" style="fill: #2a78d6; stroke: #2a78d6"/>
     <use xlink:href="#m68b94d3a03" x="409.480236" y="68.398396" style="fill: #2a78d6; stroke: #2a78d6"/>
     <use xlink:href="#m68b94d3a03" x="413.280029" y="70.111994" style="fill: #2a78d6; stroke: #2a78d6"/>
     <use xlink:href="#m68b94d3a03" x="417.079821" y="63.275381" style="fill: #2a78d6; stroke: #2a78d6"/>
     <use xlink:href="#m68b94d3a03" x="420.879614" y="65.505521" style="fill: #2a78d6; stroke: #2a78d6"/>
     <use xlink:href="#m68b94d3a03" x="424.679407" y="63.334464" style="fill: #2a78d6; stroke: #2a78d6"/>
     <use xlink:href="#m68b94d3a03" x="428.4792" y="58.503038" style="fill: #2a78d6; stroke: #2a78d6"/>
     <use xlink:href="#m68b94d3a03" x="432.278993" y="57.584039" style="fill: #2a78d6; stroke: #2a78d6"/>
     <use xlink:href="#m68b94d3a03" x="436.078786" y="54.018193" style="fill: #2a78d6; stroke: #2a78d6"/>
     <use xlink:href="#m68b94d3a03" x="439.878578" y="56.806162" style="fill: #2a78d6; stroke: #2a78d6"/>
     <use xlink:href="#m68b94d3a03" x="443.678371" y="52.720568" style="fill: #2a78d6; stroke: #2a78d6"/>
     <use xlink:href="#m68b94d3a03" x="447.478164" y="52.631743" style="fill: #2a78d6; stroke: #2a78d6"/>
     <use xlink:href="#m68b94d3a03" x="451.277957" y="54.079974" style="fill: #2a78d6; stroke: #2a78d6"/>
     <use xlink:href="#m68b94d3a03" x="455.07775" y="53.264025" style="fill: #2a78d6; stroke: #2a78d6"/>
     <use xlink:href="#m68b94d3a03" x="458.877543" y="54.378954" style="fill: #2a78d6; stroke: #2a78d6"/>
     <use xlink:href="#m68b94d3a03" x="462.677335" y="56.396072" style="fill: #2a78d6; stroke: #2a78d6"/>
     <use xlink:href="#m68b94d3a03" x="466.477128" y="52.378398" style="fill: #2a78d6; stroke: #2a78d6"/>
     <use xlink:href="#m68b94d3a03" x="470.276921" y="54.0564" style="fill: #2a78d6; stroke: #2a78d6"/>
     <use xlink:href="#m68b94d3a03" x="474.076714" y="54.496861" style="fill: #2a78d6; stroke: #2a78d6"/>
     <use xlink:href="#m68b94d3a03" x="477.876507" y="56.164535" style="fill: #2a78d6; stroke: #2a78d6"/>
     <use xlink:href="#m68b94d3a03" x="481.6763" y="53.211334" style="fill: #2a78d6; stroke: #2a78d6"/>
     <use xlink:href="#m68b94d3a03" x="485.476093" y="49.432545" style="fill: #2a78d6; stroke: #2a78d6"/>
     <use xlink:href="#m68b94d3a03" x="489.275885" y="51.618752" style="fill: #2a78d6; stroke: #2a78d6"/>
     <use xlink:href="#m68b94d3a03" x="493.075678" y="54.491118" style="fill: #2a78d6; stroke: #2a78d6"/>
     <use xlink:href="#m68b94d3a03" x="496.875471" y="58.181885" style="fill: #2a78d6; stroke: #2a78d6"/>
     <use xlink:href="#m68b94d3a03" x="500.675264" y="60.292543" style="fill: #2a78d6; stroke: #2a78d6"/>
     <use xlink:href="#m68b94d3a03" x="504.475057" y="63.941256" style="fill: #2a78d6; stroke: #2a78d6"/>
     <use xlink:href="#m68b94d3a03" x="508.27485" y="66.487678" style="fill: #2a78d6; stroke: #2a78d6"/>
    </g>
   </g>
   <g id="line2d_58">
    <path d="M 312.775508 51.459847 
L 517.584342 51.459847 
" clip-path="url(#p79ed421f6c)" style="fill: none; stroke-dasharray: 3.7,1.6; stroke-dashoffset: 0; stroke: #898781"/>
   </g>
   <g id="patch_6">
    <path d="M 312.775508 182.2 
L 312.775508 25.311816 
" style="fill: none; stroke: #c3c2b7; stroke-width: 0.9; stroke-linejoin: miter; stroke-linecap: square"/>
   </g>
   <g id="patch_7">
    <path d="M 312.775508 182.2 
L 517.584342 182.2 
" style="fill: none; stroke: #c3c2b7; stroke-width: 0.9; stroke-linejoin: miter; stroke-linecap: square"/>
   </g>
   <g id="text_34">
    <!-- Ratio at every checkpoint -->
    <g style="fill: #0b0b0b" transform="translate(312.775508 17.311816) scale(0.13 -0.13)">
     <defs>
      <path id="Cambria-15" d="M 1331 1853 
L 1331 791 
Q 1331 566 1348 464 
Q 1366 363 1400 311 
Q 1434 259 1493 226 
Q 1553 194 1697 153 
L 1697 0 
L 378 0 
L 378 153 
Q 572 203 637 264 
Q 703 325 723 437 
Q 744 550 744 781 
L 744 3484 
Q 744 3700 728 3798 
Q 713 3897 677 3951 
Q 641 4006 581 4039 
Q 522 4072 378 4113 
L 378 4266 
L 1925 4266 
Q 2656 4266 3018 4000 
Q 3381 3734 3381 3175 
Q 3381 2747 3145 2447 
Q 2909 2147 2438 1978 
L 2438 1953 
Q 2628 1875 2764 1729 
Q 2900 1584 3066 1278 
L 3347 766 
Q 3469 541 3556 422 
Q 3644 303 3734 240 
Q 3825 178 3975 153 
L 3975 0 
L 3109 0 
Q 2991 166 2884 356 
Q 2778 547 2675 744 
L 2400 1266 
Q 2275 1503 2195 1615 
Q 2116 1728 2048 1773 
Q 1981 1819 1904 1836 
Q 1828 1853 1675 1853 
L 1331 1853 
z
M 1331 3978 
L 1331 2122 
L 1684 2122 
Q 1956 2122 2125 2161 
Q 2294 2200 2437 2309 
Q 2581 2419 2667 2614 
Q 2753 2809 2753 3094 
Q 2753 3391 2651 3587 
Q 2550 3784 2344 3887 
Q 2138 3991 1788 3991 
Q 1506 3991 1331 3978 
z
" transform="scale(0.015625)"/>
      <path id="Cambria-9b" d="M 1625 -256 
Q 1453 -644 1290 -884 
Q 1128 -1125 933 -1247 
Q 738 -1369 469 -1369 
Q 297 -1369 81 -1328 
L 81 -709 
L 359 -709 
Q 397 -838 453 -888 
Q 509 -938 616 -938 
Q 709 -938 782 -902 
Q 856 -866 936 -778 
Q 1016 -691 1123 -509 
Q 1231 -328 1366 -50 
L 491 2303 
Q 406 2531 354 2622 
Q 303 2713 243 2759 
Q 184 2806 63 2834 
L 63 2988 
L 1334 2988 
L 1334 2834 
Q 1188 2800 1128 2767 
Q 1069 2734 1041 2682 
Q 1013 2631 1013 2550 
Q 1013 2466 1033 2375 
Q 1053 2284 1097 2163 
L 1653 597 
L 2278 2097 
Q 2331 2222 2361 2326 
Q 2391 2431 2391 2522 
Q 2391 2656 2317 2725 
Q 2244 2794 2063 2834 
L 2063 2988 
L 3231 2988 
L 3231 2834 
Q 3109 2809 3043 2757 
Q 2978 2706 2912 2595 
Q 2847 2484 2756 2284 
L 1625 -256 
z
" transform="scale(0.015625)"/>
     </defs>
     <use xlink:href="#Cambria-15"/>
     <use xlink:href="#Cambria-83" transform="translate(61.328125 0)"/>
     <use xlink:href="#Cambria-96" transform="translate(110.15625 0)"/>
     <use xlink:href="#Cambria-8b" transform="translate(144 0)"/>
     <use xlink:href="#Cambria-91" transform="translate(171.78125 0)"/>
     <use xlink:href="#Cambria-3" transform="translate(224.859375 0)"/>
     <use xlink:href="#Cambria-83" transform="translate(246.875 0)"/>
     <use xlink:href="#Cambria-96" transform="translate(295.703125 0)"/>
     <use xlink:href="#Cambria-3" transform="translate(329.546875 0)"/>
     <use xlink:href="#Cambria-87" transform="translate(351.5625 0)"/>
     <use xlink:href="#Cambria-98" transform="translate(399.375 0)"/>
     <use xlink:href="#Cambria-87" transform="translate(447.8125 0)"/>
     <use xlink:href="#Cambria-94" transform="translate(496.59375 0)"/>
     <use xlink:href="#Cambria-9b" transform="translate(537.953125 0)"/>
     <use xlink:href="#Cambria-3" transform="translate(588.34375 0)"/>
     <use xlink:href="#Cambria-85" transform="translate(610.359375 0)"/>
     <use xlink:href="#Cambria-8a" transform="translate(654.453125 0)"/>
     <use xlink:href="#Cambria-87" transform="translate(709.625 0)"/>
     <use xlink:href="#Cambria-85" transform="translate(758.40625 0)"/>
     <use xlink:href="#Cambria-8d" transform="translate(802.5 0)"/>
     <use xlink:href="#Cambria-92" transform="translate(854.203125 0)"/>
     <use xlink:href="#Cambria-91" transform="translate(909.8125 0)"/>
     <use xlink:href="#Cambria-8b" transform="translate(962.890625 0)"/>
     <use xlink:href="#Cambria-90" transform="translate(990.671875 0)"/>
     <use xlink:href="#Cambria-96" transform="translate(1046.484375 0)"/>
    </g>
   </g>
  </g>
 </g>
 <defs>
  <clipPath id="p247097b155">
   <rect x="54.683516" y="25.311816" width="204.808834" height="156.888184"/>
  </clipPath>
  <clipPath id="p79ed421f6c">
   <rect x="312.775508" y="25.311816" width="204.808834" height="156.888184"/>
  </clipPath>
 </defs>
</svg>
