<?xml version="1.0" encoding="utf-8" standalone="no"?>
<!DOCTYPE svg PUBLIC "-//W3C//DTD SVG 1.1//EN"
  "http://www.w3.org/Graphics/SVG/1.1/DTD/svg11.dtd">
<svg xmlns:xlink="http://www.w3.org/1999/xlink" width="483.37875pt" height="285.488pt" viewBox="0 0 483.37875 285.488" xmlns="http://www.w3.org/2000/svg" version="1.1">
 <metadata>
  <rdf:RDF xmlns:dc="http://purl.org/dc/elements/1.1/" xmlns:cc="http://creativecommons.org/ns#" xmlns:rdf="http://www.w3.org/1999/02/22-rdf-syntax-ns#">
   <cc:Work>
    <dc:type rdf:resource="http://purl.org/dc/dcmitype/StillImage"/>
    <dc:date>2026-07-23T00:57:30.434009</dc:date>
    <dc:format>image/svg+xml</dc:format>
    <dc:creator>
     <cc:Agent>
      <dc:title>Matplotlib v3.11.1, https://matplotlib.org/</dc:title>
     </cc:Agent>
    </dc:creator>
   </cc:Work>
  </rdf:RDF>
 </metadata>
 <defs>
  <style type="text/css">*{stroke-linejoin: round; stroke-linecap: butt}</style>
 </defs>
 <g id="figure_1">
  <g id="patch_1">
   <path d="M 0 285.488 
L 483.37875 285.488 
L 483.37875 0 
L 0 0 
z
" style="fill: #fcfcfb"/>
  </g>
  <g id="axes_1">
   <g id="patch_2">
    <path d="M 42.162734 251.1 
L 476.17875 251.1 
L 476.17875 25.311816 
L 42.162734 25.311816 
z
" style="fill: #fcfcfb"/>
   </g>
   <g id="matplotlib.axis_1">
    <g id="xtick_1">
     <g id="line2d_1">
      <path d="M 102.599308 251.1 
L 102.599308 25.311816 
" clip-path="url(#pdbaf3bda77)" style="fill: none; stroke: #e1e0d9; stroke-width: 0.7; stroke-linecap: square"/>
     </g>
     <g id="line2d_2">
      <defs>
       <path id="m3b1f5028f7" d="M 0 0 
L 0 3.5 
" style="stroke: #898781; stroke-width: 0.8"/>
      </defs>
      <g>
       <use xlink:href="#m3b1f5028f7" x="102.599308" y="251.1" style="fill: #898781; stroke: #898781; stroke-width: 0.8"/>
      </g>
     </g>
     <g id="text_1">
      <!-- oracle queries -->
      <g style="fill: #52514e" transform="translate(73.947902 265.489404) scale(0.095 -0.095)">
       <defs>
        <path id="Cambria-91" d="M 1663 -50 
Q 1013 -50 670 333 
Q 328 716 328 1466 
Q 328 1981 508 2337 
Q 688 2694 1000 2867 
Q 1313 3041 1713 3041 
Q 2381 3041 2725 2652 
Q 3069 2263 3069 1534 
Q 3069 1016 2897 659 
Q 2725 303 2409 126 
Q 2094 -50 1663 -50 
z
M 919 1531 
Q 919 888 1123 542 
Q 1328 197 1709 197 
Q 1919 197 2066 298 
Q 2213 400 2305 572 
Q 2397 744 2437 970 
Q 2478 1197 2478 1444 
Q 2478 1903 2376 2206 
Q 2275 2509 2100 2651 
Q 1925 2794 1700 2794 
Q 1322 2794 1120 2466 
Q 919 2138 919 1531 
z
" transform="scale(0.015625)"/>
        <path id="Cambria-94" d="M 1147 2469 
L 1191 2459 
Q 1363 2669 1509 2789 
Q 1656 2909 1826 2975 
Q 1997 3041 2213 3041 
Q 2394 3041 2541 3022 
L 2541 2303 
L 2188 2303 
Q 2113 2472 2028 2548 
Q 1944 2625 1797 2625 
Q 1684 2625 1573 2559 
Q 1463 2494 1359 2369 
Q 1256 2244 1217 2134 
Q 1178 2025 1178 1875 
L 1178 781 
Q 1178 497 1212 389 
Q 1247 281 1326 231 
Q 1406 181 1566 153 
L 1566 0 
L 306 0 
L 306 153 
Q 425 191 476 219 
Q 528 247 565 297 
Q 603 347 622 450 
Q 641 553 641 772 
L 641 2134 
Q 641 2334 634 2456 
Q 628 2578 590 2651 
Q 553 2725 476 2761 
Q 400 2797 259 2822 
L 259 2984 
L 991 3016 
L 1181 3016 
L 1147 2469 
z
" transform="scale(0.015625)"/>
        <path id="Cambria-83" d="M 2109 447 
L 2063 459 
Q 1791 181 1552 65 
Q 1313 -50 1044 -50 
Q 806 -50 625 42 
Q 444 134 347 301 
Q 250 469 250 688 
Q 250 1144 701 1392 
Q 1153 1641 2056 1681 
L 2056 1884 
Q 2056 2209 1993 2396 
Q 1931 2584 1797 2671 
Q 1663 2759 1438 2759 
Q 1194 2759 1045 2631 
Q 897 2503 822 2247 
L 413 2247 
L 413 2653 
Q 713 2809 913 2882 
Q 1113 2956 1313 2998 
Q 1513 3041 1719 3041 
Q 2028 3041 2215 2942 
Q 2403 2844 2497 2641 
Q 2591 2438 2591 2028 
L 2591 941 
Q 2591 709 2594 614 
Q 2597 519 2612 437 
Q 2628 356 2659 307 
Q 2691 259 2752 225 
Q 2813 191 2950 153 
L 2950 0 
L 2094 0 
L 2109 447 
z
M 2056 1425 
Q 1422 1419 1106 1256 
Q 791 1094 791 766 
Q 791 588 862 484 
Q 934 381 1043 342 
Q 1153 303 1303 303 
Q 1516 303 1689 406 
Q 1863 509 1959 668 
Q 2056 828 2056 984 
L 2056 1425 
z
" transform="scale(0.015625)"/>
        <path id="Cambria-85" d="M 2631 2916 
L 2631 2263 
L 2234 2263 
Q 2181 2466 2103 2583 
Q 2025 2700 1922 2747 
Q 1819 2794 1666 2794 
Q 1447 2794 1278 2653 
Q 1109 2513 1011 2225 
Q 913 1938 913 1522 
Q 913 1256 950 1036 
Q 988 816 1078 659 
Q 1169 503 1319 415 
Q 1469 328 1691 328 
Q 1906 328 2092 412 
Q 2278 497 2478 709 
L 2656 503 
Q 2497 328 2375 233 
Q 2253 138 2114 73 
Q 1975 9 1839 -20 
Q 1703 -50 1544 -50 
Q 953 -50 640 342 
Q 328 734 328 1475 
Q 328 1938 503 2295 
Q 678 2653 993 2847 
Q 1309 3041 1722 3041 
Q 1978 3041 2195 3011 
Q 2413 2981 2631 2916 
z
" transform="scale(0.015625)"/>
        <path id="Cambria-8e" d="M 1138 781 
Q 1138 513 1163 408 
Q 1188 303 1258 248 
Q 1328 194 1488 153 
L 1488 0 
L 247 0 
L 247 153 
Q 403 194 464 237 
Q 525 281 551 342 
Q 578 403 589 508 
Q 600 613 600 781 
L 600 3397 
Q 600 3697 595 3815 
Q 591 3934 570 4017 
Q 550 4100 514 4147 
Q 478 4194 417 4222 
Q 356 4250 197 4278 
L 197 4441 
L 950 4472 
L 1138 4472 
L 1138 781 
z
" transform="scale(0.015625)"/>
        <path id="Cambria-87" d="M 2800 531 
Q 2600 322 2433 203 
Q 2266 84 2066 17 
Q 1866 -50 1625 -50 
Q 981 -50 653 336 
Q 325 722 325 1475 
Q 325 1941 492 2297 
Q 659 2653 968 2847 
Q 1278 3041 1681 3041 
Q 1997 3041 2219 2941 
Q 2441 2841 2573 2667 
Q 2706 2494 2779 2230 
Q 2853 1966 2863 1541 
L 894 1541 
L 894 1484 
Q 894 1116 976 864 
Q 1059 613 1248 470 
Q 1438 328 1741 328 
Q 1997 328 2201 423 
Q 2406 519 2609 734 
L 2800 531 
z
M 2275 1800 
Q 2256 2138 2190 2352 
Q 2125 2566 1994 2680 
Q 1863 2794 1650 2794 
Q 1328 2794 1136 2536 
Q 944 2278 909 1800 
L 2275 1800 
z
" transform="scale(0.015625)"/>
        <path id="Cambria-3" transform="scale(0.015625)"/>
        <path id="Cambria-93" d="M 3300 -1344 
L 2025 -1344 
L 2025 -1191 
Q 2175 -1159 2242 -1121 
Q 2309 -1084 2345 -1026 
Q 2381 -969 2395 -870 
Q 2409 -772 2409 -566 
L 2409 513 
Q 2241 322 2095 208 
Q 1950 94 1772 22 
Q 1594 -50 1394 -50 
Q 878 -50 601 334 
Q 325 719 325 1453 
Q 325 1972 504 2330 
Q 684 2688 1006 2864 
Q 1328 3041 1750 3041 
Q 1972 3041 2150 2995 
Q 2328 2950 2516 2850 
L 2734 3041 
L 2947 2991 
L 2947 -566 
Q 2947 -750 2961 -858 
Q 2975 -966 3011 -1028 
Q 3047 -1091 3117 -1125 
Q 3188 -1159 3300 -1191 
L 3300 -1344 
z
M 2409 1863 
Q 2409 2153 2371 2312 
Q 2334 2472 2243 2583 
Q 2153 2694 2031 2742 
Q 1909 2791 1744 2791 
Q 1341 2791 1127 2466 
Q 913 2141 913 1550 
Q 913 950 1086 637 
Q 1259 325 1606 325 
Q 1738 325 1830 348 
Q 1922 372 2011 425 
Q 2100 478 2192 568 
Q 2284 659 2325 732 
Q 2366 806 2387 903 
Q 2409 1000 2409 1153 
L 2409 1863 
z
" transform="scale(0.015625)"/>
        <path id="Cambria-97" d="M 228 2988 
L 1119 2988 
L 1119 1397 
Q 1119 1031 1147 840 
Q 1175 650 1231 553 
Q 1288 456 1391 390 
Q 1494 325 1675 325 
Q 1794 325 1903 372 
Q 2013 419 2147 536 
Q 2281 653 2339 768 
Q 2397 884 2397 1038 
L 2397 2209 
Q 2397 2388 2387 2478 
Q 2378 2569 2356 2623 
Q 2334 2678 2304 2712 
Q 2275 2747 2220 2775 
Q 2166 2803 2044 2834 
L 2044 2988 
L 2934 2988 
L 2934 853 
Q 2934 613 2943 506 
Q 2953 400 2984 337 
Q 3016 275 3081 236 
Q 3147 197 3316 163 
L 3316 0 
L 2600 -31 
L 2409 -31 
L 2428 481 
L 2381 494 
Q 2122 213 1886 81 
Q 1650 -50 1413 -50 
Q 1128 -50 943 62 
Q 759 175 668 398 
Q 578 622 578 1028 
L 578 2209 
Q 578 2472 558 2570 
Q 538 2669 480 2726 
Q 422 2784 228 2834 
L 228 2988 
z
" transform="scale(0.015625)"/>
        <path id="Cambria-8b" d="M 1197 4213 
L 1197 3606 
L 622 3606 
L 622 4213 
L 1197 4213 
z
M 303 153 
Q 425 191 476 219 
Q 528 247 564 297 
Q 600 347 620 450 
Q 641 553 641 772 
L 641 2134 
Q 641 2334 634 2456 
Q 628 2578 590 2651 
Q 553 2725 476 2761 
Q 400 2797 259 2822 
L 259 2988 
L 988 3016 
L 1178 3016 
L 1178 781 
Q 1178 513 1203 408 
Q 1228 303 1298 248 
Q 1369 194 1528 153 
L 1528 0 
L 303 0 
L 303 153 
z
" transform="scale(0.015625)"/>
        <path id="Cambria-95" d="M 2397 2303 
L 2097 2303 
Q 2028 2491 1934 2598 
Q 1841 2706 1722 2750 
Q 1603 2794 1431 2794 
Q 1181 2794 1032 2676 
Q 884 2559 884 2356 
Q 884 2213 943 2119 
Q 1003 2025 1128 1944 
Q 1253 1863 1569 1728 
Q 1888 1591 2061 1475 
Q 2234 1359 2332 1206 
Q 2431 1053 2431 841 
Q 2431 594 2347 425 
Q 2263 256 2109 150 
Q 1956 44 1745 -3 
Q 1534 -50 1284 -50 
Q 1022 -50 775 -11 
Q 528 28 294 91 
L 294 744 
L 600 744 
Q 684 456 850 326 
Q 1016 197 1306 197 
Q 1419 197 1526 220 
Q 1634 244 1718 298 
Q 1803 353 1853 447 
Q 1903 541 1903 681 
Q 1903 841 1840 941 
Q 1778 1041 1647 1123 
Q 1516 1206 1184 1347 
Q 900 1466 728 1578 
Q 556 1691 457 1844 
Q 359 1997 359 2206 
Q 359 2463 498 2652 
Q 638 2841 900 2941 
Q 1163 3041 1516 3041 
Q 1722 3041 1914 3020 
Q 2106 3000 2397 2941 
L 2397 2303 
z
" transform="scale(0.015625)"/>
       </defs>
       <use xlink:href="#Cambria-91"/>
       <use xlink:href="#Cambria-94" transform="translate(53.078125 0)"/>
       <use xlink:href="#Cambria-83" transform="translate(92.734375 0)"/>
       <use xlink:href="#Cambria-85" transform="translate(141.5625 0)"/>
       <use xlink:href="#Cambria-8e" transform="translate(185.65625 0)"/>
       <use xlink:href="#Cambria-87" transform="translate(212.8125 0)"/>
       <use xlink:href="#Cambria-3" transform="translate(261.59375 0)"/>
       <use xlink:href="#Cambria-93" transform="translate(283.609375 0)"/>
       <use xlink:href="#Cambria-97" transform="translate(338.296875 0)"/>
       <use xlink:href="#Cambria-87" transform="translate(393.515625 0)"/>
       <use xlink:href="#Cambria-94" transform="translate(442.296875 0)"/>
       <use xlink:href="#Cambria-8b" transform="translate(483.65625 0)"/>
       <use xlink:href="#Cambria-87" transform="translate(511.4375 0)"/>
       <use xlink:href="#Cambria-95" transform="translate(560.21875 0)"/>
      </g>
     </g>
    </g>
    <g id="xtick_2">
     <g id="line2d_3">
      <path d="M 206.980264 251.1 
L 206.980264 25.311816 
" clip-path="url(#pdbaf3bda77)" style="fill: none; stroke: #e1e0d9; stroke-width: 0.7; stroke-linecap: square"/>
     </g>
     <g id="line2d_4">
      <g>
       <use xlink:href="#m3b1f5028f7" x="206.980264" y="251.1" style="fill: #898781; stroke: #898781; stroke-width: 0.8"/>
      </g>
     </g>
     <g id="text_2">
      <!-- logical T gates -->
      <g style="fill: #52514e" transform="translate(178.339248 265.489404) scale(0.095 -0.095)">
       <defs>
        <path id="Cambria-89" d="M 3106 2672 
L 2528 2694 
L 2500 2659 
Q 2597 2563 2653 2395 
Q 2709 2228 2709 2034 
Q 2709 1525 2395 1248 
Q 2081 972 1503 972 
Q 1244 972 1056 1038 
Q 819 856 819 681 
Q 819 566 864 506 
Q 909 447 1014 422 
Q 1119 397 1331 397 
L 2081 397 
Q 2413 397 2622 294 
Q 2831 191 2920 17 
Q 3009 -156 3009 -388 
Q 3009 -681 2840 -911 
Q 2672 -1141 2353 -1269 
Q 2034 -1397 1609 -1397 
Q 1294 -1397 1033 -1359 
Q 772 -1322 586 -1233 
Q 400 -1144 298 -998 
Q 197 -853 197 -634 
Q 197 -438 328 -277 
Q 459 -116 700 6 
Q 553 66 468 181 
Q 384 297 384 453 
Q 384 631 484 779 
Q 584 928 838 1119 
Q 613 1250 495 1475 
Q 378 1700 378 1988 
Q 378 2256 467 2454 
Q 556 2653 714 2783 
Q 872 2913 1087 2977 
Q 1303 3041 1553 3041 
Q 1778 3041 2000 2988 
L 3106 2988 
L 3106 2672 
z
M 938 2038 
Q 938 1647 1097 1434 
Q 1256 1222 1556 1222 
Q 1716 1222 1828 1283 
Q 1941 1344 2011 1450 
Q 2081 1556 2114 1695 
Q 2147 1834 2147 1988 
Q 2147 2263 2069 2447 
Q 1991 2631 1856 2717 
Q 1722 2803 1547 2803 
Q 1250 2803 1094 2606 
Q 938 2409 938 2038 
z
M 1016 -50 
Q 856 -169 776 -301 
Q 697 -434 697 -603 
Q 697 -884 920 -1017 
Q 1144 -1150 1603 -1150 
Q 1884 -1150 2086 -1075 
Q 2288 -1000 2394 -859 
Q 2500 -719 2500 -531 
Q 2500 -444 2478 -361 
Q 2456 -278 2395 -212 
Q 2334 -147 2221 -108 
Q 2109 -69 1928 -69 
L 1463 -69 
Q 1209 -69 1016 -50 
z
" transform="scale(0.015625)"/>
        <path id="Cambria-17" d="M 206 4266 
L 3588 4266 
L 3588 3178 
L 3281 3178 
Q 3213 3447 3145 3603 
Q 3078 3759 3003 3840 
Q 2928 3922 2842 3956 
Q 2756 3991 2584 3991 
L 2188 3991 
L 2188 791 
Q 2188 606 2208 497 
Q 2228 388 2270 323 
Q 2313 259 2384 223 
Q 2456 188 2609 153 
L 2609 0 
L 1181 0 
L 1181 153 
Q 1275 175 1347 200 
Q 1419 225 1464 261 
Q 1509 297 1539 353 
Q 1569 409 1586 506 
Q 1603 603 1603 791 
L 1603 3991 
L 1209 3991 
Q 1063 3991 967 3962 
Q 872 3934 790 3845 
Q 709 3756 642 3592 
Q 575 3428 516 3178 
L 206 3178 
L 206 4266 
z
" transform="scale(0.015625)"/>
        <path id="Cambria-96" d="M 116 2831 
Q 272 2856 369 2918 
Q 466 2981 520 3079 
Q 575 3178 606 3326 
Q 638 3475 672 3759 
L 1116 3759 
L 1116 2988 
L 2125 2988 
L 2125 2672 
L 1116 2672 
L 1116 1281 
Q 1116 978 1141 798 
Q 1166 619 1234 517 
Q 1303 416 1390 372 
Q 1478 328 1616 328 
Q 1741 328 1850 379 
Q 1959 431 2066 528 
L 2206 359 
Q 1984 144 1786 47 
Q 1588 -50 1375 -50 
Q 972 -50 775 189 
Q 578 428 578 938 
L 578 2672 
L 116 2672 
L 116 2831 
z
" transform="scale(0.015625)"/>
       </defs>
       <use xlink:href="#Cambria-8e"/>
       <use xlink:href="#Cambria-91" transform="translate(27.15625 0)"/>
       <use xlink:href="#Cambria-89" transform="translate(80.234375 0)"/>
       <use xlink:href="#Cambria-8b" transform="translate(129.65625 0)"/>
       <use xlink:href="#Cambria-85" transform="translate(157.4375 0)"/>
       <use xlink:href="#Cambria-83" transform="translate(201.53125 0)"/>
       <use xlink:href="#Cambria-8e" transform="translate(250.359375 0)"/>
       <use xlink:href="#Cambria-3" transform="translate(277.515625 0)"/>
       <use xlink:href="#Cambria-17" transform="translate(299.53125 0)"/>
       <use xlink:href="#Cambria-3" transform="translate(358.8125 0)"/>
       <use xlink:href="#Cambria-89" transform="translate(380.828125 0)"/>
       <use xlink:href="#Cambria-83" transform="translate(429.421875 0)"/>
       <use xlink:href="#Cambria-96" transform="translate(478.25 0)"/>
       <use xlink:href="#Cambria-87" transform="translate(511.21875 0)"/>
       <use xlink:href="#Cambria-95" transform="translate(560 0)"/>
      </g>
     </g>
    </g>
    <g id="xtick_3">
     <g id="line2d_5">
      <path d="M 311.36122 251.1 
L 311.36122 25.311816 
" clip-path="url(#pdbaf3bda77)" style="fill: none; stroke: #e1e0d9; stroke-width: 0.7; stroke-linecap: square"/>
     </g>
     <g id="line2d_6">
      <g>
       <use xlink:href="#m3b1f5028f7" x="311.36122" y="251.1" style="fill: #898781; stroke: #898781; stroke-width: 0.8"/>
      </g>
     </g>
     <g id="text_3">
      <!-- physical qubits -->
      <g style="fill: #52514e" transform="translate(280.95083 265.489404) scale(0.095 -0.095)">
       <defs>
        <path id="Cambria-92" d="M 1150 94 
L 1150 -566 
Q 1150 -769 1164 -869 
Q 1178 -969 1214 -1026 
Q 1250 -1084 1317 -1121 
Q 1384 -1159 1534 -1191 
L 1534 -1344 
L 259 -1344 
L 259 -1191 
Q 372 -1159 442 -1126 
Q 513 -1094 550 -1030 
Q 588 -966 600 -856 
Q 613 -747 613 -566 
L 613 2116 
Q 613 2341 606 2436 
Q 600 2531 581 2593 
Q 563 2656 527 2697 
Q 491 2738 430 2766 
Q 369 2794 228 2822 
L 228 2988 
L 963 3016 
L 1153 3016 
L 1113 2506 
L 1159 2494 
Q 1353 2691 1465 2780 
Q 1578 2869 1698 2928 
Q 1819 2988 1930 3013 
Q 2041 3038 2166 3038 
Q 2681 3038 2957 2652 
Q 3234 2266 3234 1522 
Q 3234 1006 3078 654 
Q 2922 303 2623 126 
Q 2325 -50 1913 -50 
Q 1681 -50 1493 -11 
Q 1306 28 1150 94 
z
M 1150 1125 
Q 1150 825 1187 662 
Q 1225 500 1320 398 
Q 1416 297 1545 247 
Q 1675 197 1888 197 
Q 2266 197 2456 511 
Q 2647 825 2647 1438 
Q 2647 2663 1931 2663 
Q 1756 2663 1629 2608 
Q 1503 2553 1378 2431 
Q 1253 2309 1201 2195 
Q 1150 2081 1150 1950 
L 1150 1125 
z
" transform="scale(0.015625)"/>
        <path id="Cambria-8a" d="M 1141 2497 
L 1153 2494 
Q 1397 2741 1539 2839 
Q 1681 2938 1820 2988 
Q 1959 3038 2119 3038 
Q 2291 3038 2425 2997 
Q 2559 2956 2661 2873 
Q 2763 2791 2827 2670 
Q 2891 2550 2922 2383 
Q 2953 2216 2953 1959 
L 2953 781 
Q 2953 509 2976 411 
Q 3000 313 3061 258 
Q 3122 203 3306 153 
L 3306 0 
L 2075 0 
L 2075 153 
Q 2197 191 2250 219 
Q 2303 247 2339 297 
Q 2375 347 2395 451 
Q 2416 556 2416 769 
L 2416 1588 
Q 2416 2003 2373 2223 
Q 2331 2444 2207 2553 
Q 2084 2663 1863 2663 
Q 1738 2663 1638 2619 
Q 1538 2575 1406 2462 
Q 1275 2350 1208 2231 
Q 1141 2113 1141 1978 
L 1141 781 
Q 1141 569 1152 478 
Q 1163 388 1194 327 
Q 1225 266 1289 227 
Q 1353 188 1488 153 
L 1488 0 
L 250 0 
L 250 153 
Q 388 191 447 225 
Q 506 259 539 312 
Q 572 366 587 466 
Q 603 566 603 781 
L 603 3397 
Q 603 3697 598 3815 
Q 594 3934 573 4017 
Q 553 4100 517 4147 
Q 481 4194 420 4222 
Q 359 4250 200 4278 
L 200 4441 
L 953 4472 
L 1141 4472 
L 1141 2497 
z
" transform="scale(0.015625)"/>
        <path id="Cambria-9b" d="M 1625 -256 
Q 1453 -644 1290 -884 
Q 1128 -1125 933 -1247 
Q 738 -1369 469 -1369 
Q 297 -1369 81 -1328 
L 81 -709 
L 359 -709 
Q 397 -838 453 -888 
Q 509 -938 616 -938 
Q 709 -938 782 -902 
Q 856 -866 936 -778 
Q 1016 -691 1123 -509 
Q 1231 -328 1366 -50 
L 491 2303 
Q 406 2531 354 2622 
Q 303 2713 243 2759 
Q 184 2806 63 2834 
L 63 2988 
L 1334 2988 
L 1334 2834 
Q 1188 2800 1128 2767 
Q 1069 2734 1041 2682 
Q 1013 2631 1013 2550 
Q 1013 2466 1033 2375 
Q 1053 2284 1097 2163 
L 1653 597 
L 2278 2097 
Q 2331 2222 2361 2326 
Q 2391 2431 2391 2522 
Q 2391 2656 2317 2725 
Q 2244 2794 2063 2834 
L 2063 2988 
L 3231 2988 
L 3231 2834 
Q 3109 2809 3043 2757 
Q 2978 2706 2912 2595 
Q 2847 2484 2756 2284 
L 1625 -256 
z
" transform="scale(0.015625)"/>
        <path id="Cambria-84" d="M 1091 2497 
L 1103 2494 
Q 1322 2722 1467 2825 
Q 1613 2928 1767 2983 
Q 1922 3038 2106 3038 
Q 2441 3038 2680 2867 
Q 2919 2697 3048 2356 
Q 3178 2016 3178 1522 
Q 3178 1013 3023 661 
Q 2869 309 2567 129 
Q 2266 -50 1853 -50 
Q 1622 -50 1417 -8 
Q 1213 34 988 141 
L 769 -50 
L 553 0 
L 553 3397 
Q 553 3697 548 3815 
Q 544 3934 523 4017 
Q 503 4100 467 4147 
Q 431 4194 370 4222 
Q 309 4250 150 4278 
L 150 4441 
L 906 4472 
L 1091 4472 
L 1091 2497 
z
M 1091 1125 
Q 1091 884 1112 742 
Q 1134 600 1186 506 
Q 1238 413 1336 334 
Q 1434 256 1556 226 
Q 1678 197 1828 197 
Q 2203 197 2397 503 
Q 2591 809 2591 1422 
Q 2591 2041 2414 2352 
Q 2238 2663 1881 2663 
Q 1703 2663 1578 2608 
Q 1453 2553 1329 2437 
Q 1206 2322 1148 2209 
Q 1091 2097 1091 1953 
L 1091 1125 
z
" transform="scale(0.015625)"/>
       </defs>
       <use xlink:href="#Cambria-92"/>
       <use xlink:href="#Cambria-8a" transform="translate(55.609375 0)"/>
       <use xlink:href="#Cambria-9b" transform="translate(108.828125 0)"/>
       <use xlink:href="#Cambria-95" transform="translate(158.140625 0)"/>
       <use xlink:href="#Cambria-8b" transform="translate(201.109375 0)"/>
       <use xlink:href="#Cambria-85" transform="translate(228.890625 0)"/>
       <use xlink:href="#Cambria-83" transform="translate(272.984375 0)"/>
       <use xlink:href="#Cambria-8e" transform="translate(321.8125 0)"/>
       <use xlink:href="#Cambria-3" transform="translate(348.96875 0)"/>
       <use xlink:href="#Cambria-93" transform="translate(370.984375 0)"/>
       <use xlink:href="#Cambria-97" transform="translate(425.671875 0)"/>
       <use xlink:href="#Cambria-84" transform="translate(480.890625 0)"/>
       <use xlink:href="#Cambria-8b" transform="translate(535.625 0)"/>
       <use xlink:href="#Cambria-96" transform="translate(563.40625 0)"/>
       <use xlink:href="#Cambria-95" transform="translate(597.25 0)"/>
      </g>
     </g>
    </g>
    <g id="xtick_4">
     <g id="line2d_7">
      <path d="M 415.742176 251.1 
L 415.742176 25.311816 
" clip-path="url(#pdbaf3bda77)" style="fill: none; stroke: #e1e0d9; stroke-width: 0.7; stroke-linecap: square"/>
     </g>
     <g id="line2d_8">
      <g>
       <use xlink:href="#m3b1f5028f7" x="415.742176" y="251.1" style="fill: #898781; stroke: #898781; stroke-width: 0.8"/>
      </g>
     </g>
     <g id="text_4">
      <!-- runtime (seconds) -->
      <g style="fill: #52514e" transform="translate(378.332958 265.489404) scale(0.095 -0.095)">
       <defs>
        <path id="Cambria-90" d="M 3347 0 
L 2116 0 
L 2116 153 
Q 2238 191 2291 219 
Q 2344 247 2380 297 
Q 2416 347 2436 451 
Q 2456 556 2456 769 
L 2456 1588 
Q 2456 1806 2443 1984 
Q 2431 2163 2401 2277 
Q 2372 2391 2330 2455 
Q 2288 2519 2230 2564 
Q 2172 2609 2097 2636 
Q 2022 2663 1900 2663 
Q 1778 2663 1668 2614 
Q 1559 2566 1428 2447 
Q 1297 2328 1237 2212 
Q 1178 2097 1178 1947 
L 1178 781 
Q 1178 513 1203 408 
Q 1228 303 1298 248 
Q 1369 194 1528 153 
L 1528 0 
L 303 0 
L 303 153 
Q 425 191 476 219 
Q 528 247 564 297 
Q 600 347 620 450 
Q 641 553 641 772 
L 641 2134 
Q 641 2334 634 2456 
Q 628 2578 590 2651 
Q 553 2725 476 2761 
Q 400 2797 259 2822 
L 259 2988 
L 991 3016 
L 1181 3016 
L 1147 2506 
L 1191 2494 
Q 1422 2728 1564 2828 
Q 1706 2928 1851 2983 
Q 1997 3038 2159 3038 
Q 2328 3038 2461 2998 
Q 2594 2959 2695 2878 
Q 2797 2797 2862 2676 
Q 2928 2556 2961 2387 
Q 2994 2219 2994 1959 
L 2994 781 
Q 2994 566 3006 469 
Q 3019 372 3050 319 
Q 3081 266 3140 230 
Q 3200 194 3347 153 
L 3347 0 
z
" transform="scale(0.015625)"/>
        <path id="Cambria-8f" d="M 1147 2506 
L 1191 2494 
Q 1378 2681 1498 2776 
Q 1619 2872 1731 2930 
Q 1844 2988 1942 3013 
Q 2041 3038 2144 3038 
Q 2456 3038 2653 2894 
Q 2850 2750 2925 2453 
Q 3159 2691 3304 2803 
Q 3450 2916 3601 2977 
Q 3753 3038 3928 3038 
Q 4138 3038 4289 2977 
Q 4441 2916 4545 2789 
Q 4650 2663 4698 2472 
Q 4747 2281 4747 1959 
L 4747 781 
Q 4747 544 4762 453 
Q 4778 363 4808 313 
Q 4838 263 4897 227 
Q 4956 191 5097 153 
L 5097 0 
L 3869 0 
L 3869 153 
Q 3991 191 4044 219 
Q 4097 247 4133 297 
Q 4169 347 4189 451 
Q 4209 556 4209 769 
L 4209 1588 
Q 4209 1853 4195 2026 
Q 4181 2200 4151 2303 
Q 4122 2406 4080 2465 
Q 4038 2525 3984 2569 
Q 3931 2613 3859 2638 
Q 3788 2663 3669 2663 
Q 3544 2663 3436 2613 
Q 3328 2563 3201 2444 
Q 3075 2325 3019 2204 
Q 2963 2084 2963 1922 
L 2963 781 
Q 2963 544 2978 453 
Q 2994 363 3023 313 
Q 3053 263 3112 227 
Q 3172 191 3313 153 
L 3313 0 
L 2084 0 
L 2084 153 
Q 2206 191 2259 219 
Q 2313 247 2348 297 
Q 2384 347 2404 451 
Q 2425 556 2425 769 
L 2425 1588 
Q 2425 1866 2409 2041 
Q 2394 2216 2361 2322 
Q 2328 2428 2276 2493 
Q 2225 2559 2172 2593 
Q 2119 2628 2047 2645 
Q 1975 2663 1884 2663 
Q 1756 2663 1643 2605 
Q 1531 2547 1414 2437 
Q 1297 2328 1237 2209 
Q 1178 2091 1178 1953 
L 1178 781 
Q 1178 603 1187 509 
Q 1197 416 1217 362 
Q 1238 309 1269 276 
Q 1300 244 1358 214 
Q 1416 184 1531 153 
L 1531 0 
L 306 0 
L 306 153 
Q 425 191 476 219 
Q 528 247 565 297 
Q 603 347 622 450 
Q 641 553 641 772 
L 641 2134 
Q 641 2334 634 2456 
Q 628 2578 590 2651 
Q 553 2725 476 2761 
Q 400 2797 259 2822 
L 259 2988 
L 991 3016 
L 1181 3016 
L 1147 2506 
z
" transform="scale(0.015625)"/>
        <path id="Cambria-20b" d="M 2309 -1359 
Q 1778 -1359 1442 -1200 
Q 1106 -1041 918 -714 
Q 731 -388 647 134 
Q 563 656 563 1550 
Q 563 2438 645 2964 
Q 728 3491 915 3822 
Q 1103 4153 1440 4318 
Q 1778 4484 2309 4484 
L 2309 4228 
Q 2091 4228 1922 4191 
Q 1731 4147 1597 4022 
Q 1447 3884 1353 3638 
Q 1244 3350 1191 2875 
Q 1134 2372 1134 1575 
Q 1134 872 1181 379 
Q 1228 -113 1338 -425 
Q 1425 -688 1556 -834 
Q 1672 -963 1831 -1028 
Q 2016 -1103 2309 -1103 
L 2309 -1359 
z
" transform="scale(0.015625)"/>
        <path id="Cambria-86" d="M 2413 3397 
Q 2413 3697 2408 3815 
Q 2403 3934 2383 4017 
Q 2363 4100 2327 4147 
Q 2291 4194 2230 4222 
Q 2169 4250 2009 4278 
L 2009 4441 
L 2766 4472 
L 2950 4472 
L 2950 853 
Q 2950 609 2959 504 
Q 2969 400 3000 337 
Q 3031 275 3098 236 
Q 3166 197 3334 163 
L 3334 0 
L 2597 -31 
L 2409 -31 
L 2447 481 
L 2400 494 
Q 2203 284 2058 179 
Q 1913 75 1748 12 
Q 1584 -50 1397 -50 
Q 884 -50 606 339 
Q 328 728 328 1463 
Q 328 1975 509 2333 
Q 691 2691 998 2866 
Q 1306 3041 1691 3041 
Q 1897 3041 2065 3008 
Q 2234 2975 2413 2900 
L 2413 3397 
z
M 2413 1853 
Q 2413 2097 2391 2244 
Q 2369 2391 2317 2491 
Q 2266 2591 2178 2659 
Q 2091 2728 1986 2759 
Q 1881 2791 1734 2791 
Q 1334 2791 1125 2470 
Q 916 2150 916 1550 
Q 916 950 1087 637 
Q 1259 325 1609 325 
Q 1747 325 1837 348 
Q 1928 372 2015 423 
Q 2103 475 2193 565 
Q 2284 656 2326 731 
Q 2369 806 2391 903 
Q 2413 1000 2413 1153 
L 2413 1853 
z
" transform="scale(0.015625)"/>
        <path id="Cambria-20c" d="M 134 4484 
Q 666 4484 1002 4325 
Q 1338 4166 1525 3839 
Q 1713 3513 1797 2991 
Q 1881 2469 1881 1575 
Q 1881 688 1798 161 
Q 1716 -366 1528 -697 
Q 1341 -1028 1003 -1193 
Q 666 -1359 134 -1359 
L 134 -1103 
Q 353 -1103 522 -1066 
Q 713 -1022 847 -897 
Q 997 -759 1091 -513 
Q 1200 -225 1253 250 
Q 1309 753 1309 1550 
Q 1309 2253 1262 2745 
Q 1216 3238 1106 3550 
Q 1019 3813 888 3959 
Q 772 4088 613 4153 
Q 428 4228 134 4228 
L 134 4484 
z
" transform="scale(0.015625)"/>
       </defs>
       <use xlink:href="#Cambria-94"/>
       <use xlink:href="#Cambria-97" transform="translate(41.359375 0)"/>
       <use xlink:href="#Cambria-90" transform="translate(96.578125 0)"/>
       <use xlink:href="#Cambria-96" transform="translate(152.390625 0)"/>
       <use xlink:href="#Cambria-8b" transform="translate(186.234375 0)"/>
       <use xlink:href="#Cambria-8f" transform="translate(214.015625 0)"/>
       <use xlink:href="#Cambria-87" transform="translate(297.21875 0)"/>
       <use xlink:href="#Cambria-3" transform="translate(346 0)"/>
       <use xlink:href="#Cambria-20b" transform="translate(368.015625 0)"/>
       <use xlink:href="#Cambria-95" transform="translate(406.203125 0)"/>
       <use xlink:href="#Cambria-87" transform="translate(449.171875 0)"/>
       <use xlink:href="#Cambria-85" transform="translate(497.953125 0)"/>
       <use xlink:href="#Cambria-91" transform="translate(542.046875 0)"/>
       <use xlink:href="#Cambria-90" transform="translate(595.125 0)"/>
       <use xlink:href="#Cambria-86" transform="translate(650.9375 0)"/>
       <use xlink:href="#Cambria-95" transform="translate(706.40625 0)"/>
       <use xlink:href="#Cambria-20c" transform="translate(749.375 0)"/>
      </g>
     </g>
    </g>
   </g>
   <g id="matplotlib.axis_2">
    <g id="ytick_1">
     <g id="line2d_9">
      <path d="M 42.162734 251.1 
L 476.17875 251.1 
" clip-path="url(#pdbaf3bda77)" style="fill: none; stroke: #e1e0d9; stroke-width: 0.7; stroke-linecap: square"/>
     </g>
     <g id="line2d_10">
      <defs>
       <path id="mc247e46a3a" d="M 0 0 
L -3.5 0 
" style="stroke: #898781; stroke-width: 0.8"/>
      </defs>
      <g>
       <use xlink:href="#mc247e46a3a" x="42.162734" y="251.1" style="fill: #898781; stroke: #898781; stroke-width: 0.8"/>
      </g>
     </g>
     <g id="text_5">
      <!-- 0 -->
      <g style="fill: #52514e" transform="translate(29.348359 255.183618) scale(0.105 -0.105)">
       <defs>
        <path id="Cambria-372" d="M 1738 -50 
Q 1063 -50 733 481 
Q 403 1013 403 2094 
Q 403 2669 504 3087 
Q 606 3506 789 3779 
Q 972 4053 1228 4184 
Q 1484 4316 1788 4316 
Q 2472 4316 2806 3787 
Q 3141 3259 3141 2191 
Q 3141 1084 2783 517 
Q 2425 -50 1738 -50 
z
M 1013 2188 
Q 1013 1169 1202 692 
Q 1391 216 1788 216 
Q 2166 216 2348 664 
Q 2531 1113 2531 2053 
Q 2531 2772 2437 3217 
Q 2344 3663 2176 3856 
Q 2009 4050 1772 4050 
Q 1556 4050 1411 3922 
Q 1266 3794 1177 3553 
Q 1088 3313 1050 2967 
Q 1013 2622 1013 2188 
z
" transform="scale(0.015625)"/>
       </defs>
       <use xlink:href="#Cambria-372"/>
      </g>
     </g>
    </g>
    <g id="ytick_2">
     <g id="line2d_11">
      <path d="M 42.162734 224.84556 
L 476.17875 224.84556 
" clip-path="url(#pdbaf3bda77)" style="fill: none; stroke: #e1e0d9; stroke-width: 0.7; stroke-linecap: square"/>
     </g>
     <g id="line2d_12">
      <g>
       <use xlink:href="#mc247e46a3a" x="42.162734" y="224.84556" style="fill: #898781; stroke: #898781; stroke-width: 0.8"/>
      </g>
     </g>
     <g id="text_6">
      <!-- 10 -->
      <g style="fill: #52514e" transform="translate(23.533984 228.929178) scale(0.105 -0.105)">
       <defs>
        <path id="Cambria-373" d="M 2172 816 
Q 2172 634 2192 542 
Q 2213 450 2264 392 
Q 2316 334 2412 301 
Q 2509 269 2656 251 
Q 2803 234 3044 228 
L 3044 0 
L 734 0 
L 734 228 
Q 1081 244 1229 270 
Q 1378 297 1456 350 
Q 1534 403 1570 500 
Q 1606 597 1606 816 
L 1606 3350 
Q 1606 3475 1562 3533 
Q 1519 3591 1434 3591 
Q 1334 3591 1150 3487 
Q 966 3384 694 3203 
L 556 3444 
L 2019 4316 
L 2191 4316 
Q 2172 4016 2172 3484 
L 2172 816 
z
" transform="scale(0.015625)"/>
       </defs>
       <use xlink:href="#Cambria-373"/>
       <use xlink:href="#Cambria-372" transform="translate(55.375 0)"/>
      </g>
     </g>
    </g>
    <g id="ytick_3">
     <g id="line2d_13">
      <path d="M 42.162734 198.59112 
L 476.17875 198.59112 
" clip-path="url(#pdbaf3bda77)" style="fill: none; stroke: #e1e0d9; stroke-width: 0.7; stroke-linecap: square"/>
     </g>
     <g id="line2d_14">
      <g>
       <use xlink:href="#mc247e46a3a" x="42.162734" y="198.59112" style="fill: #898781; stroke: #898781; stroke-width: 0.8"/>
      </g>
     </g>
     <g id="text_7">
      <!-- 20 -->
      <g style="fill: #52514e" transform="translate(23.533984 202.674738) scale(0.105 -0.105)">
       <defs>
        <path id="Cambria-374" d="M 2194 500 
Q 2347 500 2440 519 
Q 2534 538 2590 581 
Q 2647 625 2680 695 
Q 2713 766 2763 913 
L 3028 913 
L 2975 0 
L 403 0 
L 403 150 
Q 538 478 766 822 
Q 994 1166 1413 1631 
Q 1775 2031 1934 2238 
Q 2109 2463 2195 2627 
Q 2281 2791 2318 2936 
Q 2356 3081 2356 3228 
Q 2356 3463 2281 3642 
Q 2206 3822 2051 3925 
Q 1897 4028 1663 4028 
Q 1078 4028 875 3378 
L 497 3378 
L 497 3978 
Q 875 4156 1204 4236 
Q 1534 4316 1797 4316 
Q 2378 4316 2675 4061 
Q 2972 3806 2972 3322 
Q 2972 3156 2939 3017 
Q 2906 2878 2836 2742 
Q 2766 2606 2647 2450 
Q 2528 2294 2384 2133 
Q 2241 1972 1888 1597 
Q 1294 969 1016 500 
L 2194 500 
z
" transform="scale(0.015625)"/>
       </defs>
       <use xlink:href="#Cambria-374"/>
       <use xlink:href="#Cambria-372" transform="translate(55.375 0)"/>
      </g>
     </g>
    </g>
    <g id="ytick_4">
     <g id="line2d_15">
      <path d="M 42.162734 172.33668 
L 476.17875 172.33668 
" clip-path="url(#pdbaf3bda77)" style="fill: none; stroke: #e1e0d9; stroke-width: 0.7; stroke-linecap: square"/>
     </g>
     <g id="line2d_16">
      <g>
       <use xlink:href="#mc247e46a3a" x="42.162734" y="172.33668" style="fill: #898781; stroke: #898781; stroke-width: 0.8"/>
      </g>
     </g>
     <g id="text_8">
      <!-- 30 -->
      <g style="fill: #52514e" transform="translate(23.533984 176.420298) scale(0.105 -0.105)">
       <defs>
        <path id="Cambria-375" d="M 497 3381 
L 497 3975 
Q 859 4147 1175 4231 
Q 1491 4316 1784 4316 
Q 2138 4316 2403 4206 
Q 2669 4097 2809 3892 
Q 2950 3688 2950 3403 
Q 2950 3138 2844 2936 
Q 2738 2734 2545 2584 
Q 2353 2434 2047 2291 
L 2047 2263 
Q 2238 2228 2414 2145 
Q 2591 2063 2728 1931 
Q 2866 1800 2948 1617 
Q 3031 1434 3031 1200 
Q 3031 838 2873 556 
Q 2716 275 2391 112 
Q 2066 -50 1600 -50 
Q 1331 -50 1020 11 
Q 709 72 450 172 
L 450 834 
L 825 834 
Q 934 509 1114 362 
Q 1294 216 1603 216 
Q 2009 216 2217 437 
Q 2425 659 2425 1094 
Q 2425 1550 2150 1790 
Q 1875 2031 1344 2031 
L 1063 2031 
L 1063 2306 
Q 1484 2331 1773 2468 
Q 2063 2606 2203 2822 
Q 2344 3038 2344 3306 
Q 2344 3653 2159 3840 
Q 1975 4028 1622 4028 
Q 1328 4028 1143 3868 
Q 959 3709 872 3381 
L 497 3381 
z
" transform="scale(0.015625)"/>
       </defs>
       <use xlink:href="#Cambria-375"/>
       <use xlink:href="#Cambria-372" transform="translate(55.375 0)"/>
      </g>
     </g>
    </g>
    <g id="ytick_5">
     <g id="line2d_17">
      <path d="M 42.162734 146.08224 
L 476.17875 146.08224 
" clip-path="url(#pdbaf3bda77)" style="fill: none; stroke: #e1e0d9; stroke-width: 0.7; stroke-linecap: square"/>
     </g>
     <g id="line2d_18">
      <g>
       <use xlink:href="#mc247e46a3a" x="42.162734" y="146.08224" style="fill: #898781; stroke: #898781; stroke-width: 0.8"/>
      </g>
     </g>
     <g id="text_9">
      <!-- 40 -->
      <g style="fill: #52514e" transform="translate(23.533984 150.165858) scale(0.105 -0.105)">
       <defs>
        <path id="Cambria-376" d="M 1613 153 
Q 1806 203 1872 264 
Q 1938 325 1958 437 
Q 1978 550 1978 781 
L 1978 1294 
L 241 1294 
L 241 1528 
L 2069 4288 
L 2516 4288 
L 2516 1597 
L 2581 1597 
Q 2763 1597 2841 1623 
Q 2919 1650 2970 1717 
Q 3022 1784 3066 1938 
L 3303 1938 
L 3266 1294 
L 2516 1294 
L 2516 781 
Q 2516 572 2530 475 
Q 2544 378 2576 322 
Q 2609 266 2673 228 
Q 2738 191 2881 153 
L 2881 0 
L 1613 0 
L 1613 153 
z
M 756 1597 
L 1978 1597 
L 1978 2375 
Q 1978 2669 1987 3033 
Q 1997 3397 2009 3581 
L 1978 3581 
L 756 1641 
L 756 1597 
z
" transform="scale(0.015625)"/>
       </defs>
       <use xlink:href="#Cambria-376"/>
       <use xlink:href="#Cambria-372" transform="translate(55.375 0)"/>
      </g>
     </g>
    </g>
    <g id="ytick_6">
     <g id="line2d_19">
      <path d="M 42.162734 119.8278 
L 476.17875 119.8278 
" clip-path="url(#pdbaf3bda77)" style="fill: none; stroke: #e1e0d9; stroke-width: 0.7; stroke-linecap: square"/>
     </g>
     <g id="line2d_20">
      <g>
       <use xlink:href="#mc247e46a3a" x="42.162734" y="119.8278" style="fill: #898781; stroke: #898781; stroke-width: 0.8"/>
      </g>
     </g>
     <g id="text_10">
      <!-- 50 -->
      <g style="fill: #52514e" transform="translate(23.533984 123.911418) scale(0.105 -0.105)">
       <defs>
        <path id="Cambria-377" d="M 469 172 
L 469 834 
L 847 834 
Q 941 516 1130 366 
Q 1319 216 1619 216 
Q 2034 216 2246 466 
Q 2459 716 2459 1213 
Q 2459 1544 2346 1761 
Q 2234 1978 2043 2075 
Q 1853 2172 1600 2172 
Q 1388 2172 1234 2145 
Q 1081 2119 906 2063 
L 656 2209 
L 656 4266 
L 2378 4266 
Q 2484 4266 2531 4283 
Q 2578 4300 2606 4336 
Q 2634 4372 2672 4472 
L 2916 4472 
L 2869 3747 
L 1072 3747 
L 1072 2375 
Q 1234 2444 1425 2478 
Q 1616 2513 1806 2513 
Q 2178 2513 2465 2361 
Q 2753 2209 2909 1929 
Q 3066 1650 3066 1281 
Q 3066 863 2891 563 
Q 2716 263 2384 106 
Q 2053 -50 1600 -50 
Q 1059 -50 469 172 
z
" transform="scale(0.015625)"/>
       </defs>
       <use xlink:href="#Cambria-377"/>
       <use xlink:href="#Cambria-372" transform="translate(55.375 0)"/>
      </g>
     </g>
    </g>
    <g id="ytick_7">
     <g id="line2d_21">
      <path d="M 42.162734 93.57336 
L 476.17875 93.57336 
" clip-path="url(#pdbaf3bda77)" style="fill: none; stroke: #e1e0d9; stroke-width: 0.7; stroke-linecap: square"/>
     </g>
     <g id="line2d_22">
      <g>
       <use xlink:href="#mc247e46a3a" x="42.162734" y="93.57336" style="fill: #898781; stroke: #898781; stroke-width: 0.8"/>
      </g>
     </g>
     <g id="text_11">
      <!-- 60 -->
      <g style="fill: #52514e" transform="translate(23.533984 97.656978) scale(0.105 -0.105)">
       <defs>
        <path id="Cambria-378" d="M 2847 4144 
L 2847 3991 
Q 2366 3991 1994 3784 
Q 1622 3578 1376 3178 
Q 1131 2778 1031 2228 
L 1063 2216 
Q 1325 2403 1579 2490 
Q 1834 2578 2131 2578 
Q 2484 2578 2732 2423 
Q 2981 2269 3106 1989 
Q 3231 1709 3231 1334 
Q 3231 928 3075 617 
Q 2919 306 2592 128 
Q 2266 -50 1788 -50 
Q 1103 -50 754 375 
Q 406 800 406 1628 
Q 406 2184 581 2668 
Q 756 3153 1078 3514 
Q 1400 3875 1825 4083 
Q 2250 4291 2719 4316 
L 2847 4144 
z
M 1916 2250 
Q 1763 2250 1620 2215 
Q 1478 2181 1353 2115 
Q 1228 2050 1109 1950 
Q 1072 1916 1053 1878 
Q 1022 1819 1012 1731 
Q 1003 1644 1003 1438 
Q 1003 841 1203 528 
Q 1403 216 1809 216 
Q 2044 216 2203 297 
Q 2363 378 2461 520 
Q 2559 663 2601 855 
Q 2644 1047 2644 1272 
Q 2644 1734 2453 1992 
Q 2263 2250 1916 2250 
z
" transform="scale(0.015625)"/>
       </defs>
       <use xlink:href="#Cambria-378"/>
       <use xlink:href="#Cambria-372" transform="translate(55.375 0)"/>
      </g>
     </g>
    </g>
    <g id="ytick_8">
     <g id="line2d_23">
      <path d="M 42.162734 67.31892 
L 476.17875 67.31892 
" clip-path="url(#pdbaf3bda77)" style="fill: none; stroke: #e1e0d9; stroke-width: 0.7; stroke-linecap: square"/>
     </g>
     <g id="line2d_24">
      <g>
       <use xlink:href="#mc247e46a3a" x="42.162734" y="67.31892" style="fill: #898781; stroke: #898781; stroke-width: 0.8"/>
      </g>
     </g>
     <g id="text_12">
      <!-- 70 -->
      <g style="fill: #52514e" transform="translate(23.533984 71.402538) scale(0.105 -0.105)">
       <defs>
        <path id="Cambria-379" d="M 3206 4116 
L 1388 -22 
L 934 -22 
L 934 131 
L 2619 3697 
L 2619 3744 
L 1244 3744 
Q 1116 3744 1039 3720 
Q 963 3697 911 3653 
Q 859 3609 825 3537 
Q 791 3466 731 3253 
L 463 3253 
L 525 4266 
L 3206 4266 
L 3206 4116 
z
" transform="scale(0.015625)"/>
       </defs>
       <use xlink:href="#Cambria-379"/>
       <use xlink:href="#Cambria-372" transform="translate(55.375 0)"/>
      </g>
     </g>
    </g>
    <g id="ytick_9">
     <g id="line2d_25">
      <path d="M 42.162734 41.06448 
L 476.17875 41.06448 
" clip-path="url(#pdbaf3bda77)" style="fill: none; stroke: #e1e0d9; stroke-width: 0.7; stroke-linecap: square"/>
     </g>
     <g id="line2d_26">
      <g>
       <use xlink:href="#mc247e46a3a" x="42.162734" y="41.06448" style="fill: #898781; stroke: #898781; stroke-width: 0.8"/>
      </g>
     </g>
     <g id="text_13">
      <!-- 80 -->
      <g style="fill: #52514e" transform="translate(23.533984 45.148099) scale(0.105 -0.105)">
       <defs>
        <path id="Cambria-37a" d="M 2475 2253 
L 2481 2213 
Q 2834 2075 3015 1811 
Q 3197 1547 3197 1175 
Q 3197 809 3022 531 
Q 2847 253 2514 101 
Q 2181 -50 1738 -50 
Q 1322 -50 1008 89 
Q 694 228 520 495 
Q 347 763 347 1125 
Q 347 1397 440 1597 
Q 534 1797 686 1926 
Q 838 2056 1069 2163 
L 1063 2203 
Q 391 2494 391 3200 
Q 391 3522 567 3775 
Q 744 4028 1070 4172 
Q 1397 4316 1794 4316 
Q 2244 4316 2550 4189 
Q 2856 4063 3011 3823 
Q 3166 3584 3166 3250 
Q 3166 2906 2997 2657 
Q 2828 2409 2475 2253 
z
M 978 3228 
Q 978 3044 1022 2881 
Q 1066 2719 1162 2600 
Q 1259 2481 1414 2411 
Q 1569 2341 1794 2341 
Q 2053 2341 2229 2442 
Q 2406 2544 2492 2739 
Q 2578 2934 2578 3191 
Q 2578 3472 2476 3667 
Q 2375 3863 2197 3956 
Q 2019 4050 1788 4050 
Q 1394 4050 1186 3836 
Q 978 3622 978 3228 
z
M 944 1178 
Q 944 975 991 798 
Q 1038 622 1139 494 
Q 1241 366 1400 291 
Q 1559 216 1788 216 
Q 2044 216 2226 320 
Q 2409 425 2504 631 
Q 2600 838 2600 1119 
Q 2600 1419 2497 1636 
Q 2394 1853 2206 1967 
Q 2019 2081 1772 2081 
Q 1541 2081 1383 2009 
Q 1225 1938 1126 1816 
Q 1028 1694 986 1530 
Q 944 1366 944 1178 
z
" transform="scale(0.015625)"/>
       </defs>
       <use xlink:href="#Cambria-37a"/>
       <use xlink:href="#Cambria-372" transform="translate(55.375 0)"/>
      </g>
     </g>
    </g>
    <g id="text_14">
     <!-- $\log_2(\mathrm{value})$ -->
     <g style="fill: #0b0b0b" transform="translate(16.533984 168.025908) rotate(-90) scale(0.12 -0.12)">
      <defs>
       <path id="Cmr10-6a" d="M 197 0 
L 197 225 
Q 416 225 556 259 
Q 697 294 697 428 
L 697 3788 
Q 697 3959 645 4036 
Q 594 4113 497 4130 
Q 400 4147 197 4147 
L 197 4372 
L 1147 4441 
L 1147 428 
Q 1147 294 1287 259 
Q 1428 225 1644 225 
L 1644 0 
L 197 0 
z
" transform="scale(0.015625)"/>
       <path id="Cmr10-42" d="M 1600 -72 
Q 1216 -72 887 123 
Q 559 319 368 647 
Q 178 975 178 1363 
Q 178 1656 283 1928 
Q 388 2200 583 2414 
Q 778 2628 1037 2748 
Q 1297 2869 1600 2869 
Q 1994 2869 2317 2661 
Q 2641 2453 2828 2104 
Q 3016 1756 3016 1363 
Q 3016 978 2825 648 
Q 2634 319 2307 123 
Q 1981 -72 1600 -72 
z
M 1600 116 
Q 2113 116 2284 487 
Q 2456 859 2456 1434 
Q 2456 1756 2422 1967 
Q 2388 2178 2272 2350 
Q 2200 2456 2089 2536 
Q 1978 2616 1854 2658 
Q 1731 2700 1600 2700 
Q 1400 2700 1220 2609 
Q 1041 2519 922 2350 
Q 803 2169 770 1951 
Q 738 1734 738 1434 
Q 738 1075 800 789 
Q 863 503 1052 309 
Q 1241 116 1600 116 
z
" transform="scale(0.015625)"/>
       <path id="Cmr10-1b" d="M 178 -500 
Q 178 -272 343 -101 
Q 509 69 738 141 
Q 609 238 542 384 
Q 475 531 475 697 
Q 475 997 666 1228 
Q 372 1516 372 1888 
Q 372 2088 458 2263 
Q 544 2438 697 2566 
Q 850 2694 1037 2761 
Q 1225 2828 1422 2828 
Q 1803 2828 2106 2606 
Q 2238 2747 2417 2823 
Q 2597 2900 2791 2900 
Q 2928 2900 3015 2801 
Q 3103 2703 3103 2566 
Q 3103 2488 3043 2428 
Q 2984 2369 2906 2369 
Q 2825 2369 2765 2428 
Q 2706 2488 2706 2566 
Q 2706 2684 2784 2731 
Q 2453 2731 2216 2503 
Q 2331 2388 2401 2220 
Q 2472 2053 2472 1888 
Q 2472 1616 2322 1398 
Q 2172 1181 1926 1061 
Q 1681 941 1422 941 
Q 1072 941 781 1131 
Q 691 1006 691 850 
Q 691 681 802 554 
Q 913 428 1081 428 
L 1606 428 
Q 1988 428 2294 359 
Q 2600 291 2808 84 
Q 3016 -122 3016 -500 
Q 3016 -781 2778 -967 
Q 2541 -1153 2211 -1236 
Q 1881 -1319 1600 -1319 
Q 1316 -1319 984 -1236 
Q 653 -1153 415 -967 
Q 178 -781 178 -500 
z
M 538 -500 
Q 538 -716 713 -861 
Q 888 -1006 1134 -1076 
Q 1381 -1147 1600 -1147 
Q 1816 -1147 2062 -1076 
Q 2309 -1006 2482 -861 
Q 2656 -716 2656 -500 
Q 2656 -166 2350 -67 
Q 2044 31 1606 31 
L 1081 31 
Q 934 31 811 -39 
Q 688 -109 613 -236 
Q 538 -363 538 -500 
z
M 1422 1113 
Q 1966 1113 1966 1888 
Q 1966 2222 1850 2439 
Q 1734 2656 1422 2656 
Q 1109 2656 993 2439 
Q 878 2222 878 1888 
Q 878 1675 922 1503 
Q 966 1331 1084 1222 
Q 1203 1113 1422 1113 
z
" transform="scale(0.015625)"/>
       <path id="Cmr10-31" d="M 319 0 
L 319 172 
Q 319 188 331 206 
L 1325 1306 
Q 1550 1550 1690 1715 
Q 1831 1881 1968 2097 
Q 2106 2313 2186 2536 
Q 2266 2759 2266 3009 
Q 2266 3272 2169 3511 
Q 2072 3750 1880 3894 
Q 1688 4038 1416 4038 
Q 1138 4038 916 3870 
Q 694 3703 603 3438 
Q 628 3444 672 3444 
Q 816 3444 917 3347 
Q 1019 3250 1019 3097 
Q 1019 2950 917 2848 
Q 816 2747 672 2747 
Q 522 2747 420 2851 
Q 319 2956 319 3097 
Q 319 3338 409 3548 
Q 500 3759 670 3923 
Q 841 4088 1055 4175 
Q 1269 4263 1509 4263 
Q 1875 4263 2190 4108 
Q 2506 3953 2690 3670 
Q 2875 3388 2875 3009 
Q 2875 2731 2753 2481 
Q 2631 2231 2440 2026 
Q 2250 1822 1953 1562 
Q 1656 1303 1563 1216 
L 838 519 
L 1453 519 
Q 1906 519 2211 526 
Q 2516 534 2534 550 
Q 2609 631 2688 1141 
L 2875 1141 
L 2694 0 
L 319 0 
z
" transform="scale(0.015625)"/>
       <path id="Cmr10-77" d="M 1984 -1588 
Q 1628 -1306 1370 -942 
Q 1113 -578 948 -165 
Q 784 247 703 697 
Q 622 1147 622 1600 
Q 622 2059 703 2509 
Q 784 2959 951 3375 
Q 1119 3791 1378 4153 
Q 1638 4516 1984 4788 
Q 1984 4800 2016 4800 
L 2075 4800 
Q 2094 4800 2109 4783 
Q 2125 4766 2125 4744 
Q 2125 4716 2113 4703 
Q 1800 4397 1592 4047 
Q 1384 3697 1257 3301 
Q 1131 2906 1075 2482 
Q 1019 2059 1019 1600 
Q 1019 -434 2106 -1491 
Q 2125 -1509 2125 -1544 
Q 2125 -1559 2108 -1579 
Q 2091 -1600 2075 -1600 
L 2016 -1600 
Q 1984 -1600 1984 -1588 
z
" transform="scale(0.015625)"/>
       <path id="Cmr10-25" d="M 1563 0 
L 628 2350 
Q 569 2469 445 2501 
Q 322 2534 122 2534 
L 122 2759 
L 1466 2759 
L 1466 2534 
Q 1106 2534 1106 2381 
Q 1106 2356 1113 2344 
L 1831 538 
L 2478 2169 
Q 2497 2219 2497 2272 
Q 2497 2394 2405 2464 
Q 2313 2534 2188 2534 
L 2188 2759 
L 3250 2759 
L 3250 2534 
Q 3053 2534 2904 2443 
Q 2756 2353 2675 2175 
L 1813 0 
Q 1788 -72 1709 -72 
L 1663 -72 
Q 1584 -72 1563 0 
z
" transform="scale(0.015625)"/>
       <path id="Cmr10-73" d="M 256 628 
Q 256 1009 556 1248 
Q 856 1488 1276 1586 
Q 1697 1684 2075 1684 
L 2075 1947 
Q 2075 2131 1994 2304 
Q 1913 2478 1759 2589 
Q 1606 2700 1422 2700 
Q 997 2700 775 2509 
Q 897 2509 976 2417 
Q 1056 2325 1056 2203 
Q 1056 2075 965 1984 
Q 875 1894 750 1894 
Q 622 1894 531 1984 
Q 441 2075 441 2203 
Q 441 2541 747 2705 
Q 1053 2869 1422 2869 
Q 1681 2869 1943 2758 
Q 2206 2647 2373 2440 
Q 2541 2234 2541 1959 
L 2541 519 
Q 2541 394 2594 289 
Q 2647 184 2759 184 
Q 2866 184 2917 290 
Q 2969 397 2969 519 
L 2969 928 
L 3156 928 
L 3156 519 
Q 3156 375 3081 245 
Q 3006 116 2879 39 
Q 2753 -38 2606 -38 
Q 2419 -38 2283 107 
Q 2147 253 2131 453 
Q 2013 213 1781 70 
Q 1550 -72 1288 -72 
Q 1044 -72 808 0 
Q 572 72 414 226 
Q 256 381 256 628 
z
M 775 628 
Q 775 403 940 250 
Q 1106 97 1331 97 
Q 1538 97 1706 200 
Q 1875 303 1975 481 
Q 2075 659 2075 856 
L 2075 1522 
Q 1784 1522 1479 1426 
Q 1175 1331 975 1128 
Q 775 925 775 628 
z
" transform="scale(0.015625)"/>
       <path id="Cmr10-5a" d="M 691 763 
L 691 2175 
Q 691 2347 639 2423 
Q 588 2500 491 2517 
Q 394 2534 191 2534 
L 191 2759 
L 1159 2828 
L 1159 763 
Q 1159 513 1195 373 
Q 1231 234 1348 165 
Q 1466 97 1722 97 
Q 2066 97 2269 384 
Q 2472 672 2472 1038 
L 2472 2175 
Q 2472 2347 2419 2423 
Q 2366 2500 2270 2517 
Q 2175 2534 1972 2534 
L 1972 2759 
L 2938 2828 
L 2938 581 
Q 2938 413 2989 336 
Q 3041 259 3137 242 
Q 3234 225 3438 225 
L 3438 0 
L 2491 -72 
L 2491 469 
Q 2372 228 2159 78 
Q 1947 -72 1691 -72 
Q 1231 -72 961 123 
Q 691 319 691 763 
z
" transform="scale(0.015625)"/>
       <path id="Cmr10-82" d="M 1594 -72 
Q 1203 -72 876 133 
Q 550 338 364 680 
Q 178 1022 178 1403 
Q 178 1778 348 2115 
Q 519 2453 823 2661 
Q 1128 2869 1503 2869 
Q 1797 2869 2014 2770 
Q 2231 2672 2372 2497 
Q 2513 2322 2584 2084 
Q 2656 1847 2656 1563 
Q 2656 1478 2591 1478 
L 738 1478 
L 738 1409 
Q 738 878 952 497 
Q 1166 116 1650 116 
Q 1847 116 2014 203 
Q 2181 291 2304 447 
Q 2428 603 2472 781 
Q 2478 803 2495 820 
Q 2513 838 2534 838 
L 2591 838 
Q 2656 838 2656 756 
Q 2566 394 2266 161 
Q 1966 -72 1594 -72 
z
M 744 1638 
L 2203 1638 
Q 2203 1878 2136 2125 
Q 2069 2372 1912 2536 
Q 1756 2700 1503 2700 
Q 1141 2700 942 2361 
Q 744 2022 744 1638 
z
" transform="scale(0.015625)"/>
       <path id="Cmr10-44" d="M 416 -1600 
Q 359 -1600 359 -1544 
Q 359 -1516 372 -1503 
Q 1466 -434 1466 1600 
Q 1466 3634 384 4691 
Q 359 4706 359 4744 
Q 359 4766 376 4783 
Q 394 4800 416 4800 
L 475 4800 
Q 494 4800 506 4788 
Q 966 4425 1272 3906 
Q 1578 3388 1720 2800 
Q 1863 2213 1863 1600 
Q 1863 1147 1786 708 
Q 1709 269 1542 -157 
Q 1375 -584 1119 -945 
Q 863 -1306 506 -1588 
Q 494 -1600 475 -1600 
L 416 -1600 
z
" transform="scale(0.015625)"/>
      </defs>
      <use xlink:href="#Cmr10-6a"/>
      <use xlink:href="#Cmr10-42" transform="translate(27.685547 0)"/>
      <use xlink:href="#Cmr10-1b" transform="translate(77.685547 0)"/>
      <use xlink:href="#Cmr10-31" transform="translate(131.689838 -14.999962) scale(0.7)"/>
      <use xlink:href="#Cmr10-77" transform="translate(189.077301 0)"/>
      <use xlink:href="#Cmr10-25" transform="translate(227.89566 0)"/>
      <use xlink:href="#Cmr10-73" transform="translate(280.581207 0)"/>
      <use xlink:href="#Cmr10-6a" transform="translate(330.581207 0)"/>
      <use xlink:href="#Cmr10-5a" transform="translate(358.266754 0)"/>
      <use xlink:href="#Cmr10-82" transform="translate(413.784332 0)"/>
      <use xlink:href="#Cmr10-44" transform="translate(458.169098 0)"/>
     </g>
    </g>
   </g>
   <g id="patch_3">
    <path d="M 61.890735 251.1 
L 89.029784 251.1 
L 89.029784 201.216564 
L 61.890735 201.216564 
z
" clip-path="url(#pdbaf3bda77)" style="fill: #2a78d6; stroke: #fcfcfb; stroke-linejoin: miter"/>
   </g>
   <g id="patch_4">
    <path d="M 166.271691 251.1 
L 193.41074 251.1 
L 193.41074 63.11821 
L 166.271691 63.11821 
z
" clip-path="url(#pdbaf3bda77)" style="fill: #2a78d6; stroke: #fcfcfb; stroke-linejoin: miter"/>
   </g>
   <g id="patch_5">
    <path d="M 270.652647 251.1 
L 297.791696 251.1 
L 297.791696 177.979683 
L 270.652647 177.979683 
z
" clip-path="url(#pdbaf3bda77)" style="fill: #2a78d6; stroke: #fcfcfb; stroke-linejoin: miter"/>
   </g>
   <g id="patch_6">
    <path d="M 375.033604 251.1 
L 402.172652 251.1 
L 402.172652 100.268791 
L 375.033604 100.268791 
z
" clip-path="url(#pdbaf3bda77)" style="fill: #2a78d6; stroke: #fcfcfb; stroke-linejoin: miter"/>
   </g>
   <g id="patch_7">
    <path d="M 89.029784 251.1 
L 116.168832 251.1 
L 116.168832 209.092896 
L 89.029784 209.092896 
z
" clip-path="url(#pdbaf3bda77)" style="fill: #1baf7a; stroke: #fcfcfb; stroke-linejoin: miter"/>
   </g>
   <g id="patch_8">
    <path d="M 193.41074 251.1 
L 220.549788 251.1 
L 220.549788 104.075136 
L 193.41074 104.075136 
z
" clip-path="url(#pdbaf3bda77)" style="fill: #1baf7a; stroke: #fcfcfb; stroke-linejoin: miter"/>
   </g>
   <g id="patch_9">
    <path d="M 297.791696 251.1 
L 324.930745 251.1 
L 324.930745 194.155384 
L 297.791696 194.155384 
z
" clip-path="url(#pdbaf3bda77)" style="fill: #1baf7a; stroke: #fcfcfb; stroke-linejoin: miter"/>
   </g>
   <g id="patch_10">
    <path d="M 402.172652 251.1 
L 429.311701 251.1 
L 429.311701 142.338401 
L 402.172652 142.338401 
z
" clip-path="url(#pdbaf3bda77)" style="fill: #1baf7a; stroke: #fcfcfb; stroke-linejoin: miter"/>
   </g>
   <g id="patch_11">
    <path d="M 116.168832 251.1 
L 143.307881 251.1 
L 143.307881 178.960092 
L 116.168832 178.960092 
z
" clip-path="url(#pdbaf3bda77)" style="fill: #eb6834; stroke: #fcfcfb; stroke-linejoin: miter"/>
   </g>
   <g id="patch_12">
    <path d="M 220.549788 251.1 
L 247.688837 251.1 
L 247.688837 100.466266 
L 220.549788 100.466266 
z
" clip-path="url(#pdbaf3bda77)" style="fill: #eb6834; stroke: #fcfcfb; stroke-linejoin: miter"/>
   </g>
   <g id="patch_13">
    <path d="M 324.930745 251.1 
L 352.069793 251.1 
L 352.069793 181.698296 
L 324.930745 181.698296 
z
" clip-path="url(#pdbaf3bda77)" style="fill: #eb6834; stroke: #fcfcfb; stroke-linejoin: miter"/>
   </g>
   <g id="patch_14">
    <path d="M 429.311701 251.1 
L 456.450749 251.1 
L 456.450749 137.531726 
L 429.311701 137.531726 
z
" clip-path="url(#pdbaf3bda77)" style="fill: #eb6834; stroke: #fcfcfb; stroke-linejoin: miter"/>
   </g>
   <g id="line2d_27">
    <path d="M 259.170742 251.1 
L 259.170742 25.311816 
" clip-path="url(#pdbaf3bda77)" style="fill: none; stroke-dasharray: 0.9,1.485; stroke-dashoffset: 0; stroke: #898781; stroke-width: 0.9"/>
   </g>
   <g id="patch_15">
    <path d="M 42.162734 251.1 
L 42.162734 25.311816 
" style="fill: none; stroke: #c3c2b7; stroke-width: 0.9; stroke-linejoin: miter; stroke-linecap: square"/>
   </g>
   <g id="patch_16">
    <path d="M 42.162734 251.1 
L 476.17875 251.1 
" style="fill: none; stroke: #c3c2b7; stroke-width: 0.9; stroke-linejoin: miter; stroke-linecap: square"/>
   </g>
   <g id="text_15">
    <!-- 19.0 -->
    <g style="fill: #52514e" transform="translate(67.994634 197.43922) scale(0.08 -0.08)">
     <defs>
      <path id="Cambria-37b" d="M 978 122 
L 978 275 
Q 1416 275 1736 469 
Q 2056 663 2251 1042 
Q 2447 1422 2513 2038 
L 2481 2050 
Q 2219 1863 1964 1775 
Q 1709 1688 1413 1688 
Q 1059 1688 811 1842 
Q 563 1997 438 2276 
Q 313 2556 313 2931 
Q 313 3213 406 3464 
Q 500 3716 684 3905 
Q 869 4094 1145 4205 
Q 1422 4316 1791 4316 
Q 2447 4316 2790 3862 
Q 3134 3409 3134 2559 
Q 3134 1781 2881 1211 
Q 2628 641 2172 323 
Q 1716 6 1106 -50 
L 978 122 
z
M 1628 2016 
Q 1747 2016 1855 2036 
Q 1963 2056 2066 2095 
Q 2169 2134 2267 2195 
Q 2366 2256 2444 2325 
Q 2472 2350 2494 2390 
Q 2516 2431 2528 2497 
Q 2541 2563 2541 2703 
Q 2541 3131 2455 3436 
Q 2369 3741 2192 3895 
Q 2016 4050 1756 4050 
Q 1522 4050 1359 3969 
Q 1197 3888 1095 3745 
Q 994 3603 947 3411 
Q 900 3219 900 2994 
Q 900 2528 1090 2272 
Q 1281 2016 1628 2016 
z
" transform="scale(0.015625)"/>
      <path id="Cambria-1e4" d="M 972 725 
L 972 0 
L 341 0 
L 341 725 
L 972 725 
z
" transform="scale(0.015625)"/>
     </defs>
     <use xlink:href="#Cambria-373"/>
     <use xlink:href="#Cambria-37b" transform="translate(55.375 0)"/>
     <use xlink:href="#Cambria-1e4" transform="translate(110.75 0)"/>
     <use xlink:href="#Cambria-372" transform="translate(131.265625 0)"/>
    </g>
   </g>
   <g id="text_16">
    <!-- 71.6 -->
    <g style="fill: #52514e" transform="translate(172.375591 59.340866) scale(0.08 -0.08)">
     <use xlink:href="#Cambria-379"/>
     <use xlink:href="#Cambria-373" transform="translate(55.375 0)"/>
     <use xlink:href="#Cambria-1e4" transform="translate(110.75 0)"/>
     <use xlink:href="#Cambria-378" transform="translate(131.265625 0)"/>
    </g>
   </g>
   <g id="text_17">
    <!-- 27.9 -->
    <g style="fill: #52514e" transform="translate(276.756547 174.202339) scale(0.08 -0.08)">
     <use xlink:href="#Cambria-374"/>
     <use xlink:href="#Cambria-379" transform="translate(55.375 0)"/>
     <use xlink:href="#Cambria-1e4" transform="translate(110.75 0)"/>
     <use xlink:href="#Cambria-37b" transform="translate(131.265625 0)"/>
    </g>
   </g>
   <g id="text_18">
    <!-- 57.4 -->
    <g style="fill: #52514e" transform="translate(381.137503 96.491447) scale(0.08 -0.08)">
     <use xlink:href="#Cambria-377"/>
     <use xlink:href="#Cambria-379" transform="translate(55.375 0)"/>
     <use xlink:href="#Cambria-1e4" transform="translate(110.75 0)"/>
     <use xlink:href="#Cambria-376" transform="translate(131.265625 0)"/>
    </g>
   </g>
   <g id="text_19">
    <!-- 16.0 -->
    <g style="fill: #52514e" transform="translate(95.133683 205.315552) scale(0.08 -0.08)">
     <use xlink:href="#Cambria-373"/>
     <use xlink:href="#Cambria-378" transform="translate(55.375 0)"/>
     <use xlink:href="#Cambria-1e4" transform="translate(110.75 0)"/>
     <use xlink:href="#Cambria-372" transform="translate(131.265625 0)"/>
    </g>
   </g>
   <g id="text_20">
    <!-- 56.0 -->
    <g style="fill: #52514e" transform="translate(199.514639 100.297793) scale(0.08 -0.08)">
     <use xlink:href="#Cambria-377"/>
     <use xlink:href="#Cambria-378" transform="translate(55.375 0)"/>
     <use xlink:href="#Cambria-1e4" transform="translate(110.75 0)"/>
     <use xlink:href="#Cambria-372" transform="translate(131.265625 0)"/>
    </g>
   </g>
   <g id="text_21">
    <!-- 21.7 -->
    <g style="fill: #52514e" transform="translate(303.895595 190.37804) scale(0.08 -0.08)">
     <use xlink:href="#Cambria-374"/>
     <use xlink:href="#Cambria-373" transform="translate(55.375 0)"/>
     <use xlink:href="#Cambria-1e4" transform="translate(110.75 0)"/>
     <use xlink:href="#Cambria-379" transform="translate(131.265625 0)"/>
    </g>
   </g>
   <g id="text_22">
    <!-- 41.4 -->
    <g style="fill: #52514e" transform="translate(408.276551 138.561057) scale(0.08 -0.08)">
     <use xlink:href="#Cambria-376"/>
     <use xlink:href="#Cambria-373" transform="translate(55.375 0)"/>
     <use xlink:href="#Cambria-1e4" transform="translate(110.75 0)"/>
     <use xlink:href="#Cambria-376" transform="translate(131.265625 0)"/>
    </g>
   </g>
   <g id="text_23">
    <!-- 27.5 -->
    <g style="fill: #52514e" transform="translate(122.272732 175.182748) scale(0.08 -0.08)">
     <use xlink:href="#Cambria-374"/>
     <use xlink:href="#Cambria-379" transform="translate(55.375 0)"/>
     <use xlink:href="#Cambria-1e4" transform="translate(110.75 0)"/>
     <use xlink:href="#Cambria-377" transform="translate(131.265625 0)"/>
    </g>
   </g>
   <g id="text_24">
    <!-- 57.4 -->
    <g style="fill: #52514e" transform="translate(226.653688 96.688923) scale(0.08 -0.08)">
     <use xlink:href="#Cambria-377"/>
     <use xlink:href="#Cambria-379" transform="translate(55.375 0)"/>
     <use xlink:href="#Cambria-1e4" transform="translate(110.75 0)"/>
     <use xlink:href="#Cambria-376" transform="translate(131.265625 0)"/>
    </g>
   </g>
   <g id="text_25">
    <!-- 26.4 -->
    <g style="fill: #52514e" transform="translate(331.034644 177.920953) scale(0.08 -0.08)">
     <use xlink:href="#Cambria-374"/>
     <use xlink:href="#Cambria-378" transform="translate(55.375 0)"/>
     <use xlink:href="#Cambria-1e4" transform="translate(110.75 0)"/>
     <use xlink:href="#Cambria-376" transform="translate(131.265625 0)"/>
    </g>
   </g>
   <g id="text_26">
    <!-- 43.3 -->
    <g style="fill: #52514e" transform="translate(435.4156 133.754383) scale(0.08 -0.08)">
     <use xlink:href="#Cambria-376"/>
     <use xlink:href="#Cambria-375" transform="translate(55.375 0)"/>
     <use xlink:href="#Cambria-1e4" transform="translate(110.75 0)"/>
     <use xlink:href="#Cambria-375" transform="translate(131.265625 0)"/>
    </g>
   </g>
   <g id="text_27">
    <!-- logical layer -->
    <g style="fill: #898781" transform="translate(154.707268 43.689924) scale(0.09 -0.09)">
     <use xlink:href="#Cambria-8e"/>
     <use xlink:href="#Cambria-91" transform="translate(27.15625 0)"/>
     <use xlink:href="#Cambria-89" transform="translate(80.234375 0)"/>
     <use xlink:href="#Cambria-8b" transform="translate(129.65625 0)"/>
     <use xlink:href="#Cambria-85" transform="translate(157.4375 0)"/>
     <use xlink:href="#Cambria-83" transform="translate(201.53125 0)"/>
     <use xlink:href="#Cambria-8e" transform="translate(250.359375 0)"/>
     <use xlink:href="#Cambria-3" transform="translate(277.515625 0)"/>
     <use xlink:href="#Cambria-8e" transform="translate(299.53125 0)"/>
     <use xlink:href="#Cambria-83" transform="translate(326.6875 0)"/>
     <use xlink:href="#Cambria-9b" transform="translate(373.5625 0)"/>
     <use xlink:href="#Cambria-87" transform="translate(422 0)"/>
     <use xlink:href="#Cambria-94" transform="translate(470.78125 0)"/>
    </g>
   </g>
   <g id="text_28">
    <!-- illustrative physical layer -->
    <g style="fill: #898781" transform="translate(315.623886 41.014987) scale(0.09 -0.09)">
     <defs>
      <path id="Cambria-98" d="M 1334 2988 
L 1334 2834 
Q 1191 2800 1131 2769 
Q 1072 2738 1042 2688 
Q 1013 2638 1013 2553 
Q 1013 2469 1033 2376 
Q 1053 2284 1097 2163 
L 1641 581 
L 2278 2097 
Q 2341 2247 2366 2344 
Q 2391 2441 2391 2525 
Q 2391 2656 2320 2725 
Q 2250 2794 2063 2834 
L 2063 2988 
L 3231 2988 
L 3231 2834 
Q 3109 2809 3043 2757 
Q 2978 2706 2912 2595 
Q 2847 2484 2756 2284 
L 1703 -31 
L 1334 -31 
L 488 2303 
Q 400 2544 348 2633 
Q 297 2722 236 2765 
Q 175 2809 59 2834 
L 59 2988 
L 1334 2988 
z
" transform="scale(0.015625)"/>
     </defs>
     <use xlink:href="#Cambria-8b"/>
     <use xlink:href="#Cambria-8e" transform="translate(27.78125 0)"/>
     <use xlink:href="#Cambria-8e" transform="translate(54.9375 0)"/>
     <use xlink:href="#Cambria-97" transform="translate(82.09375 0)"/>
     <use xlink:href="#Cambria-95" transform="translate(137.3125 0)"/>
     <use xlink:href="#Cambria-96" transform="translate(180.28125 0)"/>
     <use xlink:href="#Cambria-94" transform="translate(214.125 0)"/>
     <use xlink:href="#Cambria-83" transform="translate(253.78125 0)"/>
     <use xlink:href="#Cambria-96" transform="translate(302.609375 0)"/>
     <use xlink:href="#Cambria-8b" transform="translate(336.453125 0)"/>
     <use xlink:href="#Cambria-98" transform="translate(362.234375 0)"/>
     <use xlink:href="#Cambria-87" transform="translate(410.671875 0)"/>
     <use xlink:href="#Cambria-3" transform="translate(459.453125 0)"/>
     <use xlink:href="#Cambria-92" transform="translate(481.46875 0)"/>
     <use xlink:href="#Cambria-8a" transform="translate(537.078125 0)"/>
     <use xlink:href="#Cambria-9b" transform="translate(590.296875 0)"/>
     <use xlink:href="#Cambria-95" transform="translate(639.609375 0)"/>
     <use xlink:href="#Cambria-8b" transform="translate(682.578125 0)"/>
     <use xlink:href="#Cambria-85" transform="translate(710.359375 0)"/>
     <use xlink:href="#Cambria-83" transform="translate(754.453125 0)"/>
     <use xlink:href="#Cambria-8e" transform="translate(803.28125 0)"/>
     <use xlink:href="#Cambria-3" transform="translate(830.4375 0)"/>
     <use xlink:href="#Cambria-8e" transform="translate(852.453125 0)"/>
     <use xlink:href="#Cambria-83" transform="translate(879.609375 0)"/>
     <use xlink:href="#Cambria-9b" transform="translate(926.484375 0)"/>
     <use xlink:href="#Cambria-87" transform="translate(974.921875 0)"/>
     <use xlink:href="#Cambria-94" transform="translate(1023.703125 0)"/>
    </g>
    <!-- (named surface-code inputs) -->
    <g style="fill: #898781" transform="translate(308.259355 51.566256) scale(0.09 -0.09)">
     <defs>
      <path id="Cambria-88" d="M 1909 2672 
L 1163 2672 
L 1163 781 
Q 1163 572 1183 465 
Q 1203 359 1242 304 
Q 1281 250 1345 217 
Q 1409 184 1550 153 
L 1550 0 
L 272 0 
L 272 153 
Q 409 191 468 225 
Q 528 259 561 312 
Q 594 366 609 466 
Q 625 566 625 781 
L 625 2672 
L 247 2672 
L 247 2831 
Q 366 2850 405 2861 
Q 444 2872 480 2894 
Q 516 2916 542 2956 
Q 569 2997 589 3076 
Q 609 3156 622 3300 
Q 650 3641 745 3853 
Q 841 4066 1023 4216 
Q 1206 4366 1414 4427 
Q 1622 4488 1903 4488 
Q 2150 4488 2322 4453 
L 2322 3888 
L 2013 3888 
Q 1953 4072 1873 4148 
Q 1794 4225 1650 4225 
Q 1547 4225 1476 4197 
Q 1406 4169 1347 4109 
Q 1288 4050 1245 3950 
Q 1203 3850 1183 3701 
Q 1163 3553 1163 3316 
L 1163 2988 
L 1909 2988 
L 1909 2672 
z
" transform="scale(0.015625)"/>
      <path id="Cambria-1e6" d="M 1788 1403 
L 338 1403 
L 338 1888 
L 1788 1888 
L 1788 1403 
z
" transform="scale(0.015625)"/>
     </defs>
     <use xlink:href="#Cambria-20b"/>
     <use xlink:href="#Cambria-90" transform="translate(38.1875 0)"/>
     <use xlink:href="#Cambria-83" transform="translate(94 0)"/>
     <use xlink:href="#Cambria-8f" transform="translate(142.828125 0)"/>
     <use xlink:href="#Cambria-87" transform="translate(226.03125 0)"/>
     <use xlink:href="#Cambria-86" transform="translate(274.8125 0)"/>
     <use xlink:href="#Cambria-3" transform="translate(330.28125 0)"/>
     <use xlink:href="#Cambria-95" transform="translate(352.296875 0)"/>
     <use xlink:href="#Cambria-97" transform="translate(395.265625 0)"/>
     <use xlink:href="#Cambria-94" transform="translate(450.484375 0)"/>
     <use xlink:href="#Cambria-88" transform="translate(491.84375 0)"/>
     <use xlink:href="#Cambria-83" transform="translate(520.953125 0)"/>
     <use xlink:href="#Cambria-85" transform="translate(569.78125 0)"/>
     <use xlink:href="#Cambria-87" transform="translate(613.875 0)"/>
     <use xlink:href="#Cambria-1e6" transform="translate(662.65625 0)"/>
     <use xlink:href="#Cambria-85" transform="translate(695.859375 0)"/>
     <use xlink:href="#Cambria-91" transform="translate(739.953125 0)"/>
     <use xlink:href="#Cambria-86" transform="translate(793.03125 0)"/>
     <use xlink:href="#Cambria-87" transform="translate(848.5 0)"/>
     <use xlink:href="#Cambria-3" transform="translate(897.28125 0)"/>
     <use xlink:href="#Cambria-8b" transform="translate(919.296875 0)"/>
     <use xlink:href="#Cambria-90" transform="translate(947.078125 0)"/>
     <use xlink:href="#Cambria-92" transform="translate(1002.890625 0)"/>
     <use xlink:href="#Cambria-97" transform="translate(1058.5 0)"/>
     <use xlink:href="#Cambria-96" transform="translate(1113.71875 0)"/>
     <use xlink:href="#Cambria-95" transform="translate(1147.5625 0)"/>
     <use xlink:href="#Cambria-20c" transform="translate(1190.53125 0)"/>
    </g>
   </g>
   <g id="text_29">
    <!-- Three named configurations of the same calculator -->
    <g style="fill: #0b0b0b" transform="translate(42.162734 17.311816) scale(0.13 -0.13)">
     <defs>
      <path id="Cambria-3d0" d="M 1909 2672 
L 1163 2672 
L 1163 781 
Q 1163 572 1183 465 
Q 1203 359 1242 304 
Q 1281 250 1345 217 
Q 1409 184 1550 153 
L 1550 0 
L 272 0 
L 272 153 
Q 409 191 468 225 
Q 528 259 561 312 
Q 594 366 609 466 
Q 625 566 625 781 
L 625 2672 
L 247 2672 
L 247 2831 
Q 416 2850 483 2898 
Q 550 2947 581 3040 
Q 613 3134 622 3300 
Q 644 3684 798 3953 
Q 953 4222 1212 4355 
Q 1472 4488 1816 4488 
Q 1994 4488 2153 4459 
L 2153 3888 
L 1897 3888 
Q 1863 4059 1795 4136 
Q 1728 4213 1603 4213 
Q 1488 4213 1405 4159 
Q 1322 4106 1264 3992 
Q 1206 3878 1184 3697 
Q 1163 3516 1163 3263 
L 1163 2988 
L 1909 2988 
L 1909 2672 
z
" transform="scale(0.015625)"/>
     </defs>
     <use xlink:href="#Cambria-17"/>
     <use xlink:href="#Cambria-8a" transform="translate(59.28125 0)"/>
     <use xlink:href="#Cambria-94" transform="translate(114.453125 0)"/>
     <use xlink:href="#Cambria-87" transform="translate(154.34375 0)"/>
     <use xlink:href="#Cambria-87" transform="translate(203.125 0)"/>
     <use xlink:href="#Cambria-3" transform="translate(251.90625 0)"/>
     <use xlink:href="#Cambria-90" transform="translate(273.921875 0)"/>
     <use xlink:href="#Cambria-83" transform="translate(329.734375 0)"/>
     <use xlink:href="#Cambria-8f" transform="translate(378.5625 0)"/>
     <use xlink:href="#Cambria-87" transform="translate(461.765625 0)"/>
     <use xlink:href="#Cambria-86" transform="translate(510.546875 0)"/>
     <use xlink:href="#Cambria-3" transform="translate(566.015625 0)"/>
     <use xlink:href="#Cambria-85" transform="translate(588.03125 0)"/>
     <use xlink:href="#Cambria-91" transform="translate(632.125 0)"/>
     <use xlink:href="#Cambria-90" transform="translate(685.203125 0)"/>
     <use xlink:href="#Cambria-3d0" transform="translate(741.015625 0)"/>
     <use xlink:href="#Cambria-8b" transform="translate(771.296875 0)"/>
     <use xlink:href="#Cambria-89" transform="translate(799.078125 0)"/>
     <use xlink:href="#Cambria-97" transform="translate(848.5 0)"/>
     <use xlink:href="#Cambria-94" transform="translate(903.71875 0)"/>
     <use xlink:href="#Cambria-83" transform="translate(943.375 0)"/>
     <use xlink:href="#Cambria-96" transform="translate(992.203125 0)"/>
     <use xlink:href="#Cambria-8b" transform="translate(1026.046875 0)"/>
     <use xlink:href="#Cambria-91" transform="translate(1053.828125 0)"/>
     <use xlink:href="#Cambria-90" transform="translate(1106.90625 0)"/>
     <use xlink:href="#Cambria-95" transform="translate(1162.71875 0)"/>
     <use xlink:href="#Cambria-3" transform="translate(1205.6875 0)"/>
     <use xlink:href="#Cambria-91" transform="translate(1227.703125 0)"/>
     <use xlink:href="#Cambria-88" transform="translate(1280.78125 0)"/>
     <use xlink:href="#Cambria-3" transform="translate(1311.0625 0)"/>
     <use xlink:href="#Cambria-96" transform="translate(1333.078125 0)"/>
     <use xlink:href="#Cambria-8a" transform="translate(1366.921875 0)"/>
     <use xlink:href="#Cambria-87" transform="translate(1422.09375 0)"/>
     <use xlink:href="#Cambria-3" transform="translate(1470.875 0)"/>
     <use xlink:href="#Cambria-95" transform="translate(1492.890625 0)"/>
     <use xlink:href="#Cambria-83" transform="translate(1535.859375 0)"/>
     <use xlink:href="#Cambria-8f" transform="translate(1584.6875 0)"/>
     <use xlink:href="#Cambria-87" transform="translate(1667.890625 0)"/>
     <use xlink:href="#Cambria-3" transform="translate(1716.671875 0)"/>
     <use xlink:href="#Cambria-85" transform="translate(1738.6875 0)"/>
     <use xlink:href="#Cambria-83" transform="translate(1782.78125 0)"/>
     <use xlink:href="#Cambria-8e" transform="translate(1831.609375 0)"/>
     <use xlink:href="#Cambria-85" transform="translate(1858.765625 0)"/>
     <use xlink:href="#Cambria-97" transform="translate(1902.859375 0)"/>
     <use xlink:href="#Cambria-8e" transform="translate(1958.078125 0)"/>
     <use xlink:href="#Cambria-83" transform="translate(1985.234375 0)"/>
     <use xlink:href="#Cambria-96" transform="translate(2034.0625 0)"/>
     <use xlink:href="#Cambria-91" transform="translate(2067.03125 0)"/>
     <use xlink:href="#Cambria-94" transform="translate(2120.109375 0)"/>
    </g>
   </g>
  </g>
  <g id="legend_1">
   <g id="patch_17">
    <path d="M 32.12575 272.937355 
L 49.32575 272.937355 
L 49.32575 266.917355 
L 32.12575 266.917355 
z
" style="fill: #2a78d6; stroke: #fcfcfb; stroke-linejoin: miter"/>
   </g>
   <g id="text_30">
    <!-- BS 2020 Sec. 3.3 ($n=257$) -->
    <g transform="translate(56.20575 272.937355) scale(0.086 -0.086)">
     <defs>
      <path id="Cambria-5" d="M 378 0 
L 378 153 
Q 572 203 637 264 
Q 703 325 723 437 
Q 744 550 744 781 
L 744 3484 
Q 744 3700 728 3798 
Q 713 3897 677 3951 
Q 641 4006 581 4039 
Q 522 4072 378 4113 
L 378 4266 
L 2088 4266 
Q 2584 4266 2886 4159 
Q 3188 4053 3334 3845 
Q 3481 3638 3481 3309 
Q 3481 3038 3376 2838 
Q 3272 2638 3103 2506 
Q 2934 2375 2669 2263 
L 2669 2234 
Q 3094 2106 3312 1839 
Q 3531 1572 3531 1203 
Q 3531 778 3342 509 
Q 3153 241 2812 120 
Q 2472 0 1988 0 
L 378 0 
z
M 1875 2353 
Q 2350 2353 2601 2583 
Q 2853 2813 2853 3250 
Q 2853 3466 2783 3608 
Q 2713 3750 2589 3834 
Q 2466 3919 2297 3955 
Q 2128 3991 1931 3991 
Q 1813 3991 1619 3984 
Q 1425 3978 1328 3972 
L 1328 2353 
L 1875 2353 
z
M 1328 297 
Q 1556 275 1838 275 
Q 2247 275 2473 378 
Q 2700 481 2801 682 
Q 2903 884 2903 1188 
Q 2903 1491 2792 1687 
Q 2681 1884 2450 1981 
Q 2219 2078 1813 2078 
L 1328 2078 
L 1328 297 
z
" transform="scale(0.015625)"/>
      <path id="Cambria-16" d="M 663 972 
Q 725 697 831 537 
Q 938 378 1106 301 
Q 1275 225 1541 225 
Q 1906 225 2101 415 
Q 2297 606 2297 972 
Q 2297 1206 2215 1365 
Q 2134 1525 1950 1665 
Q 1766 1806 1388 1994 
Q 1022 2175 809 2348 
Q 597 2522 492 2725 
Q 388 2928 388 3169 
Q 388 3519 552 3776 
Q 716 4034 1033 4175 
Q 1350 4316 1759 4316 
Q 1997 4316 2223 4291 
Q 2450 4266 2791 4178 
L 2791 3334 
L 2481 3334 
Q 2409 3609 2300 3762 
Q 2191 3916 2044 3977 
Q 1897 4038 1663 4038 
Q 1459 4038 1298 3963 
Q 1138 3888 1044 3736 
Q 950 3584 950 3375 
Q 950 3153 1029 3000 
Q 1109 2847 1278 2715 
Q 1447 2584 1778 2422 
Q 2178 2222 2398 2050 
Q 2619 1878 2742 1658 
Q 2866 1438 2866 1144 
Q 2866 816 2762 589 
Q 2659 363 2476 220 
Q 2294 78 2039 14 
Q 1784 -50 1481 -50 
Q 991 -50 350 116 
L 350 972 
L 663 972 
z
" transform="scale(0.015625)"/>
      <path id="Cmmi10-7a" d="M 494 109 
Q 494 147 500 166 
L 978 2075 
Q 1025 2253 1025 2388 
Q 1025 2663 838 2663 
Q 638 2663 541 2423 
Q 444 2184 353 1819 
Q 353 1800 334 1789 
Q 316 1778 300 1778 
L 225 1778 
Q 203 1778 187 1801 
Q 172 1825 172 1844 
Q 241 2122 305 2315 
Q 369 2509 505 2668 
Q 641 2828 844 2828 
Q 1084 2828 1268 2676 
Q 1453 2525 1453 2291 
Q 1644 2541 1900 2684 
Q 2156 2828 2444 2828 
Q 2672 2828 2837 2750 
Q 3003 2672 3095 2514 
Q 3188 2356 3188 2138 
Q 3188 1875 3070 1503 
Q 2953 1131 2778 672 
Q 2688 463 2688 288 
Q 2688 97 2834 97 
Q 3084 97 3251 365 
Q 3419 634 3488 941 
Q 3500 978 3541 978 
L 3616 978 
Q 3641 978 3658 962 
Q 3675 947 3675 922 
Q 3675 916 3669 903 
Q 3581 541 3364 234 
Q 3147 -72 2822 -72 
Q 2597 -72 2437 83 
Q 2278 238 2278 459 
Q 2278 578 2328 709 
Q 2409 919 2514 1209 
Q 2619 1500 2686 1765 
Q 2753 2031 2753 2234 
Q 2753 2413 2679 2538 
Q 2606 2663 2431 2663 
Q 2197 2663 2000 2559 
Q 1803 2456 1656 2286 
Q 1509 2116 1388 1881 
L 953 141 
Q 931 53 854 -9 
Q 778 -72 684 -72 
Q 606 -72 550 -22 
Q 494 28 494 109 
z
" transform="scale(0.015625)"/>
      <path id="Cmr10-29" d="M 481 850 
Q 428 850 393 890 
Q 359 931 359 978 
Q 359 1031 393 1068 
Q 428 1106 481 1106 
L 4500 1106 
Q 4547 1106 4581 1068 
Q 4616 1031 4616 978 
Q 4616 931 4581 890 
Q 4547 850 4500 850 
L 481 850 
z
M 481 2094 
Q 428 2094 393 2131 
Q 359 2169 359 2222 
Q 359 2269 393 2309 
Q 428 2350 481 2350 
L 4500 2350 
Q 4547 2350 4581 2309 
Q 4616 2269 4616 2222 
Q 4616 2169 4581 2131 
Q 4547 2094 4500 2094 
L 481 2094 
z
" transform="scale(0.015625)"/>
      <path id="Cmr10-78" d="M 556 728 
Q 622 541 758 387 
Q 894 234 1080 148 
Q 1266 63 1466 63 
Q 1928 63 2103 422 
Q 2278 781 2278 1294 
Q 2278 1516 2270 1667 
Q 2263 1819 2228 1959 
Q 2169 2184 2020 2353 
Q 1872 2522 1656 2522 
Q 1441 2522 1286 2456 
Q 1131 2391 1034 2303 
Q 938 2216 863 2119 
Q 788 2022 769 2016 
L 697 2016 
Q 681 2016 657 2036 
Q 634 2056 634 2075 
L 634 4213 
Q 634 4228 654 4245 
Q 675 4263 697 4263 
L 716 4263 
Q 1147 4056 1631 4056 
Q 2106 4056 2547 4263 
L 2566 4263 
Q 2588 4263 2606 4247 
Q 2625 4231 2625 4213 
L 2625 4153 
Q 2625 4122 2613 4122 
Q 2394 3831 2064 3668 
Q 1734 3506 1381 3506 
Q 1125 3506 856 3578 
L 856 2369 
Q 1069 2541 1236 2614 
Q 1403 2688 1663 2688 
Q 2016 2688 2295 2484 
Q 2575 2281 2725 1954 
Q 2875 1628 2875 1288 
Q 2875 903 2686 575 
Q 2497 247 2172 53 
Q 1847 -141 1466 -141 
Q 1150 -141 886 21 
Q 622 184 470 459 
Q 319 734 319 1044 
Q 319 1188 412 1278 
Q 506 1369 647 1369 
Q 788 1369 883 1276 
Q 978 1184 978 1044 
Q 978 906 883 811 
Q 788 716 647 716 
Q 625 716 597 720 
Q 569 725 556 728 
z
" transform="scale(0.015625)"/>
      <path id="Cmr10-7f" d="M 1113 166 
Q 1113 522 1175 862 
Q 1238 1203 1358 1536 
Q 1478 1869 1648 2189 
Q 1819 2509 2022 2791 
L 2606 3603 
L 1875 3603 
Q 738 3603 703 3572 
Q 619 3469 544 2981 
L 359 2981 
L 569 4325 
L 756 4325 
L 756 4306 
Q 756 4191 1147 4156 
Q 1538 4122 1913 4122 
L 3103 4122 
L 3103 3956 
Q 3103 3950 3101 3947 
Q 3100 3944 3097 3938 
L 2216 2700 
Q 1891 2219 1809 1631 
Q 1728 1044 1728 166 
Q 1728 41 1637 -50 
Q 1547 -141 1422 -141 
Q 1294 -141 1203 -50 
Q 1113 41 1113 166 
z
" transform="scale(0.015625)"/>
     </defs>
     <use xlink:href="#Cambria-5" transform="translate(0 0.9375)"/>
     <use xlink:href="#Cambria-16" transform="translate(61.132812 0.9375)"/>
     <use xlink:href="#Cambria-3" transform="translate(110.742188 0.9375)"/>
     <use xlink:href="#Cambria-374" transform="translate(132.763672 0.9375)"/>
     <use xlink:href="#Cambria-372" transform="translate(188.134766 0.9375)"/>
     <use xlink:href="#Cambria-374" transform="translate(243.505859 0.9375)"/>
     <use xlink:href="#Cambria-372" transform="translate(298.876953 0.9375)"/>
     <use xlink:href="#Cambria-3" transform="translate(354.248047 0.9375)"/>
     <use xlink:href="#Cambria-16" transform="translate(376.269531 0.9375)"/>
     <use xlink:href="#Cambria-87" transform="translate(425.878906 0.9375)"/>
     <use xlink:href="#Cambria-85" transform="translate(474.658203 0.9375)"/>
     <use xlink:href="#Cambria-1e4" transform="translate(518.75 0.9375)"/>
     <use xlink:href="#Cambria-3" transform="translate(539.257812 0.9375)"/>
     <use xlink:href="#Cambria-375" transform="translate(561.279297 0.9375)"/>
     <use xlink:href="#Cambria-1e4" transform="translate(616.650391 0.9375)"/>
     <use xlink:href="#Cambria-375" transform="translate(637.158203 0.9375)"/>
     <use xlink:href="#Cambria-3" transform="translate(692.529297 0.9375)"/>
     <use xlink:href="#Cambria-20b" transform="translate(714.550781 0.9375)"/>
     <use xlink:href="#Cmmi10-7a" transform="translate(752.734375 0.9375)"/>
     <use xlink:href="#Cmr10-29" transform="translate(832.744198 0.9375)"/>
     <use xlink:href="#Cmr10-31" transform="translate(930.429802 0.9375)"/>
     <use xlink:href="#Cmr10-78" transform="translate(980.429802 0.9375)"/>
     <use xlink:href="#Cmr10-7f" transform="translate(1030.429802 0.9375)"/>
     <use xlink:href="#Cambria-20c" transform="translate(1080.429802 0.9375)"/>
    </g>
   </g>
   <g id="patch_18">
    <path d="M 169.63975 272.937355 
L 186.83975 272.937355 
L 186.83975 266.917355 
L 169.63975 266.917355 
z
" style="fill: #1baf7a; stroke: #fcfcfb; stroke-linejoin: miter"/>
   </g>
   <g id="text_31">
    <!-- Peikert 2020 optimistic ($n=257$) -->
    <g transform="translate(193.71975 272.937355) scale(0.086 -0.086)">
     <defs>
      <path id="Cambria-13" d="M 1328 791 
Q 1328 606 1348 497 
Q 1369 388 1411 323 
Q 1453 259 1525 223 
Q 1597 188 1750 153 
L 1750 0 
L 378 0 
L 378 153 
Q 572 203 637 264 
Q 703 325 723 437 
Q 744 550 744 781 
L 744 3484 
Q 744 3700 728 3798 
Q 713 3897 677 3951 
Q 641 4006 581 4039 
Q 522 4072 378 4113 
L 378 4266 
L 1928 4266 
Q 2659 4266 3017 3986 
Q 3375 3706 3375 3134 
Q 3375 2809 3262 2550 
Q 3150 2291 2944 2125 
Q 2738 1959 2456 1887 
Q 2175 1816 1866 1816 
Q 1519 1816 1328 1828 
L 1328 791 
z
M 1328 2088 
L 1691 2088 
Q 2044 2088 2273 2180 
Q 2503 2272 2625 2486 
Q 2747 2700 2747 3053 
Q 2747 3322 2675 3501 
Q 2603 3681 2476 3790 
Q 2350 3900 2175 3945 
Q 2000 3991 1794 3991 
Q 1484 3991 1328 3978 
L 1328 2088 
z
" transform="scale(0.015625)"/>
      <path id="Cambria-8d" d="M 1138 1741 
L 1238 1741 
Q 1341 1741 1406 1763 
Q 1484 1791 1578 1858 
Q 1672 1925 1844 2084 
Q 1988 2219 2061 2312 
Q 2134 2406 2163 2484 
Q 2188 2550 2188 2616 
Q 2188 2709 2130 2762 
Q 2072 2816 1941 2834 
L 1941 2988 
L 3288 2988 
L 3288 2834 
Q 3144 2806 2981 2706 
Q 2819 2606 2647 2444 
L 1928 1763 
L 2828 588 
Q 2984 381 3111 282 
Q 3238 184 3388 153 
L 3388 0 
L 2188 0 
L 2188 153 
Q 2269 163 2308 189 
Q 2347 216 2347 278 
Q 2347 325 2330 370 
Q 2313 416 2259 494 
Q 2206 572 2066 766 
L 1694 1266 
Q 1588 1406 1542 1450 
Q 1497 1494 1447 1512 
Q 1397 1531 1313 1531 
L 1138 1531 
L 1138 781 
Q 1138 513 1163 408 
Q 1188 303 1258 248 
Q 1328 194 1488 153 
L 1488 0 
L 247 0 
L 247 153 
Q 403 194 464 237 
Q 525 281 551 342 
Q 578 403 589 508 
Q 600 613 600 781 
L 600 3397 
Q 600 3697 595 3815 
Q 591 3934 570 4017 
Q 550 4100 514 4147 
Q 478 4194 417 4222 
Q 356 4250 197 4278 
L 197 4441 
L 950 4472 
L 1138 4472 
L 1138 1741 
z
" transform="scale(0.015625)"/>
     </defs>
     <use xlink:href="#Cambria-13" transform="translate(0 0.9375)"/>
     <use xlink:href="#Cambria-87" transform="translate(54.787109 0.9375)"/>
     <use xlink:href="#Cambria-8b" transform="translate(103.566406 0.9375)"/>
     <use xlink:href="#Cambria-8d" transform="translate(131.349609 0.9375)"/>
     <use xlink:href="#Cambria-87" transform="translate(183.791016 0.9375)"/>
     <use xlink:href="#Cambria-94" transform="translate(232.570312 0.9375)"/>
     <use xlink:href="#Cambria-96" transform="translate(273.927734 0.9375)"/>
     <use xlink:href="#Cambria-3" transform="translate(307.765625 0.9375)"/>
     <use xlink:href="#Cambria-374" transform="translate(329.787109 0.9375)"/>
     <use xlink:href="#Cambria-372" transform="translate(385.158203 0.9375)"/>
     <use xlink:href="#Cambria-374" transform="translate(440.529297 0.9375)"/>
     <use xlink:href="#Cambria-372" transform="translate(495.900391 0.9375)"/>
     <use xlink:href="#Cambria-3" transform="translate(551.271484 0.9375)"/>
     <use xlink:href="#Cambria-91" transform="translate(573.292969 0.9375)"/>
     <use xlink:href="#Cambria-92" transform="translate(626.369141 0.9375)"/>
     <use xlink:href="#Cambria-96" transform="translate(681.984375 0.9375)"/>
     <use xlink:href="#Cambria-8b" transform="translate(715.822266 0.9375)"/>
     <use xlink:href="#Cambria-8f" transform="translate(743.605469 0.9375)"/>
     <use xlink:href="#Cambria-8b" transform="translate(826.808594 0.9375)"/>
     <use xlink:href="#Cambria-95" transform="translate(854.591797 0.9375)"/>
     <use xlink:href="#Cambria-96" transform="translate(897.560547 0.9375)"/>
     <use xlink:href="#Cambria-8b" transform="translate(931.398438 0.9375)"/>
     <use xlink:href="#Cambria-85" transform="translate(959.181641 0.9375)"/>
     <use xlink:href="#Cambria-3" transform="translate(1003.273438 0.9375)"/>
     <use xlink:href="#Cambria-20b" transform="translate(1025.294922 0.9375)"/>
     <use xlink:href="#Cmmi10-7a" transform="translate(1063.478516 0.9375)"/>
     <use xlink:href="#Cmr10-29" transform="translate(1143.488338 0.9375)"/>
     <use xlink:href="#Cmr10-31" transform="translate(1241.173943 0.9375)"/>
     <use xlink:href="#Cmr10-78" transform="translate(1291.173943 0.9375)"/>
     <use xlink:href="#Cmr10-7f" transform="translate(1341.173943 0.9375)"/>
     <use xlink:href="#Cambria-20c" transform="translate(1391.173943 0.9375)"/>
    </g>
   </g>
   <g id="patch_19">
    <path d="M 333.89975 272.937355 
L 351.09975 272.937355 
L 351.09975 266.917355 
L 333.89975 266.917355 
z
" style="fill: #eb6834; stroke: #fcfcfb; stroke-linejoin: miter"/>
   </g>
   <g id="text_32">
    <!-- illustrative sieve ($n=64$) -->
    <g transform="translate(357.97975 272.937355) scale(0.086 -0.086)">
     <defs>
      <path id="Cmr10-45" d="M 1600 -141 
Q 1203 -141 937 70 
Q 672 281 526 617 
Q 381 953 325 1322 
Q 269 1691 269 2069 
Q 269 2575 466 3084 
Q 663 3594 1045 3928 
Q 1428 4263 1953 4263 
Q 2172 4263 2361 4180 
Q 2550 4097 2658 3936 
Q 2766 3775 2766 3547 
Q 2766 3416 2677 3327 
Q 2588 3238 2456 3238 
Q 2331 3238 2240 3328 
Q 2150 3419 2150 3547 
Q 2150 3672 2240 3762 
Q 2331 3853 2456 3853 
L 2491 3853 
Q 2409 3969 2261 4023 
Q 2113 4078 1953 4078 
Q 1759 4078 1595 3993 
Q 1431 3909 1300 3765 
Q 1169 3622 1081 3448 
Q 994 3275 945 3053 
Q 897 2831 884 2637 
Q 872 2444 872 2150 
Q 984 2413 1190 2580 
Q 1397 2747 1656 2747 
Q 1941 2747 2175 2631 
Q 2409 2516 2578 2311 
Q 2747 2106 2836 1843 
Q 2925 1581 2925 1313 
Q 2925 938 2758 598 
Q 2591 259 2287 59 
Q 1984 -141 1600 -141 
z
M 1600 63 
Q 1847 63 1997 175 
Q 2147 288 2217 473 
Q 2288 659 2305 848 
Q 2322 1038 2322 1313 
Q 2322 1675 2287 1931 
Q 2253 2188 2100 2383 
Q 1947 2578 1631 2578 
Q 1372 2578 1205 2403 
Q 1038 2228 961 1961 
Q 884 1694 884 1447 
Q 884 1363 891 1319 
Q 891 1309 889 1303 
Q 888 1297 884 1288 
Q 884 1013 940 731 
Q 997 450 1156 256 
Q 1316 63 1600 63 
z
" transform="scale(0.015625)"/>
      <path id="Cmr10-3b" d="M 178 1056 
L 178 1281 
L 2156 4231 
Q 2178 4263 2222 4263 
L 2316 4263 
Q 2388 4263 2388 4191 
L 2388 1281 
L 3016 1281 
L 3016 1056 
L 2388 1056 
L 2388 428 
Q 2388 297 2575 261 
Q 2763 225 3009 225 
L 3009 0 
L 1247 0 
L 1247 225 
Q 1494 225 1681 261 
Q 1869 297 1869 428 
L 1869 1056 
L 178 1056 
z
M 391 1281 
L 1906 1281 
L 1906 3547 
L 391 1281 
z
" transform="scale(0.015625)"/>
     </defs>
     <use xlink:href="#Cambria-8b" transform="translate(0 0.9375)"/>
     <use xlink:href="#Cambria-8e" transform="translate(27.783203 0.9375)"/>
     <use xlink:href="#Cambria-8e" transform="translate(54.931641 0.9375)"/>
     <use xlink:href="#Cambria-97" transform="translate(82.080078 0.9375)"/>
     <use xlink:href="#Cambria-95" transform="translate(137.304688 0.9375)"/>
     <use xlink:href="#Cambria-96" transform="translate(180.273438 0.9375)"/>
     <use xlink:href="#Cambria-94" transform="translate(214.111328 0.9375)"/>
     <use xlink:href="#Cambria-83" transform="translate(255.46875 0.9375)"/>
     <use xlink:href="#Cambria-96" transform="translate(304.296875 0.9375)"/>
     <use xlink:href="#Cambria-8b" transform="translate(338.134766 0.9375)"/>
     <use xlink:href="#Cambria-98" transform="translate(365.917969 0.9375)"/>
     <use xlink:href="#Cambria-87" transform="translate(416.308594 0.9375)"/>
     <use xlink:href="#Cambria-3" transform="translate(465.087891 0.9375)"/>
     <use xlink:href="#Cambria-95" transform="translate(487.109375 0.9375)"/>
     <use xlink:href="#Cambria-8b" transform="translate(530.078125 0.9375)"/>
     <use xlink:href="#Cambria-87" transform="translate(557.861328 0.9375)"/>
     <use xlink:href="#Cambria-98" transform="translate(606.640625 0.9375)"/>
     <use xlink:href="#Cambria-87" transform="translate(657.03125 0.9375)"/>
     <use xlink:href="#Cambria-3" transform="translate(705.810547 0.9375)"/>
     <use xlink:href="#Cambria-20b" transform="translate(727.832031 0.9375)"/>
     <use xlink:href="#Cmmi10-7a" transform="translate(766.015625 0.9375)"/>
     <use xlink:href="#Cmr10-29" transform="translate(846.025448 0.9375)"/>
     <use xlink:href="#Cmr10-45" transform="translate(943.711052 0.9375)"/>
     <use xlink:href="#Cmr10-3b" transform="translate(993.711052 0.9375)"/>
     <use xlink:href="#Cambria-20c" transform="translate(1043.711052 0.9375)"/>
    </g>
   </g>
  </g>
 </g>
 <defs>
  <clipPath id="pdbaf3bda77">
   <rect x="42.162734" y="25.311816" width="434.016016" height="225.788184"/>
  </clipPath>
 </defs>
</svg>
