<?xml version="1.0" encoding="utf-8" standalone="no"?>
<!DOCTYPE svg PUBLIC "-//W3C//DTD SVG 1.1//EN"
  "http://www.w3.org/Graphics/SVG/1.1/DTD/svg11.dtd">
<svg xmlns:xlink="http://www.w3.org/1999/xlink" width="409.800729pt" height="238.766016pt" viewBox="0 0 409.800729 238.766016" xmlns="http://www.w3.org/2000/svg" version="1.1">
 <metadata>
  <rdf:RDF xmlns:dc="http://purl.org/dc/elements/1.1/" xmlns:cc="http://creativecommons.org/ns#" xmlns:rdf="http://www.w3.org/1999/02/22-rdf-syntax-ns#">
   <cc:Work>
    <dc:type rdf:resource="http://purl.org/dc/dcmitype/StillImage"/>
    <dc:date>2026-07-23T00:44:34.883735</dc:date>
    <dc:format>image/svg+xml</dc:format>
    <dc:creator>
     <cc:Agent>
      <dc:title>Matplotlib v3.11.1, https://matplotlib.org/</dc:title>
     </cc:Agent>
    </dc:creator>
   </cc:Work>
  </rdf:RDF>
 </metadata>
 <defs>
  <style type="text/css">*{stroke-linejoin: round; stroke-linecap: butt}</style>
 </defs>
 <g id="figure_1">
  <g id="patch_1">
   <path d="M 0 238.766016 
L 409.800729 238.766016 
L 409.800729 0 
L 0 0 
z
" style="fill: #fcfcfb"/>
  </g>
  <g id="axes_1">
   <g id="patch_2">
    <path d="M 41.82875 198.066016 
L 390.373402 198.066016 
L 390.373402 25.311816 
L 41.82875 25.311816 
z
" style="fill: #fcfcfb"/>
   </g>
   <g id="matplotlib.axis_1">
    <g id="xtick_1">
     <g id="line2d_1">
      <path d="M 57.671689 198.066016 
L 57.671689 25.311816 
" clip-path="url(#p15bf31f534)" style="fill: none; stroke: #e1e0d9; stroke-width: 0.7; stroke-linecap: square"/>
     </g>
     <g id="line2d_2">
      <defs>
       <path id="m344765fc3d" d="M 0 0 
L 0 3.5 
" style="stroke: #898781; stroke-width: 0.8"/>
      </defs>
      <g>
       <use xlink:href="#m344765fc3d" x="57.671689" y="198.066016" style="fill: #898781; stroke: #898781; stroke-width: 0.8"/>
      </g>
     </g>
     <g id="text_1">
      <!-- 1 -->
      <g style="fill: #52514e" transform="translate(54.764501 213.233252) scale(0.105 -0.105)">
       <defs>
        <path id="Cambria-373" d="M 2172 816 
Q 2172 634 2192 542 
Q 2213 450 2264 392 
Q 2316 334 2412 301 
Q 2509 269 2656 251 
Q 2803 234 3044 228 
L 3044 0 
L 734 0 
L 734 228 
Q 1081 244 1229 270 
Q 1378 297 1456 350 
Q 1534 403 1570 500 
Q 1606 597 1606 816 
L 1606 3350 
Q 1606 3475 1562 3533 
Q 1519 3591 1434 3591 
Q 1334 3591 1150 3487 
Q 966 3384 694 3203 
L 556 3444 
L 2019 4316 
L 2191 4316 
Q 2172 4016 2172 3484 
L 2172 816 
z
" transform="scale(0.015625)"/>
       </defs>
       <use xlink:href="#Cambria-373"/>
      </g>
     </g>
    </g>
    <g id="xtick_2">
     <g id="line2d_3">
      <path d="M 163.29128 198.066016 
L 163.29128 25.311816 
" clip-path="url(#p15bf31f534)" style="fill: none; stroke: #e1e0d9; stroke-width: 0.7; stroke-linecap: square"/>
     </g>
     <g id="line2d_4">
      <g>
       <use xlink:href="#m344765fc3d" x="163.29128" y="198.066016" style="fill: #898781; stroke: #898781; stroke-width: 0.8"/>
      </g>
     </g>
     <g id="text_2">
      <!-- 2 -->
      <g style="fill: #52514e" transform="translate(160.384093 213.233252) scale(0.105 -0.105)">
       <defs>
        <path id="Cambria-374" d="M 2194 500 
Q 2347 500 2440 519 
Q 2534 538 2590 581 
Q 2647 625 2680 695 
Q 2713 766 2763 913 
L 3028 913 
L 2975 0 
L 403 0 
L 403 150 
Q 538 478 766 822 
Q 994 1166 1413 1631 
Q 1775 2031 1934 2238 
Q 2109 2463 2195 2627 
Q 2281 2791 2318 2936 
Q 2356 3081 2356 3228 
Q 2356 3463 2281 3642 
Q 2206 3822 2051 3925 
Q 1897 4028 1663 4028 
Q 1078 4028 875 3378 
L 497 3378 
L 497 3978 
Q 875 4156 1204 4236 
Q 1534 4316 1797 4316 
Q 2378 4316 2675 4061 
Q 2972 3806 2972 3322 
Q 2972 3156 2939 3017 
Q 2906 2878 2836 2742 
Q 2766 2606 2647 2450 
Q 2528 2294 2384 2133 
Q 2241 1972 1888 1597 
Q 1294 969 1016 500 
L 2194 500 
z
" transform="scale(0.015625)"/>
       </defs>
       <use xlink:href="#Cambria-374"/>
      </g>
     </g>
    </g>
    <g id="xtick_3">
     <g id="line2d_5">
      <path d="M 268.910872 198.066016 
L 268.910872 25.311816 
" clip-path="url(#p15bf31f534)" style="fill: none; stroke: #e1e0d9; stroke-width: 0.7; stroke-linecap: square"/>
     </g>
     <g id="line2d_6">
      <g>
       <use xlink:href="#m344765fc3d" x="268.910872" y="198.066016" style="fill: #898781; stroke: #898781; stroke-width: 0.8"/>
      </g>
     </g>
     <g id="text_3">
      <!-- 3 -->
      <g style="fill: #52514e" transform="translate(266.003684 213.233252) scale(0.105 -0.105)">
       <defs>
        <path id="Cambria-375" d="M 497 3381 
L 497 3975 
Q 859 4147 1175 4231 
Q 1491 4316 1784 4316 
Q 2138 4316 2403 4206 
Q 2669 4097 2809 3892 
Q 2950 3688 2950 3403 
Q 2950 3138 2844 2936 
Q 2738 2734 2545 2584 
Q 2353 2434 2047 2291 
L 2047 2263 
Q 2238 2228 2414 2145 
Q 2591 2063 2728 1931 
Q 2866 1800 2948 1617 
Q 3031 1434 3031 1200 
Q 3031 838 2873 556 
Q 2716 275 2391 112 
Q 2066 -50 1600 -50 
Q 1331 -50 1020 11 
Q 709 72 450 172 
L 450 834 
L 825 834 
Q 934 509 1114 362 
Q 1294 216 1603 216 
Q 2009 216 2217 437 
Q 2425 659 2425 1094 
Q 2425 1550 2150 1790 
Q 1875 2031 1344 2031 
L 1063 2031 
L 1063 2306 
Q 1484 2331 1773 2468 
Q 2063 2606 2203 2822 
Q 2344 3038 2344 3306 
Q 2344 3653 2159 3840 
Q 1975 4028 1622 4028 
Q 1328 4028 1143 3868 
Q 959 3709 872 3381 
L 497 3381 
z
" transform="scale(0.015625)"/>
       </defs>
       <use xlink:href="#Cambria-375"/>
      </g>
     </g>
    </g>
    <g id="xtick_4">
     <g id="line2d_7">
      <path d="M 374.530463 198.066016 
L 374.530463 25.311816 
" clip-path="url(#p15bf31f534)" style="fill: none; stroke: #e1e0d9; stroke-width: 0.7; stroke-linecap: square"/>
     </g>
     <g id="line2d_8">
      <g>
       <use xlink:href="#m344765fc3d" x="374.530463" y="198.066016" style="fill: #898781; stroke: #898781; stroke-width: 0.8"/>
      </g>
     </g>
     <g id="text_4">
      <!-- 4 -->
      <g style="fill: #52514e" transform="translate(371.623276 213.233252) scale(0.105 -0.105)">
       <defs>
        <path id="Cambria-376" d="M 1613 153 
Q 1806 203 1872 264 
Q 1938 325 1958 437 
Q 1978 550 1978 781 
L 1978 1294 
L 241 1294 
L 241 1528 
L 2069 4288 
L 2516 4288 
L 2516 1597 
L 2581 1597 
Q 2763 1597 2841 1623 
Q 2919 1650 2970 1717 
Q 3022 1784 3066 1938 
L 3303 1938 
L 3266 1294 
L 2516 1294 
L 2516 781 
Q 2516 572 2530 475 
Q 2544 378 2576 322 
Q 2609 266 2673 228 
Q 2738 191 2881 153 
L 2881 0 
L 1613 0 
L 1613 153 
z
M 756 1597 
L 1978 1597 
L 1978 2375 
Q 1978 2669 1987 3033 
Q 1997 3397 2009 3581 
L 1978 3581 
L 756 1641 
L 756 1597 
z
" transform="scale(0.015625)"/>
       </defs>
       <use xlink:href="#Cambria-376"/>
      </g>
     </g>
    </g>
    <g id="text_5">
     <!-- probe count $T$ -->
     <g style="fill: #0b0b0b" transform="translate(180.161076 228.9) scale(0.12 -0.12)">
      <defs>
       <path id="Cambria-92" d="M 1150 94 
L 1150 -566 
Q 1150 -769 1164 -869 
Q 1178 -969 1214 -1026 
Q 1250 -1084 1317 -1121 
Q 1384 -1159 1534 -1191 
L 1534 -1344 
L 259 -1344 
L 259 -1191 
Q 372 -1159 442 -1126 
Q 513 -1094 550 -1030 
Q 588 -966 600 -856 
Q 613 -747 613 -566 
L 613 2116 
Q 613 2341 606 2436 
Q 600 2531 581 2593 
Q 563 2656 527 2697 
Q 491 2738 430 2766 
Q 369 2794 228 2822 
L 228 2988 
L 963 3016 
L 1153 3016 
L 1113 2506 
L 1159 2494 
Q 1353 2691 1465 2780 
Q 1578 2869 1698 2928 
Q 1819 2988 1930 3013 
Q 2041 3038 2166 3038 
Q 2681 3038 2957 2652 
Q 3234 2266 3234 1522 
Q 3234 1006 3078 654 
Q 2922 303 2623 126 
Q 2325 -50 1913 -50 
Q 1681 -50 1493 -11 
Q 1306 28 1150 94 
z
M 1150 1125 
Q 1150 825 1187 662 
Q 1225 500 1320 398 
Q 1416 297 1545 247 
Q 1675 197 1888 197 
Q 2266 197 2456 511 
Q 2647 825 2647 1438 
Q 2647 2663 1931 2663 
Q 1756 2663 1629 2608 
Q 1503 2553 1378 2431 
Q 1253 2309 1201 2195 
Q 1150 2081 1150 1950 
L 1150 1125 
z
" transform="scale(0.015625)"/>
       <path id="Cambria-94" d="M 1147 2469 
L 1191 2459 
Q 1363 2669 1509 2789 
Q 1656 2909 1826 2975 
Q 1997 3041 2213 3041 
Q 2394 3041 2541 3022 
L 2541 2303 
L 2188 2303 
Q 2113 2472 2028 2548 
Q 1944 2625 1797 2625 
Q 1684 2625 1573 2559 
Q 1463 2494 1359 2369 
Q 1256 2244 1217 2134 
Q 1178 2025 1178 1875 
L 1178 781 
Q 1178 497 1212 389 
Q 1247 281 1326 231 
Q 1406 181 1566 153 
L 1566 0 
L 306 0 
L 306 153 
Q 425 191 476 219 
Q 528 247 565 297 
Q 603 347 622 450 
Q 641 553 641 772 
L 641 2134 
Q 641 2334 634 2456 
Q 628 2578 590 2651 
Q 553 2725 476 2761 
Q 400 2797 259 2822 
L 259 2984 
L 991 3016 
L 1181 3016 
L 1147 2469 
z
" transform="scale(0.015625)"/>
       <path id="Cambria-91" d="M 1663 -50 
Q 1013 -50 670 333 
Q 328 716 328 1466 
Q 328 1981 508 2337 
Q 688 2694 1000 2867 
Q 1313 3041 1713 3041 
Q 2381 3041 2725 2652 
Q 3069 2263 3069 1534 
Q 3069 1016 2897 659 
Q 2725 303 2409 126 
Q 2094 -50 1663 -50 
z
M 919 1531 
Q 919 888 1123 542 
Q 1328 197 1709 197 
Q 1919 197 2066 298 
Q 2213 400 2305 572 
Q 2397 744 2437 970 
Q 2478 1197 2478 1444 
Q 2478 1903 2376 2206 
Q 2275 2509 2100 2651 
Q 1925 2794 1700 2794 
Q 1322 2794 1120 2466 
Q 919 2138 919 1531 
z
" transform="scale(0.015625)"/>
       <path id="Cambria-84" d="M 1091 2497 
L 1103 2494 
Q 1322 2722 1467 2825 
Q 1613 2928 1767 2983 
Q 1922 3038 2106 3038 
Q 2441 3038 2680 2867 
Q 2919 2697 3048 2356 
Q 3178 2016 3178 1522 
Q 3178 1013 3023 661 
Q 2869 309 2567 129 
Q 2266 -50 1853 -50 
Q 1622 -50 1417 -8 
Q 1213 34 988 141 
L 769 -50 
L 553 0 
L 553 3397 
Q 553 3697 548 3815 
Q 544 3934 523 4017 
Q 503 4100 467 4147 
Q 431 4194 370 4222 
Q 309 4250 150 4278 
L 150 4441 
L 906 4472 
L 1091 4472 
L 1091 2497 
z
M 1091 1125 
Q 1091 884 1112 742 
Q 1134 600 1186 506 
Q 1238 413 1336 334 
Q 1434 256 1556 226 
Q 1678 197 1828 197 
Q 2203 197 2397 503 
Q 2591 809 2591 1422 
Q 2591 2041 2414 2352 
Q 2238 2663 1881 2663 
Q 1703 2663 1578 2608 
Q 1453 2553 1329 2437 
Q 1206 2322 1148 2209 
Q 1091 2097 1091 1953 
L 1091 1125 
z
" transform="scale(0.015625)"/>
       <path id="Cambria-87" d="M 2800 531 
Q 2600 322 2433 203 
Q 2266 84 2066 17 
Q 1866 -50 1625 -50 
Q 981 -50 653 336 
Q 325 722 325 1475 
Q 325 1941 492 2297 
Q 659 2653 968 2847 
Q 1278 3041 1681 3041 
Q 1997 3041 2219 2941 
Q 2441 2841 2573 2667 
Q 2706 2494 2779 2230 
Q 2853 1966 2863 1541 
L 894 1541 
L 894 1484 
Q 894 1116 976 864 
Q 1059 613 1248 470 
Q 1438 328 1741 328 
Q 1997 328 2201 423 
Q 2406 519 2609 734 
L 2800 531 
z
M 2275 1800 
Q 2256 2138 2190 2352 
Q 2125 2566 1994 2680 
Q 1863 2794 1650 2794 
Q 1328 2794 1136 2536 
Q 944 2278 909 1800 
L 2275 1800 
z
" transform="scale(0.015625)"/>
       <path id="Cambria-3" transform="scale(0.015625)"/>
       <path id="Cambria-85" d="M 2631 2916 
L 2631 2263 
L 2234 2263 
Q 2181 2466 2103 2583 
Q 2025 2700 1922 2747 
Q 1819 2794 1666 2794 
Q 1447 2794 1278 2653 
Q 1109 2513 1011 2225 
Q 913 1938 913 1522 
Q 913 1256 950 1036 
Q 988 816 1078 659 
Q 1169 503 1319 415 
Q 1469 328 1691 328 
Q 1906 328 2092 412 
Q 2278 497 2478 709 
L 2656 503 
Q 2497 328 2375 233 
Q 2253 138 2114 73 
Q 1975 9 1839 -20 
Q 1703 -50 1544 -50 
Q 953 -50 640 342 
Q 328 734 328 1475 
Q 328 1938 503 2295 
Q 678 2653 993 2847 
Q 1309 3041 1722 3041 
Q 1978 3041 2195 3011 
Q 2413 2981 2631 2916 
z
" transform="scale(0.015625)"/>
       <path id="Cambria-97" d="M 228 2988 
L 1119 2988 
L 1119 1397 
Q 1119 1031 1147 840 
Q 1175 650 1231 553 
Q 1288 456 1391 390 
Q 1494 325 1675 325 
Q 1794 325 1903 372 
Q 2013 419 2147 536 
Q 2281 653 2339 768 
Q 2397 884 2397 1038 
L 2397 2209 
Q 2397 2388 2387 2478 
Q 2378 2569 2356 2623 
Q 2334 2678 2304 2712 
Q 2275 2747 2220 2775 
Q 2166 2803 2044 2834 
L 2044 2988 
L 2934 2988 
L 2934 853 
Q 2934 613 2943 506 
Q 2953 400 2984 337 
Q 3016 275 3081 236 
Q 3147 197 3316 163 
L 3316 0 
L 2600 -31 
L 2409 -31 
L 2428 481 
L 2381 494 
Q 2122 213 1886 81 
Q 1650 -50 1413 -50 
Q 1128 -50 943 62 
Q 759 175 668 398 
Q 578 622 578 1028 
L 578 2209 
Q 578 2472 558 2570 
Q 538 2669 480 2726 
Q 422 2784 228 2834 
L 228 2988 
z
" transform="scale(0.015625)"/>
       <path id="Cambria-90" d="M 3347 0 
L 2116 0 
L 2116 153 
Q 2238 191 2291 219 
Q 2344 247 2380 297 
Q 2416 347 2436 451 
Q 2456 556 2456 769 
L 2456 1588 
Q 2456 1806 2443 1984 
Q 2431 2163 2401 2277 
Q 2372 2391 2330 2455 
Q 2288 2519 2230 2564 
Q 2172 2609 2097 2636 
Q 2022 2663 1900 2663 
Q 1778 2663 1668 2614 
Q 1559 2566 1428 2447 
Q 1297 2328 1237 2212 
Q 1178 2097 1178 1947 
L 1178 781 
Q 1178 513 1203 408 
Q 1228 303 1298 248 
Q 1369 194 1528 153 
L 1528 0 
L 303 0 
L 303 153 
Q 425 191 476 219 
Q 528 247 564 297 
Q 600 347 620 450 
Q 641 553 641 772 
L 641 2134 
Q 641 2334 634 2456 
Q 628 2578 590 2651 
Q 553 2725 476 2761 
Q 400 2797 259 2822 
L 259 2988 
L 991 3016 
L 1181 3016 
L 1147 2506 
L 1191 2494 
Q 1422 2728 1564 2828 
Q 1706 2928 1851 2983 
Q 1997 3038 2159 3038 
Q 2328 3038 2461 2998 
Q 2594 2959 2695 2878 
Q 2797 2797 2862 2676 
Q 2928 2556 2961 2387 
Q 2994 2219 2994 1959 
L 2994 781 
Q 2994 566 3006 469 
Q 3019 372 3050 319 
Q 3081 266 3140 230 
Q 3200 194 3347 153 
L 3347 0 
z
" transform="scale(0.015625)"/>
       <path id="Cambria-96" d="M 116 2831 
Q 272 2856 369 2918 
Q 466 2981 520 3079 
Q 575 3178 606 3326 
Q 638 3475 672 3759 
L 1116 3759 
L 1116 2988 
L 2125 2988 
L 2125 2672 
L 1116 2672 
L 1116 1281 
Q 1116 978 1141 798 
Q 1166 619 1234 517 
Q 1303 416 1390 372 
Q 1478 328 1616 328 
Q 1741 328 1850 379 
Q 1959 431 2066 528 
L 2206 359 
Q 1984 144 1786 47 
Q 1588 -50 1375 -50 
Q 972 -50 775 189 
Q 578 428 578 938 
L 578 2672 
L 116 2672 
L 116 2831 
z
" transform="scale(0.015625)"/>
       <path id="Cmmi10-78" d="M 294 84 
Q 297 100 308 140 
Q 319 181 336 203 
Q 353 225 384 225 
Q 934 225 1113 256 
Q 1284 300 1319 441 
L 2194 3956 
Q 2222 4034 2222 4097 
Q 2222 4147 1997 4147 
L 1625 4147 
Q 1197 4147 964 4015 
Q 731 3884 622 3668 
Q 513 3453 341 2963 
Q 319 2906 275 2906 
L 219 2906 
Q 153 2906 153 2988 
L 609 4313 
Q 622 4372 672 4372 
L 4453 4372 
Q 4519 4372 4519 4288 
L 4306 2963 
Q 4306 2944 4284 2925 
Q 4263 2906 4244 2906 
L 4184 2906 
Q 4122 2906 4122 2988 
Q 4191 3441 4191 3628 
Q 4191 3853 4097 3968 
Q 4003 4084 3853 4115 
Q 3703 4147 3463 4147 
L 3084 4147 
Q 2913 4147 2853 4115 
Q 2794 4084 2753 3928 
L 1875 416 
Q 1872 403 1870 390 
Q 1869 378 1863 359 
Q 1863 278 1959 256 
Q 2125 225 2669 225 
Q 2731 225 2731 141 
Q 2709 50 2696 25 
Q 2684 0 2625 0 
L 359 0 
Q 294 0 294 84 
z
" transform="scale(0.015625)"/>
      </defs>
      <use xlink:href="#Cambria-92" transform="translate(0 0.125)"/>
      <use xlink:href="#Cambria-94" transform="translate(55.615234 0.125)"/>
      <use xlink:href="#Cambria-91" transform="translate(96.972656 0.125)"/>
      <use xlink:href="#Cambria-84" transform="translate(150.048828 0.125)"/>
      <use xlink:href="#Cambria-87" transform="translate(204.785156 0.125)"/>
      <use xlink:href="#Cambria-3" transform="translate(253.564453 0.125)"/>
      <use xlink:href="#Cambria-85" transform="translate(275.585938 0.125)"/>
      <use xlink:href="#Cambria-91" transform="translate(319.677734 0.125)"/>
      <use xlink:href="#Cambria-97" transform="translate(372.753906 0.125)"/>
      <use xlink:href="#Cambria-90" transform="translate(427.978516 0.125)"/>
      <use xlink:href="#Cambria-96" transform="translate(483.789062 0.125)"/>
      <use xlink:href="#Cambria-3" transform="translate(517.626953 0.125)"/>
      <use xlink:href="#Cmmi10-78" transform="translate(539.648438 0.125)"/>
     </g>
    </g>
   </g>
   <g id="matplotlib.axis_2">
    <g id="ytick_1">
     <g id="line2d_9">
      <path d="M 41.82875 198.066016 
L 390.373402 198.066016 
" clip-path="url(#p15bf31f534)" style="fill: none; stroke: #e1e0d9; stroke-width: 0.7; stroke-linecap: square"/>
     </g>
     <g id="line2d_10">
      <defs>
       <path id="mbafd0acac0" d="M 0 0 
L -3.5 0 
" style="stroke: #898781; stroke-width: 0.8"/>
      </defs>
      <g>
       <use xlink:href="#mbafd0acac0" x="41.82875" y="198.066016" style="fill: #898781; stroke: #898781; stroke-width: 0.8"/>
      </g>
     </g>
     <g id="text_6">
      <!-- 0 -->
      <g style="fill: #52514e" transform="translate(29.014375 202.149634) scale(0.105 -0.105)">
       <defs>
        <path id="Cambria-372" d="M 1738 -50 
Q 1063 -50 733 481 
Q 403 1013 403 2094 
Q 403 2669 504 3087 
Q 606 3506 789 3779 
Q 972 4053 1228 4184 
Q 1484 4316 1788 4316 
Q 2472 4316 2806 3787 
Q 3141 3259 3141 2191 
Q 3141 1084 2783 517 
Q 2425 -50 1738 -50 
z
M 1013 2188 
Q 1013 1169 1202 692 
Q 1391 216 1788 216 
Q 2166 216 2348 664 
Q 2531 1113 2531 2053 
Q 2531 2772 2437 3217 
Q 2344 3663 2176 3856 
Q 2009 4050 1772 4050 
Q 1556 4050 1411 3922 
Q 1266 3794 1177 3553 
Q 1088 3313 1050 2967 
Q 1013 2622 1013 2188 
z
" transform="scale(0.015625)"/>
       </defs>
       <use xlink:href="#Cambria-372"/>
      </g>
     </g>
    </g>
    <g id="ytick_2">
     <g id="line2d_11">
      <path d="M 41.82875 158.803698 
L 390.373402 158.803698 
" clip-path="url(#p15bf31f534)" style="fill: none; stroke: #e1e0d9; stroke-width: 0.7; stroke-linecap: square"/>
     </g>
     <g id="line2d_12">
      <g>
       <use xlink:href="#mbafd0acac0" x="41.82875" y="158.803698" style="fill: #898781; stroke: #898781; stroke-width: 0.8"/>
      </g>
     </g>
     <g id="text_7">
      <!-- 5 -->
      <g style="fill: #52514e" transform="translate(29.014375 162.887316) scale(0.105 -0.105)">
       <defs>
        <path id="Cambria-377" d="M 469 172 
L 469 834 
L 847 834 
Q 941 516 1130 366 
Q 1319 216 1619 216 
Q 2034 216 2246 466 
Q 2459 716 2459 1213 
Q 2459 1544 2346 1761 
Q 2234 1978 2043 2075 
Q 1853 2172 1600 2172 
Q 1388 2172 1234 2145 
Q 1081 2119 906 2063 
L 656 2209 
L 656 4266 
L 2378 4266 
Q 2484 4266 2531 4283 
Q 2578 4300 2606 4336 
Q 2634 4372 2672 4472 
L 2916 4472 
L 2869 3747 
L 1072 3747 
L 1072 2375 
Q 1234 2444 1425 2478 
Q 1616 2513 1806 2513 
Q 2178 2513 2465 2361 
Q 2753 2209 2909 1929 
Q 3066 1650 3066 1281 
Q 3066 863 2891 563 
Q 2716 263 2384 106 
Q 2053 -50 1600 -50 
Q 1059 -50 469 172 
z
" transform="scale(0.015625)"/>
       </defs>
       <use xlink:href="#Cambria-377"/>
      </g>
     </g>
    </g>
    <g id="ytick_3">
     <g id="line2d_13">
      <path d="M 41.82875 119.54138 
L 390.373402 119.54138 
" clip-path="url(#p15bf31f534)" style="fill: none; stroke: #e1e0d9; stroke-width: 0.7; stroke-linecap: square"/>
     </g>
     <g id="line2d_14">
      <g>
       <use xlink:href="#mbafd0acac0" x="41.82875" y="119.54138" style="fill: #898781; stroke: #898781; stroke-width: 0.8"/>
      </g>
     </g>
     <g id="text_8">
      <!-- 10 -->
      <g style="fill: #52514e" transform="translate(23.2 123.624998) scale(0.105 -0.105)">
       <use xlink:href="#Cambria-373"/>
       <use xlink:href="#Cambria-372" transform="translate(55.375 0)"/>
      </g>
     </g>
    </g>
    <g id="ytick_4">
     <g id="line2d_15">
      <path d="M 41.82875 80.279062 
L 390.373402 80.279062 
" clip-path="url(#p15bf31f534)" style="fill: none; stroke: #e1e0d9; stroke-width: 0.7; stroke-linecap: square"/>
     </g>
     <g id="line2d_16">
      <g>
       <use xlink:href="#mbafd0acac0" x="41.82875" y="80.279062" style="fill: #898781; stroke: #898781; stroke-width: 0.8"/>
      </g>
     </g>
     <g id="text_9">
      <!-- 15 -->
      <g style="fill: #52514e" transform="translate(23.2 84.36268) scale(0.105 -0.105)">
       <use xlink:href="#Cambria-373"/>
       <use xlink:href="#Cambria-377" transform="translate(55.375 0)"/>
      </g>
     </g>
    </g>
    <g id="ytick_5">
     <g id="line2d_17">
      <path d="M 41.82875 41.016744 
L 390.373402 41.016744 
" clip-path="url(#p15bf31f534)" style="fill: none; stroke: #e1e0d9; stroke-width: 0.7; stroke-linecap: square"/>
     </g>
     <g id="line2d_18">
      <g>
       <use xlink:href="#mbafd0acac0" x="41.82875" y="41.016744" style="fill: #898781; stroke: #898781; stroke-width: 0.8"/>
      </g>
     </g>
     <g id="text_10">
      <!-- 20 -->
      <g style="fill: #52514e" transform="translate(23.2 45.100362) scale(0.105 -0.105)">
       <use xlink:href="#Cambria-374"/>
       <use xlink:href="#Cambria-372" transform="translate(55.375 0)"/>
      </g>
     </g>
    </g>
    <g id="text_11">
     <!-- targets covered -->
     <g style="fill: #0b0b0b" transform="translate(16.533984 151.135166) rotate(-90) scale(0.12 -0.12)">
      <defs>
       <path id="Cambria-83" d="M 2109 447 
L 2063 459 
Q 1791 181 1552 65 
Q 1313 -50 1044 -50 
Q 806 -50 625 42 
Q 444 134 347 301 
Q 250 469 250 688 
Q 250 1144 701 1392 
Q 1153 1641 2056 1681 
L 2056 1884 
Q 2056 2209 1993 2396 
Q 1931 2584 1797 2671 
Q 1663 2759 1438 2759 
Q 1194 2759 1045 2631 
Q 897 2503 822 2247 
L 413 2247 
L 413 2653 
Q 713 2809 913 2882 
Q 1113 2956 1313 2998 
Q 1513 3041 1719 3041 
Q 2028 3041 2215 2942 
Q 2403 2844 2497 2641 
Q 2591 2438 2591 2028 
L 2591 941 
Q 2591 709 2594 614 
Q 2597 519 2612 437 
Q 2628 356 2659 307 
Q 2691 259 2752 225 
Q 2813 191 2950 153 
L 2950 0 
L 2094 0 
L 2109 447 
z
M 2056 1425 
Q 1422 1419 1106 1256 
Q 791 1094 791 766 
Q 791 588 862 484 
Q 934 381 1043 342 
Q 1153 303 1303 303 
Q 1516 303 1689 406 
Q 1863 509 1959 668 
Q 2056 828 2056 984 
L 2056 1425 
z
" transform="scale(0.015625)"/>
       <path id="Cambria-89" d="M 3106 2672 
L 2528 2694 
L 2500 2659 
Q 2597 2563 2653 2395 
Q 2709 2228 2709 2034 
Q 2709 1525 2395 1248 
Q 2081 972 1503 972 
Q 1244 972 1056 1038 
Q 819 856 819 681 
Q 819 566 864 506 
Q 909 447 1014 422 
Q 1119 397 1331 397 
L 2081 397 
Q 2413 397 2622 294 
Q 2831 191 2920 17 
Q 3009 -156 3009 -388 
Q 3009 -681 2840 -911 
Q 2672 -1141 2353 -1269 
Q 2034 -1397 1609 -1397 
Q 1294 -1397 1033 -1359 
Q 772 -1322 586 -1233 
Q 400 -1144 298 -998 
Q 197 -853 197 -634 
Q 197 -438 328 -277 
Q 459 -116 700 6 
Q 553 66 468 181 
Q 384 297 384 453 
Q 384 631 484 779 
Q 584 928 838 1119 
Q 613 1250 495 1475 
Q 378 1700 378 1988 
Q 378 2256 467 2454 
Q 556 2653 714 2783 
Q 872 2913 1087 2977 
Q 1303 3041 1553 3041 
Q 1778 3041 2000 2988 
L 3106 2988 
L 3106 2672 
z
M 938 2038 
Q 938 1647 1097 1434 
Q 1256 1222 1556 1222 
Q 1716 1222 1828 1283 
Q 1941 1344 2011 1450 
Q 2081 1556 2114 1695 
Q 2147 1834 2147 1988 
Q 2147 2263 2069 2447 
Q 1991 2631 1856 2717 
Q 1722 2803 1547 2803 
Q 1250 2803 1094 2606 
Q 938 2409 938 2038 
z
M 1016 -50 
Q 856 -169 776 -301 
Q 697 -434 697 -603 
Q 697 -884 920 -1017 
Q 1144 -1150 1603 -1150 
Q 1884 -1150 2086 -1075 
Q 2288 -1000 2394 -859 
Q 2500 -719 2500 -531 
Q 2500 -444 2478 -361 
Q 2456 -278 2395 -212 
Q 2334 -147 2221 -108 
Q 2109 -69 1928 -69 
L 1463 -69 
Q 1209 -69 1016 -50 
z
" transform="scale(0.015625)"/>
       <path id="Cambria-95" d="M 2397 2303 
L 2097 2303 
Q 2028 2491 1934 2598 
Q 1841 2706 1722 2750 
Q 1603 2794 1431 2794 
Q 1181 2794 1032 2676 
Q 884 2559 884 2356 
Q 884 2213 943 2119 
Q 1003 2025 1128 1944 
Q 1253 1863 1569 1728 
Q 1888 1591 2061 1475 
Q 2234 1359 2332 1206 
Q 2431 1053 2431 841 
Q 2431 594 2347 425 
Q 2263 256 2109 150 
Q 1956 44 1745 -3 
Q 1534 -50 1284 -50 
Q 1022 -50 775 -11 
Q 528 28 294 91 
L 294 744 
L 600 744 
Q 684 456 850 326 
Q 1016 197 1306 197 
Q 1419 197 1526 220 
Q 1634 244 1718 298 
Q 1803 353 1853 447 
Q 1903 541 1903 681 
Q 1903 841 1840 941 
Q 1778 1041 1647 1123 
Q 1516 1206 1184 1347 
Q 900 1466 728 1578 
Q 556 1691 457 1844 
Q 359 1997 359 2206 
Q 359 2463 498 2652 
Q 638 2841 900 2941 
Q 1163 3041 1516 3041 
Q 1722 3041 1914 3020 
Q 2106 3000 2397 2941 
L 2397 2303 
z
" transform="scale(0.015625)"/>
       <path id="Cambria-98" d="M 1334 2988 
L 1334 2834 
Q 1191 2800 1131 2769 
Q 1072 2738 1042 2688 
Q 1013 2638 1013 2553 
Q 1013 2469 1033 2376 
Q 1053 2284 1097 2163 
L 1641 581 
L 2278 2097 
Q 2341 2247 2366 2344 
Q 2391 2441 2391 2525 
Q 2391 2656 2320 2725 
Q 2250 2794 2063 2834 
L 2063 2988 
L 3231 2988 
L 3231 2834 
Q 3109 2809 3043 2757 
Q 2978 2706 2912 2595 
Q 2847 2484 2756 2284 
L 1703 -31 
L 1334 -31 
L 488 2303 
Q 400 2544 348 2633 
Q 297 2722 236 2765 
Q 175 2809 59 2834 
L 59 2988 
L 1334 2988 
z
" transform="scale(0.015625)"/>
       <path id="Cambria-86" d="M 2413 3397 
Q 2413 3697 2408 3815 
Q 2403 3934 2383 4017 
Q 2363 4100 2327 4147 
Q 2291 4194 2230 4222 
Q 2169 4250 2009 4278 
L 2009 4441 
L 2766 4472 
L 2950 4472 
L 2950 853 
Q 2950 609 2959 504 
Q 2969 400 3000 337 
Q 3031 275 3098 236 
Q 3166 197 3334 163 
L 3334 0 
L 2597 -31 
L 2409 -31 
L 2447 481 
L 2400 494 
Q 2203 284 2058 179 
Q 1913 75 1748 12 
Q 1584 -50 1397 -50 
Q 884 -50 606 339 
Q 328 728 328 1463 
Q 328 1975 509 2333 
Q 691 2691 998 2866 
Q 1306 3041 1691 3041 
Q 1897 3041 2065 3008 
Q 2234 2975 2413 2900 
L 2413 3397 
z
M 2413 1853 
Q 2413 2097 2391 2244 
Q 2369 2391 2317 2491 
Q 2266 2591 2178 2659 
Q 2091 2728 1986 2759 
Q 1881 2791 1734 2791 
Q 1334 2791 1125 2470 
Q 916 2150 916 1550 
Q 916 950 1087 637 
Q 1259 325 1609 325 
Q 1747 325 1837 348 
Q 1928 372 2015 423 
Q 2103 475 2193 565 
Q 2284 656 2326 731 
Q 2369 806 2391 903 
Q 2413 1000 2413 1153 
L 2413 1853 
z
" transform="scale(0.015625)"/>
      </defs>
      <use xlink:href="#Cambria-96"/>
      <use xlink:href="#Cambria-83" transform="translate(33.84375 0)"/>
      <use xlink:href="#Cambria-94" transform="translate(82.671875 0)"/>
      <use xlink:href="#Cambria-89" transform="translate(123.34375 0)"/>
      <use xlink:href="#Cambria-87" transform="translate(172.765625 0)"/>
      <use xlink:href="#Cambria-96" transform="translate(221.546875 0)"/>
      <use xlink:href="#Cambria-95" transform="translate(255.390625 0)"/>
      <use xlink:href="#Cambria-3" transform="translate(298.359375 0)"/>
      <use xlink:href="#Cambria-85" transform="translate(320.375 0)"/>
      <use xlink:href="#Cambria-91" transform="translate(364.46875 0)"/>
      <use xlink:href="#Cambria-98" transform="translate(416.078125 0)"/>
      <use xlink:href="#Cambria-87" transform="translate(464.515625 0)"/>
      <use xlink:href="#Cambria-94" transform="translate(513.296875 0)"/>
      <use xlink:href="#Cambria-87" transform="translate(553.1875 0)"/>
      <use xlink:href="#Cambria-86" transform="translate(601.96875 0)"/>
     </g>
    </g>
   </g>
   <g id="FillBetweenPolyCollection_1">
    <defs>
     <path id="m6c46572980" d="M 57.671689 -72.109854 
L 57.671689 -72.109854 
L 163.29128 -87.814782 
L 268.910872 -103.519709 
L 374.530463 -111.372172 
L 374.530463 -150.63449 
L 374.530463 -150.63449 
L 268.910872 -134.929563 
L 163.29128 -103.519709 
L 57.671689 -72.109854 
z
"/>
    </defs>
    <g clip-path="url(#p15bf31f534)">
     <use xlink:href="#m6c46572980" x="0" y="238.766016" style="fill: #2a78d6; fill-opacity: 0.18"/>
    </g>
   </g>
   <g id="line2d_19">
    <path d="M 57.671689 166.656161 
L 163.29128 135.246307 
L 268.910872 103.836452 
L 374.530463 72.426598 
" clip-path="url(#p15bf31f534)" style="fill: none; stroke: #e34948; stroke-width: 1.8; stroke-linecap: square"/>
    <defs>
     <path id="md3b7a468f2" d="M -3 3 
L 3 3 
L 3 -3 
L -3 -3 
z
" style="stroke: #e34948; stroke-linejoin: miter"/>
    </defs>
    <g clip-path="url(#p15bf31f534)">
     <use xlink:href="#md3b7a468f2" x="57.671689" y="166.656161" style="fill: #e34948; stroke: #e34948; stroke-linejoin: miter"/>
     <use xlink:href="#md3b7a468f2" x="163.29128" y="135.246307" style="fill: #e34948; stroke: #e34948; stroke-linejoin: miter"/>
     <use xlink:href="#md3b7a468f2" x="268.910872" y="103.836452" style="fill: #e34948; stroke: #e34948; stroke-linejoin: miter"/>
     <use xlink:href="#md3b7a468f2" x="374.530463" y="72.426598" style="fill: #e34948; stroke: #e34948; stroke-linejoin: miter"/>
    </g>
   </g>
   <g id="line2d_20">
    <path d="M 57.671689 166.656161 
L 163.29128 135.246307 
L 268.910872 103.836452 
L 374.530463 88.131525 
" clip-path="url(#p15bf31f534)" style="fill: none; stroke: #2a78d6; stroke-width: 1.8; stroke-linecap: square"/>
    <defs>
     <path id="mf00a8d841c" d="M 0 3 
C 0.795609 3 1.55874 2.683901 2.12132 2.12132 
C 2.683901 1.55874 3 0.795609 3 0 
C 3 -0.795609 2.683901 -1.55874 2.12132 -2.12132 
C 1.55874 -2.683901 0.795609 -3 0 -3 
C -0.795609 -3 -1.55874 -2.683901 -2.12132 -2.12132 
C -2.683901 -1.55874 -3 -0.795609 -3 0 
C -3 0.795609 -2.683901 1.55874 -2.12132 2.12132 
C -1.55874 2.683901 -0.795609 3 0 3 
z
" style="stroke: #2a78d6"/>
    </defs>
    <g clip-path="url(#p15bf31f534)">
     <use xlink:href="#mf00a8d841c" x="57.671689" y="166.656161" style="fill: #2a78d6; stroke: #2a78d6"/>
     <use xlink:href="#mf00a8d841c" x="163.29128" y="135.246307" style="fill: #2a78d6; stroke: #2a78d6"/>
     <use xlink:href="#mf00a8d841c" x="268.910872" y="103.836452" style="fill: #2a78d6; stroke: #2a78d6"/>
     <use xlink:href="#mf00a8d841c" x="374.530463" y="88.131525" style="fill: #2a78d6; stroke: #2a78d6"/>
    </g>
   </g>
   <g id="line2d_21">
    <path d="M 57.671689 166.656161 
L 163.29128 150.951234 
L 268.910872 135.246307 
L 374.530463 127.393843 
" clip-path="url(#p15bf31f534)" style="fill: none; stroke-dasharray: 5.18,2.24; stroke-dashoffset: 0; stroke: #2a78d6; stroke-opacity: 0.65; stroke-width: 1.4"/>
    <defs>
     <path id="m2b5fcb5556" d="M 0 3 
C 0.795609 3 1.55874 2.683901 2.12132 2.12132 
C 2.683901 1.55874 3 0.795609 3 0 
C 3 -0.795609 2.683901 -1.55874 2.12132 -2.12132 
C 1.55874 -2.683901 0.795609 -3 0 -3 
C -0.795609 -3 -1.55874 -2.683901 -2.12132 -2.12132 
C -2.683901 -1.55874 -3 -0.795609 -3 0 
C -3 0.795609 -2.683901 1.55874 -2.12132 2.12132 
C -1.55874 2.683901 -0.795609 3 0 3 
z
" style="stroke: #2a78d6; stroke-opacity: 0.65"/>
    </defs>
    <g clip-path="url(#p15bf31f534)">
     <use xlink:href="#m2b5fcb5556" x="57.671689" y="166.656161" style="fill: #2a78d6; fill-opacity: 0.65; stroke: #2a78d6; stroke-opacity: 0.65"/>
     <use xlink:href="#m2b5fcb5556" x="163.29128" y="150.951234" style="fill: #2a78d6; fill-opacity: 0.65; stroke: #2a78d6; stroke-opacity: 0.65"/>
     <use xlink:href="#m2b5fcb5556" x="268.910872" y="135.246307" style="fill: #2a78d6; fill-opacity: 0.65; stroke: #2a78d6; stroke-opacity: 0.65"/>
     <use xlink:href="#m2b5fcb5556" x="374.530463" y="127.393843" style="fill: #2a78d6; fill-opacity: 0.65; stroke: #2a78d6; stroke-opacity: 0.65"/>
    </g>
   </g>
   <g id="line2d_22">
    <path d="M 41.82875 48.869207 
L 390.373402 48.869207 
" clip-path="url(#p15bf31f534)" style="fill: none; stroke-dasharray: 1,1.65; stroke-dashoffset: 0; stroke: #898781"/>
   </g>
   <g id="patch_3">
    <path d="M 41.82875 198.066016 
L 41.82875 25.311816 
" style="fill: none; stroke: #c3c2b7; stroke-width: 0.9; stroke-linejoin: miter; stroke-linecap: square"/>
   </g>
   <g id="patch_4">
    <path d="M 41.82875 198.066016 
L 390.373402 198.066016 
" style="fill: none; stroke: #c3c2b7; stroke-width: 0.9; stroke-linejoin: miter; stroke-linecap: square"/>
   </g>
   <g id="text_12">
    <!-- group order $r=19$ -->
    <g style="fill: #898781" transform="translate(59.784081 46.120845) scale(0.09 -0.09)">
     <defs>
      <path id="Cmmi10-84" d="M 494 109 
Q 494 147 500 166 
L 978 2075 
Q 1025 2253 1025 2388 
Q 1025 2663 838 2663 
Q 638 2663 541 2423 
Q 444 2184 353 1819 
Q 353 1800 334 1789 
Q 316 1778 300 1778 
L 225 1778 
Q 203 1778 187 1801 
Q 172 1825 172 1844 
Q 241 2122 305 2315 
Q 369 2509 505 2668 
Q 641 2828 844 2828 
Q 1066 2828 1233 2700 
Q 1400 2572 1441 2363 
Q 1603 2575 1811 2701 
Q 2019 2828 2266 2828 
Q 2469 2828 2623 2709 
Q 2778 2591 2778 2388 
Q 2778 2225 2676 2104 
Q 2575 1984 2406 1984 
Q 2303 1984 2233 2048 
Q 2163 2113 2163 2216 
Q 2163 2356 2266 2467 
Q 2369 2578 2503 2578 
Q 2400 2663 2253 2663 
Q 1978 2663 1775 2467 
Q 1572 2272 1409 1972 
L 953 141 
Q 931 53 854 -9 
Q 778 -72 684 -72 
Q 606 -72 550 -22 
Q 494 28 494 109 
z
" transform="scale(0.015625)"/>
      <path id="Cmr10-29" d="M 481 850 
Q 428 850 393 890 
Q 359 931 359 978 
Q 359 1031 393 1068 
Q 428 1106 481 1106 
L 4500 1106 
Q 4547 1106 4581 1068 
Q 4616 1031 4616 978 
Q 4616 931 4581 890 
Q 4547 850 4500 850 
L 481 850 
z
M 481 2094 
Q 428 2094 393 2131 
Q 359 2169 359 2222 
Q 359 2269 393 2309 
Q 428 2350 481 2350 
L 4500 2350 
Q 4547 2350 4581 2309 
Q 4616 2269 4616 2222 
Q 4616 2169 4581 2131 
Q 4547 2094 4500 2094 
L 481 2094 
z
" transform="scale(0.015625)"/>
      <path id="Cmr10-64" d="M 594 0 
L 594 225 
Q 1394 225 1394 428 
L 1394 3788 
Q 1063 3628 556 3628 
L 556 3853 
Q 1341 3853 1741 4263 
L 1831 4263 
Q 1853 4263 1873 4245 
Q 1894 4228 1894 4206 
L 1894 428 
Q 1894 225 2694 225 
L 2694 0 
L 594 0 
z
" transform="scale(0.015625)"/>
      <path id="Cmr10-16" d="M 722 269 
Q 897 63 1331 63 
Q 1575 63 1786 228 
Q 1997 394 2113 634 
Q 2247 906 2284 1214 
Q 2322 1522 2322 1978 
Q 2213 1719 2008 1553 
Q 1803 1388 1538 1388 
Q 1166 1388 873 1589 
Q 581 1791 425 2120 
Q 269 2450 269 2822 
Q 269 3206 444 3539 
Q 619 3872 928 4067 
Q 1238 4263 1631 4263 
Q 2019 4263 2280 4052 
Q 2541 3841 2678 3508 
Q 2816 3175 2870 2803 
Q 2925 2431 2925 2069 
Q 2925 1575 2744 1061 
Q 2563 547 2202 203 
Q 1841 -141 1331 -141 
Q 953 -141 690 37 
Q 428 216 428 575 
Q 428 706 517 795 
Q 606 884 738 884 
Q 866 884 955 795 
Q 1044 706 1044 575 
Q 1044 450 953 359 
Q 863 269 738 269 
L 722 269 
z
M 1563 1556 
Q 1825 1556 1992 1732 
Q 2159 1909 2234 2171 
Q 2309 2434 2309 2694 
L 2309 2816 
L 2309 2841 
Q 2309 3322 2168 3700 
Q 2028 4078 1631 4078 
Q 1378 4078 1220 3967 
Q 1063 3856 988 3672 
Q 913 3488 892 3278 
Q 872 3069 872 2822 
Q 872 2459 906 2203 
Q 941 1947 1094 1751 
Q 1247 1556 1563 1556 
z
" transform="scale(0.015625)"/>
     </defs>
     <use xlink:href="#Cambria-89" transform="translate(0 0.125)"/>
     <use xlink:href="#Cambria-94" transform="translate(49.414062 0.125)"/>
     <use xlink:href="#Cambria-91" transform="translate(90.771484 0.125)"/>
     <use xlink:href="#Cambria-97" transform="translate(143.847656 0.125)"/>
     <use xlink:href="#Cambria-92" transform="translate(199.072266 0.125)"/>
     <use xlink:href="#Cambria-3" transform="translate(254.6875 0.125)"/>
     <use xlink:href="#Cambria-91" transform="translate(276.708984 0.125)"/>
     <use xlink:href="#Cambria-94" transform="translate(329.785156 0.125)"/>
     <use xlink:href="#Cambria-86" transform="translate(371.142578 0.125)"/>
     <use xlink:href="#Cambria-87" transform="translate(426.611328 0.125)"/>
     <use xlink:href="#Cambria-94" transform="translate(475.390625 0.125)"/>
     <use xlink:href="#Cambria-3" transform="translate(516.748047 0.125)"/>
     <use xlink:href="#Cmmi10-84" transform="translate(538.769531 0.125)"/>
     <use xlink:href="#Cmr10-29" transform="translate(603.886776 0.125)"/>
     <use xlink:href="#Cmr10-64" transform="translate(701.57238 0.125)"/>
     <use xlink:href="#Cmr10-16" transform="translate(751.57238 0.125)"/>
    </g>
   </g>
   <g id="text_13">
    <!-- 19 schedules -->
    <g style="fill: #52514e" transform="translate(34.983314 180.656161) scale(0.082 -0.082)">
     <defs>
      <path id="Cambria-37b" d="M 978 122 
L 978 275 
Q 1416 275 1736 469 
Q 2056 663 2251 1042 
Q 2447 1422 2513 2038 
L 2481 2050 
Q 2219 1863 1964 1775 
Q 1709 1688 1413 1688 
Q 1059 1688 811 1842 
Q 563 1997 438 2276 
Q 313 2556 313 2931 
Q 313 3213 406 3464 
Q 500 3716 684 3905 
Q 869 4094 1145 4205 
Q 1422 4316 1791 4316 
Q 2447 4316 2790 3862 
Q 3134 3409 3134 2559 
Q 3134 1781 2881 1211 
Q 2628 641 2172 323 
Q 1716 6 1106 -50 
L 978 122 
z
M 1628 2016 
Q 1747 2016 1855 2036 
Q 1963 2056 2066 2095 
Q 2169 2134 2267 2195 
Q 2366 2256 2444 2325 
Q 2472 2350 2494 2390 
Q 2516 2431 2528 2497 
Q 2541 2563 2541 2703 
Q 2541 3131 2455 3436 
Q 2369 3741 2192 3895 
Q 2016 4050 1756 4050 
Q 1522 4050 1359 3969 
Q 1197 3888 1095 3745 
Q 994 3603 947 3411 
Q 900 3219 900 2994 
Q 900 2528 1090 2272 
Q 1281 2016 1628 2016 
z
" transform="scale(0.015625)"/>
      <path id="Cambria-8a" d="M 1141 2497 
L 1153 2494 
Q 1397 2741 1539 2839 
Q 1681 2938 1820 2988 
Q 1959 3038 2119 3038 
Q 2291 3038 2425 2997 
Q 2559 2956 2661 2873 
Q 2763 2791 2827 2670 
Q 2891 2550 2922 2383 
Q 2953 2216 2953 1959 
L 2953 781 
Q 2953 509 2976 411 
Q 3000 313 3061 258 
Q 3122 203 3306 153 
L 3306 0 
L 2075 0 
L 2075 153 
Q 2197 191 2250 219 
Q 2303 247 2339 297 
Q 2375 347 2395 451 
Q 2416 556 2416 769 
L 2416 1588 
Q 2416 2003 2373 2223 
Q 2331 2444 2207 2553 
Q 2084 2663 1863 2663 
Q 1738 2663 1638 2619 
Q 1538 2575 1406 2462 
Q 1275 2350 1208 2231 
Q 1141 2113 1141 1978 
L 1141 781 
Q 1141 569 1152 478 
Q 1163 388 1194 327 
Q 1225 266 1289 227 
Q 1353 188 1488 153 
L 1488 0 
L 250 0 
L 250 153 
Q 388 191 447 225 
Q 506 259 539 312 
Q 572 366 587 466 
Q 603 566 603 781 
L 603 3397 
Q 603 3697 598 3815 
Q 594 3934 573 4017 
Q 553 4100 517 4147 
Q 481 4194 420 4222 
Q 359 4250 200 4278 
L 200 4441 
L 953 4472 
L 1141 4472 
L 1141 2497 
z
" transform="scale(0.015625)"/>
      <path id="Cambria-8e" d="M 1138 781 
Q 1138 513 1163 408 
Q 1188 303 1258 248 
Q 1328 194 1488 153 
L 1488 0 
L 247 0 
L 247 153 
Q 403 194 464 237 
Q 525 281 551 342 
Q 578 403 589 508 
Q 600 613 600 781 
L 600 3397 
Q 600 3697 595 3815 
Q 591 3934 570 4017 
Q 550 4100 514 4147 
Q 478 4194 417 4222 
Q 356 4250 197 4278 
L 197 4441 
L 950 4472 
L 1138 4472 
L 1138 781 
z
" transform="scale(0.015625)"/>
     </defs>
     <use xlink:href="#Cambria-373"/>
     <use xlink:href="#Cambria-37b" transform="translate(55.375 0)"/>
     <use xlink:href="#Cambria-3" transform="translate(110.75 0)"/>
     <use xlink:href="#Cambria-95" transform="translate(132.765625 0)"/>
     <use xlink:href="#Cambria-85" transform="translate(175.734375 0)"/>
     <use xlink:href="#Cambria-8a" transform="translate(219.828125 0)"/>
     <use xlink:href="#Cambria-87" transform="translate(275 0)"/>
     <use xlink:href="#Cambria-86" transform="translate(323.78125 0)"/>
     <use xlink:href="#Cambria-97" transform="translate(379.25 0)"/>
     <use xlink:href="#Cambria-8e" transform="translate(434.46875 0)"/>
     <use xlink:href="#Cambria-87" transform="translate(461.625 0)"/>
     <use xlink:href="#Cambria-95" transform="translate(510.40625 0)"/>
    </g>
   </g>
   <g id="text_14">
    <!-- 171 schedules -->
    <g style="fill: #52514e" transform="translate(138.33253 164.951234) scale(0.082 -0.082)">
     <defs>
      <path id="Cambria-379" d="M 3206 4116 
L 1388 -22 
L 934 -22 
L 934 131 
L 2619 3697 
L 2619 3744 
L 1244 3744 
Q 1116 3744 1039 3720 
Q 963 3697 911 3653 
Q 859 3609 825 3537 
Q 791 3466 731 3253 
L 463 3253 
L 525 4266 
L 3206 4266 
L 3206 4116 
z
" transform="scale(0.015625)"/>
     </defs>
     <use xlink:href="#Cambria-373"/>
     <use xlink:href="#Cambria-379" transform="translate(55.375 0)"/>
     <use xlink:href="#Cambria-373" transform="translate(110.75 0)"/>
     <use xlink:href="#Cambria-3" transform="translate(166.125 0)"/>
     <use xlink:href="#Cambria-95" transform="translate(188.140625 0)"/>
     <use xlink:href="#Cambria-85" transform="translate(231.109375 0)"/>
     <use xlink:href="#Cambria-8a" transform="translate(275.203125 0)"/>
     <use xlink:href="#Cambria-87" transform="translate(330.375 0)"/>
     <use xlink:href="#Cambria-86" transform="translate(379.15625 0)"/>
     <use xlink:href="#Cambria-97" transform="translate(434.625 0)"/>
     <use xlink:href="#Cambria-8e" transform="translate(489.84375 0)"/>
     <use xlink:href="#Cambria-87" transform="translate(517 0)"/>
     <use xlink:href="#Cambria-95" transform="translate(565.78125 0)"/>
    </g>
   </g>
   <g id="text_15">
    <!-- 969 schedules -->
    <g style="fill: #52514e" transform="translate(243.952122 149.246307) scale(0.082 -0.082)">
     <defs>
      <path id="Cambria-378" d="M 2847 4144 
L 2847 3991 
Q 2366 3991 1994 3784 
Q 1622 3578 1376 3178 
Q 1131 2778 1031 2228 
L 1063 2216 
Q 1325 2403 1579 2490 
Q 1834 2578 2131 2578 
Q 2484 2578 2732 2423 
Q 2981 2269 3106 1989 
Q 3231 1709 3231 1334 
Q 3231 928 3075 617 
Q 2919 306 2592 128 
Q 2266 -50 1788 -50 
Q 1103 -50 754 375 
Q 406 800 406 1628 
Q 406 2184 581 2668 
Q 756 3153 1078 3514 
Q 1400 3875 1825 4083 
Q 2250 4291 2719 4316 
L 2847 4144 
z
M 1916 2250 
Q 1763 2250 1620 2215 
Q 1478 2181 1353 2115 
Q 1228 2050 1109 1950 
Q 1072 1916 1053 1878 
Q 1022 1819 1012 1731 
Q 1003 1644 1003 1438 
Q 1003 841 1203 528 
Q 1403 216 1809 216 
Q 2044 216 2203 297 
Q 2363 378 2461 520 
Q 2559 663 2601 855 
Q 2644 1047 2644 1272 
Q 2644 1734 2453 1992 
Q 2263 2250 1916 2250 
z
" transform="scale(0.015625)"/>
     </defs>
     <use xlink:href="#Cambria-37b"/>
     <use xlink:href="#Cambria-378" transform="translate(55.375 0)"/>
     <use xlink:href="#Cambria-37b" transform="translate(110.75 0)"/>
     <use xlink:href="#Cambria-3" transform="translate(166.125 0)"/>
     <use xlink:href="#Cambria-95" transform="translate(188.140625 0)"/>
     <use xlink:href="#Cambria-85" transform="translate(231.109375 0)"/>
     <use xlink:href="#Cambria-8a" transform="translate(275.203125 0)"/>
     <use xlink:href="#Cambria-87" transform="translate(330.375 0)"/>
     <use xlink:href="#Cambria-86" transform="translate(379.15625 0)"/>
     <use xlink:href="#Cambria-97" transform="translate(434.625 0)"/>
     <use xlink:href="#Cambria-8e" transform="translate(489.84375 0)"/>
     <use xlink:href="#Cambria-87" transform="translate(517 0)"/>
     <use xlink:href="#Cambria-95" transform="translate(565.78125 0)"/>
    </g>
   </g>
   <g id="text_16">
    <!-- 3,876 schedules -->
    <g style="fill: #52514e" transform="translate(346.460198 141.393843) scale(0.082 -0.082)">
     <defs>
      <path id="Cambria-1e1" d="M 966 725 
Q 1009 506 1009 294 
Q 1009 75 934 -106 
Q 859 -288 695 -467 
Q 531 -647 244 -863 
L 75 -672 
Q 234 -522 306 -401 
Q 378 -281 409 -128 
Q 441 25 441 256 
Q 441 494 419 725 
L 966 725 
z
" transform="scale(0.015625)"/>
      <path id="Cambria-37a" d="M 2475 2253 
L 2481 2213 
Q 2834 2075 3015 1811 
Q 3197 1547 3197 1175 
Q 3197 809 3022 531 
Q 2847 253 2514 101 
Q 2181 -50 1738 -50 
Q 1322 -50 1008 89 
Q 694 228 520 495 
Q 347 763 347 1125 
Q 347 1397 440 1597 
Q 534 1797 686 1926 
Q 838 2056 1069 2163 
L 1063 2203 
Q 391 2494 391 3200 
Q 391 3522 567 3775 
Q 744 4028 1070 4172 
Q 1397 4316 1794 4316 
Q 2244 4316 2550 4189 
Q 2856 4063 3011 3823 
Q 3166 3584 3166 3250 
Q 3166 2906 2997 2657 
Q 2828 2409 2475 2253 
z
M 978 3228 
Q 978 3044 1022 2881 
Q 1066 2719 1162 2600 
Q 1259 2481 1414 2411 
Q 1569 2341 1794 2341 
Q 2053 2341 2229 2442 
Q 2406 2544 2492 2739 
Q 2578 2934 2578 3191 
Q 2578 3472 2476 3667 
Q 2375 3863 2197 3956 
Q 2019 4050 1788 4050 
Q 1394 4050 1186 3836 
Q 978 3622 978 3228 
z
M 944 1178 
Q 944 975 991 798 
Q 1038 622 1139 494 
Q 1241 366 1400 291 
Q 1559 216 1788 216 
Q 2044 216 2226 320 
Q 2409 425 2504 631 
Q 2600 838 2600 1119 
Q 2600 1419 2497 1636 
Q 2394 1853 2206 1967 
Q 2019 2081 1772 2081 
Q 1541 2081 1383 2009 
Q 1225 1938 1126 1816 
Q 1028 1694 986 1530 
Q 944 1366 944 1178 
z
" transform="scale(0.015625)"/>
     </defs>
     <use xlink:href="#Cambria-375"/>
     <use xlink:href="#Cambria-1e1" transform="translate(55.375 0)"/>
     <use xlink:href="#Cambria-37a" transform="translate(75.890625 0)"/>
     <use xlink:href="#Cambria-379" transform="translate(131.265625 0)"/>
     <use xlink:href="#Cambria-378" transform="translate(186.640625 0)"/>
     <use xlink:href="#Cambria-3" transform="translate(242.015625 0)"/>
     <use xlink:href="#Cambria-95" transform="translate(264.03125 0)"/>
     <use xlink:href="#Cambria-85" transform="translate(307 0)"/>
     <use xlink:href="#Cambria-8a" transform="translate(351.09375 0)"/>
     <use xlink:href="#Cambria-87" transform="translate(406.265625 0)"/>
     <use xlink:href="#Cambria-86" transform="translate(455.046875 0)"/>
     <use xlink:href="#Cambria-97" transform="translate(510.515625 0)"/>
     <use xlink:href="#Cambria-8e" transform="translate(565.734375 0)"/>
     <use xlink:href="#Cambria-87" transform="translate(592.890625 0)"/>
     <use xlink:href="#Cambria-95" transform="translate(641.671875 0)"/>
    </g>
   </g>
   <g id="text_17">
    <!-- Exhaustive audit: support never exceeds $T\,|\mathcal{F}|$ -->
    <g style="fill: #0b0b0b" transform="translate(41.82875 17.311816) scale(0.13 -0.13)">
     <defs>
      <path id="Cambria-8" d="M 3300 4266 
L 3300 3322 
L 2994 3322 
Q 2947 3475 2897 3590 
Q 2847 3706 2794 3784 
Q 2741 3863 2677 3909 
Q 2613 3956 2525 3973 
Q 2438 3991 2316 3991 
L 1328 3991 
L 1328 2353 
L 1997 2353 
Q 2134 2353 2212 2392 
Q 2291 2431 2342 2525 
Q 2394 2619 2441 2819 
L 2734 2819 
L 2734 1619 
L 2441 1619 
Q 2397 1806 2344 1901 
Q 2291 1997 2217 2037 
Q 2144 2078 1997 2078 
L 1328 2078 
L 1328 275 
L 2300 275 
Q 2453 275 2548 301 
Q 2644 328 2712 392 
Q 2781 456 2834 559 
Q 2888 663 2923 773 
Q 2959 884 3022 1097 
L 3331 1097 
L 3272 0 
L 378 0 
L 378 153 
Q 572 203 637 264 
Q 703 325 723 437 
Q 744 550 744 781 
L 744 3484 
Q 744 3700 728 3798 
Q 713 3897 677 3951 
Q 641 4006 581 4039 
Q 522 4072 378 4113 
L 378 4266 
L 3300 4266 
z
" transform="scale(0.015625)"/>
      <path id="Cambria-9a" d="M 1625 1803 
L 2031 2319 
Q 2097 2403 2137 2483 
Q 2178 2563 2178 2647 
Q 2178 2719 2125 2766 
Q 2072 2813 1959 2834 
L 1959 2988 
L 2981 2988 
L 2981 2834 
Q 2863 2800 2739 2700 
Q 2616 2600 2438 2378 
L 1791 1584 
L 2503 625 
Q 2656 419 2778 309 
Q 2900 200 3022 153 
L 3022 0 
L 1766 0 
L 1766 153 
Q 2025 184 2025 347 
Q 2025 413 2003 472 
Q 1981 531 1922 609 
L 1469 1241 
L 988 616 
Q 934 547 904 489 
Q 875 431 875 359 
Q 875 275 933 220 
Q 991 166 1116 153 
L 1116 0 
L 72 0 
L 72 153 
Q 175 191 258 247 
Q 341 303 427 392 
Q 513 481 653 653 
L 1303 1459 
L 638 2372 
Q 500 2559 419 2643 
Q 338 2728 269 2772 
Q 200 2816 131 2834 
L 131 2988 
L 1356 2988 
L 1356 2834 
Q 1109 2797 1109 2641 
Q 1109 2569 1142 2497 
Q 1175 2425 1244 2338 
L 1625 1803 
z
" transform="scale(0.015625)"/>
      <path id="Cambria-8b" d="M 1197 4213 
L 1197 3606 
L 622 3606 
L 622 4213 
L 1197 4213 
z
M 303 153 
Q 425 191 476 219 
Q 528 247 564 297 
Q 600 347 620 450 
Q 641 553 641 772 
L 641 2134 
Q 641 2334 634 2456 
Q 628 2578 590 2651 
Q 553 2725 476 2761 
Q 400 2797 259 2822 
L 259 2988 
L 988 3016 
L 1178 3016 
L 1178 781 
Q 1178 513 1203 408 
Q 1228 303 1298 248 
Q 1369 194 1528 153 
L 1528 0 
L 303 0 
L 303 153 
z
" transform="scale(0.015625)"/>
      <path id="Cambria-1e3" d="M 1156 2822 
L 1156 2091 
L 531 2091 
L 531 2822 
L 1156 2822 
z
M 1156 725 
L 1156 0 
L 531 0 
L 531 725 
L 1156 725 
z
" transform="scale(0.015625)"/>
      <path id="Cmsy10-2f" d="M 763 -1484 
L 763 4684 
Q 763 4734 800 4767 
Q 838 4800 891 4800 
Q 938 4800 978 4767 
Q 1019 4734 1019 4684 
L 1019 -1484 
Q 1019 -1534 978 -1567 
Q 938 -1600 891 -1600 
Q 838 -1600 800 -1567 
Q 763 -1534 763 -1484 
z
" transform="scale(0.015625)"/>
      <path id="Cmsy10-3e" d="M 109 288 
Q 109 400 290 508 
Q 472 616 594 628 
L 634 628 
Q 656 616 739 480 
Q 822 344 942 255 
Q 1063 166 1281 166 
Q 1325 222 1356 275 
Q 1816 1125 2138 2009 
Q 2313 2491 2452 3005 
Q 2591 3519 2669 3994 
L 2400 3994 
Q 1763 3994 1594 3397 
Q 1531 3284 1389 3200 
Q 1247 3116 1113 3103 
L 1075 3103 
Q 1031 3131 1031 3169 
Q 1128 3509 1414 3784 
Q 1700 4059 2078 4215 
Q 2456 4372 2809 4372 
L 4684 4372 
Q 5306 4372 5306 4128 
Q 5306 3988 5137 3873 
Q 4969 3759 4806 3744 
L 4775 3744 
Q 4728 3769 4728 3781 
Q 4731 3800 4734 3822 
Q 4738 3844 4738 3853 
Q 4738 3994 4206 3994 
L 3194 3994 
Q 3013 3097 2725 2303 
L 4341 2303 
Q 4384 2281 4384 2247 
Q 4344 2094 4194 1986 
Q 4044 1878 3878 1863 
L 3841 1863 
Q 3794 1888 3794 1913 
L 3794 1925 
L 2584 1925 
Q 2303 1206 1919 494 
Q 1759 209 1465 -2 
Q 1172 -213 878 -213 
L 844 -213 
Q 594 -213 394 -80 
Q 194 53 109 288 
z
" transform="scale(0.015625)"/>
     </defs>
     <use xlink:href="#Cambria-8"/>
     <use xlink:href="#Cambria-9a" transform="translate(57.519531 0)"/>
     <use xlink:href="#Cambria-8a" transform="translate(105.859375 0)"/>
     <use xlink:href="#Cambria-83" transform="translate(161.035156 0)"/>
     <use xlink:href="#Cambria-97" transform="translate(209.863281 0)"/>
     <use xlink:href="#Cambria-95" transform="translate(265.087891 0)"/>
     <use xlink:href="#Cambria-96" transform="translate(308.056641 0)"/>
     <use xlink:href="#Cambria-8b" transform="translate(341.894531 0)"/>
     <use xlink:href="#Cambria-98" transform="translate(369.677734 0)"/>
     <use xlink:href="#Cambria-87" transform="translate(420.068359 0)"/>
     <use xlink:href="#Cambria-3" transform="translate(468.847656 0)"/>
     <use xlink:href="#Cambria-83" transform="translate(490.869141 0)"/>
     <use xlink:href="#Cambria-97" transform="translate(539.697266 0)"/>
     <use xlink:href="#Cambria-86" transform="translate(594.921875 0)"/>
     <use xlink:href="#Cambria-8b" transform="translate(650.390625 0)"/>
     <use xlink:href="#Cambria-96" transform="translate(678.173828 0)"/>
     <use xlink:href="#Cambria-1e3" transform="translate(712.011719 0)"/>
     <use xlink:href="#Cambria-3" transform="translate(738.378906 0)"/>
     <use xlink:href="#Cambria-95" transform="translate(760.400391 0)"/>
     <use xlink:href="#Cambria-97" transform="translate(803.369141 0)"/>
     <use xlink:href="#Cambria-92" transform="translate(858.59375 0)"/>
     <use xlink:href="#Cambria-92" transform="translate(914.208984 0)"/>
     <use xlink:href="#Cambria-91" transform="translate(969.824219 0)"/>
     <use xlink:href="#Cambria-94" transform="translate(1022.900391 0)"/>
     <use xlink:href="#Cambria-96" transform="translate(1064.257812 0)"/>
     <use xlink:href="#Cambria-3" transform="translate(1098.095703 0)"/>
     <use xlink:href="#Cambria-90" transform="translate(1120.117188 0)"/>
     <use xlink:href="#Cambria-87" transform="translate(1175.927734 0)"/>
     <use xlink:href="#Cambria-98" transform="translate(1224.707031 0)"/>
     <use xlink:href="#Cambria-87" transform="translate(1275.097656 0)"/>
     <use xlink:href="#Cambria-94" transform="translate(1323.876953 0)"/>
     <use xlink:href="#Cambria-3" transform="translate(1365.234375 0)"/>
     <use xlink:href="#Cambria-87" transform="translate(1387.255859 0)"/>
     <use xlink:href="#Cambria-9a" transform="translate(1436.035156 0)"/>
     <use xlink:href="#Cambria-85" transform="translate(1484.375 0)"/>
     <use xlink:href="#Cambria-87" transform="translate(1528.466797 0)"/>
     <use xlink:href="#Cambria-87" transform="translate(1577.246094 0)"/>
     <use xlink:href="#Cambria-86" transform="translate(1626.025391 0)"/>
     <use xlink:href="#Cambria-95" transform="translate(1681.494141 0)"/>
     <use xlink:href="#Cambria-3" transform="translate(1724.462891 0)"/>
     <use xlink:href="#Cmmi10-78" transform="translate(1746.484375 0)"/>
     <use xlink:href="#Cmsy10-2f" transform="translate(1821.54986 0)"/>
     <use xlink:href="#Cmsy10-3e" transform="translate(1849.235407 0)"/>
     <use xlink:href="#Cmsy10-2f" transform="translate(1921.012751 0)"/>
    </g>
   </g>
   <g id="legend_1">
    <g id="line2d_23">
     <path d="M 49.74875 36.996738 
L 58.54875 36.996738 
L 67.34875 36.996738 
" style="fill: none; stroke: #e34948; stroke-width: 1.8; stroke-linecap: square"/>
     <g>
      <use xlink:href="#md3b7a468f2" x="58.54875" y="36.996738" style="fill: #e34948; stroke: #e34948; stroke-linejoin: miter"/>
     </g>
    </g>
    <g id="text_18">
     <!-- union bound $T\,|\mathcal{F}|$ -->
     <g transform="translate(74.38875 40.076738) scale(0.088 -0.088)">
      <use xlink:href="#Cambria-97"/>
      <use xlink:href="#Cambria-90" transform="translate(55.224609 0)"/>
      <use xlink:href="#Cambria-8b" transform="translate(111.035156 0)"/>
      <use xlink:href="#Cambria-91" transform="translate(138.818359 0)"/>
      <use xlink:href="#Cambria-90" transform="translate(191.894531 0)"/>
      <use xlink:href="#Cambria-3" transform="translate(247.705078 0)"/>
      <use xlink:href="#Cambria-84" transform="translate(269.726562 0)"/>
      <use xlink:href="#Cambria-91" transform="translate(324.462891 0)"/>
      <use xlink:href="#Cambria-97" transform="translate(377.539062 0)"/>
      <use xlink:href="#Cambria-90" transform="translate(432.763672 0)"/>
      <use xlink:href="#Cambria-86" transform="translate(488.574219 0)"/>
      <use xlink:href="#Cambria-3" transform="translate(544.042969 0)"/>
      <use xlink:href="#Cmmi10-78" transform="translate(566.064453 0)"/>
      <use xlink:href="#Cmsy10-2f" transform="translate(641.129938 0)"/>
      <use xlink:href="#Cmsy10-3e" transform="translate(668.815485 0)"/>
      <use xlink:href="#Cmsy10-2f" transform="translate(740.592829 0)"/>
     </g>
    </g>
    <g id="line2d_24">
     <path d="M 49.74875 50.44166 
L 58.54875 50.44166 
L 67.34875 50.44166 
" style="fill: none; stroke: #2a78d6; stroke-width: 1.8; stroke-linecap: square"/>
     <g>
      <use xlink:href="#mf00a8d841c" x="58.54875" y="50.44166" style="fill: #2a78d6; stroke: #2a78d6"/>
     </g>
    </g>
    <g id="text_19">
     <!-- max observed support -->
     <g transform="translate(74.38875 53.52166) scale(0.088 -0.088)">
      <defs>
       <path id="Cambria-8f" d="M 1147 2506 
L 1191 2494 
Q 1378 2681 1498 2776 
Q 1619 2872 1731 2930 
Q 1844 2988 1942 3013 
Q 2041 3038 2144 3038 
Q 2456 3038 2653 2894 
Q 2850 2750 2925 2453 
Q 3159 2691 3304 2803 
Q 3450 2916 3601 2977 
Q 3753 3038 3928 3038 
Q 4138 3038 4289 2977 
Q 4441 2916 4545 2789 
Q 4650 2663 4698 2472 
Q 4747 2281 4747 1959 
L 4747 781 
Q 4747 544 4762 453 
Q 4778 363 4808 313 
Q 4838 263 4897 227 
Q 4956 191 5097 153 
L 5097 0 
L 3869 0 
L 3869 153 
Q 3991 191 4044 219 
Q 4097 247 4133 297 
Q 4169 347 4189 451 
Q 4209 556 4209 769 
L 4209 1588 
Q 4209 1853 4195 2026 
Q 4181 2200 4151 2303 
Q 4122 2406 4080 2465 
Q 4038 2525 3984 2569 
Q 3931 2613 3859 2638 
Q 3788 2663 3669 2663 
Q 3544 2663 3436 2613 
Q 3328 2563 3201 2444 
Q 3075 2325 3019 2204 
Q 2963 2084 2963 1922 
L 2963 781 
Q 2963 544 2978 453 
Q 2994 363 3023 313 
Q 3053 263 3112 227 
Q 3172 191 3313 153 
L 3313 0 
L 2084 0 
L 2084 153 
Q 2206 191 2259 219 
Q 2313 247 2348 297 
Q 2384 347 2404 451 
Q 2425 556 2425 769 
L 2425 1588 
Q 2425 1866 2409 2041 
Q 2394 2216 2361 2322 
Q 2328 2428 2276 2493 
Q 2225 2559 2172 2593 
Q 2119 2628 2047 2645 
Q 1975 2663 1884 2663 
Q 1756 2663 1643 2605 
Q 1531 2547 1414 2437 
Q 1297 2328 1237 2209 
Q 1178 2091 1178 1953 
L 1178 781 
Q 1178 603 1187 509 
Q 1197 416 1217 362 
Q 1238 309 1269 276 
Q 1300 244 1358 214 
Q 1416 184 1531 153 
L 1531 0 
L 306 0 
L 306 153 
Q 425 191 476 219 
Q 528 247 565 297 
Q 603 347 622 450 
Q 641 553 641 772 
L 641 2134 
Q 641 2334 634 2456 
Q 628 2578 590 2651 
Q 553 2725 476 2761 
Q 400 2797 259 2822 
L 259 2988 
L 991 3016 
L 1181 3016 
L 1147 2506 
z
" transform="scale(0.015625)"/>
      </defs>
      <use xlink:href="#Cambria-8f"/>
      <use xlink:href="#Cambria-83" transform="translate(83.203125 0)"/>
      <use xlink:href="#Cambria-9a" transform="translate(132.03125 0)"/>
      <use xlink:href="#Cambria-3" transform="translate(180.375 0)"/>
      <use xlink:href="#Cambria-91" transform="translate(202.390625 0)"/>
      <use xlink:href="#Cambria-84" transform="translate(255.46875 0)"/>
      <use xlink:href="#Cambria-95" transform="translate(310.203125 0)"/>
      <use xlink:href="#Cambria-87" transform="translate(353.171875 0)"/>
      <use xlink:href="#Cambria-94" transform="translate(401.953125 0)"/>
      <use xlink:href="#Cambria-98" transform="translate(443.3125 0)"/>
      <use xlink:href="#Cambria-87" transform="translate(491.75 0)"/>
      <use xlink:href="#Cambria-86" transform="translate(540.53125 0)"/>
      <use xlink:href="#Cambria-3" transform="translate(596 0)"/>
      <use xlink:href="#Cambria-95" transform="translate(618.015625 0)"/>
      <use xlink:href="#Cambria-97" transform="translate(660.984375 0)"/>
      <use xlink:href="#Cambria-92" transform="translate(716.203125 0)"/>
      <use xlink:href="#Cambria-92" transform="translate(771.8125 0)"/>
      <use xlink:href="#Cambria-91" transform="translate(827.421875 0)"/>
      <use xlink:href="#Cambria-94" transform="translate(880.5 0)"/>
      <use xlink:href="#Cambria-96" transform="translate(921.859375 0)"/>
     </g>
    </g>
    <g id="line2d_25">
     <path d="M 49.74875 63.64166 
L 58.54875 63.64166 
L 67.34875 63.64166 
" style="fill: none; stroke-dasharray: 5.18,2.24; stroke-dashoffset: 0; stroke: #2a78d6; stroke-opacity: 0.65; stroke-width: 1.4"/>
     <g>
      <use xlink:href="#m2b5fcb5556" x="58.54875" y="63.64166" style="fill: #2a78d6; fill-opacity: 0.65; stroke: #2a78d6; stroke-opacity: 0.65"/>
     </g>
    </g>
    <g id="text_20">
     <!-- min observed support -->
     <g transform="translate(74.38875 66.72166) scale(0.088 -0.088)">
      <use xlink:href="#Cambria-8f"/>
      <use xlink:href="#Cambria-8b" transform="translate(83.203125 0)"/>
      <use xlink:href="#Cambria-90" transform="translate(110.984375 0)"/>
      <use xlink:href="#Cambria-3" transform="translate(166.796875 0)"/>
      <use xlink:href="#Cambria-91" transform="translate(188.8125 0)"/>
      <use xlink:href="#Cambria-84" transform="translate(241.890625 0)"/>
      <use xlink:href="#Cambria-95" transform="translate(296.625 0)"/>
      <use xlink:href="#Cambria-87" transform="translate(339.59375 0)"/>
      <use xlink:href="#Cambria-94" transform="translate(388.375 0)"/>
      <use xlink:href="#Cambria-98" transform="translate(429.734375 0)"/>
      <use xlink:href="#Cambria-87" transform="translate(478.171875 0)"/>
      <use xlink:href="#Cambria-86" transform="translate(526.953125 0)"/>
      <use xlink:href="#Cambria-3" transform="translate(582.421875 0)"/>
      <use xlink:href="#Cambria-95" transform="translate(604.4375 0)"/>
      <use xlink:href="#Cambria-97" transform="translate(647.40625 0)"/>
      <use xlink:href="#Cambria-92" transform="translate(702.625 0)"/>
      <use xlink:href="#Cambria-92" transform="translate(758.234375 0)"/>
      <use xlink:href="#Cambria-91" transform="translate(813.84375 0)"/>
      <use xlink:href="#Cambria-94" transform="translate(866.921875 0)"/>
      <use xlink:href="#Cambria-96" transform="translate(908.28125 0)"/>
     </g>
    </g>
   </g>
  </g>
 </g>
 <defs>
  <clipPath id="p15bf31f534">
   <rect x="41.82875" y="25.311816" width="348.544652" height="172.754199"/>
  </clipPath>
 </defs>
</svg>
