<?xml version="1.0" encoding="utf-8" standalone="no"?>
<!DOCTYPE svg PUBLIC "-//W3C//DTD SVG 1.1//EN"
  "http://www.w3.org/Graphics/SVG/1.1/DTD/svg11.dtd">
<svg xmlns:xlink="http://www.w3.org/1999/xlink" width="468.912891pt" height="253.166016pt" viewBox="0 0 468.912891 253.166016" xmlns="http://www.w3.org/2000/svg" version="1.1">
 <metadata>
  <rdf:RDF xmlns:dc="http://purl.org/dc/elements/1.1/" xmlns:cc="http://creativecommons.org/ns#" xmlns:rdf="http://www.w3.org/1999/02/22-rdf-syntax-ns#">
   <cc:Work>
    <dc:type rdf:resource="http://purl.org/dc/dcmitype/StillImage"/>
    <dc:date>2026-07-23T00:55:48.217713</dc:date>
    <dc:format>image/svg+xml</dc:format>
    <dc:creator>
     <cc:Agent>
      <dc:title>Matplotlib v3.11.1, https://matplotlib.org/</dc:title>
     </cc:Agent>
    </dc:creator>
   </cc:Work>
  </rdf:RDF>
 </metadata>
 <defs>
  <style type="text/css">*{stroke-linejoin: round; stroke-linecap: butt}</style>
 </defs>
 <g id="figure_1">
  <g id="patch_1">
   <path d="M 0 253.166016 
L 468.912891 253.166016 
L 468.912891 0 
L 0 0 
z
" style="fill: #fcfcfb"/>
  </g>
  <g id="axes_1">
   <g id="patch_2">
    <path d="M 44.796875 212.466016 
L 461.712891 212.466016 
L 461.712891 24.145068 
L 44.796875 24.145068 
z
" style="fill: #fcfcfb"/>
   </g>
   <g id="matplotlib.axis_1">
    <g id="xtick_1">
     <g id="line2d_1">
      <path d="M 63.747603 212.466016 
L 63.747603 24.145068 
" clip-path="url(#p52d1e65d89)" style="fill: none; stroke: #e1e0d9; stroke-width: 0.7; stroke-linecap: square"/>
     </g>
     <g id="line2d_2">
      <defs>
       <path id="m0bf05a8eea" d="M 0 0 
L 0 3.5 
" style="stroke: #898781; stroke-width: 0.8"/>
      </defs>
      <g>
       <use xlink:href="#m0bf05a8eea" x="63.747603" y="212.466016" style="fill: #898781; stroke: #898781; stroke-width: 0.8"/>
      </g>
     </g>
     <g id="text_1">
      <!-- 7 -->
      <g style="fill: #52514e" transform="translate(60.840415 227.633252) scale(0.105 -0.105)">
       <defs>
        <path id="Cambria-379" d="M 3206 4116 
L 1388 -22 
L 934 -22 
L 934 131 
L 2619 3697 
L 2619 3744 
L 1244 3744 
Q 1116 3744 1039 3720 
Q 963 3697 911 3653 
Q 859 3609 825 3537 
Q 791 3466 731 3253 
L 463 3253 
L 525 4266 
L 3206 4266 
L 3206 4116 
z
" transform="scale(0.015625)"/>
       </defs>
       <use xlink:href="#Cambria-379"/>
      </g>
     </g>
    </g>
    <g id="xtick_2">
     <g id="line2d_3">
      <path d="M 113.240811 212.466016 
L 113.240811 24.145068 
" clip-path="url(#p52d1e65d89)" style="fill: none; stroke: #e1e0d9; stroke-width: 0.7; stroke-linecap: square"/>
     </g>
     <g id="line2d_4">
      <g>
       <use xlink:href="#m0bf05a8eea" x="113.240811" y="212.466016" style="fill: #898781; stroke: #898781; stroke-width: 0.8"/>
      </g>
     </g>
     <g id="text_2">
      <!-- 11 -->
      <g style="fill: #52514e" transform="translate(107.426436 227.633252) scale(0.105 -0.105)">
       <defs>
        <path id="Cambria-373" d="M 2172 816 
Q 2172 634 2192 542 
Q 2213 450 2264 392 
Q 2316 334 2412 301 
Q 2509 269 2656 251 
Q 2803 234 3044 228 
L 3044 0 
L 734 0 
L 734 228 
Q 1081 244 1229 270 
Q 1378 297 1456 350 
Q 1534 403 1570 500 
Q 1606 597 1606 816 
L 1606 3350 
Q 1606 3475 1562 3533 
Q 1519 3591 1434 3591 
Q 1334 3591 1150 3487 
Q 966 3384 694 3203 
L 556 3444 
L 2019 4316 
L 2191 4316 
Q 2172 4016 2172 3484 
L 2172 816 
z
" transform="scale(0.015625)"/>
       </defs>
       <use xlink:href="#Cambria-373"/>
       <use xlink:href="#Cambria-373" transform="translate(55.375 0)"/>
      </g>
     </g>
    </g>
    <g id="xtick_3">
     <g id="line2d_5">
      <path d="M 173.08836 212.466016 
L 173.08836 24.145068 
" clip-path="url(#p52d1e65d89)" style="fill: none; stroke: #e1e0d9; stroke-width: 0.7; stroke-linecap: square"/>
     </g>
     <g id="line2d_6">
      <g>
       <use xlink:href="#m0bf05a8eea" x="173.08836" y="212.466016" style="fill: #898781; stroke: #898781; stroke-width: 0.8"/>
      </g>
     </g>
     <g id="text_3">
      <!-- 19 -->
      <g style="fill: #52514e" transform="translate(167.273985 227.633252) scale(0.105 -0.105)">
       <defs>
        <path id="Cambria-37b" d="M 978 122 
L 978 275 
Q 1416 275 1736 469 
Q 2056 663 2251 1042 
Q 2447 1422 2513 2038 
L 2481 2050 
Q 2219 1863 1964 1775 
Q 1709 1688 1413 1688 
Q 1059 1688 811 1842 
Q 563 1997 438 2276 
Q 313 2556 313 2931 
Q 313 3213 406 3464 
Q 500 3716 684 3905 
Q 869 4094 1145 4205 
Q 1422 4316 1791 4316 
Q 2447 4316 2790 3862 
Q 3134 3409 3134 2559 
Q 3134 1781 2881 1211 
Q 2628 641 2172 323 
Q 1716 6 1106 -50 
L 978 122 
z
M 1628 2016 
Q 1747 2016 1855 2036 
Q 1963 2056 2066 2095 
Q 2169 2134 2267 2195 
Q 2366 2256 2444 2325 
Q 2472 2350 2494 2390 
Q 2516 2431 2528 2497 
Q 2541 2563 2541 2703 
Q 2541 3131 2455 3436 
Q 2369 3741 2192 3895 
Q 2016 4050 1756 4050 
Q 1522 4050 1359 3969 
Q 1197 3888 1095 3745 
Q 994 3603 947 3411 
Q 900 3219 900 2994 
Q 900 2528 1090 2272 
Q 1281 2016 1628 2016 
z
" transform="scale(0.015625)"/>
       </defs>
       <use xlink:href="#Cambria-373"/>
       <use xlink:href="#Cambria-37b" transform="translate(55.375 0)"/>
      </g>
     </g>
    </g>
    <g id="xtick_4">
     <g id="line2d_7">
      <path d="M 226.694797 212.466016 
L 226.694797 24.145068 
" clip-path="url(#p52d1e65d89)" style="fill: none; stroke: #e1e0d9; stroke-width: 0.7; stroke-linecap: square"/>
     </g>
     <g id="line2d_8">
      <g>
       <use xlink:href="#m0bf05a8eea" x="226.694797" y="212.466016" style="fill: #898781; stroke: #898781; stroke-width: 0.8"/>
      </g>
     </g>
     <g id="text_4">
      <!-- 31 -->
      <g style="fill: #52514e" transform="translate(220.880422 227.633252) scale(0.105 -0.105)">
       <defs>
        <path id="Cambria-375" d="M 497 3381 
L 497 3975 
Q 859 4147 1175 4231 
Q 1491 4316 1784 4316 
Q 2138 4316 2403 4206 
Q 2669 4097 2809 3892 
Q 2950 3688 2950 3403 
Q 2950 3138 2844 2936 
Q 2738 2734 2545 2584 
Q 2353 2434 2047 2291 
L 2047 2263 
Q 2238 2228 2414 2145 
Q 2591 2063 2728 1931 
Q 2866 1800 2948 1617 
Q 3031 1434 3031 1200 
Q 3031 838 2873 556 
Q 2716 275 2391 112 
Q 2066 -50 1600 -50 
Q 1331 -50 1020 11 
Q 709 72 450 172 
L 450 834 
L 825 834 
Q 934 509 1114 362 
Q 1294 216 1603 216 
Q 2009 216 2217 437 
Q 2425 659 2425 1094 
Q 2425 1550 2150 1790 
Q 1875 2031 1344 2031 
L 1063 2031 
L 1063 2306 
Q 1484 2331 1773 2468 
Q 2063 2606 2203 2822 
Q 2344 3038 2344 3306 
Q 2344 3653 2159 3840 
Q 1975 4028 1622 4028 
Q 1328 4028 1143 3868 
Q 959 3709 872 3381 
L 497 3381 
z
" transform="scale(0.015625)"/>
       </defs>
       <use xlink:href="#Cambria-375"/>
       <use xlink:href="#Cambria-373" transform="translate(55.375 0)"/>
      </g>
     </g>
    </g>
    <g id="xtick_5">
     <g id="line2d_9">
      <path d="M 297.164741 212.466016 
L 297.164741 24.145068 
" clip-path="url(#p52d1e65d89)" style="fill: none; stroke: #e1e0d9; stroke-width: 0.7; stroke-linecap: square"/>
     </g>
     <g id="line2d_10">
      <g>
       <use xlink:href="#m0bf05a8eea" x="297.164741" y="212.466016" style="fill: #898781; stroke: #898781; stroke-width: 0.8"/>
      </g>
     </g>
     <g id="text_5">
      <!-- 59 -->
      <g style="fill: #52514e" transform="translate(291.350366 227.633252) scale(0.105 -0.105)">
       <defs>
        <path id="Cambria-377" d="M 469 172 
L 469 834 
L 847 834 
Q 941 516 1130 366 
Q 1319 216 1619 216 
Q 2034 216 2246 466 
Q 2459 716 2459 1213 
Q 2459 1544 2346 1761 
Q 2234 1978 2043 2075 
Q 1853 2172 1600 2172 
Q 1388 2172 1234 2145 
Q 1081 2119 906 2063 
L 656 2209 
L 656 4266 
L 2378 4266 
Q 2484 4266 2531 4283 
Q 2578 4300 2606 4336 
Q 2634 4372 2672 4472 
L 2916 4472 
L 2869 3747 
L 1072 3747 
L 1072 2375 
Q 1234 2444 1425 2478 
Q 1616 2513 1806 2513 
Q 2178 2513 2465 2361 
Q 2753 2209 2909 1929 
Q 3066 1650 3066 1281 
Q 3066 863 2891 563 
Q 2716 263 2384 106 
Q 2053 -50 1600 -50 
Q 1059 -50 469 172 
z
" transform="scale(0.015625)"/>
       </defs>
       <use xlink:href="#Cambria-377"/>
       <use xlink:href="#Cambria-37b" transform="translate(55.375 0)"/>
      </g>
     </g>
    </g>
    <g id="xtick_6">
     <g id="line2d_11">
      <path d="M 358.178247 212.466016 
L 358.178247 24.145068 
" clip-path="url(#p52d1e65d89)" style="fill: none; stroke: #e1e0d9; stroke-width: 0.7; stroke-linecap: square"/>
     </g>
     <g id="line2d_12">
      <g>
       <use xlink:href="#m0bf05a8eea" x="358.178247" y="212.466016" style="fill: #898781; stroke: #898781; stroke-width: 0.8"/>
      </g>
     </g>
     <g id="text_6">
      <!-- 103 -->
      <g style="fill: #52514e" transform="translate(349.456684 227.633252) scale(0.105 -0.105)">
       <defs>
        <path id="Cambria-372" d="M 1738 -50 
Q 1063 -50 733 481 
Q 403 1013 403 2094 
Q 403 2669 504 3087 
Q 606 3506 789 3779 
Q 972 4053 1228 4184 
Q 1484 4316 1788 4316 
Q 2472 4316 2806 3787 
Q 3141 3259 3141 2191 
Q 3141 1084 2783 517 
Q 2425 -50 1738 -50 
z
M 1013 2188 
Q 1013 1169 1202 692 
Q 1391 216 1788 216 
Q 2166 216 2348 664 
Q 2531 1113 2531 2053 
Q 2531 2772 2437 3217 
Q 2344 3663 2176 3856 
Q 2009 4050 1772 4050 
Q 1556 4050 1411 3922 
Q 1266 3794 1177 3553 
Q 1088 3313 1050 2967 
Q 1013 2622 1013 2188 
z
" transform="scale(0.015625)"/>
       </defs>
       <use xlink:href="#Cambria-373"/>
       <use xlink:href="#Cambria-372" transform="translate(55.375 0)"/>
       <use xlink:href="#Cambria-375" transform="translate(110.75 0)"/>
      </g>
     </g>
    </g>
    <g id="xtick_7">
     <g id="line2d_13">
      <path d="M 400.068274 212.466016 
L 400.068274 24.145068 
" clip-path="url(#p52d1e65d89)" style="fill: none; stroke: #e1e0d9; stroke-width: 0.7; stroke-linecap: square"/>
     </g>
     <g id="line2d_14">
      <g>
       <use xlink:href="#m0bf05a8eea" x="400.068274" y="212.466016" style="fill: #898781; stroke: #898781; stroke-width: 0.8"/>
      </g>
     </g>
     <g id="text_7">
      <!-- 151 -->
      <g style="fill: #52514e" transform="translate(391.346711 227.633252) scale(0.105 -0.105)">
       <use xlink:href="#Cambria-373"/>
       <use xlink:href="#Cambria-377" transform="translate(55.375 0)"/>
       <use xlink:href="#Cambria-373" transform="translate(110.75 0)"/>
      </g>
     </g>
    </g>
    <g id="xtick_8">
     <g id="line2d_15">
      <path d="M 442.762163 212.466016 
L 442.762163 24.145068 
" clip-path="url(#p52d1e65d89)" style="fill: none; stroke: #e1e0d9; stroke-width: 0.7; stroke-linecap: square"/>
     </g>
     <g id="line2d_16">
      <g>
       <use xlink:href="#m0bf05a8eea" x="442.762163" y="212.466016" style="fill: #898781; stroke: #898781; stroke-width: 0.8"/>
      </g>
     </g>
     <g id="text_8">
      <!-- 223 -->
      <g style="fill: #52514e" transform="translate(434.0406 227.633252) scale(0.105 -0.105)">
       <defs>
        <path id="Cambria-374" d="M 2194 500 
Q 2347 500 2440 519 
Q 2534 538 2590 581 
Q 2647 625 2680 695 
Q 2713 766 2763 913 
L 3028 913 
L 2975 0 
L 403 0 
L 403 150 
Q 538 478 766 822 
Q 994 1166 1413 1631 
Q 1775 2031 1934 2238 
Q 2109 2463 2195 2627 
Q 2281 2791 2318 2936 
Q 2356 3081 2356 3228 
Q 2356 3463 2281 3642 
Q 2206 3822 2051 3925 
Q 1897 4028 1663 4028 
Q 1078 4028 875 3378 
L 497 3378 
L 497 3978 
Q 875 4156 1204 4236 
Q 1534 4316 1797 4316 
Q 2378 4316 2675 4061 
Q 2972 3806 2972 3322 
Q 2972 3156 2939 3017 
Q 2906 2878 2836 2742 
Q 2766 2606 2647 2450 
Q 2528 2294 2384 2133 
Q 2241 1972 1888 1597 
Q 1294 969 1016 500 
L 2194 500 
z
" transform="scale(0.015625)"/>
       </defs>
       <use xlink:href="#Cambria-374"/>
       <use xlink:href="#Cambria-374" transform="translate(55.375 0)"/>
       <use xlink:href="#Cambria-375" transform="translate(110.75 0)"/>
      </g>
     </g>
    </g>
    <g id="xtick_9">
     <g id="line2d_17">
      <defs>
       <path id="m03577ef8f5" d="M 0 0 
L 0 2 
" style="stroke: #898781; stroke-width: 0.6"/>
      </defs>
      <g>
       <use xlink:href="#m03577ef8f5" x="46.867818" y="212.466016" style="fill: #898781; stroke: #898781; stroke-width: 0.6"/>
      </g>
     </g>
    </g>
    <g id="xtick_10">
     <g id="line2d_18">
      <g>
       <use xlink:href="#m03577ef8f5" x="78.369538" y="212.466016" style="fill: #898781; stroke: #898781; stroke-width: 0.6"/>
      </g>
     </g>
    </g>
    <g id="xtick_11">
     <g id="line2d_19">
      <g>
       <use xlink:href="#m03577ef8f5" x="91.266998" y="212.466016" style="fill: #898781; stroke: #898781; stroke-width: 0.6"/>
      </g>
     </g>
    </g>
    <g id="xtick_12">
     <g id="line2d_20">
      <g>
       <use xlink:href="#m03577ef8f5" x="178.70507" y="212.466016" style="fill: #898781; stroke: #898781; stroke-width: 0.6"/>
      </g>
     </g>
    </g>
    <g id="xtick_13">
     <g id="line2d_21">
      <g>
       <use xlink:href="#m03577ef8f5" x="223.104251" y="212.466016" style="fill: #898781; stroke: #898781; stroke-width: 0.6"/>
      </g>
     </g>
    </g>
    <g id="xtick_14">
     <g id="line2d_22">
      <g>
       <use xlink:href="#m03577ef8f5" x="254.605971" y="212.466016" style="fill: #898781; stroke: #898781; stroke-width: 0.6"/>
      </g>
     </g>
    </g>
    <g id="xtick_15">
     <g id="line2d_23">
      <g>
       <use xlink:href="#m03577ef8f5" x="279.040603" y="212.466016" style="fill: #898781; stroke: #898781; stroke-width: 0.6"/>
      </g>
     </g>
    </g>
    <g id="xtick_16">
     <g id="line2d_24">
      <g>
       <use xlink:href="#m03577ef8f5" x="299.005151" y="212.466016" style="fill: #898781; stroke: #898781; stroke-width: 0.6"/>
      </g>
     </g>
    </g>
    <g id="xtick_17">
     <g id="line2d_25">
      <g>
       <use xlink:href="#m03577ef8f5" x="315.884936" y="212.466016" style="fill: #898781; stroke: #898781; stroke-width: 0.6"/>
      </g>
     </g>
    </g>
    <g id="xtick_18">
     <g id="line2d_26">
      <g>
       <use xlink:href="#m03577ef8f5" x="330.506871" y="212.466016" style="fill: #898781; stroke: #898781; stroke-width: 0.6"/>
      </g>
     </g>
    </g>
    <g id="xtick_19">
     <g id="line2d_27">
      <g>
       <use xlink:href="#m03577ef8f5" x="343.404332" y="212.466016" style="fill: #898781; stroke: #898781; stroke-width: 0.6"/>
      </g>
     </g>
    </g>
    <g id="xtick_20">
     <g id="line2d_28">
      <g>
       <use xlink:href="#m03577ef8f5" x="430.842404" y="212.466016" style="fill: #898781; stroke: #898781; stroke-width: 0.6"/>
      </g>
     </g>
    </g>
    <g id="text_9">
     <!-- quaternion prime $p$ -->
     <g style="fill: #0b0b0b" transform="translate(203.634883 243.3) scale(0.12 -0.12)">
      <defs>
       <path id="Cambria-93" d="M 3300 -1344 
L 2025 -1344 
L 2025 -1191 
Q 2175 -1159 2242 -1121 
Q 2309 -1084 2345 -1026 
Q 2381 -969 2395 -870 
Q 2409 -772 2409 -566 
L 2409 513 
Q 2241 322 2095 208 
Q 1950 94 1772 22 
Q 1594 -50 1394 -50 
Q 878 -50 601 334 
Q 325 719 325 1453 
Q 325 1972 504 2330 
Q 684 2688 1006 2864 
Q 1328 3041 1750 3041 
Q 1972 3041 2150 2995 
Q 2328 2950 2516 2850 
L 2734 3041 
L 2947 2991 
L 2947 -566 
Q 2947 -750 2961 -858 
Q 2975 -966 3011 -1028 
Q 3047 -1091 3117 -1125 
Q 3188 -1159 3300 -1191 
L 3300 -1344 
z
M 2409 1863 
Q 2409 2153 2371 2312 
Q 2334 2472 2243 2583 
Q 2153 2694 2031 2742 
Q 1909 2791 1744 2791 
Q 1341 2791 1127 2466 
Q 913 2141 913 1550 
Q 913 950 1086 637 
Q 1259 325 1606 325 
Q 1738 325 1830 348 
Q 1922 372 2011 425 
Q 2100 478 2192 568 
Q 2284 659 2325 732 
Q 2366 806 2387 903 
Q 2409 1000 2409 1153 
L 2409 1863 
z
" transform="scale(0.015625)"/>
       <path id="Cambria-97" d="M 228 2988 
L 1119 2988 
L 1119 1397 
Q 1119 1031 1147 840 
Q 1175 650 1231 553 
Q 1288 456 1391 390 
Q 1494 325 1675 325 
Q 1794 325 1903 372 
Q 2013 419 2147 536 
Q 2281 653 2339 768 
Q 2397 884 2397 1038 
L 2397 2209 
Q 2397 2388 2387 2478 
Q 2378 2569 2356 2623 
Q 2334 2678 2304 2712 
Q 2275 2747 2220 2775 
Q 2166 2803 2044 2834 
L 2044 2988 
L 2934 2988 
L 2934 853 
Q 2934 613 2943 506 
Q 2953 400 2984 337 
Q 3016 275 3081 236 
Q 3147 197 3316 163 
L 3316 0 
L 2600 -31 
L 2409 -31 
L 2428 481 
L 2381 494 
Q 2122 213 1886 81 
Q 1650 -50 1413 -50 
Q 1128 -50 943 62 
Q 759 175 668 398 
Q 578 622 578 1028 
L 578 2209 
Q 578 2472 558 2570 
Q 538 2669 480 2726 
Q 422 2784 228 2834 
L 228 2988 
z
" transform="scale(0.015625)"/>
       <path id="Cambria-83" d="M 2109 447 
L 2063 459 
Q 1791 181 1552 65 
Q 1313 -50 1044 -50 
Q 806 -50 625 42 
Q 444 134 347 301 
Q 250 469 250 688 
Q 250 1144 701 1392 
Q 1153 1641 2056 1681 
L 2056 1884 
Q 2056 2209 1993 2396 
Q 1931 2584 1797 2671 
Q 1663 2759 1438 2759 
Q 1194 2759 1045 2631 
Q 897 2503 822 2247 
L 413 2247 
L 413 2653 
Q 713 2809 913 2882 
Q 1113 2956 1313 2998 
Q 1513 3041 1719 3041 
Q 2028 3041 2215 2942 
Q 2403 2844 2497 2641 
Q 2591 2438 2591 2028 
L 2591 941 
Q 2591 709 2594 614 
Q 2597 519 2612 437 
Q 2628 356 2659 307 
Q 2691 259 2752 225 
Q 2813 191 2950 153 
L 2950 0 
L 2094 0 
L 2109 447 
z
M 2056 1425 
Q 1422 1419 1106 1256 
Q 791 1094 791 766 
Q 791 588 862 484 
Q 934 381 1043 342 
Q 1153 303 1303 303 
Q 1516 303 1689 406 
Q 1863 509 1959 668 
Q 2056 828 2056 984 
L 2056 1425 
z
" transform="scale(0.015625)"/>
       <path id="Cambria-96" d="M 116 2831 
Q 272 2856 369 2918 
Q 466 2981 520 3079 
Q 575 3178 606 3326 
Q 638 3475 672 3759 
L 1116 3759 
L 1116 2988 
L 2125 2988 
L 2125 2672 
L 1116 2672 
L 1116 1281 
Q 1116 978 1141 798 
Q 1166 619 1234 517 
Q 1303 416 1390 372 
Q 1478 328 1616 328 
Q 1741 328 1850 379 
Q 1959 431 2066 528 
L 2206 359 
Q 1984 144 1786 47 
Q 1588 -50 1375 -50 
Q 972 -50 775 189 
Q 578 428 578 938 
L 578 2672 
L 116 2672 
L 116 2831 
z
" transform="scale(0.015625)"/>
       <path id="Cambria-87" d="M 2800 531 
Q 2600 322 2433 203 
Q 2266 84 2066 17 
Q 1866 -50 1625 -50 
Q 981 -50 653 336 
Q 325 722 325 1475 
Q 325 1941 492 2297 
Q 659 2653 968 2847 
Q 1278 3041 1681 3041 
Q 1997 3041 2219 2941 
Q 2441 2841 2573 2667 
Q 2706 2494 2779 2230 
Q 2853 1966 2863 1541 
L 894 1541 
L 894 1484 
Q 894 1116 976 864 
Q 1059 613 1248 470 
Q 1438 328 1741 328 
Q 1997 328 2201 423 
Q 2406 519 2609 734 
L 2800 531 
z
M 2275 1800 
Q 2256 2138 2190 2352 
Q 2125 2566 1994 2680 
Q 1863 2794 1650 2794 
Q 1328 2794 1136 2536 
Q 944 2278 909 1800 
L 2275 1800 
z
" transform="scale(0.015625)"/>
       <path id="Cambria-94" d="M 1147 2469 
L 1191 2459 
Q 1363 2669 1509 2789 
Q 1656 2909 1826 2975 
Q 1997 3041 2213 3041 
Q 2394 3041 2541 3022 
L 2541 2303 
L 2188 2303 
Q 2113 2472 2028 2548 
Q 1944 2625 1797 2625 
Q 1684 2625 1573 2559 
Q 1463 2494 1359 2369 
Q 1256 2244 1217 2134 
Q 1178 2025 1178 1875 
L 1178 781 
Q 1178 497 1212 389 
Q 1247 281 1326 231 
Q 1406 181 1566 153 
L 1566 0 
L 306 0 
L 306 153 
Q 425 191 476 219 
Q 528 247 565 297 
Q 603 347 622 450 
Q 641 553 641 772 
L 641 2134 
Q 641 2334 634 2456 
Q 628 2578 590 2651 
Q 553 2725 476 2761 
Q 400 2797 259 2822 
L 259 2984 
L 991 3016 
L 1181 3016 
L 1147 2469 
z
" transform="scale(0.015625)"/>
       <path id="Cambria-90" d="M 3347 0 
L 2116 0 
L 2116 153 
Q 2238 191 2291 219 
Q 2344 247 2380 297 
Q 2416 347 2436 451 
Q 2456 556 2456 769 
L 2456 1588 
Q 2456 1806 2443 1984 
Q 2431 2163 2401 2277 
Q 2372 2391 2330 2455 
Q 2288 2519 2230 2564 
Q 2172 2609 2097 2636 
Q 2022 2663 1900 2663 
Q 1778 2663 1668 2614 
Q 1559 2566 1428 2447 
Q 1297 2328 1237 2212 
Q 1178 2097 1178 1947 
L 1178 781 
Q 1178 513 1203 408 
Q 1228 303 1298 248 
Q 1369 194 1528 153 
L 1528 0 
L 303 0 
L 303 153 
Q 425 191 476 219 
Q 528 247 564 297 
Q 600 347 620 450 
Q 641 553 641 772 
L 641 2134 
Q 641 2334 634 2456 
Q 628 2578 590 2651 
Q 553 2725 476 2761 
Q 400 2797 259 2822 
L 259 2988 
L 991 3016 
L 1181 3016 
L 1147 2506 
L 1191 2494 
Q 1422 2728 1564 2828 
Q 1706 2928 1851 2983 
Q 1997 3038 2159 3038 
Q 2328 3038 2461 2998 
Q 2594 2959 2695 2878 
Q 2797 2797 2862 2676 
Q 2928 2556 2961 2387 
Q 2994 2219 2994 1959 
L 2994 781 
Q 2994 566 3006 469 
Q 3019 372 3050 319 
Q 3081 266 3140 230 
Q 3200 194 3347 153 
L 3347 0 
z
" transform="scale(0.015625)"/>
       <path id="Cambria-8b" d="M 1197 4213 
L 1197 3606 
L 622 3606 
L 622 4213 
L 1197 4213 
z
M 303 153 
Q 425 191 476 219 
Q 528 247 564 297 
Q 600 347 620 450 
Q 641 553 641 772 
L 641 2134 
Q 641 2334 634 2456 
Q 628 2578 590 2651 
Q 553 2725 476 2761 
Q 400 2797 259 2822 
L 259 2988 
L 988 3016 
L 1178 3016 
L 1178 781 
Q 1178 513 1203 408 
Q 1228 303 1298 248 
Q 1369 194 1528 153 
L 1528 0 
L 303 0 
L 303 153 
z
" transform="scale(0.015625)"/>
       <path id="Cambria-91" d="M 1663 -50 
Q 1013 -50 670 333 
Q 328 716 328 1466 
Q 328 1981 508 2337 
Q 688 2694 1000 2867 
Q 1313 3041 1713 3041 
Q 2381 3041 2725 2652 
Q 3069 2263 3069 1534 
Q 3069 1016 2897 659 
Q 2725 303 2409 126 
Q 2094 -50 1663 -50 
z
M 919 1531 
Q 919 888 1123 542 
Q 1328 197 1709 197 
Q 1919 197 2066 298 
Q 2213 400 2305 572 
Q 2397 744 2437 970 
Q 2478 1197 2478 1444 
Q 2478 1903 2376 2206 
Q 2275 2509 2100 2651 
Q 1925 2794 1700 2794 
Q 1322 2794 1120 2466 
Q 919 2138 919 1531 
z
" transform="scale(0.015625)"/>
       <path id="Cambria-3" transform="scale(0.015625)"/>
       <path id="Cambria-92" d="M 1150 94 
L 1150 -566 
Q 1150 -769 1164 -869 
Q 1178 -969 1214 -1026 
Q 1250 -1084 1317 -1121 
Q 1384 -1159 1534 -1191 
L 1534 -1344 
L 259 -1344 
L 259 -1191 
Q 372 -1159 442 -1126 
Q 513 -1094 550 -1030 
Q 588 -966 600 -856 
Q 613 -747 613 -566 
L 613 2116 
Q 613 2341 606 2436 
Q 600 2531 581 2593 
Q 563 2656 527 2697 
Q 491 2738 430 2766 
Q 369 2794 228 2822 
L 228 2988 
L 963 3016 
L 1153 3016 
L 1113 2506 
L 1159 2494 
Q 1353 2691 1465 2780 
Q 1578 2869 1698 2928 
Q 1819 2988 1930 3013 
Q 2041 3038 2166 3038 
Q 2681 3038 2957 2652 
Q 3234 2266 3234 1522 
Q 3234 1006 3078 654 
Q 2922 303 2623 126 
Q 2325 -50 1913 -50 
Q 1681 -50 1493 -11 
Q 1306 28 1150 94 
z
M 1150 1125 
Q 1150 825 1187 662 
Q 1225 500 1320 398 
Q 1416 297 1545 247 
Q 1675 197 1888 197 
Q 2266 197 2456 511 
Q 2647 825 2647 1438 
Q 2647 2663 1931 2663 
Q 1756 2663 1629 2608 
Q 1503 2553 1378 2431 
Q 1253 2309 1201 2195 
Q 1150 2081 1150 1950 
L 1150 1125 
z
" transform="scale(0.015625)"/>
       <path id="Cambria-8f" d="M 1147 2506 
L 1191 2494 
Q 1378 2681 1498 2776 
Q 1619 2872 1731 2930 
Q 1844 2988 1942 3013 
Q 2041 3038 2144 3038 
Q 2456 3038 2653 2894 
Q 2850 2750 2925 2453 
Q 3159 2691 3304 2803 
Q 3450 2916 3601 2977 
Q 3753 3038 3928 3038 
Q 4138 3038 4289 2977 
Q 4441 2916 4545 2789 
Q 4650 2663 4698 2472 
Q 4747 2281 4747 1959 
L 4747 781 
Q 4747 544 4762 453 
Q 4778 363 4808 313 
Q 4838 263 4897 227 
Q 4956 191 5097 153 
L 5097 0 
L 3869 0 
L 3869 153 
Q 3991 191 4044 219 
Q 4097 247 4133 297 
Q 4169 347 4189 451 
Q 4209 556 4209 769 
L 4209 1588 
Q 4209 1853 4195 2026 
Q 4181 2200 4151 2303 
Q 4122 2406 4080 2465 
Q 4038 2525 3984 2569 
Q 3931 2613 3859 2638 
Q 3788 2663 3669 2663 
Q 3544 2663 3436 2613 
Q 3328 2563 3201 2444 
Q 3075 2325 3019 2204 
Q 2963 2084 2963 1922 
L 2963 781 
Q 2963 544 2978 453 
Q 2994 363 3023 313 
Q 3053 263 3112 227 
Q 3172 191 3313 153 
L 3313 0 
L 2084 0 
L 2084 153 
Q 2206 191 2259 219 
Q 2313 247 2348 297 
Q 2384 347 2404 451 
Q 2425 556 2425 769 
L 2425 1588 
Q 2425 1866 2409 2041 
Q 2394 2216 2361 2322 
Q 2328 2428 2276 2493 
Q 2225 2559 2172 2593 
Q 2119 2628 2047 2645 
Q 1975 2663 1884 2663 
Q 1756 2663 1643 2605 
Q 1531 2547 1414 2437 
Q 1297 2328 1237 2209 
Q 1178 2091 1178 1953 
L 1178 781 
Q 1178 603 1187 509 
Q 1197 416 1217 362 
Q 1238 309 1269 276 
Q 1300 244 1358 214 
Q 1416 184 1531 153 
L 1531 0 
L 306 0 
L 306 153 
Q 425 191 476 219 
Q 528 247 565 297 
Q 603 347 622 450 
Q 641 553 641 772 
L 641 2134 
Q 641 2334 634 2456 
Q 628 2578 590 2651 
Q 553 2725 476 2761 
Q 400 2797 259 2822 
L 259 2988 
L 991 3016 
L 1181 3016 
L 1147 2506 
z
" transform="scale(0.015625)"/>
       <path id="Cmmi10-80" d="M -159 -1241 
Q -219 -1241 -219 -1159 
Q -197 -1019 -134 -1019 
Q 66 -1019 145 -983 
Q 225 -947 269 -800 
L 991 2081 
Q 1038 2200 1038 2388 
Q 1038 2663 850 2663 
Q 650 2663 553 2423 
Q 456 2184 366 1819 
Q 366 1778 313 1778 
L 238 1778 
Q 222 1778 203 1801 
Q 184 1825 184 1844 
Q 253 2122 317 2315 
Q 381 2509 517 2668 
Q 653 2828 856 2828 
Q 1075 2828 1240 2704 
Q 1406 2581 1453 2369 
Q 1628 2572 1840 2700 
Q 2053 2828 2278 2828 
Q 2547 2828 2745 2684 
Q 2944 2541 3044 2308 
Q 3144 2075 3144 1806 
Q 3144 1394 2933 953 
Q 2722 513 2361 220 
Q 2000 -72 1588 -72 
Q 1400 -72 1248 34 
Q 1097 141 1013 313 
L 722 -825 
Q 706 -919 703 -934 
Q 703 -1019 1125 -1019 
Q 1191 -1019 1191 -1100 
Q 1169 -1184 1155 -1212 
Q 1141 -1241 1081 -1241 
L -159 -1241 
z
M 1594 97 
Q 1816 97 2006 280 
Q 2197 463 2316 691 
Q 2403 863 2479 1111 
Q 2556 1359 2612 1640 
Q 2669 1922 2669 2088 
Q 2669 2234 2630 2362 
Q 2591 2491 2502 2577 
Q 2413 2663 2266 2663 
Q 2031 2663 1823 2495 
Q 1616 2328 1447 2081 
L 1447 2059 
L 1094 647 
Q 1138 419 1263 258 
Q 1388 97 1594 97 
z
" transform="scale(0.015625)"/>
      </defs>
      <use xlink:href="#Cambria-93" transform="translate(0 0.171875)"/>
      <use xlink:href="#Cambria-97" transform="translate(54.6875 0.171875)"/>
      <use xlink:href="#Cambria-83" transform="translate(109.912109 0.171875)"/>
      <use xlink:href="#Cambria-96" transform="translate(158.740234 0.171875)"/>
      <use xlink:href="#Cambria-87" transform="translate(192.578125 0.171875)"/>
      <use xlink:href="#Cambria-94" transform="translate(241.357422 0.171875)"/>
      <use xlink:href="#Cambria-90" transform="translate(282.714844 0.171875)"/>
      <use xlink:href="#Cambria-8b" transform="translate(338.525391 0.171875)"/>
      <use xlink:href="#Cambria-91" transform="translate(366.308594 0.171875)"/>
      <use xlink:href="#Cambria-90" transform="translate(419.384766 0.171875)"/>
      <use xlink:href="#Cambria-3" transform="translate(475.195312 0.171875)"/>
      <use xlink:href="#Cambria-92" transform="translate(497.216797 0.171875)"/>
      <use xlink:href="#Cambria-94" transform="translate(552.832031 0.171875)"/>
      <use xlink:href="#Cambria-8b" transform="translate(594.189453 0.171875)"/>
      <use xlink:href="#Cambria-8f" transform="translate(621.972656 0.171875)"/>
      <use xlink:href="#Cambria-87" transform="translate(705.175781 0.171875)"/>
      <use xlink:href="#Cambria-3" transform="translate(753.955078 0.171875)"/>
      <use xlink:href="#Cmmi10-80" transform="translate(775.976562 0.171875)"/>
     </g>
    </g>
   </g>
   <g id="matplotlib.axis_2">
    <g id="ytick_1">
     <g id="line2d_29">
      <path d="M 44.796875 205.222902 
L 461.712891 205.222902 
" clip-path="url(#p52d1e65d89)" style="fill: none; stroke: #e1e0d9; stroke-width: 0.7; stroke-linecap: square"/>
     </g>
     <g id="line2d_30">
      <defs>
       <path id="mfc28c20950" d="M 0 0 
L -3.5 0 
" style="stroke: #898781; stroke-width: 0.8"/>
      </defs>
      <g>
       <use xlink:href="#mfc28c20950" x="44.796875" y="205.222902" style="fill: #898781; stroke: #898781; stroke-width: 0.8"/>
      </g>
     </g>
     <g id="text_10">
      <!-- 0.0 -->
      <g style="fill: #52514e" transform="translate(24.013984 209.30652) scale(0.105 -0.105)">
       <defs>
        <path id="Cambria-1e4" d="M 972 725 
L 972 0 
L 341 0 
L 341 725 
L 972 725 
z
" transform="scale(0.015625)"/>
       </defs>
       <use xlink:href="#Cambria-372"/>
       <use xlink:href="#Cambria-1e4" transform="translate(55.375 0)"/>
       <use xlink:href="#Cambria-372" transform="translate(75.890625 0)"/>
      </g>
     </g>
    </g>
    <g id="ytick_2">
     <g id="line2d_31">
      <path d="M 44.796875 181.079191 
L 461.712891 181.079191 
" clip-path="url(#p52d1e65d89)" style="fill: none; stroke: #e1e0d9; stroke-width: 0.7; stroke-linecap: square"/>
     </g>
     <g id="line2d_32">
      <g>
       <use xlink:href="#mfc28c20950" x="44.796875" y="181.079191" style="fill: #898781; stroke: #898781; stroke-width: 0.8"/>
      </g>
     </g>
     <g id="text_11">
      <!-- 0.1 -->
      <g style="fill: #52514e" transform="translate(24.013984 185.162809) scale(0.105 -0.105)">
       <use xlink:href="#Cambria-372"/>
       <use xlink:href="#Cambria-1e4" transform="translate(55.375 0)"/>
       <use xlink:href="#Cambria-373" transform="translate(75.890625 0)"/>
      </g>
     </g>
    </g>
    <g id="ytick_3">
     <g id="line2d_33">
      <path d="M 44.796875 156.93548 
L 461.712891 156.93548 
" clip-path="url(#p52d1e65d89)" style="fill: none; stroke: #e1e0d9; stroke-width: 0.7; stroke-linecap: square"/>
     </g>
     <g id="line2d_34">
      <g>
       <use xlink:href="#mfc28c20950" x="44.796875" y="156.93548" style="fill: #898781; stroke: #898781; stroke-width: 0.8"/>
      </g>
     </g>
     <g id="text_12">
      <!-- 0.2 -->
      <g style="fill: #52514e" transform="translate(24.013984 161.019098) scale(0.105 -0.105)">
       <use xlink:href="#Cambria-372"/>
       <use xlink:href="#Cambria-1e4" transform="translate(55.375 0)"/>
       <use xlink:href="#Cambria-374" transform="translate(75.890625 0)"/>
      </g>
     </g>
    </g>
    <g id="ytick_4">
     <g id="line2d_35">
      <path d="M 44.796875 132.791769 
L 461.712891 132.791769 
" clip-path="url(#p52d1e65d89)" style="fill: none; stroke: #e1e0d9; stroke-width: 0.7; stroke-linecap: square"/>
     </g>
     <g id="line2d_36">
      <g>
       <use xlink:href="#mfc28c20950" x="44.796875" y="132.791769" style="fill: #898781; stroke: #898781; stroke-width: 0.8"/>
      </g>
     </g>
     <g id="text_13">
      <!-- 0.3 -->
      <g style="fill: #52514e" transform="translate(24.013984 136.875387) scale(0.105 -0.105)">
       <use xlink:href="#Cambria-372"/>
       <use xlink:href="#Cambria-1e4" transform="translate(55.375 0)"/>
       <use xlink:href="#Cambria-375" transform="translate(75.890625 0)"/>
      </g>
     </g>
    </g>
    <g id="ytick_5">
     <g id="line2d_37">
      <path d="M 44.796875 108.648058 
L 461.712891 108.648058 
" clip-path="url(#p52d1e65d89)" style="fill: none; stroke: #e1e0d9; stroke-width: 0.7; stroke-linecap: square"/>
     </g>
     <g id="line2d_38">
      <g>
       <use xlink:href="#mfc28c20950" x="44.796875" y="108.648058" style="fill: #898781; stroke: #898781; stroke-width: 0.8"/>
      </g>
     </g>
     <g id="text_14">
      <!-- 0.4 -->
      <g style="fill: #52514e" transform="translate(24.013984 112.731676) scale(0.105 -0.105)">
       <defs>
        <path id="Cambria-376" d="M 1613 153 
Q 1806 203 1872 264 
Q 1938 325 1958 437 
Q 1978 550 1978 781 
L 1978 1294 
L 241 1294 
L 241 1528 
L 2069 4288 
L 2516 4288 
L 2516 1597 
L 2581 1597 
Q 2763 1597 2841 1623 
Q 2919 1650 2970 1717 
Q 3022 1784 3066 1938 
L 3303 1938 
L 3266 1294 
L 2516 1294 
L 2516 781 
Q 2516 572 2530 475 
Q 2544 378 2576 322 
Q 2609 266 2673 228 
Q 2738 191 2881 153 
L 2881 0 
L 1613 0 
L 1613 153 
z
M 756 1597 
L 1978 1597 
L 1978 2375 
Q 1978 2669 1987 3033 
Q 1997 3397 2009 3581 
L 1978 3581 
L 756 1641 
L 756 1597 
z
" transform="scale(0.015625)"/>
       </defs>
       <use xlink:href="#Cambria-372"/>
       <use xlink:href="#Cambria-1e4" transform="translate(55.375 0)"/>
       <use xlink:href="#Cambria-376" transform="translate(75.890625 0)"/>
      </g>
     </g>
    </g>
    <g id="ytick_6">
     <g id="line2d_39">
      <path d="M 44.796875 84.504346 
L 461.712891 84.504346 
" clip-path="url(#p52d1e65d89)" style="fill: none; stroke: #e1e0d9; stroke-width: 0.7; stroke-linecap: square"/>
     </g>
     <g id="line2d_40">
      <g>
       <use xlink:href="#mfc28c20950" x="44.796875" y="84.504346" style="fill: #898781; stroke: #898781; stroke-width: 0.8"/>
      </g>
     </g>
     <g id="text_15">
      <!-- 0.5 -->
      <g style="fill: #52514e" transform="translate(24.013984 88.587964) scale(0.105 -0.105)">
       <use xlink:href="#Cambria-372"/>
       <use xlink:href="#Cambria-1e4" transform="translate(55.375 0)"/>
       <use xlink:href="#Cambria-377" transform="translate(75.890625 0)"/>
      </g>
     </g>
    </g>
    <g id="ytick_7">
     <g id="line2d_41">
      <path d="M 44.796875 60.360635 
L 461.712891 60.360635 
" clip-path="url(#p52d1e65d89)" style="fill: none; stroke: #e1e0d9; stroke-width: 0.7; stroke-linecap: square"/>
     </g>
     <g id="line2d_42">
      <g>
       <use xlink:href="#mfc28c20950" x="44.796875" y="60.360635" style="fill: #898781; stroke: #898781; stroke-width: 0.8"/>
      </g>
     </g>
     <g id="text_16">
      <!-- 0.6 -->
      <g style="fill: #52514e" transform="translate(24.013984 64.444253) scale(0.105 -0.105)">
       <defs>
        <path id="Cambria-378" d="M 2847 4144 
L 2847 3991 
Q 2366 3991 1994 3784 
Q 1622 3578 1376 3178 
Q 1131 2778 1031 2228 
L 1063 2216 
Q 1325 2403 1579 2490 
Q 1834 2578 2131 2578 
Q 2484 2578 2732 2423 
Q 2981 2269 3106 1989 
Q 3231 1709 3231 1334 
Q 3231 928 3075 617 
Q 2919 306 2592 128 
Q 2266 -50 1788 -50 
Q 1103 -50 754 375 
Q 406 800 406 1628 
Q 406 2184 581 2668 
Q 756 3153 1078 3514 
Q 1400 3875 1825 4083 
Q 2250 4291 2719 4316 
L 2847 4144 
z
M 1916 2250 
Q 1763 2250 1620 2215 
Q 1478 2181 1353 2115 
Q 1228 2050 1109 1950 
Q 1072 1916 1053 1878 
Q 1022 1819 1012 1731 
Q 1003 1644 1003 1438 
Q 1003 841 1203 528 
Q 1403 216 1809 216 
Q 2044 216 2203 297 
Q 2363 378 2461 520 
Q 2559 663 2601 855 
Q 2644 1047 2644 1272 
Q 2644 1734 2453 1992 
Q 2263 2250 1916 2250 
z
" transform="scale(0.015625)"/>
       </defs>
       <use xlink:href="#Cambria-372"/>
       <use xlink:href="#Cambria-1e4" transform="translate(55.375 0)"/>
       <use xlink:href="#Cambria-378" transform="translate(75.890625 0)"/>
      </g>
     </g>
    </g>
    <g id="ytick_8">
     <g id="line2d_43">
      <path d="M 44.796875 36.216924 
L 461.712891 36.216924 
" clip-path="url(#p52d1e65d89)" style="fill: none; stroke: #e1e0d9; stroke-width: 0.7; stroke-linecap: square"/>
     </g>
     <g id="line2d_44">
      <g>
       <use xlink:href="#mfc28c20950" x="44.796875" y="36.216924" style="fill: #898781; stroke: #898781; stroke-width: 0.8"/>
      </g>
     </g>
     <g id="text_17">
      <!-- 0.7 -->
      <g style="fill: #52514e" transform="translate(24.013984 40.300542) scale(0.105 -0.105)">
       <use xlink:href="#Cambria-372"/>
       <use xlink:href="#Cambria-1e4" transform="translate(55.375 0)"/>
       <use xlink:href="#Cambria-379" transform="translate(75.890625 0)"/>
      </g>
     </g>
    </g>
    <g id="text_18">
     <!-- mean $\log_p N(J)$ over 5 ideals -->
     <g style="fill: #0b0b0b" transform="translate(16.533984 191.985542) rotate(-90) scale(0.12 -0.12)">
      <defs>
       <path id="Cmr10-6a" d="M 197 0 
L 197 225 
Q 416 225 556 259 
Q 697 294 697 428 
L 697 3788 
Q 697 3959 645 4036 
Q 594 4113 497 4130 
Q 400 4147 197 4147 
L 197 4372 
L 1147 4441 
L 1147 428 
Q 1147 294 1287 259 
Q 1428 225 1644 225 
L 1644 0 
L 197 0 
z
" transform="scale(0.015625)"/>
       <path id="Cmr10-42" d="M 1600 -72 
Q 1216 -72 887 123 
Q 559 319 368 647 
Q 178 975 178 1363 
Q 178 1656 283 1928 
Q 388 2200 583 2414 
Q 778 2628 1037 2748 
Q 1297 2869 1600 2869 
Q 1994 2869 2317 2661 
Q 2641 2453 2828 2104 
Q 3016 1756 3016 1363 
Q 3016 978 2825 648 
Q 2634 319 2307 123 
Q 1981 -72 1600 -72 
z
M 1600 116 
Q 2113 116 2284 487 
Q 2456 859 2456 1434 
Q 2456 1756 2422 1967 
Q 2388 2178 2272 2350 
Q 2200 2456 2089 2536 
Q 1978 2616 1854 2658 
Q 1731 2700 1600 2700 
Q 1400 2700 1220 2609 
Q 1041 2519 922 2350 
Q 803 2169 770 1951 
Q 738 1734 738 1434 
Q 738 1075 800 789 
Q 863 503 1052 309 
Q 1241 116 1600 116 
z
" transform="scale(0.015625)"/>
       <path id="Cmr10-1b" d="M 178 -500 
Q 178 -272 343 -101 
Q 509 69 738 141 
Q 609 238 542 384 
Q 475 531 475 697 
Q 475 997 666 1228 
Q 372 1516 372 1888 
Q 372 2088 458 2263 
Q 544 2438 697 2566 
Q 850 2694 1037 2761 
Q 1225 2828 1422 2828 
Q 1803 2828 2106 2606 
Q 2238 2747 2417 2823 
Q 2597 2900 2791 2900 
Q 2928 2900 3015 2801 
Q 3103 2703 3103 2566 
Q 3103 2488 3043 2428 
Q 2984 2369 2906 2369 
Q 2825 2369 2765 2428 
Q 2706 2488 2706 2566 
Q 2706 2684 2784 2731 
Q 2453 2731 2216 2503 
Q 2331 2388 2401 2220 
Q 2472 2053 2472 1888 
Q 2472 1616 2322 1398 
Q 2172 1181 1926 1061 
Q 1681 941 1422 941 
Q 1072 941 781 1131 
Q 691 1006 691 850 
Q 691 681 802 554 
Q 913 428 1081 428 
L 1606 428 
Q 1988 428 2294 359 
Q 2600 291 2808 84 
Q 3016 -122 3016 -500 
Q 3016 -781 2778 -967 
Q 2541 -1153 2211 -1236 
Q 1881 -1319 1600 -1319 
Q 1316 -1319 984 -1236 
Q 653 -1153 415 -967 
Q 178 -781 178 -500 
z
M 538 -500 
Q 538 -716 713 -861 
Q 888 -1006 1134 -1076 
Q 1381 -1147 1600 -1147 
Q 1816 -1147 2062 -1076 
Q 2309 -1006 2482 -861 
Q 2656 -716 2656 -500 
Q 2656 -166 2350 -67 
Q 2044 31 1606 31 
L 1081 31 
Q 934 31 811 -39 
Q 688 -109 613 -236 
Q 538 -363 538 -500 
z
M 1422 1113 
Q 1966 1113 1966 1888 
Q 1966 2222 1850 2439 
Q 1734 2656 1422 2656 
Q 1109 2656 993 2439 
Q 878 2222 878 1888 
Q 878 1675 922 1503 
Q 966 1331 1084 1222 
Q 1203 1113 1422 1113 
z
" transform="scale(0.015625)"/>
       <path id="Cmmi10-5d" d="M 300 0 
Q 238 0 238 84 
Q 241 100 250 139 
Q 259 178 276 201 
Q 294 225 319 225 
Q 931 225 1031 616 
L 1900 4116 
Q 1722 4147 1338 4147 
Q 1275 4147 1275 4231 
Q 1278 4247 1287 4286 
Q 1297 4325 1314 4348 
Q 1331 4372 1356 4372 
L 2463 4372 
Q 2509 4372 2522 4331 
L 3944 947 
L 4653 3781 
Q 4666 3850 4666 3878 
Q 4666 4147 4172 4147 
Q 4109 4147 4109 4231 
Q 4131 4313 4143 4342 
Q 4156 4372 4219 4372 
L 5588 4372 
Q 5650 4372 5650 4288 
Q 5647 4272 5637 4233 
Q 5628 4194 5611 4170 
Q 5594 4147 5569 4147 
Q 4956 4147 4856 3756 
L 3938 56 
Q 3916 0 3872 0 
L 3794 0 
Q 3750 0 3738 44 
L 2106 3916 
L 2094 3956 
Q 2081 3969 2081 3975 
L 1234 588 
Q 1228 572 1225 548 
Q 1222 525 1216 494 
Q 1216 328 1359 276 
Q 1503 225 1716 225 
Q 1778 225 1778 141 
Q 1756 53 1740 26 
Q 1725 0 1672 0 
L 300 0 
z
" transform="scale(0.015625)"/>
       <path id="Cmr10-77" d="M 1984 -1588 
Q 1628 -1306 1370 -942 
Q 1113 -578 948 -165 
Q 784 247 703 697 
Q 622 1147 622 1600 
Q 622 2059 703 2509 
Q 784 2959 951 3375 
Q 1119 3791 1378 4153 
Q 1638 4516 1984 4788 
Q 1984 4800 2016 4800 
L 2075 4800 
Q 2094 4800 2109 4783 
Q 2125 4766 2125 4744 
Q 2125 4716 2113 4703 
Q 1800 4397 1592 4047 
Q 1384 3697 1257 3301 
Q 1131 2906 1075 2482 
Q 1019 2059 1019 1600 
Q 1019 -434 2106 -1491 
Q 2125 -1509 2125 -1544 
Q 2125 -1559 2108 -1579 
Q 2091 -1600 2075 -1600 
L 2016 -1600 
Q 1984 -1600 1984 -1588 
z
" transform="scale(0.015625)"/>
       <path id="Cmmi10-4f" d="M 697 384 
Q 759 206 928 115 
Q 1097 25 1294 25 
Q 1494 25 1680 164 
Q 1866 303 1995 512 
Q 2125 722 2175 928 
L 2931 3956 
Q 2938 3981 2939 3993 
Q 2941 4006 2944 4019 
Q 2944 4088 2894 4103 
Q 2725 4147 2209 4147 
Q 2144 4147 2144 4231 
Q 2156 4281 2164 4309 
Q 2172 4338 2192 4355 
Q 2213 4372 2253 4372 
L 3988 4372 
Q 4050 4372 4050 4288 
Q 4025 4147 3969 4147 
Q 3744 4147 3628 4112 
Q 3513 4078 3469 3928 
L 2713 903 
Q 2641 606 2420 367 
Q 2200 128 1897 -6 
Q 1594 -141 1288 -141 
Q 950 -141 695 46 
Q 441 234 441 556 
Q 441 769 556 922 
Q 672 1075 884 1075 
Q 1006 1075 1089 1000 
Q 1172 925 1172 806 
Q 1172 634 1044 506 
Q 916 378 744 378 
Q 709 378 697 384 
z
" transform="scale(0.015625)"/>
       <path id="Cmr10-44" d="M 416 -1600 
Q 359 -1600 359 -1544 
Q 359 -1516 372 -1503 
Q 1466 -434 1466 1600 
Q 1466 3634 384 4691 
Q 359 4706 359 4744 
Q 359 4766 376 4783 
Q 394 4800 416 4800 
L 475 4800 
Q 494 4800 506 4788 
Q 966 4425 1272 3906 
Q 1578 3388 1720 2800 
Q 1863 2213 1863 1600 
Q 1863 1147 1786 708 
Q 1709 269 1542 -157 
Q 1375 -584 1119 -945 
Q 863 -1306 506 -1588 
Q 494 -1600 475 -1600 
L 416 -1600 
z
" transform="scale(0.015625)"/>
       <path id="Cambria-98" d="M 1334 2988 
L 1334 2834 
Q 1191 2800 1131 2769 
Q 1072 2738 1042 2688 
Q 1013 2638 1013 2553 
Q 1013 2469 1033 2376 
Q 1053 2284 1097 2163 
L 1641 581 
L 2278 2097 
Q 2341 2247 2366 2344 
Q 2391 2441 2391 2525 
Q 2391 2656 2320 2725 
Q 2250 2794 2063 2834 
L 2063 2988 
L 3231 2988 
L 3231 2834 
Q 3109 2809 3043 2757 
Q 2978 2706 2912 2595 
Q 2847 2484 2756 2284 
L 1703 -31 
L 1334 -31 
L 488 2303 
Q 400 2544 348 2633 
Q 297 2722 236 2765 
Q 175 2809 59 2834 
L 59 2988 
L 1334 2988 
z
" transform="scale(0.015625)"/>
       <path id="Cambria-86" d="M 2413 3397 
Q 2413 3697 2408 3815 
Q 2403 3934 2383 4017 
Q 2363 4100 2327 4147 
Q 2291 4194 2230 4222 
Q 2169 4250 2009 4278 
L 2009 4441 
L 2766 4472 
L 2950 4472 
L 2950 853 
Q 2950 609 2959 504 
Q 2969 400 3000 337 
Q 3031 275 3098 236 
Q 3166 197 3334 163 
L 3334 0 
L 2597 -31 
L 2409 -31 
L 2447 481 
L 2400 494 
Q 2203 284 2058 179 
Q 1913 75 1748 12 
Q 1584 -50 1397 -50 
Q 884 -50 606 339 
Q 328 728 328 1463 
Q 328 1975 509 2333 
Q 691 2691 998 2866 
Q 1306 3041 1691 3041 
Q 1897 3041 2065 3008 
Q 2234 2975 2413 2900 
L 2413 3397 
z
M 2413 1853 
Q 2413 2097 2391 2244 
Q 2369 2391 2317 2491 
Q 2266 2591 2178 2659 
Q 2091 2728 1986 2759 
Q 1881 2791 1734 2791 
Q 1334 2791 1125 2470 
Q 916 2150 916 1550 
Q 916 950 1087 637 
Q 1259 325 1609 325 
Q 1747 325 1837 348 
Q 1928 372 2015 423 
Q 2103 475 2193 565 
Q 2284 656 2326 731 
Q 2369 806 2391 903 
Q 2413 1000 2413 1153 
L 2413 1853 
z
" transform="scale(0.015625)"/>
       <path id="Cambria-8e" d="M 1138 781 
Q 1138 513 1163 408 
Q 1188 303 1258 248 
Q 1328 194 1488 153 
L 1488 0 
L 247 0 
L 247 153 
Q 403 194 464 237 
Q 525 281 551 342 
Q 578 403 589 508 
Q 600 613 600 781 
L 600 3397 
Q 600 3697 595 3815 
Q 591 3934 570 4017 
Q 550 4100 514 4147 
Q 478 4194 417 4222 
Q 356 4250 197 4278 
L 197 4441 
L 950 4472 
L 1138 4472 
L 1138 781 
z
" transform="scale(0.015625)"/>
       <path id="Cambria-95" d="M 2397 2303 
L 2097 2303 
Q 2028 2491 1934 2598 
Q 1841 2706 1722 2750 
Q 1603 2794 1431 2794 
Q 1181 2794 1032 2676 
Q 884 2559 884 2356 
Q 884 2213 943 2119 
Q 1003 2025 1128 1944 
Q 1253 1863 1569 1728 
Q 1888 1591 2061 1475 
Q 2234 1359 2332 1206 
Q 2431 1053 2431 841 
Q 2431 594 2347 425 
Q 2263 256 2109 150 
Q 1956 44 1745 -3 
Q 1534 -50 1284 -50 
Q 1022 -50 775 -11 
Q 528 28 294 91 
L 294 744 
L 600 744 
Q 684 456 850 326 
Q 1016 197 1306 197 
Q 1419 197 1526 220 
Q 1634 244 1718 298 
Q 1803 353 1853 447 
Q 1903 541 1903 681 
Q 1903 841 1840 941 
Q 1778 1041 1647 1123 
Q 1516 1206 1184 1347 
Q 900 1466 728 1578 
Q 556 1691 457 1844 
Q 359 1997 359 2206 
Q 359 2463 498 2652 
Q 638 2841 900 2941 
Q 1163 3041 1516 3041 
Q 1722 3041 1914 3020 
Q 2106 3000 2397 2941 
L 2397 2303 
z
" transform="scale(0.015625)"/>
      </defs>
      <use xlink:href="#Cambria-8f"/>
      <use xlink:href="#Cambria-87" transform="translate(83.203125 0)"/>
      <use xlink:href="#Cambria-83" transform="translate(131.982422 0)"/>
      <use xlink:href="#Cambria-90" transform="translate(180.810547 0)"/>
      <use xlink:href="#Cambria-3" transform="translate(236.621094 0)"/>
      <use xlink:href="#Cmr10-6a" transform="translate(258.642578 0)"/>
      <use xlink:href="#Cmr10-42" transform="translate(286.328125 0)"/>
      <use xlink:href="#Cmr10-1b" transform="translate(336.328125 0)"/>
      <use xlink:href="#Cmmi10-80" transform="translate(390.332416 -14.999962) scale(0.7)"/>
      <use xlink:href="#Cmmi10-5d" transform="translate(447.924957 0)"/>
      <use xlink:href="#Cmr10-77" transform="translate(528.247223 0)"/>
      <use xlink:href="#Cmmi10-4f" transform="translate(567.065582 0)"/>
      <use xlink:href="#Cmr10-44" transform="translate(622.485504 0)"/>
      <use xlink:href="#Cambria-3" transform="translate(661.303863 0)"/>
      <use xlink:href="#Cambria-91" transform="translate(683.325348 0)"/>
      <use xlink:href="#Cambria-98" transform="translate(736.40152 0)"/>
      <use xlink:href="#Cambria-87" transform="translate(786.792145 0)"/>
      <use xlink:href="#Cambria-94" transform="translate(835.571441 0)"/>
      <use xlink:href="#Cambria-3" transform="translate(876.928863 0)"/>
      <use xlink:href="#Cambria-377" transform="translate(898.950348 0)"/>
      <use xlink:href="#Cambria-3" transform="translate(954.321441 0)"/>
      <use xlink:href="#Cambria-8b" transform="translate(976.342926 0)"/>
      <use xlink:href="#Cambria-86" transform="translate(1004.126129 0)"/>
      <use xlink:href="#Cambria-87" transform="translate(1059.594879 0)"/>
      <use xlink:href="#Cambria-83" transform="translate(1108.374176 0)"/>
      <use xlink:href="#Cambria-8e" transform="translate(1157.202301 0)"/>
      <use xlink:href="#Cambria-95" transform="translate(1184.350738 0)"/>
     </g>
    </g>
   </g>
   <g id="line2d_45">
    <path d="M 63.747603 205.222902 
L 113.240811 177.306512 
L 173.08836 171.121033 
L 194.009262 166.954697 
L 226.694797 149.131325 
L 262.525217 159.216604 
L 297.164741 136.912714 
L 317.43818 130.693477 
L 334.538069 155.345428 
L 358.178247 129.454638 
L 384.509975 136.724658 
L 400.068274 153.490022 
L 418.695192 123.071823 
L 442.762163 129.707162 
" clip-path="url(#p52d1e65d89)" style="fill: none; stroke: #2a78d6; stroke-width: 1.8; stroke-linecap: square"/>
    <defs>
     <path id="m488d82a9f3" d="M 0 2.25 
C 0.596707 2.25 1.169055 2.012926 1.59099 1.59099 
C 2.012926 1.169055 2.25 0.596707 2.25 0 
C 2.25 -0.596707 2.012926 -1.169055 1.59099 -1.59099 
C 1.169055 -2.012926 0.596707 -2.25 0 -2.25 
C -0.596707 -2.25 -1.169055 -2.012926 -1.59099 -1.59099 
C -2.012926 -1.169055 -2.25 -0.596707 -2.25 0 
C -2.25 0.596707 -2.012926 1.169055 -1.59099 1.59099 
C -1.169055 2.012926 -0.596707 2.25 0 2.25 
z
" style="stroke: #2a78d6"/>
    </defs>
    <g clip-path="url(#p52d1e65d89)">
     <use xlink:href="#m488d82a9f3" x="63.747603" y="205.222902" style="fill: #2a78d6; stroke: #2a78d6"/>
     <use xlink:href="#m488d82a9f3" x="113.240811" y="177.306512" style="fill: #2a78d6; stroke: #2a78d6"/>
     <use xlink:href="#m488d82a9f3" x="173.08836" y="171.121033" style="fill: #2a78d6; stroke: #2a78d6"/>
     <use xlink:href="#m488d82a9f3" x="194.009262" y="166.954697" style="fill: #2a78d6; stroke: #2a78d6"/>
     <use xlink:href="#m488d82a9f3" x="226.694797" y="149.131325" style="fill: #2a78d6; stroke: #2a78d6"/>
     <use xlink:href="#m488d82a9f3" x="262.525217" y="159.216604" style="fill: #2a78d6; stroke: #2a78d6"/>
     <use xlink:href="#m488d82a9f3" x="297.164741" y="136.912714" style="fill: #2a78d6; stroke: #2a78d6"/>
     <use xlink:href="#m488d82a9f3" x="317.43818" y="130.693477" style="fill: #2a78d6; stroke: #2a78d6"/>
     <use xlink:href="#m488d82a9f3" x="334.538069" y="155.345428" style="fill: #2a78d6; stroke: #2a78d6"/>
     <use xlink:href="#m488d82a9f3" x="358.178247" y="129.454638" style="fill: #2a78d6; stroke: #2a78d6"/>
     <use xlink:href="#m488d82a9f3" x="384.509975" y="136.724658" style="fill: #2a78d6; stroke: #2a78d6"/>
     <use xlink:href="#m488d82a9f3" x="400.068274" y="153.490022" style="fill: #2a78d6; stroke: #2a78d6"/>
     <use xlink:href="#m488d82a9f3" x="418.695192" y="123.071823" style="fill: #2a78d6; stroke: #2a78d6"/>
     <use xlink:href="#m488d82a9f3" x="442.762163" y="129.707162" style="fill: #2a78d6; stroke: #2a78d6"/>
    </g>
   </g>
   <g id="line2d_46">
    <path d="M 63.747603 205.222902 
L 113.240811 177.306512 
L 173.08836 171.121033 
L 194.009262 162.524318 
L 226.694797 136.995498 
L 262.525217 151.829906 
L 297.164741 123.138333 
L 317.43818 103.147731 
L 334.538069 144.627296 
L 358.178247 89.676847 
L 384.509975 102.241561 
L 400.068274 111.828855 
L 418.695192 37.464499 
L 442.762163 87.613263 
" clip-path="url(#p52d1e65d89)" style="fill: none; stroke: #eb6834; stroke-width: 1.8; stroke-linecap: square"/>
    <defs>
     <path id="mc9a2dffafe" d="M -2.25 2.25 
L 2.25 2.25 
L 2.25 -2.25 
L -2.25 -2.25 
z
" style="stroke: #eb6834; stroke-linejoin: miter"/>
    </defs>
    <g clip-path="url(#p52d1e65d89)">
     <use xlink:href="#mc9a2dffafe" x="63.747603" y="205.222902" style="fill: #eb6834; stroke: #eb6834; stroke-linejoin: miter"/>
     <use xlink:href="#mc9a2dffafe" x="113.240811" y="177.306512" style="fill: #eb6834; stroke: #eb6834; stroke-linejoin: miter"/>
     <use xlink:href="#mc9a2dffafe" x="173.08836" y="171.121033" style="fill: #eb6834; stroke: #eb6834; stroke-linejoin: miter"/>
     <use xlink:href="#mc9a2dffafe" x="194.009262" y="162.524318" style="fill: #eb6834; stroke: #eb6834; stroke-linejoin: miter"/>
     <use xlink:href="#mc9a2dffafe" x="226.694797" y="136.995498" style="fill: #eb6834; stroke: #eb6834; stroke-linejoin: miter"/>
     <use xlink:href="#mc9a2dffafe" x="262.525217" y="151.829906" style="fill: #eb6834; stroke: #eb6834; stroke-linejoin: miter"/>
     <use xlink:href="#mc9a2dffafe" x="297.164741" y="123.138333" style="fill: #eb6834; stroke: #eb6834; stroke-linejoin: miter"/>
     <use xlink:href="#mc9a2dffafe" x="317.43818" y="103.147731" style="fill: #eb6834; stroke: #eb6834; stroke-linejoin: miter"/>
     <use xlink:href="#mc9a2dffafe" x="334.538069" y="144.627296" style="fill: #eb6834; stroke: #eb6834; stroke-linejoin: miter"/>
     <use xlink:href="#mc9a2dffafe" x="358.178247" y="89.676847" style="fill: #eb6834; stroke: #eb6834; stroke-linejoin: miter"/>
     <use xlink:href="#mc9a2dffafe" x="384.509975" y="102.241561" style="fill: #eb6834; stroke: #eb6834; stroke-linejoin: miter"/>
     <use xlink:href="#mc9a2dffafe" x="400.068274" y="111.828855" style="fill: #eb6834; stroke: #eb6834; stroke-linejoin: miter"/>
     <use xlink:href="#mc9a2dffafe" x="418.695192" y="37.464499" style="fill: #eb6834; stroke: #eb6834; stroke-linejoin: miter"/>
     <use xlink:href="#mc9a2dffafe" x="442.762163" y="87.613263" style="fill: #eb6834; stroke: #eb6834; stroke-linejoin: miter"/>
    </g>
   </g>
   <g id="line2d_47">
    <path d="M 63.747603 205.222902 
L 113.240811 160.97647 
L 173.08836 151.172719 
L 194.009262 154.466162 
L 226.694797 127.981561 
L 262.525217 120.597005 
L 297.164741 62.111841 
L 317.43818 93.217682 
L 334.538069 109.181139 
L 358.178247 67.870779 
L 384.509975 52.882775 
L 400.068274 99.490001 
L 418.695192 82.504082 
L 442.762163 97.303136 
" clip-path="url(#p52d1e65d89)" style="fill: none; stroke: #4a3aa7; stroke-width: 1.8; stroke-linecap: square"/>
    <defs>
     <path id="m99f11ab947" d="M 0 -2.25 
L -2.25 2.25 
L 2.25 2.25 
z
" style="stroke: #4a3aa7; stroke-linejoin: miter"/>
    </defs>
    <g clip-path="url(#p52d1e65d89)">
     <use xlink:href="#m99f11ab947" x="63.747603" y="205.222902" style="fill: #4a3aa7; stroke: #4a3aa7; stroke-linejoin: miter"/>
     <use xlink:href="#m99f11ab947" x="113.240811" y="160.97647" style="fill: #4a3aa7; stroke: #4a3aa7; stroke-linejoin: miter"/>
     <use xlink:href="#m99f11ab947" x="173.08836" y="151.172719" style="fill: #4a3aa7; stroke: #4a3aa7; stroke-linejoin: miter"/>
     <use xlink:href="#m99f11ab947" x="194.009262" y="154.466162" style="fill: #4a3aa7; stroke: #4a3aa7; stroke-linejoin: miter"/>
     <use xlink:href="#m99f11ab947" x="226.694797" y="127.981561" style="fill: #4a3aa7; stroke: #4a3aa7; stroke-linejoin: miter"/>
     <use xlink:href="#m99f11ab947" x="262.525217" y="120.597005" style="fill: #4a3aa7; stroke: #4a3aa7; stroke-linejoin: miter"/>
     <use xlink:href="#m99f11ab947" x="297.164741" y="62.111841" style="fill: #4a3aa7; stroke: #4a3aa7; stroke-linejoin: miter"/>
     <use xlink:href="#m99f11ab947" x="317.43818" y="93.217682" style="fill: #4a3aa7; stroke: #4a3aa7; stroke-linejoin: miter"/>
     <use xlink:href="#m99f11ab947" x="334.538069" y="109.181139" style="fill: #4a3aa7; stroke: #4a3aa7; stroke-linejoin: miter"/>
     <use xlink:href="#m99f11ab947" x="358.178247" y="67.870779" style="fill: #4a3aa7; stroke: #4a3aa7; stroke-linejoin: miter"/>
     <use xlink:href="#m99f11ab947" x="384.509975" y="52.882775" style="fill: #4a3aa7; stroke: #4a3aa7; stroke-linejoin: miter"/>
     <use xlink:href="#m99f11ab947" x="400.068274" y="99.490001" style="fill: #4a3aa7; stroke: #4a3aa7; stroke-linejoin: miter"/>
     <use xlink:href="#m99f11ab947" x="418.695192" y="82.504082" style="fill: #4a3aa7; stroke: #4a3aa7; stroke-linejoin: miter"/>
     <use xlink:href="#m99f11ab947" x="442.762163" y="97.303136" style="fill: #4a3aa7; stroke: #4a3aa7; stroke-linejoin: miter"/>
    </g>
   </g>
   <g id="line2d_48">
    <path d="M 63.747603 205.222902 
L 113.240811 177.306512 
L 173.08836 171.121033 
L 194.009262 166.954697 
L 226.694797 149.131325 
L 262.525217 159.216604 
L 297.164741 136.912714 
L 317.43818 130.693477 
L 334.538069 155.345428 
L 358.178247 129.454638 
L 384.509975 133.191895 
L 400.068274 153.490022 
L 418.695192 119.75167 
L 442.762163 125.218558 
" clip-path="url(#p52d1e65d89)" style="fill: none; stroke: #1baf7a; stroke-width: 1.8; stroke-linecap: square"/>
    <defs>
     <path id="m34b07d6649" d="M 0 3.181981 
L 3.181981 0 
L 0 -3.181981 
L -3.181981 0 
z
" style="stroke: #1baf7a; stroke-linejoin: miter"/>
    </defs>
    <g clip-path="url(#p52d1e65d89)">
     <use xlink:href="#m34b07d6649" x="63.747603" y="205.222902" style="fill: #1baf7a; stroke: #1baf7a; stroke-linejoin: miter"/>
     <use xlink:href="#m34b07d6649" x="113.240811" y="177.306512" style="fill: #1baf7a; stroke: #1baf7a; stroke-linejoin: miter"/>
     <use xlink:href="#m34b07d6649" x="173.08836" y="171.121033" style="fill: #1baf7a; stroke: #1baf7a; stroke-linejoin: miter"/>
     <use xlink:href="#m34b07d6649" x="194.009262" y="166.954697" style="fill: #1baf7a; stroke: #1baf7a; stroke-linejoin: miter"/>
     <use xlink:href="#m34b07d6649" x="226.694797" y="149.131325" style="fill: #1baf7a; stroke: #1baf7a; stroke-linejoin: miter"/>
     <use xlink:href="#m34b07d6649" x="262.525217" y="159.216604" style="fill: #1baf7a; stroke: #1baf7a; stroke-linejoin: miter"/>
     <use xlink:href="#m34b07d6649" x="297.164741" y="136.912714" style="fill: #1baf7a; stroke: #1baf7a; stroke-linejoin: miter"/>
     <use xlink:href="#m34b07d6649" x="317.43818" y="130.693477" style="fill: #1baf7a; stroke: #1baf7a; stroke-linejoin: miter"/>
     <use xlink:href="#m34b07d6649" x="334.538069" y="155.345428" style="fill: #1baf7a; stroke: #1baf7a; stroke-linejoin: miter"/>
     <use xlink:href="#m34b07d6649" x="358.178247" y="129.454638" style="fill: #1baf7a; stroke: #1baf7a; stroke-linejoin: miter"/>
     <use xlink:href="#m34b07d6649" x="384.509975" y="133.191895" style="fill: #1baf7a; stroke: #1baf7a; stroke-linejoin: miter"/>
     <use xlink:href="#m34b07d6649" x="400.068274" y="153.490022" style="fill: #1baf7a; stroke: #1baf7a; stroke-linejoin: miter"/>
     <use xlink:href="#m34b07d6649" x="418.695192" y="119.75167" style="fill: #1baf7a; stroke: #1baf7a; stroke-linejoin: miter"/>
     <use xlink:href="#m34b07d6649" x="442.762163" y="125.218558" style="fill: #1baf7a; stroke: #1baf7a; stroke-linejoin: miter"/>
    </g>
   </g>
   <g id="line2d_49">
    <path d="M 44.796875 84.504346 
L 461.712891 84.504346 
" clip-path="url(#p52d1e65d89)" style="fill: none; stroke-dasharray: 4.07,1.76; stroke-dashoffset: 0; stroke: #898781; stroke-width: 1.1"/>
   </g>
   <g id="patch_3">
    <path d="M 44.796875 212.466016 
L 44.796875 24.145068 
" style="fill: none; stroke: #c3c2b7; stroke-width: 0.9; stroke-linejoin: miter; stroke-linecap: square"/>
   </g>
   <g id="patch_4">
    <path d="M 44.796875 212.466016 
L 461.712891 212.466016 
" style="fill: none; stroke: #c3c2b7; stroke-width: 0.9; stroke-linejoin: miter; stroke-linecap: square"/>
   </g>
   <g id="text_19">
    <!-- $\log_p N(J) = 1/2$ -->
    <g style="fill: #898781" transform="translate(66.832366 80.88279) scale(0.086 -0.086)">
     <defs>
      <path id="Cmr10-29" d="M 481 850 
Q 428 850 393 890 
Q 359 931 359 978 
Q 359 1031 393 1068 
Q 428 1106 481 1106 
L 4500 1106 
Q 4547 1106 4581 1068 
Q 4616 1031 4616 978 
Q 4616 931 4581 890 
Q 4547 850 4500 850 
L 481 850 
z
M 481 2094 
Q 428 2094 393 2131 
Q 359 2169 359 2222 
Q 359 2269 393 2309 
Q 428 2350 481 2350 
L 4500 2350 
Q 4547 2350 4581 2309 
Q 4616 2269 4616 2222 
Q 4616 2169 4581 2131 
Q 4547 2094 4500 2094 
L 481 2094 
z
" transform="scale(0.015625)"/>
      <path id="Cmr10-64" d="M 594 0 
L 594 225 
Q 1394 225 1394 428 
L 1394 3788 
Q 1063 3628 556 3628 
L 556 3853 
Q 1341 3853 1741 4263 
L 1831 4263 
Q 1853 4263 1873 4245 
Q 1894 4228 1894 4206 
L 1894 428 
Q 1894 225 2694 225 
L 2694 0 
L 594 0 
z
" transform="scale(0.015625)"/>
      <path id="Cmmi10-62" d="M 359 -1472 
Q 359 -1453 366 -1447 
L 2591 4722 
Q 2603 4759 2634 4779 
Q 2666 4800 2706 4800 
Q 2763 4800 2798 4765 
Q 2834 4731 2834 4672 
L 2834 4647 
L 609 -1522 
Q 572 -1600 488 -1600 
Q 434 -1600 396 -1562 
Q 359 -1525 359 -1472 
z
" transform="scale(0.015625)"/>
      <path id="Cmr10-31" d="M 319 0 
L 319 172 
Q 319 188 331 206 
L 1325 1306 
Q 1550 1550 1690 1715 
Q 1831 1881 1968 2097 
Q 2106 2313 2186 2536 
Q 2266 2759 2266 3009 
Q 2266 3272 2169 3511 
Q 2072 3750 1880 3894 
Q 1688 4038 1416 4038 
Q 1138 4038 916 3870 
Q 694 3703 603 3438 
Q 628 3444 672 3444 
Q 816 3444 917 3347 
Q 1019 3250 1019 3097 
Q 1019 2950 917 2848 
Q 816 2747 672 2747 
Q 522 2747 420 2851 
Q 319 2956 319 3097 
Q 319 3338 409 3548 
Q 500 3759 670 3923 
Q 841 4088 1055 4175 
Q 1269 4263 1509 4263 
Q 1875 4263 2190 4108 
Q 2506 3953 2690 3670 
Q 2875 3388 2875 3009 
Q 2875 2731 2753 2481 
Q 2631 2231 2440 2026 
Q 2250 1822 1953 1562 
Q 1656 1303 1563 1216 
L 838 519 
L 1453 519 
Q 1906 519 2211 526 
Q 2516 534 2534 550 
Q 2609 631 2688 1141 
L 2875 1141 
L 2694 0 
L 319 0 
z
" transform="scale(0.015625)"/>
     </defs>
     <use xlink:href="#Cmr10-6a"/>
     <use xlink:href="#Cmr10-42" transform="translate(27.685547 0)"/>
     <use xlink:href="#Cmr10-1b" transform="translate(77.685547 0)"/>
     <use xlink:href="#Cmmi10-80" transform="translate(131.689838 -14.999962) scale(0.7)"/>
     <use xlink:href="#Cmmi10-5d" transform="translate(189.282379 0)"/>
     <use xlink:href="#Cmr10-77" transform="translate(269.604645 0)"/>
     <use xlink:href="#Cmmi10-4f" transform="translate(308.423004 0)"/>
     <use xlink:href="#Cmr10-44" transform="translate(363.842926 0)"/>
     <use xlink:href="#Cmr10-29" transform="translate(422.661342 0)"/>
     <use xlink:href="#Cmr10-64" transform="translate(520.346947 0)"/>
     <use xlink:href="#Cmmi10-62" transform="translate(570.346947 0)"/>
     <use xlink:href="#Cmr10-31" transform="translate(620.346947 0)"/>
    </g>
   </g>
   <g id="text_20">
    <!-- Exact spectrum through cutoff $p$: shape costs at small $p$ -->
    <g style="fill: #0b0b0b" transform="translate(44.796875 16.145068) scale(0.115 -0.115)">
     <defs>
      <path id="Cambria-8" d="M 3300 4266 
L 3300 3322 
L 2994 3322 
Q 2947 3475 2897 3590 
Q 2847 3706 2794 3784 
Q 2741 3863 2677 3909 
Q 2613 3956 2525 3973 
Q 2438 3991 2316 3991 
L 1328 3991 
L 1328 2353 
L 1997 2353 
Q 2134 2353 2212 2392 
Q 2291 2431 2342 2525 
Q 2394 2619 2441 2819 
L 2734 2819 
L 2734 1619 
L 2441 1619 
Q 2397 1806 2344 1901 
Q 2291 1997 2217 2037 
Q 2144 2078 1997 2078 
L 1328 2078 
L 1328 275 
L 2300 275 
Q 2453 275 2548 301 
Q 2644 328 2712 392 
Q 2781 456 2834 559 
Q 2888 663 2923 773 
Q 2959 884 3022 1097 
L 3331 1097 
L 3272 0 
L 378 0 
L 378 153 
Q 572 203 637 264 
Q 703 325 723 437 
Q 744 550 744 781 
L 744 3484 
Q 744 3700 728 3798 
Q 713 3897 677 3951 
Q 641 4006 581 4039 
Q 522 4072 378 4113 
L 378 4266 
L 3300 4266 
z
" transform="scale(0.015625)"/>
      <path id="Cambria-9a" d="M 1625 1803 
L 2031 2319 
Q 2097 2403 2137 2483 
Q 2178 2563 2178 2647 
Q 2178 2719 2125 2766 
Q 2072 2813 1959 2834 
L 1959 2988 
L 2981 2988 
L 2981 2834 
Q 2863 2800 2739 2700 
Q 2616 2600 2438 2378 
L 1791 1584 
L 2503 625 
Q 2656 419 2778 309 
Q 2900 200 3022 153 
L 3022 0 
L 1766 0 
L 1766 153 
Q 2025 184 2025 347 
Q 2025 413 2003 472 
Q 1981 531 1922 609 
L 1469 1241 
L 988 616 
Q 934 547 904 489 
Q 875 431 875 359 
Q 875 275 933 220 
Q 991 166 1116 153 
L 1116 0 
L 72 0 
L 72 153 
Q 175 191 258 247 
Q 341 303 427 392 
Q 513 481 653 653 
L 1303 1459 
L 638 2372 
Q 500 2559 419 2643 
Q 338 2728 269 2772 
Q 200 2816 131 2834 
L 131 2988 
L 1356 2988 
L 1356 2834 
Q 1109 2797 1109 2641 
Q 1109 2569 1142 2497 
Q 1175 2425 1244 2338 
L 1625 1803 
z
" transform="scale(0.015625)"/>
      <path id="Cambria-85" d="M 2631 2916 
L 2631 2263 
L 2234 2263 
Q 2181 2466 2103 2583 
Q 2025 2700 1922 2747 
Q 1819 2794 1666 2794 
Q 1447 2794 1278 2653 
Q 1109 2513 1011 2225 
Q 913 1938 913 1522 
Q 913 1256 950 1036 
Q 988 816 1078 659 
Q 1169 503 1319 415 
Q 1469 328 1691 328 
Q 1906 328 2092 412 
Q 2278 497 2478 709 
L 2656 503 
Q 2497 328 2375 233 
Q 2253 138 2114 73 
Q 1975 9 1839 -20 
Q 1703 -50 1544 -50 
Q 953 -50 640 342 
Q 328 734 328 1475 
Q 328 1938 503 2295 
Q 678 2653 993 2847 
Q 1309 3041 1722 3041 
Q 1978 3041 2195 3011 
Q 2413 2981 2631 2916 
z
" transform="scale(0.015625)"/>
      <path id="Cambria-8a" d="M 1141 2497 
L 1153 2494 
Q 1397 2741 1539 2839 
Q 1681 2938 1820 2988 
Q 1959 3038 2119 3038 
Q 2291 3038 2425 2997 
Q 2559 2956 2661 2873 
Q 2763 2791 2827 2670 
Q 2891 2550 2922 2383 
Q 2953 2216 2953 1959 
L 2953 781 
Q 2953 509 2976 411 
Q 3000 313 3061 258 
Q 3122 203 3306 153 
L 3306 0 
L 2075 0 
L 2075 153 
Q 2197 191 2250 219 
Q 2303 247 2339 297 
Q 2375 347 2395 451 
Q 2416 556 2416 769 
L 2416 1588 
Q 2416 2003 2373 2223 
Q 2331 2444 2207 2553 
Q 2084 2663 1863 2663 
Q 1738 2663 1638 2619 
Q 1538 2575 1406 2462 
Q 1275 2350 1208 2231 
Q 1141 2113 1141 1978 
L 1141 781 
Q 1141 569 1152 478 
Q 1163 388 1194 327 
Q 1225 266 1289 227 
Q 1353 188 1488 153 
L 1488 0 
L 250 0 
L 250 153 
Q 388 191 447 225 
Q 506 259 539 312 
Q 572 366 587 466 
Q 603 566 603 781 
L 603 3397 
Q 603 3697 598 3815 
Q 594 3934 573 4017 
Q 553 4100 517 4147 
Q 481 4194 420 4222 
Q 359 4250 200 4278 
L 200 4441 
L 953 4472 
L 1141 4472 
L 1141 2497 
z
" transform="scale(0.015625)"/>
      <path id="Cambria-89" d="M 3106 2672 
L 2528 2694 
L 2500 2659 
Q 2597 2563 2653 2395 
Q 2709 2228 2709 2034 
Q 2709 1525 2395 1248 
Q 2081 972 1503 972 
Q 1244 972 1056 1038 
Q 819 856 819 681 
Q 819 566 864 506 
Q 909 447 1014 422 
Q 1119 397 1331 397 
L 2081 397 
Q 2413 397 2622 294 
Q 2831 191 2920 17 
Q 3009 -156 3009 -388 
Q 3009 -681 2840 -911 
Q 2672 -1141 2353 -1269 
Q 2034 -1397 1609 -1397 
Q 1294 -1397 1033 -1359 
Q 772 -1322 586 -1233 
Q 400 -1144 298 -998 
Q 197 -853 197 -634 
Q 197 -438 328 -277 
Q 459 -116 700 6 
Q 553 66 468 181 
Q 384 297 384 453 
Q 384 631 484 779 
Q 584 928 838 1119 
Q 613 1250 495 1475 
Q 378 1700 378 1988 
Q 378 2256 467 2454 
Q 556 2653 714 2783 
Q 872 2913 1087 2977 
Q 1303 3041 1553 3041 
Q 1778 3041 2000 2988 
L 3106 2988 
L 3106 2672 
z
M 938 2038 
Q 938 1647 1097 1434 
Q 1256 1222 1556 1222 
Q 1716 1222 1828 1283 
Q 1941 1344 2011 1450 
Q 2081 1556 2114 1695 
Q 2147 1834 2147 1988 
Q 2147 2263 2069 2447 
Q 1991 2631 1856 2717 
Q 1722 2803 1547 2803 
Q 1250 2803 1094 2606 
Q 938 2409 938 2038 
z
M 1016 -50 
Q 856 -169 776 -301 
Q 697 -434 697 -603 
Q 697 -884 920 -1017 
Q 1144 -1150 1603 -1150 
Q 1884 -1150 2086 -1075 
Q 2288 -1000 2394 -859 
Q 2500 -719 2500 -531 
Q 2500 -444 2478 -361 
Q 2456 -278 2395 -212 
Q 2334 -147 2221 -108 
Q 2109 -69 1928 -69 
L 1463 -69 
Q 1209 -69 1016 -50 
z
" transform="scale(0.015625)"/>
      <path id="Cambria-88" d="M 1909 2672 
L 1163 2672 
L 1163 781 
Q 1163 572 1183 465 
Q 1203 359 1242 304 
Q 1281 250 1345 217 
Q 1409 184 1550 153 
L 1550 0 
L 272 0 
L 272 153 
Q 409 191 468 225 
Q 528 259 561 312 
Q 594 366 609 466 
Q 625 566 625 781 
L 625 2672 
L 247 2672 
L 247 2831 
Q 366 2850 405 2861 
Q 444 2872 480 2894 
Q 516 2916 542 2956 
Q 569 2997 589 3076 
Q 609 3156 622 3300 
Q 650 3641 745 3853 
Q 841 4066 1023 4216 
Q 1206 4366 1414 4427 
Q 1622 4488 1903 4488 
Q 2150 4488 2322 4453 
L 2322 3888 
L 2013 3888 
Q 1953 4072 1873 4148 
Q 1794 4225 1650 4225 
Q 1547 4225 1476 4197 
Q 1406 4169 1347 4109 
Q 1288 4050 1245 3950 
Q 1203 3850 1183 3701 
Q 1163 3553 1163 3316 
L 1163 2988 
L 1909 2988 
L 1909 2672 
z
" transform="scale(0.015625)"/>
      <path id="Cambria-1e3" d="M 1156 2822 
L 1156 2091 
L 531 2091 
L 531 2822 
L 1156 2822 
z
M 1156 725 
L 1156 0 
L 531 0 
L 531 725 
L 1156 725 
z
" transform="scale(0.015625)"/>
     </defs>
     <use xlink:href="#Cambria-8" transform="translate(0 0.875)"/>
     <use xlink:href="#Cambria-9a" transform="translate(57.519531 0.875)"/>
     <use xlink:href="#Cambria-83" transform="translate(105.859375 0.875)"/>
     <use xlink:href="#Cambria-85" transform="translate(154.6875 0.875)"/>
     <use xlink:href="#Cambria-96" transform="translate(198.779297 0.875)"/>
     <use xlink:href="#Cambria-3" transform="translate(232.617188 0.875)"/>
     <use xlink:href="#Cambria-95" transform="translate(254.638672 0.875)"/>
     <use xlink:href="#Cambria-92" transform="translate(297.607422 0.875)"/>
     <use xlink:href="#Cambria-87" transform="translate(353.222656 0.875)"/>
     <use xlink:href="#Cambria-85" transform="translate(402.001953 0.875)"/>
     <use xlink:href="#Cambria-96" transform="translate(446.09375 0.875)"/>
     <use xlink:href="#Cambria-94" transform="translate(479.931641 0.875)"/>
     <use xlink:href="#Cambria-97" transform="translate(521.289062 0.875)"/>
     <use xlink:href="#Cambria-8f" transform="translate(576.513672 0.875)"/>
     <use xlink:href="#Cambria-3" transform="translate(659.716797 0.875)"/>
     <use xlink:href="#Cambria-96" transform="translate(681.738281 0.875)"/>
     <use xlink:href="#Cambria-8a" transform="translate(715.576172 0.875)"/>
     <use xlink:href="#Cambria-94" transform="translate(770.751953 0.875)"/>
     <use xlink:href="#Cambria-91" transform="translate(812.109375 0.875)"/>
     <use xlink:href="#Cambria-97" transform="translate(865.185547 0.875)"/>
     <use xlink:href="#Cambria-89" transform="translate(920.410156 0.875)"/>
     <use xlink:href="#Cambria-8a" transform="translate(969.824219 0.875)"/>
     <use xlink:href="#Cambria-3" transform="translate(1025 0.875)"/>
     <use xlink:href="#Cambria-85" transform="translate(1047.021484 0.875)"/>
     <use xlink:href="#Cambria-97" transform="translate(1091.113281 0.875)"/>
     <use xlink:href="#Cambria-96" transform="translate(1146.337891 0.875)"/>
     <use xlink:href="#Cambria-91" transform="translate(1180.175781 0.875)"/>
     <use xlink:href="#Cambria-88" transform="translate(1233.251953 0.875)"/>
     <use xlink:href="#Cambria-88" transform="translate(1263.525391 0.875)"/>
     <use xlink:href="#Cambria-3" transform="translate(1293.798828 0.875)"/>
     <use xlink:href="#Cmmi10-80" transform="translate(1315.820312 0.875)"/>
     <use xlink:href="#Cambria-1e3" transform="translate(1366.113281 0.875)"/>
     <use xlink:href="#Cambria-3" transform="translate(1392.480469 0.875)"/>
     <use xlink:href="#Cambria-95" transform="translate(1414.501953 0.875)"/>
     <use xlink:href="#Cambria-8a" transform="translate(1457.470703 0.875)"/>
     <use xlink:href="#Cambria-83" transform="translate(1512.646484 0.875)"/>
     <use xlink:href="#Cambria-92" transform="translate(1561.474609 0.875)"/>
     <use xlink:href="#Cambria-87" transform="translate(1617.089844 0.875)"/>
     <use xlink:href="#Cambria-3" transform="translate(1665.869141 0.875)"/>
     <use xlink:href="#Cambria-85" transform="translate(1687.890625 0.875)"/>
     <use xlink:href="#Cambria-91" transform="translate(1731.982422 0.875)"/>
     <use xlink:href="#Cambria-95" transform="translate(1785.058594 0.875)"/>
     <use xlink:href="#Cambria-96" transform="translate(1828.027344 0.875)"/>
     <use xlink:href="#Cambria-95" transform="translate(1861.865234 0.875)"/>
     <use xlink:href="#Cambria-3" transform="translate(1904.833984 0.875)"/>
     <use xlink:href="#Cambria-83" transform="translate(1926.855469 0.875)"/>
     <use xlink:href="#Cambria-96" transform="translate(1975.683594 0.875)"/>
     <use xlink:href="#Cambria-3" transform="translate(2009.521484 0.875)"/>
     <use xlink:href="#Cambria-95" transform="translate(2031.542969 0.875)"/>
     <use xlink:href="#Cambria-8f" transform="translate(2074.511719 0.875)"/>
     <use xlink:href="#Cambria-83" transform="translate(2157.714844 0.875)"/>
     <use xlink:href="#Cambria-8e" transform="translate(2206.542969 0.875)"/>
     <use xlink:href="#Cambria-8e" transform="translate(2233.691406 0.875)"/>
     <use xlink:href="#Cambria-3" transform="translate(2260.839844 0.875)"/>
     <use xlink:href="#Cmmi10-80" transform="translate(2282.861328 0.875)"/>
    </g>
   </g>
   <g id="legend_1">
    <g id="line2d_50">
     <path d="M 52.896875 36.095557 
L 61.896875 36.095557 
L 70.896875 36.095557 
" style="fill: none; stroke: #2a78d6; stroke-width: 1.8; stroke-linecap: square"/>
     <g>
      <use xlink:href="#m488d82a9f3" x="61.896875" y="36.095557" style="fill: #2a78d6; stroke: #2a78d6"/>
     </g>
    </g>
    <g id="text_21">
     <!-- unconstrained -->
     <g transform="translate(78.096875 39.245557) scale(0.09 -0.09)">
      <use xlink:href="#Cambria-97"/>
      <use xlink:href="#Cambria-90" transform="translate(55.21875 0)"/>
      <use xlink:href="#Cambria-85" transform="translate(111.03125 0)"/>
      <use xlink:href="#Cambria-91" transform="translate(155.125 0)"/>
      <use xlink:href="#Cambria-90" transform="translate(208.203125 0)"/>
      <use xlink:href="#Cambria-95" transform="translate(264.015625 0)"/>
      <use xlink:href="#Cambria-96" transform="translate(306.984375 0)"/>
      <use xlink:href="#Cambria-94" transform="translate(340.828125 0)"/>
      <use xlink:href="#Cambria-83" transform="translate(380.484375 0)"/>
      <use xlink:href="#Cambria-8b" transform="translate(429.3125 0)"/>
      <use xlink:href="#Cambria-90" transform="translate(457.09375 0)"/>
      <use xlink:href="#Cambria-87" transform="translate(512.90625 0)"/>
      <use xlink:href="#Cambria-86" transform="translate(561.6875 0)"/>
     </g>
    </g>
    <g id="line2d_51">
     <path d="M 52.896875 49.595557 
L 61.896875 49.595557 
L 70.896875 49.595557 
" style="fill: none; stroke: #eb6834; stroke-width: 1.8; stroke-linecap: square"/>
     <g>
      <use xlink:href="#mc9a2dffafe" x="61.896875" y="49.595557" style="fill: #eb6834; stroke: #eb6834; stroke-linejoin: miter"/>
     </g>
    </g>
    <g id="text_22">
     <!-- power of 2 -->
     <g transform="translate(78.096875 52.745557) scale(0.09 -0.09)">
      <defs>
       <path id="Cambria-99" d="M 2494 2334 
L 1675 -16 
L 1241 -16 
L 491 2303 
Q 419 2528 370 2620 
Q 322 2713 267 2758 
Q 213 2803 91 2834 
L 91 2988 
L 1325 2988 
L 1325 2834 
Q 1144 2797 1080 2736 
Q 1016 2675 1016 2553 
Q 1016 2469 1034 2376 
Q 1053 2284 1091 2163 
L 1581 569 
L 2384 2988 
L 2825 2988 
L 3506 569 
L 4056 2097 
Q 4100 2216 4128 2323 
Q 4156 2431 4156 2525 
Q 4156 2656 4086 2728 
Q 4016 2800 3847 2834 
L 3847 2988 
L 4938 2988 
L 4938 2834 
Q 4850 2813 4806 2789 
Q 4763 2766 4720 2720 
Q 4678 2675 4626 2579 
Q 4575 2484 4497 2284 
L 3594 -16 
L 3172 -16 
L 2494 2334 
z
" transform="scale(0.015625)"/>
      </defs>
      <use xlink:href="#Cambria-92"/>
      <use xlink:href="#Cambria-91" transform="translate(55.609375 0)"/>
      <use xlink:href="#Cambria-99" transform="translate(108.203125 0)"/>
      <use xlink:href="#Cambria-87" transform="translate(184.375 0)"/>
      <use xlink:href="#Cambria-94" transform="translate(233.15625 0)"/>
      <use xlink:href="#Cambria-3" transform="translate(274.515625 0)"/>
      <use xlink:href="#Cambria-91" transform="translate(296.53125 0)"/>
      <use xlink:href="#Cambria-88" transform="translate(349.609375 0)"/>
      <use xlink:href="#Cambria-3" transform="translate(379.890625 0)"/>
      <use xlink:href="#Cambria-374" transform="translate(401.90625 0)"/>
     </g>
    </g>
    <g id="line2d_52">
     <path d="M 151.640938 36.095557 
L 160.640938 36.095557 
L 169.640938 36.095557 
" style="fill: none; stroke: #4a3aa7; stroke-width: 1.8; stroke-linecap: square"/>
     <g>
      <use xlink:href="#m99f11ab947" x="160.640938" y="36.095557" style="fill: #4a3aa7; stroke: #4a3aa7; stroke-linejoin: miter"/>
     </g>
    </g>
    <g id="text_23">
     <!-- power of 3 -->
     <g transform="translate(176.840937 39.245557) scale(0.09 -0.09)">
      <use xlink:href="#Cambria-92"/>
      <use xlink:href="#Cambria-91" transform="translate(55.609375 0)"/>
      <use xlink:href="#Cambria-99" transform="translate(108.203125 0)"/>
      <use xlink:href="#Cambria-87" transform="translate(184.375 0)"/>
      <use xlink:href="#Cambria-94" transform="translate(233.15625 0)"/>
      <use xlink:href="#Cambria-3" transform="translate(274.515625 0)"/>
      <use xlink:href="#Cambria-91" transform="translate(296.53125 0)"/>
      <use xlink:href="#Cambria-88" transform="translate(349.609375 0)"/>
      <use xlink:href="#Cambria-3" transform="translate(379.890625 0)"/>
      <use xlink:href="#Cambria-375" transform="translate(401.90625 0)"/>
     </g>
    </g>
    <g id="line2d_53">
     <path d="M 151.640938 49.595557 
L 160.640938 49.595557 
L 169.640938 49.595557 
" style="fill: none; stroke: #1baf7a; stroke-width: 1.8; stroke-linecap: square"/>
     <g>
      <use xlink:href="#m34b07d6649" x="160.640938" y="49.595557" style="fill: #1baf7a; stroke: #1baf7a; stroke-linejoin: miter"/>
     </g>
    </g>
    <g id="text_24">
     <!-- 5-smooth -->
     <g transform="translate(176.840937 52.745557) scale(0.09 -0.09)">
      <defs>
       <path id="Cambria-1e6" d="M 1788 1403 
L 338 1403 
L 338 1888 
L 1788 1888 
L 1788 1403 
z
" transform="scale(0.015625)"/>
      </defs>
      <use xlink:href="#Cambria-377"/>
      <use xlink:href="#Cambria-1e6" transform="translate(55.375 0)"/>
      <use xlink:href="#Cambria-95" transform="translate(88.578125 0)"/>
      <use xlink:href="#Cambria-8f" transform="translate(131.546875 0)"/>
      <use xlink:href="#Cambria-91" transform="translate(214.75 0)"/>
      <use xlink:href="#Cambria-91" transform="translate(267.828125 0)"/>
      <use xlink:href="#Cambria-96" transform="translate(320.90625 0)"/>
      <use xlink:href="#Cambria-8a" transform="translate(354.75 0)"/>
     </g>
    </g>
   </g>
  </g>
 </g>
 <defs>
  <clipPath id="p52d1e65d89">
   <rect x="44.796875" y="24.145068" width="416.916016" height="188.320947"/>
  </clipPath>
 </defs>
</svg>
