<?xml version="1.0" encoding="utf-8" standalone="no"?>
<!DOCTYPE svg PUBLIC "-//W3C//DTD SVG 1.1//EN"
  "http://www.w3.org/Graphics/SVG/1.1/DTD/svg11.dtd">
<svg xmlns:xlink="http://www.w3.org/1999/xlink" width="498.416172pt" height="303.632395pt" viewBox="0 0 498.416172 303.632395" xmlns="http://www.w3.org/2000/svg" version="1.1">
 <metadata>
  <rdf:RDF xmlns:dc="http://purl.org/dc/elements/1.1/" xmlns:cc="http://creativecommons.org/ns#" xmlns:rdf="http://www.w3.org/1999/02/22-rdf-syntax-ns#">
   <cc:Work>
    <dc:type rdf:resource="http://purl.org/dc/dcmitype/StillImage"/>
    <dc:date>2026-07-23T00:56:03.007879</dc:date>
    <dc:format>image/svg+xml</dc:format>
    <dc:creator>
     <cc:Agent>
      <dc:title>Matplotlib v3.11.1, https://matplotlib.org/</dc:title>
     </cc:Agent>
    </dc:creator>
   </cc:Work>
  </rdf:RDF>
 </metadata>
 <defs>
  <style type="text/css">*{stroke-linejoin: round; stroke-linecap: butt}</style>
 </defs>
 <g id="figure_1">
  <g id="patch_1">
   <path d="M 0 303.632395 
L 498.416172 303.632395 
L 498.416172 -0 
L 0 -0 
z
" style="fill: #fcfcfb"/>
  </g>
  <g id="axes_1">
   <g id="patch_2">
    <path d="M 159.995859 259.55392 
L 491.216172 259.55392 
L 491.216172 30.630176 
L 159.995859 30.630176 
z
" style="fill: #fcfcfb"/>
   </g>
   <g id="patch_3">
    <path d="M 159.995859 30.630176 
L 236.176531 30.630176 
L 236.176531 51.69116 
L 159.995859 51.69116 
z
" clip-path="url(#p0e4d32215a)" style="fill: #e34948; stroke: #e1e0d9; stroke-width: 0.8; stroke-linejoin: miter"/>
   </g>
   <g id="patch_4">
    <path d="M 242.800938 30.630176 
L 318.981609 30.630176 
L 318.981609 51.69116 
L 242.800938 51.69116 
z
" clip-path="url(#p0e4d32215a)" style="fill: #2a78d6; stroke: #e1e0d9; stroke-width: 0.8; stroke-linejoin: miter"/>
   </g>
   <g id="patch_5">
    <path d="M 325.606016 30.630176 
L 401.786688 30.630176 
L 401.786688 51.69116 
L 325.606016 51.69116 
z
" clip-path="url(#p0e4d32215a)" style="fill: #fcfcfb; stroke: #e1e0d9; stroke-width: 0.8; stroke-linejoin: miter"/>
   </g>
   <g id="patch_6">
    <path d="M 408.411094 30.630176 
L 484.591766 30.630176 
L 484.591766 51.69116 
L 408.411094 51.69116 
z
" clip-path="url(#p0e4d32215a)" style="fill: #fcfcfb; stroke: #e1e0d9; stroke-width: 0.8; stroke-linejoin: miter"/>
   </g>
   <g id="patch_7">
    <path d="M 159.995859 53.52255 
L 236.176531 53.52255 
L 236.176531 74.583535 
L 159.995859 74.583535 
z
" clip-path="url(#p0e4d32215a)" style="fill: #e34948; stroke: #e1e0d9; stroke-width: 0.8; stroke-linejoin: miter"/>
   </g>
   <g id="patch_8">
    <path d="M 242.800938 53.52255 
L 318.981609 53.52255 
L 318.981609 74.583535 
L 242.800938 74.583535 
z
" clip-path="url(#p0e4d32215a)" style="fill: #fcfcfb; stroke: #e1e0d9; stroke-width: 0.8; stroke-linejoin: miter"/>
   </g>
   <g id="patch_9">
    <path d="M 325.606016 53.52255 
L 401.786688 53.52255 
L 401.786688 74.583535 
L 325.606016 74.583535 
z
" clip-path="url(#p0e4d32215a)" style="fill: #fcfcfb; stroke: #e1e0d9; stroke-width: 0.8; stroke-linejoin: miter"/>
   </g>
   <g id="patch_10">
    <path d="M 408.411094 53.52255 
L 484.591766 53.52255 
L 484.591766 74.583535 
L 408.411094 74.583535 
z
" clip-path="url(#p0e4d32215a)" style="fill: #fcfcfb; stroke: #e1e0d9; stroke-width: 0.8; stroke-linejoin: miter"/>
   </g>
   <g id="patch_11">
    <path d="M 159.995859 76.414925 
L 236.176531 76.414925 
L 236.176531 97.475909 
L 159.995859 97.475909 
z
" clip-path="url(#p0e4d32215a)" style="fill: #e34948; stroke: #e1e0d9; stroke-width: 0.8; stroke-linejoin: miter"/>
   </g>
   <g id="patch_12">
    <path d="M 242.800938 76.414925 
L 318.981609 76.414925 
L 318.981609 97.475909 
L 242.800938 97.475909 
z
" clip-path="url(#p0e4d32215a)" style="fill: #2a78d6; stroke: #e1e0d9; stroke-width: 0.8; stroke-linejoin: miter"/>
   </g>
   <g id="patch_13">
    <path d="M 325.606016 76.414925 
L 401.786688 76.414925 
L 401.786688 97.475909 
L 325.606016 97.475909 
z
" clip-path="url(#p0e4d32215a)" style="fill: #fcfcfb; stroke: #e1e0d9; stroke-width: 0.8; stroke-linejoin: miter"/>
   </g>
   <g id="patch_14">
    <path d="M 408.411094 76.414925 
L 484.591766 76.414925 
L 484.591766 97.475909 
L 408.411094 97.475909 
z
" clip-path="url(#p0e4d32215a)" style="fill: #fcfcfb; stroke: #e1e0d9; stroke-width: 0.8; stroke-linejoin: miter"/>
   </g>
   <g id="patch_15">
    <path d="M 159.995859 99.307299 
L 236.176531 99.307299 
L 236.176531 120.368284 
L 159.995859 120.368284 
z
" clip-path="url(#p0e4d32215a)" style="fill: #e34948; stroke: #e1e0d9; stroke-width: 0.8; stroke-linejoin: miter"/>
   </g>
   <g id="patch_16">
    <path d="M 242.800938 99.307299 
L 318.981609 99.307299 
L 318.981609 120.368284 
L 242.800938 120.368284 
z
" clip-path="url(#p0e4d32215a)" style="fill: #fcfcfb; stroke: #e1e0d9; stroke-width: 0.8; stroke-linejoin: miter"/>
   </g>
   <g id="patch_17">
    <path d="M 325.606016 99.307299 
L 401.786688 99.307299 
L 401.786688 120.368284 
L 325.606016 120.368284 
z
" clip-path="url(#p0e4d32215a)" style="fill: #fcfcfb; stroke: #e1e0d9; stroke-width: 0.8; stroke-linejoin: miter"/>
   </g>
   <g id="patch_18">
    <path d="M 408.411094 99.307299 
L 484.591766 99.307299 
L 484.591766 120.368284 
L 408.411094 120.368284 
z
" clip-path="url(#p0e4d32215a)" style="fill: #fcfcfb; stroke: #e1e0d9; stroke-width: 0.8; stroke-linejoin: miter"/>
   </g>
   <g id="patch_19">
    <path d="M 159.995859 122.199673 
L 236.176531 122.199673 
L 236.176531 143.260658 
L 159.995859 143.260658 
z
" clip-path="url(#p0e4d32215a)" style="fill: #e34948; stroke: #e1e0d9; stroke-width: 0.8; stroke-linejoin: miter"/>
   </g>
   <g id="patch_20">
    <path d="M 242.800938 122.199673 
L 318.981609 122.199673 
L 318.981609 143.260658 
L 242.800938 143.260658 
z
" clip-path="url(#p0e4d32215a)" style="fill: #fcfcfb; stroke: #e1e0d9; stroke-width: 0.8; stroke-linejoin: miter"/>
   </g>
   <g id="patch_21">
    <path d="M 325.606016 122.199673 
L 401.786688 122.199673 
L 401.786688 143.260658 
L 325.606016 143.260658 
z
" clip-path="url(#p0e4d32215a)" style="fill: #fcfcfb; stroke: #e1e0d9; stroke-width: 0.8; stroke-linejoin: miter"/>
   </g>
   <g id="patch_22">
    <path d="M 408.411094 122.199673 
L 484.591766 122.199673 
L 484.591766 143.260658 
L 408.411094 143.260658 
z
" clip-path="url(#p0e4d32215a)" style="fill: #fcfcfb; stroke: #e1e0d9; stroke-width: 0.8; stroke-linejoin: miter"/>
   </g>
   <g id="patch_23">
    <path d="M 159.995859 145.092048 
L 236.176531 145.092048 
L 236.176531 166.153032 
L 159.995859 166.153032 
z
" clip-path="url(#p0e4d32215a)" style="fill: #e34948; stroke: #e1e0d9; stroke-width: 0.8; stroke-linejoin: miter"/>
   </g>
   <g id="patch_24">
    <path d="M 242.800938 145.092048 
L 318.981609 145.092048 
L 318.981609 166.153032 
L 242.800938 166.153032 
z
" clip-path="url(#p0e4d32215a)" style="fill: #fcfcfb; stroke: #e1e0d9; stroke-width: 0.8; stroke-linejoin: miter"/>
   </g>
   <g id="patch_25">
    <path d="M 325.606016 145.092048 
L 401.786688 145.092048 
L 401.786688 166.153032 
L 325.606016 166.153032 
z
" clip-path="url(#p0e4d32215a)" style="fill: #fcfcfb; stroke: #e1e0d9; stroke-width: 0.8; stroke-linejoin: miter"/>
   </g>
   <g id="patch_26">
    <path d="M 408.411094 145.092048 
L 484.591766 145.092048 
L 484.591766 166.153032 
L 408.411094 166.153032 
z
" clip-path="url(#p0e4d32215a)" style="fill: #fcfcfb; stroke: #e1e0d9; stroke-width: 0.8; stroke-linejoin: miter"/>
   </g>
   <g id="patch_27">
    <path d="M 159.995859 167.984422 
L 236.176531 167.984422 
L 236.176531 189.045407 
L 159.995859 189.045407 
z
" clip-path="url(#p0e4d32215a)" style="fill: #fcfcfb; stroke: #e1e0d9; stroke-width: 0.8; stroke-linejoin: miter"/>
   </g>
   <g id="patch_28">
    <path d="M 242.800938 167.984422 
L 318.981609 167.984422 
L 318.981609 189.045407 
L 242.800938 189.045407 
z
" clip-path="url(#p0e4d32215a)" style="fill: #2a78d6; stroke: #e1e0d9; stroke-width: 0.8; stroke-linejoin: miter"/>
   </g>
   <g id="patch_29">
    <path d="M 325.606016 167.984422 
L 401.786688 167.984422 
L 401.786688 189.045407 
L 325.606016 189.045407 
z
" clip-path="url(#p0e4d32215a)" style="fill: #eda100; stroke: #e1e0d9; stroke-width: 0.8; stroke-linejoin: miter"/>
   </g>
   <g id="patch_30">
    <path d="M 408.411094 167.984422 
L 484.591766 167.984422 
L 484.591766 189.045407 
L 408.411094 189.045407 
z
" clip-path="url(#p0e4d32215a)" style="fill: #fcfcfb; stroke: #e1e0d9; stroke-width: 0.8; stroke-linejoin: miter"/>
   </g>
   <g id="patch_31">
    <path d="M 159.995859 190.876797 
L 236.176531 190.876797 
L 236.176531 211.937781 
L 159.995859 211.937781 
z
" clip-path="url(#p0e4d32215a)" style="fill: #fcfcfb; stroke: #e1e0d9; stroke-width: 0.8; stroke-linejoin: miter"/>
   </g>
   <g id="patch_32">
    <path d="M 242.800938 190.876797 
L 318.981609 190.876797 
L 318.981609 211.937781 
L 242.800938 211.937781 
z
" clip-path="url(#p0e4d32215a)" style="fill: #fcfcfb; stroke: #e1e0d9; stroke-width: 0.8; stroke-linejoin: miter"/>
   </g>
   <g id="patch_33">
    <path d="M 325.606016 190.876797 
L 401.786688 190.876797 
L 401.786688 211.937781 
L 325.606016 211.937781 
z
" clip-path="url(#p0e4d32215a)" style="fill: #eda100; stroke: #e1e0d9; stroke-width: 0.8; stroke-linejoin: miter"/>
   </g>
   <g id="patch_34">
    <path d="M 408.411094 190.876797 
L 484.591766 190.876797 
L 484.591766 211.937781 
L 408.411094 211.937781 
z
" clip-path="url(#p0e4d32215a)" style="fill: #fcfcfb; stroke: #e1e0d9; stroke-width: 0.8; stroke-linejoin: miter"/>
   </g>
   <g id="patch_35">
    <path d="M 159.995859 213.769171 
L 236.176531 213.769171 
L 236.176531 234.830156 
L 159.995859 234.830156 
z
" clip-path="url(#p0e4d32215a)" style="fill: #e34948; stroke: #e1e0d9; stroke-width: 0.8; stroke-linejoin: miter"/>
   </g>
   <g id="patch_36">
    <path d="M 242.800938 213.769171 
L 318.981609 213.769171 
L 318.981609 234.830156 
L 242.800938 234.830156 
z
" clip-path="url(#p0e4d32215a)" style="fill: #fcfcfb; stroke: #e1e0d9; stroke-width: 0.8; stroke-linejoin: miter"/>
   </g>
   <g id="patch_37">
    <path d="M 325.606016 213.769171 
L 401.786688 213.769171 
L 401.786688 234.830156 
L 325.606016 234.830156 
z
" clip-path="url(#p0e4d32215a)" style="fill: #fcfcfb; stroke: #e1e0d9; stroke-width: 0.8; stroke-linejoin: miter"/>
   </g>
   <g id="patch_38">
    <path d="M 408.411094 213.769171 
L 484.591766 213.769171 
L 484.591766 234.830156 
L 408.411094 234.830156 
z
" clip-path="url(#p0e4d32215a)" style="fill: #fcfcfb; stroke: #e1e0d9; stroke-width: 0.8; stroke-linejoin: miter"/>
   </g>
   <g id="patch_39">
    <path d="M 159.995859 236.661546 
L 236.176531 236.661546 
L 236.176531 257.72253 
L 159.995859 257.72253 
z
" clip-path="url(#p0e4d32215a)" style="fill: #e34948; stroke: #e1e0d9; stroke-width: 0.8; stroke-linejoin: miter"/>
   </g>
   <g id="patch_40">
    <path d="M 242.800938 236.661546 
L 318.981609 236.661546 
L 318.981609 257.72253 
L 242.800938 257.72253 
z
" clip-path="url(#p0e4d32215a)" style="fill: #fcfcfb; stroke: #e1e0d9; stroke-width: 0.8; stroke-linejoin: miter"/>
   </g>
   <g id="patch_41">
    <path d="M 325.606016 236.661546 
L 401.786688 236.661546 
L 401.786688 257.72253 
L 325.606016 257.72253 
z
" clip-path="url(#p0e4d32215a)" style="fill: #fcfcfb; stroke: #e1e0d9; stroke-width: 0.8; stroke-linejoin: miter"/>
   </g>
   <g id="patch_42">
    <path d="M 408.411094 236.661546 
L 484.591766 236.661546 
L 484.591766 257.72253 
L 408.411094 257.72253 
z
" clip-path="url(#p0e4d32215a)" style="fill: #4a3aa7; stroke: #e1e0d9; stroke-width: 0.8; stroke-linejoin: miter"/>
   </g>
   <g id="matplotlib.axis_1">
    <g id="xtick_1">
     <g id="line2d_1"/>
     <g id="text_1">
      <!-- Excluded -->
      <g style="fill: #52514e" transform="translate(181.517836 25.241748) scale(0.085 -0.085)">
       <defs>
        <path id="Cambria-8" d="M 3300 4266 
L 3300 3322 
L 2994 3322 
Q 2947 3475 2897 3590 
Q 2847 3706 2794 3784 
Q 2741 3863 2677 3909 
Q 2613 3956 2525 3973 
Q 2438 3991 2316 3991 
L 1328 3991 
L 1328 2353 
L 1997 2353 
Q 2134 2353 2212 2392 
Q 2291 2431 2342 2525 
Q 2394 2619 2441 2819 
L 2734 2819 
L 2734 1619 
L 2441 1619 
Q 2397 1806 2344 1901 
Q 2291 1997 2217 2037 
Q 2144 2078 1997 2078 
L 1328 2078 
L 1328 275 
L 2300 275 
Q 2453 275 2548 301 
Q 2644 328 2712 392 
Q 2781 456 2834 559 
Q 2888 663 2923 773 
Q 2959 884 3022 1097 
L 3331 1097 
L 3272 0 
L 378 0 
L 378 153 
Q 572 203 637 264 
Q 703 325 723 437 
Q 744 550 744 781 
L 744 3484 
Q 744 3700 728 3798 
Q 713 3897 677 3951 
Q 641 4006 581 4039 
Q 522 4072 378 4113 
L 378 4266 
L 3300 4266 
z
" transform="scale(0.015625)"/>
        <path id="Cambria-9a" d="M 1625 1803 
L 2031 2319 
Q 2097 2403 2137 2483 
Q 2178 2563 2178 2647 
Q 2178 2719 2125 2766 
Q 2072 2813 1959 2834 
L 1959 2988 
L 2981 2988 
L 2981 2834 
Q 2863 2800 2739 2700 
Q 2616 2600 2438 2378 
L 1791 1584 
L 2503 625 
Q 2656 419 2778 309 
Q 2900 200 3022 153 
L 3022 0 
L 1766 0 
L 1766 153 
Q 2025 184 2025 347 
Q 2025 413 2003 472 
Q 1981 531 1922 609 
L 1469 1241 
L 988 616 
Q 934 547 904 489 
Q 875 431 875 359 
Q 875 275 933 220 
Q 991 166 1116 153 
L 1116 0 
L 72 0 
L 72 153 
Q 175 191 258 247 
Q 341 303 427 392 
Q 513 481 653 653 
L 1303 1459 
L 638 2372 
Q 500 2559 419 2643 
Q 338 2728 269 2772 
Q 200 2816 131 2834 
L 131 2988 
L 1356 2988 
L 1356 2834 
Q 1109 2797 1109 2641 
Q 1109 2569 1142 2497 
Q 1175 2425 1244 2338 
L 1625 1803 
z
" transform="scale(0.015625)"/>
        <path id="Cambria-85" d="M 2631 2916 
L 2631 2263 
L 2234 2263 
Q 2181 2466 2103 2583 
Q 2025 2700 1922 2747 
Q 1819 2794 1666 2794 
Q 1447 2794 1278 2653 
Q 1109 2513 1011 2225 
Q 913 1938 913 1522 
Q 913 1256 950 1036 
Q 988 816 1078 659 
Q 1169 503 1319 415 
Q 1469 328 1691 328 
Q 1906 328 2092 412 
Q 2278 497 2478 709 
L 2656 503 
Q 2497 328 2375 233 
Q 2253 138 2114 73 
Q 1975 9 1839 -20 
Q 1703 -50 1544 -50 
Q 953 -50 640 342 
Q 328 734 328 1475 
Q 328 1938 503 2295 
Q 678 2653 993 2847 
Q 1309 3041 1722 3041 
Q 1978 3041 2195 3011 
Q 2413 2981 2631 2916 
z
" transform="scale(0.015625)"/>
        <path id="Cambria-8e" d="M 1138 781 
Q 1138 513 1163 408 
Q 1188 303 1258 248 
Q 1328 194 1488 153 
L 1488 0 
L 247 0 
L 247 153 
Q 403 194 464 237 
Q 525 281 551 342 
Q 578 403 589 508 
Q 600 613 600 781 
L 600 3397 
Q 600 3697 595 3815 
Q 591 3934 570 4017 
Q 550 4100 514 4147 
Q 478 4194 417 4222 
Q 356 4250 197 4278 
L 197 4441 
L 950 4472 
L 1138 4472 
L 1138 781 
z
" transform="scale(0.015625)"/>
        <path id="Cambria-97" d="M 228 2988 
L 1119 2988 
L 1119 1397 
Q 1119 1031 1147 840 
Q 1175 650 1231 553 
Q 1288 456 1391 390 
Q 1494 325 1675 325 
Q 1794 325 1903 372 
Q 2013 419 2147 536 
Q 2281 653 2339 768 
Q 2397 884 2397 1038 
L 2397 2209 
Q 2397 2388 2387 2478 
Q 2378 2569 2356 2623 
Q 2334 2678 2304 2712 
Q 2275 2747 2220 2775 
Q 2166 2803 2044 2834 
L 2044 2988 
L 2934 2988 
L 2934 853 
Q 2934 613 2943 506 
Q 2953 400 2984 337 
Q 3016 275 3081 236 
Q 3147 197 3316 163 
L 3316 0 
L 2600 -31 
L 2409 -31 
L 2428 481 
L 2381 494 
Q 2122 213 1886 81 
Q 1650 -50 1413 -50 
Q 1128 -50 943 62 
Q 759 175 668 398 
Q 578 622 578 1028 
L 578 2209 
Q 578 2472 558 2570 
Q 538 2669 480 2726 
Q 422 2784 228 2834 
L 228 2988 
z
" transform="scale(0.015625)"/>
        <path id="Cambria-86" d="M 2413 3397 
Q 2413 3697 2408 3815 
Q 2403 3934 2383 4017 
Q 2363 4100 2327 4147 
Q 2291 4194 2230 4222 
Q 2169 4250 2009 4278 
L 2009 4441 
L 2766 4472 
L 2950 4472 
L 2950 853 
Q 2950 609 2959 504 
Q 2969 400 3000 337 
Q 3031 275 3098 236 
Q 3166 197 3334 163 
L 3334 0 
L 2597 -31 
L 2409 -31 
L 2447 481 
L 2400 494 
Q 2203 284 2058 179 
Q 1913 75 1748 12 
Q 1584 -50 1397 -50 
Q 884 -50 606 339 
Q 328 728 328 1463 
Q 328 1975 509 2333 
Q 691 2691 998 2866 
Q 1306 3041 1691 3041 
Q 1897 3041 2065 3008 
Q 2234 2975 2413 2900 
L 2413 3397 
z
M 2413 1853 
Q 2413 2097 2391 2244 
Q 2369 2391 2317 2491 
Q 2266 2591 2178 2659 
Q 2091 2728 1986 2759 
Q 1881 2791 1734 2791 
Q 1334 2791 1125 2470 
Q 916 2150 916 1550 
Q 916 950 1087 637 
Q 1259 325 1609 325 
Q 1747 325 1837 348 
Q 1928 372 2015 423 
Q 2103 475 2193 565 
Q 2284 656 2326 731 
Q 2369 806 2391 903 
Q 2413 1000 2413 1153 
L 2413 1853 
z
" transform="scale(0.015625)"/>
        <path id="Cambria-87" d="M 2800 531 
Q 2600 322 2433 203 
Q 2266 84 2066 17 
Q 1866 -50 1625 -50 
Q 981 -50 653 336 
Q 325 722 325 1475 
Q 325 1941 492 2297 
Q 659 2653 968 2847 
Q 1278 3041 1681 3041 
Q 1997 3041 2219 2941 
Q 2441 2841 2573 2667 
Q 2706 2494 2779 2230 
Q 2853 1966 2863 1541 
L 894 1541 
L 894 1484 
Q 894 1116 976 864 
Q 1059 613 1248 470 
Q 1438 328 1741 328 
Q 1997 328 2201 423 
Q 2406 519 2609 734 
L 2800 531 
z
M 2275 1800 
Q 2256 2138 2190 2352 
Q 2125 2566 1994 2680 
Q 1863 2794 1650 2794 
Q 1328 2794 1136 2536 
Q 944 2278 909 1800 
L 2275 1800 
z
" transform="scale(0.015625)"/>
       </defs>
       <use xlink:href="#Cambria-8"/>
       <use xlink:href="#Cambria-9a" transform="translate(57.515625 0)"/>
       <use xlink:href="#Cambria-85" transform="translate(103.65625 0)"/>
       <use xlink:href="#Cambria-8e" transform="translate(147.75 0)"/>
       <use xlink:href="#Cambria-97" transform="translate(174.90625 0)"/>
       <use xlink:href="#Cambria-86" transform="translate(230.125 0)"/>
       <use xlink:href="#Cambria-87" transform="translate(285.59375 0)"/>
       <use xlink:href="#Cambria-86" transform="translate(334.375 0)"/>
      </g>
     </g>
    </g>
    <g id="xtick_2">
     <g id="line2d_2"/>
     <g id="text_2">
      <!-- Known -->
      <g style="fill: #52514e" transform="translate(267.946039 14.544116) scale(0.085 -0.085)">
       <defs>
        <path id="Cambria-e" d="M 1325 2338 
L 1419 2338 
Q 1538 2338 1636 2375 
Q 1734 2413 1856 2516 
Q 1978 2619 2228 2900 
Q 2528 3234 2638 3384 
Q 2775 3563 2822 3684 
Q 2859 3775 2859 3859 
Q 2859 3984 2787 4042 
Q 2716 4100 2591 4113 
L 2591 4266 
L 3953 4266 
L 3953 4113 
Q 3853 4091 3756 4036 
Q 3659 3981 3557 3886 
Q 3456 3791 3259 3572 
L 2209 2391 
L 3347 738 
Q 3528 475 3631 370 
Q 3734 266 3828 217 
Q 3922 169 4028 153 
L 4028 0 
L 2650 0 
L 2650 153 
Q 2766 163 2819 197 
Q 2872 231 2872 300 
Q 2872 356 2836 436 
Q 2800 516 2722 628 
L 1994 1713 
Q 1866 1906 1806 1968 
Q 1747 2031 1678 2061 
Q 1609 2091 1494 2091 
L 1328 2091 
L 1328 781 
Q 1328 572 1342 475 
Q 1356 378 1389 322 
Q 1422 266 1486 228 
Q 1550 191 1694 153 
L 1694 0 
L 378 0 
L 378 153 
Q 572 203 637 264 
Q 703 325 723 437 
Q 744 550 744 781 
L 744 3484 
Q 744 3700 728 3798 
Q 713 3897 677 3951 
Q 641 4006 581 4039 
Q 522 4072 378 4113 
L 378 4266 
L 1694 4266 
L 1694 4113 
Q 1556 4078 1495 4043 
Q 1434 4009 1398 3957 
Q 1363 3906 1345 3803 
Q 1328 3700 1328 3484 
L 1325 2338 
z
" transform="scale(0.015625)"/>
        <path id="Cambria-90" d="M 3347 0 
L 2116 0 
L 2116 153 
Q 2238 191 2291 219 
Q 2344 247 2380 297 
Q 2416 347 2436 451 
Q 2456 556 2456 769 
L 2456 1588 
Q 2456 1806 2443 1984 
Q 2431 2163 2401 2277 
Q 2372 2391 2330 2455 
Q 2288 2519 2230 2564 
Q 2172 2609 2097 2636 
Q 2022 2663 1900 2663 
Q 1778 2663 1668 2614 
Q 1559 2566 1428 2447 
Q 1297 2328 1237 2212 
Q 1178 2097 1178 1947 
L 1178 781 
Q 1178 513 1203 408 
Q 1228 303 1298 248 
Q 1369 194 1528 153 
L 1528 0 
L 303 0 
L 303 153 
Q 425 191 476 219 
Q 528 247 564 297 
Q 600 347 620 450 
Q 641 553 641 772 
L 641 2134 
Q 641 2334 634 2456 
Q 628 2578 590 2651 
Q 553 2725 476 2761 
Q 400 2797 259 2822 
L 259 2988 
L 991 3016 
L 1181 3016 
L 1147 2506 
L 1191 2494 
Q 1422 2728 1564 2828 
Q 1706 2928 1851 2983 
Q 1997 3038 2159 3038 
Q 2328 3038 2461 2998 
Q 2594 2959 2695 2878 
Q 2797 2797 2862 2676 
Q 2928 2556 2961 2387 
Q 2994 2219 2994 1959 
L 2994 781 
Q 2994 566 3006 469 
Q 3019 372 3050 319 
Q 3081 266 3140 230 
Q 3200 194 3347 153 
L 3347 0 
z
" transform="scale(0.015625)"/>
        <path id="Cambria-91" d="M 1663 -50 
Q 1013 -50 670 333 
Q 328 716 328 1466 
Q 328 1981 508 2337 
Q 688 2694 1000 2867 
Q 1313 3041 1713 3041 
Q 2381 3041 2725 2652 
Q 3069 2263 3069 1534 
Q 3069 1016 2897 659 
Q 2725 303 2409 126 
Q 2094 -50 1663 -50 
z
M 919 1531 
Q 919 888 1123 542 
Q 1328 197 1709 197 
Q 1919 197 2066 298 
Q 2213 400 2305 572 
Q 2397 744 2437 970 
Q 2478 1197 2478 1444 
Q 2478 1903 2376 2206 
Q 2275 2509 2100 2651 
Q 1925 2794 1700 2794 
Q 1322 2794 1120 2466 
Q 919 2138 919 1531 
z
" transform="scale(0.015625)"/>
        <path id="Cambria-99" d="M 2494 2334 
L 1675 -16 
L 1241 -16 
L 491 2303 
Q 419 2528 370 2620 
Q 322 2713 267 2758 
Q 213 2803 91 2834 
L 91 2988 
L 1325 2988 
L 1325 2834 
Q 1144 2797 1080 2736 
Q 1016 2675 1016 2553 
Q 1016 2469 1034 2376 
Q 1053 2284 1091 2163 
L 1581 569 
L 2384 2988 
L 2825 2988 
L 3506 569 
L 4056 2097 
Q 4100 2216 4128 2323 
Q 4156 2431 4156 2525 
Q 4156 2656 4086 2728 
Q 4016 2800 3847 2834 
L 3847 2988 
L 4938 2988 
L 4938 2834 
Q 4850 2813 4806 2789 
Q 4763 2766 4720 2720 
Q 4678 2675 4626 2579 
Q 4575 2484 4497 2284 
L 3594 -16 
L 3172 -16 
L 2494 2334 
z
" transform="scale(0.015625)"/>
       </defs>
       <use xlink:href="#Cambria-e"/>
       <use xlink:href="#Cambria-90" transform="translate(62.9375 0)"/>
       <use xlink:href="#Cambria-91" transform="translate(118.75 0)"/>
       <use xlink:href="#Cambria-99" transform="translate(171.34375 0)"/>
       <use xlink:href="#Cambria-90" transform="translate(248.78125 0)"/>
      </g>
      <!-- mechanism -->
      <g style="fill: #52514e" transform="translate(260.072914 24.509204) scale(0.085 -0.085)">
       <defs>
        <path id="Cambria-8f" d="M 1147 2506 
L 1191 2494 
Q 1378 2681 1498 2776 
Q 1619 2872 1731 2930 
Q 1844 2988 1942 3013 
Q 2041 3038 2144 3038 
Q 2456 3038 2653 2894 
Q 2850 2750 2925 2453 
Q 3159 2691 3304 2803 
Q 3450 2916 3601 2977 
Q 3753 3038 3928 3038 
Q 4138 3038 4289 2977 
Q 4441 2916 4545 2789 
Q 4650 2663 4698 2472 
Q 4747 2281 4747 1959 
L 4747 781 
Q 4747 544 4762 453 
Q 4778 363 4808 313 
Q 4838 263 4897 227 
Q 4956 191 5097 153 
L 5097 0 
L 3869 0 
L 3869 153 
Q 3991 191 4044 219 
Q 4097 247 4133 297 
Q 4169 347 4189 451 
Q 4209 556 4209 769 
L 4209 1588 
Q 4209 1853 4195 2026 
Q 4181 2200 4151 2303 
Q 4122 2406 4080 2465 
Q 4038 2525 3984 2569 
Q 3931 2613 3859 2638 
Q 3788 2663 3669 2663 
Q 3544 2663 3436 2613 
Q 3328 2563 3201 2444 
Q 3075 2325 3019 2204 
Q 2963 2084 2963 1922 
L 2963 781 
Q 2963 544 2978 453 
Q 2994 363 3023 313 
Q 3053 263 3112 227 
Q 3172 191 3313 153 
L 3313 0 
L 2084 0 
L 2084 153 
Q 2206 191 2259 219 
Q 2313 247 2348 297 
Q 2384 347 2404 451 
Q 2425 556 2425 769 
L 2425 1588 
Q 2425 1866 2409 2041 
Q 2394 2216 2361 2322 
Q 2328 2428 2276 2493 
Q 2225 2559 2172 2593 
Q 2119 2628 2047 2645 
Q 1975 2663 1884 2663 
Q 1756 2663 1643 2605 
Q 1531 2547 1414 2437 
Q 1297 2328 1237 2209 
Q 1178 2091 1178 1953 
L 1178 781 
Q 1178 603 1187 509 
Q 1197 416 1217 362 
Q 1238 309 1269 276 
Q 1300 244 1358 214 
Q 1416 184 1531 153 
L 1531 0 
L 306 0 
L 306 153 
Q 425 191 476 219 
Q 528 247 565 297 
Q 603 347 622 450 
Q 641 553 641 772 
L 641 2134 
Q 641 2334 634 2456 
Q 628 2578 590 2651 
Q 553 2725 476 2761 
Q 400 2797 259 2822 
L 259 2988 
L 991 3016 
L 1181 3016 
L 1147 2506 
z
" transform="scale(0.015625)"/>
        <path id="Cambria-8a" d="M 1141 2497 
L 1153 2494 
Q 1397 2741 1539 2839 
Q 1681 2938 1820 2988 
Q 1959 3038 2119 3038 
Q 2291 3038 2425 2997 
Q 2559 2956 2661 2873 
Q 2763 2791 2827 2670 
Q 2891 2550 2922 2383 
Q 2953 2216 2953 1959 
L 2953 781 
Q 2953 509 2976 411 
Q 3000 313 3061 258 
Q 3122 203 3306 153 
L 3306 0 
L 2075 0 
L 2075 153 
Q 2197 191 2250 219 
Q 2303 247 2339 297 
Q 2375 347 2395 451 
Q 2416 556 2416 769 
L 2416 1588 
Q 2416 2003 2373 2223 
Q 2331 2444 2207 2553 
Q 2084 2663 1863 2663 
Q 1738 2663 1638 2619 
Q 1538 2575 1406 2462 
Q 1275 2350 1208 2231 
Q 1141 2113 1141 1978 
L 1141 781 
Q 1141 569 1152 478 
Q 1163 388 1194 327 
Q 1225 266 1289 227 
Q 1353 188 1488 153 
L 1488 0 
L 250 0 
L 250 153 
Q 388 191 447 225 
Q 506 259 539 312 
Q 572 366 587 466 
Q 603 566 603 781 
L 603 3397 
Q 603 3697 598 3815 
Q 594 3934 573 4017 
Q 553 4100 517 4147 
Q 481 4194 420 4222 
Q 359 4250 200 4278 
L 200 4441 
L 953 4472 
L 1141 4472 
L 1141 2497 
z
" transform="scale(0.015625)"/>
        <path id="Cambria-83" d="M 2109 447 
L 2063 459 
Q 1791 181 1552 65 
Q 1313 -50 1044 -50 
Q 806 -50 625 42 
Q 444 134 347 301 
Q 250 469 250 688 
Q 250 1144 701 1392 
Q 1153 1641 2056 1681 
L 2056 1884 
Q 2056 2209 1993 2396 
Q 1931 2584 1797 2671 
Q 1663 2759 1438 2759 
Q 1194 2759 1045 2631 
Q 897 2503 822 2247 
L 413 2247 
L 413 2653 
Q 713 2809 913 2882 
Q 1113 2956 1313 2998 
Q 1513 3041 1719 3041 
Q 2028 3041 2215 2942 
Q 2403 2844 2497 2641 
Q 2591 2438 2591 2028 
L 2591 941 
Q 2591 709 2594 614 
Q 2597 519 2612 437 
Q 2628 356 2659 307 
Q 2691 259 2752 225 
Q 2813 191 2950 153 
L 2950 0 
L 2094 0 
L 2109 447 
z
M 2056 1425 
Q 1422 1419 1106 1256 
Q 791 1094 791 766 
Q 791 588 862 484 
Q 934 381 1043 342 
Q 1153 303 1303 303 
Q 1516 303 1689 406 
Q 1863 509 1959 668 
Q 2056 828 2056 984 
L 2056 1425 
z
" transform="scale(0.015625)"/>
        <path id="Cambria-8b" d="M 1197 4213 
L 1197 3606 
L 622 3606 
L 622 4213 
L 1197 4213 
z
M 303 153 
Q 425 191 476 219 
Q 528 247 564 297 
Q 600 347 620 450 
Q 641 553 641 772 
L 641 2134 
Q 641 2334 634 2456 
Q 628 2578 590 2651 
Q 553 2725 476 2761 
Q 400 2797 259 2822 
L 259 2988 
L 988 3016 
L 1178 3016 
L 1178 781 
Q 1178 513 1203 408 
Q 1228 303 1298 248 
Q 1369 194 1528 153 
L 1528 0 
L 303 0 
L 303 153 
z
" transform="scale(0.015625)"/>
        <path id="Cambria-95" d="M 2397 2303 
L 2097 2303 
Q 2028 2491 1934 2598 
Q 1841 2706 1722 2750 
Q 1603 2794 1431 2794 
Q 1181 2794 1032 2676 
Q 884 2559 884 2356 
Q 884 2213 943 2119 
Q 1003 2025 1128 1944 
Q 1253 1863 1569 1728 
Q 1888 1591 2061 1475 
Q 2234 1359 2332 1206 
Q 2431 1053 2431 841 
Q 2431 594 2347 425 
Q 2263 256 2109 150 
Q 1956 44 1745 -3 
Q 1534 -50 1284 -50 
Q 1022 -50 775 -11 
Q 528 28 294 91 
L 294 744 
L 600 744 
Q 684 456 850 326 
Q 1016 197 1306 197 
Q 1419 197 1526 220 
Q 1634 244 1718 298 
Q 1803 353 1853 447 
Q 1903 541 1903 681 
Q 1903 841 1840 941 
Q 1778 1041 1647 1123 
Q 1516 1206 1184 1347 
Q 900 1466 728 1578 
Q 556 1691 457 1844 
Q 359 1997 359 2206 
Q 359 2463 498 2652 
Q 638 2841 900 2941 
Q 1163 3041 1516 3041 
Q 1722 3041 1914 3020 
Q 2106 3000 2397 2941 
L 2397 2303 
z
" transform="scale(0.015625)"/>
       </defs>
       <use xlink:href="#Cambria-8f"/>
       <use xlink:href="#Cambria-87" transform="translate(83.203125 0)"/>
       <use xlink:href="#Cambria-85" transform="translate(131.984375 0)"/>
       <use xlink:href="#Cambria-8a" transform="translate(176.078125 0)"/>
       <use xlink:href="#Cambria-83" transform="translate(231.25 0)"/>
       <use xlink:href="#Cambria-90" transform="translate(280.078125 0)"/>
       <use xlink:href="#Cambria-8b" transform="translate(335.890625 0)"/>
       <use xlink:href="#Cambria-95" transform="translate(363.671875 0)"/>
       <use xlink:href="#Cambria-8f" transform="translate(406.640625 0)"/>
      </g>
     </g>
    </g>
    <g id="xtick_3">
     <g id="line2d_3"/>
     <g id="text_3">
      <!-- Conditional / -->
      <g style="fill: #52514e" transform="translate(339.644008 14.544116) scale(0.085 -0.085)">
       <defs>
        <path id="Cambria-6" d="M 3256 4175 
L 3256 3309 
L 2947 3309 
Q 2872 3581 2756 3742 
Q 2641 3903 2487 3972 
Q 2334 4041 2119 4041 
Q 1797 4041 1545 3827 
Q 1294 3613 1150 3183 
Q 1006 2753 1006 2144 
Q 1006 1531 1125 1098 
Q 1244 666 1475 445 
Q 1706 225 2044 225 
Q 2300 225 2462 298 
Q 2625 372 2736 531 
Q 2847 691 2947 1000 
L 3256 1000 
L 3256 106 
Q 2963 28 2655 -11 
Q 2347 -50 1978 -50 
Q 1184 -50 778 487 
Q 372 1025 372 2091 
Q 372 2759 583 3262 
Q 794 3766 1203 4041 
Q 1613 4316 2181 4316 
Q 2466 4316 2706 4286 
Q 2947 4256 3256 4175 
z
" transform="scale(0.015625)"/>
        <path id="Cambria-96" d="M 116 2831 
Q 272 2856 369 2918 
Q 466 2981 520 3079 
Q 575 3178 606 3326 
Q 638 3475 672 3759 
L 1116 3759 
L 1116 2988 
L 2125 2988 
L 2125 2672 
L 1116 2672 
L 1116 1281 
Q 1116 978 1141 798 
Q 1166 619 1234 517 
Q 1303 416 1390 372 
Q 1478 328 1616 328 
Q 1741 328 1850 379 
Q 1959 431 2066 528 
L 2206 359 
Q 1984 144 1786 47 
Q 1588 -50 1375 -50 
Q 972 -50 775 189 
Q 578 428 578 938 
L 578 2672 
L 116 2672 
L 116 2831 
z
" transform="scale(0.015625)"/>
        <path id="Cambria-3" transform="scale(0.015625)"/>
        <path id="Cambria-200" d="M 2941 4472 
L 684 -1344 
L 194 -1344 
L 2456 4472 
L 2941 4472 
z
" transform="scale(0.015625)"/>
       </defs>
       <use xlink:href="#Cambria-6"/>
       <use xlink:href="#Cambria-91" transform="translate(56.25 0)"/>
       <use xlink:href="#Cambria-90" transform="translate(109.328125 0)"/>
       <use xlink:href="#Cambria-86" transform="translate(165.140625 0)"/>
       <use xlink:href="#Cambria-8b" transform="translate(220.609375 0)"/>
       <use xlink:href="#Cambria-96" transform="translate(248.390625 0)"/>
       <use xlink:href="#Cambria-8b" transform="translate(282.234375 0)"/>
       <use xlink:href="#Cambria-91" transform="translate(310.015625 0)"/>
       <use xlink:href="#Cambria-90" transform="translate(363.09375 0)"/>
       <use xlink:href="#Cambria-83" transform="translate(418.90625 0)"/>
       <use xlink:href="#Cambria-8e" transform="translate(467.734375 0)"/>
       <use xlink:href="#Cambria-3" transform="translate(494.890625 0)"/>
       <use xlink:href="#Cambria-200" transform="translate(516.90625 0)"/>
      </g>
      <!-- neutral -->
      <g style="fill: #52514e" transform="translate(350.551234 24.509204) scale(0.085 -0.085)">
       <defs>
        <path id="Cambria-94" d="M 1147 2469 
L 1191 2459 
Q 1363 2669 1509 2789 
Q 1656 2909 1826 2975 
Q 1997 3041 2213 3041 
Q 2394 3041 2541 3022 
L 2541 2303 
L 2188 2303 
Q 2113 2472 2028 2548 
Q 1944 2625 1797 2625 
Q 1684 2625 1573 2559 
Q 1463 2494 1359 2369 
Q 1256 2244 1217 2134 
Q 1178 2025 1178 1875 
L 1178 781 
Q 1178 497 1212 389 
Q 1247 281 1326 231 
Q 1406 181 1566 153 
L 1566 0 
L 306 0 
L 306 153 
Q 425 191 476 219 
Q 528 247 565 297 
Q 603 347 622 450 
Q 641 553 641 772 
L 641 2134 
Q 641 2334 634 2456 
Q 628 2578 590 2651 
Q 553 2725 476 2761 
Q 400 2797 259 2822 
L 259 2984 
L 991 3016 
L 1181 3016 
L 1147 2469 
z
" transform="scale(0.015625)"/>
       </defs>
       <use xlink:href="#Cambria-90"/>
       <use xlink:href="#Cambria-87" transform="translate(55.8125 0)"/>
       <use xlink:href="#Cambria-97" transform="translate(104.59375 0)"/>
       <use xlink:href="#Cambria-96" transform="translate(159.8125 0)"/>
       <use xlink:href="#Cambria-94" transform="translate(193.65625 0)"/>
       <use xlink:href="#Cambria-83" transform="translate(233.3125 0)"/>
       <use xlink:href="#Cambria-8e" transform="translate(282.140625 0)"/>
      </g>
     </g>
    </g>
    <g id="xtick_4">
     <g id="line2d_4"/>
     <g id="text_4">
      <!-- Open -->
      <g style="fill: #52514e" transform="translate(436.916352 14.544116) scale(0.085 -0.085)">
       <defs>
        <path id="Cambria-12" d="M 2044 -50 
Q 1669 -50 1361 73 
Q 1053 197 833 458 
Q 613 719 492 1125 
Q 372 1531 372 2097 
Q 372 2794 584 3294 
Q 797 3794 1192 4055 
Q 1588 4316 2109 4316 
Q 2666 4316 3045 4070 
Q 3425 3825 3617 3348 
Q 3809 2872 3809 2188 
Q 3809 1456 3590 953 
Q 3372 450 2973 200 
Q 2575 -50 2044 -50 
z
M 1016 2184 
Q 1016 1225 1295 725 
Q 1575 225 2113 225 
Q 2453 225 2690 442 
Q 2928 659 3047 1078 
Q 3166 1497 3166 2056 
Q 3166 2738 3027 3186 
Q 2888 3634 2647 3837 
Q 2406 4041 2088 4041 
Q 1806 4041 1604 3909 
Q 1403 3778 1270 3536 
Q 1138 3294 1077 2950 
Q 1016 2606 1016 2184 
z
" transform="scale(0.015625)"/>
        <path id="Cambria-92" d="M 1150 94 
L 1150 -566 
Q 1150 -769 1164 -869 
Q 1178 -969 1214 -1026 
Q 1250 -1084 1317 -1121 
Q 1384 -1159 1534 -1191 
L 1534 -1344 
L 259 -1344 
L 259 -1191 
Q 372 -1159 442 -1126 
Q 513 -1094 550 -1030 
Q 588 -966 600 -856 
Q 613 -747 613 -566 
L 613 2116 
Q 613 2341 606 2436 
Q 600 2531 581 2593 
Q 563 2656 527 2697 
Q 491 2738 430 2766 
Q 369 2794 228 2822 
L 228 2988 
L 963 3016 
L 1153 3016 
L 1113 2506 
L 1159 2494 
Q 1353 2691 1465 2780 
Q 1578 2869 1698 2928 
Q 1819 2988 1930 3013 
Q 2041 3038 2166 3038 
Q 2681 3038 2957 2652 
Q 3234 2266 3234 1522 
Q 3234 1006 3078 654 
Q 2922 303 2623 126 
Q 2325 -50 1913 -50 
Q 1681 -50 1493 -11 
Q 1306 28 1150 94 
z
M 1150 1125 
Q 1150 825 1187 662 
Q 1225 500 1320 398 
Q 1416 297 1545 247 
Q 1675 197 1888 197 
Q 2266 197 2456 511 
Q 2647 825 2647 1438 
Q 2647 2663 1931 2663 
Q 1756 2663 1629 2608 
Q 1503 2553 1378 2431 
Q 1253 2309 1201 2195 
Q 1150 2081 1150 1950 
L 1150 1125 
z
" transform="scale(0.015625)"/>
       </defs>
       <use xlink:href="#Cambria-12"/>
       <use xlink:href="#Cambria-92" transform="translate(65.328125 0)"/>
       <use xlink:href="#Cambria-87" transform="translate(120.9375 0)"/>
       <use xlink:href="#Cambria-90" transform="translate(169.71875 0)"/>
      </g>
      <!-- (Q004) -->
      <g style="fill: #52514e" transform="translate(433.418734 24.509204) scale(0.085 -0.085)">
       <defs>
        <path id="Cambria-20b" d="M 2309 -1359 
Q 1778 -1359 1442 -1200 
Q 1106 -1041 918 -714 
Q 731 -388 647 134 
Q 563 656 563 1550 
Q 563 2438 645 2964 
Q 728 3491 915 3822 
Q 1103 4153 1440 4318 
Q 1778 4484 2309 4484 
L 2309 4228 
Q 2091 4228 1922 4191 
Q 1731 4147 1597 4022 
Q 1447 3884 1353 3638 
Q 1244 3350 1191 2875 
Q 1134 2372 1134 1575 
Q 1134 872 1181 379 
Q 1228 -113 1338 -425 
Q 1425 -688 1556 -834 
Q 1672 -963 1831 -1028 
Q 2016 -1103 2309 -1103 
L 2309 -1359 
z
" transform="scale(0.015625)"/>
        <path id="Cambria-14" d="M 2600 28 
L 2709 -131 
Q 2794 -253 2869 -351 
Q 2944 -450 3030 -539 
Q 3116 -628 3192 -683 
Q 3269 -738 3337 -761 
Q 3406 -784 3469 -784 
Q 3641 -784 3766 -720 
Q 3891 -656 4006 -544 
L 4156 -738 
Q 3913 -981 3703 -1087 
Q 3494 -1194 3272 -1194 
Q 3094 -1194 2978 -1159 
Q 2863 -1125 2748 -1047 
Q 2634 -969 2493 -809 
Q 2353 -650 2169 -375 
L 1947 -47 
Q 1169 -9 770 537 
Q 372 1084 372 2097 
Q 372 2794 584 3294 
Q 797 3794 1192 4055 
Q 1588 4316 2109 4316 
Q 2666 4316 3045 4070 
Q 3425 3825 3617 3348 
Q 3809 2872 3809 2188 
Q 3809 1319 3500 764 
Q 3191 209 2600 28 
z
M 1016 2184 
Q 1016 1225 1295 725 
Q 1575 225 2113 225 
Q 2453 225 2690 442 
Q 2928 659 3047 1078 
Q 3166 1497 3166 2056 
Q 3166 2738 3027 3186 
Q 2888 3634 2647 3837 
Q 2406 4041 2088 4041 
Q 1806 4041 1604 3909 
Q 1403 3778 1270 3536 
Q 1138 3294 1077 2950 
Q 1016 2606 1016 2184 
z
" transform="scale(0.015625)"/>
        <path id="Cambria-372" d="M 1738 -50 
Q 1063 -50 733 481 
Q 403 1013 403 2094 
Q 403 2669 504 3087 
Q 606 3506 789 3779 
Q 972 4053 1228 4184 
Q 1484 4316 1788 4316 
Q 2472 4316 2806 3787 
Q 3141 3259 3141 2191 
Q 3141 1084 2783 517 
Q 2425 -50 1738 -50 
z
M 1013 2188 
Q 1013 1169 1202 692 
Q 1391 216 1788 216 
Q 2166 216 2348 664 
Q 2531 1113 2531 2053 
Q 2531 2772 2437 3217 
Q 2344 3663 2176 3856 
Q 2009 4050 1772 4050 
Q 1556 4050 1411 3922 
Q 1266 3794 1177 3553 
Q 1088 3313 1050 2967 
Q 1013 2622 1013 2188 
z
" transform="scale(0.015625)"/>
        <path id="Cambria-376" d="M 1613 153 
Q 1806 203 1872 264 
Q 1938 325 1958 437 
Q 1978 550 1978 781 
L 1978 1294 
L 241 1294 
L 241 1528 
L 2069 4288 
L 2516 4288 
L 2516 1597 
L 2581 1597 
Q 2763 1597 2841 1623 
Q 2919 1650 2970 1717 
Q 3022 1784 3066 1938 
L 3303 1938 
L 3266 1294 
L 2516 1294 
L 2516 781 
Q 2516 572 2530 475 
Q 2544 378 2576 322 
Q 2609 266 2673 228 
Q 2738 191 2881 153 
L 2881 0 
L 1613 0 
L 1613 153 
z
M 756 1597 
L 1978 1597 
L 1978 2375 
Q 1978 2669 1987 3033 
Q 1997 3397 2009 3581 
L 1978 3581 
L 756 1641 
L 756 1597 
z
" transform="scale(0.015625)"/>
        <path id="Cambria-20c" d="M 134 4484 
Q 666 4484 1002 4325 
Q 1338 4166 1525 3839 
Q 1713 3513 1797 2991 
Q 1881 2469 1881 1575 
Q 1881 688 1798 161 
Q 1716 -366 1528 -697 
Q 1341 -1028 1003 -1193 
Q 666 -1359 134 -1359 
L 134 -1103 
Q 353 -1103 522 -1066 
Q 713 -1022 847 -897 
Q 997 -759 1091 -513 
Q 1200 -225 1253 250 
Q 1309 753 1309 1550 
Q 1309 2253 1262 2745 
Q 1216 3238 1106 3550 
Q 1019 3813 888 3959 
Q 772 4088 613 4153 
Q 428 4228 134 4228 
L 134 4484 
z
" transform="scale(0.015625)"/>
       </defs>
       <use xlink:href="#Cambria-20b"/>
       <use xlink:href="#Cambria-14" transform="translate(38.1875 0)"/>
       <use xlink:href="#Cambria-372" transform="translate(103.515625 0)"/>
       <use xlink:href="#Cambria-372" transform="translate(158.890625 0)"/>
       <use xlink:href="#Cambria-376" transform="translate(214.265625 0)"/>
       <use xlink:href="#Cambria-20c" transform="translate(269.640625 0)"/>
      </g>
     </g>
    </g>
   </g>
   <g id="matplotlib.axis_2">
    <g id="ytick_1">
     <g id="line2d_5"/>
     <g id="text_5">
      <!-- Local formal groups -->
      <g style="fill: #52514e" transform="translate(84.269766 44.466454) scale(0.085 -0.085)">
       <defs>
        <path id="Cambria-f" d="M 1328 288 
L 2147 288 
Q 2281 288 2372 303 
Q 2463 319 2527 351 
Q 2591 384 2642 442 
Q 2694 500 2741 594 
Q 2788 688 2830 830 
Q 2872 972 2934 1256 
L 3250 1256 
L 3188 0 
L 378 0 
L 378 153 
Q 572 203 637 264 
Q 703 325 723 437 
Q 744 550 744 781 
L 744 3484 
Q 744 3700 728 3798 
Q 713 3897 677 3951 
Q 641 4006 581 4039 
Q 522 4072 378 4113 
L 378 4266 
L 1694 4266 
L 1694 4113 
Q 1556 4075 1498 4045 
Q 1441 4016 1403 3966 
Q 1366 3916 1347 3812 
Q 1328 3709 1328 3484 
L 1328 288 
z
" transform="scale(0.015625)"/>
        <path id="Cambria-88" d="M 1909 2672 
L 1163 2672 
L 1163 781 
Q 1163 572 1183 465 
Q 1203 359 1242 304 
Q 1281 250 1345 217 
Q 1409 184 1550 153 
L 1550 0 
L 272 0 
L 272 153 
Q 409 191 468 225 
Q 528 259 561 312 
Q 594 366 609 466 
Q 625 566 625 781 
L 625 2672 
L 247 2672 
L 247 2831 
Q 366 2850 405 2861 
Q 444 2872 480 2894 
Q 516 2916 542 2956 
Q 569 2997 589 3076 
Q 609 3156 622 3300 
Q 650 3641 745 3853 
Q 841 4066 1023 4216 
Q 1206 4366 1414 4427 
Q 1622 4488 1903 4488 
Q 2150 4488 2322 4453 
L 2322 3888 
L 2013 3888 
Q 1953 4072 1873 4148 
Q 1794 4225 1650 4225 
Q 1547 4225 1476 4197 
Q 1406 4169 1347 4109 
Q 1288 4050 1245 3950 
Q 1203 3850 1183 3701 
Q 1163 3553 1163 3316 
L 1163 2988 
L 1909 2988 
L 1909 2672 
z
" transform="scale(0.015625)"/>
        <path id="Cambria-89" d="M 3106 2672 
L 2528 2694 
L 2500 2659 
Q 2597 2563 2653 2395 
Q 2709 2228 2709 2034 
Q 2709 1525 2395 1248 
Q 2081 972 1503 972 
Q 1244 972 1056 1038 
Q 819 856 819 681 
Q 819 566 864 506 
Q 909 447 1014 422 
Q 1119 397 1331 397 
L 2081 397 
Q 2413 397 2622 294 
Q 2831 191 2920 17 
Q 3009 -156 3009 -388 
Q 3009 -681 2840 -911 
Q 2672 -1141 2353 -1269 
Q 2034 -1397 1609 -1397 
Q 1294 -1397 1033 -1359 
Q 772 -1322 586 -1233 
Q 400 -1144 298 -998 
Q 197 -853 197 -634 
Q 197 -438 328 -277 
Q 459 -116 700 6 
Q 553 66 468 181 
Q 384 297 384 453 
Q 384 631 484 779 
Q 584 928 838 1119 
Q 613 1250 495 1475 
Q 378 1700 378 1988 
Q 378 2256 467 2454 
Q 556 2653 714 2783 
Q 872 2913 1087 2977 
Q 1303 3041 1553 3041 
Q 1778 3041 2000 2988 
L 3106 2988 
L 3106 2672 
z
M 938 2038 
Q 938 1647 1097 1434 
Q 1256 1222 1556 1222 
Q 1716 1222 1828 1283 
Q 1941 1344 2011 1450 
Q 2081 1556 2114 1695 
Q 2147 1834 2147 1988 
Q 2147 2263 2069 2447 
Q 1991 2631 1856 2717 
Q 1722 2803 1547 2803 
Q 1250 2803 1094 2606 
Q 938 2409 938 2038 
z
M 1016 -50 
Q 856 -169 776 -301 
Q 697 -434 697 -603 
Q 697 -884 920 -1017 
Q 1144 -1150 1603 -1150 
Q 1884 -1150 2086 -1075 
Q 2288 -1000 2394 -859 
Q 2500 -719 2500 -531 
Q 2500 -444 2478 -361 
Q 2456 -278 2395 -212 
Q 2334 -147 2221 -108 
Q 2109 -69 1928 -69 
L 1463 -69 
Q 1209 -69 1016 -50 
z
" transform="scale(0.015625)"/>
       </defs>
       <use xlink:href="#Cambria-f"/>
       <use xlink:href="#Cambria-91" transform="translate(53.65625 0)"/>
       <use xlink:href="#Cambria-85" transform="translate(106.734375 0)"/>
       <use xlink:href="#Cambria-83" transform="translate(150.828125 0)"/>
       <use xlink:href="#Cambria-8e" transform="translate(199.65625 0)"/>
       <use xlink:href="#Cambria-3" transform="translate(226.8125 0)"/>
       <use xlink:href="#Cambria-88" transform="translate(248.828125 0)"/>
       <use xlink:href="#Cambria-91" transform="translate(277.890625 0)"/>
       <use xlink:href="#Cambria-94" transform="translate(330.96875 0)"/>
       <use xlink:href="#Cambria-8f" transform="translate(372.328125 0)"/>
       <use xlink:href="#Cambria-83" transform="translate(455.53125 0)"/>
       <use xlink:href="#Cambria-8e" transform="translate(504.359375 0)"/>
       <use xlink:href="#Cambria-3" transform="translate(531.515625 0)"/>
       <use xlink:href="#Cambria-89" transform="translate(553.53125 0)"/>
       <use xlink:href="#Cambria-94" transform="translate(602.953125 0)"/>
       <use xlink:href="#Cambria-91" transform="translate(642.84375 0)"/>
       <use xlink:href="#Cambria-97" transform="translate(695.921875 0)"/>
       <use xlink:href="#Cambria-92" transform="translate(751.140625 0)"/>
       <use xlink:href="#Cambria-95" transform="translate(806.75 0)"/>
      </g>
     </g>
    </g>
    <g id="ytick_2">
     <g id="line2d_6"/>
     <g id="text_6">
      <!-- Drinfeld-module targets -->
      <g style="fill: #52514e" transform="translate(69.110547 67.358829) scale(0.085 -0.085)">
       <defs>
        <path id="Cambria-7" d="M 375 0 
L 375 153 
Q 519 191 581 225 
Q 644 259 678 312 
Q 713 366 728 466 
Q 744 566 744 781 
L 744 3484 
Q 744 3703 728 3801 
Q 713 3900 677 3953 
Q 641 4006 581 4039 
Q 522 4072 375 4113 
L 375 4266 
L 1744 4266 
Q 2334 4266 2711 4136 
Q 3088 4006 3347 3753 
Q 3606 3500 3734 3123 
Q 3863 2747 3863 2225 
Q 3863 1697 3742 1295 
Q 3622 894 3391 622 
Q 3191 384 2900 231 
Q 2659 106 2343 53 
Q 2028 0 1506 0 
L 375 0 
z
M 1328 291 
Q 1453 278 1697 278 
Q 1959 278 2165 322 
Q 2372 366 2540 459 
Q 2709 553 2843 720 
Q 2978 888 3062 1105 
Q 3147 1322 3186 1587 
Q 3225 1853 3225 2169 
Q 3225 2803 3042 3211 
Q 2859 3619 2526 3806 
Q 2194 3994 1731 3994 
Q 1519 3994 1328 3981 
L 1328 291 
z
" transform="scale(0.015625)"/>
        <path id="Cambria-1e6" d="M 1788 1403 
L 338 1403 
L 338 1888 
L 1788 1888 
L 1788 1403 
z
" transform="scale(0.015625)"/>
       </defs>
       <use xlink:href="#Cambria-7"/>
       <use xlink:href="#Cambria-94" transform="translate(66.15625 0)"/>
       <use xlink:href="#Cambria-8b" transform="translate(107.515625 0)"/>
       <use xlink:href="#Cambria-90" transform="translate(135.296875 0)"/>
       <use xlink:href="#Cambria-88" transform="translate(191.109375 0)"/>
       <use xlink:href="#Cambria-87" transform="translate(220.171875 0)"/>
       <use xlink:href="#Cambria-8e" transform="translate(268.953125 0)"/>
       <use xlink:href="#Cambria-86" transform="translate(296.109375 0)"/>
       <use xlink:href="#Cambria-1e6" transform="translate(351.578125 0)"/>
       <use xlink:href="#Cambria-8f" transform="translate(384.78125 0)"/>
       <use xlink:href="#Cambria-91" transform="translate(467.984375 0)"/>
       <use xlink:href="#Cambria-86" transform="translate(521.0625 0)"/>
       <use xlink:href="#Cambria-97" transform="translate(576.53125 0)"/>
       <use xlink:href="#Cambria-8e" transform="translate(631.75 0)"/>
       <use xlink:href="#Cambria-87" transform="translate(658.90625 0)"/>
       <use xlink:href="#Cambria-3" transform="translate(707.6875 0)"/>
       <use xlink:href="#Cambria-96" transform="translate(729.703125 0)"/>
       <use xlink:href="#Cambria-83" transform="translate(763.546875 0)"/>
       <use xlink:href="#Cambria-94" transform="translate(812.375 0)"/>
       <use xlink:href="#Cambria-89" transform="translate(853.046875 0)"/>
       <use xlink:href="#Cambria-87" transform="translate(902.46875 0)"/>
       <use xlink:href="#Cambria-96" transform="translate(951.25 0)"/>
       <use xlink:href="#Cambria-95" transform="translate(985.09375 0)"/>
      </g>
     </g>
    </g>
    <g id="ytick_3">
     <g id="line2d_7"/>
     <g id="text_7">
      <!-- Tori (global maps / $E[r]$ pairing) -->
      <g style="fill: #52514e" transform="translate(39.110859 90.251203) scale(0.085 -0.085)">
       <defs>
        <path id="Cambria-17" d="M 206 4266 
L 3588 4266 
L 3588 3178 
L 3281 3178 
Q 3213 3447 3145 3603 
Q 3078 3759 3003 3840 
Q 2928 3922 2842 3956 
Q 2756 3991 2584 3991 
L 2188 3991 
L 2188 791 
Q 2188 606 2208 497 
Q 2228 388 2270 323 
Q 2313 259 2384 223 
Q 2456 188 2609 153 
L 2609 0 
L 1181 0 
L 1181 153 
Q 1275 175 1347 200 
Q 1419 225 1464 261 
Q 1509 297 1539 353 
Q 1569 409 1586 506 
Q 1603 603 1603 791 
L 1603 3991 
L 1209 3991 
Q 1063 3991 967 3962 
Q 872 3934 790 3845 
Q 709 3756 642 3592 
Q 575 3428 516 3178 
L 206 3178 
L 206 4266 
z
" transform="scale(0.015625)"/>
        <path id="Cambria-84" d="M 1091 2497 
L 1103 2494 
Q 1322 2722 1467 2825 
Q 1613 2928 1767 2983 
Q 1922 3038 2106 3038 
Q 2441 3038 2680 2867 
Q 2919 2697 3048 2356 
Q 3178 2016 3178 1522 
Q 3178 1013 3023 661 
Q 2869 309 2567 129 
Q 2266 -50 1853 -50 
Q 1622 -50 1417 -8 
Q 1213 34 988 141 
L 769 -50 
L 553 0 
L 553 3397 
Q 553 3697 548 3815 
Q 544 3934 523 4017 
Q 503 4100 467 4147 
Q 431 4194 370 4222 
Q 309 4250 150 4278 
L 150 4441 
L 906 4472 
L 1091 4472 
L 1091 2497 
z
M 1091 1125 
Q 1091 884 1112 742 
Q 1134 600 1186 506 
Q 1238 413 1336 334 
Q 1434 256 1556 226 
Q 1678 197 1828 197 
Q 2203 197 2397 503 
Q 2591 809 2591 1422 
Q 2591 2041 2414 2352 
Q 2238 2663 1881 2663 
Q 1703 2663 1578 2608 
Q 1453 2553 1329 2437 
Q 1206 2322 1148 2209 
Q 1091 2097 1091 1953 
L 1091 1125 
z
" transform="scale(0.015625)"/>
        <path id="Cmmi10-6f" d="M 300 0 
Q 238 0 238 84 
Q 241 100 250 139 
Q 259 178 276 201 
Q 294 225 319 225 
Q 709 225 863 269 
Q 947 297 984 441 
L 1863 3956 
Q 1875 4019 1875 4044 
Q 1875 4113 1797 4122 
Q 1678 4147 1338 4147 
Q 1275 4147 1275 4231 
Q 1278 4247 1287 4286 
Q 1297 4325 1314 4348 
Q 1331 4372 1356 4372 
L 4825 4372 
Q 4891 4372 4891 4288 
L 4738 2963 
Q 4738 2947 4714 2926 
Q 4691 2906 4672 2906 
L 4616 2906 
Q 4550 2906 4550 2988 
Q 4588 3300 4588 3450 
Q 4588 3706 4500 3848 
Q 4413 3991 4267 4053 
Q 4122 4116 3945 4131 
Q 3769 4147 3481 4147 
L 2753 4147 
Q 2578 4147 2522 4117 
Q 2466 4088 2419 3928 
L 2034 2381 
L 2534 2381 
Q 2859 2381 3025 2426 
Q 3191 2472 3287 2615 
Q 3384 2759 3463 3072 
Q 3469 3094 3486 3111 
Q 3503 3128 3525 3128 
L 3584 3128 
Q 3647 3128 3647 3047 
L 3250 1466 
Q 3238 1409 3188 1409 
L 3128 1409 
Q 3066 1409 3066 1491 
Q 3128 1747 3128 1869 
Q 3128 2056 2959 2106 
Q 2791 2156 2509 2156 
L 1978 2156 
L 1544 416 
Q 1516 338 1516 275 
Q 1516 225 1734 225 
L 2509 225 
Q 2972 225 3259 297 
Q 3547 369 3736 526 
Q 3925 684 4062 928 
Q 4200 1172 4397 1638 
Q 4409 1678 4453 1678 
L 4513 1678 
Q 4538 1678 4556 1656 
Q 4575 1634 4575 1606 
Q 4575 1594 4569 1581 
L 3909 38 
Q 3897 0 3859 0 
L 300 0 
z
" transform="scale(0.015625)"/>
        <path id="Cmr10-3e" d="M 756 -1600 
L 756 4800 
L 1631 4800 
L 1631 4544 
L 1013 4544 
L 1013 -1344 
L 1631 -1344 
L 1631 -1600 
L 756 -1600 
z
" transform="scale(0.015625)"/>
        <path id="Cmmi10-84" d="M 494 109 
Q 494 147 500 166 
L 978 2075 
Q 1025 2253 1025 2388 
Q 1025 2663 838 2663 
Q 638 2663 541 2423 
Q 444 2184 353 1819 
Q 353 1800 334 1789 
Q 316 1778 300 1778 
L 225 1778 
Q 203 1778 187 1801 
Q 172 1825 172 1844 
Q 241 2122 305 2315 
Q 369 2509 505 2668 
Q 641 2828 844 2828 
Q 1066 2828 1233 2700 
Q 1400 2572 1441 2363 
Q 1603 2575 1811 2701 
Q 2019 2828 2266 2828 
Q 2469 2828 2623 2709 
Q 2778 2591 2778 2388 
Q 2778 2225 2676 2104 
Q 2575 1984 2406 1984 
Q 2303 1984 2233 2048 
Q 2163 2113 2163 2216 
Q 2163 2356 2266 2467 
Q 2369 2578 2503 2578 
Q 2400 2663 2253 2663 
Q 1978 2663 1775 2467 
Q 1572 2272 1409 1972 
L 953 141 
Q 931 53 854 -9 
Q 778 -72 684 -72 
Q 606 -72 550 -22 
Q 494 28 494 109 
z
" transform="scale(0.015625)"/>
        <path id="Cmr10-48" d="M 141 -1600 
L 141 -1344 
L 763 -1344 
L 763 4544 
L 141 4544 
L 141 4800 
L 1019 4800 
L 1019 -1600 
L 141 -1600 
z
" transform="scale(0.015625)"/>
       </defs>
       <use xlink:href="#Cambria-17"/>
       <use xlink:href="#Cambria-91" transform="translate(51.277344 0)"/>
       <use xlink:href="#Cambria-94" transform="translate(104.353516 0)"/>
       <use xlink:href="#Cambria-8b" transform="translate(145.710938 0)"/>
       <use xlink:href="#Cambria-3" transform="translate(173.494141 0)"/>
       <use xlink:href="#Cambria-20b" transform="translate(195.515625 0)"/>
       <use xlink:href="#Cambria-89" transform="translate(233.699219 0)"/>
       <use xlink:href="#Cambria-8e" transform="translate(283.113281 0)"/>
       <use xlink:href="#Cambria-91" transform="translate(310.261719 0)"/>
       <use xlink:href="#Cambria-84" transform="translate(363.337891 0)"/>
       <use xlink:href="#Cambria-83" transform="translate(418.074219 0)"/>
       <use xlink:href="#Cambria-8e" transform="translate(466.902344 0)"/>
       <use xlink:href="#Cambria-3" transform="translate(494.050781 0)"/>
       <use xlink:href="#Cambria-8f" transform="translate(516.072266 0)"/>
       <use xlink:href="#Cambria-83" transform="translate(599.275391 0)"/>
       <use xlink:href="#Cambria-92" transform="translate(648.103516 0)"/>
       <use xlink:href="#Cambria-95" transform="translate(703.71875 0)"/>
       <use xlink:href="#Cambria-3" transform="translate(746.6875 0)"/>
       <use xlink:href="#Cambria-200" transform="translate(768.708984 0)"/>
       <use xlink:href="#Cambria-3" transform="translate(817.732422 0)"/>
       <use xlink:href="#Cmmi10-6f" transform="translate(839.753906 0)"/>
       <use xlink:href="#Cmr10-3e" transform="translate(913.533203 0)"/>
       <use xlink:href="#Cmmi10-84" transform="translate(941.21875 0)"/>
       <use xlink:href="#Cmr10-48" transform="translate(986.335938 0)"/>
       <use xlink:href="#Cambria-3" transform="translate(1014.021484 0)"/>
       <use xlink:href="#Cambria-92" transform="translate(1036.042969 0)"/>
       <use xlink:href="#Cambria-83" transform="translate(1091.658203 0)"/>
       <use xlink:href="#Cambria-8b" transform="translate(1140.486328 0)"/>
       <use xlink:href="#Cambria-94" transform="translate(1168.269531 0)"/>
       <use xlink:href="#Cambria-8b" transform="translate(1209.626953 0)"/>
       <use xlink:href="#Cambria-90" transform="translate(1237.410156 0)"/>
       <use xlink:href="#Cambria-89" transform="translate(1293.220703 0)"/>
       <use xlink:href="#Cambria-20c" transform="translate(1342.634766 0)"/>
      </g>
     </g>
    </g>
    <g id="ytick_4">
     <g id="line2d_8"/>
     <g id="text_8">
      <!-- Additive char-$p$ ring groups -->
      <g style="fill: #52514e" transform="translate(56.875859 113.143577) scale(0.085 -0.085)">
       <defs>
        <path id="Cambria-4" d="M 2488 0 
L 2488 153 
Q 2644 184 2720 221 
Q 2797 259 2834 326 
Q 2872 394 2872 506 
Q 2872 613 2847 736 
Q 2822 859 2775 1013 
L 2659 1416 
L 1203 1416 
L 1097 1109 
Q 1016 878 991 759 
Q 966 641 966 544 
Q 966 356 1061 268 
Q 1156 181 1353 153 
L 1353 0 
L 19 0 
L 19 153 
Q 194 181 323 356 
Q 453 531 575 856 
L 1878 4316 
L 2372 4316 
L 3434 831 
Q 3509 588 3567 459 
Q 3625 331 3706 259 
Q 3788 188 3928 153 
L 3928 0 
L 2488 0 
z
M 1288 1688 
L 2594 1688 
L 2000 3703 
L 1288 1688 
z
" transform="scale(0.015625)"/>
        <path id="Cambria-98" d="M 1334 2988 
L 1334 2834 
Q 1191 2800 1131 2769 
Q 1072 2738 1042 2688 
Q 1013 2638 1013 2553 
Q 1013 2469 1033 2376 
Q 1053 2284 1097 2163 
L 1641 581 
L 2278 2097 
Q 2341 2247 2366 2344 
Q 2391 2441 2391 2525 
Q 2391 2656 2320 2725 
Q 2250 2794 2063 2834 
L 2063 2988 
L 3231 2988 
L 3231 2834 
Q 3109 2809 3043 2757 
Q 2978 2706 2912 2595 
Q 2847 2484 2756 2284 
L 1703 -31 
L 1334 -31 
L 488 2303 
Q 400 2544 348 2633 
Q 297 2722 236 2765 
Q 175 2809 59 2834 
L 59 2988 
L 1334 2988 
z
" transform="scale(0.015625)"/>
        <path id="Cmmi10-80" d="M -159 -1241 
Q -219 -1241 -219 -1159 
Q -197 -1019 -134 -1019 
Q 66 -1019 145 -983 
Q 225 -947 269 -800 
L 991 2081 
Q 1038 2200 1038 2388 
Q 1038 2663 850 2663 
Q 650 2663 553 2423 
Q 456 2184 366 1819 
Q 366 1778 313 1778 
L 238 1778 
Q 222 1778 203 1801 
Q 184 1825 184 1844 
Q 253 2122 317 2315 
Q 381 2509 517 2668 
Q 653 2828 856 2828 
Q 1075 2828 1240 2704 
Q 1406 2581 1453 2369 
Q 1628 2572 1840 2700 
Q 2053 2828 2278 2828 
Q 2547 2828 2745 2684 
Q 2944 2541 3044 2308 
Q 3144 2075 3144 1806 
Q 3144 1394 2933 953 
Q 2722 513 2361 220 
Q 2000 -72 1588 -72 
Q 1400 -72 1248 34 
Q 1097 141 1013 313 
L 722 -825 
Q 706 -919 703 -934 
Q 703 -1019 1125 -1019 
Q 1191 -1019 1191 -1100 
Q 1169 -1184 1155 -1212 
Q 1141 -1241 1081 -1241 
L -159 -1241 
z
M 1594 97 
Q 1816 97 2006 280 
Q 2197 463 2316 691 
Q 2403 863 2479 1111 
Q 2556 1359 2612 1640 
Q 2669 1922 2669 2088 
Q 2669 2234 2630 2362 
Q 2591 2491 2502 2577 
Q 2413 2663 2266 2663 
Q 2031 2663 1823 2495 
Q 1616 2328 1447 2081 
L 1447 2059 
L 1094 647 
Q 1138 419 1263 258 
Q 1388 97 1594 97 
z
" transform="scale(0.015625)"/>
       </defs>
       <use xlink:href="#Cambria-4" transform="translate(0 0.125)"/>
       <use xlink:href="#Cambria-86" transform="translate(61.304688 0.125)"/>
       <use xlink:href="#Cambria-86" transform="translate(116.773438 0.125)"/>
       <use xlink:href="#Cambria-8b" transform="translate(172.242188 0.125)"/>
       <use xlink:href="#Cambria-96" transform="translate(200.025391 0.125)"/>
       <use xlink:href="#Cambria-8b" transform="translate(233.863281 0.125)"/>
       <use xlink:href="#Cambria-98" transform="translate(261.646484 0.125)"/>
       <use xlink:href="#Cambria-87" transform="translate(312.037109 0.125)"/>
       <use xlink:href="#Cambria-3" transform="translate(360.816406 0.125)"/>
       <use xlink:href="#Cambria-85" transform="translate(382.837891 0.125)"/>
       <use xlink:href="#Cambria-8a" transform="translate(426.929688 0.125)"/>
       <use xlink:href="#Cambria-83" transform="translate(482.105469 0.125)"/>
       <use xlink:href="#Cambria-94" transform="translate(530.933594 0.125)"/>
       <use xlink:href="#Cambria-1e6" transform="translate(572.291016 0.125)"/>
       <use xlink:href="#Cmmi10-80" transform="translate(605.494141 0.125)"/>
       <use xlink:href="#Cambria-3" transform="translate(655.787109 0.125)"/>
       <use xlink:href="#Cambria-94" transform="translate(677.808594 0.125)"/>
       <use xlink:href="#Cambria-8b" transform="translate(719.166016 0.125)"/>
       <use xlink:href="#Cambria-90" transform="translate(746.949219 0.125)"/>
       <use xlink:href="#Cambria-89" transform="translate(802.759766 0.125)"/>
       <use xlink:href="#Cambria-3" transform="translate(852.173828 0.125)"/>
       <use xlink:href="#Cambria-89" transform="translate(874.195312 0.125)"/>
       <use xlink:href="#Cambria-94" transform="translate(923.609375 0.125)"/>
       <use xlink:href="#Cambria-91" transform="translate(964.966797 0.125)"/>
       <use xlink:href="#Cambria-97" transform="translate(1018.042969 0.125)"/>
       <use xlink:href="#Cambria-92" transform="translate(1073.267578 0.125)"/>
       <use xlink:href="#Cambria-95" transform="translate(1128.882812 0.125)"/>
      </g>
     </g>
    </g>
    <g id="ytick_5">
     <g id="line2d_9"/>
     <g id="text_9">
      <!-- Endomorphism-order class group -->
      <g style="fill: #52514e" transform="translate(34.155625 136.035952) scale(0.085 -0.085)">
       <use xlink:href="#Cambria-8"/>
       <use xlink:href="#Cambria-90" transform="translate(57.515625 0)"/>
       <use xlink:href="#Cambria-86" transform="translate(113.328125 0)"/>
       <use xlink:href="#Cambria-91" transform="translate(168.796875 0)"/>
       <use xlink:href="#Cambria-8f" transform="translate(221.875 0)"/>
       <use xlink:href="#Cambria-91" transform="translate(305.078125 0)"/>
       <use xlink:href="#Cambria-94" transform="translate(358.15625 0)"/>
       <use xlink:href="#Cambria-92" transform="translate(399.515625 0)"/>
       <use xlink:href="#Cambria-8a" transform="translate(455.125 0)"/>
       <use xlink:href="#Cambria-8b" transform="translate(510.296875 0)"/>
       <use xlink:href="#Cambria-95" transform="translate(538.078125 0)"/>
       <use xlink:href="#Cambria-8f" transform="translate(581.046875 0)"/>
       <use xlink:href="#Cambria-1e6" transform="translate(664.25 0)"/>
       <use xlink:href="#Cambria-91" transform="translate(697.453125 0)"/>
       <use xlink:href="#Cambria-94" transform="translate(750.53125 0)"/>
       <use xlink:href="#Cambria-86" transform="translate(790.421875 0)"/>
       <use xlink:href="#Cambria-87" transform="translate(845.890625 0)"/>
       <use xlink:href="#Cambria-94" transform="translate(894.671875 0)"/>
       <use xlink:href="#Cambria-3" transform="translate(936.03125 0)"/>
       <use xlink:href="#Cambria-85" transform="translate(958.046875 0)"/>
       <use xlink:href="#Cambria-8e" transform="translate(1002.140625 0)"/>
       <use xlink:href="#Cambria-83" transform="translate(1029.296875 0)"/>
       <use xlink:href="#Cambria-95" transform="translate(1078.125 0)"/>
       <use xlink:href="#Cambria-95" transform="translate(1121.09375 0)"/>
       <use xlink:href="#Cambria-3" transform="translate(1164.0625 0)"/>
       <use xlink:href="#Cambria-89" transform="translate(1186.078125 0)"/>
       <use xlink:href="#Cambria-94" transform="translate(1235.5 0)"/>
       <use xlink:href="#Cambria-91" transform="translate(1275.390625 0)"/>
       <use xlink:href="#Cambria-97" transform="translate(1328.46875 0)"/>
       <use xlink:href="#Cambria-92" transform="translate(1383.6875 0)"/>
      </g>
     </g>
    </g>
    <g id="ytick_6">
     <g id="line2d_10"/>
     <g id="text_10">
      <!-- Ray class groups $(\mathrm{mod}\ r,\ r^2)$ -->
      <g style="fill: #52514e" transform="translate(49.905859 159.36254) scale(0.085 -0.085)">
       <defs>
        <path id="Cambria-15" d="M 1331 1853 
L 1331 791 
Q 1331 566 1348 464 
Q 1366 363 1400 311 
Q 1434 259 1493 226 
Q 1553 194 1697 153 
L 1697 0 
L 378 0 
L 378 153 
Q 572 203 637 264 
Q 703 325 723 437 
Q 744 550 744 781 
L 744 3484 
Q 744 3700 728 3798 
Q 713 3897 677 3951 
Q 641 4006 581 4039 
Q 522 4072 378 4113 
L 378 4266 
L 1925 4266 
Q 2656 4266 3018 4000 
Q 3381 3734 3381 3175 
Q 3381 2747 3145 2447 
Q 2909 2147 2438 1978 
L 2438 1953 
Q 2628 1875 2764 1729 
Q 2900 1584 3066 1278 
L 3347 766 
Q 3469 541 3556 422 
Q 3644 303 3734 240 
Q 3825 178 3975 153 
L 3975 0 
L 3109 0 
Q 2991 166 2884 356 
Q 2778 547 2675 744 
L 2400 1266 
Q 2275 1503 2195 1615 
Q 2116 1728 2048 1773 
Q 1981 1819 1904 1836 
Q 1828 1853 1675 1853 
L 1331 1853 
z
M 1331 3978 
L 1331 2122 
L 1684 2122 
Q 1956 2122 2125 2161 
Q 2294 2200 2437 2309 
Q 2581 2419 2667 2614 
Q 2753 2809 2753 3094 
Q 2753 3391 2651 3587 
Q 2550 3784 2344 3887 
Q 2138 3991 1788 3991 
Q 1506 3991 1331 3978 
z
" transform="scale(0.015625)"/>
        <path id="Cambria-9b" d="M 1625 -256 
Q 1453 -644 1290 -884 
Q 1128 -1125 933 -1247 
Q 738 -1369 469 -1369 
Q 297 -1369 81 -1328 
L 81 -709 
L 359 -709 
Q 397 -838 453 -888 
Q 509 -938 616 -938 
Q 709 -938 782 -902 
Q 856 -866 936 -778 
Q 1016 -691 1123 -509 
Q 1231 -328 1366 -50 
L 491 2303 
Q 406 2531 354 2622 
Q 303 2713 243 2759 
Q 184 2806 63 2834 
L 63 2988 
L 1334 2988 
L 1334 2834 
Q 1188 2800 1128 2767 
Q 1069 2734 1041 2682 
Q 1013 2631 1013 2550 
Q 1013 2466 1033 2375 
Q 1053 2284 1097 2163 
L 1653 597 
L 2278 2097 
Q 2331 2222 2361 2326 
Q 2391 2431 2391 2522 
Q 2391 2656 2317 2725 
Q 2244 2794 2063 2834 
L 2063 2988 
L 3231 2988 
L 3231 2834 
Q 3109 2809 3043 2757 
Q 2978 2706 2912 2595 
Q 2847 2484 2756 2284 
L 1625 -256 
z
" transform="scale(0.015625)"/>
        <path id="Cmr10-77" d="M 1984 -1588 
Q 1628 -1306 1370 -942 
Q 1113 -578 948 -165 
Q 784 247 703 697 
Q 622 1147 622 1600 
Q 622 2059 703 2509 
Q 784 2959 951 3375 
Q 1119 3791 1378 4153 
Q 1638 4516 1984 4788 
Q 1984 4800 2016 4800 
L 2075 4800 
Q 2094 4800 2109 4783 
Q 2125 4766 2125 4744 
Q 2125 4716 2113 4703 
Q 1800 4397 1592 4047 
Q 1384 3697 1257 3301 
Q 1131 2906 1075 2482 
Q 1019 2059 1019 1600 
Q 1019 -434 2106 -1491 
Q 2125 -1509 2125 -1544 
Q 2125 -1559 2108 -1579 
Q 2091 -1600 2075 -1600 
L 2016 -1600 
Q 1984 -1600 1984 -1588 
z
" transform="scale(0.015625)"/>
        <path id="Cmr10-38" d="M 191 0 
L 191 225 
Q 409 225 550 259 
Q 691 294 691 428 
L 691 2175 
Q 691 2347 639 2423 
Q 588 2500 491 2517 
Q 394 2534 191 2534 
L 191 2759 
L 1119 2828 
L 1119 2203 
Q 1247 2478 1498 2653 
Q 1750 2828 2047 2828 
Q 2784 2828 2913 2228 
Q 3041 2497 3287 2662 
Q 3534 2828 3828 2828 
Q 4119 2828 4317 2734 
Q 4516 2641 4616 2448 
Q 4716 2256 4716 1966 
L 4716 428 
Q 4716 294 4858 259 
Q 5000 225 5216 225 
L 5216 0 
L 3750 0 
L 3750 225 
Q 3969 225 4109 259 
Q 4250 294 4250 428 
L 4250 1947 
Q 4250 2269 4159 2466 
Q 4069 2663 3788 2663 
Q 3419 2663 3178 2366 
Q 2938 2069 2938 1691 
L 2938 428 
Q 2938 294 3078 259 
Q 3219 225 3438 225 
L 3438 0 
L 1972 0 
L 1972 225 
Q 2191 225 2331 259 
Q 2472 294 2472 428 
L 2472 1947 
Q 2472 2259 2381 2461 
Q 2291 2663 2009 2663 
Q 1638 2663 1398 2366 
Q 1159 2069 1159 1691 
L 1159 428 
Q 1159 294 1300 259 
Q 1441 225 1656 225 
L 1656 0 
L 191 0 
z
" transform="scale(0.015625)"/>
        <path id="Cmr10-42" d="M 1600 -72 
Q 1216 -72 887 123 
Q 559 319 368 647 
Q 178 975 178 1363 
Q 178 1656 283 1928 
Q 388 2200 583 2414 
Q 778 2628 1037 2748 
Q 1297 2869 1600 2869 
Q 1994 2869 2317 2661 
Q 2641 2453 2828 2104 
Q 3016 1756 3016 1363 
Q 3016 978 2825 648 
Q 2634 319 2307 123 
Q 1981 -72 1600 -72 
z
M 1600 116 
Q 2113 116 2284 487 
Q 2456 859 2456 1434 
Q 2456 1756 2422 1967 
Q 2388 2178 2272 2350 
Q 2200 2456 2089 2536 
Q 1978 2616 1854 2658 
Q 1731 2700 1600 2700 
Q 1400 2700 1220 2609 
Q 1041 2519 922 2350 
Q 803 2169 770 1951 
Q 738 1734 738 1434 
Q 738 1075 800 789 
Q 863 503 1052 309 
Q 1241 116 1600 116 
z
" transform="scale(0.015625)"/>
        <path id="Cmr10-49" d="M 1563 -72 
Q 1184 -72 871 133 
Q 559 338 386 672 
Q 213 1006 213 1381 
Q 213 1769 402 2101 
Q 591 2434 916 2631 
Q 1241 2828 1631 2828 
Q 1866 2828 2075 2729 
Q 2284 2631 2438 2456 
L 2438 3788 
Q 2438 3959 2386 4036 
Q 2334 4113 2239 4130 
Q 2144 4147 1941 4147 
L 1941 4372 
L 2888 4441 
L 2888 581 
Q 2888 413 2939 336 
Q 2991 259 3086 242 
Q 3181 225 3384 225 
L 3384 0 
L 2419 -72 
L 2419 331 
Q 2253 141 2025 34 
Q 1797 -72 1563 -72 
z
M 909 556 
Q 1019 347 1201 222 
Q 1384 97 1600 97 
Q 1866 97 2087 250 
Q 2309 403 2419 647 
L 2419 2181 
Q 2344 2322 2230 2433 
Q 2116 2544 1973 2603 
Q 1831 2663 1672 2663 
Q 1338 2663 1134 2473 
Q 931 2284 850 1990 
Q 769 1697 769 1375 
Q 769 1119 795 928 
Q 822 738 909 556 
z
" transform="scale(0.015625)"/>
        <path id="Cmmi10-2c" d="M 634 -1153 
Q 634 -1125 659 -1100 
Q 891 -878 1019 -587 
Q 1147 -297 1147 25 
L 1147 103 
Q 1044 0 891 0 
Q 744 0 641 103 
Q 538 206 538 353 
Q 538 503 641 603 
Q 744 703 891 703 
Q 1119 703 1216 492 
Q 1313 281 1313 25 
Q 1313 -331 1170 -651 
Q 1028 -972 769 -1228 
Q 744 -1241 728 -1241 
Q 697 -1241 665 -1212 
Q 634 -1184 634 -1153 
z
" transform="scale(0.015625)"/>
        <path id="Cmr10-31" d="M 319 0 
L 319 172 
Q 319 188 331 206 
L 1325 1306 
Q 1550 1550 1690 1715 
Q 1831 1881 1968 2097 
Q 2106 2313 2186 2536 
Q 2266 2759 2266 3009 
Q 2266 3272 2169 3511 
Q 2072 3750 1880 3894 
Q 1688 4038 1416 4038 
Q 1138 4038 916 3870 
Q 694 3703 603 3438 
Q 628 3444 672 3444 
Q 816 3444 917 3347 
Q 1019 3250 1019 3097 
Q 1019 2950 917 2848 
Q 816 2747 672 2747 
Q 522 2747 420 2851 
Q 319 2956 319 3097 
Q 319 3338 409 3548 
Q 500 3759 670 3923 
Q 841 4088 1055 4175 
Q 1269 4263 1509 4263 
Q 1875 4263 2190 4108 
Q 2506 3953 2690 3670 
Q 2875 3388 2875 3009 
Q 2875 2731 2753 2481 
Q 2631 2231 2440 2026 
Q 2250 1822 1953 1562 
Q 1656 1303 1563 1216 
L 838 519 
L 1453 519 
Q 1906 519 2211 526 
Q 2516 534 2534 550 
Q 2609 631 2688 1141 
L 2875 1141 
L 2694 0 
L 319 0 
z
" transform="scale(0.015625)"/>
        <path id="Cmr10-44" d="M 416 -1600 
Q 359 -1600 359 -1544 
Q 359 -1516 372 -1503 
Q 1466 -434 1466 1600 
Q 1466 3634 384 4691 
Q 359 4706 359 4744 
Q 359 4766 376 4783 
Q 394 4800 416 4800 
L 475 4800 
Q 494 4800 506 4788 
Q 966 4425 1272 3906 
Q 1578 3388 1720 2800 
Q 1863 2213 1863 1600 
Q 1863 1147 1786 708 
Q 1709 269 1542 -157 
Q 1375 -584 1119 -945 
Q 863 -1306 506 -1588 
Q 494 -1600 475 -1600 
L 416 -1600 
z
" transform="scale(0.015625)"/>
       </defs>
       <use xlink:href="#Cambria-15" transform="translate(0 0.084203)"/>
       <use xlink:href="#Cambria-83" transform="translate(61.109375 0.084203)"/>
       <use xlink:href="#Cambria-9b" transform="translate(109.9375 0.084203)"/>
       <use xlink:href="#Cambria-3" transform="translate(160.328125 0.084203)"/>
       <use xlink:href="#Cambria-85" transform="translate(182.349609 0.084203)"/>
       <use xlink:href="#Cambria-8e" transform="translate(226.441406 0.084203)"/>
       <use xlink:href="#Cambria-83" transform="translate(253.589844 0.084203)"/>
       <use xlink:href="#Cambria-95" transform="translate(302.417969 0.084203)"/>
       <use xlink:href="#Cambria-95" transform="translate(345.386719 0.084203)"/>
       <use xlink:href="#Cambria-3" transform="translate(388.355469 0.084203)"/>
       <use xlink:href="#Cambria-89" transform="translate(410.376953 0.084203)"/>
       <use xlink:href="#Cambria-94" transform="translate(459.791016 0.084203)"/>
       <use xlink:href="#Cambria-91" transform="translate(501.148438 0.084203)"/>
       <use xlink:href="#Cambria-97" transform="translate(554.224609 0.084203)"/>
       <use xlink:href="#Cambria-92" transform="translate(609.449219 0.084203)"/>
       <use xlink:href="#Cambria-95" transform="translate(665.064453 0.084203)"/>
       <use xlink:href="#Cambria-3" transform="translate(708.033203 0.084203)"/>
       <use xlink:href="#Cmr10-77" transform="translate(730.054688 0.084203)"/>
       <use xlink:href="#Cmr10-38" transform="translate(768.873047 0.084203)"/>
       <use xlink:href="#Cmr10-42" transform="translate(852.173828 0.084203)"/>
       <use xlink:href="#Cmr10-49" transform="translate(902.173828 0.084203)"/>
       <use xlink:href="#Cmmi10-84" transform="translate(991.024502 0.084203)"/>
       <use xlink:href="#Cmmi10-2c" transform="translate(1036.141689 0.084203)"/>
       <use xlink:href="#Cmmi10-84" transform="translate(1117.160389 0.084203)"/>
       <use xlink:href="#Cmr10-31" transform="translate(1173.537758 41.373437) scale(0.7)"/>
       <use xlink:href="#Cmr10-44" transform="translate(1214.258173 0.084203)"/>
      </g>
     </g>
    </g>
    <g id="ytick_7">
     <g id="line2d_11"/>
     <g id="text_11">
      <!-- Jacobians of covers / Weil descent -->
      <g style="fill: #52514e" transform="translate(33.563281 181.820701) scale(0.085 -0.085)">
       <defs>
        <path id="Cambria-d" d="M 1275 213 
Q 1275 -209 1176 -471 
Q 1078 -734 845 -915 
Q 613 -1097 194 -1225 
L 91 -950 
Q 366 -844 481 -736 
Q 597 -628 642 -465 
Q 688 -303 688 -28 
L 688 3484 
Q 688 3756 661 3856 
Q 634 3956 573 4009 
Q 513 4063 322 4113 
L 322 4266 
L 1641 4266 
L 1641 4113 
Q 1503 4078 1442 4043 
Q 1381 4009 1345 3957 
Q 1309 3906 1292 3803 
Q 1275 3700 1275 3484 
L 1275 213 
z
" transform="scale(0.015625)"/>
        <path id="Cambria-1a" d="M 2941 3469 
L 1941 -22 
L 1434 -22 
L 525 3372 
Q 469 3584 422 3718 
Q 375 3853 328 3929 
Q 281 4006 226 4045 
Q 172 4084 69 4113 
L 69 4266 
L 1406 4266 
L 1406 4113 
Q 1213 4075 1136 4000 
Q 1059 3925 1059 3791 
Q 1059 3681 1087 3531 
Q 1116 3381 1166 3191 
L 1794 722 
L 2800 4266 
L 3325 4266 
L 4141 719 
L 4878 3103 
Q 5013 3538 5013 3722 
Q 5013 3913 4933 3997 
Q 4853 4081 4669 4113 
L 4669 4266 
L 5900 4266 
L 5900 4113 
Q 5806 4081 5750 4042 
Q 5694 4003 5642 3936 
Q 5591 3869 5530 3728 
Q 5469 3588 5388 3350 
L 4250 -22 
L 3803 -22 
L 2941 3469 
z
" transform="scale(0.015625)"/>
       </defs>
       <use xlink:href="#Cambria-d"/>
       <use xlink:href="#Cambria-83" transform="translate(30.671875 0)"/>
       <use xlink:href="#Cambria-85" transform="translate(79.5 0)"/>
       <use xlink:href="#Cambria-91" transform="translate(123.59375 0)"/>
       <use xlink:href="#Cambria-84" transform="translate(176.671875 0)"/>
       <use xlink:href="#Cambria-8b" transform="translate(231.40625 0)"/>
       <use xlink:href="#Cambria-83" transform="translate(259.1875 0)"/>
       <use xlink:href="#Cambria-90" transform="translate(308.015625 0)"/>
       <use xlink:href="#Cambria-95" transform="translate(363.828125 0)"/>
       <use xlink:href="#Cambria-3" transform="translate(406.796875 0)"/>
       <use xlink:href="#Cambria-91" transform="translate(428.8125 0)"/>
       <use xlink:href="#Cambria-88" transform="translate(481.890625 0)"/>
       <use xlink:href="#Cambria-3" transform="translate(512.171875 0)"/>
       <use xlink:href="#Cambria-85" transform="translate(534.1875 0)"/>
       <use xlink:href="#Cambria-91" transform="translate(578.28125 0)"/>
       <use xlink:href="#Cambria-98" transform="translate(629.890625 0)"/>
       <use xlink:href="#Cambria-87" transform="translate(678.328125 0)"/>
       <use xlink:href="#Cambria-94" transform="translate(727.109375 0)"/>
       <use xlink:href="#Cambria-95" transform="translate(768.46875 0)"/>
       <use xlink:href="#Cambria-3" transform="translate(811.4375 0)"/>
       <use xlink:href="#Cambria-200" transform="translate(833.453125 0)"/>
       <use xlink:href="#Cambria-3" transform="translate(882.484375 0)"/>
       <use xlink:href="#Cambria-1a" transform="translate(904.5 0)"/>
       <use xlink:href="#Cambria-87" transform="translate(990.78125 0)"/>
       <use xlink:href="#Cambria-8b" transform="translate(1039.5625 0)"/>
       <use xlink:href="#Cambria-8e" transform="translate(1067.34375 0)"/>
       <use xlink:href="#Cambria-3" transform="translate(1094.5 0)"/>
       <use xlink:href="#Cambria-86" transform="translate(1116.515625 0)"/>
       <use xlink:href="#Cambria-87" transform="translate(1171.984375 0)"/>
       <use xlink:href="#Cambria-95" transform="translate(1220.765625 0)"/>
       <use xlink:href="#Cambria-85" transform="translate(1263.734375 0)"/>
       <use xlink:href="#Cambria-87" transform="translate(1307.828125 0)"/>
       <use xlink:href="#Cambria-90" transform="translate(1356.609375 0)"/>
       <use xlink:href="#Cambria-96" transform="translate(1412.421875 0)"/>
      </g>
     </g>
    </g>
    <g id="ytick_8">
     <g id="line2d_12"/>
     <g id="text_12">
      <!-- Weil-restriction abelian varieties -->
      <g style="fill: #52514e" transform="translate(37.770781 204.713075) scale(0.085 -0.085)">
       <use xlink:href="#Cambria-1a"/>
       <use xlink:href="#Cambria-87" transform="translate(86.28125 0)"/>
       <use xlink:href="#Cambria-8b" transform="translate(135.0625 0)"/>
       <use xlink:href="#Cambria-8e" transform="translate(162.84375 0)"/>
       <use xlink:href="#Cambria-1e6" transform="translate(190 0)"/>
       <use xlink:href="#Cambria-94" transform="translate(223.203125 0)"/>
       <use xlink:href="#Cambria-87" transform="translate(263.09375 0)"/>
       <use xlink:href="#Cambria-95" transform="translate(311.875 0)"/>
       <use xlink:href="#Cambria-96" transform="translate(354.84375 0)"/>
       <use xlink:href="#Cambria-94" transform="translate(388.6875 0)"/>
       <use xlink:href="#Cambria-8b" transform="translate(430.046875 0)"/>
       <use xlink:href="#Cambria-85" transform="translate(457.828125 0)"/>
       <use xlink:href="#Cambria-96" transform="translate(501.921875 0)"/>
       <use xlink:href="#Cambria-8b" transform="translate(535.765625 0)"/>
       <use xlink:href="#Cambria-91" transform="translate(563.546875 0)"/>
       <use xlink:href="#Cambria-90" transform="translate(616.625 0)"/>
       <use xlink:href="#Cambria-3" transform="translate(672.4375 0)"/>
       <use xlink:href="#Cambria-83" transform="translate(694.453125 0)"/>
       <use xlink:href="#Cambria-84" transform="translate(743.28125 0)"/>
       <use xlink:href="#Cambria-87" transform="translate(798.015625 0)"/>
       <use xlink:href="#Cambria-8e" transform="translate(846.796875 0)"/>
       <use xlink:href="#Cambria-8b" transform="translate(873.953125 0)"/>
       <use xlink:href="#Cambria-83" transform="translate(901.734375 0)"/>
       <use xlink:href="#Cambria-90" transform="translate(950.5625 0)"/>
       <use xlink:href="#Cambria-3" transform="translate(1006.375 0)"/>
       <use xlink:href="#Cambria-98" transform="translate(1028.390625 0)"/>
       <use xlink:href="#Cambria-83" transform="translate(1076.640625 0)"/>
       <use xlink:href="#Cambria-94" transform="translate(1125.46875 0)"/>
       <use xlink:href="#Cambria-8b" transform="translate(1166.828125 0)"/>
       <use xlink:href="#Cambria-87" transform="translate(1194.609375 0)"/>
       <use xlink:href="#Cambria-96" transform="translate(1243.390625 0)"/>
       <use xlink:href="#Cambria-8b" transform="translate(1277.234375 0)"/>
       <use xlink:href="#Cambria-87" transform="translate(1305.015625 0)"/>
       <use xlink:href="#Cambria-95" transform="translate(1353.796875 0)"/>
      </g>
     </g>
    </g>
    <g id="ytick_9">
     <g id="line2d_13"/>
     <g id="text_13">
      <!-- Other elliptic curves / AVs -->
      <g style="fill: #52514e" transform="translate(62.188359 227.60545) scale(0.085 -0.085)">
       <defs>
        <path id="Cambria-19" d="M 1481 4266 
L 1481 4113 
Q 1338 4088 1263 4050 
Q 1188 4013 1150 3944 
Q 1113 3875 1113 3759 
Q 1113 3653 1138 3529 
Q 1163 3406 1209 3253 
L 1941 703 
L 2838 3272 
Q 2856 3331 2875 3397 
Q 2894 3463 2908 3525 
Q 2922 3588 2926 3634 
Q 2931 3681 2931 3722 
Q 2931 3909 2845 3995 
Q 2759 4081 2553 4113 
L 2553 4266 
L 3866 4266 
L 3866 4113 
Q 3738 4081 3659 4022 
Q 3581 3963 3504 3831 
Q 3428 3700 3319 3413 
L 2022 -50 
L 1613 -50 
L 559 3434 
Q 475 3719 412 3839 
Q 350 3959 275 4020 
Q 200 4081 69 4113 
L 69 4266 
L 1481 4266 
z
" transform="scale(0.015625)"/>
       </defs>
       <use xlink:href="#Cambria-12"/>
       <use xlink:href="#Cambria-96" transform="translate(65.328125 0)"/>
       <use xlink:href="#Cambria-8a" transform="translate(99.171875 0)"/>
       <use xlink:href="#Cambria-87" transform="translate(154.34375 0)"/>
       <use xlink:href="#Cambria-94" transform="translate(203.125 0)"/>
       <use xlink:href="#Cambria-3" transform="translate(244.484375 0)"/>
       <use xlink:href="#Cambria-87" transform="translate(266.5 0)"/>
       <use xlink:href="#Cambria-8e" transform="translate(315.28125 0)"/>
       <use xlink:href="#Cambria-8e" transform="translate(342.4375 0)"/>
       <use xlink:href="#Cambria-8b" transform="translate(369.59375 0)"/>
       <use xlink:href="#Cambria-92" transform="translate(397.375 0)"/>
       <use xlink:href="#Cambria-96" transform="translate(452.984375 0)"/>
       <use xlink:href="#Cambria-8b" transform="translate(486.828125 0)"/>
       <use xlink:href="#Cambria-85" transform="translate(514.609375 0)"/>
       <use xlink:href="#Cambria-3" transform="translate(558.703125 0)"/>
       <use xlink:href="#Cambria-85" transform="translate(580.71875 0)"/>
       <use xlink:href="#Cambria-97" transform="translate(624.8125 0)"/>
       <use xlink:href="#Cambria-94" transform="translate(680.03125 0)"/>
       <use xlink:href="#Cambria-98" transform="translate(721.390625 0)"/>
       <use xlink:href="#Cambria-87" transform="translate(769.828125 0)"/>
       <use xlink:href="#Cambria-95" transform="translate(818.609375 0)"/>
       <use xlink:href="#Cambria-3" transform="translate(861.578125 0)"/>
       <use xlink:href="#Cambria-200" transform="translate(883.59375 0)"/>
       <use xlink:href="#Cambria-3" transform="translate(932.625 0)"/>
       <use xlink:href="#Cambria-4" transform="translate(954.640625 0)"/>
       <use xlink:href="#Cambria-19" transform="translate(1011.046875 0)"/>
       <use xlink:href="#Cambria-95" transform="translate(1066.53125 0)"/>
      </g>
     </g>
    </g>
    <g id="ytick_10">
     <g id="line2d_14"/>
     <g id="text_14">
      <!-- Separately built number-field class group -->
      <g style="fill: #52514e" transform="translate(7.2 250.497824) scale(0.085 -0.085)">
       <defs>
        <path id="Cambria-16" d="M 663 972 
Q 725 697 831 537 
Q 938 378 1106 301 
Q 1275 225 1541 225 
Q 1906 225 2101 415 
Q 2297 606 2297 972 
Q 2297 1206 2215 1365 
Q 2134 1525 1950 1665 
Q 1766 1806 1388 1994 
Q 1022 2175 809 2348 
Q 597 2522 492 2725 
Q 388 2928 388 3169 
Q 388 3519 552 3776 
Q 716 4034 1033 4175 
Q 1350 4316 1759 4316 
Q 1997 4316 2223 4291 
Q 2450 4266 2791 4178 
L 2791 3334 
L 2481 3334 
Q 2409 3609 2300 3762 
Q 2191 3916 2044 3977 
Q 1897 4038 1663 4038 
Q 1459 4038 1298 3963 
Q 1138 3888 1044 3736 
Q 950 3584 950 3375 
Q 950 3153 1029 3000 
Q 1109 2847 1278 2715 
Q 1447 2584 1778 2422 
Q 2178 2222 2398 2050 
Q 2619 1878 2742 1658 
Q 2866 1438 2866 1144 
Q 2866 816 2762 589 
Q 2659 363 2476 220 
Q 2294 78 2039 14 
Q 1784 -50 1481 -50 
Q 991 -50 350 116 
L 350 972 
L 663 972 
z
" transform="scale(0.015625)"/>
        <path id="Cambria-3d0" d="M 1909 2672 
L 1163 2672 
L 1163 781 
Q 1163 572 1183 465 
Q 1203 359 1242 304 
Q 1281 250 1345 217 
Q 1409 184 1550 153 
L 1550 0 
L 272 0 
L 272 153 
Q 409 191 468 225 
Q 528 259 561 312 
Q 594 366 609 466 
Q 625 566 625 781 
L 625 2672 
L 247 2672 
L 247 2831 
Q 416 2850 483 2898 
Q 550 2947 581 3040 
Q 613 3134 622 3300 
Q 644 3684 798 3953 
Q 953 4222 1212 4355 
Q 1472 4488 1816 4488 
Q 1994 4488 2153 4459 
L 2153 3888 
L 1897 3888 
Q 1863 4059 1795 4136 
Q 1728 4213 1603 4213 
Q 1488 4213 1405 4159 
Q 1322 4106 1264 3992 
Q 1206 3878 1184 3697 
Q 1163 3516 1163 3263 
L 1163 2988 
L 1909 2988 
L 1909 2672 
z
" transform="scale(0.015625)"/>
       </defs>
       <use xlink:href="#Cambria-16"/>
       <use xlink:href="#Cambria-87" transform="translate(49.609375 0)"/>
       <use xlink:href="#Cambria-92" transform="translate(98.390625 0)"/>
       <use xlink:href="#Cambria-83" transform="translate(154 0)"/>
       <use xlink:href="#Cambria-94" transform="translate(202.828125 0)"/>
       <use xlink:href="#Cambria-83" transform="translate(242.484375 0)"/>
       <use xlink:href="#Cambria-96" transform="translate(291.3125 0)"/>
       <use xlink:href="#Cambria-87" transform="translate(324.28125 0)"/>
       <use xlink:href="#Cambria-8e" transform="translate(373.0625 0)"/>
       <use xlink:href="#Cambria-9b" transform="translate(398.21875 0)"/>
       <use xlink:href="#Cambria-3" transform="translate(448.609375 0)"/>
       <use xlink:href="#Cambria-84" transform="translate(470.625 0)"/>
       <use xlink:href="#Cambria-97" transform="translate(525.359375 0)"/>
       <use xlink:href="#Cambria-8b" transform="translate(580.578125 0)"/>
       <use xlink:href="#Cambria-8e" transform="translate(608.359375 0)"/>
       <use xlink:href="#Cambria-96" transform="translate(635.515625 0)"/>
       <use xlink:href="#Cambria-3" transform="translate(669.359375 0)"/>
       <use xlink:href="#Cambria-90" transform="translate(691.375 0)"/>
       <use xlink:href="#Cambria-97" transform="translate(747.1875 0)"/>
       <use xlink:href="#Cambria-8f" transform="translate(802.40625 0)"/>
       <use xlink:href="#Cambria-84" transform="translate(885.609375 0)"/>
       <use xlink:href="#Cambria-87" transform="translate(940.34375 0)"/>
       <use xlink:href="#Cambria-94" transform="translate(989.125 0)"/>
       <use xlink:href="#Cambria-1e6" transform="translate(1030.484375 0)"/>
       <use xlink:href="#Cambria-3d0" transform="translate(1063.6875 0)"/>
       <use xlink:href="#Cambria-8b" transform="translate(1093.96875 0)"/>
       <use xlink:href="#Cambria-87" transform="translate(1121.75 0)"/>
       <use xlink:href="#Cambria-8e" transform="translate(1170.53125 0)"/>
       <use xlink:href="#Cambria-86" transform="translate(1197.6875 0)"/>
       <use xlink:href="#Cambria-3" transform="translate(1253.15625 0)"/>
       <use xlink:href="#Cambria-85" transform="translate(1275.171875 0)"/>
       <use xlink:href="#Cambria-8e" transform="translate(1319.265625 0)"/>
       <use xlink:href="#Cambria-83" transform="translate(1346.421875 0)"/>
       <use xlink:href="#Cambria-95" transform="translate(1395.25 0)"/>
       <use xlink:href="#Cambria-95" transform="translate(1438.21875 0)"/>
       <use xlink:href="#Cambria-3" transform="translate(1481.1875 0)"/>
       <use xlink:href="#Cambria-89" transform="translate(1503.203125 0)"/>
       <use xlink:href="#Cambria-94" transform="translate(1552.625 0)"/>
       <use xlink:href="#Cambria-91" transform="translate(1592.515625 0)"/>
       <use xlink:href="#Cambria-97" transform="translate(1645.59375 0)"/>
       <use xlink:href="#Cambria-92" transform="translate(1700.8125 0)"/>
      </g>
     </g>
    </g>
   </g>
   <g id="text_15">
    <!-- E -->
    <g style="fill: #fcfcfb" transform="translate(195.486742 43.661156) scale(0.09 -0.09)">
     <defs>
      <path id="Cambria-Bold-8" d="M 3400 4266 
L 3400 3272 
L 2972 3272 
Q 2869 3569 2797 3673 
Q 2725 3778 2625 3839 
Q 2525 3900 2284 3900 
L 1603 3900 
L 1603 2400 
L 2016 2400 
Q 2153 2400 2231 2439 
Q 2309 2478 2361 2568 
Q 2413 2659 2459 2850 
L 2813 2850 
L 2813 1581 
L 2459 1581 
Q 2416 1763 2362 1858 
Q 2309 1953 2236 1993 
Q 2163 2034 2016 2034 
L 1603 2034 
L 1603 366 
L 2281 366 
Q 2391 366 2466 380 
Q 2541 394 2600 428 
Q 2659 463 2714 522 
Q 2769 581 2811 650 
Q 2853 719 2900 831 
Q 2947 944 3003 1141 
L 3431 1141 
L 3372 0 
L 300 0 
L 300 206 
Q 416 238 483 273 
Q 550 309 583 373 
Q 616 438 625 536 
Q 634 634 634 784 
L 634 3478 
Q 634 3625 626 3725 
Q 619 3825 586 3887 
Q 553 3950 486 3989 
Q 419 4028 300 4059 
L 300 4266 
L 3400 4266 
z
" transform="scale(0.015625)"/>
     </defs>
     <use xlink:href="#Cambria-Bold-8"/>
    </g>
   </g>
   <g id="text_16">
    <!-- K -->
    <g style="fill: #fcfcfb" transform="translate(277.823539 43.661156) scale(0.09 -0.09)">
     <defs>
      <path id="Cambria-Bold-e" d="M 3775 831 
Q 3897 644 3980 533 
Q 4063 422 4125 359 
Q 4188 297 4248 264 
Q 4309 231 4409 203 
L 4409 0 
L 2716 0 
L 2716 206 
Q 2822 222 2859 258 
Q 2897 294 2897 353 
Q 2897 403 2883 451 
Q 2869 500 2816 594 
Q 2763 688 2600 938 
L 2122 1675 
Q 2034 1809 1970 1884 
Q 1906 1959 1842 1992 
Q 1778 2025 1666 2025 
L 1603 2025 
L 1603 784 
Q 1603 675 1609 581 
Q 1616 488 1634 428 
Q 1653 369 1689 328 
Q 1725 288 1787 258 
Q 1850 228 1941 206 
L 1941 0 
L 300 0 
L 300 206 
Q 416 238 483 273 
Q 550 309 583 373 
Q 616 438 625 536 
Q 634 634 634 784 
L 634 3478 
Q 634 3625 626 3725 
Q 619 3825 586 3887 
Q 553 3950 486 3989 
Q 419 4028 300 4059 
L 300 4266 
L 1941 4266 
L 1941 4059 
Q 1809 4025 1748 3984 
Q 1688 3944 1658 3887 
Q 1628 3831 1615 3743 
Q 1603 3656 1603 3478 
L 1603 2366 
L 1669 2366 
Q 1813 2366 1897 2397 
Q 1981 2428 2070 2509 
Q 2159 2591 2414 2889 
Q 2669 3188 2783 3348 
Q 2897 3509 2939 3614 
Q 2981 3719 2981 3822 
Q 2981 3931 2907 3993 
Q 2834 4056 2700 4059 
L 2700 4266 
L 4297 4266 
L 4297 4053 
Q 4178 4031 4093 3987 
Q 4009 3944 3900 3845 
Q 3791 3747 3622 3556 
L 2684 2506 
L 3775 831 
z
" transform="scale(0.015625)"/>
     </defs>
     <use xlink:href="#Cambria-Bold-e"/>
    </g>
   </g>
   <g id="text_17">
    <!-- E -->
    <g style="fill: #fcfcfb" transform="translate(195.486742 66.553531) scale(0.09 -0.09)">
     <use xlink:href="#Cambria-Bold-8"/>
    </g>
   </g>
   <g id="text_18">
    <!-- E -->
    <g style="fill: #fcfcfb" transform="translate(195.486742 89.445905) scale(0.09 -0.09)">
     <use xlink:href="#Cambria-Bold-8"/>
    </g>
   </g>
   <g id="text_19">
    <!-- K -->
    <g style="fill: #fcfcfb" transform="translate(277.823539 89.445905) scale(0.09 -0.09)">
     <use xlink:href="#Cambria-Bold-e"/>
    </g>
   </g>
   <g id="text_20">
    <!-- E -->
    <g style="fill: #fcfcfb" transform="translate(195.486742 112.33828) scale(0.09 -0.09)">
     <use xlink:href="#Cambria-Bold-8"/>
    </g>
   </g>
   <g id="text_21">
    <!-- E -->
    <g style="fill: #fcfcfb" transform="translate(195.486742 135.230654) scale(0.09 -0.09)">
     <use xlink:href="#Cambria-Bold-8"/>
    </g>
   </g>
   <g id="text_22">
    <!-- E -->
    <g style="fill: #fcfcfb" transform="translate(195.486742 158.123028) scale(0.09 -0.09)">
     <use xlink:href="#Cambria-Bold-8"/>
    </g>
   </g>
   <g id="text_23">
    <!-- K -->
    <g style="fill: #fcfcfb" transform="translate(277.823539 181.015403) scale(0.09 -0.09)">
     <use xlink:href="#Cambria-Bold-e"/>
    </g>
   </g>
   <g id="text_24">
    <!-- C -->
    <g style="fill: #0b0b0b" transform="translate(361.116586 181.015403) scale(0.09 -0.09)">
     <defs>
      <path id="Cambria-Bold-6" d="M 3403 4169 
L 3403 3263 
L 2978 3263 
Q 2903 3616 2740 3783 
Q 2578 3950 2316 3950 
Q 1822 3950 1569 3476 
Q 1316 3003 1316 2072 
Q 1316 1206 1547 761 
Q 1778 316 2225 316 
Q 2453 316 2597 392 
Q 2741 469 2827 622 
Q 2913 775 2975 1053 
L 3403 1053 
L 3403 106 
Q 3059 25 2775 -12 
Q 2491 -50 2184 -50 
Q 1534 -50 1123 184 
Q 713 419 517 892 
Q 322 1366 322 2091 
Q 322 2769 551 3270 
Q 781 3772 1228 4044 
Q 1675 4316 2297 4316 
Q 2613 4316 2869 4281 
Q 3125 4247 3403 4169 
z
" transform="scale(0.015625)"/>
     </defs>
     <use xlink:href="#Cambria-Bold-6"/>
    </g>
   </g>
   <g id="text_25">
    <!-- C -->
    <g style="fill: #0b0b0b" transform="translate(361.116586 203.907777) scale(0.09 -0.09)">
     <use xlink:href="#Cambria-Bold-6"/>
    </g>
   </g>
   <g id="text_26">
    <!-- E -->
    <g style="fill: #fcfcfb" transform="translate(195.486742 226.800152) scale(0.09 -0.09)">
     <use xlink:href="#Cambria-Bold-8"/>
    </g>
   </g>
   <g id="text_27">
    <!-- E -->
    <g style="fill: #fcfcfb" transform="translate(195.486742 249.692526) scale(0.09 -0.09)">
     <use xlink:href="#Cambria-Bold-8"/>
    </g>
   </g>
   <g id="text_28">
    <!-- O -->
    <g style="fill: #fcfcfb" transform="translate(443.372523 249.692526) scale(0.09 -0.09)">
     <defs>
      <path id="Cambria-Bold-12" d="M 2172 -50 
Q 1253 -50 792 487 
Q 331 1025 331 2097 
Q 331 2800 554 3298 
Q 778 3797 1212 4056 
Q 1647 4316 2247 4316 
Q 3181 4316 3650 3780 
Q 4119 3244 4119 2188 
Q 4119 1597 3980 1173 
Q 3841 750 3584 478 
Q 3328 206 2970 78 
Q 2613 -50 2172 -50 
z
M 1325 2181 
Q 1325 1238 1551 777 
Q 1778 316 2244 316 
Q 2484 316 2653 445 
Q 2822 575 2926 808 
Q 3031 1041 3076 1359 
Q 3122 1678 3122 2059 
Q 3122 2681 3023 3101 
Q 2925 3522 2726 3736 
Q 2528 3950 2219 3950 
Q 1766 3950 1545 3517 
Q 1325 3084 1325 2181 
z
" transform="scale(0.015625)"/>
     </defs>
     <use xlink:href="#Cambria-Bold-12"/>
    </g>
   </g>
   <g id="legend_1">
    <g id="patch_43">
     <path d="M 167.645859 278.393967 
L 184.645859 278.393967 
L 184.645859 272.443967 
L 167.645859 272.443967 
z
" style="fill: #e34948"/>
    </g>
    <g id="text_29">
     <!-- E — excluded (proved) -->
     <g transform="translate(191.445859 278.393967) scale(0.085 -0.085)">
      <defs>
       <path id="Cambria-204" d="M 6119 1438 
L 281 1438 
L 281 1850 
L 6119 1850 
L 6119 1438 
z
" transform="scale(0.015625)"/>
      </defs>
      <use xlink:href="#Cambria-8"/>
      <use xlink:href="#Cambria-3" transform="translate(57.515625 0)"/>
      <use xlink:href="#Cambria-204" transform="translate(79.53125 0)"/>
      <use xlink:href="#Cambria-3" transform="translate(179.53125 0)"/>
      <use xlink:href="#Cambria-87" transform="translate(201.546875 0)"/>
      <use xlink:href="#Cambria-9a" transform="translate(249.15625 0)"/>
      <use xlink:href="#Cambria-85" transform="translate(295.296875 0)"/>
      <use xlink:href="#Cambria-8e" transform="translate(339.390625 0)"/>
      <use xlink:href="#Cambria-97" transform="translate(366.546875 0)"/>
      <use xlink:href="#Cambria-86" transform="translate(421.765625 0)"/>
      <use xlink:href="#Cambria-87" transform="translate(477.234375 0)"/>
      <use xlink:href="#Cambria-86" transform="translate(526.015625 0)"/>
      <use xlink:href="#Cambria-3" transform="translate(581.484375 0)"/>
      <use xlink:href="#Cambria-20b" transform="translate(603.5 0)"/>
      <use xlink:href="#Cambria-92" transform="translate(641.6875 0)"/>
      <use xlink:href="#Cambria-94" transform="translate(697.296875 0)"/>
      <use xlink:href="#Cambria-91" transform="translate(737.1875 0)"/>
      <use xlink:href="#Cambria-98" transform="translate(788.796875 0)"/>
      <use xlink:href="#Cambria-87" transform="translate(837.234375 0)"/>
      <use xlink:href="#Cambria-86" transform="translate(886.015625 0)"/>
      <use xlink:href="#Cambria-20c" transform="translate(941.484375 0)"/>
     </g>
    </g>
    <g id="patch_44">
     <path d="M 167.645859 291.143967 
L 184.645859 291.143967 
L 184.645859 285.193967 
L 167.645859 285.193967 
z
" style="fill: #2a78d6"/>
    </g>
    <g id="text_30">
     <!-- K — known mechanism (cited) -->
     <g transform="translate(191.445859 291.143967) scale(0.085 -0.085)">
      <defs>
       <path id="Cambria-8d" d="M 1138 1741 
L 1238 1741 
Q 1341 1741 1406 1763 
Q 1484 1791 1578 1858 
Q 1672 1925 1844 2084 
Q 1988 2219 2061 2312 
Q 2134 2406 2163 2484 
Q 2188 2550 2188 2616 
Q 2188 2709 2130 2762 
Q 2072 2816 1941 2834 
L 1941 2988 
L 3288 2988 
L 3288 2834 
Q 3144 2806 2981 2706 
Q 2819 2606 2647 2444 
L 1928 1763 
L 2828 588 
Q 2984 381 3111 282 
Q 3238 184 3388 153 
L 3388 0 
L 2188 0 
L 2188 153 
Q 2269 163 2308 189 
Q 2347 216 2347 278 
Q 2347 325 2330 370 
Q 2313 416 2259 494 
Q 2206 572 2066 766 
L 1694 1266 
Q 1588 1406 1542 1450 
Q 1497 1494 1447 1512 
Q 1397 1531 1313 1531 
L 1138 1531 
L 1138 781 
Q 1138 513 1163 408 
Q 1188 303 1258 248 
Q 1328 194 1488 153 
L 1488 0 
L 247 0 
L 247 153 
Q 403 194 464 237 
Q 525 281 551 342 
Q 578 403 589 508 
Q 600 613 600 781 
L 600 3397 
Q 600 3697 595 3815 
Q 591 3934 570 4017 
Q 550 4100 514 4147 
Q 478 4194 417 4222 
Q 356 4250 197 4278 
L 197 4441 
L 950 4472 
L 1138 4472 
L 1138 1741 
z
" transform="scale(0.015625)"/>
      </defs>
      <use xlink:href="#Cambria-e"/>
      <use xlink:href="#Cambria-3" transform="translate(62.9375 0)"/>
      <use xlink:href="#Cambria-204" transform="translate(84.953125 0)"/>
      <use xlink:href="#Cambria-3" transform="translate(184.953125 0)"/>
      <use xlink:href="#Cambria-8d" transform="translate(206.96875 0)"/>
      <use xlink:href="#Cambria-90" transform="translate(259.40625 0)"/>
      <use xlink:href="#Cambria-91" transform="translate(315.21875 0)"/>
      <use xlink:href="#Cambria-99" transform="translate(367.8125 0)"/>
      <use xlink:href="#Cambria-90" transform="translate(445.25 0)"/>
      <use xlink:href="#Cambria-3" transform="translate(501.0625 0)"/>
      <use xlink:href="#Cambria-8f" transform="translate(523.078125 0)"/>
      <use xlink:href="#Cambria-87" transform="translate(606.28125 0)"/>
      <use xlink:href="#Cambria-85" transform="translate(655.0625 0)"/>
      <use xlink:href="#Cambria-8a" transform="translate(699.15625 0)"/>
      <use xlink:href="#Cambria-83" transform="translate(754.328125 0)"/>
      <use xlink:href="#Cambria-90" transform="translate(803.15625 0)"/>
      <use xlink:href="#Cambria-8b" transform="translate(858.96875 0)"/>
      <use xlink:href="#Cambria-95" transform="translate(886.75 0)"/>
      <use xlink:href="#Cambria-8f" transform="translate(929.71875 0)"/>
      <use xlink:href="#Cambria-3" transform="translate(1012.921875 0)"/>
      <use xlink:href="#Cambria-20b" transform="translate(1034.9375 0)"/>
      <use xlink:href="#Cambria-85" transform="translate(1073.125 0)"/>
      <use xlink:href="#Cambria-8b" transform="translate(1117.21875 0)"/>
      <use xlink:href="#Cambria-96" transform="translate(1145 0)"/>
      <use xlink:href="#Cambria-87" transform="translate(1177.96875 0)"/>
      <use xlink:href="#Cambria-86" transform="translate(1226.75 0)"/>
      <use xlink:href="#Cambria-20c" transform="translate(1282.21875 0)"/>
     </g>
    </g>
    <g id="patch_45">
     <path d="M 320.680391 278.393967 
L 337.680391 278.393967 
L 337.680391 272.443967 
L 320.680391 272.443967 
z
" style="fill: #eda100"/>
    </g>
    <g id="text_31">
     <!-- C — conditional / neutral -->
     <g transform="translate(344.480391 278.393967) scale(0.085 -0.085)">
      <use xlink:href="#Cambria-6"/>
      <use xlink:href="#Cambria-3" transform="translate(56.25 0)"/>
      <use xlink:href="#Cambria-204" transform="translate(78.265625 0)"/>
      <use xlink:href="#Cambria-3" transform="translate(178.265625 0)"/>
      <use xlink:href="#Cambria-85" transform="translate(200.28125 0)"/>
      <use xlink:href="#Cambria-91" transform="translate(244.375 0)"/>
      <use xlink:href="#Cambria-90" transform="translate(297.453125 0)"/>
      <use xlink:href="#Cambria-86" transform="translate(353.265625 0)"/>
      <use xlink:href="#Cambria-8b" transform="translate(408.734375 0)"/>
      <use xlink:href="#Cambria-96" transform="translate(436.515625 0)"/>
      <use xlink:href="#Cambria-8b" transform="translate(470.359375 0)"/>
      <use xlink:href="#Cambria-91" transform="translate(498.140625 0)"/>
      <use xlink:href="#Cambria-90" transform="translate(551.21875 0)"/>
      <use xlink:href="#Cambria-83" transform="translate(607.03125 0)"/>
      <use xlink:href="#Cambria-8e" transform="translate(655.859375 0)"/>
      <use xlink:href="#Cambria-3" transform="translate(683.015625 0)"/>
      <use xlink:href="#Cambria-200" transform="translate(705.03125 0)"/>
      <use xlink:href="#Cambria-3" transform="translate(754.0625 0)"/>
      <use xlink:href="#Cambria-90" transform="translate(776.078125 0)"/>
      <use xlink:href="#Cambria-87" transform="translate(831.890625 0)"/>
      <use xlink:href="#Cambria-97" transform="translate(880.671875 0)"/>
      <use xlink:href="#Cambria-96" transform="translate(935.890625 0)"/>
      <use xlink:href="#Cambria-94" transform="translate(969.734375 0)"/>
      <use xlink:href="#Cambria-83" transform="translate(1009.390625 0)"/>
      <use xlink:href="#Cambria-8e" transform="translate(1058.21875 0)"/>
     </g>
    </g>
    <g id="patch_46">
     <path d="M 320.680391 291.143967 
L 337.680391 291.143967 
L 337.680391 285.193967 
L 320.680391 285.193967 
z
" style="fill: #4a3aa7"/>
    </g>
    <g id="text_32">
     <!-- O — open residual -->
     <g transform="translate(344.480391 291.143967) scale(0.085 -0.085)">
      <use xlink:href="#Cambria-12"/>
      <use xlink:href="#Cambria-3" transform="translate(65.328125 0)"/>
      <use xlink:href="#Cambria-204" transform="translate(87.34375 0)"/>
      <use xlink:href="#Cambria-3" transform="translate(187.34375 0)"/>
      <use xlink:href="#Cambria-91" transform="translate(209.359375 0)"/>
      <use xlink:href="#Cambria-92" transform="translate(262.4375 0)"/>
      <use xlink:href="#Cambria-87" transform="translate(318.046875 0)"/>
      <use xlink:href="#Cambria-90" transform="translate(366.828125 0)"/>
      <use xlink:href="#Cambria-3" transform="translate(422.640625 0)"/>
      <use xlink:href="#Cambria-94" transform="translate(444.65625 0)"/>
      <use xlink:href="#Cambria-87" transform="translate(484.546875 0)"/>
      <use xlink:href="#Cambria-95" transform="translate(533.328125 0)"/>
      <use xlink:href="#Cambria-8b" transform="translate(576.296875 0)"/>
      <use xlink:href="#Cambria-86" transform="translate(604.078125 0)"/>
      <use xlink:href="#Cambria-97" transform="translate(659.546875 0)"/>
      <use xlink:href="#Cambria-83" transform="translate(714.765625 0)"/>
      <use xlink:href="#Cambria-8e" transform="translate(763.59375 0)"/>
     </g>
    </g>
   </g>
  </g>
 </g>
 <defs>
  <clipPath id="p0e4d32215a">
   <rect x="159.995859" y="30.630176" width="331.220313" height="228.923744"/>
  </clipPath>
 </defs>
</svg>
