<?xml version="1.0" encoding="utf-8" standalone="no"?>
<!DOCTYPE svg PUBLIC "-//W3C//DTD SVG 1.1//EN"
  "http://www.w3.org/Graphics/SVG/1.1/DTD/svg11.dtd">
<svg xmlns:xlink="http://www.w3.org/1999/xlink" width="662.4pt" height="388.8pt" viewBox="0 0 662.4 388.8" xmlns="http://www.w3.org/2000/svg" version="1.1">
 <metadata>
  <rdf:RDF xmlns:dc="http://purl.org/dc/elements/1.1/" xmlns:cc="http://creativecommons.org/ns#" xmlns:rdf="http://www.w3.org/1999/02/22-rdf-syntax-ns#">
   <cc:Work>
    <dc:type rdf:resource="http://purl.org/dc/dcmitype/StillImage"/>
    <dc:format>image/svg+xml</dc:format>
    <dc:creator>
     <cc:Agent>
      <dc:title>Matplotlib v3.11.1, https://matplotlib.org/</dc:title>
     </cc:Agent>
    </dc:creator>
   </cc:Work>
  </rdf:RDF>
 </metadata>
 <defs>
  <style type="text/css">*{stroke-linejoin: round; stroke-linecap: butt}</style>
 </defs>
 <g id="figure_1">
  <g id="patch_1">
   <path d="M 0 388.8 
L 662.4 388.8 
L 662.4 0 
L 0 0 
z
" style="fill: #ffffff"/>
  </g>
  <g id="axes_1">
   <g id="patch_2">
    <path d="M 40.503365 354.797416 
L 656.600568 354.797416 
L 656.600568 18.118365 
L 40.503365 18.118365 
z
" style="fill: #ffffff"/>
   </g>
   <g id="PathCollection_1">
    <defs>
     <path id="mb046d52b8f" d="M -2.44949 2.44949 
L 2.44949 -2.44949 
M -2.44949 -2.44949 
L 2.44949 2.44949 
" style="stroke: #d97706; stroke-opacity: 0.45"/>
    </defs>
    <g clip-path="url(#p38dff0d139)">
     <use xlink:href="#mb046d52b8f" x="68.507783" y="256.441807" style="fill: #d97706; fill-opacity: 0.45; stroke: #d97706; stroke-opacity: 0.45"/>
     <use xlink:href="#mb046d52b8f" x="68.507783" y="212.291676" style="fill: #d97706; fill-opacity: 0.45; stroke: #d97706; stroke-opacity: 0.45"/>
     <use xlink:href="#mb046d52b8f" x="68.507783" y="212.291676" style="fill: #d97706; fill-opacity: 0.45; stroke: #d97706; stroke-opacity: 0.45"/>
     <use xlink:href="#mb046d52b8f" x="68.507783" y="235.55991" style="fill: #d97706; fill-opacity: 0.45; stroke: #d97706; stroke-opacity: 0.45"/>
     <use xlink:href="#mb046d52b8f" x="68.507783" y="225.046854" style="fill: #d97706; fill-opacity: 0.45; stroke: #d97706; stroke-opacity: 0.45"/>
     <use xlink:href="#mb046d52b8f" x="207.151669" y="237.176511" style="fill: #d97706; fill-opacity: 0.45; stroke: #d97706; stroke-opacity: 0.45"/>
     <use xlink:href="#mb046d52b8f" x="207.151669" y="214.14044" style="fill: #d97706; fill-opacity: 0.45; stroke: #d97706; stroke-opacity: 0.45"/>
     <use xlink:href="#mb046d52b8f" x="207.151669" y="309.903672" style="fill: #d97706; fill-opacity: 0.45; stroke: #d97706; stroke-opacity: 0.45"/>
     <use xlink:href="#mb046d52b8f" x="207.151669" y="210.507279" style="fill: #d97706; fill-opacity: 0.45; stroke: #d97706; stroke-opacity: 0.45"/>
     <use xlink:href="#mb046d52b8f" x="207.151669" y="214.14044" style="fill: #d97706; fill-opacity: 0.45; stroke: #d97706; stroke-opacity: 0.45"/>
     <use xlink:href="#mb046d52b8f" x="329.586144" y="212.141222" style="fill: #d97706; fill-opacity: 0.45; stroke: #d97706; stroke-opacity: 0.45"/>
     <use xlink:href="#mb046d52b8f" x="329.586144" y="244.583861" style="fill: #d97706; fill-opacity: 0.45; stroke: #d97706; stroke-opacity: 0.45"/>
     <use xlink:href="#mb046d52b8f" x="329.586144" y="238.57752" style="fill: #d97706; fill-opacity: 0.45; stroke: #d97706; stroke-opacity: 0.45"/>
     <use xlink:href="#mb046d52b8f" x="329.586144" y="238.57752" style="fill: #d97706; fill-opacity: 0.45; stroke: #d97706; stroke-opacity: 0.45"/>
     <use xlink:href="#mb046d52b8f" x="329.586144" y="244.583861" style="fill: #d97706; fill-opacity: 0.45; stroke: #d97706; stroke-opacity: 0.45"/>
     <use xlink:href="#mb046d52b8f" x="439.220314" y="338.71517" style="fill: #d97706; fill-opacity: 0.45; stroke: #d97706; stroke-opacity: 0.45"/>
     <use xlink:href="#mb046d52b8f" x="439.220314" y="239.811447" style="fill: #d97706; fill-opacity: 0.45; stroke: #d97706; stroke-opacity: 0.45"/>
     <use xlink:href="#mb046d52b8f" x="439.220314" y="229.57426" style="fill: #d97706; fill-opacity: 0.45; stroke: #d97706; stroke-opacity: 0.45"/>
     <use xlink:href="#mb046d52b8f" x="439.220314" y="245.771178" style="fill: #d97706; fill-opacity: 0.45; stroke: #d97706; stroke-opacity: 0.45"/>
     <use xlink:href="#mb046d52b8f" x="439.220314" y="311.343935" style="fill: #d97706; fill-opacity: 0.45; stroke: #d97706; stroke-opacity: 0.45"/>
     <use xlink:href="#mb046d52b8f" x="538.158745" y="214.859954" style="fill: #d97706; fill-opacity: 0.45; stroke: #d97706; stroke-opacity: 0.45"/>
     <use xlink:href="#mb046d52b8f" x="538.158745" y="214.859954" style="fill: #d97706; fill-opacity: 0.45; stroke: #d97706; stroke-opacity: 0.45"/>
     <use xlink:href="#mb046d52b8f" x="538.158745" y="214.859954" style="fill: #d97706; fill-opacity: 0.45; stroke: #d97706; stroke-opacity: 0.45"/>
     <use xlink:href="#mb046d52b8f" x="538.158745" y="218.408582" style="fill: #d97706; fill-opacity: 0.45; stroke: #d97706; stroke-opacity: 0.45"/>
     <use xlink:href="#mb046d52b8f" x="538.158745" y="269.990098" style="fill: #d97706; fill-opacity: 0.45; stroke: #d97706; stroke-opacity: 0.45"/>
     <use xlink:href="#mb046d52b8f" x="628.59615" y="294.694148" style="fill: #d97706; fill-opacity: 0.45; stroke: #d97706; stroke-opacity: 0.45"/>
     <use xlink:href="#mb046d52b8f" x="628.59615" y="339.493823" style="fill: #d97706; fill-opacity: 0.45; stroke: #d97706; stroke-opacity: 0.45"/>
     <use xlink:href="#mb046d52b8f" x="628.59615" y="216.01418" style="fill: #d97706; fill-opacity: 0.45; stroke: #d97706; stroke-opacity: 0.45"/>
     <use xlink:href="#mb046d52b8f" x="628.59615" y="219.540392" style="fill: #d97706; fill-opacity: 0.45; stroke: #d97706; stroke-opacity: 0.45"/>
     <use xlink:href="#mb046d52b8f" x="628.59615" y="247.779247" style="fill: #d97706; fill-opacity: 0.45; stroke: #d97706; stroke-opacity: 0.45"/>
    </g>
   </g>
   <g id="PathCollection_2">
    <defs>
     <path id="C0_0_eef8b58faa" d="M 0 2.236068 
C 0.593012 2.236068 1.161816 2.000462 1.581139 1.581139 
C 2.000462 1.161816 2.236068 0.593012 2.236068 -0 
C 2.236068 -0.593012 2.000462 -1.161816 1.581139 -1.581139 
C 1.161816 -2.000462 0.593012 -2.236068 0 -2.236068 
C -0.593012 -2.236068 -1.161816 -2.000462 -1.581139 -1.581139 
C -2.000462 -1.161816 -2.236068 -0.593012 -2.236068 0 
C -2.236068 0.593012 -2.000462 1.161816 -1.581139 1.581139 
C -1.161816 2.000462 -0.593012 2.236068 0 2.236068 
z
"/>
    </defs>
    <g clip-path="url(#p38dff0d139)">
     <use xlink:href="#C0_0_eef8b58faa" x="68.507783" y="256.441807" style="fill: #0f766e; fill-opacity: 0.72"/>
    </g>
    <g clip-path="url(#p38dff0d139)">
     <use xlink:href="#C0_0_eef8b58faa" x="68.507783" y="212.291676" style="fill: #0f766e; fill-opacity: 0.72"/>
    </g>
    <g clip-path="url(#p38dff0d139)">
     <use xlink:href="#C0_0_eef8b58faa" x="68.507783" y="212.291676" style="fill: #0f766e; fill-opacity: 0.72"/>
    </g>
    <g clip-path="url(#p38dff0d139)">
     <use xlink:href="#C0_0_eef8b58faa" x="68.507783" y="235.55991" style="fill: #0f766e; fill-opacity: 0.72"/>
    </g>
    <g clip-path="url(#p38dff0d139)">
     <use xlink:href="#C0_0_eef8b58faa" x="68.507783" y="225.046854" style="fill: #0f766e; fill-opacity: 0.72"/>
    </g>
    <g clip-path="url(#p38dff0d139)">
     <use xlink:href="#C0_0_eef8b58faa" x="207.151669" y="237.176511" style="fill: #0f766e; fill-opacity: 0.72"/>
    </g>
    <g clip-path="url(#p38dff0d139)">
     <use xlink:href="#C0_0_eef8b58faa" x="207.151669" y="214.14044" style="fill: #0f766e; fill-opacity: 0.72"/>
    </g>
    <g clip-path="url(#p38dff0d139)">
     <use xlink:href="#C0_0_eef8b58faa" x="207.151669" y="309.903672" style="fill: #0f766e; fill-opacity: 0.72"/>
    </g>
    <g clip-path="url(#p38dff0d139)">
     <use xlink:href="#C0_0_eef8b58faa" x="207.151669" y="210.507279" style="fill: #0f766e; fill-opacity: 0.72"/>
    </g>
    <g clip-path="url(#p38dff0d139)">
     <use xlink:href="#C0_0_eef8b58faa" x="207.151669" y="214.14044" style="fill: #0f766e; fill-opacity: 0.72"/>
    </g>
    <g clip-path="url(#p38dff0d139)">
     <use xlink:href="#C0_0_eef8b58faa" x="329.586144" y="212.141222" style="fill: #0f766e; fill-opacity: 0.72"/>
    </g>
    <g clip-path="url(#p38dff0d139)">
     <use xlink:href="#C0_0_eef8b58faa" x="329.586144" y="244.583861" style="fill: #0f766e; fill-opacity: 0.72"/>
    </g>
    <g clip-path="url(#p38dff0d139)">
     <use xlink:href="#C0_0_eef8b58faa" x="329.586144" y="238.57752" style="fill: #0f766e; fill-opacity: 0.72"/>
    </g>
    <g clip-path="url(#p38dff0d139)">
     <use xlink:href="#C0_0_eef8b58faa" x="329.586144" y="238.57752" style="fill: #0f766e; fill-opacity: 0.72"/>
    </g>
    <g clip-path="url(#p38dff0d139)">
     <use xlink:href="#C0_0_eef8b58faa" x="329.586144" y="244.583861" style="fill: #0f766e; fill-opacity: 0.72"/>
    </g>
    <g clip-path="url(#p38dff0d139)">
     <use xlink:href="#C0_0_eef8b58faa" x="439.220314" y="338.71517" style="fill: #0f766e; fill-opacity: 0.72"/>
    </g>
    <g clip-path="url(#p38dff0d139)">
     <use xlink:href="#C0_0_eef8b58faa" x="439.220314" y="239.811447" style="fill: #0f766e; fill-opacity: 0.72"/>
    </g>
    <g clip-path="url(#p38dff0d139)">
     <use xlink:href="#C0_0_eef8b58faa" x="439.220314" y="229.57426" style="fill: #0f766e; fill-opacity: 0.72"/>
    </g>
    <g clip-path="url(#p38dff0d139)">
     <use xlink:href="#C0_0_eef8b58faa" x="439.220314" y="245.771178" style="fill: #0f766e; fill-opacity: 0.72"/>
    </g>
    <g clip-path="url(#p38dff0d139)">
     <use xlink:href="#C0_0_eef8b58faa" x="439.220314" y="311.343935" style="fill: #0f766e; fill-opacity: 0.72"/>
    </g>
    <g clip-path="url(#p38dff0d139)">
     <use xlink:href="#C0_0_eef8b58faa" x="538.158745" y="214.859954" style="fill: #0f766e; fill-opacity: 0.72"/>
    </g>
    <g clip-path="url(#p38dff0d139)">
     <use xlink:href="#C0_0_eef8b58faa" x="538.158745" y="214.859954" style="fill: #0f766e; fill-opacity: 0.72"/>
    </g>
    <g clip-path="url(#p38dff0d139)">
     <use xlink:href="#C0_0_eef8b58faa" x="538.158745" y="214.859954" style="fill: #0f766e; fill-opacity: 0.72"/>
    </g>
    <g clip-path="url(#p38dff0d139)">
     <use xlink:href="#C0_0_eef8b58faa" x="538.158745" y="218.408582" style="fill: #0f766e; fill-opacity: 0.72"/>
    </g>
    <g clip-path="url(#p38dff0d139)">
     <use xlink:href="#C0_0_eef8b58faa" x="538.158745" y="269.990098" style="fill: #0f766e; fill-opacity: 0.72"/>
    </g>
    <g clip-path="url(#p38dff0d139)">
     <use xlink:href="#C0_0_eef8b58faa" x="628.59615" y="294.694148" style="fill: #0f766e; fill-opacity: 0.72"/>
    </g>
    <g clip-path="url(#p38dff0d139)">
     <use xlink:href="#C0_0_eef8b58faa" x="628.59615" y="339.493823" style="fill: #0f766e; fill-opacity: 0.72"/>
    </g>
    <g clip-path="url(#p38dff0d139)">
     <use xlink:href="#C0_0_eef8b58faa" x="628.59615" y="216.01418" style="fill: #0f766e; fill-opacity: 0.72"/>
    </g>
    <g clip-path="url(#p38dff0d139)">
     <use xlink:href="#C0_0_eef8b58faa" x="628.59615" y="219.540392" style="fill: #0f766e; fill-opacity: 0.72"/>
    </g>
    <g clip-path="url(#p38dff0d139)">
     <use xlink:href="#C0_0_eef8b58faa" x="628.59615" y="247.779247" style="fill: #0f766e; fill-opacity: 0.72"/>
    </g>
   </g>
   <g id="matplotlib.axis_1">
    <g id="xtick_1">
     <g id="line2d_1">
      <path d="M 71.907392 354.797416 
L 71.907392 18.118365 
" clip-path="url(#p38dff0d139)" style="fill: none; stroke: #d1d5db; stroke-opacity: 0.65; stroke-width: 0.6; stroke-linecap: square"/>
     </g>
     <g id="line2d_2">
      <defs>
       <path id="m41256befec" d="M 0 0 
L 0 3.5 
" style="stroke: #000000; stroke-width: 0.8"/>
      </defs>
      <g>
       <use xlink:href="#m41256befec" x="71.907392" y="354.797416" style="stroke: #000000; stroke-width: 0.8"/>
      </g>
     </g>
     <g id="text_1">
      <!-- 19.1 -->
      <g transform="translate(60.77458 369.395073) scale(0.1 -0.1)">
       <defs>
        <path id="DejaVuSans-14" d="M 794 531 
L 1825 531 
L 1825 4091 
L 703 3866 
L 703 4441 
L 1819 4666 
L 2450 4666 
L 2450 531 
L 3481 531 
L 3481 0 
L 794 0 
L 794 531 
z
" transform="scale(0.015625)"/>
        <path id="DejaVuSans-1c" d="M 703 97 
L 703 672 
Q 941 559 1184 500 
Q 1428 441 1663 441 
Q 2288 441 2617 861 
Q 2947 1281 2994 2138 
Q 2813 1869 2534 1725 
Q 2256 1581 1919 1581 
Q 1219 1581 811 2004 
Q 403 2428 403 3163 
Q 403 3881 828 4315 
Q 1253 4750 1959 4750 
Q 2769 4750 3195 4129 
Q 3622 3509 3622 2328 
Q 3622 1225 3098 567 
Q 2575 -91 1691 -91 
Q 1453 -91 1209 -44 
Q 966 3 703 97 
z
M 1959 2075 
Q 2384 2075 2632 2365 
Q 2881 2656 2881 3163 
Q 2881 3666 2632 3958 
Q 2384 4250 1959 4250 
Q 1534 4250 1286 3958 
Q 1038 3666 1038 3163 
Q 1038 2656 1286 2365 
Q 1534 2075 1959 2075 
z
" transform="scale(0.015625)"/>
        <path id="DejaVuSans-11" d="M 684 794 
L 1344 794 
L 1344 0 
L 684 0 
L 684 794 
z
" transform="scale(0.015625)"/>
       </defs>
       <use xlink:href="#DejaVuSans-14"/>
       <use xlink:href="#DejaVuSans-1c" transform="translate(63.625 0)"/>
       <use xlink:href="#DejaVuSans-11" transform="translate(127.25 0)"/>
       <use xlink:href="#DejaVuSans-14" transform="translate(159.03125 0)"/>
      </g>
     </g>
    </g>
    <g id="xtick_2">
     <g id="line2d_3">
      <path d="M 143.950008 354.797416 
L 143.950008 18.118365 
" clip-path="url(#p38dff0d139)" style="fill: none; stroke: #d1d5db; stroke-opacity: 0.65; stroke-width: 0.6; stroke-linecap: square"/>
     </g>
     <g id="line2d_4">
      <g>
       <use xlink:href="#m41256befec" x="143.950008" y="354.797416" style="stroke: #000000; stroke-width: 0.8"/>
      </g>
     </g>
     <g id="text_2">
      <!-- 19.2 -->
      <g transform="translate(132.817196 369.395073) scale(0.1 -0.1)">
       <defs>
        <path id="DejaVuSans-15" d="M 1228 531 
L 3431 531 
L 3431 0 
L 469 0 
L 469 531 
Q 828 903 1448 1529 
Q 2069 2156 2228 2338 
Q 2531 2678 2651 2914 
Q 2772 3150 2772 3378 
Q 2772 3750 2511 3984 
Q 2250 4219 1831 4219 
Q 1534 4219 1204 4116 
Q 875 4013 500 3803 
L 500 4441 
Q 881 4594 1212 4672 
Q 1544 4750 1819 4750 
Q 2544 4750 2975 4387 
Q 3406 4025 3406 3419 
Q 3406 3131 3298 2873 
Q 3191 2616 2906 2266 
Q 2828 2175 2409 1742 
Q 1991 1309 1228 531 
z
" transform="scale(0.015625)"/>
       </defs>
       <use xlink:href="#DejaVuSans-14"/>
       <use xlink:href="#DejaVuSans-1c" transform="translate(63.625 0)"/>
       <use xlink:href="#DejaVuSans-11" transform="translate(127.25 0)"/>
       <use xlink:href="#DejaVuSans-15" transform="translate(159.03125 0)"/>
      </g>
     </g>
    </g>
    <g id="xtick_3">
     <g id="line2d_5">
      <path d="M 215.992624 354.797416 
L 215.992624 18.118365 
" clip-path="url(#p38dff0d139)" style="fill: none; stroke: #d1d5db; stroke-opacity: 0.65; stroke-width: 0.6; stroke-linecap: square"/>
     </g>
     <g id="line2d_6">
      <g>
       <use xlink:href="#m41256befec" x="215.992624" y="354.797416" style="stroke: #000000; stroke-width: 0.8"/>
      </g>
     </g>
     <g id="text_3">
      <!-- 19.3 -->
      <g transform="translate(204.859811 369.395073) scale(0.1 -0.1)">
       <defs>
        <path id="DejaVuSans-16" d="M 2597 2516 
Q 3050 2419 3304 2112 
Q 3559 1806 3559 1356 
Q 3559 666 3084 287 
Q 2609 -91 1734 -91 
Q 1441 -91 1130 -33 
Q 819 25 488 141 
L 488 750 
Q 750 597 1062 519 
Q 1375 441 1716 441 
Q 2309 441 2620 675 
Q 2931 909 2931 1356 
Q 2931 1769 2642 2001 
Q 2353 2234 1838 2234 
L 1294 2234 
L 1294 2753 
L 1863 2753 
Q 2328 2753 2575 2939 
Q 2822 3125 2822 3475 
Q 2822 3834 2567 4026 
Q 2313 4219 1838 4219 
Q 1578 4219 1281 4162 
Q 984 4106 628 3988 
L 628 4550 
Q 988 4650 1302 4700 
Q 1616 4750 1894 4750 
Q 2613 4750 3031 4423 
Q 3450 4097 3450 3541 
Q 3450 3153 3228 2886 
Q 3006 2619 2597 2516 
z
" transform="scale(0.015625)"/>
       </defs>
       <use xlink:href="#DejaVuSans-14"/>
       <use xlink:href="#DejaVuSans-1c" transform="translate(63.625 0)"/>
       <use xlink:href="#DejaVuSans-11" transform="translate(127.25 0)"/>
       <use xlink:href="#DejaVuSans-16" transform="translate(159.03125 0)"/>
      </g>
     </g>
    </g>
    <g id="xtick_4">
     <g id="line2d_7">
      <path d="M 288.03524 354.797416 
L 288.03524 18.118365 
" clip-path="url(#p38dff0d139)" style="fill: none; stroke: #d1d5db; stroke-opacity: 0.65; stroke-width: 0.6; stroke-linecap: square"/>
     </g>
     <g id="line2d_8">
      <g>
       <use xlink:href="#m41256befec" x="288.03524" y="354.797416" style="stroke: #000000; stroke-width: 0.8"/>
      </g>
     </g>
     <g id="text_4">
      <!-- 19.4 -->
      <g transform="translate(276.902427 369.395073) scale(0.1 -0.1)">
       <defs>
        <path id="DejaVuSans-17" d="M 2419 4116 
L 825 1625 
L 2419 1625 
L 2419 4116 
z
M 2253 4666 
L 3047 4666 
L 3047 1625 
L 3713 1625 
L 3713 1100 
L 3047 1100 
L 3047 0 
L 2419 0 
L 2419 1100 
L 313 1100 
L 313 1709 
L 2253 4666 
z
" transform="scale(0.015625)"/>
       </defs>
       <use xlink:href="#DejaVuSans-14"/>
       <use xlink:href="#DejaVuSans-1c" transform="translate(63.625 0)"/>
       <use xlink:href="#DejaVuSans-11" transform="translate(127.25 0)"/>
       <use xlink:href="#DejaVuSans-17" transform="translate(159.03125 0)"/>
      </g>
     </g>
    </g>
    <g id="xtick_5">
     <g id="line2d_9">
      <path d="M 360.077855 354.797416 
L 360.077855 18.118365 
" clip-path="url(#p38dff0d139)" style="fill: none; stroke: #d1d5db; stroke-opacity: 0.65; stroke-width: 0.6; stroke-linecap: square"/>
     </g>
     <g id="line2d_10">
      <g>
       <use xlink:href="#m41256befec" x="360.077855" y="354.797416" style="stroke: #000000; stroke-width: 0.8"/>
      </g>
     </g>
     <g id="text_5">
      <!-- 19.5 -->
      <g transform="translate(348.945043 369.395073) scale(0.1 -0.1)">
       <defs>
        <path id="DejaVuSans-18" d="M 691 4666 
L 3169 4666 
L 3169 4134 
L 1269 4134 
L 1269 2991 
Q 1406 3038 1543 3061 
Q 1681 3084 1819 3084 
Q 2600 3084 3056 2656 
Q 3513 2228 3513 1497 
Q 3513 744 3044 326 
Q 2575 -91 1722 -91 
Q 1428 -91 1123 -41 
Q 819 9 494 109 
L 494 744 
Q 775 591 1075 516 
Q 1375 441 1709 441 
Q 2250 441 2565 725 
Q 2881 1009 2881 1497 
Q 2881 1984 2565 2268 
Q 2250 2553 1709 2553 
Q 1456 2553 1204 2497 
Q 953 2441 691 2322 
L 691 4666 
z
" transform="scale(0.015625)"/>
       </defs>
       <use xlink:href="#DejaVuSans-14"/>
       <use xlink:href="#DejaVuSans-1c" transform="translate(63.625 0)"/>
       <use xlink:href="#DejaVuSans-11" transform="translate(127.25 0)"/>
       <use xlink:href="#DejaVuSans-18" transform="translate(159.03125 0)"/>
      </g>
     </g>
    </g>
    <g id="xtick_6">
     <g id="line2d_11">
      <path d="M 432.120471 354.797416 
L 432.120471 18.118365 
" clip-path="url(#p38dff0d139)" style="fill: none; stroke: #d1d5db; stroke-opacity: 0.65; stroke-width: 0.6; stroke-linecap: square"/>
     </g>
     <g id="line2d_12">
      <g>
       <use xlink:href="#m41256befec" x="432.120471" y="354.797416" style="stroke: #000000; stroke-width: 0.8"/>
      </g>
     </g>
     <g id="text_6">
      <!-- 19.6 -->
      <g transform="translate(420.987659 369.395073) scale(0.1 -0.1)">
       <defs>
        <path id="DejaVuSans-19" d="M 2113 2584 
Q 1688 2584 1439 2293 
Q 1191 2003 1191 1497 
Q 1191 994 1439 701 
Q 1688 409 2113 409 
Q 2538 409 2786 701 
Q 3034 994 3034 1497 
Q 3034 2003 2786 2293 
Q 2538 2584 2113 2584 
z
M 3366 4563 
L 3366 3988 
Q 3128 4100 2886 4159 
Q 2644 4219 2406 4219 
Q 1781 4219 1451 3797 
Q 1122 3375 1075 2522 
Q 1259 2794 1537 2939 
Q 1816 3084 2150 3084 
Q 2853 3084 3261 2657 
Q 3669 2231 3669 1497 
Q 3669 778 3244 343 
Q 2819 -91 2113 -91 
Q 1303 -91 875 529 
Q 447 1150 447 2328 
Q 447 3434 972 4092 
Q 1497 4750 2381 4750 
Q 2619 4750 2861 4703 
Q 3103 4656 3366 4563 
z
" transform="scale(0.015625)"/>
       </defs>
       <use xlink:href="#DejaVuSans-14"/>
       <use xlink:href="#DejaVuSans-1c" transform="translate(63.625 0)"/>
       <use xlink:href="#DejaVuSans-11" transform="translate(127.25 0)"/>
       <use xlink:href="#DejaVuSans-19" transform="translate(159.03125 0)"/>
      </g>
     </g>
    </g>
    <g id="xtick_7">
     <g id="line2d_13">
      <path d="M 504.163087 354.797416 
L 504.163087 18.118365 
" clip-path="url(#p38dff0d139)" style="fill: none; stroke: #d1d5db; stroke-opacity: 0.65; stroke-width: 0.6; stroke-linecap: square"/>
     </g>
     <g id="line2d_14">
      <g>
       <use xlink:href="#m41256befec" x="504.163087" y="354.797416" style="stroke: #000000; stroke-width: 0.8"/>
      </g>
     </g>
     <g id="text_7">
      <!-- 19.7 -->
      <g transform="translate(493.030275 369.395073) scale(0.1 -0.1)">
       <defs>
        <path id="DejaVuSans-1a" d="M 525 4666 
L 3525 4666 
L 3525 4397 
L 1831 0 
L 1172 0 
L 2766 4134 
L 525 4134 
L 525 4666 
z
" transform="scale(0.015625)"/>
       </defs>
       <use xlink:href="#DejaVuSans-14"/>
       <use xlink:href="#DejaVuSans-1c" transform="translate(63.625 0)"/>
       <use xlink:href="#DejaVuSans-11" transform="translate(127.25 0)"/>
       <use xlink:href="#DejaVuSans-1a" transform="translate(159.03125 0)"/>
      </g>
     </g>
    </g>
    <g id="xtick_8">
     <g id="line2d_15">
      <path d="M 576.205703 354.797416 
L 576.205703 18.118365 
" clip-path="url(#p38dff0d139)" style="fill: none; stroke: #d1d5db; stroke-opacity: 0.65; stroke-width: 0.6; stroke-linecap: square"/>
     </g>
     <g id="line2d_16">
      <g>
       <use xlink:href="#m41256befec" x="576.205703" y="354.797416" style="stroke: #000000; stroke-width: 0.8"/>
      </g>
     </g>
     <g id="text_8">
      <!-- 19.8 -->
      <g transform="translate(565.07289 369.395073) scale(0.1 -0.1)">
       <defs>
        <path id="DejaVuSans-1b" d="M 2034 2216 
Q 1584 2216 1326 1975 
Q 1069 1734 1069 1313 
Q 1069 891 1326 650 
Q 1584 409 2034 409 
Q 2484 409 2743 651 
Q 3003 894 3003 1313 
Q 3003 1734 2745 1975 
Q 2488 2216 2034 2216 
z
M 1403 2484 
Q 997 2584 770 2862 
Q 544 3141 544 3541 
Q 544 4100 942 4425 
Q 1341 4750 2034 4750 
Q 2731 4750 3128 4425 
Q 3525 4100 3525 3541 
Q 3525 3141 3298 2862 
Q 3072 2584 2669 2484 
Q 3125 2378 3379 2068 
Q 3634 1759 3634 1313 
Q 3634 634 3220 271 
Q 2806 -91 2034 -91 
Q 1263 -91 848 271 
Q 434 634 434 1313 
Q 434 1759 690 2068 
Q 947 2378 1403 2484 
z
M 1172 3481 
Q 1172 3119 1398 2916 
Q 1625 2713 2034 2713 
Q 2441 2713 2670 2916 
Q 2900 3119 2900 3481 
Q 2900 3844 2670 4047 
Q 2441 4250 2034 4250 
Q 1625 4250 1398 4047 
Q 1172 3844 1172 3481 
z
" transform="scale(0.015625)"/>
       </defs>
       <use xlink:href="#DejaVuSans-14"/>
       <use xlink:href="#DejaVuSans-1c" transform="translate(63.625 0)"/>
       <use xlink:href="#DejaVuSans-11" transform="translate(127.25 0)"/>
       <use xlink:href="#DejaVuSans-1b" transform="translate(159.03125 0)"/>
      </g>
     </g>
    </g>
    <g id="xtick_9">
     <g id="line2d_17">
      <path d="M 648.248319 354.797416 
L 648.248319 18.118365 
" clip-path="url(#p38dff0d139)" style="fill: none; stroke: #d1d5db; stroke-opacity: 0.65; stroke-width: 0.6; stroke-linecap: square"/>
     </g>
     <g id="line2d_18">
      <g>
       <use xlink:href="#m41256befec" x="648.248319" y="354.797416" style="stroke: #000000; stroke-width: 0.8"/>
      </g>
     </g>
     <g id="text_9">
      <!-- 19.9 -->
      <g transform="translate(637.115506 369.395073) scale(0.1 -0.1)">
       <use xlink:href="#DejaVuSans-14"/>
       <use xlink:href="#DejaVuSans-1c" transform="translate(63.625 0)"/>
       <use xlink:href="#DejaVuSans-11" transform="translate(127.25 0)"/>
       <use xlink:href="#DejaVuSans-1c" transform="translate(159.03125 0)"/>
      </g>
     </g>
    </g>
    <g id="text_10">
     <!-- Quaternion prime size $\log_2 p$ -->
     <g transform="translate(277.551966 383.397416) scale(0.1 -0.1)">
      <defs>
       <path id="DejaVuSans-34" d="M 2522 4238 
Q 1834 4238 1429 3725 
Q 1025 3213 1025 2328 
Q 1025 1447 1429 934 
Q 1834 422 2522 422 
Q 3209 422 3611 934 
Q 4013 1447 4013 2328 
Q 4013 3213 3611 3725 
Q 3209 4238 2522 4238 
z
M 3406 84 
L 4238 -825 
L 3475 -825 
L 2784 -78 
Q 2681 -84 2626 -87 
Q 2572 -91 2522 -91 
Q 1538 -91 948 567 
Q 359 1225 359 2328 
Q 359 3434 948 4092 
Q 1538 4750 2522 4750 
Q 3503 4750 4090 4092 
Q 4678 3434 4678 2328 
Q 4678 1516 4351 937 
Q 4025 359 3406 84 
z
" transform="scale(0.015625)"/>
       <path id="DejaVuSans-58" d="M 544 1381 
L 544 3500 
L 1119 3500 
L 1119 1403 
Q 1119 906 1312 657 
Q 1506 409 1894 409 
Q 2359 409 2629 706 
Q 2900 1003 2900 1516 
L 2900 3500 
L 3475 3500 
L 3475 0 
L 2900 0 
L 2900 538 
Q 2691 219 2414 64 
Q 2138 -91 1772 -91 
Q 1169 -91 856 284 
Q 544 659 544 1381 
z
M 1991 3584 
L 1991 3584 
z
" transform="scale(0.015625)"/>
       <path id="DejaVuSans-44" d="M 2194 1759 
Q 1497 1759 1228 1600 
Q 959 1441 959 1056 
Q 959 750 1161 570 
Q 1363 391 1709 391 
Q 2188 391 2477 730 
Q 2766 1069 2766 1631 
L 2766 1759 
L 2194 1759 
z
M 3341 1997 
L 3341 0 
L 2766 0 
L 2766 531 
Q 2569 213 2275 61 
Q 1981 -91 1556 -91 
Q 1019 -91 701 211 
Q 384 513 384 1019 
Q 384 1609 779 1909 
Q 1175 2209 1959 2209 
L 2766 2209 
L 2766 2266 
Q 2766 2663 2505 2880 
Q 2244 3097 1772 3097 
Q 1472 3097 1187 3025 
Q 903 2953 641 2809 
L 641 3341 
Q 956 3463 1253 3523 
Q 1550 3584 1831 3584 
Q 2591 3584 2966 3190 
Q 3341 2797 3341 1997 
z
" transform="scale(0.015625)"/>
       <path id="DejaVuSans-57" d="M 1172 4494 
L 1172 3500 
L 2356 3500 
L 2356 3053 
L 1172 3053 
L 1172 1153 
Q 1172 725 1289 603 
Q 1406 481 1766 481 
L 2356 481 
L 2356 0 
L 1766 0 
Q 1100 0 847 248 
Q 594 497 594 1153 
L 594 3053 
L 172 3053 
L 172 3500 
L 594 3500 
L 594 4494 
L 1172 4494 
z
" transform="scale(0.015625)"/>
       <path id="DejaVuSans-48" d="M 3597 1894 
L 3597 1613 
L 953 1613 
Q 991 1019 1311 708 
Q 1631 397 2203 397 
Q 2534 397 2845 478 
Q 3156 559 3463 722 
L 3463 178 
Q 3153 47 2828 -22 
Q 2503 -91 2169 -91 
Q 1331 -91 842 396 
Q 353 884 353 1716 
Q 353 2575 817 3079 
Q 1281 3584 2069 3584 
Q 2775 3584 3186 3129 
Q 3597 2675 3597 1894 
z
M 3022 2063 
Q 3016 2534 2758 2815 
Q 2500 3097 2075 3097 
Q 1594 3097 1305 2825 
Q 1016 2553 972 2059 
L 3022 2063 
z
" transform="scale(0.015625)"/>
       <path id="DejaVuSans-55" d="M 2631 2963 
Q 2534 3019 2420 3045 
Q 2306 3072 2169 3072 
Q 1681 3072 1420 2755 
Q 1159 2438 1159 1844 
L 1159 0 
L 581 0 
L 581 3500 
L 1159 3500 
L 1159 2956 
Q 1341 3275 1631 3429 
Q 1922 3584 2338 3584 
Q 2397 3584 2469 3576 
Q 2541 3569 2628 3553 
L 2631 2963 
z
" transform="scale(0.015625)"/>
       <path id="DejaVuSans-51" d="M 3513 2113 
L 3513 0 
L 2938 0 
L 2938 2094 
Q 2938 2591 2744 2837 
Q 2550 3084 2163 3084 
Q 1697 3084 1428 2787 
Q 1159 2491 1159 1978 
L 1159 0 
L 581 0 
L 581 3500 
L 1159 3500 
L 1159 2956 
Q 1366 3272 1645 3428 
Q 1925 3584 2291 3584 
Q 2894 3584 3203 3211 
Q 3513 2838 3513 2113 
z
" transform="scale(0.015625)"/>
       <path id="DejaVuSans-4c" d="M 603 3500 
L 1178 3500 
L 1178 0 
L 603 0 
L 603 3500 
z
M 603 4863 
L 1178 4863 
L 1178 4134 
L 603 4134 
L 603 4863 
z
" transform="scale(0.015625)"/>
       <path id="DejaVuSans-52" d="M 1959 3097 
Q 1497 3097 1228 2736 
Q 959 2375 959 1747 
Q 959 1119 1226 758 
Q 1494 397 1959 397 
Q 2419 397 2687 759 
Q 2956 1122 2956 1747 
Q 2956 2369 2687 2733 
Q 2419 3097 1959 3097 
z
M 1959 3584 
Q 2709 3584 3137 3096 
Q 3566 2609 3566 1747 
Q 3566 888 3137 398 
Q 2709 -91 1959 -91 
Q 1206 -91 779 398 
Q 353 888 353 1747 
Q 353 2609 779 3096 
Q 1206 3584 1959 3584 
z
" transform="scale(0.015625)"/>
       <path id="DejaVuSans-3" transform="scale(0.015625)"/>
       <path id="DejaVuSans-53" d="M 1159 525 
L 1159 -1331 
L 581 -1331 
L 581 3500 
L 1159 3500 
L 1159 2969 
Q 1341 3281 1617 3432 
Q 1894 3584 2278 3584 
Q 2916 3584 3314 3078 
Q 3713 2572 3713 1747 
Q 3713 922 3314 415 
Q 2916 -91 2278 -91 
Q 1894 -91 1617 61 
Q 1341 213 1159 525 
z
M 3116 1747 
Q 3116 2381 2855 2742 
Q 2594 3103 2138 3103 
Q 1681 3103 1420 2742 
Q 1159 2381 1159 1747 
Q 1159 1113 1420 752 
Q 1681 391 2138 391 
Q 2594 391 2855 752 
Q 3116 1113 3116 1747 
z
" transform="scale(0.015625)"/>
       <path id="DejaVuSans-50" d="M 3328 2828 
Q 3544 3216 3844 3400 
Q 4144 3584 4550 3584 
Q 5097 3584 5394 3201 
Q 5691 2819 5691 2113 
L 5691 0 
L 5113 0 
L 5113 2094 
Q 5113 2597 4934 2840 
Q 4756 3084 4391 3084 
Q 3944 3084 3684 2787 
Q 3425 2491 3425 1978 
L 3425 0 
L 2847 0 
L 2847 2094 
Q 2847 2600 2669 2842 
Q 2491 3084 2119 3084 
Q 1678 3084 1418 2786 
Q 1159 2488 1159 1978 
L 1159 0 
L 581 0 
L 581 3500 
L 1159 3500 
L 1159 2956 
Q 1356 3278 1631 3431 
Q 1906 3584 2284 3584 
Q 2666 3584 2933 3390 
Q 3200 3197 3328 2828 
z
" transform="scale(0.015625)"/>
       <path id="DejaVuSans-56" d="M 2834 3397 
L 2834 2853 
Q 2591 2978 2328 3040 
Q 2066 3103 1784 3103 
Q 1356 3103 1142 2972 
Q 928 2841 928 2578 
Q 928 2378 1081 2264 
Q 1234 2150 1697 2047 
L 1894 2003 
Q 2506 1872 2764 1633 
Q 3022 1394 3022 966 
Q 3022 478 2636 193 
Q 2250 -91 1575 -91 
Q 1294 -91 989 -36 
Q 684 19 347 128 
L 347 722 
Q 666 556 975 473 
Q 1284 391 1588 391 
Q 1994 391 2212 530 
Q 2431 669 2431 922 
Q 2431 1156 2273 1281 
Q 2116 1406 1581 1522 
L 1381 1569 
Q 847 1681 609 1914 
Q 372 2147 372 2553 
Q 372 3047 722 3315 
Q 1072 3584 1716 3584 
Q 2034 3584 2315 3537 
Q 2597 3491 2834 3397 
z
" transform="scale(0.015625)"/>
       <path id="DejaVuSans-5d" d="M 353 3500 
L 3084 3500 
L 3084 2975 
L 922 459 
L 3084 459 
L 3084 0 
L 275 0 
L 275 525 
L 2438 3041 
L 353 3041 
L 353 3500 
z
" transform="scale(0.015625)"/>
       <path id="DejaVuSans-4f" d="M 603 4863 
L 1178 4863 
L 1178 0 
L 603 0 
L 603 4863 
z
" transform="scale(0.015625)"/>
       <path id="DejaVuSans-4a" d="M 2906 1791 
Q 2906 2416 2648 2759 
Q 2391 3103 1925 3103 
Q 1463 3103 1205 2759 
Q 947 2416 947 1791 
Q 947 1169 1205 825 
Q 1463 481 1925 481 
Q 2391 481 2648 825 
Q 2906 1169 2906 1791 
z
M 3481 434 
Q 3481 -459 3084 -895 
Q 2688 -1331 1869 -1331 
Q 1566 -1331 1297 -1286 
Q 1028 -1241 775 -1147 
L 775 -588 
Q 1028 -725 1275 -790 
Q 1522 -856 1778 -856 
Q 2344 -856 2625 -561 
Q 2906 -266 2906 331 
L 2906 616 
Q 2728 306 2450 153 
Q 2172 0 1784 0 
Q 1141 0 747 490 
Q 353 981 353 1791 
Q 353 2603 747 3093 
Q 1141 3584 1784 3584 
Q 2172 3584 2450 3431 
Q 2728 3278 2906 2969 
L 2906 3500 
L 3481 3500 
L 3481 434 
z
" transform="scale(0.015625)"/>
       <path id="DejaVuSans-Oblique-53" d="M 3175 2156 
Q 3175 2616 2975 2859 
Q 2775 3103 2400 3103 
Q 2144 3103 1911 2972 
Q 1678 2841 1497 2591 
Q 1319 2344 1212 1994 
Q 1106 1644 1106 1300 
Q 1106 863 1306 627 
Q 1506 391 1875 391 
Q 2147 391 2380 519 
Q 2613 647 2778 891 
Q 2956 1147 3065 1494 
Q 3175 1841 3175 2156 
z
M 1394 2969 
Q 1625 3272 1939 3428 
Q 2253 3584 2638 3584 
Q 3175 3584 3472 3232 
Q 3769 2881 3769 2247 
Q 3769 1728 3584 1258 
Q 3400 788 3053 416 
Q 2822 169 2531 39 
Q 2241 -91 1919 -91 
Q 1547 -91 1294 64 
Q 1041 219 916 525 
L 556 -1331 
L -19 -1331 
L 922 3500 
L 1497 3500 
L 1394 2969 
z
" transform="scale(0.015625)"/>
      </defs>
      <use xlink:href="#DejaVuSans-34" transform="translate(0 0.015625)"/>
      <use xlink:href="#DejaVuSans-58" transform="translate(78.710938 0.015625)"/>
      <use xlink:href="#DejaVuSans-44" transform="translate(142.089844 0.015625)"/>
      <use xlink:href="#DejaVuSans-57" transform="translate(203.369141 0.015625)"/>
      <use xlink:href="#DejaVuSans-48" transform="translate(242.578125 0.015625)"/>
      <use xlink:href="#DejaVuSans-55" transform="translate(304.101562 0.015625)"/>
      <use xlink:href="#DejaVuSans-51" transform="translate(343.214844 0.015625)"/>
      <use xlink:href="#DejaVuSans-4c" transform="translate(406.59375 0.015625)"/>
      <use xlink:href="#DejaVuSans-52" transform="translate(434.376953 0.015625)"/>
      <use xlink:href="#DejaVuSans-51" transform="translate(495.558594 0.015625)"/>
      <use xlink:href="#DejaVuSans-3" transform="translate(558.9375 0.015625)"/>
      <use xlink:href="#DejaVuSans-53" transform="translate(590.724609 0.015625)"/>
      <use xlink:href="#DejaVuSans-55" transform="translate(654.201172 0.015625)"/>
      <use xlink:href="#DejaVuSans-4c" transform="translate(695.314453 0.015625)"/>
      <use xlink:href="#DejaVuSans-50" transform="translate(723.097656 0.015625)"/>
      <use xlink:href="#DejaVuSans-48" transform="translate(820.509766 0.015625)"/>
      <use xlink:href="#DejaVuSans-3" transform="translate(882.033203 0.015625)"/>
      <use xlink:href="#DejaVuSans-56" transform="translate(913.820312 0.015625)"/>
      <use xlink:href="#DejaVuSans-4c" transform="translate(965.919922 0.015625)"/>
      <use xlink:href="#DejaVuSans-5d" transform="translate(993.703125 0.015625)"/>
      <use xlink:href="#DejaVuSans-48" transform="translate(1046.193359 0.015625)"/>
      <use xlink:href="#DejaVuSans-3" transform="translate(1107.716797 0.015625)"/>
      <use xlink:href="#DejaVuSans-4f" transform="translate(1139.503906 0.015625)"/>
      <use xlink:href="#DejaVuSans-52" transform="translate(1167.287109 0.015625)"/>
      <use xlink:href="#DejaVuSans-4a" transform="translate(1228.46875 0.015625)"/>
      <use xlink:href="#DejaVuSans-15" transform="translate(1292.902344 -14.984326) scale(0.7)"/>
      <use xlink:href="#DejaVuSans-Oblique-53" transform="translate(1356.408528 0.015625)"/>
     </g>
    </g>
   </g>
   <g id="matplotlib.axis_2">
    <g id="ytick_1">
     <g id="line2d_19">
      <path d="M 40.503365 324.749506 
L 656.600568 324.749506 
" clip-path="url(#p38dff0d139)" style="fill: none; stroke: #d1d5db; stroke-opacity: 0.65; stroke-width: 0.6; stroke-linecap: square"/>
     </g>
     <g id="line2d_20">
      <defs>
       <path id="m973fd04ad6" d="M 0 0 
L -3.5 0 
" style="stroke: #000000; stroke-width: 0.8"/>
      </defs>
      <g>
       <use xlink:href="#m973fd04ad6" x="40.503365" y="324.749506" style="stroke: #000000; stroke-width: 0.8"/>
      </g>
     </g>
     <g id="text_11">
      <!-- 0.1 -->
      <g transform="translate(17.60024 328.548334) scale(0.1 -0.1)">
       <defs>
        <path id="DejaVuSans-13" d="M 2034 4250 
Q 1547 4250 1301 3770 
Q 1056 3291 1056 2328 
Q 1056 1369 1301 889 
Q 1547 409 2034 409 
Q 2525 409 2770 889 
Q 3016 1369 3016 2328 
Q 3016 3291 2770 3770 
Q 2525 4250 2034 4250 
z
M 2034 4750 
Q 2819 4750 3233 4129 
Q 3647 3509 3647 2328 
Q 3647 1150 3233 529 
Q 2819 -91 2034 -91 
Q 1250 -91 836 529 
Q 422 1150 422 2328 
Q 422 3509 836 4129 
Q 1250 4750 2034 4750 
z
" transform="scale(0.015625)"/>
       </defs>
       <use xlink:href="#DejaVuSans-13"/>
       <use xlink:href="#DejaVuSans-11" transform="translate(63.625 0)"/>
       <use xlink:href="#DejaVuSans-14" transform="translate(95.40625 0)"/>
      </g>
     </g>
    </g>
    <g id="ytick_2">
     <g id="line2d_21">
      <path d="M 40.503365 251.917619 
L 656.600568 251.917619 
" clip-path="url(#p38dff0d139)" style="fill: none; stroke: #d1d5db; stroke-opacity: 0.65; stroke-width: 0.6; stroke-linecap: square"/>
     </g>
     <g id="line2d_22">
      <g>
       <use xlink:href="#m973fd04ad6" x="40.503365" y="251.917619" style="stroke: #000000; stroke-width: 0.8"/>
      </g>
     </g>
     <g id="text_12">
      <!-- 0.2 -->
      <g transform="translate(17.60024 255.716447) scale(0.1 -0.1)">
       <use xlink:href="#DejaVuSans-13"/>
       <use xlink:href="#DejaVuSans-11" transform="translate(63.625 0)"/>
       <use xlink:href="#DejaVuSans-15" transform="translate(95.40625 0)"/>
      </g>
     </g>
    </g>
    <g id="ytick_3">
     <g id="line2d_23">
      <path d="M 40.503365 179.085732 
L 656.600568 179.085732 
" clip-path="url(#p38dff0d139)" style="fill: none; stroke: #d1d5db; stroke-opacity: 0.65; stroke-width: 0.6; stroke-linecap: square"/>
     </g>
     <g id="line2d_24">
      <g>
       <use xlink:href="#m973fd04ad6" x="40.503365" y="179.085732" style="stroke: #000000; stroke-width: 0.8"/>
      </g>
     </g>
     <g id="text_13">
      <!-- 0.3 -->
      <g transform="translate(17.60024 182.88456) scale(0.1 -0.1)">
       <use xlink:href="#DejaVuSans-13"/>
       <use xlink:href="#DejaVuSans-11" transform="translate(63.625 0)"/>
       <use xlink:href="#DejaVuSans-16" transform="translate(95.40625 0)"/>
      </g>
     </g>
    </g>
    <g id="ytick_4">
     <g id="line2d_25">
      <path d="M 40.503365 106.253845 
L 656.600568 106.253845 
" clip-path="url(#p38dff0d139)" style="fill: none; stroke: #d1d5db; stroke-opacity: 0.65; stroke-width: 0.6; stroke-linecap: square"/>
     </g>
     <g id="line2d_26">
      <g>
       <use xlink:href="#m973fd04ad6" x="40.503365" y="106.253845" style="stroke: #000000; stroke-width: 0.8"/>
      </g>
     </g>
     <g id="text_14">
      <!-- 0.4 -->
      <g transform="translate(17.60024 110.052673) scale(0.1 -0.1)">
       <use xlink:href="#DejaVuSans-13"/>
       <use xlink:href="#DejaVuSans-11" transform="translate(63.625 0)"/>
       <use xlink:href="#DejaVuSans-17" transform="translate(95.40625 0)"/>
      </g>
     </g>
    </g>
    <g id="ytick_5">
     <g id="line2d_27">
      <path d="M 40.503365 33.421958 
L 656.600568 33.421958 
" clip-path="url(#p38dff0d139)" style="fill: none; stroke: #d1d5db; stroke-opacity: 0.65; stroke-width: 0.6; stroke-linecap: square"/>
     </g>
     <g id="line2d_28">
      <g>
       <use xlink:href="#m973fd04ad6" x="40.503365" y="33.421958" style="stroke: #000000; stroke-width: 0.8"/>
      </g>
     </g>
     <g id="text_15">
      <!-- 0.5 -->
      <g transform="translate(17.60024 37.220786) scale(0.1 -0.1)">
       <use xlink:href="#DejaVuSans-13"/>
       <use xlink:href="#DejaVuSans-11" transform="translate(63.625 0)"/>
       <use xlink:href="#DejaVuSans-18" transform="translate(95.40625 0)"/>
      </g>
     </g>
    </g>
    <g id="text_16">
     <!-- Equivalent-ideal exponent $\log_p N(J)$ -->
     <g transform="translate(10.60024 273.557891) rotate(-90) scale(0.1 -0.1)">
      <defs>
       <path id="DejaVuSans-28" d="M 628 4666 
L 3578 4666 
L 3578 4134 
L 1259 4134 
L 1259 2753 
L 3481 2753 
L 3481 2222 
L 1259 2222 
L 1259 531 
L 3634 531 
L 3634 0 
L 628 0 
L 628 4666 
z
" transform="scale(0.015625)"/>
       <path id="DejaVuSans-54" d="M 947 1747 
Q 947 1113 1208 752 
Q 1469 391 1925 391 
Q 2381 391 2643 752 
Q 2906 1113 2906 1747 
Q 2906 2381 2643 2742 
Q 2381 3103 1925 3103 
Q 1469 3103 1208 2742 
Q 947 2381 947 1747 
z
M 2906 525 
Q 2725 213 2448 61 
Q 2172 -91 1784 -91 
Q 1150 -91 751 415 
Q 353 922 353 1747 
Q 353 2572 751 3078 
Q 1150 3584 1784 3584 
Q 2172 3584 2448 3432 
Q 2725 3281 2906 2969 
L 2906 3500 
L 3481 3500 
L 3481 -1331 
L 2906 -1331 
L 2906 525 
z
" transform="scale(0.015625)"/>
       <path id="DejaVuSans-59" d="M 191 3500 
L 800 3500 
L 1894 563 
L 2988 3500 
L 3597 3500 
L 2284 0 
L 1503 0 
L 191 3500 
z
" transform="scale(0.015625)"/>
       <path id="DejaVuSans-10" d="M 313 2009 
L 1997 2009 
L 1997 1497 
L 313 1497 
L 313 2009 
z
" transform="scale(0.015625)"/>
       <path id="DejaVuSans-47" d="M 2906 2969 
L 2906 4863 
L 3481 4863 
L 3481 0 
L 2906 0 
L 2906 525 
Q 2725 213 2448 61 
Q 2172 -91 1784 -91 
Q 1150 -91 751 415 
Q 353 922 353 1747 
Q 353 2572 751 3078 
Q 1150 3584 1784 3584 
Q 2172 3584 2448 3432 
Q 2725 3281 2906 2969 
z
M 947 1747 
Q 947 1113 1208 752 
Q 1469 391 1925 391 
Q 2381 391 2643 752 
Q 2906 1113 2906 1747 
Q 2906 2381 2643 2742 
Q 2381 3103 1925 3103 
Q 1469 3103 1208 2742 
Q 947 2381 947 1747 
z
" transform="scale(0.015625)"/>
       <path id="DejaVuSans-5b" d="M 3513 3500 
L 2247 1797 
L 3578 0 
L 2900 0 
L 1881 1375 
L 863 0 
L 184 0 
L 1544 1831 
L 300 3500 
L 978 3500 
L 1906 2253 
L 2834 3500 
L 3513 3500 
z
" transform="scale(0.015625)"/>
       <path id="DejaVuSans-Oblique-31" d="M 1081 4666 
L 1931 4666 
L 3219 666 
L 4000 4666 
L 4616 4666 
L 3706 0 
L 2853 0 
L 1569 4025 
L 788 0 
L 172 0 
L 1081 4666 
z
" transform="scale(0.015625)"/>
       <path id="DejaVuSans-b" d="M 1984 4856 
Q 1566 4138 1362 3434 
Q 1159 2731 1159 2009 
Q 1159 1288 1364 580 
Q 1569 -128 1984 -844 
L 1484 -844 
Q 1016 -109 783 600 
Q 550 1309 550 2009 
Q 550 2706 781 3412 
Q 1013 4119 1484 4856 
L 1984 4856 
z
" transform="scale(0.015625)"/>
       <path id="DejaVuSans-Oblique-2d" d="M 1069 4666 
L 1703 4666 
L 856 325 
Q 691 -522 298 -901 
Q -94 -1281 -800 -1281 
L -1050 -1281 
L -947 -750 
L -750 -750 
Q -328 -750 -109 -509 
Q 109 -269 225 325 
L 1069 4666 
z
" transform="scale(0.015625)"/>
       <path id="DejaVuSans-c" d="M 513 4856 
L 1013 4856 
Q 1481 4119 1714 3412 
Q 1947 2706 1947 2009 
Q 1947 1309 1714 600 
Q 1481 -109 1013 -844 
L 513 -844 
Q 928 -128 1133 580 
Q 1338 1288 1338 2009 
Q 1338 2731 1133 3434 
Q 928 4138 513 4856 
z
" transform="scale(0.015625)"/>
      </defs>
      <use xlink:href="#DejaVuSans-28" transform="translate(0 0.015625)"/>
      <use xlink:href="#DejaVuSans-54" transform="translate(63.183594 0.015625)"/>
      <use xlink:href="#DejaVuSans-58" transform="translate(126.660156 0.015625)"/>
      <use xlink:href="#DejaVuSans-4c" transform="translate(190.039062 0.015625)"/>
      <use xlink:href="#DejaVuSans-59" transform="translate(217.822266 0.015625)"/>
      <use xlink:href="#DejaVuSans-44" transform="translate(277.001953 0.015625)"/>
      <use xlink:href="#DejaVuSans-4f" transform="translate(338.28125 0.015625)"/>
      <use xlink:href="#DejaVuSans-48" transform="translate(366.064453 0.015625)"/>
      <use xlink:href="#DejaVuSans-51" transform="translate(427.587891 0.015625)"/>
      <use xlink:href="#DejaVuSans-57" transform="translate(490.966797 0.015625)"/>
      <use xlink:href="#DejaVuSans-10" transform="translate(530.175781 0.015625)"/>
      <use xlink:href="#DejaVuSans-4c" transform="translate(566.259766 0.015625)"/>
      <use xlink:href="#DejaVuSans-47" transform="translate(594.042969 0.015625)"/>
      <use xlink:href="#DejaVuSans-48" transform="translate(657.519531 0.015625)"/>
      <use xlink:href="#DejaVuSans-44" transform="translate(719.042969 0.015625)"/>
      <use xlink:href="#DejaVuSans-4f" transform="translate(780.322266 0.015625)"/>
      <use xlink:href="#DejaVuSans-3" transform="translate(808.105469 0.015625)"/>
      <use xlink:href="#DejaVuSans-48" transform="translate(839.892578 0.015625)"/>
      <use xlink:href="#DejaVuSans-5b" transform="translate(899.416016 0.015625)"/>
      <use xlink:href="#DejaVuSans-53" transform="translate(958.595703 0.015625)"/>
      <use xlink:href="#DejaVuSans-52" transform="translate(1022.072266 0.015625)"/>
      <use xlink:href="#DejaVuSans-51" transform="translate(1083.253906 0.015625)"/>
      <use xlink:href="#DejaVuSans-48" transform="translate(1146.632812 0.015625)"/>
      <use xlink:href="#DejaVuSans-51" transform="translate(1208.15625 0.015625)"/>
      <use xlink:href="#DejaVuSans-57" transform="translate(1271.535156 0.015625)"/>
      <use xlink:href="#DejaVuSans-3" transform="translate(1310.744141 0.015625)"/>
      <use xlink:href="#DejaVuSans-4f" transform="translate(1342.53125 0.015625)"/>
      <use xlink:href="#DejaVuSans-52" transform="translate(1370.314453 0.015625)"/>
      <use xlink:href="#DejaVuSans-4a" transform="translate(1431.496094 0.015625)"/>
      <use xlink:href="#DejaVuSans-Oblique-53" transform="translate(1495.929688 -14.984326) scale(0.7)"/>
      <use xlink:href="#DejaVuSans-Oblique-31" transform="translate(1559.333333 0.015625)"/>
      <use xlink:href="#DejaVuSans-b" transform="translate(1634.13802 0.015625)"/>
      <use xlink:href="#DejaVuSans-Oblique-2d" transform="translate(1673.151692 0.015625)"/>
      <use xlink:href="#DejaVuSans-c" transform="translate(1702.643879 0.015625)"/>
     </g>
    </g>
   </g>
   <g id="line2d_29">
    <path d="M 40.503365 33.421958 
L 656.600568 33.421958 
" clip-path="url(#p38dff0d139)" style="fill: none; stroke-dasharray: 4.44,1.92; stroke-dashoffset: 0; stroke: #1f2937; stroke-width: 1.2"/>
   </g>
   <g id="patch_3">
    <path d="M 40.503365 354.797416 
L 40.503365 18.118365 
" style="fill: none; stroke: #000000; stroke-width: 0.8; stroke-linejoin: miter; stroke-linecap: square"/>
   </g>
   <g id="patch_4">
    <path d="M 656.600568 354.797416 
L 656.600568 18.118365 
" style="fill: none; stroke: #000000; stroke-width: 0.8; stroke-linejoin: miter; stroke-linecap: square"/>
   </g>
   <g id="patch_5">
    <path d="M 40.503365 354.797416 
L 656.600568 354.797416 
" style="fill: none; stroke: #000000; stroke-width: 0.8; stroke-linejoin: miter; stroke-linecap: square"/>
   </g>
   <g id="patch_6">
    <path d="M 40.503365 18.118365 
L 656.600568 18.118365 
" style="fill: none; stroke: #000000; stroke-width: 0.8; stroke-linejoin: miter; stroke-linecap: square"/>
   </g>
   <g id="text_17">
    <g id="patch_7">
     <path d="M 46.769823 75.203106 
L 367.793573 75.203106 
L 367.793573 48.81127 
L 46.769823 48.81127 
z
" style="fill: #ffffff; opacity: 0.88"/>
    </g>
    <!-- n=30  |  LLL exact-hit=100.0%  |  median exact N(J)/sqrt(p)=0.025 -->
    <g style="fill: #374151" transform="translate(49.744823 59.13296) scale(0.085 -0.085)">
     <defs>
      <path id="DejaVuSans-20" d="M 678 2906 
L 4684 2906 
L 4684 2381 
L 678 2381 
L 678 2906 
z
M 678 1631 
L 4684 1631 
L 4684 1100 
L 678 1100 
L 678 1631 
z
" transform="scale(0.015625)"/>
      <path id="DejaVuSans-5f" d="M 1344 4891 
L 1344 -1509 
L 813 -1509 
L 813 4891 
L 1344 4891 
z
" transform="scale(0.015625)"/>
      <path id="DejaVuSans-2f" d="M 628 4666 
L 1259 4666 
L 1259 531 
L 3531 531 
L 3531 0 
L 628 0 
L 628 4666 
z
" transform="scale(0.015625)"/>
      <path id="DejaVuSans-46" d="M 3122 3366 
L 3122 2828 
Q 2878 2963 2633 3030 
Q 2388 3097 2138 3097 
Q 1578 3097 1268 2742 
Q 959 2388 959 1747 
Q 959 1106 1268 751 
Q 1578 397 2138 397 
Q 2388 397 2633 464 
Q 2878 531 3122 666 
L 3122 134 
Q 2881 22 2623 -34 
Q 2366 -91 2075 -91 
Q 1284 -91 818 406 
Q 353 903 353 1747 
Q 353 2603 823 3093 
Q 1294 3584 2113 3584 
Q 2378 3584 2631 3529 
Q 2884 3475 3122 3366 
z
" transform="scale(0.015625)"/>
      <path id="DejaVuSans-4b" d="M 3513 2113 
L 3513 0 
L 2938 0 
L 2938 2094 
Q 2938 2591 2744 2837 
Q 2550 3084 2163 3084 
Q 1697 3084 1428 2787 
Q 1159 2491 1159 1978 
L 1159 0 
L 581 0 
L 581 4863 
L 1159 4863 
L 1159 2956 
Q 1366 3272 1645 3428 
Q 1925 3584 2291 3584 
Q 2894 3584 3203 3211 
Q 3513 2838 3513 2113 
z
" transform="scale(0.015625)"/>
      <path id="DejaVuSans-8" d="M 4653 2053 
Q 4381 2053 4226 1822 
Q 4072 1591 4072 1178 
Q 4072 772 4226 539 
Q 4381 306 4653 306 
Q 4919 306 5073 539 
Q 5228 772 5228 1178 
Q 5228 1588 5073 1820 
Q 4919 2053 4653 2053 
z
M 4653 2450 
Q 5147 2450 5437 2106 
Q 5728 1763 5728 1178 
Q 5728 594 5436 251 
Q 5144 -91 4653 -91 
Q 4153 -91 3862 251 
Q 3572 594 3572 1178 
Q 3572 1766 3864 2108 
Q 4156 2450 4653 2450 
z
M 1428 4353 
Q 1159 4353 1004 4120 
Q 850 3888 850 3481 
Q 850 3069 1003 2837 
Q 1156 2606 1428 2606 
Q 1700 2606 1854 2837 
Q 2009 3069 2009 3481 
Q 2009 3884 1853 4118 
Q 1697 4353 1428 4353 
z
M 4250 4750 
L 4750 4750 
L 1831 -91 
L 1331 -91 
L 4250 4750 
z
M 1428 4750 
Q 1922 4750 2215 4408 
Q 2509 4066 2509 3481 
Q 2509 2891 2217 2550 
Q 1925 2209 1428 2209 
Q 931 2209 642 2551 
Q 353 2894 353 3481 
Q 353 4063 643 4406 
Q 934 4750 1428 4750 
z
" transform="scale(0.015625)"/>
      <path id="DejaVuSans-31" d="M 628 4666 
L 1478 4666 
L 3547 763 
L 3547 4666 
L 4159 4666 
L 4159 0 
L 3309 0 
L 1241 3903 
L 1241 0 
L 628 0 
L 628 4666 
z
" transform="scale(0.015625)"/>
      <path id="DejaVuSans-2d" d="M 628 4666 
L 1259 4666 
L 1259 325 
Q 1259 -519 939 -900 
Q 619 -1281 -91 -1281 
L -331 -1281 
L -331 -750 
L -134 -750 
Q 284 -750 456 -515 
Q 628 -281 628 325 
L 628 4666 
z
" transform="scale(0.015625)"/>
      <path id="DejaVuSans-12" d="M 1625 4666 
L 2156 4666 
L 531 -594 
L 0 -594 
L 1625 4666 
z
" transform="scale(0.015625)"/>
     </defs>
     <use xlink:href="#DejaVuSans-51"/>
     <use xlink:href="#DejaVuSans-20" transform="translate(63.375 0)"/>
     <use xlink:href="#DejaVuSans-16" transform="translate(147.171875 0)"/>
     <use xlink:href="#DejaVuSans-13" transform="translate(210.796875 0)"/>
     <use xlink:href="#DejaVuSans-3" transform="translate(274.421875 0)"/>
     <use xlink:href="#DejaVuSans-3" transform="translate(306.203125 0)"/>
     <use xlink:href="#DejaVuSans-5f" transform="translate(337.984375 0)"/>
     <use xlink:href="#DejaVuSans-3" transform="translate(371.671875 0)"/>
     <use xlink:href="#DejaVuSans-3" transform="translate(403.453125 0)"/>
     <use xlink:href="#DejaVuSans-2f" transform="translate(435.234375 0)"/>
     <use xlink:href="#DejaVuSans-2f" transform="translate(490.953125 0)"/>
     <use xlink:href="#DejaVuSans-2f" transform="translate(546.671875 0)"/>
     <use xlink:href="#DejaVuSans-3" transform="translate(602.390625 0)"/>
     <use xlink:href="#DejaVuSans-48" transform="translate(634.171875 0)"/>
     <use xlink:href="#DejaVuSans-5b" transform="translate(693.953125 0)"/>
     <use xlink:href="#DejaVuSans-44" transform="translate(753.140625 0)"/>
     <use xlink:href="#DejaVuSans-46" transform="translate(814.421875 0)"/>
     <use xlink:href="#DejaVuSans-57" transform="translate(869.40625 0)"/>
     <use xlink:href="#DejaVuSans-10" transform="translate(908.609375 0)"/>
     <use xlink:href="#DejaVuSans-4b" transform="translate(944.6875 0)"/>
     <use xlink:href="#DejaVuSans-4c" transform="translate(1008.0625 0)"/>
     <use xlink:href="#DejaVuSans-57" transform="translate(1035.84375 0)"/>
     <use xlink:href="#DejaVuSans-20" transform="translate(1075.046875 0)"/>
     <use xlink:href="#DejaVuSans-14" transform="translate(1158.84375 0)"/>
     <use xlink:href="#DejaVuSans-13" transform="translate(1222.46875 0)"/>
     <use xlink:href="#DejaVuSans-13" transform="translate(1286.09375 0)"/>
     <use xlink:href="#DejaVuSans-11" transform="translate(1349.71875 0)"/>
     <use xlink:href="#DejaVuSans-13" transform="translate(1381.5 0)"/>
     <use xlink:href="#DejaVuSans-8" transform="translate(1445.125 0)"/>
     <use xlink:href="#DejaVuSans-3" transform="translate(1540.140625 0)"/>
     <use xlink:href="#DejaVuSans-3" transform="translate(1571.921875 0)"/>
     <use xlink:href="#DejaVuSans-5f" transform="translate(1603.703125 0)"/>
     <use xlink:href="#DejaVuSans-3" transform="translate(1637.390625 0)"/>
     <use xlink:href="#DejaVuSans-3" transform="translate(1669.171875 0)"/>
     <use xlink:href="#DejaVuSans-50" transform="translate(1700.953125 0)"/>
     <use xlink:href="#DejaVuSans-48" transform="translate(1798.359375 0)"/>
     <use xlink:href="#DejaVuSans-47" transform="translate(1859.890625 0)"/>
     <use xlink:href="#DejaVuSans-4c" transform="translate(1923.375 0)"/>
     <use xlink:href="#DejaVuSans-44" transform="translate(1951.15625 0)"/>
     <use xlink:href="#DejaVuSans-51" transform="translate(2012.4375 0)"/>
     <use xlink:href="#DejaVuSans-3" transform="translate(2075.8125 0)"/>
     <use xlink:href="#DejaVuSans-48" transform="translate(2107.59375 0)"/>
     <use xlink:href="#DejaVuSans-5b" transform="translate(2167.375 0)"/>
     <use xlink:href="#DejaVuSans-44" transform="translate(2226.5625 0)"/>
     <use xlink:href="#DejaVuSans-46" transform="translate(2287.84375 0)"/>
     <use xlink:href="#DejaVuSans-57" transform="translate(2342.828125 0)"/>
     <use xlink:href="#DejaVuSans-3" transform="translate(2382.03125 0)"/>
     <use xlink:href="#DejaVuSans-31" transform="translate(2413.8125 0)"/>
     <use xlink:href="#DejaVuSans-b" transform="translate(2488.625 0)"/>
     <use xlink:href="#DejaVuSans-2d" transform="translate(2527.640625 0)"/>
     <use xlink:href="#DejaVuSans-c" transform="translate(2557.140625 0)"/>
     <use xlink:href="#DejaVuSans-12" transform="translate(2596.15625 0)"/>
     <use xlink:href="#DejaVuSans-56" transform="translate(2629.84375 0)"/>
     <use xlink:href="#DejaVuSans-54" transform="translate(2681.9375 0)"/>
     <use xlink:href="#DejaVuSans-55" transform="translate(2745.421875 0)"/>
     <use xlink:href="#DejaVuSans-57" transform="translate(2786.53125 0)"/>
     <use xlink:href="#DejaVuSans-b" transform="translate(2825.734375 0)"/>
     <use xlink:href="#DejaVuSans-53" transform="translate(2864.75 0)"/>
     <use xlink:href="#DejaVuSans-c" transform="translate(2928.234375 0)"/>
     <use xlink:href="#DejaVuSans-20" transform="translate(2967.25 0)"/>
     <use xlink:href="#DejaVuSans-13" transform="translate(3051.046875 0)"/>
     <use xlink:href="#DejaVuSans-11" transform="translate(3114.671875 0)"/>
     <use xlink:href="#DejaVuSans-13" transform="translate(3146.453125 0)"/>
     <use xlink:href="#DejaVuSans-15" transform="translate(3210.078125 0)"/>
     <use xlink:href="#DejaVuSans-18" transform="translate(3273.703125 0)"/>
    </g>
    <!-- Convention: N(J)=nrd(x)/N(I); prime-neighbor sampler is not class-uniform -->
    <g style="fill: #374151" transform="translate(49.744823 69.335284) scale(0.085 -0.085)">
     <defs>
      <path id="DejaVuSans-26" d="M 4122 4306 
L 4122 3641 
Q 3803 3938 3442 4084 
Q 3081 4231 2675 4231 
Q 1875 4231 1450 3742 
Q 1025 3253 1025 2328 
Q 1025 1406 1450 917 
Q 1875 428 2675 428 
Q 3081 428 3442 575 
Q 3803 722 4122 1019 
L 4122 359 
Q 3791 134 3420 21 
Q 3050 -91 2638 -91 
Q 1578 -91 968 557 
Q 359 1206 359 2328 
Q 359 3453 968 4101 
Q 1578 4750 2638 4750 
Q 3056 4750 3426 4639 
Q 3797 4528 4122 4306 
z
" transform="scale(0.015625)"/>
      <path id="DejaVuSans-1d" d="M 750 794 
L 1409 794 
L 1409 0 
L 750 0 
L 750 794 
z
M 750 3309 
L 1409 3309 
L 1409 2516 
L 750 2516 
L 750 3309 
z
" transform="scale(0.015625)"/>
      <path id="DejaVuSans-2c" d="M 628 4666 
L 1259 4666 
L 1259 0 
L 628 0 
L 628 4666 
z
" transform="scale(0.015625)"/>
      <path id="DejaVuSans-1e" d="M 750 3309 
L 1409 3309 
L 1409 2516 
L 750 2516 
L 750 3309 
z
M 750 794 
L 1409 794 
L 1409 256 
L 897 -744 
L 494 -744 
L 750 256 
L 750 794 
z
" transform="scale(0.015625)"/>
      <path id="DejaVuSans-45" d="M 3116 1747 
Q 3116 2381 2855 2742 
Q 2594 3103 2138 3103 
Q 1681 3103 1420 2742 
Q 1159 2381 1159 1747 
Q 1159 1113 1420 752 
Q 1681 391 2138 391 
Q 2594 391 2855 752 
Q 3116 1113 3116 1747 
z
M 1159 2969 
Q 1341 3281 1617 3432 
Q 1894 3584 2278 3584 
Q 2916 3584 3314 3078 
Q 3713 2572 3713 1747 
Q 3713 922 3314 415 
Q 2916 -91 2278 -91 
Q 1894 -91 1617 61 
Q 1341 213 1159 525 
L 1159 0 
L 581 0 
L 581 4863 
L 1159 4863 
L 1159 2969 
z
" transform="scale(0.015625)"/>
      <path id="DejaVuSans-49" d="M 2375 4863 
L 2375 4384 
L 1825 4384 
Q 1516 4384 1395 4259 
Q 1275 4134 1275 3809 
L 1275 3500 
L 2222 3500 
L 2222 3053 
L 1275 3053 
L 1275 0 
L 697 0 
L 697 3053 
L 147 3053 
L 147 3500 
L 697 3500 
L 697 3744 
Q 697 4328 969 4595 
Q 1241 4863 1831 4863 
L 2375 4863 
z
" transform="scale(0.015625)"/>
     </defs>
     <use xlink:href="#DejaVuSans-26"/>
     <use xlink:href="#DejaVuSans-52" transform="translate(69.828125 0)"/>
     <use xlink:href="#DejaVuSans-51" transform="translate(131.015625 0)"/>
     <use xlink:href="#DejaVuSans-59" transform="translate(194.390625 0)"/>
     <use xlink:href="#DejaVuSans-48" transform="translate(253.578125 0)"/>
     <use xlink:href="#DejaVuSans-51" transform="translate(315.109375 0)"/>
     <use xlink:href="#DejaVuSans-57" transform="translate(378.484375 0)"/>
     <use xlink:href="#DejaVuSans-4c" transform="translate(417.6875 0)"/>
     <use xlink:href="#DejaVuSans-52" transform="translate(445.46875 0)"/>
     <use xlink:href="#DejaVuSans-51" transform="translate(506.65625 0)"/>
     <use xlink:href="#DejaVuSans-1d" transform="translate(570.03125 0)"/>
     <use xlink:href="#DejaVuSans-3" transform="translate(603.71875 0)"/>
     <use xlink:href="#DejaVuSans-31" transform="translate(635.5 0)"/>
     <use xlink:href="#DejaVuSans-b" transform="translate(710.3125 0)"/>
     <use xlink:href="#DejaVuSans-2d" transform="translate(749.328125 0)"/>
     <use xlink:href="#DejaVuSans-c" transform="translate(778.828125 0)"/>
     <use xlink:href="#DejaVuSans-20" transform="translate(817.84375 0)"/>
     <use xlink:href="#DejaVuSans-51" transform="translate(901.640625 0)"/>
     <use xlink:href="#DejaVuSans-55" transform="translate(965.015625 0)"/>
     <use xlink:href="#DejaVuSans-47" transform="translate(1004.375 0)"/>
     <use xlink:href="#DejaVuSans-b" transform="translate(1067.859375 0)"/>
     <use xlink:href="#DejaVuSans-5b" transform="translate(1106.875 0)"/>
     <use xlink:href="#DejaVuSans-c" transform="translate(1166.0625 0)"/>
     <use xlink:href="#DejaVuSans-12" transform="translate(1205.078125 0)"/>
     <use xlink:href="#DejaVuSans-31" transform="translate(1238.765625 0)"/>
     <use xlink:href="#DejaVuSans-b" transform="translate(1313.578125 0)"/>
     <use xlink:href="#DejaVuSans-2c" transform="translate(1352.59375 0)"/>
     <use xlink:href="#DejaVuSans-c" transform="translate(1382.09375 0)"/>
     <use xlink:href="#DejaVuSans-1e" transform="translate(1421.109375 0)"/>
     <use xlink:href="#DejaVuSans-3" transform="translate(1454.796875 0)"/>
     <use xlink:href="#DejaVuSans-53" transform="translate(1486.578125 0)"/>
     <use xlink:href="#DejaVuSans-55" transform="translate(1550.0625 0)"/>
     <use xlink:href="#DejaVuSans-4c" transform="translate(1591.171875 0)"/>
     <use xlink:href="#DejaVuSans-50" transform="translate(1618.953125 0)"/>
     <use xlink:href="#DejaVuSans-48" transform="translate(1716.359375 0)"/>
     <use xlink:href="#DejaVuSans-10" transform="translate(1777.890625 0)"/>
     <use xlink:href="#DejaVuSans-51" transform="translate(1813.96875 0)"/>
     <use xlink:href="#DejaVuSans-48" transform="translate(1877.34375 0)"/>
     <use xlink:href="#DejaVuSans-4c" transform="translate(1938.875 0)"/>
     <use xlink:href="#DejaVuSans-4a" transform="translate(1966.65625 0)"/>
     <use xlink:href="#DejaVuSans-4b" transform="translate(2030.140625 0)"/>
     <use xlink:href="#DejaVuSans-45" transform="translate(2093.515625 0)"/>
     <use xlink:href="#DejaVuSans-52" transform="translate(2157 0)"/>
     <use xlink:href="#DejaVuSans-55" transform="translate(2218.1875 0)"/>
     <use xlink:href="#DejaVuSans-3" transform="translate(2259.296875 0)"/>
     <use xlink:href="#DejaVuSans-56" transform="translate(2291.078125 0)"/>
     <use xlink:href="#DejaVuSans-44" transform="translate(2343.171875 0)"/>
     <use xlink:href="#DejaVuSans-50" transform="translate(2404.453125 0)"/>
     <use xlink:href="#DejaVuSans-53" transform="translate(2501.859375 0)"/>
     <use xlink:href="#DejaVuSans-4f" transform="translate(2565.34375 0)"/>
     <use xlink:href="#DejaVuSans-48" transform="translate(2593.125 0)"/>
     <use xlink:href="#DejaVuSans-55" transform="translate(2654.65625 0)"/>
     <use xlink:href="#DejaVuSans-3" transform="translate(2695.765625 0)"/>
     <use xlink:href="#DejaVuSans-4c" transform="translate(2727.546875 0)"/>
     <use xlink:href="#DejaVuSans-56" transform="translate(2755.328125 0)"/>
     <use xlink:href="#DejaVuSans-3" transform="translate(2807.421875 0)"/>
     <use xlink:href="#DejaVuSans-51" transform="translate(2839.203125 0)"/>
     <use xlink:href="#DejaVuSans-52" transform="translate(2902.578125 0)"/>
     <use xlink:href="#DejaVuSans-57" transform="translate(2963.765625 0)"/>
     <use xlink:href="#DejaVuSans-3" transform="translate(3002.96875 0)"/>
     <use xlink:href="#DejaVuSans-46" transform="translate(3034.75 0)"/>
     <use xlink:href="#DejaVuSans-4f" transform="translate(3089.734375 0)"/>
     <use xlink:href="#DejaVuSans-44" transform="translate(3117.515625 0)"/>
     <use xlink:href="#DejaVuSans-56" transform="translate(3178.796875 0)"/>
     <use xlink:href="#DejaVuSans-56" transform="translate(3230.890625 0)"/>
     <use xlink:href="#DejaVuSans-10" transform="translate(3282.984375 0)"/>
     <use xlink:href="#DejaVuSans-58" transform="translate(3319.0625 0)"/>
     <use xlink:href="#DejaVuSans-51" transform="translate(3382.4375 0)"/>
     <use xlink:href="#DejaVuSans-4c" transform="translate(3445.8125 0)"/>
     <use xlink:href="#DejaVuSans-49" transform="translate(3473.59375 0)"/>
     <use xlink:href="#DejaVuSans-52" transform="translate(3508.796875 0)"/>
     <use xlink:href="#DejaVuSans-55" transform="translate(3569.984375 0)"/>
     <use xlink:href="#DejaVuSans-50" transform="translate(3609.34375 0)"/>
    </g>
   </g>
   <g id="text_18">
    <!-- P3.3 toy ideal-lattice norm gap -->
    <g transform="translate(255.833216 12.118365) scale(0.12 -0.12)">
     <defs>
      <path id="DejaVuSans-33" d="M 1259 4147 
L 1259 2394 
L 2053 2394 
Q 2494 2394 2734 2622 
Q 2975 2850 2975 3272 
Q 2975 3691 2734 3919 
Q 2494 4147 2053 4147 
L 1259 4147 
z
M 628 4666 
L 2053 4666 
Q 2838 4666 3239 4311 
Q 3641 3956 3641 3272 
Q 3641 2581 3239 2228 
Q 2838 1875 2053 1875 
L 1259 1875 
L 1259 0 
L 628 0 
L 628 4666 
z
" transform="scale(0.015625)"/>
      <path id="DejaVuSans-5c" d="M 2059 -325 
Q 1816 -950 1584 -1140 
Q 1353 -1331 966 -1331 
L 506 -1331 
L 506 -850 
L 844 -850 
Q 1081 -850 1212 -737 
Q 1344 -625 1503 -206 
L 1606 56 
L 191 3500 
L 800 3500 
L 1894 763 
L 2988 3500 
L 3597 3500 
L 2059 -325 
z
" transform="scale(0.015625)"/>
     </defs>
     <use xlink:href="#DejaVuSans-33"/>
     <use xlink:href="#DejaVuSans-16" transform="translate(60.296875 0)"/>
     <use xlink:href="#DejaVuSans-11" transform="translate(123.921875 0)"/>
     <use xlink:href="#DejaVuSans-16" transform="translate(155.703125 0)"/>
     <use xlink:href="#DejaVuSans-3" transform="translate(219.328125 0)"/>
     <use xlink:href="#DejaVuSans-57" transform="translate(251.109375 0)"/>
     <use xlink:href="#DejaVuSans-52" transform="translate(290.3125 0)"/>
     <use xlink:href="#DejaVuSans-5c" transform="translate(351.5 0)"/>
     <use xlink:href="#DejaVuSans-3" transform="translate(410.6875 0)"/>
     <use xlink:href="#DejaVuSans-4c" transform="translate(442.46875 0)"/>
     <use xlink:href="#DejaVuSans-47" transform="translate(470.25 0)"/>
     <use xlink:href="#DejaVuSans-48" transform="translate(533.734375 0)"/>
     <use xlink:href="#DejaVuSans-44" transform="translate(595.265625 0)"/>
     <use xlink:href="#DejaVuSans-4f" transform="translate(656.546875 0)"/>
     <use xlink:href="#DejaVuSans-10" transform="translate(684.328125 0)"/>
     <use xlink:href="#DejaVuSans-4f" transform="translate(720.40625 0)"/>
     <use xlink:href="#DejaVuSans-44" transform="translate(748.1875 0)"/>
     <use xlink:href="#DejaVuSans-57" transform="translate(809.46875 0)"/>
     <use xlink:href="#DejaVuSans-57" transform="translate(848.671875 0)"/>
     <use xlink:href="#DejaVuSans-4c" transform="translate(887.875 0)"/>
     <use xlink:href="#DejaVuSans-46" transform="translate(915.65625 0)"/>
     <use xlink:href="#DejaVuSans-48" transform="translate(970.640625 0)"/>
     <use xlink:href="#DejaVuSans-3" transform="translate(1032.171875 0)"/>
     <use xlink:href="#DejaVuSans-51" transform="translate(1063.953125 0)"/>
     <use xlink:href="#DejaVuSans-52" transform="translate(1127.328125 0)"/>
     <use xlink:href="#DejaVuSans-55" transform="translate(1188.515625 0)"/>
     <use xlink:href="#DejaVuSans-50" transform="translate(1227.875 0)"/>
     <use xlink:href="#DejaVuSans-3" transform="translate(1325.28125 0)"/>
     <use xlink:href="#DejaVuSans-4a" transform="translate(1357.0625 0)"/>
     <use xlink:href="#DejaVuSans-44" transform="translate(1420.546875 0)"/>
     <use xlink:href="#DejaVuSans-53" transform="translate(1481.828125 0)"/>
    </g>
   </g>
   <g id="legend_1">
    <g id="patch_8">
     <path d="M 456.861505 71.122271 
L 649.600568 71.122271 
Q 651.600568 71.122271 651.600568 69.122271 
L 651.600568 25.118365 
Q 651.600568 23.118365 649.600568 23.118365 
L 456.861505 23.118365 
Q 454.861505 23.118365 454.861505 25.118365 
L 454.861505 69.122271 
Q 454.861505 71.122271 456.861505 71.122271 
z
" style="fill: #ffffff; opacity: 0.92"/>
    </g>
    <g id="PathCollection_3">
     <g>
      <use xlink:href="#mb046d52b8f" x="468.861505" y="32.091803" style="fill: #d97706; fill-opacity: 0.45; stroke: #d97706; stroke-opacity: 0.45"/>
     </g>
    </g>
    <g id="text_19">
     <!-- Norm-aware LLL basis minimum -->
     <g transform="translate(486.861505 34.716803) scale(0.1 -0.1)">
      <defs>
       <path id="DejaVuSans-5a" d="M 269 3500 
L 844 3500 
L 1563 769 
L 2278 3500 
L 2956 3500 
L 3675 769 
L 4391 3500 
L 4966 3500 
L 4050 0 
L 3372 0 
L 2619 2869 
L 1863 0 
L 1184 0 
L 269 3500 
z
" transform="scale(0.015625)"/>
      </defs>
      <use xlink:href="#DejaVuSans-31"/>
      <use xlink:href="#DejaVuSans-52" transform="translate(74.8125 0)"/>
      <use xlink:href="#DejaVuSans-55" transform="translate(136 0)"/>
      <use xlink:href="#DejaVuSans-50" transform="translate(175.359375 0)"/>
      <use xlink:href="#DejaVuSans-10" transform="translate(272.765625 0)"/>
      <use xlink:href="#DejaVuSans-44" transform="translate(308.84375 0)"/>
      <use xlink:href="#DejaVuSans-5a" transform="translate(370.125 0)"/>
      <use xlink:href="#DejaVuSans-44" transform="translate(451.90625 0)"/>
      <use xlink:href="#DejaVuSans-55" transform="translate(513.1875 0)"/>
      <use xlink:href="#DejaVuSans-48" transform="translate(552.09375 0)"/>
      <use xlink:href="#DejaVuSans-3" transform="translate(613.625 0)"/>
      <use xlink:href="#DejaVuSans-2f" transform="translate(645.40625 0)"/>
      <use xlink:href="#DejaVuSans-2f" transform="translate(701.125 0)"/>
      <use xlink:href="#DejaVuSans-2f" transform="translate(756.84375 0)"/>
      <use xlink:href="#DejaVuSans-3" transform="translate(812.5625 0)"/>
      <use xlink:href="#DejaVuSans-45" transform="translate(844.34375 0)"/>
      <use xlink:href="#DejaVuSans-44" transform="translate(907.828125 0)"/>
      <use xlink:href="#DejaVuSans-56" transform="translate(969.109375 0)"/>
      <use xlink:href="#DejaVuSans-4c" transform="translate(1021.203125 0)"/>
      <use xlink:href="#DejaVuSans-56" transform="translate(1048.984375 0)"/>
      <use xlink:href="#DejaVuSans-3" transform="translate(1101.078125 0)"/>
      <use xlink:href="#DejaVuSans-50" transform="translate(1132.859375 0)"/>
      <use xlink:href="#DejaVuSans-4c" transform="translate(1230.265625 0)"/>
      <use xlink:href="#DejaVuSans-51" transform="translate(1258.046875 0)"/>
      <use xlink:href="#DejaVuSans-4c" transform="translate(1321.421875 0)"/>
      <use xlink:href="#DejaVuSans-50" transform="translate(1349.203125 0)"/>
      <use xlink:href="#DejaVuSans-58" transform="translate(1446.609375 0)"/>
      <use xlink:href="#DejaVuSans-50" transform="translate(1509.984375 0)"/>
     </g>
    </g>
    <g id="PathCollection_4">
     <path d="M 468.861505 49.328652 
C 469.454517 49.328652 470.023321 49.093045 470.442644 48.673723 
C 470.861967 48.2544 471.097573 47.685596 471.097573 47.092584 
C 471.097573 46.499572 470.861967 45.930768 470.442644 45.511445 
C 470.023321 45.092122 469.454517 44.856516 468.861505 44.856516 
C 468.268493 44.856516 467.699689 45.092122 467.280366 45.511445 
C 466.861044 45.930768 466.625437 46.499572 466.625437 47.092584 
C 466.625437 47.685596 466.861044 48.2544 467.280366 48.673723 
C 467.699689 49.093045 468.268493 49.328652 468.861505 49.328652 
z
" style="fill: #0f766e; fill-opacity: 0.72"/>
    </g>
    <g id="text_20">
     <!-- Certified exact minimum -->
     <g transform="translate(486.861505 49.717584) scale(0.1 -0.1)">
      <defs>
       <path id="DejaVuSans-13af" d="M 3431 3500 
L 3431 0 
L 2853 0 
L 2853 3053 
L 1275 3053 
L 1275 0 
L 697 0 
L 697 3053 
L 147 3053 
L 147 3500 
L 697 3500 
L 697 3744 
Q 697 4316 967 4589 
Q 1238 4863 1797 4863 
L 2375 4863 
L 2375 4384 
L 1825 4384 
Q 1516 4384 1395 4259 
Q 1275 4134 1275 3809 
L 1275 3500 
L 3431 3500 
z
M 2853 4856 
L 3431 4856 
L 3431 4128 
L 2853 4128 
L 2853 4856 
z
" transform="scale(0.015625)"/>
      </defs>
      <use xlink:href="#DejaVuSans-26"/>
      <use xlink:href="#DejaVuSans-48" transform="translate(69.828125 0)"/>
      <use xlink:href="#DejaVuSans-55" transform="translate(131.359375 0)"/>
      <use xlink:href="#DejaVuSans-57" transform="translate(172.46875 0)"/>
      <use xlink:href="#DejaVuSans-4c" transform="translate(211.671875 0)"/>
      <use xlink:href="#DejaVuSans-13af" transform="translate(239.453125 0)"/>
      <use xlink:href="#DejaVuSans-48" transform="translate(302.4375 0)"/>
      <use xlink:href="#DejaVuSans-47" transform="translate(363.96875 0)"/>
      <use xlink:href="#DejaVuSans-3" transform="translate(427.453125 0)"/>
      <use xlink:href="#DejaVuSans-48" transform="translate(459.234375 0)"/>
      <use xlink:href="#DejaVuSans-5b" transform="translate(519.015625 0)"/>
      <use xlink:href="#DejaVuSans-44" transform="translate(578.203125 0)"/>
      <use xlink:href="#DejaVuSans-46" transform="translate(639.484375 0)"/>
      <use xlink:href="#DejaVuSans-57" transform="translate(694.46875 0)"/>
      <use xlink:href="#DejaVuSans-3" transform="translate(733.671875 0)"/>
      <use xlink:href="#DejaVuSans-50" transform="translate(765.453125 0)"/>
      <use xlink:href="#DejaVuSans-4c" transform="translate(862.859375 0)"/>
      <use xlink:href="#DejaVuSans-51" transform="translate(890.640625 0)"/>
      <use xlink:href="#DejaVuSans-4c" transform="translate(954.015625 0)"/>
      <use xlink:href="#DejaVuSans-50" transform="translate(981.796875 0)"/>
      <use xlink:href="#DejaVuSans-58" transform="translate(1079.203125 0)"/>
      <use xlink:href="#DejaVuSans-50" transform="translate(1142.578125 0)"/>
     </g>
    </g>
    <g id="line2d_30">
     <path d="M 458.861505 61.219928 
L 468.861505 61.219928 
L 478.861505 61.219928 
" style="fill: none; stroke-dasharray: 4.44,1.92; stroke-dashoffset: 0; stroke: #1f2937; stroke-width: 1.2"/>
    </g>
    <g id="text_21">
     <!-- Minkowski-scale exponent $1/2$ -->
     <g transform="translate(486.861505 64.719928) scale(0.1 -0.1)">
      <defs>
       <path id="DejaVuSans-30" d="M 628 4666 
L 1569 4666 
L 2759 1491 
L 3956 4666 
L 4897 4666 
L 4897 0 
L 4281 0 
L 4281 4097 
L 3078 897 
L 2444 897 
L 1241 4097 
L 1241 0 
L 628 0 
L 628 4666 
z
" transform="scale(0.015625)"/>
       <path id="DejaVuSans-4e" d="M 581 4863 
L 1159 4863 
L 1159 1991 
L 2875 3500 
L 3609 3500 
L 1753 1863 
L 3688 0 
L 2938 0 
L 1159 1709 
L 1159 0 
L 581 0 
L 581 4863 
z
" transform="scale(0.015625)"/>
      </defs>
      <use xlink:href="#DejaVuSans-30" transform="translate(0 0.015625)"/>
      <use xlink:href="#DejaVuSans-4c" transform="translate(86.279297 0.015625)"/>
      <use xlink:href="#DejaVuSans-51" transform="translate(114.0625 0.015625)"/>
      <use xlink:href="#DejaVuSans-4e" transform="translate(177.441406 0.015625)"/>
      <use xlink:href="#DejaVuSans-52" transform="translate(231.351562 0.015625)"/>
      <use xlink:href="#DejaVuSans-5a" transform="translate(292.533203 0.015625)"/>
      <use xlink:href="#DejaVuSans-56" transform="translate(374.320312 0.015625)"/>
      <use xlink:href="#DejaVuSans-4e" transform="translate(426.419922 0.015625)"/>
      <use xlink:href="#DejaVuSans-4c" transform="translate(484.330078 0.015625)"/>
      <use xlink:href="#DejaVuSans-10" transform="translate(512.113281 0.015625)"/>
      <use xlink:href="#DejaVuSans-56" transform="translate(548.197266 0.015625)"/>
      <use xlink:href="#DejaVuSans-46" transform="translate(600.296875 0.015625)"/>
      <use xlink:href="#DejaVuSans-44" transform="translate(655.277344 0.015625)"/>
      <use xlink:href="#DejaVuSans-4f" transform="translate(716.556641 0.015625)"/>
      <use xlink:href="#DejaVuSans-48" transform="translate(744.339844 0.015625)"/>
      <use xlink:href="#DejaVuSans-3" transform="translate(805.863281 0.015625)"/>
      <use xlink:href="#DejaVuSans-48" transform="translate(837.650391 0.015625)"/>
      <use xlink:href="#DejaVuSans-5b" transform="translate(897.173828 0.015625)"/>
      <use xlink:href="#DejaVuSans-53" transform="translate(956.353516 0.015625)"/>
      <use xlink:href="#DejaVuSans-52" transform="translate(1019.830078 0.015625)"/>
      <use xlink:href="#DejaVuSans-51" transform="translate(1081.011719 0.015625)"/>
      <use xlink:href="#DejaVuSans-48" transform="translate(1144.390625 0.015625)"/>
      <use xlink:href="#DejaVuSans-51" transform="translate(1205.914062 0.015625)"/>
      <use xlink:href="#DejaVuSans-57" transform="translate(1269.292969 0.015625)"/>
      <use xlink:href="#DejaVuSans-3" transform="translate(1308.501953 0.015625)"/>
      <use xlink:href="#DejaVuSans-14" transform="translate(1340.289062 0.015625)"/>
      <use xlink:href="#DejaVuSans-12" transform="translate(1403.912109 0.015625)"/>
      <use xlink:href="#DejaVuSans-15" transform="translate(1437.603516 0.015625)"/>
     </g>
    </g>
   </g>
  </g>
 </g>
 <defs>
  <clipPath id="p38dff0d139">
   <rect x="40.503365" y="18.118365" width="616.097203" height="336.679051"/>
  </clipPath>
 </defs>
</svg>
