<?xml version="1.0" encoding="utf-8" standalone="no"?>
<!DOCTYPE svg PUBLIC "-//W3C//DTD SVG 1.1//EN"
  "http://www.w3.org/Graphics/SVG/1.1/DTD/svg11.dtd">
<svg xmlns:xlink="http://www.w3.org/1999/xlink" width="513.448313pt" height="238.766016pt" viewBox="0 0 513.448313 238.766016" xmlns="http://www.w3.org/2000/svg" version="1.1">
 <metadata>
  <rdf:RDF xmlns:dc="http://purl.org/dc/elements/1.1/" xmlns:cc="http://creativecommons.org/ns#" xmlns:rdf="http://www.w3.org/1999/02/22-rdf-syntax-ns#">
   <cc:Work>
    <dc:type rdf:resource="http://purl.org/dc/dcmitype/StillImage"/>
    <dc:date>2026-07-23T00:43:14.910704</dc:date>
    <dc:format>image/svg+xml</dc:format>
    <dc:creator>
     <cc:Agent>
      <dc:title>Matplotlib v3.11.1, https://matplotlib.org/</dc:title>
     </cc:Agent>
    </dc:creator>
   </cc:Work>
  </rdf:RDF>
 </metadata>
 <defs>
  <style type="text/css">*{stroke-linejoin: round; stroke-linecap: butt}</style>
 </defs>
 <g id="figure_1">
  <g id="patch_1">
   <path d="M 0 238.766016 
L 513.448313 238.766016 
L 513.448313 0 
L 0 0 
z
" style="fill: #fcfcfb"/>
  </g>
  <g id="axes_1">
   <g id="patch_2">
    <path d="M 155.128469 198.066016 
L 476.084719 198.066016 
L 476.084719 25.311816 
L 155.128469 25.311816 
z
" style="fill: #fcfcfb"/>
   </g>
   <g id="matplotlib.axis_1">
    <g id="xtick_1">
     <g id="line2d_1">
      <path d="M 188.913337 198.066016 
L 188.913337 25.311816 
" clip-path="url(#pfa0a45998d)" style="fill: none; stroke: #e1e0d9; stroke-width: 0.7; stroke-linecap: square"/>
     </g>
     <g id="line2d_2">
      <defs>
       <path id="m18f26e30ec" d="M 0 0 
L 0 3.5 
" style="stroke: #898781; stroke-width: 0.8"/>
      </defs>
      <g>
       <use xlink:href="#m18f26e30ec" x="188.913337" y="198.066016" style="fill: #898781; stroke: #898781; stroke-width: 0.8"/>
      </g>
     </g>
     <g id="text_1">
      <!-- −2.5 -->
      <g style="fill: #52514e" transform="translate(179.114704 213.233252) scale(0.105 -0.105)">
       <defs>
        <path id="Cambria-3ab" d="M 397 1613 
L 397 2047 
L 3147 2047 
L 3147 1613 
L 397 1613 
z
" transform="scale(0.015625)"/>
        <path id="Cambria-374" d="M 2194 500 
Q 2347 500 2440 519 
Q 2534 538 2590 581 
Q 2647 625 2680 695 
Q 2713 766 2763 913 
L 3028 913 
L 2975 0 
L 403 0 
L 403 150 
Q 538 478 766 822 
Q 994 1166 1413 1631 
Q 1775 2031 1934 2238 
Q 2109 2463 2195 2627 
Q 2281 2791 2318 2936 
Q 2356 3081 2356 3228 
Q 2356 3463 2281 3642 
Q 2206 3822 2051 3925 
Q 1897 4028 1663 4028 
Q 1078 4028 875 3378 
L 497 3378 
L 497 3978 
Q 875 4156 1204 4236 
Q 1534 4316 1797 4316 
Q 2378 4316 2675 4061 
Q 2972 3806 2972 3322 
Q 2972 3156 2939 3017 
Q 2906 2878 2836 2742 
Q 2766 2606 2647 2450 
Q 2528 2294 2384 2133 
Q 2241 1972 1888 1597 
Q 1294 969 1016 500 
L 2194 500 
z
" transform="scale(0.015625)"/>
        <path id="Cambria-1e4" d="M 972 725 
L 972 0 
L 341 0 
L 341 725 
L 972 725 
z
" transform="scale(0.015625)"/>
        <path id="Cambria-377" d="M 469 172 
L 469 834 
L 847 834 
Q 941 516 1130 366 
Q 1319 216 1619 216 
Q 2034 216 2246 466 
Q 2459 716 2459 1213 
Q 2459 1544 2346 1761 
Q 2234 1978 2043 2075 
Q 1853 2172 1600 2172 
Q 1388 2172 1234 2145 
Q 1081 2119 906 2063 
L 656 2209 
L 656 4266 
L 2378 4266 
Q 2484 4266 2531 4283 
Q 2578 4300 2606 4336 
Q 2634 4372 2672 4472 
L 2916 4472 
L 2869 3747 
L 1072 3747 
L 1072 2375 
Q 1234 2444 1425 2478 
Q 1616 2513 1806 2513 
Q 2178 2513 2465 2361 
Q 2753 2209 2909 1929 
Q 3066 1650 3066 1281 
Q 3066 863 2891 563 
Q 2716 263 2384 106 
Q 2053 -50 1600 -50 
Q 1059 -50 469 172 
z
" transform="scale(0.015625)"/>
       </defs>
       <use xlink:href="#Cambria-3ab"/>
       <use xlink:href="#Cambria-374" transform="translate(55.375 0)"/>
       <use xlink:href="#Cambria-1e4" transform="translate(110.75 0)"/>
       <use xlink:href="#Cambria-377" transform="translate(131.265625 0)"/>
      </g>
     </g>
    </g>
    <g id="xtick_2">
     <g id="line2d_3">
      <path d="M 231.144423 198.066016 
L 231.144423 25.311816 
" clip-path="url(#pfa0a45998d)" style="fill: none; stroke: #e1e0d9; stroke-width: 0.7; stroke-linecap: square"/>
     </g>
     <g id="line2d_4">
      <g>
       <use xlink:href="#m18f26e30ec" x="231.144423" y="198.066016" style="fill: #898781; stroke: #898781; stroke-width: 0.8"/>
      </g>
     </g>
     <g id="text_2">
      <!-- −2.0 -->
      <g style="fill: #52514e" transform="translate(221.34579 213.233252) scale(0.105 -0.105)">
       <defs>
        <path id="Cambria-372" d="M 1738 -50 
Q 1063 -50 733 481 
Q 403 1013 403 2094 
Q 403 2669 504 3087 
Q 606 3506 789 3779 
Q 972 4053 1228 4184 
Q 1484 4316 1788 4316 
Q 2472 4316 2806 3787 
Q 3141 3259 3141 2191 
Q 3141 1084 2783 517 
Q 2425 -50 1738 -50 
z
M 1013 2188 
Q 1013 1169 1202 692 
Q 1391 216 1788 216 
Q 2166 216 2348 664 
Q 2531 1113 2531 2053 
Q 2531 2772 2437 3217 
Q 2344 3663 2176 3856 
Q 2009 4050 1772 4050 
Q 1556 4050 1411 3922 
Q 1266 3794 1177 3553 
Q 1088 3313 1050 2967 
Q 1013 2622 1013 2188 
z
" transform="scale(0.015625)"/>
       </defs>
       <use xlink:href="#Cambria-3ab"/>
       <use xlink:href="#Cambria-374" transform="translate(55.375 0)"/>
       <use xlink:href="#Cambria-1e4" transform="translate(110.75 0)"/>
       <use xlink:href="#Cambria-372" transform="translate(131.265625 0)"/>
      </g>
     </g>
    </g>
    <g id="xtick_3">
     <g id="line2d_5">
      <path d="M 273.375508 198.066016 
L 273.375508 25.311816 
" clip-path="url(#pfa0a45998d)" style="fill: none; stroke: #e1e0d9; stroke-width: 0.7; stroke-linecap: square"/>
     </g>
     <g id="line2d_6">
      <g>
       <use xlink:href="#m18f26e30ec" x="273.375508" y="198.066016" style="fill: #898781; stroke: #898781; stroke-width: 0.8"/>
      </g>
     </g>
     <g id="text_3">
      <!-- −1.5 -->
      <g style="fill: #52514e" transform="translate(263.576875 213.233252) scale(0.105 -0.105)">
       <defs>
        <path id="Cambria-373" d="M 2172 816 
Q 2172 634 2192 542 
Q 2213 450 2264 392 
Q 2316 334 2412 301 
Q 2509 269 2656 251 
Q 2803 234 3044 228 
L 3044 0 
L 734 0 
L 734 228 
Q 1081 244 1229 270 
Q 1378 297 1456 350 
Q 1534 403 1570 500 
Q 1606 597 1606 816 
L 1606 3350 
Q 1606 3475 1562 3533 
Q 1519 3591 1434 3591 
Q 1334 3591 1150 3487 
Q 966 3384 694 3203 
L 556 3444 
L 2019 4316 
L 2191 4316 
Q 2172 4016 2172 3484 
L 2172 816 
z
" transform="scale(0.015625)"/>
       </defs>
       <use xlink:href="#Cambria-3ab"/>
       <use xlink:href="#Cambria-373" transform="translate(55.375 0)"/>
       <use xlink:href="#Cambria-1e4" transform="translate(110.75 0)"/>
       <use xlink:href="#Cambria-377" transform="translate(131.265625 0)"/>
      </g>
     </g>
    </g>
    <g id="xtick_4">
     <g id="line2d_7">
      <path d="M 315.606594 198.066016 
L 315.606594 25.311816 
" clip-path="url(#pfa0a45998d)" style="fill: none; stroke: #e1e0d9; stroke-width: 0.7; stroke-linecap: square"/>
     </g>
     <g id="line2d_8">
      <g>
       <use xlink:href="#m18f26e30ec" x="315.606594" y="198.066016" style="fill: #898781; stroke: #898781; stroke-width: 0.8"/>
      </g>
     </g>
     <g id="text_4">
      <!-- −1.0 -->
      <g style="fill: #52514e" transform="translate(305.807961 213.233252) scale(0.105 -0.105)">
       <use xlink:href="#Cambria-3ab"/>
       <use xlink:href="#Cambria-373" transform="translate(55.375 0)"/>
       <use xlink:href="#Cambria-1e4" transform="translate(110.75 0)"/>
       <use xlink:href="#Cambria-372" transform="translate(131.265625 0)"/>
      </g>
     </g>
    </g>
    <g id="xtick_5">
     <g id="line2d_9">
      <path d="M 357.837679 198.066016 
L 357.837679 25.311816 
" clip-path="url(#pfa0a45998d)" style="fill: none; stroke: #e1e0d9; stroke-width: 0.7; stroke-linecap: square"/>
     </g>
     <g id="line2d_10">
      <g>
       <use xlink:href="#m18f26e30ec" x="357.837679" y="198.066016" style="fill: #898781; stroke: #898781; stroke-width: 0.8"/>
      </g>
     </g>
     <g id="text_5">
      <!-- −0.5 -->
      <g style="fill: #52514e" transform="translate(348.039046 213.233252) scale(0.105 -0.105)">
       <use xlink:href="#Cambria-3ab"/>
       <use xlink:href="#Cambria-372" transform="translate(55.375 0)"/>
       <use xlink:href="#Cambria-1e4" transform="translate(110.75 0)"/>
       <use xlink:href="#Cambria-377" transform="translate(131.265625 0)"/>
      </g>
     </g>
    </g>
    <g id="xtick_6">
     <g id="line2d_11">
      <path d="M 400.068765 198.066016 
L 400.068765 25.311816 
" clip-path="url(#pfa0a45998d)" style="fill: none; stroke: #e1e0d9; stroke-width: 0.7; stroke-linecap: square"/>
     </g>
     <g id="line2d_12">
      <g>
       <use xlink:href="#m18f26e30ec" x="400.068765" y="198.066016" style="fill: #898781; stroke: #898781; stroke-width: 0.8"/>
      </g>
     </g>
     <g id="text_6">
      <!-- 0.0 -->
      <g style="fill: #52514e" transform="translate(393.177319 213.233252) scale(0.105 -0.105)">
       <use xlink:href="#Cambria-372"/>
       <use xlink:href="#Cambria-1e4" transform="translate(55.375 0)"/>
       <use xlink:href="#Cambria-372" transform="translate(75.890625 0)"/>
      </g>
     </g>
    </g>
    <g id="xtick_7">
     <g id="line2d_13">
      <path d="M 442.29985 198.066016 
L 442.29985 25.311816 
" clip-path="url(#pfa0a45998d)" style="fill: none; stroke: #e1e0d9; stroke-width: 0.7; stroke-linecap: square"/>
     </g>
     <g id="line2d_14">
      <g>
       <use xlink:href="#m18f26e30ec" x="442.29985" y="198.066016" style="fill: #898781; stroke: #898781; stroke-width: 0.8"/>
      </g>
     </g>
     <g id="text_7">
      <!-- 0.5 -->
      <g style="fill: #52514e" transform="translate(435.408405 213.233252) scale(0.105 -0.105)">
       <use xlink:href="#Cambria-372"/>
       <use xlink:href="#Cambria-1e4" transform="translate(55.375 0)"/>
       <use xlink:href="#Cambria-377" transform="translate(75.890625 0)"/>
      </g>
     </g>
    </g>
    <g id="text_8">
     <!-- sampled cost minus printed cost (bits) -->
     <g style="fill: #0b0b0b" transform="translate(217.294719 228.9) scale(0.12 -0.12)">
      <defs>
       <path id="Cambria-95" d="M 2397 2303 
L 2097 2303 
Q 2028 2491 1934 2598 
Q 1841 2706 1722 2750 
Q 1603 2794 1431 2794 
Q 1181 2794 1032 2676 
Q 884 2559 884 2356 
Q 884 2213 943 2119 
Q 1003 2025 1128 1944 
Q 1253 1863 1569 1728 
Q 1888 1591 2061 1475 
Q 2234 1359 2332 1206 
Q 2431 1053 2431 841 
Q 2431 594 2347 425 
Q 2263 256 2109 150 
Q 1956 44 1745 -3 
Q 1534 -50 1284 -50 
Q 1022 -50 775 -11 
Q 528 28 294 91 
L 294 744 
L 600 744 
Q 684 456 850 326 
Q 1016 197 1306 197 
Q 1419 197 1526 220 
Q 1634 244 1718 298 
Q 1803 353 1853 447 
Q 1903 541 1903 681 
Q 1903 841 1840 941 
Q 1778 1041 1647 1123 
Q 1516 1206 1184 1347 
Q 900 1466 728 1578 
Q 556 1691 457 1844 
Q 359 1997 359 2206 
Q 359 2463 498 2652 
Q 638 2841 900 2941 
Q 1163 3041 1516 3041 
Q 1722 3041 1914 3020 
Q 2106 3000 2397 2941 
L 2397 2303 
z
" transform="scale(0.015625)"/>
       <path id="Cambria-83" d="M 2109 447 
L 2063 459 
Q 1791 181 1552 65 
Q 1313 -50 1044 -50 
Q 806 -50 625 42 
Q 444 134 347 301 
Q 250 469 250 688 
Q 250 1144 701 1392 
Q 1153 1641 2056 1681 
L 2056 1884 
Q 2056 2209 1993 2396 
Q 1931 2584 1797 2671 
Q 1663 2759 1438 2759 
Q 1194 2759 1045 2631 
Q 897 2503 822 2247 
L 413 2247 
L 413 2653 
Q 713 2809 913 2882 
Q 1113 2956 1313 2998 
Q 1513 3041 1719 3041 
Q 2028 3041 2215 2942 
Q 2403 2844 2497 2641 
Q 2591 2438 2591 2028 
L 2591 941 
Q 2591 709 2594 614 
Q 2597 519 2612 437 
Q 2628 356 2659 307 
Q 2691 259 2752 225 
Q 2813 191 2950 153 
L 2950 0 
L 2094 0 
L 2109 447 
z
M 2056 1425 
Q 1422 1419 1106 1256 
Q 791 1094 791 766 
Q 791 588 862 484 
Q 934 381 1043 342 
Q 1153 303 1303 303 
Q 1516 303 1689 406 
Q 1863 509 1959 668 
Q 2056 828 2056 984 
L 2056 1425 
z
" transform="scale(0.015625)"/>
       <path id="Cambria-8f" d="M 1147 2506 
L 1191 2494 
Q 1378 2681 1498 2776 
Q 1619 2872 1731 2930 
Q 1844 2988 1942 3013 
Q 2041 3038 2144 3038 
Q 2456 3038 2653 2894 
Q 2850 2750 2925 2453 
Q 3159 2691 3304 2803 
Q 3450 2916 3601 2977 
Q 3753 3038 3928 3038 
Q 4138 3038 4289 2977 
Q 4441 2916 4545 2789 
Q 4650 2663 4698 2472 
Q 4747 2281 4747 1959 
L 4747 781 
Q 4747 544 4762 453 
Q 4778 363 4808 313 
Q 4838 263 4897 227 
Q 4956 191 5097 153 
L 5097 0 
L 3869 0 
L 3869 153 
Q 3991 191 4044 219 
Q 4097 247 4133 297 
Q 4169 347 4189 451 
Q 4209 556 4209 769 
L 4209 1588 
Q 4209 1853 4195 2026 
Q 4181 2200 4151 2303 
Q 4122 2406 4080 2465 
Q 4038 2525 3984 2569 
Q 3931 2613 3859 2638 
Q 3788 2663 3669 2663 
Q 3544 2663 3436 2613 
Q 3328 2563 3201 2444 
Q 3075 2325 3019 2204 
Q 2963 2084 2963 1922 
L 2963 781 
Q 2963 544 2978 453 
Q 2994 363 3023 313 
Q 3053 263 3112 227 
Q 3172 191 3313 153 
L 3313 0 
L 2084 0 
L 2084 153 
Q 2206 191 2259 219 
Q 2313 247 2348 297 
Q 2384 347 2404 451 
Q 2425 556 2425 769 
L 2425 1588 
Q 2425 1866 2409 2041 
Q 2394 2216 2361 2322 
Q 2328 2428 2276 2493 
Q 2225 2559 2172 2593 
Q 2119 2628 2047 2645 
Q 1975 2663 1884 2663 
Q 1756 2663 1643 2605 
Q 1531 2547 1414 2437 
Q 1297 2328 1237 2209 
Q 1178 2091 1178 1953 
L 1178 781 
Q 1178 603 1187 509 
Q 1197 416 1217 362 
Q 1238 309 1269 276 
Q 1300 244 1358 214 
Q 1416 184 1531 153 
L 1531 0 
L 306 0 
L 306 153 
Q 425 191 476 219 
Q 528 247 565 297 
Q 603 347 622 450 
Q 641 553 641 772 
L 641 2134 
Q 641 2334 634 2456 
Q 628 2578 590 2651 
Q 553 2725 476 2761 
Q 400 2797 259 2822 
L 259 2988 
L 991 3016 
L 1181 3016 
L 1147 2506 
z
" transform="scale(0.015625)"/>
       <path id="Cambria-92" d="M 1150 94 
L 1150 -566 
Q 1150 -769 1164 -869 
Q 1178 -969 1214 -1026 
Q 1250 -1084 1317 -1121 
Q 1384 -1159 1534 -1191 
L 1534 -1344 
L 259 -1344 
L 259 -1191 
Q 372 -1159 442 -1126 
Q 513 -1094 550 -1030 
Q 588 -966 600 -856 
Q 613 -747 613 -566 
L 613 2116 
Q 613 2341 606 2436 
Q 600 2531 581 2593 
Q 563 2656 527 2697 
Q 491 2738 430 2766 
Q 369 2794 228 2822 
L 228 2988 
L 963 3016 
L 1153 3016 
L 1113 2506 
L 1159 2494 
Q 1353 2691 1465 2780 
Q 1578 2869 1698 2928 
Q 1819 2988 1930 3013 
Q 2041 3038 2166 3038 
Q 2681 3038 2957 2652 
Q 3234 2266 3234 1522 
Q 3234 1006 3078 654 
Q 2922 303 2623 126 
Q 2325 -50 1913 -50 
Q 1681 -50 1493 -11 
Q 1306 28 1150 94 
z
M 1150 1125 
Q 1150 825 1187 662 
Q 1225 500 1320 398 
Q 1416 297 1545 247 
Q 1675 197 1888 197 
Q 2266 197 2456 511 
Q 2647 825 2647 1438 
Q 2647 2663 1931 2663 
Q 1756 2663 1629 2608 
Q 1503 2553 1378 2431 
Q 1253 2309 1201 2195 
Q 1150 2081 1150 1950 
L 1150 1125 
z
" transform="scale(0.015625)"/>
       <path id="Cambria-8e" d="M 1138 781 
Q 1138 513 1163 408 
Q 1188 303 1258 248 
Q 1328 194 1488 153 
L 1488 0 
L 247 0 
L 247 153 
Q 403 194 464 237 
Q 525 281 551 342 
Q 578 403 589 508 
Q 600 613 600 781 
L 600 3397 
Q 600 3697 595 3815 
Q 591 3934 570 4017 
Q 550 4100 514 4147 
Q 478 4194 417 4222 
Q 356 4250 197 4278 
L 197 4441 
L 950 4472 
L 1138 4472 
L 1138 781 
z
" transform="scale(0.015625)"/>
       <path id="Cambria-87" d="M 2800 531 
Q 2600 322 2433 203 
Q 2266 84 2066 17 
Q 1866 -50 1625 -50 
Q 981 -50 653 336 
Q 325 722 325 1475 
Q 325 1941 492 2297 
Q 659 2653 968 2847 
Q 1278 3041 1681 3041 
Q 1997 3041 2219 2941 
Q 2441 2841 2573 2667 
Q 2706 2494 2779 2230 
Q 2853 1966 2863 1541 
L 894 1541 
L 894 1484 
Q 894 1116 976 864 
Q 1059 613 1248 470 
Q 1438 328 1741 328 
Q 1997 328 2201 423 
Q 2406 519 2609 734 
L 2800 531 
z
M 2275 1800 
Q 2256 2138 2190 2352 
Q 2125 2566 1994 2680 
Q 1863 2794 1650 2794 
Q 1328 2794 1136 2536 
Q 944 2278 909 1800 
L 2275 1800 
z
" transform="scale(0.015625)"/>
       <path id="Cambria-86" d="M 2413 3397 
Q 2413 3697 2408 3815 
Q 2403 3934 2383 4017 
Q 2363 4100 2327 4147 
Q 2291 4194 2230 4222 
Q 2169 4250 2009 4278 
L 2009 4441 
L 2766 4472 
L 2950 4472 
L 2950 853 
Q 2950 609 2959 504 
Q 2969 400 3000 337 
Q 3031 275 3098 236 
Q 3166 197 3334 163 
L 3334 0 
L 2597 -31 
L 2409 -31 
L 2447 481 
L 2400 494 
Q 2203 284 2058 179 
Q 1913 75 1748 12 
Q 1584 -50 1397 -50 
Q 884 -50 606 339 
Q 328 728 328 1463 
Q 328 1975 509 2333 
Q 691 2691 998 2866 
Q 1306 3041 1691 3041 
Q 1897 3041 2065 3008 
Q 2234 2975 2413 2900 
L 2413 3397 
z
M 2413 1853 
Q 2413 2097 2391 2244 
Q 2369 2391 2317 2491 
Q 2266 2591 2178 2659 
Q 2091 2728 1986 2759 
Q 1881 2791 1734 2791 
Q 1334 2791 1125 2470 
Q 916 2150 916 1550 
Q 916 950 1087 637 
Q 1259 325 1609 325 
Q 1747 325 1837 348 
Q 1928 372 2015 423 
Q 2103 475 2193 565 
Q 2284 656 2326 731 
Q 2369 806 2391 903 
Q 2413 1000 2413 1153 
L 2413 1853 
z
" transform="scale(0.015625)"/>
       <path id="Cambria-3" transform="scale(0.015625)"/>
       <path id="Cambria-85" d="M 2631 2916 
L 2631 2263 
L 2234 2263 
Q 2181 2466 2103 2583 
Q 2025 2700 1922 2747 
Q 1819 2794 1666 2794 
Q 1447 2794 1278 2653 
Q 1109 2513 1011 2225 
Q 913 1938 913 1522 
Q 913 1256 950 1036 
Q 988 816 1078 659 
Q 1169 503 1319 415 
Q 1469 328 1691 328 
Q 1906 328 2092 412 
Q 2278 497 2478 709 
L 2656 503 
Q 2497 328 2375 233 
Q 2253 138 2114 73 
Q 1975 9 1839 -20 
Q 1703 -50 1544 -50 
Q 953 -50 640 342 
Q 328 734 328 1475 
Q 328 1938 503 2295 
Q 678 2653 993 2847 
Q 1309 3041 1722 3041 
Q 1978 3041 2195 3011 
Q 2413 2981 2631 2916 
z
" transform="scale(0.015625)"/>
       <path id="Cambria-91" d="M 1663 -50 
Q 1013 -50 670 333 
Q 328 716 328 1466 
Q 328 1981 508 2337 
Q 688 2694 1000 2867 
Q 1313 3041 1713 3041 
Q 2381 3041 2725 2652 
Q 3069 2263 3069 1534 
Q 3069 1016 2897 659 
Q 2725 303 2409 126 
Q 2094 -50 1663 -50 
z
M 919 1531 
Q 919 888 1123 542 
Q 1328 197 1709 197 
Q 1919 197 2066 298 
Q 2213 400 2305 572 
Q 2397 744 2437 970 
Q 2478 1197 2478 1444 
Q 2478 1903 2376 2206 
Q 2275 2509 2100 2651 
Q 1925 2794 1700 2794 
Q 1322 2794 1120 2466 
Q 919 2138 919 1531 
z
" transform="scale(0.015625)"/>
       <path id="Cambria-96" d="M 116 2831 
Q 272 2856 369 2918 
Q 466 2981 520 3079 
Q 575 3178 606 3326 
Q 638 3475 672 3759 
L 1116 3759 
L 1116 2988 
L 2125 2988 
L 2125 2672 
L 1116 2672 
L 1116 1281 
Q 1116 978 1141 798 
Q 1166 619 1234 517 
Q 1303 416 1390 372 
Q 1478 328 1616 328 
Q 1741 328 1850 379 
Q 1959 431 2066 528 
L 2206 359 
Q 1984 144 1786 47 
Q 1588 -50 1375 -50 
Q 972 -50 775 189 
Q 578 428 578 938 
L 578 2672 
L 116 2672 
L 116 2831 
z
" transform="scale(0.015625)"/>
       <path id="Cambria-8b" d="M 1197 4213 
L 1197 3606 
L 622 3606 
L 622 4213 
L 1197 4213 
z
M 303 153 
Q 425 191 476 219 
Q 528 247 564 297 
Q 600 347 620 450 
Q 641 553 641 772 
L 641 2134 
Q 641 2334 634 2456 
Q 628 2578 590 2651 
Q 553 2725 476 2761 
Q 400 2797 259 2822 
L 259 2988 
L 988 3016 
L 1178 3016 
L 1178 781 
Q 1178 513 1203 408 
Q 1228 303 1298 248 
Q 1369 194 1528 153 
L 1528 0 
L 303 0 
L 303 153 
z
" transform="scale(0.015625)"/>
       <path id="Cambria-90" d="M 3347 0 
L 2116 0 
L 2116 153 
Q 2238 191 2291 219 
Q 2344 247 2380 297 
Q 2416 347 2436 451 
Q 2456 556 2456 769 
L 2456 1588 
Q 2456 1806 2443 1984 
Q 2431 2163 2401 2277 
Q 2372 2391 2330 2455 
Q 2288 2519 2230 2564 
Q 2172 2609 2097 2636 
Q 2022 2663 1900 2663 
Q 1778 2663 1668 2614 
Q 1559 2566 1428 2447 
Q 1297 2328 1237 2212 
Q 1178 2097 1178 1947 
L 1178 781 
Q 1178 513 1203 408 
Q 1228 303 1298 248 
Q 1369 194 1528 153 
L 1528 0 
L 303 0 
L 303 153 
Q 425 191 476 219 
Q 528 247 564 297 
Q 600 347 620 450 
Q 641 553 641 772 
L 641 2134 
Q 641 2334 634 2456 
Q 628 2578 590 2651 
Q 553 2725 476 2761 
Q 400 2797 259 2822 
L 259 2988 
L 991 3016 
L 1181 3016 
L 1147 2506 
L 1191 2494 
Q 1422 2728 1564 2828 
Q 1706 2928 1851 2983 
Q 1997 3038 2159 3038 
Q 2328 3038 2461 2998 
Q 2594 2959 2695 2878 
Q 2797 2797 2862 2676 
Q 2928 2556 2961 2387 
Q 2994 2219 2994 1959 
L 2994 781 
Q 2994 566 3006 469 
Q 3019 372 3050 319 
Q 3081 266 3140 230 
Q 3200 194 3347 153 
L 3347 0 
z
" transform="scale(0.015625)"/>
       <path id="Cambria-97" d="M 228 2988 
L 1119 2988 
L 1119 1397 
Q 1119 1031 1147 840 
Q 1175 650 1231 553 
Q 1288 456 1391 390 
Q 1494 325 1675 325 
Q 1794 325 1903 372 
Q 2013 419 2147 536 
Q 2281 653 2339 768 
Q 2397 884 2397 1038 
L 2397 2209 
Q 2397 2388 2387 2478 
Q 2378 2569 2356 2623 
Q 2334 2678 2304 2712 
Q 2275 2747 2220 2775 
Q 2166 2803 2044 2834 
L 2044 2988 
L 2934 2988 
L 2934 853 
Q 2934 613 2943 506 
Q 2953 400 2984 337 
Q 3016 275 3081 236 
Q 3147 197 3316 163 
L 3316 0 
L 2600 -31 
L 2409 -31 
L 2428 481 
L 2381 494 
Q 2122 213 1886 81 
Q 1650 -50 1413 -50 
Q 1128 -50 943 62 
Q 759 175 668 398 
Q 578 622 578 1028 
L 578 2209 
Q 578 2472 558 2570 
Q 538 2669 480 2726 
Q 422 2784 228 2834 
L 228 2988 
z
" transform="scale(0.015625)"/>
       <path id="Cambria-94" d="M 1147 2469 
L 1191 2459 
Q 1363 2669 1509 2789 
Q 1656 2909 1826 2975 
Q 1997 3041 2213 3041 
Q 2394 3041 2541 3022 
L 2541 2303 
L 2188 2303 
Q 2113 2472 2028 2548 
Q 1944 2625 1797 2625 
Q 1684 2625 1573 2559 
Q 1463 2494 1359 2369 
Q 1256 2244 1217 2134 
Q 1178 2025 1178 1875 
L 1178 781 
Q 1178 497 1212 389 
Q 1247 281 1326 231 
Q 1406 181 1566 153 
L 1566 0 
L 306 0 
L 306 153 
Q 425 191 476 219 
Q 528 247 565 297 
Q 603 347 622 450 
Q 641 553 641 772 
L 641 2134 
Q 641 2334 634 2456 
Q 628 2578 590 2651 
Q 553 2725 476 2761 
Q 400 2797 259 2822 
L 259 2984 
L 991 3016 
L 1181 3016 
L 1147 2469 
z
" transform="scale(0.015625)"/>
       <path id="Cambria-20b" d="M 2309 -1359 
Q 1778 -1359 1442 -1200 
Q 1106 -1041 918 -714 
Q 731 -388 647 134 
Q 563 656 563 1550 
Q 563 2438 645 2964 
Q 728 3491 915 3822 
Q 1103 4153 1440 4318 
Q 1778 4484 2309 4484 
L 2309 4228 
Q 2091 4228 1922 4191 
Q 1731 4147 1597 4022 
Q 1447 3884 1353 3638 
Q 1244 3350 1191 2875 
Q 1134 2372 1134 1575 
Q 1134 872 1181 379 
Q 1228 -113 1338 -425 
Q 1425 -688 1556 -834 
Q 1672 -963 1831 -1028 
Q 2016 -1103 2309 -1103 
L 2309 -1359 
z
" transform="scale(0.015625)"/>
       <path id="Cambria-84" d="M 1091 2497 
L 1103 2494 
Q 1322 2722 1467 2825 
Q 1613 2928 1767 2983 
Q 1922 3038 2106 3038 
Q 2441 3038 2680 2867 
Q 2919 2697 3048 2356 
Q 3178 2016 3178 1522 
Q 3178 1013 3023 661 
Q 2869 309 2567 129 
Q 2266 -50 1853 -50 
Q 1622 -50 1417 -8 
Q 1213 34 988 141 
L 769 -50 
L 553 0 
L 553 3397 
Q 553 3697 548 3815 
Q 544 3934 523 4017 
Q 503 4100 467 4147 
Q 431 4194 370 4222 
Q 309 4250 150 4278 
L 150 4441 
L 906 4472 
L 1091 4472 
L 1091 2497 
z
M 1091 1125 
Q 1091 884 1112 742 
Q 1134 600 1186 506 
Q 1238 413 1336 334 
Q 1434 256 1556 226 
Q 1678 197 1828 197 
Q 2203 197 2397 503 
Q 2591 809 2591 1422 
Q 2591 2041 2414 2352 
Q 2238 2663 1881 2663 
Q 1703 2663 1578 2608 
Q 1453 2553 1329 2437 
Q 1206 2322 1148 2209 
Q 1091 2097 1091 1953 
L 1091 1125 
z
" transform="scale(0.015625)"/>
       <path id="Cambria-20c" d="M 134 4484 
Q 666 4484 1002 4325 
Q 1338 4166 1525 3839 
Q 1713 3513 1797 2991 
Q 1881 2469 1881 1575 
Q 1881 688 1798 161 
Q 1716 -366 1528 -697 
Q 1341 -1028 1003 -1193 
Q 666 -1359 134 -1359 
L 134 -1103 
Q 353 -1103 522 -1066 
Q 713 -1022 847 -897 
Q 997 -759 1091 -513 
Q 1200 -225 1253 250 
Q 1309 753 1309 1550 
Q 1309 2253 1262 2745 
Q 1216 3238 1106 3550 
Q 1019 3813 888 3959 
Q 772 4088 613 4153 
Q 428 4228 134 4228 
L 134 4484 
z
" transform="scale(0.015625)"/>
      </defs>
      <use xlink:href="#Cambria-95"/>
      <use xlink:href="#Cambria-83" transform="translate(42.96875 0)"/>
      <use xlink:href="#Cambria-8f" transform="translate(91.796875 0)"/>
      <use xlink:href="#Cambria-92" transform="translate(175 0)"/>
      <use xlink:href="#Cambria-8e" transform="translate(230.609375 0)"/>
      <use xlink:href="#Cambria-87" transform="translate(257.765625 0)"/>
      <use xlink:href="#Cambria-86" transform="translate(306.546875 0)"/>
      <use xlink:href="#Cambria-3" transform="translate(362.015625 0)"/>
      <use xlink:href="#Cambria-85" transform="translate(384.03125 0)"/>
      <use xlink:href="#Cambria-91" transform="translate(428.125 0)"/>
      <use xlink:href="#Cambria-95" transform="translate(481.203125 0)"/>
      <use xlink:href="#Cambria-96" transform="translate(524.171875 0)"/>
      <use xlink:href="#Cambria-3" transform="translate(558.015625 0)"/>
      <use xlink:href="#Cambria-8f" transform="translate(580.03125 0)"/>
      <use xlink:href="#Cambria-8b" transform="translate(663.234375 0)"/>
      <use xlink:href="#Cambria-90" transform="translate(691.015625 0)"/>
      <use xlink:href="#Cambria-97" transform="translate(746.828125 0)"/>
      <use xlink:href="#Cambria-95" transform="translate(802.046875 0)"/>
      <use xlink:href="#Cambria-3" transform="translate(845.015625 0)"/>
      <use xlink:href="#Cambria-92" transform="translate(867.03125 0)"/>
      <use xlink:href="#Cambria-94" transform="translate(922.640625 0)"/>
      <use xlink:href="#Cambria-8b" transform="translate(964 0)"/>
      <use xlink:href="#Cambria-90" transform="translate(991.78125 0)"/>
      <use xlink:href="#Cambria-96" transform="translate(1047.59375 0)"/>
      <use xlink:href="#Cambria-87" transform="translate(1080.5625 0)"/>
      <use xlink:href="#Cambria-86" transform="translate(1129.34375 0)"/>
      <use xlink:href="#Cambria-3" transform="translate(1184.8125 0)"/>
      <use xlink:href="#Cambria-85" transform="translate(1206.828125 0)"/>
      <use xlink:href="#Cambria-91" transform="translate(1250.921875 0)"/>
      <use xlink:href="#Cambria-95" transform="translate(1304 0)"/>
      <use xlink:href="#Cambria-96" transform="translate(1346.96875 0)"/>
      <use xlink:href="#Cambria-3" transform="translate(1380.8125 0)"/>
      <use xlink:href="#Cambria-20b" transform="translate(1402.828125 0)"/>
      <use xlink:href="#Cambria-84" transform="translate(1441.015625 0)"/>
      <use xlink:href="#Cambria-8b" transform="translate(1495.75 0)"/>
      <use xlink:href="#Cambria-96" transform="translate(1523.53125 0)"/>
      <use xlink:href="#Cambria-95" transform="translate(1557.375 0)"/>
      <use xlink:href="#Cambria-20c" transform="translate(1600.34375 0)"/>
     </g>
    </g>
   </g>
   <g id="matplotlib.axis_2">
    <g id="ytick_1">
     <g id="line2d_15">
      <path d="M 155.128469 39.553424 
L 476.084719 39.553424 
" clip-path="url(#pfa0a45998d)" style="fill: none; stroke: #e1e0d9; stroke-width: 0.7; stroke-linecap: square"/>
     </g>
     <g id="line2d_16">
      <defs>
       <path id="mc62895e4b2" d="M 0 0 
L -3.5 0 
" style="stroke: #898781; stroke-width: 0.8"/>
      </defs>
      <g>
       <use xlink:href="#mc62895e4b2" x="155.128469" y="39.553424" style="fill: #898781; stroke: #898781; stroke-width: 0.8"/>
      </g>
     </g>
     <g id="text_9">
      <!-- BLS12-128, paper domain -->
      <g style="fill: #52514e" transform="translate(52.436 42.898101) scale(0.086 -0.086)">
       <defs>
        <path id="Cambria-5" d="M 378 0 
L 378 153 
Q 572 203 637 264 
Q 703 325 723 437 
Q 744 550 744 781 
L 744 3484 
Q 744 3700 728 3798 
Q 713 3897 677 3951 
Q 641 4006 581 4039 
Q 522 4072 378 4113 
L 378 4266 
L 2088 4266 
Q 2584 4266 2886 4159 
Q 3188 4053 3334 3845 
Q 3481 3638 3481 3309 
Q 3481 3038 3376 2838 
Q 3272 2638 3103 2506 
Q 2934 2375 2669 2263 
L 2669 2234 
Q 3094 2106 3312 1839 
Q 3531 1572 3531 1203 
Q 3531 778 3342 509 
Q 3153 241 2812 120 
Q 2472 0 1988 0 
L 378 0 
z
M 1875 2353 
Q 2350 2353 2601 2583 
Q 2853 2813 2853 3250 
Q 2853 3466 2783 3608 
Q 2713 3750 2589 3834 
Q 2466 3919 2297 3955 
Q 2128 3991 1931 3991 
Q 1813 3991 1619 3984 
Q 1425 3978 1328 3972 
L 1328 2353 
L 1875 2353 
z
M 1328 297 
Q 1556 275 1838 275 
Q 2247 275 2473 378 
Q 2700 481 2801 682 
Q 2903 884 2903 1188 
Q 2903 1491 2792 1687 
Q 2681 1884 2450 1981 
Q 2219 2078 1813 2078 
L 1328 2078 
L 1328 297 
z
" transform="scale(0.015625)"/>
        <path id="Cambria-f" d="M 1328 288 
L 2147 288 
Q 2281 288 2372 303 
Q 2463 319 2527 351 
Q 2591 384 2642 442 
Q 2694 500 2741 594 
Q 2788 688 2830 830 
Q 2872 972 2934 1256 
L 3250 1256 
L 3188 0 
L 378 0 
L 378 153 
Q 572 203 637 264 
Q 703 325 723 437 
Q 744 550 744 781 
L 744 3484 
Q 744 3700 728 3798 
Q 713 3897 677 3951 
Q 641 4006 581 4039 
Q 522 4072 378 4113 
L 378 4266 
L 1694 4266 
L 1694 4113 
Q 1556 4075 1498 4045 
Q 1441 4016 1403 3966 
Q 1366 3916 1347 3812 
Q 1328 3709 1328 3484 
L 1328 288 
z
" transform="scale(0.015625)"/>
        <path id="Cambria-16" d="M 663 972 
Q 725 697 831 537 
Q 938 378 1106 301 
Q 1275 225 1541 225 
Q 1906 225 2101 415 
Q 2297 606 2297 972 
Q 2297 1206 2215 1365 
Q 2134 1525 1950 1665 
Q 1766 1806 1388 1994 
Q 1022 2175 809 2348 
Q 597 2522 492 2725 
Q 388 2928 388 3169 
Q 388 3519 552 3776 
Q 716 4034 1033 4175 
Q 1350 4316 1759 4316 
Q 1997 4316 2223 4291 
Q 2450 4266 2791 4178 
L 2791 3334 
L 2481 3334 
Q 2409 3609 2300 3762 
Q 2191 3916 2044 3977 
Q 1897 4038 1663 4038 
Q 1459 4038 1298 3963 
Q 1138 3888 1044 3736 
Q 950 3584 950 3375 
Q 950 3153 1029 3000 
Q 1109 2847 1278 2715 
Q 1447 2584 1778 2422 
Q 2178 2222 2398 2050 
Q 2619 1878 2742 1658 
Q 2866 1438 2866 1144 
Q 2866 816 2762 589 
Q 2659 363 2476 220 
Q 2294 78 2039 14 
Q 1784 -50 1481 -50 
Q 991 -50 350 116 
L 350 972 
L 663 972 
z
" transform="scale(0.015625)"/>
        <path id="Cambria-1e6" d="M 1788 1403 
L 338 1403 
L 338 1888 
L 1788 1888 
L 1788 1403 
z
" transform="scale(0.015625)"/>
        <path id="Cambria-37a" d="M 2475 2253 
L 2481 2213 
Q 2834 2075 3015 1811 
Q 3197 1547 3197 1175 
Q 3197 809 3022 531 
Q 2847 253 2514 101 
Q 2181 -50 1738 -50 
Q 1322 -50 1008 89 
Q 694 228 520 495 
Q 347 763 347 1125 
Q 347 1397 440 1597 
Q 534 1797 686 1926 
Q 838 2056 1069 2163 
L 1063 2203 
Q 391 2494 391 3200 
Q 391 3522 567 3775 
Q 744 4028 1070 4172 
Q 1397 4316 1794 4316 
Q 2244 4316 2550 4189 
Q 2856 4063 3011 3823 
Q 3166 3584 3166 3250 
Q 3166 2906 2997 2657 
Q 2828 2409 2475 2253 
z
M 978 3228 
Q 978 3044 1022 2881 
Q 1066 2719 1162 2600 
Q 1259 2481 1414 2411 
Q 1569 2341 1794 2341 
Q 2053 2341 2229 2442 
Q 2406 2544 2492 2739 
Q 2578 2934 2578 3191 
Q 2578 3472 2476 3667 
Q 2375 3863 2197 3956 
Q 2019 4050 1788 4050 
Q 1394 4050 1186 3836 
Q 978 3622 978 3228 
z
M 944 1178 
Q 944 975 991 798 
Q 1038 622 1139 494 
Q 1241 366 1400 291 
Q 1559 216 1788 216 
Q 2044 216 2226 320 
Q 2409 425 2504 631 
Q 2600 838 2600 1119 
Q 2600 1419 2497 1636 
Q 2394 1853 2206 1967 
Q 2019 2081 1772 2081 
Q 1541 2081 1383 2009 
Q 1225 1938 1126 1816 
Q 1028 1694 986 1530 
Q 944 1366 944 1178 
z
" transform="scale(0.015625)"/>
        <path id="Cambria-1e1" d="M 966 725 
Q 1009 506 1009 294 
Q 1009 75 934 -106 
Q 859 -288 695 -467 
Q 531 -647 244 -863 
L 75 -672 
Q 234 -522 306 -401 
Q 378 -281 409 -128 
Q 441 25 441 256 
Q 441 494 419 725 
L 966 725 
z
" transform="scale(0.015625)"/>
       </defs>
       <use xlink:href="#Cambria-5"/>
       <use xlink:href="#Cambria-f" transform="translate(61.140625 0)"/>
       <use xlink:href="#Cambria-16" transform="translate(114.109375 0)"/>
       <use xlink:href="#Cambria-373" transform="translate(163.71875 0)"/>
       <use xlink:href="#Cambria-374" transform="translate(219.09375 0)"/>
       <use xlink:href="#Cambria-1e6" transform="translate(274.46875 0)"/>
       <use xlink:href="#Cambria-373" transform="translate(307.671875 0)"/>
       <use xlink:href="#Cambria-374" transform="translate(363.046875 0)"/>
       <use xlink:href="#Cambria-37a" transform="translate(418.421875 0)"/>
       <use xlink:href="#Cambria-1e1" transform="translate(473.796875 0)"/>
       <use xlink:href="#Cambria-3" transform="translate(494.3125 0)"/>
       <use xlink:href="#Cambria-92" transform="translate(516.328125 0)"/>
       <use xlink:href="#Cambria-83" transform="translate(571.9375 0)"/>
       <use xlink:href="#Cambria-92" transform="translate(620.765625 0)"/>
       <use xlink:href="#Cambria-87" transform="translate(676.375 0)"/>
       <use xlink:href="#Cambria-94" transform="translate(725.15625 0)"/>
       <use xlink:href="#Cambria-3" transform="translate(766.515625 0)"/>
       <use xlink:href="#Cambria-86" transform="translate(788.53125 0)"/>
       <use xlink:href="#Cambria-91" transform="translate(844 0)"/>
       <use xlink:href="#Cambria-8f" transform="translate(897.078125 0)"/>
       <use xlink:href="#Cambria-83" transform="translate(980.28125 0)"/>
       <use xlink:href="#Cambria-8b" transform="translate(1029.109375 0)"/>
       <use xlink:href="#Cambria-90" transform="translate(1056.890625 0)"/>
      </g>
     </g>
    </g>
    <g id="ytick_2">
     <g id="line2d_17">
      <path d="M 155.128469 60.163564 
L 476.084719 60.163564 
" clip-path="url(#pfa0a45998d)" style="fill: none; stroke: #e1e0d9; stroke-width: 0.7; stroke-linecap: square"/>
     </g>
     <g id="line2d_18">
      <g>
       <use xlink:href="#mc62895e4b2" x="155.128469" y="60.163564" style="fill: #898781; stroke: #898781; stroke-width: 0.8"/>
      </g>
     </g>
     <g id="text_10">
      <!-- BN-128, paper domain -->
      <g style="fill: #52514e" transform="translate(64.928844 63.508242) scale(0.086 -0.086)">
       <defs>
        <path id="Cambria-11" d="M 2888 1691 
Q 3000 1503 3076 1362 
Q 3153 1222 3234 1047 
L 3275 1047 
Q 3259 1238 3246 1805 
Q 3234 2372 3234 2828 
L 3234 3484 
Q 3234 3700 3221 3800 
Q 3209 3900 3176 3953 
Q 3144 4006 3086 4039 
Q 3028 4072 2884 4113 
L 2884 4266 
L 4009 4266 
L 4009 4113 
Q 3869 4075 3811 4044 
Q 3753 4013 3717 3963 
Q 3681 3913 3662 3813 
Q 3644 3713 3644 3484 
L 3644 -19 
L 3253 -19 
L 1513 2900 
Q 1350 3172 1281 3297 
Q 1213 3422 1153 3544 
L 1100 3544 
Q 1122 3303 1131 2673 
Q 1141 2044 1141 1419 
L 1141 781 
Q 1141 572 1155 475 
Q 1169 378 1201 322 
Q 1234 266 1298 228 
Q 1363 191 1506 153 
L 1506 0 
L 366 0 
L 366 153 
Q 559 203 625 264 
Q 691 325 711 437 
Q 731 550 731 781 
L 731 3484 
Q 731 3700 715 3798 
Q 700 3897 664 3951 
Q 628 4006 568 4039 
Q 509 4072 366 4113 
L 366 4266 
L 1344 4266 
L 2888 1691 
z
" transform="scale(0.015625)"/>
       </defs>
       <use xlink:href="#Cambria-5"/>
       <use xlink:href="#Cambria-11" transform="translate(61.140625 0)"/>
       <use xlink:href="#Cambria-1e6" transform="translate(129.203125 0)"/>
       <use xlink:href="#Cambria-373" transform="translate(162.40625 0)"/>
       <use xlink:href="#Cambria-374" transform="translate(217.78125 0)"/>
       <use xlink:href="#Cambria-37a" transform="translate(273.15625 0)"/>
       <use xlink:href="#Cambria-1e1" transform="translate(328.53125 0)"/>
       <use xlink:href="#Cambria-3" transform="translate(349.046875 0)"/>
       <use xlink:href="#Cambria-92" transform="translate(371.0625 0)"/>
       <use xlink:href="#Cambria-83" transform="translate(426.671875 0)"/>
       <use xlink:href="#Cambria-92" transform="translate(475.5 0)"/>
       <use xlink:href="#Cambria-87" transform="translate(531.109375 0)"/>
       <use xlink:href="#Cambria-94" transform="translate(579.890625 0)"/>
       <use xlink:href="#Cambria-3" transform="translate(621.25 0)"/>
       <use xlink:href="#Cambria-86" transform="translate(643.265625 0)"/>
       <use xlink:href="#Cambria-91" transform="translate(698.734375 0)"/>
       <use xlink:href="#Cambria-8f" transform="translate(751.8125 0)"/>
       <use xlink:href="#Cambria-83" transform="translate(835.015625 0)"/>
       <use xlink:href="#Cambria-8b" transform="translate(883.84375 0)"/>
       <use xlink:href="#Cambria-90" transform="translate(911.625 0)"/>
      </g>
     </g>
    </g>
    <g id="ytick_3">
     <g id="line2d_19">
      <path d="M 155.128469 80.773705 
L 476.084719 80.773705 
" clip-path="url(#pfa0a45998d)" style="fill: none; stroke: #e1e0d9; stroke-width: 0.7; stroke-linecap: square"/>
     </g>
     <g id="line2d_20">
      <g>
       <use xlink:href="#mc62895e4b2" x="155.128469" y="80.773705" style="fill: #898781; stroke: #898781; stroke-width: 0.8"/>
      </g>
     </g>
     <g id="text_11">
      <!-- BN-128, public-code bound -->
      <g style="fill: #52514e" transform="translate(47.800062 84.118383) scale(0.086 -0.086)">
       <use xlink:href="#Cambria-5"/>
       <use xlink:href="#Cambria-11" transform="translate(61.140625 0)"/>
       <use xlink:href="#Cambria-1e6" transform="translate(129.203125 0)"/>
       <use xlink:href="#Cambria-373" transform="translate(162.40625 0)"/>
       <use xlink:href="#Cambria-374" transform="translate(217.78125 0)"/>
       <use xlink:href="#Cambria-37a" transform="translate(273.15625 0)"/>
       <use xlink:href="#Cambria-1e1" transform="translate(328.53125 0)"/>
       <use xlink:href="#Cambria-3" transform="translate(349.046875 0)"/>
       <use xlink:href="#Cambria-92" transform="translate(371.0625 0)"/>
       <use xlink:href="#Cambria-97" transform="translate(426.671875 0)"/>
       <use xlink:href="#Cambria-84" transform="translate(481.890625 0)"/>
       <use xlink:href="#Cambria-8e" transform="translate(536.625 0)"/>
       <use xlink:href="#Cambria-8b" transform="translate(563.78125 0)"/>
       <use xlink:href="#Cambria-85" transform="translate(591.5625 0)"/>
       <use xlink:href="#Cambria-1e6" transform="translate(635.65625 0)"/>
       <use xlink:href="#Cambria-85" transform="translate(668.859375 0)"/>
       <use xlink:href="#Cambria-91" transform="translate(712.953125 0)"/>
       <use xlink:href="#Cambria-86" transform="translate(766.03125 0)"/>
       <use xlink:href="#Cambria-87" transform="translate(821.5 0)"/>
       <use xlink:href="#Cambria-3" transform="translate(870.28125 0)"/>
       <use xlink:href="#Cambria-84" transform="translate(892.296875 0)"/>
       <use xlink:href="#Cambria-91" transform="translate(947.03125 0)"/>
       <use xlink:href="#Cambria-97" transform="translate(1000.109375 0)"/>
       <use xlink:href="#Cambria-90" transform="translate(1055.328125 0)"/>
       <use xlink:href="#Cambria-86" transform="translate(1111.140625 0)"/>
      </g>
     </g>
    </g>
    <g id="ytick_4">
     <g id="line2d_21">
      <path d="M 155.128469 101.383846 
L 476.084719 101.383846 
" clip-path="url(#pfa0a45998d)" style="fill: none; stroke: #e1e0d9; stroke-width: 0.7; stroke-linecap: square"/>
     </g>
     <g id="line2d_22">
      <g>
       <use xlink:href="#mc62895e4b2" x="155.128469" y="101.383846" style="fill: #898781; stroke: #898781; stroke-width: 0.8"/>
      </g>
     </g>
     <g id="text_12">
      <!-- KSS16-128, paper domain -->
      <g style="fill: #52514e" transform="translate(52.696687 104.728523) scale(0.086 -0.086)">
       <defs>
        <path id="Cambria-e" d="M 1325 2338 
L 1419 2338 
Q 1538 2338 1636 2375 
Q 1734 2413 1856 2516 
Q 1978 2619 2228 2900 
Q 2528 3234 2638 3384 
Q 2775 3563 2822 3684 
Q 2859 3775 2859 3859 
Q 2859 3984 2787 4042 
Q 2716 4100 2591 4113 
L 2591 4266 
L 3953 4266 
L 3953 4113 
Q 3853 4091 3756 4036 
Q 3659 3981 3557 3886 
Q 3456 3791 3259 3572 
L 2209 2391 
L 3347 738 
Q 3528 475 3631 370 
Q 3734 266 3828 217 
Q 3922 169 4028 153 
L 4028 0 
L 2650 0 
L 2650 153 
Q 2766 163 2819 197 
Q 2872 231 2872 300 
Q 2872 356 2836 436 
Q 2800 516 2722 628 
L 1994 1713 
Q 1866 1906 1806 1968 
Q 1747 2031 1678 2061 
Q 1609 2091 1494 2091 
L 1328 2091 
L 1328 781 
Q 1328 572 1342 475 
Q 1356 378 1389 322 
Q 1422 266 1486 228 
Q 1550 191 1694 153 
L 1694 0 
L 378 0 
L 378 153 
Q 572 203 637 264 
Q 703 325 723 437 
Q 744 550 744 781 
L 744 3484 
Q 744 3700 728 3798 
Q 713 3897 677 3951 
Q 641 4006 581 4039 
Q 522 4072 378 4113 
L 378 4266 
L 1694 4266 
L 1694 4113 
Q 1556 4078 1495 4043 
Q 1434 4009 1398 3957 
Q 1363 3906 1345 3803 
Q 1328 3700 1328 3484 
L 1325 2338 
z
" transform="scale(0.015625)"/>
        <path id="Cambria-378" d="M 2847 4144 
L 2847 3991 
Q 2366 3991 1994 3784 
Q 1622 3578 1376 3178 
Q 1131 2778 1031 2228 
L 1063 2216 
Q 1325 2403 1579 2490 
Q 1834 2578 2131 2578 
Q 2484 2578 2732 2423 
Q 2981 2269 3106 1989 
Q 3231 1709 3231 1334 
Q 3231 928 3075 617 
Q 2919 306 2592 128 
Q 2266 -50 1788 -50 
Q 1103 -50 754 375 
Q 406 800 406 1628 
Q 406 2184 581 2668 
Q 756 3153 1078 3514 
Q 1400 3875 1825 4083 
Q 2250 4291 2719 4316 
L 2847 4144 
z
M 1916 2250 
Q 1763 2250 1620 2215 
Q 1478 2181 1353 2115 
Q 1228 2050 1109 1950 
Q 1072 1916 1053 1878 
Q 1022 1819 1012 1731 
Q 1003 1644 1003 1438 
Q 1003 841 1203 528 
Q 1403 216 1809 216 
Q 2044 216 2203 297 
Q 2363 378 2461 520 
Q 2559 663 2601 855 
Q 2644 1047 2644 1272 
Q 2644 1734 2453 1992 
Q 2263 2250 1916 2250 
z
" transform="scale(0.015625)"/>
       </defs>
       <use xlink:href="#Cambria-e"/>
       <use xlink:href="#Cambria-16" transform="translate(61.46875 0)"/>
       <use xlink:href="#Cambria-16" transform="translate(111.078125 0)"/>
       <use xlink:href="#Cambria-373" transform="translate(160.6875 0)"/>
       <use xlink:href="#Cambria-378" transform="translate(216.0625 0)"/>
       <use xlink:href="#Cambria-1e6" transform="translate(271.4375 0)"/>
       <use xlink:href="#Cambria-373" transform="translate(304.640625 0)"/>
       <use xlink:href="#Cambria-374" transform="translate(360.015625 0)"/>
       <use xlink:href="#Cambria-37a" transform="translate(415.390625 0)"/>
       <use xlink:href="#Cambria-1e1" transform="translate(470.765625 0)"/>
       <use xlink:href="#Cambria-3" transform="translate(491.28125 0)"/>
       <use xlink:href="#Cambria-92" transform="translate(513.296875 0)"/>
       <use xlink:href="#Cambria-83" transform="translate(568.90625 0)"/>
       <use xlink:href="#Cambria-92" transform="translate(617.734375 0)"/>
       <use xlink:href="#Cambria-87" transform="translate(673.34375 0)"/>
       <use xlink:href="#Cambria-94" transform="translate(722.125 0)"/>
       <use xlink:href="#Cambria-3" transform="translate(763.484375 0)"/>
       <use xlink:href="#Cambria-86" transform="translate(785.5 0)"/>
       <use xlink:href="#Cambria-91" transform="translate(840.96875 0)"/>
       <use xlink:href="#Cambria-8f" transform="translate(894.046875 0)"/>
       <use xlink:href="#Cambria-83" transform="translate(977.25 0)"/>
       <use xlink:href="#Cambria-8b" transform="translate(1026.078125 0)"/>
       <use xlink:href="#Cambria-90" transform="translate(1053.859375 0)"/>
      </g>
     </g>
    </g>
    <g id="ytick_5">
     <g id="line2d_23">
      <path d="M 155.128469 121.993986 
L 476.084719 121.993986 
" clip-path="url(#pfa0a45998d)" style="fill: none; stroke: #e1e0d9; stroke-width: 0.7; stroke-linecap: square"/>
     </g>
     <g id="line2d_24">
      <g>
       <use xlink:href="#mc62895e4b2" x="155.128469" y="121.993986" style="fill: #898781; stroke: #898781; stroke-width: 0.8"/>
      </g>
     </g>
     <g id="text_13">
      <!-- KSS16-128, public-code bound -->
      <g style="fill: #52514e" transform="translate(35.567906 125.338664) scale(0.086 -0.086)">
       <use xlink:href="#Cambria-e"/>
       <use xlink:href="#Cambria-16" transform="translate(61.46875 0)"/>
       <use xlink:href="#Cambria-16" transform="translate(111.078125 0)"/>
       <use xlink:href="#Cambria-373" transform="translate(160.6875 0)"/>
       <use xlink:href="#Cambria-378" transform="translate(216.0625 0)"/>
       <use xlink:href="#Cambria-1e6" transform="translate(271.4375 0)"/>
       <use xlink:href="#Cambria-373" transform="translate(304.640625 0)"/>
       <use xlink:href="#Cambria-374" transform="translate(360.015625 0)"/>
       <use xlink:href="#Cambria-37a" transform="translate(415.390625 0)"/>
       <use xlink:href="#Cambria-1e1" transform="translate(470.765625 0)"/>
       <use xlink:href="#Cambria-3" transform="translate(491.28125 0)"/>
       <use xlink:href="#Cambria-92" transform="translate(513.296875 0)"/>
       <use xlink:href="#Cambria-97" transform="translate(568.90625 0)"/>
       <use xlink:href="#Cambria-84" transform="translate(624.125 0)"/>
       <use xlink:href="#Cambria-8e" transform="translate(678.859375 0)"/>
       <use xlink:href="#Cambria-8b" transform="translate(706.015625 0)"/>
       <use xlink:href="#Cambria-85" transform="translate(733.796875 0)"/>
       <use xlink:href="#Cambria-1e6" transform="translate(777.890625 0)"/>
       <use xlink:href="#Cambria-85" transform="translate(811.09375 0)"/>
       <use xlink:href="#Cambria-91" transform="translate(855.1875 0)"/>
       <use xlink:href="#Cambria-86" transform="translate(908.265625 0)"/>
       <use xlink:href="#Cambria-87" transform="translate(963.734375 0)"/>
       <use xlink:href="#Cambria-3" transform="translate(1012.515625 0)"/>
       <use xlink:href="#Cambria-84" transform="translate(1034.53125 0)"/>
       <use xlink:href="#Cambria-91" transform="translate(1089.265625 0)"/>
       <use xlink:href="#Cambria-97" transform="translate(1142.34375 0)"/>
       <use xlink:href="#Cambria-90" transform="translate(1197.5625 0)"/>
       <use xlink:href="#Cambria-86" transform="translate(1253.375 0)"/>
      </g>
     </g>
    </g>
    <g id="ytick_6">
     <g id="line2d_25">
      <path d="M 155.128469 142.604127 
L 476.084719 142.604127 
" clip-path="url(#pfa0a45998d)" style="fill: none; stroke: #e1e0d9; stroke-width: 0.7; stroke-linecap: square"/>
     </g>
     <g id="line2d_26">
      <g>
       <use xlink:href="#mc62895e4b2" x="155.128469" y="142.604127" style="fill: #898781; stroke: #898781; stroke-width: 0.8"/>
      </g>
     </g>
     <g id="text_14">
      <!-- BLS24-192, paper domain (A=9) -->
      <g style="fill: #52514e" transform="translate(29.091031 145.948805) scale(0.086 -0.086)">
       <defs>
        <path id="Cambria-376" d="M 1613 153 
Q 1806 203 1872 264 
Q 1938 325 1958 437 
Q 1978 550 1978 781 
L 1978 1294 
L 241 1294 
L 241 1528 
L 2069 4288 
L 2516 4288 
L 2516 1597 
L 2581 1597 
Q 2763 1597 2841 1623 
Q 2919 1650 2970 1717 
Q 3022 1784 3066 1938 
L 3303 1938 
L 3266 1294 
L 2516 1294 
L 2516 781 
Q 2516 572 2530 475 
Q 2544 378 2576 322 
Q 2609 266 2673 228 
Q 2738 191 2881 153 
L 2881 0 
L 1613 0 
L 1613 153 
z
M 756 1597 
L 1978 1597 
L 1978 2375 
Q 1978 2669 1987 3033 
Q 1997 3397 2009 3581 
L 1978 3581 
L 756 1641 
L 756 1597 
z
" transform="scale(0.015625)"/>
        <path id="Cambria-37b" d="M 978 122 
L 978 275 
Q 1416 275 1736 469 
Q 2056 663 2251 1042 
Q 2447 1422 2513 2038 
L 2481 2050 
Q 2219 1863 1964 1775 
Q 1709 1688 1413 1688 
Q 1059 1688 811 1842 
Q 563 1997 438 2276 
Q 313 2556 313 2931 
Q 313 3213 406 3464 
Q 500 3716 684 3905 
Q 869 4094 1145 4205 
Q 1422 4316 1791 4316 
Q 2447 4316 2790 3862 
Q 3134 3409 3134 2559 
Q 3134 1781 2881 1211 
Q 2628 641 2172 323 
Q 1716 6 1106 -50 
L 978 122 
z
M 1628 2016 
Q 1747 2016 1855 2036 
Q 1963 2056 2066 2095 
Q 2169 2134 2267 2195 
Q 2366 2256 2444 2325 
Q 2472 2350 2494 2390 
Q 2516 2431 2528 2497 
Q 2541 2563 2541 2703 
Q 2541 3131 2455 3436 
Q 2369 3741 2192 3895 
Q 2016 4050 1756 4050 
Q 1522 4050 1359 3969 
Q 1197 3888 1095 3745 
Q 994 3603 947 3411 
Q 900 3219 900 2994 
Q 900 2528 1090 2272 
Q 1281 2016 1628 2016 
z
" transform="scale(0.015625)"/>
        <path id="Cambria-4" d="M 2488 0 
L 2488 153 
Q 2644 184 2720 221 
Q 2797 259 2834 326 
Q 2872 394 2872 506 
Q 2872 613 2847 736 
Q 2822 859 2775 1013 
L 2659 1416 
L 1203 1416 
L 1097 1109 
Q 1016 878 991 759 
Q 966 641 966 544 
Q 966 356 1061 268 
Q 1156 181 1353 153 
L 1353 0 
L 19 0 
L 19 153 
Q 194 181 323 356 
Q 453 531 575 856 
L 1878 4316 
L 2372 4316 
L 3434 831 
Q 3509 588 3567 459 
Q 3625 331 3706 259 
Q 3788 188 3928 153 
L 3928 0 
L 2488 0 
z
M 1288 1688 
L 2594 1688 
L 2000 3703 
L 1288 1688 
z
" transform="scale(0.015625)"/>
        <path id="Cambria-3b1" d="M 388 2259 
L 388 2694 
L 3156 2694 
L 3156 2259 
L 388 2259 
z
M 388 963 
L 388 1397 
L 3156 1397 
L 3156 963 
L 388 963 
z
" transform="scale(0.015625)"/>
       </defs>
       <use xlink:href="#Cambria-5"/>
       <use xlink:href="#Cambria-f" transform="translate(61.140625 0)"/>
       <use xlink:href="#Cambria-16" transform="translate(114.109375 0)"/>
       <use xlink:href="#Cambria-374" transform="translate(163.71875 0)"/>
       <use xlink:href="#Cambria-376" transform="translate(219.09375 0)"/>
       <use xlink:href="#Cambria-1e6" transform="translate(274.46875 0)"/>
       <use xlink:href="#Cambria-373" transform="translate(307.671875 0)"/>
       <use xlink:href="#Cambria-37b" transform="translate(363.046875 0)"/>
       <use xlink:href="#Cambria-374" transform="translate(418.421875 0)"/>
       <use xlink:href="#Cambria-1e1" transform="translate(473.796875 0)"/>
       <use xlink:href="#Cambria-3" transform="translate(494.3125 0)"/>
       <use xlink:href="#Cambria-92" transform="translate(516.328125 0)"/>
       <use xlink:href="#Cambria-83" transform="translate(571.9375 0)"/>
       <use xlink:href="#Cambria-92" transform="translate(620.765625 0)"/>
       <use xlink:href="#Cambria-87" transform="translate(676.375 0)"/>
       <use xlink:href="#Cambria-94" transform="translate(725.15625 0)"/>
       <use xlink:href="#Cambria-3" transform="translate(766.515625 0)"/>
       <use xlink:href="#Cambria-86" transform="translate(788.53125 0)"/>
       <use xlink:href="#Cambria-91" transform="translate(844 0)"/>
       <use xlink:href="#Cambria-8f" transform="translate(897.078125 0)"/>
       <use xlink:href="#Cambria-83" transform="translate(980.28125 0)"/>
       <use xlink:href="#Cambria-8b" transform="translate(1029.109375 0)"/>
       <use xlink:href="#Cambria-90" transform="translate(1056.890625 0)"/>
       <use xlink:href="#Cambria-3" transform="translate(1112.703125 0)"/>
       <use xlink:href="#Cambria-20b" transform="translate(1134.71875 0)"/>
       <use xlink:href="#Cambria-4" transform="translate(1172.90625 0)"/>
       <use xlink:href="#Cambria-3b1" transform="translate(1235.21875 0)"/>
       <use xlink:href="#Cambria-37b" transform="translate(1290.59375 0)"/>
       <use xlink:href="#Cambria-20c" transform="translate(1345.96875 0)"/>
      </g>
     </g>
    </g>
    <g id="ytick_7">
     <g id="line2d_27">
      <path d="M 155.128469 163.214268 
L 476.084719 163.214268 
" clip-path="url(#pfa0a45998d)" style="fill: none; stroke: #e1e0d9; stroke-width: 0.7; stroke-linecap: square"/>
     </g>
     <g id="line2d_28">
      <g>
       <use xlink:href="#mc62895e4b2" x="155.128469" y="163.214268" style="fill: #898781; stroke: #898781; stroke-width: 0.8"/>
      </g>
     </g>
     <g id="text_15">
      <!-- BLS24-192, public-code bound (A=9) -->
      <g style="fill: #52514e" transform="translate(11.96225 166.558945) scale(0.086 -0.086)">
       <use xlink:href="#Cambria-5"/>
       <use xlink:href="#Cambria-f" transform="translate(61.140625 0)"/>
       <use xlink:href="#Cambria-16" transform="translate(114.109375 0)"/>
       <use xlink:href="#Cambria-374" transform="translate(163.71875 0)"/>
       <use xlink:href="#Cambria-376" transform="translate(219.09375 0)"/>
       <use xlink:href="#Cambria-1e6" transform="translate(274.46875 0)"/>
       <use xlink:href="#Cambria-373" transform="translate(307.671875 0)"/>
       <use xlink:href="#Cambria-37b" transform="translate(363.046875 0)"/>
       <use xlink:href="#Cambria-374" transform="translate(418.421875 0)"/>
       <use xlink:href="#Cambria-1e1" transform="translate(473.796875 0)"/>
       <use xlink:href="#Cambria-3" transform="translate(494.3125 0)"/>
       <use xlink:href="#Cambria-92" transform="translate(516.328125 0)"/>
       <use xlink:href="#Cambria-97" transform="translate(571.9375 0)"/>
       <use xlink:href="#Cambria-84" transform="translate(627.15625 0)"/>
       <use xlink:href="#Cambria-8e" transform="translate(681.890625 0)"/>
       <use xlink:href="#Cambria-8b" transform="translate(709.046875 0)"/>
       <use xlink:href="#Cambria-85" transform="translate(736.828125 0)"/>
       <use xlink:href="#Cambria-1e6" transform="translate(780.921875 0)"/>
       <use xlink:href="#Cambria-85" transform="translate(814.125 0)"/>
       <use xlink:href="#Cambria-91" transform="translate(858.21875 0)"/>
       <use xlink:href="#Cambria-86" transform="translate(911.296875 0)"/>
       <use xlink:href="#Cambria-87" transform="translate(966.765625 0)"/>
       <use xlink:href="#Cambria-3" transform="translate(1015.546875 0)"/>
       <use xlink:href="#Cambria-84" transform="translate(1037.5625 0)"/>
       <use xlink:href="#Cambria-91" transform="translate(1092.296875 0)"/>
       <use xlink:href="#Cambria-97" transform="translate(1145.375 0)"/>
       <use xlink:href="#Cambria-90" transform="translate(1200.59375 0)"/>
       <use xlink:href="#Cambria-86" transform="translate(1256.40625 0)"/>
       <use xlink:href="#Cambria-3" transform="translate(1311.875 0)"/>
       <use xlink:href="#Cambria-20b" transform="translate(1333.890625 0)"/>
       <use xlink:href="#Cambria-4" transform="translate(1372.078125 0)"/>
       <use xlink:href="#Cambria-3b1" transform="translate(1434.390625 0)"/>
       <use xlink:href="#Cambria-37b" transform="translate(1489.765625 0)"/>
       <use xlink:href="#Cambria-20c" transform="translate(1545.140625 0)"/>
      </g>
     </g>
    </g>
    <g id="ytick_8">
     <g id="line2d_29">
      <path d="M 155.128469 183.824408 
L 476.084719 183.824408 
" clip-path="url(#pfa0a45998d)" style="fill: none; stroke: #e1e0d9; stroke-width: 0.7; stroke-linecap: square"/>
     </g>
     <g id="line2d_30">
      <g>
       <use xlink:href="#mc62895e4b2" x="155.128469" y="183.824408" style="fill: #898781; stroke: #898781; stroke-width: 0.8"/>
      </g>
     </g>
     <g id="text_16">
      <!-- BLS24-192, public-code bound (A=10) -->
      <g style="fill: #52514e" transform="translate(7.2 187.169086) scale(0.086 -0.086)">
       <use xlink:href="#Cambria-5"/>
       <use xlink:href="#Cambria-f" transform="translate(61.140625 0)"/>
       <use xlink:href="#Cambria-16" transform="translate(114.109375 0)"/>
       <use xlink:href="#Cambria-374" transform="translate(163.71875 0)"/>
       <use xlink:href="#Cambria-376" transform="translate(219.09375 0)"/>
       <use xlink:href="#Cambria-1e6" transform="translate(274.46875 0)"/>
       <use xlink:href="#Cambria-373" transform="translate(307.671875 0)"/>
       <use xlink:href="#Cambria-37b" transform="translate(363.046875 0)"/>
       <use xlink:href="#Cambria-374" transform="translate(418.421875 0)"/>
       <use xlink:href="#Cambria-1e1" transform="translate(473.796875 0)"/>
       <use xlink:href="#Cambria-3" transform="translate(494.3125 0)"/>
       <use xlink:href="#Cambria-92" transform="translate(516.328125 0)"/>
       <use xlink:href="#Cambria-97" transform="translate(571.9375 0)"/>
       <use xlink:href="#Cambria-84" transform="translate(627.15625 0)"/>
       <use xlink:href="#Cambria-8e" transform="translate(681.890625 0)"/>
       <use xlink:href="#Cambria-8b" transform="translate(709.046875 0)"/>
       <use xlink:href="#Cambria-85" transform="translate(736.828125 0)"/>
       <use xlink:href="#Cambria-1e6" transform="translate(780.921875 0)"/>
       <use xlink:href="#Cambria-85" transform="translate(814.125 0)"/>
       <use xlink:href="#Cambria-91" transform="translate(858.21875 0)"/>
       <use xlink:href="#Cambria-86" transform="translate(911.296875 0)"/>
       <use xlink:href="#Cambria-87" transform="translate(966.765625 0)"/>
       <use xlink:href="#Cambria-3" transform="translate(1015.546875 0)"/>
       <use xlink:href="#Cambria-84" transform="translate(1037.5625 0)"/>
       <use xlink:href="#Cambria-91" transform="translate(1092.296875 0)"/>
       <use xlink:href="#Cambria-97" transform="translate(1145.375 0)"/>
       <use xlink:href="#Cambria-90" transform="translate(1200.59375 0)"/>
       <use xlink:href="#Cambria-86" transform="translate(1256.40625 0)"/>
       <use xlink:href="#Cambria-3" transform="translate(1311.875 0)"/>
       <use xlink:href="#Cambria-20b" transform="translate(1333.890625 0)"/>
       <use xlink:href="#Cambria-4" transform="translate(1372.078125 0)"/>
       <use xlink:href="#Cambria-3b1" transform="translate(1434.390625 0)"/>
       <use xlink:href="#Cambria-373" transform="translate(1489.765625 0)"/>
       <use xlink:href="#Cambria-372" transform="translate(1545.140625 0)"/>
       <use xlink:href="#Cambria-20c" transform="translate(1600.515625 0)"/>
      </g>
     </g>
    </g>
   </g>
   <g id="patch_3">
    <path d="M 400.068765 33.16428 
L 399.171588 33.16428 
L 399.171588 45.942567 
L 400.068765 45.942567 
z
" clip-path="url(#pfa0a45998d)" style="fill: #2a78d6; stroke: #fcfcfb; stroke-width: 0.6; stroke-linejoin: miter"/>
   </g>
   <g id="patch_4">
    <path d="M 400.068765 53.774421 
L 402.229966 53.774421 
L 402.229966 66.552708 
L 400.068765 66.552708 
z
" clip-path="url(#pfa0a45998d)" style="fill: #2a78d6; stroke: #fcfcfb; stroke-width: 0.6; stroke-linejoin: miter"/>
   </g>
   <g id="patch_5">
    <path d="M 400.068765 74.384561 
L 403.012085 74.384561 
L 403.012085 87.162849 
L 400.068765 87.162849 
z
" clip-path="url(#pfa0a45998d)" style="fill: #2a78d6; stroke: #fcfcfb; stroke-width: 0.6; stroke-linejoin: miter"/>
   </g>
   <g id="patch_6">
    <path d="M 400.068765 94.994702 
L 328.503217 94.994702 
L 328.503217 107.772989 
L 400.068765 107.772989 
z
" clip-path="url(#pfa0a45998d)" style="fill: #2a78d6; stroke: #fcfcfb; stroke-width: 0.6; stroke-linejoin: miter"/>
   </g>
   <g id="patch_7">
    <path d="M 400.068765 115.604843 
L 389.926339 115.604843 
L 389.926339 128.38313 
L 400.068765 128.38313 
z
" clip-path="url(#pfa0a45998d)" style="fill: #2a78d6; stroke: #fcfcfb; stroke-width: 0.6; stroke-linejoin: miter"/>
   </g>
   <g id="patch_8">
    <path d="M 400.068765 136.214983 
L 191.888506 136.214983 
L 191.888506 148.993271 
L 400.068765 148.993271 
z
" clip-path="url(#pfa0a45998d)" style="fill: #e34948; stroke: #fcfcfb; stroke-width: 0.6; stroke-linejoin: miter"/>
   </g>
   <g id="patch_9">
    <path d="M 400.068765 156.825124 
L 238.178161 156.825124 
L 238.178161 169.603411 
L 400.068765 169.603411 
z
" clip-path="url(#pfa0a45998d)" style="fill: #e34948; stroke: #fcfcfb; stroke-width: 0.6; stroke-linejoin: miter"/>
   </g>
   <g id="patch_10">
    <path d="M 400.068765 177.435265 
L 353.673716 177.435265 
L 353.673716 190.213552 
L 400.068765 190.213552 
z
" clip-path="url(#pfa0a45998d)" style="fill: #eda100; stroke: #fcfcfb; stroke-width: 0.6; stroke-linejoin: miter"/>
   </g>
   <g id="line2d_31">
    <path d="M 400.068765 198.066016 
L 400.068765 25.311816 
" clip-path="url(#pfa0a45998d)" style="fill: none; stroke: #0b0b0b; stroke-linecap: square"/>
   </g>
   <g id="line2d_32">
    <path d="M 383.176331 198.066016 
L 383.176331 25.311816 
" clip-path="url(#pfa0a45998d)" style="fill: none; stroke-dasharray: 0.9,1.485; stroke-dashoffset: 0; stroke: #898781; stroke-width: 0.9"/>
   </g>
   <g id="line2d_33">
    <path d="M 416.961199 198.066016 
L 416.961199 25.311816 
" clip-path="url(#pfa0a45998d)" style="fill: none; stroke-dasharray: 0.9,1.485; stroke-dashoffset: 0; stroke: #898781; stroke-width: 0.9"/>
   </g>
   <g id="patch_11">
    <path d="M 155.128469 198.066016 
L 155.128469 25.311816 
" style="fill: none; stroke: #c3c2b7; stroke-width: 0.9; stroke-linejoin: miter; stroke-linecap: square"/>
   </g>
   <g id="patch_12">
    <path d="M 155.128469 198.066016 
L 476.084719 198.066016 
" style="fill: none; stroke: #c3c2b7; stroke-width: 0.9; stroke-linejoin: miter; stroke-linecap: square"/>
   </g>
   <g id="text_17">
    <!-- 0.2-bit band -->
    <g style="fill: #898781" transform="translate(338.19209 196.190493) scale(0.082 -0.082)">
     <use xlink:href="#Cambria-372"/>
     <use xlink:href="#Cambria-1e4" transform="translate(55.375 0)"/>
     <use xlink:href="#Cambria-374" transform="translate(75.890625 0)"/>
     <use xlink:href="#Cambria-1e6" transform="translate(131.265625 0)"/>
     <use xlink:href="#Cambria-84" transform="translate(164.46875 0)"/>
     <use xlink:href="#Cambria-8b" transform="translate(219.203125 0)"/>
     <use xlink:href="#Cambria-96" transform="translate(246.984375 0)"/>
     <use xlink:href="#Cambria-3" transform="translate(280.828125 0)"/>
     <use xlink:href="#Cambria-84" transform="translate(302.84375 0)"/>
     <use xlink:href="#Cambria-83" transform="translate(357.578125 0)"/>
     <use xlink:href="#Cambria-90" transform="translate(406.40625 0)"/>
     <use xlink:href="#Cambria-86" transform="translate(462.21875 0)"/>
    </g>
   </g>
   <g id="text_18">
    <!-- -0.01 -->
    <g style="fill: #52514e" transform="translate(376.921292 41.831646) scale(0.082 -0.082)">
     <use xlink:href="#Cambria-1e6"/>
     <use xlink:href="#Cambria-372" transform="translate(33.203125 0)"/>
     <use xlink:href="#Cambria-1e4" transform="translate(88.578125 0)"/>
     <use xlink:href="#Cambria-372" transform="translate(109.09375 0)"/>
     <use xlink:href="#Cambria-373" transform="translate(164.46875 0)"/>
    </g>
   </g>
   <g id="text_19">
    <!-- +0.03 -->
    <g style="fill: #52514e" transform="translate(406.453075 62.441787) scale(0.082 -0.082)">
     <defs>
      <path id="Cambria-3aa" d="M 2000 1613 
L 2000 428 
L 1541 428 
L 1541 1613 
L 388 1613 
L 388 2047 
L 1541 2047 
L 1541 3228 
L 2000 3228 
L 2000 2047 
L 3156 2047 
L 3156 1613 
L 2000 1613 
z
" transform="scale(0.015625)"/>
      <path id="Cambria-375" d="M 497 3381 
L 497 3975 
Q 859 4147 1175 4231 
Q 1491 4316 1784 4316 
Q 2138 4316 2403 4206 
Q 2669 4097 2809 3892 
Q 2950 3688 2950 3403 
Q 2950 3138 2844 2936 
Q 2738 2734 2545 2584 
Q 2353 2434 2047 2291 
L 2047 2263 
Q 2238 2228 2414 2145 
Q 2591 2063 2728 1931 
Q 2866 1800 2948 1617 
Q 3031 1434 3031 1200 
Q 3031 838 2873 556 
Q 2716 275 2391 112 
Q 2066 -50 1600 -50 
Q 1331 -50 1020 11 
Q 709 72 450 172 
L 450 834 
L 825 834 
Q 934 509 1114 362 
Q 1294 216 1603 216 
Q 2009 216 2217 437 
Q 2425 659 2425 1094 
Q 2425 1550 2150 1790 
Q 1875 2031 1344 2031 
L 1063 2031 
L 1063 2306 
Q 1484 2331 1773 2468 
Q 2063 2606 2203 2822 
Q 2344 3038 2344 3306 
Q 2344 3653 2159 3840 
Q 1975 4028 1622 4028 
Q 1328 4028 1143 3868 
Q 959 3709 872 3381 
L 497 3381 
z
" transform="scale(0.015625)"/>
     </defs>
     <use xlink:href="#Cambria-3aa"/>
     <use xlink:href="#Cambria-372" transform="translate(55.375 0)"/>
     <use xlink:href="#Cambria-1e4" transform="translate(110.75 0)"/>
     <use xlink:href="#Cambria-372" transform="translate(131.265625 0)"/>
     <use xlink:href="#Cambria-375" transform="translate(186.640625 0)"/>
    </g>
   </g>
   <g id="text_20">
    <!-- +0.03 -->
    <g style="fill: #52514e" transform="translate(407.235194 83.051928) scale(0.082 -0.082)">
     <use xlink:href="#Cambria-3aa"/>
     <use xlink:href="#Cambria-372" transform="translate(55.375 0)"/>
     <use xlink:href="#Cambria-1e4" transform="translate(110.75 0)"/>
     <use xlink:href="#Cambria-372" transform="translate(131.265625 0)"/>
     <use xlink:href="#Cambria-375" transform="translate(186.640625 0)"/>
    </g>
   </g>
   <g id="text_21">
    <!-- -0.85 -->
    <g style="fill: #52514e" transform="translate(306.252921 103.662068) scale(0.082 -0.082)">
     <use xlink:href="#Cambria-1e6"/>
     <use xlink:href="#Cambria-372" transform="translate(33.203125 0)"/>
     <use xlink:href="#Cambria-1e4" transform="translate(88.578125 0)"/>
     <use xlink:href="#Cambria-37a" transform="translate(109.09375 0)"/>
     <use xlink:href="#Cambria-377" transform="translate(164.46875 0)"/>
    </g>
   </g>
   <g id="text_22">
    <!-- -0.12 -->
    <g style="fill: #52514e" transform="translate(367.676043 124.272209) scale(0.082 -0.082)">
     <use xlink:href="#Cambria-1e6"/>
     <use xlink:href="#Cambria-372" transform="translate(33.203125 0)"/>
     <use xlink:href="#Cambria-1e4" transform="translate(88.578125 0)"/>
     <use xlink:href="#Cambria-373" transform="translate(109.09375 0)"/>
     <use xlink:href="#Cambria-374" transform="translate(164.46875 0)"/>
    </g>
   </g>
   <g id="text_23">
    <!-- -2.46 -->
    <g style="fill: #52514e" transform="translate(169.63821 144.88235) scale(0.082 -0.082)">
     <use xlink:href="#Cambria-1e6"/>
     <use xlink:href="#Cambria-374" transform="translate(33.203125 0)"/>
     <use xlink:href="#Cambria-1e4" transform="translate(88.578125 0)"/>
     <use xlink:href="#Cambria-376" transform="translate(109.09375 0)"/>
     <use xlink:href="#Cambria-378" transform="translate(164.46875 0)"/>
    </g>
   </g>
   <g id="text_24">
    <!-- -1.92 -->
    <g style="fill: #52514e" transform="translate(215.927865 165.49249) scale(0.082 -0.082)">
     <use xlink:href="#Cambria-1e6"/>
     <use xlink:href="#Cambria-373" transform="translate(33.203125 0)"/>
     <use xlink:href="#Cambria-1e4" transform="translate(88.578125 0)"/>
     <use xlink:href="#Cambria-37b" transform="translate(109.09375 0)"/>
     <use xlink:href="#Cambria-374" transform="translate(164.46875 0)"/>
    </g>
   </g>
   <g id="text_25">
    <!-- -0.55 -->
    <g style="fill: #52514e" transform="translate(331.42342 186.102631) scale(0.082 -0.082)">
     <use xlink:href="#Cambria-1e6"/>
     <use xlink:href="#Cambria-372" transform="translate(33.203125 0)"/>
     <use xlink:href="#Cambria-1e4" transform="translate(88.578125 0)"/>
     <use xlink:href="#Cambria-377" transform="translate(109.09375 0)"/>
     <use xlink:href="#Cambria-377" transform="translate(164.46875 0)"/>
    </g>
   </g>
   <g id="text_26">
    <!-- Finite-size regression audit against Barbulescu–Duquesne rows -->
    <g style="fill: #0b0b0b" transform="translate(155.128469 17.311816) scale(0.13 -0.13)">
     <defs>
      <path id="Cambria-9" d="M 3228 4266 
L 3228 3322 
L 2922 3322 
Q 2853 3534 2789 3665 
Q 2725 3797 2654 3865 
Q 2584 3934 2490 3962 
Q 2397 3991 2244 3991 
L 1328 3991 
L 1328 2291 
L 1972 2291 
Q 2109 2291 2187 2336 
Q 2266 2381 2317 2487 
Q 2369 2594 2416 2816 
L 2709 2816 
L 2709 1497 
L 2416 1497 
Q 2369 1709 2316 1817 
Q 2263 1925 2189 1970 
Q 2116 2016 1972 2016 
L 1328 2016 
L 1328 791 
Q 1328 603 1350 490 
Q 1372 378 1422 312 
Q 1472 247 1556 214 
Q 1641 181 1766 153 
L 1766 0 
L 378 0 
L 378 153 
Q 572 203 637 264 
Q 703 325 723 437 
Q 744 550 744 781 
L 744 3484 
Q 744 3700 728 3798 
Q 713 3897 677 3951 
Q 641 4006 581 4039 
Q 522 4072 378 4113 
L 378 4266 
L 3228 4266 
z
" transform="scale(0.015625)"/>
      <path id="Cambria-9c" d="M 2659 906 
L 2659 0 
L 253 0 
L 253 153 
L 1966 2734 
L 1119 2734 
Q 963 2734 872 2678 
Q 781 2622 700 2490 
Q 619 2359 544 2138 
L 272 2138 
L 272 2988 
L 2641 2988 
L 2641 2831 
L 931 253 
L 1753 253 
Q 1916 253 1997 278 
Q 2078 303 2137 358 
Q 2197 413 2253 531 
Q 2309 650 2388 906 
L 2659 906 
z
" transform="scale(0.015625)"/>
      <path id="Cambria-89" d="M 3106 2672 
L 2528 2694 
L 2500 2659 
Q 2597 2563 2653 2395 
Q 2709 2228 2709 2034 
Q 2709 1525 2395 1248 
Q 2081 972 1503 972 
Q 1244 972 1056 1038 
Q 819 856 819 681 
Q 819 566 864 506 
Q 909 447 1014 422 
Q 1119 397 1331 397 
L 2081 397 
Q 2413 397 2622 294 
Q 2831 191 2920 17 
Q 3009 -156 3009 -388 
Q 3009 -681 2840 -911 
Q 2672 -1141 2353 -1269 
Q 2034 -1397 1609 -1397 
Q 1294 -1397 1033 -1359 
Q 772 -1322 586 -1233 
Q 400 -1144 298 -998 
Q 197 -853 197 -634 
Q 197 -438 328 -277 
Q 459 -116 700 6 
Q 553 66 468 181 
Q 384 297 384 453 
Q 384 631 484 779 
Q 584 928 838 1119 
Q 613 1250 495 1475 
Q 378 1700 378 1988 
Q 378 2256 467 2454 
Q 556 2653 714 2783 
Q 872 2913 1087 2977 
Q 1303 3041 1553 3041 
Q 1778 3041 2000 2988 
L 3106 2988 
L 3106 2672 
z
M 938 2038 
Q 938 1647 1097 1434 
Q 1256 1222 1556 1222 
Q 1716 1222 1828 1283 
Q 1941 1344 2011 1450 
Q 2081 1556 2114 1695 
Q 2147 1834 2147 1988 
Q 2147 2263 2069 2447 
Q 1991 2631 1856 2717 
Q 1722 2803 1547 2803 
Q 1250 2803 1094 2606 
Q 938 2409 938 2038 
z
M 1016 -50 
Q 856 -169 776 -301 
Q 697 -434 697 -603 
Q 697 -884 920 -1017 
Q 1144 -1150 1603 -1150 
Q 1884 -1150 2086 -1075 
Q 2288 -1000 2394 -859 
Q 2500 -719 2500 -531 
Q 2500 -444 2478 -361 
Q 2456 -278 2395 -212 
Q 2334 -147 2221 -108 
Q 2109 -69 1928 -69 
L 1463 -69 
Q 1209 -69 1016 -50 
z
" transform="scale(0.015625)"/>
      <path id="Cambria-202" d="M 2919 1438 
L 281 1438 
L 281 1850 
L 2919 1850 
L 2919 1438 
z
" transform="scale(0.015625)"/>
      <path id="Cambria-7" d="M 375 0 
L 375 153 
Q 519 191 581 225 
Q 644 259 678 312 
Q 713 366 728 466 
Q 744 566 744 781 
L 744 3484 
Q 744 3703 728 3801 
Q 713 3900 677 3953 
Q 641 4006 581 4039 
Q 522 4072 375 4113 
L 375 4266 
L 1744 4266 
Q 2334 4266 2711 4136 
Q 3088 4006 3347 3753 
Q 3606 3500 3734 3123 
Q 3863 2747 3863 2225 
Q 3863 1697 3742 1295 
Q 3622 894 3391 622 
Q 3191 384 2900 231 
Q 2659 106 2343 53 
Q 2028 0 1506 0 
L 375 0 
z
M 1328 291 
Q 1453 278 1697 278 
Q 1959 278 2165 322 
Q 2372 366 2540 459 
Q 2709 553 2843 720 
Q 2978 888 3062 1105 
Q 3147 1322 3186 1587 
Q 3225 1853 3225 2169 
Q 3225 2803 3042 3211 
Q 2859 3619 2526 3806 
Q 2194 3994 1731 3994 
Q 1519 3994 1328 3981 
L 1328 291 
z
" transform="scale(0.015625)"/>
      <path id="Cambria-93" d="M 3300 -1344 
L 2025 -1344 
L 2025 -1191 
Q 2175 -1159 2242 -1121 
Q 2309 -1084 2345 -1026 
Q 2381 -969 2395 -870 
Q 2409 -772 2409 -566 
L 2409 513 
Q 2241 322 2095 208 
Q 1950 94 1772 22 
Q 1594 -50 1394 -50 
Q 878 -50 601 334 
Q 325 719 325 1453 
Q 325 1972 504 2330 
Q 684 2688 1006 2864 
Q 1328 3041 1750 3041 
Q 1972 3041 2150 2995 
Q 2328 2950 2516 2850 
L 2734 3041 
L 2947 2991 
L 2947 -566 
Q 2947 -750 2961 -858 
Q 2975 -966 3011 -1028 
Q 3047 -1091 3117 -1125 
Q 3188 -1159 3300 -1191 
L 3300 -1344 
z
M 2409 1863 
Q 2409 2153 2371 2312 
Q 2334 2472 2243 2583 
Q 2153 2694 2031 2742 
Q 1909 2791 1744 2791 
Q 1341 2791 1127 2466 
Q 913 2141 913 1550 
Q 913 950 1086 637 
Q 1259 325 1606 325 
Q 1738 325 1830 348 
Q 1922 372 2011 425 
Q 2100 478 2192 568 
Q 2284 659 2325 732 
Q 2366 806 2387 903 
Q 2409 1000 2409 1153 
L 2409 1863 
z
" transform="scale(0.015625)"/>
      <path id="Cambria-99" d="M 2494 2334 
L 1675 -16 
L 1241 -16 
L 491 2303 
Q 419 2528 370 2620 
Q 322 2713 267 2758 
Q 213 2803 91 2834 
L 91 2988 
L 1325 2988 
L 1325 2834 
Q 1144 2797 1080 2736 
Q 1016 2675 1016 2553 
Q 1016 2469 1034 2376 
Q 1053 2284 1091 2163 
L 1581 569 
L 2384 2988 
L 2825 2988 
L 3506 569 
L 4056 2097 
Q 4100 2216 4128 2323 
Q 4156 2431 4156 2525 
Q 4156 2656 4086 2728 
Q 4016 2800 3847 2834 
L 3847 2988 
L 4938 2988 
L 4938 2834 
Q 4850 2813 4806 2789 
Q 4763 2766 4720 2720 
Q 4678 2675 4626 2579 
Q 4575 2484 4497 2284 
L 3594 -16 
L 3172 -16 
L 2494 2334 
z
" transform="scale(0.015625)"/>
     </defs>
     <use xlink:href="#Cambria-9"/>
     <use xlink:href="#Cambria-8b" transform="translate(53.65625 0)"/>
     <use xlink:href="#Cambria-90" transform="translate(81.4375 0)"/>
     <use xlink:href="#Cambria-8b" transform="translate(137.25 0)"/>
     <use xlink:href="#Cambria-96" transform="translate(165.03125 0)"/>
     <use xlink:href="#Cambria-87" transform="translate(198 0)"/>
     <use xlink:href="#Cambria-1e6" transform="translate(246.78125 0)"/>
     <use xlink:href="#Cambria-95" transform="translate(279.984375 0)"/>
     <use xlink:href="#Cambria-8b" transform="translate(322.953125 0)"/>
     <use xlink:href="#Cambria-9c" transform="translate(350.734375 0)"/>
     <use xlink:href="#Cambria-87" transform="translate(396.1875 0)"/>
     <use xlink:href="#Cambria-3" transform="translate(444.96875 0)"/>
     <use xlink:href="#Cambria-94" transform="translate(466.984375 0)"/>
     <use xlink:href="#Cambria-87" transform="translate(506.875 0)"/>
     <use xlink:href="#Cambria-89" transform="translate(555.65625 0)"/>
     <use xlink:href="#Cambria-94" transform="translate(605.078125 0)"/>
     <use xlink:href="#Cambria-87" transform="translate(644.96875 0)"/>
     <use xlink:href="#Cambria-95" transform="translate(693.75 0)"/>
     <use xlink:href="#Cambria-95" transform="translate(736.71875 0)"/>
     <use xlink:href="#Cambria-8b" transform="translate(779.6875 0)"/>
     <use xlink:href="#Cambria-91" transform="translate(807.46875 0)"/>
     <use xlink:href="#Cambria-90" transform="translate(860.546875 0)"/>
     <use xlink:href="#Cambria-3" transform="translate(916.359375 0)"/>
     <use xlink:href="#Cambria-83" transform="translate(938.375 0)"/>
     <use xlink:href="#Cambria-97" transform="translate(987.203125 0)"/>
     <use xlink:href="#Cambria-86" transform="translate(1042.421875 0)"/>
     <use xlink:href="#Cambria-8b" transform="translate(1097.890625 0)"/>
     <use xlink:href="#Cambria-96" transform="translate(1125.671875 0)"/>
     <use xlink:href="#Cambria-3" transform="translate(1159.515625 0)"/>
     <use xlink:href="#Cambria-83" transform="translate(1181.53125 0)"/>
     <use xlink:href="#Cambria-89" transform="translate(1230.359375 0)"/>
     <use xlink:href="#Cambria-83" transform="translate(1278.953125 0)"/>
     <use xlink:href="#Cambria-8b" transform="translate(1327.78125 0)"/>
     <use xlink:href="#Cambria-90" transform="translate(1355.5625 0)"/>
     <use xlink:href="#Cambria-95" transform="translate(1411.375 0)"/>
     <use xlink:href="#Cambria-96" transform="translate(1454.34375 0)"/>
     <use xlink:href="#Cambria-3" transform="translate(1488.1875 0)"/>
     <use xlink:href="#Cambria-5" transform="translate(1510.203125 0)"/>
     <use xlink:href="#Cambria-83" transform="translate(1571.34375 0)"/>
     <use xlink:href="#Cambria-94" transform="translate(1620.171875 0)"/>
     <use xlink:href="#Cambria-84" transform="translate(1661.046875 0)"/>
     <use xlink:href="#Cambria-97" transform="translate(1715.78125 0)"/>
     <use xlink:href="#Cambria-8e" transform="translate(1771 0)"/>
     <use xlink:href="#Cambria-87" transform="translate(1798.15625 0)"/>
     <use xlink:href="#Cambria-95" transform="translate(1846.9375 0)"/>
     <use xlink:href="#Cambria-85" transform="translate(1889.90625 0)"/>
     <use xlink:href="#Cambria-97" transform="translate(1934 0)"/>
     <use xlink:href="#Cambria-202" transform="translate(1989.21875 0)"/>
     <use xlink:href="#Cambria-7" transform="translate(2039.21875 0)"/>
     <use xlink:href="#Cambria-97" transform="translate(2105.375 0)"/>
     <use xlink:href="#Cambria-93" transform="translate(2160.59375 0)"/>
     <use xlink:href="#Cambria-97" transform="translate(2215.28125 0)"/>
     <use xlink:href="#Cambria-87" transform="translate(2270.5 0)"/>
     <use xlink:href="#Cambria-95" transform="translate(2319.28125 0)"/>
     <use xlink:href="#Cambria-90" transform="translate(2362.25 0)"/>
     <use xlink:href="#Cambria-87" transform="translate(2418.0625 0)"/>
     <use xlink:href="#Cambria-3" transform="translate(2466.84375 0)"/>
     <use xlink:href="#Cambria-94" transform="translate(2488.859375 0)"/>
     <use xlink:href="#Cambria-91" transform="translate(2528.75 0)"/>
     <use xlink:href="#Cambria-99" transform="translate(2581.34375 0)"/>
     <use xlink:href="#Cambria-95" transform="translate(2657.953125 0)"/>
    </g>
   </g>
  </g>
 </g>
 <defs>
  <clipPath id="pfa0a45998d">
   <rect x="155.128469" y="25.311816" width="320.95625" height="172.754199"/>
  </clipPath>
 </defs>
</svg>
