<?xml version="1.0" encoding="utf-8" standalone="no"?>
<!DOCTYPE svg PUBLIC "-//W3C//DTD SVG 1.1//EN"
  "http://www.w3.org/Graphics/SVG/1.1/DTD/svg11.dtd">
<svg xmlns:xlink="http://www.w3.org/1999/xlink" width="496.959435pt" height="217.166016pt" viewBox="0 0 496.959435 217.166016" xmlns="http://www.w3.org/2000/svg" version="1.1">
 <metadata>
  <rdf:RDF xmlns:dc="http://purl.org/dc/elements/1.1/" xmlns:cc="http://creativecommons.org/ns#" xmlns:rdf="http://www.w3.org/1999/02/22-rdf-syntax-ns#">
   <cc:Work>
    <dc:type rdf:resource="http://purl.org/dc/dcmitype/StillImage"/>
    <dc:date>2026-07-23T00:43:14.771621</dc:date>
    <dc:format>image/svg+xml</dc:format>
    <dc:creator>
     <cc:Agent>
      <dc:title>Matplotlib v3.11.1, https://matplotlib.org/</dc:title>
     </cc:Agent>
    </dc:creator>
   </cc:Work>
  </rdf:RDF>
 </metadata>
 <defs>
  <style type="text/css">*{stroke-linejoin: round; stroke-linecap: butt}</style>
 </defs>
 <g id="figure_1">
  <g id="patch_1">
   <path d="M 0 217.166016 
L 496.959435 217.166016 
L 496.959435 -0 
L 0 -0 
z
" style="fill: #fcfcfb"/>
  </g>
  <g id="axes_1">
   <g id="patch_2">
    <path d="M 41.82875 176.466016 
L 247.573425 176.466016 
L 247.573425 25.311816 
L 41.82875 25.311816 
z
" style="fill: #fcfcfb"/>
   </g>
   <g id="matplotlib.axis_1">
    <g id="xtick_1">
     <g id="line2d_1">
      <path d="M 43.277656 176.466016 
L 43.277656 25.311816 
" clip-path="url(#p0783d7100b)" style="fill: none; stroke: #e1e0d9; stroke-width: 0.7; stroke-linecap: square"/>
     </g>
     <g id="line2d_2">
      <defs>
       <path id="me9d1ca95c3" d="M 0 0 
L 0 3.5 
" style="stroke: #898781; stroke-width: 0.8"/>
      </defs>
      <g>
       <use xlink:href="#me9d1ca95c3" x="43.277656" y="176.466016" style="fill: #898781; stroke: #898781; stroke-width: 0.8"/>
      </g>
     </g>
     <g id="text_1">
      <!-- 700 -->
      <g style="fill: #52514e" transform="translate(34.556094 191.633252) scale(0.105 -0.105)">
       <defs>
        <path id="Cambria-379" d="M 3206 4116 
L 1388 -22 
L 934 -22 
L 934 131 
L 2619 3697 
L 2619 3744 
L 1244 3744 
Q 1116 3744 1039 3720 
Q 963 3697 911 3653 
Q 859 3609 825 3537 
Q 791 3466 731 3253 
L 463 3253 
L 525 4266 
L 3206 4266 
L 3206 4116 
z
" transform="scale(0.015625)"/>
        <path id="Cambria-372" d="M 1738 -50 
Q 1063 -50 733 481 
Q 403 1013 403 2094 
Q 403 2669 504 3087 
Q 606 3506 789 3779 
Q 972 4053 1228 4184 
Q 1484 4316 1788 4316 
Q 2472 4316 2806 3787 
Q 3141 3259 3141 2191 
Q 3141 1084 2783 517 
Q 2425 -50 1738 -50 
z
M 1013 2188 
Q 1013 1169 1202 692 
Q 1391 216 1788 216 
Q 2166 216 2348 664 
Q 2531 1113 2531 2053 
Q 2531 2772 2437 3217 
Q 2344 3663 2176 3856 
Q 2009 4050 1772 4050 
Q 1556 4050 1411 3922 
Q 1266 3794 1177 3553 
Q 1088 3313 1050 2967 
Q 1013 2622 1013 2188 
z
" transform="scale(0.015625)"/>
       </defs>
       <use xlink:href="#Cambria-379"/>
       <use xlink:href="#Cambria-372" transform="translate(55.375 0)"/>
       <use xlink:href="#Cambria-372" transform="translate(110.75 0)"/>
      </g>
     </g>
    </g>
    <g id="xtick_2">
     <g id="line2d_3">
      <path d="M 109.137027 176.466016 
L 109.137027 25.311816 
" clip-path="url(#p0783d7100b)" style="fill: none; stroke: #e1e0d9; stroke-width: 0.7; stroke-linecap: square"/>
     </g>
     <g id="line2d_4">
      <g>
       <use xlink:href="#me9d1ca95c3" x="109.137027" y="176.466016" style="fill: #898781; stroke: #898781; stroke-width: 0.8"/>
      </g>
     </g>
     <g id="text_2">
      <!-- 750 -->
      <g style="fill: #52514e" transform="translate(100.415465 191.633252) scale(0.105 -0.105)">
       <defs>
        <path id="Cambria-377" d="M 469 172 
L 469 834 
L 847 834 
Q 941 516 1130 366 
Q 1319 216 1619 216 
Q 2034 216 2246 466 
Q 2459 716 2459 1213 
Q 2459 1544 2346 1761 
Q 2234 1978 2043 2075 
Q 1853 2172 1600 2172 
Q 1388 2172 1234 2145 
Q 1081 2119 906 2063 
L 656 2209 
L 656 4266 
L 2378 4266 
Q 2484 4266 2531 4283 
Q 2578 4300 2606 4336 
Q 2634 4372 2672 4472 
L 2916 4472 
L 2869 3747 
L 1072 3747 
L 1072 2375 
Q 1234 2444 1425 2478 
Q 1616 2513 1806 2513 
Q 2178 2513 2465 2361 
Q 2753 2209 2909 1929 
Q 3066 1650 3066 1281 
Q 3066 863 2891 563 
Q 2716 263 2384 106 
Q 2053 -50 1600 -50 
Q 1059 -50 469 172 
z
" transform="scale(0.015625)"/>
       </defs>
       <use xlink:href="#Cambria-379"/>
       <use xlink:href="#Cambria-377" transform="translate(55.375 0)"/>
       <use xlink:href="#Cambria-372" transform="translate(110.75 0)"/>
      </g>
     </g>
    </g>
    <g id="xtick_3">
     <g id="line2d_5">
      <path d="M 174.996398 176.466016 
L 174.996398 25.311816 
" clip-path="url(#p0783d7100b)" style="fill: none; stroke: #e1e0d9; stroke-width: 0.7; stroke-linecap: square"/>
     </g>
     <g id="line2d_6">
      <g>
       <use xlink:href="#me9d1ca95c3" x="174.996398" y="176.466016" style="fill: #898781; stroke: #898781; stroke-width: 0.8"/>
      </g>
     </g>
     <g id="text_3">
      <!-- 800 -->
      <g style="fill: #52514e" transform="translate(166.274836 191.633252) scale(0.105 -0.105)">
       <defs>
        <path id="Cambria-37a" d="M 2475 2253 
L 2481 2213 
Q 2834 2075 3015 1811 
Q 3197 1547 3197 1175 
Q 3197 809 3022 531 
Q 2847 253 2514 101 
Q 2181 -50 1738 -50 
Q 1322 -50 1008 89 
Q 694 228 520 495 
Q 347 763 347 1125 
Q 347 1397 440 1597 
Q 534 1797 686 1926 
Q 838 2056 1069 2163 
L 1063 2203 
Q 391 2494 391 3200 
Q 391 3522 567 3775 
Q 744 4028 1070 4172 
Q 1397 4316 1794 4316 
Q 2244 4316 2550 4189 
Q 2856 4063 3011 3823 
Q 3166 3584 3166 3250 
Q 3166 2906 2997 2657 
Q 2828 2409 2475 2253 
z
M 978 3228 
Q 978 3044 1022 2881 
Q 1066 2719 1162 2600 
Q 1259 2481 1414 2411 
Q 1569 2341 1794 2341 
Q 2053 2341 2229 2442 
Q 2406 2544 2492 2739 
Q 2578 2934 2578 3191 
Q 2578 3472 2476 3667 
Q 2375 3863 2197 3956 
Q 2019 4050 1788 4050 
Q 1394 4050 1186 3836 
Q 978 3622 978 3228 
z
M 944 1178 
Q 944 975 991 798 
Q 1038 622 1139 494 
Q 1241 366 1400 291 
Q 1559 216 1788 216 
Q 2044 216 2226 320 
Q 2409 425 2504 631 
Q 2600 838 2600 1119 
Q 2600 1419 2497 1636 
Q 2394 1853 2206 1967 
Q 2019 2081 1772 2081 
Q 1541 2081 1383 2009 
Q 1225 1938 1126 1816 
Q 1028 1694 986 1530 
Q 944 1366 944 1178 
z
" transform="scale(0.015625)"/>
       </defs>
       <use xlink:href="#Cambria-37a"/>
       <use xlink:href="#Cambria-372" transform="translate(55.375 0)"/>
       <use xlink:href="#Cambria-372" transform="translate(110.75 0)"/>
      </g>
     </g>
    </g>
    <g id="xtick_4">
     <g id="line2d_7">
      <path d="M 240.855769 176.466016 
L 240.855769 25.311816 
" clip-path="url(#p0783d7100b)" style="fill: none; stroke: #e1e0d9; stroke-width: 0.7; stroke-linecap: square"/>
     </g>
     <g id="line2d_8">
      <g>
       <use xlink:href="#me9d1ca95c3" x="240.855769" y="176.466016" style="fill: #898781; stroke: #898781; stroke-width: 0.8"/>
      </g>
     </g>
     <g id="text_4">
      <!-- 850 -->
      <g style="fill: #52514e" transform="translate(232.134207 191.633252) scale(0.105 -0.105)">
       <use xlink:href="#Cambria-37a"/>
       <use xlink:href="#Cambria-377" transform="translate(55.375 0)"/>
       <use xlink:href="#Cambria-372" transform="translate(110.75 0)"/>
      </g>
     </g>
    </g>
    <g id="text_5">
     <!-- f-side norm bit length -->
     <g style="fill: #0b0b0b" transform="translate(89.229212 207.3) scale(0.12 -0.12)">
      <defs>
       <path id="Cambria-88" d="M 1909 2672 
L 1163 2672 
L 1163 781 
Q 1163 572 1183 465 
Q 1203 359 1242 304 
Q 1281 250 1345 217 
Q 1409 184 1550 153 
L 1550 0 
L 272 0 
L 272 153 
Q 409 191 468 225 
Q 528 259 561 312 
Q 594 366 609 466 
Q 625 566 625 781 
L 625 2672 
L 247 2672 
L 247 2831 
Q 366 2850 405 2861 
Q 444 2872 480 2894 
Q 516 2916 542 2956 
Q 569 2997 589 3076 
Q 609 3156 622 3300 
Q 650 3641 745 3853 
Q 841 4066 1023 4216 
Q 1206 4366 1414 4427 
Q 1622 4488 1903 4488 
Q 2150 4488 2322 4453 
L 2322 3888 
L 2013 3888 
Q 1953 4072 1873 4148 
Q 1794 4225 1650 4225 
Q 1547 4225 1476 4197 
Q 1406 4169 1347 4109 
Q 1288 4050 1245 3950 
Q 1203 3850 1183 3701 
Q 1163 3553 1163 3316 
L 1163 2988 
L 1909 2988 
L 1909 2672 
z
" transform="scale(0.015625)"/>
       <path id="Cambria-1e6" d="M 1788 1403 
L 338 1403 
L 338 1888 
L 1788 1888 
L 1788 1403 
z
" transform="scale(0.015625)"/>
       <path id="Cambria-95" d="M 2397 2303 
L 2097 2303 
Q 2028 2491 1934 2598 
Q 1841 2706 1722 2750 
Q 1603 2794 1431 2794 
Q 1181 2794 1032 2676 
Q 884 2559 884 2356 
Q 884 2213 943 2119 
Q 1003 2025 1128 1944 
Q 1253 1863 1569 1728 
Q 1888 1591 2061 1475 
Q 2234 1359 2332 1206 
Q 2431 1053 2431 841 
Q 2431 594 2347 425 
Q 2263 256 2109 150 
Q 1956 44 1745 -3 
Q 1534 -50 1284 -50 
Q 1022 -50 775 -11 
Q 528 28 294 91 
L 294 744 
L 600 744 
Q 684 456 850 326 
Q 1016 197 1306 197 
Q 1419 197 1526 220 
Q 1634 244 1718 298 
Q 1803 353 1853 447 
Q 1903 541 1903 681 
Q 1903 841 1840 941 
Q 1778 1041 1647 1123 
Q 1516 1206 1184 1347 
Q 900 1466 728 1578 
Q 556 1691 457 1844 
Q 359 1997 359 2206 
Q 359 2463 498 2652 
Q 638 2841 900 2941 
Q 1163 3041 1516 3041 
Q 1722 3041 1914 3020 
Q 2106 3000 2397 2941 
L 2397 2303 
z
" transform="scale(0.015625)"/>
       <path id="Cambria-8b" d="M 1197 4213 
L 1197 3606 
L 622 3606 
L 622 4213 
L 1197 4213 
z
M 303 153 
Q 425 191 476 219 
Q 528 247 564 297 
Q 600 347 620 450 
Q 641 553 641 772 
L 641 2134 
Q 641 2334 634 2456 
Q 628 2578 590 2651 
Q 553 2725 476 2761 
Q 400 2797 259 2822 
L 259 2988 
L 988 3016 
L 1178 3016 
L 1178 781 
Q 1178 513 1203 408 
Q 1228 303 1298 248 
Q 1369 194 1528 153 
L 1528 0 
L 303 0 
L 303 153 
z
" transform="scale(0.015625)"/>
       <path id="Cambria-86" d="M 2413 3397 
Q 2413 3697 2408 3815 
Q 2403 3934 2383 4017 
Q 2363 4100 2327 4147 
Q 2291 4194 2230 4222 
Q 2169 4250 2009 4278 
L 2009 4441 
L 2766 4472 
L 2950 4472 
L 2950 853 
Q 2950 609 2959 504 
Q 2969 400 3000 337 
Q 3031 275 3098 236 
Q 3166 197 3334 163 
L 3334 0 
L 2597 -31 
L 2409 -31 
L 2447 481 
L 2400 494 
Q 2203 284 2058 179 
Q 1913 75 1748 12 
Q 1584 -50 1397 -50 
Q 884 -50 606 339 
Q 328 728 328 1463 
Q 328 1975 509 2333 
Q 691 2691 998 2866 
Q 1306 3041 1691 3041 
Q 1897 3041 2065 3008 
Q 2234 2975 2413 2900 
L 2413 3397 
z
M 2413 1853 
Q 2413 2097 2391 2244 
Q 2369 2391 2317 2491 
Q 2266 2591 2178 2659 
Q 2091 2728 1986 2759 
Q 1881 2791 1734 2791 
Q 1334 2791 1125 2470 
Q 916 2150 916 1550 
Q 916 950 1087 637 
Q 1259 325 1609 325 
Q 1747 325 1837 348 
Q 1928 372 2015 423 
Q 2103 475 2193 565 
Q 2284 656 2326 731 
Q 2369 806 2391 903 
Q 2413 1000 2413 1153 
L 2413 1853 
z
" transform="scale(0.015625)"/>
       <path id="Cambria-87" d="M 2800 531 
Q 2600 322 2433 203 
Q 2266 84 2066 17 
Q 1866 -50 1625 -50 
Q 981 -50 653 336 
Q 325 722 325 1475 
Q 325 1941 492 2297 
Q 659 2653 968 2847 
Q 1278 3041 1681 3041 
Q 1997 3041 2219 2941 
Q 2441 2841 2573 2667 
Q 2706 2494 2779 2230 
Q 2853 1966 2863 1541 
L 894 1541 
L 894 1484 
Q 894 1116 976 864 
Q 1059 613 1248 470 
Q 1438 328 1741 328 
Q 1997 328 2201 423 
Q 2406 519 2609 734 
L 2800 531 
z
M 2275 1800 
Q 2256 2138 2190 2352 
Q 2125 2566 1994 2680 
Q 1863 2794 1650 2794 
Q 1328 2794 1136 2536 
Q 944 2278 909 1800 
L 2275 1800 
z
" transform="scale(0.015625)"/>
       <path id="Cambria-3" transform="scale(0.015625)"/>
       <path id="Cambria-90" d="M 3347 0 
L 2116 0 
L 2116 153 
Q 2238 191 2291 219 
Q 2344 247 2380 297 
Q 2416 347 2436 451 
Q 2456 556 2456 769 
L 2456 1588 
Q 2456 1806 2443 1984 
Q 2431 2163 2401 2277 
Q 2372 2391 2330 2455 
Q 2288 2519 2230 2564 
Q 2172 2609 2097 2636 
Q 2022 2663 1900 2663 
Q 1778 2663 1668 2614 
Q 1559 2566 1428 2447 
Q 1297 2328 1237 2212 
Q 1178 2097 1178 1947 
L 1178 781 
Q 1178 513 1203 408 
Q 1228 303 1298 248 
Q 1369 194 1528 153 
L 1528 0 
L 303 0 
L 303 153 
Q 425 191 476 219 
Q 528 247 564 297 
Q 600 347 620 450 
Q 641 553 641 772 
L 641 2134 
Q 641 2334 634 2456 
Q 628 2578 590 2651 
Q 553 2725 476 2761 
Q 400 2797 259 2822 
L 259 2988 
L 991 3016 
L 1181 3016 
L 1147 2506 
L 1191 2494 
Q 1422 2728 1564 2828 
Q 1706 2928 1851 2983 
Q 1997 3038 2159 3038 
Q 2328 3038 2461 2998 
Q 2594 2959 2695 2878 
Q 2797 2797 2862 2676 
Q 2928 2556 2961 2387 
Q 2994 2219 2994 1959 
L 2994 781 
Q 2994 566 3006 469 
Q 3019 372 3050 319 
Q 3081 266 3140 230 
Q 3200 194 3347 153 
L 3347 0 
z
" transform="scale(0.015625)"/>
       <path id="Cambria-91" d="M 1663 -50 
Q 1013 -50 670 333 
Q 328 716 328 1466 
Q 328 1981 508 2337 
Q 688 2694 1000 2867 
Q 1313 3041 1713 3041 
Q 2381 3041 2725 2652 
Q 3069 2263 3069 1534 
Q 3069 1016 2897 659 
Q 2725 303 2409 126 
Q 2094 -50 1663 -50 
z
M 919 1531 
Q 919 888 1123 542 
Q 1328 197 1709 197 
Q 1919 197 2066 298 
Q 2213 400 2305 572 
Q 2397 744 2437 970 
Q 2478 1197 2478 1444 
Q 2478 1903 2376 2206 
Q 2275 2509 2100 2651 
Q 1925 2794 1700 2794 
Q 1322 2794 1120 2466 
Q 919 2138 919 1531 
z
" transform="scale(0.015625)"/>
       <path id="Cambria-94" d="M 1147 2469 
L 1191 2459 
Q 1363 2669 1509 2789 
Q 1656 2909 1826 2975 
Q 1997 3041 2213 3041 
Q 2394 3041 2541 3022 
L 2541 2303 
L 2188 2303 
Q 2113 2472 2028 2548 
Q 1944 2625 1797 2625 
Q 1684 2625 1573 2559 
Q 1463 2494 1359 2369 
Q 1256 2244 1217 2134 
Q 1178 2025 1178 1875 
L 1178 781 
Q 1178 497 1212 389 
Q 1247 281 1326 231 
Q 1406 181 1566 153 
L 1566 0 
L 306 0 
L 306 153 
Q 425 191 476 219 
Q 528 247 565 297 
Q 603 347 622 450 
Q 641 553 641 772 
L 641 2134 
Q 641 2334 634 2456 
Q 628 2578 590 2651 
Q 553 2725 476 2761 
Q 400 2797 259 2822 
L 259 2984 
L 991 3016 
L 1181 3016 
L 1147 2469 
z
" transform="scale(0.015625)"/>
       <path id="Cambria-8f" d="M 1147 2506 
L 1191 2494 
Q 1378 2681 1498 2776 
Q 1619 2872 1731 2930 
Q 1844 2988 1942 3013 
Q 2041 3038 2144 3038 
Q 2456 3038 2653 2894 
Q 2850 2750 2925 2453 
Q 3159 2691 3304 2803 
Q 3450 2916 3601 2977 
Q 3753 3038 3928 3038 
Q 4138 3038 4289 2977 
Q 4441 2916 4545 2789 
Q 4650 2663 4698 2472 
Q 4747 2281 4747 1959 
L 4747 781 
Q 4747 544 4762 453 
Q 4778 363 4808 313 
Q 4838 263 4897 227 
Q 4956 191 5097 153 
L 5097 0 
L 3869 0 
L 3869 153 
Q 3991 191 4044 219 
Q 4097 247 4133 297 
Q 4169 347 4189 451 
Q 4209 556 4209 769 
L 4209 1588 
Q 4209 1853 4195 2026 
Q 4181 2200 4151 2303 
Q 4122 2406 4080 2465 
Q 4038 2525 3984 2569 
Q 3931 2613 3859 2638 
Q 3788 2663 3669 2663 
Q 3544 2663 3436 2613 
Q 3328 2563 3201 2444 
Q 3075 2325 3019 2204 
Q 2963 2084 2963 1922 
L 2963 781 
Q 2963 544 2978 453 
Q 2994 363 3023 313 
Q 3053 263 3112 227 
Q 3172 191 3313 153 
L 3313 0 
L 2084 0 
L 2084 153 
Q 2206 191 2259 219 
Q 2313 247 2348 297 
Q 2384 347 2404 451 
Q 2425 556 2425 769 
L 2425 1588 
Q 2425 1866 2409 2041 
Q 2394 2216 2361 2322 
Q 2328 2428 2276 2493 
Q 2225 2559 2172 2593 
Q 2119 2628 2047 2645 
Q 1975 2663 1884 2663 
Q 1756 2663 1643 2605 
Q 1531 2547 1414 2437 
Q 1297 2328 1237 2209 
Q 1178 2091 1178 1953 
L 1178 781 
Q 1178 603 1187 509 
Q 1197 416 1217 362 
Q 1238 309 1269 276 
Q 1300 244 1358 214 
Q 1416 184 1531 153 
L 1531 0 
L 306 0 
L 306 153 
Q 425 191 476 219 
Q 528 247 565 297 
Q 603 347 622 450 
Q 641 553 641 772 
L 641 2134 
Q 641 2334 634 2456 
Q 628 2578 590 2651 
Q 553 2725 476 2761 
Q 400 2797 259 2822 
L 259 2988 
L 991 3016 
L 1181 3016 
L 1147 2506 
z
" transform="scale(0.015625)"/>
       <path id="Cambria-84" d="M 1091 2497 
L 1103 2494 
Q 1322 2722 1467 2825 
Q 1613 2928 1767 2983 
Q 1922 3038 2106 3038 
Q 2441 3038 2680 2867 
Q 2919 2697 3048 2356 
Q 3178 2016 3178 1522 
Q 3178 1013 3023 661 
Q 2869 309 2567 129 
Q 2266 -50 1853 -50 
Q 1622 -50 1417 -8 
Q 1213 34 988 141 
L 769 -50 
L 553 0 
L 553 3397 
Q 553 3697 548 3815 
Q 544 3934 523 4017 
Q 503 4100 467 4147 
Q 431 4194 370 4222 
Q 309 4250 150 4278 
L 150 4441 
L 906 4472 
L 1091 4472 
L 1091 2497 
z
M 1091 1125 
Q 1091 884 1112 742 
Q 1134 600 1186 506 
Q 1238 413 1336 334 
Q 1434 256 1556 226 
Q 1678 197 1828 197 
Q 2203 197 2397 503 
Q 2591 809 2591 1422 
Q 2591 2041 2414 2352 
Q 2238 2663 1881 2663 
Q 1703 2663 1578 2608 
Q 1453 2553 1329 2437 
Q 1206 2322 1148 2209 
Q 1091 2097 1091 1953 
L 1091 1125 
z
" transform="scale(0.015625)"/>
       <path id="Cambria-96" d="M 116 2831 
Q 272 2856 369 2918 
Q 466 2981 520 3079 
Q 575 3178 606 3326 
Q 638 3475 672 3759 
L 1116 3759 
L 1116 2988 
L 2125 2988 
L 2125 2672 
L 1116 2672 
L 1116 1281 
Q 1116 978 1141 798 
Q 1166 619 1234 517 
Q 1303 416 1390 372 
Q 1478 328 1616 328 
Q 1741 328 1850 379 
Q 1959 431 2066 528 
L 2206 359 
Q 1984 144 1786 47 
Q 1588 -50 1375 -50 
Q 972 -50 775 189 
Q 578 428 578 938 
L 578 2672 
L 116 2672 
L 116 2831 
z
" transform="scale(0.015625)"/>
       <path id="Cambria-8e" d="M 1138 781 
Q 1138 513 1163 408 
Q 1188 303 1258 248 
Q 1328 194 1488 153 
L 1488 0 
L 247 0 
L 247 153 
Q 403 194 464 237 
Q 525 281 551 342 
Q 578 403 589 508 
Q 600 613 600 781 
L 600 3397 
Q 600 3697 595 3815 
Q 591 3934 570 4017 
Q 550 4100 514 4147 
Q 478 4194 417 4222 
Q 356 4250 197 4278 
L 197 4441 
L 950 4472 
L 1138 4472 
L 1138 781 
z
" transform="scale(0.015625)"/>
       <path id="Cambria-89" d="M 3106 2672 
L 2528 2694 
L 2500 2659 
Q 2597 2563 2653 2395 
Q 2709 2228 2709 2034 
Q 2709 1525 2395 1248 
Q 2081 972 1503 972 
Q 1244 972 1056 1038 
Q 819 856 819 681 
Q 819 566 864 506 
Q 909 447 1014 422 
Q 1119 397 1331 397 
L 2081 397 
Q 2413 397 2622 294 
Q 2831 191 2920 17 
Q 3009 -156 3009 -388 
Q 3009 -681 2840 -911 
Q 2672 -1141 2353 -1269 
Q 2034 -1397 1609 -1397 
Q 1294 -1397 1033 -1359 
Q 772 -1322 586 -1233 
Q 400 -1144 298 -998 
Q 197 -853 197 -634 
Q 197 -438 328 -277 
Q 459 -116 700 6 
Q 553 66 468 181 
Q 384 297 384 453 
Q 384 631 484 779 
Q 584 928 838 1119 
Q 613 1250 495 1475 
Q 378 1700 378 1988 
Q 378 2256 467 2454 
Q 556 2653 714 2783 
Q 872 2913 1087 2977 
Q 1303 3041 1553 3041 
Q 1778 3041 2000 2988 
L 3106 2988 
L 3106 2672 
z
M 938 2038 
Q 938 1647 1097 1434 
Q 1256 1222 1556 1222 
Q 1716 1222 1828 1283 
Q 1941 1344 2011 1450 
Q 2081 1556 2114 1695 
Q 2147 1834 2147 1988 
Q 2147 2263 2069 2447 
Q 1991 2631 1856 2717 
Q 1722 2803 1547 2803 
Q 1250 2803 1094 2606 
Q 938 2409 938 2038 
z
M 1016 -50 
Q 856 -169 776 -301 
Q 697 -434 697 -603 
Q 697 -884 920 -1017 
Q 1144 -1150 1603 -1150 
Q 1884 -1150 2086 -1075 
Q 2288 -1000 2394 -859 
Q 2500 -719 2500 -531 
Q 2500 -444 2478 -361 
Q 2456 -278 2395 -212 
Q 2334 -147 2221 -108 
Q 2109 -69 1928 -69 
L 1463 -69 
Q 1209 -69 1016 -50 
z
" transform="scale(0.015625)"/>
       <path id="Cambria-8a" d="M 1141 2497 
L 1153 2494 
Q 1397 2741 1539 2839 
Q 1681 2938 1820 2988 
Q 1959 3038 2119 3038 
Q 2291 3038 2425 2997 
Q 2559 2956 2661 2873 
Q 2763 2791 2827 2670 
Q 2891 2550 2922 2383 
Q 2953 2216 2953 1959 
L 2953 781 
Q 2953 509 2976 411 
Q 3000 313 3061 258 
Q 3122 203 3306 153 
L 3306 0 
L 2075 0 
L 2075 153 
Q 2197 191 2250 219 
Q 2303 247 2339 297 
Q 2375 347 2395 451 
Q 2416 556 2416 769 
L 2416 1588 
Q 2416 2003 2373 2223 
Q 2331 2444 2207 2553 
Q 2084 2663 1863 2663 
Q 1738 2663 1638 2619 
Q 1538 2575 1406 2462 
Q 1275 2350 1208 2231 
Q 1141 2113 1141 1978 
L 1141 781 
Q 1141 569 1152 478 
Q 1163 388 1194 327 
Q 1225 266 1289 227 
Q 1353 188 1488 153 
L 1488 0 
L 250 0 
L 250 153 
Q 388 191 447 225 
Q 506 259 539 312 
Q 572 366 587 466 
Q 603 566 603 781 
L 603 3397 
Q 603 3697 598 3815 
Q 594 3934 573 4017 
Q 553 4100 517 4147 
Q 481 4194 420 4222 
Q 359 4250 200 4278 
L 200 4441 
L 953 4472 
L 1141 4472 
L 1141 2497 
z
" transform="scale(0.015625)"/>
      </defs>
      <use xlink:href="#Cambria-88"/>
      <use xlink:href="#Cambria-1e6" transform="translate(30.28125 0)"/>
      <use xlink:href="#Cambria-95" transform="translate(63.484375 0)"/>
      <use xlink:href="#Cambria-8b" transform="translate(106.453125 0)"/>
      <use xlink:href="#Cambria-86" transform="translate(134.234375 0)"/>
      <use xlink:href="#Cambria-87" transform="translate(189.703125 0)"/>
      <use xlink:href="#Cambria-3" transform="translate(238.484375 0)"/>
      <use xlink:href="#Cambria-90" transform="translate(260.5 0)"/>
      <use xlink:href="#Cambria-91" transform="translate(316.3125 0)"/>
      <use xlink:href="#Cambria-94" transform="translate(369.390625 0)"/>
      <use xlink:href="#Cambria-8f" transform="translate(410.75 0)"/>
      <use xlink:href="#Cambria-3" transform="translate(493.953125 0)"/>
      <use xlink:href="#Cambria-84" transform="translate(515.96875 0)"/>
      <use xlink:href="#Cambria-8b" transform="translate(570.703125 0)"/>
      <use xlink:href="#Cambria-96" transform="translate(598.484375 0)"/>
      <use xlink:href="#Cambria-3" transform="translate(632.328125 0)"/>
      <use xlink:href="#Cambria-8e" transform="translate(654.34375 0)"/>
      <use xlink:href="#Cambria-87" transform="translate(681.5 0)"/>
      <use xlink:href="#Cambria-90" transform="translate(730.28125 0)"/>
      <use xlink:href="#Cambria-89" transform="translate(786.09375 0)"/>
      <use xlink:href="#Cambria-96" transform="translate(835.515625 0)"/>
      <use xlink:href="#Cambria-8a" transform="translate(869.359375 0)"/>
     </g>
    </g>
   </g>
   <g id="matplotlib.axis_2">
    <g id="ytick_1">
     <g id="line2d_9">
      <path d="M 41.82875 176.466016 
L 247.573425 176.466016 
" clip-path="url(#p0783d7100b)" style="fill: none; stroke: #e1e0d9; stroke-width: 0.7; stroke-linecap: square"/>
     </g>
     <g id="line2d_10">
      <defs>
       <path id="mf868370563" d="M 0 0 
L -3.5 0 
" style="stroke: #898781; stroke-width: 0.8"/>
      </defs>
      <g>
       <use xlink:href="#mf868370563" x="41.82875" y="176.466016" style="fill: #898781; stroke: #898781; stroke-width: 0.8"/>
      </g>
     </g>
     <g id="text_6">
      <!-- 0 -->
      <g style="fill: #52514e" transform="translate(29.014375 180.549634) scale(0.105 -0.105)">
       <use xlink:href="#Cambria-372"/>
      </g>
     </g>
    </g>
    <g id="ytick_2">
     <g id="line2d_11">
      <path d="M 41.82875 140.476921 
L 247.573425 140.476921 
" clip-path="url(#p0783d7100b)" style="fill: none; stroke: #e1e0d9; stroke-width: 0.7; stroke-linecap: square"/>
     </g>
     <g id="line2d_12">
      <g>
       <use xlink:href="#mf868370563" x="41.82875" y="140.476921" style="fill: #898781; stroke: #898781; stroke-width: 0.8"/>
      </g>
     </g>
     <g id="text_7">
      <!-- 20 -->
      <g style="fill: #52514e" transform="translate(23.2 144.560539) scale(0.105 -0.105)">
       <defs>
        <path id="Cambria-374" d="M 2194 500 
Q 2347 500 2440 519 
Q 2534 538 2590 581 
Q 2647 625 2680 695 
Q 2713 766 2763 913 
L 3028 913 
L 2975 0 
L 403 0 
L 403 150 
Q 538 478 766 822 
Q 994 1166 1413 1631 
Q 1775 2031 1934 2238 
Q 2109 2463 2195 2627 
Q 2281 2791 2318 2936 
Q 2356 3081 2356 3228 
Q 2356 3463 2281 3642 
Q 2206 3822 2051 3925 
Q 1897 4028 1663 4028 
Q 1078 4028 875 3378 
L 497 3378 
L 497 3978 
Q 875 4156 1204 4236 
Q 1534 4316 1797 4316 
Q 2378 4316 2675 4061 
Q 2972 3806 2972 3322 
Q 2972 3156 2939 3017 
Q 2906 2878 2836 2742 
Q 2766 2606 2647 2450 
Q 2528 2294 2384 2133 
Q 2241 1972 1888 1597 
Q 1294 969 1016 500 
L 2194 500 
z
" transform="scale(0.015625)"/>
       </defs>
       <use xlink:href="#Cambria-374"/>
       <use xlink:href="#Cambria-372" transform="translate(55.375 0)"/>
      </g>
     </g>
    </g>
    <g id="ytick_3">
     <g id="line2d_13">
      <path d="M 41.82875 104.487826 
L 247.573425 104.487826 
" clip-path="url(#p0783d7100b)" style="fill: none; stroke: #e1e0d9; stroke-width: 0.7; stroke-linecap: square"/>
     </g>
     <g id="line2d_14">
      <g>
       <use xlink:href="#mf868370563" x="41.82875" y="104.487826" style="fill: #898781; stroke: #898781; stroke-width: 0.8"/>
      </g>
     </g>
     <g id="text_8">
      <!-- 40 -->
      <g style="fill: #52514e" transform="translate(23.2 108.571444) scale(0.105 -0.105)">
       <defs>
        <path id="Cambria-376" d="M 1613 153 
Q 1806 203 1872 264 
Q 1938 325 1958 437 
Q 1978 550 1978 781 
L 1978 1294 
L 241 1294 
L 241 1528 
L 2069 4288 
L 2516 4288 
L 2516 1597 
L 2581 1597 
Q 2763 1597 2841 1623 
Q 2919 1650 2970 1717 
Q 3022 1784 3066 1938 
L 3303 1938 
L 3266 1294 
L 2516 1294 
L 2516 781 
Q 2516 572 2530 475 
Q 2544 378 2576 322 
Q 2609 266 2673 228 
Q 2738 191 2881 153 
L 2881 0 
L 1613 0 
L 1613 153 
z
M 756 1597 
L 1978 1597 
L 1978 2375 
Q 1978 2669 1987 3033 
Q 1997 3397 2009 3581 
L 1978 3581 
L 756 1641 
L 756 1597 
z
" transform="scale(0.015625)"/>
       </defs>
       <use xlink:href="#Cambria-376"/>
       <use xlink:href="#Cambria-372" transform="translate(55.375 0)"/>
      </g>
     </g>
    </g>
    <g id="ytick_4">
     <g id="line2d_15">
      <path d="M 41.82875 68.49873 
L 247.573425 68.49873 
" clip-path="url(#p0783d7100b)" style="fill: none; stroke: #e1e0d9; stroke-width: 0.7; stroke-linecap: square"/>
     </g>
     <g id="line2d_16">
      <g>
       <use xlink:href="#mf868370563" x="41.82875" y="68.49873" style="fill: #898781; stroke: #898781; stroke-width: 0.8"/>
      </g>
     </g>
     <g id="text_9">
      <!-- 60 -->
      <g style="fill: #52514e" transform="translate(23.2 72.582349) scale(0.105 -0.105)">
       <defs>
        <path id="Cambria-378" d="M 2847 4144 
L 2847 3991 
Q 2366 3991 1994 3784 
Q 1622 3578 1376 3178 
Q 1131 2778 1031 2228 
L 1063 2216 
Q 1325 2403 1579 2490 
Q 1834 2578 2131 2578 
Q 2484 2578 2732 2423 
Q 2981 2269 3106 1989 
Q 3231 1709 3231 1334 
Q 3231 928 3075 617 
Q 2919 306 2592 128 
Q 2266 -50 1788 -50 
Q 1103 -50 754 375 
Q 406 800 406 1628 
Q 406 2184 581 2668 
Q 756 3153 1078 3514 
Q 1400 3875 1825 4083 
Q 2250 4291 2719 4316 
L 2847 4144 
z
M 1916 2250 
Q 1763 2250 1620 2215 
Q 1478 2181 1353 2115 
Q 1228 2050 1109 1950 
Q 1072 1916 1053 1878 
Q 1022 1819 1012 1731 
Q 1003 1644 1003 1438 
Q 1003 841 1203 528 
Q 1403 216 1809 216 
Q 2044 216 2203 297 
Q 2363 378 2461 520 
Q 2559 663 2601 855 
Q 2644 1047 2644 1272 
Q 2644 1734 2453 1992 
Q 2263 2250 1916 2250 
z
" transform="scale(0.015625)"/>
       </defs>
       <use xlink:href="#Cambria-378"/>
       <use xlink:href="#Cambria-372" transform="translate(55.375 0)"/>
      </g>
     </g>
    </g>
    <g id="ytick_5">
     <g id="line2d_17">
      <path d="M 41.82875 32.509635 
L 247.573425 32.509635 
" clip-path="url(#p0783d7100b)" style="fill: none; stroke: #e1e0d9; stroke-width: 0.7; stroke-linecap: square"/>
     </g>
     <g id="line2d_18">
      <g>
       <use xlink:href="#mf868370563" x="41.82875" y="32.509635" style="fill: #898781; stroke: #898781; stroke-width: 0.8"/>
      </g>
     </g>
     <g id="text_10">
      <!-- 80 -->
      <g style="fill: #52514e" transform="translate(23.2 36.593254) scale(0.105 -0.105)">
       <use xlink:href="#Cambria-37a"/>
       <use xlink:href="#Cambria-372" transform="translate(55.375 0)"/>
      </g>
     </g>
    </g>
    <g id="text_11">
     <!-- samples -->
     <g style="fill: #0b0b0b" transform="translate(16.533984 121.859854) rotate(-90) scale(0.12 -0.12)">
      <defs>
       <path id="Cambria-83" d="M 2109 447 
L 2063 459 
Q 1791 181 1552 65 
Q 1313 -50 1044 -50 
Q 806 -50 625 42 
Q 444 134 347 301 
Q 250 469 250 688 
Q 250 1144 701 1392 
Q 1153 1641 2056 1681 
L 2056 1884 
Q 2056 2209 1993 2396 
Q 1931 2584 1797 2671 
Q 1663 2759 1438 2759 
Q 1194 2759 1045 2631 
Q 897 2503 822 2247 
L 413 2247 
L 413 2653 
Q 713 2809 913 2882 
Q 1113 2956 1313 2998 
Q 1513 3041 1719 3041 
Q 2028 3041 2215 2942 
Q 2403 2844 2497 2641 
Q 2591 2438 2591 2028 
L 2591 941 
Q 2591 709 2594 614 
Q 2597 519 2612 437 
Q 2628 356 2659 307 
Q 2691 259 2752 225 
Q 2813 191 2950 153 
L 2950 0 
L 2094 0 
L 2109 447 
z
M 2056 1425 
Q 1422 1419 1106 1256 
Q 791 1094 791 766 
Q 791 588 862 484 
Q 934 381 1043 342 
Q 1153 303 1303 303 
Q 1516 303 1689 406 
Q 1863 509 1959 668 
Q 2056 828 2056 984 
L 2056 1425 
z
" transform="scale(0.015625)"/>
       <path id="Cambria-92" d="M 1150 94 
L 1150 -566 
Q 1150 -769 1164 -869 
Q 1178 -969 1214 -1026 
Q 1250 -1084 1317 -1121 
Q 1384 -1159 1534 -1191 
L 1534 -1344 
L 259 -1344 
L 259 -1191 
Q 372 -1159 442 -1126 
Q 513 -1094 550 -1030 
Q 588 -966 600 -856 
Q 613 -747 613 -566 
L 613 2116 
Q 613 2341 606 2436 
Q 600 2531 581 2593 
Q 563 2656 527 2697 
Q 491 2738 430 2766 
Q 369 2794 228 2822 
L 228 2988 
L 963 3016 
L 1153 3016 
L 1113 2506 
L 1159 2494 
Q 1353 2691 1465 2780 
Q 1578 2869 1698 2928 
Q 1819 2988 1930 3013 
Q 2041 3038 2166 3038 
Q 2681 3038 2957 2652 
Q 3234 2266 3234 1522 
Q 3234 1006 3078 654 
Q 2922 303 2623 126 
Q 2325 -50 1913 -50 
Q 1681 -50 1493 -11 
Q 1306 28 1150 94 
z
M 1150 1125 
Q 1150 825 1187 662 
Q 1225 500 1320 398 
Q 1416 297 1545 247 
Q 1675 197 1888 197 
Q 2266 197 2456 511 
Q 2647 825 2647 1438 
Q 2647 2663 1931 2663 
Q 1756 2663 1629 2608 
Q 1503 2553 1378 2431 
Q 1253 2309 1201 2195 
Q 1150 2081 1150 1950 
L 1150 1125 
z
" transform="scale(0.015625)"/>
      </defs>
      <use xlink:href="#Cambria-95"/>
      <use xlink:href="#Cambria-83" transform="translate(42.96875 0)"/>
      <use xlink:href="#Cambria-8f" transform="translate(91.796875 0)"/>
      <use xlink:href="#Cambria-92" transform="translate(175 0)"/>
      <use xlink:href="#Cambria-8e" transform="translate(230.609375 0)"/>
      <use xlink:href="#Cambria-87" transform="translate(257.765625 0)"/>
      <use xlink:href="#Cambria-95" transform="translate(306.546875 0)"/>
     </g>
    </g>
   </g>
   <g id="patch_3">
    <path d="M 51.180781 176.466016 
L 56.376353 176.466016 
L 56.376353 174.666561 
L 51.180781 174.666561 
z
" clip-path="url(#p0783d7100b)" style="fill: #2a78d6; stroke: #fcfcfb; stroke-width: 0.4; stroke-linejoin: miter"/>
   </g>
   <g id="patch_4">
    <path d="M 56.376353 176.466016 
L 61.571926 176.466016 
L 61.571926 176.466016 
L 56.376353 176.466016 
z
" clip-path="url(#p0783d7100b)" style="fill: #2a78d6; stroke: #fcfcfb; stroke-width: 0.4; stroke-linejoin: miter"/>
   </g>
   <g id="patch_5">
    <path d="M 61.571926 176.466016 
L 66.767498 176.466016 
L 66.767498 174.666561 
L 61.571926 174.666561 
z
" clip-path="url(#p0783d7100b)" style="fill: #2a78d6; stroke: #fcfcfb; stroke-width: 0.4; stroke-linejoin: miter"/>
   </g>
   <g id="patch_6">
    <path d="M 66.767498 176.466016 
L 71.963071 176.466016 
L 71.963071 172.867106 
L 66.767498 172.867106 
z
" clip-path="url(#p0783d7100b)" style="fill: #2a78d6; stroke: #fcfcfb; stroke-width: 0.4; stroke-linejoin: miter"/>
   </g>
   <g id="patch_7">
    <path d="M 71.963071 176.466016 
L 77.158644 176.466016 
L 77.158644 171.067651 
L 71.963071 171.067651 
z
" clip-path="url(#p0783d7100b)" style="fill: #2a78d6; stroke: #fcfcfb; stroke-width: 0.4; stroke-linejoin: miter"/>
   </g>
   <g id="patch_8">
    <path d="M 77.158644 176.466016 
L 82.354216 176.466016 
L 82.354216 174.666561 
L 77.158644 174.666561 
z
" clip-path="url(#p0783d7100b)" style="fill: #2a78d6; stroke: #fcfcfb; stroke-width: 0.4; stroke-linejoin: miter"/>
   </g>
   <g id="patch_9">
    <path d="M 82.354216 176.466016 
L 87.549789 176.466016 
L 87.549789 172.867106 
L 82.354216 172.867106 
z
" clip-path="url(#p0783d7100b)" style="fill: #2a78d6; stroke: #fcfcfb; stroke-width: 0.4; stroke-linejoin: miter"/>
   </g>
   <g id="patch_10">
    <path d="M 87.549789 176.466016 
L 92.745361 176.466016 
L 92.745361 162.070378 
L 87.549789 162.070378 
z
" clip-path="url(#p0783d7100b)" style="fill: #2a78d6; stroke: #fcfcfb; stroke-width: 0.4; stroke-linejoin: miter"/>
   </g>
   <g id="patch_11">
    <path d="M 92.745361 176.466016 
L 97.940934 176.466016 
L 97.940934 163.869832 
L 92.745361 163.869832 
z
" clip-path="url(#p0783d7100b)" style="fill: #2a78d6; stroke: #fcfcfb; stroke-width: 0.4; stroke-linejoin: miter"/>
   </g>
   <g id="patch_12">
    <path d="M 97.940934 176.466016 
L 103.136507 176.466016 
L 103.136507 158.471468 
L 97.940934 158.471468 
z
" clip-path="url(#p0783d7100b)" style="fill: #2a78d6; stroke: #fcfcfb; stroke-width: 0.4; stroke-linejoin: miter"/>
   </g>
   <g id="patch_13">
    <path d="M 103.136507 176.466016 
L 108.332079 176.466016 
L 108.332079 162.070378 
L 103.136507 162.070378 
z
" clip-path="url(#p0783d7100b)" style="fill: #2a78d6; stroke: #fcfcfb; stroke-width: 0.4; stroke-linejoin: miter"/>
   </g>
   <g id="patch_14">
    <path d="M 108.332079 176.466016 
L 113.527652 176.466016 
L 113.527652 156.672013 
L 108.332079 156.672013 
z
" clip-path="url(#p0783d7100b)" style="fill: #2a78d6; stroke: #fcfcfb; stroke-width: 0.4; stroke-linejoin: miter"/>
   </g>
   <g id="patch_15">
    <path d="M 113.527652 176.466016 
L 118.723224 176.466016 
L 118.723224 138.677466 
L 113.527652 138.677466 
z
" clip-path="url(#p0783d7100b)" style="fill: #2a78d6; stroke: #fcfcfb; stroke-width: 0.4; stroke-linejoin: miter"/>
   </g>
   <g id="patch_16">
    <path d="M 118.723224 176.466016 
L 123.918797 176.466016 
L 123.918797 144.07583 
L 118.723224 144.07583 
z
" clip-path="url(#p0783d7100b)" style="fill: #2a78d6; stroke: #fcfcfb; stroke-width: 0.4; stroke-linejoin: miter"/>
   </g>
   <g id="patch_17">
    <path d="M 123.918797 176.466016 
L 129.11437 176.466016 
L 129.11437 120.682918 
L 123.918797 120.682918 
z
" clip-path="url(#p0783d7100b)" style="fill: #2a78d6; stroke: #fcfcfb; stroke-width: 0.4; stroke-linejoin: miter"/>
   </g>
   <g id="patch_18">
    <path d="M 129.11437 176.466016 
L 134.309942 176.466016 
L 134.309942 93.691097 
L 129.11437 93.691097 
z
" clip-path="url(#p0783d7100b)" style="fill: #2a78d6; stroke: #fcfcfb; stroke-width: 0.4; stroke-linejoin: miter"/>
   </g>
   <g id="patch_19">
    <path d="M 134.309942 176.466016 
L 139.505515 176.466016 
L 139.505515 95.490552 
L 134.309942 95.490552 
z
" clip-path="url(#p0783d7100b)" style="fill: #2a78d6; stroke: #fcfcfb; stroke-width: 0.4; stroke-linejoin: miter"/>
   </g>
   <g id="patch_20">
    <path d="M 139.505515 176.466016 
L 144.701087 176.466016 
L 144.701087 118.883464 
L 139.505515 118.883464 
z
" clip-path="url(#p0783d7100b)" style="fill: #2a78d6; stroke: #fcfcfb; stroke-width: 0.4; stroke-linejoin: miter"/>
   </g>
   <g id="patch_21">
    <path d="M 144.701087 176.466016 
L 149.89666 176.466016 
L 149.89666 66.699276 
L 144.701087 66.699276 
z
" clip-path="url(#p0783d7100b)" style="fill: #2a78d6; stroke: #fcfcfb; stroke-width: 0.4; stroke-linejoin: miter"/>
   </g>
   <g id="patch_22">
    <path d="M 149.89666 176.466016 
L 155.092233 176.466016 
L 155.092233 34.30909 
L 149.89666 34.30909 
z
" clip-path="url(#p0783d7100b)" style="fill: #2a78d6; stroke: #fcfcfb; stroke-width: 0.4; stroke-linejoin: miter"/>
   </g>
   <g id="patch_23">
    <path d="M 155.092233 176.466016 
L 160.287805 176.466016 
L 160.287805 90.092187 
L 155.092233 90.092187 
z
" clip-path="url(#p0783d7100b)" style="fill: #2a78d6; stroke: #fcfcfb; stroke-width: 0.4; stroke-linejoin: miter"/>
   </g>
   <g id="patch_24">
    <path d="M 160.287805 176.466016 
L 165.483378 176.466016 
L 165.483378 45.105819 
L 160.287805 45.105819 
z
" clip-path="url(#p0783d7100b)" style="fill: #2a78d6; stroke: #fcfcfb; stroke-width: 0.4; stroke-linejoin: miter"/>
   </g>
   <g id="patch_25">
    <path d="M 165.483378 176.466016 
L 170.67895 176.466016 
L 170.67895 43.306364 
L 165.483378 43.306364 
z
" clip-path="url(#p0783d7100b)" style="fill: #2a78d6; stroke: #fcfcfb; stroke-width: 0.4; stroke-linejoin: miter"/>
   </g>
   <g id="patch_26">
    <path d="M 170.67895 176.466016 
L 175.874523 176.466016 
L 175.874523 46.905273 
L 170.67895 46.905273 
z
" clip-path="url(#p0783d7100b)" style="fill: #2a78d6; stroke: #fcfcfb; stroke-width: 0.4; stroke-linejoin: miter"/>
   </g>
   <g id="patch_27">
    <path d="M 175.874523 176.466016 
L 181.070096 176.466016 
L 181.070096 32.509635 
L 175.874523 32.509635 
z
" clip-path="url(#p0783d7100b)" style="fill: #2a78d6; stroke: #fcfcfb; stroke-width: 0.4; stroke-linejoin: miter"/>
   </g>
   <g id="patch_28">
    <path d="M 181.070096 176.466016 
L 186.265668 176.466016 
L 186.265668 66.699276 
L 181.070096 66.699276 
z
" clip-path="url(#p0783d7100b)" style="fill: #2a78d6; stroke: #fcfcfb; stroke-width: 0.4; stroke-linejoin: miter"/>
   </g>
   <g id="patch_29">
    <path d="M 186.265668 176.466016 
L 191.461241 176.466016 
L 191.461241 79.295459 
L 186.265668 79.295459 
z
" clip-path="url(#p0783d7100b)" style="fill: #2a78d6; stroke: #fcfcfb; stroke-width: 0.4; stroke-linejoin: miter"/>
   </g>
   <g id="patch_30">
    <path d="M 191.461241 176.466016 
L 196.656813 176.466016 
L 196.656813 77.496004 
L 191.461241 77.496004 
z
" clip-path="url(#p0783d7100b)" style="fill: #2a78d6; stroke: #fcfcfb; stroke-width: 0.4; stroke-linejoin: miter"/>
   </g>
   <g id="patch_31">
    <path d="M 196.656813 176.466016 
L 201.852386 176.466016 
L 201.852386 102.688371 
L 196.656813 102.688371 
z
" clip-path="url(#p0783d7100b)" style="fill: #2a78d6; stroke: #fcfcfb; stroke-width: 0.4; stroke-linejoin: miter"/>
   </g>
   <g id="patch_32">
    <path d="M 201.852386 176.466016 
L 207.047959 176.466016 
L 207.047959 133.279102 
L 201.852386 133.279102 
z
" clip-path="url(#p0783d7100b)" style="fill: #2a78d6; stroke: #fcfcfb; stroke-width: 0.4; stroke-linejoin: miter"/>
   </g>
   <g id="patch_33">
    <path d="M 207.047959 176.466016 
L 212.243531 176.466016 
L 212.243531 133.279102 
L 207.047959 133.279102 
z
" clip-path="url(#p0783d7100b)" style="fill: #2a78d6; stroke: #fcfcfb; stroke-width: 0.4; stroke-linejoin: miter"/>
   </g>
   <g id="patch_34">
    <path d="M 212.243531 176.466016 
L 217.439104 176.466016 
L 217.439104 156.672013 
L 212.243531 156.672013 
z
" clip-path="url(#p0783d7100b)" style="fill: #2a78d6; stroke: #fcfcfb; stroke-width: 0.4; stroke-linejoin: miter"/>
   </g>
   <g id="patch_35">
    <path d="M 217.439104 176.466016 
L 222.634676 176.466016 
L 222.634676 154.872559 
L 217.439104 154.872559 
z
" clip-path="url(#p0783d7100b)" style="fill: #2a78d6; stroke: #fcfcfb; stroke-width: 0.4; stroke-linejoin: miter"/>
   </g>
   <g id="patch_36">
    <path d="M 222.634676 176.466016 
L 227.830249 176.466016 
L 227.830249 167.468742 
L 222.634676 167.468742 
z
" clip-path="url(#p0783d7100b)" style="fill: #2a78d6; stroke: #fcfcfb; stroke-width: 0.4; stroke-linejoin: miter"/>
   </g>
   <g id="patch_37">
    <path d="M 227.830249 176.466016 
L 233.025822 176.466016 
L 233.025822 172.867106 
L 227.830249 172.867106 
z
" clip-path="url(#p0783d7100b)" style="fill: #2a78d6; stroke: #fcfcfb; stroke-width: 0.4; stroke-linejoin: miter"/>
   </g>
   <g id="patch_38">
    <path d="M 233.025822 176.466016 
L 238.221394 176.466016 
L 238.221394 174.666561 
L 233.025822 174.666561 
z
" clip-path="url(#p0783d7100b)" style="fill: #2a78d6; stroke: #fcfcfb; stroke-width: 0.4; stroke-linejoin: miter"/>
   </g>
   <g id="line2d_19">
    <path d="M 163.251048 176.466016 
L 163.251048 25.311816 
" clip-path="url(#p0783d7100b)" style="fill: none; stroke: #0b0b0b; stroke-width: 1.4; stroke-linecap: square"/>
   </g>
   <g id="line2d_20">
    <path d="M 163.405149 176.466016 
L 163.405149 25.311816 
" clip-path="url(#p0783d7100b)" style="fill: none; stroke-dasharray: 5.18,2.24; stroke-dashoffset: 0; stroke: #e34948; stroke-width: 1.4"/>
   </g>
   <g id="patch_39">
    <path d="M 41.82875 176.466016 
L 41.82875 25.311816 
" style="fill: none; stroke: #c3c2b7; stroke-width: 0.9; stroke-linejoin: miter; stroke-linecap: square"/>
   </g>
   <g id="patch_40">
    <path d="M 41.82875 176.466016 
L 247.573425 176.466016 
" style="fill: none; stroke: #c3c2b7; stroke-width: 0.9; stroke-linejoin: miter; stroke-linecap: square"/>
   </g>
   <g id="text_12">
    <!-- BLS12-128 exact norm sampling (1,024 samples, seed 20260722) -->
    <g style="fill: #0b0b0b" transform="translate(41.82875 17.311816) scale(0.13 -0.13)">
     <defs>
      <path id="Cambria-5" d="M 378 0 
L 378 153 
Q 572 203 637 264 
Q 703 325 723 437 
Q 744 550 744 781 
L 744 3484 
Q 744 3700 728 3798 
Q 713 3897 677 3951 
Q 641 4006 581 4039 
Q 522 4072 378 4113 
L 378 4266 
L 2088 4266 
Q 2584 4266 2886 4159 
Q 3188 4053 3334 3845 
Q 3481 3638 3481 3309 
Q 3481 3038 3376 2838 
Q 3272 2638 3103 2506 
Q 2934 2375 2669 2263 
L 2669 2234 
Q 3094 2106 3312 1839 
Q 3531 1572 3531 1203 
Q 3531 778 3342 509 
Q 3153 241 2812 120 
Q 2472 0 1988 0 
L 378 0 
z
M 1875 2353 
Q 2350 2353 2601 2583 
Q 2853 2813 2853 3250 
Q 2853 3466 2783 3608 
Q 2713 3750 2589 3834 
Q 2466 3919 2297 3955 
Q 2128 3991 1931 3991 
Q 1813 3991 1619 3984 
Q 1425 3978 1328 3972 
L 1328 2353 
L 1875 2353 
z
M 1328 297 
Q 1556 275 1838 275 
Q 2247 275 2473 378 
Q 2700 481 2801 682 
Q 2903 884 2903 1188 
Q 2903 1491 2792 1687 
Q 2681 1884 2450 1981 
Q 2219 2078 1813 2078 
L 1328 2078 
L 1328 297 
z
" transform="scale(0.015625)"/>
      <path id="Cambria-f" d="M 1328 288 
L 2147 288 
Q 2281 288 2372 303 
Q 2463 319 2527 351 
Q 2591 384 2642 442 
Q 2694 500 2741 594 
Q 2788 688 2830 830 
Q 2872 972 2934 1256 
L 3250 1256 
L 3188 0 
L 378 0 
L 378 153 
Q 572 203 637 264 
Q 703 325 723 437 
Q 744 550 744 781 
L 744 3484 
Q 744 3700 728 3798 
Q 713 3897 677 3951 
Q 641 4006 581 4039 
Q 522 4072 378 4113 
L 378 4266 
L 1694 4266 
L 1694 4113 
Q 1556 4075 1498 4045 
Q 1441 4016 1403 3966 
Q 1366 3916 1347 3812 
Q 1328 3709 1328 3484 
L 1328 288 
z
" transform="scale(0.015625)"/>
      <path id="Cambria-16" d="M 663 972 
Q 725 697 831 537 
Q 938 378 1106 301 
Q 1275 225 1541 225 
Q 1906 225 2101 415 
Q 2297 606 2297 972 
Q 2297 1206 2215 1365 
Q 2134 1525 1950 1665 
Q 1766 1806 1388 1994 
Q 1022 2175 809 2348 
Q 597 2522 492 2725 
Q 388 2928 388 3169 
Q 388 3519 552 3776 
Q 716 4034 1033 4175 
Q 1350 4316 1759 4316 
Q 1997 4316 2223 4291 
Q 2450 4266 2791 4178 
L 2791 3334 
L 2481 3334 
Q 2409 3609 2300 3762 
Q 2191 3916 2044 3977 
Q 1897 4038 1663 4038 
Q 1459 4038 1298 3963 
Q 1138 3888 1044 3736 
Q 950 3584 950 3375 
Q 950 3153 1029 3000 
Q 1109 2847 1278 2715 
Q 1447 2584 1778 2422 
Q 2178 2222 2398 2050 
Q 2619 1878 2742 1658 
Q 2866 1438 2866 1144 
Q 2866 816 2762 589 
Q 2659 363 2476 220 
Q 2294 78 2039 14 
Q 1784 -50 1481 -50 
Q 991 -50 350 116 
L 350 972 
L 663 972 
z
" transform="scale(0.015625)"/>
      <path id="Cambria-373" d="M 2172 816 
Q 2172 634 2192 542 
Q 2213 450 2264 392 
Q 2316 334 2412 301 
Q 2509 269 2656 251 
Q 2803 234 3044 228 
L 3044 0 
L 734 0 
L 734 228 
Q 1081 244 1229 270 
Q 1378 297 1456 350 
Q 1534 403 1570 500 
Q 1606 597 1606 816 
L 1606 3350 
Q 1606 3475 1562 3533 
Q 1519 3591 1434 3591 
Q 1334 3591 1150 3487 
Q 966 3384 694 3203 
L 556 3444 
L 2019 4316 
L 2191 4316 
Q 2172 4016 2172 3484 
L 2172 816 
z
" transform="scale(0.015625)"/>
      <path id="Cambria-9a" d="M 1625 1803 
L 2031 2319 
Q 2097 2403 2137 2483 
Q 2178 2563 2178 2647 
Q 2178 2719 2125 2766 
Q 2072 2813 1959 2834 
L 1959 2988 
L 2981 2988 
L 2981 2834 
Q 2863 2800 2739 2700 
Q 2616 2600 2438 2378 
L 1791 1584 
L 2503 625 
Q 2656 419 2778 309 
Q 2900 200 3022 153 
L 3022 0 
L 1766 0 
L 1766 153 
Q 2025 184 2025 347 
Q 2025 413 2003 472 
Q 1981 531 1922 609 
L 1469 1241 
L 988 616 
Q 934 547 904 489 
Q 875 431 875 359 
Q 875 275 933 220 
Q 991 166 1116 153 
L 1116 0 
L 72 0 
L 72 153 
Q 175 191 258 247 
Q 341 303 427 392 
Q 513 481 653 653 
L 1303 1459 
L 638 2372 
Q 500 2559 419 2643 
Q 338 2728 269 2772 
Q 200 2816 131 2834 
L 131 2988 
L 1356 2988 
L 1356 2834 
Q 1109 2797 1109 2641 
Q 1109 2569 1142 2497 
Q 1175 2425 1244 2338 
L 1625 1803 
z
" transform="scale(0.015625)"/>
      <path id="Cambria-85" d="M 2631 2916 
L 2631 2263 
L 2234 2263 
Q 2181 2466 2103 2583 
Q 2025 2700 1922 2747 
Q 1819 2794 1666 2794 
Q 1447 2794 1278 2653 
Q 1109 2513 1011 2225 
Q 913 1938 913 1522 
Q 913 1256 950 1036 
Q 988 816 1078 659 
Q 1169 503 1319 415 
Q 1469 328 1691 328 
Q 1906 328 2092 412 
Q 2278 497 2478 709 
L 2656 503 
Q 2497 328 2375 233 
Q 2253 138 2114 73 
Q 1975 9 1839 -20 
Q 1703 -50 1544 -50 
Q 953 -50 640 342 
Q 328 734 328 1475 
Q 328 1938 503 2295 
Q 678 2653 993 2847 
Q 1309 3041 1722 3041 
Q 1978 3041 2195 3011 
Q 2413 2981 2631 2916 
z
" transform="scale(0.015625)"/>
      <path id="Cambria-20b" d="M 2309 -1359 
Q 1778 -1359 1442 -1200 
Q 1106 -1041 918 -714 
Q 731 -388 647 134 
Q 563 656 563 1550 
Q 563 2438 645 2964 
Q 728 3491 915 3822 
Q 1103 4153 1440 4318 
Q 1778 4484 2309 4484 
L 2309 4228 
Q 2091 4228 1922 4191 
Q 1731 4147 1597 4022 
Q 1447 3884 1353 3638 
Q 1244 3350 1191 2875 
Q 1134 2372 1134 1575 
Q 1134 872 1181 379 
Q 1228 -113 1338 -425 
Q 1425 -688 1556 -834 
Q 1672 -963 1831 -1028 
Q 2016 -1103 2309 -1103 
L 2309 -1359 
z
" transform="scale(0.015625)"/>
      <path id="Cambria-1e1" d="M 966 725 
Q 1009 506 1009 294 
Q 1009 75 934 -106 
Q 859 -288 695 -467 
Q 531 -647 244 -863 
L 75 -672 
Q 234 -522 306 -401 
Q 378 -281 409 -128 
Q 441 25 441 256 
Q 441 494 419 725 
L 966 725 
z
" transform="scale(0.015625)"/>
      <path id="Cambria-20c" d="M 134 4484 
Q 666 4484 1002 4325 
Q 1338 4166 1525 3839 
Q 1713 3513 1797 2991 
Q 1881 2469 1881 1575 
Q 1881 688 1798 161 
Q 1716 -366 1528 -697 
Q 1341 -1028 1003 -1193 
Q 666 -1359 134 -1359 
L 134 -1103 
Q 353 -1103 522 -1066 
Q 713 -1022 847 -897 
Q 997 -759 1091 -513 
Q 1200 -225 1253 250 
Q 1309 753 1309 1550 
Q 1309 2253 1262 2745 
Q 1216 3238 1106 3550 
Q 1019 3813 888 3959 
Q 772 4088 613 4153 
Q 428 4228 134 4228 
L 134 4484 
z
" transform="scale(0.015625)"/>
     </defs>
     <use xlink:href="#Cambria-5"/>
     <use xlink:href="#Cambria-f" transform="translate(61.140625 0)"/>
     <use xlink:href="#Cambria-16" transform="translate(114.109375 0)"/>
     <use xlink:href="#Cambria-373" transform="translate(163.71875 0)"/>
     <use xlink:href="#Cambria-374" transform="translate(219.09375 0)"/>
     <use xlink:href="#Cambria-1e6" transform="translate(274.46875 0)"/>
     <use xlink:href="#Cambria-373" transform="translate(307.671875 0)"/>
     <use xlink:href="#Cambria-374" transform="translate(363.046875 0)"/>
     <use xlink:href="#Cambria-37a" transform="translate(418.421875 0)"/>
     <use xlink:href="#Cambria-3" transform="translate(473.796875 0)"/>
     <use xlink:href="#Cambria-87" transform="translate(495.8125 0)"/>
     <use xlink:href="#Cambria-9a" transform="translate(543.421875 0)"/>
     <use xlink:href="#Cambria-83" transform="translate(590.40625 0)"/>
     <use xlink:href="#Cambria-85" transform="translate(639.234375 0)"/>
     <use xlink:href="#Cambria-96" transform="translate(683.328125 0)"/>
     <use xlink:href="#Cambria-3" transform="translate(717.171875 0)"/>
     <use xlink:href="#Cambria-90" transform="translate(739.1875 0)"/>
     <use xlink:href="#Cambria-91" transform="translate(795 0)"/>
     <use xlink:href="#Cambria-94" transform="translate(848.078125 0)"/>
     <use xlink:href="#Cambria-8f" transform="translate(889.4375 0)"/>
     <use xlink:href="#Cambria-3" transform="translate(972.640625 0)"/>
     <use xlink:href="#Cambria-95" transform="translate(994.65625 0)"/>
     <use xlink:href="#Cambria-83" transform="translate(1037.625 0)"/>
     <use xlink:href="#Cambria-8f" transform="translate(1086.453125 0)"/>
     <use xlink:href="#Cambria-92" transform="translate(1169.65625 0)"/>
     <use xlink:href="#Cambria-8e" transform="translate(1225.265625 0)"/>
     <use xlink:href="#Cambria-8b" transform="translate(1252.421875 0)"/>
     <use xlink:href="#Cambria-90" transform="translate(1280.203125 0)"/>
     <use xlink:href="#Cambria-89" transform="translate(1336.015625 0)"/>
     <use xlink:href="#Cambria-3" transform="translate(1385.4375 0)"/>
     <use xlink:href="#Cambria-20b" transform="translate(1407.453125 0)"/>
     <use xlink:href="#Cambria-373" transform="translate(1445.640625 0)"/>
     <use xlink:href="#Cambria-1e1" transform="translate(1501.015625 0)"/>
     <use xlink:href="#Cambria-372" transform="translate(1521.53125 0)"/>
     <use xlink:href="#Cambria-374" transform="translate(1576.90625 0)"/>
     <use xlink:href="#Cambria-376" transform="translate(1632.28125 0)"/>
     <use xlink:href="#Cambria-3" transform="translate(1687.65625 0)"/>
     <use xlink:href="#Cambria-95" transform="translate(1709.671875 0)"/>
     <use xlink:href="#Cambria-83" transform="translate(1752.640625 0)"/>
     <use xlink:href="#Cambria-8f" transform="translate(1801.46875 0)"/>
     <use xlink:href="#Cambria-92" transform="translate(1884.671875 0)"/>
     <use xlink:href="#Cambria-8e" transform="translate(1940.28125 0)"/>
     <use xlink:href="#Cambria-87" transform="translate(1967.4375 0)"/>
     <use xlink:href="#Cambria-95" transform="translate(2016.21875 0)"/>
     <use xlink:href="#Cambria-1e1" transform="translate(2059.1875 0)"/>
     <use xlink:href="#Cambria-3" transform="translate(2079.703125 0)"/>
     <use xlink:href="#Cambria-95" transform="translate(2101.71875 0)"/>
     <use xlink:href="#Cambria-87" transform="translate(2144.6875 0)"/>
     <use xlink:href="#Cambria-87" transform="translate(2193.46875 0)"/>
     <use xlink:href="#Cambria-86" transform="translate(2242.25 0)"/>
     <use xlink:href="#Cambria-3" transform="translate(2297.71875 0)"/>
     <use xlink:href="#Cambria-374" transform="translate(2319.734375 0)"/>
     <use xlink:href="#Cambria-372" transform="translate(2375.109375 0)"/>
     <use xlink:href="#Cambria-374" transform="translate(2430.484375 0)"/>
     <use xlink:href="#Cambria-378" transform="translate(2485.859375 0)"/>
     <use xlink:href="#Cambria-372" transform="translate(2541.234375 0)"/>
     <use xlink:href="#Cambria-379" transform="translate(2596.609375 0)"/>
     <use xlink:href="#Cambria-374" transform="translate(2651.984375 0)"/>
     <use xlink:href="#Cambria-374" transform="translate(2707.359375 0)"/>
     <use xlink:href="#Cambria-20c" transform="translate(2762.734375 0)"/>
    </g>
   </g>
   <g id="legend_1">
    <g id="line2d_21">
     <path d="M 49.20875 36.200039 
L 57.40875 36.200039 
L 65.60875 36.200039 
" style="fill: none; stroke: #0b0b0b; stroke-width: 1.4; stroke-linecap: square"/>
    </g>
    <g id="text_13">
     <!-- sample mean 791.1 -->
     <g transform="translate(72.16875 39.070039) scale(0.082 -0.082)">
      <defs>
       <path id="Cambria-37b" d="M 978 122 
L 978 275 
Q 1416 275 1736 469 
Q 2056 663 2251 1042 
Q 2447 1422 2513 2038 
L 2481 2050 
Q 2219 1863 1964 1775 
Q 1709 1688 1413 1688 
Q 1059 1688 811 1842 
Q 563 1997 438 2276 
Q 313 2556 313 2931 
Q 313 3213 406 3464 
Q 500 3716 684 3905 
Q 869 4094 1145 4205 
Q 1422 4316 1791 4316 
Q 2447 4316 2790 3862 
Q 3134 3409 3134 2559 
Q 3134 1781 2881 1211 
Q 2628 641 2172 323 
Q 1716 6 1106 -50 
L 978 122 
z
M 1628 2016 
Q 1747 2016 1855 2036 
Q 1963 2056 2066 2095 
Q 2169 2134 2267 2195 
Q 2366 2256 2444 2325 
Q 2472 2350 2494 2390 
Q 2516 2431 2528 2497 
Q 2541 2563 2541 2703 
Q 2541 3131 2455 3436 
Q 2369 3741 2192 3895 
Q 2016 4050 1756 4050 
Q 1522 4050 1359 3969 
Q 1197 3888 1095 3745 
Q 994 3603 947 3411 
Q 900 3219 900 2994 
Q 900 2528 1090 2272 
Q 1281 2016 1628 2016 
z
" transform="scale(0.015625)"/>
       <path id="Cambria-1e4" d="M 972 725 
L 972 0 
L 341 0 
L 341 725 
L 972 725 
z
" transform="scale(0.015625)"/>
      </defs>
      <use xlink:href="#Cambria-95"/>
      <use xlink:href="#Cambria-83" transform="translate(42.96875 0)"/>
      <use xlink:href="#Cambria-8f" transform="translate(91.796875 0)"/>
      <use xlink:href="#Cambria-92" transform="translate(175 0)"/>
      <use xlink:href="#Cambria-8e" transform="translate(230.609375 0)"/>
      <use xlink:href="#Cambria-87" transform="translate(257.765625 0)"/>
      <use xlink:href="#Cambria-3" transform="translate(306.546875 0)"/>
      <use xlink:href="#Cambria-8f" transform="translate(328.5625 0)"/>
      <use xlink:href="#Cambria-87" transform="translate(411.765625 0)"/>
      <use xlink:href="#Cambria-83" transform="translate(460.546875 0)"/>
      <use xlink:href="#Cambria-90" transform="translate(509.375 0)"/>
      <use xlink:href="#Cambria-3" transform="translate(565.1875 0)"/>
      <use xlink:href="#Cambria-379" transform="translate(587.203125 0)"/>
      <use xlink:href="#Cambria-37b" transform="translate(642.578125 0)"/>
      <use xlink:href="#Cambria-373" transform="translate(697.953125 0)"/>
      <use xlink:href="#Cambria-1e4" transform="translate(753.328125 0)"/>
      <use xlink:href="#Cambria-373" transform="translate(773.84375 0)"/>
     </g>
    </g>
    <g id="line2d_22">
     <path d="M 49.20875 48.500039 
L 57.40875 48.500039 
L 65.60875 48.500039 
" style="fill: none; stroke-dasharray: 5.18,2.24; stroke-dashoffset: 0; stroke: #e34948; stroke-width: 1.4"/>
    </g>
    <g id="text_14">
     <!-- printed 791.2 -->
     <g transform="translate(72.16875 51.370039) scale(0.082 -0.082)">
      <use xlink:href="#Cambria-92"/>
      <use xlink:href="#Cambria-94" transform="translate(55.609375 0)"/>
      <use xlink:href="#Cambria-8b" transform="translate(96.96875 0)"/>
      <use xlink:href="#Cambria-90" transform="translate(124.75 0)"/>
      <use xlink:href="#Cambria-96" transform="translate(180.5625 0)"/>
      <use xlink:href="#Cambria-87" transform="translate(213.53125 0)"/>
      <use xlink:href="#Cambria-86" transform="translate(262.3125 0)"/>
      <use xlink:href="#Cambria-3" transform="translate(317.78125 0)"/>
      <use xlink:href="#Cambria-379" transform="translate(339.796875 0)"/>
      <use xlink:href="#Cambria-37b" transform="translate(395.171875 0)"/>
      <use xlink:href="#Cambria-373" transform="translate(450.546875 0)"/>
      <use xlink:href="#Cambria-1e4" transform="translate(505.921875 0)"/>
      <use xlink:href="#Cambria-374" transform="translate(526.4375 0)"/>
     </g>
    </g>
   </g>
  </g>
  <g id="axes_2">
   <g id="patch_41">
    <path d="M 284.01476 176.466016 
L 489.759435 176.466016 
L 489.759435 25.311816 
L 284.01476 25.311816 
z
" style="fill: #fcfcfb"/>
   </g>
   <g id="matplotlib.axis_3">
    <g id="xtick_5">
     <g id="line2d_23">
      <path d="M 317.763393 176.466016 
L 317.763393 25.311816 
" clip-path="url(#p4f751e72a1)" style="fill: none; stroke: #e1e0d9; stroke-width: 0.7; stroke-linecap: square"/>
     </g>
     <g id="line2d_24">
      <g>
       <use xlink:href="#me9d1ca95c3" x="317.763393" y="176.466016" style="fill: #898781; stroke: #898781; stroke-width: 0.8"/>
      </g>
     </g>
     <g id="text_15">
      <!-- 560 -->
      <g style="fill: #52514e" transform="translate(309.04183 191.633252) scale(0.105 -0.105)">
       <use xlink:href="#Cambria-377"/>
       <use xlink:href="#Cambria-378" transform="translate(55.375 0)"/>
       <use xlink:href="#Cambria-372" transform="translate(110.75 0)"/>
      </g>
     </g>
    </g>
    <g id="xtick_6">
     <g id="line2d_25">
      <path d="M 358.424396 176.466016 
L 358.424396 25.311816 
" clip-path="url(#p4f751e72a1)" style="fill: none; stroke: #e1e0d9; stroke-width: 0.7; stroke-linecap: square"/>
     </g>
     <g id="line2d_26">
      <g>
       <use xlink:href="#me9d1ca95c3" x="358.424396" y="176.466016" style="fill: #898781; stroke: #898781; stroke-width: 0.8"/>
      </g>
     </g>
     <g id="text_16">
      <!-- 570 -->
      <g style="fill: #52514e" transform="translate(349.702833 191.633252) scale(0.105 -0.105)">
       <use xlink:href="#Cambria-377"/>
       <use xlink:href="#Cambria-379" transform="translate(55.375 0)"/>
       <use xlink:href="#Cambria-372" transform="translate(110.75 0)"/>
      </g>
     </g>
    </g>
    <g id="xtick_7">
     <g id="line2d_27">
      <path d="M 399.085398 176.466016 
L 399.085398 25.311816 
" clip-path="url(#p4f751e72a1)" style="fill: none; stroke: #e1e0d9; stroke-width: 0.7; stroke-linecap: square"/>
     </g>
     <g id="line2d_28">
      <g>
       <use xlink:href="#me9d1ca95c3" x="399.085398" y="176.466016" style="fill: #898781; stroke: #898781; stroke-width: 0.8"/>
      </g>
     </g>
     <g id="text_17">
      <!-- 580 -->
      <g style="fill: #52514e" transform="translate(390.363836 191.633252) scale(0.105 -0.105)">
       <use xlink:href="#Cambria-377"/>
       <use xlink:href="#Cambria-37a" transform="translate(55.375 0)"/>
       <use xlink:href="#Cambria-372" transform="translate(110.75 0)"/>
      </g>
     </g>
    </g>
    <g id="xtick_8">
     <g id="line2d_29">
      <path d="M 439.746401 176.466016 
L 439.746401 25.311816 
" clip-path="url(#p4f751e72a1)" style="fill: none; stroke: #e1e0d9; stroke-width: 0.7; stroke-linecap: square"/>
     </g>
     <g id="line2d_30">
      <g>
       <use xlink:href="#me9d1ca95c3" x="439.746401" y="176.466016" style="fill: #898781; stroke: #898781; stroke-width: 0.8"/>
      </g>
     </g>
     <g id="text_18">
      <!-- 590 -->
      <g style="fill: #52514e" transform="translate(431.024839 191.633252) scale(0.105 -0.105)">
       <use xlink:href="#Cambria-377"/>
       <use xlink:href="#Cambria-37b" transform="translate(55.375 0)"/>
       <use xlink:href="#Cambria-372" transform="translate(110.75 0)"/>
      </g>
     </g>
    </g>
    <g id="xtick_9">
     <g id="line2d_31">
      <path d="M 480.407404 176.466016 
L 480.407404 25.311816 
" clip-path="url(#p4f751e72a1)" style="fill: none; stroke: #e1e0d9; stroke-width: 0.7; stroke-linecap: square"/>
     </g>
     <g id="line2d_32">
      <g>
       <use xlink:href="#me9d1ca95c3" x="480.407404" y="176.466016" style="fill: #898781; stroke: #898781; stroke-width: 0.8"/>
      </g>
     </g>
     <g id="text_19">
      <!-- 600 -->
      <g style="fill: #52514e" transform="translate(471.685842 191.633252) scale(0.105 -0.105)">
       <use xlink:href="#Cambria-378"/>
       <use xlink:href="#Cambria-372" transform="translate(55.375 0)"/>
       <use xlink:href="#Cambria-372" transform="translate(110.75 0)"/>
      </g>
     </g>
    </g>
    <g id="text_20">
     <!-- g-side norm bit length -->
     <g style="fill: #0b0b0b" transform="translate(330.266785 207.3) scale(0.12 -0.12)">
      <use xlink:href="#Cambria-89"/>
      <use xlink:href="#Cambria-1e6" transform="translate(49.421875 0)"/>
      <use xlink:href="#Cambria-95" transform="translate(82.625 0)"/>
      <use xlink:href="#Cambria-8b" transform="translate(125.59375 0)"/>
      <use xlink:href="#Cambria-86" transform="translate(153.375 0)"/>
      <use xlink:href="#Cambria-87" transform="translate(208.84375 0)"/>
      <use xlink:href="#Cambria-3" transform="translate(257.625 0)"/>
      <use xlink:href="#Cambria-90" transform="translate(279.640625 0)"/>
      <use xlink:href="#Cambria-91" transform="translate(335.453125 0)"/>
      <use xlink:href="#Cambria-94" transform="translate(388.53125 0)"/>
      <use xlink:href="#Cambria-8f" transform="translate(429.890625 0)"/>
      <use xlink:href="#Cambria-3" transform="translate(513.09375 0)"/>
      <use xlink:href="#Cambria-84" transform="translate(535.109375 0)"/>
      <use xlink:href="#Cambria-8b" transform="translate(589.84375 0)"/>
      <use xlink:href="#Cambria-96" transform="translate(617.625 0)"/>
      <use xlink:href="#Cambria-3" transform="translate(651.46875 0)"/>
      <use xlink:href="#Cambria-8e" transform="translate(673.484375 0)"/>
      <use xlink:href="#Cambria-87" transform="translate(700.640625 0)"/>
      <use xlink:href="#Cambria-90" transform="translate(749.421875 0)"/>
      <use xlink:href="#Cambria-89" transform="translate(805.234375 0)"/>
      <use xlink:href="#Cambria-96" transform="translate(854.65625 0)"/>
      <use xlink:href="#Cambria-8a" transform="translate(888.5 0)"/>
     </g>
    </g>
   </g>
   <g id="matplotlib.axis_4">
    <g id="ytick_6">
     <g id="line2d_33">
      <path d="M 284.01476 176.466016 
L 489.759435 176.466016 
" clip-path="url(#p4f751e72a1)" style="fill: none; stroke: #e1e0d9; stroke-width: 0.7; stroke-linecap: square"/>
     </g>
     <g id="line2d_34">
      <g>
       <use xlink:href="#mf868370563" x="284.01476" y="176.466016" style="fill: #898781; stroke: #898781; stroke-width: 0.8"/>
      </g>
     </g>
     <g id="text_21">
      <!-- 0 -->
      <g style="fill: #52514e" transform="translate(271.200385 180.549634) scale(0.105 -0.105)">
       <use xlink:href="#Cambria-372"/>
      </g>
     </g>
    </g>
    <g id="ytick_7">
     <g id="line2d_35">
      <path d="M 284.01476 151.473589 
L 489.759435 151.473589 
" clip-path="url(#p4f751e72a1)" style="fill: none; stroke: #e1e0d9; stroke-width: 0.7; stroke-linecap: square"/>
     </g>
     <g id="line2d_36">
      <g>
       <use xlink:href="#mf868370563" x="284.01476" y="151.473589" style="fill: #898781; stroke: #898781; stroke-width: 0.8"/>
      </g>
     </g>
     <g id="text_22">
      <!-- 25 -->
      <g style="fill: #52514e" transform="translate(265.38601 155.557207) scale(0.105 -0.105)">
       <use xlink:href="#Cambria-374"/>
       <use xlink:href="#Cambria-377" transform="translate(55.375 0)"/>
      </g>
     </g>
    </g>
    <g id="ytick_8">
     <g id="line2d_37">
      <path d="M 284.01476 126.481161 
L 489.759435 126.481161 
" clip-path="url(#p4f751e72a1)" style="fill: none; stroke: #e1e0d9; stroke-width: 0.7; stroke-linecap: square"/>
     </g>
     <g id="line2d_38">
      <g>
       <use xlink:href="#mf868370563" x="284.01476" y="126.481161" style="fill: #898781; stroke: #898781; stroke-width: 0.8"/>
      </g>
     </g>
     <g id="text_23">
      <!-- 50 -->
      <g style="fill: #52514e" transform="translate(265.38601 130.56478) scale(0.105 -0.105)">
       <use xlink:href="#Cambria-377"/>
       <use xlink:href="#Cambria-372" transform="translate(55.375 0)"/>
      </g>
     </g>
    </g>
    <g id="ytick_9">
     <g id="line2d_39">
      <path d="M 284.01476 101.488734 
L 489.759435 101.488734 
" clip-path="url(#p4f751e72a1)" style="fill: none; stroke: #e1e0d9; stroke-width: 0.7; stroke-linecap: square"/>
     </g>
     <g id="line2d_40">
      <g>
       <use xlink:href="#mf868370563" x="284.01476" y="101.488734" style="fill: #898781; stroke: #898781; stroke-width: 0.8"/>
      </g>
     </g>
     <g id="text_24">
      <!-- 75 -->
      <g style="fill: #52514e" transform="translate(265.38601 105.572352) scale(0.105 -0.105)">
       <use xlink:href="#Cambria-379"/>
       <use xlink:href="#Cambria-377" transform="translate(55.375 0)"/>
      </g>
     </g>
    </g>
    <g id="ytick_10">
     <g id="line2d_41">
      <path d="M 284.01476 76.496307 
L 489.759435 76.496307 
" clip-path="url(#p4f751e72a1)" style="fill: none; stroke: #e1e0d9; stroke-width: 0.7; stroke-linecap: square"/>
     </g>
     <g id="line2d_42">
      <g>
       <use xlink:href="#mf868370563" x="284.01476" y="76.496307" style="fill: #898781; stroke: #898781; stroke-width: 0.8"/>
      </g>
     </g>
     <g id="text_25">
      <!-- 100 -->
      <g style="fill: #52514e" transform="translate(259.571635 80.579925) scale(0.105 -0.105)">
       <use xlink:href="#Cambria-373"/>
       <use xlink:href="#Cambria-372" transform="translate(55.375 0)"/>
       <use xlink:href="#Cambria-372" transform="translate(110.75 0)"/>
      </g>
     </g>
    </g>
    <g id="ytick_11">
     <g id="line2d_43">
      <path d="M 284.01476 51.50388 
L 489.759435 51.50388 
" clip-path="url(#p4f751e72a1)" style="fill: none; stroke: #e1e0d9; stroke-width: 0.7; stroke-linecap: square"/>
     </g>
     <g id="line2d_44">
      <g>
       <use xlink:href="#mf868370563" x="284.01476" y="51.50388" style="fill: #898781; stroke: #898781; stroke-width: 0.8"/>
      </g>
     </g>
     <g id="text_26">
      <!-- 125 -->
      <g style="fill: #52514e" transform="translate(259.571635 55.587498) scale(0.105 -0.105)">
       <use xlink:href="#Cambria-373"/>
       <use xlink:href="#Cambria-374" transform="translate(55.375 0)"/>
       <use xlink:href="#Cambria-377" transform="translate(110.75 0)"/>
      </g>
     </g>
    </g>
    <g id="ytick_12">
     <g id="line2d_45">
      <path d="M 284.01476 26.511453 
L 489.759435 26.511453 
" clip-path="url(#p4f751e72a1)" style="fill: none; stroke: #e1e0d9; stroke-width: 0.7; stroke-linecap: square"/>
     </g>
     <g id="line2d_46">
      <g>
       <use xlink:href="#mf868370563" x="284.01476" y="26.511453" style="fill: #898781; stroke: #898781; stroke-width: 0.8"/>
      </g>
     </g>
     <g id="text_27">
      <!-- 150 -->
      <g style="fill: #52514e" transform="translate(259.571635 30.595071) scale(0.105 -0.105)">
       <use xlink:href="#Cambria-373"/>
       <use xlink:href="#Cambria-377" transform="translate(55.375 0)"/>
       <use xlink:href="#Cambria-372" transform="translate(110.75 0)"/>
      </g>
     </g>
    </g>
   </g>
   <g id="patch_42">
    <path d="M 293.366791 176.466016 
L 298.562363 176.466016 
L 298.562363 174.466621 
L 293.366791 174.466621 
z
" clip-path="url(#p4f751e72a1)" style="fill: #eb6834; stroke: #fcfcfb; stroke-width: 0.4; stroke-linejoin: miter"/>
   </g>
   <g id="patch_43">
    <path d="M 298.562363 176.466016 
L 303.757936 176.466016 
L 303.757936 176.466016 
L 298.562363 176.466016 
z
" clip-path="url(#p4f751e72a1)" style="fill: #eb6834; stroke: #fcfcfb; stroke-width: 0.4; stroke-linejoin: miter"/>
   </g>
   <g id="patch_44">
    <path d="M 303.757936 176.466016 
L 308.953509 176.466016 
L 308.953509 176.466016 
L 303.757936 176.466016 
z
" clip-path="url(#p4f751e72a1)" style="fill: #eb6834; stroke: #fcfcfb; stroke-width: 0.4; stroke-linejoin: miter"/>
   </g>
   <g id="patch_45">
    <path d="M 308.953509 176.466016 
L 314.149081 176.466016 
L 314.149081 176.466016 
L 308.953509 176.466016 
z
" clip-path="url(#p4f751e72a1)" style="fill: #eb6834; stroke: #fcfcfb; stroke-width: 0.4; stroke-linejoin: miter"/>
   </g>
   <g id="patch_46">
    <path d="M 314.149081 176.466016 
L 319.344654 176.466016 
L 319.344654 176.466016 
L 314.149081 176.466016 
z
" clip-path="url(#p4f751e72a1)" style="fill: #eb6834; stroke: #fcfcfb; stroke-width: 0.4; stroke-linejoin: miter"/>
   </g>
   <g id="patch_47">
    <path d="M 319.344654 176.466016 
L 324.540226 176.466016 
L 324.540226 176.466016 
L 319.344654 176.466016 
z
" clip-path="url(#p4f751e72a1)" style="fill: #eb6834; stroke: #fcfcfb; stroke-width: 0.4; stroke-linejoin: miter"/>
   </g>
   <g id="patch_48">
    <path d="M 324.540226 176.466016 
L 329.735799 176.466016 
L 329.735799 176.466016 
L 324.540226 176.466016 
z
" clip-path="url(#p4f751e72a1)" style="fill: #eb6834; stroke: #fcfcfb; stroke-width: 0.4; stroke-linejoin: miter"/>
   </g>
   <g id="patch_49">
    <path d="M 329.735799 176.466016 
L 334.931372 176.466016 
L 334.931372 170.467833 
L 329.735799 170.467833 
z
" clip-path="url(#p4f751e72a1)" style="fill: #eb6834; stroke: #fcfcfb; stroke-width: 0.4; stroke-linejoin: miter"/>
   </g>
   <g id="patch_50">
    <path d="M 334.931372 176.466016 
L 340.126944 176.466016 
L 340.126944 175.466319 
L 334.931372 175.466319 
z
" clip-path="url(#p4f751e72a1)" style="fill: #eb6834; stroke: #fcfcfb; stroke-width: 0.4; stroke-linejoin: miter"/>
   </g>
   <g id="patch_51">
    <path d="M 340.126944 176.466016 
L 345.322517 176.466016 
L 345.322517 174.466621 
L 340.126944 174.466621 
z
" clip-path="url(#p4f751e72a1)" style="fill: #eb6834; stroke: #fcfcfb; stroke-width: 0.4; stroke-linejoin: miter"/>
   </g>
   <g id="patch_52">
    <path d="M 345.322517 176.466016 
L 350.518089 176.466016 
L 350.518089 174.466621 
L 345.322517 174.466621 
z
" clip-path="url(#p4f751e72a1)" style="fill: #eb6834; stroke: #fcfcfb; stroke-width: 0.4; stroke-linejoin: miter"/>
   </g>
   <g id="patch_53">
    <path d="M 350.518089 176.466016 
L 355.713662 176.466016 
L 355.713662 170.467833 
L 350.518089 170.467833 
z
" clip-path="url(#p4f751e72a1)" style="fill: #eb6834; stroke: #fcfcfb; stroke-width: 0.4; stroke-linejoin: miter"/>
   </g>
   <g id="patch_54">
    <path d="M 355.713662 176.466016 
L 360.909235 176.466016 
L 360.909235 172.467227 
L 355.713662 172.467227 
z
" clip-path="url(#p4f751e72a1)" style="fill: #eb6834; stroke: #fcfcfb; stroke-width: 0.4; stroke-linejoin: miter"/>
   </g>
   <g id="patch_55">
    <path d="M 360.909235 176.466016 
L 366.104807 176.466016 
L 366.104807 170.467833 
L 360.909235 170.467833 
z
" clip-path="url(#p4f751e72a1)" style="fill: #eb6834; stroke: #fcfcfb; stroke-width: 0.4; stroke-linejoin: miter"/>
   </g>
   <g id="patch_56">
    <path d="M 366.104807 176.466016 
L 371.30038 176.466016 
L 371.30038 151.473589 
L 366.104807 151.473589 
z
" clip-path="url(#p4f751e72a1)" style="fill: #eb6834; stroke: #fcfcfb; stroke-width: 0.4; stroke-linejoin: miter"/>
   </g>
   <g id="patch_57">
    <path d="M 371.30038 176.466016 
L 376.495952 176.466016 
L 376.495952 166.469045 
L 371.30038 166.469045 
z
" clip-path="url(#p4f751e72a1)" style="fill: #eb6834; stroke: #fcfcfb; stroke-width: 0.4; stroke-linejoin: miter"/>
   </g>
   <g id="patch_58">
    <path d="M 376.495952 176.466016 
L 381.691525 176.466016 
L 381.691525 154.47268 
L 376.495952 154.47268 
z
" clip-path="url(#p4f751e72a1)" style="fill: #eb6834; stroke: #fcfcfb; stroke-width: 0.4; stroke-linejoin: miter"/>
   </g>
   <g id="patch_59">
    <path d="M 381.691525 176.466016 
L 386.887098 176.466016 
L 386.887098 153.472983 
L 381.691525 153.472983 
z
" clip-path="url(#p4f751e72a1)" style="fill: #eb6834; stroke: #fcfcfb; stroke-width: 0.4; stroke-linejoin: miter"/>
   </g>
   <g id="patch_60">
    <path d="M 386.887098 176.466016 
L 392.08267 176.466016 
L 392.08267 128.480556 
L 386.887098 128.480556 
z
" clip-path="url(#p4f751e72a1)" style="fill: #eb6834; stroke: #fcfcfb; stroke-width: 0.4; stroke-linejoin: miter"/>
   </g>
   <g id="patch_61">
    <path d="M 392.08267 176.466016 
L 397.278243 176.466016 
L 397.278243 140.476921 
L 392.08267 140.476921 
z
" clip-path="url(#p4f751e72a1)" style="fill: #eb6834; stroke: #fcfcfb; stroke-width: 0.4; stroke-linejoin: miter"/>
   </g>
   <g id="patch_62">
    <path d="M 397.278243 176.466016 
L 402.473815 176.466016 
L 402.473815 141.476618 
L 397.278243 141.476618 
z
" clip-path="url(#p4f751e72a1)" style="fill: #eb6834; stroke: #fcfcfb; stroke-width: 0.4; stroke-linejoin: miter"/>
   </g>
   <g id="patch_63">
    <path d="M 402.473815 176.466016 
L 407.669388 176.466016 
L 407.669388 75.49661 
L 402.473815 75.49661 
z
" clip-path="url(#p4f751e72a1)" style="fill: #eb6834; stroke: #fcfcfb; stroke-width: 0.4; stroke-linejoin: miter"/>
   </g>
   <g id="patch_64">
    <path d="M 407.669388 176.466016 
L 412.864961 176.466016 
L 412.864961 120.482979 
L 407.669388 120.482979 
z
" clip-path="url(#p4f751e72a1)" style="fill: #eb6834; stroke: #fcfcfb; stroke-width: 0.4; stroke-linejoin: miter"/>
   </g>
   <g id="patch_65">
    <path d="M 412.864961 176.466016 
L 418.060533 176.466016 
L 418.060533 113.485099 
L 412.864961 113.485099 
z
" clip-path="url(#p4f751e72a1)" style="fill: #eb6834; stroke: #fcfcfb; stroke-width: 0.4; stroke-linejoin: miter"/>
   </g>
   <g id="patch_66">
    <path d="M 418.060533 176.466016 
L 423.256106 176.466016 
L 423.256106 109.486311 
L 418.060533 109.486311 
z
" clip-path="url(#p4f751e72a1)" style="fill: #eb6834; stroke: #fcfcfb; stroke-width: 0.4; stroke-linejoin: miter"/>
   </g>
   <g id="patch_67">
    <path d="M 423.256106 176.466016 
L 428.451678 176.466016 
L 428.451678 32.509635 
L 423.256106 32.509635 
z
" clip-path="url(#p4f751e72a1)" style="fill: #eb6834; stroke: #fcfcfb; stroke-width: 0.4; stroke-linejoin: miter"/>
   </g>
   <g id="patch_68">
    <path d="M 428.451678 176.466016 
L 433.647251 176.466016 
L 433.647251 111.485705 
L 428.451678 111.485705 
z
" clip-path="url(#p4f751e72a1)" style="fill: #eb6834; stroke: #fcfcfb; stroke-width: 0.4; stroke-linejoin: miter"/>
   </g>
   <g id="patch_69">
    <path d="M 433.647251 176.466016 
L 438.842824 176.466016 
L 438.842824 111.485705 
L 433.647251 111.485705 
z
" clip-path="url(#p4f751e72a1)" style="fill: #eb6834; stroke: #fcfcfb; stroke-width: 0.4; stroke-linejoin: miter"/>
   </g>
   <g id="patch_70">
    <path d="M 438.842824 176.466016 
L 444.038396 176.466016 
L 444.038396 75.49661 
L 438.842824 75.49661 
z
" clip-path="url(#p4f751e72a1)" style="fill: #eb6834; stroke: #fcfcfb; stroke-width: 0.4; stroke-linejoin: miter"/>
   </g>
   <g id="patch_71">
    <path d="M 444.038396 176.466016 
L 449.233969 176.466016 
L 449.233969 126.481161 
L 444.038396 126.481161 
z
" clip-path="url(#p4f751e72a1)" style="fill: #eb6834; stroke: #fcfcfb; stroke-width: 0.4; stroke-linejoin: miter"/>
   </g>
   <g id="patch_72">
    <path d="M 449.233969 176.466016 
L 454.429541 176.466016 
L 454.429541 153.472983 
L 449.233969 153.472983 
z
" clip-path="url(#p4f751e72a1)" style="fill: #eb6834; stroke: #fcfcfb; stroke-width: 0.4; stroke-linejoin: miter"/>
   </g>
   <g id="patch_73">
    <path d="M 454.429541 176.466016 
L 459.625114 176.466016 
L 459.625114 150.473891 
L 454.429541 150.473891 
z
" clip-path="url(#p4f751e72a1)" style="fill: #eb6834; stroke: #fcfcfb; stroke-width: 0.4; stroke-linejoin: miter"/>
   </g>
   <g id="patch_74">
    <path d="M 459.625114 176.466016 
L 464.820687 176.466016 
L 464.820687 151.473589 
L 459.625114 151.473589 
z
" clip-path="url(#p4f751e72a1)" style="fill: #eb6834; stroke: #fcfcfb; stroke-width: 0.4; stroke-linejoin: miter"/>
   </g>
   <g id="patch_75">
    <path d="M 464.820687 176.466016 
L 470.016259 176.466016 
L 470.016259 170.467833 
L 464.820687 170.467833 
z
" clip-path="url(#p4f751e72a1)" style="fill: #eb6834; stroke: #fcfcfb; stroke-width: 0.4; stroke-linejoin: miter"/>
   </g>
   <g id="patch_76">
    <path d="M 470.016259 176.466016 
L 475.211832 176.466016 
L 475.211832 173.466924 
L 470.016259 173.466924 
z
" clip-path="url(#p4f751e72a1)" style="fill: #eb6834; stroke: #fcfcfb; stroke-width: 0.4; stroke-linejoin: miter"/>
   </g>
   <g id="patch_77">
    <path d="M 475.211832 176.466016 
L 480.407404 176.466016 
L 480.407404 175.466319 
L 475.211832 175.466319 
z
" clip-path="url(#p4f751e72a1)" style="fill: #eb6834; stroke: #fcfcfb; stroke-width: 0.4; stroke-linejoin: miter"/>
   </g>
   <g id="line2d_47">
    <path d="M 418.4232 176.466016 
L 418.4232 25.311816 
" clip-path="url(#p4f751e72a1)" style="fill: none; stroke: #0b0b0b; stroke-width: 1.4; stroke-linecap: square"/>
   </g>
   <g id="line2d_48">
    <path d="M 418.60268 176.466016 
L 418.60268 25.311816 
" clip-path="url(#p4f751e72a1)" style="fill: none; stroke-dasharray: 5.18,2.24; stroke-dashoffset: 0; stroke: #e34948; stroke-width: 1.4"/>
   </g>
   <g id="patch_78">
    <path d="M 284.01476 176.466016 
L 284.01476 25.311816 
" style="fill: none; stroke: #c3c2b7; stroke-width: 0.9; stroke-linejoin: miter; stroke-linecap: square"/>
   </g>
   <g id="patch_79">
    <path d="M 284.01476 176.466016 
L 489.759435 176.466016 
" style="fill: none; stroke: #c3c2b7; stroke-width: 0.9; stroke-linejoin: miter; stroke-linecap: square"/>
   </g>
   <g id="legend_2">
    <g id="line2d_49">
     <path d="M 291.39476 36.200039 
L 299.59476 36.200039 
L 307.79476 36.200039 
" style="fill: none; stroke: #0b0b0b; stroke-width: 1.4; stroke-linecap: square"/>
    </g>
    <g id="text_28">
     <!-- sample mean 584.8 -->
     <g transform="translate(314.35476 39.070039) scale(0.082 -0.082)">
      <use xlink:href="#Cambria-95"/>
      <use xlink:href="#Cambria-83" transform="translate(42.96875 0)"/>
      <use xlink:href="#Cambria-8f" transform="translate(91.796875 0)"/>
      <use xlink:href="#Cambria-92" transform="translate(175 0)"/>
      <use xlink:href="#Cambria-8e" transform="translate(230.609375 0)"/>
      <use xlink:href="#Cambria-87" transform="translate(257.765625 0)"/>
      <use xlink:href="#Cambria-3" transform="translate(306.546875 0)"/>
      <use xlink:href="#Cambria-8f" transform="translate(328.5625 0)"/>
      <use xlink:href="#Cambria-87" transform="translate(411.765625 0)"/>
      <use xlink:href="#Cambria-83" transform="translate(460.546875 0)"/>
      <use xlink:href="#Cambria-90" transform="translate(509.375 0)"/>
      <use xlink:href="#Cambria-3" transform="translate(565.1875 0)"/>
      <use xlink:href="#Cambria-377" transform="translate(587.203125 0)"/>
      <use xlink:href="#Cambria-37a" transform="translate(642.578125 0)"/>
      <use xlink:href="#Cambria-376" transform="translate(697.953125 0)"/>
      <use xlink:href="#Cambria-1e4" transform="translate(753.328125 0)"/>
      <use xlink:href="#Cambria-37a" transform="translate(773.84375 0)"/>
     </g>
    </g>
    <g id="line2d_50">
     <path d="M 291.39476 48.500039 
L 299.59476 48.500039 
L 307.79476 48.500039 
" style="fill: none; stroke-dasharray: 5.18,2.24; stroke-dashoffset: 0; stroke: #e34948; stroke-width: 1.4"/>
    </g>
    <g id="text_29">
     <!-- printed 584.8 -->
     <g transform="translate(314.35476 51.370039) scale(0.082 -0.082)">
      <use xlink:href="#Cambria-92"/>
      <use xlink:href="#Cambria-94" transform="translate(55.609375 0)"/>
      <use xlink:href="#Cambria-8b" transform="translate(96.96875 0)"/>
      <use xlink:href="#Cambria-90" transform="translate(124.75 0)"/>
      <use xlink:href="#Cambria-96" transform="translate(180.5625 0)"/>
      <use xlink:href="#Cambria-87" transform="translate(213.53125 0)"/>
      <use xlink:href="#Cambria-86" transform="translate(262.3125 0)"/>
      <use xlink:href="#Cambria-3" transform="translate(317.78125 0)"/>
      <use xlink:href="#Cambria-377" transform="translate(339.796875 0)"/>
      <use xlink:href="#Cambria-37a" transform="translate(395.171875 0)"/>
      <use xlink:href="#Cambria-376" transform="translate(450.546875 0)"/>
      <use xlink:href="#Cambria-1e4" transform="translate(505.921875 0)"/>
      <use xlink:href="#Cambria-37a" transform="translate(526.4375 0)"/>
     </g>
    </g>
   </g>
  </g>
 </g>
 <defs>
  <clipPath id="p0783d7100b">
   <rect x="41.82875" y="25.311816" width="205.744675" height="151.154199"/>
  </clipPath>
  <clipPath id="p4f751e72a1">
   <rect x="284.01476" y="25.311816" width="205.744675" height="151.154199"/>
  </clipPath>
 </defs>
</svg>
