<?xml version="1.0" encoding="utf-8" standalone="no"?>
<!DOCTYPE svg PUBLIC "-//W3C//DTD SVG 1.1//EN"
  "http://www.w3.org/Graphics/SVG/1.1/DTD/svg11.dtd">
<svg xmlns:xlink="http://www.w3.org/1999/xlink" width="468.836016pt" height="267.1pt" viewBox="0 0 468.836016 267.1" xmlns="http://www.w3.org/2000/svg" version="1.1">
 <metadata>
  <rdf:RDF xmlns:dc="http://purl.org/dc/elements/1.1/" xmlns:cc="http://creativecommons.org/ns#" xmlns:rdf="http://www.w3.org/1999/02/22-rdf-syntax-ns#">
   <cc:Work>
    <dc:type rdf:resource="http://purl.org/dc/dcmitype/StillImage"/>
    <dc:date>2026-07-23T01:02:39.550266</dc:date>
    <dc:format>image/svg+xml</dc:format>
    <dc:creator>
     <cc:Agent>
      <dc:title>Matplotlib v3.11.1, https://matplotlib.org/</dc:title>
     </cc:Agent>
    </dc:creator>
   </cc:Work>
  </rdf:RDF>
 </metadata>
 <defs>
  <style type="text/css">*{stroke-linejoin: round; stroke-linecap: butt}</style>
 </defs>
 <g id="figure_1">
  <g id="patch_1">
   <path d="M 0 267.1 
L 468.836016 267.1 
L 468.836016 0 
L 0 0 
z
" style="fill: #fcfcfb"/>
  </g>
  <g id="axes_1">
   <g id="patch_2">
    <path d="M 41.12 222.44 
L 461.636016 222.44 
L 461.636016 26.64 
L 41.12 26.64 
z
" style="fill: #fcfcfb"/>
   </g>
   <g id="matplotlib.axis_1">
    <g id="xtick_1">
     <g id="line2d_1">
      <path d="M 60.234364 222.44 
L 60.234364 26.64 
" clip-path="url(#p7e1320cff6)" style="fill: none; stroke: #e1e0d9; stroke-width: 0.7; stroke-linecap: square"/>
     </g>
     <g id="line2d_2">
      <defs>
       <path id="m2d795f7a62" d="M 0 0 
L 0 3.5 
" style="stroke: #898781; stroke-width: 0.8"/>
      </defs>
      <g>
       <use xlink:href="#m2d795f7a62" x="60.234364" y="222.44" style="fill: #898781; stroke: #898781; stroke-width: 0.8"/>
      </g>
     </g>
     <g id="text_1">
      <!-- 1 -->
      <g style="fill: #52514e" transform="translate(57.327177 237.607236) scale(0.105 -0.105)">
       <defs>
        <path id="Cambria-373" d="M 2172 816 
Q 2172 634 2192 542 
Q 2213 450 2264 392 
Q 2316 334 2412 301 
Q 2509 269 2656 251 
Q 2803 234 3044 228 
L 3044 0 
L 734 0 
L 734 228 
Q 1081 244 1229 270 
Q 1378 297 1456 350 
Q 1534 403 1570 500 
Q 1606 597 1606 816 
L 1606 3350 
Q 1606 3475 1562 3533 
Q 1519 3591 1434 3591 
Q 1334 3591 1150 3487 
Q 966 3384 694 3203 
L 556 3444 
L 2019 4316 
L 2191 4316 
Q 2172 4016 2172 3484 
L 2172 816 
z
" transform="scale(0.015625)"/>
       </defs>
       <use xlink:href="#Cambria-373"/>
      </g>
     </g>
    </g>
    <g id="xtick_2">
     <g id="line2d_3">
      <path d="M 114.846834 222.44 
L 114.846834 26.64 
" clip-path="url(#p7e1320cff6)" style="fill: none; stroke: #e1e0d9; stroke-width: 0.7; stroke-linecap: square"/>
     </g>
     <g id="line2d_4">
      <g>
       <use xlink:href="#m2d795f7a62" x="114.846834" y="222.44" style="fill: #898781; stroke: #898781; stroke-width: 0.8"/>
      </g>
     </g>
     <g id="text_2">
      <!-- 2 -->
      <g style="fill: #52514e" transform="translate(111.939646 237.607236) scale(0.105 -0.105)">
       <defs>
        <path id="Cambria-374" d="M 2194 500 
Q 2347 500 2440 519 
Q 2534 538 2590 581 
Q 2647 625 2680 695 
Q 2713 766 2763 913 
L 3028 913 
L 2975 0 
L 403 0 
L 403 150 
Q 538 478 766 822 
Q 994 1166 1413 1631 
Q 1775 2031 1934 2238 
Q 2109 2463 2195 2627 
Q 2281 2791 2318 2936 
Q 2356 3081 2356 3228 
Q 2356 3463 2281 3642 
Q 2206 3822 2051 3925 
Q 1897 4028 1663 4028 
Q 1078 4028 875 3378 
L 497 3378 
L 497 3978 
Q 875 4156 1204 4236 
Q 1534 4316 1797 4316 
Q 2378 4316 2675 4061 
Q 2972 3806 2972 3322 
Q 2972 3156 2939 3017 
Q 2906 2878 2836 2742 
Q 2766 2606 2647 2450 
Q 2528 2294 2384 2133 
Q 2241 1972 1888 1597 
Q 1294 969 1016 500 
L 2194 500 
z
" transform="scale(0.015625)"/>
       </defs>
       <use xlink:href="#Cambria-374"/>
      </g>
     </g>
    </g>
    <g id="xtick_3">
     <g id="line2d_5">
      <path d="M 169.459303 222.44 
L 169.459303 26.64 
" clip-path="url(#p7e1320cff6)" style="fill: none; stroke: #e1e0d9; stroke-width: 0.7; stroke-linecap: square"/>
     </g>
     <g id="line2d_6">
      <g>
       <use xlink:href="#m2d795f7a62" x="169.459303" y="222.44" style="fill: #898781; stroke: #898781; stroke-width: 0.8"/>
      </g>
     </g>
     <g id="text_3">
      <!-- 3 -->
      <g style="fill: #52514e" transform="translate(166.552116 237.607236) scale(0.105 -0.105)">
       <defs>
        <path id="Cambria-375" d="M 497 3381 
L 497 3975 
Q 859 4147 1175 4231 
Q 1491 4316 1784 4316 
Q 2138 4316 2403 4206 
Q 2669 4097 2809 3892 
Q 2950 3688 2950 3403 
Q 2950 3138 2844 2936 
Q 2738 2734 2545 2584 
Q 2353 2434 2047 2291 
L 2047 2263 
Q 2238 2228 2414 2145 
Q 2591 2063 2728 1931 
Q 2866 1800 2948 1617 
Q 3031 1434 3031 1200 
Q 3031 838 2873 556 
Q 2716 275 2391 112 
Q 2066 -50 1600 -50 
Q 1331 -50 1020 11 
Q 709 72 450 172 
L 450 834 
L 825 834 
Q 934 509 1114 362 
Q 1294 216 1603 216 
Q 2009 216 2217 437 
Q 2425 659 2425 1094 
Q 2425 1550 2150 1790 
Q 1875 2031 1344 2031 
L 1063 2031 
L 1063 2306 
Q 1484 2331 1773 2468 
Q 2063 2606 2203 2822 
Q 2344 3038 2344 3306 
Q 2344 3653 2159 3840 
Q 1975 4028 1622 4028 
Q 1328 4028 1143 3868 
Q 959 3709 872 3381 
L 497 3381 
z
" transform="scale(0.015625)"/>
       </defs>
       <use xlink:href="#Cambria-375"/>
      </g>
     </g>
    </g>
    <g id="xtick_4">
     <g id="line2d_7">
      <path d="M 224.071773 222.44 
L 224.071773 26.64 
" clip-path="url(#p7e1320cff6)" style="fill: none; stroke: #e1e0d9; stroke-width: 0.7; stroke-linecap: square"/>
     </g>
     <g id="line2d_8">
      <g>
       <use xlink:href="#m2d795f7a62" x="224.071773" y="222.44" style="fill: #898781; stroke: #898781; stroke-width: 0.8"/>
      </g>
     </g>
     <g id="text_4">
      <!-- 4 -->
      <g style="fill: #52514e" transform="translate(221.164586 237.607236) scale(0.105 -0.105)">
       <defs>
        <path id="Cambria-376" d="M 1613 153 
Q 1806 203 1872 264 
Q 1938 325 1958 437 
Q 1978 550 1978 781 
L 1978 1294 
L 241 1294 
L 241 1528 
L 2069 4288 
L 2516 4288 
L 2516 1597 
L 2581 1597 
Q 2763 1597 2841 1623 
Q 2919 1650 2970 1717 
Q 3022 1784 3066 1938 
L 3303 1938 
L 3266 1294 
L 2516 1294 
L 2516 781 
Q 2516 572 2530 475 
Q 2544 378 2576 322 
Q 2609 266 2673 228 
Q 2738 191 2881 153 
L 2881 0 
L 1613 0 
L 1613 153 
z
M 756 1597 
L 1978 1597 
L 1978 2375 
Q 1978 2669 1987 3033 
Q 1997 3397 2009 3581 
L 1978 3581 
L 756 1641 
L 756 1597 
z
" transform="scale(0.015625)"/>
       </defs>
       <use xlink:href="#Cambria-376"/>
      </g>
     </g>
    </g>
    <g id="xtick_5">
     <g id="line2d_9">
      <path d="M 278.684243 222.44 
L 278.684243 26.64 
" clip-path="url(#p7e1320cff6)" style="fill: none; stroke: #e1e0d9; stroke-width: 0.7; stroke-linecap: square"/>
     </g>
     <g id="line2d_10">
      <g>
       <use xlink:href="#m2d795f7a62" x="278.684243" y="222.44" style="fill: #898781; stroke: #898781; stroke-width: 0.8"/>
      </g>
     </g>
     <g id="text_5">
      <!-- 5 -->
      <g style="fill: #52514e" transform="translate(275.777055 237.607236) scale(0.105 -0.105)">
       <defs>
        <path id="Cambria-377" d="M 469 172 
L 469 834 
L 847 834 
Q 941 516 1130 366 
Q 1319 216 1619 216 
Q 2034 216 2246 466 
Q 2459 716 2459 1213 
Q 2459 1544 2346 1761 
Q 2234 1978 2043 2075 
Q 1853 2172 1600 2172 
Q 1388 2172 1234 2145 
Q 1081 2119 906 2063 
L 656 2209 
L 656 4266 
L 2378 4266 
Q 2484 4266 2531 4283 
Q 2578 4300 2606 4336 
Q 2634 4372 2672 4472 
L 2916 4472 
L 2869 3747 
L 1072 3747 
L 1072 2375 
Q 1234 2444 1425 2478 
Q 1616 2513 1806 2513 
Q 2178 2513 2465 2361 
Q 2753 2209 2909 1929 
Q 3066 1650 3066 1281 
Q 3066 863 2891 563 
Q 2716 263 2384 106 
Q 2053 -50 1600 -50 
Q 1059 -50 469 172 
z
" transform="scale(0.015625)"/>
       </defs>
       <use xlink:href="#Cambria-377"/>
      </g>
     </g>
    </g>
    <g id="xtick_6">
     <g id="line2d_11">
      <path d="M 333.296712 222.44 
L 333.296712 26.64 
" clip-path="url(#p7e1320cff6)" style="fill: none; stroke: #e1e0d9; stroke-width: 0.7; stroke-linecap: square"/>
     </g>
     <g id="line2d_12">
      <g>
       <use xlink:href="#m2d795f7a62" x="333.296712" y="222.44" style="fill: #898781; stroke: #898781; stroke-width: 0.8"/>
      </g>
     </g>
     <g id="text_6">
      <!-- 6 -->
      <g style="fill: #52514e" transform="translate(330.389525 237.607236) scale(0.105 -0.105)">
       <defs>
        <path id="Cambria-378" d="M 2847 4144 
L 2847 3991 
Q 2366 3991 1994 3784 
Q 1622 3578 1376 3178 
Q 1131 2778 1031 2228 
L 1063 2216 
Q 1325 2403 1579 2490 
Q 1834 2578 2131 2578 
Q 2484 2578 2732 2423 
Q 2981 2269 3106 1989 
Q 3231 1709 3231 1334 
Q 3231 928 3075 617 
Q 2919 306 2592 128 
Q 2266 -50 1788 -50 
Q 1103 -50 754 375 
Q 406 800 406 1628 
Q 406 2184 581 2668 
Q 756 3153 1078 3514 
Q 1400 3875 1825 4083 
Q 2250 4291 2719 4316 
L 2847 4144 
z
M 1916 2250 
Q 1763 2250 1620 2215 
Q 1478 2181 1353 2115 
Q 1228 2050 1109 1950 
Q 1072 1916 1053 1878 
Q 1022 1819 1012 1731 
Q 1003 1644 1003 1438 
Q 1003 841 1203 528 
Q 1403 216 1809 216 
Q 2044 216 2203 297 
Q 2363 378 2461 520 
Q 2559 663 2601 855 
Q 2644 1047 2644 1272 
Q 2644 1734 2453 1992 
Q 2263 2250 1916 2250 
z
" transform="scale(0.015625)"/>
       </defs>
       <use xlink:href="#Cambria-378"/>
      </g>
     </g>
    </g>
    <g id="xtick_7">
     <g id="line2d_13">
      <path d="M 387.909182 222.44 
L 387.909182 26.64 
" clip-path="url(#p7e1320cff6)" style="fill: none; stroke: #e1e0d9; stroke-width: 0.7; stroke-linecap: square"/>
     </g>
     <g id="line2d_14">
      <g>
       <use xlink:href="#m2d795f7a62" x="387.909182" y="222.44" style="fill: #898781; stroke: #898781; stroke-width: 0.8"/>
      </g>
     </g>
     <g id="text_7">
      <!-- 7 -->
      <g style="fill: #52514e" transform="translate(385.001994 237.607236) scale(0.105 -0.105)">
       <defs>
        <path id="Cambria-379" d="M 3206 4116 
L 1388 -22 
L 934 -22 
L 934 131 
L 2619 3697 
L 2619 3744 
L 1244 3744 
Q 1116 3744 1039 3720 
Q 963 3697 911 3653 
Q 859 3609 825 3537 
Q 791 3466 731 3253 
L 463 3253 
L 525 4266 
L 3206 4266 
L 3206 4116 
z
" transform="scale(0.015625)"/>
       </defs>
       <use xlink:href="#Cambria-379"/>
      </g>
     </g>
    </g>
    <g id="xtick_8">
     <g id="line2d_15">
      <path d="M 442.521651 222.44 
L 442.521651 26.64 
" clip-path="url(#p7e1320cff6)" style="fill: none; stroke: #e1e0d9; stroke-width: 0.7; stroke-linecap: square"/>
     </g>
     <g id="line2d_16">
      <g>
       <use xlink:href="#m2d795f7a62" x="442.521651" y="222.44" style="fill: #898781; stroke: #898781; stroke-width: 0.8"/>
      </g>
     </g>
     <g id="text_8">
      <!-- 8 -->
      <g style="fill: #52514e" transform="translate(439.614464 237.607236) scale(0.105 -0.105)">
       <defs>
        <path id="Cambria-37a" d="M 2475 2253 
L 2481 2213 
Q 2834 2075 3015 1811 
Q 3197 1547 3197 1175 
Q 3197 809 3022 531 
Q 2847 253 2514 101 
Q 2181 -50 1738 -50 
Q 1322 -50 1008 89 
Q 694 228 520 495 
Q 347 763 347 1125 
Q 347 1397 440 1597 
Q 534 1797 686 1926 
Q 838 2056 1069 2163 
L 1063 2203 
Q 391 2494 391 3200 
Q 391 3522 567 3775 
Q 744 4028 1070 4172 
Q 1397 4316 1794 4316 
Q 2244 4316 2550 4189 
Q 2856 4063 3011 3823 
Q 3166 3584 3166 3250 
Q 3166 2906 2997 2657 
Q 2828 2409 2475 2253 
z
M 978 3228 
Q 978 3044 1022 2881 
Q 1066 2719 1162 2600 
Q 1259 2481 1414 2411 
Q 1569 2341 1794 2341 
Q 2053 2341 2229 2442 
Q 2406 2544 2492 2739 
Q 2578 2934 2578 3191 
Q 2578 3472 2476 3667 
Q 2375 3863 2197 3956 
Q 2019 4050 1788 4050 
Q 1394 4050 1186 3836 
Q 978 3622 978 3228 
z
M 944 1178 
Q 944 975 991 798 
Q 1038 622 1139 494 
Q 1241 366 1400 291 
Q 1559 216 1788 216 
Q 2044 216 2226 320 
Q 2409 425 2504 631 
Q 2600 838 2600 1119 
Q 2600 1419 2497 1636 
Q 2394 1853 2206 1967 
Q 2019 2081 1772 2081 
Q 1541 2081 1383 2009 
Q 1225 1938 1126 1816 
Q 1028 1694 986 1530 
Q 944 1366 944 1178 
z
" transform="scale(0.015625)"/>
       </defs>
       <use xlink:href="#Cambria-37a"/>
      </g>
     </g>
    </g>
    <g id="text_9">
     <!-- magic number $m = \dim_{\mathbb{F}_2}\,\mathrm{span}\{(1,\sigma^i\sqrt{b})\}$ -->
     <g style="fill: #0b0b0b" transform="translate(140.138008 256.78) scale(0.12 -0.12)">
      <defs>
       <path id="Cambria-8f" d="M 1147 2506 
L 1191 2494 
Q 1378 2681 1498 2776 
Q 1619 2872 1731 2930 
Q 1844 2988 1942 3013 
Q 2041 3038 2144 3038 
Q 2456 3038 2653 2894 
Q 2850 2750 2925 2453 
Q 3159 2691 3304 2803 
Q 3450 2916 3601 2977 
Q 3753 3038 3928 3038 
Q 4138 3038 4289 2977 
Q 4441 2916 4545 2789 
Q 4650 2663 4698 2472 
Q 4747 2281 4747 1959 
L 4747 781 
Q 4747 544 4762 453 
Q 4778 363 4808 313 
Q 4838 263 4897 227 
Q 4956 191 5097 153 
L 5097 0 
L 3869 0 
L 3869 153 
Q 3991 191 4044 219 
Q 4097 247 4133 297 
Q 4169 347 4189 451 
Q 4209 556 4209 769 
L 4209 1588 
Q 4209 1853 4195 2026 
Q 4181 2200 4151 2303 
Q 4122 2406 4080 2465 
Q 4038 2525 3984 2569 
Q 3931 2613 3859 2638 
Q 3788 2663 3669 2663 
Q 3544 2663 3436 2613 
Q 3328 2563 3201 2444 
Q 3075 2325 3019 2204 
Q 2963 2084 2963 1922 
L 2963 781 
Q 2963 544 2978 453 
Q 2994 363 3023 313 
Q 3053 263 3112 227 
Q 3172 191 3313 153 
L 3313 0 
L 2084 0 
L 2084 153 
Q 2206 191 2259 219 
Q 2313 247 2348 297 
Q 2384 347 2404 451 
Q 2425 556 2425 769 
L 2425 1588 
Q 2425 1866 2409 2041 
Q 2394 2216 2361 2322 
Q 2328 2428 2276 2493 
Q 2225 2559 2172 2593 
Q 2119 2628 2047 2645 
Q 1975 2663 1884 2663 
Q 1756 2663 1643 2605 
Q 1531 2547 1414 2437 
Q 1297 2328 1237 2209 
Q 1178 2091 1178 1953 
L 1178 781 
Q 1178 603 1187 509 
Q 1197 416 1217 362 
Q 1238 309 1269 276 
Q 1300 244 1358 214 
Q 1416 184 1531 153 
L 1531 0 
L 306 0 
L 306 153 
Q 425 191 476 219 
Q 528 247 565 297 
Q 603 347 622 450 
Q 641 553 641 772 
L 641 2134 
Q 641 2334 634 2456 
Q 628 2578 590 2651 
Q 553 2725 476 2761 
Q 400 2797 259 2822 
L 259 2988 
L 991 3016 
L 1181 3016 
L 1147 2506 
z
" transform="scale(0.015625)"/>
       <path id="Cambria-83" d="M 2109 447 
L 2063 459 
Q 1791 181 1552 65 
Q 1313 -50 1044 -50 
Q 806 -50 625 42 
Q 444 134 347 301 
Q 250 469 250 688 
Q 250 1144 701 1392 
Q 1153 1641 2056 1681 
L 2056 1884 
Q 2056 2209 1993 2396 
Q 1931 2584 1797 2671 
Q 1663 2759 1438 2759 
Q 1194 2759 1045 2631 
Q 897 2503 822 2247 
L 413 2247 
L 413 2653 
Q 713 2809 913 2882 
Q 1113 2956 1313 2998 
Q 1513 3041 1719 3041 
Q 2028 3041 2215 2942 
Q 2403 2844 2497 2641 
Q 2591 2438 2591 2028 
L 2591 941 
Q 2591 709 2594 614 
Q 2597 519 2612 437 
Q 2628 356 2659 307 
Q 2691 259 2752 225 
Q 2813 191 2950 153 
L 2950 0 
L 2094 0 
L 2109 447 
z
M 2056 1425 
Q 1422 1419 1106 1256 
Q 791 1094 791 766 
Q 791 588 862 484 
Q 934 381 1043 342 
Q 1153 303 1303 303 
Q 1516 303 1689 406 
Q 1863 509 1959 668 
Q 2056 828 2056 984 
L 2056 1425 
z
" transform="scale(0.015625)"/>
       <path id="Cambria-89" d="M 3106 2672 
L 2528 2694 
L 2500 2659 
Q 2597 2563 2653 2395 
Q 2709 2228 2709 2034 
Q 2709 1525 2395 1248 
Q 2081 972 1503 972 
Q 1244 972 1056 1038 
Q 819 856 819 681 
Q 819 566 864 506 
Q 909 447 1014 422 
Q 1119 397 1331 397 
L 2081 397 
Q 2413 397 2622 294 
Q 2831 191 2920 17 
Q 3009 -156 3009 -388 
Q 3009 -681 2840 -911 
Q 2672 -1141 2353 -1269 
Q 2034 -1397 1609 -1397 
Q 1294 -1397 1033 -1359 
Q 772 -1322 586 -1233 
Q 400 -1144 298 -998 
Q 197 -853 197 -634 
Q 197 -438 328 -277 
Q 459 -116 700 6 
Q 553 66 468 181 
Q 384 297 384 453 
Q 384 631 484 779 
Q 584 928 838 1119 
Q 613 1250 495 1475 
Q 378 1700 378 1988 
Q 378 2256 467 2454 
Q 556 2653 714 2783 
Q 872 2913 1087 2977 
Q 1303 3041 1553 3041 
Q 1778 3041 2000 2988 
L 3106 2988 
L 3106 2672 
z
M 938 2038 
Q 938 1647 1097 1434 
Q 1256 1222 1556 1222 
Q 1716 1222 1828 1283 
Q 1941 1344 2011 1450 
Q 2081 1556 2114 1695 
Q 2147 1834 2147 1988 
Q 2147 2263 2069 2447 
Q 1991 2631 1856 2717 
Q 1722 2803 1547 2803 
Q 1250 2803 1094 2606 
Q 938 2409 938 2038 
z
M 1016 -50 
Q 856 -169 776 -301 
Q 697 -434 697 -603 
Q 697 -884 920 -1017 
Q 1144 -1150 1603 -1150 
Q 1884 -1150 2086 -1075 
Q 2288 -1000 2394 -859 
Q 2500 -719 2500 -531 
Q 2500 -444 2478 -361 
Q 2456 -278 2395 -212 
Q 2334 -147 2221 -108 
Q 2109 -69 1928 -69 
L 1463 -69 
Q 1209 -69 1016 -50 
z
" transform="scale(0.015625)"/>
       <path id="Cambria-8b" d="M 1197 4213 
L 1197 3606 
L 622 3606 
L 622 4213 
L 1197 4213 
z
M 303 153 
Q 425 191 476 219 
Q 528 247 564 297 
Q 600 347 620 450 
Q 641 553 641 772 
L 641 2134 
Q 641 2334 634 2456 
Q 628 2578 590 2651 
Q 553 2725 476 2761 
Q 400 2797 259 2822 
L 259 2988 
L 988 3016 
L 1178 3016 
L 1178 781 
Q 1178 513 1203 408 
Q 1228 303 1298 248 
Q 1369 194 1528 153 
L 1528 0 
L 303 0 
L 303 153 
z
" transform="scale(0.015625)"/>
       <path id="Cambria-85" d="M 2631 2916 
L 2631 2263 
L 2234 2263 
Q 2181 2466 2103 2583 
Q 2025 2700 1922 2747 
Q 1819 2794 1666 2794 
Q 1447 2794 1278 2653 
Q 1109 2513 1011 2225 
Q 913 1938 913 1522 
Q 913 1256 950 1036 
Q 988 816 1078 659 
Q 1169 503 1319 415 
Q 1469 328 1691 328 
Q 1906 328 2092 412 
Q 2278 497 2478 709 
L 2656 503 
Q 2497 328 2375 233 
Q 2253 138 2114 73 
Q 1975 9 1839 -20 
Q 1703 -50 1544 -50 
Q 953 -50 640 342 
Q 328 734 328 1475 
Q 328 1938 503 2295 
Q 678 2653 993 2847 
Q 1309 3041 1722 3041 
Q 1978 3041 2195 3011 
Q 2413 2981 2631 2916 
z
" transform="scale(0.015625)"/>
       <path id="Cambria-3" transform="scale(0.015625)"/>
       <path id="Cambria-90" d="M 3347 0 
L 2116 0 
L 2116 153 
Q 2238 191 2291 219 
Q 2344 247 2380 297 
Q 2416 347 2436 451 
Q 2456 556 2456 769 
L 2456 1588 
Q 2456 1806 2443 1984 
Q 2431 2163 2401 2277 
Q 2372 2391 2330 2455 
Q 2288 2519 2230 2564 
Q 2172 2609 2097 2636 
Q 2022 2663 1900 2663 
Q 1778 2663 1668 2614 
Q 1559 2566 1428 2447 
Q 1297 2328 1237 2212 
Q 1178 2097 1178 1947 
L 1178 781 
Q 1178 513 1203 408 
Q 1228 303 1298 248 
Q 1369 194 1528 153 
L 1528 0 
L 303 0 
L 303 153 
Q 425 191 476 219 
Q 528 247 564 297 
Q 600 347 620 450 
Q 641 553 641 772 
L 641 2134 
Q 641 2334 634 2456 
Q 628 2578 590 2651 
Q 553 2725 476 2761 
Q 400 2797 259 2822 
L 259 2988 
L 991 3016 
L 1181 3016 
L 1147 2506 
L 1191 2494 
Q 1422 2728 1564 2828 
Q 1706 2928 1851 2983 
Q 1997 3038 2159 3038 
Q 2328 3038 2461 2998 
Q 2594 2959 2695 2878 
Q 2797 2797 2862 2676 
Q 2928 2556 2961 2387 
Q 2994 2219 2994 1959 
L 2994 781 
Q 2994 566 3006 469 
Q 3019 372 3050 319 
Q 3081 266 3140 230 
Q 3200 194 3347 153 
L 3347 0 
z
" transform="scale(0.015625)"/>
       <path id="Cambria-97" d="M 228 2988 
L 1119 2988 
L 1119 1397 
Q 1119 1031 1147 840 
Q 1175 650 1231 553 
Q 1288 456 1391 390 
Q 1494 325 1675 325 
Q 1794 325 1903 372 
Q 2013 419 2147 536 
Q 2281 653 2339 768 
Q 2397 884 2397 1038 
L 2397 2209 
Q 2397 2388 2387 2478 
Q 2378 2569 2356 2623 
Q 2334 2678 2304 2712 
Q 2275 2747 2220 2775 
Q 2166 2803 2044 2834 
L 2044 2988 
L 2934 2988 
L 2934 853 
Q 2934 613 2943 506 
Q 2953 400 2984 337 
Q 3016 275 3081 236 
Q 3147 197 3316 163 
L 3316 0 
L 2600 -31 
L 2409 -31 
L 2428 481 
L 2381 494 
Q 2122 213 1886 81 
Q 1650 -50 1413 -50 
Q 1128 -50 943 62 
Q 759 175 668 398 
Q 578 622 578 1028 
L 578 2209 
Q 578 2472 558 2570 
Q 538 2669 480 2726 
Q 422 2784 228 2834 
L 228 2988 
z
" transform="scale(0.015625)"/>
       <path id="Cambria-84" d="M 1091 2497 
L 1103 2494 
Q 1322 2722 1467 2825 
Q 1613 2928 1767 2983 
Q 1922 3038 2106 3038 
Q 2441 3038 2680 2867 
Q 2919 2697 3048 2356 
Q 3178 2016 3178 1522 
Q 3178 1013 3023 661 
Q 2869 309 2567 129 
Q 2266 -50 1853 -50 
Q 1622 -50 1417 -8 
Q 1213 34 988 141 
L 769 -50 
L 553 0 
L 553 3397 
Q 553 3697 548 3815 
Q 544 3934 523 4017 
Q 503 4100 467 4147 
Q 431 4194 370 4222 
Q 309 4250 150 4278 
L 150 4441 
L 906 4472 
L 1091 4472 
L 1091 2497 
z
M 1091 1125 
Q 1091 884 1112 742 
Q 1134 600 1186 506 
Q 1238 413 1336 334 
Q 1434 256 1556 226 
Q 1678 197 1828 197 
Q 2203 197 2397 503 
Q 2591 809 2591 1422 
Q 2591 2041 2414 2352 
Q 2238 2663 1881 2663 
Q 1703 2663 1578 2608 
Q 1453 2553 1329 2437 
Q 1206 2322 1148 2209 
Q 1091 2097 1091 1953 
L 1091 1125 
z
" transform="scale(0.015625)"/>
       <path id="Cambria-87" d="M 2800 531 
Q 2600 322 2433 203 
Q 2266 84 2066 17 
Q 1866 -50 1625 -50 
Q 981 -50 653 336 
Q 325 722 325 1475 
Q 325 1941 492 2297 
Q 659 2653 968 2847 
Q 1278 3041 1681 3041 
Q 1997 3041 2219 2941 
Q 2441 2841 2573 2667 
Q 2706 2494 2779 2230 
Q 2853 1966 2863 1541 
L 894 1541 
L 894 1484 
Q 894 1116 976 864 
Q 1059 613 1248 470 
Q 1438 328 1741 328 
Q 1997 328 2201 423 
Q 2406 519 2609 734 
L 2800 531 
z
M 2275 1800 
Q 2256 2138 2190 2352 
Q 2125 2566 1994 2680 
Q 1863 2794 1650 2794 
Q 1328 2794 1136 2536 
Q 944 2278 909 1800 
L 2275 1800 
z
" transform="scale(0.015625)"/>
       <path id="Cambria-94" d="M 1147 2469 
L 1191 2459 
Q 1363 2669 1509 2789 
Q 1656 2909 1826 2975 
Q 1997 3041 2213 3041 
Q 2394 3041 2541 3022 
L 2541 2303 
L 2188 2303 
Q 2113 2472 2028 2548 
Q 1944 2625 1797 2625 
Q 1684 2625 1573 2559 
Q 1463 2494 1359 2369 
Q 1256 2244 1217 2134 
Q 1178 2025 1178 1875 
L 1178 781 
Q 1178 497 1212 389 
Q 1247 281 1326 231 
Q 1406 181 1566 153 
L 1566 0 
L 306 0 
L 306 153 
Q 425 191 476 219 
Q 528 247 565 297 
Q 603 347 622 450 
Q 641 553 641 772 
L 641 2134 
Q 641 2334 634 2456 
Q 628 2578 590 2651 
Q 553 2725 476 2761 
Q 400 2797 259 2822 
L 259 2984 
L 991 3016 
L 1181 3016 
L 1147 2469 
z
" transform="scale(0.015625)"/>
       <path id="Cmmi10-45" d="M 494 109 
Q 494 147 500 166 
L 978 2075 
Q 1025 2253 1025 2388 
Q 1025 2663 838 2663 
Q 638 2663 541 2423 
Q 444 2184 353 1819 
Q 353 1800 334 1789 
Q 316 1778 300 1778 
L 225 1778 
Q 203 1778 187 1801 
Q 172 1825 172 1844 
Q 241 2122 305 2315 
Q 369 2509 505 2668 
Q 641 2828 844 2828 
Q 1084 2828 1268 2676 
Q 1453 2525 1453 2291 
Q 1644 2541 1900 2684 
Q 2156 2828 2444 2828 
Q 2747 2828 2967 2673 
Q 3188 2519 3188 2234 
Q 3384 2513 3648 2670 
Q 3913 2828 4225 2828 
Q 4556 2828 4757 2648 
Q 4959 2469 4959 2138 
Q 4959 1875 4842 1503 
Q 4725 1131 4550 672 
Q 4459 450 4459 288 
Q 4459 97 4609 97 
Q 4859 97 5025 365 
Q 5191 634 5259 941 
Q 5278 978 5313 978 
L 5388 978 
Q 5413 978 5430 961 
Q 5447 944 5447 922 
Q 5447 916 5441 903 
Q 5353 541 5136 234 
Q 4919 -72 4594 -72 
Q 4369 -72 4209 83 
Q 4050 238 4050 459 
Q 4050 572 4103 709 
Q 4284 1191 4404 1569 
Q 4525 1947 4525 2234 
Q 4525 2413 4453 2538 
Q 4381 2663 4213 2663 
Q 3863 2663 3606 2448 
Q 3350 2234 3163 1881 
Q 3150 1819 3144 1784 
L 2731 141 
Q 2709 53 2632 -9 
Q 2556 -72 2463 -72 
Q 2388 -72 2330 -22 
Q 2272 28 2272 109 
Q 2272 147 2278 166 
L 2688 1797 
Q 2753 2059 2753 2234 
Q 2753 2413 2679 2538 
Q 2606 2663 2431 2663 
Q 2197 2663 2000 2559 
Q 1803 2456 1656 2286 
Q 1509 2116 1388 1881 
L 953 141 
Q 931 53 854 -9 
Q 778 -72 684 -72 
Q 606 -72 550 -22 
Q 494 28 494 109 
z
" transform="scale(0.015625)"/>
       <path id="Cmr10-29" d="M 481 850 
Q 428 850 393 890 
Q 359 931 359 978 
Q 359 1031 393 1068 
Q 428 1106 481 1106 
L 4500 1106 
Q 4547 1106 4581 1068 
Q 4616 1031 4616 978 
Q 4616 931 4581 890 
Q 4547 850 4500 850 
L 481 850 
z
M 481 2094 
Q 428 2094 393 2131 
Q 359 2169 359 2222 
Q 359 2269 393 2309 
Q 428 2350 481 2350 
L 4500 2350 
Q 4547 2350 4581 2309 
Q 4616 2269 4616 2222 
Q 4616 2169 4581 2131 
Q 4547 2094 4500 2094 
L 481 2094 
z
" transform="scale(0.015625)"/>
       <path id="Cmr10-49" d="M 1563 -72 
Q 1184 -72 871 133 
Q 559 338 386 672 
Q 213 1006 213 1381 
Q 213 1769 402 2101 
Q 591 2434 916 2631 
Q 1241 2828 1631 2828 
Q 1866 2828 2075 2729 
Q 2284 2631 2438 2456 
L 2438 3788 
Q 2438 3959 2386 4036 
Q 2334 4113 2239 4130 
Q 2144 4147 1941 4147 
L 1941 4372 
L 2888 4441 
L 2888 581 
Q 2888 413 2939 336 
Q 2991 259 3086 242 
Q 3181 225 3384 225 
L 3384 0 
L 2419 -72 
L 2419 331 
Q 2253 141 2025 34 
Q 1797 -72 1563 -72 
z
M 909 556 
Q 1019 347 1201 222 
Q 1384 97 1600 97 
Q 1866 97 2087 250 
Q 2309 403 2419 647 
L 2419 2181 
Q 2344 2322 2230 2433 
Q 2116 2544 1973 2603 
Q 1831 2663 1672 2663 
Q 1338 2663 1134 2473 
Q 931 2284 850 1990 
Q 769 1697 769 1375 
Q 769 1119 795 928 
Q 822 738 909 556 
z
" transform="scale(0.015625)"/>
       <path id="Cmr10-24" d="M 197 0 
L 197 225 
Q 416 225 556 259 
Q 697 294 697 428 
L 697 2175 
Q 697 2422 601 2478 
Q 506 2534 225 2534 
L 225 2759 
L 1147 2828 
L 1147 428 
Q 1147 294 1269 259 
Q 1391 225 1594 225 
L 1594 0 
L 197 0 
z
M 469 3928 
Q 469 4069 575 4175 
Q 681 4281 819 4281 
Q 909 4281 993 4234 
Q 1078 4188 1125 4103 
Q 1172 4019 1172 3928 
Q 1172 3791 1065 3684 
Q 959 3578 819 3578 
Q 681 3578 575 3684 
Q 469 3791 469 3928 
z
" transform="scale(0.015625)"/>
       <path id="Cmr10-38" d="M 191 0 
L 191 225 
Q 409 225 550 259 
Q 691 294 691 428 
L 691 2175 
Q 691 2347 639 2423 
Q 588 2500 491 2517 
Q 394 2534 191 2534 
L 191 2759 
L 1119 2828 
L 1119 2203 
Q 1247 2478 1498 2653 
Q 1750 2828 2047 2828 
Q 2784 2828 2913 2228 
Q 3041 2497 3287 2662 
Q 3534 2828 3828 2828 
Q 4119 2828 4317 2734 
Q 4516 2641 4616 2448 
Q 4716 2256 4716 1966 
L 4716 428 
Q 4716 294 4858 259 
Q 5000 225 5216 225 
L 5216 0 
L 3750 0 
L 3750 225 
Q 3969 225 4109 259 
Q 4250 294 4250 428 
L 4250 1947 
Q 4250 2269 4159 2466 
Q 4069 2663 3788 2663 
Q 3419 2663 3178 2366 
Q 2938 2069 2938 1691 
L 2938 428 
Q 2938 294 3078 259 
Q 3219 225 3438 225 
L 3438 0 
L 1972 0 
L 1972 225 
Q 2191 225 2331 259 
Q 2472 294 2472 428 
L 2472 1947 
Q 2472 2259 2381 2461 
Q 2291 2663 2009 2663 
Q 1638 2663 1398 2366 
Q 1159 2069 1159 1691 
L 1159 428 
Q 1159 294 1300 259 
Q 1441 225 1656 225 
L 1656 0 
L 191 0 
z
" transform="scale(0.015625)"/>
       <path id="STIXNonUnicode-Italic-c" d="M 4250 4179 
L 4192 3942 
L 2150 3942 
L 1683 2176 
L 3494 2176 
L 3424 1939 
L 1619 1939 
L 1101 0 
L 115 0 
L 1229 4179 
L 4250 4179 
z
M 1914 3942 
L 1414 3942 
L 416 237 
L 928 237 
L 1914 3942 
z
" transform="scale(0.015625)"/>
       <path id="Cmr10-31" d="M 319 0 
L 319 172 
Q 319 188 331 206 
L 1325 1306 
Q 1550 1550 1690 1715 
Q 1831 1881 1968 2097 
Q 2106 2313 2186 2536 
Q 2266 2759 2266 3009 
Q 2266 3272 2169 3511 
Q 2072 3750 1880 3894 
Q 1688 4038 1416 4038 
Q 1138 4038 916 3870 
Q 694 3703 603 3438 
Q 628 3444 672 3444 
Q 816 3444 917 3347 
Q 1019 3250 1019 3097 
Q 1019 2950 917 2848 
Q 816 2747 672 2747 
Q 522 2747 420 2851 
Q 319 2956 319 3097 
Q 319 3338 409 3548 
Q 500 3759 670 3923 
Q 841 4088 1055 4175 
Q 1269 4263 1509 4263 
Q 1875 4263 2190 4108 
Q 2506 3953 2690 3670 
Q 2875 3388 2875 3009 
Q 2875 2731 2753 2481 
Q 2631 2231 2440 2026 
Q 2250 1822 1953 1562 
Q 1656 1303 1563 1216 
L 838 519 
L 1453 519 
Q 1906 519 2211 526 
Q 2516 534 2534 550 
Q 2609 631 2688 1141 
L 2875 1141 
L 2694 0 
L 319 0 
z
" transform="scale(0.015625)"/>
       <path id="Cmr10-52" d="M 213 -19 
L 213 1025 
Q 213 1075 269 1075 
L 347 1075 
Q 384 1075 397 1025 
Q 575 97 1259 97 
Q 1563 97 1767 234 
Q 1972 372 1972 659 
Q 1972 866 1812 1011 
Q 1653 1156 1434 1209 
L 1006 1294 
Q 791 1341 614 1437 
Q 438 1534 325 1695 
Q 213 1856 213 2069 
Q 213 2350 361 2529 
Q 509 2709 746 2789 
Q 984 2869 1259 2869 
Q 1588 2869 1831 2694 
L 2016 2853 
Q 2016 2869 2047 2869 
L 2094 2869 
Q 2113 2869 2128 2851 
Q 2144 2834 2144 2816 
L 2144 1978 
Q 2144 1919 2094 1919 
L 2016 1919 
Q 1959 1919 1959 1978 
Q 1959 2313 1773 2516 
Q 1588 2719 1253 2719 
Q 966 2719 755 2612 
Q 544 2506 544 2247 
Q 544 2069 695 1955 
Q 847 1841 1050 1791 
L 1484 1709 
Q 1703 1659 1892 1540 
Q 2081 1422 2192 1240 
Q 2303 1059 2303 831 
Q 2303 600 2223 429 
Q 2144 259 2001 146 
Q 1859 34 1665 -19 
Q 1472 -72 1259 -72 
Q 859 -72 575 197 
L 341 -56 
Q 341 -72 306 -72 
L 269 -72 
Q 213 -72 213 -19 
z
" transform="scale(0.015625)"/>
       <path id="Cmr10-7d" d="M 166 -1241 
L 166 -1019 
Q 384 -1019 525 -981 
Q 666 -944 666 -813 
L 666 2272 
Q 666 2447 541 2490 
Q 416 2534 166 2534 
L 166 2759 
L 1113 2828 
L 1113 2431 
Q 1288 2625 1520 2726 
Q 1753 2828 2016 2828 
Q 2394 2828 2697 2623 
Q 3000 2419 3170 2086 
Q 3341 1753 3341 1381 
Q 3341 994 3152 659 
Q 2963 325 2636 126 
Q 2309 -72 1919 -72 
Q 1453 -72 1131 306 
L 1131 -813 
Q 1131 -944 1273 -981 
Q 1416 -1019 1631 -1019 
L 1631 -1241 
L 166 -1241 
z
M 1131 622 
Q 1244 394 1444 245 
Q 1644 97 1881 97 
Q 2103 97 2273 215 
Q 2444 334 2559 534 
Q 2675 734 2729 954 
Q 2784 1175 2784 1381 
Q 2784 1638 2692 1936 
Q 2600 2234 2411 2439 
Q 2222 2644 1953 2644 
Q 1694 2644 1476 2511 
Q 1259 2378 1131 2150 
L 1131 622 
z
" transform="scale(0.015625)"/>
       <path id="Cmr10-73" d="M 256 628 
Q 256 1009 556 1248 
Q 856 1488 1276 1586 
Q 1697 1684 2075 1684 
L 2075 1947 
Q 2075 2131 1994 2304 
Q 1913 2478 1759 2589 
Q 1606 2700 1422 2700 
Q 997 2700 775 2509 
Q 897 2509 976 2417 
Q 1056 2325 1056 2203 
Q 1056 2075 965 1984 
Q 875 1894 750 1894 
Q 622 1894 531 1984 
Q 441 2075 441 2203 
Q 441 2541 747 2705 
Q 1053 2869 1422 2869 
Q 1681 2869 1943 2758 
Q 2206 2647 2373 2440 
Q 2541 2234 2541 1959 
L 2541 519 
Q 2541 394 2594 289 
Q 2647 184 2759 184 
Q 2866 184 2917 290 
Q 2969 397 2969 519 
L 2969 928 
L 3156 928 
L 3156 519 
Q 3156 375 3081 245 
Q 3006 116 2879 39 
Q 2753 -38 2606 -38 
Q 2419 -38 2283 107 
Q 2147 253 2131 453 
Q 2013 213 1781 70 
Q 1550 -72 1288 -72 
Q 1044 -72 808 0 
Q 572 72 414 226 
Q 256 381 256 628 
z
M 775 628 
Q 775 403 940 250 
Q 1106 97 1331 97 
Q 1538 97 1706 200 
Q 1875 303 1975 481 
Q 2075 659 2075 856 
L 2075 1522 
Q 1784 1522 1479 1426 
Q 1175 1331 975 1128 
Q 775 925 775 628 
z
" transform="scale(0.015625)"/>
       <path id="Cmr10-74" d="M 191 0 
L 191 225 
Q 409 225 550 259 
Q 691 294 691 428 
L 691 2175 
Q 691 2347 639 2423 
Q 588 2500 491 2517 
Q 394 2534 191 2534 
L 191 2759 
L 1119 2828 
L 1119 2203 
Q 1247 2478 1498 2653 
Q 1750 2828 2047 2828 
Q 2491 2828 2714 2615 
Q 2938 2403 2938 1966 
L 2938 428 
Q 2938 294 3078 259 
Q 3219 225 3438 225 
L 3438 0 
L 1972 0 
L 1972 225 
Q 2191 225 2331 259 
Q 2472 294 2472 428 
L 2472 1947 
Q 2472 2259 2381 2461 
Q 2291 2663 2009 2663 
Q 1638 2663 1398 2366 
Q 1159 2069 1159 1691 
L 1159 428 
Q 1159 294 1300 259 
Q 1441 225 1656 225 
L 1656 0 
L 191 0 
z
" transform="scale(0.015625)"/>
       <path id="Cmex10-5c" d="M 1631 -6425 
L 1631 -4556 
Q 1631 -4338 1503 -4159 
Q 1375 -3981 1184 -3867 
Q 994 -3753 756 -3675 
Q 709 -3650 709 -3622 
L 709 -3547 
Q 709 -3503 756 -3494 
Q 1128 -3366 1379 -3150 
Q 1631 -2934 1631 -2606 
L 1631 -738 
Q 1631 -325 2004 -95 
Q 2378 134 2888 256 
L 2963 256 
Q 2981 256 2998 242 
Q 3016 228 3016 206 
L 3016 128 
Q 3016 91 2975 78 
Q 2619 -31 2359 -232 
Q 2100 -434 2100 -750 
L 2100 -2619 
Q 2100 -2994 1804 -3214 
Q 1509 -3434 1056 -3584 
Q 1497 -3716 1798 -3939 
Q 2100 -4163 2100 -4544 
L 2100 -6413 
Q 2100 -6628 2231 -6790 
Q 2363 -6953 2556 -7059 
Q 2750 -7166 2975 -7238 
Q 3016 -7250 3016 -7291 
L 3016 -7366 
Q 3016 -7384 2998 -7401 
Q 2981 -7419 2963 -7419 
L 2888 -7419 
Q 2559 -7338 2292 -7227 
Q 2025 -7116 1828 -6914 
Q 1631 -6713 1631 -6425 
z
" transform="scale(0.015625)"/>
       <path id="Cmr10-77" d="M 1984 -1588 
Q 1628 -1306 1370 -942 
Q 1113 -578 948 -165 
Q 784 247 703 697 
Q 622 1147 622 1600 
Q 622 2059 703 2509 
Q 784 2959 951 3375 
Q 1119 3791 1378 4153 
Q 1638 4516 1984 4788 
Q 1984 4800 2016 4800 
L 2075 4800 
Q 2094 4800 2109 4783 
Q 2125 4766 2125 4744 
Q 2125 4716 2113 4703 
Q 1800 4397 1592 4047 
Q 1384 3697 1257 3301 
Q 1131 2906 1075 2482 
Q 1019 2059 1019 1600 
Q 1019 -434 2106 -1491 
Q 2125 -1509 2125 -1544 
Q 2125 -1559 2108 -1579 
Q 2091 -1600 2075 -1600 
L 2016 -1600 
Q 1984 -1600 1984 -1588 
z
" transform="scale(0.015625)"/>
       <path id="Cmr10-64" d="M 594 0 
L 594 225 
Q 1394 225 1394 428 
L 1394 3788 
Q 1063 3628 556 3628 
L 556 3853 
Q 1341 3853 1741 4263 
L 1831 4263 
Q 1853 4263 1873 4245 
Q 1894 4228 1894 4206 
L 1894 428 
Q 1894 225 2694 225 
L 2694 0 
L 594 0 
z
" transform="scale(0.015625)"/>
       <path id="Cmmi10-2c" d="M 634 -1153 
Q 634 -1125 659 -1100 
Q 891 -878 1019 -587 
Q 1147 -297 1147 25 
L 1147 103 
Q 1044 0 891 0 
Q 744 0 641 103 
Q 538 206 538 353 
Q 538 503 641 603 
Q 744 703 891 703 
Q 1119 703 1216 492 
Q 1313 281 1313 25 
Q 1313 -331 1170 -651 
Q 1028 -972 769 -1228 
Q 744 -1241 728 -1241 
Q 697 -1241 665 -1212 
Q 634 -1184 634 -1153 
z
" transform="scale(0.015625)"/>
       <path id="Cmmi10-15" d="M 1197 -72 
Q 913 -72 692 64 
Q 472 200 351 431 
Q 231 663 231 941 
Q 231 1238 365 1566 
Q 500 1894 733 2166 
Q 966 2438 1259 2598 
Q 1553 2759 1863 2759 
L 3475 2759 
Q 3541 2759 3587 2715 
Q 3634 2672 3634 2597 
Q 3634 2503 3567 2433 
Q 3500 2363 3406 2363 
L 2625 2363 
Q 2809 2088 2809 1697 
Q 2809 1375 2684 1062 
Q 2559 750 2337 492 
Q 2116 234 1820 81 
Q 1525 -72 1197 -72 
z
M 1203 97 
Q 1553 97 1823 370 
Q 2094 644 2237 1039 
Q 2381 1434 2381 1772 
Q 2381 2047 2229 2205 
Q 2078 2363 1806 2363 
Q 1434 2363 1173 2113 
Q 913 1863 783 1484 
Q 653 1106 653 756 
Q 653 481 798 289 
Q 944 97 1203 97 
z
" transform="scale(0.015625)"/>
       <path id="Cmmi10-37" d="M 500 459 
Q 500 578 550 709 
L 1069 2088 
Q 1153 2322 1153 2472 
Q 1153 2663 1013 2663 
Q 759 2663 595 2402 
Q 431 2141 353 1819 
Q 341 1778 300 1778 
L 225 1778 
Q 172 1778 172 1838 
L 172 1856 
Q 275 2238 487 2533 
Q 700 2828 1025 2828 
Q 1253 2828 1411 2678 
Q 1569 2528 1569 2297 
Q 1569 2178 1516 2047 
L 997 672 
Q 909 459 909 288 
Q 909 97 1056 97 
Q 1306 97 1473 364 
Q 1641 631 1709 941 
Q 1722 978 1759 978 
L 1838 978 
Q 1863 978 1878 961 
Q 1894 944 1894 922 
Q 1894 916 1888 903 
Q 1800 541 1583 234 
Q 1366 -72 1044 -72 
Q 819 -72 659 83 
Q 500 238 500 459 
z
M 1222 3878 
Q 1222 4013 1334 4122 
Q 1447 4231 1581 4231 
Q 1691 4231 1761 4164 
Q 1831 4097 1831 3994 
Q 1831 3850 1717 3742 
Q 1603 3634 1466 3634 
Q 1363 3634 1292 3704 
Q 1222 3775 1222 3878 
z
" transform="scale(0.015625)"/>
       <path id="Cmex10-30" d="M 2713 -7425 
L 1269 -4063 
L 819 -4409 
L 703 -4294 
L 1619 -3584 
L 2969 -6725 
L 6291 197 
Q 6322 256 6400 256 
Q 6453 256 6490 218 
Q 6528 181 6528 128 
Q 6528 97 6522 84 
L 2950 -7366 
Q 2925 -7425 2853 -7425 
L 2713 -7425 
z
" transform="scale(0.015625)"/>
       <path id="Cmmi10-4b" d="M 1106 -72 
Q 719 -72 503 231 
Q 288 534 288 941 
Q 288 1000 317 1173 
Q 347 1347 347 1388 
L 966 3872 
Q 991 3981 997 4044 
Q 997 4147 581 4147 
Q 519 4147 519 4231 
Q 522 4247 533 4287 
Q 544 4328 561 4350 
Q 578 4372 609 4372 
L 1472 4441 
Q 1550 4441 1550 4359 
L 1075 2472 
Q 1438 2828 1806 2828 
Q 2078 2828 2273 2684 
Q 2469 2541 2566 2306 
Q 2663 2072 2663 1806 
Q 2663 1497 2542 1167 
Q 2422 838 2209 555 
Q 1997 272 1712 100 
Q 1428 -72 1106 -72 
z
M 1119 97 
Q 1338 97 1528 280 
Q 1719 463 1838 691 
Q 1966 947 2077 1386 
Q 2188 1825 2188 2088 
Q 2188 2316 2092 2489 
Q 1997 2663 1791 2663 
Q 1559 2663 1348 2492 
Q 1138 2322 978 2088 
L 800 1363 
Q 697 959 691 716 
Q 691 475 795 286 
Q 900 97 1119 97 
z
" transform="scale(0.015625)"/>
       <path id="Cmr10-44" d="M 416 -1600 
Q 359 -1600 359 -1544 
Q 359 -1516 372 -1503 
Q 1466 -434 1466 1600 
Q 1466 3634 384 4691 
Q 359 4706 359 4744 
Q 359 4766 376 4783 
Q 394 4800 416 4800 
L 475 4800 
Q 494 4800 506 4788 
Q 966 4425 1272 3906 
Q 1578 3388 1720 2800 
Q 1863 2213 1863 1600 
Q 1863 1147 1786 708 
Q 1709 269 1542 -157 
Q 1375 -584 1119 -945 
Q 863 -1306 506 -1588 
Q 494 -1600 475 -1600 
L 416 -1600 
z
" transform="scale(0.015625)"/>
       <path id="Cmex10-82" d="M 709 -7366 
L 709 -7291 
Q 709 -7247 756 -7238 
Q 1631 -6953 1631 -6413 
L 1631 -4544 
Q 1631 -3909 2669 -3584 
Q 2219 -3431 1925 -3209 
Q 1631 -2988 1631 -2619 
L 1631 -750 
Q 1631 -206 756 78 
Q 709 88 709 128 
L 709 206 
Q 709 256 769 256 
L 844 256 
Q 1359 131 1729 -97 
Q 2100 -325 2100 -738 
L 2100 -2606 
Q 2100 -2925 2354 -3142 
Q 2609 -3359 2975 -3494 
Q 3016 -3506 3016 -3547 
L 3016 -3622 
Q 3016 -3641 2975 -3675 
Q 2769 -3744 2566 -3864 
Q 2363 -3984 2231 -4161 
Q 2100 -4338 2100 -4556 
L 2100 -6425 
Q 2100 -6713 1901 -6914 
Q 1703 -7116 1437 -7227 
Q 1172 -7338 844 -7419 
L 769 -7419 
Q 744 -7419 726 -7401 
Q 709 -7384 709 -7366 
z
" transform="scale(0.015625)"/>
      </defs>
      <use xlink:href="#Cambria-8f" transform="translate(0 0.375)"/>
      <use xlink:href="#Cambria-83" transform="translate(83.203125 0.375)"/>
      <use xlink:href="#Cambria-89" transform="translate(132.03125 0.375)"/>
      <use xlink:href="#Cambria-8b" transform="translate(181.445312 0.375)"/>
      <use xlink:href="#Cambria-85" transform="translate(209.228516 0.375)"/>
      <use xlink:href="#Cambria-3" transform="translate(253.320312 0.375)"/>
      <use xlink:href="#Cambria-90" transform="translate(275.341797 0.375)"/>
      <use xlink:href="#Cambria-97" transform="translate(331.152344 0.375)"/>
      <use xlink:href="#Cambria-8f" transform="translate(386.376953 0.375)"/>
      <use xlink:href="#Cambria-84" transform="translate(469.580078 0.375)"/>
      <use xlink:href="#Cambria-87" transform="translate(524.316406 0.375)"/>
      <use xlink:href="#Cambria-94" transform="translate(573.095703 0.375)"/>
      <use xlink:href="#Cambria-3" transform="translate(614.453125 0.375)"/>
      <use xlink:href="#Cmmi10-45" transform="translate(636.474609 0.375)"/>
      <use xlink:href="#Cmr10-29" transform="translate(744.267635 0.375)"/>
      <use xlink:href="#Cmr10-49" transform="translate(841.953239 0.375)"/>
      <use xlink:href="#Cmr10-24" transform="translate(897.470818 0.375)"/>
      <use xlink:href="#Cmr10-38" transform="translate(925.156364 0.375)"/>
      <use xlink:href="#STIXNonUnicode-Italic-c" transform="translate(1012.461437 -14.624962) scale(0.7)"/>
      <use xlink:href="#Cmr10-31" transform="translate(1048.094404 -25.124935) scale(0.49)"/>
      <use xlink:href="#Cmr10-52" transform="translate(1110.653091 0.375)"/>
      <use xlink:href="#Cmr10-7d" transform="translate(1150.057388 0.375)"/>
      <use xlink:href="#Cmr10-73" transform="translate(1205.574966 0.375)"/>
      <use xlink:href="#Cmr10-74" transform="translate(1255.574966 0.375)"/>
      <use xlink:href="#Cmex10-5c" transform="translate(1311.092544 93.669271)"/>
      <use xlink:href="#Cmr10-77" transform="translate(1369.393326 0.375)"/>
      <use xlink:href="#Cmr10-64" transform="translate(1408.211685 0.375)"/>
      <use xlink:href="#Cmmi10-2c" transform="translate(1458.211685 0.375)"/>
      <use xlink:href="#Cmmi10-15" transform="translate(1505.897289 0.375)"/>
      <use xlink:href="#Cmmi10-37" transform="translate(1574.011143 41.664234) scale(0.7)"/>
      <use xlink:href="#Cmex10-30" transform="translate(1603.828238 97.609375) scale(0.847936)"/>
      <use xlink:href="#Cmmi10-4b" transform="translate(1701.109488 0.359375)"/>
      <use xlink:href="#Cmr10-44" transform="translate(1756.52941 0.375)"/>
      <use xlink:href="#Cmex10-82" transform="translate(1795.347769 93.669271)"/>
      <path d="M 1688.609488 100.75 
L 1688.609488 107 
L 1756.52941 107 
L 1756.52941 100.75 
L 1688.609488 100.75 
z
"/>
     </g>
    </g>
   </g>
   <g id="matplotlib.axis_2">
    <g id="ytick_1">
     <g id="line2d_17">
      <path d="M 41.12 213.54 
L 461.636016 213.54 
" clip-path="url(#p7e1320cff6)" style="fill: none; stroke: #e1e0d9; stroke-width: 0.7; stroke-linecap: square"/>
     </g>
     <g id="line2d_18">
      <defs>
       <path id="m2880ded52d" d="M 0 0 
L -3.5 0 
" style="stroke: #898781; stroke-width: 0.8"/>
      </defs>
      <g>
       <use xlink:href="#m2880ded52d" x="41.12" y="213.54" style="fill: #898781; stroke: #898781; stroke-width: 0.8"/>
      </g>
     </g>
     <g id="text_10">
      <!-- $\mathdefault{2^{0}}$ -->
      <g style="fill: #52514e" transform="translate(23.2 218.2125) scale(0.105 -0.105)">
       <defs>
        <path id="Cambria-372" d="M 1738 -50 
Q 1063 -50 733 481 
Q 403 1013 403 2094 
Q 403 2669 504 3087 
Q 606 3506 789 3779 
Q 972 4053 1228 4184 
Q 1484 4316 1788 4316 
Q 2472 4316 2806 3787 
Q 3141 3259 3141 2191 
Q 3141 1084 2783 517 
Q 2425 -50 1738 -50 
z
M 1013 2188 
Q 1013 1169 1202 692 
Q 1391 216 1788 216 
Q 2166 216 2348 664 
Q 2531 1113 2531 2053 
Q 2531 2772 2437 3217 
Q 2344 3663 2176 3856 
Q 2009 4050 1772 4050 
Q 1556 4050 1411 3922 
Q 1266 3794 1177 3553 
Q 1088 3313 1050 2967 
Q 1013 2622 1013 2188 
z
" transform="scale(0.015625)"/>
       </defs>
       <use xlink:href="#Cambria-374" transform="translate(0 0.504516)"/>
       <use xlink:href="#Cambria-372" transform="translate(59.375385 41.79375) scale(0.7)"/>
      </g>
     </g>
    </g>
    <g id="ytick_2">
     <g id="line2d_19">
      <path d="M 41.12 188.111429 
L 461.636016 188.111429 
" clip-path="url(#p7e1320cff6)" style="fill: none; stroke: #e1e0d9; stroke-width: 0.7; stroke-linecap: square"/>
     </g>
     <g id="line2d_20">
      <g>
       <use xlink:href="#m2880ded52d" x="41.12" y="188.111429" style="fill: #898781; stroke: #898781; stroke-width: 0.8"/>
      </g>
     </g>
     <g id="text_11">
      <!-- $\mathdefault{2^{1}}$ -->
      <g style="fill: #52514e" transform="translate(23.2 192.783929) scale(0.105 -0.105)">
       <use xlink:href="#Cambria-374" transform="translate(0 0.504516)"/>
       <use xlink:href="#Cambria-373" transform="translate(59.375385 41.79375) scale(0.7)"/>
      </g>
     </g>
    </g>
    <g id="ytick_3">
     <g id="line2d_21">
      <path d="M 41.12 162.682857 
L 461.636016 162.682857 
" clip-path="url(#p7e1320cff6)" style="fill: none; stroke: #e1e0d9; stroke-width: 0.7; stroke-linecap: square"/>
     </g>
     <g id="line2d_22">
      <g>
       <use xlink:href="#m2880ded52d" x="41.12" y="162.682857" style="fill: #898781; stroke: #898781; stroke-width: 0.8"/>
      </g>
     </g>
     <g id="text_12">
      <!-- $\mathdefault{2^{2}}$ -->
      <g style="fill: #52514e" transform="translate(23.2 167.355357) scale(0.105 -0.105)">
       <use xlink:href="#Cambria-374" transform="translate(0 0.504516)"/>
       <use xlink:href="#Cambria-374" transform="translate(59.375385 41.79375) scale(0.7)"/>
      </g>
     </g>
    </g>
    <g id="ytick_4">
     <g id="line2d_23">
      <path d="M 41.12 137.254286 
L 461.636016 137.254286 
" clip-path="url(#p7e1320cff6)" style="fill: none; stroke: #e1e0d9; stroke-width: 0.7; stroke-linecap: square"/>
     </g>
     <g id="line2d_24">
      <g>
       <use xlink:href="#m2880ded52d" x="41.12" y="137.254286" style="fill: #898781; stroke: #898781; stroke-width: 0.8"/>
      </g>
     </g>
     <g id="text_13">
      <!-- $\mathdefault{2^{3}}$ -->
      <g style="fill: #52514e" transform="translate(23.2 141.926786) scale(0.105 -0.105)">
       <use xlink:href="#Cambria-374" transform="translate(0 0.504516)"/>
       <use xlink:href="#Cambria-375" transform="translate(59.375385 41.79375) scale(0.7)"/>
      </g>
     </g>
    </g>
    <g id="ytick_5">
     <g id="line2d_25">
      <path d="M 41.12 111.825714 
L 461.636016 111.825714 
" clip-path="url(#p7e1320cff6)" style="fill: none; stroke: #e1e0d9; stroke-width: 0.7; stroke-linecap: square"/>
     </g>
     <g id="line2d_26">
      <g>
       <use xlink:href="#m2880ded52d" x="41.12" y="111.825714" style="fill: #898781; stroke: #898781; stroke-width: 0.8"/>
      </g>
     </g>
     <g id="text_14">
      <!-- $\mathdefault{2^{4}}$ -->
      <g style="fill: #52514e" transform="translate(23.2 116.498214) scale(0.105 -0.105)">
       <use xlink:href="#Cambria-374" transform="translate(0 0.810766)"/>
       <use xlink:href="#Cambria-376" transform="translate(59.375385 42.1) scale(0.7)"/>
      </g>
     </g>
    </g>
    <g id="ytick_6">
     <g id="line2d_27">
      <path d="M 41.12 86.397143 
L 461.636016 86.397143 
" clip-path="url(#p7e1320cff6)" style="fill: none; stroke: #e1e0d9; stroke-width: 0.7; stroke-linecap: square"/>
     </g>
     <g id="line2d_28">
      <g>
       <use xlink:href="#m2880ded52d" x="41.12" y="86.397143" style="fill: #898781; stroke: #898781; stroke-width: 0.8"/>
      </g>
     </g>
     <g id="text_15">
      <!-- $\mathdefault{2^{5}}$ -->
      <g style="fill: #52514e" transform="translate(23.2 91.174643) scale(0.105 -0.105)">
       <use xlink:href="#Cambria-374" transform="translate(0 0.798266)"/>
       <use xlink:href="#Cambria-377" transform="translate(59.375385 42.0875) scale(0.7)"/>
      </g>
     </g>
    </g>
    <g id="ytick_7">
     <g id="line2d_29">
      <path d="M 41.12 60.968571 
L 461.636016 60.968571 
" clip-path="url(#p7e1320cff6)" style="fill: none; stroke: #e1e0d9; stroke-width: 0.7; stroke-linecap: square"/>
     </g>
     <g id="line2d_30">
      <g>
       <use xlink:href="#m2880ded52d" x="41.12" y="60.968571" style="fill: #898781; stroke: #898781; stroke-width: 0.8"/>
      </g>
     </g>
     <g id="text_16">
      <!-- $\mathdefault{2^{6}}$ -->
      <g style="fill: #52514e" transform="translate(23.2 65.641071) scale(0.105 -0.105)">
       <use xlink:href="#Cambria-374" transform="translate(0 0.504516)"/>
       <use xlink:href="#Cambria-378" transform="translate(59.375385 41.79375) scale(0.7)"/>
      </g>
     </g>
    </g>
    <g id="ytick_8">
     <g id="line2d_31">
      <path d="M 41.12 35.54 
L 461.636016 35.54 
" clip-path="url(#p7e1320cff6)" style="fill: none; stroke: #e1e0d9; stroke-width: 0.7; stroke-linecap: square"/>
     </g>
     <g id="line2d_32">
      <g>
       <use xlink:href="#m2880ded52d" x="41.12" y="35.54" style="fill: #898781; stroke: #898781; stroke-width: 0.8"/>
      </g>
     </g>
     <g id="text_17">
      <!-- $\mathdefault{2^{7}}$ -->
      <g style="fill: #52514e" transform="translate(23.2 40.16) scale(0.105 -0.105)">
       <use xlink:href="#Cambria-374" transform="translate(0 0.051391)"/>
       <use xlink:href="#Cambria-379" transform="translate(59.375385 41.340625) scale(0.7)"/>
      </g>
     </g>
    </g>
    <g id="text_18">
     <!-- GHS genus $g$ (log$_2$) -->
     <g style="fill: #0b0b0b" transform="translate(16.533984 172.36) rotate(-90) scale(0.12 -0.12)">
      <defs>
       <path id="Cambria-a" d="M 3369 16 
L 3125 -50 
L 2897 194 
Q 2694 69 2472 9 
Q 2250 -50 1963 -50 
Q 1172 -50 772 492 
Q 372 1034 372 2103 
Q 372 2769 590 3272 
Q 809 3775 1218 4045 
Q 1628 4316 2181 4316 
Q 2472 4316 2740 4283 
Q 3009 4250 3338 4169 
L 3338 3309 
L 3028 3309 
Q 2944 3591 2828 3748 
Q 2713 3906 2552 3973 
Q 2391 4041 2144 4041 
Q 1803 4041 1547 3822 
Q 1291 3603 1148 3176 
Q 1006 2750 1006 2147 
Q 1006 1534 1126 1100 
Q 1247 666 1484 445 
Q 1722 225 2069 225 
Q 2438 225 2616 386 
Q 2794 547 2794 881 
L 2794 1069 
Q 2794 1350 2764 1475 
Q 2734 1600 2659 1669 
Q 2584 1738 2413 1781 
L 2413 1934 
L 3675 1934 
L 3675 1781 
Q 3563 1744 3506 1695 
Q 3450 1647 3420 1575 
Q 3391 1503 3380 1398 
Q 3369 1294 3369 1100 
L 3369 16 
z
" transform="scale(0.015625)"/>
       <path id="Cambria-b" d="M 3650 781 
Q 3650 600 3659 509 
Q 3669 419 3691 364 
Q 3713 309 3744 275 
Q 3775 241 3833 212 
Q 3891 184 4013 153 
L 4013 0 
L 2703 0 
L 2703 153 
Q 2875 197 2944 250 
Q 3013 303 3039 412 
Q 3066 522 3066 781 
L 3066 2091 
L 1328 2091 
L 1328 781 
Q 1328 572 1342 475 
Q 1356 378 1389 322 
Q 1422 266 1486 228 
Q 1550 191 1694 153 
L 1694 0 
L 378 0 
L 378 153 
Q 572 203 637 264 
Q 703 325 723 437 
Q 744 550 744 781 
L 744 3484 
Q 744 3700 728 3798 
Q 713 3897 677 3951 
Q 641 4006 581 4039 
Q 522 4072 378 4113 
L 378 4266 
L 1694 4266 
L 1694 4113 
Q 1556 4078 1495 4043 
Q 1434 4009 1398 3957 
Q 1363 3906 1345 3803 
Q 1328 3700 1328 3484 
L 1328 2378 
L 3066 2378 
L 3066 3484 
Q 3066 3756 3039 3856 
Q 3013 3956 2950 4009 
Q 2888 4063 2703 4113 
L 2703 4266 
L 4013 4266 
L 4013 4113 
Q 3838 4069 3769 4014 
Q 3700 3959 3675 3850 
Q 3650 3741 3650 3484 
L 3650 781 
z
" transform="scale(0.015625)"/>
       <path id="Cambria-16" d="M 663 972 
Q 725 697 831 537 
Q 938 378 1106 301 
Q 1275 225 1541 225 
Q 1906 225 2101 415 
Q 2297 606 2297 972 
Q 2297 1206 2215 1365 
Q 2134 1525 1950 1665 
Q 1766 1806 1388 1994 
Q 1022 2175 809 2348 
Q 597 2522 492 2725 
Q 388 2928 388 3169 
Q 388 3519 552 3776 
Q 716 4034 1033 4175 
Q 1350 4316 1759 4316 
Q 1997 4316 2223 4291 
Q 2450 4266 2791 4178 
L 2791 3334 
L 2481 3334 
Q 2409 3609 2300 3762 
Q 2191 3916 2044 3977 
Q 1897 4038 1663 4038 
Q 1459 4038 1298 3963 
Q 1138 3888 1044 3736 
Q 950 3584 950 3375 
Q 950 3153 1029 3000 
Q 1109 2847 1278 2715 
Q 1447 2584 1778 2422 
Q 2178 2222 2398 2050 
Q 2619 1878 2742 1658 
Q 2866 1438 2866 1144 
Q 2866 816 2762 589 
Q 2659 363 2476 220 
Q 2294 78 2039 14 
Q 1784 -50 1481 -50 
Q 991 -50 350 116 
L 350 972 
L 663 972 
z
" transform="scale(0.015625)"/>
       <path id="Cambria-95" d="M 2397 2303 
L 2097 2303 
Q 2028 2491 1934 2598 
Q 1841 2706 1722 2750 
Q 1603 2794 1431 2794 
Q 1181 2794 1032 2676 
Q 884 2559 884 2356 
Q 884 2213 943 2119 
Q 1003 2025 1128 1944 
Q 1253 1863 1569 1728 
Q 1888 1591 2061 1475 
Q 2234 1359 2332 1206 
Q 2431 1053 2431 841 
Q 2431 594 2347 425 
Q 2263 256 2109 150 
Q 1956 44 1745 -3 
Q 1534 -50 1284 -50 
Q 1022 -50 775 -11 
Q 528 28 294 91 
L 294 744 
L 600 744 
Q 684 456 850 326 
Q 1016 197 1306 197 
Q 1419 197 1526 220 
Q 1634 244 1718 298 
Q 1803 353 1853 447 
Q 1903 541 1903 681 
Q 1903 841 1840 941 
Q 1778 1041 1647 1123 
Q 1516 1206 1184 1347 
Q 900 1466 728 1578 
Q 556 1691 457 1844 
Q 359 1997 359 2206 
Q 359 2463 498 2652 
Q 638 2841 900 2941 
Q 1163 3041 1516 3041 
Q 1722 3041 1914 3020 
Q 2106 3000 2397 2941 
L 2397 2303 
z
" transform="scale(0.015625)"/>
       <path id="Cmmi10-2f" d="M 91 -916 
Q 91 -759 198 -642 
Q 306 -525 459 -525 
Q 563 -525 633 -589 
Q 703 -653 703 -756 
Q 703 -872 637 -964 
Q 572 -1056 469 -1094 
Q 641 -1147 1006 -1147 
Q 1300 -1147 1544 -920 
Q 1788 -694 1863 -397 
L 2047 353 
Q 1700 0 1325 0 
Q 1050 0 854 140 
Q 659 281 556 515 
Q 453 750 453 1013 
Q 453 1306 573 1628 
Q 694 1950 911 2225 
Q 1128 2500 1409 2664 
Q 1691 2828 2003 2828 
Q 2191 2828 2341 2725 
Q 2491 2622 2578 2450 
Q 2641 2700 2853 2700 
Q 2934 2700 2990 2651 
Q 3047 2603 3047 2522 
Q 3047 2503 3045 2493 
Q 3044 2484 3041 2472 
L 2309 -434 
Q 2259 -634 2125 -800 
Q 1991 -966 1809 -1077 
Q 1628 -1188 1412 -1250 
Q 1197 -1313 997 -1313 
Q 631 -1313 361 -1242 
Q 91 -1172 91 -916 
z
M 1338 166 
Q 1747 166 2144 728 
L 2497 2125 
Q 2453 2347 2322 2505 
Q 2191 2663 1991 2663 
Q 1778 2663 1589 2489 
Q 1400 2316 1275 2075 
Q 1156 1844 1045 1411 
Q 934 978 934 728 
Q 934 509 1034 337 
Q 1134 166 1338 166 
z
" transform="scale(0.015625)"/>
       <path id="Cambria-20b" d="M 2309 -1359 
Q 1778 -1359 1442 -1200 
Q 1106 -1041 918 -714 
Q 731 -388 647 134 
Q 563 656 563 1550 
Q 563 2438 645 2964 
Q 728 3491 915 3822 
Q 1103 4153 1440 4318 
Q 1778 4484 2309 4484 
L 2309 4228 
Q 2091 4228 1922 4191 
Q 1731 4147 1597 4022 
Q 1447 3884 1353 3638 
Q 1244 3350 1191 2875 
Q 1134 2372 1134 1575 
Q 1134 872 1181 379 
Q 1228 -113 1338 -425 
Q 1425 -688 1556 -834 
Q 1672 -963 1831 -1028 
Q 2016 -1103 2309 -1103 
L 2309 -1359 
z
" transform="scale(0.015625)"/>
       <path id="Cambria-8e" d="M 1138 781 
Q 1138 513 1163 408 
Q 1188 303 1258 248 
Q 1328 194 1488 153 
L 1488 0 
L 247 0 
L 247 153 
Q 403 194 464 237 
Q 525 281 551 342 
Q 578 403 589 508 
Q 600 613 600 781 
L 600 3397 
Q 600 3697 595 3815 
Q 591 3934 570 4017 
Q 550 4100 514 4147 
Q 478 4194 417 4222 
Q 356 4250 197 4278 
L 197 4441 
L 950 4472 
L 1138 4472 
L 1138 781 
z
" transform="scale(0.015625)"/>
       <path id="Cambria-91" d="M 1663 -50 
Q 1013 -50 670 333 
Q 328 716 328 1466 
Q 328 1981 508 2337 
Q 688 2694 1000 2867 
Q 1313 3041 1713 3041 
Q 2381 3041 2725 2652 
Q 3069 2263 3069 1534 
Q 3069 1016 2897 659 
Q 2725 303 2409 126 
Q 2094 -50 1663 -50 
z
M 919 1531 
Q 919 888 1123 542 
Q 1328 197 1709 197 
Q 1919 197 2066 298 
Q 2213 400 2305 572 
Q 2397 744 2437 970 
Q 2478 1197 2478 1444 
Q 2478 1903 2376 2206 
Q 2275 2509 2100 2651 
Q 1925 2794 1700 2794 
Q 1322 2794 1120 2466 
Q 919 2138 919 1531 
z
" transform="scale(0.015625)"/>
       <path id="Cambria-20c" d="M 134 4484 
Q 666 4484 1002 4325 
Q 1338 4166 1525 3839 
Q 1713 3513 1797 2991 
Q 1881 2469 1881 1575 
Q 1881 688 1798 161 
Q 1716 -366 1528 -697 
Q 1341 -1028 1003 -1193 
Q 666 -1359 134 -1359 
L 134 -1103 
Q 353 -1103 522 -1066 
Q 713 -1022 847 -897 
Q 997 -759 1091 -513 
Q 1200 -225 1253 250 
Q 1309 753 1309 1550 
Q 1309 2253 1262 2745 
Q 1216 3238 1106 3550 
Q 1019 3813 888 3959 
Q 772 4088 613 4153 
Q 428 4228 134 4228 
L 134 4484 
z
" transform="scale(0.015625)"/>
      </defs>
      <use xlink:href="#Cambria-a" transform="translate(0 0.9375)"/>
      <use xlink:href="#Cambria-b" transform="translate(61.083984 0.9375)"/>
      <use xlink:href="#Cambria-16" transform="translate(129.736328 0.9375)"/>
      <use xlink:href="#Cambria-3" transform="translate(179.345703 0.9375)"/>
      <use xlink:href="#Cambria-89" transform="translate(201.367188 0.9375)"/>
      <use xlink:href="#Cambria-87" transform="translate(250.78125 0.9375)"/>
      <use xlink:href="#Cambria-90" transform="translate(299.560547 0.9375)"/>
      <use xlink:href="#Cambria-97" transform="translate(355.371094 0.9375)"/>
      <use xlink:href="#Cambria-95" transform="translate(410.595703 0.9375)"/>
      <use xlink:href="#Cambria-3" transform="translate(453.564453 0.9375)"/>
      <use xlink:href="#Cmmi10-2f" transform="translate(475.585938 0.9375)"/>
      <use xlink:href="#Cambria-3" transform="translate(523.291016 0.9375)"/>
      <use xlink:href="#Cambria-20b" transform="translate(545.3125 0.9375)"/>
      <use xlink:href="#Cambria-8e" transform="translate(583.496094 0.9375)"/>
      <use xlink:href="#Cambria-91" transform="translate(610.644531 0.9375)"/>
      <use xlink:href="#Cambria-89" transform="translate(663.720703 0.9375)"/>
      <use xlink:href="#Cmr10-31" transform="translate(717.139056 -14.062462) scale(0.7)"/>
      <use xlink:href="#Cambria-20c" transform="translate(757.859472 0.9375)"/>
     </g>
    </g>
   </g>
   <g id="line2d_33">
    <path d="M 60.234364 213.54 
L 114.846834 188.111429 
L 169.459303 162.682857 
L 224.071773 137.254286 
L 278.684243 111.825714 
L 333.296712 86.397143 
L 387.909182 60.968571 
L 442.521651 35.54 
" clip-path="url(#p7e1320cff6)" style="fill: none; stroke-dasharray: 4.07,1.76; stroke-dashoffset: 0; stroke: #898781; stroke-width: 1.1"/>
   </g>
   <g id="line2d_34">
    <path d="M 114.729656 268.1 
L 114.846834 213.54 
L 169.459303 173.236668 
L 224.071773 142.152975 
L 278.684243 114.193353 
L 333.296712 87.561865 
L 387.909182 61.546311 
L 442.521651 35.827732 
" clip-path="url(#p7e1320cff6)" style="fill: none; stroke-dasharray: 1,1.65; stroke-dashoffset: 0; stroke: #52514e"/>
   </g>
   <g id="patch_3">
    <path d="M 41.12 222.44 
L 41.12 26.64 
" style="fill: none; stroke: #c3c2b7; stroke-width: 0.9; stroke-linejoin: miter; stroke-linecap: square"/>
   </g>
   <g id="patch_4">
    <path d="M 41.12 222.44 
L 461.636016 222.44 
" style="fill: none; stroke: #c3c2b7; stroke-width: 0.9; stroke-linejoin: miter; stroke-linecap: square"/>
   </g>
   <g id="PathCollection_1">
    <defs>
     <path id="mfb67d3cada" d="M 0 2.872281 
C 0.761738 2.872281 1.49238 2.56964 2.03101 2.03101 
C 2.56964 1.49238 2.872281 0.761738 2.872281 0 
C 2.872281 -0.761738 2.56964 -1.49238 2.03101 -2.03101 
C 1.49238 -2.56964 0.761738 -2.872281 0 -2.872281 
C -0.761738 -2.872281 -1.49238 -2.56964 -2.03101 -2.03101 
C -2.56964 -1.49238 -2.872281 -0.761738 -2.872281 0 
C -2.872281 0.761738 -2.56964 1.49238 -2.03101 2.03101 
C -1.49238 2.56964 -0.761738 2.872281 0 2.872281 
z
" style="stroke: #fcfcfb; stroke-width: 0.6"/>
    </defs>
    <g clip-path="url(#p7e1320cff6)">
     <use xlink:href="#mfb67d3cada" x="60.234364" y="213.54" style="fill: #2a78d6; stroke: #fcfcfb; stroke-width: 0.6"/>
    </g>
   </g>
   <g id="PathCollection_2">
    <defs>
     <path id="mbbd96d895f" d="M 0 2.947664 
C 0.78173 2.947664 1.531547 2.637079 2.084313 2.084313 
C 2.637079 1.531547 2.947664 0.78173 2.947664 0 
C 2.947664 -0.78173 2.637079 -1.531547 2.084313 -2.084313 
C 1.531547 -2.637079 0.78173 -2.947664 0 -2.947664 
C -0.78173 -2.947664 -1.531547 -2.637079 -2.084313 -2.084313 
C -2.637079 -1.531547 -2.947664 -0.78173 -2.947664 0 
C -2.947664 0.78173 -2.637079 1.531547 -2.084313 2.084313 
C -1.531547 2.637079 -0.78173 2.947664 0 2.947664 
z
" style="stroke: #fcfcfb; stroke-width: 0.6"/>
    </defs>
    <g clip-path="url(#p7e1320cff6)">
     <use xlink:href="#mbbd96d895f" x="114.846834" y="188.111429" style="fill: #2a78d6; stroke: #fcfcfb; stroke-width: 0.6"/>
    </g>
   </g>
   <g id="PathCollection_3">
    <defs>
     <path id="me70a8960ef" d="M 0 3.039975 
C 0.806211 3.039975 1.57951 2.719664 2.149587 2.149587 
C 2.719664 1.57951 3.039975 0.806211 3.039975 0 
C 3.039975 -0.806211 2.719664 -1.57951 2.149587 -2.149587 
C 1.57951 -2.719664 0.806211 -3.039975 0 -3.039975 
C -0.806211 -3.039975 -1.57951 -2.719664 -2.149587 -2.149587 
C -2.719664 -1.57951 -3.039975 -0.806211 -3.039975 0 
C -3.039975 0.806211 -2.719664 1.57951 -2.149587 2.149587 
C -1.57951 2.719664 -0.806211 3.039975 0 3.039975 
z
" style="stroke: #fcfcfb; stroke-width: 0.6"/>
    </defs>
    <g clip-path="url(#p7e1320cff6)">
     <use xlink:href="#me70a8960ef" x="169.459303" y="162.682857" style="fill: #2a78d6; stroke: #fcfcfb; stroke-width: 0.6"/>
    </g>
   </g>
   <g id="PathCollection_4">
    <defs>
     <path id="md8b3a7197d" d="M 0 3.14284 
C 0.833491 3.14284 1.632956 2.811691 2.222324 2.222324 
C 2.811691 1.632956 3.14284 0.833491 3.14284 0 
C 3.14284 -0.833491 2.811691 -1.632956 2.222324 -2.222324 
C 1.632956 -2.811691 0.833491 -3.14284 0 -3.14284 
C -0.833491 -3.14284 -1.632956 -2.811691 -2.222324 -2.222324 
C -2.811691 -1.632956 -3.14284 -0.833491 -3.14284 0 
C -3.14284 0.833491 -2.811691 1.632956 -2.222324 2.222324 
C -1.632956 2.811691 -0.833491 3.14284 0 3.14284 
z
" style="stroke: #fcfcfb; stroke-width: 0.6"/>
    </defs>
    <g clip-path="url(#p7e1320cff6)">
     <use xlink:href="#md8b3a7197d" x="224.071773" y="137.254286" style="fill: #2a78d6; stroke: #fcfcfb; stroke-width: 0.6"/>
    </g>
   </g>
   <g id="PathCollection_5">
    <defs>
     <path id="mfbe760ab47" d="M 0 2.872281 
C 0.761738 2.872281 1.49238 2.56964 2.03101 2.03101 
C 2.56964 1.49238 2.872281 0.761738 2.872281 0 
C 2.872281 -0.761738 2.56964 -1.49238 2.03101 -2.03101 
C 1.49238 -2.56964 0.761738 -2.872281 0 -2.872281 
C -0.761738 -2.872281 -1.49238 -2.56964 -2.03101 -2.03101 
C -2.56964 -1.49238 -2.872281 -0.761738 -2.872281 0 
C -2.872281 0.761738 -2.56964 1.49238 -2.03101 2.03101 
C -1.49238 2.56964 -0.761738 2.872281 0 2.872281 
z
" style="stroke: #fcfcfb; stroke-width: 0.6"/>
    </defs>
    <g clip-path="url(#p7e1320cff6)">
     <use xlink:href="#mfbe760ab47" x="60.234364" y="213.54" style="fill: #eb6834; stroke: #fcfcfb; stroke-width: 0.6"/>
    </g>
   </g>
   <g id="PathCollection_6">
    <defs>
     <path id="me0c0e90f6d" d="M 0 2.947664 
C 0.78173 2.947664 1.531547 2.637079 2.084313 2.084313 
C 2.637079 1.531547 2.947664 0.78173 2.947664 0 
C 2.947664 -0.78173 2.637079 -1.531547 2.084313 -2.084313 
C 1.531547 -2.637079 0.78173 -2.947664 0 -2.947664 
C -0.78173 -2.947664 -1.531547 -2.637079 -2.084313 -2.084313 
C -2.637079 -1.531547 -2.947664 -0.78173 -2.947664 0 
C -2.947664 0.78173 -2.637079 1.531547 -2.084313 2.084313 
C -1.531547 2.637079 -0.78173 2.947664 0 2.947664 
z
" style="stroke: #fcfcfb; stroke-width: 0.6"/>
    </defs>
    <g clip-path="url(#p7e1320cff6)">
     <use xlink:href="#me0c0e90f6d" x="114.846834" y="188.111429" style="fill: #eb6834; stroke: #fcfcfb; stroke-width: 0.6"/>
    </g>
   </g>
   <g id="PathCollection_7">
    <defs>
     <path id="m55eda41e7f" d="M -3 3 
L 3 3 
L 3 -3 
L -3 -3 
z
" style="stroke: #fcfcfb; stroke-width: 0.6"/>
    </defs>
    <g clip-path="url(#p7e1320cff6)">
     <use xlink:href="#m55eda41e7f" x="169.459303" y="173.236668" style="fill: #eb6834; stroke: #fcfcfb; stroke-width: 0.6"/>
    </g>
   </g>
   <g id="PathCollection_8">
    <defs>
     <path id="m87d310b829" d="M 0 3 
C 0.795609 3 1.55874 2.683901 2.12132 2.12132 
C 2.683901 1.55874 3 0.795609 3 0 
C 3 -0.795609 2.683901 -1.55874 2.12132 -2.12132 
C 1.55874 -2.683901 0.795609 -3 0 -3 
C -0.795609 -3 -1.55874 -2.683901 -2.12132 -2.12132 
C -2.683901 -1.55874 -3 -0.795609 -3 0 
C -3 0.795609 -2.683901 1.55874 -2.12132 2.12132 
C -1.55874 2.683901 -0.795609 3 0 3 
z
" style="stroke: #fcfcfb; stroke-width: 0.6"/>
    </defs>
    <g clip-path="url(#p7e1320cff6)">
     <use xlink:href="#m87d310b829" x="169.459303" y="162.682857" style="fill: #eb6834; stroke: #fcfcfb; stroke-width: 0.6"/>
    </g>
   </g>
   <g id="PathCollection_9">
    <defs>
     <path id="m3efa39d6d1" d="M 0 3.099277 
C 0.821938 3.099277 1.610322 2.772717 2.19152 2.19152 
C 2.772717 1.610322 3.099277 0.821938 3.099277 0 
C 3.099277 -0.821938 2.772717 -1.610322 2.19152 -2.19152 
C 1.610322 -2.772717 0.821938 -3.099277 0 -3.099277 
C -0.821938 -3.099277 -1.610322 -2.772717 -2.19152 -2.19152 
C -2.772717 -1.610322 -3.099277 -0.821938 -3.099277 0 
C -3.099277 0.821938 -2.772717 1.610322 -2.19152 2.19152 
C -1.610322 2.772717 -0.821938 3.099277 0 3.099277 
z
" style="stroke: #fcfcfb; stroke-width: 0.6"/>
    </defs>
    <g clip-path="url(#p7e1320cff6)">
     <use xlink:href="#m3efa39d6d1" x="224.071773" y="137.254286" style="fill: #eb6834; stroke: #fcfcfb; stroke-width: 0.6"/>
    </g>
   </g>
   <g id="PathCollection_10">
    <defs>
     <path id="m5e8e510270" d="M -3.205516 3.205516 
L 3.205516 3.205516 
L 3.205516 -3.205516 
L -3.205516 -3.205516 
z
" style="stroke: #fcfcfb; stroke-width: 0.6"/>
    </defs>
    <g clip-path="url(#p7e1320cff6)">
     <use xlink:href="#m5e8e510270" x="278.684243" y="114.193353" style="fill: #eb6834; stroke: #fcfcfb; stroke-width: 0.6"/>
    </g>
   </g>
   <g id="PathCollection_11">
    <defs>
     <path id="m3c74a46de4" d="M 0 3.205516 
C 0.850113 3.205516 1.665521 2.867762 2.266642 2.266642 
C 2.867762 1.665521 3.205516 0.850113 3.205516 0 
C 3.205516 -0.850113 2.867762 -1.665521 2.266642 -2.266642 
C 1.665521 -2.867762 0.850113 -3.205516 0 -3.205516 
C -0.850113 -3.205516 -1.665521 -2.867762 -2.266642 -2.266642 
C -2.867762 -1.665521 -3.205516 -0.850113 -3.205516 0 
C -3.205516 0.850113 -2.867762 1.665521 -2.266642 2.266642 
C -1.665521 2.867762 -0.850113 3.205516 0 3.205516 
z
" style="stroke: #fcfcfb; stroke-width: 0.6"/>
    </defs>
    <g clip-path="url(#p7e1320cff6)">
     <use xlink:href="#m3c74a46de4" x="278.684243" y="111.825714" style="fill: #eb6834; stroke: #fcfcfb; stroke-width: 0.6"/>
    </g>
   </g>
   <g id="PathCollection_12">
    <defs>
     <path id="m47133aa6b9" d="M 0 3.314045 
C 0.878895 3.314045 1.721911 2.964856 2.343383 2.343383 
C 2.964856 1.721911 3.314045 0.878895 3.314045 0 
C 3.314045 -0.878895 2.964856 -1.721911 2.343383 -2.343383 
C 1.721911 -2.964856 0.878895 -3.314045 0 -3.314045 
C -0.878895 -3.314045 -1.721911 -2.964856 -2.343383 -2.343383 
C -2.964856 -1.721911 -3.314045 -0.878895 -3.314045 0 
C -3.314045 0.878895 -2.964856 1.721911 -2.343383 2.343383 
C -1.721911 2.964856 -0.878895 3.314045 0 3.314045 
z
" style="stroke: #fcfcfb; stroke-width: 0.6"/>
    </defs>
    <g clip-path="url(#p7e1320cff6)">
     <use xlink:href="#m47133aa6b9" x="333.296712" y="86.397143" style="fill: #eb6834; stroke: #fcfcfb; stroke-width: 0.6"/>
    </g>
   </g>
   <g id="PathCollection_13">
    <defs>
     <path id="ma3148d510c" d="M 0 2.872281 
C 0.761738 2.872281 1.49238 2.56964 2.03101 2.03101 
C 2.56964 1.49238 2.872281 0.761738 2.872281 0 
C 2.872281 -0.761738 2.56964 -1.49238 2.03101 -2.03101 
C 1.49238 -2.56964 0.761738 -2.872281 0 -2.872281 
C -0.761738 -2.872281 -1.49238 -2.56964 -2.03101 -2.03101 
C -2.56964 -1.49238 -2.872281 -0.761738 -2.872281 0 
C -2.872281 0.761738 -2.56964 1.49238 -2.03101 2.03101 
C -1.49238 2.56964 -0.761738 2.872281 0 2.872281 
z
" style="stroke: #fcfcfb; stroke-width: 0.6"/>
    </defs>
    <g clip-path="url(#p7e1320cff6)">
     <use xlink:href="#ma3148d510c" x="60.234364" y="213.54" style="fill: #4a3aa7; stroke: #fcfcfb; stroke-width: 0.6"/>
    </g>
   </g>
   <g id="PathCollection_14">
    <defs>
     <path id="mb932694067" d="M 0 2.947664 
C 0.78173 2.947664 1.531547 2.637079 2.084313 2.084313 
C 2.637079 1.531547 2.947664 0.78173 2.947664 0 
C 2.947664 -0.78173 2.637079 -1.531547 2.084313 -2.084313 
C 1.531547 -2.637079 0.78173 -2.947664 0 -2.947664 
C -0.78173 -2.947664 -1.531547 -2.637079 -2.084313 -2.084313 
C -2.637079 -1.531547 -2.947664 -0.78173 -2.947664 0 
C -2.947664 0.78173 -2.637079 1.531547 -2.084313 2.084313 
C -1.531547 2.637079 -0.78173 2.947664 0 2.947664 
z
" style="stroke: #fcfcfb; stroke-width: 0.6"/>
    </defs>
    <g clip-path="url(#p7e1320cff6)">
     <use xlink:href="#mb932694067" x="114.846834" y="188.111429" style="fill: #4a3aa7; stroke: #fcfcfb; stroke-width: 0.6"/>
    </g>
   </g>
   <g id="PathCollection_15">
    <defs>
     <path id="m2cabbbb728" d="M 0 3.039975 
C 0.806211 3.039975 1.57951 2.719664 2.149587 2.149587 
C 2.719664 1.57951 3.039975 0.806211 3.039975 0 
C 3.039975 -0.806211 2.719664 -1.57951 2.149587 -2.149587 
C 1.57951 -2.719664 0.806211 -3.039975 0 -3.039975 
C -0.806211 -3.039975 -1.57951 -2.719664 -2.149587 -2.149587 
C -2.719664 -1.57951 -3.039975 -0.806211 -3.039975 0 
C -3.039975 0.806211 -2.719664 1.57951 -2.149587 2.149587 
C -1.57951 2.719664 -0.806211 3.039975 0 3.039975 
z
" style="stroke: #fcfcfb; stroke-width: 0.6"/>
    </defs>
    <g clip-path="url(#p7e1320cff6)">
     <use xlink:href="#m2cabbbb728" x="169.459303" y="162.682857" style="fill: #4a3aa7; stroke: #fcfcfb; stroke-width: 0.6"/>
    </g>
   </g>
   <g id="PathCollection_16">
    <defs>
     <path id="m30f9a87f3a" d="M 0 3.14284 
C 0.833491 3.14284 1.632956 2.811691 2.222324 2.222324 
C 2.811691 1.632956 3.14284 0.833491 3.14284 0 
C 3.14284 -0.833491 2.811691 -1.632956 2.222324 -2.222324 
C 1.632956 -2.811691 0.833491 -3.14284 0 -3.14284 
C -0.833491 -3.14284 -1.632956 -2.811691 -2.222324 -2.222324 
C -2.811691 -1.632956 -3.14284 -0.833491 -3.14284 0 
C -3.14284 0.833491 -2.811691 1.632956 -2.222324 2.222324 
C -1.632956 2.811691 -0.833491 3.14284 0 3.14284 
z
" style="stroke: #fcfcfb; stroke-width: 0.6"/>
    </defs>
    <g clip-path="url(#p7e1320cff6)">
     <use xlink:href="#m30f9a87f3a" x="224.071773" y="137.254286" style="fill: #4a3aa7; stroke: #fcfcfb; stroke-width: 0.6"/>
    </g>
   </g>
   <g id="PathCollection_17">
    <defs>
     <path id="m60ece83557" d="M 0 3.250476 
C 0.862036 3.250476 1.688882 2.907986 2.298434 2.298434 
C 2.907986 1.688882 3.250476 0.862036 3.250476 0 
C 3.250476 -0.862036 2.907986 -1.688882 2.298434 -2.298434 
C 1.688882 -2.907986 0.862036 -3.250476 0 -3.250476 
C -0.862036 -3.250476 -1.688882 -2.907986 -2.298434 -2.298434 
C -2.907986 -1.688882 -3.250476 -0.862036 -3.250476 0 
C -3.250476 0.862036 -2.907986 1.688882 -2.298434 2.298434 
C -1.688882 2.907986 -0.862036 3.250476 0 3.250476 
z
" style="stroke: #fcfcfb; stroke-width: 0.6"/>
    </defs>
    <g clip-path="url(#p7e1320cff6)">
     <use xlink:href="#m60ece83557" x="278.684243" y="111.825714" style="fill: #4a3aa7; stroke: #fcfcfb; stroke-width: 0.6"/>
    </g>
   </g>
   <g id="PathCollection_18">
    <defs>
     <path id="me23683af94" d="M 0 3.359062 
C 0.890834 3.359062 1.745301 3.00513 2.375215 2.375215 
C 3.00513 1.745301 3.359062 0.890834 3.359062 0 
C 3.359062 -0.890834 3.00513 -1.745301 2.375215 -2.375215 
C 1.745301 -3.00513 0.890834 -3.359062 0 -3.359062 
C -0.890834 -3.359062 -1.745301 -3.00513 -2.375215 -2.375215 
C -3.00513 -1.745301 -3.359062 -0.890834 -3.359062 0 
C -3.359062 0.890834 -3.00513 1.745301 -2.375215 2.375215 
C -1.745301 3.00513 -0.890834 3.359062 0 3.359062 
z
" style="stroke: #fcfcfb; stroke-width: 0.6"/>
    </defs>
    <g clip-path="url(#p7e1320cff6)">
     <use xlink:href="#me23683af94" x="333.296712" y="86.397143" style="fill: #4a3aa7; stroke: #fcfcfb; stroke-width: 0.6"/>
    </g>
   </g>
   <g id="PathCollection_19">
    <defs>
     <path id="m76526d90ca" d="M 0 3.466522 
C 0.919332 3.466522 1.801135 3.101268 2.451201 2.451201 
C 3.101268 1.801135 3.466522 0.919332 3.466522 0 
C 3.466522 -0.919332 3.101268 -1.801135 2.451201 -2.451201 
C 1.801135 -3.101268 0.919332 -3.466522 0 -3.466522 
C -0.919332 -3.466522 -1.801135 -3.101268 -2.451201 -2.451201 
C -3.101268 -1.801135 -3.466522 -0.919332 -3.466522 0 
C -3.466522 0.919332 -3.101268 1.801135 -2.451201 2.451201 
C -1.801135 3.101268 -0.919332 3.466522 0 3.466522 
z
" style="stroke: #fcfcfb; stroke-width: 0.6"/>
    </defs>
    <g clip-path="url(#p7e1320cff6)">
     <use xlink:href="#m76526d90ca" x="387.909182" y="60.968571" style="fill: #4a3aa7; stroke: #fcfcfb; stroke-width: 0.6"/>
    </g>
   </g>
   <g id="PathCollection_20">
    <defs>
     <path id="m9846ea1945" d="M 0 3.571893 
C 0.947277 3.571893 1.855884 3.195536 2.52571 2.52571 
C 3.195536 1.855884 3.571893 0.947277 3.571893 0 
C 3.571893 -0.947277 3.195536 -1.855884 2.52571 -2.52571 
C 1.855884 -3.195536 0.947277 -3.571893 0 -3.571893 
C -0.947277 -3.571893 -1.855884 -3.195536 -2.52571 -2.52571 
C -3.195536 -1.855884 -3.571893 -0.947277 -3.571893 0 
C -3.571893 0.947277 -3.195536 1.855884 -2.52571 2.52571 
C -1.855884 3.195536 -0.947277 3.571893 0 3.571893 
z
" style="stroke: #fcfcfb; stroke-width: 0.6"/>
    </defs>
    <g clip-path="url(#p7e1320cff6)">
     <use xlink:href="#m9846ea1945" x="442.521651" y="35.54" style="fill: #4a3aa7; stroke: #fcfcfb; stroke-width: 0.6"/>
    </g>
   </g>
   <g id="text_19">
    <!-- Genus grows as $2^{m-1}$; the branch is set by $1 \in \mathrm{span}$ -->
    <g style="fill: #0b0b0b" transform="translate(41.12 18.64) scale(0.13 -0.13)">
     <defs>
      <path id="Cambria-99" d="M 2494 2334 
L 1675 -16 
L 1241 -16 
L 491 2303 
Q 419 2528 370 2620 
Q 322 2713 267 2758 
Q 213 2803 91 2834 
L 91 2988 
L 1325 2988 
L 1325 2834 
Q 1144 2797 1080 2736 
Q 1016 2675 1016 2553 
Q 1016 2469 1034 2376 
Q 1053 2284 1091 2163 
L 1581 569 
L 2384 2988 
L 2825 2988 
L 3506 569 
L 4056 2097 
Q 4100 2216 4128 2323 
Q 4156 2431 4156 2525 
Q 4156 2656 4086 2728 
Q 4016 2800 3847 2834 
L 3847 2988 
L 4938 2988 
L 4938 2834 
Q 4850 2813 4806 2789 
Q 4763 2766 4720 2720 
Q 4678 2675 4626 2579 
Q 4575 2484 4497 2284 
L 3594 -16 
L 3172 -16 
L 2494 2334 
z
" transform="scale(0.015625)"/>
      <path id="Cmsy10-11" d="M 653 1472 
Q 600 1472 565 1512 
Q 531 1553 531 1600 
Q 531 1647 565 1687 
Q 600 1728 653 1728 
L 4325 1728 
Q 4375 1728 4408 1687 
Q 4441 1647 4441 1600 
Q 4441 1553 4408 1512 
Q 4375 1472 4325 1472 
L 653 1472 
z
" transform="scale(0.015625)"/>
      <path id="Cambria-1e2" d="M 1119 725 
Q 1163 506 1163 294 
Q 1163 75 1088 -106 
Q 1013 -288 848 -467 
Q 684 -647 397 -863 
L 228 -672 
Q 388 -522 459 -401 
Q 531 -281 562 -128 
Q 594 25 594 256 
Q 594 494 572 725 
L 1119 725 
z
M 1156 2822 
L 1156 2091 
L 531 2091 
L 531 2822 
L 1156 2822 
z
" transform="scale(0.015625)"/>
      <path id="Cambria-96" d="M 116 2831 
Q 272 2856 369 2918 
Q 466 2981 520 3079 
Q 575 3178 606 3326 
Q 638 3475 672 3759 
L 1116 3759 
L 1116 2988 
L 2125 2988 
L 2125 2672 
L 1116 2672 
L 1116 1281 
Q 1116 978 1141 798 
Q 1166 619 1234 517 
Q 1303 416 1390 372 
Q 1478 328 1616 328 
Q 1741 328 1850 379 
Q 1959 431 2066 528 
L 2206 359 
Q 1984 144 1786 47 
Q 1588 -50 1375 -50 
Q 972 -50 775 189 
Q 578 428 578 938 
L 578 2672 
L 116 2672 
L 116 2831 
z
" transform="scale(0.015625)"/>
      <path id="Cambria-8a" d="M 1141 2497 
L 1153 2494 
Q 1397 2741 1539 2839 
Q 1681 2938 1820 2988 
Q 1959 3038 2119 3038 
Q 2291 3038 2425 2997 
Q 2559 2956 2661 2873 
Q 2763 2791 2827 2670 
Q 2891 2550 2922 2383 
Q 2953 2216 2953 1959 
L 2953 781 
Q 2953 509 2976 411 
Q 3000 313 3061 258 
Q 3122 203 3306 153 
L 3306 0 
L 2075 0 
L 2075 153 
Q 2197 191 2250 219 
Q 2303 247 2339 297 
Q 2375 347 2395 451 
Q 2416 556 2416 769 
L 2416 1588 
Q 2416 2003 2373 2223 
Q 2331 2444 2207 2553 
Q 2084 2663 1863 2663 
Q 1738 2663 1638 2619 
Q 1538 2575 1406 2462 
Q 1275 2350 1208 2231 
Q 1141 2113 1141 1978 
L 1141 781 
Q 1141 569 1152 478 
Q 1163 388 1194 327 
Q 1225 266 1289 227 
Q 1353 188 1488 153 
L 1488 0 
L 250 0 
L 250 153 
Q 388 191 447 225 
Q 506 259 539 312 
Q 572 366 587 466 
Q 603 566 603 781 
L 603 3397 
Q 603 3697 598 3815 
Q 594 3934 573 4017 
Q 553 4100 517 4147 
Q 481 4194 420 4222 
Q 359 4250 200 4278 
L 200 4441 
L 953 4472 
L 1141 4472 
L 1141 2497 
z
" transform="scale(0.015625)"/>
      <path id="Cambria-9b" d="M 1625 -256 
Q 1453 -644 1290 -884 
Q 1128 -1125 933 -1247 
Q 738 -1369 469 -1369 
Q 297 -1369 81 -1328 
L 81 -709 
L 359 -709 
Q 397 -838 453 -888 
Q 509 -938 616 -938 
Q 709 -938 782 -902 
Q 856 -866 936 -778 
Q 1016 -691 1123 -509 
Q 1231 -328 1366 -50 
L 491 2303 
Q 406 2531 354 2622 
Q 303 2713 243 2759 
Q 184 2806 63 2834 
L 63 2988 
L 1334 2988 
L 1334 2834 
Q 1188 2800 1128 2767 
Q 1069 2734 1041 2682 
Q 1013 2631 1013 2550 
Q 1013 2466 1033 2375 
Q 1053 2284 1097 2163 
L 1653 597 
L 2278 2097 
Q 2331 2222 2361 2326 
Q 2391 2431 2391 2522 
Q 2391 2656 2317 2725 
Q 2244 2794 2063 2834 
L 2063 2988 
L 3231 2988 
L 3231 2834 
Q 3109 2809 3043 2757 
Q 2978 2706 2912 2595 
Q 2847 2484 2756 2284 
L 1625 -256 
z
" transform="scale(0.015625)"/>
      <path id="Cmsy10-3b" d="M 1356 403 
Q 1838 0 2497 0 
L 3616 0 
Q 3666 0 3698 -37 
Q 3731 -75 3731 -128 
Q 3731 -175 3698 -215 
Q 3666 -256 3616 -256 
L 2478 -256 
Q 1969 -256 1519 -12 
Q 1069 231 800 657 
Q 531 1084 531 1600 
Q 531 2116 800 2542 
Q 1069 2969 1519 3212 
Q 1969 3456 2478 3456 
L 3616 3456 
Q 3666 3456 3698 3415 
Q 3731 3375 3731 3328 
Q 3731 3275 3698 3237 
Q 3666 3200 3616 3200 
L 2497 3200 
Q 2184 3200 1889 3097 
Q 1594 2994 1356 2797 
Q 1122 2600 958 2304 
Q 794 2009 794 1728 
L 3616 1728 
Q 3666 1728 3698 1687 
Q 3731 1647 3731 1600 
Q 3731 1553 3698 1512 
Q 3666 1472 3616 1472 
L 794 1472 
Q 794 1194 958 897 
Q 1122 600 1356 403 
z
" transform="scale(0.015625)"/>
     </defs>
     <use xlink:href="#Cambria-a" transform="translate(0 0.084203)"/>
     <use xlink:href="#Cambria-87" transform="translate(61.083984 0.084203)"/>
     <use xlink:href="#Cambria-90" transform="translate(109.863281 0.084203)"/>
     <use xlink:href="#Cambria-97" transform="translate(165.673828 0.084203)"/>
     <use xlink:href="#Cambria-95" transform="translate(220.898438 0.084203)"/>
     <use xlink:href="#Cambria-3" transform="translate(263.867188 0.084203)"/>
     <use xlink:href="#Cambria-89" transform="translate(285.888672 0.084203)"/>
     <use xlink:href="#Cambria-94" transform="translate(335.302734 0.084203)"/>
     <use xlink:href="#Cambria-91" transform="translate(376.660156 0.084203)"/>
     <use xlink:href="#Cambria-99" transform="translate(429.736328 0.084203)"/>
     <use xlink:href="#Cambria-95" transform="translate(507.177734 0.084203)"/>
     <use xlink:href="#Cambria-3" transform="translate(550.146484 0.084203)"/>
     <use xlink:href="#Cambria-83" transform="translate(572.167969 0.084203)"/>
     <use xlink:href="#Cambria-95" transform="translate(620.996094 0.084203)"/>
     <use xlink:href="#Cambria-3" transform="translate(663.964844 0.084203)"/>
     <use xlink:href="#Cmr10-31" transform="translate(685.986328 0.084203)"/>
     <use xlink:href="#Cmmi10-45" transform="translate(739.990619 41.373437) scale(0.7)"/>
     <use xlink:href="#Cmsy10-11" transform="translate(815.445737 41.373437) scale(0.7)"/>
     <use xlink:href="#Cmr10-64" transform="translate(883.82566 41.373437) scale(0.7)"/>
     <use xlink:href="#Cambria-1e2" transform="translate(924.546075 0.084203)"/>
     <use xlink:href="#Cambria-3" transform="translate(950.913263 0.084203)"/>
     <use xlink:href="#Cambria-96" transform="translate(972.934747 0.084203)"/>
     <use xlink:href="#Cambria-8a" transform="translate(1006.772638 0.084203)"/>
     <use xlink:href="#Cambria-87" transform="translate(1061.948419 0.084203)"/>
     <use xlink:href="#Cambria-3" transform="translate(1110.727716 0.084203)"/>
     <use xlink:href="#Cambria-84" transform="translate(1132.7492 0.084203)"/>
     <use xlink:href="#Cambria-94" transform="translate(1187.485529 0.084203)"/>
     <use xlink:href="#Cambria-83" transform="translate(1228.84295 0.084203)"/>
     <use xlink:href="#Cambria-90" transform="translate(1277.671075 0.084203)"/>
     <use xlink:href="#Cambria-85" transform="translate(1333.481622 0.084203)"/>
     <use xlink:href="#Cambria-8a" transform="translate(1377.573419 0.084203)"/>
     <use xlink:href="#Cambria-3" transform="translate(1432.7492 0.084203)"/>
     <use xlink:href="#Cambria-8b" transform="translate(1454.770685 0.084203)"/>
     <use xlink:href="#Cambria-95" transform="translate(1482.553888 0.084203)"/>
     <use xlink:href="#Cambria-3" transform="translate(1525.522638 0.084203)"/>
     <use xlink:href="#Cambria-95" transform="translate(1547.544122 0.084203)"/>
     <use xlink:href="#Cambria-87" transform="translate(1590.512872 0.084203)"/>
     <use xlink:href="#Cambria-96" transform="translate(1639.292169 0.084203)"/>
     <use xlink:href="#Cambria-3" transform="translate(1673.13006 0.084203)"/>
     <use xlink:href="#Cambria-84" transform="translate(1695.151544 0.084203)"/>
     <use xlink:href="#Cambria-9b" transform="translate(1749.887872 0.084203)"/>
     <use xlink:href="#Cambria-3" transform="translate(1800.278497 0.084203)"/>
     <use xlink:href="#Cmr10-64" transform="translate(1822.299982 0.084203)"/>
     <use xlink:href="#Cmsy10-3b" transform="translate(1892.300039 0.084203)"/>
     <use xlink:href="#Cmr10-52" transform="translate(1978.901659 0.084203)"/>
     <use xlink:href="#Cmr10-7d" transform="translate(2018.305956 0.084203)"/>
     <use xlink:href="#Cmr10-73" transform="translate(2073.823534 0.084203)"/>
     <use xlink:href="#Cmr10-74" transform="translate(2123.823534 0.084203)"/>
    </g>
   </g>
   <g id="legend_1">
    <g id="line2d_35">
     <path d="M 48.32 38.08 
L 56.32 38.08 
L 64.32 38.08 
" style="fill: none; stroke-dasharray: 4.07,1.76; stroke-dashoffset: 0; stroke: #898781; stroke-width: 1.1"/>
    </g>
    <g id="text_20">
     <!-- $g = 2^{m-1}$ (upper branch) -->
     <g transform="translate(70.72 40.88) scale(0.08 -0.08)">
      <defs>
       <path id="Cambria-92" d="M 1150 94 
L 1150 -566 
Q 1150 -769 1164 -869 
Q 1178 -969 1214 -1026 
Q 1250 -1084 1317 -1121 
Q 1384 -1159 1534 -1191 
L 1534 -1344 
L 259 -1344 
L 259 -1191 
Q 372 -1159 442 -1126 
Q 513 -1094 550 -1030 
Q 588 -966 600 -856 
Q 613 -747 613 -566 
L 613 2116 
Q 613 2341 606 2436 
Q 600 2531 581 2593 
Q 563 2656 527 2697 
Q 491 2738 430 2766 
Q 369 2794 228 2822 
L 228 2988 
L 963 3016 
L 1153 3016 
L 1113 2506 
L 1159 2494 
Q 1353 2691 1465 2780 
Q 1578 2869 1698 2928 
Q 1819 2988 1930 3013 
Q 2041 3038 2166 3038 
Q 2681 3038 2957 2652 
Q 3234 2266 3234 1522 
Q 3234 1006 3078 654 
Q 2922 303 2623 126 
Q 2325 -50 1913 -50 
Q 1681 -50 1493 -11 
Q 1306 28 1150 94 
z
M 1150 1125 
Q 1150 825 1187 662 
Q 1225 500 1320 398 
Q 1416 297 1545 247 
Q 1675 197 1888 197 
Q 2266 197 2456 511 
Q 2647 825 2647 1438 
Q 2647 2663 1931 2663 
Q 1756 2663 1629 2608 
Q 1503 2553 1378 2431 
Q 1253 2309 1201 2195 
Q 1150 2081 1150 1950 
L 1150 1125 
z
" transform="scale(0.015625)"/>
      </defs>
      <use xlink:href="#Cmmi10-2f" transform="translate(0 0.084203)"/>
      <use xlink:href="#Cmr10-29" transform="translate(67.705135 0.084203)"/>
      <use xlink:href="#Cmr10-31" transform="translate(165.390739 0.084203)"/>
      <use xlink:href="#Cmmi10-45" transform="translate(219.39503 41.373437) scale(0.7)"/>
      <use xlink:href="#Cmsy10-11" transform="translate(294.850148 41.373437) scale(0.7)"/>
      <use xlink:href="#Cmr10-64" transform="translate(363.230071 41.373437) scale(0.7)"/>
      <use xlink:href="#Cambria-3" transform="translate(403.950487 0.084203)"/>
      <use xlink:href="#Cambria-20b" transform="translate(425.971971 0.084203)"/>
      <use xlink:href="#Cambria-97" transform="translate(464.155565 0.084203)"/>
      <use xlink:href="#Cambria-92" transform="translate(519.380174 0.084203)"/>
      <use xlink:href="#Cambria-92" transform="translate(574.995409 0.084203)"/>
      <use xlink:href="#Cambria-87" transform="translate(630.610643 0.084203)"/>
      <use xlink:href="#Cambria-94" transform="translate(679.38994 0.084203)"/>
      <use xlink:href="#Cambria-3" transform="translate(720.747362 0.084203)"/>
      <use xlink:href="#Cambria-84" transform="translate(742.768846 0.084203)"/>
      <use xlink:href="#Cambria-94" transform="translate(797.505174 0.084203)"/>
      <use xlink:href="#Cambria-83" transform="translate(838.862596 0.084203)"/>
      <use xlink:href="#Cambria-90" transform="translate(887.690721 0.084203)"/>
      <use xlink:href="#Cambria-85" transform="translate(943.501268 0.084203)"/>
      <use xlink:href="#Cambria-8a" transform="translate(987.593065 0.084203)"/>
      <use xlink:href="#Cambria-20c" transform="translate(1042.768846 0.084203)"/>
     </g>
    </g>
    <g id="line2d_36">
     <path d="M 48.32 50.897344 
L 56.32 50.897344 
L 64.32 50.897344 
" style="fill: none; stroke-dasharray: 1,1.65; stroke-dashoffset: 0; stroke: #52514e"/>
    </g>
    <g id="text_21">
     <!-- $g = 2^{m-1}-1$ (lower branch) -->
     <g transform="translate(70.72 53.697344) scale(0.08 -0.08)">
      <use xlink:href="#Cmmi10-2f" transform="translate(0 0.084203)"/>
      <use xlink:href="#Cmr10-29" transform="translate(67.705135 0.084203)"/>
      <use xlink:href="#Cmr10-31" transform="translate(165.390739 0.084203)"/>
      <use xlink:href="#Cmmi10-45" transform="translate(219.39503 41.373437) scale(0.7)"/>
      <use xlink:href="#Cmsy10-11" transform="translate(294.850148 41.373437) scale(0.7)"/>
      <use xlink:href="#Cmr10-64" transform="translate(363.230071 41.373437) scale(0.7)"/>
      <use xlink:href="#Cmsy10-11" transform="translate(423.950544 0.084203)"/>
      <use xlink:href="#Cmr10-64" transform="translate(521.636148 0.084203)"/>
      <use xlink:href="#Cambria-3" transform="translate(571.636148 0.084203)"/>
      <use xlink:href="#Cambria-20b" transform="translate(593.657632 0.084203)"/>
      <use xlink:href="#Cambria-8e" transform="translate(631.841226 0.084203)"/>
      <use xlink:href="#Cambria-91" transform="translate(658.989664 0.084203)"/>
      <use xlink:href="#Cambria-99" transform="translate(712.065836 0.084203)"/>
      <use xlink:href="#Cambria-87" transform="translate(789.507242 0.084203)"/>
      <use xlink:href="#Cambria-94" transform="translate(838.286539 0.084203)"/>
      <use xlink:href="#Cambria-3" transform="translate(879.643961 0.084203)"/>
      <use xlink:href="#Cambria-84" transform="translate(901.665445 0.084203)"/>
      <use xlink:href="#Cambria-94" transform="translate(956.401773 0.084203)"/>
      <use xlink:href="#Cambria-83" transform="translate(997.759195 0.084203)"/>
      <use xlink:href="#Cambria-90" transform="translate(1046.58732 0.084203)"/>
      <use xlink:href="#Cambria-85" transform="translate(1102.397867 0.084203)"/>
      <use xlink:href="#Cambria-8a" transform="translate(1146.489664 0.084203)"/>
      <use xlink:href="#Cambria-20c" transform="translate(1201.665445 0.084203)"/>
     </g>
    </g>
    <g id="PathCollection_21">
     <g>
      <use xlink:href="#mfb67d3cada" x="56.32" y="63.597344" style="fill: #2a78d6; stroke: #fcfcfb; stroke-width: 0.6"/>
     </g>
    </g>
    <g id="text_22">
     <!-- n = 4 -->
     <g transform="translate(70.72 65.697344) scale(0.08 -0.08)">
      <defs>
       <path id="Cambria-3b1" d="M 388 2259 
L 388 2694 
L 3156 2694 
L 3156 2259 
L 388 2259 
z
M 388 963 
L 388 1397 
L 3156 1397 
L 3156 963 
L 388 963 
z
" transform="scale(0.015625)"/>
      </defs>
      <use xlink:href="#Cambria-90"/>
      <use xlink:href="#Cambria-3" transform="translate(55.8125 0)"/>
      <use xlink:href="#Cambria-3b1" transform="translate(77.828125 0)"/>
      <use xlink:href="#Cambria-3" transform="translate(133.203125 0)"/>
      <use xlink:href="#Cambria-376" transform="translate(155.21875 0)"/>
     </g>
    </g>
    <g id="PathCollection_22">
     <g>
      <use xlink:href="#mfbe760ab47" x="56.32" y="75.597344" style="fill: #eb6834; stroke: #fcfcfb; stroke-width: 0.6"/>
     </g>
    </g>
    <g id="text_23">
     <!-- n = 6 -->
     <g transform="translate(70.72 77.697344) scale(0.08 -0.08)">
      <use xlink:href="#Cambria-90"/>
      <use xlink:href="#Cambria-3" transform="translate(55.8125 0)"/>
      <use xlink:href="#Cambria-3b1" transform="translate(77.828125 0)"/>
      <use xlink:href="#Cambria-3" transform="translate(133.203125 0)"/>
      <use xlink:href="#Cambria-378" transform="translate(155.21875 0)"/>
     </g>
    </g>
    <g id="PathCollection_23">
     <g>
      <use xlink:href="#ma3148d510c" x="56.32" y="87.597344" style="fill: #4a3aa7; stroke: #fcfcfb; stroke-width: 0.6"/>
     </g>
    </g>
    <g id="text_24">
     <!-- n = 8 -->
     <g transform="translate(70.72 89.697344) scale(0.08 -0.08)">
      <use xlink:href="#Cambria-90"/>
      <use xlink:href="#Cambria-3" transform="translate(55.8125 0)"/>
      <use xlink:href="#Cambria-3b1" transform="translate(77.828125 0)"/>
      <use xlink:href="#Cambria-3" transform="translate(133.203125 0)"/>
      <use xlink:href="#Cambria-37a" transform="translate(155.21875 0)"/>
     </g>
    </g>
    <g id="line2d_37">
     <path d="M 48.32 98.897344 
L 56.32 98.897344 
L 64.32 98.897344 
" style="fill: none; stroke: #ffffff; stroke-width: 2; stroke-linecap: square"/>
     <defs>
      <path id="m81cb99986d" d="M 0 3.5 
C 0.928211 3.5 1.81853 3.131218 2.474874 2.474874 
C 3.131218 1.81853 3.5 0.928211 3.5 0 
C 3.5 -0.928211 3.131218 -1.81853 2.474874 -2.474874 
C 1.81853 -3.131218 0.928211 -3.5 0 -3.5 
C -0.928211 -3.5 -1.81853 -3.131218 -2.474874 -2.474874 
C -3.131218 -1.81853 -3.5 -0.928211 -3.5 0 
C -3.5 0.928211 -3.131218 1.81853 -2.474874 2.474874 
C -1.81853 3.131218 -0.928211 3.5 0 3.5 
z
" style="stroke: #ffffff"/>
     </defs>
     <g>
      <use xlink:href="#m81cb99986d" x="56.32" y="98.897344" style="fill: #898781; stroke: #ffffff"/>
     </g>
    </g>
    <g id="text_25">
     <!-- upper branch ($1 \in$ span) -->
     <g transform="translate(70.72 101.697344) scale(0.08 -0.08)">
      <use xlink:href="#Cambria-97" transform="translate(0 0.9375)"/>
      <use xlink:href="#Cambria-92" transform="translate(55.224609 0.9375)"/>
      <use xlink:href="#Cambria-92" transform="translate(110.839844 0.9375)"/>
      <use xlink:href="#Cambria-87" transform="translate(166.455078 0.9375)"/>
      <use xlink:href="#Cambria-94" transform="translate(215.234375 0.9375)"/>
      <use xlink:href="#Cambria-3" transform="translate(256.591797 0.9375)"/>
      <use xlink:href="#Cambria-84" transform="translate(278.613281 0.9375)"/>
      <use xlink:href="#Cambria-94" transform="translate(333.349609 0.9375)"/>
      <use xlink:href="#Cambria-83" transform="translate(374.707031 0.9375)"/>
      <use xlink:href="#Cambria-90" transform="translate(423.535156 0.9375)"/>
      <use xlink:href="#Cambria-85" transform="translate(479.345703 0.9375)"/>
      <use xlink:href="#Cambria-8a" transform="translate(523.4375 0.9375)"/>
      <use xlink:href="#Cambria-3" transform="translate(578.613281 0.9375)"/>
      <use xlink:href="#Cambria-20b" transform="translate(600.634766 0.9375)"/>
      <use xlink:href="#Cmr10-64" transform="translate(638.818359 0.9375)"/>
      <use xlink:href="#Cmsy10-3b" transform="translate(708.818417 0.9375)"/>
      <use xlink:href="#Cambria-3" transform="translate(795.420036 0.9375)"/>
      <use xlink:href="#Cambria-95" transform="translate(817.441521 0.9375)"/>
      <use xlink:href="#Cambria-92" transform="translate(860.410271 0.9375)"/>
      <use xlink:href="#Cambria-83" transform="translate(916.025505 0.9375)"/>
      <use xlink:href="#Cambria-90" transform="translate(964.85363 0.9375)"/>
      <use xlink:href="#Cambria-20c" transform="translate(1020.664177 0.9375)"/>
     </g>
    </g>
    <g id="line2d_38">
     <path d="M 48.32 110.897344 
L 56.32 110.897344 
L 64.32 110.897344 
" style="fill: none; stroke: #ffffff; stroke-width: 2; stroke-linecap: square"/>
     <defs>
      <path id="maf5bcac237" d="M -3.5 3.5 
L 3.5 3.5 
L 3.5 -3.5 
L -3.5 -3.5 
z
" style="stroke: #ffffff; stroke-linejoin: miter"/>
     </defs>
     <g>
      <use xlink:href="#maf5bcac237" x="56.32" y="110.897344" style="fill: #898781; stroke: #ffffff; stroke-linejoin: miter"/>
     </g>
    </g>
    <g id="text_26">
     <!-- lower branch ($1 \notin$ span) -->
     <g transform="translate(70.72 113.697344) scale(0.08 -0.08)">
      <defs>
       <path id="STIXGeneral-Regular-41c" d="M 4000 -173 
L 2138 -173 
Q 1837 -173 1549 -70 
L 1082 -1005 
L 685 -1005 
L 1229 83 
Q 838 320 611 729 
Q 384 1139 384 1613 
Q 384 2342 877 2870 
Q 1370 3398 2118 3398 
L 2880 3398 
L 3296 4237 
L 3693 4237 
L 3277 3398 
L 4000 3398 
L 4000 2976 
L 3066 2976 
L 2490 1824 
L 4000 1824 
L 4000 1402 
L 2285 1402 
L 1741 314 
Q 1952 250 2138 250 
L 4000 250 
L 4000 -173 
z
M 2669 2976 
L 2144 2976 
Q 1664 2976 1286 2633 
Q 909 2291 826 1824 
L 2093 1824 
L 2669 2976 
z
M 1888 1402 
L 819 1402 
Q 922 819 1427 480 
L 1888 1402 
z
" transform="scale(0.015625)"/>
      </defs>
      <use xlink:href="#Cambria-8e" transform="translate(0 0.9375)"/>
      <use xlink:href="#Cambria-91" transform="translate(27.148438 0.9375)"/>
      <use xlink:href="#Cambria-99" transform="translate(80.224609 0.9375)"/>
      <use xlink:href="#Cambria-87" transform="translate(157.666016 0.9375)"/>
      <use xlink:href="#Cambria-94" transform="translate(206.445312 0.9375)"/>
      <use xlink:href="#Cambria-3" transform="translate(247.802734 0.9375)"/>
      <use xlink:href="#Cambria-84" transform="translate(269.824219 0.9375)"/>
      <use xlink:href="#Cambria-94" transform="translate(324.560547 0.9375)"/>
      <use xlink:href="#Cambria-83" transform="translate(365.917969 0.9375)"/>
      <use xlink:href="#Cambria-90" transform="translate(414.746094 0.9375)"/>
      <use xlink:href="#Cambria-85" transform="translate(470.556641 0.9375)"/>
      <use xlink:href="#Cambria-8a" transform="translate(514.648438 0.9375)"/>
      <use xlink:href="#Cambria-3" transform="translate(569.824219 0.9375)"/>
      <use xlink:href="#Cambria-20b" transform="translate(591.845703 0.9375)"/>
      <use xlink:href="#Cmr10-64" transform="translate(630.029297 0.9375)"/>
      <use xlink:href="#STIXGeneral-Regular-41c" transform="translate(700.029354 0.9375)"/>
      <use xlink:href="#Cambria-3" transform="translate(788.52935 0.9375)"/>
      <use xlink:href="#Cambria-95" transform="translate(810.550835 0.9375)"/>
      <use xlink:href="#Cambria-92" transform="translate(853.519585 0.9375)"/>
      <use xlink:href="#Cambria-83" transform="translate(909.134819 0.9375)"/>
      <use xlink:href="#Cambria-90" transform="translate(957.962944 0.9375)"/>
      <use xlink:href="#Cambria-20c" transform="translate(1013.773491 0.9375)"/>
     </g>
    </g>
   </g>
  </g>
 </g>
 <defs>
  <clipPath id="p7e1320cff6">
   <rect x="41.12" y="26.64" width="420.516016" height="195.8"/>
  </clipPath>
 </defs>
</svg>
