<?xml version="1.0" encoding="utf-8" standalone="no"?>
<!DOCTYPE svg PUBLIC "-//W3C//DTD SVG 1.1//EN"
  "http://www.w3.org/Graphics/SVG/1.1/DTD/svg11.dtd">
<svg xmlns:xlink="http://www.w3.org/1999/xlink" width="425.798906pt" height="253.166016pt" viewBox="0 0 425.798906 253.166016" xmlns="http://www.w3.org/2000/svg" version="1.1">
 <metadata>
  <rdf:RDF xmlns:dc="http://purl.org/dc/elements/1.1/" xmlns:cc="http://creativecommons.org/ns#" xmlns:rdf="http://www.w3.org/1999/02/22-rdf-syntax-ns#">
   <cc:Work>
    <dc:type rdf:resource="http://purl.org/dc/dcmitype/StillImage"/>
    <dc:date>2026-07-23T00:46:18.770359</dc:date>
    <dc:format>image/svg+xml</dc:format>
    <dc:creator>
     <cc:Agent>
      <dc:title>Matplotlib v3.11.1, https://matplotlib.org/</dc:title>
     </cc:Agent>
    </dc:creator>
   </cc:Work>
  </rdf:RDF>
 </metadata>
 <defs>
  <style type="text/css">*{stroke-linejoin: round; stroke-linecap: butt}</style>
 </defs>
 <g id="figure_1">
  <g id="patch_1">
   <path d="M 0 253.166016 
L 425.798906 253.166016 
L 425.798906 0 
L 0 0 
z
" style="fill: #fcfcfb"/>
  </g>
  <g id="axes_1">
   <g id="patch_2">
    <path d="M 43.982891 212.466016 
L 418.598906 212.466016 
L 418.598906 25.311816 
L 43.982891 25.311816 
z
" style="fill: #fcfcfb"/>
   </g>
   <g id="matplotlib.axis_1">
    <g id="xtick_1">
     <g id="line2d_1">
      <path d="M 61.010891 212.466016 
L 61.010891 25.311816 
" clip-path="url(#p447d0285a5)" style="fill: none; stroke: #e1e0d9; stroke-width: 0.7; stroke-linecap: square"/>
     </g>
     <g id="line2d_2">
      <defs>
       <path id="md6b6ca57c6" d="M 0 0 
L 0 3.5 
" style="stroke: #898781; stroke-width: 0.8"/>
      </defs>
      <g>
       <use xlink:href="#md6b6ca57c6" x="61.010891" y="212.466016" style="fill: #898781; stroke: #898781; stroke-width: 0.8"/>
      </g>
     </g>
     <g id="text_1">
      <!-- 12 -->
      <g style="fill: #52514e" transform="translate(55.196516 227.633252) scale(0.105 -0.105)">
       <defs>
        <path id="Cambria-373" d="M 2172 816 
Q 2172 634 2192 542 
Q 2213 450 2264 392 
Q 2316 334 2412 301 
Q 2509 269 2656 251 
Q 2803 234 3044 228 
L 3044 0 
L 734 0 
L 734 228 
Q 1081 244 1229 270 
Q 1378 297 1456 350 
Q 1534 403 1570 500 
Q 1606 597 1606 816 
L 1606 3350 
Q 1606 3475 1562 3533 
Q 1519 3591 1434 3591 
Q 1334 3591 1150 3487 
Q 966 3384 694 3203 
L 556 3444 
L 2019 4316 
L 2191 4316 
Q 2172 4016 2172 3484 
L 2172 816 
z
" transform="scale(0.015625)"/>
        <path id="Cambria-374" d="M 2194 500 
Q 2347 500 2440 519 
Q 2534 538 2590 581 
Q 2647 625 2680 695 
Q 2713 766 2763 913 
L 3028 913 
L 2975 0 
L 403 0 
L 403 150 
Q 538 478 766 822 
Q 994 1166 1413 1631 
Q 1775 2031 1934 2238 
Q 2109 2463 2195 2627 
Q 2281 2791 2318 2936 
Q 2356 3081 2356 3228 
Q 2356 3463 2281 3642 
Q 2206 3822 2051 3925 
Q 1897 4028 1663 4028 
Q 1078 4028 875 3378 
L 497 3378 
L 497 3978 
Q 875 4156 1204 4236 
Q 1534 4316 1797 4316 
Q 2378 4316 2675 4061 
Q 2972 3806 2972 3322 
Q 2972 3156 2939 3017 
Q 2906 2878 2836 2742 
Q 2766 2606 2647 2450 
Q 2528 2294 2384 2133 
Q 2241 1972 1888 1597 
Q 1294 969 1016 500 
L 2194 500 
z
" transform="scale(0.015625)"/>
       </defs>
       <use xlink:href="#Cambria-373"/>
       <use xlink:href="#Cambria-374" transform="translate(55.375 0)"/>
      </g>
     </g>
    </g>
    <g id="xtick_2">
     <g id="line2d_3">
      <path d="M 174.530896 212.466016 
L 174.530896 25.311816 
" clip-path="url(#p447d0285a5)" style="fill: none; stroke: #e1e0d9; stroke-width: 0.7; stroke-linecap: square"/>
     </g>
     <g id="line2d_4">
      <g>
       <use xlink:href="#md6b6ca57c6" x="174.530896" y="212.466016" style="fill: #898781; stroke: #898781; stroke-width: 0.8"/>
      </g>
     </g>
     <g id="text_2">
      <!-- 14 -->
      <g style="fill: #52514e" transform="translate(168.716521 227.633252) scale(0.105 -0.105)">
       <defs>
        <path id="Cambria-376" d="M 1613 153 
Q 1806 203 1872 264 
Q 1938 325 1958 437 
Q 1978 550 1978 781 
L 1978 1294 
L 241 1294 
L 241 1528 
L 2069 4288 
L 2516 4288 
L 2516 1597 
L 2581 1597 
Q 2763 1597 2841 1623 
Q 2919 1650 2970 1717 
Q 3022 1784 3066 1938 
L 3303 1938 
L 3266 1294 
L 2516 1294 
L 2516 781 
Q 2516 572 2530 475 
Q 2544 378 2576 322 
Q 2609 266 2673 228 
Q 2738 191 2881 153 
L 2881 0 
L 1613 0 
L 1613 153 
z
M 756 1597 
L 1978 1597 
L 1978 2375 
Q 1978 2669 1987 3033 
Q 1997 3397 2009 3581 
L 1978 3581 
L 756 1641 
L 756 1597 
z
" transform="scale(0.015625)"/>
       </defs>
       <use xlink:href="#Cambria-373"/>
       <use xlink:href="#Cambria-376" transform="translate(55.375 0)"/>
      </g>
     </g>
    </g>
    <g id="xtick_3">
     <g id="line2d_5">
      <path d="M 288.050901 212.466016 
L 288.050901 25.311816 
" clip-path="url(#p447d0285a5)" style="fill: none; stroke: #e1e0d9; stroke-width: 0.7; stroke-linecap: square"/>
     </g>
     <g id="line2d_6">
      <g>
       <use xlink:href="#md6b6ca57c6" x="288.050901" y="212.466016" style="fill: #898781; stroke: #898781; stroke-width: 0.8"/>
      </g>
     </g>
     <g id="text_3">
      <!-- 16 -->
      <g style="fill: #52514e" transform="translate(282.236526 227.633252) scale(0.105 -0.105)">
       <defs>
        <path id="Cambria-378" d="M 2847 4144 
L 2847 3991 
Q 2366 3991 1994 3784 
Q 1622 3578 1376 3178 
Q 1131 2778 1031 2228 
L 1063 2216 
Q 1325 2403 1579 2490 
Q 1834 2578 2131 2578 
Q 2484 2578 2732 2423 
Q 2981 2269 3106 1989 
Q 3231 1709 3231 1334 
Q 3231 928 3075 617 
Q 2919 306 2592 128 
Q 2266 -50 1788 -50 
Q 1103 -50 754 375 
Q 406 800 406 1628 
Q 406 2184 581 2668 
Q 756 3153 1078 3514 
Q 1400 3875 1825 4083 
Q 2250 4291 2719 4316 
L 2847 4144 
z
M 1916 2250 
Q 1763 2250 1620 2215 
Q 1478 2181 1353 2115 
Q 1228 2050 1109 1950 
Q 1072 1916 1053 1878 
Q 1022 1819 1012 1731 
Q 1003 1644 1003 1438 
Q 1003 841 1203 528 
Q 1403 216 1809 216 
Q 2044 216 2203 297 
Q 2363 378 2461 520 
Q 2559 663 2601 855 
Q 2644 1047 2644 1272 
Q 2644 1734 2453 1992 
Q 2263 2250 1916 2250 
z
" transform="scale(0.015625)"/>
       </defs>
       <use xlink:href="#Cambria-373"/>
       <use xlink:href="#Cambria-378" transform="translate(55.375 0)"/>
      </g>
     </g>
    </g>
    <g id="xtick_4">
     <g id="line2d_7">
      <path d="M 401.570906 212.466016 
L 401.570906 25.311816 
" clip-path="url(#p447d0285a5)" style="fill: none; stroke: #e1e0d9; stroke-width: 0.7; stroke-linecap: square"/>
     </g>
     <g id="line2d_8">
      <g>
       <use xlink:href="#md6b6ca57c6" x="401.570906" y="212.466016" style="fill: #898781; stroke: #898781; stroke-width: 0.8"/>
      </g>
     </g>
     <g id="text_4">
      <!-- 18 -->
      <g style="fill: #52514e" transform="translate(395.756531 227.633252) scale(0.105 -0.105)">
       <defs>
        <path id="Cambria-37a" d="M 2475 2253 
L 2481 2213 
Q 2834 2075 3015 1811 
Q 3197 1547 3197 1175 
Q 3197 809 3022 531 
Q 2847 253 2514 101 
Q 2181 -50 1738 -50 
Q 1322 -50 1008 89 
Q 694 228 520 495 
Q 347 763 347 1125 
Q 347 1397 440 1597 
Q 534 1797 686 1926 
Q 838 2056 1069 2163 
L 1063 2203 
Q 391 2494 391 3200 
Q 391 3522 567 3775 
Q 744 4028 1070 4172 
Q 1397 4316 1794 4316 
Q 2244 4316 2550 4189 
Q 2856 4063 3011 3823 
Q 3166 3584 3166 3250 
Q 3166 2906 2997 2657 
Q 2828 2409 2475 2253 
z
M 978 3228 
Q 978 3044 1022 2881 
Q 1066 2719 1162 2600 
Q 1259 2481 1414 2411 
Q 1569 2341 1794 2341 
Q 2053 2341 2229 2442 
Q 2406 2544 2492 2739 
Q 2578 2934 2578 3191 
Q 2578 3472 2476 3667 
Q 2375 3863 2197 3956 
Q 2019 4050 1788 4050 
Q 1394 4050 1186 3836 
Q 978 3622 978 3228 
z
M 944 1178 
Q 944 975 991 798 
Q 1038 622 1139 494 
Q 1241 366 1400 291 
Q 1559 216 1788 216 
Q 2044 216 2226 320 
Q 2409 425 2504 631 
Q 2600 838 2600 1119 
Q 2600 1419 2497 1636 
Q 2394 1853 2206 1967 
Q 2019 2081 1772 2081 
Q 1541 2081 1383 2009 
Q 1225 1938 1126 1816 
Q 1028 1694 986 1530 
Q 944 1366 944 1178 
z
" transform="scale(0.015625)"/>
       </defs>
       <use xlink:href="#Cambria-373"/>
       <use xlink:href="#Cambria-37a" transform="translate(55.375 0)"/>
      </g>
     </g>
    </g>
    <g id="text_5">
     <!-- field size (bits of $p$) -->
     <g style="fill: #0b0b0b" transform="translate(182.570898 243.3) scale(0.12 -0.12)">
      <defs>
       <path id="Cambria-88" d="M 1909 2672 
L 1163 2672 
L 1163 781 
Q 1163 572 1183 465 
Q 1203 359 1242 304 
Q 1281 250 1345 217 
Q 1409 184 1550 153 
L 1550 0 
L 272 0 
L 272 153 
Q 409 191 468 225 
Q 528 259 561 312 
Q 594 366 609 466 
Q 625 566 625 781 
L 625 2672 
L 247 2672 
L 247 2831 
Q 366 2850 405 2861 
Q 444 2872 480 2894 
Q 516 2916 542 2956 
Q 569 2997 589 3076 
Q 609 3156 622 3300 
Q 650 3641 745 3853 
Q 841 4066 1023 4216 
Q 1206 4366 1414 4427 
Q 1622 4488 1903 4488 
Q 2150 4488 2322 4453 
L 2322 3888 
L 2013 3888 
Q 1953 4072 1873 4148 
Q 1794 4225 1650 4225 
Q 1547 4225 1476 4197 
Q 1406 4169 1347 4109 
Q 1288 4050 1245 3950 
Q 1203 3850 1183 3701 
Q 1163 3553 1163 3316 
L 1163 2988 
L 1909 2988 
L 1909 2672 
z
" transform="scale(0.015625)"/>
       <path id="Cambria-8b" d="M 1197 4213 
L 1197 3606 
L 622 3606 
L 622 4213 
L 1197 4213 
z
M 303 153 
Q 425 191 476 219 
Q 528 247 564 297 
Q 600 347 620 450 
Q 641 553 641 772 
L 641 2134 
Q 641 2334 634 2456 
Q 628 2578 590 2651 
Q 553 2725 476 2761 
Q 400 2797 259 2822 
L 259 2988 
L 988 3016 
L 1178 3016 
L 1178 781 
Q 1178 513 1203 408 
Q 1228 303 1298 248 
Q 1369 194 1528 153 
L 1528 0 
L 303 0 
L 303 153 
z
" transform="scale(0.015625)"/>
       <path id="Cambria-87" d="M 2800 531 
Q 2600 322 2433 203 
Q 2266 84 2066 17 
Q 1866 -50 1625 -50 
Q 981 -50 653 336 
Q 325 722 325 1475 
Q 325 1941 492 2297 
Q 659 2653 968 2847 
Q 1278 3041 1681 3041 
Q 1997 3041 2219 2941 
Q 2441 2841 2573 2667 
Q 2706 2494 2779 2230 
Q 2853 1966 2863 1541 
L 894 1541 
L 894 1484 
Q 894 1116 976 864 
Q 1059 613 1248 470 
Q 1438 328 1741 328 
Q 1997 328 2201 423 
Q 2406 519 2609 734 
L 2800 531 
z
M 2275 1800 
Q 2256 2138 2190 2352 
Q 2125 2566 1994 2680 
Q 1863 2794 1650 2794 
Q 1328 2794 1136 2536 
Q 944 2278 909 1800 
L 2275 1800 
z
" transform="scale(0.015625)"/>
       <path id="Cambria-8e" d="M 1138 781 
Q 1138 513 1163 408 
Q 1188 303 1258 248 
Q 1328 194 1488 153 
L 1488 0 
L 247 0 
L 247 153 
Q 403 194 464 237 
Q 525 281 551 342 
Q 578 403 589 508 
Q 600 613 600 781 
L 600 3397 
Q 600 3697 595 3815 
Q 591 3934 570 4017 
Q 550 4100 514 4147 
Q 478 4194 417 4222 
Q 356 4250 197 4278 
L 197 4441 
L 950 4472 
L 1138 4472 
L 1138 781 
z
" transform="scale(0.015625)"/>
       <path id="Cambria-86" d="M 2413 3397 
Q 2413 3697 2408 3815 
Q 2403 3934 2383 4017 
Q 2363 4100 2327 4147 
Q 2291 4194 2230 4222 
Q 2169 4250 2009 4278 
L 2009 4441 
L 2766 4472 
L 2950 4472 
L 2950 853 
Q 2950 609 2959 504 
Q 2969 400 3000 337 
Q 3031 275 3098 236 
Q 3166 197 3334 163 
L 3334 0 
L 2597 -31 
L 2409 -31 
L 2447 481 
L 2400 494 
Q 2203 284 2058 179 
Q 1913 75 1748 12 
Q 1584 -50 1397 -50 
Q 884 -50 606 339 
Q 328 728 328 1463 
Q 328 1975 509 2333 
Q 691 2691 998 2866 
Q 1306 3041 1691 3041 
Q 1897 3041 2065 3008 
Q 2234 2975 2413 2900 
L 2413 3397 
z
M 2413 1853 
Q 2413 2097 2391 2244 
Q 2369 2391 2317 2491 
Q 2266 2591 2178 2659 
Q 2091 2728 1986 2759 
Q 1881 2791 1734 2791 
Q 1334 2791 1125 2470 
Q 916 2150 916 1550 
Q 916 950 1087 637 
Q 1259 325 1609 325 
Q 1747 325 1837 348 
Q 1928 372 2015 423 
Q 2103 475 2193 565 
Q 2284 656 2326 731 
Q 2369 806 2391 903 
Q 2413 1000 2413 1153 
L 2413 1853 
z
" transform="scale(0.015625)"/>
       <path id="Cambria-3" transform="scale(0.015625)"/>
       <path id="Cambria-95" d="M 2397 2303 
L 2097 2303 
Q 2028 2491 1934 2598 
Q 1841 2706 1722 2750 
Q 1603 2794 1431 2794 
Q 1181 2794 1032 2676 
Q 884 2559 884 2356 
Q 884 2213 943 2119 
Q 1003 2025 1128 1944 
Q 1253 1863 1569 1728 
Q 1888 1591 2061 1475 
Q 2234 1359 2332 1206 
Q 2431 1053 2431 841 
Q 2431 594 2347 425 
Q 2263 256 2109 150 
Q 1956 44 1745 -3 
Q 1534 -50 1284 -50 
Q 1022 -50 775 -11 
Q 528 28 294 91 
L 294 744 
L 600 744 
Q 684 456 850 326 
Q 1016 197 1306 197 
Q 1419 197 1526 220 
Q 1634 244 1718 298 
Q 1803 353 1853 447 
Q 1903 541 1903 681 
Q 1903 841 1840 941 
Q 1778 1041 1647 1123 
Q 1516 1206 1184 1347 
Q 900 1466 728 1578 
Q 556 1691 457 1844 
Q 359 1997 359 2206 
Q 359 2463 498 2652 
Q 638 2841 900 2941 
Q 1163 3041 1516 3041 
Q 1722 3041 1914 3020 
Q 2106 3000 2397 2941 
L 2397 2303 
z
" transform="scale(0.015625)"/>
       <path id="Cambria-9c" d="M 2659 906 
L 2659 0 
L 253 0 
L 253 153 
L 1966 2734 
L 1119 2734 
Q 963 2734 872 2678 
Q 781 2622 700 2490 
Q 619 2359 544 2138 
L 272 2138 
L 272 2988 
L 2641 2988 
L 2641 2831 
L 931 253 
L 1753 253 
Q 1916 253 1997 278 
Q 2078 303 2137 358 
Q 2197 413 2253 531 
Q 2309 650 2388 906 
L 2659 906 
z
" transform="scale(0.015625)"/>
       <path id="Cambria-20b" d="M 2309 -1359 
Q 1778 -1359 1442 -1200 
Q 1106 -1041 918 -714 
Q 731 -388 647 134 
Q 563 656 563 1550 
Q 563 2438 645 2964 
Q 728 3491 915 3822 
Q 1103 4153 1440 4318 
Q 1778 4484 2309 4484 
L 2309 4228 
Q 2091 4228 1922 4191 
Q 1731 4147 1597 4022 
Q 1447 3884 1353 3638 
Q 1244 3350 1191 2875 
Q 1134 2372 1134 1575 
Q 1134 872 1181 379 
Q 1228 -113 1338 -425 
Q 1425 -688 1556 -834 
Q 1672 -963 1831 -1028 
Q 2016 -1103 2309 -1103 
L 2309 -1359 
z
" transform="scale(0.015625)"/>
       <path id="Cambria-84" d="M 1091 2497 
L 1103 2494 
Q 1322 2722 1467 2825 
Q 1613 2928 1767 2983 
Q 1922 3038 2106 3038 
Q 2441 3038 2680 2867 
Q 2919 2697 3048 2356 
Q 3178 2016 3178 1522 
Q 3178 1013 3023 661 
Q 2869 309 2567 129 
Q 2266 -50 1853 -50 
Q 1622 -50 1417 -8 
Q 1213 34 988 141 
L 769 -50 
L 553 0 
L 553 3397 
Q 553 3697 548 3815 
Q 544 3934 523 4017 
Q 503 4100 467 4147 
Q 431 4194 370 4222 
Q 309 4250 150 4278 
L 150 4441 
L 906 4472 
L 1091 4472 
L 1091 2497 
z
M 1091 1125 
Q 1091 884 1112 742 
Q 1134 600 1186 506 
Q 1238 413 1336 334 
Q 1434 256 1556 226 
Q 1678 197 1828 197 
Q 2203 197 2397 503 
Q 2591 809 2591 1422 
Q 2591 2041 2414 2352 
Q 2238 2663 1881 2663 
Q 1703 2663 1578 2608 
Q 1453 2553 1329 2437 
Q 1206 2322 1148 2209 
Q 1091 2097 1091 1953 
L 1091 1125 
z
" transform="scale(0.015625)"/>
       <path id="Cambria-96" d="M 116 2831 
Q 272 2856 369 2918 
Q 466 2981 520 3079 
Q 575 3178 606 3326 
Q 638 3475 672 3759 
L 1116 3759 
L 1116 2988 
L 2125 2988 
L 2125 2672 
L 1116 2672 
L 1116 1281 
Q 1116 978 1141 798 
Q 1166 619 1234 517 
Q 1303 416 1390 372 
Q 1478 328 1616 328 
Q 1741 328 1850 379 
Q 1959 431 2066 528 
L 2206 359 
Q 1984 144 1786 47 
Q 1588 -50 1375 -50 
Q 972 -50 775 189 
Q 578 428 578 938 
L 578 2672 
L 116 2672 
L 116 2831 
z
" transform="scale(0.015625)"/>
       <path id="Cambria-91" d="M 1663 -50 
Q 1013 -50 670 333 
Q 328 716 328 1466 
Q 328 1981 508 2337 
Q 688 2694 1000 2867 
Q 1313 3041 1713 3041 
Q 2381 3041 2725 2652 
Q 3069 2263 3069 1534 
Q 3069 1016 2897 659 
Q 2725 303 2409 126 
Q 2094 -50 1663 -50 
z
M 919 1531 
Q 919 888 1123 542 
Q 1328 197 1709 197 
Q 1919 197 2066 298 
Q 2213 400 2305 572 
Q 2397 744 2437 970 
Q 2478 1197 2478 1444 
Q 2478 1903 2376 2206 
Q 2275 2509 2100 2651 
Q 1925 2794 1700 2794 
Q 1322 2794 1120 2466 
Q 919 2138 919 1531 
z
" transform="scale(0.015625)"/>
       <path id="Cmmi10-80" d="M -159 -1241 
Q -219 -1241 -219 -1159 
Q -197 -1019 -134 -1019 
Q 66 -1019 145 -983 
Q 225 -947 269 -800 
L 991 2081 
Q 1038 2200 1038 2388 
Q 1038 2663 850 2663 
Q 650 2663 553 2423 
Q 456 2184 366 1819 
Q 366 1778 313 1778 
L 238 1778 
Q 222 1778 203 1801 
Q 184 1825 184 1844 
Q 253 2122 317 2315 
Q 381 2509 517 2668 
Q 653 2828 856 2828 
Q 1075 2828 1240 2704 
Q 1406 2581 1453 2369 
Q 1628 2572 1840 2700 
Q 2053 2828 2278 2828 
Q 2547 2828 2745 2684 
Q 2944 2541 3044 2308 
Q 3144 2075 3144 1806 
Q 3144 1394 2933 953 
Q 2722 513 2361 220 
Q 2000 -72 1588 -72 
Q 1400 -72 1248 34 
Q 1097 141 1013 313 
L 722 -825 
Q 706 -919 703 -934 
Q 703 -1019 1125 -1019 
Q 1191 -1019 1191 -1100 
Q 1169 -1184 1155 -1212 
Q 1141 -1241 1081 -1241 
L -159 -1241 
z
M 1594 97 
Q 1816 97 2006 280 
Q 2197 463 2316 691 
Q 2403 863 2479 1111 
Q 2556 1359 2612 1640 
Q 2669 1922 2669 2088 
Q 2669 2234 2630 2362 
Q 2591 2491 2502 2577 
Q 2413 2663 2266 2663 
Q 2031 2663 1823 2495 
Q 1616 2328 1447 2081 
L 1447 2059 
L 1094 647 
Q 1138 419 1263 258 
Q 1388 97 1594 97 
z
" transform="scale(0.015625)"/>
       <path id="Cambria-20c" d="M 134 4484 
Q 666 4484 1002 4325 
Q 1338 4166 1525 3839 
Q 1713 3513 1797 2991 
Q 1881 2469 1881 1575 
Q 1881 688 1798 161 
Q 1716 -366 1528 -697 
Q 1341 -1028 1003 -1193 
Q 666 -1359 134 -1359 
L 134 -1103 
Q 353 -1103 522 -1066 
Q 713 -1022 847 -897 
Q 997 -759 1091 -513 
Q 1200 -225 1253 250 
Q 1309 753 1309 1550 
Q 1309 2253 1262 2745 
Q 1216 3238 1106 3550 
Q 1019 3813 888 3959 
Q 772 4088 613 4153 
Q 428 4228 134 4228 
L 134 4484 
z
" transform="scale(0.015625)"/>
      </defs>
      <use xlink:href="#Cambria-88" transform="translate(0 0.875)"/>
      <use xlink:href="#Cambria-8b" transform="translate(30.273438 0.875)"/>
      <use xlink:href="#Cambria-87" transform="translate(58.056641 0.875)"/>
      <use xlink:href="#Cambria-8e" transform="translate(106.835938 0.875)"/>
      <use xlink:href="#Cambria-86" transform="translate(133.984375 0.875)"/>
      <use xlink:href="#Cambria-3" transform="translate(189.453125 0.875)"/>
      <use xlink:href="#Cambria-95" transform="translate(211.474609 0.875)"/>
      <use xlink:href="#Cambria-8b" transform="translate(254.443359 0.875)"/>
      <use xlink:href="#Cambria-9c" transform="translate(282.226562 0.875)"/>
      <use xlink:href="#Cambria-87" transform="translate(327.685547 0.875)"/>
      <use xlink:href="#Cambria-3" transform="translate(376.464844 0.875)"/>
      <use xlink:href="#Cambria-20b" transform="translate(398.486328 0.875)"/>
      <use xlink:href="#Cambria-84" transform="translate(436.669922 0.875)"/>
      <use xlink:href="#Cambria-8b" transform="translate(491.40625 0.875)"/>
      <use xlink:href="#Cambria-96" transform="translate(519.189453 0.875)"/>
      <use xlink:href="#Cambria-95" transform="translate(553.027344 0.875)"/>
      <use xlink:href="#Cambria-3" transform="translate(595.996094 0.875)"/>
      <use xlink:href="#Cambria-91" transform="translate(618.017578 0.875)"/>
      <use xlink:href="#Cambria-88" transform="translate(671.09375 0.875)"/>
      <use xlink:href="#Cambria-3" transform="translate(701.367188 0.875)"/>
      <use xlink:href="#Cmmi10-80" transform="translate(723.388672 0.875)"/>
      <use xlink:href="#Cambria-20c" transform="translate(773.681641 0.875)"/>
     </g>
    </g>
   </g>
   <g id="matplotlib.axis_2">
    <g id="ytick_1">
     <g id="line2d_9">
      <path d="M 43.982891 212.466016 
L 418.598906 212.466016 
" clip-path="url(#p447d0285a5)" style="fill: none; stroke: #e1e0d9; stroke-width: 0.7; stroke-linecap: square"/>
     </g>
     <g id="line2d_10">
      <defs>
       <path id="m26e22735f4" d="M 0 0 
L -3.5 0 
" style="stroke: #898781; stroke-width: 0.8"/>
      </defs>
      <g>
       <use xlink:href="#m26e22735f4" x="43.982891" y="212.466016" style="fill: #898781; stroke: #898781; stroke-width: 0.8"/>
      </g>
     </g>
     <g id="text_6">
      <!-- 1.6 -->
      <g style="fill: #52514e" transform="translate(23.2 216.549634) scale(0.105 -0.105)">
       <defs>
        <path id="Cambria-1e4" d="M 972 725 
L 972 0 
L 341 0 
L 341 725 
L 972 725 
z
" transform="scale(0.015625)"/>
       </defs>
       <use xlink:href="#Cambria-373"/>
       <use xlink:href="#Cambria-1e4" transform="translate(55.375 0)"/>
       <use xlink:href="#Cambria-378" transform="translate(75.890625 0)"/>
      </g>
     </g>
    </g>
    <g id="ytick_2">
     <g id="line2d_11">
      <path d="M 43.982891 182.521344 
L 418.598906 182.521344 
" clip-path="url(#p447d0285a5)" style="fill: none; stroke: #e1e0d9; stroke-width: 0.7; stroke-linecap: square"/>
     </g>
     <g id="line2d_12">
      <g>
       <use xlink:href="#m26e22735f4" x="43.982891" y="182.521344" style="fill: #898781; stroke: #898781; stroke-width: 0.8"/>
      </g>
     </g>
     <g id="text_7">
      <!-- 1.8 -->
      <g style="fill: #52514e" transform="translate(23.2 186.604962) scale(0.105 -0.105)">
       <use xlink:href="#Cambria-373"/>
       <use xlink:href="#Cambria-1e4" transform="translate(55.375 0)"/>
       <use xlink:href="#Cambria-37a" transform="translate(75.890625 0)"/>
      </g>
     </g>
    </g>
    <g id="ytick_3">
     <g id="line2d_13">
      <path d="M 43.982891 152.576672 
L 418.598906 152.576672 
" clip-path="url(#p447d0285a5)" style="fill: none; stroke: #e1e0d9; stroke-width: 0.7; stroke-linecap: square"/>
     </g>
     <g id="line2d_14">
      <g>
       <use xlink:href="#m26e22735f4" x="43.982891" y="152.576672" style="fill: #898781; stroke: #898781; stroke-width: 0.8"/>
      </g>
     </g>
     <g id="text_8">
      <!-- 2.0 -->
      <g style="fill: #52514e" transform="translate(23.2 156.66029) scale(0.105 -0.105)">
       <defs>
        <path id="Cambria-372" d="M 1738 -50 
Q 1063 -50 733 481 
Q 403 1013 403 2094 
Q 403 2669 504 3087 
Q 606 3506 789 3779 
Q 972 4053 1228 4184 
Q 1484 4316 1788 4316 
Q 2472 4316 2806 3787 
Q 3141 3259 3141 2191 
Q 3141 1084 2783 517 
Q 2425 -50 1738 -50 
z
M 1013 2188 
Q 1013 1169 1202 692 
Q 1391 216 1788 216 
Q 2166 216 2348 664 
Q 2531 1113 2531 2053 
Q 2531 2772 2437 3217 
Q 2344 3663 2176 3856 
Q 2009 4050 1772 4050 
Q 1556 4050 1411 3922 
Q 1266 3794 1177 3553 
Q 1088 3313 1050 2967 
Q 1013 2622 1013 2188 
z
" transform="scale(0.015625)"/>
       </defs>
       <use xlink:href="#Cambria-374"/>
       <use xlink:href="#Cambria-1e4" transform="translate(55.375 0)"/>
       <use xlink:href="#Cambria-372" transform="translate(75.890625 0)"/>
      </g>
     </g>
    </g>
    <g id="ytick_4">
     <g id="line2d_15">
      <path d="M 43.982891 122.632 
L 418.598906 122.632 
" clip-path="url(#p447d0285a5)" style="fill: none; stroke: #e1e0d9; stroke-width: 0.7; stroke-linecap: square"/>
     </g>
     <g id="line2d_16">
      <g>
       <use xlink:href="#m26e22735f4" x="43.982891" y="122.632" style="fill: #898781; stroke: #898781; stroke-width: 0.8"/>
      </g>
     </g>
     <g id="text_9">
      <!-- 2.2 -->
      <g style="fill: #52514e" transform="translate(23.2 126.715618) scale(0.105 -0.105)">
       <use xlink:href="#Cambria-374"/>
       <use xlink:href="#Cambria-1e4" transform="translate(55.375 0)"/>
       <use xlink:href="#Cambria-374" transform="translate(75.890625 0)"/>
      </g>
     </g>
    </g>
    <g id="ytick_5">
     <g id="line2d_17">
      <path d="M 43.982891 92.687328 
L 418.598906 92.687328 
" clip-path="url(#p447d0285a5)" style="fill: none; stroke: #e1e0d9; stroke-width: 0.7; stroke-linecap: square"/>
     </g>
     <g id="line2d_18">
      <g>
       <use xlink:href="#m26e22735f4" x="43.982891" y="92.687328" style="fill: #898781; stroke: #898781; stroke-width: 0.8"/>
      </g>
     </g>
     <g id="text_10">
      <!-- 2.4 -->
      <g style="fill: #52514e" transform="translate(23.2 96.770946) scale(0.105 -0.105)">
       <use xlink:href="#Cambria-374"/>
       <use xlink:href="#Cambria-1e4" transform="translate(55.375 0)"/>
       <use xlink:href="#Cambria-376" transform="translate(75.890625 0)"/>
      </g>
     </g>
    </g>
    <g id="ytick_6">
     <g id="line2d_19">
      <path d="M 43.982891 62.742656 
L 418.598906 62.742656 
" clip-path="url(#p447d0285a5)" style="fill: none; stroke: #e1e0d9; stroke-width: 0.7; stroke-linecap: square"/>
     </g>
     <g id="line2d_20">
      <g>
       <use xlink:href="#m26e22735f4" x="43.982891" y="62.742656" style="fill: #898781; stroke: #898781; stroke-width: 0.8"/>
      </g>
     </g>
     <g id="text_11">
      <!-- 2.6 -->
      <g style="fill: #52514e" transform="translate(23.2 66.826274) scale(0.105 -0.105)">
       <use xlink:href="#Cambria-374"/>
       <use xlink:href="#Cambria-1e4" transform="translate(55.375 0)"/>
       <use xlink:href="#Cambria-378" transform="translate(75.890625 0)"/>
      </g>
     </g>
    </g>
    <g id="ytick_7">
     <g id="line2d_21">
      <path d="M 43.982891 32.797984 
L 418.598906 32.797984 
" clip-path="url(#p447d0285a5)" style="fill: none; stroke: #e1e0d9; stroke-width: 0.7; stroke-linecap: square"/>
     </g>
     <g id="line2d_22">
      <g>
       <use xlink:href="#m26e22735f4" x="43.982891" y="32.797984" style="fill: #898781; stroke: #898781; stroke-width: 0.8"/>
      </g>
     </g>
     <g id="text_12">
      <!-- 2.8 -->
      <g style="fill: #52514e" transform="translate(23.2 36.881603) scale(0.105 -0.105)">
       <use xlink:href="#Cambria-374"/>
       <use xlink:href="#Cambria-1e4" transform="translate(55.375 0)"/>
       <use xlink:href="#Cambria-37a" transform="translate(75.890625 0)"/>
      </g>
     </g>
    </g>
    <g id="text_13">
     <!-- mean-transition speedup ratio -->
     <g style="fill: #0b0b0b" transform="translate(16.533984 196.822354) rotate(-90) scale(0.12 -0.12)">
      <defs>
       <path id="Cambria-8f" d="M 1147 2506 
L 1191 2494 
Q 1378 2681 1498 2776 
Q 1619 2872 1731 2930 
Q 1844 2988 1942 3013 
Q 2041 3038 2144 3038 
Q 2456 3038 2653 2894 
Q 2850 2750 2925 2453 
Q 3159 2691 3304 2803 
Q 3450 2916 3601 2977 
Q 3753 3038 3928 3038 
Q 4138 3038 4289 2977 
Q 4441 2916 4545 2789 
Q 4650 2663 4698 2472 
Q 4747 2281 4747 1959 
L 4747 781 
Q 4747 544 4762 453 
Q 4778 363 4808 313 
Q 4838 263 4897 227 
Q 4956 191 5097 153 
L 5097 0 
L 3869 0 
L 3869 153 
Q 3991 191 4044 219 
Q 4097 247 4133 297 
Q 4169 347 4189 451 
Q 4209 556 4209 769 
L 4209 1588 
Q 4209 1853 4195 2026 
Q 4181 2200 4151 2303 
Q 4122 2406 4080 2465 
Q 4038 2525 3984 2569 
Q 3931 2613 3859 2638 
Q 3788 2663 3669 2663 
Q 3544 2663 3436 2613 
Q 3328 2563 3201 2444 
Q 3075 2325 3019 2204 
Q 2963 2084 2963 1922 
L 2963 781 
Q 2963 544 2978 453 
Q 2994 363 3023 313 
Q 3053 263 3112 227 
Q 3172 191 3313 153 
L 3313 0 
L 2084 0 
L 2084 153 
Q 2206 191 2259 219 
Q 2313 247 2348 297 
Q 2384 347 2404 451 
Q 2425 556 2425 769 
L 2425 1588 
Q 2425 1866 2409 2041 
Q 2394 2216 2361 2322 
Q 2328 2428 2276 2493 
Q 2225 2559 2172 2593 
Q 2119 2628 2047 2645 
Q 1975 2663 1884 2663 
Q 1756 2663 1643 2605 
Q 1531 2547 1414 2437 
Q 1297 2328 1237 2209 
Q 1178 2091 1178 1953 
L 1178 781 
Q 1178 603 1187 509 
Q 1197 416 1217 362 
Q 1238 309 1269 276 
Q 1300 244 1358 214 
Q 1416 184 1531 153 
L 1531 0 
L 306 0 
L 306 153 
Q 425 191 476 219 
Q 528 247 565 297 
Q 603 347 622 450 
Q 641 553 641 772 
L 641 2134 
Q 641 2334 634 2456 
Q 628 2578 590 2651 
Q 553 2725 476 2761 
Q 400 2797 259 2822 
L 259 2988 
L 991 3016 
L 1181 3016 
L 1147 2506 
z
" transform="scale(0.015625)"/>
       <path id="Cambria-83" d="M 2109 447 
L 2063 459 
Q 1791 181 1552 65 
Q 1313 -50 1044 -50 
Q 806 -50 625 42 
Q 444 134 347 301 
Q 250 469 250 688 
Q 250 1144 701 1392 
Q 1153 1641 2056 1681 
L 2056 1884 
Q 2056 2209 1993 2396 
Q 1931 2584 1797 2671 
Q 1663 2759 1438 2759 
Q 1194 2759 1045 2631 
Q 897 2503 822 2247 
L 413 2247 
L 413 2653 
Q 713 2809 913 2882 
Q 1113 2956 1313 2998 
Q 1513 3041 1719 3041 
Q 2028 3041 2215 2942 
Q 2403 2844 2497 2641 
Q 2591 2438 2591 2028 
L 2591 941 
Q 2591 709 2594 614 
Q 2597 519 2612 437 
Q 2628 356 2659 307 
Q 2691 259 2752 225 
Q 2813 191 2950 153 
L 2950 0 
L 2094 0 
L 2109 447 
z
M 2056 1425 
Q 1422 1419 1106 1256 
Q 791 1094 791 766 
Q 791 588 862 484 
Q 934 381 1043 342 
Q 1153 303 1303 303 
Q 1516 303 1689 406 
Q 1863 509 1959 668 
Q 2056 828 2056 984 
L 2056 1425 
z
" transform="scale(0.015625)"/>
       <path id="Cambria-90" d="M 3347 0 
L 2116 0 
L 2116 153 
Q 2238 191 2291 219 
Q 2344 247 2380 297 
Q 2416 347 2436 451 
Q 2456 556 2456 769 
L 2456 1588 
Q 2456 1806 2443 1984 
Q 2431 2163 2401 2277 
Q 2372 2391 2330 2455 
Q 2288 2519 2230 2564 
Q 2172 2609 2097 2636 
Q 2022 2663 1900 2663 
Q 1778 2663 1668 2614 
Q 1559 2566 1428 2447 
Q 1297 2328 1237 2212 
Q 1178 2097 1178 1947 
L 1178 781 
Q 1178 513 1203 408 
Q 1228 303 1298 248 
Q 1369 194 1528 153 
L 1528 0 
L 303 0 
L 303 153 
Q 425 191 476 219 
Q 528 247 564 297 
Q 600 347 620 450 
Q 641 553 641 772 
L 641 2134 
Q 641 2334 634 2456 
Q 628 2578 590 2651 
Q 553 2725 476 2761 
Q 400 2797 259 2822 
L 259 2988 
L 991 3016 
L 1181 3016 
L 1147 2506 
L 1191 2494 
Q 1422 2728 1564 2828 
Q 1706 2928 1851 2983 
Q 1997 3038 2159 3038 
Q 2328 3038 2461 2998 
Q 2594 2959 2695 2878 
Q 2797 2797 2862 2676 
Q 2928 2556 2961 2387 
Q 2994 2219 2994 1959 
L 2994 781 
Q 2994 566 3006 469 
Q 3019 372 3050 319 
Q 3081 266 3140 230 
Q 3200 194 3347 153 
L 3347 0 
z
" transform="scale(0.015625)"/>
       <path id="Cambria-1e6" d="M 1788 1403 
L 338 1403 
L 338 1888 
L 1788 1888 
L 1788 1403 
z
" transform="scale(0.015625)"/>
       <path id="Cambria-94" d="M 1147 2469 
L 1191 2459 
Q 1363 2669 1509 2789 
Q 1656 2909 1826 2975 
Q 1997 3041 2213 3041 
Q 2394 3041 2541 3022 
L 2541 2303 
L 2188 2303 
Q 2113 2472 2028 2548 
Q 1944 2625 1797 2625 
Q 1684 2625 1573 2559 
Q 1463 2494 1359 2369 
Q 1256 2244 1217 2134 
Q 1178 2025 1178 1875 
L 1178 781 
Q 1178 497 1212 389 
Q 1247 281 1326 231 
Q 1406 181 1566 153 
L 1566 0 
L 306 0 
L 306 153 
Q 425 191 476 219 
Q 528 247 565 297 
Q 603 347 622 450 
Q 641 553 641 772 
L 641 2134 
Q 641 2334 634 2456 
Q 628 2578 590 2651 
Q 553 2725 476 2761 
Q 400 2797 259 2822 
L 259 2984 
L 991 3016 
L 1181 3016 
L 1147 2469 
z
" transform="scale(0.015625)"/>
       <path id="Cambria-92" d="M 1150 94 
L 1150 -566 
Q 1150 -769 1164 -869 
Q 1178 -969 1214 -1026 
Q 1250 -1084 1317 -1121 
Q 1384 -1159 1534 -1191 
L 1534 -1344 
L 259 -1344 
L 259 -1191 
Q 372 -1159 442 -1126 
Q 513 -1094 550 -1030 
Q 588 -966 600 -856 
Q 613 -747 613 -566 
L 613 2116 
Q 613 2341 606 2436 
Q 600 2531 581 2593 
Q 563 2656 527 2697 
Q 491 2738 430 2766 
Q 369 2794 228 2822 
L 228 2988 
L 963 3016 
L 1153 3016 
L 1113 2506 
L 1159 2494 
Q 1353 2691 1465 2780 
Q 1578 2869 1698 2928 
Q 1819 2988 1930 3013 
Q 2041 3038 2166 3038 
Q 2681 3038 2957 2652 
Q 3234 2266 3234 1522 
Q 3234 1006 3078 654 
Q 2922 303 2623 126 
Q 2325 -50 1913 -50 
Q 1681 -50 1493 -11 
Q 1306 28 1150 94 
z
M 1150 1125 
Q 1150 825 1187 662 
Q 1225 500 1320 398 
Q 1416 297 1545 247 
Q 1675 197 1888 197 
Q 2266 197 2456 511 
Q 2647 825 2647 1438 
Q 2647 2663 1931 2663 
Q 1756 2663 1629 2608 
Q 1503 2553 1378 2431 
Q 1253 2309 1201 2195 
Q 1150 2081 1150 1950 
L 1150 1125 
z
" transform="scale(0.015625)"/>
       <path id="Cambria-97" d="M 228 2988 
L 1119 2988 
L 1119 1397 
Q 1119 1031 1147 840 
Q 1175 650 1231 553 
Q 1288 456 1391 390 
Q 1494 325 1675 325 
Q 1794 325 1903 372 
Q 2013 419 2147 536 
Q 2281 653 2339 768 
Q 2397 884 2397 1038 
L 2397 2209 
Q 2397 2388 2387 2478 
Q 2378 2569 2356 2623 
Q 2334 2678 2304 2712 
Q 2275 2747 2220 2775 
Q 2166 2803 2044 2834 
L 2044 2988 
L 2934 2988 
L 2934 853 
Q 2934 613 2943 506 
Q 2953 400 2984 337 
Q 3016 275 3081 236 
Q 3147 197 3316 163 
L 3316 0 
L 2600 -31 
L 2409 -31 
L 2428 481 
L 2381 494 
Q 2122 213 1886 81 
Q 1650 -50 1413 -50 
Q 1128 -50 943 62 
Q 759 175 668 398 
Q 578 622 578 1028 
L 578 2209 
Q 578 2472 558 2570 
Q 538 2669 480 2726 
Q 422 2784 228 2834 
L 228 2988 
z
" transform="scale(0.015625)"/>
      </defs>
      <use xlink:href="#Cambria-8f"/>
      <use xlink:href="#Cambria-87" transform="translate(83.203125 0)"/>
      <use xlink:href="#Cambria-83" transform="translate(131.984375 0)"/>
      <use xlink:href="#Cambria-90" transform="translate(180.8125 0)"/>
      <use xlink:href="#Cambria-1e6" transform="translate(236.625 0)"/>
      <use xlink:href="#Cambria-96" transform="translate(269.828125 0)"/>
      <use xlink:href="#Cambria-94" transform="translate(303.671875 0)"/>
      <use xlink:href="#Cambria-83" transform="translate(343.328125 0)"/>
      <use xlink:href="#Cambria-90" transform="translate(392.15625 0)"/>
      <use xlink:href="#Cambria-95" transform="translate(447.96875 0)"/>
      <use xlink:href="#Cambria-8b" transform="translate(490.9375 0)"/>
      <use xlink:href="#Cambria-96" transform="translate(518.71875 0)"/>
      <use xlink:href="#Cambria-8b" transform="translate(552.5625 0)"/>
      <use xlink:href="#Cambria-91" transform="translate(580.34375 0)"/>
      <use xlink:href="#Cambria-90" transform="translate(633.421875 0)"/>
      <use xlink:href="#Cambria-3" transform="translate(689.234375 0)"/>
      <use xlink:href="#Cambria-95" transform="translate(711.25 0)"/>
      <use xlink:href="#Cambria-92" transform="translate(754.21875 0)"/>
      <use xlink:href="#Cambria-87" transform="translate(809.828125 0)"/>
      <use xlink:href="#Cambria-87" transform="translate(858.609375 0)"/>
      <use xlink:href="#Cambria-86" transform="translate(907.390625 0)"/>
      <use xlink:href="#Cambria-97" transform="translate(962.859375 0)"/>
      <use xlink:href="#Cambria-92" transform="translate(1018.078125 0)"/>
      <use xlink:href="#Cambria-3" transform="translate(1073.6875 0)"/>
      <use xlink:href="#Cambria-94" transform="translate(1095.703125 0)"/>
      <use xlink:href="#Cambria-83" transform="translate(1135.359375 0)"/>
      <use xlink:href="#Cambria-96" transform="translate(1184.1875 0)"/>
      <use xlink:href="#Cambria-8b" transform="translate(1218.03125 0)"/>
      <use xlink:href="#Cambria-91" transform="translate(1245.8125 0)"/>
     </g>
    </g>
   </g>
   <g id="LineCollection_1">
    <path d="M 61.010891 112.545132 
L 61.010891 39.060332 
" clip-path="url(#p447d0285a5)" style="fill: none; stroke: #2a78d6; stroke-width: 1.8"/>
    <path d="M 174.530896 119.561746 
L 174.530896 45.417352 
" clip-path="url(#p447d0285a5)" style="fill: none; stroke: #2a78d6; stroke-width: 1.8"/>
    <path d="M 288.050901 90.747083 
L 288.050901 8.672445 
" clip-path="url(#p447d0285a5)" style="fill: none; stroke: #2a78d6; stroke-width: 1.8"/>
    <path d="M 401.570906 123.053759 
L 401.570906 52.279191 
" clip-path="url(#p447d0285a5)" style="fill: none; stroke: #2a78d6; stroke-width: 1.8"/>
   </g>
   <g id="line2d_23">
    <defs>
     <path id="mbb3db40ece" d="M 3 0 
L -3 -0 
" style="stroke: #2a78d6; stroke-width: 0.8"/>
    </defs>
    <g clip-path="url(#p447d0285a5)">
     <use xlink:href="#mbb3db40ece" x="61.010891" y="112.545132" style="fill: #2a78d6; stroke: #2a78d6; stroke-width: 0.8"/>
     <use xlink:href="#mbb3db40ece" x="174.530896" y="119.561746" style="fill: #2a78d6; stroke: #2a78d6; stroke-width: 0.8"/>
     <use xlink:href="#mbb3db40ece" x="288.050901" y="90.747083" style="fill: #2a78d6; stroke: #2a78d6; stroke-width: 0.8"/>
     <use xlink:href="#mbb3db40ece" x="401.570906" y="123.053759" style="fill: #2a78d6; stroke: #2a78d6; stroke-width: 0.8"/>
    </g>
   </g>
   <g id="line2d_24">
    <g clip-path="url(#p447d0285a5)">
     <use xlink:href="#mbb3db40ece" x="61.010891" y="39.060332" style="fill: #2a78d6; stroke: #2a78d6; stroke-width: 0.8"/>
     <use xlink:href="#mbb3db40ece" x="174.530896" y="45.417352" style="fill: #2a78d6; stroke: #2a78d6; stroke-width: 0.8"/>
     <use xlink:href="#mbb3db40ece" x="288.050901" y="8.672445" style="fill: #2a78d6; stroke: #2a78d6; stroke-width: 0.8"/>
     <use xlink:href="#mbb3db40ece" x="401.570906" y="52.279191" style="fill: #2a78d6; stroke: #2a78d6; stroke-width: 0.8"/>
    </g>
   </g>
   <g id="LineCollection_2">
    <path d="M 61.010891 162.178149 
L 61.010891 91.559845 
" clip-path="url(#p447d0285a5)" style="fill: none; stroke: #eb6834; stroke-width: 1.8"/>
    <path d="M 174.530896 182.456611 
L 174.530896 119.650619 
" clip-path="url(#p447d0285a5)" style="fill: none; stroke: #eb6834; stroke-width: 1.8"/>
    <path d="M 288.050901 156.225475 
L 288.050901 89.262469 
" clip-path="url(#p447d0285a5)" style="fill: none; stroke: #eb6834; stroke-width: 1.8"/>
    <path d="M 401.570906 201.847882 
L 401.570906 146.129157 
" clip-path="url(#p447d0285a5)" style="fill: none; stroke: #eb6834; stroke-width: 1.8"/>
   </g>
   <g id="line2d_25">
    <defs>
     <path id="mae6976593a" d="M 3 0 
L -3 -0 
" style="stroke: #eb6834; stroke-width: 0.8"/>
    </defs>
    <g clip-path="url(#p447d0285a5)">
     <use xlink:href="#mae6976593a" x="61.010891" y="162.178149" style="fill: #eb6834; stroke: #eb6834; stroke-width: 0.8"/>
     <use xlink:href="#mae6976593a" x="174.530896" y="182.456611" style="fill: #eb6834; stroke: #eb6834; stroke-width: 0.8"/>
     <use xlink:href="#mae6976593a" x="288.050901" y="156.225475" style="fill: #eb6834; stroke: #eb6834; stroke-width: 0.8"/>
     <use xlink:href="#mae6976593a" x="401.570906" y="201.847882" style="fill: #eb6834; stroke: #eb6834; stroke-width: 0.8"/>
    </g>
   </g>
   <g id="line2d_26">
    <g clip-path="url(#p447d0285a5)">
     <use xlink:href="#mae6976593a" x="61.010891" y="91.559845" style="fill: #eb6834; stroke: #eb6834; stroke-width: 0.8"/>
     <use xlink:href="#mae6976593a" x="174.530896" y="119.650619" style="fill: #eb6834; stroke: #eb6834; stroke-width: 0.8"/>
     <use xlink:href="#mae6976593a" x="288.050901" y="89.262469" style="fill: #eb6834; stroke: #eb6834; stroke-width: 0.8"/>
     <use xlink:href="#mae6976593a" x="401.570906" y="146.129157" style="fill: #eb6834; stroke: #eb6834; stroke-width: 0.8"/>
    </g>
   </g>
   <g id="line2d_27">
    <path d="M 43.982891 85.277558 
L 418.598906 85.277558 
" clip-path="url(#p447d0285a5)" style="fill: none; stroke-dasharray: 4.07,1.76; stroke-dashoffset: 0; stroke: #2a78d6; stroke-width: 1.1"/>
   </g>
   <g id="line2d_28">
    <path d="M 43.982891 152.576672 
L 418.598906 152.576672 
" clip-path="url(#p447d0285a5)" style="fill: none; stroke-dasharray: 4.07,1.76; stroke-dashoffset: 0; stroke: #eb6834; stroke-width: 1.1"/>
   </g>
   <g id="line2d_29">
    <path d="M 61.010891 76.516663 
L 174.530896 83.144871 
L 288.050901 53.224418 
L 401.570906 89.160855 
" clip-path="url(#p447d0285a5)" style="fill: none; stroke: #2a78d6; stroke-width: 1.8; stroke-linecap: square"/>
    <defs>
     <path id="mb32b565738" d="M 0 3 
C 0.795609 3 1.55874 2.683901 2.12132 2.12132 
C 2.683901 1.55874 3 0.795609 3 0 
C 3 -0.795609 2.683901 -1.55874 2.12132 -2.12132 
C 1.55874 -2.683901 0.795609 -3 0 -3 
C -0.795609 -3 -1.55874 -2.683901 -2.12132 -2.12132 
C -2.683901 -1.55874 -3 -0.795609 -3 0 
C -3 0.795609 -2.683901 1.55874 -2.12132 2.12132 
C -1.55874 2.683901 -0.795609 3 0 3 
z
" style="stroke: #fcfcfb; stroke-width: 0.8"/>
    </defs>
    <g clip-path="url(#p447d0285a5)">
     <use xlink:href="#mb32b565738" x="61.010891" y="76.516663" style="fill: #2a78d6; stroke: #fcfcfb; stroke-width: 0.8"/>
     <use xlink:href="#mb32b565738" x="174.530896" y="83.144871" style="fill: #2a78d6; stroke: #fcfcfb; stroke-width: 0.8"/>
     <use xlink:href="#mb32b565738" x="288.050901" y="53.224418" style="fill: #2a78d6; stroke: #fcfcfb; stroke-width: 0.8"/>
     <use xlink:href="#mb32b565738" x="401.570906" y="89.160855" style="fill: #2a78d6; stroke: #fcfcfb; stroke-width: 0.8"/>
    </g>
   </g>
   <g id="line2d_30">
    <path d="M 61.010891 128.210145 
L 174.530896 152.382545 
L 288.050901 124.740404 
L 401.570906 174.601063 
" clip-path="url(#p447d0285a5)" style="fill: none; stroke: #eb6834; stroke-width: 1.8; stroke-linecap: square"/>
    <defs>
     <path id="me376bcbdb2" d="M -3 3 
L 3 3 
L 3 -3 
L -3 -3 
z
" style="stroke: #fcfcfb; stroke-width: 0.8; stroke-linejoin: miter"/>
    </defs>
    <g clip-path="url(#p447d0285a5)">
     <use xlink:href="#me376bcbdb2" x="61.010891" y="128.210145" style="fill: #eb6834; stroke: #fcfcfb; stroke-width: 0.8; stroke-linejoin: miter"/>
     <use xlink:href="#me376bcbdb2" x="174.530896" y="152.382545" style="fill: #eb6834; stroke: #fcfcfb; stroke-width: 0.8; stroke-linejoin: miter"/>
     <use xlink:href="#me376bcbdb2" x="288.050901" y="124.740404" style="fill: #eb6834; stroke: #fcfcfb; stroke-width: 0.8; stroke-linejoin: miter"/>
     <use xlink:href="#me376bcbdb2" x="401.570906" y="174.601063" style="fill: #eb6834; stroke: #fcfcfb; stroke-width: 0.8; stroke-linejoin: miter"/>
    </g>
   </g>
   <g id="patch_3">
    <path d="M 43.982891 212.466016 
L 43.982891 25.311816 
" style="fill: none; stroke: #c3c2b7; stroke-width: 0.9; stroke-linejoin: miter; stroke-linecap: square"/>
   </g>
   <g id="patch_4">
    <path d="M 43.982891 212.466016 
L 418.598906 212.466016 
" style="fill: none; stroke: #c3c2b7; stroke-width: 0.9; stroke-linejoin: miter; stroke-linecap: square"/>
   </g>
   <g id="text_14">
    <!-- $\sqrt{6}\approx2.449$ -->
    <g style="fill: #2a78d6" transform="translate(359.048906 80.283579) scale(0.09 -0.09)">
     <defs>
      <path id="Cmex10-30" d="M 2713 -7425 
L 1269 -4063 
L 819 -4409 
L 703 -4294 
L 1619 -3584 
L 2969 -6725 
L 6291 197 
Q 6322 256 6400 256 
Q 6453 256 6490 218 
Q 6528 181 6528 128 
Q 6528 97 6522 84 
L 2950 -7366 
Q 2925 -7425 2853 -7425 
L 2713 -7425 
z
" transform="scale(0.015625)"/>
      <path id="Cmr10-45" d="M 1600 -141 
Q 1203 -141 937 70 
Q 672 281 526 617 
Q 381 953 325 1322 
Q 269 1691 269 2069 
Q 269 2575 466 3084 
Q 663 3594 1045 3928 
Q 1428 4263 1953 4263 
Q 2172 4263 2361 4180 
Q 2550 4097 2658 3936 
Q 2766 3775 2766 3547 
Q 2766 3416 2677 3327 
Q 2588 3238 2456 3238 
Q 2331 3238 2240 3328 
Q 2150 3419 2150 3547 
Q 2150 3672 2240 3762 
Q 2331 3853 2456 3853 
L 2491 3853 
Q 2409 3969 2261 4023 
Q 2113 4078 1953 4078 
Q 1759 4078 1595 3993 
Q 1431 3909 1300 3765 
Q 1169 3622 1081 3448 
Q 994 3275 945 3053 
Q 897 2831 884 2637 
Q 872 2444 872 2150 
Q 984 2413 1190 2580 
Q 1397 2747 1656 2747 
Q 1941 2747 2175 2631 
Q 2409 2516 2578 2311 
Q 2747 2106 2836 1843 
Q 2925 1581 2925 1313 
Q 2925 938 2758 598 
Q 2591 259 2287 59 
Q 1984 -141 1600 -141 
z
M 1600 63 
Q 1847 63 1997 175 
Q 2147 288 2217 473 
Q 2288 659 2305 848 
Q 2322 1038 2322 1313 
Q 2322 1675 2287 1931 
Q 2253 2188 2100 2383 
Q 1947 2578 1631 2578 
Q 1372 2578 1205 2403 
Q 1038 2228 961 1961 
Q 884 1694 884 1447 
Q 884 1363 891 1319 
Q 891 1309 889 1303 
Q 888 1297 884 1288 
Q 884 1013 940 731 
Q 997 450 1156 256 
Q 1316 63 1600 63 
z
" transform="scale(0.015625)"/>
      <path id="Cmsy10-17" d="M 447 359 
Q 378 359 359 519 
L 359 556 
Q 359 847 501 1087 
Q 644 1328 891 1464 
Q 1138 1600 1422 1600 
Q 1766 1600 2130 1379 
Q 2494 1159 2853 937 
Q 3213 716 3553 716 
Q 3881 716 4157 919 
Q 4434 1122 4434 1441 
Q 4453 1600 4525 1600 
Q 4597 1600 4616 1441 
L 4616 1403 
Q 4616 1113 4472 872 
Q 4328 631 4083 495 
Q 3838 359 3553 359 
Q 3284 359 3048 470 
Q 2813 581 2495 795 
Q 2178 1009 1937 1125 
Q 1697 1241 1422 1241 
Q 1219 1241 1009 1150 
Q 800 1059 669 895 
Q 538 731 538 519 
Q 519 359 447 359 
z
M 447 1850 
Q 378 1850 359 2009 
L 359 2047 
Q 359 2338 501 2578 
Q 644 2819 891 2955 
Q 1138 3091 1422 3091 
Q 1766 3091 2130 2870 
Q 2494 2650 2853 2429 
Q 3213 2209 3553 2209 
Q 3881 2209 4157 2412 
Q 4434 2616 4434 2931 
Q 4453 3091 4525 3091 
Q 4597 3091 4616 2931 
L 4616 2894 
Q 4616 2603 4472 2362 
Q 4328 2122 4083 1986 
Q 3838 1850 3553 1850 
Q 3284 1850 3048 1961 
Q 2813 2072 2495 2286 
Q 2178 2500 1937 2615 
Q 1697 2731 1422 2731 
Q 1219 2731 1009 2640 
Q 800 2550 669 2386 
Q 538 2222 538 2009 
Q 519 1850 447 1850 
z
" transform="scale(0.015625)"/>
      <path id="Cmr10-31" d="M 319 0 
L 319 172 
Q 319 188 331 206 
L 1325 1306 
Q 1550 1550 1690 1715 
Q 1831 1881 1968 2097 
Q 2106 2313 2186 2536 
Q 2266 2759 2266 3009 
Q 2266 3272 2169 3511 
Q 2072 3750 1880 3894 
Q 1688 4038 1416 4038 
Q 1138 4038 916 3870 
Q 694 3703 603 3438 
Q 628 3444 672 3444 
Q 816 3444 917 3347 
Q 1019 3250 1019 3097 
Q 1019 2950 917 2848 
Q 816 2747 672 2747 
Q 522 2747 420 2851 
Q 319 2956 319 3097 
Q 319 3338 409 3548 
Q 500 3759 670 3923 
Q 841 4088 1055 4175 
Q 1269 4263 1509 4263 
Q 1875 4263 2190 4108 
Q 2506 3953 2690 3670 
Q 2875 3388 2875 3009 
Q 2875 2731 2753 2481 
Q 2631 2231 2440 2026 
Q 2250 1822 1953 1562 
Q 1656 1303 1563 1216 
L 838 519 
L 1453 519 
Q 1906 519 2211 526 
Q 2516 534 2534 550 
Q 2609 631 2688 1141 
L 2875 1141 
L 2694 0 
L 319 0 
z
" transform="scale(0.015625)"/>
      <path id="Cmmi10-33" d="M 538 353 
Q 538 497 644 600 
Q 750 703 891 703 
Q 978 703 1062 656 
Q 1147 609 1194 525 
Q 1241 441 1241 353 
Q 1241 213 1137 106 
Q 1034 0 891 0 
Q 750 0 644 106 
Q 538 213 538 353 
z
" transform="scale(0.015625)"/>
      <path id="Cmr10-3b" d="M 178 1056 
L 178 1281 
L 2156 4231 
Q 2178 4263 2222 4263 
L 2316 4263 
Q 2388 4263 2388 4191 
L 2388 1281 
L 3016 1281 
L 3016 1056 
L 2388 1056 
L 2388 428 
Q 2388 297 2575 261 
Q 2763 225 3009 225 
L 3009 0 
L 1247 0 
L 1247 225 
Q 1494 225 1681 261 
Q 1869 297 1869 428 
L 1869 1056 
L 178 1056 
z
M 391 1281 
L 1906 1281 
L 1906 3547 
L 391 1281 
z
" transform="scale(0.015625)"/>
      <path id="Cmr10-16" d="M 722 269 
Q 897 63 1331 63 
Q 1575 63 1786 228 
Q 1997 394 2113 634 
Q 2247 906 2284 1214 
Q 2322 1522 2322 1978 
Q 2213 1719 2008 1553 
Q 1803 1388 1538 1388 
Q 1166 1388 873 1589 
Q 581 1791 425 2120 
Q 269 2450 269 2822 
Q 269 3206 444 3539 
Q 619 3872 928 4067 
Q 1238 4263 1631 4263 
Q 2019 4263 2280 4052 
Q 2541 3841 2678 3508 
Q 2816 3175 2870 2803 
Q 2925 2431 2925 2069 
Q 2925 1575 2744 1061 
Q 2563 547 2202 203 
Q 1841 -141 1331 -141 
Q 953 -141 690 37 
Q 428 216 428 575 
Q 428 706 517 795 
Q 606 884 738 884 
Q 866 884 955 795 
Q 1044 706 1044 575 
Q 1044 450 953 359 
Q 863 269 738 269 
L 722 269 
z
M 1563 1556 
Q 1825 1556 1992 1732 
Q 2159 1909 2234 2171 
Q 2309 2434 2309 2694 
L 2309 2816 
L 2309 2841 
Q 2309 3322 2168 3700 
Q 2028 4078 1631 4078 
Q 1378 4078 1220 3967 
Q 1063 3856 988 3672 
Q 913 3488 892 3278 
Q 872 3069 872 2822 
Q 872 2459 906 2203 
Q 941 1947 1094 1751 
Q 1247 1556 1563 1556 
z
" transform="scale(0.015625)"/>
     </defs>
     <use xlink:href="#Cmex10-30" transform="translate(0 94.65625) scale(0.833746)"/>
     <use xlink:href="#Cmr10-45" transform="translate(95.859375 0.140625)"/>
     <use xlink:href="#Cmsy10-17" transform="translate(178.359432 0.15625)"/>
     <use xlink:href="#Cmr10-31" transform="translate(276.045036 0.15625)"/>
     <use xlink:href="#Cmmi10-33" transform="translate(326.045036 0.15625)"/>
     <use xlink:href="#Cmr10-3b" transform="translate(353.730583 0.15625)"/>
     <use xlink:href="#Cmr10-3b" transform="translate(403.730583 0.15625)"/>
     <use xlink:href="#Cmr10-16" transform="translate(453.730583 0.15625)"/>
     <path d="M 83.359375 97.75 
L 83.359375 104 
L 158.359375 104 
L 158.359375 97.75 
L 83.359375 97.75 
z
"/>
    </g>
   </g>
   <g id="text_15">
    <!-- $2$ -->
    <g style="fill: #eb6834" transform="translate(399.908906 164.068861) scale(0.09 -0.09)">
     <use xlink:href="#Cmr10-31" transform="translate(0 0.390625)"/>
    </g>
   </g>
   <g id="text_16">
    <!-- Unit-orbit quotient rho matches its constant ceiling -->
    <g style="fill: #0b0b0b" transform="translate(43.982891 17.311816) scale(0.13 -0.13)">
     <defs>
      <path id="Cambria-18" d="M 3516 1475 
Q 3516 1134 3453 888 
Q 3394 653 3275 472 
Q 3166 309 3003 195 
Q 2841 81 2609 15 
Q 2378 -50 2066 -50 
Q 1688 -50 1417 34 
Q 1147 119 970 311 
Q 794 503 716 764 
Q 638 1025 638 1428 
L 638 3484 
Q 638 3728 622 3814 
Q 606 3900 576 3950 
Q 547 4000 490 4036 
Q 434 4072 281 4113 
L 281 4266 
L 1594 4266 
L 1594 4113 
Q 1419 4069 1350 4014 
Q 1281 3959 1256 3850 
Q 1231 3741 1231 3484 
L 1231 1272 
Q 1231 969 1295 762 
Q 1359 556 1475 442 
Q 1591 328 1750 276 
Q 1909 225 2147 225 
Q 2366 225 2531 301 
Q 2697 378 2808 534 
Q 2919 691 2959 919 
Q 3000 1147 3000 1531 
L 3000 3484 
Q 3000 3756 2973 3856 
Q 2947 3956 2886 4009 
Q 2825 4063 2634 4113 
L 2634 4266 
L 3881 4266 
L 3881 4113 
Q 3700 4066 3633 4009 
Q 3566 3953 3541 3847 
Q 3516 3741 3516 3484 
L 3516 1475 
z
" transform="scale(0.015625)"/>
      <path id="Cambria-93" d="M 3300 -1344 
L 2025 -1344 
L 2025 -1191 
Q 2175 -1159 2242 -1121 
Q 2309 -1084 2345 -1026 
Q 2381 -969 2395 -870 
Q 2409 -772 2409 -566 
L 2409 513 
Q 2241 322 2095 208 
Q 1950 94 1772 22 
Q 1594 -50 1394 -50 
Q 878 -50 601 334 
Q 325 719 325 1453 
Q 325 1972 504 2330 
Q 684 2688 1006 2864 
Q 1328 3041 1750 3041 
Q 1972 3041 2150 2995 
Q 2328 2950 2516 2850 
L 2734 3041 
L 2947 2991 
L 2947 -566 
Q 2947 -750 2961 -858 
Q 2975 -966 3011 -1028 
Q 3047 -1091 3117 -1125 
Q 3188 -1159 3300 -1191 
L 3300 -1344 
z
M 2409 1863 
Q 2409 2153 2371 2312 
Q 2334 2472 2243 2583 
Q 2153 2694 2031 2742 
Q 1909 2791 1744 2791 
Q 1341 2791 1127 2466 
Q 913 2141 913 1550 
Q 913 950 1086 637 
Q 1259 325 1606 325 
Q 1738 325 1830 348 
Q 1922 372 2011 425 
Q 2100 478 2192 568 
Q 2284 659 2325 732 
Q 2366 806 2387 903 
Q 2409 1000 2409 1153 
L 2409 1863 
z
" transform="scale(0.015625)"/>
      <path id="Cambria-8a" d="M 1141 2497 
L 1153 2494 
Q 1397 2741 1539 2839 
Q 1681 2938 1820 2988 
Q 1959 3038 2119 3038 
Q 2291 3038 2425 2997 
Q 2559 2956 2661 2873 
Q 2763 2791 2827 2670 
Q 2891 2550 2922 2383 
Q 2953 2216 2953 1959 
L 2953 781 
Q 2953 509 2976 411 
Q 3000 313 3061 258 
Q 3122 203 3306 153 
L 3306 0 
L 2075 0 
L 2075 153 
Q 2197 191 2250 219 
Q 2303 247 2339 297 
Q 2375 347 2395 451 
Q 2416 556 2416 769 
L 2416 1588 
Q 2416 2003 2373 2223 
Q 2331 2444 2207 2553 
Q 2084 2663 1863 2663 
Q 1738 2663 1638 2619 
Q 1538 2575 1406 2462 
Q 1275 2350 1208 2231 
Q 1141 2113 1141 1978 
L 1141 781 
Q 1141 569 1152 478 
Q 1163 388 1194 327 
Q 1225 266 1289 227 
Q 1353 188 1488 153 
L 1488 0 
L 250 0 
L 250 153 
Q 388 191 447 225 
Q 506 259 539 312 
Q 572 366 587 466 
Q 603 566 603 781 
L 603 3397 
Q 603 3697 598 3815 
Q 594 3934 573 4017 
Q 553 4100 517 4147 
Q 481 4194 420 4222 
Q 359 4250 200 4278 
L 200 4441 
L 953 4472 
L 1141 4472 
L 1141 2497 
z
" transform="scale(0.015625)"/>
      <path id="Cambria-85" d="M 2631 2916 
L 2631 2263 
L 2234 2263 
Q 2181 2466 2103 2583 
Q 2025 2700 1922 2747 
Q 1819 2794 1666 2794 
Q 1447 2794 1278 2653 
Q 1109 2513 1011 2225 
Q 913 1938 913 1522 
Q 913 1256 950 1036 
Q 988 816 1078 659 
Q 1169 503 1319 415 
Q 1469 328 1691 328 
Q 1906 328 2092 412 
Q 2278 497 2478 709 
L 2656 503 
Q 2497 328 2375 233 
Q 2253 138 2114 73 
Q 1975 9 1839 -20 
Q 1703 -50 1544 -50 
Q 953 -50 640 342 
Q 328 734 328 1475 
Q 328 1938 503 2295 
Q 678 2653 993 2847 
Q 1309 3041 1722 3041 
Q 1978 3041 2195 3011 
Q 2413 2981 2631 2916 
z
" transform="scale(0.015625)"/>
      <path id="Cambria-89" d="M 3106 2672 
L 2528 2694 
L 2500 2659 
Q 2597 2563 2653 2395 
Q 2709 2228 2709 2034 
Q 2709 1525 2395 1248 
Q 2081 972 1503 972 
Q 1244 972 1056 1038 
Q 819 856 819 681 
Q 819 566 864 506 
Q 909 447 1014 422 
Q 1119 397 1331 397 
L 2081 397 
Q 2413 397 2622 294 
Q 2831 191 2920 17 
Q 3009 -156 3009 -388 
Q 3009 -681 2840 -911 
Q 2672 -1141 2353 -1269 
Q 2034 -1397 1609 -1397 
Q 1294 -1397 1033 -1359 
Q 772 -1322 586 -1233 
Q 400 -1144 298 -998 
Q 197 -853 197 -634 
Q 197 -438 328 -277 
Q 459 -116 700 6 
Q 553 66 468 181 
Q 384 297 384 453 
Q 384 631 484 779 
Q 584 928 838 1119 
Q 613 1250 495 1475 
Q 378 1700 378 1988 
Q 378 2256 467 2454 
Q 556 2653 714 2783 
Q 872 2913 1087 2977 
Q 1303 3041 1553 3041 
Q 1778 3041 2000 2988 
L 3106 2988 
L 3106 2672 
z
M 938 2038 
Q 938 1647 1097 1434 
Q 1256 1222 1556 1222 
Q 1716 1222 1828 1283 
Q 1941 1344 2011 1450 
Q 2081 1556 2114 1695 
Q 2147 1834 2147 1988 
Q 2147 2263 2069 2447 
Q 1991 2631 1856 2717 
Q 1722 2803 1547 2803 
Q 1250 2803 1094 2606 
Q 938 2409 938 2038 
z
M 1016 -50 
Q 856 -169 776 -301 
Q 697 -434 697 -603 
Q 697 -884 920 -1017 
Q 1144 -1150 1603 -1150 
Q 1884 -1150 2086 -1075 
Q 2288 -1000 2394 -859 
Q 2500 -719 2500 -531 
Q 2500 -444 2478 -361 
Q 2456 -278 2395 -212 
Q 2334 -147 2221 -108 
Q 2109 -69 1928 -69 
L 1463 -69 
Q 1209 -69 1016 -50 
z
" transform="scale(0.015625)"/>
     </defs>
     <use xlink:href="#Cambria-18"/>
     <use xlink:href="#Cambria-90" transform="translate(64.796875 0)"/>
     <use xlink:href="#Cambria-8b" transform="translate(120.609375 0)"/>
     <use xlink:href="#Cambria-96" transform="translate(148.390625 0)"/>
     <use xlink:href="#Cambria-1e6" transform="translate(182.234375 0)"/>
     <use xlink:href="#Cambria-91" transform="translate(215.4375 0)"/>
     <use xlink:href="#Cambria-94" transform="translate(268.515625 0)"/>
     <use xlink:href="#Cambria-84" transform="translate(309.390625 0)"/>
     <use xlink:href="#Cambria-8b" transform="translate(364.125 0)"/>
     <use xlink:href="#Cambria-96" transform="translate(391.90625 0)"/>
     <use xlink:href="#Cambria-3" transform="translate(425.75 0)"/>
     <use xlink:href="#Cambria-93" transform="translate(447.765625 0)"/>
     <use xlink:href="#Cambria-97" transform="translate(502.453125 0)"/>
     <use xlink:href="#Cambria-91" transform="translate(557.671875 0)"/>
     <use xlink:href="#Cambria-96" transform="translate(610.75 0)"/>
     <use xlink:href="#Cambria-8b" transform="translate(644.59375 0)"/>
     <use xlink:href="#Cambria-87" transform="translate(672.375 0)"/>
     <use xlink:href="#Cambria-90" transform="translate(721.15625 0)"/>
     <use xlink:href="#Cambria-96" transform="translate(776.96875 0)"/>
     <use xlink:href="#Cambria-3" transform="translate(810.8125 0)"/>
     <use xlink:href="#Cambria-94" transform="translate(832.828125 0)"/>
     <use xlink:href="#Cambria-8a" transform="translate(873.703125 0)"/>
     <use xlink:href="#Cambria-91" transform="translate(928.875 0)"/>
     <use xlink:href="#Cambria-3" transform="translate(981.953125 0)"/>
     <use xlink:href="#Cambria-8f" transform="translate(1003.96875 0)"/>
     <use xlink:href="#Cambria-83" transform="translate(1087.171875 0)"/>
     <use xlink:href="#Cambria-96" transform="translate(1136 0)"/>
     <use xlink:href="#Cambria-85" transform="translate(1168.96875 0)"/>
     <use xlink:href="#Cambria-8a" transform="translate(1213.0625 0)"/>
     <use xlink:href="#Cambria-87" transform="translate(1268.234375 0)"/>
     <use xlink:href="#Cambria-95" transform="translate(1317.015625 0)"/>
     <use xlink:href="#Cambria-3" transform="translate(1359.984375 0)"/>
     <use xlink:href="#Cambria-8b" transform="translate(1382 0)"/>
     <use xlink:href="#Cambria-96" transform="translate(1409.78125 0)"/>
     <use xlink:href="#Cambria-95" transform="translate(1443.625 0)"/>
     <use xlink:href="#Cambria-3" transform="translate(1486.59375 0)"/>
     <use xlink:href="#Cambria-85" transform="translate(1508.609375 0)"/>
     <use xlink:href="#Cambria-91" transform="translate(1552.703125 0)"/>
     <use xlink:href="#Cambria-90" transform="translate(1605.78125 0)"/>
     <use xlink:href="#Cambria-95" transform="translate(1661.59375 0)"/>
     <use xlink:href="#Cambria-96" transform="translate(1704.5625 0)"/>
     <use xlink:href="#Cambria-83" transform="translate(1738.40625 0)"/>
     <use xlink:href="#Cambria-90" transform="translate(1787.234375 0)"/>
     <use xlink:href="#Cambria-96" transform="translate(1843.046875 0)"/>
     <use xlink:href="#Cambria-3" transform="translate(1876.890625 0)"/>
     <use xlink:href="#Cambria-85" transform="translate(1898.90625 0)"/>
     <use xlink:href="#Cambria-87" transform="translate(1943 0)"/>
     <use xlink:href="#Cambria-8b" transform="translate(1991.78125 0)"/>
     <use xlink:href="#Cambria-8e" transform="translate(2019.5625 0)"/>
     <use xlink:href="#Cambria-8b" transform="translate(2046.71875 0)"/>
     <use xlink:href="#Cambria-90" transform="translate(2074.5 0)"/>
     <use xlink:href="#Cambria-89" transform="translate(2130.3125 0)"/>
    </g>
   </g>
   <g id="legend_1">
    <g id="LineCollection_3">
     <path d="M 61.082891 190.216504 
L 61.082891 181.216504 
" style="fill: none; stroke: #2a78d6; stroke-width: 1.8"/>
    </g>
    <g id="line2d_31">
     <g>
      <use xlink:href="#mbb3db40ece" x="61.082891" y="190.216504" style="fill: #2a78d6; stroke: #2a78d6; stroke-width: 0.8"/>
     </g>
    </g>
    <g id="line2d_32">
     <g>
      <use xlink:href="#mbb3db40ece" x="61.082891" y="181.216504" style="fill: #2a78d6; stroke: #2a78d6; stroke-width: 0.8"/>
     </g>
    </g>
    <g id="line2d_33">
     <path d="M 52.082891 185.716504 
L 70.082891 185.716504 
" style="fill: none; stroke: #2a78d6; stroke-width: 1.8; stroke-linecap: square"/>
    </g>
    <g id="line2d_34">
     <g>
      <use xlink:href="#mb32b565738" x="61.082891" y="185.716504" style="fill: #2a78d6; stroke: #fcfcfb; stroke-width: 0.8"/>
     </g>
    </g>
    <g id="text_17">
     <!-- $D=-3$ (unit order 6) -->
     <g transform="translate(77.282891 188.866504) scale(0.09 -0.09)">
      <defs>
       <path id="Cmmi10-3b" d="M 313 0 
Q 250 0 250 84 
Q 253 100 262 139 
Q 272 178 289 201 
Q 306 225 331 225 
Q 722 225 878 269 
Q 959 297 997 441 
L 1875 3956 
Q 1888 4019 1888 4044 
Q 1888 4113 1813 4122 
Q 1691 4147 1350 4147 
Q 1288 4147 1288 4231 
Q 1291 4247 1300 4286 
Q 1309 4325 1326 4348 
Q 1344 4372 1369 4372 
L 3669 4372 
Q 4116 4372 4450 4155 
Q 4784 3938 4962 3570 
Q 5141 3203 5141 2759 
Q 5141 2269 4937 1778 
Q 4734 1288 4368 881 
Q 4003 475 3534 237 
Q 3066 0 2572 0 
L 313 0 
z
M 1509 275 
Q 1509 225 1728 225 
L 2472 225 
Q 2828 225 3159 372 
Q 3491 519 3750 775 
Q 3991 1016 4175 1406 
Q 4359 1797 4461 2222 
Q 4563 2647 4563 3003 
Q 4563 3263 4486 3472 
Q 4409 3681 4270 3831 
Q 4131 3981 3922 4064 
Q 3713 4147 3450 4147 
L 2747 4147 
Q 2572 4147 2515 4117 
Q 2459 4088 2413 3928 
L 1538 416 
Q 1509 338 1509 275 
z
" transform="scale(0.015625)"/>
       <path id="Cmr10-29" d="M 481 850 
Q 428 850 393 890 
Q 359 931 359 978 
Q 359 1031 393 1068 
Q 428 1106 481 1106 
L 4500 1106 
Q 4547 1106 4581 1068 
Q 4616 1031 4616 978 
Q 4616 931 4581 890 
Q 4547 850 4500 850 
L 481 850 
z
M 481 2094 
Q 428 2094 393 2131 
Q 359 2169 359 2222 
Q 359 2269 393 2309 
Q 428 2350 481 2350 
L 4500 2350 
Q 4547 2350 4581 2309 
Q 4616 2269 4616 2222 
Q 4616 2169 4581 2131 
Q 4547 2094 4500 2094 
L 481 2094 
z
" transform="scale(0.015625)"/>
       <path id="Cmsy10-11" d="M 653 1472 
Q 600 1472 565 1512 
Q 531 1553 531 1600 
Q 531 1647 565 1687 
Q 600 1728 653 1728 
L 4325 1728 
Q 4375 1728 4408 1687 
Q 4441 1647 4441 1600 
Q 4441 1553 4408 1512 
Q 4375 1472 4325 1472 
L 653 1472 
z
" transform="scale(0.015625)"/>
       <path id="Cmr10-6e" d="M 609 494 
Q 759 275 1012 169 
Q 1266 63 1556 63 
Q 1928 63 2084 380 
Q 2241 697 2241 1100 
Q 2241 1281 2208 1462 
Q 2175 1644 2097 1800 
Q 2019 1956 1883 2050 
Q 1747 2144 1550 2144 
L 1125 2144 
Q 1069 2144 1069 2203 
L 1069 2259 
Q 1069 2309 1125 2309 
L 1478 2338 
Q 1703 2338 1851 2506 
Q 2000 2675 2069 2917 
Q 2138 3159 2138 3378 
Q 2138 3684 1994 3881 
Q 1850 4078 1556 4078 
Q 1313 4078 1091 3986 
Q 869 3894 738 3706 
Q 750 3709 759 3711 
Q 769 3713 781 3713 
Q 925 3713 1022 3613 
Q 1119 3513 1119 3372 
Q 1119 3234 1022 3134 
Q 925 3034 781 3034 
Q 641 3034 541 3134 
Q 441 3234 441 3372 
Q 441 3647 606 3850 
Q 772 4053 1033 4158 
Q 1294 4263 1556 4263 
Q 1750 4263 1965 4205 
Q 2181 4147 2356 4039 
Q 2531 3931 2642 3762 
Q 2753 3594 2753 3378 
Q 2753 3109 2633 2881 
Q 2513 2653 2303 2487 
Q 2094 2322 1844 2241 
Q 2122 2188 2372 2031 
Q 2622 1875 2773 1631 
Q 2925 1388 2925 1106 
Q 2925 753 2731 467 
Q 2538 181 2222 20 
Q 1906 -141 1556 -141 
Q 1256 -141 954 -26 
Q 653 88 461 316 
Q 269 544 269 863 
Q 269 1022 375 1128 
Q 481 1234 641 1234 
Q 744 1234 830 1186 
Q 916 1138 964 1050 
Q 1013 963 1013 863 
Q 1013 706 903 600 
Q 794 494 641 494 
L 609 494 
z
" transform="scale(0.015625)"/>
      </defs>
      <use xlink:href="#Cmmi10-3b" transform="translate(0 0.9375)"/>
      <use xlink:href="#Cmr10-29" transform="translate(102.714901 0.9375)"/>
      <use xlink:href="#Cmsy10-11" transform="translate(200.400505 0.9375)"/>
      <use xlink:href="#Cmr10-6e" transform="translate(278.086052 0.9375)"/>
      <use xlink:href="#Cambria-3" transform="translate(328.086052 0.9375)"/>
      <use xlink:href="#Cambria-20b" transform="translate(350.107536 0.9375)"/>
      <use xlink:href="#Cambria-97" transform="translate(388.29113 0.9375)"/>
      <use xlink:href="#Cambria-90" transform="translate(443.515739 0.9375)"/>
      <use xlink:href="#Cambria-8b" transform="translate(499.326286 0.9375)"/>
      <use xlink:href="#Cambria-96" transform="translate(527.109489 0.9375)"/>
      <use xlink:href="#Cambria-3" transform="translate(560.94738 0.9375)"/>
      <use xlink:href="#Cambria-91" transform="translate(582.968864 0.9375)"/>
      <use xlink:href="#Cambria-94" transform="translate(636.045036 0.9375)"/>
      <use xlink:href="#Cambria-86" transform="translate(677.402458 0.9375)"/>
      <use xlink:href="#Cambria-87" transform="translate(732.871208 0.9375)"/>
      <use xlink:href="#Cambria-94" transform="translate(781.650505 0.9375)"/>
      <use xlink:href="#Cambria-3" transform="translate(823.007927 0.9375)"/>
      <use xlink:href="#Cambria-378" transform="translate(845.029411 0.9375)"/>
      <use xlink:href="#Cambria-20c" transform="translate(900.400505 0.9375)"/>
     </g>
    </g>
    <g id="LineCollection_4">
     <path d="M 61.082891 203.716504 
L 61.082891 194.716504 
" style="fill: none; stroke: #eb6834; stroke-width: 1.8"/>
    </g>
    <g id="line2d_35">
     <g>
      <use xlink:href="#mae6976593a" x="61.082891" y="203.716504" style="fill: #eb6834; stroke: #eb6834; stroke-width: 0.8"/>
     </g>
    </g>
    <g id="line2d_36">
     <g>
      <use xlink:href="#mae6976593a" x="61.082891" y="194.716504" style="fill: #eb6834; stroke: #eb6834; stroke-width: 0.8"/>
     </g>
    </g>
    <g id="line2d_37">
     <path d="M 52.082891 199.216504 
L 70.082891 199.216504 
" style="fill: none; stroke: #eb6834; stroke-width: 1.8; stroke-linecap: square"/>
    </g>
    <g id="line2d_38">
     <g>
      <use xlink:href="#me376bcbdb2" x="61.082891" y="199.216504" style="fill: #eb6834; stroke: #fcfcfb; stroke-width: 0.8; stroke-linejoin: miter"/>
     </g>
    </g>
    <g id="text_18">
     <!-- $D=-4$ (unit order 4) -->
     <g transform="translate(77.282891 202.366504) scale(0.09 -0.09)">
      <use xlink:href="#Cmmi10-3b" transform="translate(0 0.9375)"/>
      <use xlink:href="#Cmr10-29" transform="translate(102.714901 0.9375)"/>
      <use xlink:href="#Cmsy10-11" transform="translate(200.400505 0.9375)"/>
      <use xlink:href="#Cmr10-3b" transform="translate(278.086052 0.9375)"/>
      <use xlink:href="#Cambria-3" transform="translate(328.086052 0.9375)"/>
      <use xlink:href="#Cambria-20b" transform="translate(350.107536 0.9375)"/>
      <use xlink:href="#Cambria-97" transform="translate(388.29113 0.9375)"/>
      <use xlink:href="#Cambria-90" transform="translate(443.515739 0.9375)"/>
      <use xlink:href="#Cambria-8b" transform="translate(499.326286 0.9375)"/>
      <use xlink:href="#Cambria-96" transform="translate(527.109489 0.9375)"/>
      <use xlink:href="#Cambria-3" transform="translate(560.94738 0.9375)"/>
      <use xlink:href="#Cambria-91" transform="translate(582.968864 0.9375)"/>
      <use xlink:href="#Cambria-94" transform="translate(636.045036 0.9375)"/>
      <use xlink:href="#Cambria-86" transform="translate(677.402458 0.9375)"/>
      <use xlink:href="#Cambria-87" transform="translate(732.871208 0.9375)"/>
      <use xlink:href="#Cambria-94" transform="translate(781.650505 0.9375)"/>
      <use xlink:href="#Cambria-3" transform="translate(823.007927 0.9375)"/>
      <use xlink:href="#Cambria-376" transform="translate(845.029411 0.9375)"/>
      <use xlink:href="#Cambria-20c" transform="translate(900.400505 0.9375)"/>
     </g>
    </g>
   </g>
  </g>
 </g>
 <defs>
  <clipPath id="p447d0285a5">
   <rect x="43.982891" y="25.311816" width="374.616016" height="187.154199"/>
  </clipPath>
 </defs>
</svg>
