<?xml version="1.0" encoding="utf-8" standalone="no"?>
<!DOCTYPE svg PUBLIC "-//W3C//DTD SVG 1.1//EN"
  "http://www.w3.org/Graphics/SVG/1.1/DTD/svg11.dtd">
<svg xmlns:xlink="http://www.w3.org/1999/xlink" width="533.756644pt" height="217.166016pt" viewBox="0 0 533.756644 217.166016" xmlns="http://www.w3.org/2000/svg" version="1.1">
 <metadata>
  <rdf:RDF xmlns:dc="http://purl.org/dc/elements/1.1/" xmlns:cc="http://creativecommons.org/ns#" xmlns:rdf="http://www.w3.org/1999/02/22-rdf-syntax-ns#">
   <cc:Work>
    <dc:type rdf:resource="http://purl.org/dc/dcmitype/StillImage"/>
    <dc:date>2026-07-23T00:47:00.199308</dc:date>
    <dc:format>image/svg+xml</dc:format>
    <dc:creator>
     <cc:Agent>
      <dc:title>Matplotlib v3.11.1, https://matplotlib.org/</dc:title>
     </cc:Agent>
    </dc:creator>
   </cc:Work>
  </rdf:RDF>
 </metadata>
 <defs>
  <style type="text/css">*{stroke-linejoin: round; stroke-linecap: butt}</style>
 </defs>
 <g id="figure_1">
  <g id="patch_1">
   <path d="M 0 217.166016 
L 533.756644 217.166016 
L 533.756644 -0 
L 0 -0 
z
" style="fill: #fcfcfb"/>
  </g>
  <g id="axes_1">
   <g id="patch_2">
    <path d="M 41.82875 176.466016 
L 269.82875 176.466016 
L 269.82875 25.311816 
L 41.82875 25.311816 
z
" style="fill: #fcfcfb"/>
   </g>
   <g id="matplotlib.axis_1">
    <g id="xtick_1">
     <g id="line2d_1">
      <path d="M 64.051274 176.466016 
L 64.051274 25.311816 
" clip-path="url(#p88560ce9c1)" style="fill: none; stroke: #e1e0d9; stroke-width: 0.7; stroke-linecap: square"/>
     </g>
     <g id="line2d_2">
      <defs>
       <path id="mbd09373799" d="M 0 0 
L 0 3.5 
" style="stroke: #898781; stroke-width: 0.8"/>
      </defs>
      <g>
       <use xlink:href="#mbd09373799" x="64.051274" y="176.466016" style="fill: #898781; stroke: #898781; stroke-width: 0.8"/>
      </g>
     </g>
     <g id="text_1">
      <!-- 3800 -->
      <g style="fill: #52514e" transform="translate(52.422524 191.633252) scale(0.105 -0.105)">
       <defs>
        <path id="Cambria-375" d="M 497 3381 
L 497 3975 
Q 859 4147 1175 4231 
Q 1491 4316 1784 4316 
Q 2138 4316 2403 4206 
Q 2669 4097 2809 3892 
Q 2950 3688 2950 3403 
Q 2950 3138 2844 2936 
Q 2738 2734 2545 2584 
Q 2353 2434 2047 2291 
L 2047 2263 
Q 2238 2228 2414 2145 
Q 2591 2063 2728 1931 
Q 2866 1800 2948 1617 
Q 3031 1434 3031 1200 
Q 3031 838 2873 556 
Q 2716 275 2391 112 
Q 2066 -50 1600 -50 
Q 1331 -50 1020 11 
Q 709 72 450 172 
L 450 834 
L 825 834 
Q 934 509 1114 362 
Q 1294 216 1603 216 
Q 2009 216 2217 437 
Q 2425 659 2425 1094 
Q 2425 1550 2150 1790 
Q 1875 2031 1344 2031 
L 1063 2031 
L 1063 2306 
Q 1484 2331 1773 2468 
Q 2063 2606 2203 2822 
Q 2344 3038 2344 3306 
Q 2344 3653 2159 3840 
Q 1975 4028 1622 4028 
Q 1328 4028 1143 3868 
Q 959 3709 872 3381 
L 497 3381 
z
" transform="scale(0.015625)"/>
        <path id="Cambria-37a" d="M 2475 2253 
L 2481 2213 
Q 2834 2075 3015 1811 
Q 3197 1547 3197 1175 
Q 3197 809 3022 531 
Q 2847 253 2514 101 
Q 2181 -50 1738 -50 
Q 1322 -50 1008 89 
Q 694 228 520 495 
Q 347 763 347 1125 
Q 347 1397 440 1597 
Q 534 1797 686 1926 
Q 838 2056 1069 2163 
L 1063 2203 
Q 391 2494 391 3200 
Q 391 3522 567 3775 
Q 744 4028 1070 4172 
Q 1397 4316 1794 4316 
Q 2244 4316 2550 4189 
Q 2856 4063 3011 3823 
Q 3166 3584 3166 3250 
Q 3166 2906 2997 2657 
Q 2828 2409 2475 2253 
z
M 978 3228 
Q 978 3044 1022 2881 
Q 1066 2719 1162 2600 
Q 1259 2481 1414 2411 
Q 1569 2341 1794 2341 
Q 2053 2341 2229 2442 
Q 2406 2544 2492 2739 
Q 2578 2934 2578 3191 
Q 2578 3472 2476 3667 
Q 2375 3863 2197 3956 
Q 2019 4050 1788 4050 
Q 1394 4050 1186 3836 
Q 978 3622 978 3228 
z
M 944 1178 
Q 944 975 991 798 
Q 1038 622 1139 494 
Q 1241 366 1400 291 
Q 1559 216 1788 216 
Q 2044 216 2226 320 
Q 2409 425 2504 631 
Q 2600 838 2600 1119 
Q 2600 1419 2497 1636 
Q 2394 1853 2206 1967 
Q 2019 2081 1772 2081 
Q 1541 2081 1383 2009 
Q 1225 1938 1126 1816 
Q 1028 1694 986 1530 
Q 944 1366 944 1178 
z
" transform="scale(0.015625)"/>
        <path id="Cambria-372" d="M 1738 -50 
Q 1063 -50 733 481 
Q 403 1013 403 2094 
Q 403 2669 504 3087 
Q 606 3506 789 3779 
Q 972 4053 1228 4184 
Q 1484 4316 1788 4316 
Q 2472 4316 2806 3787 
Q 3141 3259 3141 2191 
Q 3141 1084 2783 517 
Q 2425 -50 1738 -50 
z
M 1013 2188 
Q 1013 1169 1202 692 
Q 1391 216 1788 216 
Q 2166 216 2348 664 
Q 2531 1113 2531 2053 
Q 2531 2772 2437 3217 
Q 2344 3663 2176 3856 
Q 2009 4050 1772 4050 
Q 1556 4050 1411 3922 
Q 1266 3794 1177 3553 
Q 1088 3313 1050 2967 
Q 1013 2622 1013 2188 
z
" transform="scale(0.015625)"/>
       </defs>
       <use xlink:href="#Cambria-375"/>
       <use xlink:href="#Cambria-37a" transform="translate(55.375 0)"/>
       <use xlink:href="#Cambria-372" transform="translate(110.75 0)"/>
       <use xlink:href="#Cambria-372" transform="translate(166.125 0)"/>
      </g>
     </g>
    </g>
    <g id="xtick_2">
     <g id="line2d_3">
      <path d="M 110.924346 176.466016 
L 110.924346 25.311816 
" clip-path="url(#p88560ce9c1)" style="fill: none; stroke: #e1e0d9; stroke-width: 0.7; stroke-linecap: square"/>
     </g>
     <g id="line2d_4">
      <g>
       <use xlink:href="#mbd09373799" x="110.924346" y="176.466016" style="fill: #898781; stroke: #898781; stroke-width: 0.8"/>
      </g>
     </g>
     <g id="text_2">
      <!-- 3900 -->
      <g style="fill: #52514e" transform="translate(99.295596 191.633252) scale(0.105 -0.105)">
       <defs>
        <path id="Cambria-37b" d="M 978 122 
L 978 275 
Q 1416 275 1736 469 
Q 2056 663 2251 1042 
Q 2447 1422 2513 2038 
L 2481 2050 
Q 2219 1863 1964 1775 
Q 1709 1688 1413 1688 
Q 1059 1688 811 1842 
Q 563 1997 438 2276 
Q 313 2556 313 2931 
Q 313 3213 406 3464 
Q 500 3716 684 3905 
Q 869 4094 1145 4205 
Q 1422 4316 1791 4316 
Q 2447 4316 2790 3862 
Q 3134 3409 3134 2559 
Q 3134 1781 2881 1211 
Q 2628 641 2172 323 
Q 1716 6 1106 -50 
L 978 122 
z
M 1628 2016 
Q 1747 2016 1855 2036 
Q 1963 2056 2066 2095 
Q 2169 2134 2267 2195 
Q 2366 2256 2444 2325 
Q 2472 2350 2494 2390 
Q 2516 2431 2528 2497 
Q 2541 2563 2541 2703 
Q 2541 3131 2455 3436 
Q 2369 3741 2192 3895 
Q 2016 4050 1756 4050 
Q 1522 4050 1359 3969 
Q 1197 3888 1095 3745 
Q 994 3603 947 3411 
Q 900 3219 900 2994 
Q 900 2528 1090 2272 
Q 1281 2016 1628 2016 
z
" transform="scale(0.015625)"/>
       </defs>
       <use xlink:href="#Cambria-375"/>
       <use xlink:href="#Cambria-37b" transform="translate(55.375 0)"/>
       <use xlink:href="#Cambria-372" transform="translate(110.75 0)"/>
       <use xlink:href="#Cambria-372" transform="translate(166.125 0)"/>
      </g>
     </g>
    </g>
    <g id="xtick_3">
     <g id="line2d_5">
      <path d="M 157.797419 176.466016 
L 157.797419 25.311816 
" clip-path="url(#p88560ce9c1)" style="fill: none; stroke: #e1e0d9; stroke-width: 0.7; stroke-linecap: square"/>
     </g>
     <g id="line2d_6">
      <g>
       <use xlink:href="#mbd09373799" x="157.797419" y="176.466016" style="fill: #898781; stroke: #898781; stroke-width: 0.8"/>
      </g>
     </g>
     <g id="text_3">
      <!-- 4000 -->
      <g style="fill: #52514e" transform="translate(146.168669 191.633252) scale(0.105 -0.105)">
       <defs>
        <path id="Cambria-376" d="M 1613 153 
Q 1806 203 1872 264 
Q 1938 325 1958 437 
Q 1978 550 1978 781 
L 1978 1294 
L 241 1294 
L 241 1528 
L 2069 4288 
L 2516 4288 
L 2516 1597 
L 2581 1597 
Q 2763 1597 2841 1623 
Q 2919 1650 2970 1717 
Q 3022 1784 3066 1938 
L 3303 1938 
L 3266 1294 
L 2516 1294 
L 2516 781 
Q 2516 572 2530 475 
Q 2544 378 2576 322 
Q 2609 266 2673 228 
Q 2738 191 2881 153 
L 2881 0 
L 1613 0 
L 1613 153 
z
M 756 1597 
L 1978 1597 
L 1978 2375 
Q 1978 2669 1987 3033 
Q 1997 3397 2009 3581 
L 1978 3581 
L 756 1641 
L 756 1597 
z
" transform="scale(0.015625)"/>
       </defs>
       <use xlink:href="#Cambria-376"/>
       <use xlink:href="#Cambria-372" transform="translate(55.375 0)"/>
       <use xlink:href="#Cambria-372" transform="translate(110.75 0)"/>
       <use xlink:href="#Cambria-372" transform="translate(166.125 0)"/>
      </g>
     </g>
    </g>
    <g id="xtick_4">
     <g id="line2d_7">
      <path d="M 204.670492 176.466016 
L 204.670492 25.311816 
" clip-path="url(#p88560ce9c1)" style="fill: none; stroke: #e1e0d9; stroke-width: 0.7; stroke-linecap: square"/>
     </g>
     <g id="line2d_8">
      <g>
       <use xlink:href="#mbd09373799" x="204.670492" y="176.466016" style="fill: #898781; stroke: #898781; stroke-width: 0.8"/>
      </g>
     </g>
     <g id="text_4">
      <!-- 4100 -->
      <g style="fill: #52514e" transform="translate(193.041742 191.633252) scale(0.105 -0.105)">
       <defs>
        <path id="Cambria-373" d="M 2172 816 
Q 2172 634 2192 542 
Q 2213 450 2264 392 
Q 2316 334 2412 301 
Q 2509 269 2656 251 
Q 2803 234 3044 228 
L 3044 0 
L 734 0 
L 734 228 
Q 1081 244 1229 270 
Q 1378 297 1456 350 
Q 1534 403 1570 500 
Q 1606 597 1606 816 
L 1606 3350 
Q 1606 3475 1562 3533 
Q 1519 3591 1434 3591 
Q 1334 3591 1150 3487 
Q 966 3384 694 3203 
L 556 3444 
L 2019 4316 
L 2191 4316 
Q 2172 4016 2172 3484 
L 2172 816 
z
" transform="scale(0.015625)"/>
       </defs>
       <use xlink:href="#Cambria-376"/>
       <use xlink:href="#Cambria-373" transform="translate(55.375 0)"/>
       <use xlink:href="#Cambria-372" transform="translate(110.75 0)"/>
       <use xlink:href="#Cambria-372" transform="translate(166.125 0)"/>
      </g>
     </g>
    </g>
    <g id="xtick_5">
     <g id="line2d_9">
      <path d="M 251.543564 176.466016 
L 251.543564 25.311816 
" clip-path="url(#p88560ce9c1)" style="fill: none; stroke: #e1e0d9; stroke-width: 0.7; stroke-linecap: square"/>
     </g>
     <g id="line2d_10">
      <g>
       <use xlink:href="#mbd09373799" x="251.543564" y="176.466016" style="fill: #898781; stroke: #898781; stroke-width: 0.8"/>
      </g>
     </g>
     <g id="text_5">
      <!-- 4200 -->
      <g style="fill: #52514e" transform="translate(239.914814 191.633252) scale(0.105 -0.105)">
       <defs>
        <path id="Cambria-374" d="M 2194 500 
Q 2347 500 2440 519 
Q 2534 538 2590 581 
Q 2647 625 2680 695 
Q 2713 766 2763 913 
L 3028 913 
L 2975 0 
L 403 0 
L 403 150 
Q 538 478 766 822 
Q 994 1166 1413 1631 
Q 1775 2031 1934 2238 
Q 2109 2463 2195 2627 
Q 2281 2791 2318 2936 
Q 2356 3081 2356 3228 
Q 2356 3463 2281 3642 
Q 2206 3822 2051 3925 
Q 1897 4028 1663 4028 
Q 1078 4028 875 3378 
L 497 3378 
L 497 3978 
Q 875 4156 1204 4236 
Q 1534 4316 1797 4316 
Q 2378 4316 2675 4061 
Q 2972 3806 2972 3322 
Q 2972 3156 2939 3017 
Q 2906 2878 2836 2742 
Q 2766 2606 2647 2450 
Q 2528 2294 2384 2133 
Q 2241 1972 1888 1597 
Q 1294 969 1016 500 
L 2194 500 
z
" transform="scale(0.015625)"/>
       </defs>
       <use xlink:href="#Cambria-376"/>
       <use xlink:href="#Cambria-374" transform="translate(55.375 0)"/>
       <use xlink:href="#Cambria-372" transform="translate(110.75 0)"/>
       <use xlink:href="#Cambria-372" transform="translate(166.125 0)"/>
      </g>
     </g>
    </g>
    <g id="text_6">
     <!-- ns per pipeline call (batch mean) -->
     <g style="fill: #0b0b0b" transform="translate(71.951563 207.3) scale(0.12 -0.12)">
      <defs>
       <path id="Cambria-90" d="M 3347 0 
L 2116 0 
L 2116 153 
Q 2238 191 2291 219 
Q 2344 247 2380 297 
Q 2416 347 2436 451 
Q 2456 556 2456 769 
L 2456 1588 
Q 2456 1806 2443 1984 
Q 2431 2163 2401 2277 
Q 2372 2391 2330 2455 
Q 2288 2519 2230 2564 
Q 2172 2609 2097 2636 
Q 2022 2663 1900 2663 
Q 1778 2663 1668 2614 
Q 1559 2566 1428 2447 
Q 1297 2328 1237 2212 
Q 1178 2097 1178 1947 
L 1178 781 
Q 1178 513 1203 408 
Q 1228 303 1298 248 
Q 1369 194 1528 153 
L 1528 0 
L 303 0 
L 303 153 
Q 425 191 476 219 
Q 528 247 564 297 
Q 600 347 620 450 
Q 641 553 641 772 
L 641 2134 
Q 641 2334 634 2456 
Q 628 2578 590 2651 
Q 553 2725 476 2761 
Q 400 2797 259 2822 
L 259 2988 
L 991 3016 
L 1181 3016 
L 1147 2506 
L 1191 2494 
Q 1422 2728 1564 2828 
Q 1706 2928 1851 2983 
Q 1997 3038 2159 3038 
Q 2328 3038 2461 2998 
Q 2594 2959 2695 2878 
Q 2797 2797 2862 2676 
Q 2928 2556 2961 2387 
Q 2994 2219 2994 1959 
L 2994 781 
Q 2994 566 3006 469 
Q 3019 372 3050 319 
Q 3081 266 3140 230 
Q 3200 194 3347 153 
L 3347 0 
z
" transform="scale(0.015625)"/>
       <path id="Cambria-95" d="M 2397 2303 
L 2097 2303 
Q 2028 2491 1934 2598 
Q 1841 2706 1722 2750 
Q 1603 2794 1431 2794 
Q 1181 2794 1032 2676 
Q 884 2559 884 2356 
Q 884 2213 943 2119 
Q 1003 2025 1128 1944 
Q 1253 1863 1569 1728 
Q 1888 1591 2061 1475 
Q 2234 1359 2332 1206 
Q 2431 1053 2431 841 
Q 2431 594 2347 425 
Q 2263 256 2109 150 
Q 1956 44 1745 -3 
Q 1534 -50 1284 -50 
Q 1022 -50 775 -11 
Q 528 28 294 91 
L 294 744 
L 600 744 
Q 684 456 850 326 
Q 1016 197 1306 197 
Q 1419 197 1526 220 
Q 1634 244 1718 298 
Q 1803 353 1853 447 
Q 1903 541 1903 681 
Q 1903 841 1840 941 
Q 1778 1041 1647 1123 
Q 1516 1206 1184 1347 
Q 900 1466 728 1578 
Q 556 1691 457 1844 
Q 359 1997 359 2206 
Q 359 2463 498 2652 
Q 638 2841 900 2941 
Q 1163 3041 1516 3041 
Q 1722 3041 1914 3020 
Q 2106 3000 2397 2941 
L 2397 2303 
z
" transform="scale(0.015625)"/>
       <path id="Cambria-3" transform="scale(0.015625)"/>
       <path id="Cambria-92" d="M 1150 94 
L 1150 -566 
Q 1150 -769 1164 -869 
Q 1178 -969 1214 -1026 
Q 1250 -1084 1317 -1121 
Q 1384 -1159 1534 -1191 
L 1534 -1344 
L 259 -1344 
L 259 -1191 
Q 372 -1159 442 -1126 
Q 513 -1094 550 -1030 
Q 588 -966 600 -856 
Q 613 -747 613 -566 
L 613 2116 
Q 613 2341 606 2436 
Q 600 2531 581 2593 
Q 563 2656 527 2697 
Q 491 2738 430 2766 
Q 369 2794 228 2822 
L 228 2988 
L 963 3016 
L 1153 3016 
L 1113 2506 
L 1159 2494 
Q 1353 2691 1465 2780 
Q 1578 2869 1698 2928 
Q 1819 2988 1930 3013 
Q 2041 3038 2166 3038 
Q 2681 3038 2957 2652 
Q 3234 2266 3234 1522 
Q 3234 1006 3078 654 
Q 2922 303 2623 126 
Q 2325 -50 1913 -50 
Q 1681 -50 1493 -11 
Q 1306 28 1150 94 
z
M 1150 1125 
Q 1150 825 1187 662 
Q 1225 500 1320 398 
Q 1416 297 1545 247 
Q 1675 197 1888 197 
Q 2266 197 2456 511 
Q 2647 825 2647 1438 
Q 2647 2663 1931 2663 
Q 1756 2663 1629 2608 
Q 1503 2553 1378 2431 
Q 1253 2309 1201 2195 
Q 1150 2081 1150 1950 
L 1150 1125 
z
" transform="scale(0.015625)"/>
       <path id="Cambria-87" d="M 2800 531 
Q 2600 322 2433 203 
Q 2266 84 2066 17 
Q 1866 -50 1625 -50 
Q 981 -50 653 336 
Q 325 722 325 1475 
Q 325 1941 492 2297 
Q 659 2653 968 2847 
Q 1278 3041 1681 3041 
Q 1997 3041 2219 2941 
Q 2441 2841 2573 2667 
Q 2706 2494 2779 2230 
Q 2853 1966 2863 1541 
L 894 1541 
L 894 1484 
Q 894 1116 976 864 
Q 1059 613 1248 470 
Q 1438 328 1741 328 
Q 1997 328 2201 423 
Q 2406 519 2609 734 
L 2800 531 
z
M 2275 1800 
Q 2256 2138 2190 2352 
Q 2125 2566 1994 2680 
Q 1863 2794 1650 2794 
Q 1328 2794 1136 2536 
Q 944 2278 909 1800 
L 2275 1800 
z
" transform="scale(0.015625)"/>
       <path id="Cambria-94" d="M 1147 2469 
L 1191 2459 
Q 1363 2669 1509 2789 
Q 1656 2909 1826 2975 
Q 1997 3041 2213 3041 
Q 2394 3041 2541 3022 
L 2541 2303 
L 2188 2303 
Q 2113 2472 2028 2548 
Q 1944 2625 1797 2625 
Q 1684 2625 1573 2559 
Q 1463 2494 1359 2369 
Q 1256 2244 1217 2134 
Q 1178 2025 1178 1875 
L 1178 781 
Q 1178 497 1212 389 
Q 1247 281 1326 231 
Q 1406 181 1566 153 
L 1566 0 
L 306 0 
L 306 153 
Q 425 191 476 219 
Q 528 247 565 297 
Q 603 347 622 450 
Q 641 553 641 772 
L 641 2134 
Q 641 2334 634 2456 
Q 628 2578 590 2651 
Q 553 2725 476 2761 
Q 400 2797 259 2822 
L 259 2984 
L 991 3016 
L 1181 3016 
L 1147 2469 
z
" transform="scale(0.015625)"/>
       <path id="Cambria-8b" d="M 1197 4213 
L 1197 3606 
L 622 3606 
L 622 4213 
L 1197 4213 
z
M 303 153 
Q 425 191 476 219 
Q 528 247 564 297 
Q 600 347 620 450 
Q 641 553 641 772 
L 641 2134 
Q 641 2334 634 2456 
Q 628 2578 590 2651 
Q 553 2725 476 2761 
Q 400 2797 259 2822 
L 259 2988 
L 988 3016 
L 1178 3016 
L 1178 781 
Q 1178 513 1203 408 
Q 1228 303 1298 248 
Q 1369 194 1528 153 
L 1528 0 
L 303 0 
L 303 153 
z
" transform="scale(0.015625)"/>
       <path id="Cambria-8e" d="M 1138 781 
Q 1138 513 1163 408 
Q 1188 303 1258 248 
Q 1328 194 1488 153 
L 1488 0 
L 247 0 
L 247 153 
Q 403 194 464 237 
Q 525 281 551 342 
Q 578 403 589 508 
Q 600 613 600 781 
L 600 3397 
Q 600 3697 595 3815 
Q 591 3934 570 4017 
Q 550 4100 514 4147 
Q 478 4194 417 4222 
Q 356 4250 197 4278 
L 197 4441 
L 950 4472 
L 1138 4472 
L 1138 781 
z
" transform="scale(0.015625)"/>
       <path id="Cambria-85" d="M 2631 2916 
L 2631 2263 
L 2234 2263 
Q 2181 2466 2103 2583 
Q 2025 2700 1922 2747 
Q 1819 2794 1666 2794 
Q 1447 2794 1278 2653 
Q 1109 2513 1011 2225 
Q 913 1938 913 1522 
Q 913 1256 950 1036 
Q 988 816 1078 659 
Q 1169 503 1319 415 
Q 1469 328 1691 328 
Q 1906 328 2092 412 
Q 2278 497 2478 709 
L 2656 503 
Q 2497 328 2375 233 
Q 2253 138 2114 73 
Q 1975 9 1839 -20 
Q 1703 -50 1544 -50 
Q 953 -50 640 342 
Q 328 734 328 1475 
Q 328 1938 503 2295 
Q 678 2653 993 2847 
Q 1309 3041 1722 3041 
Q 1978 3041 2195 3011 
Q 2413 2981 2631 2916 
z
" transform="scale(0.015625)"/>
       <path id="Cambria-83" d="M 2109 447 
L 2063 459 
Q 1791 181 1552 65 
Q 1313 -50 1044 -50 
Q 806 -50 625 42 
Q 444 134 347 301 
Q 250 469 250 688 
Q 250 1144 701 1392 
Q 1153 1641 2056 1681 
L 2056 1884 
Q 2056 2209 1993 2396 
Q 1931 2584 1797 2671 
Q 1663 2759 1438 2759 
Q 1194 2759 1045 2631 
Q 897 2503 822 2247 
L 413 2247 
L 413 2653 
Q 713 2809 913 2882 
Q 1113 2956 1313 2998 
Q 1513 3041 1719 3041 
Q 2028 3041 2215 2942 
Q 2403 2844 2497 2641 
Q 2591 2438 2591 2028 
L 2591 941 
Q 2591 709 2594 614 
Q 2597 519 2612 437 
Q 2628 356 2659 307 
Q 2691 259 2752 225 
Q 2813 191 2950 153 
L 2950 0 
L 2094 0 
L 2109 447 
z
M 2056 1425 
Q 1422 1419 1106 1256 
Q 791 1094 791 766 
Q 791 588 862 484 
Q 934 381 1043 342 
Q 1153 303 1303 303 
Q 1516 303 1689 406 
Q 1863 509 1959 668 
Q 2056 828 2056 984 
L 2056 1425 
z
" transform="scale(0.015625)"/>
       <path id="Cambria-20b" d="M 2309 -1359 
Q 1778 -1359 1442 -1200 
Q 1106 -1041 918 -714 
Q 731 -388 647 134 
Q 563 656 563 1550 
Q 563 2438 645 2964 
Q 728 3491 915 3822 
Q 1103 4153 1440 4318 
Q 1778 4484 2309 4484 
L 2309 4228 
Q 2091 4228 1922 4191 
Q 1731 4147 1597 4022 
Q 1447 3884 1353 3638 
Q 1244 3350 1191 2875 
Q 1134 2372 1134 1575 
Q 1134 872 1181 379 
Q 1228 -113 1338 -425 
Q 1425 -688 1556 -834 
Q 1672 -963 1831 -1028 
Q 2016 -1103 2309 -1103 
L 2309 -1359 
z
" transform="scale(0.015625)"/>
       <path id="Cambria-84" d="M 1091 2497 
L 1103 2494 
Q 1322 2722 1467 2825 
Q 1613 2928 1767 2983 
Q 1922 3038 2106 3038 
Q 2441 3038 2680 2867 
Q 2919 2697 3048 2356 
Q 3178 2016 3178 1522 
Q 3178 1013 3023 661 
Q 2869 309 2567 129 
Q 2266 -50 1853 -50 
Q 1622 -50 1417 -8 
Q 1213 34 988 141 
L 769 -50 
L 553 0 
L 553 3397 
Q 553 3697 548 3815 
Q 544 3934 523 4017 
Q 503 4100 467 4147 
Q 431 4194 370 4222 
Q 309 4250 150 4278 
L 150 4441 
L 906 4472 
L 1091 4472 
L 1091 2497 
z
M 1091 1125 
Q 1091 884 1112 742 
Q 1134 600 1186 506 
Q 1238 413 1336 334 
Q 1434 256 1556 226 
Q 1678 197 1828 197 
Q 2203 197 2397 503 
Q 2591 809 2591 1422 
Q 2591 2041 2414 2352 
Q 2238 2663 1881 2663 
Q 1703 2663 1578 2608 
Q 1453 2553 1329 2437 
Q 1206 2322 1148 2209 
Q 1091 2097 1091 1953 
L 1091 1125 
z
" transform="scale(0.015625)"/>
       <path id="Cambria-96" d="M 116 2831 
Q 272 2856 369 2918 
Q 466 2981 520 3079 
Q 575 3178 606 3326 
Q 638 3475 672 3759 
L 1116 3759 
L 1116 2988 
L 2125 2988 
L 2125 2672 
L 1116 2672 
L 1116 1281 
Q 1116 978 1141 798 
Q 1166 619 1234 517 
Q 1303 416 1390 372 
Q 1478 328 1616 328 
Q 1741 328 1850 379 
Q 1959 431 2066 528 
L 2206 359 
Q 1984 144 1786 47 
Q 1588 -50 1375 -50 
Q 972 -50 775 189 
Q 578 428 578 938 
L 578 2672 
L 116 2672 
L 116 2831 
z
" transform="scale(0.015625)"/>
       <path id="Cambria-8a" d="M 1141 2497 
L 1153 2494 
Q 1397 2741 1539 2839 
Q 1681 2938 1820 2988 
Q 1959 3038 2119 3038 
Q 2291 3038 2425 2997 
Q 2559 2956 2661 2873 
Q 2763 2791 2827 2670 
Q 2891 2550 2922 2383 
Q 2953 2216 2953 1959 
L 2953 781 
Q 2953 509 2976 411 
Q 3000 313 3061 258 
Q 3122 203 3306 153 
L 3306 0 
L 2075 0 
L 2075 153 
Q 2197 191 2250 219 
Q 2303 247 2339 297 
Q 2375 347 2395 451 
Q 2416 556 2416 769 
L 2416 1588 
Q 2416 2003 2373 2223 
Q 2331 2444 2207 2553 
Q 2084 2663 1863 2663 
Q 1738 2663 1638 2619 
Q 1538 2575 1406 2462 
Q 1275 2350 1208 2231 
Q 1141 2113 1141 1978 
L 1141 781 
Q 1141 569 1152 478 
Q 1163 388 1194 327 
Q 1225 266 1289 227 
Q 1353 188 1488 153 
L 1488 0 
L 250 0 
L 250 153 
Q 388 191 447 225 
Q 506 259 539 312 
Q 572 366 587 466 
Q 603 566 603 781 
L 603 3397 
Q 603 3697 598 3815 
Q 594 3934 573 4017 
Q 553 4100 517 4147 
Q 481 4194 420 4222 
Q 359 4250 200 4278 
L 200 4441 
L 953 4472 
L 1141 4472 
L 1141 2497 
z
" transform="scale(0.015625)"/>
       <path id="Cambria-8f" d="M 1147 2506 
L 1191 2494 
Q 1378 2681 1498 2776 
Q 1619 2872 1731 2930 
Q 1844 2988 1942 3013 
Q 2041 3038 2144 3038 
Q 2456 3038 2653 2894 
Q 2850 2750 2925 2453 
Q 3159 2691 3304 2803 
Q 3450 2916 3601 2977 
Q 3753 3038 3928 3038 
Q 4138 3038 4289 2977 
Q 4441 2916 4545 2789 
Q 4650 2663 4698 2472 
Q 4747 2281 4747 1959 
L 4747 781 
Q 4747 544 4762 453 
Q 4778 363 4808 313 
Q 4838 263 4897 227 
Q 4956 191 5097 153 
L 5097 0 
L 3869 0 
L 3869 153 
Q 3991 191 4044 219 
Q 4097 247 4133 297 
Q 4169 347 4189 451 
Q 4209 556 4209 769 
L 4209 1588 
Q 4209 1853 4195 2026 
Q 4181 2200 4151 2303 
Q 4122 2406 4080 2465 
Q 4038 2525 3984 2569 
Q 3931 2613 3859 2638 
Q 3788 2663 3669 2663 
Q 3544 2663 3436 2613 
Q 3328 2563 3201 2444 
Q 3075 2325 3019 2204 
Q 2963 2084 2963 1922 
L 2963 781 
Q 2963 544 2978 453 
Q 2994 363 3023 313 
Q 3053 263 3112 227 
Q 3172 191 3313 153 
L 3313 0 
L 2084 0 
L 2084 153 
Q 2206 191 2259 219 
Q 2313 247 2348 297 
Q 2384 347 2404 451 
Q 2425 556 2425 769 
L 2425 1588 
Q 2425 1866 2409 2041 
Q 2394 2216 2361 2322 
Q 2328 2428 2276 2493 
Q 2225 2559 2172 2593 
Q 2119 2628 2047 2645 
Q 1975 2663 1884 2663 
Q 1756 2663 1643 2605 
Q 1531 2547 1414 2437 
Q 1297 2328 1237 2209 
Q 1178 2091 1178 1953 
L 1178 781 
Q 1178 603 1187 509 
Q 1197 416 1217 362 
Q 1238 309 1269 276 
Q 1300 244 1358 214 
Q 1416 184 1531 153 
L 1531 0 
L 306 0 
L 306 153 
Q 425 191 476 219 
Q 528 247 565 297 
Q 603 347 622 450 
Q 641 553 641 772 
L 641 2134 
Q 641 2334 634 2456 
Q 628 2578 590 2651 
Q 553 2725 476 2761 
Q 400 2797 259 2822 
L 259 2988 
L 991 3016 
L 1181 3016 
L 1147 2506 
z
" transform="scale(0.015625)"/>
       <path id="Cambria-20c" d="M 134 4484 
Q 666 4484 1002 4325 
Q 1338 4166 1525 3839 
Q 1713 3513 1797 2991 
Q 1881 2469 1881 1575 
Q 1881 688 1798 161 
Q 1716 -366 1528 -697 
Q 1341 -1028 1003 -1193 
Q 666 -1359 134 -1359 
L 134 -1103 
Q 353 -1103 522 -1066 
Q 713 -1022 847 -897 
Q 997 -759 1091 -513 
Q 1200 -225 1253 250 
Q 1309 753 1309 1550 
Q 1309 2253 1262 2745 
Q 1216 3238 1106 3550 
Q 1019 3813 888 3959 
Q 772 4088 613 4153 
Q 428 4228 134 4228 
L 134 4484 
z
" transform="scale(0.015625)"/>
      </defs>
      <use xlink:href="#Cambria-90"/>
      <use xlink:href="#Cambria-95" transform="translate(55.8125 0)"/>
      <use xlink:href="#Cambria-3" transform="translate(98.78125 0)"/>
      <use xlink:href="#Cambria-92" transform="translate(120.796875 0)"/>
      <use xlink:href="#Cambria-87" transform="translate(176.40625 0)"/>
      <use xlink:href="#Cambria-94" transform="translate(225.1875 0)"/>
      <use xlink:href="#Cambria-3" transform="translate(266.546875 0)"/>
      <use xlink:href="#Cambria-92" transform="translate(288.5625 0)"/>
      <use xlink:href="#Cambria-8b" transform="translate(344.171875 0)"/>
      <use xlink:href="#Cambria-92" transform="translate(371.953125 0)"/>
      <use xlink:href="#Cambria-87" transform="translate(427.5625 0)"/>
      <use xlink:href="#Cambria-8e" transform="translate(476.34375 0)"/>
      <use xlink:href="#Cambria-8b" transform="translate(503.5 0)"/>
      <use xlink:href="#Cambria-90" transform="translate(531.28125 0)"/>
      <use xlink:href="#Cambria-87" transform="translate(587.09375 0)"/>
      <use xlink:href="#Cambria-3" transform="translate(635.875 0)"/>
      <use xlink:href="#Cambria-85" transform="translate(657.890625 0)"/>
      <use xlink:href="#Cambria-83" transform="translate(701.984375 0)"/>
      <use xlink:href="#Cambria-8e" transform="translate(750.8125 0)"/>
      <use xlink:href="#Cambria-8e" transform="translate(777.96875 0)"/>
      <use xlink:href="#Cambria-3" transform="translate(805.125 0)"/>
      <use xlink:href="#Cambria-20b" transform="translate(827.140625 0)"/>
      <use xlink:href="#Cambria-84" transform="translate(865.328125 0)"/>
      <use xlink:href="#Cambria-83" transform="translate(920.0625 0)"/>
      <use xlink:href="#Cambria-96" transform="translate(968.890625 0)"/>
      <use xlink:href="#Cambria-85" transform="translate(1001.859375 0)"/>
      <use xlink:href="#Cambria-8a" transform="translate(1045.953125 0)"/>
      <use xlink:href="#Cambria-3" transform="translate(1101.125 0)"/>
      <use xlink:href="#Cambria-8f" transform="translate(1123.140625 0)"/>
      <use xlink:href="#Cambria-87" transform="translate(1206.34375 0)"/>
      <use xlink:href="#Cambria-83" transform="translate(1255.125 0)"/>
      <use xlink:href="#Cambria-90" transform="translate(1303.953125 0)"/>
      <use xlink:href="#Cambria-20c" transform="translate(1359.765625 0)"/>
     </g>
    </g>
   </g>
   <g id="matplotlib.axis_2">
    <g id="ytick_1">
     <g id="line2d_11">
      <path d="M 41.82875 176.466016 
L 269.82875 176.466016 
" clip-path="url(#p88560ce9c1)" style="fill: none; stroke: #e1e0d9; stroke-width: 0.7; stroke-linecap: square"/>
     </g>
     <g id="line2d_12">
      <defs>
       <path id="m0c6def9b5b" d="M 0 0 
L -3.5 0 
" style="stroke: #898781; stroke-width: 0.8"/>
      </defs>
      <g>
       <use xlink:href="#m0c6def9b5b" x="41.82875" y="176.466016" style="fill: #898781; stroke: #898781; stroke-width: 0.8"/>
      </g>
     </g>
     <g id="text_7">
      <!-- 0 -->
      <g style="fill: #52514e" transform="translate(29.014375 180.549634) scale(0.105 -0.105)">
       <use xlink:href="#Cambria-372"/>
      </g>
     </g>
    </g>
    <g id="ytick_2">
     <g id="line2d_13">
      <path d="M 41.82875 148.782096 
L 269.82875 148.782096 
" clip-path="url(#p88560ce9c1)" style="fill: none; stroke: #e1e0d9; stroke-width: 0.7; stroke-linecap: square"/>
     </g>
     <g id="line2d_14">
      <g>
       <use xlink:href="#m0c6def9b5b" x="41.82875" y="148.782096" style="fill: #898781; stroke: #898781; stroke-width: 0.8"/>
      </g>
     </g>
     <g id="text_8">
      <!-- 10 -->
      <g style="fill: #52514e" transform="translate(23.2 152.865715) scale(0.105 -0.105)">
       <use xlink:href="#Cambria-373"/>
       <use xlink:href="#Cambria-372" transform="translate(55.375 0)"/>
      </g>
     </g>
    </g>
    <g id="ytick_3">
     <g id="line2d_15">
      <path d="M 41.82875 121.098177 
L 269.82875 121.098177 
" clip-path="url(#p88560ce9c1)" style="fill: none; stroke: #e1e0d9; stroke-width: 0.7; stroke-linecap: square"/>
     </g>
     <g id="line2d_16">
      <g>
       <use xlink:href="#m0c6def9b5b" x="41.82875" y="121.098177" style="fill: #898781; stroke: #898781; stroke-width: 0.8"/>
      </g>
     </g>
     <g id="text_9">
      <!-- 20 -->
      <g style="fill: #52514e" transform="translate(23.2 125.181795) scale(0.105 -0.105)">
       <use xlink:href="#Cambria-374"/>
       <use xlink:href="#Cambria-372" transform="translate(55.375 0)"/>
      </g>
     </g>
    </g>
    <g id="ytick_4">
     <g id="line2d_17">
      <path d="M 41.82875 93.414258 
L 269.82875 93.414258 
" clip-path="url(#p88560ce9c1)" style="fill: none; stroke: #e1e0d9; stroke-width: 0.7; stroke-linecap: square"/>
     </g>
     <g id="line2d_18">
      <g>
       <use xlink:href="#m0c6def9b5b" x="41.82875" y="93.414258" style="fill: #898781; stroke: #898781; stroke-width: 0.8"/>
      </g>
     </g>
     <g id="text_10">
      <!-- 30 -->
      <g style="fill: #52514e" transform="translate(23.2 97.497876) scale(0.105 -0.105)">
       <use xlink:href="#Cambria-375"/>
       <use xlink:href="#Cambria-372" transform="translate(55.375 0)"/>
      </g>
     </g>
    </g>
    <g id="ytick_5">
     <g id="line2d_19">
      <path d="M 41.82875 65.730339 
L 269.82875 65.730339 
" clip-path="url(#p88560ce9c1)" style="fill: none; stroke: #e1e0d9; stroke-width: 0.7; stroke-linecap: square"/>
     </g>
     <g id="line2d_20">
      <g>
       <use xlink:href="#m0c6def9b5b" x="41.82875" y="65.730339" style="fill: #898781; stroke: #898781; stroke-width: 0.8"/>
      </g>
     </g>
     <g id="text_11">
      <!-- 40 -->
      <g style="fill: #52514e" transform="translate(23.2 69.813957) scale(0.105 -0.105)">
       <use xlink:href="#Cambria-376"/>
       <use xlink:href="#Cambria-372" transform="translate(55.375 0)"/>
      </g>
     </g>
    </g>
    <g id="ytick_6">
     <g id="line2d_21">
      <path d="M 41.82875 38.046419 
L 269.82875 38.046419 
" clip-path="url(#p88560ce9c1)" style="fill: none; stroke: #e1e0d9; stroke-width: 0.7; stroke-linecap: square"/>
     </g>
     <g id="line2d_22">
      <g>
       <use xlink:href="#m0c6def9b5b" x="41.82875" y="38.046419" style="fill: #898781; stroke: #898781; stroke-width: 0.8"/>
      </g>
     </g>
     <g id="text_12">
      <!-- 50 -->
      <g style="fill: #52514e" transform="translate(23.2 42.130037) scale(0.105 -0.105)">
       <defs>
        <path id="Cambria-377" d="M 469 172 
L 469 834 
L 847 834 
Q 941 516 1130 366 
Q 1319 216 1619 216 
Q 2034 216 2246 466 
Q 2459 716 2459 1213 
Q 2459 1544 2346 1761 
Q 2234 1978 2043 2075 
Q 1853 2172 1600 2172 
Q 1388 2172 1234 2145 
Q 1081 2119 906 2063 
L 656 2209 
L 656 4266 
L 2378 4266 
Q 2484 4266 2531 4283 
Q 2578 4300 2606 4336 
Q 2634 4372 2672 4472 
L 2916 4472 
L 2869 3747 
L 1072 3747 
L 1072 2375 
Q 1234 2444 1425 2478 
Q 1616 2513 1806 2513 
Q 2178 2513 2465 2361 
Q 2753 2209 2909 1929 
Q 3066 1650 3066 1281 
Q 3066 863 2891 563 
Q 2716 263 2384 106 
Q 2053 -50 1600 -50 
Q 1059 -50 469 172 
z
" transform="scale(0.015625)"/>
       </defs>
       <use xlink:href="#Cambria-377"/>
       <use xlink:href="#Cambria-372" transform="translate(55.375 0)"/>
      </g>
     </g>
    </g>
    <g id="text_13">
     <!-- rounds -->
     <g style="fill: #0b0b0b" transform="translate(16.533984 119.035166) rotate(-90) scale(0.12 -0.12)">
      <defs>
       <path id="Cambria-91" d="M 1663 -50 
Q 1013 -50 670 333 
Q 328 716 328 1466 
Q 328 1981 508 2337 
Q 688 2694 1000 2867 
Q 1313 3041 1713 3041 
Q 2381 3041 2725 2652 
Q 3069 2263 3069 1534 
Q 3069 1016 2897 659 
Q 2725 303 2409 126 
Q 2094 -50 1663 -50 
z
M 919 1531 
Q 919 888 1123 542 
Q 1328 197 1709 197 
Q 1919 197 2066 298 
Q 2213 400 2305 572 
Q 2397 744 2437 970 
Q 2478 1197 2478 1444 
Q 2478 1903 2376 2206 
Q 2275 2509 2100 2651 
Q 1925 2794 1700 2794 
Q 1322 2794 1120 2466 
Q 919 2138 919 1531 
z
" transform="scale(0.015625)"/>
       <path id="Cambria-97" d="M 228 2988 
L 1119 2988 
L 1119 1397 
Q 1119 1031 1147 840 
Q 1175 650 1231 553 
Q 1288 456 1391 390 
Q 1494 325 1675 325 
Q 1794 325 1903 372 
Q 2013 419 2147 536 
Q 2281 653 2339 768 
Q 2397 884 2397 1038 
L 2397 2209 
Q 2397 2388 2387 2478 
Q 2378 2569 2356 2623 
Q 2334 2678 2304 2712 
Q 2275 2747 2220 2775 
Q 2166 2803 2044 2834 
L 2044 2988 
L 2934 2988 
L 2934 853 
Q 2934 613 2943 506 
Q 2953 400 2984 337 
Q 3016 275 3081 236 
Q 3147 197 3316 163 
L 3316 0 
L 2600 -31 
L 2409 -31 
L 2428 481 
L 2381 494 
Q 2122 213 1886 81 
Q 1650 -50 1413 -50 
Q 1128 -50 943 62 
Q 759 175 668 398 
Q 578 622 578 1028 
L 578 2209 
Q 578 2472 558 2570 
Q 538 2669 480 2726 
Q 422 2784 228 2834 
L 228 2988 
z
" transform="scale(0.015625)"/>
       <path id="Cambria-86" d="M 2413 3397 
Q 2413 3697 2408 3815 
Q 2403 3934 2383 4017 
Q 2363 4100 2327 4147 
Q 2291 4194 2230 4222 
Q 2169 4250 2009 4278 
L 2009 4441 
L 2766 4472 
L 2950 4472 
L 2950 853 
Q 2950 609 2959 504 
Q 2969 400 3000 337 
Q 3031 275 3098 236 
Q 3166 197 3334 163 
L 3334 0 
L 2597 -31 
L 2409 -31 
L 2447 481 
L 2400 494 
Q 2203 284 2058 179 
Q 1913 75 1748 12 
Q 1584 -50 1397 -50 
Q 884 -50 606 339 
Q 328 728 328 1463 
Q 328 1975 509 2333 
Q 691 2691 998 2866 
Q 1306 3041 1691 3041 
Q 1897 3041 2065 3008 
Q 2234 2975 2413 2900 
L 2413 3397 
z
M 2413 1853 
Q 2413 2097 2391 2244 
Q 2369 2391 2317 2491 
Q 2266 2591 2178 2659 
Q 2091 2728 1986 2759 
Q 1881 2791 1734 2791 
Q 1334 2791 1125 2470 
Q 916 2150 916 1550 
Q 916 950 1087 637 
Q 1259 325 1609 325 
Q 1747 325 1837 348 
Q 1928 372 2015 423 
Q 2103 475 2193 565 
Q 2284 656 2326 731 
Q 2369 806 2391 903 
Q 2413 1000 2413 1153 
L 2413 1853 
z
" transform="scale(0.015625)"/>
      </defs>
      <use xlink:href="#Cambria-94"/>
      <use xlink:href="#Cambria-91" transform="translate(39.890625 0)"/>
      <use xlink:href="#Cambria-97" transform="translate(92.96875 0)"/>
      <use xlink:href="#Cambria-90" transform="translate(148.1875 0)"/>
      <use xlink:href="#Cambria-86" transform="translate(204 0)"/>
      <use xlink:href="#Cambria-95" transform="translate(259.46875 0)"/>
     </g>
    </g>
   </g>
   <g id="patch_3">
    <path d="M 52.192386 176.466016 
L 58.473378 176.466016 
L 58.473378 176.466016 
L 52.192386 176.466016 
z
" clip-path="url(#p88560ce9c1)" style="fill: #2a78d6; opacity: 0.65"/>
   </g>
   <g id="patch_4">
    <path d="M 58.473378 176.466016 
L 64.75437 176.466016 
L 64.75437 173.697624 
L 58.473378 173.697624 
z
" clip-path="url(#p88560ce9c1)" style="fill: #2a78d6; opacity: 0.65"/>
   </g>
   <g id="patch_5">
    <path d="M 64.75437 176.466016 
L 71.035362 176.466016 
L 71.035362 170.929232 
L 64.75437 170.929232 
z
" clip-path="url(#p88560ce9c1)" style="fill: #2a78d6; opacity: 0.65"/>
   </g>
   <g id="patch_6">
    <path d="M 71.035362 176.466016 
L 77.316353 176.466016 
L 77.316353 162.624056 
L 71.035362 162.624056 
z
" clip-path="url(#p88560ce9c1)" style="fill: #2a78d6; opacity: 0.65"/>
   </g>
   <g id="patch_7">
    <path d="M 77.316353 176.466016 
L 83.597345 176.466016 
L 83.597345 157.087272 
L 77.316353 157.087272 
z
" clip-path="url(#p88560ce9c1)" style="fill: #2a78d6; opacity: 0.65"/>
   </g>
   <g id="patch_8">
    <path d="M 83.597345 176.466016 
L 89.878337 176.466016 
L 89.878337 143.245312 
L 83.597345 143.245312 
z
" clip-path="url(#p88560ce9c1)" style="fill: #2a78d6; opacity: 0.65"/>
   </g>
   <g id="patch_9">
    <path d="M 89.878337 176.466016 
L 96.159329 176.466016 
L 96.159329 118.329785 
L 89.878337 118.329785 
z
" clip-path="url(#p88560ce9c1)" style="fill: #2a78d6; opacity: 0.65"/>
   </g>
   <g id="patch_10">
    <path d="M 96.159329 176.466016 
L 102.44032 176.466016 
L 102.44032 76.803906 
L 96.159329 76.803906 
z
" clip-path="url(#p88560ce9c1)" style="fill: #2a78d6; opacity: 0.65"/>
   </g>
   <g id="patch_11">
    <path d="M 102.44032 176.466016 
L 108.721312 176.466016 
L 108.721312 62.961947 
L 102.44032 62.961947 
z
" clip-path="url(#p88560ce9c1)" style="fill: #2a78d6; opacity: 0.65"/>
   </g>
   <g id="patch_12">
    <path d="M 108.721312 176.466016 
L 115.002304 176.466016 
L 115.002304 87.877474 
L 108.721312 87.877474 
z
" clip-path="url(#p88560ce9c1)" style="fill: #2a78d6; opacity: 0.65"/>
   </g>
   <g id="patch_13">
    <path d="M 115.002304 176.466016 
L 121.283295 176.466016 
L 121.283295 49.119987 
L 115.002304 49.119987 
z
" clip-path="url(#p88560ce9c1)" style="fill: #2a78d6; opacity: 0.65"/>
   </g>
   <g id="patch_14">
    <path d="M 121.283295 176.466016 
L 127.564287 176.466016 
L 127.564287 60.193555 
L 121.283295 60.193555 
z
" clip-path="url(#p88560ce9c1)" style="fill: #2a78d6; opacity: 0.65"/>
   </g>
   <g id="patch_15">
    <path d="M 127.564287 176.466016 
L 133.845279 176.466016 
L 133.845279 118.329785 
L 127.564287 118.329785 
z
" clip-path="url(#p88560ce9c1)" style="fill: #2a78d6; opacity: 0.65"/>
   </g>
   <g id="patch_16">
    <path d="M 133.845279 176.466016 
L 140.126271 176.466016 
L 140.126271 121.098177 
L 133.845279 121.098177 
z
" clip-path="url(#p88560ce9c1)" style="fill: #2a78d6; opacity: 0.65"/>
   </g>
   <g id="patch_17">
    <path d="M 140.126271 176.466016 
L 146.407262 176.466016 
L 146.407262 134.940137 
L 140.126271 134.940137 
z
" clip-path="url(#p88560ce9c1)" style="fill: #2a78d6; opacity: 0.65"/>
   </g>
   <g id="patch_18">
    <path d="M 146.407262 176.466016 
L 152.688254 176.466016 
L 152.688254 140.476921 
L 146.407262 140.476921 
z
" clip-path="url(#p88560ce9c1)" style="fill: #2a78d6; opacity: 0.65"/>
   </g>
   <g id="patch_19">
    <path d="M 152.688254 176.466016 
L 158.969246 176.466016 
L 158.969246 140.476921 
L 152.688254 140.476921 
z
" clip-path="url(#p88560ce9c1)" style="fill: #2a78d6; opacity: 0.65"/>
   </g>
   <g id="patch_20">
    <path d="M 158.969246 176.466016 
L 165.250238 176.466016 
L 165.250238 154.31888 
L 158.969246 154.31888 
z
" clip-path="url(#p88560ce9c1)" style="fill: #2a78d6; opacity: 0.65"/>
   </g>
   <g id="patch_21">
    <path d="M 165.250238 176.466016 
L 171.531229 176.466016 
L 171.531229 151.550488 
L 165.250238 151.550488 
z
" clip-path="url(#p88560ce9c1)" style="fill: #2a78d6; opacity: 0.65"/>
   </g>
   <g id="patch_22">
    <path d="M 171.531229 176.466016 
L 177.812221 176.466016 
L 177.812221 151.550488 
L 171.531229 151.550488 
z
" clip-path="url(#p88560ce9c1)" style="fill: #2a78d6; opacity: 0.65"/>
   </g>
   <g id="patch_23">
    <path d="M 177.812221 176.466016 
L 184.093213 176.466016 
L 184.093213 159.855664 
L 177.812221 159.855664 
z
" clip-path="url(#p88560ce9c1)" style="fill: #2a78d6; opacity: 0.65"/>
   </g>
   <g id="patch_24">
    <path d="M 184.093213 176.466016 
L 190.374205 176.466016 
L 190.374205 170.929232 
L 184.093213 170.929232 
z
" clip-path="url(#p88560ce9c1)" style="fill: #2a78d6; opacity: 0.65"/>
   </g>
   <g id="patch_25">
    <path d="M 190.374205 176.466016 
L 196.655196 176.466016 
L 196.655196 154.31888 
L 190.374205 154.31888 
z
" clip-path="url(#p88560ce9c1)" style="fill: #2a78d6; opacity: 0.65"/>
   </g>
   <g id="patch_26">
    <path d="M 196.655196 176.466016 
L 202.936188 176.466016 
L 202.936188 159.855664 
L 196.655196 159.855664 
z
" clip-path="url(#p88560ce9c1)" style="fill: #2a78d6; opacity: 0.65"/>
   </g>
   <g id="patch_27">
    <path d="M 202.936188 176.466016 
L 209.21718 176.466016 
L 209.21718 173.697624 
L 202.936188 173.697624 
z
" clip-path="url(#p88560ce9c1)" style="fill: #2a78d6; opacity: 0.65"/>
   </g>
   <g id="patch_28">
    <path d="M 209.21718 176.466016 
L 215.498171 176.466016 
L 215.498171 148.782096 
L 209.21718 148.782096 
z
" clip-path="url(#p88560ce9c1)" style="fill: #2a78d6; opacity: 0.65"/>
   </g>
   <g id="patch_29">
    <path d="M 215.498171 176.466016 
L 221.779163 176.466016 
L 221.779163 159.855664 
L 215.498171 159.855664 
z
" clip-path="url(#p88560ce9c1)" style="fill: #2a78d6; opacity: 0.65"/>
   </g>
   <g id="patch_30">
    <path d="M 221.779163 176.466016 
L 228.060155 176.466016 
L 228.060155 173.697624 
L 221.779163 173.697624 
z
" clip-path="url(#p88560ce9c1)" style="fill: #2a78d6; opacity: 0.65"/>
   </g>
   <g id="patch_31">
    <path d="M 228.060155 176.466016 
L 234.341147 176.466016 
L 234.341147 168.16084 
L 228.060155 168.16084 
z
" clip-path="url(#p88560ce9c1)" style="fill: #2a78d6; opacity: 0.65"/>
   </g>
   <g id="patch_32">
    <path d="M 234.341147 176.466016 
L 240.622138 176.466016 
L 240.622138 173.697624 
L 234.341147 173.697624 
z
" clip-path="url(#p88560ce9c1)" style="fill: #2a78d6; opacity: 0.65"/>
   </g>
   <g id="patch_33">
    <path d="M 240.622138 176.466016 
L 246.90313 176.466016 
L 246.90313 170.929232 
L 240.622138 170.929232 
z
" clip-path="url(#p88560ce9c1)" style="fill: #2a78d6; opacity: 0.65"/>
   </g>
   <g id="patch_34">
    <path d="M 246.90313 176.466016 
L 253.184122 176.466016 
L 253.184122 176.466016 
L 246.90313 176.466016 
z
" clip-path="url(#p88560ce9c1)" style="fill: #2a78d6; opacity: 0.65"/>
   </g>
   <g id="patch_35">
    <path d="M 253.184122 176.466016 
L 259.465114 176.466016 
L 259.465114 173.697624 
L 253.184122 173.697624 
z
" clip-path="url(#p88560ce9c1)" style="fill: #2a78d6; opacity: 0.65"/>
   </g>
   <g id="patch_36">
    <path d="M 52.192386 176.466016 
L 58.473378 176.466016 
L 58.473378 173.697624 
L 52.192386 173.697624 
z
" clip-path="url(#p88560ce9c1)" style="fill: #eb6834; opacity: 0.65"/>
   </g>
   <g id="patch_37">
    <path d="M 58.473378 176.466016 
L 64.75437 176.466016 
L 64.75437 173.697624 
L 58.473378 173.697624 
z
" clip-path="url(#p88560ce9c1)" style="fill: #eb6834; opacity: 0.65"/>
   </g>
   <g id="patch_38">
    <path d="M 64.75437 176.466016 
L 71.035362 176.466016 
L 71.035362 170.929232 
L 64.75437 170.929232 
z
" clip-path="url(#p88560ce9c1)" style="fill: #eb6834; opacity: 0.65"/>
   </g>
   <g id="patch_39">
    <path d="M 71.035362 176.466016 
L 77.316353 176.466016 
L 77.316353 176.466016 
L 71.035362 176.466016 
z
" clip-path="url(#p88560ce9c1)" style="fill: #eb6834; opacity: 0.65"/>
   </g>
   <g id="patch_40">
    <path d="M 77.316353 176.466016 
L 83.597345 176.466016 
L 83.597345 134.940137 
L 77.316353 134.940137 
z
" clip-path="url(#p88560ce9c1)" style="fill: #eb6834; opacity: 0.65"/>
   </g>
   <g id="patch_41">
    <path d="M 83.597345 176.466016 
L 89.878337 176.466016 
L 89.878337 146.013704 
L 83.597345 146.013704 
z
" clip-path="url(#p88560ce9c1)" style="fill: #eb6834; opacity: 0.65"/>
   </g>
   <g id="patch_42">
    <path d="M 89.878337 176.466016 
L 96.159329 176.466016 
L 96.159329 112.793001 
L 89.878337 112.793001 
z
" clip-path="url(#p88560ce9c1)" style="fill: #eb6834; opacity: 0.65"/>
   </g>
   <g id="patch_43">
    <path d="M 96.159329 176.466016 
L 102.44032 176.466016 
L 102.44032 76.803906 
L 96.159329 76.803906 
z
" clip-path="url(#p88560ce9c1)" style="fill: #eb6834; opacity: 0.65"/>
   </g>
   <g id="patch_44">
    <path d="M 102.44032 176.466016 
L 108.721312 176.466016 
L 108.721312 90.645866 
L 102.44032 90.645866 
z
" clip-path="url(#p88560ce9c1)" style="fill: #eb6834; opacity: 0.65"/>
   </g>
   <g id="patch_45">
    <path d="M 108.721312 176.466016 
L 115.002304 176.466016 
L 115.002304 93.414258 
L 108.721312 93.414258 
z
" clip-path="url(#p88560ce9c1)" style="fill: #eb6834; opacity: 0.65"/>
   </g>
   <g id="patch_46">
    <path d="M 115.002304 176.466016 
L 121.283295 176.466016 
L 121.283295 60.193555 
L 115.002304 60.193555 
z
" clip-path="url(#p88560ce9c1)" style="fill: #eb6834; opacity: 0.65"/>
   </g>
   <g id="patch_47">
    <path d="M 121.283295 176.466016 
L 127.564287 176.466016 
L 127.564287 32.509635 
L 121.283295 32.509635 
z
" clip-path="url(#p88560ce9c1)" style="fill: #eb6834; opacity: 0.65"/>
   </g>
   <g id="patch_48">
    <path d="M 127.564287 176.466016 
L 133.845279 176.466016 
L 133.845279 90.645866 
L 127.564287 90.645866 
z
" clip-path="url(#p88560ce9c1)" style="fill: #eb6834; opacity: 0.65"/>
   </g>
   <g id="patch_49">
    <path d="M 133.845279 176.466016 
L 140.126271 176.466016 
L 140.126271 129.403353 
L 133.845279 129.403353 
z
" clip-path="url(#p88560ce9c1)" style="fill: #eb6834; opacity: 0.65"/>
   </g>
   <g id="patch_50">
    <path d="M 140.126271 176.466016 
L 146.407262 176.466016 
L 146.407262 129.403353 
L 140.126271 129.403353 
z
" clip-path="url(#p88560ce9c1)" style="fill: #eb6834; opacity: 0.65"/>
   </g>
   <g id="patch_51">
    <path d="M 146.407262 176.466016 
L 152.688254 176.466016 
L 152.688254 137.708529 
L 146.407262 137.708529 
z
" clip-path="url(#p88560ce9c1)" style="fill: #eb6834; opacity: 0.65"/>
   </g>
   <g id="patch_52">
    <path d="M 152.688254 176.466016 
L 158.969246 176.466016 
L 158.969246 154.31888 
L 152.688254 154.31888 
z
" clip-path="url(#p88560ce9c1)" style="fill: #eb6834; opacity: 0.65"/>
   </g>
   <g id="patch_53">
    <path d="M 158.969246 176.466016 
L 165.250238 176.466016 
L 165.250238 157.087272 
L 158.969246 157.087272 
z
" clip-path="url(#p88560ce9c1)" style="fill: #eb6834; opacity: 0.65"/>
   </g>
   <g id="patch_54">
    <path d="M 165.250238 176.466016 
L 171.531229 176.466016 
L 171.531229 159.855664 
L 165.250238 159.855664 
z
" clip-path="url(#p88560ce9c1)" style="fill: #eb6834; opacity: 0.65"/>
   </g>
   <g id="patch_55">
    <path d="M 171.531229 176.466016 
L 177.812221 176.466016 
L 177.812221 157.087272 
L 171.531229 157.087272 
z
" clip-path="url(#p88560ce9c1)" style="fill: #eb6834; opacity: 0.65"/>
   </g>
   <g id="patch_56">
    <path d="M 177.812221 176.466016 
L 184.093213 176.466016 
L 184.093213 162.624056 
L 177.812221 162.624056 
z
" clip-path="url(#p88560ce9c1)" style="fill: #eb6834; opacity: 0.65"/>
   </g>
   <g id="patch_57">
    <path d="M 184.093213 176.466016 
L 190.374205 176.466016 
L 190.374205 146.013704 
L 184.093213 146.013704 
z
" clip-path="url(#p88560ce9c1)" style="fill: #eb6834; opacity: 0.65"/>
   </g>
   <g id="patch_58">
    <path d="M 190.374205 176.466016 
L 196.655196 176.466016 
L 196.655196 162.624056 
L 190.374205 162.624056 
z
" clip-path="url(#p88560ce9c1)" style="fill: #eb6834; opacity: 0.65"/>
   </g>
   <g id="patch_59">
    <path d="M 196.655196 176.466016 
L 202.936188 176.466016 
L 202.936188 140.476921 
L 196.655196 140.476921 
z
" clip-path="url(#p88560ce9c1)" style="fill: #eb6834; opacity: 0.65"/>
   </g>
   <g id="patch_60">
    <path d="M 202.936188 176.466016 
L 209.21718 176.466016 
L 209.21718 170.929232 
L 202.936188 170.929232 
z
" clip-path="url(#p88560ce9c1)" style="fill: #eb6834; opacity: 0.65"/>
   </g>
   <g id="patch_61">
    <path d="M 209.21718 176.466016 
L 215.498171 176.466016 
L 215.498171 168.16084 
L 209.21718 168.16084 
z
" clip-path="url(#p88560ce9c1)" style="fill: #eb6834; opacity: 0.65"/>
   </g>
   <g id="patch_62">
    <path d="M 215.498171 176.466016 
L 221.779163 176.466016 
L 221.779163 168.16084 
L 215.498171 168.16084 
z
" clip-path="url(#p88560ce9c1)" style="fill: #eb6834; opacity: 0.65"/>
   </g>
   <g id="patch_63">
    <path d="M 221.779163 176.466016 
L 228.060155 176.466016 
L 228.060155 168.16084 
L 221.779163 168.16084 
z
" clip-path="url(#p88560ce9c1)" style="fill: #eb6834; opacity: 0.65"/>
   </g>
   <g id="patch_64">
    <path d="M 228.060155 176.466016 
L 234.341147 176.466016 
L 234.341147 173.697624 
L 228.060155 173.697624 
z
" clip-path="url(#p88560ce9c1)" style="fill: #eb6834; opacity: 0.65"/>
   </g>
   <g id="patch_65">
    <path d="M 234.341147 176.466016 
L 240.622138 176.466016 
L 240.622138 173.697624 
L 234.341147 173.697624 
z
" clip-path="url(#p88560ce9c1)" style="fill: #eb6834; opacity: 0.65"/>
   </g>
   <g id="patch_66">
    <path d="M 240.622138 176.466016 
L 246.90313 176.466016 
L 246.90313 176.466016 
L 240.622138 176.466016 
z
" clip-path="url(#p88560ce9c1)" style="fill: #eb6834; opacity: 0.65"/>
   </g>
   <g id="patch_67">
    <path d="M 246.90313 176.466016 
L 253.184122 176.466016 
L 253.184122 173.697624 
L 246.90313 173.697624 
z
" clip-path="url(#p88560ce9c1)" style="fill: #eb6834; opacity: 0.65"/>
   </g>
   <g id="patch_68">
    <path d="M 253.184122 176.466016 
L 259.465114 176.466016 
L 259.465114 173.697624 
L 253.184122 173.697624 
z
" clip-path="url(#p88560ce9c1)" style="fill: #eb6834; opacity: 0.65"/>
   </g>
   <g id="patch_69">
    <path d="M 41.82875 176.466016 
L 41.82875 25.311816 
" style="fill: none; stroke: #c3c2b7; stroke-width: 0.9; stroke-linejoin: miter; stroke-linecap: square"/>
   </g>
   <g id="patch_70">
    <path d="M 41.82875 176.466016 
L 269.82875 176.466016 
" style="fill: none; stroke: #c3c2b7; stroke-width: 0.9; stroke-linejoin: miter; stroke-linecap: square"/>
   </g>
   <g id="text_14">
    <!-- 400 randomized-order rounds -->
    <g style="fill: #0b0b0b" transform="translate(41.82875 17.311816) scale(0.13 -0.13)">
     <defs>
      <path id="Cambria-9c" d="M 2659 906 
L 2659 0 
L 253 0 
L 253 153 
L 1966 2734 
L 1119 2734 
Q 963 2734 872 2678 
Q 781 2622 700 2490 
Q 619 2359 544 2138 
L 272 2138 
L 272 2988 
L 2641 2988 
L 2641 2831 
L 931 253 
L 1753 253 
Q 1916 253 1997 278 
Q 2078 303 2137 358 
Q 2197 413 2253 531 
Q 2309 650 2388 906 
L 2659 906 
z
" transform="scale(0.015625)"/>
      <path id="Cambria-1e6" d="M 1788 1403 
L 338 1403 
L 338 1888 
L 1788 1888 
L 1788 1403 
z
" transform="scale(0.015625)"/>
     </defs>
     <use xlink:href="#Cambria-376"/>
     <use xlink:href="#Cambria-372" transform="translate(55.375 0)"/>
     <use xlink:href="#Cambria-372" transform="translate(110.75 0)"/>
     <use xlink:href="#Cambria-3" transform="translate(166.125 0)"/>
     <use xlink:href="#Cambria-94" transform="translate(188.140625 0)"/>
     <use xlink:href="#Cambria-83" transform="translate(227.796875 0)"/>
     <use xlink:href="#Cambria-90" transform="translate(276.625 0)"/>
     <use xlink:href="#Cambria-86" transform="translate(332.4375 0)"/>
     <use xlink:href="#Cambria-91" transform="translate(387.90625 0)"/>
     <use xlink:href="#Cambria-8f" transform="translate(440.984375 0)"/>
     <use xlink:href="#Cambria-8b" transform="translate(524.1875 0)"/>
     <use xlink:href="#Cambria-9c" transform="translate(551.96875 0)"/>
     <use xlink:href="#Cambria-87" transform="translate(597.421875 0)"/>
     <use xlink:href="#Cambria-86" transform="translate(646.203125 0)"/>
     <use xlink:href="#Cambria-1e6" transform="translate(701.671875 0)"/>
     <use xlink:href="#Cambria-91" transform="translate(734.875 0)"/>
     <use xlink:href="#Cambria-94" transform="translate(787.953125 0)"/>
     <use xlink:href="#Cambria-86" transform="translate(827.84375 0)"/>
     <use xlink:href="#Cambria-87" transform="translate(883.3125 0)"/>
     <use xlink:href="#Cambria-94" transform="translate(932.09375 0)"/>
     <use xlink:href="#Cambria-3" transform="translate(973.453125 0)"/>
     <use xlink:href="#Cambria-94" transform="translate(995.46875 0)"/>
     <use xlink:href="#Cambria-91" transform="translate(1035.359375 0)"/>
     <use xlink:href="#Cambria-97" transform="translate(1088.4375 0)"/>
     <use xlink:href="#Cambria-90" transform="translate(1143.65625 0)"/>
     <use xlink:href="#Cambria-86" transform="translate(1199.46875 0)"/>
     <use xlink:href="#Cambria-95" transform="translate(1254.9375 0)"/>
    </g>
   </g>
   <g id="legend_1">
    <g id="patch_71">
     <path d="M 157.24275 39.070039 
L 173.64275 39.070039 
L 173.64275 33.330039 
L 157.24275 33.330039 
z
" style="fill: #2a78d6; opacity: 0.65"/>
    </g>
    <g id="text_15">
     <!-- class A: $(u_0,u_1)=(0,0)$ -->
     <g transform="translate(180.20275 39.070039) scale(0.082 -0.082)">
      <defs>
       <path id="Cambria-4" d="M 2488 0 
L 2488 153 
Q 2644 184 2720 221 
Q 2797 259 2834 326 
Q 2872 394 2872 506 
Q 2872 613 2847 736 
Q 2822 859 2775 1013 
L 2659 1416 
L 1203 1416 
L 1097 1109 
Q 1016 878 991 759 
Q 966 641 966 544 
Q 966 356 1061 268 
Q 1156 181 1353 153 
L 1353 0 
L 19 0 
L 19 153 
Q 194 181 323 356 
Q 453 531 575 856 
L 1878 4316 
L 2372 4316 
L 3434 831 
Q 3509 588 3567 459 
Q 3625 331 3706 259 
Q 3788 188 3928 153 
L 3928 0 
L 2488 0 
z
M 1288 1688 
L 2594 1688 
L 2000 3703 
L 1288 1688 
z
" transform="scale(0.015625)"/>
       <path id="Cambria-1e3" d="M 1156 2822 
L 1156 2091 
L 531 2091 
L 531 2822 
L 1156 2822 
z
M 1156 725 
L 1156 0 
L 531 0 
L 531 725 
L 1156 725 
z
" transform="scale(0.015625)"/>
       <path id="Cmr10-77" d="M 1984 -1588 
Q 1628 -1306 1370 -942 
Q 1113 -578 948 -165 
Q 784 247 703 697 
Q 622 1147 622 1600 
Q 622 2059 703 2509 
Q 784 2959 951 3375 
Q 1119 3791 1378 4153 
Q 1638 4516 1984 4788 
Q 1984 4800 2016 4800 
L 2075 4800 
Q 2094 4800 2109 4783 
Q 2125 4766 2125 4744 
Q 2125 4716 2113 4703 
Q 1800 4397 1592 4047 
Q 1384 3697 1257 3301 
Q 1131 2906 1075 2482 
Q 1019 2059 1019 1600 
Q 1019 -434 2106 -1491 
Q 2125 -1509 2125 -1544 
Q 2125 -1559 2108 -1579 
Q 2091 -1600 2075 -1600 
L 2016 -1600 
Q 1984 -1600 1984 -1588 
z
" transform="scale(0.015625)"/>
       <path id="Cmmi10-60" d="M 678 697 
Q 678 906 734 1126 
Q 791 1347 892 1617 
Q 994 1888 1069 2088 
Q 1153 2322 1153 2472 
Q 1153 2663 1013 2663 
Q 759 2663 595 2402 
Q 431 2141 353 1819 
Q 341 1778 300 1778 
L 225 1778 
Q 172 1778 172 1838 
L 172 1856 
Q 275 2238 487 2533 
Q 700 2828 1025 2828 
Q 1253 2828 1411 2678 
Q 1569 2528 1569 2297 
Q 1569 2178 1516 2047 
Q 1488 1969 1388 1706 
Q 1288 1444 1234 1272 
Q 1181 1100 1147 934 
Q 1113 769 1113 603 
Q 1113 391 1203 244 
Q 1294 97 1497 97 
Q 1906 97 2216 603 
Q 2222 628 2226 651 
Q 2231 675 2234 697 
L 2694 2553 
Q 2716 2638 2794 2698 
Q 2872 2759 2963 2759 
Q 3041 2759 3098 2709 
Q 3156 2659 3156 2578 
Q 3156 2541 3150 2528 
L 2688 684 
Q 2644 494 2644 372 
Q 2644 97 2828 97 
Q 3034 97 3136 351 
Q 3238 606 3309 941 
Q 3322 978 3359 978 
L 3438 978 
Q 3463 978 3478 956 
Q 3494 934 3494 916 
Q 3425 641 3361 444 
Q 3297 247 3159 87 
Q 3022 -72 2816 -72 
Q 2613 -72 2452 39 
Q 2291 150 2234 341 
Q 2088 153 1894 40 
Q 1700 -72 1484 -72 
Q 1116 -72 897 129 
Q 678 331 678 697 
z
" transform="scale(0.015625)"/>
       <path id="Cmr10-28" d="M 1600 -141 
Q 816 -141 533 504 
Q 250 1150 250 2041 
Q 250 2597 351 3087 
Q 453 3578 754 3920 
Q 1056 4263 1600 4263 
Q 2022 4263 2290 4056 
Q 2559 3850 2700 3523 
Q 2841 3197 2892 2823 
Q 2944 2450 2944 2041 
Q 2944 1491 2842 1011 
Q 2741 531 2444 195 
Q 2147 -141 1600 -141 
z
M 1600 25 
Q 1956 25 2131 390 
Q 2306 756 2347 1200 
Q 2388 1644 2388 2144 
Q 2388 2625 2347 3031 
Q 2306 3438 2132 3767 
Q 1959 4097 1600 4097 
Q 1238 4097 1063 3765 
Q 888 3434 847 3029 
Q 806 2625 806 2144 
Q 806 1788 823 1472 
Q 841 1156 916 820 
Q 991 484 1158 254 
Q 1325 25 1600 25 
z
" transform="scale(0.015625)"/>
       <path id="Cmmi10-2c" d="M 634 -1153 
Q 634 -1125 659 -1100 
Q 891 -878 1019 -587 
Q 1147 -297 1147 25 
L 1147 103 
Q 1044 0 891 0 
Q 744 0 641 103 
Q 538 206 538 353 
Q 538 503 641 603 
Q 744 703 891 703 
Q 1119 703 1216 492 
Q 1313 281 1313 25 
Q 1313 -331 1170 -651 
Q 1028 -972 769 -1228 
Q 744 -1241 728 -1241 
Q 697 -1241 665 -1212 
Q 634 -1184 634 -1153 
z
" transform="scale(0.015625)"/>
       <path id="Cmr10-64" d="M 594 0 
L 594 225 
Q 1394 225 1394 428 
L 1394 3788 
Q 1063 3628 556 3628 
L 556 3853 
Q 1341 3853 1741 4263 
L 1831 4263 
Q 1853 4263 1873 4245 
Q 1894 4228 1894 4206 
L 1894 428 
Q 1894 225 2694 225 
L 2694 0 
L 594 0 
z
" transform="scale(0.015625)"/>
       <path id="Cmr10-44" d="M 416 -1600 
Q 359 -1600 359 -1544 
Q 359 -1516 372 -1503 
Q 1466 -434 1466 1600 
Q 1466 3634 384 4691 
Q 359 4706 359 4744 
Q 359 4766 376 4783 
Q 394 4800 416 4800 
L 475 4800 
Q 494 4800 506 4788 
Q 966 4425 1272 3906 
Q 1578 3388 1720 2800 
Q 1863 2213 1863 1600 
Q 1863 1147 1786 708 
Q 1709 269 1542 -157 
Q 1375 -584 1119 -945 
Q 863 -1306 506 -1588 
Q 494 -1600 475 -1600 
L 416 -1600 
z
" transform="scale(0.015625)"/>
       <path id="Cmr10-29" d="M 481 850 
Q 428 850 393 890 
Q 359 931 359 978 
Q 359 1031 393 1068 
Q 428 1106 481 1106 
L 4500 1106 
Q 4547 1106 4581 1068 
Q 4616 1031 4616 978 
Q 4616 931 4581 890 
Q 4547 850 4500 850 
L 481 850 
z
M 481 2094 
Q 428 2094 393 2131 
Q 359 2169 359 2222 
Q 359 2269 393 2309 
Q 428 2350 481 2350 
L 4500 2350 
Q 4547 2350 4581 2309 
Q 4616 2269 4616 2222 
Q 4616 2169 4581 2131 
Q 4547 2094 4500 2094 
L 481 2094 
z
" transform="scale(0.015625)"/>
      </defs>
      <use xlink:href="#Cambria-85"/>
      <use xlink:href="#Cambria-8e" transform="translate(44.091797 0)"/>
      <use xlink:href="#Cambria-83" transform="translate(71.240234 0)"/>
      <use xlink:href="#Cambria-95" transform="translate(120.068359 0)"/>
      <use xlink:href="#Cambria-95" transform="translate(163.037109 0)"/>
      <use xlink:href="#Cambria-3" transform="translate(206.005859 0)"/>
      <use xlink:href="#Cambria-4" transform="translate(228.027344 0)"/>
      <use xlink:href="#Cambria-1e3" transform="translate(290.332031 0)"/>
      <use xlink:href="#Cambria-3" transform="translate(316.699219 0)"/>
      <use xlink:href="#Cmr10-77" transform="translate(338.720703 0)"/>
      <use xlink:href="#Cmmi10-60" transform="translate(377.539062 0)"/>
      <use xlink:href="#Cmr10-28" transform="translate(434.716797 -14.999962) scale(0.7)"/>
      <use xlink:href="#Cmmi10-2c" transform="translate(475.437212 0)"/>
      <use xlink:href="#Cmmi10-60" transform="translate(523.122816 0)"/>
      <use xlink:href="#Cmr10-64" transform="translate(580.300551 -14.999962) scale(0.7)"/>
      <use xlink:href="#Cmr10-44" transform="translate(621.020966 0)"/>
      <use xlink:href="#Cmr10-29" transform="translate(679.839383 0)"/>
      <use xlink:href="#Cmr10-77" transform="translate(777.524987 0)"/>
      <use xlink:href="#Cmr10-28" transform="translate(816.343346 0)"/>
      <use xlink:href="#Cmmi10-2c" transform="translate(866.343346 0)"/>
      <use xlink:href="#Cmr10-28" transform="translate(914.02895 0)"/>
      <use xlink:href="#Cmr10-44" transform="translate(964.02895 0)"/>
     </g>
    </g>
    <g id="patch_72">
     <path d="M 157.24275 51.598262 
L 173.64275 51.598262 
L 173.64275 45.858262 
L 157.24275 45.858262 
z
" style="fill: #eb6834; opacity: 0.65"/>
    </g>
    <g id="text_16">
     <!-- class B: $(u_0,u_1)=(1,2)$ -->
     <g transform="translate(180.20275 51.598262) scale(0.082 -0.082)">
      <defs>
       <path id="Cambria-5" d="M 378 0 
L 378 153 
Q 572 203 637 264 
Q 703 325 723 437 
Q 744 550 744 781 
L 744 3484 
Q 744 3700 728 3798 
Q 713 3897 677 3951 
Q 641 4006 581 4039 
Q 522 4072 378 4113 
L 378 4266 
L 2088 4266 
Q 2584 4266 2886 4159 
Q 3188 4053 3334 3845 
Q 3481 3638 3481 3309 
Q 3481 3038 3376 2838 
Q 3272 2638 3103 2506 
Q 2934 2375 2669 2263 
L 2669 2234 
Q 3094 2106 3312 1839 
Q 3531 1572 3531 1203 
Q 3531 778 3342 509 
Q 3153 241 2812 120 
Q 2472 0 1988 0 
L 378 0 
z
M 1875 2353 
Q 2350 2353 2601 2583 
Q 2853 2813 2853 3250 
Q 2853 3466 2783 3608 
Q 2713 3750 2589 3834 
Q 2466 3919 2297 3955 
Q 2128 3991 1931 3991 
Q 1813 3991 1619 3984 
Q 1425 3978 1328 3972 
L 1328 2353 
L 1875 2353 
z
M 1328 297 
Q 1556 275 1838 275 
Q 2247 275 2473 378 
Q 2700 481 2801 682 
Q 2903 884 2903 1188 
Q 2903 1491 2792 1687 
Q 2681 1884 2450 1981 
Q 2219 2078 1813 2078 
L 1328 2078 
L 1328 297 
z
" transform="scale(0.015625)"/>
       <path id="Cmr10-31" d="M 319 0 
L 319 172 
Q 319 188 331 206 
L 1325 1306 
Q 1550 1550 1690 1715 
Q 1831 1881 1968 2097 
Q 2106 2313 2186 2536 
Q 2266 2759 2266 3009 
Q 2266 3272 2169 3511 
Q 2072 3750 1880 3894 
Q 1688 4038 1416 4038 
Q 1138 4038 916 3870 
Q 694 3703 603 3438 
Q 628 3444 672 3444 
Q 816 3444 917 3347 
Q 1019 3250 1019 3097 
Q 1019 2950 917 2848 
Q 816 2747 672 2747 
Q 522 2747 420 2851 
Q 319 2956 319 3097 
Q 319 3338 409 3548 
Q 500 3759 670 3923 
Q 841 4088 1055 4175 
Q 1269 4263 1509 4263 
Q 1875 4263 2190 4108 
Q 2506 3953 2690 3670 
Q 2875 3388 2875 3009 
Q 2875 2731 2753 2481 
Q 2631 2231 2440 2026 
Q 2250 1822 1953 1562 
Q 1656 1303 1563 1216 
L 838 519 
L 1453 519 
Q 1906 519 2211 526 
Q 2516 534 2534 550 
Q 2609 631 2688 1141 
L 2875 1141 
L 2694 0 
L 319 0 
z
" transform="scale(0.015625)"/>
      </defs>
      <use xlink:href="#Cambria-85"/>
      <use xlink:href="#Cambria-8e" transform="translate(44.091797 0)"/>
      <use xlink:href="#Cambria-83" transform="translate(71.240234 0)"/>
      <use xlink:href="#Cambria-95" transform="translate(120.068359 0)"/>
      <use xlink:href="#Cambria-95" transform="translate(163.037109 0)"/>
      <use xlink:href="#Cambria-3" transform="translate(206.005859 0)"/>
      <use xlink:href="#Cambria-5" transform="translate(228.027344 0)"/>
      <use xlink:href="#Cambria-1e3" transform="translate(289.160156 0)"/>
      <use xlink:href="#Cambria-3" transform="translate(315.527344 0)"/>
      <use xlink:href="#Cmr10-77" transform="translate(337.548828 0)"/>
      <use xlink:href="#Cmmi10-60" transform="translate(376.367188 0)"/>
      <use xlink:href="#Cmr10-28" transform="translate(433.544922 -14.999962) scale(0.7)"/>
      <use xlink:href="#Cmmi10-2c" transform="translate(474.265337 0)"/>
      <use xlink:href="#Cmmi10-60" transform="translate(521.950941 0)"/>
      <use xlink:href="#Cmr10-64" transform="translate(579.128676 -14.999962) scale(0.7)"/>
      <use xlink:href="#Cmr10-44" transform="translate(619.849091 0)"/>
      <use xlink:href="#Cmr10-29" transform="translate(678.667508 0)"/>
      <use xlink:href="#Cmr10-77" transform="translate(776.353112 0)"/>
      <use xlink:href="#Cmr10-64" transform="translate(815.171471 0)"/>
      <use xlink:href="#Cmmi10-2c" transform="translate(865.171471 0)"/>
      <use xlink:href="#Cmr10-31" transform="translate(912.857075 0)"/>
      <use xlink:href="#Cmr10-44" transform="translate(962.857075 0)"/>
     </g>
    </g>
   </g>
  </g>
  <g id="axes_2">
   <g id="patch_73">
    <path d="M 291.52875 176.466016 
L 519.52875 176.466016 
L 519.52875 25.311816 
L 291.52875 25.311816 
z
" style="fill: #fcfcfb"/>
   </g>
   <g id="matplotlib.axis_3">
    <g id="xtick_6">
     <g id="line2d_23">
      <path d="M 316.207915 176.466016 
L 316.207915 25.311816 
" clip-path="url(#pd01d4a25f2)" style="fill: none; stroke: #e1e0d9; stroke-width: 0.7; stroke-linecap: square"/>
     </g>
     <g id="line2d_24">
      <g>
       <use xlink:href="#mbd09373799" x="316.207915" y="176.466016" style="fill: #898781; stroke: #898781; stroke-width: 0.8"/>
      </g>
     </g>
     <g id="text_17">
      <!-- −300 -->
      <g style="fill: #52514e" transform="translate(304.579165 191.633252) scale(0.105 -0.105)">
       <defs>
        <path id="Cambria-3ab" d="M 397 1613 
L 397 2047 
L 3147 2047 
L 3147 1613 
L 397 1613 
z
" transform="scale(0.015625)"/>
       </defs>
       <use xlink:href="#Cambria-3ab"/>
       <use xlink:href="#Cambria-375" transform="translate(55.375 0)"/>
       <use xlink:href="#Cambria-372" transform="translate(110.75 0)"/>
       <use xlink:href="#Cambria-372" transform="translate(166.125 0)"/>
      </g>
     </g>
    </g>
    <g id="xtick_7">
     <g id="line2d_25">
      <path d="M 349.812443 176.466016 
L 349.812443 25.311816 
" clip-path="url(#pd01d4a25f2)" style="fill: none; stroke: #e1e0d9; stroke-width: 0.7; stroke-linecap: square"/>
     </g>
     <g id="line2d_26">
      <g>
       <use xlink:href="#mbd09373799" x="349.812443" y="176.466016" style="fill: #898781; stroke: #898781; stroke-width: 0.8"/>
      </g>
     </g>
     <g id="text_18">
      <!-- −200 -->
      <g style="fill: #52514e" transform="translate(338.183693 191.633252) scale(0.105 -0.105)">
       <use xlink:href="#Cambria-3ab"/>
       <use xlink:href="#Cambria-374" transform="translate(55.375 0)"/>
       <use xlink:href="#Cambria-372" transform="translate(110.75 0)"/>
       <use xlink:href="#Cambria-372" transform="translate(166.125 0)"/>
      </g>
     </g>
    </g>
    <g id="xtick_8">
     <g id="line2d_27">
      <path d="M 383.416971 176.466016 
L 383.416971 25.311816 
" clip-path="url(#pd01d4a25f2)" style="fill: none; stroke: #e1e0d9; stroke-width: 0.7; stroke-linecap: square"/>
     </g>
     <g id="line2d_28">
      <g>
       <use xlink:href="#mbd09373799" x="383.416971" y="176.466016" style="fill: #898781; stroke: #898781; stroke-width: 0.8"/>
      </g>
     </g>
     <g id="text_19">
      <!-- −100 -->
      <g style="fill: #52514e" transform="translate(371.788221 191.633252) scale(0.105 -0.105)">
       <use xlink:href="#Cambria-3ab"/>
       <use xlink:href="#Cambria-373" transform="translate(55.375 0)"/>
       <use xlink:href="#Cambria-372" transform="translate(110.75 0)"/>
       <use xlink:href="#Cambria-372" transform="translate(166.125 0)"/>
      </g>
     </g>
    </g>
    <g id="xtick_9">
     <g id="line2d_29">
      <path d="M 417.021498 176.466016 
L 417.021498 25.311816 
" clip-path="url(#pd01d4a25f2)" style="fill: none; stroke: #e1e0d9; stroke-width: 0.7; stroke-linecap: square"/>
     </g>
     <g id="line2d_30">
      <g>
       <use xlink:href="#mbd09373799" x="417.021498" y="176.466016" style="fill: #898781; stroke: #898781; stroke-width: 0.8"/>
      </g>
     </g>
     <g id="text_20">
      <!-- 0 -->
      <g style="fill: #52514e" transform="translate(414.114311 191.633252) scale(0.105 -0.105)">
       <use xlink:href="#Cambria-372"/>
      </g>
     </g>
    </g>
    <g id="xtick_10">
     <g id="line2d_31">
      <path d="M 450.626026 176.466016 
L 450.626026 25.311816 
" clip-path="url(#pd01d4a25f2)" style="fill: none; stroke: #e1e0d9; stroke-width: 0.7; stroke-linecap: square"/>
     </g>
     <g id="line2d_32">
      <g>
       <use xlink:href="#mbd09373799" x="450.626026" y="176.466016" style="fill: #898781; stroke: #898781; stroke-width: 0.8"/>
      </g>
     </g>
     <g id="text_21">
      <!-- 100 -->
      <g style="fill: #52514e" transform="translate(441.904464 191.633252) scale(0.105 -0.105)">
       <use xlink:href="#Cambria-373"/>
       <use xlink:href="#Cambria-372" transform="translate(55.375 0)"/>
       <use xlink:href="#Cambria-372" transform="translate(110.75 0)"/>
      </g>
     </g>
    </g>
    <g id="xtick_11">
     <g id="line2d_33">
      <path d="M 484.230554 176.466016 
L 484.230554 25.311816 
" clip-path="url(#pd01d4a25f2)" style="fill: none; stroke: #e1e0d9; stroke-width: 0.7; stroke-linecap: square"/>
     </g>
     <g id="line2d_34">
      <g>
       <use xlink:href="#mbd09373799" x="484.230554" y="176.466016" style="fill: #898781; stroke: #898781; stroke-width: 0.8"/>
      </g>
     </g>
     <g id="text_22">
      <!-- 200 -->
      <g style="fill: #52514e" transform="translate(475.508992 191.633252) scale(0.105 -0.105)">
       <use xlink:href="#Cambria-374"/>
       <use xlink:href="#Cambria-372" transform="translate(55.375 0)"/>
       <use xlink:href="#Cambria-372" transform="translate(110.75 0)"/>
      </g>
     </g>
    </g>
    <g id="xtick_12">
     <g id="line2d_35">
      <path d="M 517.835082 176.466016 
L 517.835082 25.311816 
" clip-path="url(#pd01d4a25f2)" style="fill: none; stroke: #e1e0d9; stroke-width: 0.7; stroke-linecap: square"/>
     </g>
     <g id="line2d_36">
      <g>
       <use xlink:href="#mbd09373799" x="517.835082" y="176.466016" style="fill: #898781; stroke: #898781; stroke-width: 0.8"/>
      </g>
     </g>
     <g id="text_23">
      <!-- 300 -->
      <g style="fill: #52514e" transform="translate(509.113519 191.633252) scale(0.105 -0.105)">
       <use xlink:href="#Cambria-375"/>
       <use xlink:href="#Cambria-372" transform="translate(55.375 0)"/>
       <use xlink:href="#Cambria-372" transform="translate(110.75 0)"/>
      </g>
     </g>
    </g>
    <g id="text_24">
     <!-- paired difference A $-$ B (ns per call) -->
     <g style="fill: #0b0b0b" transform="translate(313.54875 207.3) scale(0.12 -0.12)">
      <defs>
       <path id="Cambria-88" d="M 1909 2672 
L 1163 2672 
L 1163 781 
Q 1163 572 1183 465 
Q 1203 359 1242 304 
Q 1281 250 1345 217 
Q 1409 184 1550 153 
L 1550 0 
L 272 0 
L 272 153 
Q 409 191 468 225 
Q 528 259 561 312 
Q 594 366 609 466 
Q 625 566 625 781 
L 625 2672 
L 247 2672 
L 247 2831 
Q 366 2850 405 2861 
Q 444 2872 480 2894 
Q 516 2916 542 2956 
Q 569 2997 589 3076 
Q 609 3156 622 3300 
Q 650 3641 745 3853 
Q 841 4066 1023 4216 
Q 1206 4366 1414 4427 
Q 1622 4488 1903 4488 
Q 2150 4488 2322 4453 
L 2322 3888 
L 2013 3888 
Q 1953 4072 1873 4148 
Q 1794 4225 1650 4225 
Q 1547 4225 1476 4197 
Q 1406 4169 1347 4109 
Q 1288 4050 1245 3950 
Q 1203 3850 1183 3701 
Q 1163 3553 1163 3316 
L 1163 2988 
L 1909 2988 
L 1909 2672 
z
" transform="scale(0.015625)"/>
       <path id="Cmsy10-11" d="M 653 1472 
Q 600 1472 565 1512 
Q 531 1553 531 1600 
Q 531 1647 565 1687 
Q 600 1728 653 1728 
L 4325 1728 
Q 4375 1728 4408 1687 
Q 4441 1647 4441 1600 
Q 4441 1553 4408 1512 
Q 4375 1472 4325 1472 
L 653 1472 
z
" transform="scale(0.015625)"/>
      </defs>
      <use xlink:href="#Cambria-92" transform="translate(0 0.875)"/>
      <use xlink:href="#Cambria-83" transform="translate(55.615234 0.875)"/>
      <use xlink:href="#Cambria-8b" transform="translate(104.443359 0.875)"/>
      <use xlink:href="#Cambria-94" transform="translate(132.226562 0.875)"/>
      <use xlink:href="#Cambria-87" transform="translate(173.583984 0.875)"/>
      <use xlink:href="#Cambria-86" transform="translate(222.363281 0.875)"/>
      <use xlink:href="#Cambria-3" transform="translate(277.832031 0.875)"/>
      <use xlink:href="#Cambria-86" transform="translate(299.853516 0.875)"/>
      <use xlink:href="#Cambria-8b" transform="translate(355.322266 0.875)"/>
      <use xlink:href="#Cambria-88" transform="translate(383.105469 0.875)"/>
      <use xlink:href="#Cambria-88" transform="translate(413.378906 0.875)"/>
      <use xlink:href="#Cambria-87" transform="translate(443.652344 0.875)"/>
      <use xlink:href="#Cambria-94" transform="translate(492.431641 0.875)"/>
      <use xlink:href="#Cambria-87" transform="translate(533.789062 0.875)"/>
      <use xlink:href="#Cambria-90" transform="translate(582.568359 0.875)"/>
      <use xlink:href="#Cambria-85" transform="translate(638.378906 0.875)"/>
      <use xlink:href="#Cambria-87" transform="translate(682.470703 0.875)"/>
      <use xlink:href="#Cambria-3" transform="translate(731.25 0.875)"/>
      <use xlink:href="#Cambria-4" transform="translate(753.271484 0.875)"/>
      <use xlink:href="#Cambria-3" transform="translate(815.576172 0.875)"/>
      <use xlink:href="#Cmsy10-11" transform="translate(837.597656 0.875)"/>
      <use xlink:href="#Cambria-3" transform="translate(915.283203 0.875)"/>
      <use xlink:href="#Cambria-5" transform="translate(937.304688 0.875)"/>
      <use xlink:href="#Cambria-3" transform="translate(998.4375 0.875)"/>
      <use xlink:href="#Cambria-20b" transform="translate(1020.458984 0.875)"/>
      <use xlink:href="#Cambria-90" transform="translate(1058.642578 0.875)"/>
      <use xlink:href="#Cambria-95" transform="translate(1114.453125 0.875)"/>
      <use xlink:href="#Cambria-3" transform="translate(1157.421875 0.875)"/>
      <use xlink:href="#Cambria-92" transform="translate(1179.443359 0.875)"/>
      <use xlink:href="#Cambria-87" transform="translate(1235.058594 0.875)"/>
      <use xlink:href="#Cambria-94" transform="translate(1283.837891 0.875)"/>
      <use xlink:href="#Cambria-3" transform="translate(1325.195312 0.875)"/>
      <use xlink:href="#Cambria-85" transform="translate(1347.216797 0.875)"/>
      <use xlink:href="#Cambria-83" transform="translate(1391.308594 0.875)"/>
      <use xlink:href="#Cambria-8e" transform="translate(1440.136719 0.875)"/>
      <use xlink:href="#Cambria-8e" transform="translate(1467.285156 0.875)"/>
      <use xlink:href="#Cambria-20c" transform="translate(1494.433594 0.875)"/>
     </g>
    </g>
   </g>
   <g id="matplotlib.axis_4">
    <g id="ytick_7">
     <g id="line2d_37">
      <path d="M 291.52875 176.466016 
L 519.52875 176.466016 
" clip-path="url(#pd01d4a25f2)" style="fill: none; stroke: #e1e0d9; stroke-width: 0.7; stroke-linecap: square"/>
     </g>
     <g id="line2d_38">
      <g>
       <use xlink:href="#m0c6def9b5b" x="291.52875" y="176.466016" style="fill: #898781; stroke: #898781; stroke-width: 0.8"/>
      </g>
     </g>
     <g id="text_25">
      <!-- 0 -->
      <g style="fill: #52514e" transform="translate(278.714375 180.549634) scale(0.105 -0.105)">
       <use xlink:href="#Cambria-372"/>
      </g>
     </g>
    </g>
    <g id="ytick_8">
     <g id="line2d_39">
      <path d="M 291.52875 145.507654 
L 519.52875 145.507654 
" clip-path="url(#pd01d4a25f2)" style="fill: none; stroke: #e1e0d9; stroke-width: 0.7; stroke-linecap: square"/>
     </g>
     <g id="line2d_40">
      <g>
       <use xlink:href="#m0c6def9b5b" x="291.52875" y="145.507654" style="fill: #898781; stroke: #898781; stroke-width: 0.8"/>
      </g>
     </g>
     <g id="text_26">
      <!-- 20 -->
      <g style="fill: #52514e" transform="translate(272.9 149.591272) scale(0.105 -0.105)">
       <use xlink:href="#Cambria-374"/>
       <use xlink:href="#Cambria-372" transform="translate(55.375 0)"/>
      </g>
     </g>
    </g>
    <g id="ytick_9">
     <g id="line2d_41">
      <path d="M 291.52875 114.549293 
L 519.52875 114.549293 
" clip-path="url(#pd01d4a25f2)" style="fill: none; stroke: #e1e0d9; stroke-width: 0.7; stroke-linecap: square"/>
     </g>
     <g id="line2d_42">
      <g>
       <use xlink:href="#m0c6def9b5b" x="291.52875" y="114.549293" style="fill: #898781; stroke: #898781; stroke-width: 0.8"/>
      </g>
     </g>
     <g id="text_27">
      <!-- 40 -->
      <g style="fill: #52514e" transform="translate(272.9 118.632911) scale(0.105 -0.105)">
       <use xlink:href="#Cambria-376"/>
       <use xlink:href="#Cambria-372" transform="translate(55.375 0)"/>
      </g>
     </g>
    </g>
    <g id="ytick_10">
     <g id="line2d_43">
      <path d="M 291.52875 83.590932 
L 519.52875 83.590932 
" clip-path="url(#pd01d4a25f2)" style="fill: none; stroke: #e1e0d9; stroke-width: 0.7; stroke-linecap: square"/>
     </g>
     <g id="line2d_44">
      <g>
       <use xlink:href="#m0c6def9b5b" x="291.52875" y="83.590932" style="fill: #898781; stroke: #898781; stroke-width: 0.8"/>
      </g>
     </g>
     <g id="text_28">
      <!-- 60 -->
      <g style="fill: #52514e" transform="translate(272.9 87.67455) scale(0.105 -0.105)">
       <defs>
        <path id="Cambria-378" d="M 2847 4144 
L 2847 3991 
Q 2366 3991 1994 3784 
Q 1622 3578 1376 3178 
Q 1131 2778 1031 2228 
L 1063 2216 
Q 1325 2403 1579 2490 
Q 1834 2578 2131 2578 
Q 2484 2578 2732 2423 
Q 2981 2269 3106 1989 
Q 3231 1709 3231 1334 
Q 3231 928 3075 617 
Q 2919 306 2592 128 
Q 2266 -50 1788 -50 
Q 1103 -50 754 375 
Q 406 800 406 1628 
Q 406 2184 581 2668 
Q 756 3153 1078 3514 
Q 1400 3875 1825 4083 
Q 2250 4291 2719 4316 
L 2847 4144 
z
M 1916 2250 
Q 1763 2250 1620 2215 
Q 1478 2181 1353 2115 
Q 1228 2050 1109 1950 
Q 1072 1916 1053 1878 
Q 1022 1819 1012 1731 
Q 1003 1644 1003 1438 
Q 1003 841 1203 528 
Q 1403 216 1809 216 
Q 2044 216 2203 297 
Q 2363 378 2461 520 
Q 2559 663 2601 855 
Q 2644 1047 2644 1272 
Q 2644 1734 2453 1992 
Q 2263 2250 1916 2250 
z
" transform="scale(0.015625)"/>
       </defs>
       <use xlink:href="#Cambria-378"/>
       <use xlink:href="#Cambria-372" transform="translate(55.375 0)"/>
      </g>
     </g>
    </g>
    <g id="ytick_11">
     <g id="line2d_45">
      <path d="M 291.52875 52.63257 
L 519.52875 52.63257 
" clip-path="url(#pd01d4a25f2)" style="fill: none; stroke: #e1e0d9; stroke-width: 0.7; stroke-linecap: square"/>
     </g>
     <g id="line2d_46">
      <g>
       <use xlink:href="#m0c6def9b5b" x="291.52875" y="52.63257" style="fill: #898781; stroke: #898781; stroke-width: 0.8"/>
      </g>
     </g>
     <g id="text_29">
      <!-- 80 -->
      <g style="fill: #52514e" transform="translate(272.9 56.716188) scale(0.105 -0.105)">
       <use xlink:href="#Cambria-37a"/>
       <use xlink:href="#Cambria-372" transform="translate(55.375 0)"/>
      </g>
     </g>
    </g>
   </g>
   <g id="patch_74">
    <path d="M 301.892386 176.466016 
L 308.801477 176.466016 
L 308.801477 174.918098 
L 301.892386 174.918098 
z
" clip-path="url(#pd01d4a25f2)" style="fill: #1baf7a; opacity: 0.85"/>
   </g>
   <g id="patch_75">
    <path d="M 308.801477 176.466016 
L 315.710568 176.466016 
L 315.710568 176.466016 
L 308.801477 176.466016 
z
" clip-path="url(#pd01d4a25f2)" style="fill: #1baf7a; opacity: 0.85"/>
   </g>
   <g id="patch_76">
    <path d="M 315.710568 176.466016 
L 322.619659 176.466016 
L 322.619659 176.466016 
L 315.710568 176.466016 
z
" clip-path="url(#pd01d4a25f2)" style="fill: #1baf7a; opacity: 0.85"/>
   </g>
   <g id="patch_77">
    <path d="M 322.619659 176.466016 
L 329.52875 176.466016 
L 329.52875 174.918098 
L 322.619659 174.918098 
z
" clip-path="url(#pd01d4a25f2)" style="fill: #1baf7a; opacity: 0.85"/>
   </g>
   <g id="patch_78">
    <path d="M 329.52875 176.466016 
L 336.437841 176.466016 
L 336.437841 176.466016 
L 329.52875 176.466016 
z
" clip-path="url(#pd01d4a25f2)" style="fill: #1baf7a; opacity: 0.85"/>
   </g>
   <g id="patch_79">
    <path d="M 336.437841 176.466016 
L 343.346932 176.466016 
L 343.346932 176.466016 
L 336.437841 176.466016 
z
" clip-path="url(#pd01d4a25f2)" style="fill: #1baf7a; opacity: 0.85"/>
   </g>
   <g id="patch_80">
    <path d="M 343.346932 176.466016 
L 350.256023 176.466016 
L 350.256023 176.466016 
L 343.346932 176.466016 
z
" clip-path="url(#pd01d4a25f2)" style="fill: #1baf7a; opacity: 0.85"/>
   </g>
   <g id="patch_81">
    <path d="M 350.256023 176.466016 
L 357.165114 176.466016 
L 357.165114 173.370179 
L 350.256023 173.370179 
z
" clip-path="url(#pd01d4a25f2)" style="fill: #1baf7a; opacity: 0.85"/>
   </g>
   <g id="patch_82">
    <path d="M 357.165114 176.466016 
L 364.074205 176.466016 
L 364.074205 174.918098 
L 357.165114 174.918098 
z
" clip-path="url(#pd01d4a25f2)" style="fill: #1baf7a; opacity: 0.85"/>
   </g>
   <g id="patch_83">
    <path d="M 364.074205 176.466016 
L 370.983295 176.466016 
L 370.983295 170.274343 
L 364.074205 170.274343 
z
" clip-path="url(#pd01d4a25f2)" style="fill: #1baf7a; opacity: 0.85"/>
   </g>
   <g id="patch_84">
    <path d="M 370.983295 176.466016 
L 377.892386 176.466016 
L 377.892386 164.082671 
L 370.983295 164.082671 
z
" clip-path="url(#pd01d4a25f2)" style="fill: #1baf7a; opacity: 0.85"/>
   </g>
   <g id="patch_85">
    <path d="M 377.892386 176.466016 
L 384.801477 176.466016 
L 384.801477 168.726425 
L 377.892386 168.726425 
z
" clip-path="url(#pd01d4a25f2)" style="fill: #1baf7a; opacity: 0.85"/>
   </g>
   <g id="patch_86">
    <path d="M 384.801477 176.466016 
L 391.710568 176.466016 
L 391.710568 151.699327 
L 384.801477 151.699327 
z
" clip-path="url(#pd01d4a25f2)" style="fill: #1baf7a; opacity: 0.85"/>
   </g>
   <g id="patch_87">
    <path d="M 391.710568 176.466016 
L 398.619659 176.466016 
L 398.619659 147.055572 
L 391.710568 147.055572 
z
" clip-path="url(#pd01d4a25f2)" style="fill: #1baf7a; opacity: 0.85"/>
   </g>
   <g id="patch_88">
    <path d="M 398.619659 176.466016 
L 405.52875 176.466016 
L 405.52875 128.480556 
L 398.619659 128.480556 
z
" clip-path="url(#pd01d4a25f2)" style="fill: #1baf7a; opacity: 0.85"/>
   </g>
   <g id="patch_89">
    <path d="M 405.52875 176.466016 
L 412.437841 176.466016 
L 412.437841 92.87844 
L 405.52875 92.87844 
z
" clip-path="url(#pd01d4a25f2)" style="fill: #1baf7a; opacity: 0.85"/>
   </g>
   <g id="patch_90">
    <path d="M 412.437841 176.466016 
L 419.346932 176.466016 
L 419.346932 32.509635 
L 412.437841 32.509635 
z
" clip-path="url(#pd01d4a25f2)" style="fill: #1baf7a; opacity: 0.85"/>
   </g>
   <g id="patch_91">
    <path d="M 419.346932 176.466016 
L 426.256023 176.466016 
L 426.256023 78.947177 
L 419.346932 78.947177 
z
" clip-path="url(#pd01d4a25f2)" style="fill: #1baf7a; opacity: 0.85"/>
   </g>
   <g id="patch_92">
    <path d="M 426.256023 176.466016 
L 433.165114 176.466016 
L 433.165114 128.480556 
L 426.256023 128.480556 
z
" clip-path="url(#pd01d4a25f2)" style="fill: #1baf7a; opacity: 0.85"/>
   </g>
   <g id="patch_93">
    <path d="M 433.165114 176.466016 
L 440.074205 176.466016 
L 440.074205 142.411818 
L 433.165114 142.411818 
z
" clip-path="url(#pd01d4a25f2)" style="fill: #1baf7a; opacity: 0.85"/>
   </g>
   <g id="patch_94">
    <path d="M 440.074205 176.466016 
L 446.983295 176.466016 
L 446.983295 157.890999 
L 440.074205 157.890999 
z
" clip-path="url(#pd01d4a25f2)" style="fill: #1baf7a; opacity: 0.85"/>
   </g>
   <g id="patch_95">
    <path d="M 446.983295 176.466016 
L 453.892386 176.466016 
L 453.892386 156.343081 
L 446.983295 156.343081 
z
" clip-path="url(#pd01d4a25f2)" style="fill: #1baf7a; opacity: 0.85"/>
   </g>
   <g id="patch_96">
    <path d="M 453.892386 176.466016 
L 460.801477 176.466016 
L 460.801477 164.082671 
L 453.892386 164.082671 
z
" clip-path="url(#pd01d4a25f2)" style="fill: #1baf7a; opacity: 0.85"/>
   </g>
   <g id="patch_97">
    <path d="M 460.801477 176.466016 
L 467.710568 176.466016 
L 467.710568 173.370179 
L 460.801477 173.370179 
z
" clip-path="url(#pd01d4a25f2)" style="fill: #1baf7a; opacity: 0.85"/>
   </g>
   <g id="patch_98">
    <path d="M 467.710568 176.466016 
L 474.619659 176.466016 
L 474.619659 167.178507 
L 467.710568 167.178507 
z
" clip-path="url(#pd01d4a25f2)" style="fill: #1baf7a; opacity: 0.85"/>
   </g>
   <g id="patch_99">
    <path d="M 474.619659 176.466016 
L 481.52875 176.466016 
L 481.52875 173.370179 
L 474.619659 173.370179 
z
" clip-path="url(#pd01d4a25f2)" style="fill: #1baf7a; opacity: 0.85"/>
   </g>
   <g id="patch_100">
    <path d="M 481.52875 176.466016 
L 488.437841 176.466016 
L 488.437841 173.370179 
L 481.52875 173.370179 
z
" clip-path="url(#pd01d4a25f2)" style="fill: #1baf7a; opacity: 0.85"/>
   </g>
   <g id="patch_101">
    <path d="M 488.437841 176.466016 
L 495.346932 176.466016 
L 495.346932 174.918098 
L 488.437841 174.918098 
z
" clip-path="url(#pd01d4a25f2)" style="fill: #1baf7a; opacity: 0.85"/>
   </g>
   <g id="patch_102">
    <path d="M 495.346932 176.466016 
L 502.256023 176.466016 
L 502.256023 174.918098 
L 495.346932 174.918098 
z
" clip-path="url(#pd01d4a25f2)" style="fill: #1baf7a; opacity: 0.85"/>
   </g>
   <g id="patch_103">
    <path d="M 502.256023 176.466016 
L 509.165114 176.466016 
L 509.165114 173.370179 
L 502.256023 173.370179 
z
" clip-path="url(#pd01d4a25f2)" style="fill: #1baf7a; opacity: 0.85"/>
   </g>
   <g id="line2d_47">
    <path d="M 417.021498 176.466016 
L 417.021498 25.311816 
" clip-path="url(#pd01d4a25f2)" style="fill: none; stroke-dasharray: 3.7,1.6; stroke-dashoffset: 0; stroke: #898781"/>
   </g>
   <g id="line2d_48">
    <path d="M 417.756346 176.466016 
L 417.756346 25.311816 
" clip-path="url(#pd01d4a25f2)" style="fill: none; stroke: #e34948; stroke-width: 1.4; stroke-linecap: square"/>
   </g>
   <g id="patch_104">
    <path d="M 291.52875 176.466016 
L 291.52875 25.311816 
" style="fill: none; stroke: #c3c2b7; stroke-width: 0.9; stroke-linejoin: miter; stroke-linecap: square"/>
   </g>
   <g id="patch_105">
    <path d="M 291.52875 176.466016 
L 519.52875 176.466016 
" style="fill: none; stroke: #c3c2b7; stroke-width: 0.9; stroke-linejoin: miter; stroke-linecap: square"/>
   </g>
   <g id="text_30">
    <!-- mean +2.19 ns -->
    <g style="fill: #e34948" transform="translate(418.1596 40.427236) scale(0.085 -0.085)">
     <defs>
      <path id="Cambria-3aa" d="M 2000 1613 
L 2000 428 
L 1541 428 
L 1541 1613 
L 388 1613 
L 388 2047 
L 1541 2047 
L 1541 3228 
L 2000 3228 
L 2000 2047 
L 3156 2047 
L 3156 1613 
L 2000 1613 
z
" transform="scale(0.015625)"/>
      <path id="Cambria-1e4" d="M 972 725 
L 972 0 
L 341 0 
L 341 725 
L 972 725 
z
" transform="scale(0.015625)"/>
     </defs>
     <use xlink:href="#Cambria-8f"/>
     <use xlink:href="#Cambria-87" transform="translate(83.203125 0)"/>
     <use xlink:href="#Cambria-83" transform="translate(131.984375 0)"/>
     <use xlink:href="#Cambria-90" transform="translate(180.8125 0)"/>
     <use xlink:href="#Cambria-3" transform="translate(236.625 0)"/>
     <use xlink:href="#Cambria-3aa" transform="translate(258.640625 0)"/>
     <use xlink:href="#Cambria-374" transform="translate(314.015625 0)"/>
     <use xlink:href="#Cambria-1e4" transform="translate(369.390625 0)"/>
     <use xlink:href="#Cambria-373" transform="translate(389.90625 0)"/>
     <use xlink:href="#Cambria-37b" transform="translate(445.28125 0)"/>
     <use xlink:href="#Cambria-3" transform="translate(500.65625 0)"/>
     <use xlink:href="#Cambria-90" transform="translate(522.671875 0)"/>
     <use xlink:href="#Cambria-95" transform="translate(578.484375 0)"/>
    </g>
   </g>
   <g id="text_31">
    <!-- Paired round differences -->
    <g style="fill: #0b0b0b" transform="translate(291.52875 17.311816) scale(0.13 -0.13)">
     <defs>
      <path id="Cambria-13" d="M 1328 791 
Q 1328 606 1348 497 
Q 1369 388 1411 323 
Q 1453 259 1525 223 
Q 1597 188 1750 153 
L 1750 0 
L 378 0 
L 378 153 
Q 572 203 637 264 
Q 703 325 723 437 
Q 744 550 744 781 
L 744 3484 
Q 744 3700 728 3798 
Q 713 3897 677 3951 
Q 641 4006 581 4039 
Q 522 4072 378 4113 
L 378 4266 
L 1928 4266 
Q 2659 4266 3017 3986 
Q 3375 3706 3375 3134 
Q 3375 2809 3262 2550 
Q 3150 2291 2944 2125 
Q 2738 1959 2456 1887 
Q 2175 1816 1866 1816 
Q 1519 1816 1328 1828 
L 1328 791 
z
M 1328 2088 
L 1691 2088 
Q 2044 2088 2273 2180 
Q 2503 2272 2625 2486 
Q 2747 2700 2747 3053 
Q 2747 3322 2675 3501 
Q 2603 3681 2476 3790 
Q 2350 3900 2175 3945 
Q 2000 3991 1794 3991 
Q 1484 3991 1328 3978 
L 1328 2088 
z
" transform="scale(0.015625)"/>
     </defs>
     <use xlink:href="#Cambria-13"/>
     <use xlink:href="#Cambria-83" transform="translate(54.828125 0)"/>
     <use xlink:href="#Cambria-8b" transform="translate(103.65625 0)"/>
     <use xlink:href="#Cambria-94" transform="translate(131.4375 0)"/>
     <use xlink:href="#Cambria-87" transform="translate(171.328125 0)"/>
     <use xlink:href="#Cambria-86" transform="translate(220.109375 0)"/>
     <use xlink:href="#Cambria-3" transform="translate(275.578125 0)"/>
     <use xlink:href="#Cambria-94" transform="translate(297.59375 0)"/>
     <use xlink:href="#Cambria-91" transform="translate(337.484375 0)"/>
     <use xlink:href="#Cambria-97" transform="translate(390.5625 0)"/>
     <use xlink:href="#Cambria-90" transform="translate(445.78125 0)"/>
     <use xlink:href="#Cambria-86" transform="translate(501.59375 0)"/>
     <use xlink:href="#Cambria-3" transform="translate(557.0625 0)"/>
     <use xlink:href="#Cambria-86" transform="translate(579.078125 0)"/>
     <use xlink:href="#Cambria-8b" transform="translate(634.546875 0)"/>
     <use xlink:href="#Cambria-88" transform="translate(662.328125 0)"/>
     <use xlink:href="#Cambria-88" transform="translate(692.609375 0)"/>
     <use xlink:href="#Cambria-87" transform="translate(721.671875 0)"/>
     <use xlink:href="#Cambria-94" transform="translate(770.453125 0)"/>
     <use xlink:href="#Cambria-87" transform="translate(810.34375 0)"/>
     <use xlink:href="#Cambria-90" transform="translate(859.125 0)"/>
     <use xlink:href="#Cambria-85" transform="translate(914.9375 0)"/>
     <use xlink:href="#Cambria-87" transform="translate(959.03125 0)"/>
     <use xlink:href="#Cambria-95" transform="translate(1007.8125 0)"/>
    </g>
   </g>
  </g>
 </g>
 <defs>
  <clipPath id="p88560ce9c1">
   <rect x="41.82875" y="25.311816" width="228" height="151.154199"/>
  </clipPath>
  <clipPath id="pd01d4a25f2">
   <rect x="291.52875" y="25.311816" width="228" height="151.154199"/>
  </clipPath>
 </defs>
</svg>
