<?xml version="1.0" encoding="utf-8" standalone="no"?>
<!DOCTYPE svg PUBLIC "-//W3C//DTD SVG 1.1//EN"
  "http://www.w3.org/Graphics/SVG/1.1/DTD/svg11.dtd">
<svg xmlns:xlink="http://www.w3.org/1999/xlink" width="396.998906pt" height="224.106016pt" viewBox="0 0 396.998906 224.106016" xmlns="http://www.w3.org/2000/svg" version="1.1">
 <metadata>
  <rdf:RDF xmlns:dc="http://purl.org/dc/elements/1.1/" xmlns:cc="http://creativecommons.org/ns#" xmlns:rdf="http://www.w3.org/1999/02/22-rdf-syntax-ns#">
   <cc:Work>
    <dc:type rdf:resource="http://purl.org/dc/dcmitype/StillImage"/>
    <dc:date>2026-07-23T00:27:25.467573</dc:date>
    <dc:format>image/svg+xml</dc:format>
    <dc:creator>
     <cc:Agent>
      <dc:title>Matplotlib v3.11.1, https://matplotlib.org/</dc:title>
     </cc:Agent>
    </dc:creator>
   </cc:Work>
  </rdf:RDF>
 </metadata>
 <defs>
  <style type="text/css">*{stroke-linejoin: round; stroke-linecap: butt}</style>
 </defs>
 <g id="figure_1">
  <g id="patch_1">
   <path d="M -0 224.106016 
L 396.998906 224.106016 
L 396.998906 0 
L -0 0 
z
" style="fill: #fcfcfb"/>
  </g>
  <g id="axes_1">
   <g id="patch_2">
    <path d="M 43.982891 183.406016 
L 389.798906 183.406016 
L 389.798906 26.64 
L 43.982891 26.64 
z
" style="fill: #fcfcfb"/>
   </g>
   <g id="matplotlib.axis_1">
    <g id="xtick_1">
     <g id="line2d_1">
      <path d="M 59.544533 183.406016 
L 59.544533 26.64 
" clip-path="url(#p8c8e20c2a0)" style="fill: none; stroke: #e1e0d9; stroke-width: 0.7; stroke-linecap: square"/>
     </g>
     <g id="line2d_2">
      <defs>
       <path id="mfa28a378e5" d="M 0 0 
L 0 3.5 
" style="stroke: #898781; stroke-width: 0.8"/>
      </defs>
      <g>
       <use xlink:href="#mfa28a378e5" x="59.544533" y="183.406016" style="fill: #898781; stroke: #898781; stroke-width: 0.8"/>
      </g>
     </g>
     <g id="text_1">
      <!-- 0 -->
      <g style="fill: #52514e" transform="translate(56.637345 198.573252) scale(0.105 -0.105)">
       <defs>
        <path id="Cambria-372" d="M 1738 -50 
Q 1063 -50 733 481 
Q 403 1013 403 2094 
Q 403 2669 504 3087 
Q 606 3506 789 3779 
Q 972 4053 1228 4184 
Q 1484 4316 1788 4316 
Q 2472 4316 2806 3787 
Q 3141 3259 3141 2191 
Q 3141 1084 2783 517 
Q 2425 -50 1738 -50 
z
M 1013 2188 
Q 1013 1169 1202 692 
Q 1391 216 1788 216 
Q 2166 216 2348 664 
Q 2531 1113 2531 2053 
Q 2531 2772 2437 3217 
Q 2344 3663 2176 3856 
Q 2009 4050 1772 4050 
Q 1556 4050 1411 3922 
Q 1266 3794 1177 3553 
Q 1088 3313 1050 2967 
Q 1013 2622 1013 2188 
z
" transform="scale(0.015625)"/>
       </defs>
       <use xlink:href="#Cambria-372"/>
      </g>
     </g>
    </g>
    <g id="xtick_2">
     <g id="line2d_3">
      <path d="M 98.861466 183.406016 
L 98.861466 26.64 
" clip-path="url(#p8c8e20c2a0)" style="fill: none; stroke: #e1e0d9; stroke-width: 0.7; stroke-linecap: square"/>
     </g>
     <g id="line2d_4">
      <g>
       <use xlink:href="#mfa28a378e5" x="98.861466" y="183.406016" style="fill: #898781; stroke: #898781; stroke-width: 0.8"/>
      </g>
     </g>
     <g id="text_2">
      <!-- 250 -->
      <g style="fill: #52514e" transform="translate(90.139903 198.573252) scale(0.105 -0.105)">
       <defs>
        <path id="Cambria-374" d="M 2194 500 
Q 2347 500 2440 519 
Q 2534 538 2590 581 
Q 2647 625 2680 695 
Q 2713 766 2763 913 
L 3028 913 
L 2975 0 
L 403 0 
L 403 150 
Q 538 478 766 822 
Q 994 1166 1413 1631 
Q 1775 2031 1934 2238 
Q 2109 2463 2195 2627 
Q 2281 2791 2318 2936 
Q 2356 3081 2356 3228 
Q 2356 3463 2281 3642 
Q 2206 3822 2051 3925 
Q 1897 4028 1663 4028 
Q 1078 4028 875 3378 
L 497 3378 
L 497 3978 
Q 875 4156 1204 4236 
Q 1534 4316 1797 4316 
Q 2378 4316 2675 4061 
Q 2972 3806 2972 3322 
Q 2972 3156 2939 3017 
Q 2906 2878 2836 2742 
Q 2766 2606 2647 2450 
Q 2528 2294 2384 2133 
Q 2241 1972 1888 1597 
Q 1294 969 1016 500 
L 2194 500 
z
" transform="scale(0.015625)"/>
        <path id="Cambria-377" d="M 469 172 
L 469 834 
L 847 834 
Q 941 516 1130 366 
Q 1319 216 1619 216 
Q 2034 216 2246 466 
Q 2459 716 2459 1213 
Q 2459 1544 2346 1761 
Q 2234 1978 2043 2075 
Q 1853 2172 1600 2172 
Q 1388 2172 1234 2145 
Q 1081 2119 906 2063 
L 656 2209 
L 656 4266 
L 2378 4266 
Q 2484 4266 2531 4283 
Q 2578 4300 2606 4336 
Q 2634 4372 2672 4472 
L 2916 4472 
L 2869 3747 
L 1072 3747 
L 1072 2375 
Q 1234 2444 1425 2478 
Q 1616 2513 1806 2513 
Q 2178 2513 2465 2361 
Q 2753 2209 2909 1929 
Q 3066 1650 3066 1281 
Q 3066 863 2891 563 
Q 2716 263 2384 106 
Q 2053 -50 1600 -50 
Q 1059 -50 469 172 
z
" transform="scale(0.015625)"/>
       </defs>
       <use xlink:href="#Cambria-374"/>
       <use xlink:href="#Cambria-377" transform="translate(55.375 0)"/>
       <use xlink:href="#Cambria-372" transform="translate(110.75 0)"/>
      </g>
     </g>
    </g>
    <g id="xtick_3">
     <g id="line2d_5">
      <path d="M 138.178399 183.406016 
L 138.178399 26.64 
" clip-path="url(#p8c8e20c2a0)" style="fill: none; stroke: #e1e0d9; stroke-width: 0.7; stroke-linecap: square"/>
     </g>
     <g id="line2d_6">
      <g>
       <use xlink:href="#mfa28a378e5" x="138.178399" y="183.406016" style="fill: #898781; stroke: #898781; stroke-width: 0.8"/>
      </g>
     </g>
     <g id="text_3">
      <!-- 500 -->
      <g style="fill: #52514e" transform="translate(129.456836 198.573252) scale(0.105 -0.105)">
       <use xlink:href="#Cambria-377"/>
       <use xlink:href="#Cambria-372" transform="translate(55.375 0)"/>
       <use xlink:href="#Cambria-372" transform="translate(110.75 0)"/>
      </g>
     </g>
    </g>
    <g id="xtick_4">
     <g id="line2d_7">
      <path d="M 177.495332 183.406016 
L 177.495332 26.64 
" clip-path="url(#p8c8e20c2a0)" style="fill: none; stroke: #e1e0d9; stroke-width: 0.7; stroke-linecap: square"/>
     </g>
     <g id="line2d_8">
      <g>
       <use xlink:href="#mfa28a378e5" x="177.495332" y="183.406016" style="fill: #898781; stroke: #898781; stroke-width: 0.8"/>
      </g>
     </g>
     <g id="text_4">
      <!-- 750 -->
      <g style="fill: #52514e" transform="translate(168.773769 198.573252) scale(0.105 -0.105)">
       <defs>
        <path id="Cambria-379" d="M 3206 4116 
L 1388 -22 
L 934 -22 
L 934 131 
L 2619 3697 
L 2619 3744 
L 1244 3744 
Q 1116 3744 1039 3720 
Q 963 3697 911 3653 
Q 859 3609 825 3537 
Q 791 3466 731 3253 
L 463 3253 
L 525 4266 
L 3206 4266 
L 3206 4116 
z
" transform="scale(0.015625)"/>
       </defs>
       <use xlink:href="#Cambria-379"/>
       <use xlink:href="#Cambria-377" transform="translate(55.375 0)"/>
       <use xlink:href="#Cambria-372" transform="translate(110.75 0)"/>
      </g>
     </g>
    </g>
    <g id="xtick_5">
     <g id="line2d_9">
      <path d="M 216.812265 183.406016 
L 216.812265 26.64 
" clip-path="url(#p8c8e20c2a0)" style="fill: none; stroke: #e1e0d9; stroke-width: 0.7; stroke-linecap: square"/>
     </g>
     <g id="line2d_10">
      <g>
       <use xlink:href="#mfa28a378e5" x="216.812265" y="183.406016" style="fill: #898781; stroke: #898781; stroke-width: 0.8"/>
      </g>
     </g>
     <g id="text_5">
      <!-- 1000 -->
      <g style="fill: #52514e" transform="translate(205.183515 198.573252) scale(0.105 -0.105)">
       <defs>
        <path id="Cambria-373" d="M 2172 816 
Q 2172 634 2192 542 
Q 2213 450 2264 392 
Q 2316 334 2412 301 
Q 2509 269 2656 251 
Q 2803 234 3044 228 
L 3044 0 
L 734 0 
L 734 228 
Q 1081 244 1229 270 
Q 1378 297 1456 350 
Q 1534 403 1570 500 
Q 1606 597 1606 816 
L 1606 3350 
Q 1606 3475 1562 3533 
Q 1519 3591 1434 3591 
Q 1334 3591 1150 3487 
Q 966 3384 694 3203 
L 556 3444 
L 2019 4316 
L 2191 4316 
Q 2172 4016 2172 3484 
L 2172 816 
z
" transform="scale(0.015625)"/>
       </defs>
       <use xlink:href="#Cambria-373"/>
       <use xlink:href="#Cambria-372" transform="translate(55.375 0)"/>
       <use xlink:href="#Cambria-372" transform="translate(110.75 0)"/>
       <use xlink:href="#Cambria-372" transform="translate(166.125 0)"/>
      </g>
     </g>
    </g>
    <g id="xtick_6">
     <g id="line2d_11">
      <path d="M 256.129198 183.406016 
L 256.129198 26.64 
" clip-path="url(#p8c8e20c2a0)" style="fill: none; stroke: #e1e0d9; stroke-width: 0.7; stroke-linecap: square"/>
     </g>
     <g id="line2d_12">
      <g>
       <use xlink:href="#mfa28a378e5" x="256.129198" y="183.406016" style="fill: #898781; stroke: #898781; stroke-width: 0.8"/>
      </g>
     </g>
     <g id="text_6">
      <!-- 1250 -->
      <g style="fill: #52514e" transform="translate(244.500448 198.573252) scale(0.105 -0.105)">
       <use xlink:href="#Cambria-373"/>
       <use xlink:href="#Cambria-374" transform="translate(55.375 0)"/>
       <use xlink:href="#Cambria-377" transform="translate(110.75 0)"/>
       <use xlink:href="#Cambria-372" transform="translate(166.125 0)"/>
      </g>
     </g>
    </g>
    <g id="xtick_7">
     <g id="line2d_13">
      <path d="M 295.446131 183.406016 
L 295.446131 26.64 
" clip-path="url(#p8c8e20c2a0)" style="fill: none; stroke: #e1e0d9; stroke-width: 0.7; stroke-linecap: square"/>
     </g>
     <g id="line2d_14">
      <g>
       <use xlink:href="#mfa28a378e5" x="295.446131" y="183.406016" style="fill: #898781; stroke: #898781; stroke-width: 0.8"/>
      </g>
     </g>
     <g id="text_7">
      <!-- 1500 -->
      <g style="fill: #52514e" transform="translate(283.817381 198.573252) scale(0.105 -0.105)">
       <use xlink:href="#Cambria-373"/>
       <use xlink:href="#Cambria-377" transform="translate(55.375 0)"/>
       <use xlink:href="#Cambria-372" transform="translate(110.75 0)"/>
       <use xlink:href="#Cambria-372" transform="translate(166.125 0)"/>
      </g>
     </g>
    </g>
    <g id="xtick_8">
     <g id="line2d_15">
      <path d="M 334.763063 183.406016 
L 334.763063 26.64 
" clip-path="url(#p8c8e20c2a0)" style="fill: none; stroke: #e1e0d9; stroke-width: 0.7; stroke-linecap: square"/>
     </g>
     <g id="line2d_16">
      <g>
       <use xlink:href="#mfa28a378e5" x="334.763063" y="183.406016" style="fill: #898781; stroke: #898781; stroke-width: 0.8"/>
      </g>
     </g>
     <g id="text_8">
      <!-- 1750 -->
      <g style="fill: #52514e" transform="translate(323.134313 198.573252) scale(0.105 -0.105)">
       <use xlink:href="#Cambria-373"/>
       <use xlink:href="#Cambria-379" transform="translate(55.375 0)"/>
       <use xlink:href="#Cambria-377" transform="translate(110.75 0)"/>
       <use xlink:href="#Cambria-372" transform="translate(166.125 0)"/>
      </g>
     </g>
    </g>
    <g id="xtick_9">
     <g id="line2d_17">
      <path d="M 374.079996 183.406016 
L 374.079996 26.64 
" clip-path="url(#p8c8e20c2a0)" style="fill: none; stroke: #e1e0d9; stroke-width: 0.7; stroke-linecap: square"/>
     </g>
     <g id="line2d_18">
      <g>
       <use xlink:href="#mfa28a378e5" x="374.079996" y="183.406016" style="fill: #898781; stroke: #898781; stroke-width: 0.8"/>
      </g>
     </g>
     <g id="text_9">
      <!-- 2000 -->
      <g style="fill: #52514e" transform="translate(362.451246 198.573252) scale(0.105 -0.105)">
       <use xlink:href="#Cambria-374"/>
       <use xlink:href="#Cambria-372" transform="translate(55.375 0)"/>
       <use xlink:href="#Cambria-372" transform="translate(110.75 0)"/>
       <use xlink:href="#Cambria-372" transform="translate(166.125 0)"/>
      </g>
     </g>
    </g>
    <g id="text_10">
     <!-- charged group-oracle queries $m$ -->
     <g style="fill: #0b0b0b" transform="translate(134.810898 214.24) scale(0.12 -0.12)">
      <defs>
       <path id="Cambria-85" d="M 2631 2916 
L 2631 2263 
L 2234 2263 
Q 2181 2466 2103 2583 
Q 2025 2700 1922 2747 
Q 1819 2794 1666 2794 
Q 1447 2794 1278 2653 
Q 1109 2513 1011 2225 
Q 913 1938 913 1522 
Q 913 1256 950 1036 
Q 988 816 1078 659 
Q 1169 503 1319 415 
Q 1469 328 1691 328 
Q 1906 328 2092 412 
Q 2278 497 2478 709 
L 2656 503 
Q 2497 328 2375 233 
Q 2253 138 2114 73 
Q 1975 9 1839 -20 
Q 1703 -50 1544 -50 
Q 953 -50 640 342 
Q 328 734 328 1475 
Q 328 1938 503 2295 
Q 678 2653 993 2847 
Q 1309 3041 1722 3041 
Q 1978 3041 2195 3011 
Q 2413 2981 2631 2916 
z
" transform="scale(0.015625)"/>
       <path id="Cambria-8a" d="M 1141 2497 
L 1153 2494 
Q 1397 2741 1539 2839 
Q 1681 2938 1820 2988 
Q 1959 3038 2119 3038 
Q 2291 3038 2425 2997 
Q 2559 2956 2661 2873 
Q 2763 2791 2827 2670 
Q 2891 2550 2922 2383 
Q 2953 2216 2953 1959 
L 2953 781 
Q 2953 509 2976 411 
Q 3000 313 3061 258 
Q 3122 203 3306 153 
L 3306 0 
L 2075 0 
L 2075 153 
Q 2197 191 2250 219 
Q 2303 247 2339 297 
Q 2375 347 2395 451 
Q 2416 556 2416 769 
L 2416 1588 
Q 2416 2003 2373 2223 
Q 2331 2444 2207 2553 
Q 2084 2663 1863 2663 
Q 1738 2663 1638 2619 
Q 1538 2575 1406 2462 
Q 1275 2350 1208 2231 
Q 1141 2113 1141 1978 
L 1141 781 
Q 1141 569 1152 478 
Q 1163 388 1194 327 
Q 1225 266 1289 227 
Q 1353 188 1488 153 
L 1488 0 
L 250 0 
L 250 153 
Q 388 191 447 225 
Q 506 259 539 312 
Q 572 366 587 466 
Q 603 566 603 781 
L 603 3397 
Q 603 3697 598 3815 
Q 594 3934 573 4017 
Q 553 4100 517 4147 
Q 481 4194 420 4222 
Q 359 4250 200 4278 
L 200 4441 
L 953 4472 
L 1141 4472 
L 1141 2497 
z
" transform="scale(0.015625)"/>
       <path id="Cambria-83" d="M 2109 447 
L 2063 459 
Q 1791 181 1552 65 
Q 1313 -50 1044 -50 
Q 806 -50 625 42 
Q 444 134 347 301 
Q 250 469 250 688 
Q 250 1144 701 1392 
Q 1153 1641 2056 1681 
L 2056 1884 
Q 2056 2209 1993 2396 
Q 1931 2584 1797 2671 
Q 1663 2759 1438 2759 
Q 1194 2759 1045 2631 
Q 897 2503 822 2247 
L 413 2247 
L 413 2653 
Q 713 2809 913 2882 
Q 1113 2956 1313 2998 
Q 1513 3041 1719 3041 
Q 2028 3041 2215 2942 
Q 2403 2844 2497 2641 
Q 2591 2438 2591 2028 
L 2591 941 
Q 2591 709 2594 614 
Q 2597 519 2612 437 
Q 2628 356 2659 307 
Q 2691 259 2752 225 
Q 2813 191 2950 153 
L 2950 0 
L 2094 0 
L 2109 447 
z
M 2056 1425 
Q 1422 1419 1106 1256 
Q 791 1094 791 766 
Q 791 588 862 484 
Q 934 381 1043 342 
Q 1153 303 1303 303 
Q 1516 303 1689 406 
Q 1863 509 1959 668 
Q 2056 828 2056 984 
L 2056 1425 
z
" transform="scale(0.015625)"/>
       <path id="Cambria-94" d="M 1147 2469 
L 1191 2459 
Q 1363 2669 1509 2789 
Q 1656 2909 1826 2975 
Q 1997 3041 2213 3041 
Q 2394 3041 2541 3022 
L 2541 2303 
L 2188 2303 
Q 2113 2472 2028 2548 
Q 1944 2625 1797 2625 
Q 1684 2625 1573 2559 
Q 1463 2494 1359 2369 
Q 1256 2244 1217 2134 
Q 1178 2025 1178 1875 
L 1178 781 
Q 1178 497 1212 389 
Q 1247 281 1326 231 
Q 1406 181 1566 153 
L 1566 0 
L 306 0 
L 306 153 
Q 425 191 476 219 
Q 528 247 565 297 
Q 603 347 622 450 
Q 641 553 641 772 
L 641 2134 
Q 641 2334 634 2456 
Q 628 2578 590 2651 
Q 553 2725 476 2761 
Q 400 2797 259 2822 
L 259 2984 
L 991 3016 
L 1181 3016 
L 1147 2469 
z
" transform="scale(0.015625)"/>
       <path id="Cambria-89" d="M 3106 2672 
L 2528 2694 
L 2500 2659 
Q 2597 2563 2653 2395 
Q 2709 2228 2709 2034 
Q 2709 1525 2395 1248 
Q 2081 972 1503 972 
Q 1244 972 1056 1038 
Q 819 856 819 681 
Q 819 566 864 506 
Q 909 447 1014 422 
Q 1119 397 1331 397 
L 2081 397 
Q 2413 397 2622 294 
Q 2831 191 2920 17 
Q 3009 -156 3009 -388 
Q 3009 -681 2840 -911 
Q 2672 -1141 2353 -1269 
Q 2034 -1397 1609 -1397 
Q 1294 -1397 1033 -1359 
Q 772 -1322 586 -1233 
Q 400 -1144 298 -998 
Q 197 -853 197 -634 
Q 197 -438 328 -277 
Q 459 -116 700 6 
Q 553 66 468 181 
Q 384 297 384 453 
Q 384 631 484 779 
Q 584 928 838 1119 
Q 613 1250 495 1475 
Q 378 1700 378 1988 
Q 378 2256 467 2454 
Q 556 2653 714 2783 
Q 872 2913 1087 2977 
Q 1303 3041 1553 3041 
Q 1778 3041 2000 2988 
L 3106 2988 
L 3106 2672 
z
M 938 2038 
Q 938 1647 1097 1434 
Q 1256 1222 1556 1222 
Q 1716 1222 1828 1283 
Q 1941 1344 2011 1450 
Q 2081 1556 2114 1695 
Q 2147 1834 2147 1988 
Q 2147 2263 2069 2447 
Q 1991 2631 1856 2717 
Q 1722 2803 1547 2803 
Q 1250 2803 1094 2606 
Q 938 2409 938 2038 
z
M 1016 -50 
Q 856 -169 776 -301 
Q 697 -434 697 -603 
Q 697 -884 920 -1017 
Q 1144 -1150 1603 -1150 
Q 1884 -1150 2086 -1075 
Q 2288 -1000 2394 -859 
Q 2500 -719 2500 -531 
Q 2500 -444 2478 -361 
Q 2456 -278 2395 -212 
Q 2334 -147 2221 -108 
Q 2109 -69 1928 -69 
L 1463 -69 
Q 1209 -69 1016 -50 
z
" transform="scale(0.015625)"/>
       <path id="Cambria-87" d="M 2800 531 
Q 2600 322 2433 203 
Q 2266 84 2066 17 
Q 1866 -50 1625 -50 
Q 981 -50 653 336 
Q 325 722 325 1475 
Q 325 1941 492 2297 
Q 659 2653 968 2847 
Q 1278 3041 1681 3041 
Q 1997 3041 2219 2941 
Q 2441 2841 2573 2667 
Q 2706 2494 2779 2230 
Q 2853 1966 2863 1541 
L 894 1541 
L 894 1484 
Q 894 1116 976 864 
Q 1059 613 1248 470 
Q 1438 328 1741 328 
Q 1997 328 2201 423 
Q 2406 519 2609 734 
L 2800 531 
z
M 2275 1800 
Q 2256 2138 2190 2352 
Q 2125 2566 1994 2680 
Q 1863 2794 1650 2794 
Q 1328 2794 1136 2536 
Q 944 2278 909 1800 
L 2275 1800 
z
" transform="scale(0.015625)"/>
       <path id="Cambria-86" d="M 2413 3397 
Q 2413 3697 2408 3815 
Q 2403 3934 2383 4017 
Q 2363 4100 2327 4147 
Q 2291 4194 2230 4222 
Q 2169 4250 2009 4278 
L 2009 4441 
L 2766 4472 
L 2950 4472 
L 2950 853 
Q 2950 609 2959 504 
Q 2969 400 3000 337 
Q 3031 275 3098 236 
Q 3166 197 3334 163 
L 3334 0 
L 2597 -31 
L 2409 -31 
L 2447 481 
L 2400 494 
Q 2203 284 2058 179 
Q 1913 75 1748 12 
Q 1584 -50 1397 -50 
Q 884 -50 606 339 
Q 328 728 328 1463 
Q 328 1975 509 2333 
Q 691 2691 998 2866 
Q 1306 3041 1691 3041 
Q 1897 3041 2065 3008 
Q 2234 2975 2413 2900 
L 2413 3397 
z
M 2413 1853 
Q 2413 2097 2391 2244 
Q 2369 2391 2317 2491 
Q 2266 2591 2178 2659 
Q 2091 2728 1986 2759 
Q 1881 2791 1734 2791 
Q 1334 2791 1125 2470 
Q 916 2150 916 1550 
Q 916 950 1087 637 
Q 1259 325 1609 325 
Q 1747 325 1837 348 
Q 1928 372 2015 423 
Q 2103 475 2193 565 
Q 2284 656 2326 731 
Q 2369 806 2391 903 
Q 2413 1000 2413 1153 
L 2413 1853 
z
" transform="scale(0.015625)"/>
       <path id="Cambria-3" transform="scale(0.015625)"/>
       <path id="Cambria-91" d="M 1663 -50 
Q 1013 -50 670 333 
Q 328 716 328 1466 
Q 328 1981 508 2337 
Q 688 2694 1000 2867 
Q 1313 3041 1713 3041 
Q 2381 3041 2725 2652 
Q 3069 2263 3069 1534 
Q 3069 1016 2897 659 
Q 2725 303 2409 126 
Q 2094 -50 1663 -50 
z
M 919 1531 
Q 919 888 1123 542 
Q 1328 197 1709 197 
Q 1919 197 2066 298 
Q 2213 400 2305 572 
Q 2397 744 2437 970 
Q 2478 1197 2478 1444 
Q 2478 1903 2376 2206 
Q 2275 2509 2100 2651 
Q 1925 2794 1700 2794 
Q 1322 2794 1120 2466 
Q 919 2138 919 1531 
z
" transform="scale(0.015625)"/>
       <path id="Cambria-97" d="M 228 2988 
L 1119 2988 
L 1119 1397 
Q 1119 1031 1147 840 
Q 1175 650 1231 553 
Q 1288 456 1391 390 
Q 1494 325 1675 325 
Q 1794 325 1903 372 
Q 2013 419 2147 536 
Q 2281 653 2339 768 
Q 2397 884 2397 1038 
L 2397 2209 
Q 2397 2388 2387 2478 
Q 2378 2569 2356 2623 
Q 2334 2678 2304 2712 
Q 2275 2747 2220 2775 
Q 2166 2803 2044 2834 
L 2044 2988 
L 2934 2988 
L 2934 853 
Q 2934 613 2943 506 
Q 2953 400 2984 337 
Q 3016 275 3081 236 
Q 3147 197 3316 163 
L 3316 0 
L 2600 -31 
L 2409 -31 
L 2428 481 
L 2381 494 
Q 2122 213 1886 81 
Q 1650 -50 1413 -50 
Q 1128 -50 943 62 
Q 759 175 668 398 
Q 578 622 578 1028 
L 578 2209 
Q 578 2472 558 2570 
Q 538 2669 480 2726 
Q 422 2784 228 2834 
L 228 2988 
z
" transform="scale(0.015625)"/>
       <path id="Cambria-92" d="M 1150 94 
L 1150 -566 
Q 1150 -769 1164 -869 
Q 1178 -969 1214 -1026 
Q 1250 -1084 1317 -1121 
Q 1384 -1159 1534 -1191 
L 1534 -1344 
L 259 -1344 
L 259 -1191 
Q 372 -1159 442 -1126 
Q 513 -1094 550 -1030 
Q 588 -966 600 -856 
Q 613 -747 613 -566 
L 613 2116 
Q 613 2341 606 2436 
Q 600 2531 581 2593 
Q 563 2656 527 2697 
Q 491 2738 430 2766 
Q 369 2794 228 2822 
L 228 2988 
L 963 3016 
L 1153 3016 
L 1113 2506 
L 1159 2494 
Q 1353 2691 1465 2780 
Q 1578 2869 1698 2928 
Q 1819 2988 1930 3013 
Q 2041 3038 2166 3038 
Q 2681 3038 2957 2652 
Q 3234 2266 3234 1522 
Q 3234 1006 3078 654 
Q 2922 303 2623 126 
Q 2325 -50 1913 -50 
Q 1681 -50 1493 -11 
Q 1306 28 1150 94 
z
M 1150 1125 
Q 1150 825 1187 662 
Q 1225 500 1320 398 
Q 1416 297 1545 247 
Q 1675 197 1888 197 
Q 2266 197 2456 511 
Q 2647 825 2647 1438 
Q 2647 2663 1931 2663 
Q 1756 2663 1629 2608 
Q 1503 2553 1378 2431 
Q 1253 2309 1201 2195 
Q 1150 2081 1150 1950 
L 1150 1125 
z
" transform="scale(0.015625)"/>
       <path id="Cambria-1e6" d="M 1788 1403 
L 338 1403 
L 338 1888 
L 1788 1888 
L 1788 1403 
z
" transform="scale(0.015625)"/>
       <path id="Cambria-8e" d="M 1138 781 
Q 1138 513 1163 408 
Q 1188 303 1258 248 
Q 1328 194 1488 153 
L 1488 0 
L 247 0 
L 247 153 
Q 403 194 464 237 
Q 525 281 551 342 
Q 578 403 589 508 
Q 600 613 600 781 
L 600 3397 
Q 600 3697 595 3815 
Q 591 3934 570 4017 
Q 550 4100 514 4147 
Q 478 4194 417 4222 
Q 356 4250 197 4278 
L 197 4441 
L 950 4472 
L 1138 4472 
L 1138 781 
z
" transform="scale(0.015625)"/>
       <path id="Cambria-93" d="M 3300 -1344 
L 2025 -1344 
L 2025 -1191 
Q 2175 -1159 2242 -1121 
Q 2309 -1084 2345 -1026 
Q 2381 -969 2395 -870 
Q 2409 -772 2409 -566 
L 2409 513 
Q 2241 322 2095 208 
Q 1950 94 1772 22 
Q 1594 -50 1394 -50 
Q 878 -50 601 334 
Q 325 719 325 1453 
Q 325 1972 504 2330 
Q 684 2688 1006 2864 
Q 1328 3041 1750 3041 
Q 1972 3041 2150 2995 
Q 2328 2950 2516 2850 
L 2734 3041 
L 2947 2991 
L 2947 -566 
Q 2947 -750 2961 -858 
Q 2975 -966 3011 -1028 
Q 3047 -1091 3117 -1125 
Q 3188 -1159 3300 -1191 
L 3300 -1344 
z
M 2409 1863 
Q 2409 2153 2371 2312 
Q 2334 2472 2243 2583 
Q 2153 2694 2031 2742 
Q 1909 2791 1744 2791 
Q 1341 2791 1127 2466 
Q 913 2141 913 1550 
Q 913 950 1086 637 
Q 1259 325 1606 325 
Q 1738 325 1830 348 
Q 1922 372 2011 425 
Q 2100 478 2192 568 
Q 2284 659 2325 732 
Q 2366 806 2387 903 
Q 2409 1000 2409 1153 
L 2409 1863 
z
" transform="scale(0.015625)"/>
       <path id="Cambria-8b" d="M 1197 4213 
L 1197 3606 
L 622 3606 
L 622 4213 
L 1197 4213 
z
M 303 153 
Q 425 191 476 219 
Q 528 247 564 297 
Q 600 347 620 450 
Q 641 553 641 772 
L 641 2134 
Q 641 2334 634 2456 
Q 628 2578 590 2651 
Q 553 2725 476 2761 
Q 400 2797 259 2822 
L 259 2988 
L 988 3016 
L 1178 3016 
L 1178 781 
Q 1178 513 1203 408 
Q 1228 303 1298 248 
Q 1369 194 1528 153 
L 1528 0 
L 303 0 
L 303 153 
z
" transform="scale(0.015625)"/>
       <path id="Cambria-95" d="M 2397 2303 
L 2097 2303 
Q 2028 2491 1934 2598 
Q 1841 2706 1722 2750 
Q 1603 2794 1431 2794 
Q 1181 2794 1032 2676 
Q 884 2559 884 2356 
Q 884 2213 943 2119 
Q 1003 2025 1128 1944 
Q 1253 1863 1569 1728 
Q 1888 1591 2061 1475 
Q 2234 1359 2332 1206 
Q 2431 1053 2431 841 
Q 2431 594 2347 425 
Q 2263 256 2109 150 
Q 1956 44 1745 -3 
Q 1534 -50 1284 -50 
Q 1022 -50 775 -11 
Q 528 28 294 91 
L 294 744 
L 600 744 
Q 684 456 850 326 
Q 1016 197 1306 197 
Q 1419 197 1526 220 
Q 1634 244 1718 298 
Q 1803 353 1853 447 
Q 1903 541 1903 681 
Q 1903 841 1840 941 
Q 1778 1041 1647 1123 
Q 1516 1206 1184 1347 
Q 900 1466 728 1578 
Q 556 1691 457 1844 
Q 359 1997 359 2206 
Q 359 2463 498 2652 
Q 638 2841 900 2941 
Q 1163 3041 1516 3041 
Q 1722 3041 1914 3020 
Q 2106 3000 2397 2941 
L 2397 2303 
z
" transform="scale(0.015625)"/>
       <path id="Cmmi10-45" d="M 494 109 
Q 494 147 500 166 
L 978 2075 
Q 1025 2253 1025 2388 
Q 1025 2663 838 2663 
Q 638 2663 541 2423 
Q 444 2184 353 1819 
Q 353 1800 334 1789 
Q 316 1778 300 1778 
L 225 1778 
Q 203 1778 187 1801 
Q 172 1825 172 1844 
Q 241 2122 305 2315 
Q 369 2509 505 2668 
Q 641 2828 844 2828 
Q 1084 2828 1268 2676 
Q 1453 2525 1453 2291 
Q 1644 2541 1900 2684 
Q 2156 2828 2444 2828 
Q 2747 2828 2967 2673 
Q 3188 2519 3188 2234 
Q 3384 2513 3648 2670 
Q 3913 2828 4225 2828 
Q 4556 2828 4757 2648 
Q 4959 2469 4959 2138 
Q 4959 1875 4842 1503 
Q 4725 1131 4550 672 
Q 4459 450 4459 288 
Q 4459 97 4609 97 
Q 4859 97 5025 365 
Q 5191 634 5259 941 
Q 5278 978 5313 978 
L 5388 978 
Q 5413 978 5430 961 
Q 5447 944 5447 922 
Q 5447 916 5441 903 
Q 5353 541 5136 234 
Q 4919 -72 4594 -72 
Q 4369 -72 4209 83 
Q 4050 238 4050 459 
Q 4050 572 4103 709 
Q 4284 1191 4404 1569 
Q 4525 1947 4525 2234 
Q 4525 2413 4453 2538 
Q 4381 2663 4213 2663 
Q 3863 2663 3606 2448 
Q 3350 2234 3163 1881 
Q 3150 1819 3144 1784 
L 2731 141 
Q 2709 53 2632 -9 
Q 2556 -72 2463 -72 
Q 2388 -72 2330 -22 
Q 2272 28 2272 109 
Q 2272 147 2278 166 
L 2688 1797 
Q 2753 2059 2753 2234 
Q 2753 2413 2679 2538 
Q 2606 2663 2431 2663 
Q 2197 2663 2000 2559 
Q 1803 2456 1656 2286 
Q 1509 2116 1388 1881 
L 953 141 
Q 931 53 854 -9 
Q 778 -72 684 -72 
Q 606 -72 550 -22 
Q 494 28 494 109 
z
" transform="scale(0.015625)"/>
      </defs>
      <use xlink:href="#Cambria-85" transform="translate(0 0.125)"/>
      <use xlink:href="#Cambria-8a" transform="translate(44.091797 0.125)"/>
      <use xlink:href="#Cambria-83" transform="translate(99.267578 0.125)"/>
      <use xlink:href="#Cambria-94" transform="translate(148.095703 0.125)"/>
      <use xlink:href="#Cambria-89" transform="translate(189.453125 0.125)"/>
      <use xlink:href="#Cambria-87" transform="translate(238.867188 0.125)"/>
      <use xlink:href="#Cambria-86" transform="translate(287.646484 0.125)"/>
      <use xlink:href="#Cambria-3" transform="translate(343.115234 0.125)"/>
      <use xlink:href="#Cambria-89" transform="translate(365.136719 0.125)"/>
      <use xlink:href="#Cambria-94" transform="translate(414.550781 0.125)"/>
      <use xlink:href="#Cambria-91" transform="translate(455.908203 0.125)"/>
      <use xlink:href="#Cambria-97" transform="translate(508.984375 0.125)"/>
      <use xlink:href="#Cambria-92" transform="translate(564.208984 0.125)"/>
      <use xlink:href="#Cambria-1e6" transform="translate(619.824219 0.125)"/>
      <use xlink:href="#Cambria-91" transform="translate(653.027344 0.125)"/>
      <use xlink:href="#Cambria-94" transform="translate(706.103516 0.125)"/>
      <use xlink:href="#Cambria-83" transform="translate(747.460938 0.125)"/>
      <use xlink:href="#Cambria-85" transform="translate(796.289062 0.125)"/>
      <use xlink:href="#Cambria-8e" transform="translate(840.380859 0.125)"/>
      <use xlink:href="#Cambria-87" transform="translate(867.529297 0.125)"/>
      <use xlink:href="#Cambria-3" transform="translate(916.308594 0.125)"/>
      <use xlink:href="#Cambria-93" transform="translate(938.330078 0.125)"/>
      <use xlink:href="#Cambria-97" transform="translate(993.017578 0.125)"/>
      <use xlink:href="#Cambria-87" transform="translate(1048.242188 0.125)"/>
      <use xlink:href="#Cambria-94" transform="translate(1097.021484 0.125)"/>
      <use xlink:href="#Cambria-8b" transform="translate(1138.378906 0.125)"/>
      <use xlink:href="#Cambria-87" transform="translate(1166.162109 0.125)"/>
      <use xlink:href="#Cambria-95" transform="translate(1214.941406 0.125)"/>
      <use xlink:href="#Cambria-3" transform="translate(1257.910156 0.125)"/>
      <use xlink:href="#Cmmi10-45" transform="translate(1279.931641 0.125)"/>
     </g>
    </g>
   </g>
   <g id="matplotlib.axis_2">
    <g id="ytick_1">
     <g id="line2d_19">
      <path d="M 43.982891 183.406016 
L 389.798906 183.406016 
" clip-path="url(#p8c8e20c2a0)" style="fill: none; stroke: #e1e0d9; stroke-width: 0.7; stroke-linecap: square"/>
     </g>
     <g id="line2d_20">
      <defs>
       <path id="maf95385081" d="M 0 0 
L -3.5 0 
" style="stroke: #898781; stroke-width: 0.8"/>
      </defs>
      <g>
       <use xlink:href="#maf95385081" x="43.982891" y="183.406016" style="fill: #898781; stroke: #898781; stroke-width: 0.8"/>
      </g>
     </g>
     <g id="text_11">
      <!-- 0.0 -->
      <g style="fill: #52514e" transform="translate(23.2 187.489634) scale(0.105 -0.105)">
       <defs>
        <path id="Cambria-1e4" d="M 972 725 
L 972 0 
L 341 0 
L 341 725 
L 972 725 
z
" transform="scale(0.015625)"/>
       </defs>
       <use xlink:href="#Cambria-372"/>
       <use xlink:href="#Cambria-1e4" transform="translate(55.375 0)"/>
       <use xlink:href="#Cambria-372" transform="translate(75.890625 0)"/>
      </g>
     </g>
    </g>
    <g id="ytick_2">
     <g id="line2d_21">
      <path d="M 43.982891 153.545822 
L 389.798906 153.545822 
" clip-path="url(#p8c8e20c2a0)" style="fill: none; stroke: #e1e0d9; stroke-width: 0.7; stroke-linecap: square"/>
     </g>
     <g id="line2d_22">
      <g>
       <use xlink:href="#maf95385081" x="43.982891" y="153.545822" style="fill: #898781; stroke: #898781; stroke-width: 0.8"/>
      </g>
     </g>
     <g id="text_12">
      <!-- 0.2 -->
      <g style="fill: #52514e" transform="translate(23.2 157.62944) scale(0.105 -0.105)">
       <use xlink:href="#Cambria-372"/>
       <use xlink:href="#Cambria-1e4" transform="translate(55.375 0)"/>
       <use xlink:href="#Cambria-374" transform="translate(75.890625 0)"/>
      </g>
     </g>
    </g>
    <g id="ytick_3">
     <g id="line2d_23">
      <path d="M 43.982891 123.685629 
L 389.798906 123.685629 
" clip-path="url(#p8c8e20c2a0)" style="fill: none; stroke: #e1e0d9; stroke-width: 0.7; stroke-linecap: square"/>
     </g>
     <g id="line2d_24">
      <g>
       <use xlink:href="#maf95385081" x="43.982891" y="123.685629" style="fill: #898781; stroke: #898781; stroke-width: 0.8"/>
      </g>
     </g>
     <g id="text_13">
      <!-- 0.4 -->
      <g style="fill: #52514e" transform="translate(23.2 127.769247) scale(0.105 -0.105)">
       <defs>
        <path id="Cambria-376" d="M 1613 153 
Q 1806 203 1872 264 
Q 1938 325 1958 437 
Q 1978 550 1978 781 
L 1978 1294 
L 241 1294 
L 241 1528 
L 2069 4288 
L 2516 4288 
L 2516 1597 
L 2581 1597 
Q 2763 1597 2841 1623 
Q 2919 1650 2970 1717 
Q 3022 1784 3066 1938 
L 3303 1938 
L 3266 1294 
L 2516 1294 
L 2516 781 
Q 2516 572 2530 475 
Q 2544 378 2576 322 
Q 2609 266 2673 228 
Q 2738 191 2881 153 
L 2881 0 
L 1613 0 
L 1613 153 
z
M 756 1597 
L 1978 1597 
L 1978 2375 
Q 1978 2669 1987 3033 
Q 1997 3397 2009 3581 
L 1978 3581 
L 756 1641 
L 756 1597 
z
" transform="scale(0.015625)"/>
       </defs>
       <use xlink:href="#Cambria-372"/>
       <use xlink:href="#Cambria-1e4" transform="translate(55.375 0)"/>
       <use xlink:href="#Cambria-376" transform="translate(75.890625 0)"/>
      </g>
     </g>
    </g>
    <g id="ytick_4">
     <g id="line2d_25">
      <path d="M 43.982891 93.825435 
L 389.798906 93.825435 
" clip-path="url(#p8c8e20c2a0)" style="fill: none; stroke: #e1e0d9; stroke-width: 0.7; stroke-linecap: square"/>
     </g>
     <g id="line2d_26">
      <g>
       <use xlink:href="#maf95385081" x="43.982891" y="93.825435" style="fill: #898781; stroke: #898781; stroke-width: 0.8"/>
      </g>
     </g>
     <g id="text_14">
      <!-- 0.6 -->
      <g style="fill: #52514e" transform="translate(23.2 97.909053) scale(0.105 -0.105)">
       <defs>
        <path id="Cambria-378" d="M 2847 4144 
L 2847 3991 
Q 2366 3991 1994 3784 
Q 1622 3578 1376 3178 
Q 1131 2778 1031 2228 
L 1063 2216 
Q 1325 2403 1579 2490 
Q 1834 2578 2131 2578 
Q 2484 2578 2732 2423 
Q 2981 2269 3106 1989 
Q 3231 1709 3231 1334 
Q 3231 928 3075 617 
Q 2919 306 2592 128 
Q 2266 -50 1788 -50 
Q 1103 -50 754 375 
Q 406 800 406 1628 
Q 406 2184 581 2668 
Q 756 3153 1078 3514 
Q 1400 3875 1825 4083 
Q 2250 4291 2719 4316 
L 2847 4144 
z
M 1916 2250 
Q 1763 2250 1620 2215 
Q 1478 2181 1353 2115 
Q 1228 2050 1109 1950 
Q 1072 1916 1053 1878 
Q 1022 1819 1012 1731 
Q 1003 1644 1003 1438 
Q 1003 841 1203 528 
Q 1403 216 1809 216 
Q 2044 216 2203 297 
Q 2363 378 2461 520 
Q 2559 663 2601 855 
Q 2644 1047 2644 1272 
Q 2644 1734 2453 1992 
Q 2263 2250 1916 2250 
z
" transform="scale(0.015625)"/>
       </defs>
       <use xlink:href="#Cambria-372"/>
       <use xlink:href="#Cambria-1e4" transform="translate(55.375 0)"/>
       <use xlink:href="#Cambria-378" transform="translate(75.890625 0)"/>
      </g>
     </g>
    </g>
    <g id="ytick_5">
     <g id="line2d_27">
      <path d="M 43.982891 63.965242 
L 389.798906 63.965242 
" clip-path="url(#p8c8e20c2a0)" style="fill: none; stroke: #e1e0d9; stroke-width: 0.7; stroke-linecap: square"/>
     </g>
     <g id="line2d_28">
      <g>
       <use xlink:href="#maf95385081" x="43.982891" y="63.965242" style="fill: #898781; stroke: #898781; stroke-width: 0.8"/>
      </g>
     </g>
     <g id="text_15">
      <!-- 0.8 -->
      <g style="fill: #52514e" transform="translate(23.2 68.04886) scale(0.105 -0.105)">
       <defs>
        <path id="Cambria-37a" d="M 2475 2253 
L 2481 2213 
Q 2834 2075 3015 1811 
Q 3197 1547 3197 1175 
Q 3197 809 3022 531 
Q 2847 253 2514 101 
Q 2181 -50 1738 -50 
Q 1322 -50 1008 89 
Q 694 228 520 495 
Q 347 763 347 1125 
Q 347 1397 440 1597 
Q 534 1797 686 1926 
Q 838 2056 1069 2163 
L 1063 2203 
Q 391 2494 391 3200 
Q 391 3522 567 3775 
Q 744 4028 1070 4172 
Q 1397 4316 1794 4316 
Q 2244 4316 2550 4189 
Q 2856 4063 3011 3823 
Q 3166 3584 3166 3250 
Q 3166 2906 2997 2657 
Q 2828 2409 2475 2253 
z
M 978 3228 
Q 978 3044 1022 2881 
Q 1066 2719 1162 2600 
Q 1259 2481 1414 2411 
Q 1569 2341 1794 2341 
Q 2053 2341 2229 2442 
Q 2406 2544 2492 2739 
Q 2578 2934 2578 3191 
Q 2578 3472 2476 3667 
Q 2375 3863 2197 3956 
Q 2019 4050 1788 4050 
Q 1394 4050 1186 3836 
Q 978 3622 978 3228 
z
M 944 1178 
Q 944 975 991 798 
Q 1038 622 1139 494 
Q 1241 366 1400 291 
Q 1559 216 1788 216 
Q 2044 216 2226 320 
Q 2409 425 2504 631 
Q 2600 838 2600 1119 
Q 2600 1419 2497 1636 
Q 2394 1853 2206 1967 
Q 2019 2081 1772 2081 
Q 1541 2081 1383 2009 
Q 1225 1938 1126 1816 
Q 1028 1694 986 1530 
Q 944 1366 944 1178 
z
" transform="scale(0.015625)"/>
       </defs>
       <use xlink:href="#Cambria-372"/>
       <use xlink:href="#Cambria-1e4" transform="translate(55.375 0)"/>
       <use xlink:href="#Cambria-37a" transform="translate(75.890625 0)"/>
      </g>
     </g>
    </g>
    <g id="ytick_6">
     <g id="line2d_29">
      <path d="M 43.982891 34.105048 
L 389.798906 34.105048 
" clip-path="url(#p8c8e20c2a0)" style="fill: none; stroke: #e1e0d9; stroke-width: 0.7; stroke-linecap: square"/>
     </g>
     <g id="line2d_30">
      <g>
       <use xlink:href="#maf95385081" x="43.982891" y="34.105048" style="fill: #898781; stroke: #898781; stroke-width: 0.8"/>
      </g>
     </g>
     <g id="text_16">
      <!-- 1.0 -->
      <g style="fill: #52514e" transform="translate(23.2 38.188667) scale(0.105 -0.105)">
       <use xlink:href="#Cambria-373"/>
       <use xlink:href="#Cambria-1e4" transform="translate(55.375 0)"/>
       <use xlink:href="#Cambria-372" transform="translate(75.890625 0)"/>
      </g>
     </g>
    </g>
    <g id="text_17">
     <!-- success probability -->
     <g style="fill: #0b0b0b" transform="translate(16.533984 154.039258) rotate(-90) scale(0.12 -0.12)">
      <defs>
       <path id="Cambria-84" d="M 1091 2497 
L 1103 2494 
Q 1322 2722 1467 2825 
Q 1613 2928 1767 2983 
Q 1922 3038 2106 3038 
Q 2441 3038 2680 2867 
Q 2919 2697 3048 2356 
Q 3178 2016 3178 1522 
Q 3178 1013 3023 661 
Q 2869 309 2567 129 
Q 2266 -50 1853 -50 
Q 1622 -50 1417 -8 
Q 1213 34 988 141 
L 769 -50 
L 553 0 
L 553 3397 
Q 553 3697 548 3815 
Q 544 3934 523 4017 
Q 503 4100 467 4147 
Q 431 4194 370 4222 
Q 309 4250 150 4278 
L 150 4441 
L 906 4472 
L 1091 4472 
L 1091 2497 
z
M 1091 1125 
Q 1091 884 1112 742 
Q 1134 600 1186 506 
Q 1238 413 1336 334 
Q 1434 256 1556 226 
Q 1678 197 1828 197 
Q 2203 197 2397 503 
Q 2591 809 2591 1422 
Q 2591 2041 2414 2352 
Q 2238 2663 1881 2663 
Q 1703 2663 1578 2608 
Q 1453 2553 1329 2437 
Q 1206 2322 1148 2209 
Q 1091 2097 1091 1953 
L 1091 1125 
z
" transform="scale(0.015625)"/>
       <path id="Cambria-96" d="M 116 2831 
Q 272 2856 369 2918 
Q 466 2981 520 3079 
Q 575 3178 606 3326 
Q 638 3475 672 3759 
L 1116 3759 
L 1116 2988 
L 2125 2988 
L 2125 2672 
L 1116 2672 
L 1116 1281 
Q 1116 978 1141 798 
Q 1166 619 1234 517 
Q 1303 416 1390 372 
Q 1478 328 1616 328 
Q 1741 328 1850 379 
Q 1959 431 2066 528 
L 2206 359 
Q 1984 144 1786 47 
Q 1588 -50 1375 -50 
Q 972 -50 775 189 
Q 578 428 578 938 
L 578 2672 
L 116 2672 
L 116 2831 
z
" transform="scale(0.015625)"/>
       <path id="Cambria-9b" d="M 1625 -256 
Q 1453 -644 1290 -884 
Q 1128 -1125 933 -1247 
Q 738 -1369 469 -1369 
Q 297 -1369 81 -1328 
L 81 -709 
L 359 -709 
Q 397 -838 453 -888 
Q 509 -938 616 -938 
Q 709 -938 782 -902 
Q 856 -866 936 -778 
Q 1016 -691 1123 -509 
Q 1231 -328 1366 -50 
L 491 2303 
Q 406 2531 354 2622 
Q 303 2713 243 2759 
Q 184 2806 63 2834 
L 63 2988 
L 1334 2988 
L 1334 2834 
Q 1188 2800 1128 2767 
Q 1069 2734 1041 2682 
Q 1013 2631 1013 2550 
Q 1013 2466 1033 2375 
Q 1053 2284 1097 2163 
L 1653 597 
L 2278 2097 
Q 2331 2222 2361 2326 
Q 2391 2431 2391 2522 
Q 2391 2656 2317 2725 
Q 2244 2794 2063 2834 
L 2063 2988 
L 3231 2988 
L 3231 2834 
Q 3109 2809 3043 2757 
Q 2978 2706 2912 2595 
Q 2847 2484 2756 2284 
L 1625 -256 
z
" transform="scale(0.015625)"/>
      </defs>
      <use xlink:href="#Cambria-95"/>
      <use xlink:href="#Cambria-97" transform="translate(42.96875 0)"/>
      <use xlink:href="#Cambria-85" transform="translate(98.1875 0)"/>
      <use xlink:href="#Cambria-85" transform="translate(142.28125 0)"/>
      <use xlink:href="#Cambria-87" transform="translate(186.375 0)"/>
      <use xlink:href="#Cambria-95" transform="translate(235.15625 0)"/>
      <use xlink:href="#Cambria-95" transform="translate(278.125 0)"/>
      <use xlink:href="#Cambria-3" transform="translate(321.09375 0)"/>
      <use xlink:href="#Cambria-92" transform="translate(343.109375 0)"/>
      <use xlink:href="#Cambria-94" transform="translate(398.71875 0)"/>
      <use xlink:href="#Cambria-91" transform="translate(438.609375 0)"/>
      <use xlink:href="#Cambria-84" transform="translate(491.6875 0)"/>
      <use xlink:href="#Cambria-83" transform="translate(546.421875 0)"/>
      <use xlink:href="#Cambria-84" transform="translate(595.25 0)"/>
      <use xlink:href="#Cambria-8b" transform="translate(649.984375 0)"/>
      <use xlink:href="#Cambria-8e" transform="translate(677.765625 0)"/>
      <use xlink:href="#Cambria-8b" transform="translate(704.921875 0)"/>
      <use xlink:href="#Cambria-96" transform="translate(732.703125 0)"/>
      <use xlink:href="#Cambria-9b" transform="translate(766.546875 0)"/>
     </g>
    </g>
   </g>
   <g id="line2d_31">
    <path d="M 59.7018 183.405731 
L 66.005123 183.282806 
L 72.308445 182.931151 
L 78.611767 182.350767 
L 84.915089 181.541653 
L 91.218412 180.503809 
L 97.521734 179.237236 
L 103.825056 177.741933 
L 110.128378 176.0179 
L 116.4317 174.065138 
L 122.735023 171.883646 
L 129.038345 169.473424 
L 135.341667 166.834473 
L 141.644989 163.966792 
L 147.948312 160.870382 
L 154.251634 157.545241 
L 160.554956 153.991372 
L 167.646194 149.719865 
L 174.737431 145.158872 
L 181.828669 140.308393 
L 188.919906 135.168428 
L 196.011144 129.738977 
L 203.102381 124.02004 
L 210.193619 118.011617 
L 217.284856 111.713708 
L 224.376094 105.126313 
L 231.467331 98.249432 
L 238.558569 91.083066 
L 245.649806 83.627213 
L 253.528959 75.003412 
L 261.408112 66.02222 
L 269.287264 56.683638 
L 277.166417 46.987667 
L 285.04557 36.934305 
L 286.621401 34.880746 
L 287.409316 34.105048 
L 374.079996 34.105048 
L 374.079996 34.105048 
" clip-path="url(#p8c8e20c2a0)" style="fill: none; stroke: #2a78d6; stroke-width: 2; stroke-linecap: square"/>
   </g>
   <g id="line2d_32">
    <path d="M 43.982891 34.105048 
L 389.798906 34.105048 
" clip-path="url(#p8c8e20c2a0)" style="fill: none; stroke-dasharray: 5.18,2.24; stroke-dashoffset: 0; stroke: #e34948; stroke-width: 1.4"/>
   </g>
   <g id="line2d_33">
    <path d="M 220.58669 183.406016 
L 220.58669 26.64 
" clip-path="url(#p8c8e20c2a0)" style="fill: none; stroke-dasharray: 1,1.65; stroke-dashoffset: 0; stroke: #898781"/>
   </g>
   <g id="patch_3">
    <path d="M 43.982891 183.406016 
L 43.982891 26.64 
" style="fill: none; stroke: #c3c2b7; stroke-width: 0.9; stroke-linejoin: miter; stroke-linecap: square"/>
   </g>
   <g id="patch_4">
    <path d="M 43.982891 183.406016 
L 389.798906 183.406016 
" style="fill: none; stroke: #c3c2b7; stroke-width: 0.9; stroke-linejoin: miter; stroke-linecap: square"/>
   </g>
   <g id="text_18">
    <!-- $m\approx\sqrt{r}$ -->
    <g style="fill: #898781" transform="translate(223.732045 165.4899) scale(0.09 -0.09)">
     <defs>
      <path id="Cmsy10-17" d="M 447 359 
Q 378 359 359 519 
L 359 556 
Q 359 847 501 1087 
Q 644 1328 891 1464 
Q 1138 1600 1422 1600 
Q 1766 1600 2130 1379 
Q 2494 1159 2853 937 
Q 3213 716 3553 716 
Q 3881 716 4157 919 
Q 4434 1122 4434 1441 
Q 4453 1600 4525 1600 
Q 4597 1600 4616 1441 
L 4616 1403 
Q 4616 1113 4472 872 
Q 4328 631 4083 495 
Q 3838 359 3553 359 
Q 3284 359 3048 470 
Q 2813 581 2495 795 
Q 2178 1009 1937 1125 
Q 1697 1241 1422 1241 
Q 1219 1241 1009 1150 
Q 800 1059 669 895 
Q 538 731 538 519 
Q 519 359 447 359 
z
M 447 1850 
Q 378 1850 359 2009 
L 359 2047 
Q 359 2338 501 2578 
Q 644 2819 891 2955 
Q 1138 3091 1422 3091 
Q 1766 3091 2130 2870 
Q 2494 2650 2853 2429 
Q 3213 2209 3553 2209 
Q 3881 2209 4157 2412 
Q 4434 2616 4434 2931 
Q 4453 3091 4525 3091 
Q 4597 3091 4616 2931 
L 4616 2894 
Q 4616 2603 4472 2362 
Q 4328 2122 4083 1986 
Q 3838 1850 3553 1850 
Q 3284 1850 3048 1961 
Q 2813 2072 2495 2286 
Q 2178 2500 1937 2615 
Q 1697 2731 1422 2731 
Q 1219 2731 1009 2640 
Q 800 2550 669 2386 
Q 538 2222 538 2009 
Q 519 1850 447 1850 
z
" transform="scale(0.015625)"/>
      <path id="Cmex10-30" d="M 2713 -7425 
L 1269 -4063 
L 819 -4409 
L 703 -4294 
L 1619 -3584 
L 2969 -6725 
L 6291 197 
Q 6322 256 6400 256 
Q 6453 256 6490 218 
Q 6528 181 6528 128 
Q 6528 97 6522 84 
L 2950 -7366 
Q 2925 -7425 2853 -7425 
L 2713 -7425 
z
" transform="scale(0.015625)"/>
      <path id="Cmmi10-84" d="M 494 109 
Q 494 147 500 166 
L 978 2075 
Q 1025 2253 1025 2388 
Q 1025 2663 838 2663 
Q 638 2663 541 2423 
Q 444 2184 353 1819 
Q 353 1800 334 1789 
Q 316 1778 300 1778 
L 225 1778 
Q 203 1778 187 1801 
Q 172 1825 172 1844 
Q 241 2122 305 2315 
Q 369 2509 505 2668 
Q 641 2828 844 2828 
Q 1066 2828 1233 2700 
Q 1400 2572 1441 2363 
Q 1603 2575 1811 2701 
Q 2019 2828 2266 2828 
Q 2469 2828 2623 2709 
Q 2778 2591 2778 2388 
Q 2778 2225 2676 2104 
Q 2575 1984 2406 1984 
Q 2303 1984 2233 2048 
Q 2163 2113 2163 2216 
Q 2163 2356 2266 2467 
Q 2369 2578 2503 2578 
Q 2400 2663 2253 2663 
Q 1978 2663 1775 2467 
Q 1572 2272 1409 1972 
L 953 141 
Q 931 53 854 -9 
Q 778 -72 684 -72 
Q 606 -72 550 -22 
Q 494 28 494 109 
z
" transform="scale(0.015625)"/>
     </defs>
     <use xlink:href="#Cmmi10-45" transform="translate(0 0.578125)"/>
     <use xlink:href="#Cmsy10-17" transform="translate(107.793026 0.578125)"/>
     <use xlink:href="#Cmex10-30" transform="translate(205.47863 73.453125) scale(0.637938)"/>
     <use xlink:href="#Cmmi10-84" transform="translate(281.75988 0.5625)"/>
     <path d="M 269.25988 75.75 
L 269.25988 82 
L 339.377068 82 
L 339.377068 75.75 
L 269.25988 75.75 
z
"/>
    </g>
   </g>
   <g id="text_19">
    <!-- Opacity is load-bearing: group order $r=2^{20}$ -->
    <g style="fill: #0b0b0b" transform="translate(43.982891 18.64) scale(0.13 -0.13)">
     <defs>
      <path id="Cambria-12" d="M 2044 -50 
Q 1669 -50 1361 73 
Q 1053 197 833 458 
Q 613 719 492 1125 
Q 372 1531 372 2097 
Q 372 2794 584 3294 
Q 797 3794 1192 4055 
Q 1588 4316 2109 4316 
Q 2666 4316 3045 4070 
Q 3425 3825 3617 3348 
Q 3809 2872 3809 2188 
Q 3809 1456 3590 953 
Q 3372 450 2973 200 
Q 2575 -50 2044 -50 
z
M 1016 2184 
Q 1016 1225 1295 725 
Q 1575 225 2113 225 
Q 2453 225 2690 442 
Q 2928 659 3047 1078 
Q 3166 1497 3166 2056 
Q 3166 2738 3027 3186 
Q 2888 3634 2647 3837 
Q 2406 4041 2088 4041 
Q 1806 4041 1604 3909 
Q 1403 3778 1270 3536 
Q 1138 3294 1077 2950 
Q 1016 2606 1016 2184 
z
" transform="scale(0.015625)"/>
      <path id="Cambria-90" d="M 3347 0 
L 2116 0 
L 2116 153 
Q 2238 191 2291 219 
Q 2344 247 2380 297 
Q 2416 347 2436 451 
Q 2456 556 2456 769 
L 2456 1588 
Q 2456 1806 2443 1984 
Q 2431 2163 2401 2277 
Q 2372 2391 2330 2455 
Q 2288 2519 2230 2564 
Q 2172 2609 2097 2636 
Q 2022 2663 1900 2663 
Q 1778 2663 1668 2614 
Q 1559 2566 1428 2447 
Q 1297 2328 1237 2212 
Q 1178 2097 1178 1947 
L 1178 781 
Q 1178 513 1203 408 
Q 1228 303 1298 248 
Q 1369 194 1528 153 
L 1528 0 
L 303 0 
L 303 153 
Q 425 191 476 219 
Q 528 247 564 297 
Q 600 347 620 450 
Q 641 553 641 772 
L 641 2134 
Q 641 2334 634 2456 
Q 628 2578 590 2651 
Q 553 2725 476 2761 
Q 400 2797 259 2822 
L 259 2988 
L 991 3016 
L 1181 3016 
L 1147 2506 
L 1191 2494 
Q 1422 2728 1564 2828 
Q 1706 2928 1851 2983 
Q 1997 3038 2159 3038 
Q 2328 3038 2461 2998 
Q 2594 2959 2695 2878 
Q 2797 2797 2862 2676 
Q 2928 2556 2961 2387 
Q 2994 2219 2994 1959 
L 2994 781 
Q 2994 566 3006 469 
Q 3019 372 3050 319 
Q 3081 266 3140 230 
Q 3200 194 3347 153 
L 3347 0 
z
" transform="scale(0.015625)"/>
      <path id="Cambria-1e3" d="M 1156 2822 
L 1156 2091 
L 531 2091 
L 531 2822 
L 1156 2822 
z
M 1156 725 
L 1156 0 
L 531 0 
L 531 725 
L 1156 725 
z
" transform="scale(0.015625)"/>
      <path id="Cmr10-29" d="M 481 850 
Q 428 850 393 890 
Q 359 931 359 978 
Q 359 1031 393 1068 
Q 428 1106 481 1106 
L 4500 1106 
Q 4547 1106 4581 1068 
Q 4616 1031 4616 978 
Q 4616 931 4581 890 
Q 4547 850 4500 850 
L 481 850 
z
M 481 2094 
Q 428 2094 393 2131 
Q 359 2169 359 2222 
Q 359 2269 393 2309 
Q 428 2350 481 2350 
L 4500 2350 
Q 4547 2350 4581 2309 
Q 4616 2269 4616 2222 
Q 4616 2169 4581 2131 
Q 4547 2094 4500 2094 
L 481 2094 
z
" transform="scale(0.015625)"/>
      <path id="Cmr10-31" d="M 319 0 
L 319 172 
Q 319 188 331 206 
L 1325 1306 
Q 1550 1550 1690 1715 
Q 1831 1881 1968 2097 
Q 2106 2313 2186 2536 
Q 2266 2759 2266 3009 
Q 2266 3272 2169 3511 
Q 2072 3750 1880 3894 
Q 1688 4038 1416 4038 
Q 1138 4038 916 3870 
Q 694 3703 603 3438 
Q 628 3444 672 3444 
Q 816 3444 917 3347 
Q 1019 3250 1019 3097 
Q 1019 2950 917 2848 
Q 816 2747 672 2747 
Q 522 2747 420 2851 
Q 319 2956 319 3097 
Q 319 3338 409 3548 
Q 500 3759 670 3923 
Q 841 4088 1055 4175 
Q 1269 4263 1509 4263 
Q 1875 4263 2190 4108 
Q 2506 3953 2690 3670 
Q 2875 3388 2875 3009 
Q 2875 2731 2753 2481 
Q 2631 2231 2440 2026 
Q 2250 1822 1953 1562 
Q 1656 1303 1563 1216 
L 838 519 
L 1453 519 
Q 1906 519 2211 526 
Q 2516 534 2534 550 
Q 2609 631 2688 1141 
L 2875 1141 
L 2694 0 
L 319 0 
z
" transform="scale(0.015625)"/>
      <path id="Cmr10-28" d="M 1600 -141 
Q 816 -141 533 504 
Q 250 1150 250 2041 
Q 250 2597 351 3087 
Q 453 3578 754 3920 
Q 1056 4263 1600 4263 
Q 2022 4263 2290 4056 
Q 2559 3850 2700 3523 
Q 2841 3197 2892 2823 
Q 2944 2450 2944 2041 
Q 2944 1491 2842 1011 
Q 2741 531 2444 195 
Q 2147 -141 1600 -141 
z
M 1600 25 
Q 1956 25 2131 390 
Q 2306 756 2347 1200 
Q 2388 1644 2388 2144 
Q 2388 2625 2347 3031 
Q 2306 3438 2132 3767 
Q 1959 4097 1600 4097 
Q 1238 4097 1063 3765 
Q 888 3434 847 3029 
Q 806 2625 806 2144 
Q 806 1788 823 1472 
Q 841 1156 916 820 
Q 991 484 1158 254 
Q 1325 25 1600 25 
z
" transform="scale(0.015625)"/>
     </defs>
     <use xlink:href="#Cambria-12" transform="translate(0 0.084203)"/>
     <use xlink:href="#Cambria-92" transform="translate(65.332031 0.084203)"/>
     <use xlink:href="#Cambria-83" transform="translate(120.947266 0.084203)"/>
     <use xlink:href="#Cambria-85" transform="translate(169.775391 0.084203)"/>
     <use xlink:href="#Cambria-8b" transform="translate(213.867188 0.084203)"/>
     <use xlink:href="#Cambria-96" transform="translate(241.650391 0.084203)"/>
     <use xlink:href="#Cambria-9b" transform="translate(275.488281 0.084203)"/>
     <use xlink:href="#Cambria-3" transform="translate(325.878906 0.084203)"/>
     <use xlink:href="#Cambria-8b" transform="translate(347.900391 0.084203)"/>
     <use xlink:href="#Cambria-95" transform="translate(375.683594 0.084203)"/>
     <use xlink:href="#Cambria-3" transform="translate(418.652344 0.084203)"/>
     <use xlink:href="#Cambria-8e" transform="translate(440.673828 0.084203)"/>
     <use xlink:href="#Cambria-91" transform="translate(467.822266 0.084203)"/>
     <use xlink:href="#Cambria-83" transform="translate(520.898438 0.084203)"/>
     <use xlink:href="#Cambria-86" transform="translate(569.726562 0.084203)"/>
     <use xlink:href="#Cambria-1e6" transform="translate(625.195312 0.084203)"/>
     <use xlink:href="#Cambria-84" transform="translate(658.398438 0.084203)"/>
     <use xlink:href="#Cambria-87" transform="translate(713.134766 0.084203)"/>
     <use xlink:href="#Cambria-83" transform="translate(761.914062 0.084203)"/>
     <use xlink:href="#Cambria-94" transform="translate(810.742188 0.084203)"/>
     <use xlink:href="#Cambria-8b" transform="translate(852.099609 0.084203)"/>
     <use xlink:href="#Cambria-90" transform="translate(879.882812 0.084203)"/>
     <use xlink:href="#Cambria-89" transform="translate(935.693359 0.084203)"/>
     <use xlink:href="#Cambria-1e3" transform="translate(985.107422 0.084203)"/>
     <use xlink:href="#Cambria-3" transform="translate(1011.474609 0.084203)"/>
     <use xlink:href="#Cambria-89" transform="translate(1033.496094 0.084203)"/>
     <use xlink:href="#Cambria-94" transform="translate(1082.910156 0.084203)"/>
     <use xlink:href="#Cambria-91" transform="translate(1124.267578 0.084203)"/>
     <use xlink:href="#Cambria-97" transform="translate(1177.34375 0.084203)"/>
     <use xlink:href="#Cambria-92" transform="translate(1232.568359 0.084203)"/>
     <use xlink:href="#Cambria-3" transform="translate(1288.183594 0.084203)"/>
     <use xlink:href="#Cambria-91" transform="translate(1310.205078 0.084203)"/>
     <use xlink:href="#Cambria-94" transform="translate(1363.28125 0.084203)"/>
     <use xlink:href="#Cambria-86" transform="translate(1404.638672 0.084203)"/>
     <use xlink:href="#Cambria-87" transform="translate(1460.107422 0.084203)"/>
     <use xlink:href="#Cambria-94" transform="translate(1508.886719 0.084203)"/>
     <use xlink:href="#Cambria-3" transform="translate(1550.244141 0.084203)"/>
     <use xlink:href="#Cmmi10-84" transform="translate(1572.265625 0.084203)"/>
     <use xlink:href="#Cmr10-29" transform="translate(1637.38287 0.084203)"/>
     <use xlink:href="#Cmr10-31" transform="translate(1735.068474 0.084203)"/>
     <use xlink:href="#Cmr10-31" transform="translate(1789.072765 41.373437) scale(0.7)"/>
     <use xlink:href="#Cmr10-28" transform="translate(1824.072765 41.373437) scale(0.7)"/>
    </g>
   </g>
   <g id="legend_1">
    <g id="line2d_34">
     <path d="M 229.110906 97.675008 
L 237.910906 97.675008 
L 246.710906 97.675008 
" style="fill: none; stroke: #2a78d6; stroke-width: 2; stroke-linecap: square"/>
    </g>
    <g id="text_20">
     <!-- GGM: $\binom{m+2}{2}/r$ (opaque encoding) -->
     <g transform="translate(253.750906 100.755008) scale(0.088 -0.088)">
      <defs>
       <path id="Cambria-a" d="M 3369 16 
L 3125 -50 
L 2897 194 
Q 2694 69 2472 9 
Q 2250 -50 1963 -50 
Q 1172 -50 772 492 
Q 372 1034 372 2103 
Q 372 2769 590 3272 
Q 809 3775 1218 4045 
Q 1628 4316 2181 4316 
Q 2472 4316 2740 4283 
Q 3009 4250 3338 4169 
L 3338 3309 
L 3028 3309 
Q 2944 3591 2828 3748 
Q 2713 3906 2552 3973 
Q 2391 4041 2144 4041 
Q 1803 4041 1547 3822 
Q 1291 3603 1148 3176 
Q 1006 2750 1006 2147 
Q 1006 1534 1126 1100 
Q 1247 666 1484 445 
Q 1722 225 2069 225 
Q 2438 225 2616 386 
Q 2794 547 2794 881 
L 2794 1069 
Q 2794 1350 2764 1475 
Q 2734 1600 2659 1669 
Q 2584 1738 2413 1781 
L 2413 1934 
L 3675 1934 
L 3675 1781 
Q 3563 1744 3506 1695 
Q 3450 1647 3420 1575 
Q 3391 1503 3380 1398 
Q 3369 1294 3369 1100 
L 3369 16 
z
" transform="scale(0.015625)"/>
       <path id="Cambria-10" d="M 4841 4113 
Q 4703 4078 4642 4043 
Q 4581 4009 4545 3957 
Q 4509 3906 4492 3803 
Q 4475 3700 4475 3484 
L 4475 781 
Q 4475 572 4489 475 
Q 4503 378 4536 322 
Q 4569 266 4633 228 
Q 4697 191 4841 153 
L 4841 0 
L 3538 0 
L 3538 153 
Q 3716 197 3784 253 
Q 3853 309 3878 418 
Q 3903 528 3903 781 
L 3903 1978 
Q 3903 2450 3917 2933 
Q 3931 3416 3950 3594 
L 3897 3594 
L 2659 497 
L 2300 497 
L 1150 3644 
L 1097 3644 
Q 1113 3453 1127 2953 
Q 1141 2453 1141 1925 
L 1141 781 
Q 1141 572 1155 475 
Q 1169 378 1201 322 
Q 1234 266 1298 228 
Q 1363 191 1506 153 
L 1506 0 
L 366 0 
L 366 153 
Q 559 203 625 264 
Q 691 325 711 437 
Q 731 550 731 781 
L 731 3484 
Q 731 3700 715 3798 
Q 700 3897 664 3951 
Q 628 4006 568 4039 
Q 509 4072 366 4113 
L 366 4266 
L 1481 4266 
L 2578 1225 
L 3784 4266 
L 4841 4266 
L 4841 4113 
z
" transform="scale(0.015625)"/>
       <path id="Cmex10-44" d="M 2503 -7406 
Q 1713 -6744 1342 -5734 
Q 972 -4725 972 -3584 
Q 972 -2434 1342 -1423 
Q 1713 -413 2503 244 
Q 2503 256 2534 256 
L 2613 256 
Q 2631 256 2647 236 
Q 2663 216 2663 197 
Q 2663 172 2650 159 
Q 2303 -200 2067 -640 
Q 1831 -1081 1695 -1554 
Q 1559 -2028 1500 -2543 
Q 1441 -3059 1441 -3591 
Q 1441 -6072 2650 -7322 
Q 2663 -7334 2663 -7359 
Q 2663 -7378 2645 -7398 
Q 2628 -7419 2613 -7419 
L 2534 -7419 
Q 2503 -7419 2503 -7406 
z
" transform="scale(0.015625)"/>
       <path id="Cmr10-4c" d="M 481 1472 
Q 428 1472 393 1512 
Q 359 1553 359 1600 
Q 359 1647 393 1687 
Q 428 1728 481 1728 
L 2363 1728 
L 2363 3616 
Q 2363 3666 2400 3698 
Q 2438 3731 2491 3731 
Q 2538 3731 2578 3698 
Q 2619 3666 2619 3616 
L 2619 1728 
L 4500 1728 
Q 4547 1728 4581 1687 
Q 4616 1647 4616 1600 
Q 4616 1553 4581 1512 
Q 4547 1472 4500 1472 
L 2619 1472 
L 2619 -416 
Q 2619 -466 2578 -498 
Q 2538 -531 2491 -531 
Q 2438 -531 2400 -498 
Q 2363 -466 2363 -416 
L 2363 1472 
L 481 1472 
z
" transform="scale(0.015625)"/>
       <path id="Cmex10-69" d="M 319 -7419 
Q 263 -7419 263 -7359 
Q 263 -7334 275 -7322 
Q 734 -6844 1001 -6236 
Q 1269 -5628 1376 -4961 
Q 1484 -4294 1484 -3578 
Q 1484 -1091 275 159 
Q 263 172 263 197 
Q 263 256 319 256 
L 397 256 
Q 416 256 428 244 
Q 1216 -413 1584 -1423 
Q 1953 -2434 1953 -3584 
Q 1953 -4725 1586 -5734 
Q 1219 -6744 428 -7406 
Q 416 -7419 397 -7419 
L 319 -7419 
z
" transform="scale(0.015625)"/>
       <path id="Cmmi10-62" d="M 359 -1472 
Q 359 -1453 366 -1447 
L 2591 4722 
Q 2603 4759 2634 4779 
Q 2666 4800 2706 4800 
Q 2763 4800 2798 4765 
Q 2834 4731 2834 4672 
L 2834 4647 
L 609 -1522 
Q 572 -1600 488 -1600 
Q 434 -1600 396 -1562 
Q 359 -1525 359 -1472 
z
" transform="scale(0.015625)"/>
       <path id="Cambria-20b" d="M 2309 -1359 
Q 1778 -1359 1442 -1200 
Q 1106 -1041 918 -714 
Q 731 -388 647 134 
Q 563 656 563 1550 
Q 563 2438 645 2964 
Q 728 3491 915 3822 
Q 1103 4153 1440 4318 
Q 1778 4484 2309 4484 
L 2309 4228 
Q 2091 4228 1922 4191 
Q 1731 4147 1597 4022 
Q 1447 3884 1353 3638 
Q 1244 3350 1191 2875 
Q 1134 2372 1134 1575 
Q 1134 872 1181 379 
Q 1228 -113 1338 -425 
Q 1425 -688 1556 -834 
Q 1672 -963 1831 -1028 
Q 2016 -1103 2309 -1103 
L 2309 -1359 
z
" transform="scale(0.015625)"/>
       <path id="Cambria-20c" d="M 134 4484 
Q 666 4484 1002 4325 
Q 1338 4166 1525 3839 
Q 1713 3513 1797 2991 
Q 1881 2469 1881 1575 
Q 1881 688 1798 161 
Q 1716 -366 1528 -697 
Q 1341 -1028 1003 -1193 
Q 666 -1359 134 -1359 
L 134 -1103 
Q 353 -1103 522 -1066 
Q 713 -1022 847 -897 
Q 997 -759 1091 -513 
Q 1200 -225 1253 250 
Q 1309 753 1309 1550 
Q 1309 2253 1262 2745 
Q 1216 3238 1106 3550 
Q 1019 3813 888 3959 
Q 772 4088 613 4153 
Q 428 4228 134 4228 
L 134 4484 
z
" transform="scale(0.015625)"/>
      </defs>
      <use xlink:href="#Cambria-a" transform="translate(0 0.318527)"/>
      <use xlink:href="#Cambria-a" transform="translate(61.083984 0.318527)"/>
      <use xlink:href="#Cambria-10" transform="translate(122.167969 0.318527)"/>
      <use xlink:href="#Cambria-1e3" transform="translate(203.710938 0.318527)"/>
      <use xlink:href="#Cambria-3" transform="translate(230.078125 0.318527)"/>
      <use xlink:href="#Cmex10-44" transform="translate(252.099609 82.0625) scale(0.982397)"/>
      <use xlink:href="#Cmmi10-45" transform="translate(303.341721 39.371875) scale(0.7)"/>
      <use xlink:href="#Cmr10-4c" transform="translate(378.796839 39.371875) scale(0.7)"/>
      <use xlink:href="#Cmr10-31" transform="translate(447.176762 39.371875) scale(0.7)"/>
      <use xlink:href="#Cmr10-31" transform="translate(375.341721 -31.8125) scale(0.7)"/>
      <use xlink:href="#Cmex10-69" transform="translate(488.426762 82.0625) scale(0.982397)"/>
      <use xlink:href="#Cmmi10-62" transform="translate(533.418873 0.318527)"/>
      <use xlink:href="#Cmmi10-84" transform="translate(583.418873 0.318527)"/>
      <use xlink:href="#Cambria-3" transform="translate(628.53606 0.318527)"/>
      <use xlink:href="#Cambria-20b" transform="translate(650.557545 0.318527)"/>
      <use xlink:href="#Cambria-91" transform="translate(688.741138 0.318527)"/>
      <use xlink:href="#Cambria-92" transform="translate(741.81731 0.318527)"/>
      <use xlink:href="#Cambria-83" transform="translate(797.432545 0.318527)"/>
      <use xlink:href="#Cambria-93" transform="translate(846.26067 0.318527)"/>
      <use xlink:href="#Cambria-97" transform="translate(900.94817 0.318527)"/>
      <use xlink:href="#Cambria-87" transform="translate(956.172779 0.318527)"/>
      <use xlink:href="#Cambria-3" transform="translate(1004.952076 0.318527)"/>
      <use xlink:href="#Cambria-87" transform="translate(1026.97356 0.318527)"/>
      <use xlink:href="#Cambria-90" transform="translate(1075.752857 0.318527)"/>
      <use xlink:href="#Cambria-85" transform="translate(1131.563404 0.318527)"/>
      <use xlink:href="#Cambria-91" transform="translate(1175.655201 0.318527)"/>
      <use xlink:href="#Cambria-86" transform="translate(1228.731373 0.318527)"/>
      <use xlink:href="#Cambria-8b" transform="translate(1284.200123 0.318527)"/>
      <use xlink:href="#Cambria-90" transform="translate(1311.983326 0.318527)"/>
      <use xlink:href="#Cambria-89" transform="translate(1367.793873 0.318527)"/>
      <use xlink:href="#Cambria-20c" transform="translate(1417.207935 0.318527)"/>
     </g>
    </g>
    <g id="line2d_35">
     <path d="M 229.110906 111.82393 
L 237.910906 111.82393 
L 246.710906 111.82393 
" style="fill: none; stroke-dasharray: 5.18,2.24; stroke-dashoffset: 0; stroke: #e34948; stroke-width: 1.4"/>
    </g>
    <g id="text_21">
     <!-- $\mathsf{CCA}_0$: success $1$ at $0$ charged ops -->
     <g transform="translate(253.750906 114.90393) scale(0.088 -0.088)">
      <defs>
       <path id="Cmss10-5d" d="M 2484 -141 
Q 2028 -141 1643 59 
Q 1259 259 986 600 
Q 713 941 564 1359 
Q 416 1778 416 2222 
Q 416 2666 564 3086 
Q 713 3506 989 3848 
Q 1266 4191 1647 4386 
Q 2028 4581 2484 4581 
Q 2722 4581 2914 4559 
Q 3106 4538 3306 4486 
Q 3506 4434 3694 4359 
L 3597 3809 
L 3591 3809 
Q 3325 3991 3065 4069 
Q 2806 4147 2484 4147 
Q 2131 4147 1854 3972 
Q 1578 3797 1390 3509 
Q 1203 3222 1108 2886 
Q 1013 2550 1013 2222 
Q 1013 1897 1109 1556 
Q 1206 1216 1395 928 
Q 1584 641 1862 467 
Q 2141 294 2484 294 
Q 2897 294 3145 372 
Q 3394 450 3725 684 
L 3763 225 
L 3763 219 
Q 3522 69 3342 -6 
Q 3163 -81 2972 -111 
Q 2781 -141 2484 -141 
z
" transform="scale(0.015625)"/>
       <path id="Cmss10-56" d="M 178 0 
L 1838 4441 
L 2425 4441 
L 4084 0 
L 3469 0 
Q 3216 684 2994 1275 
L 1153 1275 
Q 869 497 678 0 
L 178 0 
z
M 1294 1656 
L 2853 1656 
Q 2566 2450 2420 2867 
Q 2275 3284 2178 3589 
Q 2081 3894 2081 3975 
L 2075 3975 
Q 2075 3913 2011 3700 
Q 1947 3488 1847 3197 
Q 1747 2906 1542 2339 
Q 1338 1772 1294 1656 
z
" transform="scale(0.015625)"/>
       <path id="Cmr10-64" d="M 594 0 
L 594 225 
Q 1394 225 1394 428 
L 1394 3788 
Q 1063 3628 556 3628 
L 556 3853 
Q 1341 3853 1741 4263 
L 1831 4263 
Q 1853 4263 1873 4245 
Q 1894 4228 1894 4206 
L 1894 428 
Q 1894 225 2694 225 
L 2694 0 
L 594 0 
z
" transform="scale(0.015625)"/>
      </defs>
      <use xlink:href="#Cmss10-5d" transform="translate(0 0.421875)"/>
      <use xlink:href="#Cmss10-5d" transform="translate(63.818359 0.421875)"/>
      <use xlink:href="#Cmss10-56" transform="translate(127.636719 0.421875)"/>
      <use xlink:href="#Cmr10-28" transform="translate(198.242572 -14.578087) scale(0.7)"/>
      <use xlink:href="#Cambria-1e3" transform="translate(238.962988 0.421875)"/>
      <use xlink:href="#Cambria-3" transform="translate(265.330175 0.421875)"/>
      <use xlink:href="#Cambria-95" transform="translate(287.351659 0.421875)"/>
      <use xlink:href="#Cambria-97" transform="translate(330.320409 0.421875)"/>
      <use xlink:href="#Cambria-85" transform="translate(385.545019 0.421875)"/>
      <use xlink:href="#Cambria-85" transform="translate(429.636816 0.421875)"/>
      <use xlink:href="#Cambria-87" transform="translate(473.728613 0.421875)"/>
      <use xlink:href="#Cambria-95" transform="translate(522.507909 0.421875)"/>
      <use xlink:href="#Cambria-95" transform="translate(565.476659 0.421875)"/>
      <use xlink:href="#Cambria-3" transform="translate(608.445409 0.421875)"/>
      <use xlink:href="#Cmr10-64" transform="translate(630.466894 0.421875)"/>
      <use xlink:href="#Cambria-3" transform="translate(680.466894 0.421875)"/>
      <use xlink:href="#Cambria-83" transform="translate(702.488378 0.421875)"/>
      <use xlink:href="#Cambria-96" transform="translate(751.316503 0.421875)"/>
      <use xlink:href="#Cambria-3" transform="translate(785.154394 0.421875)"/>
      <use xlink:href="#Cmr10-28" transform="translate(807.175878 0.421875)"/>
      <use xlink:href="#Cambria-3" transform="translate(857.175878 0.421875)"/>
      <use xlink:href="#Cambria-85" transform="translate(879.197363 0.421875)"/>
      <use xlink:href="#Cambria-8a" transform="translate(923.289159 0.421875)"/>
      <use xlink:href="#Cambria-83" transform="translate(978.464941 0.421875)"/>
      <use xlink:href="#Cambria-94" transform="translate(1027.293066 0.421875)"/>
      <use xlink:href="#Cambria-89" transform="translate(1068.650488 0.421875)"/>
      <use xlink:href="#Cambria-87" transform="translate(1118.06455 0.421875)"/>
      <use xlink:href="#Cambria-86" transform="translate(1166.843847 0.421875)"/>
      <use xlink:href="#Cambria-3" transform="translate(1222.312597 0.421875)"/>
      <use xlink:href="#Cambria-91" transform="translate(1244.334081 0.421875)"/>
      <use xlink:href="#Cambria-92" transform="translate(1297.410253 0.421875)"/>
      <use xlink:href="#Cambria-95" transform="translate(1353.025488 0.421875)"/>
     </g>
    </g>
   </g>
  </g>
 </g>
 <defs>
  <clipPath id="p8c8e20c2a0">
   <rect x="43.982891" y="26.64" width="345.816016" height="156.766016"/>
  </clipPath>
 </defs>
</svg>
