<?xml version="1.0" encoding="utf-8" standalone="no"?>
<!DOCTYPE svg PUBLIC "-//W3C//DTD SVG 1.1//EN"
  "http://www.w3.org/Graphics/SVG/1.1/DTD/svg11.dtd">
<svg xmlns:xlink="http://www.w3.org/1999/xlink" width="482.875pt" height="260.448499pt" viewBox="0 0 482.875 260.448499" xmlns="http://www.w3.org/2000/svg" version="1.1">
 <metadata>
  <rdf:RDF xmlns:dc="http://purl.org/dc/elements/1.1/" xmlns:cc="http://creativecommons.org/ns#" xmlns:rdf="http://www.w3.org/1999/02/22-rdf-syntax-ns#">
   <cc:Work>
    <dc:type rdf:resource="http://purl.org/dc/dcmitype/StillImage"/>
    <dc:date>2026-07-23T00:27:25.278239</dc:date>
    <dc:format>image/svg+xml</dc:format>
    <dc:creator>
     <cc:Agent>
      <dc:title>Matplotlib v3.11.1, https://matplotlib.org/</dc:title>
     </cc:Agent>
    </dc:creator>
   </cc:Work>
  </rdf:RDF>
 </metadata>
 <defs>
  <style type="text/css">*{stroke-linejoin: round; stroke-linecap: butt}</style>
 </defs>
 <g id="figure_1">
  <g id="patch_1">
   <path d="M 0 260.448499 
L 482.875 260.448499 
L 482.875 0 
L 0 0 
z
" style="fill: #fcfcfb"/>
  </g>
  <g id="axes_1">
   <g id="patch_2">
    <path d="M 91.875 225.843088 
L 475.675 225.843088 
L 475.675 29.457813 
L 91.875 29.457813 
z
" style="fill: #fcfcfb"/>
   </g>
   <g id="patch_3">
    <path d="M 91.875 29.457813 
L 131.107889 29.457813 
L 131.107889 52.042119 
L 91.875 52.042119 
z
" clip-path="url(#pddbe184a71)" style="fill: #2a78d6; stroke: #e1e0d9; stroke-width: 0.8; stroke-linejoin: miter"/>
   </g>
   <g id="patch_4">
    <path d="M 134.519444 29.457813 
L 173.752333 29.457813 
L 173.752333 52.042119 
L 134.519444 52.042119 
z
" clip-path="url(#pddbe184a71)" style="fill: #2a78d6; stroke: #e1e0d9; stroke-width: 0.8; stroke-linejoin: miter"/>
   </g>
   <g id="patch_5">
    <path d="M 177.163889 29.457813 
L 216.396778 29.457813 
L 216.396778 52.042119 
L 177.163889 52.042119 
z
" clip-path="url(#pddbe184a71)" style="fill: #fcfcfb; stroke: #e1e0d9; stroke-width: 0.8; stroke-linejoin: miter"/>
   </g>
   <g id="patch_6">
    <path d="M 219.808333 29.457813 
L 259.041222 29.457813 
L 259.041222 52.042119 
L 219.808333 52.042119 
z
" clip-path="url(#pddbe184a71)" style="fill: #fcfcfb; stroke: #e1e0d9; stroke-width: 0.8; stroke-linejoin: miter"/>
   </g>
   <g id="patch_7">
    <path d="M 262.452778 29.457813 
L 301.685667 29.457813 
L 301.685667 52.042119 
L 262.452778 52.042119 
z
" clip-path="url(#pddbe184a71)" style="fill: #fcfcfb; stroke: #e1e0d9; stroke-width: 0.8; stroke-linejoin: miter"/>
   </g>
   <g id="patch_8">
    <path d="M 305.097222 29.457813 
L 344.330111 29.457813 
L 344.330111 52.042119 
L 305.097222 52.042119 
z
" clip-path="url(#pddbe184a71)" style="fill: #fcfcfb; stroke: #e1e0d9; stroke-width: 0.8; stroke-linejoin: miter"/>
   </g>
   <g id="patch_9">
    <path d="M 347.741667 29.457813 
L 386.974556 29.457813 
L 386.974556 52.042119 
L 347.741667 52.042119 
z
" clip-path="url(#pddbe184a71)" style="fill: #fcfcfb; stroke: #e1e0d9; stroke-width: 0.8; stroke-linejoin: miter"/>
   </g>
   <g id="patch_10">
    <path d="M 390.386111 29.457813 
L 429.619 29.457813 
L 429.619 52.042119 
L 390.386111 52.042119 
z
" clip-path="url(#pddbe184a71)" style="fill: #fcfcfb; stroke: #e1e0d9; stroke-width: 0.8; stroke-linejoin: miter"/>
   </g>
   <g id="patch_11">
    <path d="M 433.030556 29.457813 
L 472.263444 29.457813 
L 472.263444 52.042119 
L 433.030556 52.042119 
z
" clip-path="url(#pddbe184a71)" style="fill: #fcfcfb; stroke: #e1e0d9; stroke-width: 0.8; stroke-linejoin: miter"/>
   </g>
   <g id="patch_12">
    <path d="M 91.875 54.005972 
L 131.107889 54.005972 
L 131.107889 76.590279 
L 91.875 76.590279 
z
" clip-path="url(#pddbe184a71)" style="fill: #2a78d6; stroke: #e1e0d9; stroke-width: 0.8; stroke-linejoin: miter"/>
   </g>
   <g id="patch_13">
    <path d="M 134.519444 54.005972 
L 173.752333 54.005972 
L 173.752333 76.590279 
L 134.519444 76.590279 
z
" clip-path="url(#pddbe184a71)" style="fill: #2a78d6; stroke: #e1e0d9; stroke-width: 0.8; stroke-linejoin: miter"/>
   </g>
   <g id="patch_14">
    <path d="M 177.163889 54.005972 
L 216.396778 54.005972 
L 216.396778 76.590279 
L 177.163889 76.590279 
z
" clip-path="url(#pddbe184a71)" style="fill: #eda100; stroke: #e1e0d9; stroke-width: 0.8; stroke-linejoin: miter"/>
   </g>
   <g id="patch_15">
    <path d="M 219.808333 54.005972 
L 259.041222 54.005972 
L 259.041222 76.590279 
L 219.808333 76.590279 
z
" clip-path="url(#pddbe184a71)" style="fill: #fcfcfb; stroke: #e1e0d9; stroke-width: 0.8; stroke-linejoin: miter"/>
   </g>
   <g id="patch_16">
    <path d="M 262.452778 54.005972 
L 301.685667 54.005972 
L 301.685667 76.590279 
L 262.452778 76.590279 
z
" clip-path="url(#pddbe184a71)" style="fill: #fcfcfb; stroke: #e1e0d9; stroke-width: 0.8; stroke-linejoin: miter"/>
   </g>
   <g id="patch_17">
    <path d="M 305.097222 54.005972 
L 344.330111 54.005972 
L 344.330111 76.590279 
L 305.097222 76.590279 
z
" clip-path="url(#pddbe184a71)" style="fill: #fcfcfb; stroke: #e1e0d9; stroke-width: 0.8; stroke-linejoin: miter"/>
   </g>
   <g id="patch_18">
    <path d="M 347.741667 54.005972 
L 386.974556 54.005972 
L 386.974556 76.590279 
L 347.741667 76.590279 
z
" clip-path="url(#pddbe184a71)" style="fill: #fcfcfb; stroke: #e1e0d9; stroke-width: 0.8; stroke-linejoin: miter"/>
   </g>
   <g id="patch_19">
    <path d="M 390.386111 54.005972 
L 429.619 54.005972 
L 429.619 76.590279 
L 390.386111 76.590279 
z
" clip-path="url(#pddbe184a71)" style="fill: #fcfcfb; stroke: #e1e0d9; stroke-width: 0.8; stroke-linejoin: miter"/>
   </g>
   <g id="patch_20">
    <path d="M 433.030556 54.005972 
L 472.263444 54.005972 
L 472.263444 76.590279 
L 433.030556 76.590279 
z
" clip-path="url(#pddbe184a71)" style="fill: #fcfcfb; stroke: #e1e0d9; stroke-width: 0.8; stroke-linejoin: miter"/>
   </g>
   <g id="patch_21">
    <path d="M 91.875 78.554131 
L 131.107889 78.554131 
L 131.107889 101.138438 
L 91.875 101.138438 
z
" clip-path="url(#pddbe184a71)" style="fill: #2a78d6; stroke: #e1e0d9; stroke-width: 0.8; stroke-linejoin: miter"/>
   </g>
   <g id="patch_22">
    <path d="M 134.519444 78.554131 
L 173.752333 78.554131 
L 173.752333 101.138438 
L 134.519444 101.138438 
z
" clip-path="url(#pddbe184a71)" style="fill: #2a78d6; stroke: #e1e0d9; stroke-width: 0.8; stroke-linejoin: miter"/>
   </g>
   <g id="patch_23">
    <path d="M 177.163889 78.554131 
L 216.396778 78.554131 
L 216.396778 101.138438 
L 177.163889 101.138438 
z
" clip-path="url(#pddbe184a71)" style="fill: #fcfcfb; stroke: #e1e0d9; stroke-width: 0.8; stroke-linejoin: miter"/>
   </g>
   <g id="patch_24">
    <path d="M 219.808333 78.554131 
L 259.041222 78.554131 
L 259.041222 101.138438 
L 219.808333 101.138438 
z
" clip-path="url(#pddbe184a71)" style="fill: #fcfcfb; stroke: #e1e0d9; stroke-width: 0.8; stroke-linejoin: miter"/>
   </g>
   <g id="patch_25">
    <path d="M 262.452778 78.554131 
L 301.685667 78.554131 
L 301.685667 101.138438 
L 262.452778 101.138438 
z
" clip-path="url(#pddbe184a71)" style="fill: #fcfcfb; stroke: #e1e0d9; stroke-width: 0.8; stroke-linejoin: miter"/>
   </g>
   <g id="patch_26">
    <path d="M 305.097222 78.554131 
L 344.330111 78.554131 
L 344.330111 101.138438 
L 305.097222 101.138438 
z
" clip-path="url(#pddbe184a71)" style="fill: #fcfcfb; stroke: #e1e0d9; stroke-width: 0.8; stroke-linejoin: miter"/>
   </g>
   <g id="patch_27">
    <path d="M 347.741667 78.554131 
L 386.974556 78.554131 
L 386.974556 101.138438 
L 347.741667 101.138438 
z
" clip-path="url(#pddbe184a71)" style="fill: #fcfcfb; stroke: #e1e0d9; stroke-width: 0.8; stroke-linejoin: miter"/>
   </g>
   <g id="patch_28">
    <path d="M 390.386111 78.554131 
L 429.619 78.554131 
L 429.619 101.138438 
L 390.386111 101.138438 
z
" clip-path="url(#pddbe184a71)" style="fill: #fcfcfb; stroke: #e1e0d9; stroke-width: 0.8; stroke-linejoin: miter"/>
   </g>
   <g id="patch_29">
    <path d="M 433.030556 78.554131 
L 472.263444 78.554131 
L 472.263444 101.138438 
L 433.030556 101.138438 
z
" clip-path="url(#pddbe184a71)" style="fill: #fcfcfb; stroke: #e1e0d9; stroke-width: 0.8; stroke-linejoin: miter"/>
   </g>
   <g id="patch_30">
    <path d="M 91.875 103.102291 
L 131.107889 103.102291 
L 131.107889 125.686597 
L 91.875 125.686597 
z
" clip-path="url(#pddbe184a71)" style="fill: #2a78d6; stroke: #e1e0d9; stroke-width: 0.8; stroke-linejoin: miter"/>
   </g>
   <g id="patch_31">
    <path d="M 134.519444 103.102291 
L 173.752333 103.102291 
L 173.752333 125.686597 
L 134.519444 125.686597 
z
" clip-path="url(#pddbe184a71)" style="fill: #fcfcfb; stroke: #e1e0d9; stroke-width: 0.8; stroke-linejoin: miter"/>
   </g>
   <g id="patch_32">
    <path d="M 177.163889 103.102291 
L 216.396778 103.102291 
L 216.396778 125.686597 
L 177.163889 125.686597 
z
" clip-path="url(#pddbe184a71)" style="fill: #2a78d6; stroke: #e1e0d9; stroke-width: 0.8; stroke-linejoin: miter"/>
   </g>
   <g id="patch_33">
    <path d="M 219.808333 103.102291 
L 259.041222 103.102291 
L 259.041222 125.686597 
L 219.808333 125.686597 
z
" clip-path="url(#pddbe184a71)" style="fill: #2a78d6; stroke: #e1e0d9; stroke-width: 0.8; stroke-linejoin: miter"/>
   </g>
   <g id="patch_34">
    <path d="M 262.452778 103.102291 
L 301.685667 103.102291 
L 301.685667 125.686597 
L 262.452778 125.686597 
z
" clip-path="url(#pddbe184a71)" style="fill: #fcfcfb; stroke: #e1e0d9; stroke-width: 0.8; stroke-linejoin: miter"/>
   </g>
   <g id="patch_35">
    <path d="M 305.097222 103.102291 
L 344.330111 103.102291 
L 344.330111 125.686597 
L 305.097222 125.686597 
z
" clip-path="url(#pddbe184a71)" style="fill: #fcfcfb; stroke: #e1e0d9; stroke-width: 0.8; stroke-linejoin: miter"/>
   </g>
   <g id="patch_36">
    <path d="M 347.741667 103.102291 
L 386.974556 103.102291 
L 386.974556 125.686597 
L 347.741667 125.686597 
z
" clip-path="url(#pddbe184a71)" style="fill: #fcfcfb; stroke: #e1e0d9; stroke-width: 0.8; stroke-linejoin: miter"/>
   </g>
   <g id="patch_37">
    <path d="M 390.386111 103.102291 
L 429.619 103.102291 
L 429.619 125.686597 
L 390.386111 125.686597 
z
" clip-path="url(#pddbe184a71)" style="fill: #fcfcfb; stroke: #e1e0d9; stroke-width: 0.8; stroke-linejoin: miter"/>
   </g>
   <g id="patch_38">
    <path d="M 433.030556 103.102291 
L 472.263444 103.102291 
L 472.263444 125.686597 
L 433.030556 125.686597 
z
" clip-path="url(#pddbe184a71)" style="fill: #fcfcfb; stroke: #e1e0d9; stroke-width: 0.8; stroke-linejoin: miter"/>
   </g>
   <g id="patch_39">
    <path d="M 91.875 127.65045 
L 131.107889 127.65045 
L 131.107889 150.234757 
L 91.875 150.234757 
z
" clip-path="url(#pddbe184a71)" style="fill: #2a78d6; stroke: #e1e0d9; stroke-width: 0.8; stroke-linejoin: miter"/>
   </g>
   <g id="patch_40">
    <path d="M 134.519444 127.65045 
L 173.752333 127.65045 
L 173.752333 150.234757 
L 134.519444 150.234757 
z
" clip-path="url(#pddbe184a71)" style="fill: #2a78d6; stroke: #e1e0d9; stroke-width: 0.8; stroke-linejoin: miter"/>
   </g>
   <g id="patch_41">
    <path d="M 177.163889 127.65045 
L 216.396778 127.65045 
L 216.396778 150.234757 
L 177.163889 150.234757 
z
" clip-path="url(#pddbe184a71)" style="fill: #2a78d6; stroke: #e1e0d9; stroke-width: 0.8; stroke-linejoin: miter"/>
   </g>
   <g id="patch_42">
    <path d="M 219.808333 127.65045 
L 259.041222 127.65045 
L 259.041222 150.234757 
L 219.808333 150.234757 
z
" clip-path="url(#pddbe184a71)" style="fill: #fcfcfb; stroke: #e1e0d9; stroke-width: 0.8; stroke-linejoin: miter"/>
   </g>
   <g id="patch_43">
    <path d="M 262.452778 127.65045 
L 301.685667 127.65045 
L 301.685667 150.234757 
L 262.452778 150.234757 
z
" clip-path="url(#pddbe184a71)" style="fill: #2a78d6; stroke: #e1e0d9; stroke-width: 0.8; stroke-linejoin: miter"/>
   </g>
   <g id="patch_44">
    <path d="M 305.097222 127.65045 
L 344.330111 127.65045 
L 344.330111 150.234757 
L 305.097222 150.234757 
z
" clip-path="url(#pddbe184a71)" style="fill: #fcfcfb; stroke: #e1e0d9; stroke-width: 0.8; stroke-linejoin: miter"/>
   </g>
   <g id="patch_45">
    <path d="M 347.741667 127.65045 
L 386.974556 127.65045 
L 386.974556 150.234757 
L 347.741667 150.234757 
z
" clip-path="url(#pddbe184a71)" style="fill: #2a78d6; stroke: #e1e0d9; stroke-width: 0.8; stroke-linejoin: miter"/>
   </g>
   <g id="patch_46">
    <path d="M 390.386111 127.65045 
L 429.619 127.65045 
L 429.619 150.234757 
L 390.386111 150.234757 
z
" clip-path="url(#pddbe184a71)" style="fill: #2a78d6; stroke: #e1e0d9; stroke-width: 0.8; stroke-linejoin: miter"/>
   </g>
   <g id="patch_47">
    <path d="M 433.030556 127.65045 
L 472.263444 127.65045 
L 472.263444 150.234757 
L 433.030556 150.234757 
z
" clip-path="url(#pddbe184a71)" style="fill: #fcfcfb; stroke: #e1e0d9; stroke-width: 0.8; stroke-linejoin: miter"/>
   </g>
   <g id="patch_48">
    <path d="M 91.875 152.198609 
L 131.107889 152.198609 
L 131.107889 174.782916 
L 91.875 174.782916 
z
" clip-path="url(#pddbe184a71)" style="fill: #2a78d6; stroke: #e1e0d9; stroke-width: 0.8; stroke-linejoin: miter"/>
   </g>
   <g id="patch_49">
    <path d="M 134.519444 152.198609 
L 173.752333 152.198609 
L 173.752333 174.782916 
L 134.519444 174.782916 
z
" clip-path="url(#pddbe184a71)" style="fill: #2a78d6; stroke: #e1e0d9; stroke-width: 0.8; stroke-linejoin: miter"/>
   </g>
   <g id="patch_50">
    <path d="M 177.163889 152.198609 
L 216.396778 152.198609 
L 216.396778 174.782916 
L 177.163889 174.782916 
z
" clip-path="url(#pddbe184a71)" style="fill: #2a78d6; stroke: #e1e0d9; stroke-width: 0.8; stroke-linejoin: miter"/>
   </g>
   <g id="patch_51">
    <path d="M 219.808333 152.198609 
L 259.041222 152.198609 
L 259.041222 174.782916 
L 219.808333 174.782916 
z
" clip-path="url(#pddbe184a71)" style="fill: #fcfcfb; stroke: #e1e0d9; stroke-width: 0.8; stroke-linejoin: miter"/>
   </g>
   <g id="patch_52">
    <path d="M 262.452778 152.198609 
L 301.685667 152.198609 
L 301.685667 174.782916 
L 262.452778 174.782916 
z
" clip-path="url(#pddbe184a71)" style="fill: #fcfcfb; stroke: #e1e0d9; stroke-width: 0.8; stroke-linejoin: miter"/>
   </g>
   <g id="patch_53">
    <path d="M 305.097222 152.198609 
L 344.330111 152.198609 
L 344.330111 174.782916 
L 305.097222 174.782916 
z
" clip-path="url(#pddbe184a71)" style="fill: #fcfcfb; stroke: #e1e0d9; stroke-width: 0.8; stroke-linejoin: miter"/>
   </g>
   <g id="patch_54">
    <path d="M 347.741667 152.198609 
L 386.974556 152.198609 
L 386.974556 174.782916 
L 347.741667 174.782916 
z
" clip-path="url(#pddbe184a71)" style="fill: #2a78d6; stroke: #e1e0d9; stroke-width: 0.8; stroke-linejoin: miter"/>
   </g>
   <g id="patch_55">
    <path d="M 390.386111 152.198609 
L 429.619 152.198609 
L 429.619 174.782916 
L 390.386111 174.782916 
z
" clip-path="url(#pddbe184a71)" style="fill: #2a78d6; stroke: #e1e0d9; stroke-width: 0.8; stroke-linejoin: miter"/>
   </g>
   <g id="patch_56">
    <path d="M 433.030556 152.198609 
L 472.263444 152.198609 
L 472.263444 174.782916 
L 433.030556 174.782916 
z
" clip-path="url(#pddbe184a71)" style="fill: #2a78d6; stroke: #e1e0d9; stroke-width: 0.8; stroke-linejoin: miter"/>
   </g>
   <g id="patch_57">
    <path d="M 91.875 176.746769 
L 131.107889 176.746769 
L 131.107889 199.331075 
L 91.875 199.331075 
z
" clip-path="url(#pddbe184a71)" style="fill: #2a78d6; stroke: #e1e0d9; stroke-width: 0.8; stroke-linejoin: miter"/>
   </g>
   <g id="patch_58">
    <path d="M 134.519444 176.746769 
L 173.752333 176.746769 
L 173.752333 199.331075 
L 134.519444 199.331075 
z
" clip-path="url(#pddbe184a71)" style="fill: #2a78d6; stroke: #e1e0d9; stroke-width: 0.8; stroke-linejoin: miter"/>
   </g>
   <g id="patch_59">
    <path d="M 177.163889 176.746769 
L 216.396778 176.746769 
L 216.396778 199.331075 
L 177.163889 199.331075 
z
" clip-path="url(#pddbe184a71)" style="fill: #2a78d6; stroke: #e1e0d9; stroke-width: 0.8; stroke-linejoin: miter"/>
   </g>
   <g id="patch_60">
    <path d="M 219.808333 176.746769 
L 259.041222 176.746769 
L 259.041222 199.331075 
L 219.808333 199.331075 
z
" clip-path="url(#pddbe184a71)" style="fill: #fcfcfb; stroke: #e1e0d9; stroke-width: 0.8; stroke-linejoin: miter"/>
   </g>
   <g id="patch_61">
    <path d="M 262.452778 176.746769 
L 301.685667 176.746769 
L 301.685667 199.331075 
L 262.452778 199.331075 
z
" clip-path="url(#pddbe184a71)" style="fill: #fcfcfb; stroke: #e1e0d9; stroke-width: 0.8; stroke-linejoin: miter"/>
   </g>
   <g id="patch_62">
    <path d="M 305.097222 176.746769 
L 344.330111 176.746769 
L 344.330111 199.331075 
L 305.097222 199.331075 
z
" clip-path="url(#pddbe184a71)" style="fill: #2a78d6; stroke: #e1e0d9; stroke-width: 0.8; stroke-linejoin: miter"/>
   </g>
   <g id="patch_63">
    <path d="M 347.741667 176.746769 
L 386.974556 176.746769 
L 386.974556 199.331075 
L 347.741667 199.331075 
z
" clip-path="url(#pddbe184a71)" style="fill: #fcfcfb; stroke: #e1e0d9; stroke-width: 0.8; stroke-linejoin: miter"/>
   </g>
   <g id="patch_64">
    <path d="M 390.386111 176.746769 
L 429.619 176.746769 
L 429.619 199.331075 
L 390.386111 199.331075 
z
" clip-path="url(#pddbe184a71)" style="fill: #fcfcfb; stroke: #e1e0d9; stroke-width: 0.8; stroke-linejoin: miter"/>
   </g>
   <g id="patch_65">
    <path d="M 433.030556 176.746769 
L 472.263444 176.746769 
L 472.263444 199.331075 
L 433.030556 199.331075 
z
" clip-path="url(#pddbe184a71)" style="fill: #2a78d6; stroke: #e1e0d9; stroke-width: 0.8; stroke-linejoin: miter"/>
   </g>
   <g id="patch_66">
    <path d="M 91.875 201.294928 
L 131.107889 201.294928 
L 131.107889 223.879235 
L 91.875 223.879235 
z
" clip-path="url(#pddbe184a71)" style="fill: #2a78d6; stroke: #e1e0d9; stroke-width: 0.8; stroke-linejoin: miter"/>
   </g>
   <g id="patch_67">
    <path d="M 134.519444 201.294928 
L 173.752333 201.294928 
L 173.752333 223.879235 
L 134.519444 223.879235 
z
" clip-path="url(#pddbe184a71)" style="fill: #2a78d6; stroke: #e1e0d9; stroke-width: 0.8; stroke-linejoin: miter"/>
   </g>
   <g id="patch_68">
    <path d="M 177.163889 201.294928 
L 216.396778 201.294928 
L 216.396778 223.879235 
L 177.163889 223.879235 
z
" clip-path="url(#pddbe184a71)" style="fill: #2a78d6; stroke: #e1e0d9; stroke-width: 0.8; stroke-linejoin: miter"/>
   </g>
   <g id="patch_69">
    <path d="M 219.808333 201.294928 
L 259.041222 201.294928 
L 259.041222 223.879235 
L 219.808333 223.879235 
z
" clip-path="url(#pddbe184a71)" style="fill: #fcfcfb; stroke: #e1e0d9; stroke-width: 0.8; stroke-linejoin: miter"/>
   </g>
   <g id="patch_70">
    <path d="M 262.452778 201.294928 
L 301.685667 201.294928 
L 301.685667 223.879235 
L 262.452778 223.879235 
z
" clip-path="url(#pddbe184a71)" style="fill: #fcfcfb; stroke: #e1e0d9; stroke-width: 0.8; stroke-linejoin: miter"/>
   </g>
   <g id="patch_71">
    <path d="M 305.097222 201.294928 
L 344.330111 201.294928 
L 344.330111 223.879235 
L 305.097222 223.879235 
z
" clip-path="url(#pddbe184a71)" style="fill: #2a78d6; stroke: #e1e0d9; stroke-width: 0.8; stroke-linejoin: miter"/>
   </g>
   <g id="patch_72">
    <path d="M 347.741667 201.294928 
L 386.974556 201.294928 
L 386.974556 223.879235 
L 347.741667 223.879235 
z
" clip-path="url(#pddbe184a71)" style="fill: #2a78d6; stroke: #e1e0d9; stroke-width: 0.8; stroke-linejoin: miter"/>
   </g>
   <g id="patch_73">
    <path d="M 390.386111 201.294928 
L 429.619 201.294928 
L 429.619 223.879235 
L 390.386111 223.879235 
z
" clip-path="url(#pddbe184a71)" style="fill: #fcfcfb; stroke: #e1e0d9; stroke-width: 0.8; stroke-linejoin: miter"/>
   </g>
   <g id="patch_74">
    <path d="M 433.030556 201.294928 
L 472.263444 201.294928 
L 472.263444 223.879235 
L 433.030556 223.879235 
z
" clip-path="url(#pddbe184a71)" style="fill: #2a78d6; stroke: #e1e0d9; stroke-width: 0.8; stroke-linejoin: miter"/>
   </g>
   <g id="matplotlib.axis_1">
    <g id="xtick_1">
     <g id="line2d_1"/>
     <g id="text_1">
      <!-- Group -->
      <g style="fill: #52514e" transform="translate(100.896444 14.112109) scale(0.08 -0.08)">
       <defs>
        <path id="Cambria-a" d="M 3369 16 
L 3125 -50 
L 2897 194 
Q 2694 69 2472 9 
Q 2250 -50 1963 -50 
Q 1172 -50 772 492 
Q 372 1034 372 2103 
Q 372 2769 590 3272 
Q 809 3775 1218 4045 
Q 1628 4316 2181 4316 
Q 2472 4316 2740 4283 
Q 3009 4250 3338 4169 
L 3338 3309 
L 3028 3309 
Q 2944 3591 2828 3748 
Q 2713 3906 2552 3973 
Q 2391 4041 2144 4041 
Q 1803 4041 1547 3822 
Q 1291 3603 1148 3176 
Q 1006 2750 1006 2147 
Q 1006 1534 1126 1100 
Q 1247 666 1484 445 
Q 1722 225 2069 225 
Q 2438 225 2616 386 
Q 2794 547 2794 881 
L 2794 1069 
Q 2794 1350 2764 1475 
Q 2734 1600 2659 1669 
Q 2584 1738 2413 1781 
L 2413 1934 
L 3675 1934 
L 3675 1781 
Q 3563 1744 3506 1695 
Q 3450 1647 3420 1575 
Q 3391 1503 3380 1398 
Q 3369 1294 3369 1100 
L 3369 16 
z
" transform="scale(0.015625)"/>
        <path id="Cambria-94" d="M 1147 2469 
L 1191 2459 
Q 1363 2669 1509 2789 
Q 1656 2909 1826 2975 
Q 1997 3041 2213 3041 
Q 2394 3041 2541 3022 
L 2541 2303 
L 2188 2303 
Q 2113 2472 2028 2548 
Q 1944 2625 1797 2625 
Q 1684 2625 1573 2559 
Q 1463 2494 1359 2369 
Q 1256 2244 1217 2134 
Q 1178 2025 1178 1875 
L 1178 781 
Q 1178 497 1212 389 
Q 1247 281 1326 231 
Q 1406 181 1566 153 
L 1566 0 
L 306 0 
L 306 153 
Q 425 191 476 219 
Q 528 247 565 297 
Q 603 347 622 450 
Q 641 553 641 772 
L 641 2134 
Q 641 2334 634 2456 
Q 628 2578 590 2651 
Q 553 2725 476 2761 
Q 400 2797 259 2822 
L 259 2984 
L 991 3016 
L 1181 3016 
L 1147 2469 
z
" transform="scale(0.015625)"/>
        <path id="Cambria-91" d="M 1663 -50 
Q 1013 -50 670 333 
Q 328 716 328 1466 
Q 328 1981 508 2337 
Q 688 2694 1000 2867 
Q 1313 3041 1713 3041 
Q 2381 3041 2725 2652 
Q 3069 2263 3069 1534 
Q 3069 1016 2897 659 
Q 2725 303 2409 126 
Q 2094 -50 1663 -50 
z
M 919 1531 
Q 919 888 1123 542 
Q 1328 197 1709 197 
Q 1919 197 2066 298 
Q 2213 400 2305 572 
Q 2397 744 2437 970 
Q 2478 1197 2478 1444 
Q 2478 1903 2376 2206 
Q 2275 2509 2100 2651 
Q 1925 2794 1700 2794 
Q 1322 2794 1120 2466 
Q 919 2138 919 1531 
z
" transform="scale(0.015625)"/>
        <path id="Cambria-97" d="M 228 2988 
L 1119 2988 
L 1119 1397 
Q 1119 1031 1147 840 
Q 1175 650 1231 553 
Q 1288 456 1391 390 
Q 1494 325 1675 325 
Q 1794 325 1903 372 
Q 2013 419 2147 536 
Q 2281 653 2339 768 
Q 2397 884 2397 1038 
L 2397 2209 
Q 2397 2388 2387 2478 
Q 2378 2569 2356 2623 
Q 2334 2678 2304 2712 
Q 2275 2747 2220 2775 
Q 2166 2803 2044 2834 
L 2044 2988 
L 2934 2988 
L 2934 853 
Q 2934 613 2943 506 
Q 2953 400 2984 337 
Q 3016 275 3081 236 
Q 3147 197 3316 163 
L 3316 0 
L 2600 -31 
L 2409 -31 
L 2428 481 
L 2381 494 
Q 2122 213 1886 81 
Q 1650 -50 1413 -50 
Q 1128 -50 943 62 
Q 759 175 668 398 
Q 578 622 578 1028 
L 578 2209 
Q 578 2472 558 2570 
Q 538 2669 480 2726 
Q 422 2784 228 2834 
L 228 2988 
z
" transform="scale(0.015625)"/>
        <path id="Cambria-92" d="M 1150 94 
L 1150 -566 
Q 1150 -769 1164 -869 
Q 1178 -969 1214 -1026 
Q 1250 -1084 1317 -1121 
Q 1384 -1159 1534 -1191 
L 1534 -1344 
L 259 -1344 
L 259 -1191 
Q 372 -1159 442 -1126 
Q 513 -1094 550 -1030 
Q 588 -966 600 -856 
Q 613 -747 613 -566 
L 613 2116 
Q 613 2341 606 2436 
Q 600 2531 581 2593 
Q 563 2656 527 2697 
Q 491 2738 430 2766 
Q 369 2794 228 2822 
L 228 2988 
L 963 3016 
L 1153 3016 
L 1113 2506 
L 1159 2494 
Q 1353 2691 1465 2780 
Q 1578 2869 1698 2928 
Q 1819 2988 1930 3013 
Q 2041 3038 2166 3038 
Q 2681 3038 2957 2652 
Q 3234 2266 3234 1522 
Q 3234 1006 3078 654 
Q 2922 303 2623 126 
Q 2325 -50 1913 -50 
Q 1681 -50 1493 -11 
Q 1306 28 1150 94 
z
M 1150 1125 
Q 1150 825 1187 662 
Q 1225 500 1320 398 
Q 1416 297 1545 247 
Q 1675 197 1888 197 
Q 2266 197 2456 511 
Q 2647 825 2647 1438 
Q 2647 2663 1931 2663 
Q 1756 2663 1629 2608 
Q 1503 2553 1378 2431 
Q 1253 2309 1201 2195 
Q 1150 2081 1150 1950 
L 1150 1125 
z
" transform="scale(0.015625)"/>
       </defs>
       <use xlink:href="#Cambria-a"/>
       <use xlink:href="#Cambria-94" transform="translate(61.078125 0)"/>
       <use xlink:href="#Cambria-91" transform="translate(100.96875 0)"/>
       <use xlink:href="#Cambria-97" transform="translate(154.046875 0)"/>
       <use xlink:href="#Cambria-92" transform="translate(209.265625 0)"/>
      </g>
      <!-- law -->
      <g style="fill: #52514e" transform="translate(105.407069 23.491016) scale(0.08 -0.08)">
       <defs>
        <path id="Cambria-8e" d="M 1138 781 
Q 1138 513 1163 408 
Q 1188 303 1258 248 
Q 1328 194 1488 153 
L 1488 0 
L 247 0 
L 247 153 
Q 403 194 464 237 
Q 525 281 551 342 
Q 578 403 589 508 
Q 600 613 600 781 
L 600 3397 
Q 600 3697 595 3815 
Q 591 3934 570 4017 
Q 550 4100 514 4147 
Q 478 4194 417 4222 
Q 356 4250 197 4278 
L 197 4441 
L 950 4472 
L 1138 4472 
L 1138 781 
z
" transform="scale(0.015625)"/>
        <path id="Cambria-83" d="M 2109 447 
L 2063 459 
Q 1791 181 1552 65 
Q 1313 -50 1044 -50 
Q 806 -50 625 42 
Q 444 134 347 301 
Q 250 469 250 688 
Q 250 1144 701 1392 
Q 1153 1641 2056 1681 
L 2056 1884 
Q 2056 2209 1993 2396 
Q 1931 2584 1797 2671 
Q 1663 2759 1438 2759 
Q 1194 2759 1045 2631 
Q 897 2503 822 2247 
L 413 2247 
L 413 2653 
Q 713 2809 913 2882 
Q 1113 2956 1313 2998 
Q 1513 3041 1719 3041 
Q 2028 3041 2215 2942 
Q 2403 2844 2497 2641 
Q 2591 2438 2591 2028 
L 2591 941 
Q 2591 709 2594 614 
Q 2597 519 2612 437 
Q 2628 356 2659 307 
Q 2691 259 2752 225 
Q 2813 191 2950 153 
L 2950 0 
L 2094 0 
L 2109 447 
z
M 2056 1425 
Q 1422 1419 1106 1256 
Q 791 1094 791 766 
Q 791 588 862 484 
Q 934 381 1043 342 
Q 1153 303 1303 303 
Q 1516 303 1689 406 
Q 1863 509 1959 668 
Q 2056 828 2056 984 
L 2056 1425 
z
" transform="scale(0.015625)"/>
        <path id="Cambria-99" d="M 2494 2334 
L 1675 -16 
L 1241 -16 
L 491 2303 
Q 419 2528 370 2620 
Q 322 2713 267 2758 
Q 213 2803 91 2834 
L 91 2988 
L 1325 2988 
L 1325 2834 
Q 1144 2797 1080 2736 
Q 1016 2675 1016 2553 
Q 1016 2469 1034 2376 
Q 1053 2284 1091 2163 
L 1581 569 
L 2384 2988 
L 2825 2988 
L 3506 569 
L 4056 2097 
Q 4100 2216 4128 2323 
Q 4156 2431 4156 2525 
Q 4156 2656 4086 2728 
Q 4016 2800 3847 2834 
L 3847 2988 
L 4938 2988 
L 4938 2834 
Q 4850 2813 4806 2789 
Q 4763 2766 4720 2720 
Q 4678 2675 4626 2579 
Q 4575 2484 4497 2284 
L 3594 -16 
L 3172 -16 
L 2494 2334 
z
" transform="scale(0.015625)"/>
       </defs>
       <use xlink:href="#Cambria-8e"/>
       <use xlink:href="#Cambria-83" transform="translate(27.15625 0)"/>
       <use xlink:href="#Cambria-99" transform="translate(74.671875 0)"/>
      </g>
     </g>
    </g>
    <g id="xtick_2">
     <g id="line2d_2"/>
     <g id="text_2">
      <!-- Equality -->
      <g style="fill: #52514e" transform="translate(139.938389 24.180469) scale(0.08 -0.08)">
       <defs>
        <path id="Cambria-8" d="M 3300 4266 
L 3300 3322 
L 2994 3322 
Q 2947 3475 2897 3590 
Q 2847 3706 2794 3784 
Q 2741 3863 2677 3909 
Q 2613 3956 2525 3973 
Q 2438 3991 2316 3991 
L 1328 3991 
L 1328 2353 
L 1997 2353 
Q 2134 2353 2212 2392 
Q 2291 2431 2342 2525 
Q 2394 2619 2441 2819 
L 2734 2819 
L 2734 1619 
L 2441 1619 
Q 2397 1806 2344 1901 
Q 2291 1997 2217 2037 
Q 2144 2078 1997 2078 
L 1328 2078 
L 1328 275 
L 2300 275 
Q 2453 275 2548 301 
Q 2644 328 2712 392 
Q 2781 456 2834 559 
Q 2888 663 2923 773 
Q 2959 884 3022 1097 
L 3331 1097 
L 3272 0 
L 378 0 
L 378 153 
Q 572 203 637 264 
Q 703 325 723 437 
Q 744 550 744 781 
L 744 3484 
Q 744 3700 728 3798 
Q 713 3897 677 3951 
Q 641 4006 581 4039 
Q 522 4072 378 4113 
L 378 4266 
L 3300 4266 
z
" transform="scale(0.015625)"/>
        <path id="Cambria-93" d="M 3300 -1344 
L 2025 -1344 
L 2025 -1191 
Q 2175 -1159 2242 -1121 
Q 2309 -1084 2345 -1026 
Q 2381 -969 2395 -870 
Q 2409 -772 2409 -566 
L 2409 513 
Q 2241 322 2095 208 
Q 1950 94 1772 22 
Q 1594 -50 1394 -50 
Q 878 -50 601 334 
Q 325 719 325 1453 
Q 325 1972 504 2330 
Q 684 2688 1006 2864 
Q 1328 3041 1750 3041 
Q 1972 3041 2150 2995 
Q 2328 2950 2516 2850 
L 2734 3041 
L 2947 2991 
L 2947 -566 
Q 2947 -750 2961 -858 
Q 2975 -966 3011 -1028 
Q 3047 -1091 3117 -1125 
Q 3188 -1159 3300 -1191 
L 3300 -1344 
z
M 2409 1863 
Q 2409 2153 2371 2312 
Q 2334 2472 2243 2583 
Q 2153 2694 2031 2742 
Q 1909 2791 1744 2791 
Q 1341 2791 1127 2466 
Q 913 2141 913 1550 
Q 913 950 1086 637 
Q 1259 325 1606 325 
Q 1738 325 1830 348 
Q 1922 372 2011 425 
Q 2100 478 2192 568 
Q 2284 659 2325 732 
Q 2366 806 2387 903 
Q 2409 1000 2409 1153 
L 2409 1863 
z
" transform="scale(0.015625)"/>
        <path id="Cambria-8b" d="M 1197 4213 
L 1197 3606 
L 622 3606 
L 622 4213 
L 1197 4213 
z
M 303 153 
Q 425 191 476 219 
Q 528 247 564 297 
Q 600 347 620 450 
Q 641 553 641 772 
L 641 2134 
Q 641 2334 634 2456 
Q 628 2578 590 2651 
Q 553 2725 476 2761 
Q 400 2797 259 2822 
L 259 2988 
L 988 3016 
L 1178 3016 
L 1178 781 
Q 1178 513 1203 408 
Q 1228 303 1298 248 
Q 1369 194 1528 153 
L 1528 0 
L 303 0 
L 303 153 
z
" transform="scale(0.015625)"/>
        <path id="Cambria-96" d="M 116 2831 
Q 272 2856 369 2918 
Q 466 2981 520 3079 
Q 575 3178 606 3326 
Q 638 3475 672 3759 
L 1116 3759 
L 1116 2988 
L 2125 2988 
L 2125 2672 
L 1116 2672 
L 1116 1281 
Q 1116 978 1141 798 
Q 1166 619 1234 517 
Q 1303 416 1390 372 
Q 1478 328 1616 328 
Q 1741 328 1850 379 
Q 1959 431 2066 528 
L 2206 359 
Q 1984 144 1786 47 
Q 1588 -50 1375 -50 
Q 972 -50 775 189 
Q 578 428 578 938 
L 578 2672 
L 116 2672 
L 116 2831 
z
" transform="scale(0.015625)"/>
        <path id="Cambria-9b" d="M 1625 -256 
Q 1453 -644 1290 -884 
Q 1128 -1125 933 -1247 
Q 738 -1369 469 -1369 
Q 297 -1369 81 -1328 
L 81 -709 
L 359 -709 
Q 397 -838 453 -888 
Q 509 -938 616 -938 
Q 709 -938 782 -902 
Q 856 -866 936 -778 
Q 1016 -691 1123 -509 
Q 1231 -328 1366 -50 
L 491 2303 
Q 406 2531 354 2622 
Q 303 2713 243 2759 
Q 184 2806 63 2834 
L 63 2988 
L 1334 2988 
L 1334 2834 
Q 1188 2800 1128 2767 
Q 1069 2734 1041 2682 
Q 1013 2631 1013 2550 
Q 1013 2466 1033 2375 
Q 1053 2284 1097 2163 
L 1653 597 
L 2278 2097 
Q 2331 2222 2361 2326 
Q 2391 2431 2391 2522 
Q 2391 2656 2317 2725 
Q 2244 2794 2063 2834 
L 2063 2988 
L 3231 2988 
L 3231 2834 
Q 3109 2809 3043 2757 
Q 2978 2706 2912 2595 
Q 2847 2484 2756 2284 
L 1625 -256 
z
" transform="scale(0.015625)"/>
       </defs>
       <use xlink:href="#Cambria-8"/>
       <use xlink:href="#Cambria-93" transform="translate(57.03125 0)"/>
       <use xlink:href="#Cambria-97" transform="translate(111.71875 0)"/>
       <use xlink:href="#Cambria-83" transform="translate(166.9375 0)"/>
       <use xlink:href="#Cambria-8e" transform="translate(215.765625 0)"/>
       <use xlink:href="#Cambria-8b" transform="translate(242.921875 0)"/>
       <use xlink:href="#Cambria-96" transform="translate(270.703125 0)"/>
       <use xlink:href="#Cambria-9b" transform="translate(304.546875 0)"/>
      </g>
     </g>
    </g>
    <g id="xtick_3">
     <g id="line2d_3"/>
     <g id="text_3">
      <!-- Coord. -->
      <g style="fill: #52514e" transform="translate(185.649083 14.112109) scale(0.08 -0.08)">
       <defs>
        <path id="Cambria-6" d="M 3256 4175 
L 3256 3309 
L 2947 3309 
Q 2872 3581 2756 3742 
Q 2641 3903 2487 3972 
Q 2334 4041 2119 4041 
Q 1797 4041 1545 3827 
Q 1294 3613 1150 3183 
Q 1006 2753 1006 2144 
Q 1006 1531 1125 1098 
Q 1244 666 1475 445 
Q 1706 225 2044 225 
Q 2300 225 2462 298 
Q 2625 372 2736 531 
Q 2847 691 2947 1000 
L 3256 1000 
L 3256 106 
Q 2963 28 2655 -11 
Q 2347 -50 1978 -50 
Q 1184 -50 778 487 
Q 372 1025 372 2091 
Q 372 2759 583 3262 
Q 794 3766 1203 4041 
Q 1613 4316 2181 4316 
Q 2466 4316 2706 4286 
Q 2947 4256 3256 4175 
z
" transform="scale(0.015625)"/>
        <path id="Cambria-86" d="M 2413 3397 
Q 2413 3697 2408 3815 
Q 2403 3934 2383 4017 
Q 2363 4100 2327 4147 
Q 2291 4194 2230 4222 
Q 2169 4250 2009 4278 
L 2009 4441 
L 2766 4472 
L 2950 4472 
L 2950 853 
Q 2950 609 2959 504 
Q 2969 400 3000 337 
Q 3031 275 3098 236 
Q 3166 197 3334 163 
L 3334 0 
L 2597 -31 
L 2409 -31 
L 2447 481 
L 2400 494 
Q 2203 284 2058 179 
Q 1913 75 1748 12 
Q 1584 -50 1397 -50 
Q 884 -50 606 339 
Q 328 728 328 1463 
Q 328 1975 509 2333 
Q 691 2691 998 2866 
Q 1306 3041 1691 3041 
Q 1897 3041 2065 3008 
Q 2234 2975 2413 2900 
L 2413 3397 
z
M 2413 1853 
Q 2413 2097 2391 2244 
Q 2369 2391 2317 2491 
Q 2266 2591 2178 2659 
Q 2091 2728 1986 2759 
Q 1881 2791 1734 2791 
Q 1334 2791 1125 2470 
Q 916 2150 916 1550 
Q 916 950 1087 637 
Q 1259 325 1609 325 
Q 1747 325 1837 348 
Q 1928 372 2015 423 
Q 2103 475 2193 565 
Q 2284 656 2326 731 
Q 2369 806 2391 903 
Q 2413 1000 2413 1153 
L 2413 1853 
z
" transform="scale(0.015625)"/>
        <path id="Cambria-1e4" d="M 972 725 
L 972 0 
L 341 0 
L 341 725 
L 972 725 
z
" transform="scale(0.015625)"/>
       </defs>
       <use xlink:href="#Cambria-6"/>
       <use xlink:href="#Cambria-91" transform="translate(56.25 0)"/>
       <use xlink:href="#Cambria-91" transform="translate(109.328125 0)"/>
       <use xlink:href="#Cambria-94" transform="translate(162.40625 0)"/>
       <use xlink:href="#Cambria-86" transform="translate(202.296875 0)"/>
       <use xlink:href="#Cambria-1e4" transform="translate(257.765625 0)"/>
      </g>
      <!-- arith. -->
      <g style="fill: #52514e" transform="translate(187.680333 23.491016) scale(0.08 -0.08)">
       <defs>
        <path id="Cambria-8a" d="M 1141 2497 
L 1153 2494 
Q 1397 2741 1539 2839 
Q 1681 2938 1820 2988 
Q 1959 3038 2119 3038 
Q 2291 3038 2425 2997 
Q 2559 2956 2661 2873 
Q 2763 2791 2827 2670 
Q 2891 2550 2922 2383 
Q 2953 2216 2953 1959 
L 2953 781 
Q 2953 509 2976 411 
Q 3000 313 3061 258 
Q 3122 203 3306 153 
L 3306 0 
L 2075 0 
L 2075 153 
Q 2197 191 2250 219 
Q 2303 247 2339 297 
Q 2375 347 2395 451 
Q 2416 556 2416 769 
L 2416 1588 
Q 2416 2003 2373 2223 
Q 2331 2444 2207 2553 
Q 2084 2663 1863 2663 
Q 1738 2663 1638 2619 
Q 1538 2575 1406 2462 
Q 1275 2350 1208 2231 
Q 1141 2113 1141 1978 
L 1141 781 
Q 1141 569 1152 478 
Q 1163 388 1194 327 
Q 1225 266 1289 227 
Q 1353 188 1488 153 
L 1488 0 
L 250 0 
L 250 153 
Q 388 191 447 225 
Q 506 259 539 312 
Q 572 366 587 466 
Q 603 566 603 781 
L 603 3397 
Q 603 3697 598 3815 
Q 594 3934 573 4017 
Q 553 4100 517 4147 
Q 481 4194 420 4222 
Q 359 4250 200 4278 
L 200 4441 
L 953 4472 
L 1141 4472 
L 1141 2497 
z
" transform="scale(0.015625)"/>
       </defs>
       <use xlink:href="#Cambria-83"/>
       <use xlink:href="#Cambria-94" transform="translate(48.828125 0)"/>
       <use xlink:href="#Cambria-8b" transform="translate(90.1875 0)"/>
       <use xlink:href="#Cambria-96" transform="translate(117.96875 0)"/>
       <use xlink:href="#Cambria-8a" transform="translate(151.8125 0)"/>
       <use xlink:href="#Cambria-1e4" transform="translate(206.984375 0)"/>
      </g>
     </g>
    </g>
    <g id="xtick_4">
     <g id="line2d_4"/>
     <g id="text_4">
      <!-- $p$-adic -->
      <g style="fill: #52514e" transform="translate(229.024778 14.112109) scale(0.08 -0.08)">
       <defs>
        <path id="Cmmi10-80" d="M -159 -1241 
Q -219 -1241 -219 -1159 
Q -197 -1019 -134 -1019 
Q 66 -1019 145 -983 
Q 225 -947 269 -800 
L 991 2081 
Q 1038 2200 1038 2388 
Q 1038 2663 850 2663 
Q 650 2663 553 2423 
Q 456 2184 366 1819 
Q 366 1778 313 1778 
L 238 1778 
Q 222 1778 203 1801 
Q 184 1825 184 1844 
Q 253 2122 317 2315 
Q 381 2509 517 2668 
Q 653 2828 856 2828 
Q 1075 2828 1240 2704 
Q 1406 2581 1453 2369 
Q 1628 2572 1840 2700 
Q 2053 2828 2278 2828 
Q 2547 2828 2745 2684 
Q 2944 2541 3044 2308 
Q 3144 2075 3144 1806 
Q 3144 1394 2933 953 
Q 2722 513 2361 220 
Q 2000 -72 1588 -72 
Q 1400 -72 1248 34 
Q 1097 141 1013 313 
L 722 -825 
Q 706 -919 703 -934 
Q 703 -1019 1125 -1019 
Q 1191 -1019 1191 -1100 
Q 1169 -1184 1155 -1212 
Q 1141 -1241 1081 -1241 
L -159 -1241 
z
M 1594 97 
Q 1816 97 2006 280 
Q 2197 463 2316 691 
Q 2403 863 2479 1111 
Q 2556 1359 2612 1640 
Q 2669 1922 2669 2088 
Q 2669 2234 2630 2362 
Q 2591 2491 2502 2577 
Q 2413 2663 2266 2663 
Q 2031 2663 1823 2495 
Q 1616 2328 1447 2081 
L 1447 2059 
L 1094 647 
Q 1138 419 1263 258 
Q 1388 97 1594 97 
z
" transform="scale(0.015625)"/>
        <path id="Cambria-1e6" d="M 1788 1403 
L 338 1403 
L 338 1888 
L 1788 1888 
L 1788 1403 
z
" transform="scale(0.015625)"/>
        <path id="Cambria-85" d="M 2631 2916 
L 2631 2263 
L 2234 2263 
Q 2181 2466 2103 2583 
Q 2025 2700 1922 2747 
Q 1819 2794 1666 2794 
Q 1447 2794 1278 2653 
Q 1109 2513 1011 2225 
Q 913 1938 913 1522 
Q 913 1256 950 1036 
Q 988 816 1078 659 
Q 1169 503 1319 415 
Q 1469 328 1691 328 
Q 1906 328 2092 412 
Q 2278 497 2478 709 
L 2656 503 
Q 2497 328 2375 233 
Q 2253 138 2114 73 
Q 1975 9 1839 -20 
Q 1703 -50 1544 -50 
Q 953 -50 640 342 
Q 328 734 328 1475 
Q 328 1938 503 2295 
Q 678 2653 993 2847 
Q 1309 3041 1722 3041 
Q 1978 3041 2195 3011 
Q 2413 2981 2631 2916 
z
" transform="scale(0.015625)"/>
       </defs>
       <use xlink:href="#Cmmi10-80" transform="translate(0 0.125)"/>
       <use xlink:href="#Cambria-1e6" transform="translate(50.292969 0.125)"/>
       <use xlink:href="#Cambria-83" transform="translate(83.496094 0.125)"/>
       <use xlink:href="#Cambria-86" transform="translate(132.324219 0.125)"/>
       <use xlink:href="#Cambria-8b" transform="translate(187.792969 0.125)"/>
       <use xlink:href="#Cambria-85" transform="translate(215.576172 0.125)"/>
      </g>
      <!-- lift -->
      <g style="fill: #52514e" transform="translate(234.662278 23.491016) scale(0.08 -0.08)">
       <defs>
        <path id="Cambria-88" d="M 1909 2672 
L 1163 2672 
L 1163 781 
Q 1163 572 1183 465 
Q 1203 359 1242 304 
Q 1281 250 1345 217 
Q 1409 184 1550 153 
L 1550 0 
L 272 0 
L 272 153 
Q 409 191 468 225 
Q 528 259 561 312 
Q 594 366 609 466 
Q 625 566 625 781 
L 625 2672 
L 247 2672 
L 247 2831 
Q 366 2850 405 2861 
Q 444 2872 480 2894 
Q 516 2916 542 2956 
Q 569 2997 589 3076 
Q 609 3156 622 3300 
Q 650 3641 745 3853 
Q 841 4066 1023 4216 
Q 1206 4366 1414 4427 
Q 1622 4488 1903 4488 
Q 2150 4488 2322 4453 
L 2322 3888 
L 2013 3888 
Q 1953 4072 1873 4148 
Q 1794 4225 1650 4225 
Q 1547 4225 1476 4197 
Q 1406 4169 1347 4109 
Q 1288 4050 1245 3950 
Q 1203 3850 1183 3701 
Q 1163 3553 1163 3316 
L 1163 2988 
L 1909 2988 
L 1909 2672 
z
" transform="scale(0.015625)"/>
       </defs>
       <use xlink:href="#Cambria-8e"/>
       <use xlink:href="#Cambria-8b" transform="translate(27.15625 0)"/>
       <use xlink:href="#Cambria-88" transform="translate(54.9375 0)"/>
       <use xlink:href="#Cambria-96" transform="translate(85.21875 0)"/>
      </g>
     </g>
    </g>
    <g id="xtick_5">
     <g id="line2d_5"/>
     <g id="text_5">
      <!-- Pairing -->
      <g style="fill: #52514e" transform="translate(269.836722 24.180469) scale(0.08 -0.08)">
       <defs>
        <path id="Cambria-13" d="M 1328 791 
Q 1328 606 1348 497 
Q 1369 388 1411 323 
Q 1453 259 1525 223 
Q 1597 188 1750 153 
L 1750 0 
L 378 0 
L 378 153 
Q 572 203 637 264 
Q 703 325 723 437 
Q 744 550 744 781 
L 744 3484 
Q 744 3700 728 3798 
Q 713 3897 677 3951 
Q 641 4006 581 4039 
Q 522 4072 378 4113 
L 378 4266 
L 1928 4266 
Q 2659 4266 3017 3986 
Q 3375 3706 3375 3134 
Q 3375 2809 3262 2550 
Q 3150 2291 2944 2125 
Q 2738 1959 2456 1887 
Q 2175 1816 1866 1816 
Q 1519 1816 1328 1828 
L 1328 791 
z
M 1328 2088 
L 1691 2088 
Q 2044 2088 2273 2180 
Q 2503 2272 2625 2486 
Q 2747 2700 2747 3053 
Q 2747 3322 2675 3501 
Q 2603 3681 2476 3790 
Q 2350 3900 2175 3945 
Q 2000 3991 1794 3991 
Q 1484 3991 1328 3978 
L 1328 2088 
z
" transform="scale(0.015625)"/>
        <path id="Cambria-90" d="M 3347 0 
L 2116 0 
L 2116 153 
Q 2238 191 2291 219 
Q 2344 247 2380 297 
Q 2416 347 2436 451 
Q 2456 556 2456 769 
L 2456 1588 
Q 2456 1806 2443 1984 
Q 2431 2163 2401 2277 
Q 2372 2391 2330 2455 
Q 2288 2519 2230 2564 
Q 2172 2609 2097 2636 
Q 2022 2663 1900 2663 
Q 1778 2663 1668 2614 
Q 1559 2566 1428 2447 
Q 1297 2328 1237 2212 
Q 1178 2097 1178 1947 
L 1178 781 
Q 1178 513 1203 408 
Q 1228 303 1298 248 
Q 1369 194 1528 153 
L 1528 0 
L 303 0 
L 303 153 
Q 425 191 476 219 
Q 528 247 564 297 
Q 600 347 620 450 
Q 641 553 641 772 
L 641 2134 
Q 641 2334 634 2456 
Q 628 2578 590 2651 
Q 553 2725 476 2761 
Q 400 2797 259 2822 
L 259 2988 
L 991 3016 
L 1181 3016 
L 1147 2506 
L 1191 2494 
Q 1422 2728 1564 2828 
Q 1706 2928 1851 2983 
Q 1997 3038 2159 3038 
Q 2328 3038 2461 2998 
Q 2594 2959 2695 2878 
Q 2797 2797 2862 2676 
Q 2928 2556 2961 2387 
Q 2994 2219 2994 1959 
L 2994 781 
Q 2994 566 3006 469 
Q 3019 372 3050 319 
Q 3081 266 3140 230 
Q 3200 194 3347 153 
L 3347 0 
z
" transform="scale(0.015625)"/>
        <path id="Cambria-89" d="M 3106 2672 
L 2528 2694 
L 2500 2659 
Q 2597 2563 2653 2395 
Q 2709 2228 2709 2034 
Q 2709 1525 2395 1248 
Q 2081 972 1503 972 
Q 1244 972 1056 1038 
Q 819 856 819 681 
Q 819 566 864 506 
Q 909 447 1014 422 
Q 1119 397 1331 397 
L 2081 397 
Q 2413 397 2622 294 
Q 2831 191 2920 17 
Q 3009 -156 3009 -388 
Q 3009 -681 2840 -911 
Q 2672 -1141 2353 -1269 
Q 2034 -1397 1609 -1397 
Q 1294 -1397 1033 -1359 
Q 772 -1322 586 -1233 
Q 400 -1144 298 -998 
Q 197 -853 197 -634 
Q 197 -438 328 -277 
Q 459 -116 700 6 
Q 553 66 468 181 
Q 384 297 384 453 
Q 384 631 484 779 
Q 584 928 838 1119 
Q 613 1250 495 1475 
Q 378 1700 378 1988 
Q 378 2256 467 2454 
Q 556 2653 714 2783 
Q 872 2913 1087 2977 
Q 1303 3041 1553 3041 
Q 1778 3041 2000 2988 
L 3106 2988 
L 3106 2672 
z
M 938 2038 
Q 938 1647 1097 1434 
Q 1256 1222 1556 1222 
Q 1716 1222 1828 1283 
Q 1941 1344 2011 1450 
Q 2081 1556 2114 1695 
Q 2147 1834 2147 1988 
Q 2147 2263 2069 2447 
Q 1991 2631 1856 2717 
Q 1722 2803 1547 2803 
Q 1250 2803 1094 2606 
Q 938 2409 938 2038 
z
M 1016 -50 
Q 856 -169 776 -301 
Q 697 -434 697 -603 
Q 697 -884 920 -1017 
Q 1144 -1150 1603 -1150 
Q 1884 -1150 2086 -1075 
Q 2288 -1000 2394 -859 
Q 2500 -719 2500 -531 
Q 2500 -444 2478 -361 
Q 2456 -278 2395 -212 
Q 2334 -147 2221 -108 
Q 2109 -69 1928 -69 
L 1463 -69 
Q 1209 -69 1016 -50 
z
" transform="scale(0.015625)"/>
       </defs>
       <use xlink:href="#Cambria-13"/>
       <use xlink:href="#Cambria-83" transform="translate(54.828125 0)"/>
       <use xlink:href="#Cambria-8b" transform="translate(103.65625 0)"/>
       <use xlink:href="#Cambria-94" transform="translate(131.4375 0)"/>
       <use xlink:href="#Cambria-8b" transform="translate(172.796875 0)"/>
       <use xlink:href="#Cambria-90" transform="translate(200.578125 0)"/>
       <use xlink:href="#Cambria-89" transform="translate(256.390625 0)"/>
      </g>
     </g>
    </g>
    <g id="xtick_6">
     <g id="line2d_6"/>
     <g id="text_6">
      <!-- Poly. -->
      <g style="fill: #52514e" transform="translate(316.883042 14.112109) scale(0.08 -0.08)">
       <use xlink:href="#Cambria-13"/>
       <use xlink:href="#Cambria-91" transform="translate(54.921875 0)"/>
       <use xlink:href="#Cambria-8e" transform="translate(108 0)"/>
       <use xlink:href="#Cambria-9b" transform="translate(133.15625 0)"/>
       <use xlink:href="#Cambria-1e4" transform="translate(175.25 0)"/>
      </g>
      <!-- solving -->
      <g style="fill: #52514e" transform="translate(312.529292 23.491016) scale(0.08 -0.08)">
       <defs>
        <path id="Cambria-95" d="M 2397 2303 
L 2097 2303 
Q 2028 2491 1934 2598 
Q 1841 2706 1722 2750 
Q 1603 2794 1431 2794 
Q 1181 2794 1032 2676 
Q 884 2559 884 2356 
Q 884 2213 943 2119 
Q 1003 2025 1128 1944 
Q 1253 1863 1569 1728 
Q 1888 1591 2061 1475 
Q 2234 1359 2332 1206 
Q 2431 1053 2431 841 
Q 2431 594 2347 425 
Q 2263 256 2109 150 
Q 1956 44 1745 -3 
Q 1534 -50 1284 -50 
Q 1022 -50 775 -11 
Q 528 28 294 91 
L 294 744 
L 600 744 
Q 684 456 850 326 
Q 1016 197 1306 197 
Q 1419 197 1526 220 
Q 1634 244 1718 298 
Q 1803 353 1853 447 
Q 1903 541 1903 681 
Q 1903 841 1840 941 
Q 1778 1041 1647 1123 
Q 1516 1206 1184 1347 
Q 900 1466 728 1578 
Q 556 1691 457 1844 
Q 359 1997 359 2206 
Q 359 2463 498 2652 
Q 638 2841 900 2941 
Q 1163 3041 1516 3041 
Q 1722 3041 1914 3020 
Q 2106 3000 2397 2941 
L 2397 2303 
z
" transform="scale(0.015625)"/>
        <path id="Cambria-98" d="M 1334 2988 
L 1334 2834 
Q 1191 2800 1131 2769 
Q 1072 2738 1042 2688 
Q 1013 2638 1013 2553 
Q 1013 2469 1033 2376 
Q 1053 2284 1097 2163 
L 1641 581 
L 2278 2097 
Q 2341 2247 2366 2344 
Q 2391 2441 2391 2525 
Q 2391 2656 2320 2725 
Q 2250 2794 2063 2834 
L 2063 2988 
L 3231 2988 
L 3231 2834 
Q 3109 2809 3043 2757 
Q 2978 2706 2912 2595 
Q 2847 2484 2756 2284 
L 1703 -31 
L 1334 -31 
L 488 2303 
Q 400 2544 348 2633 
Q 297 2722 236 2765 
Q 175 2809 59 2834 
L 59 2988 
L 1334 2988 
z
" transform="scale(0.015625)"/>
       </defs>
       <use xlink:href="#Cambria-95"/>
       <use xlink:href="#Cambria-91" transform="translate(42.96875 0)"/>
       <use xlink:href="#Cambria-8e" transform="translate(96.046875 0)"/>
       <use xlink:href="#Cambria-98" transform="translate(121.203125 0)"/>
       <use xlink:href="#Cambria-8b" transform="translate(171.59375 0)"/>
       <use xlink:href="#Cambria-90" transform="translate(199.375 0)"/>
       <use xlink:href="#Cambria-89" transform="translate(255.1875 0)"/>
      </g>
     </g>
    </g>
    <g id="xtick_7">
     <g id="line2d_7"/>
     <g id="text_7">
      <!-- EXT / -->
      <g style="fill: #52514e" transform="translate(357.559361 14.112109) scale(0.08 -0.08)">
       <defs>
        <path id="Cambria-1b" d="M 1503 4266 
L 1503 4113 
Q 1353 4091 1287 4031 
Q 1222 3972 1222 3869 
Q 1222 3781 1281 3650 
Q 1341 3519 1450 3338 
L 1903 2578 
L 2350 3300 
Q 2450 3463 2500 3559 
Q 2550 3656 2570 3722 
Q 2591 3788 2591 3856 
Q 2591 3953 2534 4020 
Q 2478 4088 2347 4113 
L 2347 4266 
L 3506 4266 
L 3506 4113 
Q 3391 4075 3298 4003 
Q 3206 3931 3101 3793 
Q 2997 3656 2803 3359 
L 2097 2266 
L 2891 959 
Q 3059 681 3132 570 
Q 3206 459 3270 382 
Q 3334 306 3407 250 
Q 3481 194 3591 153 
L 3591 0 
L 2219 0 
L 2219 153 
Q 2363 178 2431 233 
Q 2500 288 2500 397 
Q 2500 484 2454 590 
Q 2409 697 2316 853 
L 1750 1797 
L 1153 819 
Q 1003 572 1003 413 
Q 1003 309 1059 243 
Q 1116 178 1247 153 
L 1247 0 
L 66 0 
L 66 153 
Q 181 188 256 236 
Q 331 284 400 359 
Q 469 434 553 550 
Q 638 666 822 953 
L 1559 2103 
L 678 3553 
Q 553 3753 489 3843 
Q 425 3934 370 3990 
Q 316 4047 272 4070 
Q 228 4094 172 4113 
L 172 4266 
L 1503 4266 
z
" transform="scale(0.015625)"/>
        <path id="Cambria-17" d="M 206 4266 
L 3588 4266 
L 3588 3178 
L 3281 3178 
Q 3213 3447 3145 3603 
Q 3078 3759 3003 3840 
Q 2928 3922 2842 3956 
Q 2756 3991 2584 3991 
L 2188 3991 
L 2188 791 
Q 2188 606 2208 497 
Q 2228 388 2270 323 
Q 2313 259 2384 223 
Q 2456 188 2609 153 
L 2609 0 
L 1181 0 
L 1181 153 
Q 1275 175 1347 200 
Q 1419 225 1464 261 
Q 1509 297 1539 353 
Q 1569 409 1586 506 
Q 1603 603 1603 791 
L 1603 3991 
L 1209 3991 
Q 1063 3991 967 3962 
Q 872 3934 790 3845 
Q 709 3756 642 3592 
Q 575 3428 516 3178 
L 206 3178 
L 206 4266 
z
" transform="scale(0.015625)"/>
        <path id="Cambria-3" transform="scale(0.015625)"/>
        <path id="Cambria-200" d="M 2941 4472 
L 684 -1344 
L 194 -1344 
L 2456 4472 
L 2941 4472 
z
" transform="scale(0.015625)"/>
       </defs>
       <use xlink:href="#Cambria-8"/>
       <use xlink:href="#Cambria-1b" transform="translate(57.515625 0)"/>
       <use xlink:href="#Cambria-17" transform="translate(114.640625 0)"/>
       <use xlink:href="#Cambria-3" transform="translate(173.921875 0)"/>
       <use xlink:href="#Cambria-200" transform="translate(195.9375 0)"/>
      </g>
      <!-- subfield -->
      <g style="fill: #52514e" transform="translate(353.662486 23.491016) scale(0.08 -0.08)">
       <defs>
        <path id="Cambria-84" d="M 1091 2497 
L 1103 2494 
Q 1322 2722 1467 2825 
Q 1613 2928 1767 2983 
Q 1922 3038 2106 3038 
Q 2441 3038 2680 2867 
Q 2919 2697 3048 2356 
Q 3178 2016 3178 1522 
Q 3178 1013 3023 661 
Q 2869 309 2567 129 
Q 2266 -50 1853 -50 
Q 1622 -50 1417 -8 
Q 1213 34 988 141 
L 769 -50 
L 553 0 
L 553 3397 
Q 553 3697 548 3815 
Q 544 3934 523 4017 
Q 503 4100 467 4147 
Q 431 4194 370 4222 
Q 309 4250 150 4278 
L 150 4441 
L 906 4472 
L 1091 4472 
L 1091 2497 
z
M 1091 1125 
Q 1091 884 1112 742 
Q 1134 600 1186 506 
Q 1238 413 1336 334 
Q 1434 256 1556 226 
Q 1678 197 1828 197 
Q 2203 197 2397 503 
Q 2591 809 2591 1422 
Q 2591 2041 2414 2352 
Q 2238 2663 1881 2663 
Q 1703 2663 1578 2608 
Q 1453 2553 1329 2437 
Q 1206 2322 1148 2209 
Q 1091 2097 1091 1953 
L 1091 1125 
z
" transform="scale(0.015625)"/>
        <path id="Cambria-3d0" d="M 1909 2672 
L 1163 2672 
L 1163 781 
Q 1163 572 1183 465 
Q 1203 359 1242 304 
Q 1281 250 1345 217 
Q 1409 184 1550 153 
L 1550 0 
L 272 0 
L 272 153 
Q 409 191 468 225 
Q 528 259 561 312 
Q 594 366 609 466 
Q 625 566 625 781 
L 625 2672 
L 247 2672 
L 247 2831 
Q 416 2850 483 2898 
Q 550 2947 581 3040 
Q 613 3134 622 3300 
Q 644 3684 798 3953 
Q 953 4222 1212 4355 
Q 1472 4488 1816 4488 
Q 1994 4488 2153 4459 
L 2153 3888 
L 1897 3888 
Q 1863 4059 1795 4136 
Q 1728 4213 1603 4213 
Q 1488 4213 1405 4159 
Q 1322 4106 1264 3992 
Q 1206 3878 1184 3697 
Q 1163 3516 1163 3263 
L 1163 2988 
L 1909 2988 
L 1909 2672 
z
" transform="scale(0.015625)"/>
        <path id="Cambria-87" d="M 2800 531 
Q 2600 322 2433 203 
Q 2266 84 2066 17 
Q 1866 -50 1625 -50 
Q 981 -50 653 336 
Q 325 722 325 1475 
Q 325 1941 492 2297 
Q 659 2653 968 2847 
Q 1278 3041 1681 3041 
Q 1997 3041 2219 2941 
Q 2441 2841 2573 2667 
Q 2706 2494 2779 2230 
Q 2853 1966 2863 1541 
L 894 1541 
L 894 1484 
Q 894 1116 976 864 
Q 1059 613 1248 470 
Q 1438 328 1741 328 
Q 1997 328 2201 423 
Q 2406 519 2609 734 
L 2800 531 
z
M 2275 1800 
Q 2256 2138 2190 2352 
Q 2125 2566 1994 2680 
Q 1863 2794 1650 2794 
Q 1328 2794 1136 2536 
Q 944 2278 909 1800 
L 2275 1800 
z
" transform="scale(0.015625)"/>
       </defs>
       <use xlink:href="#Cambria-95"/>
       <use xlink:href="#Cambria-97" transform="translate(42.96875 0)"/>
       <use xlink:href="#Cambria-84" transform="translate(98.1875 0)"/>
       <use xlink:href="#Cambria-3d0" transform="translate(152.921875 0)"/>
       <use xlink:href="#Cambria-8b" transform="translate(183.203125 0)"/>
       <use xlink:href="#Cambria-87" transform="translate(210.984375 0)"/>
       <use xlink:href="#Cambria-8e" transform="translate(259.765625 0)"/>
       <use xlink:href="#Cambria-86" transform="translate(286.921875 0)"/>
      </g>
     </g>
    </g>
    <g id="xtick_8">
     <g id="line2d_8"/>
     <g id="text_8">
      <!-- AUX- -->
      <g style="fill: #52514e" transform="translate(401.656306 14.112109) scale(0.08 -0.08)">
       <defs>
        <path id="Cambria-4" d="M 2488 0 
L 2488 153 
Q 2644 184 2720 221 
Q 2797 259 2834 326 
Q 2872 394 2872 506 
Q 2872 613 2847 736 
Q 2822 859 2775 1013 
L 2659 1416 
L 1203 1416 
L 1097 1109 
Q 1016 878 991 759 
Q 966 641 966 544 
Q 966 356 1061 268 
Q 1156 181 1353 153 
L 1353 0 
L 19 0 
L 19 153 
Q 194 181 323 356 
Q 453 531 575 856 
L 1878 4316 
L 2372 4316 
L 3434 831 
Q 3509 588 3567 459 
Q 3625 331 3706 259 
Q 3788 188 3928 153 
L 3928 0 
L 2488 0 
z
M 1288 1688 
L 2594 1688 
L 2000 3703 
L 1288 1688 
z
" transform="scale(0.015625)"/>
        <path id="Cambria-18" d="M 3516 1475 
Q 3516 1134 3453 888 
Q 3394 653 3275 472 
Q 3166 309 3003 195 
Q 2841 81 2609 15 
Q 2378 -50 2066 -50 
Q 1688 -50 1417 34 
Q 1147 119 970 311 
Q 794 503 716 764 
Q 638 1025 638 1428 
L 638 3484 
Q 638 3728 622 3814 
Q 606 3900 576 3950 
Q 547 4000 490 4036 
Q 434 4072 281 4113 
L 281 4266 
L 1594 4266 
L 1594 4113 
Q 1419 4069 1350 4014 
Q 1281 3959 1256 3850 
Q 1231 3741 1231 3484 
L 1231 1272 
Q 1231 969 1295 762 
Q 1359 556 1475 442 
Q 1591 328 1750 276 
Q 1909 225 2147 225 
Q 2366 225 2531 301 
Q 2697 378 2808 534 
Q 2919 691 2959 919 
Q 3000 1147 3000 1531 
L 3000 3484 
Q 3000 3756 2973 3856 
Q 2947 3956 2886 4009 
Q 2825 4063 2634 4113 
L 2634 4266 
L 3881 4266 
L 3881 4113 
Q 3700 4066 3633 4009 
Q 3566 3953 3541 3847 
Q 3516 3741 3516 3484 
L 3516 1475 
z
" transform="scale(0.015625)"/>
       </defs>
       <use xlink:href="#Cambria-4"/>
       <use xlink:href="#Cambria-18" transform="translate(59.96875 0)"/>
       <use xlink:href="#Cambria-1b" transform="translate(123.203125 0)"/>
       <use xlink:href="#Cambria-1e6" transform="translate(175.453125 0)"/>
      </g>
      <!-- DLP -->
      <g style="fill: #52514e" transform="translate(402.938806 23.491016) scale(0.08 -0.08)">
       <defs>
        <path id="Cambria-7" d="M 375 0 
L 375 153 
Q 519 191 581 225 
Q 644 259 678 312 
Q 713 366 728 466 
Q 744 566 744 781 
L 744 3484 
Q 744 3703 728 3801 
Q 713 3900 677 3953 
Q 641 4006 581 4039 
Q 522 4072 375 4113 
L 375 4266 
L 1744 4266 
Q 2334 4266 2711 4136 
Q 3088 4006 3347 3753 
Q 3606 3500 3734 3123 
Q 3863 2747 3863 2225 
Q 3863 1697 3742 1295 
Q 3622 894 3391 622 
Q 3191 384 2900 231 
Q 2659 106 2343 53 
Q 2028 0 1506 0 
L 375 0 
z
M 1328 291 
Q 1453 278 1697 278 
Q 1959 278 2165 322 
Q 2372 366 2540 459 
Q 2709 553 2843 720 
Q 2978 888 3062 1105 
Q 3147 1322 3186 1587 
Q 3225 1853 3225 2169 
Q 3225 2803 3042 3211 
Q 2859 3619 2526 3806 
Q 2194 3994 1731 3994 
Q 1519 3994 1328 3981 
L 1328 291 
z
" transform="scale(0.015625)"/>
        <path id="Cambria-f" d="M 1328 288 
L 2147 288 
Q 2281 288 2372 303 
Q 2463 319 2527 351 
Q 2591 384 2642 442 
Q 2694 500 2741 594 
Q 2788 688 2830 830 
Q 2872 972 2934 1256 
L 3250 1256 
L 3188 0 
L 378 0 
L 378 153 
Q 572 203 637 264 
Q 703 325 723 437 
Q 744 550 744 781 
L 744 3484 
Q 744 3700 728 3798 
Q 713 3897 677 3951 
Q 641 4006 581 4039 
Q 522 4072 378 4113 
L 378 4266 
L 1694 4266 
L 1694 4113 
Q 1556 4075 1498 4045 
Q 1441 4016 1403 3966 
Q 1366 3916 1347 3812 
Q 1328 3709 1328 3484 
L 1328 288 
z
" transform="scale(0.015625)"/>
       </defs>
       <use xlink:href="#Cambria-7"/>
       <use xlink:href="#Cambria-f" transform="translate(66.15625 0)"/>
       <use xlink:href="#Cambria-13" transform="translate(119.8125 0)"/>
      </g>
     </g>
    </g>
    <g id="xtick_9">
     <g id="line2d_9"/>
     <g id="text_9">
      <!-- Linear -->
      <g style="fill: #52514e" transform="translate(441.59825 14.112109) scale(0.08 -0.08)">
       <use xlink:href="#Cambria-f"/>
       <use xlink:href="#Cambria-8b" transform="translate(53.65625 0)"/>
       <use xlink:href="#Cambria-90" transform="translate(81.4375 0)"/>
       <use xlink:href="#Cambria-87" transform="translate(137.25 0)"/>
       <use xlink:href="#Cambria-83" transform="translate(186.03125 0)"/>
       <use xlink:href="#Cambria-94" transform="translate(234.859375 0)"/>
      </g>
      <!-- alg. -->
      <g style="fill: #52514e" transform="translate(446.810125 23.491016) scale(0.08 -0.08)">
       <use xlink:href="#Cambria-83"/>
       <use xlink:href="#Cambria-8e" transform="translate(48.828125 0)"/>
       <use xlink:href="#Cambria-89" transform="translate(75.984375 0)"/>
       <use xlink:href="#Cambria-1e4" transform="translate(125.40625 0)"/>
      </g>
     </g>
    </g>
   </g>
   <g id="matplotlib.axis_2">
    <g id="ytick_1">
     <g id="line2d_10"/>
     <g id="text_10">
      <!-- BSGS -->
      <g style="fill: #52514e" transform="translate(69.552813 44.055752) scale(0.085 -0.085)">
       <defs>
        <path id="Cambria-5" d="M 378 0 
L 378 153 
Q 572 203 637 264 
Q 703 325 723 437 
Q 744 550 744 781 
L 744 3484 
Q 744 3700 728 3798 
Q 713 3897 677 3951 
Q 641 4006 581 4039 
Q 522 4072 378 4113 
L 378 4266 
L 2088 4266 
Q 2584 4266 2886 4159 
Q 3188 4053 3334 3845 
Q 3481 3638 3481 3309 
Q 3481 3038 3376 2838 
Q 3272 2638 3103 2506 
Q 2934 2375 2669 2263 
L 2669 2234 
Q 3094 2106 3312 1839 
Q 3531 1572 3531 1203 
Q 3531 778 3342 509 
Q 3153 241 2812 120 
Q 2472 0 1988 0 
L 378 0 
z
M 1875 2353 
Q 2350 2353 2601 2583 
Q 2853 2813 2853 3250 
Q 2853 3466 2783 3608 
Q 2713 3750 2589 3834 
Q 2466 3919 2297 3955 
Q 2128 3991 1931 3991 
Q 1813 3991 1619 3984 
Q 1425 3978 1328 3972 
L 1328 2353 
L 1875 2353 
z
M 1328 297 
Q 1556 275 1838 275 
Q 2247 275 2473 378 
Q 2700 481 2801 682 
Q 2903 884 2903 1188 
Q 2903 1491 2792 1687 
Q 2681 1884 2450 1981 
Q 2219 2078 1813 2078 
L 1328 2078 
L 1328 297 
z
" transform="scale(0.015625)"/>
        <path id="Cambria-16" d="M 663 972 
Q 725 697 831 537 
Q 938 378 1106 301 
Q 1275 225 1541 225 
Q 1906 225 2101 415 
Q 2297 606 2297 972 
Q 2297 1206 2215 1365 
Q 2134 1525 1950 1665 
Q 1766 1806 1388 1994 
Q 1022 2175 809 2348 
Q 597 2522 492 2725 
Q 388 2928 388 3169 
Q 388 3519 552 3776 
Q 716 4034 1033 4175 
Q 1350 4316 1759 4316 
Q 1997 4316 2223 4291 
Q 2450 4266 2791 4178 
L 2791 3334 
L 2481 3334 
Q 2409 3609 2300 3762 
Q 2191 3916 2044 3977 
Q 1897 4038 1663 4038 
Q 1459 4038 1298 3963 
Q 1138 3888 1044 3736 
Q 950 3584 950 3375 
Q 950 3153 1029 3000 
Q 1109 2847 1278 2715 
Q 1447 2584 1778 2422 
Q 2178 2222 2398 2050 
Q 2619 1878 2742 1658 
Q 2866 1438 2866 1144 
Q 2866 816 2762 589 
Q 2659 363 2476 220 
Q 2294 78 2039 14 
Q 1784 -50 1481 -50 
Q 991 -50 350 116 
L 350 972 
L 663 972 
z
" transform="scale(0.015625)"/>
       </defs>
       <use xlink:href="#Cambria-5"/>
       <use xlink:href="#Cambria-16" transform="translate(61.140625 0)"/>
       <use xlink:href="#Cambria-a" transform="translate(110.75 0)"/>
       <use xlink:href="#Cambria-16" transform="translate(171.828125 0)"/>
      </g>
     </g>
    </g>
    <g id="ytick_2">
     <g id="line2d_11"/>
     <g id="text_11">
      <!-- Pollard rho -->
      <g style="fill: #52514e" transform="translate(47.775547 68.603911) scale(0.085 -0.085)">
       <use xlink:href="#Cambria-13"/>
       <use xlink:href="#Cambria-91" transform="translate(54.921875 0)"/>
       <use xlink:href="#Cambria-8e" transform="translate(108 0)"/>
       <use xlink:href="#Cambria-8e" transform="translate(135.15625 0)"/>
       <use xlink:href="#Cambria-83" transform="translate(162.3125 0)"/>
       <use xlink:href="#Cambria-94" transform="translate(211.140625 0)"/>
       <use xlink:href="#Cambria-86" transform="translate(251.03125 0)"/>
       <use xlink:href="#Cambria-3" transform="translate(306.5 0)"/>
       <use xlink:href="#Cambria-94" transform="translate(328.515625 0)"/>
       <use xlink:href="#Cambria-8a" transform="translate(369.390625 0)"/>
       <use xlink:href="#Cambria-91" transform="translate(424.5625 0)"/>
      </g>
     </g>
    </g>
    <g id="ytick_3">
     <g id="line2d_12"/>
     <g id="text_12">
      <!-- Pohlig–Hellman -->
      <g style="fill: #52514e" transform="translate(30.819375 93.152071) scale(0.085 -0.085)">
       <defs>
        <path id="Cambria-202" d="M 2919 1438 
L 281 1438 
L 281 1850 
L 2919 1850 
L 2919 1438 
z
" transform="scale(0.015625)"/>
        <path id="Cambria-b" d="M 3650 781 
Q 3650 600 3659 509 
Q 3669 419 3691 364 
Q 3713 309 3744 275 
Q 3775 241 3833 212 
Q 3891 184 4013 153 
L 4013 0 
L 2703 0 
L 2703 153 
Q 2875 197 2944 250 
Q 3013 303 3039 412 
Q 3066 522 3066 781 
L 3066 2091 
L 1328 2091 
L 1328 781 
Q 1328 572 1342 475 
Q 1356 378 1389 322 
Q 1422 266 1486 228 
Q 1550 191 1694 153 
L 1694 0 
L 378 0 
L 378 153 
Q 572 203 637 264 
Q 703 325 723 437 
Q 744 550 744 781 
L 744 3484 
Q 744 3700 728 3798 
Q 713 3897 677 3951 
Q 641 4006 581 4039 
Q 522 4072 378 4113 
L 378 4266 
L 1694 4266 
L 1694 4113 
Q 1556 4078 1495 4043 
Q 1434 4009 1398 3957 
Q 1363 3906 1345 3803 
Q 1328 3700 1328 3484 
L 1328 2378 
L 3066 2378 
L 3066 3484 
Q 3066 3756 3039 3856 
Q 3013 3956 2950 4009 
Q 2888 4063 2703 4113 
L 2703 4266 
L 4013 4266 
L 4013 4113 
Q 3838 4069 3769 4014 
Q 3700 3959 3675 3850 
Q 3650 3741 3650 3484 
L 3650 781 
z
" transform="scale(0.015625)"/>
        <path id="Cambria-8f" d="M 1147 2506 
L 1191 2494 
Q 1378 2681 1498 2776 
Q 1619 2872 1731 2930 
Q 1844 2988 1942 3013 
Q 2041 3038 2144 3038 
Q 2456 3038 2653 2894 
Q 2850 2750 2925 2453 
Q 3159 2691 3304 2803 
Q 3450 2916 3601 2977 
Q 3753 3038 3928 3038 
Q 4138 3038 4289 2977 
Q 4441 2916 4545 2789 
Q 4650 2663 4698 2472 
Q 4747 2281 4747 1959 
L 4747 781 
Q 4747 544 4762 453 
Q 4778 363 4808 313 
Q 4838 263 4897 227 
Q 4956 191 5097 153 
L 5097 0 
L 3869 0 
L 3869 153 
Q 3991 191 4044 219 
Q 4097 247 4133 297 
Q 4169 347 4189 451 
Q 4209 556 4209 769 
L 4209 1588 
Q 4209 1853 4195 2026 
Q 4181 2200 4151 2303 
Q 4122 2406 4080 2465 
Q 4038 2525 3984 2569 
Q 3931 2613 3859 2638 
Q 3788 2663 3669 2663 
Q 3544 2663 3436 2613 
Q 3328 2563 3201 2444 
Q 3075 2325 3019 2204 
Q 2963 2084 2963 1922 
L 2963 781 
Q 2963 544 2978 453 
Q 2994 363 3023 313 
Q 3053 263 3112 227 
Q 3172 191 3313 153 
L 3313 0 
L 2084 0 
L 2084 153 
Q 2206 191 2259 219 
Q 2313 247 2348 297 
Q 2384 347 2404 451 
Q 2425 556 2425 769 
L 2425 1588 
Q 2425 1866 2409 2041 
Q 2394 2216 2361 2322 
Q 2328 2428 2276 2493 
Q 2225 2559 2172 2593 
Q 2119 2628 2047 2645 
Q 1975 2663 1884 2663 
Q 1756 2663 1643 2605 
Q 1531 2547 1414 2437 
Q 1297 2328 1237 2209 
Q 1178 2091 1178 1953 
L 1178 781 
Q 1178 603 1187 509 
Q 1197 416 1217 362 
Q 1238 309 1269 276 
Q 1300 244 1358 214 
Q 1416 184 1531 153 
L 1531 0 
L 306 0 
L 306 153 
Q 425 191 476 219 
Q 528 247 565 297 
Q 603 347 622 450 
Q 641 553 641 772 
L 641 2134 
Q 641 2334 634 2456 
Q 628 2578 590 2651 
Q 553 2725 476 2761 
Q 400 2797 259 2822 
L 259 2988 
L 991 3016 
L 1181 3016 
L 1147 2506 
z
" transform="scale(0.015625)"/>
       </defs>
       <use xlink:href="#Cambria-13"/>
       <use xlink:href="#Cambria-91" transform="translate(54.921875 0)"/>
       <use xlink:href="#Cambria-8a" transform="translate(108 0)"/>
       <use xlink:href="#Cambria-8e" transform="translate(163.171875 0)"/>
       <use xlink:href="#Cambria-8b" transform="translate(190.328125 0)"/>
       <use xlink:href="#Cambria-89" transform="translate(218.109375 0)"/>
       <use xlink:href="#Cambria-202" transform="translate(267.53125 0)"/>
       <use xlink:href="#Cambria-b" transform="translate(317.53125 0)"/>
       <use xlink:href="#Cambria-87" transform="translate(386.1875 0)"/>
       <use xlink:href="#Cambria-8e" transform="translate(434.96875 0)"/>
       <use xlink:href="#Cambria-8e" transform="translate(462.125 0)"/>
       <use xlink:href="#Cambria-8f" transform="translate(489.28125 0)"/>
       <use xlink:href="#Cambria-83" transform="translate(572.484375 0)"/>
       <use xlink:href="#Cambria-90" transform="translate(621.3125 0)"/>
      </g>
     </g>
    </g>
    <g id="ytick_4">
     <g id="line2d_13"/>
     <g id="text_13">
      <!-- SSSA anomalous -->
      <g style="fill: #52514e" transform="translate(28.836484 117.70023) scale(0.085 -0.085)">
       <use xlink:href="#Cambria-16"/>
       <use xlink:href="#Cambria-16" transform="translate(49.609375 0)"/>
       <use xlink:href="#Cambria-16" transform="translate(99.21875 0)"/>
       <use xlink:href="#Cambria-4" transform="translate(147.953125 0)"/>
       <use xlink:href="#Cambria-3" transform="translate(210.265625 0)"/>
       <use xlink:href="#Cambria-83" transform="translate(232.28125 0)"/>
       <use xlink:href="#Cambria-90" transform="translate(281.109375 0)"/>
       <use xlink:href="#Cambria-91" transform="translate(336.921875 0)"/>
       <use xlink:href="#Cambria-8f" transform="translate(390 0)"/>
       <use xlink:href="#Cambria-83" transform="translate(473.203125 0)"/>
       <use xlink:href="#Cambria-8e" transform="translate(522.03125 0)"/>
       <use xlink:href="#Cambria-91" transform="translate(549.1875 0)"/>
       <use xlink:href="#Cambria-97" transform="translate(602.265625 0)"/>
       <use xlink:href="#Cambria-95" transform="translate(657.484375 0)"/>
      </g>
     </g>
    </g>
    <g id="ytick_5">
     <g id="line2d_14"/>
     <g id="text_14">
      <!-- MOV / Frey–Rück -->
      <g style="fill: #52514e" transform="translate(24.757813 142.248389) scale(0.085 -0.085)">
       <defs>
        <path id="Cambria-10" d="M 4841 4113 
Q 4703 4078 4642 4043 
Q 4581 4009 4545 3957 
Q 4509 3906 4492 3803 
Q 4475 3700 4475 3484 
L 4475 781 
Q 4475 572 4489 475 
Q 4503 378 4536 322 
Q 4569 266 4633 228 
Q 4697 191 4841 153 
L 4841 0 
L 3538 0 
L 3538 153 
Q 3716 197 3784 253 
Q 3853 309 3878 418 
Q 3903 528 3903 781 
L 3903 1978 
Q 3903 2450 3917 2933 
Q 3931 3416 3950 3594 
L 3897 3594 
L 2659 497 
L 2300 497 
L 1150 3644 
L 1097 3644 
Q 1113 3453 1127 2953 
Q 1141 2453 1141 1925 
L 1141 781 
Q 1141 572 1155 475 
Q 1169 378 1201 322 
Q 1234 266 1298 228 
Q 1363 191 1506 153 
L 1506 0 
L 366 0 
L 366 153 
Q 559 203 625 264 
Q 691 325 711 437 
Q 731 550 731 781 
L 731 3484 
Q 731 3700 715 3798 
Q 700 3897 664 3951 
Q 628 4006 568 4039 
Q 509 4072 366 4113 
L 366 4266 
L 1481 4266 
L 2578 1225 
L 3784 4266 
L 4841 4266 
L 4841 4113 
z
" transform="scale(0.015625)"/>
        <path id="Cambria-12" d="M 2044 -50 
Q 1669 -50 1361 73 
Q 1053 197 833 458 
Q 613 719 492 1125 
Q 372 1531 372 2097 
Q 372 2794 584 3294 
Q 797 3794 1192 4055 
Q 1588 4316 2109 4316 
Q 2666 4316 3045 4070 
Q 3425 3825 3617 3348 
Q 3809 2872 3809 2188 
Q 3809 1456 3590 953 
Q 3372 450 2973 200 
Q 2575 -50 2044 -50 
z
M 1016 2184 
Q 1016 1225 1295 725 
Q 1575 225 2113 225 
Q 2453 225 2690 442 
Q 2928 659 3047 1078 
Q 3166 1497 3166 2056 
Q 3166 2738 3027 3186 
Q 2888 3634 2647 3837 
Q 2406 4041 2088 4041 
Q 1806 4041 1604 3909 
Q 1403 3778 1270 3536 
Q 1138 3294 1077 2950 
Q 1016 2606 1016 2184 
z
" transform="scale(0.015625)"/>
        <path id="Cambria-19" d="M 1481 4266 
L 1481 4113 
Q 1338 4088 1263 4050 
Q 1188 4013 1150 3944 
Q 1113 3875 1113 3759 
Q 1113 3653 1138 3529 
Q 1163 3406 1209 3253 
L 1941 703 
L 2838 3272 
Q 2856 3331 2875 3397 
Q 2894 3463 2908 3525 
Q 2922 3588 2926 3634 
Q 2931 3681 2931 3722 
Q 2931 3909 2845 3995 
Q 2759 4081 2553 4113 
L 2553 4266 
L 3866 4266 
L 3866 4113 
Q 3738 4081 3659 4022 
Q 3581 3963 3504 3831 
Q 3428 3700 3319 3413 
L 2022 -50 
L 1613 -50 
L 559 3434 
Q 475 3719 412 3839 
Q 350 3959 275 4020 
Q 200 4081 69 4113 
L 69 4266 
L 1481 4266 
z
" transform="scale(0.015625)"/>
        <path id="Cambria-9" d="M 3228 4266 
L 3228 3322 
L 2922 3322 
Q 2853 3534 2789 3665 
Q 2725 3797 2654 3865 
Q 2584 3934 2490 3962 
Q 2397 3991 2244 3991 
L 1328 3991 
L 1328 2291 
L 1972 2291 
Q 2109 2291 2187 2336 
Q 2266 2381 2317 2487 
Q 2369 2594 2416 2816 
L 2709 2816 
L 2709 1497 
L 2416 1497 
Q 2369 1709 2316 1817 
Q 2263 1925 2189 1970 
Q 2116 2016 1972 2016 
L 1328 2016 
L 1328 791 
Q 1328 603 1350 490 
Q 1372 378 1422 312 
Q 1472 247 1556 214 
Q 1641 181 1766 153 
L 1766 0 
L 378 0 
L 378 153 
Q 572 203 637 264 
Q 703 325 723 437 
Q 744 550 744 781 
L 744 3484 
Q 744 3700 728 3798 
Q 713 3897 677 3951 
Q 641 4006 581 4039 
Q 522 4072 378 4113 
L 378 4266 
L 3228 4266 
z
" transform="scale(0.015625)"/>
        <path id="Cambria-15" d="M 1331 1853 
L 1331 791 
Q 1331 566 1348 464 
Q 1366 363 1400 311 
Q 1434 259 1493 226 
Q 1553 194 1697 153 
L 1697 0 
L 378 0 
L 378 153 
Q 572 203 637 264 
Q 703 325 723 437 
Q 744 550 744 781 
L 744 3484 
Q 744 3700 728 3798 
Q 713 3897 677 3951 
Q 641 4006 581 4039 
Q 522 4072 378 4113 
L 378 4266 
L 1925 4266 
Q 2656 4266 3018 4000 
Q 3381 3734 3381 3175 
Q 3381 2747 3145 2447 
Q 2909 2147 2438 1978 
L 2438 1953 
Q 2628 1875 2764 1729 
Q 2900 1584 3066 1278 
L 3347 766 
Q 3469 541 3556 422 
Q 3644 303 3734 240 
Q 3825 178 3975 153 
L 3975 0 
L 3109 0 
Q 2991 166 2884 356 
Q 2778 547 2675 744 
L 2400 1266 
Q 2275 1503 2195 1615 
Q 2116 1728 2048 1773 
Q 1981 1819 1904 1836 
Q 1828 1853 1675 1853 
L 1331 1853 
z
M 1331 3978 
L 1331 2122 
L 1684 2122 
Q 1956 2122 2125 2161 
Q 2294 2200 2437 2309 
Q 2581 2419 2667 2614 
Q 2753 2809 2753 3094 
Q 2753 3391 2651 3587 
Q 2550 3784 2344 3887 
Q 2138 3991 1788 3991 
Q 1506 3991 1331 3978 
z
" transform="scale(0.015625)"/>
        <path id="Cambria-1c5" d="M -106 4184 
L -106 3634 
L -628 3634 
L -628 4184 
L -106 4184 
z
M -1166 4184 
L -1166 3634 
L -1688 3634 
L -1688 4184 
L -1166 4184 
z
" transform="scale(0.015625)"/>
        <path id="Cambria-8d" d="M 1138 1741 
L 1238 1741 
Q 1341 1741 1406 1763 
Q 1484 1791 1578 1858 
Q 1672 1925 1844 2084 
Q 1988 2219 2061 2312 
Q 2134 2406 2163 2484 
Q 2188 2550 2188 2616 
Q 2188 2709 2130 2762 
Q 2072 2816 1941 2834 
L 1941 2988 
L 3288 2988 
L 3288 2834 
Q 3144 2806 2981 2706 
Q 2819 2606 2647 2444 
L 1928 1763 
L 2828 588 
Q 2984 381 3111 282 
Q 3238 184 3388 153 
L 3388 0 
L 2188 0 
L 2188 153 
Q 2269 163 2308 189 
Q 2347 216 2347 278 
Q 2347 325 2330 370 
Q 2313 416 2259 494 
Q 2206 572 2066 766 
L 1694 1266 
Q 1588 1406 1542 1450 
Q 1497 1494 1447 1512 
Q 1397 1531 1313 1531 
L 1138 1531 
L 1138 781 
Q 1138 513 1163 408 
Q 1188 303 1258 248 
Q 1328 194 1488 153 
L 1488 0 
L 247 0 
L 247 153 
Q 403 194 464 237 
Q 525 281 551 342 
Q 578 403 589 508 
Q 600 613 600 781 
L 600 3397 
Q 600 3697 595 3815 
Q 591 3934 570 4017 
Q 550 4100 514 4147 
Q 478 4194 417 4222 
Q 356 4250 197 4278 
L 197 4441 
L 950 4472 
L 1138 4472 
L 1138 1741 
z
" transform="scale(0.015625)"/>
       </defs>
       <use xlink:href="#Cambria-10"/>
       <use xlink:href="#Cambria-12" transform="translate(81.546875 0)"/>
       <use xlink:href="#Cambria-19" transform="translate(145.265625 0)"/>
       <use xlink:href="#Cambria-3" transform="translate(205.625 0)"/>
       <use xlink:href="#Cambria-200" transform="translate(227.640625 0)"/>
       <use xlink:href="#Cambria-3" transform="translate(276.671875 0)"/>
       <use xlink:href="#Cambria-9" transform="translate(298.6875 0)"/>
       <use xlink:href="#Cambria-94" transform="translate(350.390625 0)"/>
       <use xlink:href="#Cambria-87" transform="translate(390.28125 0)"/>
       <use xlink:href="#Cambria-9b" transform="translate(438.09375 0)"/>
       <use xlink:href="#Cambria-202" transform="translate(486.53125 0)"/>
       <use xlink:href="#Cambria-15" transform="translate(536.53125 0)"/>
       <use xlink:href="#Cambria-97" transform="translate(596.6875 0)"/>
       <use xlink:href="#Cambria-1c5" transform="translate(638.234375 0)"/>
       <use xlink:href="#Cambria-85" transform="translate(651.90625 0)"/>
       <use xlink:href="#Cambria-8d" transform="translate(696 0)"/>
      </g>
     </g>
    </g>
    <g id="ytick_6">
     <g id="line2d_15"/>
     <g id="text_15">
      <!-- GHS Weil descent -->
      <g style="fill: #52514e" transform="translate(25.209375 166.796549) scale(0.085 -0.085)">
       <defs>
        <path id="Cambria-1a" d="M 2941 3469 
L 1941 -22 
L 1434 -22 
L 525 3372 
Q 469 3584 422 3718 
Q 375 3853 328 3929 
Q 281 4006 226 4045 
Q 172 4084 69 4113 
L 69 4266 
L 1406 4266 
L 1406 4113 
Q 1213 4075 1136 4000 
Q 1059 3925 1059 3791 
Q 1059 3681 1087 3531 
Q 1116 3381 1166 3191 
L 1794 722 
L 2800 4266 
L 3325 4266 
L 4141 719 
L 4878 3103 
Q 5013 3538 5013 3722 
Q 5013 3913 4933 3997 
Q 4853 4081 4669 4113 
L 4669 4266 
L 5900 4266 
L 5900 4113 
Q 5806 4081 5750 4042 
Q 5694 4003 5642 3936 
Q 5591 3869 5530 3728 
Q 5469 3588 5388 3350 
L 4250 -22 
L 3803 -22 
L 2941 3469 
z
" transform="scale(0.015625)"/>
       </defs>
       <use xlink:href="#Cambria-a"/>
       <use xlink:href="#Cambria-b" transform="translate(61.078125 0)"/>
       <use xlink:href="#Cambria-16" transform="translate(129.734375 0)"/>
       <use xlink:href="#Cambria-3" transform="translate(179.34375 0)"/>
       <use xlink:href="#Cambria-1a" transform="translate(201.359375 0)"/>
       <use xlink:href="#Cambria-87" transform="translate(287.640625 0)"/>
       <use xlink:href="#Cambria-8b" transform="translate(336.421875 0)"/>
       <use xlink:href="#Cambria-8e" transform="translate(364.203125 0)"/>
       <use xlink:href="#Cambria-3" transform="translate(391.359375 0)"/>
       <use xlink:href="#Cambria-86" transform="translate(413.375 0)"/>
       <use xlink:href="#Cambria-87" transform="translate(468.84375 0)"/>
       <use xlink:href="#Cambria-95" transform="translate(517.625 0)"/>
       <use xlink:href="#Cambria-85" transform="translate(560.59375 0)"/>
       <use xlink:href="#Cambria-87" transform="translate(604.6875 0)"/>
       <use xlink:href="#Cambria-90" transform="translate(653.46875 0)"/>
       <use xlink:href="#Cambria-96" transform="translate(709.28125 0)"/>
      </g>
     </g>
    </g>
    <g id="ytick_7">
     <g id="line2d_16"/>
     <g id="text_16">
      <!-- Semaev over $\mathbb{F}_p$ -->
      <g style="fill: #52514e" transform="translate(32.275 191.344708) scale(0.085 -0.085)">
       <defs>
        <path id="STIXNonUnicode-Italic-c" d="M 4250 4179 
L 4192 3942 
L 2150 3942 
L 1683 2176 
L 3494 2176 
L 3424 1939 
L 1619 1939 
L 1101 0 
L 115 0 
L 1229 4179 
L 4250 4179 
z
M 1914 3942 
L 1414 3942 
L 416 237 
L 928 237 
L 1914 3942 
z
" transform="scale(0.015625)"/>
       </defs>
       <use xlink:href="#Cambria-16" transform="translate(0 0.5625)"/>
       <use xlink:href="#Cambria-87" transform="translate(49.609375 0.5625)"/>
       <use xlink:href="#Cambria-8f" transform="translate(98.388672 0.5625)"/>
       <use xlink:href="#Cambria-83" transform="translate(181.591797 0.5625)"/>
       <use xlink:href="#Cambria-87" transform="translate(230.419922 0.5625)"/>
       <use xlink:href="#Cambria-98" transform="translate(279.199219 0.5625)"/>
       <use xlink:href="#Cambria-3" transform="translate(329.589844 0.5625)"/>
       <use xlink:href="#Cambria-91" transform="translate(351.611328 0.5625)"/>
       <use xlink:href="#Cambria-98" transform="translate(404.6875 0.5625)"/>
       <use xlink:href="#Cambria-87" transform="translate(455.078125 0.5625)"/>
       <use xlink:href="#Cambria-94" transform="translate(503.857422 0.5625)"/>
       <use xlink:href="#Cambria-3" transform="translate(545.214844 0.5625)"/>
       <use xlink:href="#STIXNonUnicode-Italic-c" transform="translate(567.236328 0.5625)"/>
       <use xlink:href="#Cmmi10-80" transform="translate(618.140567 -14.437462) scale(0.7)"/>
      </g>
     </g>
    </g>
    <g id="ytick_8">
     <g id="line2d_17"/>
     <g id="text_17">
      <!-- Gaudry/Diem over $\mathbb{F}_{q^n}$ -->
      <g style="fill: #52514e" transform="translate(7.2 215.892868) scale(0.085 -0.085)">
       <defs>
        <path id="Cmmi10-52" d="M 941 -1159 
Q 963 -1019 1025 -1019 
Q 1256 -1019 1389 -981 
Q 1522 -944 1563 -800 
L 1838 288 
Q 1472 -72 1106 -72 
Q 703 -72 473 233 
Q 244 538 244 953 
Q 244 1363 455 1803 
Q 666 2244 1027 2536 
Q 1388 2828 1806 2828 
Q 2000 2828 2156 2712 
Q 2313 2597 2394 2406 
Q 2431 2481 2601 2654 
Q 2772 2828 2841 2828 
Q 2913 2828 2913 2747 
L 2016 -825 
Q 2000 -919 1997 -934 
Q 1997 -1019 2419 -1019 
Q 2450 -1019 2467 -1044 
Q 2484 -1069 2484 -1100 
Q 2463 -1184 2448 -1212 
Q 2434 -1241 2375 -1241 
L 1006 -1241 
Q 941 -1241 941 -1159 
z
M 1119 97 
Q 1344 97 1558 267 
Q 1772 438 1931 672 
L 2291 2113 
Q 2253 2338 2126 2500 
Q 2000 2663 1791 2663 
Q 1575 2663 1389 2486 
Q 1203 2309 1075 2069 
Q 950 1813 836 1366 
Q 722 919 722 672 
Q 722 450 817 273 
Q 913 97 1119 97 
z
" transform="scale(0.015625)"/>
        <path id="Cmmi10-7a" d="M 494 109 
Q 494 147 500 166 
L 978 2075 
Q 1025 2253 1025 2388 
Q 1025 2663 838 2663 
Q 638 2663 541 2423 
Q 444 2184 353 1819 
Q 353 1800 334 1789 
Q 316 1778 300 1778 
L 225 1778 
Q 203 1778 187 1801 
Q 172 1825 172 1844 
Q 241 2122 305 2315 
Q 369 2509 505 2668 
Q 641 2828 844 2828 
Q 1084 2828 1268 2676 
Q 1453 2525 1453 2291 
Q 1644 2541 1900 2684 
Q 2156 2828 2444 2828 
Q 2672 2828 2837 2750 
Q 3003 2672 3095 2514 
Q 3188 2356 3188 2138 
Q 3188 1875 3070 1503 
Q 2953 1131 2778 672 
Q 2688 463 2688 288 
Q 2688 97 2834 97 
Q 3084 97 3251 365 
Q 3419 634 3488 941 
Q 3500 978 3541 978 
L 3616 978 
Q 3641 978 3658 962 
Q 3675 947 3675 922 
Q 3675 916 3669 903 
Q 3581 541 3364 234 
Q 3147 -72 2822 -72 
Q 2597 -72 2437 83 
Q 2278 238 2278 459 
Q 2278 578 2328 709 
Q 2409 919 2514 1209 
Q 2619 1500 2686 1765 
Q 2753 2031 2753 2234 
Q 2753 2413 2679 2538 
Q 2606 2663 2431 2663 
Q 2197 2663 2000 2559 
Q 1803 2456 1656 2286 
Q 1509 2116 1388 1881 
L 953 141 
Q 931 53 854 -9 
Q 778 -72 684 -72 
Q 606 -72 550 -22 
Q 494 28 494 109 
z
" transform="scale(0.015625)"/>
       </defs>
       <use xlink:href="#Cambria-a" transform="translate(0 0.125)"/>
       <use xlink:href="#Cambria-83" transform="translate(61.083984 0.125)"/>
       <use xlink:href="#Cambria-97" transform="translate(109.912109 0.125)"/>
       <use xlink:href="#Cambria-86" transform="translate(165.136719 0.125)"/>
       <use xlink:href="#Cambria-94" transform="translate(220.605469 0.125)"/>
       <use xlink:href="#Cambria-9b" transform="translate(261.962891 0.125)"/>
       <use xlink:href="#Cambria-200" transform="translate(312.353516 0.125)"/>
       <use xlink:href="#Cambria-7" transform="translate(361.376953 0.125)"/>
       <use xlink:href="#Cambria-8b" transform="translate(427.539062 0.125)"/>
       <use xlink:href="#Cambria-87" transform="translate(455.322266 0.125)"/>
       <use xlink:href="#Cambria-8f" transform="translate(504.101562 0.125)"/>
       <use xlink:href="#Cambria-3" transform="translate(587.304688 0.125)"/>
       <use xlink:href="#Cambria-91" transform="translate(609.326172 0.125)"/>
       <use xlink:href="#Cambria-98" transform="translate(662.402344 0.125)"/>
       <use xlink:href="#Cambria-87" transform="translate(712.792969 0.125)"/>
       <use xlink:href="#Cambria-94" transform="translate(761.572266 0.125)"/>
       <use xlink:href="#Cambria-3" transform="translate(802.929688 0.125)"/>
       <use xlink:href="#STIXNonUnicode-Italic-c" transform="translate(824.951172 0.125)"/>
       <use xlink:href="#Cmmi10-52" transform="translate(875.855411 -15.984911) scale(0.7)"/>
       <use xlink:href="#Cmmi10-7a" transform="translate(914.943593 12.917552) scale(0.49)"/>
      </g>
     </g>
    </g>
   </g>
   <g id="text_18">
    <!-- R -->
    <g style="fill: #fcfcfb" transform="translate(108.679804 43.111538) scale(0.085 -0.085)">
     <defs>
      <path id="Cambria-Bold-15" d="M 1941 0 
L 300 0 
L 300 206 
Q 416 238 483 273 
Q 550 309 583 373 
Q 616 438 625 536 
Q 634 634 634 784 
L 634 3478 
Q 634 3625 626 3725 
Q 619 3825 586 3887 
Q 553 3950 486 3989 
Q 419 4028 300 4059 
L 300 4266 
L 2122 4266 
Q 2491 4266 2748 4214 
Q 3006 4163 3200 4056 
Q 3363 3969 3475 3836 
Q 3588 3703 3648 3526 
Q 3709 3350 3709 3116 
Q 3709 2809 3601 2590 
Q 3494 2372 3311 2226 
Q 3128 2081 2822 1953 
L 2822 1922 
Q 3053 1822 3204 1655 
Q 3356 1488 3478 1231 
L 3675 806 
Q 3806 522 3936 380 
Q 4066 238 4244 206 
L 4244 0 
L 3041 0 
Q 2859 250 2631 744 
L 2388 1278 
Q 2278 1516 2200 1616 
Q 2122 1716 2039 1753 
Q 1956 1791 1784 1791 
L 1603 1791 
L 1603 784 
Q 1603 550 1625 456 
Q 1647 363 1709 306 
Q 1772 250 1941 206 
L 1941 0 
z
M 1603 3894 
L 1603 2156 
L 1913 2156 
Q 2163 2156 2325 2223 
Q 2488 2291 2583 2411 
Q 2678 2531 2714 2693 
Q 2750 2856 2750 3050 
Q 2750 3475 2550 3687 
Q 2350 3900 1956 3900 
Q 1688 3900 1603 3894 
z
" transform="scale(0.015625)"/>
     </defs>
     <use xlink:href="#Cambria-Bold-15"/>
    </g>
   </g>
   <g id="text_19">
    <!-- R -->
    <g style="fill: #fcfcfb" transform="translate(151.324248 43.111538) scale(0.085 -0.085)">
     <use xlink:href="#Cambria-Bold-15"/>
    </g>
   </g>
   <g id="text_20">
    <!-- R -->
    <g style="fill: #fcfcfb" transform="translate(108.679804 67.659697) scale(0.085 -0.085)">
     <use xlink:href="#Cambria-Bold-15"/>
    </g>
   </g>
   <g id="text_21">
    <!-- R -->
    <g style="fill: #fcfcfb" transform="translate(151.324248 67.659697) scale(0.085 -0.085)">
     <use xlink:href="#Cambria-Bold-15"/>
    </g>
   </g>
   <g id="text_22">
    <!-- I -->
    <g style="fill: #0b0b0b" transform="translate(195.294161 67.659697) scale(0.085 -0.085)">
     <defs>
      <path id="Cambria-Bold-c" d="M 1603 784 
Q 1603 675 1609 581 
Q 1616 488 1634 428 
Q 1653 369 1689 328 
Q 1725 288 1787 258 
Q 1850 228 1941 206 
L 1941 0 
L 300 0 
L 300 206 
Q 416 238 483 273 
Q 550 309 583 373 
Q 616 438 625 536 
Q 634 634 634 784 
L 634 3481 
Q 634 3631 626 3728 
Q 619 3825 586 3889 
Q 553 3953 486 3990 
Q 419 4028 300 4059 
L 300 4266 
L 1941 4266 
L 1941 4059 
Q 1813 4025 1752 3986 
Q 1691 3947 1659 3890 
Q 1628 3834 1615 3743 
Q 1603 3653 1603 3478 
L 1603 784 
z
" transform="scale(0.015625)"/>
     </defs>
     <use xlink:href="#Cambria-Bold-c"/>
    </g>
   </g>
   <g id="text_23">
    <!-- R -->
    <g style="fill: #fcfcfb" transform="translate(108.679804 92.207857) scale(0.085 -0.085)">
     <use xlink:href="#Cambria-Bold-15"/>
    </g>
   </g>
   <g id="text_24">
    <!-- R -->
    <g style="fill: #fcfcfb" transform="translate(151.324248 92.207857) scale(0.085 -0.085)">
     <use xlink:href="#Cambria-Bold-15"/>
    </g>
   </g>
   <g id="text_25">
    <!-- R -->
    <g style="fill: #fcfcfb" transform="translate(108.679804 116.756016) scale(0.085 -0.085)">
     <use xlink:href="#Cambria-Bold-15"/>
    </g>
   </g>
   <g id="text_26">
    <!-- R -->
    <g style="fill: #fcfcfb" transform="translate(193.968693 116.756016) scale(0.085 -0.085)">
     <use xlink:href="#Cambria-Bold-15"/>
    </g>
   </g>
   <g id="text_27">
    <!-- R -->
    <g style="fill: #fcfcfb" transform="translate(236.613137 116.756016) scale(0.085 -0.085)">
     <use xlink:href="#Cambria-Bold-15"/>
    </g>
   </g>
   <g id="text_28">
    <!-- R -->
    <g style="fill: #fcfcfb" transform="translate(108.679804 141.304176) scale(0.085 -0.085)">
     <use xlink:href="#Cambria-Bold-15"/>
    </g>
   </g>
   <g id="text_29">
    <!-- R -->
    <g style="fill: #fcfcfb" transform="translate(151.324248 141.304176) scale(0.085 -0.085)">
     <use xlink:href="#Cambria-Bold-15"/>
    </g>
   </g>
   <g id="text_30">
    <!-- R -->
    <g style="fill: #fcfcfb" transform="translate(193.968693 141.304176) scale(0.085 -0.085)">
     <use xlink:href="#Cambria-Bold-15"/>
    </g>
   </g>
   <g id="text_31">
    <!-- R -->
    <g style="fill: #fcfcfb" transform="translate(279.257582 141.304176) scale(0.085 -0.085)">
     <use xlink:href="#Cambria-Bold-15"/>
    </g>
   </g>
   <g id="text_32">
    <!-- R -->
    <g style="fill: #fcfcfb" transform="translate(364.54647 141.304176) scale(0.085 -0.085)">
     <use xlink:href="#Cambria-Bold-15"/>
    </g>
   </g>
   <g id="text_33">
    <!-- R -->
    <g style="fill: #fcfcfb" transform="translate(407.190915 141.304176) scale(0.085 -0.085)">
     <use xlink:href="#Cambria-Bold-15"/>
    </g>
   </g>
   <g id="text_34">
    <!-- R -->
    <g style="fill: #fcfcfb" transform="translate(108.679804 165.852335) scale(0.085 -0.085)">
     <use xlink:href="#Cambria-Bold-15"/>
    </g>
   </g>
   <g id="text_35">
    <!-- R -->
    <g style="fill: #fcfcfb" transform="translate(151.324248 165.852335) scale(0.085 -0.085)">
     <use xlink:href="#Cambria-Bold-15"/>
    </g>
   </g>
   <g id="text_36">
    <!-- R -->
    <g style="fill: #fcfcfb" transform="translate(193.968693 165.852335) scale(0.085 -0.085)">
     <use xlink:href="#Cambria-Bold-15"/>
    </g>
   </g>
   <g id="text_37">
    <!-- R -->
    <g style="fill: #fcfcfb" transform="translate(364.54647 165.852335) scale(0.085 -0.085)">
     <use xlink:href="#Cambria-Bold-15"/>
    </g>
   </g>
   <g id="text_38">
    <!-- R -->
    <g style="fill: #fcfcfb" transform="translate(407.190915 165.852335) scale(0.085 -0.085)">
     <use xlink:href="#Cambria-Bold-15"/>
    </g>
   </g>
   <g id="text_39">
    <!-- R -->
    <g style="fill: #fcfcfb" transform="translate(449.835359 165.852335) scale(0.085 -0.085)">
     <use xlink:href="#Cambria-Bold-15"/>
    </g>
   </g>
   <g id="text_40">
    <!-- R -->
    <g style="fill: #fcfcfb" transform="translate(108.679804 190.400494) scale(0.085 -0.085)">
     <use xlink:href="#Cambria-Bold-15"/>
    </g>
   </g>
   <g id="text_41">
    <!-- R -->
    <g style="fill: #fcfcfb" transform="translate(151.324248 190.400494) scale(0.085 -0.085)">
     <use xlink:href="#Cambria-Bold-15"/>
    </g>
   </g>
   <g id="text_42">
    <!-- R -->
    <g style="fill: #fcfcfb" transform="translate(193.968693 190.400494) scale(0.085 -0.085)">
     <use xlink:href="#Cambria-Bold-15"/>
    </g>
   </g>
   <g id="text_43">
    <!-- R -->
    <g style="fill: #fcfcfb" transform="translate(321.902026 190.400494) scale(0.085 -0.085)">
     <use xlink:href="#Cambria-Bold-15"/>
    </g>
   </g>
   <g id="text_44">
    <!-- R -->
    <g style="fill: #fcfcfb" transform="translate(449.835359 190.400494) scale(0.085 -0.085)">
     <use xlink:href="#Cambria-Bold-15"/>
    </g>
   </g>
   <g id="text_45">
    <!-- R -->
    <g style="fill: #fcfcfb" transform="translate(108.679804 214.948654) scale(0.085 -0.085)">
     <use xlink:href="#Cambria-Bold-15"/>
    </g>
   </g>
   <g id="text_46">
    <!-- R -->
    <g style="fill: #fcfcfb" transform="translate(151.324248 214.948654) scale(0.085 -0.085)">
     <use xlink:href="#Cambria-Bold-15"/>
    </g>
   </g>
   <g id="text_47">
    <!-- R -->
    <g style="fill: #fcfcfb" transform="translate(193.968693 214.948654) scale(0.085 -0.085)">
     <use xlink:href="#Cambria-Bold-15"/>
    </g>
   </g>
   <g id="text_48">
    <!-- R -->
    <g style="fill: #fcfcfb" transform="translate(321.902026 214.948654) scale(0.085 -0.085)">
     <use xlink:href="#Cambria-Bold-15"/>
    </g>
   </g>
   <g id="text_49">
    <!-- R -->
    <g style="fill: #fcfcfb" transform="translate(364.54647 214.948654) scale(0.085 -0.085)">
     <use xlink:href="#Cambria-Bold-15"/>
    </g>
   </g>
   <g id="text_50">
    <!-- R -->
    <g style="fill: #fcfcfb" transform="translate(449.835359 214.948654) scale(0.085 -0.085)">
     <use xlink:href="#Cambria-Bold-15"/>
    </g>
   </g>
   <g id="legend_1">
    <g id="patch_75">
     <path d="M 99.525 247.960071 
L 116.525 247.960071 
L 116.525 242.010071 
L 99.525 242.010071 
z
" style="fill: #2a78d6"/>
    </g>
    <g id="text_51">
     <!-- R — required -->
     <g transform="translate(123.325 247.960071) scale(0.085 -0.085)">
      <defs>
       <path id="Cambria-204" d="M 6119 1438 
L 281 1438 
L 281 1850 
L 6119 1850 
L 6119 1438 
z
" transform="scale(0.015625)"/>
      </defs>
      <use xlink:href="#Cambria-15"/>
      <use xlink:href="#Cambria-3" transform="translate(62.109375 0)"/>
      <use xlink:href="#Cambria-204" transform="translate(84.125 0)"/>
      <use xlink:href="#Cambria-3" transform="translate(184.125 0)"/>
      <use xlink:href="#Cambria-94" transform="translate(206.140625 0)"/>
      <use xlink:href="#Cambria-87" transform="translate(246.03125 0)"/>
      <use xlink:href="#Cambria-93" transform="translate(294.8125 0)"/>
      <use xlink:href="#Cambria-97" transform="translate(349.5 0)"/>
      <use xlink:href="#Cambria-8b" transform="translate(404.71875 0)"/>
      <use xlink:href="#Cambria-94" transform="translate(432.5 0)"/>
      <use xlink:href="#Cambria-87" transform="translate(472.390625 0)"/>
      <use xlink:href="#Cambria-86" transform="translate(521.171875 0)"/>
     </g>
    </g>
    <g id="patch_76">
     <path d="M 189.339453 247.960071 
L 206.339453 247.960071 
L 206.339453 242.010071 
L 189.339453 242.010071 
z
" style="fill: #eda100"/>
    </g>
    <g id="text_52">
     <!-- I — implementation choice -->
     <g transform="translate(213.139453 247.960071) scale(0.085 -0.085)">
      <defs>
       <path id="Cambria-c" d="M 1331 781 
Q 1331 572 1345 475 
Q 1359 378 1392 322 
Q 1425 266 1489 228 
Q 1553 191 1697 153 
L 1697 0 
L 378 0 
L 378 153 
Q 572 203 637 264 
Q 703 325 723 437 
Q 744 550 744 781 
L 744 3484 
Q 744 3700 728 3798 
Q 713 3897 677 3951 
Q 641 4006 581 4039 
Q 522 4072 378 4113 
L 378 4266 
L 1697 4266 
L 1697 4113 
Q 1559 4078 1498 4043 
Q 1438 4009 1402 3957 
Q 1366 3906 1348 3803 
Q 1331 3700 1331 3484 
L 1331 781 
z
" transform="scale(0.015625)"/>
      </defs>
      <use xlink:href="#Cambria-c"/>
      <use xlink:href="#Cambria-3" transform="translate(32.421875 0)"/>
      <use xlink:href="#Cambria-204" transform="translate(54.4375 0)"/>
      <use xlink:href="#Cambria-3" transform="translate(154.4375 0)"/>
      <use xlink:href="#Cambria-8b" transform="translate(176.453125 0)"/>
      <use xlink:href="#Cambria-8f" transform="translate(204.234375 0)"/>
      <use xlink:href="#Cambria-92" transform="translate(287.4375 0)"/>
      <use xlink:href="#Cambria-8e" transform="translate(343.046875 0)"/>
      <use xlink:href="#Cambria-87" transform="translate(370.203125 0)"/>
      <use xlink:href="#Cambria-8f" transform="translate(418.984375 0)"/>
      <use xlink:href="#Cambria-87" transform="translate(502.1875 0)"/>
      <use xlink:href="#Cambria-90" transform="translate(550.96875 0)"/>
      <use xlink:href="#Cambria-96" transform="translate(606.78125 0)"/>
      <use xlink:href="#Cambria-83" transform="translate(640.625 0)"/>
      <use xlink:href="#Cambria-96" transform="translate(689.453125 0)"/>
      <use xlink:href="#Cambria-8b" transform="translate(723.296875 0)"/>
      <use xlink:href="#Cambria-91" transform="translate(751.078125 0)"/>
      <use xlink:href="#Cambria-90" transform="translate(804.15625 0)"/>
      <use xlink:href="#Cambria-3" transform="translate(859.96875 0)"/>
      <use xlink:href="#Cambria-85" transform="translate(881.984375 0)"/>
      <use xlink:href="#Cambria-8a" transform="translate(926.078125 0)"/>
      <use xlink:href="#Cambria-91" transform="translate(981.25 0)"/>
      <use xlink:href="#Cambria-8b" transform="translate(1034.328125 0)"/>
      <use xlink:href="#Cambria-85" transform="translate(1062.109375 0)"/>
      <use xlink:href="#Cambria-87" transform="translate(1106.203125 0)"/>
     </g>
    </g>
    <g id="patch_77">
     <path d="M 328.313125 247.960071 
L 345.313125 247.960071 
L 345.313125 242.010071 
L 328.313125 242.010071 
z
" style="fill: #fcfcfb; stroke: #e1e0d9; stroke-linejoin: miter"/>
    </g>
    <g id="text_53">
     <!-- — not used -->
     <g transform="translate(352.113125 247.960071) scale(0.085 -0.085)">
      <use xlink:href="#Cambria-204"/>
      <use xlink:href="#Cambria-3" transform="translate(100 0)"/>
      <use xlink:href="#Cambria-90" transform="translate(122.015625 0)"/>
      <use xlink:href="#Cambria-91" transform="translate(177.828125 0)"/>
      <use xlink:href="#Cambria-96" transform="translate(230.90625 0)"/>
      <use xlink:href="#Cambria-3" transform="translate(264.75 0)"/>
      <use xlink:href="#Cambria-97" transform="translate(286.765625 0)"/>
      <use xlink:href="#Cambria-95" transform="translate(341.984375 0)"/>
      <use xlink:href="#Cambria-87" transform="translate(384.953125 0)"/>
      <use xlink:href="#Cambria-86" transform="translate(433.734375 0)"/>
     </g>
    </g>
   </g>
  </g>
 </g>
 <defs>
  <clipPath id="pddbe184a71">
   <rect x="91.875" y="29.457813" width="383.8" height="196.385275"/>
  </clipPath>
 </defs>
</svg>
