<?xml version="1.0" encoding="utf-8" standalone="no"?>
<!DOCTYPE svg PUBLIC "-//W3C//DTD SVG 1.1//EN"
  "http://www.w3.org/Graphics/SVG/1.1/DTD/svg11.dtd">
<svg xmlns:xlink="http://www.w3.org/1999/xlink" width="529.219905pt" height="310.34pt" viewBox="0 0 529.219905 310.34" xmlns="http://www.w3.org/2000/svg" version="1.1">
 <metadata>
  <rdf:RDF xmlns:dc="http://purl.org/dc/elements/1.1/" xmlns:cc="http://creativecommons.org/ns#" xmlns:rdf="http://www.w3.org/1999/02/22-rdf-syntax-ns#">
   <cc:Work>
    <dc:type rdf:resource="http://purl.org/dc/dcmitype/StillImage"/>
    <dc:date>2026-07-23T00:55:28.248449</dc:date>
    <dc:format>image/svg+xml</dc:format>
    <dc:creator>
     <cc:Agent>
      <dc:title>Matplotlib v3.11.1, https://matplotlib.org/</dc:title>
     </cc:Agent>
    </dc:creator>
   </cc:Work>
  </rdf:RDF>
 </metadata>
 <defs>
  <style type="text/css">*{stroke-linejoin: round; stroke-linecap: butt}</style>
 </defs>
 <g id="figure_1">
  <g id="patch_1">
   <path d="M 0 310.34 
L 529.219905 310.34 
L 529.219905 0 
L 0 0 
z
" style="fill: #fcfcfb"/>
  </g>
  <g id="axes_1">
   <g id="patch_2">
    <path d="M 111.937594 268.197187 
L 502.102314 268.197187 
L 502.102314 24.88 
L 111.937594 24.88 
z
" style="fill: #fcfcfb"/>
   </g>
   <g id="matplotlib.axis_1">
    <g id="xtick_1">
     <g id="line2d_1">
      <path d="M 111.937594 268.197187 
L 111.937594 24.88 
" clip-path="url(#p271a0ff213)" style="fill: none; stroke: #e1e0d9; stroke-width: 0.7; stroke-linecap: square"/>
     </g>
     <g id="line2d_2">
      <defs>
       <path id="m6984a12fbb" d="M 0 0 
L 0 3.5 
" style="stroke: #898781; stroke-width: 0.8"/>
      </defs>
      <g>
       <use xlink:href="#m6984a12fbb" x="111.937594" y="268.197187" style="fill: #898781; stroke: #898781; stroke-width: 0.8"/>
      </g>
     </g>
     <g id="text_1">
      <!-- 0 -->
      <g style="fill: #52514e" transform="translate(108.597281 283.174727) scale(0.105 -0.105)">
       <defs>
        <path id="DejaVuSerif-13" d="M 2034 219 
Q 2513 219 2750 744 
Q 2988 1269 2988 2328 
Q 2988 3391 2750 3916 
Q 2513 4441 2034 4441 
Q 1556 4441 1318 3916 
Q 1081 3391 1081 2328 
Q 1081 1269 1318 744 
Q 1556 219 2034 219 
z
M 2034 -91 
Q 1275 -91 848 546 
Q 422 1184 422 2328 
Q 422 3475 848 4112 
Q 1275 4750 2034 4750 
Q 2797 4750 3222 4112 
Q 3647 3475 3647 2328 
Q 3647 1184 3222 546 
Q 2797 -91 2034 -91 
z
" transform="scale(0.015625)"/>
       </defs>
       <use xlink:href="#DejaVuSerif-13"/>
      </g>
     </g>
    </g>
    <g id="xtick_2">
     <g id="line2d_3">
      <path d="M 189.970538 268.197187 
L 189.970538 24.88 
" clip-path="url(#p271a0ff213)" style="fill: none; stroke: #e1e0d9; stroke-width: 0.7; stroke-linecap: square"/>
     </g>
     <g id="line2d_4">
      <g>
       <use xlink:href="#m6984a12fbb" x="189.970538" y="268.197187" style="fill: #898781; stroke: #898781; stroke-width: 0.8"/>
      </g>
     </g>
     <g id="text_2">
      <!-- 100 -->
      <g style="fill: #52514e" transform="translate(179.9496 283.174727) scale(0.105 -0.105)">
       <defs>
        <path id="DejaVuSerif-14" d="M 909 0 
L 909 331 
L 1722 331 
L 1722 4213 
L 781 3603 
L 781 4013 
L 1919 4750 
L 2350 4750 
L 2350 331 
L 3163 331 
L 3163 0 
L 909 0 
z
" transform="scale(0.015625)"/>
       </defs>
       <use xlink:href="#DejaVuSerif-14"/>
       <use xlink:href="#DejaVuSerif-13" transform="translate(63.625 0)"/>
       <use xlink:href="#DejaVuSerif-13" transform="translate(127.25 0)"/>
      </g>
     </g>
    </g>
    <g id="xtick_3">
     <g id="line2d_5">
      <path d="M 268.003482 268.197187 
L 268.003482 24.88 
" clip-path="url(#p271a0ff213)" style="fill: none; stroke: #e1e0d9; stroke-width: 0.7; stroke-linecap: square"/>
     </g>
     <g id="line2d_6">
      <g>
       <use xlink:href="#m6984a12fbb" x="268.003482" y="268.197187" style="fill: #898781; stroke: #898781; stroke-width: 0.8"/>
      </g>
     </g>
     <g id="text_3">
      <!-- 200 -->
      <g style="fill: #52514e" transform="translate(257.982544 283.174727) scale(0.105 -0.105)">
       <defs>
        <path id="DejaVuSerif-15" d="M 819 3553 
L 469 3553 
L 469 4384 
Q 803 4563 1142 4656 
Q 1481 4750 1806 4750 
Q 2534 4750 2956 4397 
Q 3378 4044 3378 3438 
Q 3378 2753 2422 1800 
Q 2347 1728 2309 1691 
L 1131 513 
L 3078 513 
L 3078 1088 
L 3444 1088 
L 3444 0 
L 434 0 
L 434 341 
L 1850 1753 
Q 2319 2222 2519 2614 
Q 2719 3006 2719 3438 
Q 2719 3909 2473 4175 
Q 2228 4441 1797 4441 
Q 1350 4441 1106 4219 
Q 863 3997 819 3553 
z
" transform="scale(0.015625)"/>
       </defs>
       <use xlink:href="#DejaVuSerif-15"/>
       <use xlink:href="#DejaVuSerif-13" transform="translate(63.625 0)"/>
       <use xlink:href="#DejaVuSerif-13" transform="translate(127.25 0)"/>
      </g>
     </g>
    </g>
    <g id="xtick_4">
     <g id="line2d_7">
      <path d="M 346.036426 268.197187 
L 346.036426 24.88 
" clip-path="url(#p271a0ff213)" style="fill: none; stroke: #e1e0d9; stroke-width: 0.7; stroke-linecap: square"/>
     </g>
     <g id="line2d_8">
      <g>
       <use xlink:href="#m6984a12fbb" x="346.036426" y="268.197187" style="fill: #898781; stroke: #898781; stroke-width: 0.8"/>
      </g>
     </g>
     <g id="text_4">
      <!-- 300 -->
      <g style="fill: #52514e" transform="translate(336.015488 283.174727) scale(0.105 -0.105)">
       <defs>
        <path id="DejaVuSerif-16" d="M 622 4469 
Q 988 4606 1323 4678 
Q 1659 4750 1953 4750 
Q 2638 4750 3022 4454 
Q 3406 4159 3406 3634 
Q 3406 3213 3140 2930 
Q 2875 2647 2388 2547 
Q 2963 2466 3280 2130 
Q 3597 1794 3597 1259 
Q 3597 606 3158 257 
Q 2719 -91 1894 -91 
Q 1528 -91 1179 -12 
Q 831 66 488 225 
L 488 1131 
L 838 1131 
Q 869 681 1141 450 
Q 1413 219 1906 219 
Q 2384 219 2661 495 
Q 2938 772 2938 1253 
Q 2938 1803 2653 2086 
Q 2369 2369 1819 2369 
L 1522 2369 
L 1522 2688 
L 1678 2688 
Q 2225 2688 2498 2914 
Q 2772 3141 2772 3597 
Q 2772 4006 2547 4223 
Q 2322 4441 1900 4441 
Q 1478 4441 1245 4241 
Q 1013 4041 972 3647 
L 622 3647 
L 622 4469 
z
" transform="scale(0.015625)"/>
       </defs>
       <use xlink:href="#DejaVuSerif-16"/>
       <use xlink:href="#DejaVuSerif-13" transform="translate(63.625 0)"/>
       <use xlink:href="#DejaVuSerif-13" transform="translate(127.25 0)"/>
      </g>
     </g>
    </g>
    <g id="xtick_5">
     <g id="line2d_9">
      <path d="M 424.06937 268.197187 
L 424.06937 24.88 
" clip-path="url(#p271a0ff213)" style="fill: none; stroke: #e1e0d9; stroke-width: 0.7; stroke-linecap: square"/>
     </g>
     <g id="line2d_10">
      <g>
       <use xlink:href="#m6984a12fbb" x="424.06937" y="268.197187" style="fill: #898781; stroke: #898781; stroke-width: 0.8"/>
      </g>
     </g>
     <g id="text_5">
      <!-- 400 -->
      <g style="fill: #52514e" transform="translate(414.048432 283.174727) scale(0.105 -0.105)">
       <defs>
        <path id="DejaVuSerif-17" d="M 2234 1581 
L 2234 4063 
L 641 1581 
L 2234 1581 
z
M 3609 0 
L 1484 0 
L 1484 331 
L 2234 331 
L 2234 1247 
L 197 1247 
L 197 1588 
L 2241 4750 
L 2859 4750 
L 2859 1581 
L 3750 1581 
L 3750 1247 
L 2859 1247 
L 2859 331 
L 3609 331 
L 3609 0 
z
" transform="scale(0.015625)"/>
       </defs>
       <use xlink:href="#DejaVuSerif-17"/>
       <use xlink:href="#DejaVuSerif-13" transform="translate(63.625 0)"/>
       <use xlink:href="#DejaVuSerif-13" transform="translate(127.25 0)"/>
      </g>
     </g>
    </g>
    <g id="xtick_6">
     <g id="line2d_11">
      <path d="M 502.102314 268.197187 
L 502.102314 24.88 
" clip-path="url(#p271a0ff213)" style="fill: none; stroke: #e1e0d9; stroke-width: 0.7; stroke-linecap: square"/>
     </g>
     <g id="line2d_12">
      <g>
       <use xlink:href="#m6984a12fbb" x="502.102314" y="268.197187" style="fill: #898781; stroke: #898781; stroke-width: 0.8"/>
      </g>
     </g>
     <g id="text_6">
      <!-- 500 -->
      <g style="fill: #52514e" transform="translate(492.081376 283.174727) scale(0.105 -0.105)">
       <defs>
        <path id="DejaVuSerif-18" d="M 3219 4666 
L 3219 4153 
L 1081 4153 
L 1081 2816 
Q 1244 2928 1461 2984 
Q 1678 3041 1947 3041 
Q 2703 3041 3140 2622 
Q 3578 2203 3578 1478 
Q 3578 738 3136 323 
Q 2694 -91 1894 -91 
Q 1572 -91 1234 -12 
Q 897 66 544 225 
L 544 1131 
L 897 1131 
Q 925 688 1179 453 
Q 1434 219 1894 219 
Q 2388 219 2653 544 
Q 2919 869 2919 1478 
Q 2919 2084 2655 2407 
Q 2391 2731 1894 2731 
Q 1613 2731 1398 2631 
Q 1184 2531 1019 2322 
L 750 2322 
L 750 4666 
L 3219 4666 
z
" transform="scale(0.015625)"/>
       </defs>
       <use xlink:href="#DejaVuSerif-18"/>
       <use xlink:href="#DejaVuSerif-13" transform="translate(63.625 0)"/>
       <use xlink:href="#DejaVuSerif-13" transform="translate(127.25 0)"/>
      </g>
     </g>
    </g>
    <g id="text_7">
     <!-- bits:   $\log_2 d$  (circle)   vs   $\log_2 N^2$  (square) -->
     <g style="fill: #0b0b0b" transform="translate(181.259954 300.257187) scale(0.12 -0.12)">
      <defs>
       <path id="DejaVuSerif-45" d="M 738 331 
L 738 4531 
L 184 4531 
L 184 4863 
L 1313 4863 
L 1313 2803 
Q 1481 3116 1742 3264 
Q 2003 3413 2388 3413 
Q 3000 3413 3387 2928 
Q 3775 2444 3775 1663 
Q 3775 881 3387 395 
Q 3000 -91 2388 -91 
Q 2003 -91 1742 57 
Q 1481 206 1313 519 
L 1313 0 
L 184 0 
L 184 331 
L 738 331 
z
M 1313 1497 
Q 1313 897 1542 583 
Q 1772 269 2209 269 
Q 2650 269 2876 622 
Q 3103 975 3103 1663 
Q 3103 2353 2876 2703 
Q 2650 3053 2209 3053 
Q 1772 3053 1542 2737 
Q 1313 2422 1313 1825 
L 1313 1497 
z
" transform="scale(0.015625)"/>
       <path id="DejaVuSerif-4c" d="M 622 4353 
Q 622 4497 726 4603 
Q 831 4709 978 4709 
Q 1122 4709 1226 4603 
Q 1331 4497 1331 4353 
Q 1331 4206 1228 4103 
Q 1125 4000 978 4000 
Q 831 4000 726 4103 
Q 622 4206 622 4353 
z
M 1356 331 
L 1900 331 
L 1900 0 
L 231 0 
L 231 331 
L 781 331 
L 781 2988 
L 231 2988 
L 231 3322 
L 1356 3322 
L 1356 331 
z
" transform="scale(0.015625)"/>
       <path id="DejaVuSerif-57" d="M 691 2988 
L 184 2988 
L 184 3322 
L 691 3322 
L 691 4353 
L 1269 4353 
L 1269 3322 
L 2350 3322 
L 2350 2988 
L 1269 2988 
L 1269 878 
Q 1269 456 1350 337 
Q 1431 219 1650 219 
Q 1875 219 1978 351 
Q 2081 484 2088 781 
L 2522 781 
Q 2497 328 2275 118 
Q 2053 -91 1600 -91 
Q 1103 -91 897 129 
Q 691 350 691 878 
L 691 2988 
z
" transform="scale(0.015625)"/>
       <path id="DejaVuSerif-56" d="M 359 184 
L 359 959 
L 691 959 
Q 703 588 923 403 
Q 1144 219 1575 219 
Q 1963 219 2166 364 
Q 2369 509 2369 788 
Q 2369 1006 2220 1140 
Q 2072 1275 1594 1428 
L 1178 1569 
Q 750 1706 558 1912 
Q 366 2119 366 2438 
Q 366 2894 700 3153 
Q 1034 3413 1625 3413 
Q 1888 3413 2178 3344 
Q 2469 3275 2778 3144 
L 2778 2419 
L 2447 2419 
Q 2434 2741 2221 2922 
Q 2009 3103 1644 3103 
Q 1281 3103 1095 2975 
Q 909 2847 909 2591 
Q 909 2381 1050 2254 
Q 1191 2128 1613 1997 
L 2069 1856 
Q 2541 1709 2748 1489 
Q 2956 1269 2956 922 
Q 2956 450 2595 179 
Q 2234 -91 1600 -91 
Q 1278 -91 972 -22 
Q 666 47 359 184 
z
" transform="scale(0.015625)"/>
       <path id="DejaVuSerif-1d" d="M 666 325 
Q 666 500 786 622 
Q 906 744 1081 744 
Q 1256 744 1376 622 
Q 1497 500 1497 325 
Q 1497 150 1378 29 
Q 1259 -91 1081 -91 
Q 903 -91 784 29 
Q 666 150 666 325 
z
M 666 2363 
Q 666 2538 786 2658 
Q 906 2778 1081 2778 
Q 1259 2778 1378 2659 
Q 1497 2541 1497 2363 
Q 1497 2184 1378 2065 
Q 1259 1947 1081 1947 
Q 906 1947 786 2067 
Q 666 2188 666 2363 
z
" transform="scale(0.015625)"/>
       <path id="DejaVuSerif-3" transform="scale(0.015625)"/>
       <path id="Cmr10-6a" d="M 197 0 
L 197 225 
Q 416 225 556 259 
Q 697 294 697 428 
L 697 3788 
Q 697 3959 645 4036 
Q 594 4113 497 4130 
Q 400 4147 197 4147 
L 197 4372 
L 1147 4441 
L 1147 428 
Q 1147 294 1287 259 
Q 1428 225 1644 225 
L 1644 0 
L 197 0 
z
" transform="scale(0.015625)"/>
       <path id="Cmr10-42" d="M 1600 -72 
Q 1216 -72 887 123 
Q 559 319 368 647 
Q 178 975 178 1363 
Q 178 1656 283 1928 
Q 388 2200 583 2414 
Q 778 2628 1037 2748 
Q 1297 2869 1600 2869 
Q 1994 2869 2317 2661 
Q 2641 2453 2828 2104 
Q 3016 1756 3016 1363 
Q 3016 978 2825 648 
Q 2634 319 2307 123 
Q 1981 -72 1600 -72 
z
M 1600 116 
Q 2113 116 2284 487 
Q 2456 859 2456 1434 
Q 2456 1756 2422 1967 
Q 2388 2178 2272 2350 
Q 2200 2456 2089 2536 
Q 1978 2616 1854 2658 
Q 1731 2700 1600 2700 
Q 1400 2700 1220 2609 
Q 1041 2519 922 2350 
Q 803 2169 770 1951 
Q 738 1734 738 1434 
Q 738 1075 800 789 
Q 863 503 1052 309 
Q 1241 116 1600 116 
z
" transform="scale(0.015625)"/>
       <path id="Cmr10-1b" d="M 178 -500 
Q 178 -272 343 -101 
Q 509 69 738 141 
Q 609 238 542 384 
Q 475 531 475 697 
Q 475 997 666 1228 
Q 372 1516 372 1888 
Q 372 2088 458 2263 
Q 544 2438 697 2566 
Q 850 2694 1037 2761 
Q 1225 2828 1422 2828 
Q 1803 2828 2106 2606 
Q 2238 2747 2417 2823 
Q 2597 2900 2791 2900 
Q 2928 2900 3015 2801 
Q 3103 2703 3103 2566 
Q 3103 2488 3043 2428 
Q 2984 2369 2906 2369 
Q 2825 2369 2765 2428 
Q 2706 2488 2706 2566 
Q 2706 2684 2784 2731 
Q 2453 2731 2216 2503 
Q 2331 2388 2401 2220 
Q 2472 2053 2472 1888 
Q 2472 1616 2322 1398 
Q 2172 1181 1926 1061 
Q 1681 941 1422 941 
Q 1072 941 781 1131 
Q 691 1006 691 850 
Q 691 681 802 554 
Q 913 428 1081 428 
L 1606 428 
Q 1988 428 2294 359 
Q 2600 291 2808 84 
Q 3016 -122 3016 -500 
Q 3016 -781 2778 -967 
Q 2541 -1153 2211 -1236 
Q 1881 -1319 1600 -1319 
Q 1316 -1319 984 -1236 
Q 653 -1153 415 -967 
Q 178 -781 178 -500 
z
M 538 -500 
Q 538 -716 713 -861 
Q 888 -1006 1134 -1076 
Q 1381 -1147 1600 -1147 
Q 1816 -1147 2062 -1076 
Q 2309 -1006 2482 -861 
Q 2656 -716 2656 -500 
Q 2656 -166 2350 -67 
Q 2044 31 1606 31 
L 1081 31 
Q 934 31 811 -39 
Q 688 -109 613 -236 
Q 538 -363 538 -500 
z
M 1422 1113 
Q 1966 1113 1966 1888 
Q 1966 2222 1850 2439 
Q 1734 2656 1422 2656 
Q 1109 2656 993 2439 
Q 878 2222 878 1888 
Q 878 1675 922 1503 
Q 966 1331 1084 1222 
Q 1203 1113 1422 1113 
z
" transform="scale(0.015625)"/>
       <path id="Cmr10-31" d="M 319 0 
L 319 172 
Q 319 188 331 206 
L 1325 1306 
Q 1550 1550 1690 1715 
Q 1831 1881 1968 2097 
Q 2106 2313 2186 2536 
Q 2266 2759 2266 3009 
Q 2266 3272 2169 3511 
Q 2072 3750 1880 3894 
Q 1688 4038 1416 4038 
Q 1138 4038 916 3870 
Q 694 3703 603 3438 
Q 628 3444 672 3444 
Q 816 3444 917 3347 
Q 1019 3250 1019 3097 
Q 1019 2950 917 2848 
Q 816 2747 672 2747 
Q 522 2747 420 2851 
Q 319 2956 319 3097 
Q 319 3338 409 3548 
Q 500 3759 670 3923 
Q 841 4088 1055 4175 
Q 1269 4263 1509 4263 
Q 1875 4263 2190 4108 
Q 2506 3953 2690 3670 
Q 2875 3388 2875 3009 
Q 2875 2731 2753 2481 
Q 2631 2231 2440 2026 
Q 2250 1822 1953 1562 
Q 1656 1303 1563 1216 
L 838 519 
L 1453 519 
Q 1906 519 2211 526 
Q 2516 534 2534 550 
Q 2609 631 2688 1141 
L 2875 1141 
L 2694 0 
L 319 0 
z
" transform="scale(0.015625)"/>
       <path id="Cmmi10-51" d="M 1113 -72 
Q 709 -72 476 233 
Q 244 538 244 953 
Q 244 1363 456 1803 
Q 669 2244 1030 2536 
Q 1391 2828 1806 2828 
Q 1994 2828 2145 2723 
Q 2297 2619 2381 2444 
L 2741 3872 
Q 2766 3981 2772 4044 
Q 2772 4147 2356 4147 
Q 2291 4147 2291 4231 
Q 2294 4247 2305 4287 
Q 2316 4328 2333 4350 
Q 2350 4372 2381 4372 
L 3244 4441 
Q 3322 4441 3322 4359 
L 2400 678 
Q 2356 572 2356 372 
Q 2356 97 2541 97 
Q 2741 97 2845 351 
Q 2950 606 3022 941 
Q 3034 978 3072 978 
L 3150 978 
Q 3175 978 3190 956 
Q 3206 934 3206 916 
Q 3094 469 2961 198 
Q 2828 -72 2528 -72 
Q 2313 -72 2147 54 
Q 1981 181 1941 391 
Q 1528 -72 1113 -72 
z
M 1119 97 
Q 1350 97 1567 270 
Q 1784 444 1941 678 
Q 1947 684 1947 703 
L 2297 2113 
Q 2259 2338 2131 2500 
Q 2003 2663 1791 2663 
Q 1575 2663 1389 2486 
Q 1203 2309 1075 2069 
Q 950 1813 836 1366 
Q 722 919 722 672 
Q 722 450 817 273 
Q 913 97 1119 97 
z
" transform="scale(0.015625)"/>
       <path id="DejaVuSerif-b" d="M 2041 -997 
Q 1281 -656 893 83 
Q 506 822 506 1931 
Q 506 3044 893 3783 
Q 1281 4522 2041 4863 
L 2041 4556 
Q 1559 4225 1350 3623 
Q 1141 3022 1141 1931 
Q 1141 844 1350 242 
Q 1559 -359 2041 -691 
L 2041 -997 
z
" transform="scale(0.015625)"/>
       <path id="DejaVuSerif-46" d="M 3291 997 
Q 3169 466 2822 187 
Q 2475 -91 1925 -91 
Q 1200 -91 759 389 
Q 319 869 319 1663 
Q 319 2459 759 2936 
Q 1200 3413 1925 3413 
Q 2241 3413 2553 3339 
Q 2866 3266 3181 3116 
L 3181 2266 
L 2847 2266 
Q 2781 2703 2561 2903 
Q 2341 3103 1931 3103 
Q 1466 3103 1228 2742 
Q 991 2381 991 1663 
Q 991 944 1227 581 
Q 1463 219 1931 219 
Q 2303 219 2525 412 
Q 2747 606 2828 997 
L 3291 997 
z
" transform="scale(0.015625)"/>
       <path id="DejaVuSerif-55" d="M 3059 3328 
L 3059 2497 
L 2728 2497 
Q 2713 2744 2591 2866 
Q 2469 2988 2234 2988 
Q 1809 2988 1582 2694 
Q 1356 2400 1356 1850 
L 1356 331 
L 2022 331 
L 2022 0 
L 263 0 
L 263 331 
L 781 331 
L 781 2994 
L 231 2994 
L 231 3322 
L 1356 3322 
L 1356 2731 
Q 1525 3078 1790 3245 
Q 2056 3413 2438 3413 
Q 2578 3413 2733 3391 
Q 2888 3369 3059 3328 
z
" transform="scale(0.015625)"/>
       <path id="DejaVuSerif-4f" d="M 1313 331 
L 1856 331 
L 1856 0 
L 184 0 
L 184 331 
L 738 331 
L 738 4531 
L 184 4531 
L 184 4863 
L 1313 4863 
L 1313 331 
z
" transform="scale(0.015625)"/>
       <path id="DejaVuSerif-48" d="M 3469 1600 
L 991 1600 
L 991 1575 
Q 991 903 1244 561 
Q 1497 219 1991 219 
Q 2369 219 2611 417 
Q 2853 616 2950 1006 
L 3413 1006 
Q 3275 459 2904 184 
Q 2534 -91 1931 -91 
Q 1203 -91 761 389 
Q 319 869 319 1663 
Q 319 2450 753 2931 
Q 1188 3413 1894 3413 
Q 2647 3413 3050 2948 
Q 3453 2484 3469 1600 
z
M 2791 1931 
Q 2772 2513 2545 2808 
Q 2319 3103 1894 3103 
Q 1497 3103 1269 2806 
Q 1041 2509 991 1931 
L 2791 1931 
z
" transform="scale(0.015625)"/>
       <path id="DejaVuSerif-c" d="M 453 -997 
L 453 -691 
Q 934 -359 1145 242 
Q 1356 844 1356 1931 
Q 1356 3022 1145 3623 
Q 934 4225 453 4556 
L 453 4863 
Q 1216 4522 1603 3783 
Q 1991 3044 1991 1931 
Q 1991 822 1603 83 
Q 1216 -656 453 -997 
z
" transform="scale(0.015625)"/>
       <path id="DejaVuSerif-59" d="M 1581 0 
L 359 2988 
L -19 2988 
L -19 3322 
L 1509 3322 
L 1509 2988 
L 978 2988 
L 1913 703 
L 2847 2988 
L 2350 2988 
L 2350 3322 
L 3597 3322 
L 3597 2988 
L 3225 2988 
L 2003 0 
L 1581 0 
z
" transform="scale(0.015625)"/>
       <path id="Cmmi10-5d" d="M 300 0 
Q 238 0 238 84 
Q 241 100 250 139 
Q 259 178 276 201 
Q 294 225 319 225 
Q 931 225 1031 616 
L 1900 4116 
Q 1722 4147 1338 4147 
Q 1275 4147 1275 4231 
Q 1278 4247 1287 4286 
Q 1297 4325 1314 4348 
Q 1331 4372 1356 4372 
L 2463 4372 
Q 2509 4372 2522 4331 
L 3944 947 
L 4653 3781 
Q 4666 3850 4666 3878 
Q 4666 4147 4172 4147 
Q 4109 4147 4109 4231 
Q 4131 4313 4143 4342 
Q 4156 4372 4219 4372 
L 5588 4372 
Q 5650 4372 5650 4288 
Q 5647 4272 5637 4233 
Q 5628 4194 5611 4170 
Q 5594 4147 5569 4147 
Q 4956 4147 4856 3756 
L 3938 56 
Q 3916 0 3872 0 
L 3794 0 
Q 3750 0 3738 44 
L 2106 3916 
L 2094 3956 
Q 2081 3969 2081 3975 
L 1234 588 
Q 1228 572 1225 548 
Q 1222 525 1216 494 
Q 1216 328 1359 276 
Q 1503 225 1716 225 
Q 1778 225 1778 141 
Q 1756 53 1740 26 
Q 1725 0 1672 0 
L 300 0 
z
" transform="scale(0.015625)"/>
       <path id="DejaVuSerif-54" d="M 3359 2988 
L 3359 -997 
L 3909 -997 
L 3909 -1331 
L 2241 -1331 
L 2241 -997 
L 2784 -997 
L 2784 519 
Q 2616 206 2355 57 
Q 2094 -91 1709 -91 
Q 1097 -91 708 395 
Q 319 881 319 1663 
Q 319 2444 706 2928 
Q 1094 3413 1709 3413 
Q 2094 3413 2355 3264 
Q 2616 3116 2784 2803 
L 2784 3322 
L 3909 3322 
L 3909 2988 
L 3359 2988 
z
M 2784 1825 
Q 2784 2422 2554 2737 
Q 2325 3053 1888 3053 
Q 1444 3053 1217 2703 
Q 991 2353 991 1663 
Q 991 975 1217 622 
Q 1444 269 1888 269 
Q 2325 269 2554 583 
Q 2784 897 2784 1497 
L 2784 1825 
z
" transform="scale(0.015625)"/>
       <path id="DejaVuSerif-58" d="M 2266 3322 
L 3341 3322 
L 3341 331 
L 3884 331 
L 3884 0 
L 2766 0 
L 2766 588 
Q 2606 256 2353 82 
Q 2100 -91 1766 -91 
Q 1213 -91 952 223 
Q 691 538 691 1209 
L 691 2988 
L 172 2988 
L 172 3322 
L 1269 3322 
L 1269 1388 
Q 1269 781 1417 556 
Q 1566 331 1947 331 
Q 2347 331 2556 625 
Q 2766 919 2766 1478 
L 2766 2988 
L 2266 2988 
L 2266 3322 
z
" transform="scale(0.015625)"/>
       <path id="DejaVuSerif-44" d="M 2547 1044 
L 2547 1747 
L 1806 1747 
Q 1378 1747 1168 1562 
Q 959 1378 959 997 
Q 959 650 1171 447 
Q 1384 244 1747 244 
Q 2106 244 2326 466 
Q 2547 688 2547 1044 
z
M 3122 2075 
L 3122 331 
L 3634 331 
L 3634 0 
L 2547 0 
L 2547 359 
Q 2356 128 2106 18 
Q 1856 -91 1522 -91 
Q 969 -91 644 203 
Q 319 497 319 997 
Q 319 1513 691 1797 
Q 1063 2081 1741 2081 
L 2547 2081 
L 2547 2309 
Q 2547 2688 2317 2895 
Q 2088 3103 1672 3103 
Q 1328 3103 1125 2947 
Q 922 2791 872 2484 
L 575 2484 
L 575 3156 
Q 875 3284 1158 3348 
Q 1441 3413 1709 3413 
Q 2400 3413 2761 3070 
Q 3122 2728 3122 2075 
z
" transform="scale(0.015625)"/>
      </defs>
      <use xlink:href="#DejaVuSerif-45" transform="translate(0 0.084203)"/>
      <use xlink:href="#DejaVuSerif-4c" transform="translate(64.013672 0.084203)"/>
      <use xlink:href="#DejaVuSerif-57" transform="translate(95.996094 0.084203)"/>
      <use xlink:href="#DejaVuSerif-56" transform="translate(136.181641 0.084203)"/>
      <use xlink:href="#DejaVuSerif-1d" transform="translate(187.5 0.084203)"/>
      <use xlink:href="#DejaVuSerif-3" transform="translate(221.191406 0.084203)"/>
      <use xlink:href="#DejaVuSerif-3" transform="translate(252.978516 0.084203)"/>
      <use xlink:href="#DejaVuSerif-3" transform="translate(284.765625 0.084203)"/>
      <use xlink:href="#Cmr10-6a" transform="translate(316.552734 0.084203)"/>
      <use xlink:href="#Cmr10-42" transform="translate(344.238281 0.084203)"/>
      <use xlink:href="#Cmr10-1b" transform="translate(394.238281 0.084203)"/>
      <use xlink:href="#Cmr10-31" transform="translate(448.242572 -14.915759) scale(0.7)"/>
      <use xlink:href="#Cmmi10-51" transform="translate(505.630035 0.084203)"/>
      <use xlink:href="#DejaVuSerif-3" transform="translate(557.631988 0.084203)"/>
      <use xlink:href="#DejaVuSerif-3" transform="translate(589.419098 0.084203)"/>
      <use xlink:href="#DejaVuSerif-b" transform="translate(621.206207 0.084203)"/>
      <use xlink:href="#DejaVuSerif-46" transform="translate(660.219879 0.084203)"/>
      <use xlink:href="#DejaVuSerif-4c" transform="translate(716.225738 0.084203)"/>
      <use xlink:href="#DejaVuSerif-55" transform="translate(748.20816 0.084203)"/>
      <use xlink:href="#DejaVuSerif-46" transform="translate(796.010895 0.084203)"/>
      <use xlink:href="#DejaVuSerif-4f" transform="translate(852.016754 0.084203)"/>
      <use xlink:href="#DejaVuSerif-48" transform="translate(883.999176 0.084203)"/>
      <use xlink:href="#DejaVuSerif-c" transform="translate(943.178863 0.084203)"/>
      <use xlink:href="#DejaVuSerif-3" transform="translate(982.192535 0.084203)"/>
      <use xlink:href="#DejaVuSerif-3" transform="translate(1013.979645 0.084203)"/>
      <use xlink:href="#DejaVuSerif-3" transform="translate(1045.766754 0.084203)"/>
      <use xlink:href="#DejaVuSerif-59" transform="translate(1077.553863 0.084203)"/>
      <use xlink:href="#DejaVuSerif-56" transform="translate(1134.048004 0.084203)"/>
      <use xlink:href="#DejaVuSerif-3" transform="translate(1185.366363 0.084203)"/>
      <use xlink:href="#DejaVuSerif-3" transform="translate(1217.153473 0.084203)"/>
      <use xlink:href="#DejaVuSerif-3" transform="translate(1248.940582 0.084203)"/>
      <use xlink:href="#Cmr10-6a" transform="translate(1280.727691 0.084203)"/>
      <use xlink:href="#Cmr10-42" transform="translate(1308.413238 0.084203)"/>
      <use xlink:href="#Cmr10-1b" transform="translate(1358.413238 0.084203)"/>
      <use xlink:href="#Cmr10-31" transform="translate(1412.417529 -14.915759) scale(0.7)"/>
      <use xlink:href="#Cmmi10-5d" transform="translate(1469.804992 0.084203)"/>
      <use xlink:href="#Cmr10-31" transform="translate(1566.45369 41.373437) scale(0.7)"/>
      <use xlink:href="#DejaVuSerif-3" transform="translate(1607.174105 0.084203)"/>
      <use xlink:href="#DejaVuSerif-3" transform="translate(1638.961215 0.084203)"/>
      <use xlink:href="#DejaVuSerif-b" transform="translate(1670.748324 0.084203)"/>
      <use xlink:href="#DejaVuSerif-56" transform="translate(1709.761996 0.084203)"/>
      <use xlink:href="#DejaVuSerif-54" transform="translate(1761.080355 0.084203)"/>
      <use xlink:href="#DejaVuSerif-58" transform="translate(1825.094027 0.084203)"/>
      <use xlink:href="#DejaVuSerif-44" transform="translate(1889.498324 0.084203)"/>
      <use xlink:href="#DejaVuSerif-55" transform="translate(1949.117465 0.084203)"/>
      <use xlink:href="#DejaVuSerif-48" transform="translate(1996.920199 0.084203)"/>
      <use xlink:href="#DejaVuSerif-c" transform="translate(2056.099887 0.084203)"/>
     </g>
    </g>
   </g>
   <g id="matplotlib.axis_2">
    <g id="ytick_1">
     <g id="line2d_13">
      <path d="M 111.937594 247.920755 
L 502.102314 247.920755 
" clip-path="url(#p271a0ff213)" style="fill: none; stroke: #e1e0d9; stroke-width: 0.7; stroke-linecap: square"/>
     </g>
     <g id="line2d_14">
      <defs>
       <path id="m7ae3f7ddb4" d="M 0 0 
L -3.5 0 
" style="stroke: #898781; stroke-width: 0.8"/>
      </defs>
      <g>
       <use xlink:href="#m7ae3f7ddb4" x="111.937594" y="247.920755" style="fill: #898781; stroke: #898781; stroke-width: 0.8"/>
      </g>
     </g>
     <g id="text_8">
      <!-- B4-below-boundary -->
      <g style="fill: #52514e" transform="translate(24.031781 251.036115) scale(0.082 -0.082)">
       <defs>
        <path id="DejaVuSerif-25" d="M 1581 331 
L 2516 331 
Q 3078 331 3337 575 
Q 3597 819 3597 1350 
Q 3597 1878 3339 2120 
Q 3081 2363 2516 2363 
L 1581 2363 
L 1581 331 
z
M 1581 2694 
L 2375 2694 
Q 2888 2694 3123 2891 
Q 3359 3088 3359 3513 
Q 3359 3941 3123 4136 
Q 2888 4331 2375 4331 
L 1581 4331 
L 1581 2694 
z
M 353 0 
L 353 331 
L 947 331 
L 947 4331 
L 353 4331 
L 353 4666 
L 2656 4666 
Q 3363 4666 3720 4377 
Q 4078 4088 4078 3513 
Q 4078 3097 3829 2850 
Q 3581 2603 3103 2547 
Q 3697 2472 4005 2167 
Q 4313 1863 4313 1350 
Q 4313 656 3875 328 
Q 3438 0 2509 0 
L 353 0 
z
" transform="scale(0.015625)"/>
        <path id="DejaVuSerif-10" d="M 281 1959 
L 1881 1959 
L 1881 1472 
L 281 1472 
L 281 1959 
z
" transform="scale(0.015625)"/>
        <path id="DejaVuSerif-52" d="M 1925 219 
Q 2388 219 2623 584 
Q 2859 950 2859 1663 
Q 2859 2375 2623 2739 
Q 2388 3103 1925 3103 
Q 1463 3103 1227 2739 
Q 991 2375 991 1663 
Q 991 950 1228 584 
Q 1466 219 1925 219 
z
M 1925 -91 
Q 1200 -91 759 389 
Q 319 869 319 1663 
Q 319 2456 758 2934 
Q 1197 3413 1925 3413 
Q 2653 3413 3092 2934 
Q 3531 2456 3531 1663 
Q 3531 869 3092 389 
Q 2653 -91 1925 -91 
z
" transform="scale(0.015625)"/>
        <path id="DejaVuSerif-5a" d="M 3072 3322 
L 3922 728 
L 4672 2988 
L 4191 2988 
L 4191 3322 
L 5394 3322 
L 5394 2988 
L 5025 2988 
L 4038 0 
L 3559 0 
L 2741 2484 
L 1919 0 
L 1459 0 
L 475 2988 
L 103 2988 
L 103 3322 
L 1606 3322 
L 1606 2988 
L 1069 2988 
L 1813 728 
L 2669 3322 
L 3072 3322 
z
" transform="scale(0.015625)"/>
        <path id="DejaVuSerif-51" d="M 263 0 
L 263 331 
L 781 331 
L 781 2988 
L 231 2988 
L 231 3322 
L 1356 3322 
L 1356 2731 
Q 1516 3069 1770 3241 
Q 2025 3413 2363 3413 
Q 2913 3413 3172 3097 
Q 3431 2781 3431 2113 
L 3431 331 
L 3944 331 
L 3944 0 
L 2356 0 
L 2356 331 
L 2853 331 
L 2853 1931 
Q 2853 2541 2703 2767 
Q 2553 2994 2175 2994 
Q 1775 2994 1565 2701 
Q 1356 2409 1356 1850 
L 1356 331 
L 1856 331 
L 1856 0 
L 263 0 
z
" transform="scale(0.015625)"/>
        <path id="DejaVuSerif-47" d="M 3359 331 
L 3909 331 
L 3909 0 
L 2784 0 
L 2784 519 
Q 2616 206 2355 57 
Q 2094 -91 1709 -91 
Q 1097 -91 708 395 
Q 319 881 319 1663 
Q 319 2444 706 2928 
Q 1094 3413 1709 3413 
Q 2094 3413 2355 3264 
Q 2616 3116 2784 2803 
L 2784 4531 
L 2241 4531 
L 2241 4863 
L 3359 4863 
L 3359 331 
z
M 2784 1497 
L 2784 1825 
Q 2784 2422 2554 2737 
Q 2325 3053 1888 3053 
Q 1444 3053 1217 2703 
Q 991 2353 991 1663 
Q 991 975 1217 622 
Q 1444 269 1888 269 
Q 2325 269 2554 583 
Q 2784 897 2784 1497 
z
" transform="scale(0.015625)"/>
        <path id="DejaVuSerif-5c" d="M 1381 -609 
L 1600 -56 
L 359 2988 
L -19 2988 
L -19 3322 
L 1509 3322 
L 1509 2988 
L 978 2988 
L 1913 703 
L 2847 2988 
L 2350 2988 
L 2350 3322 
L 3597 3322 
L 3597 2988 
L 3225 2988 
L 1703 -750 
Q 1547 -1138 1356 -1280 
Q 1166 -1422 819 -1422 
Q 672 -1422 517 -1397 
Q 363 -1372 206 -1325 
L 206 -691 
L 500 -691 
Q 519 -903 608 -995 
Q 697 -1088 884 -1088 
Q 1056 -1088 1161 -992 
Q 1266 -897 1381 -609 
z
" transform="scale(0.015625)"/>
       </defs>
       <use xlink:href="#DejaVuSerif-25"/>
       <use xlink:href="#DejaVuSerif-17" transform="translate(73.484375 0)"/>
       <use xlink:href="#DejaVuSerif-10" transform="translate(137.109375 0)"/>
       <use xlink:href="#DejaVuSerif-45" transform="translate(170.90625 0)"/>
       <use xlink:href="#DejaVuSerif-48" transform="translate(234.921875 0)"/>
       <use xlink:href="#DejaVuSerif-4f" transform="translate(294.109375 0)"/>
       <use xlink:href="#DejaVuSerif-52" transform="translate(326.09375 0)"/>
       <use xlink:href="#DejaVuSerif-5a" transform="translate(386.296875 0)"/>
       <use xlink:href="#DejaVuSerif-10" transform="translate(471.890625 0)"/>
       <use xlink:href="#DejaVuSerif-45" transform="translate(505.6875 0)"/>
       <use xlink:href="#DejaVuSerif-52" transform="translate(569.703125 0)"/>
       <use xlink:href="#DejaVuSerif-58" transform="translate(629.90625 0)"/>
       <use xlink:href="#DejaVuSerif-51" transform="translate(694.3125 0)"/>
       <use xlink:href="#DejaVuSerif-47" transform="translate(758.71875 0)"/>
       <use xlink:href="#DejaVuSerif-44" transform="translate(822.734375 0)"/>
       <use xlink:href="#DejaVuSerif-55" transform="translate(882.359375 0)"/>
       <use xlink:href="#DejaVuSerif-5c" transform="translate(930.15625 0)"/>
      </g>
     </g>
    </g>
    <g id="ytick_2">
     <g id="line2d_15">
      <path d="M 111.937594 207.367891 
L 502.102314 207.367891 
" clip-path="url(#p271a0ff213)" style="fill: none; stroke: #e1e0d9; stroke-width: 0.7; stroke-linecap: square"/>
     </g>
     <g id="line2d_16">
      <g>
       <use xlink:href="#m7ae3f7ddb4" x="111.937594" y="207.367891" style="fill: #898781; stroke: #898781; stroke-width: 0.8"/>
      </g>
     </g>
     <g id="text_9">
      <!-- B5-large-prime-torsion -->
      <g style="fill: #52514e" transform="translate(10.226313 210.48325) scale(0.082 -0.082)">
       <defs>
        <path id="DejaVuSerif-4a" d="M 3359 2988 
L 3359 72 
Q 3359 -644 2965 -1033 
Q 2572 -1422 1844 -1422 
Q 1516 -1422 1216 -1362 
Q 916 -1303 641 -1184 
L 641 -488 
L 941 -488 
Q 997 -813 1206 -963 
Q 1416 -1113 1806 -1113 
Q 2313 -1113 2548 -827 
Q 2784 -541 2784 72 
L 2784 519 
Q 2616 206 2355 57 
Q 2094 -91 1709 -91 
Q 1097 -91 708 395 
Q 319 881 319 1663 
Q 319 2444 706 2928 
Q 1094 3413 1709 3413 
Q 2094 3413 2355 3264 
Q 2616 3116 2784 2803 
L 2784 3322 
L 3909 3322 
L 3909 2988 
L 3359 2988 
z
M 2784 1825 
Q 2784 2422 2554 2737 
Q 2325 3053 1888 3053 
Q 1444 3053 1217 2703 
Q 991 2353 991 1663 
Q 991 975 1217 622 
Q 1444 269 1888 269 
Q 2325 269 2554 583 
Q 2784 897 2784 1497 
L 2784 1825 
z
" transform="scale(0.015625)"/>
        <path id="DejaVuSerif-53" d="M 1313 1825 
L 1313 1497 
Q 1313 897 1542 583 
Q 1772 269 2209 269 
Q 2650 269 2876 622 
Q 3103 975 3103 1663 
Q 3103 2353 2876 2703 
Q 2650 3053 2209 3053 
Q 1772 3053 1542 2737 
Q 1313 2422 1313 1825 
z
M 738 2988 
L 184 2988 
L 184 3322 
L 1313 3322 
L 1313 2803 
Q 1481 3116 1742 3264 
Q 2003 3413 2388 3413 
Q 3000 3413 3387 2928 
Q 3775 2444 3775 1663 
Q 3775 881 3387 395 
Q 3000 -91 2388 -91 
Q 2003 -91 1742 57 
Q 1481 206 1313 519 
L 1313 -997 
L 1856 -997 
L 1856 -1331 
L 184 -1331 
L 184 -997 
L 738 -997 
L 738 2988 
z
" transform="scale(0.015625)"/>
        <path id="DejaVuSerif-50" d="M 3316 2675 
Q 3481 3041 3739 3227 
Q 3997 3413 4341 3413 
Q 4863 3413 5119 3089 
Q 5375 2766 5375 2113 
L 5375 331 
L 5894 331 
L 5894 0 
L 4300 0 
L 4300 331 
L 4800 331 
L 4800 2047 
Q 4800 2556 4650 2772 
Q 4500 2988 4153 2988 
Q 3769 2988 3567 2697 
Q 3366 2406 3366 1850 
L 3366 331 
L 3866 331 
L 3866 0 
L 2291 0 
L 2291 331 
L 2791 331 
L 2791 2069 
Q 2791 2566 2641 2777 
Q 2491 2988 2144 2988 
Q 1759 2988 1557 2697 
Q 1356 2406 1356 1850 
L 1356 331 
L 1856 331 
L 1856 0 
L 263 0 
L 263 331 
L 781 331 
L 781 2994 
L 231 2994 
L 231 3322 
L 1356 3322 
L 1356 2731 
Q 1516 3063 1762 3238 
Q 2009 3413 2322 3413 
Q 2709 3413 2968 3220 
Q 3228 3028 3316 2675 
z
" transform="scale(0.015625)"/>
       </defs>
       <use xlink:href="#DejaVuSerif-25"/>
       <use xlink:href="#DejaVuSerif-18" transform="translate(73.484375 0)"/>
       <use xlink:href="#DejaVuSerif-10" transform="translate(137.109375 0)"/>
       <use xlink:href="#DejaVuSerif-4f" transform="translate(170.90625 0)"/>
       <use xlink:href="#DejaVuSerif-44" transform="translate(202.890625 0)"/>
       <use xlink:href="#DejaVuSerif-55" transform="translate(262.515625 0)"/>
       <use xlink:href="#DejaVuSerif-4a" transform="translate(310.3125 0)"/>
       <use xlink:href="#DejaVuSerif-48" transform="translate(374.328125 0)"/>
       <use xlink:href="#DejaVuSerif-10" transform="translate(433.515625 0)"/>
       <use xlink:href="#DejaVuSerif-53" transform="translate(467.3125 0)"/>
       <use xlink:href="#DejaVuSerif-55" transform="translate(531.328125 0)"/>
       <use xlink:href="#DejaVuSerif-4c" transform="translate(579.125 0)"/>
       <use xlink:href="#DejaVuSerif-50" transform="translate(611.109375 0)"/>
       <use xlink:href="#DejaVuSerif-48" transform="translate(705.9375 0)"/>
       <use xlink:href="#DejaVuSerif-10" transform="translate(765.125 0)"/>
       <use xlink:href="#DejaVuSerif-57" transform="translate(798.921875 0)"/>
       <use xlink:href="#DejaVuSerif-52" transform="translate(839.109375 0)"/>
       <use xlink:href="#DejaVuSerif-55" transform="translate(899.3125 0)"/>
       <use xlink:href="#DejaVuSerif-56" transform="translate(947.109375 0)"/>
       <use xlink:href="#DejaVuSerif-4c" transform="translate(998.421875 0)"/>
       <use xlink:href="#DejaVuSerif-52" transform="translate(1030.40625 0)"/>
       <use xlink:href="#DejaVuSerif-51" transform="translate(1090.609375 0)"/>
      </g>
     </g>
    </g>
    <g id="ytick_3">
     <g id="line2d_17">
      <path d="M 111.937594 166.815026 
L 502.102314 166.815026 
" clip-path="url(#p271a0ff213)" style="fill: none; stroke: #e1e0d9; stroke-width: 0.7; stroke-linecap: square"/>
     </g>
     <g id="line2d_18">
      <g>
       <use xlink:href="#m7ae3f7ddb4" x="111.937594" y="166.815026" style="fill: #898781; stroke: #898781; stroke-width: 0.8"/>
      </g>
     </g>
     <g id="text_10">
      <!-- B2-one-unit-inside -->
      <g style="fill: #52514e" transform="translate(28.9915 169.930385) scale(0.082 -0.082)">
       <use xlink:href="#DejaVuSerif-25"/>
       <use xlink:href="#DejaVuSerif-15" transform="translate(73.484375 0)"/>
       <use xlink:href="#DejaVuSerif-10" transform="translate(137.109375 0)"/>
       <use xlink:href="#DejaVuSerif-52" transform="translate(170.90625 0)"/>
       <use xlink:href="#DejaVuSerif-51" transform="translate(231.109375 0)"/>
       <use xlink:href="#DejaVuSerif-48" transform="translate(295.515625 0)"/>
       <use xlink:href="#DejaVuSerif-10" transform="translate(354.703125 0)"/>
       <use xlink:href="#DejaVuSerif-58" transform="translate(388.5 0)"/>
       <use xlink:href="#DejaVuSerif-51" transform="translate(452.90625 0)"/>
       <use xlink:href="#DejaVuSerif-4c" transform="translate(517.3125 0)"/>
       <use xlink:href="#DejaVuSerif-57" transform="translate(549.296875 0)"/>
       <use xlink:href="#DejaVuSerif-10" transform="translate(589.484375 0)"/>
       <use xlink:href="#DejaVuSerif-4c" transform="translate(623.28125 0)"/>
       <use xlink:href="#DejaVuSerif-51" transform="translate(655.265625 0)"/>
       <use xlink:href="#DejaVuSerif-56" transform="translate(719.671875 0)"/>
       <use xlink:href="#DejaVuSerif-4c" transform="translate(770.984375 0)"/>
       <use xlink:href="#DejaVuSerif-47" transform="translate(802.96875 0)"/>
       <use xlink:href="#DejaVuSerif-48" transform="translate(866.984375 0)"/>
      </g>
     </g>
    </g>
    <g id="ytick_4">
     <g id="line2d_19">
      <path d="M 111.937594 126.262161 
L 502.102314 126.262161 
" clip-path="url(#p271a0ff213)" style="fill: none; stroke: #e1e0d9; stroke-width: 0.7; stroke-linecap: square"/>
     </g>
     <g id="line2d_20">
      <g>
       <use xlink:href="#m7ae3f7ddb4" x="111.937594" y="126.262161" style="fill: #898781; stroke: #898781; stroke-width: 0.8"/>
      </g>
     </g>
     <g id="text_11">
      <!-- B6-same-secret-CRT -->
      <g style="fill: #52514e" transform="translate(20.158563 129.377201) scale(0.082 -0.082)">
       <defs>
        <path id="DejaVuSerif-19" d="M 2094 219 
Q 2534 219 2771 542 
Q 3009 866 3009 1472 
Q 3009 2078 2771 2401 
Q 2534 2725 2094 2725 
Q 1647 2725 1412 2412 
Q 1178 2100 1178 1509 
Q 1178 888 1415 553 
Q 1653 219 2094 219 
z
M 1075 2569 
Q 1288 2803 1556 2918 
Q 1825 3034 2163 3034 
Q 2859 3034 3264 2615 
Q 3669 2197 3669 1472 
Q 3669 763 3233 336 
Q 2797 -91 2069 -91 
Q 1278 -91 853 498 
Q 428 1088 428 2181 
Q 428 3406 931 4078 
Q 1434 4750 2350 4750 
Q 2597 4750 2869 4703 
Q 3141 4656 3425 4563 
L 3425 3794 
L 3072 3794 
Q 3034 4109 2831 4275 
Q 2628 4441 2284 4441 
Q 1678 4441 1381 3981 
Q 1084 3522 1075 2569 
z
" transform="scale(0.015625)"/>
        <path id="DejaVuSerif-26" d="M 4513 1234 
Q 4306 581 3820 245 
Q 3334 -91 2591 -91 
Q 2134 -91 1743 65 
Q 1353 222 1050 525 
Q 700 875 529 1320 
Q 359 1766 359 2328 
Q 359 3416 987 4083 
Q 1616 4750 2644 4750 
Q 3025 4750 3456 4650 
Q 3888 4550 4384 4347 
L 4384 3272 
L 4031 3272 
Q 3916 3859 3567 4137 
Q 3219 4416 2591 4416 
Q 1844 4416 1459 3886 
Q 1075 3356 1075 2328 
Q 1075 1303 1459 773 
Q 1844 244 2591 244 
Q 3113 244 3450 492 
Q 3788 741 3938 1234 
L 4513 1234 
z
" transform="scale(0.015625)"/>
        <path id="DejaVuSerif-35" d="M 3066 2316 
Q 3284 2256 3442 2114 
Q 3600 1972 3725 1716 
L 4403 331 
L 4972 331 
L 4972 0 
L 3872 0 
L 3144 1484 
Q 2934 1916 2759 2042 
Q 2584 2169 2278 2169 
L 1581 2169 
L 1581 331 
L 2241 331 
L 2241 0 
L 353 0 
L 353 331 
L 947 331 
L 947 4331 
L 353 4331 
L 353 4666 
L 2719 4666 
Q 3400 4666 3770 4341 
Q 4141 4016 4141 3419 
Q 4141 2938 3870 2661 
Q 3600 2384 3066 2316 
z
M 1581 2503 
L 2503 2503 
Q 2975 2503 3200 2726 
Q 3425 2950 3425 3419 
Q 3425 3888 3200 4109 
Q 2975 4331 2503 4331 
L 1581 4331 
L 1581 2503 
z
" transform="scale(0.015625)"/>
        <path id="DejaVuSerif-37" d="M 1222 0 
L 1222 331 
L 1819 331 
L 1819 4294 
L 447 4294 
L 447 3566 
L 63 3566 
L 63 4666 
L 4206 4666 
L 4206 3566 
L 3822 3566 
L 3822 4294 
L 2450 4294 
L 2450 331 
L 3047 331 
L 3047 0 
L 1222 0 
z
" transform="scale(0.015625)"/>
       </defs>
       <use xlink:href="#DejaVuSerif-25"/>
       <use xlink:href="#DejaVuSerif-19" transform="translate(73.484375 0)"/>
       <use xlink:href="#DejaVuSerif-10" transform="translate(137.109375 0)"/>
       <use xlink:href="#DejaVuSerif-56" transform="translate(170.90625 0)"/>
       <use xlink:href="#DejaVuSerif-44" transform="translate(222.21875 0)"/>
       <use xlink:href="#DejaVuSerif-50" transform="translate(281.84375 0)"/>
       <use xlink:href="#DejaVuSerif-48" transform="translate(376.671875 0)"/>
       <use xlink:href="#DejaVuSerif-10" transform="translate(435.859375 0)"/>
       <use xlink:href="#DejaVuSerif-56" transform="translate(469.65625 0)"/>
       <use xlink:href="#DejaVuSerif-48" transform="translate(520.96875 0)"/>
       <use xlink:href="#DejaVuSerif-46" transform="translate(580.15625 0)"/>
       <use xlink:href="#DejaVuSerif-55" transform="translate(636.15625 0)"/>
       <use xlink:href="#DejaVuSerif-48" transform="translate(683.953125 0)"/>
       <use xlink:href="#DejaVuSerif-57" transform="translate(743.140625 0)"/>
       <use xlink:href="#DejaVuSerif-10" transform="translate(783.328125 0)"/>
       <use xlink:href="#DejaVuSerif-26" transform="translate(817.125 0)"/>
       <use xlink:href="#DejaVuSerif-35" transform="translate(893.640625 0)"/>
       <use xlink:href="#DejaVuSerif-37" transform="translate(967.1875 0)"/>
      </g>
     </g>
    </g>
    <g id="ytick_5">
     <g id="line2d_21">
      <path d="M 111.937594 85.709297 
L 502.102314 85.709297 
" clip-path="url(#p271a0ff213)" style="fill: none; stroke: #e1e0d9; stroke-width: 0.7; stroke-linecap: square"/>
     </g>
     <g id="line2d_22">
      <g>
       <use xlink:href="#m7ae3f7ddb4" x="111.937594" y="85.709297" style="fill: #898781; stroke: #898781; stroke-width: 0.8"/>
      </g>
     </g>
     <g id="text_12">
      <!-- SIDH-p434-shaped-Bob -->
      <g style="fill: #52514e" transform="translate(7.2 88.824656) scale(0.082 -0.082)">
       <defs>
        <path id="DejaVuSerif-36" d="M 594 225 
L 594 1288 
L 953 1284 
Q 969 753 1261 498 
Q 1553 244 2150 244 
Q 2706 244 2998 464 
Q 3291 684 3291 1106 
Q 3291 1444 3114 1625 
Q 2938 1806 2369 1978 
L 1753 2163 
Q 1084 2366 811 2669 
Q 538 2972 538 3500 
Q 538 4094 959 4422 
Q 1381 4750 2144 4750 
Q 2469 4750 2856 4679 
Q 3244 4609 3681 4475 
L 3681 3481 
L 3328 3481 
Q 3275 3975 2998 4195 
Q 2722 4416 2156 4416 
Q 1663 4416 1405 4214 
Q 1147 4013 1147 3628 
Q 1147 3294 1340 3103 
Q 1534 2913 2163 2725 
L 2741 2553 
Q 3375 2363 3645 2067 
Q 3916 1772 3916 1275 
Q 3916 597 3481 253 
Q 3047 -91 2188 -91 
Q 1803 -91 1404 -12 
Q 1006 66 594 225 
z
" transform="scale(0.015625)"/>
        <path id="DejaVuSerif-2c" d="M 1581 331 
L 2175 331 
L 2175 0 
L 353 0 
L 353 331 
L 947 331 
L 947 4331 
L 353 4331 
L 353 4666 
L 2175 4666 
L 2175 4331 
L 1581 4331 
L 1581 331 
z
" transform="scale(0.015625)"/>
        <path id="DejaVuSerif-27" d="M 1581 331 
L 2163 331 
Q 3072 331 3558 850 
Q 4044 1369 4044 2338 
Q 4044 3306 3559 3818 
Q 3075 4331 2163 4331 
L 1581 4331 
L 1581 331 
z
M 353 0 
L 353 331 
L 947 331 
L 947 4331 
L 353 4331 
L 353 4666 
L 2209 4666 
Q 3416 4666 4089 4050 
Q 4763 3434 4763 2338 
Q 4763 1238 4088 619 
Q 3413 0 2209 0 
L 353 0 
z
" transform="scale(0.015625)"/>
        <path id="DejaVuSerif-2b" d="M 353 0 
L 353 331 
L 947 331 
L 947 4331 
L 353 4331 
L 353 4666 
L 2175 4666 
L 2175 4331 
L 1581 4331 
L 1581 2719 
L 4000 2719 
L 4000 4331 
L 3406 4331 
L 3406 4666 
L 5228 4666 
L 5228 4331 
L 4634 4331 
L 4634 331 
L 5228 331 
L 5228 0 
L 3406 0 
L 3406 331 
L 4000 331 
L 4000 2338 
L 1581 2338 
L 1581 331 
L 2175 331 
L 2175 0 
L 353 0 
z
" transform="scale(0.015625)"/>
        <path id="DejaVuSerif-4b" d="M 263 0 
L 263 331 
L 781 331 
L 781 4531 
L 231 4531 
L 231 4863 
L 1356 4863 
L 1356 2731 
Q 1516 3069 1770 3241 
Q 2025 3413 2363 3413 
Q 2913 3413 3172 3097 
Q 3431 2781 3431 2113 
L 3431 331 
L 3944 331 
L 3944 0 
L 2356 0 
L 2356 331 
L 2853 331 
L 2853 1931 
Q 2853 2541 2704 2764 
Q 2556 2988 2175 2988 
Q 1775 2988 1565 2697 
Q 1356 2406 1356 1850 
L 1356 331 
L 1856 331 
L 1856 0 
L 263 0 
z
" transform="scale(0.015625)"/>
       </defs>
       <use xlink:href="#DejaVuSerif-36"/>
       <use xlink:href="#DejaVuSerif-2c" transform="translate(68.5 0)"/>
       <use xlink:href="#DejaVuSerif-27" transform="translate(108 0)"/>
       <use xlink:href="#DejaVuSerif-2b" transform="translate(188.171875 0)"/>
       <use xlink:href="#DejaVuSerif-10" transform="translate(275.375 0)"/>
       <use xlink:href="#DejaVuSerif-53" transform="translate(309.171875 0)"/>
       <use xlink:href="#DejaVuSerif-17" transform="translate(373.1875 0)"/>
       <use xlink:href="#DejaVuSerif-16" transform="translate(436.8125 0)"/>
       <use xlink:href="#DejaVuSerif-17" transform="translate(500.4375 0)"/>
       <use xlink:href="#DejaVuSerif-10" transform="translate(564.0625 0)"/>
       <use xlink:href="#DejaVuSerif-56" transform="translate(597.859375 0)"/>
       <use xlink:href="#DejaVuSerif-4b" transform="translate(649.171875 0)"/>
       <use xlink:href="#DejaVuSerif-44" transform="translate(713.578125 0)"/>
       <use xlink:href="#DejaVuSerif-53" transform="translate(773.203125 0)"/>
       <use xlink:href="#DejaVuSerif-48" transform="translate(837.21875 0)"/>
       <use xlink:href="#DejaVuSerif-47" transform="translate(896.40625 0)"/>
       <use xlink:href="#DejaVuSerif-10" transform="translate(960.421875 0)"/>
       <use xlink:href="#DejaVuSerif-25" transform="translate(994.21875 0)"/>
       <use xlink:href="#DejaVuSerif-52" transform="translate(1067.703125 0)"/>
       <use xlink:href="#DejaVuSerif-45" transform="translate(1127.90625 0)"/>
      </g>
     </g>
    </g>
    <g id="ytick_6">
     <g id="line2d_23">
      <path d="M 111.937594 45.156432 
L 502.102314 45.156432 
" clip-path="url(#p271a0ff213)" style="fill: none; stroke: #e1e0d9; stroke-width: 0.7; stroke-linecap: square"/>
     </g>
     <g id="line2d_24">
      <g>
       <use xlink:href="#m7ae3f7ddb4" x="111.937594" y="45.156432" style="fill: #898781; stroke: #898781; stroke-width: 0.8"/>
      </g>
     </g>
     <g id="text_13">
      <!-- SIKEp434 -->
      <g style="fill: #52514e" transform="translate(63.068906 48.271471) scale(0.082 -0.082)">
       <defs>
        <path id="DejaVuSerif-2e" d="M 353 0 
L 353 331 
L 947 331 
L 947 4331 
L 353 4331 
L 353 4666 
L 2175 4666 
L 2175 4331 
L 1581 4331 
L 1581 2566 
L 3591 4331 
L 3084 4331 
L 3084 4666 
L 4634 4666 
L 4634 4331 
L 4109 4331 
L 2106 2572 
L 4347 331 
L 4878 331 
L 4878 0 
L 3794 0 
L 1581 2216 
L 1581 331 
L 2175 331 
L 2175 0 
L 353 0 
z
" transform="scale(0.015625)"/>
        <path id="DejaVuSerif-28" d="M 353 0 
L 353 331 
L 947 331 
L 947 4331 
L 353 4331 
L 353 4666 
L 4109 4666 
L 4109 3628 
L 3725 3628 
L 3725 4281 
L 1581 4281 
L 1581 2719 
L 3109 2719 
L 3109 3303 
L 3494 3303 
L 3494 1753 
L 3109 1753 
L 3109 2338 
L 1581 2338 
L 1581 384 
L 3775 384 
L 3775 1038 
L 4159 1038 
L 4159 0 
L 353 0 
z
" transform="scale(0.015625)"/>
       </defs>
       <use xlink:href="#DejaVuSerif-36"/>
       <use xlink:href="#DejaVuSerif-2c" transform="translate(68.5 0)"/>
       <use xlink:href="#DejaVuSerif-2e" transform="translate(108 0)"/>
       <use xlink:href="#DejaVuSerif-28" transform="translate(182.703125 0)"/>
       <use xlink:href="#DejaVuSerif-53" transform="translate(255.703125 0)"/>
       <use xlink:href="#DejaVuSerif-17" transform="translate(319.71875 0)"/>
       <use xlink:href="#DejaVuSerif-16" transform="translate(383.34375 0)"/>
       <use xlink:href="#DejaVuSerif-17" transform="translate(446.96875 0)"/>
      </g>
     </g>
    </g>
   </g>
   <g id="line2d_25">
    <path d="M 121.301822 247.920755 
L 121.301547 247.920755 
" clip-path="url(#p271a0ff213)" style="fill: none; stroke: #eb6834; stroke-width: 2.6; stroke-linecap: round"/>
   </g>
   <g id="line2d_26">
    <path d="M 143.04398 207.367891 
L 143.04398 207.367891 
" clip-path="url(#p271a0ff213)" style="fill: none; stroke: #eda100; stroke-width: 2.6; stroke-linecap: round"/>
   </g>
   <g id="line2d_27">
    <path d="M 121.301272 166.815026 
L 121.301547 166.815026 
" clip-path="url(#p271a0ff213)" style="fill: none; stroke: #008300; stroke-width: 2.6; stroke-linecap: round"/>
   </g>
   <g id="line2d_28">
    <path d="M 118.029903 126.262161 
L 118.034917 126.262161 
" clip-path="url(#p271a0ff213)" style="fill: none; stroke: #008300; stroke-width: 2.6; stroke-linecap: round"/>
   </g>
   <g id="line2d_29">
    <path d="M 281.378221 85.709297 
L 449.039912 85.709297 
" clip-path="url(#p271a0ff213)" style="fill: none; stroke: #008300; stroke-width: 2.6; stroke-linecap: round"/>
   </g>
   <g id="line2d_30">
    <path d="M 281.378221 45.156432 
L 449.039912 45.156432 
" clip-path="url(#p271a0ff213)" style="fill: none; stroke: #008300; stroke-width: 2.6; stroke-linecap: round"/>
   </g>
   <g id="patch_3">
    <path d="M 111.937594 268.197187 
L 111.937594 24.88 
" style="fill: none; stroke: #c3c2b7; stroke-width: 0.9; stroke-linejoin: miter; stroke-linecap: square"/>
   </g>
   <g id="patch_4">
    <path d="M 111.937594 268.197187 
L 502.102314 268.197187 
" style="fill: none; stroke: #c3c2b7; stroke-width: 0.9; stroke-linejoin: miter; stroke-linecap: square"/>
   </g>
   <g id="PathCollection_1">
    <defs>
     <path id="ma58a042a60" d="M 0 3 
C 0.795609 3 1.55874 2.683901 2.12132 2.12132 
C 2.683901 1.55874 3 0.795609 3 0 
C 3 -0.795609 2.683901 -1.55874 2.12132 -2.12132 
C 1.55874 -2.683901 0.795609 -3 0 -3 
C -0.795609 -3 -1.55874 -2.683901 -2.12132 -2.12132 
C -2.683901 -1.55874 -3 -0.795609 -3 0 
C -3 0.795609 -2.683901 1.55874 -2.12132 2.12132 
C -1.55874 2.683901 -0.795609 3 0 3 
z
" style="stroke: #fcfcfb; stroke-width: 0.8"/>
    </defs>
    <g clip-path="url(#p271a0ff213)">
     <use xlink:href="#ma58a042a60" x="121.301822" y="247.920755" style="fill: #e34948; stroke: #fcfcfb; stroke-width: 0.8"/>
    </g>
   </g>
   <g id="PathCollection_2">
    <defs>
     <path id="m5df5441c08" d="M -3.316625 3.316625 
L 3.316625 3.316625 
L 3.316625 -3.316625 
L -3.316625 -3.316625 
z
" style="stroke: #fcfcfb; stroke-width: 0.8"/>
    </defs>
    <g clip-path="url(#p271a0ff213)">
     <use xlink:href="#m5df5441c08" x="121.301547" y="247.920755" style="fill: #008300; stroke: #fcfcfb; stroke-width: 0.8"/>
    </g>
   </g>
   <g id="text_14">
    <!-- margin -0.000352 bits -->
    <g style="fill: #8d3e1f" transform="translate(126.764128 249.895271) scale(0.076 -0.076)">
     <defs>
      <path id="DejaVuSerif-11" d="M 603 325 
Q 603 500 722 622 
Q 841 744 1019 744 
Q 1191 744 1312 622 
Q 1434 500 1434 325 
Q 1434 153 1312 31 
Q 1191 -91 1019 -91 
Q 841 -91 722 29 
Q 603 150 603 325 
z
" transform="scale(0.015625)"/>
     </defs>
     <use xlink:href="#DejaVuSerif-50"/>
     <use xlink:href="#DejaVuSerif-44" transform="translate(94.828125 0)"/>
     <use xlink:href="#DejaVuSerif-55" transform="translate(154.453125 0)"/>
     <use xlink:href="#DejaVuSerif-4a" transform="translate(202.25 0)"/>
     <use xlink:href="#DejaVuSerif-4c" transform="translate(266.265625 0)"/>
     <use xlink:href="#DejaVuSerif-51" transform="translate(298.25 0)"/>
     <use xlink:href="#DejaVuSerif-3" transform="translate(362.65625 0)"/>
     <use xlink:href="#DejaVuSerif-10" transform="translate(394.4375 0)"/>
     <use xlink:href="#DejaVuSerif-13" transform="translate(428.234375 0)"/>
     <use xlink:href="#DejaVuSerif-11" transform="translate(491.859375 0)"/>
     <use xlink:href="#DejaVuSerif-13" transform="translate(523.640625 0)"/>
     <use xlink:href="#DejaVuSerif-13" transform="translate(587.265625 0)"/>
     <use xlink:href="#DejaVuSerif-13" transform="translate(650.890625 0)"/>
     <use xlink:href="#DejaVuSerif-16" transform="translate(714.515625 0)"/>
     <use xlink:href="#DejaVuSerif-18" transform="translate(778.140625 0)"/>
     <use xlink:href="#DejaVuSerif-15" transform="translate(841.765625 0)"/>
     <use xlink:href="#DejaVuSerif-3" transform="translate(905.390625 0)"/>
     <use xlink:href="#DejaVuSerif-45" transform="translate(937.171875 0)"/>
     <use xlink:href="#DejaVuSerif-4c" transform="translate(1001.1875 0)"/>
     <use xlink:href="#DejaVuSerif-57" transform="translate(1033.171875 0)"/>
     <use xlink:href="#DejaVuSerif-56" transform="translate(1073.359375 0)"/>
    </g>
   </g>
   <g id="PathCollection_3">
    <g clip-path="url(#p271a0ff213)">
     <use xlink:href="#ma58a042a60" x="143.04398" y="207.367891" style="fill: #e34948; stroke: #fcfcfb; stroke-width: 0.8"/>
    </g>
   </g>
   <g id="PathCollection_4">
    <g clip-path="url(#p271a0ff213)">
     <use xlink:href="#m5df5441c08" x="143.04398" y="207.367891" style="fill: #008300; stroke: #fcfcfb; stroke-width: 0.8"/>
    </g>
   </g>
   <g id="text_15">
    <!-- margin +1.44e-12 bits -->
    <g style="fill: #8e6100" transform="translate(148.506286 209.342406) scale(0.076 -0.076)">
     <defs>
      <path id="DejaVuSerif-e" d="M 2931 4013 
L 2931 2259 
L 4684 2259 
L 4684 1753 
L 2931 1753 
L 2931 0 
L 2431 0 
L 2431 1753 
L 678 1753 
L 678 2259 
L 2431 2259 
L 2431 4013 
L 2931 4013 
z
" transform="scale(0.015625)"/>
     </defs>
     <use xlink:href="#DejaVuSerif-50"/>
     <use xlink:href="#DejaVuSerif-44" transform="translate(94.828125 0)"/>
     <use xlink:href="#DejaVuSerif-55" transform="translate(154.453125 0)"/>
     <use xlink:href="#DejaVuSerif-4a" transform="translate(202.25 0)"/>
     <use xlink:href="#DejaVuSerif-4c" transform="translate(266.265625 0)"/>
     <use xlink:href="#DejaVuSerif-51" transform="translate(298.25 0)"/>
     <use xlink:href="#DejaVuSerif-3" transform="translate(362.65625 0)"/>
     <use xlink:href="#DejaVuSerif-e" transform="translate(394.4375 0)"/>
     <use xlink:href="#DejaVuSerif-14" transform="translate(478.234375 0)"/>
     <use xlink:href="#DejaVuSerif-11" transform="translate(541.859375 0)"/>
     <use xlink:href="#DejaVuSerif-17" transform="translate(573.640625 0)"/>
     <use xlink:href="#DejaVuSerif-17" transform="translate(637.265625 0)"/>
     <use xlink:href="#DejaVuSerif-48" transform="translate(700.890625 0)"/>
     <use xlink:href="#DejaVuSerif-10" transform="translate(760.078125 0)"/>
     <use xlink:href="#DejaVuSerif-14" transform="translate(793.875 0)"/>
     <use xlink:href="#DejaVuSerif-15" transform="translate(857.5 0)"/>
     <use xlink:href="#DejaVuSerif-3" transform="translate(921.125 0)"/>
     <use xlink:href="#DejaVuSerif-45" transform="translate(952.90625 0)"/>
     <use xlink:href="#DejaVuSerif-4c" transform="translate(1016.921875 0)"/>
     <use xlink:href="#DejaVuSerif-57" transform="translate(1048.90625 0)"/>
     <use xlink:href="#DejaVuSerif-56" transform="translate(1089.09375 0)"/>
    </g>
   </g>
   <g id="PathCollection_5">
    <g clip-path="url(#p271a0ff213)">
     <use xlink:href="#ma58a042a60" x="121.301272" y="166.815026" style="fill: #e34948; stroke: #fcfcfb; stroke-width: 0.8"/>
    </g>
   </g>
   <g id="PathCollection_6">
    <g clip-path="url(#p271a0ff213)">
     <use xlink:href="#m5df5441c08" x="121.301547" y="166.815026" style="fill: #008300; stroke: #fcfcfb; stroke-width: 0.8"/>
    </g>
   </g>
   <g id="text_16">
    <!-- margin +0.000352 bits -->
    <g style="fill: #004f00" transform="translate(126.763853 168.789542) scale(0.076 -0.076)">
     <use xlink:href="#DejaVuSerif-50"/>
     <use xlink:href="#DejaVuSerif-44" transform="translate(94.828125 0)"/>
     <use xlink:href="#DejaVuSerif-55" transform="translate(154.453125 0)"/>
     <use xlink:href="#DejaVuSerif-4a" transform="translate(202.25 0)"/>
     <use xlink:href="#DejaVuSerif-4c" transform="translate(266.265625 0)"/>
     <use xlink:href="#DejaVuSerif-51" transform="translate(298.25 0)"/>
     <use xlink:href="#DejaVuSerif-3" transform="translate(362.65625 0)"/>
     <use xlink:href="#DejaVuSerif-e" transform="translate(394.4375 0)"/>
     <use xlink:href="#DejaVuSerif-13" transform="translate(478.234375 0)"/>
     <use xlink:href="#DejaVuSerif-11" transform="translate(541.859375 0)"/>
     <use xlink:href="#DejaVuSerif-13" transform="translate(573.640625 0)"/>
     <use xlink:href="#DejaVuSerif-13" transform="translate(637.265625 0)"/>
     <use xlink:href="#DejaVuSerif-13" transform="translate(700.890625 0)"/>
     <use xlink:href="#DejaVuSerif-16" transform="translate(764.515625 0)"/>
     <use xlink:href="#DejaVuSerif-18" transform="translate(828.140625 0)"/>
     <use xlink:href="#DejaVuSerif-15" transform="translate(891.765625 0)"/>
     <use xlink:href="#DejaVuSerif-3" transform="translate(955.390625 0)"/>
     <use xlink:href="#DejaVuSerif-45" transform="translate(987.171875 0)"/>
     <use xlink:href="#DejaVuSerif-4c" transform="translate(1051.1875 0)"/>
     <use xlink:href="#DejaVuSerif-57" transform="translate(1083.171875 0)"/>
     <use xlink:href="#DejaVuSerif-56" transform="translate(1123.359375 0)"/>
    </g>
   </g>
   <g id="PathCollection_7">
    <g clip-path="url(#p271a0ff213)">
     <use xlink:href="#ma58a042a60" x="118.029903" y="126.262161" style="fill: #e34948; stroke: #fcfcfb; stroke-width: 0.8"/>
    </g>
   </g>
   <g id="PathCollection_8">
    <g clip-path="url(#p271a0ff213)">
     <use xlink:href="#m5df5441c08" x="118.034917" y="126.262161" style="fill: #008300; stroke: #fcfcfb; stroke-width: 0.8"/>
    </g>
   </g>
   <g id="text_17">
    <!-- margin +0.00643 bits -->
    <g style="fill: #004f00" transform="translate(123.497223 128.236677) scale(0.076 -0.076)">
     <use xlink:href="#DejaVuSerif-50"/>
     <use xlink:href="#DejaVuSerif-44" transform="translate(94.828125 0)"/>
     <use xlink:href="#DejaVuSerif-55" transform="translate(154.453125 0)"/>
     <use xlink:href="#DejaVuSerif-4a" transform="translate(202.25 0)"/>
     <use xlink:href="#DejaVuSerif-4c" transform="translate(266.265625 0)"/>
     <use xlink:href="#DejaVuSerif-51" transform="translate(298.25 0)"/>
     <use xlink:href="#DejaVuSerif-3" transform="translate(362.65625 0)"/>
     <use xlink:href="#DejaVuSerif-e" transform="translate(394.4375 0)"/>
     <use xlink:href="#DejaVuSerif-13" transform="translate(478.234375 0)"/>
     <use xlink:href="#DejaVuSerif-11" transform="translate(541.859375 0)"/>
     <use xlink:href="#DejaVuSerif-13" transform="translate(573.640625 0)"/>
     <use xlink:href="#DejaVuSerif-13" transform="translate(637.265625 0)"/>
     <use xlink:href="#DejaVuSerif-19" transform="translate(700.890625 0)"/>
     <use xlink:href="#DejaVuSerif-17" transform="translate(764.515625 0)"/>
     <use xlink:href="#DejaVuSerif-16" transform="translate(828.140625 0)"/>
     <use xlink:href="#DejaVuSerif-3" transform="translate(891.765625 0)"/>
     <use xlink:href="#DejaVuSerif-45" transform="translate(923.546875 0)"/>
     <use xlink:href="#DejaVuSerif-4c" transform="translate(987.5625 0)"/>
     <use xlink:href="#DejaVuSerif-57" transform="translate(1019.546875 0)"/>
     <use xlink:href="#DejaVuSerif-56" transform="translate(1059.734375 0)"/>
    </g>
   </g>
   <g id="PathCollection_9">
    <g clip-path="url(#p271a0ff213)">
     <use xlink:href="#ma58a042a60" x="281.378221" y="85.709297" style="fill: #e34948; stroke: #fcfcfb; stroke-width: 0.8"/>
    </g>
   </g>
   <g id="PathCollection_10">
    <g clip-path="url(#p271a0ff213)">
     <use xlink:href="#m5df5441c08" x="449.039912" y="85.709297" style="fill: #008300; stroke: #fcfcfb; stroke-width: 0.8"/>
    </g>
   </g>
   <g id="text_18">
    <!-- margin +215 bits -->
    <g style="fill: #004f00" transform="translate(454.502218 87.683812) scale(0.076 -0.076)">
     <use xlink:href="#DejaVuSerif-50"/>
     <use xlink:href="#DejaVuSerif-44" transform="translate(94.828125 0)"/>
     <use xlink:href="#DejaVuSerif-55" transform="translate(154.453125 0)"/>
     <use xlink:href="#DejaVuSerif-4a" transform="translate(202.25 0)"/>
     <use xlink:href="#DejaVuSerif-4c" transform="translate(266.265625 0)"/>
     <use xlink:href="#DejaVuSerif-51" transform="translate(298.25 0)"/>
     <use xlink:href="#DejaVuSerif-3" transform="translate(362.65625 0)"/>
     <use xlink:href="#DejaVuSerif-e" transform="translate(394.4375 0)"/>
     <use xlink:href="#DejaVuSerif-15" transform="translate(478.234375 0)"/>
     <use xlink:href="#DejaVuSerif-14" transform="translate(541.859375 0)"/>
     <use xlink:href="#DejaVuSerif-18" transform="translate(605.484375 0)"/>
     <use xlink:href="#DejaVuSerif-3" transform="translate(669.109375 0)"/>
     <use xlink:href="#DejaVuSerif-45" transform="translate(700.890625 0)"/>
     <use xlink:href="#DejaVuSerif-4c" transform="translate(764.90625 0)"/>
     <use xlink:href="#DejaVuSerif-57" transform="translate(796.890625 0)"/>
     <use xlink:href="#DejaVuSerif-56" transform="translate(837.078125 0)"/>
    </g>
   </g>
   <g id="PathCollection_11">
    <g clip-path="url(#p271a0ff213)">
     <use xlink:href="#ma58a042a60" x="281.378221" y="45.156432" style="fill: #e34948; stroke: #fcfcfb; stroke-width: 0.8"/>
    </g>
   </g>
   <g id="PathCollection_12">
    <g clip-path="url(#p271a0ff213)">
     <use xlink:href="#m5df5441c08" x="449.039912" y="45.156432" style="fill: #008300; stroke: #fcfcfb; stroke-width: 0.8"/>
    </g>
   </g>
   <g id="text_19">
    <!-- margin +215 bits -->
    <g style="fill: #004f00" transform="translate(454.502218 47.130948) scale(0.076 -0.076)">
     <use xlink:href="#DejaVuSerif-50"/>
     <use xlink:href="#DejaVuSerif-44" transform="translate(94.828125 0)"/>
     <use xlink:href="#DejaVuSerif-55" transform="translate(154.453125 0)"/>
     <use xlink:href="#DejaVuSerif-4a" transform="translate(202.25 0)"/>
     <use xlink:href="#DejaVuSerif-4c" transform="translate(266.265625 0)"/>
     <use xlink:href="#DejaVuSerif-51" transform="translate(298.25 0)"/>
     <use xlink:href="#DejaVuSerif-3" transform="translate(362.65625 0)"/>
     <use xlink:href="#DejaVuSerif-e" transform="translate(394.4375 0)"/>
     <use xlink:href="#DejaVuSerif-15" transform="translate(478.234375 0)"/>
     <use xlink:href="#DejaVuSerif-14" transform="translate(541.859375 0)"/>
     <use xlink:href="#DejaVuSerif-18" transform="translate(605.484375 0)"/>
     <use xlink:href="#DejaVuSerif-3" transform="translate(669.109375 0)"/>
     <use xlink:href="#DejaVuSerif-45" transform="translate(700.890625 0)"/>
     <use xlink:href="#DejaVuSerif-4c" transform="translate(764.90625 0)"/>
     <use xlink:href="#DejaVuSerif-57" transform="translate(796.890625 0)"/>
     <use xlink:href="#DejaVuSerif-56" transform="translate(837.078125 0)"/>
    </g>
   </g>
   <g id="text_20">
    <!-- R8 direct-recovery boundary  $N^2&gt;d$  (checklist step 6) -->
    <g style="fill: #0b0b0b" transform="translate(111.937594 16.88) scale(0.11 -0.11)">
     <defs>
      <path id="DejaVuSerif-Bold-35" d="M 3397 2278 
Q 3675 2238 3865 2094 
Q 4056 1950 4197 1678 
L 4878 378 
L 5356 378 
L 5356 0 
L 3822 0 
L 3078 1409 
Q 2863 1847 2711 1967 
Q 2559 2088 2291 2088 
L 2100 2088 
L 2100 378 
L 2700 378 
L 2700 0 
L 300 0 
L 300 378 
L 897 378 
L 897 4288 
L 300 4288 
L 300 4666 
L 2963 4666 
Q 3775 4666 4217 4339 
Q 4659 4013 4659 3413 
Q 4659 2925 4345 2642 
Q 4031 2359 3397 2278 
z
M 2100 2463 
L 2509 2463 
Q 2947 2463 3183 2700 
Q 3419 2938 3419 3378 
Q 3419 3819 3183 4053 
Q 2947 4288 2509 4288 
L 2100 4288 
L 2100 2463 
z
" transform="scale(0.015625)"/>
      <path id="DejaVuSerif-Bold-1b" d="M 2975 2484 
Q 3531 2394 3820 2075 
Q 4109 1756 4109 1241 
Q 4109 597 3623 253 
Q 3138 -91 2222 -91 
Q 1306 -91 818 253 
Q 331 597 331 1241 
Q 331 1756 622 2075 
Q 913 2394 1466 2484 
Q 975 2597 731 2861 
Q 488 3125 488 3531 
Q 488 4125 931 4437 
Q 1375 4750 2222 4750 
Q 3066 4750 3511 4437 
Q 3956 4125 3956 3531 
Q 3956 3125 3711 2861 
Q 3466 2597 2975 2484 
z
M 2747 3519 
Q 2747 4013 2628 4198 
Q 2509 4384 2222 4384 
Q 1931 4384 1814 4198 
Q 1697 4013 1697 3519 
Q 1697 3028 1814 2845 
Q 1931 2663 2222 2663 
Q 2513 2663 2630 2845 
Q 2747 3028 2747 3519 
z
M 2869 1294 
Q 2869 1866 2723 2081 
Q 2578 2297 2222 2297 
Q 1863 2297 1719 2081 
Q 1575 1866 1575 1294 
Q 1575 716 1720 495 
Q 1866 275 2222 275 
Q 2575 275 2722 495 
Q 2869 716 2869 1294 
z
" transform="scale(0.015625)"/>
      <path id="DejaVuSerif-Bold-3" transform="scale(0.015625)"/>
      <path id="DejaVuSerif-Bold-47" d="M 2747 1497 
L 2747 1825 
Q 2747 2406 2597 2665 
Q 2447 2925 2119 2925 
Q 1775 2925 1636 2651 
Q 1497 2378 1497 1663 
Q 1497 947 1637 672 
Q 1778 397 2119 397 
Q 2447 397 2597 656 
Q 2747 916 2747 1497 
z
M 3853 378 
L 4325 378 
L 4325 0 
L 2747 0 
L 2747 422 
Q 2606 163 2367 36 
Q 2128 -91 1778 -91 
Q 1072 -91 667 378 
Q 263 847 263 1663 
Q 263 2481 667 2947 
Q 1072 3413 1778 3413 
Q 2128 3413 2367 3286 
Q 2606 3159 2747 2900 
L 2747 4488 
L 2272 4488 
L 2272 4863 
L 3853 4863 
L 3853 378 
z
" transform="scale(0.015625)"/>
      <path id="DejaVuSerif-Bold-4c" d="M 588 4263 
Q 588 4516 763 4689 
Q 938 4863 1191 4863 
Q 1438 4863 1611 4689 
Q 1784 4516 1784 4263 
Q 1784 4016 1611 3842 
Q 1438 3669 1191 3669 
Q 938 3669 763 3841 
Q 588 4013 588 4263 
z
M 1797 378 
L 2272 378 
L 2272 0 
L 219 0 
L 219 378 
L 691 378 
L 691 2944 
L 219 2944 
L 219 3322 
L 1797 3322 
L 1797 378 
z
" transform="scale(0.015625)"/>
      <path id="DejaVuSerif-Bold-55" d="M 3438 3359 
L 3438 2369 
L 3084 2369 
Q 3066 2634 2941 2764 
Q 2816 2894 2578 2894 
Q 2216 2894 2006 2575 
Q 1797 2256 1797 1691 
L 1797 378 
L 2400 378 
L 2400 0 
L 219 0 
L 219 378 
L 691 378 
L 691 2944 
L 184 2944 
L 184 3322 
L 1797 3322 
L 1797 2731 
Q 1959 3078 2226 3245 
Q 2494 3413 2881 3413 
Q 2978 3413 3117 3398 
Q 3256 3384 3438 3359 
z
" transform="scale(0.015625)"/>
      <path id="DejaVuSerif-Bold-48" d="M 2566 1875 
Q 2566 2531 2444 2795 
Q 2322 3059 2028 3059 
Q 1744 3059 1620 2800 
Q 1497 2541 1497 1931 
L 1497 1875 
L 2566 1875 
z
M 3781 1503 
L 1497 1503 
L 1497 1478 
Q 1497 834 1690 548 
Q 1884 263 2316 263 
Q 2675 263 2897 453 
Q 3119 644 3181 1006 
L 3700 1006 
Q 3566 441 3166 175 
Q 2766 -91 2047 -91 
Q 1184 -91 723 364 
Q 263 819 263 1663 
Q 263 2488 734 2950 
Q 1206 3413 2047 3413 
Q 2872 3413 3312 2927 
Q 3753 2441 3781 1503 
z
" transform="scale(0.015625)"/>
      <path id="DejaVuSerif-Bold-46" d="M 3609 1038 
Q 3491 469 3123 189 
Q 2756 -91 2125 -91 
Q 1238 -91 750 368 
Q 263 828 263 1663 
Q 263 2488 744 2950 
Q 1225 3413 2081 3413 
Q 2428 3413 2781 3347 
Q 3134 3281 3500 3150 
L 3500 2228 
L 3150 2228 
Q 3100 2650 2903 2854 
Q 2706 3059 2350 3059 
Q 1888 3059 1692 2746 
Q 1497 2434 1497 1663 
Q 1497 909 1687 586 
Q 1878 263 2309 263 
Q 2644 263 2845 463 
Q 3047 663 3091 1038 
L 3609 1038 
z
" transform="scale(0.015625)"/>
      <path id="DejaVuSerif-Bold-57" d="M 634 2944 
L 153 2944 
L 153 3322 
L 634 3322 
L 634 4353 
L 1741 4353 
L 1741 3322 
L 2663 3322 
L 2663 2944 
L 1741 2944 
L 1741 909 
Q 1741 475 1809 369 
Q 1878 263 2059 263 
Q 2259 263 2356 397 
Q 2453 531 2459 813 
L 2925 813 
Q 2897 313 2651 111 
Q 2406 -91 1806 -91 
Q 1122 -91 878 123 
Q 634 338 634 909 
L 634 2944 
z
" transform="scale(0.015625)"/>
      <path id="DejaVuSerif-Bold-10" d="M 347 2138 
L 2309 2138 
L 2309 1294 
L 347 1294 
L 347 2138 
z
" transform="scale(0.015625)"/>
      <path id="DejaVuSerif-Bold-52" d="M 2138 263 
Q 2488 263 2630 563 
Q 2772 863 2772 1663 
Q 2772 2463 2631 2761 
Q 2491 3059 2138 3059 
Q 1784 3059 1640 2757 
Q 1497 2456 1497 1663 
Q 1497 869 1640 566 
Q 1784 263 2138 263 
z
M 2138 -91 
Q 1259 -91 761 376 
Q 263 844 263 1663 
Q 263 2484 761 2948 
Q 1259 3413 2138 3413 
Q 3019 3413 3516 2948 
Q 4013 2484 4013 1663 
Q 4013 844 3514 376 
Q 3016 -91 2138 -91 
z
" transform="scale(0.015625)"/>
      <path id="DejaVuSerif-Bold-59" d="M 1428 0 
L 250 2944 
L -116 2944 
L -116 3322 
L 1791 3322 
L 1791 2944 
L 1388 2944 
L 2228 844 
L 3066 2944 
L 2631 2944 
L 2631 3322 
L 3878 3322 
L 3878 2944 
L 3494 2944 
L 2316 0 
L 1428 0 
z
" transform="scale(0.015625)"/>
      <path id="DejaVuSerif-Bold-5c" d="M 1997 -750 
Q 1847 -1116 1634 -1269 
Q 1422 -1422 1063 -1422 
Q 909 -1422 721 -1387 
Q 534 -1353 313 -1288 
L 313 -594 
L 666 -597 
Q 675 -838 779 -953 
Q 884 -1069 1094 -1069 
Q 1297 -1069 1422 -958 
Q 1547 -847 1672 -538 
L 1722 -422 
L 275 2944 
L -84 2944 
L -84 3322 
L 1831 3322 
L 1831 2944 
L 1434 2944 
L 2278 978 
L 3066 2944 
L 2625 2944 
L 2625 3322 
L 3872 3322 
L 3872 2944 
L 3469 2944 
L 1997 -750 
z
" transform="scale(0.015625)"/>
      <path id="DejaVuSerif-Bold-45" d="M 622 378 
L 622 4488 
L 147 4488 
L 147 4863 
L 1728 4863 
L 1728 2900 
Q 1869 3159 2106 3286 
Q 2344 3413 2694 3413 
Q 3403 3413 3811 2945 
Q 4219 2478 4219 1663 
Q 4219 847 3811 378 
Q 3403 -91 2694 -91 
Q 2344 -91 2106 36 
Q 1869 163 1728 422 
L 1728 0 
L 147 0 
L 147 378 
L 622 378 
z
M 1728 1497 
Q 1728 916 1876 656 
Q 2025 397 2356 397 
Q 2697 397 2836 672 
Q 2975 947 2975 1663 
Q 2975 2378 2836 2651 
Q 2697 2925 2356 2925 
Q 2025 2925 1876 2665 
Q 1728 2406 1728 1825 
L 1728 1497 
z
" transform="scale(0.015625)"/>
      <path id="DejaVuSerif-Bold-58" d="M 3963 3322 
L 3963 378 
L 4434 378 
L 4434 0 
L 2853 0 
L 2853 469 
Q 2656 172 2400 40 
Q 2144 -91 1753 -91 
Q 1194 -91 908 239 
Q 622 569 622 1209 
L 622 2944 
L 147 2944 
L 147 3322 
L 1728 3322 
L 1728 1381 
Q 1728 763 1831 595 
Q 1934 428 2209 428 
Q 2544 428 2698 675 
Q 2853 922 2853 1459 
L 2853 2944 
L 2450 2944 
L 2450 3322 
L 3963 3322 
z
" transform="scale(0.015625)"/>
      <path id="DejaVuSerif-Bold-51" d="M 219 0 
L 219 378 
L 691 378 
L 691 2944 
L 219 2944 
L 219 3322 
L 1797 3322 
L 1797 2853 
Q 1997 3150 2253 3281 
Q 2509 3413 2900 3413 
Q 3459 3413 3745 3083 
Q 4031 2753 4031 2113 
L 4031 378 
L 4506 378 
L 4506 0 
L 2522 0 
L 2522 378 
L 2925 378 
L 2925 2144 
Q 2925 2566 2817 2730 
Q 2709 2894 2444 2894 
Q 2109 2894 1953 2648 
Q 1797 2403 1797 1869 
L 1797 378 
L 2203 378 
L 2203 0 
L 219 0 
z
" transform="scale(0.015625)"/>
      <path id="DejaVuSerif-Bold-44" d="M 3525 2041 
L 3525 378 
L 4000 378 
L 4000 0 
L 2419 0 
L 2419 422 
Q 2200 159 1931 34 
Q 1663 -91 1319 -91 
Q 809 -91 536 182 
Q 263 456 263 966 
Q 263 1525 655 1803 
Q 1047 2081 1838 2081 
L 2419 2081 
L 2419 2278 
Q 2419 2681 2228 2873 
Q 2038 3066 1638 3066 
Q 1306 3066 1126 2930 
Q 947 2794 872 2484 
L 519 2484 
L 519 3200 
Q 816 3306 1134 3359 
Q 1453 3413 1806 3413 
Q 2697 3413 3111 3081 
Q 3525 2750 3525 2041 
z
M 2419 1044 
L 2419 1709 
L 2003 1709 
Q 1694 1709 1528 1540 
Q 1363 1372 1363 1056 
Q 1363 741 1483 584 
Q 1603 428 1850 428 
Q 2106 428 2262 597 
Q 2419 766 2419 1044 
z
" transform="scale(0.015625)"/>
      <path id="Cmmi10-6b" d="M 531 -128 
Q 531 -47 616 -6 
L 4013 1600 
L 594 3219 
Q 531 3238 531 3328 
Q 531 3372 567 3414 
Q 603 3456 659 3456 
Q 672 3456 709 3444 
L 4384 1709 
Q 4441 1681 4441 1600 
Q 4441 1516 4366 1484 
L 709 -244 
Q 672 -256 659 -256 
Q 603 -256 567 -214 
Q 531 -172 531 -128 
z
" transform="scale(0.015625)"/>
      <path id="DejaVuSerif-Bold-b" d="M 2694 -997 
Q 1641 -606 1122 122 
Q 603 850 603 1931 
Q 603 3013 1115 3731 
Q 1628 4450 2694 4863 
L 2694 4488 
Q 2200 4188 1983 3598 
Q 1766 3009 1766 1931 
Q 1766 856 1983 267 
Q 2200 -322 2694 -622 
L 2694 -997 
z
" transform="scale(0.015625)"/>
      <path id="DejaVuSerif-Bold-4b" d="M 219 0 
L 219 378 
L 691 378 
L 691 4488 
L 197 4488 
L 197 4863 
L 1797 4863 
L 1797 2853 
Q 1997 3150 2253 3281 
Q 2509 3413 2900 3413 
Q 3459 3413 3745 3083 
Q 4031 2753 4031 2113 
L 4031 378 
L 4506 378 
L 4506 0 
L 2522 0 
L 2522 378 
L 2925 378 
L 2925 2144 
Q 2925 2566 2817 2730 
Q 2709 2894 2444 2894 
Q 2109 2894 1953 2648 
Q 1797 2403 1797 1869 
L 1797 378 
L 2203 378 
L 2203 0 
L 219 0 
z
" transform="scale(0.015625)"/>
      <path id="DejaVuSerif-Bold-4e" d="M 2216 0 
L 219 0 
L 219 378 
L 691 378 
L 691 4488 
L 219 4488 
L 219 4863 
L 1797 4863 
L 1797 1741 
L 3138 2944 
L 2741 2944 
L 2741 3322 
L 4256 3322 
L 4256 2944 
L 3641 2944 
L 2784 2175 
L 4184 378 
L 4544 378 
L 4544 0 
L 2638 0 
L 2638 378 
L 3028 378 
L 2106 1563 
L 1797 1288 
L 1797 378 
L 2216 378 
L 2216 0 
z
" transform="scale(0.015625)"/>
      <path id="DejaVuSerif-Bold-4f" d="M 1797 378 
L 2272 378 
L 2272 0 
L 219 0 
L 219 378 
L 691 378 
L 691 4488 
L 219 4488 
L 219 4863 
L 1797 4863 
L 1797 378 
z
" transform="scale(0.015625)"/>
      <path id="DejaVuSerif-Bold-56" d="M 300 97 
L 300 1025 
L 653 1025 
Q 697 653 931 458 
Q 1166 263 1569 263 
Q 1906 263 2086 380 
Q 2266 497 2266 716 
Q 2266 916 2152 1025 
Q 2038 1134 1709 1216 
L 1253 1331 
Q 738 1459 506 1698 
Q 275 1938 275 2344 
Q 275 2884 650 3148 
Q 1025 3413 1806 3413 
Q 2100 3413 2433 3364 
Q 2766 3316 3169 3213 
L 3169 2375 
L 2816 2375 
Q 2788 2716 2573 2887 
Q 2359 3059 1959 3059 
Q 1622 3059 1448 2951 
Q 1275 2844 1275 2638 
Q 1275 2469 1375 2372 
Q 1475 2275 1734 2209 
L 2188 2094 
Q 2841 1928 3091 1684 
Q 3341 1441 3341 1006 
Q 3341 444 2939 176 
Q 2538 -91 1691 -91 
Q 1381 -91 1034 -44 
Q 688 3 300 97 
z
" transform="scale(0.015625)"/>
      <path id="DejaVuSerif-Bold-53" d="M 1728 1825 
L 1728 1497 
Q 1728 916 1876 656 
Q 2025 397 2356 397 
Q 2697 397 2836 672 
Q 2975 947 2975 1663 
Q 2975 2378 2836 2651 
Q 2697 2925 2356 2925 
Q 2025 2925 1876 2665 
Q 1728 2406 1728 1825 
z
M 622 2944 
L 147 2944 
L 147 3322 
L 1728 3322 
L 1728 2900 
Q 1869 3159 2106 3286 
Q 2344 3413 2694 3413 
Q 3403 3413 3811 2945 
Q 4219 2478 4219 1663 
Q 4219 847 3811 378 
Q 3403 -91 2694 -91 
Q 2344 -91 2106 36 
Q 1869 163 1728 422 
L 1728 -953 
L 2241 -953 
L 2241 -1331 
L 147 -1331 
L 147 -953 
L 622 -953 
L 622 2944 
z
" transform="scale(0.015625)"/>
      <path id="DejaVuSerif-Bold-19" d="M 1575 2766 
Q 1778 2928 2029 3009 
Q 2281 3091 2578 3091 
Q 3294 3091 3701 2672 
Q 4109 2253 4109 1522 
Q 4109 750 3650 329 
Q 3191 -91 2344 -91 
Q 1388 -91 895 486 
Q 403 1063 403 2181 
Q 403 3453 950 4101 
Q 1497 4750 2572 4750 
Q 2853 4750 3175 4703 
Q 3497 4656 3866 4563 
L 3866 3738 
L 3488 3738 
Q 3409 4056 3192 4220 
Q 2975 4384 2631 4384 
Q 2075 4384 1826 4003 
Q 1578 3622 1575 2766 
z
M 2272 275 
Q 2594 275 2731 548 
Q 2869 822 2869 1497 
Q 2869 2172 2731 2445 
Q 2594 2719 2272 2719 
Q 1950 2719 1814 2445 
Q 1678 2172 1678 1497 
Q 1678 822 1814 548 
Q 1950 275 2272 275 
z
" transform="scale(0.015625)"/>
      <path id="DejaVuSerif-Bold-c" d="M 325 -997 
L 325 -622 
Q 819 -322 1036 267 
Q 1253 856 1253 1931 
Q 1253 3009 1036 3598 
Q 819 4188 325 4488 
L 325 4863 
Q 1391 4450 1905 3731 
Q 2419 3013 2419 1931 
Q 2419 850 1898 122 
Q 1378 -606 325 -997 
z
" transform="scale(0.015625)"/>
     </defs>
     <use xlink:href="#DejaVuSerif-Bold-35" transform="translate(0 0.084203)"/>
     <use xlink:href="#DejaVuSerif-Bold-1b" transform="translate(83.105469 0.084203)"/>
     <use xlink:href="#DejaVuSerif-Bold-3" transform="translate(152.685547 0.084203)"/>
     <use xlink:href="#DejaVuSerif-Bold-47" transform="translate(187.5 0.084203)"/>
     <use xlink:href="#DejaVuSerif-Bold-4c" transform="translate(257.421875 0.084203)"/>
     <use xlink:href="#DejaVuSerif-Bold-55" transform="translate(295.410156 0.084203)"/>
     <use xlink:href="#DejaVuSerif-Bold-48" transform="translate(348.095703 0.084203)"/>
     <use xlink:href="#DejaVuSerif-Bold-46" transform="translate(411.71875 0.084203)"/>
     <use xlink:href="#DejaVuSerif-Bold-57" transform="translate(472.607422 0.084203)"/>
     <use xlink:href="#DejaVuSerif-Bold-10" transform="translate(518.798828 0.084203)"/>
     <use xlink:href="#DejaVuSerif-Bold-55" transform="translate(560.302734 0.084203)"/>
     <use xlink:href="#DejaVuSerif-Bold-48" transform="translate(612.988281 0.084203)"/>
     <use xlink:href="#DejaVuSerif-Bold-46" transform="translate(676.611328 0.084203)"/>
     <use xlink:href="#DejaVuSerif-Bold-52" transform="translate(737.5 0.084203)"/>
     <use xlink:href="#DejaVuSerif-Bold-59" transform="translate(804.199219 0.084203)"/>
     <use xlink:href="#DejaVuSerif-Bold-48" transform="translate(862.304688 0.084203)"/>
     <use xlink:href="#DejaVuSerif-Bold-55" transform="translate(925.927734 0.084203)"/>
     <use xlink:href="#DejaVuSerif-Bold-5c" transform="translate(978.613281 0.084203)"/>
     <use xlink:href="#DejaVuSerif-Bold-3" transform="translate(1036.71875 0.084203)"/>
     <use xlink:href="#DejaVuSerif-Bold-45" transform="translate(1071.533203 0.084203)"/>
     <use xlink:href="#DejaVuSerif-Bold-52" transform="translate(1141.455078 0.084203)"/>
     <use xlink:href="#DejaVuSerif-Bold-58" transform="translate(1208.154297 0.084203)"/>
     <use xlink:href="#DejaVuSerif-Bold-51" transform="translate(1280.859375 0.084203)"/>
     <use xlink:href="#DejaVuSerif-Bold-47" transform="translate(1353.564453 0.084203)"/>
     <use xlink:href="#DejaVuSerif-Bold-44" transform="translate(1423.486328 0.084203)"/>
     <use xlink:href="#DejaVuSerif-Bold-55" transform="translate(1488.28125 0.084203)"/>
     <use xlink:href="#DejaVuSerif-Bold-5c" transform="translate(1540.966797 0.084203)"/>
     <use xlink:href="#DejaVuSerif-Bold-3" transform="translate(1599.072266 0.084203)"/>
     <use xlink:href="#DejaVuSerif-Bold-3" transform="translate(1633.886719 0.084203)"/>
     <use xlink:href="#Cmmi10-5d" transform="translate(1668.701172 0.084203)"/>
     <use xlink:href="#Cmr10-31" transform="translate(1765.349869 41.373437) scale(0.7)"/>
     <use xlink:href="#Cmmi10-6b" transform="translate(1826.070342 0.084203)"/>
     <use xlink:href="#Cmmi10-51" transform="translate(1923.755946 0.084203)"/>
     <use xlink:href="#DejaVuSerif-Bold-3" transform="translate(1975.757899 0.084203)"/>
     <use xlink:href="#DejaVuSerif-Bold-3" transform="translate(2010.572352 0.084203)"/>
     <use xlink:href="#DejaVuSerif-Bold-b" transform="translate(2045.386806 0.084203)"/>
     <use xlink:href="#DejaVuSerif-Bold-46" transform="translate(2092.701259 0.084203)"/>
     <use xlink:href="#DejaVuSerif-Bold-4b" transform="translate(2153.589931 0.084203)"/>
     <use xlink:href="#DejaVuSerif-Bold-48" transform="translate(2226.295009 0.084203)"/>
     <use xlink:href="#DejaVuSerif-Bold-46" transform="translate(2289.918056 0.084203)"/>
     <use xlink:href="#DejaVuSerif-Bold-4e" transform="translate(2350.806727 0.084203)"/>
     <use xlink:href="#DejaVuSerif-Bold-4f" transform="translate(2420.093837 0.084203)"/>
     <use xlink:href="#DejaVuSerif-Bold-4c" transform="translate(2458.082118 0.084203)"/>
     <use xlink:href="#DejaVuSerif-Bold-56" transform="translate(2496.070399 0.084203)"/>
     <use xlink:href="#DejaVuSerif-Bold-57" transform="translate(2552.369227 0.084203)"/>
     <use xlink:href="#DejaVuSerif-Bold-3" transform="translate(2598.560634 0.084203)"/>
     <use xlink:href="#DejaVuSerif-Bold-56" transform="translate(2633.375087 0.084203)"/>
     <use xlink:href="#DejaVuSerif-Bold-57" transform="translate(2689.673915 0.084203)"/>
     <use xlink:href="#DejaVuSerif-Bold-48" transform="translate(2735.865321 0.084203)"/>
     <use xlink:href="#DejaVuSerif-Bold-53" transform="translate(2799.488368 0.084203)"/>
     <use xlink:href="#DejaVuSerif-Bold-3" transform="translate(2869.410243 0.084203)"/>
     <use xlink:href="#DejaVuSerif-Bold-19" transform="translate(2904.224696 0.084203)"/>
     <use xlink:href="#DejaVuSerif-Bold-c" transform="translate(2973.804774 0.084203)"/>
    </g>
   </g>
   <g id="legend_1">
    <g id="patch_5">
     <path d="M 329.818314 246.01725 
L 346.618314 246.01725 
L 346.618314 240.13725 
L 329.818314 240.13725 
z
" style="fill: #008300"/>
    </g>
    <g id="text_21">
     <!-- $N^2$ (square): larger $\Rightarrow$ R8 passes -->
     <g transform="translate(353.338314 246.01725) scale(0.084 -0.084)">
      <defs>
       <path id="Cmsy10-70" d="M 481 850 
Q 428 850 393 890 
Q 359 931 359 978 
Q 359 1031 393 1068 
Q 428 1106 481 1106 
L 4634 1106 
Q 5009 1416 5453 1600 
Q 5009 1784 4634 2094 
L 481 2094 
Q 428 2094 393 2131 
Q 359 2169 359 2222 
Q 359 2269 393 2309 
Q 428 2350 481 2350 
L 4353 2350 
Q 4194 2516 3950 2850 
Q 3706 3184 3706 3291 
Q 3706 3319 3723 3339 
Q 3741 3359 3769 3359 
L 3897 3359 
Q 3938 3359 3950 3322 
Q 4109 3009 4314 2750 
Q 4519 2491 4787 2272 
Q 5056 2053 5353 1906 
Q 5650 1759 5991 1672 
Q 6034 1644 6034 1600 
Q 6034 1550 5991 1538 
Q 5325 1369 4792 934 
Q 4259 500 3950 -122 
Q 3938 -159 3897 -159 
L 3769 -159 
Q 3706 -159 3706 -91 
Q 3706 -16 3832 179 
Q 3959 375 4111 567 
Q 4263 759 4353 850 
L 481 850 
z
" transform="scale(0.015625)"/>
       <path id="DejaVuSerif-1b" d="M 2981 1275 
Q 2981 1775 2732 2051 
Q 2484 2328 2034 2328 
Q 1584 2328 1336 2051 
Q 1088 1775 1088 1275 
Q 1088 772 1336 495 
Q 1584 219 2034 219 
Q 2484 219 2732 495 
Q 2981 772 2981 1275 
z
M 2853 3541 
Q 2853 3966 2637 4203 
Q 2422 4441 2034 4441 
Q 1650 4441 1433 4203 
Q 1216 3966 1216 3541 
Q 1216 3113 1433 2875 
Q 1650 2638 2034 2638 
Q 2422 2638 2637 2875 
Q 2853 3113 2853 3541 
z
M 2516 2484 
Q 3047 2413 3344 2092 
Q 3641 1772 3641 1275 
Q 3641 619 3225 264 
Q 2809 -91 2034 -91 
Q 1263 -91 845 264 
Q 428 619 428 1275 
Q 428 1772 725 2092 
Q 1022 2413 1556 2484 
Q 1084 2569 832 2842 
Q 581 3116 581 3541 
Q 581 4103 968 4426 
Q 1356 4750 2034 4750 
Q 2713 4750 3100 4426 
Q 3488 4103 3488 3541 
Q 3488 3116 3236 2842 
Q 2984 2569 2516 2484 
z
" transform="scale(0.015625)"/>
      </defs>
      <use xlink:href="#Cmmi10-5d" transform="translate(0 0.084203)"/>
      <use xlink:href="#Cmr10-31" transform="translate(96.648697 41.373437) scale(0.7)"/>
      <use xlink:href="#DejaVuSerif-3" transform="translate(137.369113 0.084203)"/>
      <use xlink:href="#DejaVuSerif-b" transform="translate(169.156222 0.084203)"/>
      <use xlink:href="#DejaVuSerif-56" transform="translate(208.169894 0.084203)"/>
      <use xlink:href="#DejaVuSerif-54" transform="translate(259.488254 0.084203)"/>
      <use xlink:href="#DejaVuSerif-58" transform="translate(323.501925 0.084203)"/>
      <use xlink:href="#DejaVuSerif-44" transform="translate(387.906222 0.084203)"/>
      <use xlink:href="#DejaVuSerif-55" transform="translate(447.525363 0.084203)"/>
      <use xlink:href="#DejaVuSerif-48" transform="translate(495.328097 0.084203)"/>
      <use xlink:href="#DejaVuSerif-c" transform="translate(554.507785 0.084203)"/>
      <use xlink:href="#DejaVuSerif-1d" transform="translate(593.521457 0.084203)"/>
      <use xlink:href="#DejaVuSerif-3" transform="translate(627.212863 0.084203)"/>
      <use xlink:href="#DejaVuSerif-4f" transform="translate(658.999972 0.084203)"/>
      <use xlink:href="#DejaVuSerif-44" transform="translate(690.982394 0.084203)"/>
      <use xlink:href="#DejaVuSerif-55" transform="translate(750.601535 0.084203)"/>
      <use xlink:href="#DejaVuSerif-4a" transform="translate(798.404269 0.084203)"/>
      <use xlink:href="#DejaVuSerif-48" transform="translate(862.417941 0.084203)"/>
      <use xlink:href="#DejaVuSerif-55" transform="translate(921.597629 0.084203)"/>
      <use xlink:href="#DejaVuSerif-3" transform="translate(969.400363 0.084203)"/>
      <use xlink:href="#Cmsy10-70" transform="translate(1021.18753 0.084203)"/>
      <use xlink:href="#DejaVuSerif-3" transform="translate(1141.187587 0.084203)"/>
      <use xlink:href="#DejaVuSerif-35" transform="translate(1172.974696 0.084203)"/>
      <use xlink:href="#DejaVuSerif-1b" transform="translate(1248.267665 0.084203)"/>
      <use xlink:href="#DejaVuSerif-3" transform="translate(1311.890712 0.084203)"/>
      <use xlink:href="#DejaVuSerif-53" transform="translate(1343.677821 0.084203)"/>
      <use xlink:href="#DejaVuSerif-44" transform="translate(1407.691493 0.084203)"/>
      <use xlink:href="#DejaVuSerif-56" transform="translate(1467.310634 0.084203)"/>
      <use xlink:href="#DejaVuSerif-56" transform="translate(1518.628993 0.084203)"/>
      <use xlink:href="#DejaVuSerif-48" transform="translate(1569.947352 0.084203)"/>
      <use xlink:href="#DejaVuSerif-56" transform="translate(1629.12704 0.084203)"/>
     </g>
    </g>
    <g id="patch_6">
     <path d="M 329.818314 258.619219 
L 346.618314 258.619219 
L 346.618314 252.739219 
L 329.818314 252.739219 
z
" style="fill: #e34948"/>
    </g>
    <g id="text_22">
     <!-- $d$ (circle) -->
     <g transform="translate(353.338314 258.619219) scale(0.084 -0.084)">
      <use xlink:href="#Cmmi10-51" transform="translate(0 0.015625)"/>
      <use xlink:href="#DejaVuSerif-3" transform="translate(52.001953 0.015625)"/>
      <use xlink:href="#DejaVuSerif-b" transform="translate(83.789062 0.015625)"/>
      <use xlink:href="#DejaVuSerif-46" transform="translate(122.802734 0.015625)"/>
      <use xlink:href="#DejaVuSerif-4c" transform="translate(178.808594 0.015625)"/>
      <use xlink:href="#DejaVuSerif-55" transform="translate(210.791016 0.015625)"/>
      <use xlink:href="#DejaVuSerif-46" transform="translate(258.59375 0.015625)"/>
      <use xlink:href="#DejaVuSerif-4f" transform="translate(314.599609 0.015625)"/>
      <use xlink:href="#DejaVuSerif-48" transform="translate(346.582031 0.015625)"/>
      <use xlink:href="#DejaVuSerif-c" transform="translate(405.761719 0.015625)"/>
     </g>
    </g>
   </g>
  </g>
 </g>
 <defs>
  <clipPath id="p271a0ff213">
   <rect x="111.937594" y="24.88" width="390.16472" height="243.317187"/>
  </clipPath>
 </defs>
</svg>
