<?xml version="1.0" encoding="utf-8" standalone="no"?>
<!DOCTYPE svg PUBLIC "-//W3C//DTD SVG 1.1//EN"
  "http://www.w3.org/Graphics/SVG/1.1/DTD/svg11.dtd">
<svg xmlns:xlink="http://www.w3.org/1999/xlink" width="498.963686pt" height="217.166016pt" viewBox="0 0 498.963686 217.166016" xmlns="http://www.w3.org/2000/svg" version="1.1">
 <metadata>
  <rdf:RDF xmlns:dc="http://purl.org/dc/elements/1.1/" xmlns:cc="http://creativecommons.org/ns#" xmlns:rdf="http://www.w3.org/1999/02/22-rdf-syntax-ns#">
   <cc:Work>
    <dc:type rdf:resource="http://purl.org/dc/dcmitype/StillImage"/>
    <dc:date>2026-07-23T01:03:19.137269</dc:date>
    <dc:format>image/svg+xml</dc:format>
    <dc:creator>
     <cc:Agent>
      <dc:title>Matplotlib v3.11.1, https://matplotlib.org/</dc:title>
     </cc:Agent>
    </dc:creator>
   </cc:Work>
  </rdf:RDF>
 </metadata>
 <defs>
  <style type="text/css">*{stroke-linejoin: round; stroke-linecap: butt}</style>
 </defs>
 <g id="figure_1">
  <g id="patch_1">
   <path d="M 0 217.166016 
L 498.963686 217.166016 
L 498.963686 -0 
L 0 -0 
z
" style="fill: #fcfcfb"/>
  </g>
  <g id="axes_1">
   <g id="patch_2">
    <path d="M 47.643125 176.466016 
L 250.853406 176.466016 
L 250.853406 25.311816 
L 47.643125 25.311816 
z
" style="fill: #fcfcfb"/>
   </g>
   <g id="matplotlib.axis_1">
    <g id="xtick_1">
     <g id="line2d_1">
      <path d="M 65.277075 176.466016 
L 65.277075 25.311816 
" clip-path="url(#p56f079613c)" style="fill: none; stroke: #e1e0d9; stroke-width: 0.7; stroke-linecap: square"/>
     </g>
     <g id="line2d_2">
      <defs>
       <path id="mceb162d28b" d="M 0 0 
L 0 3.5 
" style="stroke: #898781; stroke-width: 0.8"/>
      </defs>
      <g>
       <use xlink:href="#mceb162d28b" x="65.277075" y="176.466016" style="fill: #898781; stroke: #898781; stroke-width: 0.8"/>
      </g>
     </g>
     <g id="text_1">
      <!-- $2^{16}$ -->
      <g style="fill: #52514e" transform="translate(59.427075 191.386016) scale(0.09 -0.09)">
       <defs>
        <path id="Cmr10-31" d="M 319 0 
L 319 172 
Q 319 188 331 206 
L 1325 1306 
Q 1550 1550 1690 1715 
Q 1831 1881 1968 2097 
Q 2106 2313 2186 2536 
Q 2266 2759 2266 3009 
Q 2266 3272 2169 3511 
Q 2072 3750 1880 3894 
Q 1688 4038 1416 4038 
Q 1138 4038 916 3870 
Q 694 3703 603 3438 
Q 628 3444 672 3444 
Q 816 3444 917 3347 
Q 1019 3250 1019 3097 
Q 1019 2950 917 2848 
Q 816 2747 672 2747 
Q 522 2747 420 2851 
Q 319 2956 319 3097 
Q 319 3338 409 3548 
Q 500 3759 670 3923 
Q 841 4088 1055 4175 
Q 1269 4263 1509 4263 
Q 1875 4263 2190 4108 
Q 2506 3953 2690 3670 
Q 2875 3388 2875 3009 
Q 2875 2731 2753 2481 
Q 2631 2231 2440 2026 
Q 2250 1822 1953 1562 
Q 1656 1303 1563 1216 
L 838 519 
L 1453 519 
Q 1906 519 2211 526 
Q 2516 534 2534 550 
Q 2609 631 2688 1141 
L 2875 1141 
L 2694 0 
L 319 0 
z
" transform="scale(0.015625)"/>
        <path id="Cmr10-64" d="M 594 0 
L 594 225 
Q 1394 225 1394 428 
L 1394 3788 
Q 1063 3628 556 3628 
L 556 3853 
Q 1341 3853 1741 4263 
L 1831 4263 
Q 1853 4263 1873 4245 
Q 1894 4228 1894 4206 
L 1894 428 
Q 1894 225 2694 225 
L 2694 0 
L 594 0 
z
" transform="scale(0.015625)"/>
        <path id="Cmr10-45" d="M 1600 -141 
Q 1203 -141 937 70 
Q 672 281 526 617 
Q 381 953 325 1322 
Q 269 1691 269 2069 
Q 269 2575 466 3084 
Q 663 3594 1045 3928 
Q 1428 4263 1953 4263 
Q 2172 4263 2361 4180 
Q 2550 4097 2658 3936 
Q 2766 3775 2766 3547 
Q 2766 3416 2677 3327 
Q 2588 3238 2456 3238 
Q 2331 3238 2240 3328 
Q 2150 3419 2150 3547 
Q 2150 3672 2240 3762 
Q 2331 3853 2456 3853 
L 2491 3853 
Q 2409 3969 2261 4023 
Q 2113 4078 1953 4078 
Q 1759 4078 1595 3993 
Q 1431 3909 1300 3765 
Q 1169 3622 1081 3448 
Q 994 3275 945 3053 
Q 897 2831 884 2637 
Q 872 2444 872 2150 
Q 984 2413 1190 2580 
Q 1397 2747 1656 2747 
Q 1941 2747 2175 2631 
Q 2409 2516 2578 2311 
Q 2747 2106 2836 1843 
Q 2925 1581 2925 1313 
Q 2925 938 2758 598 
Q 2591 259 2287 59 
Q 1984 -141 1600 -141 
z
M 1600 63 
Q 1847 63 1997 175 
Q 2147 288 2217 473 
Q 2288 659 2305 848 
Q 2322 1038 2322 1313 
Q 2322 1675 2287 1931 
Q 2253 2188 2100 2383 
Q 1947 2578 1631 2578 
Q 1372 2578 1205 2403 
Q 1038 2228 961 1961 
Q 884 1694 884 1447 
Q 884 1363 891 1319 
Q 891 1309 889 1303 
Q 888 1297 884 1288 
Q 884 1013 940 731 
Q 997 450 1156 256 
Q 1316 63 1600 63 
z
" transform="scale(0.015625)"/>
       </defs>
       <use xlink:href="#Cmr10-31" transform="translate(0 0.084203)"/>
       <use xlink:href="#Cmr10-64" transform="translate(54.004291 41.373437) scale(0.7)"/>
       <use xlink:href="#Cmr10-45" transform="translate(89.004291 41.373437) scale(0.7)"/>
      </g>
     </g>
    </g>
    <g id="xtick_2">
     <g id="line2d_3">
      <path d="M 93.267472 176.466016 
L 93.267472 25.311816 
" clip-path="url(#p56f079613c)" style="fill: none; stroke: #e1e0d9; stroke-width: 0.7; stroke-linecap: square"/>
     </g>
     <g id="line2d_4">
      <g>
       <use xlink:href="#mceb162d28b" x="93.267472" y="176.466016" style="fill: #898781; stroke: #898781; stroke-width: 0.8"/>
      </g>
     </g>
     <g id="text_2">
      <!-- $2^{18}$ -->
      <g style="fill: #52514e" transform="translate(87.417472 191.386016) scale(0.09 -0.09)">
       <defs>
        <path id="Cmr10-4d" d="M 269 972 
Q 269 1356 522 1651 
Q 775 1947 1172 2144 
L 934 2297 
Q 716 2441 578 2680 
Q 441 2919 441 3181 
Q 441 3488 602 3734 
Q 763 3981 1030 4122 
Q 1297 4263 1600 4263 
Q 1884 4263 2148 4147 
Q 2413 4031 2583 3815 
Q 2753 3600 2753 3303 
Q 2753 3088 2651 2903 
Q 2550 2719 2373 2572 
Q 2197 2425 1997 2322 
L 2363 2088 
Q 2616 1922 2770 1653 
Q 2925 1384 2925 1088 
Q 2925 741 2739 456 
Q 2553 172 2247 15 
Q 1941 -141 1600 -141 
Q 1269 -141 961 -6 
Q 653 128 461 383 
Q 269 638 269 972 
z
M 616 972 
Q 616 719 755 509 
Q 894 300 1122 181 
Q 1350 63 1600 63 
Q 1972 63 2275 280 
Q 2578 497 2578 856 
Q 2578 978 2529 1098 
Q 2481 1219 2395 1317 
Q 2309 1416 2203 1478 
L 1344 2034 
Q 1144 1928 976 1765 
Q 809 1603 712 1400 
Q 616 1197 616 972 
z
M 1056 2925 
L 1831 2425 
Q 2100 2581 2272 2803 
Q 2444 3025 2444 3303 
Q 2444 3519 2323 3698 
Q 2203 3878 2009 3978 
Q 1816 4078 1594 4078 
Q 1400 4078 1203 4003 
Q 1006 3928 878 3779 
Q 750 3631 750 3431 
Q 750 3131 1056 2925 
z
" transform="scale(0.015625)"/>
       </defs>
       <use xlink:href="#Cmr10-31" transform="translate(0 0.084203)"/>
       <use xlink:href="#Cmr10-64" transform="translate(54.004291 41.373437) scale(0.7)"/>
       <use xlink:href="#Cmr10-4d" transform="translate(89.004291 41.373437) scale(0.7)"/>
      </g>
     </g>
    </g>
    <g id="xtick_3">
     <g id="line2d_5">
      <path d="M 121.257869 176.466016 
L 121.257869 25.311816 
" clip-path="url(#p56f079613c)" style="fill: none; stroke: #e1e0d9; stroke-width: 0.7; stroke-linecap: square"/>
     </g>
     <g id="line2d_6">
      <g>
       <use xlink:href="#mceb162d28b" x="121.257869" y="176.466016" style="fill: #898781; stroke: #898781; stroke-width: 0.8"/>
      </g>
     </g>
     <g id="text_3">
      <!-- $2^{20}$ -->
      <g style="fill: #52514e" transform="translate(115.407869 191.386016) scale(0.09 -0.09)">
       <defs>
        <path id="Cmr10-28" d="M 1600 -141 
Q 816 -141 533 504 
Q 250 1150 250 2041 
Q 250 2597 351 3087 
Q 453 3578 754 3920 
Q 1056 4263 1600 4263 
Q 2022 4263 2290 4056 
Q 2559 3850 2700 3523 
Q 2841 3197 2892 2823 
Q 2944 2450 2944 2041 
Q 2944 1491 2842 1011 
Q 2741 531 2444 195 
Q 2147 -141 1600 -141 
z
M 1600 25 
Q 1956 25 2131 390 
Q 2306 756 2347 1200 
Q 2388 1644 2388 2144 
Q 2388 2625 2347 3031 
Q 2306 3438 2132 3767 
Q 1959 4097 1600 4097 
Q 1238 4097 1063 3765 
Q 888 3434 847 3029 
Q 806 2625 806 2144 
Q 806 1788 823 1472 
Q 841 1156 916 820 
Q 991 484 1158 254 
Q 1325 25 1600 25 
z
" transform="scale(0.015625)"/>
       </defs>
       <use xlink:href="#Cmr10-31" transform="translate(0 0.084203)"/>
       <use xlink:href="#Cmr10-31" transform="translate(54.004291 41.373437) scale(0.7)"/>
       <use xlink:href="#Cmr10-28" transform="translate(89.004291 41.373437) scale(0.7)"/>
      </g>
     </g>
    </g>
    <g id="xtick_4">
     <g id="line2d_7">
      <path d="M 149.248265 176.466016 
L 149.248265 25.311816 
" clip-path="url(#p56f079613c)" style="fill: none; stroke: #e1e0d9; stroke-width: 0.7; stroke-linecap: square"/>
     </g>
     <g id="line2d_8">
      <g>
       <use xlink:href="#mceb162d28b" x="149.248265" y="176.466016" style="fill: #898781; stroke: #898781; stroke-width: 0.8"/>
      </g>
     </g>
     <g id="text_4">
      <!-- $2^{22}$ -->
      <g style="fill: #52514e" transform="translate(143.398265 191.386016) scale(0.09 -0.09)">
       <use xlink:href="#Cmr10-31" transform="translate(0 0.084203)"/>
       <use xlink:href="#Cmr10-31" transform="translate(54.004291 41.373437) scale(0.7)"/>
       <use xlink:href="#Cmr10-31" transform="translate(89.004291 41.373437) scale(0.7)"/>
      </g>
     </g>
    </g>
    <g id="xtick_5">
     <g id="line2d_9">
      <path d="M 177.238662 176.466016 
L 177.238662 25.311816 
" clip-path="url(#p56f079613c)" style="fill: none; stroke: #e1e0d9; stroke-width: 0.7; stroke-linecap: square"/>
     </g>
     <g id="line2d_10">
      <g>
       <use xlink:href="#mceb162d28b" x="177.238662" y="176.466016" style="fill: #898781; stroke: #898781; stroke-width: 0.8"/>
      </g>
     </g>
     <g id="text_5">
      <!-- $2^{24}$ -->
      <g style="fill: #52514e" transform="translate(171.388662 191.386016) scale(0.09 -0.09)">
       <defs>
        <path id="Cmr10-3b" d="M 178 1056 
L 178 1281 
L 2156 4231 
Q 2178 4263 2222 4263 
L 2316 4263 
Q 2388 4263 2388 4191 
L 2388 1281 
L 3016 1281 
L 3016 1056 
L 2388 1056 
L 2388 428 
Q 2388 297 2575 261 
Q 2763 225 3009 225 
L 3009 0 
L 1247 0 
L 1247 225 
Q 1494 225 1681 261 
Q 1869 297 1869 428 
L 1869 1056 
L 178 1056 
z
M 391 1281 
L 1906 1281 
L 1906 3547 
L 391 1281 
z
" transform="scale(0.015625)"/>
       </defs>
       <use xlink:href="#Cmr10-31" transform="translate(0 0.084203)"/>
       <use xlink:href="#Cmr10-31" transform="translate(54.004291 41.373437) scale(0.7)"/>
       <use xlink:href="#Cmr10-3b" transform="translate(89.004291 41.373437) scale(0.7)"/>
      </g>
     </g>
    </g>
    <g id="xtick_6">
     <g id="line2d_11">
      <path d="M 205.229059 176.466016 
L 205.229059 25.311816 
" clip-path="url(#p56f079613c)" style="fill: none; stroke: #e1e0d9; stroke-width: 0.7; stroke-linecap: square"/>
     </g>
     <g id="line2d_12">
      <g>
       <use xlink:href="#mceb162d28b" x="205.229059" y="176.466016" style="fill: #898781; stroke: #898781; stroke-width: 0.8"/>
      </g>
     </g>
     <g id="text_6">
      <!-- $2^{26}$ -->
      <g style="fill: #52514e" transform="translate(199.379059 191.386016) scale(0.09 -0.09)">
       <use xlink:href="#Cmr10-31" transform="translate(0 0.084203)"/>
       <use xlink:href="#Cmr10-31" transform="translate(54.004291 41.373437) scale(0.7)"/>
       <use xlink:href="#Cmr10-45" transform="translate(89.004291 41.373437) scale(0.7)"/>
      </g>
     </g>
    </g>
    <g id="xtick_7">
     <g id="line2d_13">
      <path d="M 233.219456 176.466016 
L 233.219456 25.311816 
" clip-path="url(#p56f079613c)" style="fill: none; stroke: #e1e0d9; stroke-width: 0.7; stroke-linecap: square"/>
     </g>
     <g id="line2d_14">
      <g>
       <use xlink:href="#mceb162d28b" x="233.219456" y="176.466016" style="fill: #898781; stroke: #898781; stroke-width: 0.8"/>
      </g>
     </g>
     <g id="text_7">
      <!-- $2^{28}$ -->
      <g style="fill: #52514e" transform="translate(227.369456 191.386016) scale(0.09 -0.09)">
       <use xlink:href="#Cmr10-31" transform="translate(0 0.084203)"/>
       <use xlink:href="#Cmr10-31" transform="translate(54.004291 41.373437) scale(0.7)"/>
       <use xlink:href="#Cmr10-4d" transform="translate(89.004291 41.373437) scale(0.7)"/>
      </g>
     </g>
    </g>
    <g id="text_8">
     <!-- prime bound -->
     <g style="fill: #0b0b0b" transform="translate(116.064515 206.719512) scale(0.12 -0.12)">
      <defs>
       <path id="Cambria-92" d="M 1150 94 
L 1150 -566 
Q 1150 -769 1164 -869 
Q 1178 -969 1214 -1026 
Q 1250 -1084 1317 -1121 
Q 1384 -1159 1534 -1191 
L 1534 -1344 
L 259 -1344 
L 259 -1191 
Q 372 -1159 442 -1126 
Q 513 -1094 550 -1030 
Q 588 -966 600 -856 
Q 613 -747 613 -566 
L 613 2116 
Q 613 2341 606 2436 
Q 600 2531 581 2593 
Q 563 2656 527 2697 
Q 491 2738 430 2766 
Q 369 2794 228 2822 
L 228 2988 
L 963 3016 
L 1153 3016 
L 1113 2506 
L 1159 2494 
Q 1353 2691 1465 2780 
Q 1578 2869 1698 2928 
Q 1819 2988 1930 3013 
Q 2041 3038 2166 3038 
Q 2681 3038 2957 2652 
Q 3234 2266 3234 1522 
Q 3234 1006 3078 654 
Q 2922 303 2623 126 
Q 2325 -50 1913 -50 
Q 1681 -50 1493 -11 
Q 1306 28 1150 94 
z
M 1150 1125 
Q 1150 825 1187 662 
Q 1225 500 1320 398 
Q 1416 297 1545 247 
Q 1675 197 1888 197 
Q 2266 197 2456 511 
Q 2647 825 2647 1438 
Q 2647 2663 1931 2663 
Q 1756 2663 1629 2608 
Q 1503 2553 1378 2431 
Q 1253 2309 1201 2195 
Q 1150 2081 1150 1950 
L 1150 1125 
z
" transform="scale(0.015625)"/>
       <path id="Cambria-94" d="M 1147 2469 
L 1191 2459 
Q 1363 2669 1509 2789 
Q 1656 2909 1826 2975 
Q 1997 3041 2213 3041 
Q 2394 3041 2541 3022 
L 2541 2303 
L 2188 2303 
Q 2113 2472 2028 2548 
Q 1944 2625 1797 2625 
Q 1684 2625 1573 2559 
Q 1463 2494 1359 2369 
Q 1256 2244 1217 2134 
Q 1178 2025 1178 1875 
L 1178 781 
Q 1178 497 1212 389 
Q 1247 281 1326 231 
Q 1406 181 1566 153 
L 1566 0 
L 306 0 
L 306 153 
Q 425 191 476 219 
Q 528 247 565 297 
Q 603 347 622 450 
Q 641 553 641 772 
L 641 2134 
Q 641 2334 634 2456 
Q 628 2578 590 2651 
Q 553 2725 476 2761 
Q 400 2797 259 2822 
L 259 2984 
L 991 3016 
L 1181 3016 
L 1147 2469 
z
" transform="scale(0.015625)"/>
       <path id="Cambria-8b" d="M 1197 4213 
L 1197 3606 
L 622 3606 
L 622 4213 
L 1197 4213 
z
M 303 153 
Q 425 191 476 219 
Q 528 247 564 297 
Q 600 347 620 450 
Q 641 553 641 772 
L 641 2134 
Q 641 2334 634 2456 
Q 628 2578 590 2651 
Q 553 2725 476 2761 
Q 400 2797 259 2822 
L 259 2988 
L 988 3016 
L 1178 3016 
L 1178 781 
Q 1178 513 1203 408 
Q 1228 303 1298 248 
Q 1369 194 1528 153 
L 1528 0 
L 303 0 
L 303 153 
z
" transform="scale(0.015625)"/>
       <path id="Cambria-8f" d="M 1147 2506 
L 1191 2494 
Q 1378 2681 1498 2776 
Q 1619 2872 1731 2930 
Q 1844 2988 1942 3013 
Q 2041 3038 2144 3038 
Q 2456 3038 2653 2894 
Q 2850 2750 2925 2453 
Q 3159 2691 3304 2803 
Q 3450 2916 3601 2977 
Q 3753 3038 3928 3038 
Q 4138 3038 4289 2977 
Q 4441 2916 4545 2789 
Q 4650 2663 4698 2472 
Q 4747 2281 4747 1959 
L 4747 781 
Q 4747 544 4762 453 
Q 4778 363 4808 313 
Q 4838 263 4897 227 
Q 4956 191 5097 153 
L 5097 0 
L 3869 0 
L 3869 153 
Q 3991 191 4044 219 
Q 4097 247 4133 297 
Q 4169 347 4189 451 
Q 4209 556 4209 769 
L 4209 1588 
Q 4209 1853 4195 2026 
Q 4181 2200 4151 2303 
Q 4122 2406 4080 2465 
Q 4038 2525 3984 2569 
Q 3931 2613 3859 2638 
Q 3788 2663 3669 2663 
Q 3544 2663 3436 2613 
Q 3328 2563 3201 2444 
Q 3075 2325 3019 2204 
Q 2963 2084 2963 1922 
L 2963 781 
Q 2963 544 2978 453 
Q 2994 363 3023 313 
Q 3053 263 3112 227 
Q 3172 191 3313 153 
L 3313 0 
L 2084 0 
L 2084 153 
Q 2206 191 2259 219 
Q 2313 247 2348 297 
Q 2384 347 2404 451 
Q 2425 556 2425 769 
L 2425 1588 
Q 2425 1866 2409 2041 
Q 2394 2216 2361 2322 
Q 2328 2428 2276 2493 
Q 2225 2559 2172 2593 
Q 2119 2628 2047 2645 
Q 1975 2663 1884 2663 
Q 1756 2663 1643 2605 
Q 1531 2547 1414 2437 
Q 1297 2328 1237 2209 
Q 1178 2091 1178 1953 
L 1178 781 
Q 1178 603 1187 509 
Q 1197 416 1217 362 
Q 1238 309 1269 276 
Q 1300 244 1358 214 
Q 1416 184 1531 153 
L 1531 0 
L 306 0 
L 306 153 
Q 425 191 476 219 
Q 528 247 565 297 
Q 603 347 622 450 
Q 641 553 641 772 
L 641 2134 
Q 641 2334 634 2456 
Q 628 2578 590 2651 
Q 553 2725 476 2761 
Q 400 2797 259 2822 
L 259 2988 
L 991 3016 
L 1181 3016 
L 1147 2506 
z
" transform="scale(0.015625)"/>
       <path id="Cambria-87" d="M 2800 531 
Q 2600 322 2433 203 
Q 2266 84 2066 17 
Q 1866 -50 1625 -50 
Q 981 -50 653 336 
Q 325 722 325 1475 
Q 325 1941 492 2297 
Q 659 2653 968 2847 
Q 1278 3041 1681 3041 
Q 1997 3041 2219 2941 
Q 2441 2841 2573 2667 
Q 2706 2494 2779 2230 
Q 2853 1966 2863 1541 
L 894 1541 
L 894 1484 
Q 894 1116 976 864 
Q 1059 613 1248 470 
Q 1438 328 1741 328 
Q 1997 328 2201 423 
Q 2406 519 2609 734 
L 2800 531 
z
M 2275 1800 
Q 2256 2138 2190 2352 
Q 2125 2566 1994 2680 
Q 1863 2794 1650 2794 
Q 1328 2794 1136 2536 
Q 944 2278 909 1800 
L 2275 1800 
z
" transform="scale(0.015625)"/>
       <path id="Cambria-3" transform="scale(0.015625)"/>
       <path id="Cambria-84" d="M 1091 2497 
L 1103 2494 
Q 1322 2722 1467 2825 
Q 1613 2928 1767 2983 
Q 1922 3038 2106 3038 
Q 2441 3038 2680 2867 
Q 2919 2697 3048 2356 
Q 3178 2016 3178 1522 
Q 3178 1013 3023 661 
Q 2869 309 2567 129 
Q 2266 -50 1853 -50 
Q 1622 -50 1417 -8 
Q 1213 34 988 141 
L 769 -50 
L 553 0 
L 553 3397 
Q 553 3697 548 3815 
Q 544 3934 523 4017 
Q 503 4100 467 4147 
Q 431 4194 370 4222 
Q 309 4250 150 4278 
L 150 4441 
L 906 4472 
L 1091 4472 
L 1091 2497 
z
M 1091 1125 
Q 1091 884 1112 742 
Q 1134 600 1186 506 
Q 1238 413 1336 334 
Q 1434 256 1556 226 
Q 1678 197 1828 197 
Q 2203 197 2397 503 
Q 2591 809 2591 1422 
Q 2591 2041 2414 2352 
Q 2238 2663 1881 2663 
Q 1703 2663 1578 2608 
Q 1453 2553 1329 2437 
Q 1206 2322 1148 2209 
Q 1091 2097 1091 1953 
L 1091 1125 
z
" transform="scale(0.015625)"/>
       <path id="Cambria-91" d="M 1663 -50 
Q 1013 -50 670 333 
Q 328 716 328 1466 
Q 328 1981 508 2337 
Q 688 2694 1000 2867 
Q 1313 3041 1713 3041 
Q 2381 3041 2725 2652 
Q 3069 2263 3069 1534 
Q 3069 1016 2897 659 
Q 2725 303 2409 126 
Q 2094 -50 1663 -50 
z
M 919 1531 
Q 919 888 1123 542 
Q 1328 197 1709 197 
Q 1919 197 2066 298 
Q 2213 400 2305 572 
Q 2397 744 2437 970 
Q 2478 1197 2478 1444 
Q 2478 1903 2376 2206 
Q 2275 2509 2100 2651 
Q 1925 2794 1700 2794 
Q 1322 2794 1120 2466 
Q 919 2138 919 1531 
z
" transform="scale(0.015625)"/>
       <path id="Cambria-97" d="M 228 2988 
L 1119 2988 
L 1119 1397 
Q 1119 1031 1147 840 
Q 1175 650 1231 553 
Q 1288 456 1391 390 
Q 1494 325 1675 325 
Q 1794 325 1903 372 
Q 2013 419 2147 536 
Q 2281 653 2339 768 
Q 2397 884 2397 1038 
L 2397 2209 
Q 2397 2388 2387 2478 
Q 2378 2569 2356 2623 
Q 2334 2678 2304 2712 
Q 2275 2747 2220 2775 
Q 2166 2803 2044 2834 
L 2044 2988 
L 2934 2988 
L 2934 853 
Q 2934 613 2943 506 
Q 2953 400 2984 337 
Q 3016 275 3081 236 
Q 3147 197 3316 163 
L 3316 0 
L 2600 -31 
L 2409 -31 
L 2428 481 
L 2381 494 
Q 2122 213 1886 81 
Q 1650 -50 1413 -50 
Q 1128 -50 943 62 
Q 759 175 668 398 
Q 578 622 578 1028 
L 578 2209 
Q 578 2472 558 2570 
Q 538 2669 480 2726 
Q 422 2784 228 2834 
L 228 2988 
z
" transform="scale(0.015625)"/>
       <path id="Cambria-90" d="M 3347 0 
L 2116 0 
L 2116 153 
Q 2238 191 2291 219 
Q 2344 247 2380 297 
Q 2416 347 2436 451 
Q 2456 556 2456 769 
L 2456 1588 
Q 2456 1806 2443 1984 
Q 2431 2163 2401 2277 
Q 2372 2391 2330 2455 
Q 2288 2519 2230 2564 
Q 2172 2609 2097 2636 
Q 2022 2663 1900 2663 
Q 1778 2663 1668 2614 
Q 1559 2566 1428 2447 
Q 1297 2328 1237 2212 
Q 1178 2097 1178 1947 
L 1178 781 
Q 1178 513 1203 408 
Q 1228 303 1298 248 
Q 1369 194 1528 153 
L 1528 0 
L 303 0 
L 303 153 
Q 425 191 476 219 
Q 528 247 564 297 
Q 600 347 620 450 
Q 641 553 641 772 
L 641 2134 
Q 641 2334 634 2456 
Q 628 2578 590 2651 
Q 553 2725 476 2761 
Q 400 2797 259 2822 
L 259 2988 
L 991 3016 
L 1181 3016 
L 1147 2506 
L 1191 2494 
Q 1422 2728 1564 2828 
Q 1706 2928 1851 2983 
Q 1997 3038 2159 3038 
Q 2328 3038 2461 2998 
Q 2594 2959 2695 2878 
Q 2797 2797 2862 2676 
Q 2928 2556 2961 2387 
Q 2994 2219 2994 1959 
L 2994 781 
Q 2994 566 3006 469 
Q 3019 372 3050 319 
Q 3081 266 3140 230 
Q 3200 194 3347 153 
L 3347 0 
z
" transform="scale(0.015625)"/>
       <path id="Cambria-86" d="M 2413 3397 
Q 2413 3697 2408 3815 
Q 2403 3934 2383 4017 
Q 2363 4100 2327 4147 
Q 2291 4194 2230 4222 
Q 2169 4250 2009 4278 
L 2009 4441 
L 2766 4472 
L 2950 4472 
L 2950 853 
Q 2950 609 2959 504 
Q 2969 400 3000 337 
Q 3031 275 3098 236 
Q 3166 197 3334 163 
L 3334 0 
L 2597 -31 
L 2409 -31 
L 2447 481 
L 2400 494 
Q 2203 284 2058 179 
Q 1913 75 1748 12 
Q 1584 -50 1397 -50 
Q 884 -50 606 339 
Q 328 728 328 1463 
Q 328 1975 509 2333 
Q 691 2691 998 2866 
Q 1306 3041 1691 3041 
Q 1897 3041 2065 3008 
Q 2234 2975 2413 2900 
L 2413 3397 
z
M 2413 1853 
Q 2413 2097 2391 2244 
Q 2369 2391 2317 2491 
Q 2266 2591 2178 2659 
Q 2091 2728 1986 2759 
Q 1881 2791 1734 2791 
Q 1334 2791 1125 2470 
Q 916 2150 916 1550 
Q 916 950 1087 637 
Q 1259 325 1609 325 
Q 1747 325 1837 348 
Q 1928 372 2015 423 
Q 2103 475 2193 565 
Q 2284 656 2326 731 
Q 2369 806 2391 903 
Q 2413 1000 2413 1153 
L 2413 1853 
z
" transform="scale(0.015625)"/>
      </defs>
      <use xlink:href="#Cambria-92"/>
      <use xlink:href="#Cambria-94" transform="translate(55.609375 0)"/>
      <use xlink:href="#Cambria-8b" transform="translate(96.96875 0)"/>
      <use xlink:href="#Cambria-8f" transform="translate(124.75 0)"/>
      <use xlink:href="#Cambria-87" transform="translate(207.953125 0)"/>
      <use xlink:href="#Cambria-3" transform="translate(256.734375 0)"/>
      <use xlink:href="#Cambria-84" transform="translate(278.75 0)"/>
      <use xlink:href="#Cambria-91" transform="translate(333.484375 0)"/>
      <use xlink:href="#Cambria-97" transform="translate(386.5625 0)"/>
      <use xlink:href="#Cambria-90" transform="translate(441.78125 0)"/>
      <use xlink:href="#Cambria-86" transform="translate(497.59375 0)"/>
     </g>
    </g>
   </g>
   <g id="matplotlib.axis_2">
    <g id="ytick_1">
     <g id="line2d_15">
      <path d="M 47.643125 176.466016 
L 250.853406 176.466016 
" clip-path="url(#p56f079613c)" style="fill: none; stroke: #e1e0d9; stroke-width: 0.7; stroke-linecap: square"/>
     </g>
     <g id="line2d_16">
      <defs>
       <path id="m886e6df1ad" d="M 0 0 
L -3.5 0 
" style="stroke: #898781; stroke-width: 0.8"/>
      </defs>
      <g>
       <use xlink:href="#m886e6df1ad" x="47.643125" y="176.466016" style="fill: #898781; stroke: #898781; stroke-width: 0.8"/>
      </g>
     </g>
     <g id="text_9">
      <!-- 0 -->
      <g style="fill: #52514e" transform="translate(34.82875 180.549634) scale(0.105 -0.105)">
       <defs>
        <path id="Cambria-372" d="M 1738 -50 
Q 1063 -50 733 481 
Q 403 1013 403 2094 
Q 403 2669 504 3087 
Q 606 3506 789 3779 
Q 972 4053 1228 4184 
Q 1484 4316 1788 4316 
Q 2472 4316 2806 3787 
Q 3141 3259 3141 2191 
Q 3141 1084 2783 517 
Q 2425 -50 1738 -50 
z
M 1013 2188 
Q 1013 1169 1202 692 
Q 1391 216 1788 216 
Q 2166 216 2348 664 
Q 2531 1113 2531 2053 
Q 2531 2772 2437 3217 
Q 2344 3663 2176 3856 
Q 2009 4050 1772 4050 
Q 1556 4050 1411 3922 
Q 1266 3794 1177 3553 
Q 1088 3313 1050 2967 
Q 1013 2622 1013 2188 
z
" transform="scale(0.015625)"/>
       </defs>
       <use xlink:href="#Cambria-372"/>
      </g>
     </g>
    </g>
    <g id="ytick_2">
     <g id="line2d_17">
      <path d="M 47.643125 136.158229 
L 250.853406 136.158229 
" clip-path="url(#p56f079613c)" style="fill: none; stroke: #e1e0d9; stroke-width: 0.7; stroke-linecap: square"/>
     </g>
     <g id="line2d_18">
      <g>
       <use xlink:href="#m886e6df1ad" x="47.643125" y="136.158229" style="fill: #898781; stroke: #898781; stroke-width: 0.8"/>
      </g>
     </g>
     <g id="text_10">
      <!-- 100 -->
      <g style="fill: #52514e" transform="translate(23.2 140.241847) scale(0.105 -0.105)">
       <defs>
        <path id="Cambria-373" d="M 2172 816 
Q 2172 634 2192 542 
Q 2213 450 2264 392 
Q 2316 334 2412 301 
Q 2509 269 2656 251 
Q 2803 234 3044 228 
L 3044 0 
L 734 0 
L 734 228 
Q 1081 244 1229 270 
Q 1378 297 1456 350 
Q 1534 403 1570 500 
Q 1606 597 1606 816 
L 1606 3350 
Q 1606 3475 1562 3533 
Q 1519 3591 1434 3591 
Q 1334 3591 1150 3487 
Q 966 3384 694 3203 
L 556 3444 
L 2019 4316 
L 2191 4316 
Q 2172 4016 2172 3484 
L 2172 816 
z
" transform="scale(0.015625)"/>
       </defs>
       <use xlink:href="#Cambria-373"/>
       <use xlink:href="#Cambria-372" transform="translate(55.375 0)"/>
       <use xlink:href="#Cambria-372" transform="translate(110.75 0)"/>
      </g>
     </g>
    </g>
    <g id="ytick_3">
     <g id="line2d_19">
      <path d="M 47.643125 95.850443 
L 250.853406 95.850443 
" clip-path="url(#p56f079613c)" style="fill: none; stroke: #e1e0d9; stroke-width: 0.7; stroke-linecap: square"/>
     </g>
     <g id="line2d_20">
      <g>
       <use xlink:href="#m886e6df1ad" x="47.643125" y="95.850443" style="fill: #898781; stroke: #898781; stroke-width: 0.8"/>
      </g>
     </g>
     <g id="text_11">
      <!-- 200 -->
      <g style="fill: #52514e" transform="translate(23.2 99.934061) scale(0.105 -0.105)">
       <defs>
        <path id="Cambria-374" d="M 2194 500 
Q 2347 500 2440 519 
Q 2534 538 2590 581 
Q 2647 625 2680 695 
Q 2713 766 2763 913 
L 3028 913 
L 2975 0 
L 403 0 
L 403 150 
Q 538 478 766 822 
Q 994 1166 1413 1631 
Q 1775 2031 1934 2238 
Q 2109 2463 2195 2627 
Q 2281 2791 2318 2936 
Q 2356 3081 2356 3228 
Q 2356 3463 2281 3642 
Q 2206 3822 2051 3925 
Q 1897 4028 1663 4028 
Q 1078 4028 875 3378 
L 497 3378 
L 497 3978 
Q 875 4156 1204 4236 
Q 1534 4316 1797 4316 
Q 2378 4316 2675 4061 
Q 2972 3806 2972 3322 
Q 2972 3156 2939 3017 
Q 2906 2878 2836 2742 
Q 2766 2606 2647 2450 
Q 2528 2294 2384 2133 
Q 2241 1972 1888 1597 
Q 1294 969 1016 500 
L 2194 500 
z
" transform="scale(0.015625)"/>
       </defs>
       <use xlink:href="#Cambria-374"/>
       <use xlink:href="#Cambria-372" transform="translate(55.375 0)"/>
       <use xlink:href="#Cambria-372" transform="translate(110.75 0)"/>
      </g>
     </g>
    </g>
    <g id="ytick_4">
     <g id="line2d_21">
      <path d="M 47.643125 55.542656 
L 250.853406 55.542656 
" clip-path="url(#p56f079613c)" style="fill: none; stroke: #e1e0d9; stroke-width: 0.7; stroke-linecap: square"/>
     </g>
     <g id="line2d_22">
      <g>
       <use xlink:href="#m886e6df1ad" x="47.643125" y="55.542656" style="fill: #898781; stroke: #898781; stroke-width: 0.8"/>
      </g>
     </g>
     <g id="text_12">
      <!-- 300 -->
      <g style="fill: #52514e" transform="translate(23.2 59.626274) scale(0.105 -0.105)">
       <defs>
        <path id="Cambria-375" d="M 497 3381 
L 497 3975 
Q 859 4147 1175 4231 
Q 1491 4316 1784 4316 
Q 2138 4316 2403 4206 
Q 2669 4097 2809 3892 
Q 2950 3688 2950 3403 
Q 2950 3138 2844 2936 
Q 2738 2734 2545 2584 
Q 2353 2434 2047 2291 
L 2047 2263 
Q 2238 2228 2414 2145 
Q 2591 2063 2728 1931 
Q 2866 1800 2948 1617 
Q 3031 1434 3031 1200 
Q 3031 838 2873 556 
Q 2716 275 2391 112 
Q 2066 -50 1600 -50 
Q 1331 -50 1020 11 
Q 709 72 450 172 
L 450 834 
L 825 834 
Q 934 509 1114 362 
Q 1294 216 1603 216 
Q 2009 216 2217 437 
Q 2425 659 2425 1094 
Q 2425 1550 2150 1790 
Q 1875 2031 1344 2031 
L 1063 2031 
L 1063 2306 
Q 1484 2331 1773 2468 
Q 2063 2606 2203 2822 
Q 2344 3038 2344 3306 
Q 2344 3653 2159 3840 
Q 1975 4028 1622 4028 
Q 1328 4028 1143 3868 
Q 959 3709 872 3381 
L 497 3381 
z
" transform="scale(0.015625)"/>
       </defs>
       <use xlink:href="#Cambria-375"/>
       <use xlink:href="#Cambria-372" transform="translate(55.375 0)"/>
       <use xlink:href="#Cambria-372" transform="translate(110.75 0)"/>
      </g>
     </g>
    </g>
    <g id="text_13">
     <!-- verified 2-cycles -->
     <g style="fill: #0b0b0b" transform="translate(16.533984 142.576729) rotate(-90) scale(0.12 -0.12)">
      <defs>
       <path id="Cambria-98" d="M 1334 2988 
L 1334 2834 
Q 1191 2800 1131 2769 
Q 1072 2738 1042 2688 
Q 1013 2638 1013 2553 
Q 1013 2469 1033 2376 
Q 1053 2284 1097 2163 
L 1641 581 
L 2278 2097 
Q 2341 2247 2366 2344 
Q 2391 2441 2391 2525 
Q 2391 2656 2320 2725 
Q 2250 2794 2063 2834 
L 2063 2988 
L 3231 2988 
L 3231 2834 
Q 3109 2809 3043 2757 
Q 2978 2706 2912 2595 
Q 2847 2484 2756 2284 
L 1703 -31 
L 1334 -31 
L 488 2303 
Q 400 2544 348 2633 
Q 297 2722 236 2765 
Q 175 2809 59 2834 
L 59 2988 
L 1334 2988 
z
" transform="scale(0.015625)"/>
       <path id="Cambria-3d0" d="M 1909 2672 
L 1163 2672 
L 1163 781 
Q 1163 572 1183 465 
Q 1203 359 1242 304 
Q 1281 250 1345 217 
Q 1409 184 1550 153 
L 1550 0 
L 272 0 
L 272 153 
Q 409 191 468 225 
Q 528 259 561 312 
Q 594 366 609 466 
Q 625 566 625 781 
L 625 2672 
L 247 2672 
L 247 2831 
Q 416 2850 483 2898 
Q 550 2947 581 3040 
Q 613 3134 622 3300 
Q 644 3684 798 3953 
Q 953 4222 1212 4355 
Q 1472 4488 1816 4488 
Q 1994 4488 2153 4459 
L 2153 3888 
L 1897 3888 
Q 1863 4059 1795 4136 
Q 1728 4213 1603 4213 
Q 1488 4213 1405 4159 
Q 1322 4106 1264 3992 
Q 1206 3878 1184 3697 
Q 1163 3516 1163 3263 
L 1163 2988 
L 1909 2988 
L 1909 2672 
z
" transform="scale(0.015625)"/>
       <path id="Cambria-1e6" d="M 1788 1403 
L 338 1403 
L 338 1888 
L 1788 1888 
L 1788 1403 
z
" transform="scale(0.015625)"/>
       <path id="Cambria-85" d="M 2631 2916 
L 2631 2263 
L 2234 2263 
Q 2181 2466 2103 2583 
Q 2025 2700 1922 2747 
Q 1819 2794 1666 2794 
Q 1447 2794 1278 2653 
Q 1109 2513 1011 2225 
Q 913 1938 913 1522 
Q 913 1256 950 1036 
Q 988 816 1078 659 
Q 1169 503 1319 415 
Q 1469 328 1691 328 
Q 1906 328 2092 412 
Q 2278 497 2478 709 
L 2656 503 
Q 2497 328 2375 233 
Q 2253 138 2114 73 
Q 1975 9 1839 -20 
Q 1703 -50 1544 -50 
Q 953 -50 640 342 
Q 328 734 328 1475 
Q 328 1938 503 2295 
Q 678 2653 993 2847 
Q 1309 3041 1722 3041 
Q 1978 3041 2195 3011 
Q 2413 2981 2631 2916 
z
" transform="scale(0.015625)"/>
       <path id="Cambria-9b" d="M 1625 -256 
Q 1453 -644 1290 -884 
Q 1128 -1125 933 -1247 
Q 738 -1369 469 -1369 
Q 297 -1369 81 -1328 
L 81 -709 
L 359 -709 
Q 397 -838 453 -888 
Q 509 -938 616 -938 
Q 709 -938 782 -902 
Q 856 -866 936 -778 
Q 1016 -691 1123 -509 
Q 1231 -328 1366 -50 
L 491 2303 
Q 406 2531 354 2622 
Q 303 2713 243 2759 
Q 184 2806 63 2834 
L 63 2988 
L 1334 2988 
L 1334 2834 
Q 1188 2800 1128 2767 
Q 1069 2734 1041 2682 
Q 1013 2631 1013 2550 
Q 1013 2466 1033 2375 
Q 1053 2284 1097 2163 
L 1653 597 
L 2278 2097 
Q 2331 2222 2361 2326 
Q 2391 2431 2391 2522 
Q 2391 2656 2317 2725 
Q 2244 2794 2063 2834 
L 2063 2988 
L 3231 2988 
L 3231 2834 
Q 3109 2809 3043 2757 
Q 2978 2706 2912 2595 
Q 2847 2484 2756 2284 
L 1625 -256 
z
" transform="scale(0.015625)"/>
       <path id="Cambria-8e" d="M 1138 781 
Q 1138 513 1163 408 
Q 1188 303 1258 248 
Q 1328 194 1488 153 
L 1488 0 
L 247 0 
L 247 153 
Q 403 194 464 237 
Q 525 281 551 342 
Q 578 403 589 508 
Q 600 613 600 781 
L 600 3397 
Q 600 3697 595 3815 
Q 591 3934 570 4017 
Q 550 4100 514 4147 
Q 478 4194 417 4222 
Q 356 4250 197 4278 
L 197 4441 
L 950 4472 
L 1138 4472 
L 1138 781 
z
" transform="scale(0.015625)"/>
       <path id="Cambria-95" d="M 2397 2303 
L 2097 2303 
Q 2028 2491 1934 2598 
Q 1841 2706 1722 2750 
Q 1603 2794 1431 2794 
Q 1181 2794 1032 2676 
Q 884 2559 884 2356 
Q 884 2213 943 2119 
Q 1003 2025 1128 1944 
Q 1253 1863 1569 1728 
Q 1888 1591 2061 1475 
Q 2234 1359 2332 1206 
Q 2431 1053 2431 841 
Q 2431 594 2347 425 
Q 2263 256 2109 150 
Q 1956 44 1745 -3 
Q 1534 -50 1284 -50 
Q 1022 -50 775 -11 
Q 528 28 294 91 
L 294 744 
L 600 744 
Q 684 456 850 326 
Q 1016 197 1306 197 
Q 1419 197 1526 220 
Q 1634 244 1718 298 
Q 1803 353 1853 447 
Q 1903 541 1903 681 
Q 1903 841 1840 941 
Q 1778 1041 1647 1123 
Q 1516 1206 1184 1347 
Q 900 1466 728 1578 
Q 556 1691 457 1844 
Q 359 1997 359 2206 
Q 359 2463 498 2652 
Q 638 2841 900 2941 
Q 1163 3041 1516 3041 
Q 1722 3041 1914 3020 
Q 2106 3000 2397 2941 
L 2397 2303 
z
" transform="scale(0.015625)"/>
      </defs>
      <use xlink:href="#Cambria-98"/>
      <use xlink:href="#Cambria-87" transform="translate(48.4375 0)"/>
      <use xlink:href="#Cambria-94" transform="translate(97.21875 0)"/>
      <use xlink:href="#Cambria-8b" transform="translate(138.578125 0)"/>
      <use xlink:href="#Cambria-3d0" transform="translate(166.359375 0)"/>
      <use xlink:href="#Cambria-8b" transform="translate(196.640625 0)"/>
      <use xlink:href="#Cambria-87" transform="translate(224.421875 0)"/>
      <use xlink:href="#Cambria-86" transform="translate(273.203125 0)"/>
      <use xlink:href="#Cambria-3" transform="translate(328.671875 0)"/>
      <use xlink:href="#Cambria-374" transform="translate(350.6875 0)"/>
      <use xlink:href="#Cambria-1e6" transform="translate(406.0625 0)"/>
      <use xlink:href="#Cambria-85" transform="translate(439.265625 0)"/>
      <use xlink:href="#Cambria-9b" transform="translate(483.359375 0)"/>
      <use xlink:href="#Cambria-85" transform="translate(531.796875 0)"/>
      <use xlink:href="#Cambria-8e" transform="translate(575.890625 0)"/>
      <use xlink:href="#Cambria-87" transform="translate(603.046875 0)"/>
      <use xlink:href="#Cambria-95" transform="translate(651.828125 0)"/>
     </g>
    </g>
   </g>
   <g id="patch_3">
    <path d="M 56.879956 176.466016 
L 73.674194 176.466016 
L 73.674194 168.00138 
L 56.879956 168.00138 
z
" clip-path="url(#p56f079613c)" style="fill: #2a78d6; stroke: #fcfcfb; stroke-width: 0.6; stroke-linejoin: miter"/>
   </g>
   <g id="patch_4">
    <path d="M 84.870353 176.466016 
L 101.664591 176.466016 
L 101.664591 164.776758 
L 84.870353 164.776758 
z
" clip-path="url(#p56f079613c)" style="fill: #2a78d6; stroke: #fcfcfb; stroke-width: 0.6; stroke-linejoin: miter"/>
   </g>
   <g id="patch_5">
    <path d="M 112.860749 176.466016 
L 129.654988 176.466016 
L 129.654988 159.536745 
L 112.860749 159.536745 
z
" clip-path="url(#p56f079613c)" style="fill: #2a78d6; stroke: #fcfcfb; stroke-width: 0.6; stroke-linejoin: miter"/>
   </g>
   <g id="patch_6">
    <path d="M 140.851146 176.466016 
L 157.645384 176.466016 
L 157.645384 147.847487 
L 140.851146 147.847487 
z
" clip-path="url(#p56f079613c)" style="fill: #2a78d6; stroke: #fcfcfb; stroke-width: 0.6; stroke-linejoin: miter"/>
   </g>
   <g id="patch_7">
    <path d="M 168.841543 176.466016 
L 185.635781 176.466016 
L 185.635781 126.081283 
L 168.841543 126.081283 
z
" clip-path="url(#p56f079613c)" style="fill: #2a78d6; stroke: #fcfcfb; stroke-width: 0.6; stroke-linejoin: miter"/>
   </g>
   <g id="patch_8">
    <path d="M 196.83194 176.466016 
L 213.626178 176.466016 
L 213.626178 95.447365 
L 196.83194 95.447365 
z
" clip-path="url(#p56f079613c)" style="fill: #2a78d6; stroke: #fcfcfb; stroke-width: 0.6; stroke-linejoin: miter"/>
   </g>
   <g id="patch_9">
    <path d="M 224.822337 176.466016 
L 241.616575 176.466016 
L 241.616575 44.256476 
L 224.822337 44.256476 
z
" clip-path="url(#p56f079613c)" style="fill: #2a78d6; stroke: #fcfcfb; stroke-width: 0.6; stroke-linejoin: miter"/>
   </g>
   <g id="patch_10">
    <path d="M 56.879956 168.00138 
L 73.674194 168.00138 
L 73.674194 165.985991 
L 56.879956 165.985991 
z
" clip-path="url(#p56f079613c)" style="fill: #e34948; stroke: #fcfcfb; stroke-width: 0.6; stroke-linejoin: miter"/>
   </g>
   <g id="patch_11">
    <path d="M 84.870353 164.776758 
L 101.664591 164.776758 
L 101.664591 162.761368 
L 84.870353 162.761368 
z
" clip-path="url(#p56f079613c)" style="fill: #e34948; stroke: #fcfcfb; stroke-width: 0.6; stroke-linejoin: miter"/>
   </g>
   <g id="patch_12">
    <path d="M 112.860749 159.536745 
L 129.654988 159.536745 
L 129.654988 157.521356 
L 112.860749 157.521356 
z
" clip-path="url(#p56f079613c)" style="fill: #e34948; stroke: #fcfcfb; stroke-width: 0.6; stroke-linejoin: miter"/>
   </g>
   <g id="patch_13">
    <path d="M 140.851146 147.847487 
L 157.645384 147.847487 
L 157.645384 145.832098 
L 140.851146 145.832098 
z
" clip-path="url(#p56f079613c)" style="fill: #e34948; stroke: #fcfcfb; stroke-width: 0.6; stroke-linejoin: miter"/>
   </g>
   <g id="patch_14">
    <path d="M 168.841543 126.081283 
L 185.635781 126.081283 
L 185.635781 124.065893 
L 168.841543 124.065893 
z
" clip-path="url(#p56f079613c)" style="fill: #e34948; stroke: #fcfcfb; stroke-width: 0.6; stroke-linejoin: miter"/>
   </g>
   <g id="patch_15">
    <path d="M 196.83194 95.447365 
L 213.626178 95.447365 
L 213.626178 93.431976 
L 196.83194 93.431976 
z
" clip-path="url(#p56f079613c)" style="fill: #e34948; stroke: #fcfcfb; stroke-width: 0.6; stroke-linejoin: miter"/>
   </g>
   <g id="patch_16">
    <path d="M 224.822337 44.256476 
L 241.616575 44.256476 
L 241.616575 42.241087 
L 224.822337 42.241087 
z
" clip-path="url(#p56f079613c)" style="fill: #e34948; stroke: #fcfcfb; stroke-width: 0.6; stroke-linejoin: miter"/>
   </g>
   <g id="patch_17">
    <path d="M 47.643125 176.466016 
L 47.643125 25.311816 
" style="fill: none; stroke: #c3c2b7; stroke-width: 0.9; stroke-linejoin: miter; stroke-linecap: square"/>
   </g>
   <g id="patch_18">
    <path d="M 47.643125 176.466016 
L 250.853406 176.466016 
" style="fill: none; stroke: #c3c2b7; stroke-width: 0.9; stroke-linejoin: miter; stroke-linecap: square"/>
   </g>
   <g id="text_14">
    <!-- 26 -->
    <g style="fill: #52514e" transform="translate(60.625575 164.37368) scale(0.084 -0.084)">
     <defs>
      <path id="Cambria-378" d="M 2847 4144 
L 2847 3991 
Q 2366 3991 1994 3784 
Q 1622 3578 1376 3178 
Q 1131 2778 1031 2228 
L 1063 2216 
Q 1325 2403 1579 2490 
Q 1834 2578 2131 2578 
Q 2484 2578 2732 2423 
Q 2981 2269 3106 1989 
Q 3231 1709 3231 1334 
Q 3231 928 3075 617 
Q 2919 306 2592 128 
Q 2266 -50 1788 -50 
Q 1103 -50 754 375 
Q 406 800 406 1628 
Q 406 2184 581 2668 
Q 756 3153 1078 3514 
Q 1400 3875 1825 4083 
Q 2250 4291 2719 4316 
L 2847 4144 
z
M 1916 2250 
Q 1763 2250 1620 2215 
Q 1478 2181 1353 2115 
Q 1228 2050 1109 1950 
Q 1072 1916 1053 1878 
Q 1022 1819 1012 1731 
Q 1003 1644 1003 1438 
Q 1003 841 1203 528 
Q 1403 216 1809 216 
Q 2044 216 2203 297 
Q 2363 378 2461 520 
Q 2559 663 2601 855 
Q 2644 1047 2644 1272 
Q 2644 1734 2453 1992 
Q 2263 2250 1916 2250 
z
" transform="scale(0.015625)"/>
     </defs>
     <use xlink:href="#Cambria-374"/>
     <use xlink:href="#Cambria-378" transform="translate(55.375 0)"/>
    </g>
   </g>
   <g id="text_15">
    <!-- 34 -->
    <g style="fill: #52514e" transform="translate(88.615972 161.149057) scale(0.084 -0.084)">
     <defs>
      <path id="Cambria-376" d="M 1613 153 
Q 1806 203 1872 264 
Q 1938 325 1958 437 
Q 1978 550 1978 781 
L 1978 1294 
L 241 1294 
L 241 1528 
L 2069 4288 
L 2516 4288 
L 2516 1597 
L 2581 1597 
Q 2763 1597 2841 1623 
Q 2919 1650 2970 1717 
Q 3022 1784 3066 1938 
L 3303 1938 
L 3266 1294 
L 2516 1294 
L 2516 781 
Q 2516 572 2530 475 
Q 2544 378 2576 322 
Q 2609 266 2673 228 
Q 2738 191 2881 153 
L 2881 0 
L 1613 0 
L 1613 153 
z
M 756 1597 
L 1978 1597 
L 1978 2375 
Q 1978 2669 1987 3033 
Q 1997 3397 2009 3581 
L 1978 3581 
L 756 1641 
L 756 1597 
z
" transform="scale(0.015625)"/>
     </defs>
     <use xlink:href="#Cambria-375"/>
     <use xlink:href="#Cambria-376" transform="translate(55.375 0)"/>
    </g>
   </g>
   <g id="text_16">
    <!-- 47 -->
    <g style="fill: #52514e" transform="translate(116.606369 155.909045) scale(0.084 -0.084)">
     <defs>
      <path id="Cambria-379" d="M 3206 4116 
L 1388 -22 
L 934 -22 
L 934 131 
L 2619 3697 
L 2619 3744 
L 1244 3744 
Q 1116 3744 1039 3720 
Q 963 3697 911 3653 
Q 859 3609 825 3537 
Q 791 3466 731 3253 
L 463 3253 
L 525 4266 
L 3206 4266 
L 3206 4116 
z
" transform="scale(0.015625)"/>
     </defs>
     <use xlink:href="#Cambria-376"/>
     <use xlink:href="#Cambria-379" transform="translate(55.375 0)"/>
    </g>
   </g>
   <g id="text_17">
    <!-- 76 -->
    <g style="fill: #52514e" transform="translate(144.596765 144.219786) scale(0.084 -0.084)">
     <use xlink:href="#Cambria-379"/>
     <use xlink:href="#Cambria-378" transform="translate(55.375 0)"/>
    </g>
   </g>
   <g id="text_18">
    <!-- 130 -->
    <g style="fill: #52514e" transform="translate(170.261412 122.453582) scale(0.084 -0.084)">
     <use xlink:href="#Cambria-373"/>
     <use xlink:href="#Cambria-375" transform="translate(55.375 0)"/>
     <use xlink:href="#Cambria-372" transform="translate(110.75 0)"/>
    </g>
   </g>
   <g id="text_19">
    <!-- 206 -->
    <g style="fill: #52514e" transform="translate(198.251809 91.819664) scale(0.084 -0.084)">
     <use xlink:href="#Cambria-374"/>
     <use xlink:href="#Cambria-372" transform="translate(55.375 0)"/>
     <use xlink:href="#Cambria-378" transform="translate(110.75 0)"/>
    </g>
   </g>
   <g id="text_20">
    <!-- 333 -->
    <g style="fill: #52514e" transform="translate(226.242206 40.628775) scale(0.084 -0.084)">
     <use xlink:href="#Cambria-375"/>
     <use xlink:href="#Cambria-375" transform="translate(55.375 0)"/>
     <use xlink:href="#Cambria-375" transform="translate(110.75 0)"/>
    </g>
   </g>
   <g id="text_21">
    <!-- 2-cycle hits, exact degrees 3–12 -->
    <g style="fill: #0b0b0b" transform="translate(47.643125 17.311816) scale(0.13 -0.13)">
     <defs>
      <path id="Cambria-8a" d="M 1141 2497 
L 1153 2494 
Q 1397 2741 1539 2839 
Q 1681 2938 1820 2988 
Q 1959 3038 2119 3038 
Q 2291 3038 2425 2997 
Q 2559 2956 2661 2873 
Q 2763 2791 2827 2670 
Q 2891 2550 2922 2383 
Q 2953 2216 2953 1959 
L 2953 781 
Q 2953 509 2976 411 
Q 3000 313 3061 258 
Q 3122 203 3306 153 
L 3306 0 
L 2075 0 
L 2075 153 
Q 2197 191 2250 219 
Q 2303 247 2339 297 
Q 2375 347 2395 451 
Q 2416 556 2416 769 
L 2416 1588 
Q 2416 2003 2373 2223 
Q 2331 2444 2207 2553 
Q 2084 2663 1863 2663 
Q 1738 2663 1638 2619 
Q 1538 2575 1406 2462 
Q 1275 2350 1208 2231 
Q 1141 2113 1141 1978 
L 1141 781 
Q 1141 569 1152 478 
Q 1163 388 1194 327 
Q 1225 266 1289 227 
Q 1353 188 1488 153 
L 1488 0 
L 250 0 
L 250 153 
Q 388 191 447 225 
Q 506 259 539 312 
Q 572 366 587 466 
Q 603 566 603 781 
L 603 3397 
Q 603 3697 598 3815 
Q 594 3934 573 4017 
Q 553 4100 517 4147 
Q 481 4194 420 4222 
Q 359 4250 200 4278 
L 200 4441 
L 953 4472 
L 1141 4472 
L 1141 2497 
z
" transform="scale(0.015625)"/>
      <path id="Cambria-96" d="M 116 2831 
Q 272 2856 369 2918 
Q 466 2981 520 3079 
Q 575 3178 606 3326 
Q 638 3475 672 3759 
L 1116 3759 
L 1116 2988 
L 2125 2988 
L 2125 2672 
L 1116 2672 
L 1116 1281 
Q 1116 978 1141 798 
Q 1166 619 1234 517 
Q 1303 416 1390 372 
Q 1478 328 1616 328 
Q 1741 328 1850 379 
Q 1959 431 2066 528 
L 2206 359 
Q 1984 144 1786 47 
Q 1588 -50 1375 -50 
Q 972 -50 775 189 
Q 578 428 578 938 
L 578 2672 
L 116 2672 
L 116 2831 
z
" transform="scale(0.015625)"/>
      <path id="Cambria-1e1" d="M 966 725 
Q 1009 506 1009 294 
Q 1009 75 934 -106 
Q 859 -288 695 -467 
Q 531 -647 244 -863 
L 75 -672 
Q 234 -522 306 -401 
Q 378 -281 409 -128 
Q 441 25 441 256 
Q 441 494 419 725 
L 966 725 
z
" transform="scale(0.015625)"/>
      <path id="Cambria-9a" d="M 1625 1803 
L 2031 2319 
Q 2097 2403 2137 2483 
Q 2178 2563 2178 2647 
Q 2178 2719 2125 2766 
Q 2072 2813 1959 2834 
L 1959 2988 
L 2981 2988 
L 2981 2834 
Q 2863 2800 2739 2700 
Q 2616 2600 2438 2378 
L 1791 1584 
L 2503 625 
Q 2656 419 2778 309 
Q 2900 200 3022 153 
L 3022 0 
L 1766 0 
L 1766 153 
Q 2025 184 2025 347 
Q 2025 413 2003 472 
Q 1981 531 1922 609 
L 1469 1241 
L 988 616 
Q 934 547 904 489 
Q 875 431 875 359 
Q 875 275 933 220 
Q 991 166 1116 153 
L 1116 0 
L 72 0 
L 72 153 
Q 175 191 258 247 
Q 341 303 427 392 
Q 513 481 653 653 
L 1303 1459 
L 638 2372 
Q 500 2559 419 2643 
Q 338 2728 269 2772 
Q 200 2816 131 2834 
L 131 2988 
L 1356 2988 
L 1356 2834 
Q 1109 2797 1109 2641 
Q 1109 2569 1142 2497 
Q 1175 2425 1244 2338 
L 1625 1803 
z
" transform="scale(0.015625)"/>
      <path id="Cambria-83" d="M 2109 447 
L 2063 459 
Q 1791 181 1552 65 
Q 1313 -50 1044 -50 
Q 806 -50 625 42 
Q 444 134 347 301 
Q 250 469 250 688 
Q 250 1144 701 1392 
Q 1153 1641 2056 1681 
L 2056 1884 
Q 2056 2209 1993 2396 
Q 1931 2584 1797 2671 
Q 1663 2759 1438 2759 
Q 1194 2759 1045 2631 
Q 897 2503 822 2247 
L 413 2247 
L 413 2653 
Q 713 2809 913 2882 
Q 1113 2956 1313 2998 
Q 1513 3041 1719 3041 
Q 2028 3041 2215 2942 
Q 2403 2844 2497 2641 
Q 2591 2438 2591 2028 
L 2591 941 
Q 2591 709 2594 614 
Q 2597 519 2612 437 
Q 2628 356 2659 307 
Q 2691 259 2752 225 
Q 2813 191 2950 153 
L 2950 0 
L 2094 0 
L 2109 447 
z
M 2056 1425 
Q 1422 1419 1106 1256 
Q 791 1094 791 766 
Q 791 588 862 484 
Q 934 381 1043 342 
Q 1153 303 1303 303 
Q 1516 303 1689 406 
Q 1863 509 1959 668 
Q 2056 828 2056 984 
L 2056 1425 
z
" transform="scale(0.015625)"/>
      <path id="Cambria-89" d="M 3106 2672 
L 2528 2694 
L 2500 2659 
Q 2597 2563 2653 2395 
Q 2709 2228 2709 2034 
Q 2709 1525 2395 1248 
Q 2081 972 1503 972 
Q 1244 972 1056 1038 
Q 819 856 819 681 
Q 819 566 864 506 
Q 909 447 1014 422 
Q 1119 397 1331 397 
L 2081 397 
Q 2413 397 2622 294 
Q 2831 191 2920 17 
Q 3009 -156 3009 -388 
Q 3009 -681 2840 -911 
Q 2672 -1141 2353 -1269 
Q 2034 -1397 1609 -1397 
Q 1294 -1397 1033 -1359 
Q 772 -1322 586 -1233 
Q 400 -1144 298 -998 
Q 197 -853 197 -634 
Q 197 -438 328 -277 
Q 459 -116 700 6 
Q 553 66 468 181 
Q 384 297 384 453 
Q 384 631 484 779 
Q 584 928 838 1119 
Q 613 1250 495 1475 
Q 378 1700 378 1988 
Q 378 2256 467 2454 
Q 556 2653 714 2783 
Q 872 2913 1087 2977 
Q 1303 3041 1553 3041 
Q 1778 3041 2000 2988 
L 3106 2988 
L 3106 2672 
z
M 938 2038 
Q 938 1647 1097 1434 
Q 1256 1222 1556 1222 
Q 1716 1222 1828 1283 
Q 1941 1344 2011 1450 
Q 2081 1556 2114 1695 
Q 2147 1834 2147 1988 
Q 2147 2263 2069 2447 
Q 1991 2631 1856 2717 
Q 1722 2803 1547 2803 
Q 1250 2803 1094 2606 
Q 938 2409 938 2038 
z
M 1016 -50 
Q 856 -169 776 -301 
Q 697 -434 697 -603 
Q 697 -884 920 -1017 
Q 1144 -1150 1603 -1150 
Q 1884 -1150 2086 -1075 
Q 2288 -1000 2394 -859 
Q 2500 -719 2500 -531 
Q 2500 -444 2478 -361 
Q 2456 -278 2395 -212 
Q 2334 -147 2221 -108 
Q 2109 -69 1928 -69 
L 1463 -69 
Q 1209 -69 1016 -50 
z
" transform="scale(0.015625)"/>
      <path id="Cambria-202" d="M 2919 1438 
L 281 1438 
L 281 1850 
L 2919 1850 
L 2919 1438 
z
" transform="scale(0.015625)"/>
     </defs>
     <use xlink:href="#Cambria-374"/>
     <use xlink:href="#Cambria-1e6" transform="translate(55.375 0)"/>
     <use xlink:href="#Cambria-85" transform="translate(88.578125 0)"/>
     <use xlink:href="#Cambria-9b" transform="translate(132.671875 0)"/>
     <use xlink:href="#Cambria-85" transform="translate(181.109375 0)"/>
     <use xlink:href="#Cambria-8e" transform="translate(225.203125 0)"/>
     <use xlink:href="#Cambria-87" transform="translate(252.359375 0)"/>
     <use xlink:href="#Cambria-3" transform="translate(301.140625 0)"/>
     <use xlink:href="#Cambria-8a" transform="translate(323.15625 0)"/>
     <use xlink:href="#Cambria-8b" transform="translate(378.328125 0)"/>
     <use xlink:href="#Cambria-96" transform="translate(406.109375 0)"/>
     <use xlink:href="#Cambria-95" transform="translate(439.953125 0)"/>
     <use xlink:href="#Cambria-1e1" transform="translate(482.921875 0)"/>
     <use xlink:href="#Cambria-3" transform="translate(503.4375 0)"/>
     <use xlink:href="#Cambria-87" transform="translate(525.453125 0)"/>
     <use xlink:href="#Cambria-9a" transform="translate(573.0625 0)"/>
     <use xlink:href="#Cambria-83" transform="translate(620.046875 0)"/>
     <use xlink:href="#Cambria-85" transform="translate(668.875 0)"/>
     <use xlink:href="#Cambria-96" transform="translate(712.96875 0)"/>
     <use xlink:href="#Cambria-3" transform="translate(746.8125 0)"/>
     <use xlink:href="#Cambria-86" transform="translate(768.828125 0)"/>
     <use xlink:href="#Cambria-87" transform="translate(824.296875 0)"/>
     <use xlink:href="#Cambria-89" transform="translate(873.078125 0)"/>
     <use xlink:href="#Cambria-94" transform="translate(922.5 0)"/>
     <use xlink:href="#Cambria-87" transform="translate(962.390625 0)"/>
     <use xlink:href="#Cambria-87" transform="translate(1011.171875 0)"/>
     <use xlink:href="#Cambria-95" transform="translate(1059.953125 0)"/>
     <use xlink:href="#Cambria-3" transform="translate(1102.921875 0)"/>
     <use xlink:href="#Cambria-375" transform="translate(1124.9375 0)"/>
     <use xlink:href="#Cambria-202" transform="translate(1180.3125 0)"/>
     <use xlink:href="#Cambria-373" transform="translate(1230.3125 0)"/>
     <use xlink:href="#Cambria-374" transform="translate(1285.6875 0)"/>
    </g>
   </g>
   <g id="legend_1">
    <g id="patch_19">
     <path d="M 54.843125 38.734473 
L 70.843125 38.734473 
L 70.843125 33.134473 
L 54.843125 33.134473 
z
" style="fill: #2a78d6; stroke: #fcfcfb; stroke-width: 0.6; stroke-linejoin: miter"/>
    </g>
    <g id="text_22">
     <!-- MNT pattern (6,4)/(4,6) -->
     <g transform="translate(77.243125 38.734473) scale(0.08 -0.08)">
      <defs>
       <path id="Cambria-10" d="M 4841 4113 
Q 4703 4078 4642 4043 
Q 4581 4009 4545 3957 
Q 4509 3906 4492 3803 
Q 4475 3700 4475 3484 
L 4475 781 
Q 4475 572 4489 475 
Q 4503 378 4536 322 
Q 4569 266 4633 228 
Q 4697 191 4841 153 
L 4841 0 
L 3538 0 
L 3538 153 
Q 3716 197 3784 253 
Q 3853 309 3878 418 
Q 3903 528 3903 781 
L 3903 1978 
Q 3903 2450 3917 2933 
Q 3931 3416 3950 3594 
L 3897 3594 
L 2659 497 
L 2300 497 
L 1150 3644 
L 1097 3644 
Q 1113 3453 1127 2953 
Q 1141 2453 1141 1925 
L 1141 781 
Q 1141 572 1155 475 
Q 1169 378 1201 322 
Q 1234 266 1298 228 
Q 1363 191 1506 153 
L 1506 0 
L 366 0 
L 366 153 
Q 559 203 625 264 
Q 691 325 711 437 
Q 731 550 731 781 
L 731 3484 
Q 731 3700 715 3798 
Q 700 3897 664 3951 
Q 628 4006 568 4039 
Q 509 4072 366 4113 
L 366 4266 
L 1481 4266 
L 2578 1225 
L 3784 4266 
L 4841 4266 
L 4841 4113 
z
" transform="scale(0.015625)"/>
       <path id="Cambria-11" d="M 2888 1691 
Q 3000 1503 3076 1362 
Q 3153 1222 3234 1047 
L 3275 1047 
Q 3259 1238 3246 1805 
Q 3234 2372 3234 2828 
L 3234 3484 
Q 3234 3700 3221 3800 
Q 3209 3900 3176 3953 
Q 3144 4006 3086 4039 
Q 3028 4072 2884 4113 
L 2884 4266 
L 4009 4266 
L 4009 4113 
Q 3869 4075 3811 4044 
Q 3753 4013 3717 3963 
Q 3681 3913 3662 3813 
Q 3644 3713 3644 3484 
L 3644 -19 
L 3253 -19 
L 1513 2900 
Q 1350 3172 1281 3297 
Q 1213 3422 1153 3544 
L 1100 3544 
Q 1122 3303 1131 2673 
Q 1141 2044 1141 1419 
L 1141 781 
Q 1141 572 1155 475 
Q 1169 378 1201 322 
Q 1234 266 1298 228 
Q 1363 191 1506 153 
L 1506 0 
L 366 0 
L 366 153 
Q 559 203 625 264 
Q 691 325 711 437 
Q 731 550 731 781 
L 731 3484 
Q 731 3700 715 3798 
Q 700 3897 664 3951 
Q 628 4006 568 4039 
Q 509 4072 366 4113 
L 366 4266 
L 1344 4266 
L 2888 1691 
z
" transform="scale(0.015625)"/>
       <path id="Cambria-17" d="M 206 4266 
L 3588 4266 
L 3588 3178 
L 3281 3178 
Q 3213 3447 3145 3603 
Q 3078 3759 3003 3840 
Q 2928 3922 2842 3956 
Q 2756 3991 2584 3991 
L 2188 3991 
L 2188 791 
Q 2188 606 2208 497 
Q 2228 388 2270 323 
Q 2313 259 2384 223 
Q 2456 188 2609 153 
L 2609 0 
L 1181 0 
L 1181 153 
Q 1275 175 1347 200 
Q 1419 225 1464 261 
Q 1509 297 1539 353 
Q 1569 409 1586 506 
Q 1603 603 1603 791 
L 1603 3991 
L 1209 3991 
Q 1063 3991 967 3962 
Q 872 3934 790 3845 
Q 709 3756 642 3592 
Q 575 3428 516 3178 
L 206 3178 
L 206 4266 
z
" transform="scale(0.015625)"/>
       <path id="Cambria-20b" d="M 2309 -1359 
Q 1778 -1359 1442 -1200 
Q 1106 -1041 918 -714 
Q 731 -388 647 134 
Q 563 656 563 1550 
Q 563 2438 645 2964 
Q 728 3491 915 3822 
Q 1103 4153 1440 4318 
Q 1778 4484 2309 4484 
L 2309 4228 
Q 2091 4228 1922 4191 
Q 1731 4147 1597 4022 
Q 1447 3884 1353 3638 
Q 1244 3350 1191 2875 
Q 1134 2372 1134 1575 
Q 1134 872 1181 379 
Q 1228 -113 1338 -425 
Q 1425 -688 1556 -834 
Q 1672 -963 1831 -1028 
Q 2016 -1103 2309 -1103 
L 2309 -1359 
z
" transform="scale(0.015625)"/>
       <path id="Cambria-20c" d="M 134 4484 
Q 666 4484 1002 4325 
Q 1338 4166 1525 3839 
Q 1713 3513 1797 2991 
Q 1881 2469 1881 1575 
Q 1881 688 1798 161 
Q 1716 -366 1528 -697 
Q 1341 -1028 1003 -1193 
Q 666 -1359 134 -1359 
L 134 -1103 
Q 353 -1103 522 -1066 
Q 713 -1022 847 -897 
Q 997 -759 1091 -513 
Q 1200 -225 1253 250 
Q 1309 753 1309 1550 
Q 1309 2253 1262 2745 
Q 1216 3238 1106 3550 
Q 1019 3813 888 3959 
Q 772 4088 613 4153 
Q 428 4228 134 4228 
L 134 4484 
z
" transform="scale(0.015625)"/>
       <path id="Cambria-200" d="M 2941 4472 
L 684 -1344 
L 194 -1344 
L 2456 4472 
L 2941 4472 
z
" transform="scale(0.015625)"/>
      </defs>
      <use xlink:href="#Cambria-10"/>
      <use xlink:href="#Cambria-11" transform="translate(81.546875 0)"/>
      <use xlink:href="#Cambria-17" transform="translate(149.609375 0)"/>
      <use xlink:href="#Cambria-3" transform="translate(208.890625 0)"/>
      <use xlink:href="#Cambria-92" transform="translate(230.90625 0)"/>
      <use xlink:href="#Cambria-83" transform="translate(286.515625 0)"/>
      <use xlink:href="#Cambria-96" transform="translate(335.34375 0)"/>
      <use xlink:href="#Cambria-96" transform="translate(369.1875 0)"/>
      <use xlink:href="#Cambria-87" transform="translate(402.15625 0)"/>
      <use xlink:href="#Cambria-94" transform="translate(450.9375 0)"/>
      <use xlink:href="#Cambria-90" transform="translate(492.296875 0)"/>
      <use xlink:href="#Cambria-3" transform="translate(548.109375 0)"/>
      <use xlink:href="#Cambria-20b" transform="translate(570.125 0)"/>
      <use xlink:href="#Cambria-378" transform="translate(608.3125 0)"/>
      <use xlink:href="#Cambria-1e1" transform="translate(663.6875 0)"/>
      <use xlink:href="#Cambria-376" transform="translate(684.203125 0)"/>
      <use xlink:href="#Cambria-20c" transform="translate(739.578125 0)"/>
      <use xlink:href="#Cambria-200" transform="translate(777.765625 0)"/>
      <use xlink:href="#Cambria-20b" transform="translate(826.796875 0)"/>
      <use xlink:href="#Cambria-376" transform="translate(864.984375 0)"/>
      <use xlink:href="#Cambria-1e1" transform="translate(920.359375 0)"/>
      <use xlink:href="#Cambria-378" transform="translate(940.875 0)"/>
      <use xlink:href="#Cambria-20c" transform="translate(996.25 0)"/>
     </g>
    </g>
    <g id="patch_20">
     <path d="M 54.843125 50.734473 
L 70.843125 50.734473 
L 70.843125 45.134473 
L 54.843125 45.134473 
z
" style="fill: #e34948; stroke: #fcfcfb; stroke-width: 0.6; stroke-linejoin: miter"/>
    </g>
    <g id="text_23">
     <!-- exceptional (5 total, all $q\leq 31$) -->
     <g transform="translate(77.243125 50.734473) scale(0.08 -0.08)">
      <defs>
       <path id="Cambria-377" d="M 469 172 
L 469 834 
L 847 834 
Q 941 516 1130 366 
Q 1319 216 1619 216 
Q 2034 216 2246 466 
Q 2459 716 2459 1213 
Q 2459 1544 2346 1761 
Q 2234 1978 2043 2075 
Q 1853 2172 1600 2172 
Q 1388 2172 1234 2145 
Q 1081 2119 906 2063 
L 656 2209 
L 656 4266 
L 2378 4266 
Q 2484 4266 2531 4283 
Q 2578 4300 2606 4336 
Q 2634 4372 2672 4472 
L 2916 4472 
L 2869 3747 
L 1072 3747 
L 1072 2375 
Q 1234 2444 1425 2478 
Q 1616 2513 1806 2513 
Q 2178 2513 2465 2361 
Q 2753 2209 2909 1929 
Q 3066 1650 3066 1281 
Q 3066 863 2891 563 
Q 2716 263 2384 106 
Q 2053 -50 1600 -50 
Q 1059 -50 469 172 
z
" transform="scale(0.015625)"/>
       <path id="Cmmi10-52" d="M 941 -1159 
Q 963 -1019 1025 -1019 
Q 1256 -1019 1389 -981 
Q 1522 -944 1563 -800 
L 1838 288 
Q 1472 -72 1106 -72 
Q 703 -72 473 233 
Q 244 538 244 953 
Q 244 1363 455 1803 
Q 666 2244 1027 2536 
Q 1388 2828 1806 2828 
Q 2000 2828 2156 2712 
Q 2313 2597 2394 2406 
Q 2431 2481 2601 2654 
Q 2772 2828 2841 2828 
Q 2913 2828 2913 2747 
L 2016 -825 
Q 2000 -919 1997 -934 
Q 1997 -1019 2419 -1019 
Q 2450 -1019 2467 -1044 
Q 2484 -1069 2484 -1100 
Q 2463 -1184 2448 -1212 
Q 2434 -1241 2375 -1241 
L 1006 -1241 
Q 941 -1241 941 -1159 
z
M 1119 97 
Q 1344 97 1558 267 
Q 1772 438 1931 672 
L 2291 2113 
Q 2253 2338 2126 2500 
Q 2000 2663 1791 2663 
Q 1575 2663 1389 2486 
Q 1203 2309 1075 2069 
Q 950 1813 836 1366 
Q 722 919 722 672 
Q 722 450 817 273 
Q 913 97 1119 97 
z
" transform="scale(0.015625)"/>
       <path id="Cmsy10-e" d="M 653 -878 
Q 600 -878 565 -837 
Q 531 -797 531 -750 
Q 531 -697 565 -659 
Q 600 -622 653 -622 
L 4325 -622 
Q 4375 -622 4408 -659 
Q 4441 -697 4441 -750 
Q 4441 -797 4408 -837 
Q 4375 -878 4325 -878 
L 653 -878 
z
M 594 2113 
Q 531 2131 531 2222 
Q 531 2303 616 2338 
L 4269 4063 
Q 4281 4072 4313 4072 
Q 4366 4072 4403 4034 
Q 4441 3997 4441 3944 
Q 4441 3859 4366 3828 
L 959 2222 
L 4384 603 
Q 4441 572 4441 494 
Q 4441 438 4403 402 
Q 4366 366 4313 366 
Q 4281 366 4269 378 
L 594 2113 
z
" transform="scale(0.015625)"/>
       <path id="Cmr10-6e" d="M 609 494 
Q 759 275 1012 169 
Q 1266 63 1556 63 
Q 1928 63 2084 380 
Q 2241 697 2241 1100 
Q 2241 1281 2208 1462 
Q 2175 1644 2097 1800 
Q 2019 1956 1883 2050 
Q 1747 2144 1550 2144 
L 1125 2144 
Q 1069 2144 1069 2203 
L 1069 2259 
Q 1069 2309 1125 2309 
L 1478 2338 
Q 1703 2338 1851 2506 
Q 2000 2675 2069 2917 
Q 2138 3159 2138 3378 
Q 2138 3684 1994 3881 
Q 1850 4078 1556 4078 
Q 1313 4078 1091 3986 
Q 869 3894 738 3706 
Q 750 3709 759 3711 
Q 769 3713 781 3713 
Q 925 3713 1022 3613 
Q 1119 3513 1119 3372 
Q 1119 3234 1022 3134 
Q 925 3034 781 3034 
Q 641 3034 541 3134 
Q 441 3234 441 3372 
Q 441 3647 606 3850 
Q 772 4053 1033 4158 
Q 1294 4263 1556 4263 
Q 1750 4263 1965 4205 
Q 2181 4147 2356 4039 
Q 2531 3931 2642 3762 
Q 2753 3594 2753 3378 
Q 2753 3109 2633 2881 
Q 2513 2653 2303 2487 
Q 2094 2322 1844 2241 
Q 2122 2188 2372 2031 
Q 2622 1875 2773 1631 
Q 2925 1388 2925 1106 
Q 2925 753 2731 467 
Q 2538 181 2222 20 
Q 1906 -141 1556 -141 
Q 1256 -141 954 -26 
Q 653 88 461 316 
Q 269 544 269 863 
Q 269 1022 375 1128 
Q 481 1234 641 1234 
Q 744 1234 830 1186 
Q 916 1138 964 1050 
Q 1013 963 1013 863 
Q 1013 706 903 600 
Q 794 494 641 494 
L 609 494 
z
" transform="scale(0.015625)"/>
      </defs>
      <use xlink:href="#Cambria-87" transform="translate(0 0.9375)"/>
      <use xlink:href="#Cambria-9a" transform="translate(48.779297 0.9375)"/>
      <use xlink:href="#Cambria-85" transform="translate(97.119141 0.9375)"/>
      <use xlink:href="#Cambria-87" transform="translate(141.210938 0.9375)"/>
      <use xlink:href="#Cambria-92" transform="translate(189.990234 0.9375)"/>
      <use xlink:href="#Cambria-96" transform="translate(245.605469 0.9375)"/>
      <use xlink:href="#Cambria-8b" transform="translate(279.443359 0.9375)"/>
      <use xlink:href="#Cambria-91" transform="translate(307.226562 0.9375)"/>
      <use xlink:href="#Cambria-90" transform="translate(360.302734 0.9375)"/>
      <use xlink:href="#Cambria-83" transform="translate(416.113281 0.9375)"/>
      <use xlink:href="#Cambria-8e" transform="translate(464.941406 0.9375)"/>
      <use xlink:href="#Cambria-3" transform="translate(492.089844 0.9375)"/>
      <use xlink:href="#Cambria-20b" transform="translate(514.111328 0.9375)"/>
      <use xlink:href="#Cambria-377" transform="translate(552.294922 0.9375)"/>
      <use xlink:href="#Cambria-3" transform="translate(607.666016 0.9375)"/>
      <use xlink:href="#Cambria-96" transform="translate(629.6875 0.9375)"/>
      <use xlink:href="#Cambria-91" transform="translate(663.525391 0.9375)"/>
      <use xlink:href="#Cambria-96" transform="translate(716.601562 0.9375)"/>
      <use xlink:href="#Cambria-83" transform="translate(750.439453 0.9375)"/>
      <use xlink:href="#Cambria-8e" transform="translate(799.267578 0.9375)"/>
      <use xlink:href="#Cambria-1e1" transform="translate(826.416016 0.9375)"/>
      <use xlink:href="#Cambria-3" transform="translate(846.923828 0.9375)"/>
      <use xlink:href="#Cambria-83" transform="translate(868.945312 0.9375)"/>
      <use xlink:href="#Cambria-8e" transform="translate(917.773438 0.9375)"/>
      <use xlink:href="#Cambria-8e" transform="translate(944.921875 0.9375)"/>
      <use xlink:href="#Cambria-3" transform="translate(972.070312 0.9375)"/>
      <use xlink:href="#Cmmi10-52" transform="translate(994.091797 0.9375)"/>
      <use xlink:href="#Cmsy10-e" transform="translate(1058.671932 0.9375)"/>
      <use xlink:href="#Cmr10-6e" transform="translate(1156.357536 0.9375)"/>
      <use xlink:href="#Cmr10-64" transform="translate(1206.357536 0.9375)"/>
      <use xlink:href="#Cambria-20c" transform="translate(1256.357536 0.9375)"/>
     </g>
    </g>
   </g>
  </g>
  <g id="axes_2">
   <g id="patch_21">
    <path d="M 288.553406 176.466016 
L 491.763686 176.466016 
L 491.763686 25.311816 
L 288.553406 25.311816 
z
" style="fill: #fcfcfb"/>
   </g>
   <g id="matplotlib.axis_3">
    <g id="xtick_8">
     <g id="line2d_23">
      <path d="M 320.882314 176.466016 
L 320.882314 25.311816 
" clip-path="url(#p05d01ebaba)" style="fill: none; stroke: #e1e0d9; stroke-width: 0.7; stroke-linecap: square"/>
     </g>
     <g id="line2d_24">
      <g>
       <use xlink:href="#mceb162d28b" x="320.882314" y="176.466016" style="fill: #898781; stroke: #898781; stroke-width: 0.8"/>
      </g>
     </g>
     <g id="text_24">
      <!-- 17.5 -->
      <g style="fill: #52514e" transform="translate(311.083681 191.633252) scale(0.105 -0.105)">
       <defs>
        <path id="Cambria-1e4" d="M 972 725 
L 972 0 
L 341 0 
L 341 725 
L 972 725 
z
" transform="scale(0.015625)"/>
       </defs>
       <use xlink:href="#Cambria-373"/>
       <use xlink:href="#Cambria-379" transform="translate(55.375 0)"/>
       <use xlink:href="#Cambria-1e4" transform="translate(110.75 0)"/>
       <use xlink:href="#Cambria-377" transform="translate(131.265625 0)"/>
      </g>
     </g>
    </g>
    <g id="xtick_9">
     <g id="line2d_25">
      <path d="M 359.369109 176.466016 
L 359.369109 25.311816 
" clip-path="url(#p05d01ebaba)" style="fill: none; stroke: #e1e0d9; stroke-width: 0.7; stroke-linecap: square"/>
     </g>
     <g id="line2d_26">
      <g>
       <use xlink:href="#mceb162d28b" x="359.369109" y="176.466016" style="fill: #898781; stroke: #898781; stroke-width: 0.8"/>
      </g>
     </g>
     <g id="text_25">
      <!-- 20.0 -->
      <g style="fill: #52514e" transform="translate(349.570477 191.633252) scale(0.105 -0.105)">
       <use xlink:href="#Cambria-374"/>
       <use xlink:href="#Cambria-372" transform="translate(55.375 0)"/>
       <use xlink:href="#Cambria-1e4" transform="translate(110.75 0)"/>
       <use xlink:href="#Cambria-372" transform="translate(131.265625 0)"/>
      </g>
     </g>
    </g>
    <g id="xtick_10">
     <g id="line2d_27">
      <path d="M 397.855905 176.466016 
L 397.855905 25.311816 
" clip-path="url(#p05d01ebaba)" style="fill: none; stroke: #e1e0d9; stroke-width: 0.7; stroke-linecap: square"/>
     </g>
     <g id="line2d_28">
      <g>
       <use xlink:href="#mceb162d28b" x="397.855905" y="176.466016" style="fill: #898781; stroke: #898781; stroke-width: 0.8"/>
      </g>
     </g>
     <g id="text_26">
      <!-- 22.5 -->
      <g style="fill: #52514e" transform="translate(388.057272 191.633252) scale(0.105 -0.105)">
       <use xlink:href="#Cambria-374"/>
       <use xlink:href="#Cambria-374" transform="translate(55.375 0)"/>
       <use xlink:href="#Cambria-1e4" transform="translate(110.75 0)"/>
       <use xlink:href="#Cambria-377" transform="translate(131.265625 0)"/>
      </g>
     </g>
    </g>
    <g id="xtick_11">
     <g id="line2d_29">
      <path d="M 436.3427 176.466016 
L 436.3427 25.311816 
" clip-path="url(#p05d01ebaba)" style="fill: none; stroke: #e1e0d9; stroke-width: 0.7; stroke-linecap: square"/>
     </g>
     <g id="line2d_30">
      <g>
       <use xlink:href="#mceb162d28b" x="436.3427" y="176.466016" style="fill: #898781; stroke: #898781; stroke-width: 0.8"/>
      </g>
     </g>
     <g id="text_27">
      <!-- 25.0 -->
      <g style="fill: #52514e" transform="translate(426.544068 191.633252) scale(0.105 -0.105)">
       <use xlink:href="#Cambria-374"/>
       <use xlink:href="#Cambria-377" transform="translate(55.375 0)"/>
       <use xlink:href="#Cambria-1e4" transform="translate(110.75 0)"/>
       <use xlink:href="#Cambria-372" transform="translate(131.265625 0)"/>
      </g>
     </g>
    </g>
    <g id="xtick_12">
     <g id="line2d_31">
      <path d="M 474.829496 176.466016 
L 474.829496 25.311816 
" clip-path="url(#p05d01ebaba)" style="fill: none; stroke: #e1e0d9; stroke-width: 0.7; stroke-linecap: square"/>
     </g>
     <g id="line2d_32">
      <g>
       <use xlink:href="#mceb162d28b" x="474.829496" y="176.466016" style="fill: #898781; stroke: #898781; stroke-width: 0.8"/>
      </g>
     </g>
     <g id="text_28">
      <!-- 27.5 -->
      <g style="fill: #52514e" transform="translate(465.030863 191.633252) scale(0.105 -0.105)">
       <use xlink:href="#Cambria-374"/>
       <use xlink:href="#Cambria-379" transform="translate(55.375 0)"/>
       <use xlink:href="#Cambria-1e4" transform="translate(110.75 0)"/>
       <use xlink:href="#Cambria-377" transform="translate(131.265625 0)"/>
      </g>
     </g>
    </g>
    <g id="text_29">
     <!-- prime bound (bits) -->
     <g style="fill: #0b0b0b" transform="translate(341.511671 207.3) scale(0.12 -0.12)">
      <use xlink:href="#Cambria-92"/>
      <use xlink:href="#Cambria-94" transform="translate(55.609375 0)"/>
      <use xlink:href="#Cambria-8b" transform="translate(96.96875 0)"/>
      <use xlink:href="#Cambria-8f" transform="translate(124.75 0)"/>
      <use xlink:href="#Cambria-87" transform="translate(207.953125 0)"/>
      <use xlink:href="#Cambria-3" transform="translate(256.734375 0)"/>
      <use xlink:href="#Cambria-84" transform="translate(278.75 0)"/>
      <use xlink:href="#Cambria-91" transform="translate(333.484375 0)"/>
      <use xlink:href="#Cambria-97" transform="translate(386.5625 0)"/>
      <use xlink:href="#Cambria-90" transform="translate(441.78125 0)"/>
      <use xlink:href="#Cambria-86" transform="translate(497.59375 0)"/>
      <use xlink:href="#Cambria-3" transform="translate(553.0625 0)"/>
      <use xlink:href="#Cambria-20b" transform="translate(575.078125 0)"/>
      <use xlink:href="#Cambria-84" transform="translate(613.265625 0)"/>
      <use xlink:href="#Cambria-8b" transform="translate(668 0)"/>
      <use xlink:href="#Cambria-96" transform="translate(695.78125 0)"/>
      <use xlink:href="#Cambria-95" transform="translate(729.625 0)"/>
      <use xlink:href="#Cambria-20c" transform="translate(772.59375 0)"/>
     </g>
    </g>
   </g>
   <g id="matplotlib.axis_4">
    <g id="ytick_5">
     <g id="line2d_33">
      <path d="M 288.553406 176.466016 
L 491.763686 176.466016 
" clip-path="url(#p05d01ebaba)" style="fill: none; stroke: #e1e0d9; stroke-width: 0.7; stroke-linecap: square"/>
     </g>
     <g id="line2d_34">
      <g>
       <use xlink:href="#m886e6df1ad" x="288.553406" y="176.466016" style="fill: #898781; stroke: #898781; stroke-width: 0.8"/>
      </g>
     </g>
     <g id="text_30">
      <!-- 0 -->
      <g style="fill: #52514e" transform="translate(275.739031 180.549634) scale(0.105 -0.105)">
       <use xlink:href="#Cambria-372"/>
      </g>
     </g>
    </g>
    <g id="ytick_6">
     <g id="line2d_35">
      <path d="M 288.553406 154.872559 
L 491.763686 154.872559 
" clip-path="url(#p05d01ebaba)" style="fill: none; stroke: #e1e0d9; stroke-width: 0.7; stroke-linecap: square"/>
     </g>
     <g id="line2d_36">
      <g>
       <use xlink:href="#m886e6df1ad" x="288.553406" y="154.872559" style="fill: #898781; stroke: #898781; stroke-width: 0.8"/>
      </g>
     </g>
     <g id="text_31">
      <!-- 10 -->
      <g style="fill: #52514e" transform="translate(269.924656 158.956177) scale(0.105 -0.105)">
       <use xlink:href="#Cambria-373"/>
       <use xlink:href="#Cambria-372" transform="translate(55.375 0)"/>
      </g>
     </g>
    </g>
    <g id="ytick_7">
     <g id="line2d_37">
      <path d="M 288.553406 133.279102 
L 491.763686 133.279102 
" clip-path="url(#p05d01ebaba)" style="fill: none; stroke: #e1e0d9; stroke-width: 0.7; stroke-linecap: square"/>
     </g>
     <g id="line2d_38">
      <g>
       <use xlink:href="#m886e6df1ad" x="288.553406" y="133.279102" style="fill: #898781; stroke: #898781; stroke-width: 0.8"/>
      </g>
     </g>
     <g id="text_32">
      <!-- 20 -->
      <g style="fill: #52514e" transform="translate(269.924656 137.36272) scale(0.105 -0.105)">
       <use xlink:href="#Cambria-374"/>
       <use xlink:href="#Cambria-372" transform="translate(55.375 0)"/>
      </g>
     </g>
    </g>
    <g id="ytick_8">
     <g id="line2d_39">
      <path d="M 288.553406 111.685645 
L 491.763686 111.685645 
" clip-path="url(#p05d01ebaba)" style="fill: none; stroke: #e1e0d9; stroke-width: 0.7; stroke-linecap: square"/>
     </g>
     <g id="line2d_40">
      <g>
       <use xlink:href="#m886e6df1ad" x="288.553406" y="111.685645" style="fill: #898781; stroke: #898781; stroke-width: 0.8"/>
      </g>
     </g>
     <g id="text_33">
      <!-- 30 -->
      <g style="fill: #52514e" transform="translate(269.924656 115.769263) scale(0.105 -0.105)">
       <use xlink:href="#Cambria-375"/>
       <use xlink:href="#Cambria-372" transform="translate(55.375 0)"/>
      </g>
     </g>
    </g>
    <g id="ytick_9">
     <g id="line2d_41">
      <path d="M 288.553406 90.092187 
L 491.763686 90.092187 
" clip-path="url(#p05d01ebaba)" style="fill: none; stroke: #e1e0d9; stroke-width: 0.7; stroke-linecap: square"/>
     </g>
     <g id="line2d_42">
      <g>
       <use xlink:href="#m886e6df1ad" x="288.553406" y="90.092187" style="fill: #898781; stroke: #898781; stroke-width: 0.8"/>
      </g>
     </g>
     <g id="text_34">
      <!-- 40 -->
      <g style="fill: #52514e" transform="translate(269.924656 94.175806) scale(0.105 -0.105)">
       <use xlink:href="#Cambria-376"/>
       <use xlink:href="#Cambria-372" transform="translate(55.375 0)"/>
      </g>
     </g>
    </g>
    <g id="ytick_10">
     <g id="line2d_43">
      <path d="M 288.553406 68.49873 
L 491.763686 68.49873 
" clip-path="url(#p05d01ebaba)" style="fill: none; stroke: #e1e0d9; stroke-width: 0.7; stroke-linecap: square"/>
     </g>
     <g id="line2d_44">
      <g>
       <use xlink:href="#m886e6df1ad" x="288.553406" y="68.49873" style="fill: #898781; stroke: #898781; stroke-width: 0.8"/>
      </g>
     </g>
     <g id="text_35">
      <!-- 50 -->
      <g style="fill: #52514e" transform="translate(269.924656 72.582349) scale(0.105 -0.105)">
       <use xlink:href="#Cambria-377"/>
       <use xlink:href="#Cambria-372" transform="translate(55.375 0)"/>
      </g>
     </g>
    </g>
    <g id="ytick_11">
     <g id="line2d_45">
      <path d="M 288.553406 46.905273 
L 491.763686 46.905273 
" clip-path="url(#p05d01ebaba)" style="fill: none; stroke: #e1e0d9; stroke-width: 0.7; stroke-linecap: square"/>
     </g>
     <g id="line2d_46">
      <g>
       <use xlink:href="#m886e6df1ad" x="288.553406" y="46.905273" style="fill: #898781; stroke: #898781; stroke-width: 0.8"/>
      </g>
     </g>
     <g id="text_36">
      <!-- 60 -->
      <g style="fill: #52514e" transform="translate(269.924656 50.988892) scale(0.105 -0.105)">
       <use xlink:href="#Cambria-378"/>
       <use xlink:href="#Cambria-372" transform="translate(55.375 0)"/>
      </g>
     </g>
    </g>
    <g id="ytick_12">
     <g id="line2d_47">
      <path d="M 288.553406 25.311816 
L 491.763686 25.311816 
" clip-path="url(#p05d01ebaba)" style="fill: none; stroke: #e1e0d9; stroke-width: 0.7; stroke-linecap: square"/>
     </g>
     <g id="line2d_48">
      <g>
       <use xlink:href="#m886e6df1ad" x="288.553406" y="25.311816" style="fill: #898781; stroke: #898781; stroke-width: 0.8"/>
      </g>
     </g>
     <g id="text_37">
      <!-- 70 -->
      <g style="fill: #52514e" transform="translate(269.924656 29.395435) scale(0.105 -0.105)">
       <use xlink:href="#Cambria-379"/>
       <use xlink:href="#Cambria-372" transform="translate(55.375 0)"/>
      </g>
     </g>
    </g>
    <g id="text_38">
     <!-- count -->
     <g style="fill: #0b0b0b" transform="translate(263.25864 115.411729) rotate(-90) scale(0.12 -0.12)">
      <use xlink:href="#Cambria-85"/>
      <use xlink:href="#Cambria-91" transform="translate(44.09375 0)"/>
      <use xlink:href="#Cambria-97" transform="translate(97.171875 0)"/>
      <use xlink:href="#Cambria-90" transform="translate(152.390625 0)"/>
      <use xlink:href="#Cambria-96" transform="translate(208.203125 0)"/>
     </g>
    </g>
   </g>
   <g id="line2d_49">
    <path d="M 297.790236 96.570225 
L 328.579673 96.570225 
L 359.369109 90.092187 
L 390.158546 85.773496 
L 420.947982 72.817422 
L 451.737419 53.383311 
L 482.526855 44.745928 
" clip-path="url(#p05d01ebaba)" style="fill: none; stroke: #eb6834; stroke-width: 2; stroke-linecap: square"/>
    <defs>
     <path id="m2661ef6d56" d="M 0 3 
C 0.795609 3 1.55874 2.683901 2.12132 2.12132 
C 2.683901 1.55874 3 0.795609 3 0 
C 3 -0.795609 2.683901 -1.55874 2.12132 -2.12132 
C 1.55874 -2.683901 0.795609 -3 0 -3 
C -0.795609 -3 -1.55874 -2.683901 -2.12132 -2.12132 
C -2.683901 -1.55874 -3 -0.795609 -3 0 
C -3 0.795609 -2.683901 1.55874 -2.12132 2.12132 
C -1.55874 2.683901 -0.795609 3 0 3 
z
" style="stroke: #eb6834"/>
    </defs>
    <g clip-path="url(#p05d01ebaba)">
     <use xlink:href="#m2661ef6d56" x="297.790236" y="96.570225" style="fill: #eb6834; stroke: #eb6834"/>
     <use xlink:href="#m2661ef6d56" x="328.579673" y="96.570225" style="fill: #eb6834; stroke: #eb6834"/>
     <use xlink:href="#m2661ef6d56" x="359.369109" y="90.092187" style="fill: #eb6834; stroke: #eb6834"/>
     <use xlink:href="#m2661ef6d56" x="390.158546" y="85.773496" style="fill: #eb6834; stroke: #eb6834"/>
     <use xlink:href="#m2661ef6d56" x="420.947982" y="72.817422" style="fill: #eb6834; stroke: #eb6834"/>
     <use xlink:href="#m2661ef6d56" x="451.737419" y="53.383311" style="fill: #eb6834; stroke: #eb6834"/>
     <use xlink:href="#m2661ef6d56" x="482.526855" y="44.745928" style="fill: #eb6834; stroke: #eb6834"/>
    </g>
   </g>
   <g id="line2d_50">
    <path d="M 297.790236 165.669287 
L 328.579673 165.669287 
L 359.369109 165.669287 
L 390.158546 165.669287 
L 420.947982 165.669287 
L 451.737419 165.669287 
L 482.526855 165.669287 
" clip-path="url(#p05d01ebaba)" style="fill: none; stroke: #008300; stroke-width: 2; stroke-linecap: square"/>
    <defs>
     <path id="mb0e019ceab" d="M -3 3 
L 3 3 
L 3 -3 
L -3 -3 
z
" style="stroke: #008300; stroke-linejoin: miter"/>
    </defs>
    <g clip-path="url(#p05d01ebaba)">
     <use xlink:href="#mb0e019ceab" x="297.790236" y="165.669287" style="fill: #008300; stroke: #008300; stroke-linejoin: miter"/>
     <use xlink:href="#mb0e019ceab" x="328.579673" y="165.669287" style="fill: #008300; stroke: #008300; stroke-linejoin: miter"/>
     <use xlink:href="#mb0e019ceab" x="359.369109" y="165.669287" style="fill: #008300; stroke: #008300; stroke-linejoin: miter"/>
     <use xlink:href="#mb0e019ceab" x="390.158546" y="165.669287" style="fill: #008300; stroke: #008300; stroke-linejoin: miter"/>
     <use xlink:href="#mb0e019ceab" x="420.947982" y="165.669287" style="fill: #008300; stroke: #008300; stroke-linejoin: miter"/>
     <use xlink:href="#mb0e019ceab" x="451.737419" y="165.669287" style="fill: #008300; stroke: #008300; stroke-linejoin: miter"/>
     <use xlink:href="#mb0e019ceab" x="482.526855" y="165.669287" style="fill: #008300; stroke: #008300; stroke-linejoin: miter"/>
    </g>
   </g>
   <g id="patch_22">
    <path d="M 288.553406 176.466016 
L 288.553406 25.311816 
" style="fill: none; stroke: #c3c2b7; stroke-width: 0.9; stroke-linejoin: miter; stroke-linecap: square"/>
   </g>
   <g id="patch_23">
    <path d="M 288.553406 176.466016 
L 491.763686 176.466016 
" style="fill: none; stroke: #c3c2b7; stroke-width: 0.9; stroke-linejoin: miter; stroke-linecap: square"/>
   </g>
   <g id="text_39">
    <!-- stays at 5 (all fields $\leq 43$) -->
    <g style="fill: #52514e" transform="translate(390.158546 159.19125) scale(0.084 -0.084)">
     <defs>
      <path id="Cambria-88" d="M 1909 2672 
L 1163 2672 
L 1163 781 
Q 1163 572 1183 465 
Q 1203 359 1242 304 
Q 1281 250 1345 217 
Q 1409 184 1550 153 
L 1550 0 
L 272 0 
L 272 153 
Q 409 191 468 225 
Q 528 259 561 312 
Q 594 366 609 466 
Q 625 566 625 781 
L 625 2672 
L 247 2672 
L 247 2831 
Q 366 2850 405 2861 
Q 444 2872 480 2894 
Q 516 2916 542 2956 
Q 569 2997 589 3076 
Q 609 3156 622 3300 
Q 650 3641 745 3853 
Q 841 4066 1023 4216 
Q 1206 4366 1414 4427 
Q 1622 4488 1903 4488 
Q 2150 4488 2322 4453 
L 2322 3888 
L 2013 3888 
Q 1953 4072 1873 4148 
Q 1794 4225 1650 4225 
Q 1547 4225 1476 4197 
Q 1406 4169 1347 4109 
Q 1288 4050 1245 3950 
Q 1203 3850 1183 3701 
Q 1163 3553 1163 3316 
L 1163 2988 
L 1909 2988 
L 1909 2672 
z
" transform="scale(0.015625)"/>
     </defs>
     <use xlink:href="#Cambria-95" transform="translate(0 0.875)"/>
     <use xlink:href="#Cambria-96" transform="translate(42.96875 0.875)"/>
     <use xlink:href="#Cambria-83" transform="translate(76.806641 0.875)"/>
     <use xlink:href="#Cambria-9b" transform="translate(125.634766 0.875)"/>
     <use xlink:href="#Cambria-95" transform="translate(176.025391 0.875)"/>
     <use xlink:href="#Cambria-3" transform="translate(218.994141 0.875)"/>
     <use xlink:href="#Cambria-83" transform="translate(241.015625 0.875)"/>
     <use xlink:href="#Cambria-96" transform="translate(289.84375 0.875)"/>
     <use xlink:href="#Cambria-3" transform="translate(323.681641 0.875)"/>
     <use xlink:href="#Cambria-377" transform="translate(345.703125 0.875)"/>
     <use xlink:href="#Cambria-3" transform="translate(401.074219 0.875)"/>
     <use xlink:href="#Cambria-20b" transform="translate(423.095703 0.875)"/>
     <use xlink:href="#Cambria-83" transform="translate(461.279297 0.875)"/>
     <use xlink:href="#Cambria-8e" transform="translate(510.107422 0.875)"/>
     <use xlink:href="#Cambria-8e" transform="translate(537.255859 0.875)"/>
     <use xlink:href="#Cambria-3" transform="translate(564.404297 0.875)"/>
     <use xlink:href="#Cambria-88" transform="translate(586.425781 0.875)"/>
     <use xlink:href="#Cambria-8b" transform="translate(616.699219 0.875)"/>
     <use xlink:href="#Cambria-87" transform="translate(644.482422 0.875)"/>
     <use xlink:href="#Cambria-8e" transform="translate(693.261719 0.875)"/>
     <use xlink:href="#Cambria-86" transform="translate(720.410156 0.875)"/>
     <use xlink:href="#Cambria-95" transform="translate(775.878906 0.875)"/>
     <use xlink:href="#Cambria-3" transform="translate(818.847656 0.875)"/>
     <use xlink:href="#Cmsy10-e" transform="translate(860.869198 0.875)"/>
     <use xlink:href="#Cmr10-3b" transform="translate(958.554802 0.875)"/>
     <use xlink:href="#Cmr10-6e" transform="translate(1008.554802 0.875)"/>
     <use xlink:href="#Cambria-20c" transform="translate(1058.554802 0.875)"/>
    </g>
   </g>
   <g id="text_40">
    <!-- Directed 3-cycle ledger -->
    <g style="fill: #0b0b0b" transform="translate(288.553406 17.311816) scale(0.13 -0.13)">
     <defs>
      <path id="Cambria-7" d="M 375 0 
L 375 153 
Q 519 191 581 225 
Q 644 259 678 312 
Q 713 366 728 466 
Q 744 566 744 781 
L 744 3484 
Q 744 3703 728 3801 
Q 713 3900 677 3953 
Q 641 4006 581 4039 
Q 522 4072 375 4113 
L 375 4266 
L 1744 4266 
Q 2334 4266 2711 4136 
Q 3088 4006 3347 3753 
Q 3606 3500 3734 3123 
Q 3863 2747 3863 2225 
Q 3863 1697 3742 1295 
Q 3622 894 3391 622 
Q 3191 384 2900 231 
Q 2659 106 2343 53 
Q 2028 0 1506 0 
L 375 0 
z
M 1328 291 
Q 1453 278 1697 278 
Q 1959 278 2165 322 
Q 2372 366 2540 459 
Q 2709 553 2843 720 
Q 2978 888 3062 1105 
Q 3147 1322 3186 1587 
Q 3225 1853 3225 2169 
Q 3225 2803 3042 3211 
Q 2859 3619 2526 3806 
Q 2194 3994 1731 3994 
Q 1519 3994 1328 3981 
L 1328 291 
z
" transform="scale(0.015625)"/>
     </defs>
     <use xlink:href="#Cambria-7"/>
     <use xlink:href="#Cambria-8b" transform="translate(66.15625 0)"/>
     <use xlink:href="#Cambria-94" transform="translate(93.9375 0)"/>
     <use xlink:href="#Cambria-87" transform="translate(133.828125 0)"/>
     <use xlink:href="#Cambria-85" transform="translate(182.609375 0)"/>
     <use xlink:href="#Cambria-96" transform="translate(226.703125 0)"/>
     <use xlink:href="#Cambria-87" transform="translate(259.671875 0)"/>
     <use xlink:href="#Cambria-86" transform="translate(308.453125 0)"/>
     <use xlink:href="#Cambria-3" transform="translate(363.921875 0)"/>
     <use xlink:href="#Cambria-375" transform="translate(385.9375 0)"/>
     <use xlink:href="#Cambria-1e6" transform="translate(441.3125 0)"/>
     <use xlink:href="#Cambria-85" transform="translate(474.515625 0)"/>
     <use xlink:href="#Cambria-9b" transform="translate(518.609375 0)"/>
     <use xlink:href="#Cambria-85" transform="translate(567.046875 0)"/>
     <use xlink:href="#Cambria-8e" transform="translate(611.140625 0)"/>
     <use xlink:href="#Cambria-87" transform="translate(638.296875 0)"/>
     <use xlink:href="#Cambria-3" transform="translate(687.078125 0)"/>
     <use xlink:href="#Cambria-8e" transform="translate(709.09375 0)"/>
     <use xlink:href="#Cambria-87" transform="translate(736.25 0)"/>
     <use xlink:href="#Cambria-86" transform="translate(785.03125 0)"/>
     <use xlink:href="#Cambria-89" transform="translate(840.5 0)"/>
     <use xlink:href="#Cambria-87" transform="translate(889.921875 0)"/>
     <use xlink:href="#Cambria-94" transform="translate(938.703125 0)"/>
    </g>
   </g>
   <g id="legend_2">
    <g id="line2d_51">
     <path d="M 295.753406 35.934473 
L 303.753406 35.934473 
L 311.753406 35.934473 
" style="fill: none; stroke: #eb6834; stroke-width: 2; stroke-linecap: square"/>
     <g>
      <use xlink:href="#m2661ef6d56" x="303.753406" y="35.934473" style="fill: #eb6834; stroke: #eb6834"/>
     </g>
    </g>
    <g id="text_41">
     <!-- two-of-three near-misses -->
     <g transform="translate(318.153406 38.734473) scale(0.08 -0.08)">
      <defs>
       <path id="Cambria-99" d="M 2494 2334 
L 1675 -16 
L 1241 -16 
L 491 2303 
Q 419 2528 370 2620 
Q 322 2713 267 2758 
Q 213 2803 91 2834 
L 91 2988 
L 1325 2988 
L 1325 2834 
Q 1144 2797 1080 2736 
Q 1016 2675 1016 2553 
Q 1016 2469 1034 2376 
Q 1053 2284 1091 2163 
L 1581 569 
L 2384 2988 
L 2825 2988 
L 3506 569 
L 4056 2097 
Q 4100 2216 4128 2323 
Q 4156 2431 4156 2525 
Q 4156 2656 4086 2728 
Q 4016 2800 3847 2834 
L 3847 2988 
L 4938 2988 
L 4938 2834 
Q 4850 2813 4806 2789 
Q 4763 2766 4720 2720 
Q 4678 2675 4626 2579 
Q 4575 2484 4497 2284 
L 3594 -16 
L 3172 -16 
L 2494 2334 
z
" transform="scale(0.015625)"/>
      </defs>
      <use xlink:href="#Cambria-96"/>
      <use xlink:href="#Cambria-99" transform="translate(33.84375 0)"/>
      <use xlink:href="#Cambria-91" transform="translate(110.015625 0)"/>
      <use xlink:href="#Cambria-1e6" transform="translate(163.09375 0)"/>
      <use xlink:href="#Cambria-91" transform="translate(196.296875 0)"/>
      <use xlink:href="#Cambria-88" transform="translate(249.375 0)"/>
      <use xlink:href="#Cambria-1e6" transform="translate(279.65625 0)"/>
      <use xlink:href="#Cambria-96" transform="translate(312.859375 0)"/>
      <use xlink:href="#Cambria-8a" transform="translate(346.703125 0)"/>
      <use xlink:href="#Cambria-94" transform="translate(401.875 0)"/>
      <use xlink:href="#Cambria-87" transform="translate(441.765625 0)"/>
      <use xlink:href="#Cambria-87" transform="translate(490.546875 0)"/>
      <use xlink:href="#Cambria-3" transform="translate(539.328125 0)"/>
      <use xlink:href="#Cambria-90" transform="translate(561.34375 0)"/>
      <use xlink:href="#Cambria-87" transform="translate(617.15625 0)"/>
      <use xlink:href="#Cambria-83" transform="translate(665.9375 0)"/>
      <use xlink:href="#Cambria-94" transform="translate(714.765625 0)"/>
      <use xlink:href="#Cambria-1e6" transform="translate(756.125 0)"/>
      <use xlink:href="#Cambria-8f" transform="translate(789.328125 0)"/>
      <use xlink:href="#Cambria-8b" transform="translate(872.53125 0)"/>
      <use xlink:href="#Cambria-95" transform="translate(900.3125 0)"/>
      <use xlink:href="#Cambria-95" transform="translate(943.28125 0)"/>
      <use xlink:href="#Cambria-87" transform="translate(986.25 0)"/>
      <use xlink:href="#Cambria-95" transform="translate(1035.03125 0)"/>
     </g>
    </g>
    <g id="line2d_52">
     <path d="M 295.753406 47.934473 
L 303.753406 47.934473 
L 311.753406 47.934473 
" style="fill: none; stroke: #008300; stroke-width: 2; stroke-linecap: square"/>
     <g>
      <use xlink:href="#mb0e019ceab" x="303.753406" y="47.934473" style="fill: #008300; stroke: #008300; stroke-linejoin: miter"/>
     </g>
    </g>
    <g id="text_42">
     <!-- full directed 3-cycles -->
     <g transform="translate(318.153406 50.734473) scale(0.08 -0.08)">
      <use xlink:href="#Cambria-88"/>
      <use xlink:href="#Cambria-97" transform="translate(30.28125 0)"/>
      <use xlink:href="#Cambria-8e" transform="translate(85.5 0)"/>
      <use xlink:href="#Cambria-8e" transform="translate(112.65625 0)"/>
      <use xlink:href="#Cambria-3" transform="translate(139.8125 0)"/>
      <use xlink:href="#Cambria-86" transform="translate(161.828125 0)"/>
      <use xlink:href="#Cambria-8b" transform="translate(217.296875 0)"/>
      <use xlink:href="#Cambria-94" transform="translate(245.078125 0)"/>
      <use xlink:href="#Cambria-87" transform="translate(284.96875 0)"/>
      <use xlink:href="#Cambria-85" transform="translate(333.75 0)"/>
      <use xlink:href="#Cambria-96" transform="translate(377.84375 0)"/>
      <use xlink:href="#Cambria-87" transform="translate(410.8125 0)"/>
      <use xlink:href="#Cambria-86" transform="translate(459.59375 0)"/>
      <use xlink:href="#Cambria-3" transform="translate(515.0625 0)"/>
      <use xlink:href="#Cambria-375" transform="translate(537.078125 0)"/>
      <use xlink:href="#Cambria-1e6" transform="translate(592.453125 0)"/>
      <use xlink:href="#Cambria-85" transform="translate(625.65625 0)"/>
      <use xlink:href="#Cambria-9b" transform="translate(669.75 0)"/>
      <use xlink:href="#Cambria-85" transform="translate(718.1875 0)"/>
      <use xlink:href="#Cambria-8e" transform="translate(762.28125 0)"/>
      <use xlink:href="#Cambria-87" transform="translate(789.4375 0)"/>
      <use xlink:href="#Cambria-95" transform="translate(838.21875 0)"/>
     </g>
    </g>
   </g>
  </g>
 </g>
 <defs>
  <clipPath id="p56f079613c">
   <rect x="47.643125" y="25.311816" width="203.210281" height="151.154199"/>
  </clipPath>
  <clipPath id="p05d01ebaba">
   <rect x="288.553406" y="25.311816" width="203.210281" height="151.154199"/>
  </clipPath>
 </defs>
</svg>
