<?xml version="1.0" encoding="utf-8" standalone="no"?>
<!DOCTYPE svg PUBLIC "-//W3C//DTD SVG 1.1//EN"
  "http://www.w3.org/Graphics/SVG/1.1/DTD/svg11.dtd">
<svg xmlns:xlink="http://www.w3.org/1999/xlink" width="440.433516pt" height="339.761631pt" viewBox="0 0 440.433516 339.761631" xmlns="http://www.w3.org/2000/svg" version="1.1">
 <metadata>
  <rdf:RDF xmlns:dc="http://purl.org/dc/elements/1.1/" xmlns:cc="http://creativecommons.org/ns#" xmlns:rdf="http://www.w3.org/1999/02/22-rdf-syntax-ns#">
   <cc:Work>
    <dc:type rdf:resource="http://purl.org/dc/dcmitype/StillImage"/>
    <dc:date>2026-07-23T01:03:19.396945</dc:date>
    <dc:format>image/svg+xml</dc:format>
    <dc:creator>
     <cc:Agent>
      <dc:title>Matplotlib v3.11.1, https://matplotlib.org/</dc:title>
     </cc:Agent>
    </dc:creator>
   </cc:Work>
  </rdf:RDF>
 </metadata>
 <defs>
  <style type="text/css">*{stroke-linejoin: round; stroke-linecap: butt}</style>
 </defs>
 <g id="figure_1">
  <g id="patch_1">
   <path d="M 0 339.761631 
L 440.433516 339.761631 
L 440.433516 0 
L 0 0 
z
" style="fill: #fcfcfb"/>
  </g>
  <g id="axes_1">
   <g id="patch_2">
    <path d="M 36.6675 296.13952 
L 433.233516 296.13952 
L 433.233516 33.033984 
L 36.6675 33.033984 
z
" style="fill: #fcfcfb"/>
   </g>
   <g id="patch_3">
    <path d="M 36.6675 33.033984 
L 73.151573 33.033984 
L 73.151573 57.239694 
L 36.6675 57.239694 
z
" clip-path="url(#p2dde6506ae)" style="fill: #9ec5f4; stroke: #e1e0d9; stroke-width: 0.8; stroke-linejoin: miter"/>
   </g>
   <g id="patch_4">
    <path d="M 76.324102 33.033984 
L 112.808175 33.033984 
L 112.808175 57.239694 
L 76.324102 57.239694 
z
" clip-path="url(#p2dde6506ae)" style="fill: #9ec5f4; stroke: #e1e0d9; stroke-width: 0.8; stroke-linejoin: miter"/>
   </g>
   <g id="patch_5">
    <path d="M 115.980703 33.033984 
L 152.464777 33.033984 
L 152.464777 57.239694 
L 115.980703 57.239694 
z
" clip-path="url(#p2dde6506ae)" style="fill: #9ec5f4; stroke: #e1e0d9; stroke-width: 0.8; stroke-linejoin: miter"/>
   </g>
   <g id="patch_6">
    <path d="M 155.637305 33.033984 
L 192.121378 33.033984 
L 192.121378 57.239694 
L 155.637305 57.239694 
z
" clip-path="url(#p2dde6506ae)" style="fill: #9ec5f4; stroke: #e1e0d9; stroke-width: 0.8; stroke-linejoin: miter"/>
   </g>
   <g id="patch_7">
    <path d="M 195.293906 33.033984 
L 231.77798 33.033984 
L 231.77798 57.239694 
L 195.293906 57.239694 
z
" clip-path="url(#p2dde6506ae)" style="fill: #fcfcfb; stroke: #e1e0d9; stroke-width: 0.8; stroke-linejoin: miter"/>
   </g>
   <g id="patch_8">
    <path d="M 234.950508 33.033984 
L 271.434581 33.033984 
L 271.434581 57.239694 
L 234.950508 57.239694 
z
" clip-path="url(#p2dde6506ae)" style="fill: #9ec5f4; stroke: #e1e0d9; stroke-width: 0.8; stroke-linejoin: miter"/>
   </g>
   <g id="patch_9">
    <path d="M 274.607109 33.033984 
L 311.091183 33.033984 
L 311.091183 57.239694 
L 274.607109 57.239694 
z
" clip-path="url(#p2dde6506ae)" style="fill: #fcfcfb; stroke: #e1e0d9; stroke-width: 0.8; stroke-linejoin: miter"/>
   </g>
   <g id="patch_10">
    <path d="M 314.263711 33.033984 
L 350.747784 33.033984 
L 350.747784 57.239694 
L 314.263711 57.239694 
z
" clip-path="url(#p2dde6506ae)" style="fill: #9ec5f4; stroke: #e1e0d9; stroke-width: 0.8; stroke-linejoin: miter"/>
   </g>
   <g id="patch_11">
    <path d="M 353.920313 33.033984 
L 390.404386 33.033984 
L 390.404386 57.239694 
L 353.920313 57.239694 
z
" clip-path="url(#p2dde6506ae)" style="fill: #fcfcfb; stroke: #e1e0d9; stroke-width: 0.8; stroke-linejoin: miter"/>
   </g>
   <g id="patch_12">
    <path d="M 393.576914 33.033984 
L 430.060988 33.033984 
L 430.060988 57.239694 
L 393.576914 57.239694 
z
" clip-path="url(#p2dde6506ae)" style="fill: #9ec5f4; stroke: #e1e0d9; stroke-width: 0.8; stroke-linejoin: miter"/>
   </g>
   <g id="patch_13">
    <path d="M 36.6675 59.344538 
L 73.151573 59.344538 
L 73.151573 83.550247 
L 36.6675 83.550247 
z
" clip-path="url(#p2dde6506ae)" style="fill: #9ec5f4; stroke: #e1e0d9; stroke-width: 0.8; stroke-linejoin: miter"/>
   </g>
   <g id="patch_14">
    <path d="M 76.324102 59.344538 
L 112.808175 59.344538 
L 112.808175 83.550247 
L 76.324102 83.550247 
z
" clip-path="url(#p2dde6506ae)" style="fill: #9ec5f4; stroke: #e1e0d9; stroke-width: 0.8; stroke-linejoin: miter"/>
   </g>
   <g id="patch_15">
    <path d="M 115.980703 59.344538 
L 152.464777 59.344538 
L 152.464777 83.550247 
L 115.980703 83.550247 
z
" clip-path="url(#p2dde6506ae)" style="fill: #9ec5f4; stroke: #e1e0d9; stroke-width: 0.8; stroke-linejoin: miter"/>
   </g>
   <g id="patch_16">
    <path d="M 155.637305 59.344538 
L 192.121378 59.344538 
L 192.121378 83.550247 
L 155.637305 83.550247 
z
" clip-path="url(#p2dde6506ae)" style="fill: #2a78d6; stroke: #e1e0d9; stroke-width: 0.8; stroke-linejoin: miter"/>
   </g>
   <g id="patch_17">
    <path d="M 195.293906 59.344538 
L 231.77798 59.344538 
L 231.77798 83.550247 
L 195.293906 83.550247 
z
" clip-path="url(#p2dde6506ae)" style="fill: #fcfcfb; stroke: #e1e0d9; stroke-width: 0.8; stroke-linejoin: miter"/>
   </g>
   <g id="patch_18">
    <path d="M 234.950508 59.344538 
L 271.434581 59.344538 
L 271.434581 83.550247 
L 234.950508 83.550247 
z
" clip-path="url(#p2dde6506ae)" style="fill: #9ec5f4; stroke: #e1e0d9; stroke-width: 0.8; stroke-linejoin: miter"/>
   </g>
   <g id="patch_19">
    <path d="M 274.607109 59.344538 
L 311.091183 59.344538 
L 311.091183 83.550247 
L 274.607109 83.550247 
z
" clip-path="url(#p2dde6506ae)" style="fill: #fcfcfb; stroke: #e1e0d9; stroke-width: 0.8; stroke-linejoin: miter"/>
   </g>
   <g id="patch_20">
    <path d="M 314.263711 59.344538 
L 350.747784 59.344538 
L 350.747784 83.550247 
L 314.263711 83.550247 
z
" clip-path="url(#p2dde6506ae)" style="fill: #9ec5f4; stroke: #e1e0d9; stroke-width: 0.8; stroke-linejoin: miter"/>
   </g>
   <g id="patch_21">
    <path d="M 353.920313 59.344538 
L 390.404386 59.344538 
L 390.404386 83.550247 
L 353.920313 83.550247 
z
" clip-path="url(#p2dde6506ae)" style="fill: #fcfcfb; stroke: #e1e0d9; stroke-width: 0.8; stroke-linejoin: miter"/>
   </g>
   <g id="patch_22">
    <path d="M 393.576914 59.344538 
L 430.060988 59.344538 
L 430.060988 83.550247 
L 393.576914 83.550247 
z
" clip-path="url(#p2dde6506ae)" style="fill: #9ec5f4; stroke: #e1e0d9; stroke-width: 0.8; stroke-linejoin: miter"/>
   </g>
   <g id="patch_23">
    <path d="M 36.6675 85.655091 
L 73.151573 85.655091 
L 73.151573 109.860801 
L 36.6675 109.860801 
z
" clip-path="url(#p2dde6506ae)" style="fill: #9ec5f4; stroke: #e1e0d9; stroke-width: 0.8; stroke-linejoin: miter"/>
   </g>
   <g id="patch_24">
    <path d="M 76.324102 85.655091 
L 112.808175 85.655091 
L 112.808175 109.860801 
L 76.324102 109.860801 
z
" clip-path="url(#p2dde6506ae)" style="fill: #9ec5f4; stroke: #e1e0d9; stroke-width: 0.8; stroke-linejoin: miter"/>
   </g>
   <g id="patch_25">
    <path d="M 115.980703 85.655091 
L 152.464777 85.655091 
L 152.464777 109.860801 
L 115.980703 109.860801 
z
" clip-path="url(#p2dde6506ae)" style="fill: #9ec5f4; stroke: #e1e0d9; stroke-width: 0.8; stroke-linejoin: miter"/>
   </g>
   <g id="patch_26">
    <path d="M 155.637305 85.655091 
L 192.121378 85.655091 
L 192.121378 109.860801 
L 155.637305 109.860801 
z
" clip-path="url(#p2dde6506ae)" style="fill: #9ec5f4; stroke: #e1e0d9; stroke-width: 0.8; stroke-linejoin: miter"/>
   </g>
   <g id="patch_27">
    <path d="M 195.293906 85.655091 
L 231.77798 85.655091 
L 231.77798 109.860801 
L 195.293906 109.860801 
z
" clip-path="url(#p2dde6506ae)" style="fill: #fcfcfb; stroke: #e1e0d9; stroke-width: 0.8; stroke-linejoin: miter"/>
   </g>
   <g id="patch_28">
    <path d="M 234.950508 85.655091 
L 271.434581 85.655091 
L 271.434581 109.860801 
L 234.950508 109.860801 
z
" clip-path="url(#p2dde6506ae)" style="fill: #9ec5f4; stroke: #e1e0d9; stroke-width: 0.8; stroke-linejoin: miter"/>
   </g>
   <g id="patch_29">
    <path d="M 274.607109 85.655091 
L 311.091183 85.655091 
L 311.091183 109.860801 
L 274.607109 109.860801 
z
" clip-path="url(#p2dde6506ae)" style="fill: #fcfcfb; stroke: #e1e0d9; stroke-width: 0.8; stroke-linejoin: miter"/>
   </g>
   <g id="patch_30">
    <path d="M 314.263711 85.655091 
L 350.747784 85.655091 
L 350.747784 109.860801 
L 314.263711 109.860801 
z
" clip-path="url(#p2dde6506ae)" style="fill: #9ec5f4; stroke: #e1e0d9; stroke-width: 0.8; stroke-linejoin: miter"/>
   </g>
   <g id="patch_31">
    <path d="M 353.920313 85.655091 
L 390.404386 85.655091 
L 390.404386 109.860801 
L 353.920313 109.860801 
z
" clip-path="url(#p2dde6506ae)" style="fill: #fcfcfb; stroke: #e1e0d9; stroke-width: 0.8; stroke-linejoin: miter"/>
   </g>
   <g id="patch_32">
    <path d="M 393.576914 85.655091 
L 430.060988 85.655091 
L 430.060988 109.860801 
L 393.576914 109.860801 
z
" clip-path="url(#p2dde6506ae)" style="fill: #9ec5f4; stroke: #e1e0d9; stroke-width: 0.8; stroke-linejoin: miter"/>
   </g>
   <g id="patch_33">
    <path d="M 36.6675 111.965645 
L 73.151573 111.965645 
L 73.151573 136.171354 
L 36.6675 136.171354 
z
" clip-path="url(#p2dde6506ae)" style="fill: #9ec5f4; stroke: #e1e0d9; stroke-width: 0.8; stroke-linejoin: miter"/>
   </g>
   <g id="patch_34">
    <path d="M 76.324102 111.965645 
L 112.808175 111.965645 
L 112.808175 136.171354 
L 76.324102 136.171354 
z
" clip-path="url(#p2dde6506ae)" style="fill: #2a78d6; stroke: #e1e0d9; stroke-width: 0.8; stroke-linejoin: miter"/>
   </g>
   <g id="patch_35">
    <path d="M 115.980703 111.965645 
L 152.464777 111.965645 
L 152.464777 136.171354 
L 115.980703 136.171354 
z
" clip-path="url(#p2dde6506ae)" style="fill: #9ec5f4; stroke: #e1e0d9; stroke-width: 0.8; stroke-linejoin: miter"/>
   </g>
   <g id="patch_36">
    <path d="M 155.637305 111.965645 
L 192.121378 111.965645 
L 192.121378 136.171354 
L 155.637305 136.171354 
z
" clip-path="url(#p2dde6506ae)" style="fill: #9ec5f4; stroke: #e1e0d9; stroke-width: 0.8; stroke-linejoin: miter"/>
   </g>
   <g id="patch_37">
    <path d="M 195.293906 111.965645 
L 231.77798 111.965645 
L 231.77798 136.171354 
L 195.293906 136.171354 
z
" clip-path="url(#p2dde6506ae)" style="fill: #fcfcfb; stroke: #e1e0d9; stroke-width: 0.8; stroke-linejoin: miter"/>
   </g>
   <g id="patch_38">
    <path d="M 234.950508 111.965645 
L 271.434581 111.965645 
L 271.434581 136.171354 
L 234.950508 136.171354 
z
" clip-path="url(#p2dde6506ae)" style="fill: #9ec5f4; stroke: #e1e0d9; stroke-width: 0.8; stroke-linejoin: miter"/>
   </g>
   <g id="patch_39">
    <path d="M 274.607109 111.965645 
L 311.091183 111.965645 
L 311.091183 136.171354 
L 274.607109 136.171354 
z
" clip-path="url(#p2dde6506ae)" style="fill: #fcfcfb; stroke: #e1e0d9; stroke-width: 0.8; stroke-linejoin: miter"/>
   </g>
   <g id="patch_40">
    <path d="M 314.263711 111.965645 
L 350.747784 111.965645 
L 350.747784 136.171354 
L 314.263711 136.171354 
z
" clip-path="url(#p2dde6506ae)" style="fill: #9ec5f4; stroke: #e1e0d9; stroke-width: 0.8; stroke-linejoin: miter"/>
   </g>
   <g id="patch_41">
    <path d="M 353.920313 111.965645 
L 390.404386 111.965645 
L 390.404386 136.171354 
L 353.920313 136.171354 
z
" clip-path="url(#p2dde6506ae)" style="fill: #fcfcfb; stroke: #e1e0d9; stroke-width: 0.8; stroke-linejoin: miter"/>
   </g>
   <g id="patch_42">
    <path d="M 393.576914 111.965645 
L 430.060988 111.965645 
L 430.060988 136.171354 
L 393.576914 136.171354 
z
" clip-path="url(#p2dde6506ae)" style="fill: #9ec5f4; stroke: #e1e0d9; stroke-width: 0.8; stroke-linejoin: miter"/>
   </g>
   <g id="patch_43">
    <path d="M 36.6675 138.276199 
L 73.151573 138.276199 
L 73.151573 162.481908 
L 36.6675 162.481908 
z
" clip-path="url(#p2dde6506ae)" style="fill: #fcfcfb; stroke: #e1e0d9; stroke-width: 0.8; stroke-linejoin: miter"/>
   </g>
   <g id="patch_44">
    <path d="M 76.324102 138.276199 
L 112.808175 138.276199 
L 112.808175 162.481908 
L 76.324102 162.481908 
z
" clip-path="url(#p2dde6506ae)" style="fill: #fcfcfb; stroke: #e1e0d9; stroke-width: 0.8; stroke-linejoin: miter"/>
   </g>
   <g id="patch_45">
    <path d="M 115.980703 138.276199 
L 152.464777 138.276199 
L 152.464777 162.481908 
L 115.980703 162.481908 
z
" clip-path="url(#p2dde6506ae)" style="fill: #fcfcfb; stroke: #e1e0d9; stroke-width: 0.8; stroke-linejoin: miter"/>
   </g>
   <g id="patch_46">
    <path d="M 155.637305 138.276199 
L 192.121378 138.276199 
L 192.121378 162.481908 
L 155.637305 162.481908 
z
" clip-path="url(#p2dde6506ae)" style="fill: #fcfcfb; stroke: #e1e0d9; stroke-width: 0.8; stroke-linejoin: miter"/>
   </g>
   <g id="patch_47">
    <path d="M 195.293906 138.276199 
L 231.77798 138.276199 
L 231.77798 162.481908 
L 195.293906 162.481908 
z
" clip-path="url(#p2dde6506ae)" style="fill: #fcfcfb; stroke: #e1e0d9; stroke-width: 0.8; stroke-linejoin: miter"/>
   </g>
   <g id="patch_48">
    <path d="M 234.950508 138.276199 
L 271.434581 138.276199 
L 271.434581 162.481908 
L 234.950508 162.481908 
z
" clip-path="url(#p2dde6506ae)" style="fill: #fcfcfb; stroke: #e1e0d9; stroke-width: 0.8; stroke-linejoin: miter"/>
   </g>
   <g id="patch_49">
    <path d="M 274.607109 138.276199 
L 311.091183 138.276199 
L 311.091183 162.481908 
L 274.607109 162.481908 
z
" clip-path="url(#p2dde6506ae)" style="fill: #fcfcfb; stroke: #e1e0d9; stroke-width: 0.8; stroke-linejoin: miter"/>
   </g>
   <g id="patch_50">
    <path d="M 314.263711 138.276199 
L 350.747784 138.276199 
L 350.747784 162.481908 
L 314.263711 162.481908 
z
" clip-path="url(#p2dde6506ae)" style="fill: #fcfcfb; stroke: #e1e0d9; stroke-width: 0.8; stroke-linejoin: miter"/>
   </g>
   <g id="patch_51">
    <path d="M 353.920313 138.276199 
L 390.404386 138.276199 
L 390.404386 162.481908 
L 353.920313 162.481908 
z
" clip-path="url(#p2dde6506ae)" style="fill: #fcfcfb; stroke: #e1e0d9; stroke-width: 0.8; stroke-linejoin: miter"/>
   </g>
   <g id="patch_52">
    <path d="M 393.576914 138.276199 
L 430.060988 138.276199 
L 430.060988 162.481908 
L 393.576914 162.481908 
z
" clip-path="url(#p2dde6506ae)" style="fill: #fcfcfb; stroke: #e1e0d9; stroke-width: 0.8; stroke-linejoin: miter"/>
   </g>
   <g id="patch_53">
    <path d="M 36.6675 164.586752 
L 73.151573 164.586752 
L 73.151573 188.792461 
L 36.6675 188.792461 
z
" clip-path="url(#p2dde6506ae)" style="fill: #9ec5f4; stroke: #e1e0d9; stroke-width: 0.8; stroke-linejoin: miter"/>
   </g>
   <g id="patch_54">
    <path d="M 76.324102 164.586752 
L 112.808175 164.586752 
L 112.808175 188.792461 
L 76.324102 188.792461 
z
" clip-path="url(#p2dde6506ae)" style="fill: #9ec5f4; stroke: #e1e0d9; stroke-width: 0.8; stroke-linejoin: miter"/>
   </g>
   <g id="patch_55">
    <path d="M 115.980703 164.586752 
L 152.464777 164.586752 
L 152.464777 188.792461 
L 115.980703 188.792461 
z
" clip-path="url(#p2dde6506ae)" style="fill: #9ec5f4; stroke: #e1e0d9; stroke-width: 0.8; stroke-linejoin: miter"/>
   </g>
   <g id="patch_56">
    <path d="M 155.637305 164.586752 
L 192.121378 164.586752 
L 192.121378 188.792461 
L 155.637305 188.792461 
z
" clip-path="url(#p2dde6506ae)" style="fill: #9ec5f4; stroke: #e1e0d9; stroke-width: 0.8; stroke-linejoin: miter"/>
   </g>
   <g id="patch_57">
    <path d="M 195.293906 164.586752 
L 231.77798 164.586752 
L 231.77798 188.792461 
L 195.293906 188.792461 
z
" clip-path="url(#p2dde6506ae)" style="fill: #fcfcfb; stroke: #e1e0d9; stroke-width: 0.8; stroke-linejoin: miter"/>
   </g>
   <g id="patch_58">
    <path d="M 234.950508 164.586752 
L 271.434581 164.586752 
L 271.434581 188.792461 
L 234.950508 188.792461 
z
" clip-path="url(#p2dde6506ae)" style="fill: #9ec5f4; stroke: #e1e0d9; stroke-width: 0.8; stroke-linejoin: miter"/>
   </g>
   <g id="patch_59">
    <path d="M 274.607109 164.586752 
L 311.091183 164.586752 
L 311.091183 188.792461 
L 274.607109 188.792461 
z
" clip-path="url(#p2dde6506ae)" style="fill: #fcfcfb; stroke: #e1e0d9; stroke-width: 0.8; stroke-linejoin: miter"/>
   </g>
   <g id="patch_60">
    <path d="M 314.263711 164.586752 
L 350.747784 164.586752 
L 350.747784 188.792461 
L 314.263711 188.792461 
z
" clip-path="url(#p2dde6506ae)" style="fill: #9ec5f4; stroke: #e1e0d9; stroke-width: 0.8; stroke-linejoin: miter"/>
   </g>
   <g id="patch_61">
    <path d="M 353.920313 164.586752 
L 390.404386 164.586752 
L 390.404386 188.792461 
L 353.920313 188.792461 
z
" clip-path="url(#p2dde6506ae)" style="fill: #fcfcfb; stroke: #e1e0d9; stroke-width: 0.8; stroke-linejoin: miter"/>
   </g>
   <g id="patch_62">
    <path d="M 393.576914 164.586752 
L 430.060988 164.586752 
L 430.060988 188.792461 
L 393.576914 188.792461 
z
" clip-path="url(#p2dde6506ae)" style="fill: #9ec5f4; stroke: #e1e0d9; stroke-width: 0.8; stroke-linejoin: miter"/>
   </g>
   <g id="patch_63">
    <path d="M 36.6675 190.897306 
L 73.151573 190.897306 
L 73.151573 215.103015 
L 36.6675 215.103015 
z
" clip-path="url(#p2dde6506ae)" style="fill: #fcfcfb; stroke: #e1e0d9; stroke-width: 0.8; stroke-linejoin: miter"/>
   </g>
   <g id="patch_64">
    <path d="M 76.324102 190.897306 
L 112.808175 190.897306 
L 112.808175 215.103015 
L 76.324102 215.103015 
z
" clip-path="url(#p2dde6506ae)" style="fill: #fcfcfb; stroke: #e1e0d9; stroke-width: 0.8; stroke-linejoin: miter"/>
   </g>
   <g id="patch_65">
    <path d="M 115.980703 190.897306 
L 152.464777 190.897306 
L 152.464777 215.103015 
L 115.980703 215.103015 
z
" clip-path="url(#p2dde6506ae)" style="fill: #fcfcfb; stroke: #e1e0d9; stroke-width: 0.8; stroke-linejoin: miter"/>
   </g>
   <g id="patch_66">
    <path d="M 155.637305 190.897306 
L 192.121378 190.897306 
L 192.121378 215.103015 
L 155.637305 215.103015 
z
" clip-path="url(#p2dde6506ae)" style="fill: #fcfcfb; stroke: #e1e0d9; stroke-width: 0.8; stroke-linejoin: miter"/>
   </g>
   <g id="patch_67">
    <path d="M 195.293906 190.897306 
L 231.77798 190.897306 
L 231.77798 215.103015 
L 195.293906 215.103015 
z
" clip-path="url(#p2dde6506ae)" style="fill: #fcfcfb; stroke: #e1e0d9; stroke-width: 0.8; stroke-linejoin: miter"/>
   </g>
   <g id="patch_68">
    <path d="M 234.950508 190.897306 
L 271.434581 190.897306 
L 271.434581 215.103015 
L 234.950508 215.103015 
z
" clip-path="url(#p2dde6506ae)" style="fill: #fcfcfb; stroke: #e1e0d9; stroke-width: 0.8; stroke-linejoin: miter"/>
   </g>
   <g id="patch_69">
    <path d="M 274.607109 190.897306 
L 311.091183 190.897306 
L 311.091183 215.103015 
L 274.607109 215.103015 
z
" clip-path="url(#p2dde6506ae)" style="fill: #fcfcfb; stroke: #e1e0d9; stroke-width: 0.8; stroke-linejoin: miter"/>
   </g>
   <g id="patch_70">
    <path d="M 314.263711 190.897306 
L 350.747784 190.897306 
L 350.747784 215.103015 
L 314.263711 215.103015 
z
" clip-path="url(#p2dde6506ae)" style="fill: #fcfcfb; stroke: #e1e0d9; stroke-width: 0.8; stroke-linejoin: miter"/>
   </g>
   <g id="patch_71">
    <path d="M 353.920313 190.897306 
L 390.404386 190.897306 
L 390.404386 215.103015 
L 353.920313 215.103015 
z
" clip-path="url(#p2dde6506ae)" style="fill: #fcfcfb; stroke: #e1e0d9; stroke-width: 0.8; stroke-linejoin: miter"/>
   </g>
   <g id="patch_72">
    <path d="M 393.576914 190.897306 
L 430.060988 190.897306 
L 430.060988 215.103015 
L 393.576914 215.103015 
z
" clip-path="url(#p2dde6506ae)" style="fill: #fcfcfb; stroke: #e1e0d9; stroke-width: 0.8; stroke-linejoin: miter"/>
   </g>
   <g id="patch_73">
    <path d="M 36.6675 217.207859 
L 73.151573 217.207859 
L 73.151573 241.413569 
L 36.6675 241.413569 
z
" clip-path="url(#p2dde6506ae)" style="fill: #eda100; stroke: #e1e0d9; stroke-width: 0.8; stroke-linejoin: miter"/>
   </g>
   <g id="patch_74">
    <path d="M 76.324102 217.207859 
L 112.808175 217.207859 
L 112.808175 241.413569 
L 76.324102 241.413569 
z
" clip-path="url(#p2dde6506ae)" style="fill: #9ec5f4; stroke: #e1e0d9; stroke-width: 0.8; stroke-linejoin: miter"/>
   </g>
   <g id="patch_75">
    <path d="M 115.980703 217.207859 
L 152.464777 217.207859 
L 152.464777 241.413569 
L 115.980703 241.413569 
z
" clip-path="url(#p2dde6506ae)" style="fill: #9ec5f4; stroke: #e1e0d9; stroke-width: 0.8; stroke-linejoin: miter"/>
   </g>
   <g id="patch_76">
    <path d="M 155.637305 217.207859 
L 192.121378 217.207859 
L 192.121378 241.413569 
L 155.637305 241.413569 
z
" clip-path="url(#p2dde6506ae)" style="fill: #9ec5f4; stroke: #e1e0d9; stroke-width: 0.8; stroke-linejoin: miter"/>
   </g>
   <g id="patch_77">
    <path d="M 195.293906 217.207859 
L 231.77798 217.207859 
L 231.77798 241.413569 
L 195.293906 241.413569 
z
" clip-path="url(#p2dde6506ae)" style="fill: #fcfcfb; stroke: #e1e0d9; stroke-width: 0.8; stroke-linejoin: miter"/>
   </g>
   <g id="patch_78">
    <path d="M 234.950508 217.207859 
L 271.434581 217.207859 
L 271.434581 241.413569 
L 234.950508 241.413569 
z
" clip-path="url(#p2dde6506ae)" style="fill: #9ec5f4; stroke: #e1e0d9; stroke-width: 0.8; stroke-linejoin: miter"/>
   </g>
   <g id="patch_79">
    <path d="M 274.607109 217.207859 
L 311.091183 217.207859 
L 311.091183 241.413569 
L 274.607109 241.413569 
z
" clip-path="url(#p2dde6506ae)" style="fill: #fcfcfb; stroke: #e1e0d9; stroke-width: 0.8; stroke-linejoin: miter"/>
   </g>
   <g id="patch_80">
    <path d="M 314.263711 217.207859 
L 350.747784 217.207859 
L 350.747784 241.413569 
L 314.263711 241.413569 
z
" clip-path="url(#p2dde6506ae)" style="fill: #9ec5f4; stroke: #e1e0d9; stroke-width: 0.8; stroke-linejoin: miter"/>
   </g>
   <g id="patch_81">
    <path d="M 353.920313 217.207859 
L 390.404386 217.207859 
L 390.404386 241.413569 
L 353.920313 241.413569 
z
" clip-path="url(#p2dde6506ae)" style="fill: #fcfcfb; stroke: #e1e0d9; stroke-width: 0.8; stroke-linejoin: miter"/>
   </g>
   <g id="patch_82">
    <path d="M 393.576914 217.207859 
L 430.060988 217.207859 
L 430.060988 241.413569 
L 393.576914 241.413569 
z
" clip-path="url(#p2dde6506ae)" style="fill: #9ec5f4; stroke: #e1e0d9; stroke-width: 0.8; stroke-linejoin: miter"/>
   </g>
   <g id="patch_83">
    <path d="M 36.6675 243.518413 
L 73.151573 243.518413 
L 73.151573 267.724122 
L 36.6675 267.724122 
z
" clip-path="url(#p2dde6506ae)" style="fill: #fcfcfb; stroke: #e1e0d9; stroke-width: 0.8; stroke-linejoin: miter"/>
   </g>
   <g id="patch_84">
    <path d="M 76.324102 243.518413 
L 112.808175 243.518413 
L 112.808175 267.724122 
L 76.324102 267.724122 
z
" clip-path="url(#p2dde6506ae)" style="fill: #fcfcfb; stroke: #e1e0d9; stroke-width: 0.8; stroke-linejoin: miter"/>
   </g>
   <g id="patch_85">
    <path d="M 115.980703 243.518413 
L 152.464777 243.518413 
L 152.464777 267.724122 
L 115.980703 267.724122 
z
" clip-path="url(#p2dde6506ae)" style="fill: #fcfcfb; stroke: #e1e0d9; stroke-width: 0.8; stroke-linejoin: miter"/>
   </g>
   <g id="patch_86">
    <path d="M 155.637305 243.518413 
L 192.121378 243.518413 
L 192.121378 267.724122 
L 155.637305 267.724122 
z
" clip-path="url(#p2dde6506ae)" style="fill: #fcfcfb; stroke: #e1e0d9; stroke-width: 0.8; stroke-linejoin: miter"/>
   </g>
   <g id="patch_87">
    <path d="M 195.293906 243.518413 
L 231.77798 243.518413 
L 231.77798 267.724122 
L 195.293906 267.724122 
z
" clip-path="url(#p2dde6506ae)" style="fill: #fcfcfb; stroke: #e1e0d9; stroke-width: 0.8; stroke-linejoin: miter"/>
   </g>
   <g id="patch_88">
    <path d="M 234.950508 243.518413 
L 271.434581 243.518413 
L 271.434581 267.724122 
L 234.950508 267.724122 
z
" clip-path="url(#p2dde6506ae)" style="fill: #fcfcfb; stroke: #e1e0d9; stroke-width: 0.8; stroke-linejoin: miter"/>
   </g>
   <g id="patch_89">
    <path d="M 274.607109 243.518413 
L 311.091183 243.518413 
L 311.091183 267.724122 
L 274.607109 267.724122 
z
" clip-path="url(#p2dde6506ae)" style="fill: #fcfcfb; stroke: #e1e0d9; stroke-width: 0.8; stroke-linejoin: miter"/>
   </g>
   <g id="patch_90">
    <path d="M 314.263711 243.518413 
L 350.747784 243.518413 
L 350.747784 267.724122 
L 314.263711 267.724122 
z
" clip-path="url(#p2dde6506ae)" style="fill: #fcfcfb; stroke: #e1e0d9; stroke-width: 0.8; stroke-linejoin: miter"/>
   </g>
   <g id="patch_91">
    <path d="M 353.920313 243.518413 
L 390.404386 243.518413 
L 390.404386 267.724122 
L 353.920313 267.724122 
z
" clip-path="url(#p2dde6506ae)" style="fill: #fcfcfb; stroke: #e1e0d9; stroke-width: 0.8; stroke-linejoin: miter"/>
   </g>
   <g id="patch_92">
    <path d="M 393.576914 243.518413 
L 430.060988 243.518413 
L 430.060988 267.724122 
L 393.576914 267.724122 
z
" clip-path="url(#p2dde6506ae)" style="fill: #fcfcfb; stroke: #e1e0d9; stroke-width: 0.8; stroke-linejoin: miter"/>
   </g>
   <g id="patch_93">
    <path d="M 36.6675 269.828966 
L 73.151573 269.828966 
L 73.151573 294.034676 
L 36.6675 294.034676 
z
" clip-path="url(#p2dde6506ae)" style="fill: #9ec5f4; stroke: #e1e0d9; stroke-width: 0.8; stroke-linejoin: miter"/>
   </g>
   <g id="patch_94">
    <path d="M 76.324102 269.828966 
L 112.808175 269.828966 
L 112.808175 294.034676 
L 76.324102 294.034676 
z
" clip-path="url(#p2dde6506ae)" style="fill: #9ec5f4; stroke: #e1e0d9; stroke-width: 0.8; stroke-linejoin: miter"/>
   </g>
   <g id="patch_95">
    <path d="M 115.980703 269.828966 
L 152.464777 269.828966 
L 152.464777 294.034676 
L 115.980703 294.034676 
z
" clip-path="url(#p2dde6506ae)" style="fill: #9ec5f4; stroke: #e1e0d9; stroke-width: 0.8; stroke-linejoin: miter"/>
   </g>
   <g id="patch_96">
    <path d="M 155.637305 269.828966 
L 192.121378 269.828966 
L 192.121378 294.034676 
L 155.637305 294.034676 
z
" clip-path="url(#p2dde6506ae)" style="fill: #9ec5f4; stroke: #e1e0d9; stroke-width: 0.8; stroke-linejoin: miter"/>
   </g>
   <g id="patch_97">
    <path d="M 195.293906 269.828966 
L 231.77798 269.828966 
L 231.77798 294.034676 
L 195.293906 294.034676 
z
" clip-path="url(#p2dde6506ae)" style="fill: #fcfcfb; stroke: #e1e0d9; stroke-width: 0.8; stroke-linejoin: miter"/>
   </g>
   <g id="patch_98">
    <path d="M 234.950508 269.828966 
L 271.434581 269.828966 
L 271.434581 294.034676 
L 234.950508 294.034676 
z
" clip-path="url(#p2dde6506ae)" style="fill: #9ec5f4; stroke: #e1e0d9; stroke-width: 0.8; stroke-linejoin: miter"/>
   </g>
   <g id="patch_99">
    <path d="M 274.607109 269.828966 
L 311.091183 269.828966 
L 311.091183 294.034676 
L 274.607109 294.034676 
z
" clip-path="url(#p2dde6506ae)" style="fill: #fcfcfb; stroke: #e1e0d9; stroke-width: 0.8; stroke-linejoin: miter"/>
   </g>
   <g id="patch_100">
    <path d="M 314.263711 269.828966 
L 350.747784 269.828966 
L 350.747784 294.034676 
L 314.263711 294.034676 
z
" clip-path="url(#p2dde6506ae)" style="fill: #eda100; stroke: #e1e0d9; stroke-width: 0.8; stroke-linejoin: miter"/>
   </g>
   <g id="patch_101">
    <path d="M 353.920313 269.828966 
L 390.404386 269.828966 
L 390.404386 294.034676 
L 353.920313 294.034676 
z
" clip-path="url(#p2dde6506ae)" style="fill: #fcfcfb; stroke: #e1e0d9; stroke-width: 0.8; stroke-linejoin: miter"/>
   </g>
   <g id="patch_102">
    <path d="M 393.576914 269.828966 
L 430.060988 269.828966 
L 430.060988 294.034676 
L 393.576914 294.034676 
z
" clip-path="url(#p2dde6506ae)" style="fill: #9ec5f4; stroke: #e1e0d9; stroke-width: 0.8; stroke-linejoin: miter"/>
   </g>
   <g id="matplotlib.axis_1">
    <g id="xtick_1">
     <g id="line2d_1"/>
     <g id="text_1">
      <!-- 3 -->
      <g style="fill: #52514e" transform="translate(52.417662 27.534473) scale(0.09 -0.09)">
       <defs>
        <path id="Cambria-375" d="M 497 3381 
L 497 3975 
Q 859 4147 1175 4231 
Q 1491 4316 1784 4316 
Q 2138 4316 2403 4206 
Q 2669 4097 2809 3892 
Q 2950 3688 2950 3403 
Q 2950 3138 2844 2936 
Q 2738 2734 2545 2584 
Q 2353 2434 2047 2291 
L 2047 2263 
Q 2238 2228 2414 2145 
Q 2591 2063 2728 1931 
Q 2866 1800 2948 1617 
Q 3031 1434 3031 1200 
Q 3031 838 2873 556 
Q 2716 275 2391 112 
Q 2066 -50 1600 -50 
Q 1331 -50 1020 11 
Q 709 72 450 172 
L 450 834 
L 825 834 
Q 934 509 1114 362 
Q 1294 216 1603 216 
Q 2009 216 2217 437 
Q 2425 659 2425 1094 
Q 2425 1550 2150 1790 
Q 1875 2031 1344 2031 
L 1063 2031 
L 1063 2306 
Q 1484 2331 1773 2468 
Q 2063 2606 2203 2822 
Q 2344 3038 2344 3306 
Q 2344 3653 2159 3840 
Q 1975 4028 1622 4028 
Q 1328 4028 1143 3868 
Q 959 3709 872 3381 
L 497 3381 
z
" transform="scale(0.015625)"/>
       </defs>
       <use xlink:href="#Cambria-375"/>
      </g>
     </g>
    </g>
    <g id="xtick_2">
     <g id="line2d_2"/>
     <g id="text_2">
      <!-- 4 -->
      <g style="fill: #52514e" transform="translate(92.074263 27.534473) scale(0.09 -0.09)">
       <defs>
        <path id="Cambria-376" d="M 1613 153 
Q 1806 203 1872 264 
Q 1938 325 1958 437 
Q 1978 550 1978 781 
L 1978 1294 
L 241 1294 
L 241 1528 
L 2069 4288 
L 2516 4288 
L 2516 1597 
L 2581 1597 
Q 2763 1597 2841 1623 
Q 2919 1650 2970 1717 
Q 3022 1784 3066 1938 
L 3303 1938 
L 3266 1294 
L 2516 1294 
L 2516 781 
Q 2516 572 2530 475 
Q 2544 378 2576 322 
Q 2609 266 2673 228 
Q 2738 191 2881 153 
L 2881 0 
L 1613 0 
L 1613 153 
z
M 756 1597 
L 1978 1597 
L 1978 2375 
Q 1978 2669 1987 3033 
Q 1997 3397 2009 3581 
L 1978 3581 
L 756 1641 
L 756 1597 
z
" transform="scale(0.015625)"/>
       </defs>
       <use xlink:href="#Cambria-376"/>
      </g>
     </g>
    </g>
    <g id="xtick_3">
     <g id="line2d_3"/>
     <g id="text_3">
      <!-- 5 -->
      <g style="fill: #52514e" transform="translate(131.730865 27.534473) scale(0.09 -0.09)">
       <defs>
        <path id="Cambria-377" d="M 469 172 
L 469 834 
L 847 834 
Q 941 516 1130 366 
Q 1319 216 1619 216 
Q 2034 216 2246 466 
Q 2459 716 2459 1213 
Q 2459 1544 2346 1761 
Q 2234 1978 2043 2075 
Q 1853 2172 1600 2172 
Q 1388 2172 1234 2145 
Q 1081 2119 906 2063 
L 656 2209 
L 656 4266 
L 2378 4266 
Q 2484 4266 2531 4283 
Q 2578 4300 2606 4336 
Q 2634 4372 2672 4472 
L 2916 4472 
L 2869 3747 
L 1072 3747 
L 1072 2375 
Q 1234 2444 1425 2478 
Q 1616 2513 1806 2513 
Q 2178 2513 2465 2361 
Q 2753 2209 2909 1929 
Q 3066 1650 3066 1281 
Q 3066 863 2891 563 
Q 2716 263 2384 106 
Q 2053 -50 1600 -50 
Q 1059 -50 469 172 
z
" transform="scale(0.015625)"/>
       </defs>
       <use xlink:href="#Cambria-377"/>
      </g>
     </g>
    </g>
    <g id="xtick_4">
     <g id="line2d_4"/>
     <g id="text_4">
      <!-- 6 -->
      <g style="fill: #52514e" transform="translate(171.387466 27.534473) scale(0.09 -0.09)">
       <defs>
        <path id="Cambria-378" d="M 2847 4144 
L 2847 3991 
Q 2366 3991 1994 3784 
Q 1622 3578 1376 3178 
Q 1131 2778 1031 2228 
L 1063 2216 
Q 1325 2403 1579 2490 
Q 1834 2578 2131 2578 
Q 2484 2578 2732 2423 
Q 2981 2269 3106 1989 
Q 3231 1709 3231 1334 
Q 3231 928 3075 617 
Q 2919 306 2592 128 
Q 2266 -50 1788 -50 
Q 1103 -50 754 375 
Q 406 800 406 1628 
Q 406 2184 581 2668 
Q 756 3153 1078 3514 
Q 1400 3875 1825 4083 
Q 2250 4291 2719 4316 
L 2847 4144 
z
M 1916 2250 
Q 1763 2250 1620 2215 
Q 1478 2181 1353 2115 
Q 1228 2050 1109 1950 
Q 1072 1916 1053 1878 
Q 1022 1819 1012 1731 
Q 1003 1644 1003 1438 
Q 1003 841 1203 528 
Q 1403 216 1809 216 
Q 2044 216 2203 297 
Q 2363 378 2461 520 
Q 2559 663 2601 855 
Q 2644 1047 2644 1272 
Q 2644 1734 2453 1992 
Q 2263 2250 1916 2250 
z
" transform="scale(0.015625)"/>
       </defs>
       <use xlink:href="#Cambria-378"/>
      </g>
     </g>
    </g>
    <g id="xtick_5">
     <g id="line2d_5"/>
     <g id="text_5">
      <!-- 7 -->
      <g style="fill: #52514e" transform="translate(211.044068 27.534473) scale(0.09 -0.09)">
       <defs>
        <path id="Cambria-379" d="M 3206 4116 
L 1388 -22 
L 934 -22 
L 934 131 
L 2619 3697 
L 2619 3744 
L 1244 3744 
Q 1116 3744 1039 3720 
Q 963 3697 911 3653 
Q 859 3609 825 3537 
Q 791 3466 731 3253 
L 463 3253 
L 525 4266 
L 3206 4266 
L 3206 4116 
z
" transform="scale(0.015625)"/>
       </defs>
       <use xlink:href="#Cambria-379"/>
      </g>
     </g>
    </g>
    <g id="xtick_6">
     <g id="line2d_6"/>
     <g id="text_6">
      <!-- 8 -->
      <g style="fill: #52514e" transform="translate(250.70067 27.534473) scale(0.09 -0.09)">
       <defs>
        <path id="Cambria-37a" d="M 2475 2253 
L 2481 2213 
Q 2834 2075 3015 1811 
Q 3197 1547 3197 1175 
Q 3197 809 3022 531 
Q 2847 253 2514 101 
Q 2181 -50 1738 -50 
Q 1322 -50 1008 89 
Q 694 228 520 495 
Q 347 763 347 1125 
Q 347 1397 440 1597 
Q 534 1797 686 1926 
Q 838 2056 1069 2163 
L 1063 2203 
Q 391 2494 391 3200 
Q 391 3522 567 3775 
Q 744 4028 1070 4172 
Q 1397 4316 1794 4316 
Q 2244 4316 2550 4189 
Q 2856 4063 3011 3823 
Q 3166 3584 3166 3250 
Q 3166 2906 2997 2657 
Q 2828 2409 2475 2253 
z
M 978 3228 
Q 978 3044 1022 2881 
Q 1066 2719 1162 2600 
Q 1259 2481 1414 2411 
Q 1569 2341 1794 2341 
Q 2053 2341 2229 2442 
Q 2406 2544 2492 2739 
Q 2578 2934 2578 3191 
Q 2578 3472 2476 3667 
Q 2375 3863 2197 3956 
Q 2019 4050 1788 4050 
Q 1394 4050 1186 3836 
Q 978 3622 978 3228 
z
M 944 1178 
Q 944 975 991 798 
Q 1038 622 1139 494 
Q 1241 366 1400 291 
Q 1559 216 1788 216 
Q 2044 216 2226 320 
Q 2409 425 2504 631 
Q 2600 838 2600 1119 
Q 2600 1419 2497 1636 
Q 2394 1853 2206 1967 
Q 2019 2081 1772 2081 
Q 1541 2081 1383 2009 
Q 1225 1938 1126 1816 
Q 1028 1694 986 1530 
Q 944 1366 944 1178 
z
" transform="scale(0.015625)"/>
       </defs>
       <use xlink:href="#Cambria-37a"/>
      </g>
     </g>
    </g>
    <g id="xtick_7">
     <g id="line2d_7"/>
     <g id="text_7">
      <!-- 9 -->
      <g style="fill: #52514e" transform="translate(290.357271 27.534473) scale(0.09 -0.09)">
       <defs>
        <path id="Cambria-37b" d="M 978 122 
L 978 275 
Q 1416 275 1736 469 
Q 2056 663 2251 1042 
Q 2447 1422 2513 2038 
L 2481 2050 
Q 2219 1863 1964 1775 
Q 1709 1688 1413 1688 
Q 1059 1688 811 1842 
Q 563 1997 438 2276 
Q 313 2556 313 2931 
Q 313 3213 406 3464 
Q 500 3716 684 3905 
Q 869 4094 1145 4205 
Q 1422 4316 1791 4316 
Q 2447 4316 2790 3862 
Q 3134 3409 3134 2559 
Q 3134 1781 2881 1211 
Q 2628 641 2172 323 
Q 1716 6 1106 -50 
L 978 122 
z
M 1628 2016 
Q 1747 2016 1855 2036 
Q 1963 2056 2066 2095 
Q 2169 2134 2267 2195 
Q 2366 2256 2444 2325 
Q 2472 2350 2494 2390 
Q 2516 2431 2528 2497 
Q 2541 2563 2541 2703 
Q 2541 3131 2455 3436 
Q 2369 3741 2192 3895 
Q 2016 4050 1756 4050 
Q 1522 4050 1359 3969 
Q 1197 3888 1095 3745 
Q 994 3603 947 3411 
Q 900 3219 900 2994 
Q 900 2528 1090 2272 
Q 1281 2016 1628 2016 
z
" transform="scale(0.015625)"/>
       </defs>
       <use xlink:href="#Cambria-37b"/>
      </g>
     </g>
    </g>
    <g id="xtick_8">
     <g id="line2d_8"/>
     <g id="text_8">
      <!-- 10 -->
      <g style="fill: #52514e" transform="translate(327.521998 27.534473) scale(0.09 -0.09)">
       <defs>
        <path id="Cambria-373" d="M 2172 816 
Q 2172 634 2192 542 
Q 2213 450 2264 392 
Q 2316 334 2412 301 
Q 2509 269 2656 251 
Q 2803 234 3044 228 
L 3044 0 
L 734 0 
L 734 228 
Q 1081 244 1229 270 
Q 1378 297 1456 350 
Q 1534 403 1570 500 
Q 1606 597 1606 816 
L 1606 3350 
Q 1606 3475 1562 3533 
Q 1519 3591 1434 3591 
Q 1334 3591 1150 3487 
Q 966 3384 694 3203 
L 556 3444 
L 2019 4316 
L 2191 4316 
Q 2172 4016 2172 3484 
L 2172 816 
z
" transform="scale(0.015625)"/>
        <path id="Cambria-372" d="M 1738 -50 
Q 1063 -50 733 481 
Q 403 1013 403 2094 
Q 403 2669 504 3087 
Q 606 3506 789 3779 
Q 972 4053 1228 4184 
Q 1484 4316 1788 4316 
Q 2472 4316 2806 3787 
Q 3141 3259 3141 2191 
Q 3141 1084 2783 517 
Q 2425 -50 1738 -50 
z
M 1013 2188 
Q 1013 1169 1202 692 
Q 1391 216 1788 216 
Q 2166 216 2348 664 
Q 2531 1113 2531 2053 
Q 2531 2772 2437 3217 
Q 2344 3663 2176 3856 
Q 2009 4050 1772 4050 
Q 1556 4050 1411 3922 
Q 1266 3794 1177 3553 
Q 1088 3313 1050 2967 
Q 1013 2622 1013 2188 
z
" transform="scale(0.015625)"/>
       </defs>
       <use xlink:href="#Cambria-373"/>
       <use xlink:href="#Cambria-372" transform="translate(55.375 0)"/>
      </g>
     </g>
    </g>
    <g id="xtick_9">
     <g id="line2d_9"/>
     <g id="text_9">
      <!-- 11 -->
      <g style="fill: #52514e" transform="translate(367.178599 27.534473) scale(0.09 -0.09)">
       <use xlink:href="#Cambria-373"/>
       <use xlink:href="#Cambria-373" transform="translate(55.375 0)"/>
      </g>
     </g>
    </g>
    <g id="xtick_10">
     <g id="line2d_10"/>
     <g id="text_10">
      <!-- 12 -->
      <g style="fill: #52514e" transform="translate(406.835201 27.534473) scale(0.09 -0.09)">
       <defs>
        <path id="Cambria-374" d="M 2194 500 
Q 2347 500 2440 519 
Q 2534 538 2590 581 
Q 2647 625 2680 695 
Q 2713 766 2763 913 
L 3028 913 
L 2975 0 
L 403 0 
L 403 150 
Q 538 478 766 822 
Q 994 1166 1413 1631 
Q 1775 2031 1934 2238 
Q 2109 2463 2195 2627 
Q 2281 2791 2318 2936 
Q 2356 3081 2356 3228 
Q 2356 3463 2281 3642 
Q 2206 3822 2051 3925 
Q 1897 4028 1663 4028 
Q 1078 4028 875 3378 
L 497 3378 
L 497 3978 
Q 875 4156 1204 4236 
Q 1534 4316 1797 4316 
Q 2378 4316 2675 4061 
Q 2972 3806 2972 3322 
Q 2972 3156 2939 3017 
Q 2906 2878 2836 2742 
Q 2766 2606 2647 2450 
Q 2528 2294 2384 2133 
Q 2241 1972 1888 1597 
Q 1294 969 1016 500 
L 2194 500 
z
" transform="scale(0.015625)"/>
       </defs>
       <use xlink:href="#Cambria-373"/>
       <use xlink:href="#Cambria-374" transform="translate(55.375 0)"/>
      </g>
     </g>
    </g>
    <g id="text_11">
     <!-- exact embedding degree $k_2$ -->
     <g style="fill: #0b0b0b" transform="translate(165.650508 16.533984) scale(0.12 -0.12)">
      <defs>
       <path id="Cambria-87" d="M 2800 531 
Q 2600 322 2433 203 
Q 2266 84 2066 17 
Q 1866 -50 1625 -50 
Q 981 -50 653 336 
Q 325 722 325 1475 
Q 325 1941 492 2297 
Q 659 2653 968 2847 
Q 1278 3041 1681 3041 
Q 1997 3041 2219 2941 
Q 2441 2841 2573 2667 
Q 2706 2494 2779 2230 
Q 2853 1966 2863 1541 
L 894 1541 
L 894 1484 
Q 894 1116 976 864 
Q 1059 613 1248 470 
Q 1438 328 1741 328 
Q 1997 328 2201 423 
Q 2406 519 2609 734 
L 2800 531 
z
M 2275 1800 
Q 2256 2138 2190 2352 
Q 2125 2566 1994 2680 
Q 1863 2794 1650 2794 
Q 1328 2794 1136 2536 
Q 944 2278 909 1800 
L 2275 1800 
z
" transform="scale(0.015625)"/>
       <path id="Cambria-9a" d="M 1625 1803 
L 2031 2319 
Q 2097 2403 2137 2483 
Q 2178 2563 2178 2647 
Q 2178 2719 2125 2766 
Q 2072 2813 1959 2834 
L 1959 2988 
L 2981 2988 
L 2981 2834 
Q 2863 2800 2739 2700 
Q 2616 2600 2438 2378 
L 1791 1584 
L 2503 625 
Q 2656 419 2778 309 
Q 2900 200 3022 153 
L 3022 0 
L 1766 0 
L 1766 153 
Q 2025 184 2025 347 
Q 2025 413 2003 472 
Q 1981 531 1922 609 
L 1469 1241 
L 988 616 
Q 934 547 904 489 
Q 875 431 875 359 
Q 875 275 933 220 
Q 991 166 1116 153 
L 1116 0 
L 72 0 
L 72 153 
Q 175 191 258 247 
Q 341 303 427 392 
Q 513 481 653 653 
L 1303 1459 
L 638 2372 
Q 500 2559 419 2643 
Q 338 2728 269 2772 
Q 200 2816 131 2834 
L 131 2988 
L 1356 2988 
L 1356 2834 
Q 1109 2797 1109 2641 
Q 1109 2569 1142 2497 
Q 1175 2425 1244 2338 
L 1625 1803 
z
" transform="scale(0.015625)"/>
       <path id="Cambria-83" d="M 2109 447 
L 2063 459 
Q 1791 181 1552 65 
Q 1313 -50 1044 -50 
Q 806 -50 625 42 
Q 444 134 347 301 
Q 250 469 250 688 
Q 250 1144 701 1392 
Q 1153 1641 2056 1681 
L 2056 1884 
Q 2056 2209 1993 2396 
Q 1931 2584 1797 2671 
Q 1663 2759 1438 2759 
Q 1194 2759 1045 2631 
Q 897 2503 822 2247 
L 413 2247 
L 413 2653 
Q 713 2809 913 2882 
Q 1113 2956 1313 2998 
Q 1513 3041 1719 3041 
Q 2028 3041 2215 2942 
Q 2403 2844 2497 2641 
Q 2591 2438 2591 2028 
L 2591 941 
Q 2591 709 2594 614 
Q 2597 519 2612 437 
Q 2628 356 2659 307 
Q 2691 259 2752 225 
Q 2813 191 2950 153 
L 2950 0 
L 2094 0 
L 2109 447 
z
M 2056 1425 
Q 1422 1419 1106 1256 
Q 791 1094 791 766 
Q 791 588 862 484 
Q 934 381 1043 342 
Q 1153 303 1303 303 
Q 1516 303 1689 406 
Q 1863 509 1959 668 
Q 2056 828 2056 984 
L 2056 1425 
z
" transform="scale(0.015625)"/>
       <path id="Cambria-85" d="M 2631 2916 
L 2631 2263 
L 2234 2263 
Q 2181 2466 2103 2583 
Q 2025 2700 1922 2747 
Q 1819 2794 1666 2794 
Q 1447 2794 1278 2653 
Q 1109 2513 1011 2225 
Q 913 1938 913 1522 
Q 913 1256 950 1036 
Q 988 816 1078 659 
Q 1169 503 1319 415 
Q 1469 328 1691 328 
Q 1906 328 2092 412 
Q 2278 497 2478 709 
L 2656 503 
Q 2497 328 2375 233 
Q 2253 138 2114 73 
Q 1975 9 1839 -20 
Q 1703 -50 1544 -50 
Q 953 -50 640 342 
Q 328 734 328 1475 
Q 328 1938 503 2295 
Q 678 2653 993 2847 
Q 1309 3041 1722 3041 
Q 1978 3041 2195 3011 
Q 2413 2981 2631 2916 
z
" transform="scale(0.015625)"/>
       <path id="Cambria-96" d="M 116 2831 
Q 272 2856 369 2918 
Q 466 2981 520 3079 
Q 575 3178 606 3326 
Q 638 3475 672 3759 
L 1116 3759 
L 1116 2988 
L 2125 2988 
L 2125 2672 
L 1116 2672 
L 1116 1281 
Q 1116 978 1141 798 
Q 1166 619 1234 517 
Q 1303 416 1390 372 
Q 1478 328 1616 328 
Q 1741 328 1850 379 
Q 1959 431 2066 528 
L 2206 359 
Q 1984 144 1786 47 
Q 1588 -50 1375 -50 
Q 972 -50 775 189 
Q 578 428 578 938 
L 578 2672 
L 116 2672 
L 116 2831 
z
" transform="scale(0.015625)"/>
       <path id="Cambria-3" transform="scale(0.015625)"/>
       <path id="Cambria-8f" d="M 1147 2506 
L 1191 2494 
Q 1378 2681 1498 2776 
Q 1619 2872 1731 2930 
Q 1844 2988 1942 3013 
Q 2041 3038 2144 3038 
Q 2456 3038 2653 2894 
Q 2850 2750 2925 2453 
Q 3159 2691 3304 2803 
Q 3450 2916 3601 2977 
Q 3753 3038 3928 3038 
Q 4138 3038 4289 2977 
Q 4441 2916 4545 2789 
Q 4650 2663 4698 2472 
Q 4747 2281 4747 1959 
L 4747 781 
Q 4747 544 4762 453 
Q 4778 363 4808 313 
Q 4838 263 4897 227 
Q 4956 191 5097 153 
L 5097 0 
L 3869 0 
L 3869 153 
Q 3991 191 4044 219 
Q 4097 247 4133 297 
Q 4169 347 4189 451 
Q 4209 556 4209 769 
L 4209 1588 
Q 4209 1853 4195 2026 
Q 4181 2200 4151 2303 
Q 4122 2406 4080 2465 
Q 4038 2525 3984 2569 
Q 3931 2613 3859 2638 
Q 3788 2663 3669 2663 
Q 3544 2663 3436 2613 
Q 3328 2563 3201 2444 
Q 3075 2325 3019 2204 
Q 2963 2084 2963 1922 
L 2963 781 
Q 2963 544 2978 453 
Q 2994 363 3023 313 
Q 3053 263 3112 227 
Q 3172 191 3313 153 
L 3313 0 
L 2084 0 
L 2084 153 
Q 2206 191 2259 219 
Q 2313 247 2348 297 
Q 2384 347 2404 451 
Q 2425 556 2425 769 
L 2425 1588 
Q 2425 1866 2409 2041 
Q 2394 2216 2361 2322 
Q 2328 2428 2276 2493 
Q 2225 2559 2172 2593 
Q 2119 2628 2047 2645 
Q 1975 2663 1884 2663 
Q 1756 2663 1643 2605 
Q 1531 2547 1414 2437 
Q 1297 2328 1237 2209 
Q 1178 2091 1178 1953 
L 1178 781 
Q 1178 603 1187 509 
Q 1197 416 1217 362 
Q 1238 309 1269 276 
Q 1300 244 1358 214 
Q 1416 184 1531 153 
L 1531 0 
L 306 0 
L 306 153 
Q 425 191 476 219 
Q 528 247 565 297 
Q 603 347 622 450 
Q 641 553 641 772 
L 641 2134 
Q 641 2334 634 2456 
Q 628 2578 590 2651 
Q 553 2725 476 2761 
Q 400 2797 259 2822 
L 259 2988 
L 991 3016 
L 1181 3016 
L 1147 2506 
z
" transform="scale(0.015625)"/>
       <path id="Cambria-84" d="M 1091 2497 
L 1103 2494 
Q 1322 2722 1467 2825 
Q 1613 2928 1767 2983 
Q 1922 3038 2106 3038 
Q 2441 3038 2680 2867 
Q 2919 2697 3048 2356 
Q 3178 2016 3178 1522 
Q 3178 1013 3023 661 
Q 2869 309 2567 129 
Q 2266 -50 1853 -50 
Q 1622 -50 1417 -8 
Q 1213 34 988 141 
L 769 -50 
L 553 0 
L 553 3397 
Q 553 3697 548 3815 
Q 544 3934 523 4017 
Q 503 4100 467 4147 
Q 431 4194 370 4222 
Q 309 4250 150 4278 
L 150 4441 
L 906 4472 
L 1091 4472 
L 1091 2497 
z
M 1091 1125 
Q 1091 884 1112 742 
Q 1134 600 1186 506 
Q 1238 413 1336 334 
Q 1434 256 1556 226 
Q 1678 197 1828 197 
Q 2203 197 2397 503 
Q 2591 809 2591 1422 
Q 2591 2041 2414 2352 
Q 2238 2663 1881 2663 
Q 1703 2663 1578 2608 
Q 1453 2553 1329 2437 
Q 1206 2322 1148 2209 
Q 1091 2097 1091 1953 
L 1091 1125 
z
" transform="scale(0.015625)"/>
       <path id="Cambria-86" d="M 2413 3397 
Q 2413 3697 2408 3815 
Q 2403 3934 2383 4017 
Q 2363 4100 2327 4147 
Q 2291 4194 2230 4222 
Q 2169 4250 2009 4278 
L 2009 4441 
L 2766 4472 
L 2950 4472 
L 2950 853 
Q 2950 609 2959 504 
Q 2969 400 3000 337 
Q 3031 275 3098 236 
Q 3166 197 3334 163 
L 3334 0 
L 2597 -31 
L 2409 -31 
L 2447 481 
L 2400 494 
Q 2203 284 2058 179 
Q 1913 75 1748 12 
Q 1584 -50 1397 -50 
Q 884 -50 606 339 
Q 328 728 328 1463 
Q 328 1975 509 2333 
Q 691 2691 998 2866 
Q 1306 3041 1691 3041 
Q 1897 3041 2065 3008 
Q 2234 2975 2413 2900 
L 2413 3397 
z
M 2413 1853 
Q 2413 2097 2391 2244 
Q 2369 2391 2317 2491 
Q 2266 2591 2178 2659 
Q 2091 2728 1986 2759 
Q 1881 2791 1734 2791 
Q 1334 2791 1125 2470 
Q 916 2150 916 1550 
Q 916 950 1087 637 
Q 1259 325 1609 325 
Q 1747 325 1837 348 
Q 1928 372 2015 423 
Q 2103 475 2193 565 
Q 2284 656 2326 731 
Q 2369 806 2391 903 
Q 2413 1000 2413 1153 
L 2413 1853 
z
" transform="scale(0.015625)"/>
       <path id="Cambria-8b" d="M 1197 4213 
L 1197 3606 
L 622 3606 
L 622 4213 
L 1197 4213 
z
M 303 153 
Q 425 191 476 219 
Q 528 247 564 297 
Q 600 347 620 450 
Q 641 553 641 772 
L 641 2134 
Q 641 2334 634 2456 
Q 628 2578 590 2651 
Q 553 2725 476 2761 
Q 400 2797 259 2822 
L 259 2988 
L 988 3016 
L 1178 3016 
L 1178 781 
Q 1178 513 1203 408 
Q 1228 303 1298 248 
Q 1369 194 1528 153 
L 1528 0 
L 303 0 
L 303 153 
z
" transform="scale(0.015625)"/>
       <path id="Cambria-90" d="M 3347 0 
L 2116 0 
L 2116 153 
Q 2238 191 2291 219 
Q 2344 247 2380 297 
Q 2416 347 2436 451 
Q 2456 556 2456 769 
L 2456 1588 
Q 2456 1806 2443 1984 
Q 2431 2163 2401 2277 
Q 2372 2391 2330 2455 
Q 2288 2519 2230 2564 
Q 2172 2609 2097 2636 
Q 2022 2663 1900 2663 
Q 1778 2663 1668 2614 
Q 1559 2566 1428 2447 
Q 1297 2328 1237 2212 
Q 1178 2097 1178 1947 
L 1178 781 
Q 1178 513 1203 408 
Q 1228 303 1298 248 
Q 1369 194 1528 153 
L 1528 0 
L 303 0 
L 303 153 
Q 425 191 476 219 
Q 528 247 564 297 
Q 600 347 620 450 
Q 641 553 641 772 
L 641 2134 
Q 641 2334 634 2456 
Q 628 2578 590 2651 
Q 553 2725 476 2761 
Q 400 2797 259 2822 
L 259 2988 
L 991 3016 
L 1181 3016 
L 1147 2506 
L 1191 2494 
Q 1422 2728 1564 2828 
Q 1706 2928 1851 2983 
Q 1997 3038 2159 3038 
Q 2328 3038 2461 2998 
Q 2594 2959 2695 2878 
Q 2797 2797 2862 2676 
Q 2928 2556 2961 2387 
Q 2994 2219 2994 1959 
L 2994 781 
Q 2994 566 3006 469 
Q 3019 372 3050 319 
Q 3081 266 3140 230 
Q 3200 194 3347 153 
L 3347 0 
z
" transform="scale(0.015625)"/>
       <path id="Cambria-89" d="M 3106 2672 
L 2528 2694 
L 2500 2659 
Q 2597 2563 2653 2395 
Q 2709 2228 2709 2034 
Q 2709 1525 2395 1248 
Q 2081 972 1503 972 
Q 1244 972 1056 1038 
Q 819 856 819 681 
Q 819 566 864 506 
Q 909 447 1014 422 
Q 1119 397 1331 397 
L 2081 397 
Q 2413 397 2622 294 
Q 2831 191 2920 17 
Q 3009 -156 3009 -388 
Q 3009 -681 2840 -911 
Q 2672 -1141 2353 -1269 
Q 2034 -1397 1609 -1397 
Q 1294 -1397 1033 -1359 
Q 772 -1322 586 -1233 
Q 400 -1144 298 -998 
Q 197 -853 197 -634 
Q 197 -438 328 -277 
Q 459 -116 700 6 
Q 553 66 468 181 
Q 384 297 384 453 
Q 384 631 484 779 
Q 584 928 838 1119 
Q 613 1250 495 1475 
Q 378 1700 378 1988 
Q 378 2256 467 2454 
Q 556 2653 714 2783 
Q 872 2913 1087 2977 
Q 1303 3041 1553 3041 
Q 1778 3041 2000 2988 
L 3106 2988 
L 3106 2672 
z
M 938 2038 
Q 938 1647 1097 1434 
Q 1256 1222 1556 1222 
Q 1716 1222 1828 1283 
Q 1941 1344 2011 1450 
Q 2081 1556 2114 1695 
Q 2147 1834 2147 1988 
Q 2147 2263 2069 2447 
Q 1991 2631 1856 2717 
Q 1722 2803 1547 2803 
Q 1250 2803 1094 2606 
Q 938 2409 938 2038 
z
M 1016 -50 
Q 856 -169 776 -301 
Q 697 -434 697 -603 
Q 697 -884 920 -1017 
Q 1144 -1150 1603 -1150 
Q 1884 -1150 2086 -1075 
Q 2288 -1000 2394 -859 
Q 2500 -719 2500 -531 
Q 2500 -444 2478 -361 
Q 2456 -278 2395 -212 
Q 2334 -147 2221 -108 
Q 2109 -69 1928 -69 
L 1463 -69 
Q 1209 -69 1016 -50 
z
" transform="scale(0.015625)"/>
       <path id="Cambria-94" d="M 1147 2469 
L 1191 2459 
Q 1363 2669 1509 2789 
Q 1656 2909 1826 2975 
Q 1997 3041 2213 3041 
Q 2394 3041 2541 3022 
L 2541 2303 
L 2188 2303 
Q 2113 2472 2028 2548 
Q 1944 2625 1797 2625 
Q 1684 2625 1573 2559 
Q 1463 2494 1359 2369 
Q 1256 2244 1217 2134 
Q 1178 2025 1178 1875 
L 1178 781 
Q 1178 497 1212 389 
Q 1247 281 1326 231 
Q 1406 181 1566 153 
L 1566 0 
L 306 0 
L 306 153 
Q 425 191 476 219 
Q 528 247 565 297 
Q 603 347 622 450 
Q 641 553 641 772 
L 641 2134 
Q 641 2334 634 2456 
Q 628 2578 590 2651 
Q 553 2725 476 2761 
Q 400 2797 259 2822 
L 259 2984 
L 991 3016 
L 1181 3016 
L 1147 2469 
z
" transform="scale(0.015625)"/>
       <path id="Cmmi10-3e" d="M 341 116 
Q 341 153 347 172 
L 1275 3872 
Q 1300 3981 1306 4044 
Q 1306 4147 891 4147 
Q 825 4147 825 4231 
Q 828 4247 839 4287 
Q 850 4328 867 4350 
Q 884 4372 916 4372 
L 1778 4441 
L 1797 4441 
Q 1797 4434 1819 4423 
Q 1841 4413 1844 4409 
Q 1856 4378 1856 4359 
L 1184 1684 
Q 1416 1781 1767 2145 
Q 2119 2509 2317 2668 
Q 2516 2828 2816 2828 
Q 2994 2828 3119 2706 
Q 3244 2584 3244 2406 
Q 3244 2294 3197 2198 
Q 3150 2103 3065 2043 
Q 2981 1984 2869 1984 
Q 2766 1984 2695 2048 
Q 2625 2113 2625 2216 
Q 2625 2369 2733 2473 
Q 2841 2578 2994 2578 
Q 2931 2663 2803 2663 
Q 2613 2663 2436 2553 
Q 2259 2444 2054 2239 
Q 1850 2034 1681 1864 
Q 1513 1694 1369 1606 
Q 1747 1563 2025 1408 
Q 2303 1253 2303 934 
Q 2303 869 2278 769 
Q 2222 528 2222 384 
Q 2222 97 2419 97 
Q 2650 97 2770 350 
Q 2891 603 2969 941 
Q 2981 978 3022 978 
L 3097 978 
Q 3122 978 3139 962 
Q 3156 947 3156 922 
Q 3156 916 3150 903 
Q 2909 -72 2406 -72 
Q 2225 -72 2086 12 
Q 1947 97 1872 242 
Q 1797 388 1797 569 
Q 1797 672 1825 781 
Q 1844 856 1844 922 
Q 1844 1169 1625 1297 
Q 1406 1425 1125 1453 
L 800 147 
Q 775 50 703 -11 
Q 631 -72 538 -72 
Q 456 -72 398 -17 
Q 341 38 341 116 
z
" transform="scale(0.015625)"/>
       <path id="Cmr10-31" d="M 319 0 
L 319 172 
Q 319 188 331 206 
L 1325 1306 
Q 1550 1550 1690 1715 
Q 1831 1881 1968 2097 
Q 2106 2313 2186 2536 
Q 2266 2759 2266 3009 
Q 2266 3272 2169 3511 
Q 2072 3750 1880 3894 
Q 1688 4038 1416 4038 
Q 1138 4038 916 3870 
Q 694 3703 603 3438 
Q 628 3444 672 3444 
Q 816 3444 917 3347 
Q 1019 3250 1019 3097 
Q 1019 2950 917 2848 
Q 816 2747 672 2747 
Q 522 2747 420 2851 
Q 319 2956 319 3097 
Q 319 3338 409 3548 
Q 500 3759 670 3923 
Q 841 4088 1055 4175 
Q 1269 4263 1509 4263 
Q 1875 4263 2190 4108 
Q 2506 3953 2690 3670 
Q 2875 3388 2875 3009 
Q 2875 2731 2753 2481 
Q 2631 2231 2440 2026 
Q 2250 1822 1953 1562 
Q 1656 1303 1563 1216 
L 838 519 
L 1453 519 
Q 1906 519 2211 526 
Q 2516 534 2534 550 
Q 2609 631 2688 1141 
L 2875 1141 
L 2694 0 
L 319 0 
z
" transform="scale(0.015625)"/>
      </defs>
      <use xlink:href="#Cambria-87" transform="translate(0 0.125)"/>
      <use xlink:href="#Cambria-9a" transform="translate(48.779297 0.125)"/>
      <use xlink:href="#Cambria-83" transform="translate(97.119141 0.125)"/>
      <use xlink:href="#Cambria-85" transform="translate(145.947266 0.125)"/>
      <use xlink:href="#Cambria-96" transform="translate(190.039062 0.125)"/>
      <use xlink:href="#Cambria-3" transform="translate(223.876953 0.125)"/>
      <use xlink:href="#Cambria-87" transform="translate(245.898438 0.125)"/>
      <use xlink:href="#Cambria-8f" transform="translate(294.677734 0.125)"/>
      <use xlink:href="#Cambria-84" transform="translate(377.880859 0.125)"/>
      <use xlink:href="#Cambria-87" transform="translate(432.617188 0.125)"/>
      <use xlink:href="#Cambria-86" transform="translate(481.396484 0.125)"/>
      <use xlink:href="#Cambria-86" transform="translate(536.865234 0.125)"/>
      <use xlink:href="#Cambria-8b" transform="translate(592.333984 0.125)"/>
      <use xlink:href="#Cambria-90" transform="translate(620.117188 0.125)"/>
      <use xlink:href="#Cambria-89" transform="translate(675.927734 0.125)"/>
      <use xlink:href="#Cambria-3" transform="translate(725.341797 0.125)"/>
      <use xlink:href="#Cambria-86" transform="translate(747.363281 0.125)"/>
      <use xlink:href="#Cambria-87" transform="translate(802.832031 0.125)"/>
      <use xlink:href="#Cambria-89" transform="translate(851.611328 0.125)"/>
      <use xlink:href="#Cambria-94" transform="translate(901.025391 0.125)"/>
      <use xlink:href="#Cambria-87" transform="translate(942.382812 0.125)"/>
      <use xlink:href="#Cambria-87" transform="translate(991.162109 0.125)"/>
      <use xlink:href="#Cambria-3" transform="translate(1039.941406 0.125)"/>
      <use xlink:href="#Cmmi10-3e" transform="translate(1061.962891 0.125)"/>
      <use xlink:href="#Cmr10-31" transform="translate(1113.964844 -14.874962) scale(0.7)"/>
     </g>
    </g>
   </g>
   <g id="matplotlib.axis_2">
    <g id="ytick_1">
     <g id="line2d_11"/>
     <g id="text_12">
      <!-- 3 -->
      <g style="fill: #52514e" transform="translate(28.18375 48.637083) scale(0.09 -0.09)">
       <use xlink:href="#Cambria-375"/>
      </g>
     </g>
    </g>
    <g id="ytick_2">
     <g id="line2d_12"/>
     <g id="text_13">
      <!-- 4 -->
      <g style="fill: #52514e" transform="translate(28.18375 74.947637) scale(0.09 -0.09)">
       <use xlink:href="#Cambria-376"/>
      </g>
     </g>
    </g>
    <g id="ytick_3">
     <g id="line2d_13"/>
     <g id="text_14">
      <!-- 5 -->
      <g style="fill: #52514e" transform="translate(28.18375 101.25819) scale(0.09 -0.09)">
       <use xlink:href="#Cambria-377"/>
      </g>
     </g>
    </g>
    <g id="ytick_4">
     <g id="line2d_14"/>
     <g id="text_15">
      <!-- 6 -->
      <g style="fill: #52514e" transform="translate(28.18375 127.568744) scale(0.09 -0.09)">
       <use xlink:href="#Cambria-378"/>
      </g>
     </g>
    </g>
    <g id="ytick_5">
     <g id="line2d_15"/>
     <g id="text_16">
      <!-- 7 -->
      <g style="fill: #52514e" transform="translate(28.18375 153.879297) scale(0.09 -0.09)">
       <use xlink:href="#Cambria-379"/>
      </g>
     </g>
    </g>
    <g id="ytick_6">
     <g id="line2d_16"/>
     <g id="text_17">
      <!-- 8 -->
      <g style="fill: #52514e" transform="translate(28.18375 180.189851) scale(0.09 -0.09)">
       <use xlink:href="#Cambria-37a"/>
      </g>
     </g>
    </g>
    <g id="ytick_7">
     <g id="line2d_17"/>
     <g id="text_18">
      <!-- 9 -->
      <g style="fill: #52514e" transform="translate(28.18375 206.500405) scale(0.09 -0.09)">
       <use xlink:href="#Cambria-37b"/>
      </g>
     </g>
    </g>
    <g id="ytick_8">
     <g id="line2d_18"/>
     <g id="text_19">
      <!-- 10 -->
      <g style="fill: #52514e" transform="translate(23.2 232.810958) scale(0.09 -0.09)">
       <use xlink:href="#Cambria-373"/>
       <use xlink:href="#Cambria-372" transform="translate(55.375 0)"/>
      </g>
     </g>
    </g>
    <g id="ytick_9">
     <g id="line2d_19"/>
     <g id="text_20">
      <!-- 11 -->
      <g style="fill: #52514e" transform="translate(23.2 259.121512) scale(0.09 -0.09)">
       <use xlink:href="#Cambria-373"/>
       <use xlink:href="#Cambria-373" transform="translate(55.375 0)"/>
      </g>
     </g>
    </g>
    <g id="ytick_10">
     <g id="line2d_20"/>
     <g id="text_21">
      <!-- 12 -->
      <g style="fill: #52514e" transform="translate(23.2 285.432065) scale(0.09 -0.09)">
       <use xlink:href="#Cambria-373"/>
       <use xlink:href="#Cambria-374" transform="translate(55.375 0)"/>
      </g>
     </g>
    </g>
    <g id="text_22">
     <!-- exact embedding degree $k_1$ -->
     <g style="fill: #0b0b0b" transform="translate(16.533984 233.886752) rotate(-90) scale(0.12 -0.12)">
      <defs>
       <path id="Cmr10-64" d="M 594 0 
L 594 225 
Q 1394 225 1394 428 
L 1394 3788 
Q 1063 3628 556 3628 
L 556 3853 
Q 1341 3853 1741 4263 
L 1831 4263 
Q 1853 4263 1873 4245 
Q 1894 4228 1894 4206 
L 1894 428 
Q 1894 225 2694 225 
L 2694 0 
L 594 0 
z
" transform="scale(0.015625)"/>
      </defs>
      <use xlink:href="#Cambria-87" transform="translate(0 0.125)"/>
      <use xlink:href="#Cambria-9a" transform="translate(48.779297 0.125)"/>
      <use xlink:href="#Cambria-83" transform="translate(97.119141 0.125)"/>
      <use xlink:href="#Cambria-85" transform="translate(145.947266 0.125)"/>
      <use xlink:href="#Cambria-96" transform="translate(190.039062 0.125)"/>
      <use xlink:href="#Cambria-3" transform="translate(223.876953 0.125)"/>
      <use xlink:href="#Cambria-87" transform="translate(245.898438 0.125)"/>
      <use xlink:href="#Cambria-8f" transform="translate(294.677734 0.125)"/>
      <use xlink:href="#Cambria-84" transform="translate(377.880859 0.125)"/>
      <use xlink:href="#Cambria-87" transform="translate(432.617188 0.125)"/>
      <use xlink:href="#Cambria-86" transform="translate(481.396484 0.125)"/>
      <use xlink:href="#Cambria-86" transform="translate(536.865234 0.125)"/>
      <use xlink:href="#Cambria-8b" transform="translate(592.333984 0.125)"/>
      <use xlink:href="#Cambria-90" transform="translate(620.117188 0.125)"/>
      <use xlink:href="#Cambria-89" transform="translate(675.927734 0.125)"/>
      <use xlink:href="#Cambria-3" transform="translate(725.341797 0.125)"/>
      <use xlink:href="#Cambria-86" transform="translate(747.363281 0.125)"/>
      <use xlink:href="#Cambria-87" transform="translate(802.832031 0.125)"/>
      <use xlink:href="#Cambria-89" transform="translate(851.611328 0.125)"/>
      <use xlink:href="#Cambria-94" transform="translate(901.025391 0.125)"/>
      <use xlink:href="#Cambria-87" transform="translate(942.382812 0.125)"/>
      <use xlink:href="#Cambria-87" transform="translate(991.162109 0.125)"/>
      <use xlink:href="#Cambria-3" transform="translate(1039.941406 0.125)"/>
      <use xlink:href="#Cmmi10-3e" transform="translate(1061.962891 0.125)"/>
      <use xlink:href="#Cmr10-64" transform="translate(1113.964844 -14.874962) scale(0.7)"/>
     </g>
    </g>
   </g>
   <g id="text_23">
    <!-- MNT -->
    <g style="fill: #fcfcfb" transform="translate(165.869998 73.50335) scale(0.074 -0.074)">
     <defs>
      <path id="Cambria-Bold-10" d="M 5113 4059 
Q 4947 4013 4887 3958 
Q 4828 3903 4804 3811 
Q 4781 3719 4781 3484 
L 4781 781 
Q 4781 591 4800 480 
Q 4819 369 4876 311 
Q 4934 253 5113 206 
L 5113 0 
L 3509 0 
L 3509 206 
Q 3647 244 3700 272 
Q 3753 300 3783 345 
Q 3813 391 3827 483 
Q 3841 575 3841 788 
L 3841 2319 
Q 3841 2572 3850 2915 
Q 3859 3259 3869 3403 
L 3803 3403 
Q 3766 3278 3723 3158 
Q 3681 3038 3566 2728 
L 2728 472 
L 2178 472 
L 1297 3006 
Q 1219 3222 1159 3434 
L 1103 3434 
Q 1134 2919 1134 2216 
L 1134 778 
Q 1134 547 1156 456 
Q 1178 366 1243 306 
Q 1309 247 1472 206 
L 1472 0 
L 291 0 
L 291 206 
Q 406 238 473 275 
Q 541 313 575 375 
Q 609 438 617 534 
Q 625 631 625 781 
L 625 3484 
Q 625 3722 604 3809 
Q 584 3897 525 3953 
Q 466 4009 291 4059 
L 291 4266 
L 1844 4266 
L 2709 1700 
L 3647 4266 
L 5113 4266 
L 5113 4059 
z
" transform="scale(0.015625)"/>
      <path id="Cambria-Bold-11" d="M 4088 4266 
L 4088 4059 
Q 3963 4019 3911 3991 
Q 3859 3963 3823 3916 
Q 3788 3869 3769 3773 
Q 3750 3678 3750 3481 
L 3750 0 
L 2956 0 
L 1550 2431 
Q 1266 2925 1131 3206 
L 1103 3206 
Q 1134 2534 1134 1788 
L 1134 781 
Q 1134 547 1157 453 
Q 1181 359 1242 304 
Q 1303 250 1472 206 
L 1472 0 
L 291 0 
L 291 206 
Q 406 238 473 275 
Q 541 313 573 377 
Q 606 441 615 537 
Q 625 634 625 781 
L 625 3484 
Q 625 3719 604 3808 
Q 584 3897 520 3956 
Q 456 4016 291 4059 
L 291 4266 
L 1556 4266 
L 2663 2344 
Q 2766 2163 2931 1853 
Q 3097 1544 3225 1269 
L 3275 1269 
Q 3241 2016 3241 2900 
L 3241 3481 
Q 3241 3684 3225 3775 
Q 3209 3866 3176 3912 
Q 3144 3959 3089 3990 
Q 3034 4022 2906 4059 
L 2906 4266 
L 4088 4266 
z
" transform="scale(0.015625)"/>
      <path id="Cambria-Bold-17" d="M 1184 0 
L 1184 206 
Q 1316 228 1392 264 
Q 1469 300 1506 365 
Q 1544 431 1553 532 
Q 1563 634 1563 784 
L 1563 3900 
L 1309 3900 
Q 1122 3900 1022 3856 
Q 922 3813 848 3719 
Q 775 3625 722 3467 
Q 669 3309 634 3169 
L 206 3169 
L 206 4266 
L 3884 4266 
L 3884 3169 
L 3456 3169 
Q 3397 3381 3362 3481 
Q 3328 3581 3286 3651 
Q 3244 3722 3197 3769 
Q 3150 3816 3097 3844 
Q 3044 3872 2964 3886 
Q 2884 3900 2756 3900 
L 2531 3900 
L 2531 784 
Q 2531 619 2540 533 
Q 2550 447 2575 394 
Q 2600 341 2636 308 
Q 2672 275 2736 248 
Q 2800 222 2909 206 
L 2909 0 
L 1184 0 
z
" transform="scale(0.015625)"/>
     </defs>
     <use xlink:href="#Cambria-Bold-10"/>
     <use xlink:href="#Cambria-Bold-11" transform="translate(84.625 0)"/>
     <use xlink:href="#Cambria-Bold-17" transform="translate(152.546875 0)"/>
    </g>
   </g>
   <g id="text_24">
    <!-- MNT -->
    <g style="fill: #fcfcfb" transform="translate(86.556795 126.124457) scale(0.074 -0.074)">
     <use xlink:href="#Cambria-Bold-10"/>
     <use xlink:href="#Cambria-Bold-11" transform="translate(84.625 0)"/>
     <use xlink:href="#Cambria-Bold-17" transform="translate(152.546875 0)"/>
    </g>
   </g>
   <g id="text_25">
    <!-- (23,29) -->
    <g style="fill: #52514e" transform="translate(361.973849 152.157178) scale(0.064 -0.064)">
     <defs>
      <path id="Cambria-20b" d="M 2309 -1359 
Q 1778 -1359 1442 -1200 
Q 1106 -1041 918 -714 
Q 731 -388 647 134 
Q 563 656 563 1550 
Q 563 2438 645 2964 
Q 728 3491 915 3822 
Q 1103 4153 1440 4318 
Q 1778 4484 2309 4484 
L 2309 4228 
Q 2091 4228 1922 4191 
Q 1731 4147 1597 4022 
Q 1447 3884 1353 3638 
Q 1244 3350 1191 2875 
Q 1134 2372 1134 1575 
Q 1134 872 1181 379 
Q 1228 -113 1338 -425 
Q 1425 -688 1556 -834 
Q 1672 -963 1831 -1028 
Q 2016 -1103 2309 -1103 
L 2309 -1359 
z
" transform="scale(0.015625)"/>
      <path id="Cambria-1e1" d="M 966 725 
Q 1009 506 1009 294 
Q 1009 75 934 -106 
Q 859 -288 695 -467 
Q 531 -647 244 -863 
L 75 -672 
Q 234 -522 306 -401 
Q 378 -281 409 -128 
Q 441 25 441 256 
Q 441 494 419 725 
L 966 725 
z
" transform="scale(0.015625)"/>
      <path id="Cambria-20c" d="M 134 4484 
Q 666 4484 1002 4325 
Q 1338 4166 1525 3839 
Q 1713 3513 1797 2991 
Q 1881 2469 1881 1575 
Q 1881 688 1798 161 
Q 1716 -366 1528 -697 
Q 1341 -1028 1003 -1193 
Q 666 -1359 134 -1359 
L 134 -1103 
Q 353 -1103 522 -1066 
Q 713 -1022 847 -897 
Q 997 -759 1091 -513 
Q 1200 -225 1253 250 
Q 1309 753 1309 1550 
Q 1309 2253 1262 2745 
Q 1216 3238 1106 3550 
Q 1019 3813 888 3959 
Q 772 4088 613 4153 
Q 428 4228 134 4228 
L 134 4484 
z
" transform="scale(0.015625)"/>
     </defs>
     <use xlink:href="#Cambria-20b"/>
     <use xlink:href="#Cambria-374" transform="translate(38.1875 0)"/>
     <use xlink:href="#Cambria-375" transform="translate(93.5625 0)"/>
     <use xlink:href="#Cambria-1e1" transform="translate(148.9375 0)"/>
     <use xlink:href="#Cambria-374" transform="translate(169.453125 0)"/>
     <use xlink:href="#Cambria-37b" transform="translate(224.828125 0)"/>
     <use xlink:href="#Cambria-20c" transform="translate(280.203125 0)"/>
    </g>
   </g>
   <g id="text_26">
    <!-- (17,19) -->
    <g style="fill: #52514e" transform="translate(243.004045 204.778285) scale(0.064 -0.064)">
     <use xlink:href="#Cambria-20b"/>
     <use xlink:href="#Cambria-373" transform="translate(38.1875 0)"/>
     <use xlink:href="#Cambria-379" transform="translate(93.5625 0)"/>
     <use xlink:href="#Cambria-1e1" transform="translate(148.9375 0)"/>
     <use xlink:href="#Cambria-373" transform="translate(169.453125 0)"/>
     <use xlink:href="#Cambria-37b" transform="translate(224.828125 0)"/>
     <use xlink:href="#Cambria-20c" transform="translate(280.203125 0)"/>
    </g>
   </g>
   <g id="text_27">
    <!-- (7,11) -->
    <g style="fill: #0b0b0b" transform="translate(45.302943 231.199972) scale(0.068 -0.068)">
     <defs>
      <path id="Cambria-Bold-20b" d="M 2478 -1359 
Q 1888 -1359 1514 -1200 
Q 1141 -1041 931 -717 
Q 722 -394 626 128 
Q 531 650 531 1550 
Q 531 2456 626 2982 
Q 722 3509 933 3836 
Q 1144 4163 1520 4323 
Q 1897 4484 2478 4484 
L 2478 4141 
Q 2278 4141 2128 4100 
Q 1978 4059 1866 3947 
Q 1731 3813 1653 3566 
Q 1559 3281 1515 2795 
Q 1472 2309 1472 1575 
Q 1472 897 1513 428 
Q 1553 -75 1647 -381 
Q 1725 -634 1841 -775 
Q 1938 -891 2075 -950 
Q 2228 -1016 2478 -1016 
L 2478 -1359 
z
" transform="scale(0.015625)"/>
      <path id="Cambria-Bold-379" d="M 3469 4059 
L 1734 -9 
L 1094 -9 
L 1094 206 
L 2663 3384 
L 2663 3431 
L 1272 3431 
Q 1134 3431 1050 3409 
Q 966 3388 912 3339 
Q 859 3291 826 3212 
Q 794 3134 756 2969 
L 394 2969 
L 475 4266 
L 3469 4266 
L 3469 4059 
z
" transform="scale(0.015625)"/>
      <path id="Cambria-Bold-1e1" d="M 1134 944 
Q 1163 816 1178 659 
Q 1194 503 1194 378 
Q 1194 119 1109 -81 
Q 1025 -281 839 -476 
Q 653 -672 316 -909 
L 75 -638 
Q 209 -519 286 -387 
Q 363 -256 395 -95 
Q 428 66 428 303 
Q 428 584 391 944 
L 1134 944 
z
" transform="scale(0.015625)"/>
      <path id="Cambria-Bold-373" d="M 2506 872 
Q 2506 691 2526 598 
Q 2547 506 2598 448 
Q 2650 391 2747 358 
Q 2844 325 2991 308 
Q 3138 291 3378 284 
L 3378 0 
L 681 0 
L 681 284 
Q 1028 300 1176 326 
Q 1325 353 1403 406 
Q 1481 459 1517 556 
Q 1553 653 1553 872 
L 1553 3131 
Q 1553 3259 1504 3315 
Q 1456 3372 1372 3372 
Q 1294 3372 1151 3300 
Q 1009 3228 684 3006 
L 494 3338 
L 2125 4316 
L 2525 4316 
Q 2506 4016 2506 3484 
L 2506 872 
z
" transform="scale(0.015625)"/>
      <path id="Cambria-Bold-20c" d="M 134 4484 
Q 716 4484 1089 4328 
Q 1463 4172 1675 3851 
Q 1888 3531 1984 3007 
Q 2081 2484 2081 1575 
Q 2081 669 1986 142 
Q 1891 -384 1680 -711 
Q 1469 -1038 1092 -1198 
Q 716 -1359 134 -1359 
L 134 -1016 
Q 334 -1016 484 -975 
Q 634 -934 747 -822 
Q 881 -688 959 -441 
Q 1053 -156 1097 330 
Q 1141 816 1141 1550 
Q 1141 2228 1100 2697 
Q 1059 3200 966 3506 
Q 888 3759 772 3900 
Q 675 4016 538 4075 
Q 384 4141 134 4141 
L 134 4484 
z
" transform="scale(0.015625)"/>
     </defs>
     <use xlink:href="#Cambria-Bold-20b"/>
     <use xlink:href="#Cambria-Bold-379" transform="translate(40.828125 0)"/>
     <use xlink:href="#Cambria-Bold-1e1" transform="translate(100.0625 0)"/>
     <use xlink:href="#Cambria-Bold-373" transform="translate(123.25 0)"/>
     <use xlink:href="#Cambria-Bold-373" transform="translate(182.484375 0)"/>
     <use xlink:href="#Cambria-Bold-20c" transform="translate(241.71875 0)"/>
    </g>
   </g>
   <g id="text_28">
    <!-- (23,31) -->
    <g style="fill: #52514e" transform="translate(361.973849 231.088839) scale(0.064 -0.064)">
     <use xlink:href="#Cambria-20b"/>
     <use xlink:href="#Cambria-374" transform="translate(38.1875 0)"/>
     <use xlink:href="#Cambria-375" transform="translate(93.5625 0)"/>
     <use xlink:href="#Cambria-1e1" transform="translate(148.9375 0)"/>
     <use xlink:href="#Cambria-375" transform="translate(169.453125 0)"/>
     <use xlink:href="#Cambria-373" transform="translate(224.828125 0)"/>
     <use xlink:href="#Cambria-20c" transform="translate(280.203125 0)"/>
    </g>
   </g>
   <g id="text_29">
    <!-- (11,13) -->
    <g style="fill: #0b0b0b" transform="translate(320.885185 283.821079) scale(0.068 -0.068)">
     <defs>
      <path id="Cambria-Bold-375" d="M 456 3238 
L 456 3978 
Q 1247 4316 1891 4316 
Q 2275 4316 2570 4209 
Q 2866 4103 3027 3898 
Q 3188 3694 3188 3403 
Q 3188 3138 3081 2936 
Q 2975 2734 2783 2584 
Q 2591 2434 2284 2291 
L 2284 2263 
Q 2556 2216 2779 2081 
Q 3003 1947 3136 1722 
Q 3269 1497 3269 1200 
Q 3269 838 3092 555 
Q 2916 272 2556 111 
Q 2197 -50 1684 -50 
Q 1331 -50 990 14 
Q 650 78 397 194 
L 397 978 
L 959 978 
Q 1050 622 1215 461 
Q 1381 300 1650 300 
Q 2313 300 2313 1119 
Q 2313 1559 2080 1775 
Q 1847 1991 1372 1991 
L 1125 1991 
L 1125 2347 
Q 1669 2369 1950 2601 
Q 2231 2834 2231 3275 
Q 2231 3622 2090 3798 
Q 1950 3975 1681 3975 
Q 1528 3975 1398 3908 
Q 1269 3841 1167 3673 
Q 1066 3506 1019 3238 
L 456 3238 
z
" transform="scale(0.015625)"/>
     </defs>
     <use xlink:href="#Cambria-Bold-20b"/>
     <use xlink:href="#Cambria-Bold-373" transform="translate(40.828125 0)"/>
     <use xlink:href="#Cambria-Bold-373" transform="translate(100.0625 0)"/>
     <use xlink:href="#Cambria-Bold-1e1" transform="translate(159.296875 0)"/>
     <use xlink:href="#Cambria-Bold-373" transform="translate(182.484375 0)"/>
     <use xlink:href="#Cambria-Bold-375" transform="translate(241.71875 0)"/>
     <use xlink:href="#Cambria-Bold-20c" transform="translate(300.953125 0)"/>
    </g>
   </g>
   <g id="legend_1">
    <g id="patch_103">
     <path d="M 44.0475 315.159853 
L 60.4475 315.159853 
L 60.4475 309.419853 
L 44.0475 309.419853 
z
" style="fill: #2a78d6"/>
    </g>
    <g id="text_30">
     <!-- MNT family (all cycles) -->
     <g transform="translate(67.0075 315.159853) scale(0.082 -0.082)">
      <defs>
       <path id="Cambria-10" d="M 4841 4113 
Q 4703 4078 4642 4043 
Q 4581 4009 4545 3957 
Q 4509 3906 4492 3803 
Q 4475 3700 4475 3484 
L 4475 781 
Q 4475 572 4489 475 
Q 4503 378 4536 322 
Q 4569 266 4633 228 
Q 4697 191 4841 153 
L 4841 0 
L 3538 0 
L 3538 153 
Q 3716 197 3784 253 
Q 3853 309 3878 418 
Q 3903 528 3903 781 
L 3903 1978 
Q 3903 2450 3917 2933 
Q 3931 3416 3950 3594 
L 3897 3594 
L 2659 497 
L 2300 497 
L 1150 3644 
L 1097 3644 
Q 1113 3453 1127 2953 
Q 1141 2453 1141 1925 
L 1141 781 
Q 1141 572 1155 475 
Q 1169 378 1201 322 
Q 1234 266 1298 228 
Q 1363 191 1506 153 
L 1506 0 
L 366 0 
L 366 153 
Q 559 203 625 264 
Q 691 325 711 437 
Q 731 550 731 781 
L 731 3484 
Q 731 3700 715 3798 
Q 700 3897 664 3951 
Q 628 4006 568 4039 
Q 509 4072 366 4113 
L 366 4266 
L 1481 4266 
L 2578 1225 
L 3784 4266 
L 4841 4266 
L 4841 4113 
z
" transform="scale(0.015625)"/>
       <path id="Cambria-11" d="M 2888 1691 
Q 3000 1503 3076 1362 
Q 3153 1222 3234 1047 
L 3275 1047 
Q 3259 1238 3246 1805 
Q 3234 2372 3234 2828 
L 3234 3484 
Q 3234 3700 3221 3800 
Q 3209 3900 3176 3953 
Q 3144 4006 3086 4039 
Q 3028 4072 2884 4113 
L 2884 4266 
L 4009 4266 
L 4009 4113 
Q 3869 4075 3811 4044 
Q 3753 4013 3717 3963 
Q 3681 3913 3662 3813 
Q 3644 3713 3644 3484 
L 3644 -19 
L 3253 -19 
L 1513 2900 
Q 1350 3172 1281 3297 
Q 1213 3422 1153 3544 
L 1100 3544 
Q 1122 3303 1131 2673 
Q 1141 2044 1141 1419 
L 1141 781 
Q 1141 572 1155 475 
Q 1169 378 1201 322 
Q 1234 266 1298 228 
Q 1363 191 1506 153 
L 1506 0 
L 366 0 
L 366 153 
Q 559 203 625 264 
Q 691 325 711 437 
Q 731 550 731 781 
L 731 3484 
Q 731 3700 715 3798 
Q 700 3897 664 3951 
Q 628 4006 568 4039 
Q 509 4072 366 4113 
L 366 4266 
L 1344 4266 
L 2888 1691 
z
" transform="scale(0.015625)"/>
       <path id="Cambria-17" d="M 206 4266 
L 3588 4266 
L 3588 3178 
L 3281 3178 
Q 3213 3447 3145 3603 
Q 3078 3759 3003 3840 
Q 2928 3922 2842 3956 
Q 2756 3991 2584 3991 
L 2188 3991 
L 2188 791 
Q 2188 606 2208 497 
Q 2228 388 2270 323 
Q 2313 259 2384 223 
Q 2456 188 2609 153 
L 2609 0 
L 1181 0 
L 1181 153 
Q 1275 175 1347 200 
Q 1419 225 1464 261 
Q 1509 297 1539 353 
Q 1569 409 1586 506 
Q 1603 603 1603 791 
L 1603 3991 
L 1209 3991 
Q 1063 3991 967 3962 
Q 872 3934 790 3845 
Q 709 3756 642 3592 
Q 575 3428 516 3178 
L 206 3178 
L 206 4266 
z
" transform="scale(0.015625)"/>
       <path id="Cambria-88" d="M 1909 2672 
L 1163 2672 
L 1163 781 
Q 1163 572 1183 465 
Q 1203 359 1242 304 
Q 1281 250 1345 217 
Q 1409 184 1550 153 
L 1550 0 
L 272 0 
L 272 153 
Q 409 191 468 225 
Q 528 259 561 312 
Q 594 366 609 466 
Q 625 566 625 781 
L 625 2672 
L 247 2672 
L 247 2831 
Q 366 2850 405 2861 
Q 444 2872 480 2894 
Q 516 2916 542 2956 
Q 569 2997 589 3076 
Q 609 3156 622 3300 
Q 650 3641 745 3853 
Q 841 4066 1023 4216 
Q 1206 4366 1414 4427 
Q 1622 4488 1903 4488 
Q 2150 4488 2322 4453 
L 2322 3888 
L 2013 3888 
Q 1953 4072 1873 4148 
Q 1794 4225 1650 4225 
Q 1547 4225 1476 4197 
Q 1406 4169 1347 4109 
Q 1288 4050 1245 3950 
Q 1203 3850 1183 3701 
Q 1163 3553 1163 3316 
L 1163 2988 
L 1909 2988 
L 1909 2672 
z
" transform="scale(0.015625)"/>
       <path id="Cambria-8e" d="M 1138 781 
Q 1138 513 1163 408 
Q 1188 303 1258 248 
Q 1328 194 1488 153 
L 1488 0 
L 247 0 
L 247 153 
Q 403 194 464 237 
Q 525 281 551 342 
Q 578 403 589 508 
Q 600 613 600 781 
L 600 3397 
Q 600 3697 595 3815 
Q 591 3934 570 4017 
Q 550 4100 514 4147 
Q 478 4194 417 4222 
Q 356 4250 197 4278 
L 197 4441 
L 950 4472 
L 1138 4472 
L 1138 781 
z
" transform="scale(0.015625)"/>
       <path id="Cambria-9b" d="M 1625 -256 
Q 1453 -644 1290 -884 
Q 1128 -1125 933 -1247 
Q 738 -1369 469 -1369 
Q 297 -1369 81 -1328 
L 81 -709 
L 359 -709 
Q 397 -838 453 -888 
Q 509 -938 616 -938 
Q 709 -938 782 -902 
Q 856 -866 936 -778 
Q 1016 -691 1123 -509 
Q 1231 -328 1366 -50 
L 491 2303 
Q 406 2531 354 2622 
Q 303 2713 243 2759 
Q 184 2806 63 2834 
L 63 2988 
L 1334 2988 
L 1334 2834 
Q 1188 2800 1128 2767 
Q 1069 2734 1041 2682 
Q 1013 2631 1013 2550 
Q 1013 2466 1033 2375 
Q 1053 2284 1097 2163 
L 1653 597 
L 2278 2097 
Q 2331 2222 2361 2326 
Q 2391 2431 2391 2522 
Q 2391 2656 2317 2725 
Q 2244 2794 2063 2834 
L 2063 2988 
L 3231 2988 
L 3231 2834 
Q 3109 2809 3043 2757 
Q 2978 2706 2912 2595 
Q 2847 2484 2756 2284 
L 1625 -256 
z
" transform="scale(0.015625)"/>
       <path id="Cambria-95" d="M 2397 2303 
L 2097 2303 
Q 2028 2491 1934 2598 
Q 1841 2706 1722 2750 
Q 1603 2794 1431 2794 
Q 1181 2794 1032 2676 
Q 884 2559 884 2356 
Q 884 2213 943 2119 
Q 1003 2025 1128 1944 
Q 1253 1863 1569 1728 
Q 1888 1591 2061 1475 
Q 2234 1359 2332 1206 
Q 2431 1053 2431 841 
Q 2431 594 2347 425 
Q 2263 256 2109 150 
Q 1956 44 1745 -3 
Q 1534 -50 1284 -50 
Q 1022 -50 775 -11 
Q 528 28 294 91 
L 294 744 
L 600 744 
Q 684 456 850 326 
Q 1016 197 1306 197 
Q 1419 197 1526 220 
Q 1634 244 1718 298 
Q 1803 353 1853 447 
Q 1903 541 1903 681 
Q 1903 841 1840 941 
Q 1778 1041 1647 1123 
Q 1516 1206 1184 1347 
Q 900 1466 728 1578 
Q 556 1691 457 1844 
Q 359 1997 359 2206 
Q 359 2463 498 2652 
Q 638 2841 900 2941 
Q 1163 3041 1516 3041 
Q 1722 3041 1914 3020 
Q 2106 3000 2397 2941 
L 2397 2303 
z
" transform="scale(0.015625)"/>
      </defs>
      <use xlink:href="#Cambria-10"/>
      <use xlink:href="#Cambria-11" transform="translate(81.546875 0)"/>
      <use xlink:href="#Cambria-17" transform="translate(149.609375 0)"/>
      <use xlink:href="#Cambria-3" transform="translate(208.890625 0)"/>
      <use xlink:href="#Cambria-88" transform="translate(230.90625 0)"/>
      <use xlink:href="#Cambria-83" transform="translate(260.015625 0)"/>
      <use xlink:href="#Cambria-8f" transform="translate(308.84375 0)"/>
      <use xlink:href="#Cambria-8b" transform="translate(392.046875 0)"/>
      <use xlink:href="#Cambria-8e" transform="translate(419.828125 0)"/>
      <use xlink:href="#Cambria-9b" transform="translate(444.984375 0)"/>
      <use xlink:href="#Cambria-3" transform="translate(495.375 0)"/>
      <use xlink:href="#Cambria-20b" transform="translate(517.390625 0)"/>
      <use xlink:href="#Cambria-83" transform="translate(555.578125 0)"/>
      <use xlink:href="#Cambria-8e" transform="translate(604.40625 0)"/>
      <use xlink:href="#Cambria-8e" transform="translate(631.5625 0)"/>
      <use xlink:href="#Cambria-3" transform="translate(658.71875 0)"/>
      <use xlink:href="#Cambria-85" transform="translate(680.734375 0)"/>
      <use xlink:href="#Cambria-9b" transform="translate(724.828125 0)"/>
      <use xlink:href="#Cambria-85" transform="translate(773.265625 0)"/>
      <use xlink:href="#Cambria-8e" transform="translate(817.359375 0)"/>
      <use xlink:href="#Cambria-87" transform="translate(844.515625 0)"/>
      <use xlink:href="#Cambria-95" transform="translate(893.296875 0)"/>
      <use xlink:href="#Cambria-20c" transform="translate(936.265625 0)"/>
     </g>
    </g>
    <g id="patch_104">
     <path d="M 44.0475 327.459853 
L 60.4475 327.459853 
L 60.4475 321.719853 
L 44.0475 321.719853 
z
" style="fill: #eda100"/>
    </g>
    <g id="text_31">
     <!-- unique tiny cycle -->
     <g transform="translate(67.0075 327.459853) scale(0.082 -0.082)">
      <defs>
       <path id="Cambria-97" d="M 228 2988 
L 1119 2988 
L 1119 1397 
Q 1119 1031 1147 840 
Q 1175 650 1231 553 
Q 1288 456 1391 390 
Q 1494 325 1675 325 
Q 1794 325 1903 372 
Q 2013 419 2147 536 
Q 2281 653 2339 768 
Q 2397 884 2397 1038 
L 2397 2209 
Q 2397 2388 2387 2478 
Q 2378 2569 2356 2623 
Q 2334 2678 2304 2712 
Q 2275 2747 2220 2775 
Q 2166 2803 2044 2834 
L 2044 2988 
L 2934 2988 
L 2934 853 
Q 2934 613 2943 506 
Q 2953 400 2984 337 
Q 3016 275 3081 236 
Q 3147 197 3316 163 
L 3316 0 
L 2600 -31 
L 2409 -31 
L 2428 481 
L 2381 494 
Q 2122 213 1886 81 
Q 1650 -50 1413 -50 
Q 1128 -50 943 62 
Q 759 175 668 398 
Q 578 622 578 1028 
L 578 2209 
Q 578 2472 558 2570 
Q 538 2669 480 2726 
Q 422 2784 228 2834 
L 228 2988 
z
" transform="scale(0.015625)"/>
       <path id="Cambria-93" d="M 3300 -1344 
L 2025 -1344 
L 2025 -1191 
Q 2175 -1159 2242 -1121 
Q 2309 -1084 2345 -1026 
Q 2381 -969 2395 -870 
Q 2409 -772 2409 -566 
L 2409 513 
Q 2241 322 2095 208 
Q 1950 94 1772 22 
Q 1594 -50 1394 -50 
Q 878 -50 601 334 
Q 325 719 325 1453 
Q 325 1972 504 2330 
Q 684 2688 1006 2864 
Q 1328 3041 1750 3041 
Q 1972 3041 2150 2995 
Q 2328 2950 2516 2850 
L 2734 3041 
L 2947 2991 
L 2947 -566 
Q 2947 -750 2961 -858 
Q 2975 -966 3011 -1028 
Q 3047 -1091 3117 -1125 
Q 3188 -1159 3300 -1191 
L 3300 -1344 
z
M 2409 1863 
Q 2409 2153 2371 2312 
Q 2334 2472 2243 2583 
Q 2153 2694 2031 2742 
Q 1909 2791 1744 2791 
Q 1341 2791 1127 2466 
Q 913 2141 913 1550 
Q 913 950 1086 637 
Q 1259 325 1606 325 
Q 1738 325 1830 348 
Q 1922 372 2011 425 
Q 2100 478 2192 568 
Q 2284 659 2325 732 
Q 2366 806 2387 903 
Q 2409 1000 2409 1153 
L 2409 1863 
z
" transform="scale(0.015625)"/>
      </defs>
      <use xlink:href="#Cambria-97"/>
      <use xlink:href="#Cambria-90" transform="translate(55.21875 0)"/>
      <use xlink:href="#Cambria-8b" transform="translate(111.03125 0)"/>
      <use xlink:href="#Cambria-93" transform="translate(138.8125 0)"/>
      <use xlink:href="#Cambria-97" transform="translate(193.5 0)"/>
      <use xlink:href="#Cambria-87" transform="translate(248.71875 0)"/>
      <use xlink:href="#Cambria-3" transform="translate(297.5 0)"/>
      <use xlink:href="#Cambria-96" transform="translate(319.515625 0)"/>
      <use xlink:href="#Cambria-8b" transform="translate(353.359375 0)"/>
      <use xlink:href="#Cambria-90" transform="translate(381.140625 0)"/>
      <use xlink:href="#Cambria-9b" transform="translate(435 0)"/>
      <use xlink:href="#Cambria-3" transform="translate(485.390625 0)"/>
      <use xlink:href="#Cambria-85" transform="translate(507.40625 0)"/>
      <use xlink:href="#Cambria-9b" transform="translate(551.5 0)"/>
      <use xlink:href="#Cambria-85" transform="translate(599.9375 0)"/>
      <use xlink:href="#Cambria-8e" transform="translate(644.03125 0)"/>
      <use xlink:href="#Cambria-87" transform="translate(671.1875 0)"/>
     </g>
    </g>
    <g id="patch_105">
     <path d="M 163.312656 315.159853 
L 179.712656 315.159853 
L 179.712656 309.419853 
L 163.312656 309.419853 
z
" style="fill: #9ec5f4"/>
    </g>
    <g id="text_32">
     <!-- proved impossible -->
     <g transform="translate(186.272656 315.159853) scale(0.082 -0.082)">
      <defs>
       <path id="Cambria-92" d="M 1150 94 
L 1150 -566 
Q 1150 -769 1164 -869 
Q 1178 -969 1214 -1026 
Q 1250 -1084 1317 -1121 
Q 1384 -1159 1534 -1191 
L 1534 -1344 
L 259 -1344 
L 259 -1191 
Q 372 -1159 442 -1126 
Q 513 -1094 550 -1030 
Q 588 -966 600 -856 
Q 613 -747 613 -566 
L 613 2116 
Q 613 2341 606 2436 
Q 600 2531 581 2593 
Q 563 2656 527 2697 
Q 491 2738 430 2766 
Q 369 2794 228 2822 
L 228 2988 
L 963 3016 
L 1153 3016 
L 1113 2506 
L 1159 2494 
Q 1353 2691 1465 2780 
Q 1578 2869 1698 2928 
Q 1819 2988 1930 3013 
Q 2041 3038 2166 3038 
Q 2681 3038 2957 2652 
Q 3234 2266 3234 1522 
Q 3234 1006 3078 654 
Q 2922 303 2623 126 
Q 2325 -50 1913 -50 
Q 1681 -50 1493 -11 
Q 1306 28 1150 94 
z
M 1150 1125 
Q 1150 825 1187 662 
Q 1225 500 1320 398 
Q 1416 297 1545 247 
Q 1675 197 1888 197 
Q 2266 197 2456 511 
Q 2647 825 2647 1438 
Q 2647 2663 1931 2663 
Q 1756 2663 1629 2608 
Q 1503 2553 1378 2431 
Q 1253 2309 1201 2195 
Q 1150 2081 1150 1950 
L 1150 1125 
z
" transform="scale(0.015625)"/>
       <path id="Cambria-91" d="M 1663 -50 
Q 1013 -50 670 333 
Q 328 716 328 1466 
Q 328 1981 508 2337 
Q 688 2694 1000 2867 
Q 1313 3041 1713 3041 
Q 2381 3041 2725 2652 
Q 3069 2263 3069 1534 
Q 3069 1016 2897 659 
Q 2725 303 2409 126 
Q 2094 -50 1663 -50 
z
M 919 1531 
Q 919 888 1123 542 
Q 1328 197 1709 197 
Q 1919 197 2066 298 
Q 2213 400 2305 572 
Q 2397 744 2437 970 
Q 2478 1197 2478 1444 
Q 2478 1903 2376 2206 
Q 2275 2509 2100 2651 
Q 1925 2794 1700 2794 
Q 1322 2794 1120 2466 
Q 919 2138 919 1531 
z
" transform="scale(0.015625)"/>
       <path id="Cambria-98" d="M 1334 2988 
L 1334 2834 
Q 1191 2800 1131 2769 
Q 1072 2738 1042 2688 
Q 1013 2638 1013 2553 
Q 1013 2469 1033 2376 
Q 1053 2284 1097 2163 
L 1641 581 
L 2278 2097 
Q 2341 2247 2366 2344 
Q 2391 2441 2391 2525 
Q 2391 2656 2320 2725 
Q 2250 2794 2063 2834 
L 2063 2988 
L 3231 2988 
L 3231 2834 
Q 3109 2809 3043 2757 
Q 2978 2706 2912 2595 
Q 2847 2484 2756 2284 
L 1703 -31 
L 1334 -31 
L 488 2303 
Q 400 2544 348 2633 
Q 297 2722 236 2765 
Q 175 2809 59 2834 
L 59 2988 
L 1334 2988 
z
" transform="scale(0.015625)"/>
      </defs>
      <use xlink:href="#Cambria-92"/>
      <use xlink:href="#Cambria-94" transform="translate(55.609375 0)"/>
      <use xlink:href="#Cambria-91" transform="translate(95.5 0)"/>
      <use xlink:href="#Cambria-98" transform="translate(147.109375 0)"/>
      <use xlink:href="#Cambria-87" transform="translate(195.546875 0)"/>
      <use xlink:href="#Cambria-86" transform="translate(244.328125 0)"/>
      <use xlink:href="#Cambria-3" transform="translate(299.796875 0)"/>
      <use xlink:href="#Cambria-8b" transform="translate(321.8125 0)"/>
      <use xlink:href="#Cambria-8f" transform="translate(349.59375 0)"/>
      <use xlink:href="#Cambria-92" transform="translate(432.796875 0)"/>
      <use xlink:href="#Cambria-91" transform="translate(488.40625 0)"/>
      <use xlink:href="#Cambria-95" transform="translate(541.484375 0)"/>
      <use xlink:href="#Cambria-95" transform="translate(584.453125 0)"/>
      <use xlink:href="#Cambria-8b" transform="translate(627.421875 0)"/>
      <use xlink:href="#Cambria-84" transform="translate(655.203125 0)"/>
      <use xlink:href="#Cambria-8e" transform="translate(709.9375 0)"/>
      <use xlink:href="#Cambria-87" transform="translate(737.09375 0)"/>
     </g>
    </g>
    <g id="patch_106">
     <path d="M 163.312656 327.459853 
L 179.712656 327.459853 
L 179.712656 321.719853 
L 163.312656 321.719853 
z
" style="fill: #fcfcfb; stroke: #e1e0d9; stroke-linejoin: miter"/>
    </g>
    <g id="text_33">
     <!-- open globally (7, 9, or 11); labels = tiny hits -->
     <g transform="translate(186.272656 327.459853) scale(0.082 -0.082)">
      <defs>
       <path id="Cambria-1e2" d="M 1119 725 
Q 1163 506 1163 294 
Q 1163 75 1088 -106 
Q 1013 -288 848 -467 
Q 684 -647 397 -863 
L 228 -672 
Q 388 -522 459 -401 
Q 531 -281 562 -128 
Q 594 25 594 256 
Q 594 494 572 725 
L 1119 725 
z
M 1156 2822 
L 1156 2091 
L 531 2091 
L 531 2822 
L 1156 2822 
z
" transform="scale(0.015625)"/>
       <path id="Cambria-3b1" d="M 388 2259 
L 388 2694 
L 3156 2694 
L 3156 2259 
L 388 2259 
z
M 388 963 
L 388 1397 
L 3156 1397 
L 3156 963 
L 388 963 
z
" transform="scale(0.015625)"/>
       <path id="Cambria-8a" d="M 1141 2497 
L 1153 2494 
Q 1397 2741 1539 2839 
Q 1681 2938 1820 2988 
Q 1959 3038 2119 3038 
Q 2291 3038 2425 2997 
Q 2559 2956 2661 2873 
Q 2763 2791 2827 2670 
Q 2891 2550 2922 2383 
Q 2953 2216 2953 1959 
L 2953 781 
Q 2953 509 2976 411 
Q 3000 313 3061 258 
Q 3122 203 3306 153 
L 3306 0 
L 2075 0 
L 2075 153 
Q 2197 191 2250 219 
Q 2303 247 2339 297 
Q 2375 347 2395 451 
Q 2416 556 2416 769 
L 2416 1588 
Q 2416 2003 2373 2223 
Q 2331 2444 2207 2553 
Q 2084 2663 1863 2663 
Q 1738 2663 1638 2619 
Q 1538 2575 1406 2462 
Q 1275 2350 1208 2231 
Q 1141 2113 1141 1978 
L 1141 781 
Q 1141 569 1152 478 
Q 1163 388 1194 327 
Q 1225 266 1289 227 
Q 1353 188 1488 153 
L 1488 0 
L 250 0 
L 250 153 
Q 388 191 447 225 
Q 506 259 539 312 
Q 572 366 587 466 
Q 603 566 603 781 
L 603 3397 
Q 603 3697 598 3815 
Q 594 3934 573 4017 
Q 553 4100 517 4147 
Q 481 4194 420 4222 
Q 359 4250 200 4278 
L 200 4441 
L 953 4472 
L 1141 4472 
L 1141 2497 
z
" transform="scale(0.015625)"/>
      </defs>
      <use xlink:href="#Cambria-91"/>
      <use xlink:href="#Cambria-92" transform="translate(53.078125 0)"/>
      <use xlink:href="#Cambria-87" transform="translate(108.6875 0)"/>
      <use xlink:href="#Cambria-90" transform="translate(157.46875 0)"/>
      <use xlink:href="#Cambria-3" transform="translate(213.28125 0)"/>
      <use xlink:href="#Cambria-89" transform="translate(235.296875 0)"/>
      <use xlink:href="#Cambria-8e" transform="translate(284.03125 0)"/>
      <use xlink:href="#Cambria-91" transform="translate(311.1875 0)"/>
      <use xlink:href="#Cambria-84" transform="translate(364.265625 0)"/>
      <use xlink:href="#Cambria-83" transform="translate(419 0)"/>
      <use xlink:href="#Cambria-8e" transform="translate(467.828125 0)"/>
      <use xlink:href="#Cambria-8e" transform="translate(494.984375 0)"/>
      <use xlink:href="#Cambria-9b" transform="translate(520.140625 0)"/>
      <use xlink:href="#Cambria-3" transform="translate(570.53125 0)"/>
      <use xlink:href="#Cambria-20b" transform="translate(592.546875 0)"/>
      <use xlink:href="#Cambria-379" transform="translate(630.734375 0)"/>
      <use xlink:href="#Cambria-1e1" transform="translate(686.109375 0)"/>
      <use xlink:href="#Cambria-3" transform="translate(706.625 0)"/>
      <use xlink:href="#Cambria-37b" transform="translate(728.640625 0)"/>
      <use xlink:href="#Cambria-1e1" transform="translate(784.015625 0)"/>
      <use xlink:href="#Cambria-3" transform="translate(804.53125 0)"/>
      <use xlink:href="#Cambria-91" transform="translate(826.546875 0)"/>
      <use xlink:href="#Cambria-94" transform="translate(879.625 0)"/>
      <use xlink:href="#Cambria-3" transform="translate(920.984375 0)"/>
      <use xlink:href="#Cambria-373" transform="translate(943 0)"/>
      <use xlink:href="#Cambria-373" transform="translate(998.375 0)"/>
      <use xlink:href="#Cambria-20c" transform="translate(1053.75 0)"/>
      <use xlink:href="#Cambria-1e2" transform="translate(1091.9375 0)"/>
      <use xlink:href="#Cambria-3" transform="translate(1118.3125 0)"/>
      <use xlink:href="#Cambria-8e" transform="translate(1140.328125 0)"/>
      <use xlink:href="#Cambria-83" transform="translate(1167.484375 0)"/>
      <use xlink:href="#Cambria-84" transform="translate(1216.3125 0)"/>
      <use xlink:href="#Cambria-87" transform="translate(1271.046875 0)"/>
      <use xlink:href="#Cambria-8e" transform="translate(1319.828125 0)"/>
      <use xlink:href="#Cambria-95" transform="translate(1346.984375 0)"/>
      <use xlink:href="#Cambria-3" transform="translate(1389.953125 0)"/>
      <use xlink:href="#Cambria-3b1" transform="translate(1411.96875 0)"/>
      <use xlink:href="#Cambria-3" transform="translate(1467.34375 0)"/>
      <use xlink:href="#Cambria-96" transform="translate(1489.359375 0)"/>
      <use xlink:href="#Cambria-8b" transform="translate(1523.203125 0)"/>
      <use xlink:href="#Cambria-90" transform="translate(1550.984375 0)"/>
      <use xlink:href="#Cambria-9b" transform="translate(1604.84375 0)"/>
      <use xlink:href="#Cambria-3" transform="translate(1655.234375 0)"/>
      <use xlink:href="#Cambria-8a" transform="translate(1677.25 0)"/>
      <use xlink:href="#Cambria-8b" transform="translate(1732.421875 0)"/>
      <use xlink:href="#Cambria-96" transform="translate(1760.203125 0)"/>
      <use xlink:href="#Cambria-95" transform="translate(1794.046875 0)"/>
     </g>
    </g>
   </g>
  </g>
 </g>
 <defs>
  <clipPath id="p2dde6506ae">
   <rect x="36.6675" y="33.033984" width="396.566016" height="263.105536"/>
  </clipPath>
 </defs>
</svg>
