<?xml version="1.0" encoding="utf-8" standalone="no"?>
<!DOCTYPE svg PUBLIC "-//W3C//DTD SVG 1.1//EN"
  "http://www.w3.org/Graphics/SVG/1.1/DTD/svg11.dtd">
<svg xmlns:xlink="http://www.w3.org/1999/xlink" width="483.459141pt" height="224.08582pt" viewBox="0 0 483.459141 224.08582" xmlns="http://www.w3.org/2000/svg" version="1.1">
 <metadata>
  <rdf:RDF xmlns:dc="http://purl.org/dc/elements/1.1/" xmlns:cc="http://creativecommons.org/ns#" xmlns:rdf="http://www.w3.org/1999/02/22-rdf-syntax-ns#">
   <cc:Work>
    <dc:type rdf:resource="http://purl.org/dc/dcmitype/StillImage"/>
    <dc:date>2026-07-23T01:03:19.566744</dc:date>
    <dc:format>image/svg+xml</dc:format>
    <dc:creator>
     <cc:Agent>
      <dc:title>Matplotlib v3.11.1, https://matplotlib.org/</dc:title>
     </cc:Agent>
    </dc:creator>
   </cc:Work>
  </rdf:RDF>
 </metadata>
 <defs>
  <style type="text/css">*{stroke-linejoin: round; stroke-linecap: butt}</style>
 </defs>
 <g id="figure_1">
  <g id="patch_1">
   <path d="M 0 224.08582 
L 483.459141 224.08582 
L 483.459141 0 
L 0 0 
z
" style="fill: #fcfcfb"/>
  </g>
  <g id="axes_1">
   <g id="patch_2">
    <path d="M 47.643125 190.644043 
L 476.259141 190.644043 
L 476.259141 25.311816 
L 47.643125 25.311816 
z
" style="fill: #fcfcfb"/>
   </g>
   <g id="matplotlib.axis_1">
    <g id="xtick_1">
     <g id="line2d_1">
      <path d="M 93.271079 190.644043 
L 93.271079 25.311816 
" clip-path="url(#pb8b616cceb)" style="fill: none; stroke: #e1e0d9; stroke-width: 0.7; stroke-linecap: square"/>
     </g>
     <g id="line2d_2">
      <defs>
       <path id="md886dcb9fa" d="M 0 0 
L 0 3.5 
" style="stroke: #898781; stroke-width: 0.8"/>
      </defs>
      <g>
       <use xlink:href="#md886dcb9fa" x="93.271079" y="190.644043" style="fill: #898781; stroke: #898781; stroke-width: 0.8"/>
      </g>
     </g>
     <g id="text_1">
      <!-- 750 genus-one -->
      <g style="fill: #52514e" transform="translate(68.653548 204.38335) scale(0.078 -0.078)">
       <defs>
        <path id="Cambria-379" d="M 3206 4116 
L 1388 -22 
L 934 -22 
L 934 131 
L 2619 3697 
L 2619 3744 
L 1244 3744 
Q 1116 3744 1039 3720 
Q 963 3697 911 3653 
Q 859 3609 825 3537 
Q 791 3466 731 3253 
L 463 3253 
L 525 4266 
L 3206 4266 
L 3206 4116 
z
" transform="scale(0.015625)"/>
        <path id="Cambria-377" d="M 469 172 
L 469 834 
L 847 834 
Q 941 516 1130 366 
Q 1319 216 1619 216 
Q 2034 216 2246 466 
Q 2459 716 2459 1213 
Q 2459 1544 2346 1761 
Q 2234 1978 2043 2075 
Q 1853 2172 1600 2172 
Q 1388 2172 1234 2145 
Q 1081 2119 906 2063 
L 656 2209 
L 656 4266 
L 2378 4266 
Q 2484 4266 2531 4283 
Q 2578 4300 2606 4336 
Q 2634 4372 2672 4472 
L 2916 4472 
L 2869 3747 
L 1072 3747 
L 1072 2375 
Q 1234 2444 1425 2478 
Q 1616 2513 1806 2513 
Q 2178 2513 2465 2361 
Q 2753 2209 2909 1929 
Q 3066 1650 3066 1281 
Q 3066 863 2891 563 
Q 2716 263 2384 106 
Q 2053 -50 1600 -50 
Q 1059 -50 469 172 
z
" transform="scale(0.015625)"/>
        <path id="Cambria-372" d="M 1738 -50 
Q 1063 -50 733 481 
Q 403 1013 403 2094 
Q 403 2669 504 3087 
Q 606 3506 789 3779 
Q 972 4053 1228 4184 
Q 1484 4316 1788 4316 
Q 2472 4316 2806 3787 
Q 3141 3259 3141 2191 
Q 3141 1084 2783 517 
Q 2425 -50 1738 -50 
z
M 1013 2188 
Q 1013 1169 1202 692 
Q 1391 216 1788 216 
Q 2166 216 2348 664 
Q 2531 1113 2531 2053 
Q 2531 2772 2437 3217 
Q 2344 3663 2176 3856 
Q 2009 4050 1772 4050 
Q 1556 4050 1411 3922 
Q 1266 3794 1177 3553 
Q 1088 3313 1050 2967 
Q 1013 2622 1013 2188 
z
" transform="scale(0.015625)"/>
        <path id="Cambria-3" transform="scale(0.015625)"/>
        <path id="Cambria-89" d="M 3106 2672 
L 2528 2694 
L 2500 2659 
Q 2597 2563 2653 2395 
Q 2709 2228 2709 2034 
Q 2709 1525 2395 1248 
Q 2081 972 1503 972 
Q 1244 972 1056 1038 
Q 819 856 819 681 
Q 819 566 864 506 
Q 909 447 1014 422 
Q 1119 397 1331 397 
L 2081 397 
Q 2413 397 2622 294 
Q 2831 191 2920 17 
Q 3009 -156 3009 -388 
Q 3009 -681 2840 -911 
Q 2672 -1141 2353 -1269 
Q 2034 -1397 1609 -1397 
Q 1294 -1397 1033 -1359 
Q 772 -1322 586 -1233 
Q 400 -1144 298 -998 
Q 197 -853 197 -634 
Q 197 -438 328 -277 
Q 459 -116 700 6 
Q 553 66 468 181 
Q 384 297 384 453 
Q 384 631 484 779 
Q 584 928 838 1119 
Q 613 1250 495 1475 
Q 378 1700 378 1988 
Q 378 2256 467 2454 
Q 556 2653 714 2783 
Q 872 2913 1087 2977 
Q 1303 3041 1553 3041 
Q 1778 3041 2000 2988 
L 3106 2988 
L 3106 2672 
z
M 938 2038 
Q 938 1647 1097 1434 
Q 1256 1222 1556 1222 
Q 1716 1222 1828 1283 
Q 1941 1344 2011 1450 
Q 2081 1556 2114 1695 
Q 2147 1834 2147 1988 
Q 2147 2263 2069 2447 
Q 1991 2631 1856 2717 
Q 1722 2803 1547 2803 
Q 1250 2803 1094 2606 
Q 938 2409 938 2038 
z
M 1016 -50 
Q 856 -169 776 -301 
Q 697 -434 697 -603 
Q 697 -884 920 -1017 
Q 1144 -1150 1603 -1150 
Q 1884 -1150 2086 -1075 
Q 2288 -1000 2394 -859 
Q 2500 -719 2500 -531 
Q 2500 -444 2478 -361 
Q 2456 -278 2395 -212 
Q 2334 -147 2221 -108 
Q 2109 -69 1928 -69 
L 1463 -69 
Q 1209 -69 1016 -50 
z
" transform="scale(0.015625)"/>
        <path id="Cambria-87" d="M 2800 531 
Q 2600 322 2433 203 
Q 2266 84 2066 17 
Q 1866 -50 1625 -50 
Q 981 -50 653 336 
Q 325 722 325 1475 
Q 325 1941 492 2297 
Q 659 2653 968 2847 
Q 1278 3041 1681 3041 
Q 1997 3041 2219 2941 
Q 2441 2841 2573 2667 
Q 2706 2494 2779 2230 
Q 2853 1966 2863 1541 
L 894 1541 
L 894 1484 
Q 894 1116 976 864 
Q 1059 613 1248 470 
Q 1438 328 1741 328 
Q 1997 328 2201 423 
Q 2406 519 2609 734 
L 2800 531 
z
M 2275 1800 
Q 2256 2138 2190 2352 
Q 2125 2566 1994 2680 
Q 1863 2794 1650 2794 
Q 1328 2794 1136 2536 
Q 944 2278 909 1800 
L 2275 1800 
z
" transform="scale(0.015625)"/>
        <path id="Cambria-90" d="M 3347 0 
L 2116 0 
L 2116 153 
Q 2238 191 2291 219 
Q 2344 247 2380 297 
Q 2416 347 2436 451 
Q 2456 556 2456 769 
L 2456 1588 
Q 2456 1806 2443 1984 
Q 2431 2163 2401 2277 
Q 2372 2391 2330 2455 
Q 2288 2519 2230 2564 
Q 2172 2609 2097 2636 
Q 2022 2663 1900 2663 
Q 1778 2663 1668 2614 
Q 1559 2566 1428 2447 
Q 1297 2328 1237 2212 
Q 1178 2097 1178 1947 
L 1178 781 
Q 1178 513 1203 408 
Q 1228 303 1298 248 
Q 1369 194 1528 153 
L 1528 0 
L 303 0 
L 303 153 
Q 425 191 476 219 
Q 528 247 564 297 
Q 600 347 620 450 
Q 641 553 641 772 
L 641 2134 
Q 641 2334 634 2456 
Q 628 2578 590 2651 
Q 553 2725 476 2761 
Q 400 2797 259 2822 
L 259 2988 
L 991 3016 
L 1181 3016 
L 1147 2506 
L 1191 2494 
Q 1422 2728 1564 2828 
Q 1706 2928 1851 2983 
Q 1997 3038 2159 3038 
Q 2328 3038 2461 2998 
Q 2594 2959 2695 2878 
Q 2797 2797 2862 2676 
Q 2928 2556 2961 2387 
Q 2994 2219 2994 1959 
L 2994 781 
Q 2994 566 3006 469 
Q 3019 372 3050 319 
Q 3081 266 3140 230 
Q 3200 194 3347 153 
L 3347 0 
z
" transform="scale(0.015625)"/>
        <path id="Cambria-97" d="M 228 2988 
L 1119 2988 
L 1119 1397 
Q 1119 1031 1147 840 
Q 1175 650 1231 553 
Q 1288 456 1391 390 
Q 1494 325 1675 325 
Q 1794 325 1903 372 
Q 2013 419 2147 536 
Q 2281 653 2339 768 
Q 2397 884 2397 1038 
L 2397 2209 
Q 2397 2388 2387 2478 
Q 2378 2569 2356 2623 
Q 2334 2678 2304 2712 
Q 2275 2747 2220 2775 
Q 2166 2803 2044 2834 
L 2044 2988 
L 2934 2988 
L 2934 853 
Q 2934 613 2943 506 
Q 2953 400 2984 337 
Q 3016 275 3081 236 
Q 3147 197 3316 163 
L 3316 0 
L 2600 -31 
L 2409 -31 
L 2428 481 
L 2381 494 
Q 2122 213 1886 81 
Q 1650 -50 1413 -50 
Q 1128 -50 943 62 
Q 759 175 668 398 
Q 578 622 578 1028 
L 578 2209 
Q 578 2472 558 2570 
Q 538 2669 480 2726 
Q 422 2784 228 2834 
L 228 2988 
z
" transform="scale(0.015625)"/>
        <path id="Cambria-95" d="M 2397 2303 
L 2097 2303 
Q 2028 2491 1934 2598 
Q 1841 2706 1722 2750 
Q 1603 2794 1431 2794 
Q 1181 2794 1032 2676 
Q 884 2559 884 2356 
Q 884 2213 943 2119 
Q 1003 2025 1128 1944 
Q 1253 1863 1569 1728 
Q 1888 1591 2061 1475 
Q 2234 1359 2332 1206 
Q 2431 1053 2431 841 
Q 2431 594 2347 425 
Q 2263 256 2109 150 
Q 1956 44 1745 -3 
Q 1534 -50 1284 -50 
Q 1022 -50 775 -11 
Q 528 28 294 91 
L 294 744 
L 600 744 
Q 684 456 850 326 
Q 1016 197 1306 197 
Q 1419 197 1526 220 
Q 1634 244 1718 298 
Q 1803 353 1853 447 
Q 1903 541 1903 681 
Q 1903 841 1840 941 
Q 1778 1041 1647 1123 
Q 1516 1206 1184 1347 
Q 900 1466 728 1578 
Q 556 1691 457 1844 
Q 359 1997 359 2206 
Q 359 2463 498 2652 
Q 638 2841 900 2941 
Q 1163 3041 1516 3041 
Q 1722 3041 1914 3020 
Q 2106 3000 2397 2941 
L 2397 2303 
z
" transform="scale(0.015625)"/>
        <path id="Cambria-1e6" d="M 1788 1403 
L 338 1403 
L 338 1888 
L 1788 1888 
L 1788 1403 
z
" transform="scale(0.015625)"/>
        <path id="Cambria-91" d="M 1663 -50 
Q 1013 -50 670 333 
Q 328 716 328 1466 
Q 328 1981 508 2337 
Q 688 2694 1000 2867 
Q 1313 3041 1713 3041 
Q 2381 3041 2725 2652 
Q 3069 2263 3069 1534 
Q 3069 1016 2897 659 
Q 2725 303 2409 126 
Q 2094 -50 1663 -50 
z
M 919 1531 
Q 919 888 1123 542 
Q 1328 197 1709 197 
Q 1919 197 2066 298 
Q 2213 400 2305 572 
Q 2397 744 2437 970 
Q 2478 1197 2478 1444 
Q 2478 1903 2376 2206 
Q 2275 2509 2100 2651 
Q 1925 2794 1700 2794 
Q 1322 2794 1120 2466 
Q 919 2138 919 1531 
z
" transform="scale(0.015625)"/>
       </defs>
       <use xlink:href="#Cambria-379"/>
       <use xlink:href="#Cambria-377" transform="translate(55.375 0)"/>
       <use xlink:href="#Cambria-372" transform="translate(110.75 0)"/>
       <use xlink:href="#Cambria-3" transform="translate(166.125 0)"/>
       <use xlink:href="#Cambria-89" transform="translate(188.140625 0)"/>
       <use xlink:href="#Cambria-87" transform="translate(237.5625 0)"/>
       <use xlink:href="#Cambria-90" transform="translate(286.34375 0)"/>
       <use xlink:href="#Cambria-97" transform="translate(342.15625 0)"/>
       <use xlink:href="#Cambria-95" transform="translate(397.375 0)"/>
       <use xlink:href="#Cambria-1e6" transform="translate(440.34375 0)"/>
       <use xlink:href="#Cambria-91" transform="translate(473.546875 0)"/>
       <use xlink:href="#Cambria-90" transform="translate(526.625 0)"/>
       <use xlink:href="#Cambria-87" transform="translate(582.4375 0)"/>
      </g>
      <!-- rows ($|h|\leq 24$) -->
      <g style="fill: #52514e" transform="translate(68.155079 213.527783) scale(0.078 -0.078)">
       <defs>
        <path id="Cambria-94" d="M 1147 2469 
L 1191 2459 
Q 1363 2669 1509 2789 
Q 1656 2909 1826 2975 
Q 1997 3041 2213 3041 
Q 2394 3041 2541 3022 
L 2541 2303 
L 2188 2303 
Q 2113 2472 2028 2548 
Q 1944 2625 1797 2625 
Q 1684 2625 1573 2559 
Q 1463 2494 1359 2369 
Q 1256 2244 1217 2134 
Q 1178 2025 1178 1875 
L 1178 781 
Q 1178 497 1212 389 
Q 1247 281 1326 231 
Q 1406 181 1566 153 
L 1566 0 
L 306 0 
L 306 153 
Q 425 191 476 219 
Q 528 247 565 297 
Q 603 347 622 450 
Q 641 553 641 772 
L 641 2134 
Q 641 2334 634 2456 
Q 628 2578 590 2651 
Q 553 2725 476 2761 
Q 400 2797 259 2822 
L 259 2984 
L 991 3016 
L 1181 3016 
L 1147 2469 
z
" transform="scale(0.015625)"/>
        <path id="Cambria-99" d="M 2494 2334 
L 1675 -16 
L 1241 -16 
L 491 2303 
Q 419 2528 370 2620 
Q 322 2713 267 2758 
Q 213 2803 91 2834 
L 91 2988 
L 1325 2988 
L 1325 2834 
Q 1144 2797 1080 2736 
Q 1016 2675 1016 2553 
Q 1016 2469 1034 2376 
Q 1053 2284 1091 2163 
L 1581 569 
L 2384 2988 
L 2825 2988 
L 3506 569 
L 4056 2097 
Q 4100 2216 4128 2323 
Q 4156 2431 4156 2525 
Q 4156 2656 4086 2728 
Q 4016 2800 3847 2834 
L 3847 2988 
L 4938 2988 
L 4938 2834 
Q 4850 2813 4806 2789 
Q 4763 2766 4720 2720 
Q 4678 2675 4626 2579 
Q 4575 2484 4497 2284 
L 3594 -16 
L 3172 -16 
L 2494 2334 
z
" transform="scale(0.015625)"/>
        <path id="Cambria-20b" d="M 2309 -1359 
Q 1778 -1359 1442 -1200 
Q 1106 -1041 918 -714 
Q 731 -388 647 134 
Q 563 656 563 1550 
Q 563 2438 645 2964 
Q 728 3491 915 3822 
Q 1103 4153 1440 4318 
Q 1778 4484 2309 4484 
L 2309 4228 
Q 2091 4228 1922 4191 
Q 1731 4147 1597 4022 
Q 1447 3884 1353 3638 
Q 1244 3350 1191 2875 
Q 1134 2372 1134 1575 
Q 1134 872 1181 379 
Q 1228 -113 1338 -425 
Q 1425 -688 1556 -834 
Q 1672 -963 1831 -1028 
Q 2016 -1103 2309 -1103 
L 2309 -1359 
z
" transform="scale(0.015625)"/>
        <path id="Cmsy10-2f" d="M 763 -1484 
L 763 4684 
Q 763 4734 800 4767 
Q 838 4800 891 4800 
Q 938 4800 978 4767 
Q 1019 4734 1019 4684 
L 1019 -1484 
Q 1019 -1534 978 -1567 
Q 938 -1600 891 -1600 
Q 838 -1600 800 -1567 
Q 763 -1534 763 -1484 
z
" transform="scale(0.015625)"/>
        <path id="Cmmi10-5f" d="M 341 116 
Q 341 153 347 172 
L 1275 3872 
Q 1300 3981 1306 4044 
Q 1306 4147 891 4147 
Q 825 4147 825 4231 
Q 828 4247 839 4287 
Q 850 4328 867 4350 
Q 884 4372 916 4372 
L 1778 4441 
L 1797 4441 
Q 1797 4434 1819 4423 
Q 1841 4413 1844 4409 
Q 1856 4378 1856 4359 
L 1356 2363 
Q 1750 2828 2291 2828 
Q 2516 2828 2680 2750 
Q 2844 2672 2936 2514 
Q 3028 2356 3028 2138 
Q 3028 1875 2911 1503 
Q 2794 1131 2619 672 
Q 2528 463 2528 288 
Q 2528 97 2675 97 
Q 2925 97 3092 364 
Q 3259 631 3328 941 
Q 3341 978 3378 978 
L 3456 978 
Q 3481 978 3497 961 
Q 3513 944 3513 922 
Q 3513 916 3506 903 
Q 3450 672 3339 448 
Q 3228 225 3059 76 
Q 2891 -72 2663 -72 
Q 2438 -72 2278 83 
Q 2119 238 2119 459 
Q 2119 578 2169 709 
Q 2350 1191 2470 1569 
Q 2591 1947 2591 2234 
Q 2591 2419 2519 2541 
Q 2447 2663 2278 2663 
Q 1934 2663 1678 2452 
Q 1422 2241 1234 1894 
L 800 147 
Q 775 50 703 -11 
Q 631 -72 538 -72 
Q 456 -72 398 -17 
Q 341 38 341 116 
z
" transform="scale(0.015625)"/>
        <path id="Cmsy10-e" d="M 653 -878 
Q 600 -878 565 -837 
Q 531 -797 531 -750 
Q 531 -697 565 -659 
Q 600 -622 653 -622 
L 4325 -622 
Q 4375 -622 4408 -659 
Q 4441 -697 4441 -750 
Q 4441 -797 4408 -837 
Q 4375 -878 4325 -878 
L 653 -878 
z
M 594 2113 
Q 531 2131 531 2222 
Q 531 2303 616 2338 
L 4269 4063 
Q 4281 4072 4313 4072 
Q 4366 4072 4403 4034 
Q 4441 3997 4441 3944 
Q 4441 3859 4366 3828 
L 959 2222 
L 4384 603 
Q 4441 572 4441 494 
Q 4441 438 4403 402 
Q 4366 366 4313 366 
Q 4281 366 4269 378 
L 594 2113 
z
" transform="scale(0.015625)"/>
        <path id="Cmr10-31" d="M 319 0 
L 319 172 
Q 319 188 331 206 
L 1325 1306 
Q 1550 1550 1690 1715 
Q 1831 1881 1968 2097 
Q 2106 2313 2186 2536 
Q 2266 2759 2266 3009 
Q 2266 3272 2169 3511 
Q 2072 3750 1880 3894 
Q 1688 4038 1416 4038 
Q 1138 4038 916 3870 
Q 694 3703 603 3438 
Q 628 3444 672 3444 
Q 816 3444 917 3347 
Q 1019 3250 1019 3097 
Q 1019 2950 917 2848 
Q 816 2747 672 2747 
Q 522 2747 420 2851 
Q 319 2956 319 3097 
Q 319 3338 409 3548 
Q 500 3759 670 3923 
Q 841 4088 1055 4175 
Q 1269 4263 1509 4263 
Q 1875 4263 2190 4108 
Q 2506 3953 2690 3670 
Q 2875 3388 2875 3009 
Q 2875 2731 2753 2481 
Q 2631 2231 2440 2026 
Q 2250 1822 1953 1562 
Q 1656 1303 1563 1216 
L 838 519 
L 1453 519 
Q 1906 519 2211 526 
Q 2516 534 2534 550 
Q 2609 631 2688 1141 
L 2875 1141 
L 2694 0 
L 319 0 
z
" transform="scale(0.015625)"/>
        <path id="Cmr10-3b" d="M 178 1056 
L 178 1281 
L 2156 4231 
Q 2178 4263 2222 4263 
L 2316 4263 
Q 2388 4263 2388 4191 
L 2388 1281 
L 3016 1281 
L 3016 1056 
L 2388 1056 
L 2388 428 
Q 2388 297 2575 261 
Q 2763 225 3009 225 
L 3009 0 
L 1247 0 
L 1247 225 
Q 1494 225 1681 261 
Q 1869 297 1869 428 
L 1869 1056 
L 178 1056 
z
M 391 1281 
L 1906 1281 
L 1906 3547 
L 391 1281 
z
" transform="scale(0.015625)"/>
        <path id="Cambria-20c" d="M 134 4484 
Q 666 4484 1002 4325 
Q 1338 4166 1525 3839 
Q 1713 3513 1797 2991 
Q 1881 2469 1881 1575 
Q 1881 688 1798 161 
Q 1716 -366 1528 -697 
Q 1341 -1028 1003 -1193 
Q 666 -1359 134 -1359 
L 134 -1103 
Q 353 -1103 522 -1066 
Q 713 -1022 847 -897 
Q 997 -759 1091 -513 
Q 1200 -225 1253 250 
Q 1309 753 1309 1550 
Q 1309 2253 1262 2745 
Q 1216 3238 1106 3550 
Q 1019 3813 888 3959 
Q 772 4088 613 4153 
Q 428 4228 134 4228 
L 134 4484 
z
" transform="scale(0.015625)"/>
       </defs>
       <use xlink:href="#Cambria-94"/>
       <use xlink:href="#Cambria-91" transform="translate(41.357422 0)"/>
       <use xlink:href="#Cambria-99" transform="translate(94.433594 0)"/>
       <use xlink:href="#Cambria-95" transform="translate(171.875 0)"/>
       <use xlink:href="#Cambria-3" transform="translate(214.84375 0)"/>
       <use xlink:href="#Cambria-20b" transform="translate(236.865234 0)"/>
       <use xlink:href="#Cmsy10-2f" transform="translate(275.048828 0)"/>
       <use xlink:href="#Cmmi10-5f" transform="translate(302.734375 0)"/>
       <use xlink:href="#Cmsy10-2f" transform="translate(360.351562 0)"/>
       <use xlink:href="#Cmsy10-e" transform="translate(408.037167 0)"/>
       <use xlink:href="#Cmr10-31" transform="translate(505.722771 0)"/>
       <use xlink:href="#Cmr10-3b" transform="translate(555.722771 0)"/>
       <use xlink:href="#Cambria-20c" transform="translate(605.722771 0)"/>
      </g>
     </g>
    </g>
    <g id="xtick_2">
     <g id="line2d_3">
      <path d="M 177.611106 190.644043 
L 177.611106 25.311816 
" clip-path="url(#pb8b616cceb)" style="fill: none; stroke: #e1e0d9; stroke-width: 0.7; stroke-linecap: square"/>
     </g>
     <g id="line2d_4">
      <g>
       <use xlink:href="#md886dcb9fa" x="177.611106" y="190.644043" style="fill: #898781; stroke: #898781; stroke-width: 0.8"/>
      </g>
     </g>
     <g id="text_2">
      <!-- after congruence -->
      <g style="fill: #52514e" transform="translate(149.504294 204.38335) scale(0.078 -0.078)">
       <defs>
        <path id="Cambria-83" d="M 2109 447 
L 2063 459 
Q 1791 181 1552 65 
Q 1313 -50 1044 -50 
Q 806 -50 625 42 
Q 444 134 347 301 
Q 250 469 250 688 
Q 250 1144 701 1392 
Q 1153 1641 2056 1681 
L 2056 1884 
Q 2056 2209 1993 2396 
Q 1931 2584 1797 2671 
Q 1663 2759 1438 2759 
Q 1194 2759 1045 2631 
Q 897 2503 822 2247 
L 413 2247 
L 413 2653 
Q 713 2809 913 2882 
Q 1113 2956 1313 2998 
Q 1513 3041 1719 3041 
Q 2028 3041 2215 2942 
Q 2403 2844 2497 2641 
Q 2591 2438 2591 2028 
L 2591 941 
Q 2591 709 2594 614 
Q 2597 519 2612 437 
Q 2628 356 2659 307 
Q 2691 259 2752 225 
Q 2813 191 2950 153 
L 2950 0 
L 2094 0 
L 2109 447 
z
M 2056 1425 
Q 1422 1419 1106 1256 
Q 791 1094 791 766 
Q 791 588 862 484 
Q 934 381 1043 342 
Q 1153 303 1303 303 
Q 1516 303 1689 406 
Q 1863 509 1959 668 
Q 2056 828 2056 984 
L 2056 1425 
z
" transform="scale(0.015625)"/>
        <path id="Cambria-88" d="M 1909 2672 
L 1163 2672 
L 1163 781 
Q 1163 572 1183 465 
Q 1203 359 1242 304 
Q 1281 250 1345 217 
Q 1409 184 1550 153 
L 1550 0 
L 272 0 
L 272 153 
Q 409 191 468 225 
Q 528 259 561 312 
Q 594 366 609 466 
Q 625 566 625 781 
L 625 2672 
L 247 2672 
L 247 2831 
Q 366 2850 405 2861 
Q 444 2872 480 2894 
Q 516 2916 542 2956 
Q 569 2997 589 3076 
Q 609 3156 622 3300 
Q 650 3641 745 3853 
Q 841 4066 1023 4216 
Q 1206 4366 1414 4427 
Q 1622 4488 1903 4488 
Q 2150 4488 2322 4453 
L 2322 3888 
L 2013 3888 
Q 1953 4072 1873 4148 
Q 1794 4225 1650 4225 
Q 1547 4225 1476 4197 
Q 1406 4169 1347 4109 
Q 1288 4050 1245 3950 
Q 1203 3850 1183 3701 
Q 1163 3553 1163 3316 
L 1163 2988 
L 1909 2988 
L 1909 2672 
z
" transform="scale(0.015625)"/>
        <path id="Cambria-96" d="M 116 2831 
Q 272 2856 369 2918 
Q 466 2981 520 3079 
Q 575 3178 606 3326 
Q 638 3475 672 3759 
L 1116 3759 
L 1116 2988 
L 2125 2988 
L 2125 2672 
L 1116 2672 
L 1116 1281 
Q 1116 978 1141 798 
Q 1166 619 1234 517 
Q 1303 416 1390 372 
Q 1478 328 1616 328 
Q 1741 328 1850 379 
Q 1959 431 2066 528 
L 2206 359 
Q 1984 144 1786 47 
Q 1588 -50 1375 -50 
Q 972 -50 775 189 
Q 578 428 578 938 
L 578 2672 
L 116 2672 
L 116 2831 
z
" transform="scale(0.015625)"/>
        <path id="Cambria-85" d="M 2631 2916 
L 2631 2263 
L 2234 2263 
Q 2181 2466 2103 2583 
Q 2025 2700 1922 2747 
Q 1819 2794 1666 2794 
Q 1447 2794 1278 2653 
Q 1109 2513 1011 2225 
Q 913 1938 913 1522 
Q 913 1256 950 1036 
Q 988 816 1078 659 
Q 1169 503 1319 415 
Q 1469 328 1691 328 
Q 1906 328 2092 412 
Q 2278 497 2478 709 
L 2656 503 
Q 2497 328 2375 233 
Q 2253 138 2114 73 
Q 1975 9 1839 -20 
Q 1703 -50 1544 -50 
Q 953 -50 640 342 
Q 328 734 328 1475 
Q 328 1938 503 2295 
Q 678 2653 993 2847 
Q 1309 3041 1722 3041 
Q 1978 3041 2195 3011 
Q 2413 2981 2631 2916 
z
" transform="scale(0.015625)"/>
       </defs>
       <use xlink:href="#Cambria-83"/>
       <use xlink:href="#Cambria-88" transform="translate(48.828125 0)"/>
       <use xlink:href="#Cambria-96" transform="translate(79.109375 0)"/>
       <use xlink:href="#Cambria-87" transform="translate(112.078125 0)"/>
       <use xlink:href="#Cambria-94" transform="translate(160.859375 0)"/>
       <use xlink:href="#Cambria-3" transform="translate(202.21875 0)"/>
       <use xlink:href="#Cambria-85" transform="translate(224.234375 0)"/>
       <use xlink:href="#Cambria-91" transform="translate(268.328125 0)"/>
       <use xlink:href="#Cambria-90" transform="translate(321.40625 0)"/>
       <use xlink:href="#Cambria-89" transform="translate(377.21875 0)"/>
       <use xlink:href="#Cambria-94" transform="translate(426.640625 0)"/>
       <use xlink:href="#Cambria-97" transform="translate(468 0)"/>
       <use xlink:href="#Cambria-87" transform="translate(523.21875 0)"/>
       <use xlink:href="#Cambria-90" transform="translate(572 0)"/>
       <use xlink:href="#Cambria-85" transform="translate(627.8125 0)"/>
       <use xlink:href="#Cambria-87" transform="translate(671.90625 0)"/>
      </g>
      <!-- sieve mod $2^k$, odd $p\leq 251$ -->
      <g style="fill: #52514e" transform="translate(134.789106 214.480693) scale(0.078 -0.078)">
       <defs>
        <path id="Cambria-8b" d="M 1197 4213 
L 1197 3606 
L 622 3606 
L 622 4213 
L 1197 4213 
z
M 303 153 
Q 425 191 476 219 
Q 528 247 564 297 
Q 600 347 620 450 
Q 641 553 641 772 
L 641 2134 
Q 641 2334 634 2456 
Q 628 2578 590 2651 
Q 553 2725 476 2761 
Q 400 2797 259 2822 
L 259 2988 
L 988 3016 
L 1178 3016 
L 1178 781 
Q 1178 513 1203 408 
Q 1228 303 1298 248 
Q 1369 194 1528 153 
L 1528 0 
L 303 0 
L 303 153 
z
" transform="scale(0.015625)"/>
        <path id="Cambria-98" d="M 1334 2988 
L 1334 2834 
Q 1191 2800 1131 2769 
Q 1072 2738 1042 2688 
Q 1013 2638 1013 2553 
Q 1013 2469 1033 2376 
Q 1053 2284 1097 2163 
L 1641 581 
L 2278 2097 
Q 2341 2247 2366 2344 
Q 2391 2441 2391 2525 
Q 2391 2656 2320 2725 
Q 2250 2794 2063 2834 
L 2063 2988 
L 3231 2988 
L 3231 2834 
Q 3109 2809 3043 2757 
Q 2978 2706 2912 2595 
Q 2847 2484 2756 2284 
L 1703 -31 
L 1334 -31 
L 488 2303 
Q 400 2544 348 2633 
Q 297 2722 236 2765 
Q 175 2809 59 2834 
L 59 2988 
L 1334 2988 
z
" transform="scale(0.015625)"/>
        <path id="Cambria-8f" d="M 1147 2506 
L 1191 2494 
Q 1378 2681 1498 2776 
Q 1619 2872 1731 2930 
Q 1844 2988 1942 3013 
Q 2041 3038 2144 3038 
Q 2456 3038 2653 2894 
Q 2850 2750 2925 2453 
Q 3159 2691 3304 2803 
Q 3450 2916 3601 2977 
Q 3753 3038 3928 3038 
Q 4138 3038 4289 2977 
Q 4441 2916 4545 2789 
Q 4650 2663 4698 2472 
Q 4747 2281 4747 1959 
L 4747 781 
Q 4747 544 4762 453 
Q 4778 363 4808 313 
Q 4838 263 4897 227 
Q 4956 191 5097 153 
L 5097 0 
L 3869 0 
L 3869 153 
Q 3991 191 4044 219 
Q 4097 247 4133 297 
Q 4169 347 4189 451 
Q 4209 556 4209 769 
L 4209 1588 
Q 4209 1853 4195 2026 
Q 4181 2200 4151 2303 
Q 4122 2406 4080 2465 
Q 4038 2525 3984 2569 
Q 3931 2613 3859 2638 
Q 3788 2663 3669 2663 
Q 3544 2663 3436 2613 
Q 3328 2563 3201 2444 
Q 3075 2325 3019 2204 
Q 2963 2084 2963 1922 
L 2963 781 
Q 2963 544 2978 453 
Q 2994 363 3023 313 
Q 3053 263 3112 227 
Q 3172 191 3313 153 
L 3313 0 
L 2084 0 
L 2084 153 
Q 2206 191 2259 219 
Q 2313 247 2348 297 
Q 2384 347 2404 451 
Q 2425 556 2425 769 
L 2425 1588 
Q 2425 1866 2409 2041 
Q 2394 2216 2361 2322 
Q 2328 2428 2276 2493 
Q 2225 2559 2172 2593 
Q 2119 2628 2047 2645 
Q 1975 2663 1884 2663 
Q 1756 2663 1643 2605 
Q 1531 2547 1414 2437 
Q 1297 2328 1237 2209 
Q 1178 2091 1178 1953 
L 1178 781 
Q 1178 603 1187 509 
Q 1197 416 1217 362 
Q 1238 309 1269 276 
Q 1300 244 1358 214 
Q 1416 184 1531 153 
L 1531 0 
L 306 0 
L 306 153 
Q 425 191 476 219 
Q 528 247 565 297 
Q 603 347 622 450 
Q 641 553 641 772 
L 641 2134 
Q 641 2334 634 2456 
Q 628 2578 590 2651 
Q 553 2725 476 2761 
Q 400 2797 259 2822 
L 259 2988 
L 991 3016 
L 1181 3016 
L 1147 2506 
z
" transform="scale(0.015625)"/>
        <path id="Cambria-86" d="M 2413 3397 
Q 2413 3697 2408 3815 
Q 2403 3934 2383 4017 
Q 2363 4100 2327 4147 
Q 2291 4194 2230 4222 
Q 2169 4250 2009 4278 
L 2009 4441 
L 2766 4472 
L 2950 4472 
L 2950 853 
Q 2950 609 2959 504 
Q 2969 400 3000 337 
Q 3031 275 3098 236 
Q 3166 197 3334 163 
L 3334 0 
L 2597 -31 
L 2409 -31 
L 2447 481 
L 2400 494 
Q 2203 284 2058 179 
Q 1913 75 1748 12 
Q 1584 -50 1397 -50 
Q 884 -50 606 339 
Q 328 728 328 1463 
Q 328 1975 509 2333 
Q 691 2691 998 2866 
Q 1306 3041 1691 3041 
Q 1897 3041 2065 3008 
Q 2234 2975 2413 2900 
L 2413 3397 
z
M 2413 1853 
Q 2413 2097 2391 2244 
Q 2369 2391 2317 2491 
Q 2266 2591 2178 2659 
Q 2091 2728 1986 2759 
Q 1881 2791 1734 2791 
Q 1334 2791 1125 2470 
Q 916 2150 916 1550 
Q 916 950 1087 637 
Q 1259 325 1609 325 
Q 1747 325 1837 348 
Q 1928 372 2015 423 
Q 2103 475 2193 565 
Q 2284 656 2326 731 
Q 2369 806 2391 903 
Q 2413 1000 2413 1153 
L 2413 1853 
z
" transform="scale(0.015625)"/>
        <path id="Cmmi10-3e" d="M 341 116 
Q 341 153 347 172 
L 1275 3872 
Q 1300 3981 1306 4044 
Q 1306 4147 891 4147 
Q 825 4147 825 4231 
Q 828 4247 839 4287 
Q 850 4328 867 4350 
Q 884 4372 916 4372 
L 1778 4441 
L 1797 4441 
Q 1797 4434 1819 4423 
Q 1841 4413 1844 4409 
Q 1856 4378 1856 4359 
L 1184 1684 
Q 1416 1781 1767 2145 
Q 2119 2509 2317 2668 
Q 2516 2828 2816 2828 
Q 2994 2828 3119 2706 
Q 3244 2584 3244 2406 
Q 3244 2294 3197 2198 
Q 3150 2103 3065 2043 
Q 2981 1984 2869 1984 
Q 2766 1984 2695 2048 
Q 2625 2113 2625 2216 
Q 2625 2369 2733 2473 
Q 2841 2578 2994 2578 
Q 2931 2663 2803 2663 
Q 2613 2663 2436 2553 
Q 2259 2444 2054 2239 
Q 1850 2034 1681 1864 
Q 1513 1694 1369 1606 
Q 1747 1563 2025 1408 
Q 2303 1253 2303 934 
Q 2303 869 2278 769 
Q 2222 528 2222 384 
Q 2222 97 2419 97 
Q 2650 97 2770 350 
Q 2891 603 2969 941 
Q 2981 978 3022 978 
L 3097 978 
Q 3122 978 3139 962 
Q 3156 947 3156 922 
Q 3156 916 3150 903 
Q 2909 -72 2406 -72 
Q 2225 -72 2086 12 
Q 1947 97 1872 242 
Q 1797 388 1797 569 
Q 1797 672 1825 781 
Q 1844 856 1844 922 
Q 1844 1169 1625 1297 
Q 1406 1425 1125 1453 
L 800 147 
Q 775 50 703 -11 
Q 631 -72 538 -72 
Q 456 -72 398 -17 
Q 341 38 341 116 
z
" transform="scale(0.015625)"/>
        <path id="Cambria-1e1" d="M 966 725 
Q 1009 506 1009 294 
Q 1009 75 934 -106 
Q 859 -288 695 -467 
Q 531 -647 244 -863 
L 75 -672 
Q 234 -522 306 -401 
Q 378 -281 409 -128 
Q 441 25 441 256 
Q 441 494 419 725 
L 966 725 
z
" transform="scale(0.015625)"/>
        <path id="Cmmi10-80" d="M -159 -1241 
Q -219 -1241 -219 -1159 
Q -197 -1019 -134 -1019 
Q 66 -1019 145 -983 
Q 225 -947 269 -800 
L 991 2081 
Q 1038 2200 1038 2388 
Q 1038 2663 850 2663 
Q 650 2663 553 2423 
Q 456 2184 366 1819 
Q 366 1778 313 1778 
L 238 1778 
Q 222 1778 203 1801 
Q 184 1825 184 1844 
Q 253 2122 317 2315 
Q 381 2509 517 2668 
Q 653 2828 856 2828 
Q 1075 2828 1240 2704 
Q 1406 2581 1453 2369 
Q 1628 2572 1840 2700 
Q 2053 2828 2278 2828 
Q 2547 2828 2745 2684 
Q 2944 2541 3044 2308 
Q 3144 2075 3144 1806 
Q 3144 1394 2933 953 
Q 2722 513 2361 220 
Q 2000 -72 1588 -72 
Q 1400 -72 1248 34 
Q 1097 141 1013 313 
L 722 -825 
Q 706 -919 703 -934 
Q 703 -1019 1125 -1019 
Q 1191 -1019 1191 -1100 
Q 1169 -1184 1155 -1212 
Q 1141 -1241 1081 -1241 
L -159 -1241 
z
M 1594 97 
Q 1816 97 2006 280 
Q 2197 463 2316 691 
Q 2403 863 2479 1111 
Q 2556 1359 2612 1640 
Q 2669 1922 2669 2088 
Q 2669 2234 2630 2362 
Q 2591 2491 2502 2577 
Q 2413 2663 2266 2663 
Q 2031 2663 1823 2495 
Q 1616 2328 1447 2081 
L 1447 2059 
L 1094 647 
Q 1138 419 1263 258 
Q 1388 97 1594 97 
z
" transform="scale(0.015625)"/>
        <path id="Cmr10-78" d="M 556 728 
Q 622 541 758 387 
Q 894 234 1080 148 
Q 1266 63 1466 63 
Q 1928 63 2103 422 
Q 2278 781 2278 1294 
Q 2278 1516 2270 1667 
Q 2263 1819 2228 1959 
Q 2169 2184 2020 2353 
Q 1872 2522 1656 2522 
Q 1441 2522 1286 2456 
Q 1131 2391 1034 2303 
Q 938 2216 863 2119 
Q 788 2022 769 2016 
L 697 2016 
Q 681 2016 657 2036 
Q 634 2056 634 2075 
L 634 4213 
Q 634 4228 654 4245 
Q 675 4263 697 4263 
L 716 4263 
Q 1147 4056 1631 4056 
Q 2106 4056 2547 4263 
L 2566 4263 
Q 2588 4263 2606 4247 
Q 2625 4231 2625 4213 
L 2625 4153 
Q 2625 4122 2613 4122 
Q 2394 3831 2064 3668 
Q 1734 3506 1381 3506 
Q 1125 3506 856 3578 
L 856 2369 
Q 1069 2541 1236 2614 
Q 1403 2688 1663 2688 
Q 2016 2688 2295 2484 
Q 2575 2281 2725 1954 
Q 2875 1628 2875 1288 
Q 2875 903 2686 575 
Q 2497 247 2172 53 
Q 1847 -141 1466 -141 
Q 1150 -141 886 21 
Q 622 184 470 459 
Q 319 734 319 1044 
Q 319 1188 412 1278 
Q 506 1369 647 1369 
Q 788 1369 883 1276 
Q 978 1184 978 1044 
Q 978 906 883 811 
Q 788 716 647 716 
Q 625 716 597 720 
Q 569 725 556 728 
z
" transform="scale(0.015625)"/>
        <path id="Cmr10-64" d="M 594 0 
L 594 225 
Q 1394 225 1394 428 
L 1394 3788 
Q 1063 3628 556 3628 
L 556 3853 
Q 1341 3853 1741 4263 
L 1831 4263 
Q 1853 4263 1873 4245 
Q 1894 4228 1894 4206 
L 1894 428 
Q 1894 225 2694 225 
L 2694 0 
L 594 0 
z
" transform="scale(0.015625)"/>
       </defs>
       <use xlink:href="#Cambria-95" transform="translate(0 0.137328)"/>
       <use xlink:href="#Cambria-8b" transform="translate(42.96875 0.137328)"/>
       <use xlink:href="#Cambria-87" transform="translate(70.751953 0.137328)"/>
       <use xlink:href="#Cambria-98" transform="translate(119.53125 0.137328)"/>
       <use xlink:href="#Cambria-87" transform="translate(169.921875 0.137328)"/>
       <use xlink:href="#Cambria-3" transform="translate(218.701172 0.137328)"/>
       <use xlink:href="#Cambria-8f" transform="translate(240.722656 0.137328)"/>
       <use xlink:href="#Cambria-91" transform="translate(323.925781 0.137328)"/>
       <use xlink:href="#Cambria-86" transform="translate(377.001953 0.137328)"/>
       <use xlink:href="#Cambria-3" transform="translate(432.470703 0.137328)"/>
       <use xlink:href="#Cmr10-31" transform="translate(454.492188 0.137328)"/>
       <use xlink:href="#Cmmi10-3e" transform="translate(508.496478 41.426563) scale(0.7)"/>
       <use xlink:href="#Cambria-1e1" transform="translate(550.618261 0.137328)"/>
       <use xlink:href="#Cambria-3" transform="translate(571.126074 0.137328)"/>
       <use xlink:href="#Cambria-91" transform="translate(593.147558 0.137328)"/>
       <use xlink:href="#Cambria-86" transform="translate(646.22373 0.137328)"/>
       <use xlink:href="#Cambria-86" transform="translate(701.69248 0.137328)"/>
       <use xlink:href="#Cambria-3" transform="translate(757.16123 0.137328)"/>
       <use xlink:href="#Cmmi10-80" transform="translate(779.182714 0.137328)"/>
       <use xlink:href="#Cmsy10-e" transform="translate(849.47574 0.137328)"/>
       <use xlink:href="#Cmr10-31" transform="translate(947.161344 0.137328)"/>
       <use xlink:href="#Cmr10-78" transform="translate(997.161344 0.137328)"/>
       <use xlink:href="#Cmr10-64" transform="translate(1047.161344 0.137328)"/>
      </g>
     </g>
    </g>
    <g id="xtick_3">
     <g id="line2d_5">
      <path d="M 261.951133 190.644043 
L 261.951133 25.311816 
" clip-path="url(#pb8b616cceb)" style="fill: none; stroke: #e1e0d9; stroke-width: 0.7; stroke-linecap: square"/>
     </g>
     <g id="line2d_6">
      <g>
       <use xlink:href="#md886dcb9fa" x="261.951133" y="190.644043" style="fill: #898781; stroke: #898781; stroke-width: 0.8"/>
      </g>
     </g>
     <g id="text_3">
      <!-- after exact -->
      <g style="fill: #52514e" transform="translate(244.572977 204.38335) scale(0.078 -0.078)">
       <defs>
        <path id="Cambria-9a" d="M 1625 1803 
L 2031 2319 
Q 2097 2403 2137 2483 
Q 2178 2563 2178 2647 
Q 2178 2719 2125 2766 
Q 2072 2813 1959 2834 
L 1959 2988 
L 2981 2988 
L 2981 2834 
Q 2863 2800 2739 2700 
Q 2616 2600 2438 2378 
L 1791 1584 
L 2503 625 
Q 2656 419 2778 309 
Q 2900 200 3022 153 
L 3022 0 
L 1766 0 
L 1766 153 
Q 2025 184 2025 347 
Q 2025 413 2003 472 
Q 1981 531 1922 609 
L 1469 1241 
L 988 616 
Q 934 547 904 489 
Q 875 431 875 359 
Q 875 275 933 220 
Q 991 166 1116 153 
L 1116 0 
L 72 0 
L 72 153 
Q 175 191 258 247 
Q 341 303 427 392 
Q 513 481 653 653 
L 1303 1459 
L 638 2372 
Q 500 2559 419 2643 
Q 338 2728 269 2772 
Q 200 2816 131 2834 
L 131 2988 
L 1356 2988 
L 1356 2834 
Q 1109 2797 1109 2641 
Q 1109 2569 1142 2497 
Q 1175 2425 1244 2338 
L 1625 1803 
z
" transform="scale(0.015625)"/>
       </defs>
       <use xlink:href="#Cambria-83"/>
       <use xlink:href="#Cambria-88" transform="translate(48.828125 0)"/>
       <use xlink:href="#Cambria-96" transform="translate(79.109375 0)"/>
       <use xlink:href="#Cambria-87" transform="translate(112.078125 0)"/>
       <use xlink:href="#Cambria-94" transform="translate(160.859375 0)"/>
       <use xlink:href="#Cambria-3" transform="translate(202.21875 0)"/>
       <use xlink:href="#Cambria-87" transform="translate(224.234375 0)"/>
       <use xlink:href="#Cambria-9a" transform="translate(271.84375 0)"/>
       <use xlink:href="#Cambria-83" transform="translate(318.828125 0)"/>
       <use xlink:href="#Cambria-85" transform="translate(367.65625 0)"/>
       <use xlink:href="#Cambria-96" transform="translate(411.75 0)"/>
      </g>
      <!-- real-sign analysis -->
      <g style="fill: #52514e" transform="translate(233.188023 213.527783) scale(0.078 -0.078)">
       <defs>
        <path id="Cambria-8e" d="M 1138 781 
Q 1138 513 1163 408 
Q 1188 303 1258 248 
Q 1328 194 1488 153 
L 1488 0 
L 247 0 
L 247 153 
Q 403 194 464 237 
Q 525 281 551 342 
Q 578 403 589 508 
Q 600 613 600 781 
L 600 3397 
Q 600 3697 595 3815 
Q 591 3934 570 4017 
Q 550 4100 514 4147 
Q 478 4194 417 4222 
Q 356 4250 197 4278 
L 197 4441 
L 950 4472 
L 1138 4472 
L 1138 781 
z
" transform="scale(0.015625)"/>
        <path id="Cambria-9b" d="M 1625 -256 
Q 1453 -644 1290 -884 
Q 1128 -1125 933 -1247 
Q 738 -1369 469 -1369 
Q 297 -1369 81 -1328 
L 81 -709 
L 359 -709 
Q 397 -838 453 -888 
Q 509 -938 616 -938 
Q 709 -938 782 -902 
Q 856 -866 936 -778 
Q 1016 -691 1123 -509 
Q 1231 -328 1366 -50 
L 491 2303 
Q 406 2531 354 2622 
Q 303 2713 243 2759 
Q 184 2806 63 2834 
L 63 2988 
L 1334 2988 
L 1334 2834 
Q 1188 2800 1128 2767 
Q 1069 2734 1041 2682 
Q 1013 2631 1013 2550 
Q 1013 2466 1033 2375 
Q 1053 2284 1097 2163 
L 1653 597 
L 2278 2097 
Q 2331 2222 2361 2326 
Q 2391 2431 2391 2522 
Q 2391 2656 2317 2725 
Q 2244 2794 2063 2834 
L 2063 2988 
L 3231 2988 
L 3231 2834 
Q 3109 2809 3043 2757 
Q 2978 2706 2912 2595 
Q 2847 2484 2756 2284 
L 1625 -256 
z
" transform="scale(0.015625)"/>
       </defs>
       <use xlink:href="#Cambria-94"/>
       <use xlink:href="#Cambria-87" transform="translate(39.890625 0)"/>
       <use xlink:href="#Cambria-83" transform="translate(88.671875 0)"/>
       <use xlink:href="#Cambria-8e" transform="translate(137.5 0)"/>
       <use xlink:href="#Cambria-1e6" transform="translate(164.65625 0)"/>
       <use xlink:href="#Cambria-95" transform="translate(197.859375 0)"/>
       <use xlink:href="#Cambria-8b" transform="translate(240.828125 0)"/>
       <use xlink:href="#Cambria-89" transform="translate(268.609375 0)"/>
       <use xlink:href="#Cambria-90" transform="translate(318.03125 0)"/>
       <use xlink:href="#Cambria-3" transform="translate(373.84375 0)"/>
       <use xlink:href="#Cambria-83" transform="translate(395.859375 0)"/>
       <use xlink:href="#Cambria-90" transform="translate(444.6875 0)"/>
       <use xlink:href="#Cambria-83" transform="translate(500.5 0)"/>
       <use xlink:href="#Cambria-8e" transform="translate(549.328125 0)"/>
       <use xlink:href="#Cambria-9b" transform="translate(574.484375 0)"/>
       <use xlink:href="#Cambria-95" transform="translate(623.796875 0)"/>
       <use xlink:href="#Cambria-8b" transform="translate(666.765625 0)"/>
       <use xlink:href="#Cambria-95" transform="translate(694.546875 0)"/>
      </g>
     </g>
    </g>
    <g id="xtick_4">
     <g id="line2d_7">
      <path d="M 346.291159 190.644043 
L 346.291159 25.311816 
" clip-path="url(#pb8b616cceb)" style="fill: none; stroke: #e1e0d9; stroke-width: 0.7; stroke-linecap: square"/>
     </g>
     <g id="line2d_8">
      <g>
       <use xlink:href="#md886dcb9fa" x="346.291159" y="190.644043" style="fill: #898781; stroke: #898781; stroke-width: 0.8"/>
      </g>
     </g>
     <g id="text_4">
      <!-- after higher-power -->
      <g style="fill: #52514e" transform="translate(314.741988 204.38335) scale(0.078 -0.078)">
       <defs>
        <path id="Cambria-8a" d="M 1141 2497 
L 1153 2494 
Q 1397 2741 1539 2839 
Q 1681 2938 1820 2988 
Q 1959 3038 2119 3038 
Q 2291 3038 2425 2997 
Q 2559 2956 2661 2873 
Q 2763 2791 2827 2670 
Q 2891 2550 2922 2383 
Q 2953 2216 2953 1959 
L 2953 781 
Q 2953 509 2976 411 
Q 3000 313 3061 258 
Q 3122 203 3306 153 
L 3306 0 
L 2075 0 
L 2075 153 
Q 2197 191 2250 219 
Q 2303 247 2339 297 
Q 2375 347 2395 451 
Q 2416 556 2416 769 
L 2416 1588 
Q 2416 2003 2373 2223 
Q 2331 2444 2207 2553 
Q 2084 2663 1863 2663 
Q 1738 2663 1638 2619 
Q 1538 2575 1406 2462 
Q 1275 2350 1208 2231 
Q 1141 2113 1141 1978 
L 1141 781 
Q 1141 569 1152 478 
Q 1163 388 1194 327 
Q 1225 266 1289 227 
Q 1353 188 1488 153 
L 1488 0 
L 250 0 
L 250 153 
Q 388 191 447 225 
Q 506 259 539 312 
Q 572 366 587 466 
Q 603 566 603 781 
L 603 3397 
Q 603 3697 598 3815 
Q 594 3934 573 4017 
Q 553 4100 517 4147 
Q 481 4194 420 4222 
Q 359 4250 200 4278 
L 200 4441 
L 953 4472 
L 1141 4472 
L 1141 2497 
z
" transform="scale(0.015625)"/>
        <path id="Cambria-92" d="M 1150 94 
L 1150 -566 
Q 1150 -769 1164 -869 
Q 1178 -969 1214 -1026 
Q 1250 -1084 1317 -1121 
Q 1384 -1159 1534 -1191 
L 1534 -1344 
L 259 -1344 
L 259 -1191 
Q 372 -1159 442 -1126 
Q 513 -1094 550 -1030 
Q 588 -966 600 -856 
Q 613 -747 613 -566 
L 613 2116 
Q 613 2341 606 2436 
Q 600 2531 581 2593 
Q 563 2656 527 2697 
Q 491 2738 430 2766 
Q 369 2794 228 2822 
L 228 2988 
L 963 3016 
L 1153 3016 
L 1113 2506 
L 1159 2494 
Q 1353 2691 1465 2780 
Q 1578 2869 1698 2928 
Q 1819 2988 1930 3013 
Q 2041 3038 2166 3038 
Q 2681 3038 2957 2652 
Q 3234 2266 3234 1522 
Q 3234 1006 3078 654 
Q 2922 303 2623 126 
Q 2325 -50 1913 -50 
Q 1681 -50 1493 -11 
Q 1306 28 1150 94 
z
M 1150 1125 
Q 1150 825 1187 662 
Q 1225 500 1320 398 
Q 1416 297 1545 247 
Q 1675 197 1888 197 
Q 2266 197 2456 511 
Q 2647 825 2647 1438 
Q 2647 2663 1931 2663 
Q 1756 2663 1629 2608 
Q 1503 2553 1378 2431 
Q 1253 2309 1201 2195 
Q 1150 2081 1150 1950 
L 1150 1125 
z
" transform="scale(0.015625)"/>
       </defs>
       <use xlink:href="#Cambria-83"/>
       <use xlink:href="#Cambria-88" transform="translate(48.828125 0)"/>
       <use xlink:href="#Cambria-96" transform="translate(79.109375 0)"/>
       <use xlink:href="#Cambria-87" transform="translate(112.078125 0)"/>
       <use xlink:href="#Cambria-94" transform="translate(160.859375 0)"/>
       <use xlink:href="#Cambria-3" transform="translate(202.21875 0)"/>
       <use xlink:href="#Cambria-8a" transform="translate(224.234375 0)"/>
       <use xlink:href="#Cambria-8b" transform="translate(279.40625 0)"/>
       <use xlink:href="#Cambria-89" transform="translate(307.1875 0)"/>
       <use xlink:href="#Cambria-8a" transform="translate(355.921875 0)"/>
       <use xlink:href="#Cambria-87" transform="translate(411.09375 0)"/>
       <use xlink:href="#Cambria-94" transform="translate(459.875 0)"/>
       <use xlink:href="#Cambria-1e6" transform="translate(501.234375 0)"/>
       <use xlink:href="#Cambria-92" transform="translate(534.4375 0)"/>
       <use xlink:href="#Cambria-91" transform="translate(590.046875 0)"/>
       <use xlink:href="#Cambria-99" transform="translate(642.640625 0)"/>
       <use xlink:href="#Cambria-87" transform="translate(718.8125 0)"/>
       <use xlink:href="#Cambria-94" transform="translate(767.59375 0)"/>
      </g>
      <!-- Hensel lifting -->
      <g style="fill: #52514e" transform="translate(324.207409 213.527783) scale(0.078 -0.078)">
       <defs>
        <path id="Cambria-b" d="M 3650 781 
Q 3650 600 3659 509 
Q 3669 419 3691 364 
Q 3713 309 3744 275 
Q 3775 241 3833 212 
Q 3891 184 4013 153 
L 4013 0 
L 2703 0 
L 2703 153 
Q 2875 197 2944 250 
Q 3013 303 3039 412 
Q 3066 522 3066 781 
L 3066 2091 
L 1328 2091 
L 1328 781 
Q 1328 572 1342 475 
Q 1356 378 1389 322 
Q 1422 266 1486 228 
Q 1550 191 1694 153 
L 1694 0 
L 378 0 
L 378 153 
Q 572 203 637 264 
Q 703 325 723 437 
Q 744 550 744 781 
L 744 3484 
Q 744 3700 728 3798 
Q 713 3897 677 3951 
Q 641 4006 581 4039 
Q 522 4072 378 4113 
L 378 4266 
L 1694 4266 
L 1694 4113 
Q 1556 4078 1495 4043 
Q 1434 4009 1398 3957 
Q 1363 3906 1345 3803 
Q 1328 3700 1328 3484 
L 1328 2378 
L 3066 2378 
L 3066 3484 
Q 3066 3756 3039 3856 
Q 3013 3956 2950 4009 
Q 2888 4063 2703 4113 
L 2703 4266 
L 4013 4266 
L 4013 4113 
Q 3838 4069 3769 4014 
Q 3700 3959 3675 3850 
Q 3650 3741 3650 3484 
L 3650 781 
z
" transform="scale(0.015625)"/>
       </defs>
       <use xlink:href="#Cambria-b"/>
       <use xlink:href="#Cambria-87" transform="translate(68.65625 0)"/>
       <use xlink:href="#Cambria-90" transform="translate(117.4375 0)"/>
       <use xlink:href="#Cambria-95" transform="translate(173.25 0)"/>
       <use xlink:href="#Cambria-87" transform="translate(216.21875 0)"/>
       <use xlink:href="#Cambria-8e" transform="translate(265 0)"/>
       <use xlink:href="#Cambria-3" transform="translate(292.15625 0)"/>
       <use xlink:href="#Cambria-8e" transform="translate(314.171875 0)"/>
       <use xlink:href="#Cambria-8b" transform="translate(341.328125 0)"/>
       <use xlink:href="#Cambria-88" transform="translate(369.109375 0)"/>
       <use xlink:href="#Cambria-96" transform="translate(399.390625 0)"/>
       <use xlink:href="#Cambria-8b" transform="translate(433.234375 0)"/>
       <use xlink:href="#Cambria-90" transform="translate(461.015625 0)"/>
       <use xlink:href="#Cambria-89" transform="translate(516.828125 0)"/>
      </g>
     </g>
    </g>
    <g id="xtick_5">
     <g id="line2d_9">
      <path d="M 430.631186 190.644043 
L 430.631186 25.311816 
" clip-path="url(#pb8b616cceb)" style="fill: none; stroke: #e1e0d9; stroke-width: 0.7; stroke-linecap: square"/>
     </g>
     <g id="line2d_10">
      <g>
       <use xlink:href="#md886dcb9fa" x="430.631186" y="190.644043" style="fill: #898781; stroke: #898781; stroke-width: 0.8"/>
      </g>
     </g>
     <g id="text_5">
      <!-- after exact global -->
      <g style="fill: #52514e" transform="translate(402.266608 204.38335) scale(0.078 -0.078)">
       <defs>
        <path id="Cambria-84" d="M 1091 2497 
L 1103 2494 
Q 1322 2722 1467 2825 
Q 1613 2928 1767 2983 
Q 1922 3038 2106 3038 
Q 2441 3038 2680 2867 
Q 2919 2697 3048 2356 
Q 3178 2016 3178 1522 
Q 3178 1013 3023 661 
Q 2869 309 2567 129 
Q 2266 -50 1853 -50 
Q 1622 -50 1417 -8 
Q 1213 34 988 141 
L 769 -50 
L 553 0 
L 553 3397 
Q 553 3697 548 3815 
Q 544 3934 523 4017 
Q 503 4100 467 4147 
Q 431 4194 370 4222 
Q 309 4250 150 4278 
L 150 4441 
L 906 4472 
L 1091 4472 
L 1091 2497 
z
M 1091 1125 
Q 1091 884 1112 742 
Q 1134 600 1186 506 
Q 1238 413 1336 334 
Q 1434 256 1556 226 
Q 1678 197 1828 197 
Q 2203 197 2397 503 
Q 2591 809 2591 1422 
Q 2591 2041 2414 2352 
Q 2238 2663 1881 2663 
Q 1703 2663 1578 2608 
Q 1453 2553 1329 2437 
Q 1206 2322 1148 2209 
Q 1091 2097 1091 1953 
L 1091 1125 
z
" transform="scale(0.015625)"/>
       </defs>
       <use xlink:href="#Cambria-83"/>
       <use xlink:href="#Cambria-88" transform="translate(48.828125 0)"/>
       <use xlink:href="#Cambria-96" transform="translate(79.109375 0)"/>
       <use xlink:href="#Cambria-87" transform="translate(112.078125 0)"/>
       <use xlink:href="#Cambria-94" transform="translate(160.859375 0)"/>
       <use xlink:href="#Cambria-3" transform="translate(202.21875 0)"/>
       <use xlink:href="#Cambria-87" transform="translate(224.234375 0)"/>
       <use xlink:href="#Cambria-9a" transform="translate(271.84375 0)"/>
       <use xlink:href="#Cambria-83" transform="translate(318.828125 0)"/>
       <use xlink:href="#Cambria-85" transform="translate(367.65625 0)"/>
       <use xlink:href="#Cambria-96" transform="translate(411.75 0)"/>
       <use xlink:href="#Cambria-3" transform="translate(445.59375 0)"/>
       <use xlink:href="#Cambria-89" transform="translate(467.609375 0)"/>
       <use xlink:href="#Cambria-8e" transform="translate(516.34375 0)"/>
       <use xlink:href="#Cambria-91" transform="translate(543.5 0)"/>
       <use xlink:href="#Cambria-84" transform="translate(596.578125 0)"/>
       <use xlink:href="#Cambria-83" transform="translate(651.3125 0)"/>
       <use xlink:href="#Cambria-8e" transform="translate(700.140625 0)"/>
      </g>
      <!-- genus-one closure -->
      <g style="fill: #52514e" transform="translate(400.356217 213.527783) scale(0.078 -0.078)">
       <use xlink:href="#Cambria-89"/>
       <use xlink:href="#Cambria-87" transform="translate(49.421875 0)"/>
       <use xlink:href="#Cambria-90" transform="translate(98.203125 0)"/>
       <use xlink:href="#Cambria-97" transform="translate(154.015625 0)"/>
       <use xlink:href="#Cambria-95" transform="translate(209.234375 0)"/>
       <use xlink:href="#Cambria-1e6" transform="translate(252.203125 0)"/>
       <use xlink:href="#Cambria-91" transform="translate(285.40625 0)"/>
       <use xlink:href="#Cambria-90" transform="translate(338.484375 0)"/>
       <use xlink:href="#Cambria-87" transform="translate(394.296875 0)"/>
       <use xlink:href="#Cambria-3" transform="translate(443.078125 0)"/>
       <use xlink:href="#Cambria-85" transform="translate(465.09375 0)"/>
       <use xlink:href="#Cambria-8e" transform="translate(509.1875 0)"/>
       <use xlink:href="#Cambria-91" transform="translate(536.34375 0)"/>
       <use xlink:href="#Cambria-95" transform="translate(589.421875 0)"/>
       <use xlink:href="#Cambria-97" transform="translate(632.390625 0)"/>
       <use xlink:href="#Cambria-94" transform="translate(687.609375 0)"/>
       <use xlink:href="#Cambria-87" transform="translate(727.5 0)"/>
      </g>
     </g>
    </g>
   </g>
   <g id="matplotlib.axis_2">
    <g id="ytick_1">
     <g id="line2d_11">
      <path d="M 47.643125 190.644043 
L 476.259141 190.644043 
" clip-path="url(#pb8b616cceb)" style="fill: none; stroke: #e1e0d9; stroke-width: 0.7; stroke-linecap: square"/>
     </g>
     <g id="line2d_12">
      <defs>
       <path id="md88298137c" d="M 0 0 
L -3.5 0 
" style="stroke: #898781; stroke-width: 0.8"/>
      </defs>
      <g>
       <use xlink:href="#md88298137c" x="47.643125" y="190.644043" style="fill: #898781; stroke: #898781; stroke-width: 0.8"/>
      </g>
     </g>
     <g id="text_6">
      <!-- 0 -->
      <g style="fill: #52514e" transform="translate(34.82875 194.727661) scale(0.105 -0.105)">
       <use xlink:href="#Cambria-372"/>
      </g>
     </g>
    </g>
    <g id="ytick_2">
     <g id="line2d_13">
      <path d="M 47.643125 150.31911 
L 476.259141 150.31911 
" clip-path="url(#pb8b616cceb)" style="fill: none; stroke: #e1e0d9; stroke-width: 0.7; stroke-linecap: square"/>
     </g>
     <g id="line2d_14">
      <g>
       <use xlink:href="#md88298137c" x="47.643125" y="150.31911" style="fill: #898781; stroke: #898781; stroke-width: 0.8"/>
      </g>
     </g>
     <g id="text_7">
      <!-- 200 -->
      <g style="fill: #52514e" transform="translate(23.2 154.402728) scale(0.105 -0.105)">
       <defs>
        <path id="Cambria-374" d="M 2194 500 
Q 2347 500 2440 519 
Q 2534 538 2590 581 
Q 2647 625 2680 695 
Q 2713 766 2763 913 
L 3028 913 
L 2975 0 
L 403 0 
L 403 150 
Q 538 478 766 822 
Q 994 1166 1413 1631 
Q 1775 2031 1934 2238 
Q 2109 2463 2195 2627 
Q 2281 2791 2318 2936 
Q 2356 3081 2356 3228 
Q 2356 3463 2281 3642 
Q 2206 3822 2051 3925 
Q 1897 4028 1663 4028 
Q 1078 4028 875 3378 
L 497 3378 
L 497 3978 
Q 875 4156 1204 4236 
Q 1534 4316 1797 4316 
Q 2378 4316 2675 4061 
Q 2972 3806 2972 3322 
Q 2972 3156 2939 3017 
Q 2906 2878 2836 2742 
Q 2766 2606 2647 2450 
Q 2528 2294 2384 2133 
Q 2241 1972 1888 1597 
Q 1294 969 1016 500 
L 2194 500 
z
" transform="scale(0.015625)"/>
       </defs>
       <use xlink:href="#Cambria-374"/>
       <use xlink:href="#Cambria-372" transform="translate(55.375 0)"/>
       <use xlink:href="#Cambria-372" transform="translate(110.75 0)"/>
      </g>
     </g>
    </g>
    <g id="ytick_3">
     <g id="line2d_15">
      <path d="M 47.643125 109.994176 
L 476.259141 109.994176 
" clip-path="url(#pb8b616cceb)" style="fill: none; stroke: #e1e0d9; stroke-width: 0.7; stroke-linecap: square"/>
     </g>
     <g id="line2d_16">
      <g>
       <use xlink:href="#md88298137c" x="47.643125" y="109.994176" style="fill: #898781; stroke: #898781; stroke-width: 0.8"/>
      </g>
     </g>
     <g id="text_8">
      <!-- 400 -->
      <g style="fill: #52514e" transform="translate(23.2 114.077795) scale(0.105 -0.105)">
       <defs>
        <path id="Cambria-376" d="M 1613 153 
Q 1806 203 1872 264 
Q 1938 325 1958 437 
Q 1978 550 1978 781 
L 1978 1294 
L 241 1294 
L 241 1528 
L 2069 4288 
L 2516 4288 
L 2516 1597 
L 2581 1597 
Q 2763 1597 2841 1623 
Q 2919 1650 2970 1717 
Q 3022 1784 3066 1938 
L 3303 1938 
L 3266 1294 
L 2516 1294 
L 2516 781 
Q 2516 572 2530 475 
Q 2544 378 2576 322 
Q 2609 266 2673 228 
Q 2738 191 2881 153 
L 2881 0 
L 1613 0 
L 1613 153 
z
M 756 1597 
L 1978 1597 
L 1978 2375 
Q 1978 2669 1987 3033 
Q 1997 3397 2009 3581 
L 1978 3581 
L 756 1641 
L 756 1597 
z
" transform="scale(0.015625)"/>
       </defs>
       <use xlink:href="#Cambria-376"/>
       <use xlink:href="#Cambria-372" transform="translate(55.375 0)"/>
       <use xlink:href="#Cambria-372" transform="translate(110.75 0)"/>
      </g>
     </g>
    </g>
    <g id="ytick_4">
     <g id="line2d_17">
      <path d="M 47.643125 69.669243 
L 476.259141 69.669243 
" clip-path="url(#pb8b616cceb)" style="fill: none; stroke: #e1e0d9; stroke-width: 0.7; stroke-linecap: square"/>
     </g>
     <g id="line2d_18">
      <g>
       <use xlink:href="#md88298137c" x="47.643125" y="69.669243" style="fill: #898781; stroke: #898781; stroke-width: 0.8"/>
      </g>
     </g>
     <g id="text_9">
      <!-- 600 -->
      <g style="fill: #52514e" transform="translate(23.2 73.752861) scale(0.105 -0.105)">
       <defs>
        <path id="Cambria-378" d="M 2847 4144 
L 2847 3991 
Q 2366 3991 1994 3784 
Q 1622 3578 1376 3178 
Q 1131 2778 1031 2228 
L 1063 2216 
Q 1325 2403 1579 2490 
Q 1834 2578 2131 2578 
Q 2484 2578 2732 2423 
Q 2981 2269 3106 1989 
Q 3231 1709 3231 1334 
Q 3231 928 3075 617 
Q 2919 306 2592 128 
Q 2266 -50 1788 -50 
Q 1103 -50 754 375 
Q 406 800 406 1628 
Q 406 2184 581 2668 
Q 756 3153 1078 3514 
Q 1400 3875 1825 4083 
Q 2250 4291 2719 4316 
L 2847 4144 
z
M 1916 2250 
Q 1763 2250 1620 2215 
Q 1478 2181 1353 2115 
Q 1228 2050 1109 1950 
Q 1072 1916 1053 1878 
Q 1022 1819 1012 1731 
Q 1003 1644 1003 1438 
Q 1003 841 1203 528 
Q 1403 216 1809 216 
Q 2044 216 2203 297 
Q 2363 378 2461 520 
Q 2559 663 2601 855 
Q 2644 1047 2644 1272 
Q 2644 1734 2453 1992 
Q 2263 2250 1916 2250 
z
" transform="scale(0.015625)"/>
       </defs>
       <use xlink:href="#Cambria-378"/>
       <use xlink:href="#Cambria-372" transform="translate(55.375 0)"/>
       <use xlink:href="#Cambria-372" transform="translate(110.75 0)"/>
      </g>
     </g>
    </g>
    <g id="ytick_5">
     <g id="line2d_19">
      <path d="M 47.643125 29.34431 
L 476.259141 29.34431 
" clip-path="url(#pb8b616cceb)" style="fill: none; stroke: #e1e0d9; stroke-width: 0.7; stroke-linecap: square"/>
     </g>
     <g id="line2d_20">
      <g>
       <use xlink:href="#md88298137c" x="47.643125" y="29.34431" style="fill: #898781; stroke: #898781; stroke-width: 0.8"/>
      </g>
     </g>
     <g id="text_10">
      <!-- 800 -->
      <g style="fill: #52514e" transform="translate(23.2 33.427928) scale(0.105 -0.105)">
       <defs>
        <path id="Cambria-37a" d="M 2475 2253 
L 2481 2213 
Q 2834 2075 3015 1811 
Q 3197 1547 3197 1175 
Q 3197 809 3022 531 
Q 2847 253 2514 101 
Q 2181 -50 1738 -50 
Q 1322 -50 1008 89 
Q 694 228 520 495 
Q 347 763 347 1125 
Q 347 1397 440 1597 
Q 534 1797 686 1926 
Q 838 2056 1069 2163 
L 1063 2203 
Q 391 2494 391 3200 
Q 391 3522 567 3775 
Q 744 4028 1070 4172 
Q 1397 4316 1794 4316 
Q 2244 4316 2550 4189 
Q 2856 4063 3011 3823 
Q 3166 3584 3166 3250 
Q 3166 2906 2997 2657 
Q 2828 2409 2475 2253 
z
M 978 3228 
Q 978 3044 1022 2881 
Q 1066 2719 1162 2600 
Q 1259 2481 1414 2411 
Q 1569 2341 1794 2341 
Q 2053 2341 2229 2442 
Q 2406 2544 2492 2739 
Q 2578 2934 2578 3191 
Q 2578 3472 2476 3667 
Q 2375 3863 2197 3956 
Q 2019 4050 1788 4050 
Q 1394 4050 1186 3836 
Q 978 3622 978 3228 
z
M 944 1178 
Q 944 975 991 798 
Q 1038 622 1139 494 
Q 1241 366 1400 291 
Q 1559 216 1788 216 
Q 2044 216 2226 320 
Q 2409 425 2504 631 
Q 2600 838 2600 1119 
Q 2600 1419 2497 1636 
Q 2394 1853 2206 1967 
Q 2019 2081 1772 2081 
Q 1541 2081 1383 2009 
Q 1225 1938 1126 1816 
Q 1028 1694 986 1530 
Q 944 1366 944 1178 
z
" transform="scale(0.015625)"/>
       </defs>
       <use xlink:href="#Cambria-37a"/>
       <use xlink:href="#Cambria-372" transform="translate(55.375 0)"/>
       <use xlink:href="#Cambria-372" transform="translate(110.75 0)"/>
      </g>
     </g>
    </g>
    <g id="text_11">
     <!-- surviving rows -->
     <g style="fill: #0b0b0b" transform="translate(16.533984 145.970117) rotate(-90) scale(0.12 -0.12)">
      <use xlink:href="#Cambria-95"/>
      <use xlink:href="#Cambria-97" transform="translate(42.96875 0)"/>
      <use xlink:href="#Cambria-94" transform="translate(98.1875 0)"/>
      <use xlink:href="#Cambria-98" transform="translate(139.546875 0)"/>
      <use xlink:href="#Cambria-8b" transform="translate(189.9375 0)"/>
      <use xlink:href="#Cambria-98" transform="translate(215.71875 0)"/>
      <use xlink:href="#Cambria-8b" transform="translate(266.109375 0)"/>
      <use xlink:href="#Cambria-90" transform="translate(293.890625 0)"/>
      <use xlink:href="#Cambria-89" transform="translate(349.703125 0)"/>
      <use xlink:href="#Cambria-3" transform="translate(399.125 0)"/>
      <use xlink:href="#Cambria-94" transform="translate(421.140625 0)"/>
      <use xlink:href="#Cambria-91" transform="translate(461.03125 0)"/>
      <use xlink:href="#Cambria-99" transform="translate(513.625 0)"/>
      <use xlink:href="#Cambria-95" transform="translate(590.234375 0)"/>
     </g>
    </g>
   </g>
   <g id="patch_3">
    <path d="M 67.125671 190.644043 
L 119.416488 190.644043 
L 119.416488 39.425543 
L 67.125671 39.425543 
z
" clip-path="url(#pb8b616cceb)" style="fill: #2a78d6; stroke: #fcfcfb; stroke-width: 0.8; stroke-linejoin: miter"/>
   </g>
   <g id="patch_4">
    <path d="M 151.465698 190.644043 
L 203.756514 190.644043 
L 203.756514 166.449083 
L 151.465698 166.449083 
z
" clip-path="url(#pb8b616cceb)" style="fill: #2a78d6; stroke: #fcfcfb; stroke-width: 0.8; stroke-linejoin: miter"/>
   </g>
   <g id="patch_5">
    <path d="M 235.805725 190.644043 
L 288.096541 190.644043 
L 288.096541 180.361185 
L 235.805725 180.361185 
z
" clip-path="url(#pb8b616cceb)" style="fill: #5598e7; stroke: #fcfcfb; stroke-width: 0.8; stroke-linejoin: miter"/>
   </g>
   <g id="patch_6">
    <path d="M 320.145751 190.644043 
L 372.436568 190.644043 
L 372.436568 181.167684 
L 320.145751 181.167684 
z
" clip-path="url(#pb8b616cceb)" style="fill: #86b6ef; stroke: #fcfcfb; stroke-width: 0.8; stroke-linejoin: miter"/>
   </g>
   <g id="patch_7">
    <path d="M 404.485778 190.644043 
L 456.776594 190.644043 
L 456.776594 190.644043 
L 404.485778 190.644043 
z
" clip-path="url(#pb8b616cceb)" style="fill: #008300; stroke: #fcfcfb; stroke-width: 0.8; stroke-linejoin: miter"/>
   </g>
   <g id="patch_8">
    <path d="M 47.643125 190.644043 
L 47.643125 25.311816 
" style="fill: none; stroke: #c3c2b7; stroke-width: 0.9; stroke-linejoin: miter; stroke-linecap: square"/>
   </g>
   <g id="patch_9">
    <path d="M 47.643125 190.644043 
L 476.259141 190.644043 
" style="fill: none; stroke: #c3c2b7; stroke-width: 0.9; stroke-linejoin: miter; stroke-linecap: square"/>
   </g>
   <g id="text_12">
    <!-- 750 -->
    <g style="fill: #52514e" transform="translate(85.380142 34.314947) scale(0.095 -0.095)">
     <use xlink:href="#Cambria-379"/>
     <use xlink:href="#Cambria-377" transform="translate(55.375 0)"/>
     <use xlink:href="#Cambria-372" transform="translate(110.75 0)"/>
    </g>
   </g>
   <g id="text_13">
    <!-- 120 -->
    <g style="fill: #52514e" transform="translate(169.720169 161.338487) scale(0.095 -0.095)">
     <defs>
      <path id="Cambria-373" d="M 2172 816 
Q 2172 634 2192 542 
Q 2213 450 2264 392 
Q 2316 334 2412 301 
Q 2509 269 2656 251 
Q 2803 234 3044 228 
L 3044 0 
L 734 0 
L 734 228 
Q 1081 244 1229 270 
Q 1378 297 1456 350 
Q 1534 403 1570 500 
Q 1606 597 1606 816 
L 1606 3350 
Q 1606 3475 1562 3533 
Q 1519 3591 1434 3591 
Q 1334 3591 1150 3487 
Q 966 3384 694 3203 
L 556 3444 
L 2019 4316 
L 2191 4316 
Q 2172 4016 2172 3484 
L 2172 816 
z
" transform="scale(0.015625)"/>
     </defs>
     <use xlink:href="#Cambria-373"/>
     <use xlink:href="#Cambria-374" transform="translate(55.375 0)"/>
     <use xlink:href="#Cambria-372" transform="translate(110.75 0)"/>
    </g>
   </g>
   <g id="text_14">
    <!-- 51 -->
    <g style="fill: #52514e" transform="translate(256.690508 175.250589) scale(0.095 -0.095)">
     <use xlink:href="#Cambria-377"/>
     <use xlink:href="#Cambria-373" transform="translate(55.375 0)"/>
    </g>
   </g>
   <g id="text_15">
    <!-- 47 -->
    <g style="fill: #52514e" transform="translate(341.030534 176.057088) scale(0.095 -0.095)">
     <use xlink:href="#Cambria-376"/>
     <use xlink:href="#Cambria-379" transform="translate(55.375 0)"/>
    </g>
   </g>
   <g id="text_16">
    <!-- 0 -->
    <g style="fill: #52514e" transform="translate(428.000874 185.533447) scale(0.095 -0.095)">
     <use xlink:href="#Cambria-372"/>
    </g>
   </g>
   <g id="patch_10">
    <path d="M 354.312755 112.480751 
Q 350.417748 145.832734 346.652428 178.074231 
" style="fill: none; stroke: #898781; stroke-linecap: round"/>
    <path d="M 348.661826 175.006606 
L 346.652428 178.074231 
L 345.403967 174.626137 
" style="fill: none; stroke: #898781; stroke-linecap: round"/>
   </g>
   <g id="text_17">
    <!-- 47 rows = 29 normalized curves; -->
    <g style="fill: #52514e" transform="translate(299.904145 77.121546) scale(0.082 -0.082)">
     <defs>
      <path id="Cambria-3b1" d="M 388 2259 
L 388 2694 
L 3156 2694 
L 3156 2259 
L 388 2259 
z
M 388 963 
L 388 1397 
L 3156 1397 
L 3156 963 
L 388 963 
z
" transform="scale(0.015625)"/>
      <path id="Cambria-37b" d="M 978 122 
L 978 275 
Q 1416 275 1736 469 
Q 2056 663 2251 1042 
Q 2447 1422 2513 2038 
L 2481 2050 
Q 2219 1863 1964 1775 
Q 1709 1688 1413 1688 
Q 1059 1688 811 1842 
Q 563 1997 438 2276 
Q 313 2556 313 2931 
Q 313 3213 406 3464 
Q 500 3716 684 3905 
Q 869 4094 1145 4205 
Q 1422 4316 1791 4316 
Q 2447 4316 2790 3862 
Q 3134 3409 3134 2559 
Q 3134 1781 2881 1211 
Q 2628 641 2172 323 
Q 1716 6 1106 -50 
L 978 122 
z
M 1628 2016 
Q 1747 2016 1855 2036 
Q 1963 2056 2066 2095 
Q 2169 2134 2267 2195 
Q 2366 2256 2444 2325 
Q 2472 2350 2494 2390 
Q 2516 2431 2528 2497 
Q 2541 2563 2541 2703 
Q 2541 3131 2455 3436 
Q 2369 3741 2192 3895 
Q 2016 4050 1756 4050 
Q 1522 4050 1359 3969 
Q 1197 3888 1095 3745 
Q 994 3603 947 3411 
Q 900 3219 900 2994 
Q 900 2528 1090 2272 
Q 1281 2016 1628 2016 
z
" transform="scale(0.015625)"/>
      <path id="Cambria-9c" d="M 2659 906 
L 2659 0 
L 253 0 
L 253 153 
L 1966 2734 
L 1119 2734 
Q 963 2734 872 2678 
Q 781 2622 700 2490 
Q 619 2359 544 2138 
L 272 2138 
L 272 2988 
L 2641 2988 
L 2641 2831 
L 931 253 
L 1753 253 
Q 1916 253 1997 278 
Q 2078 303 2137 358 
Q 2197 413 2253 531 
Q 2309 650 2388 906 
L 2659 906 
z
" transform="scale(0.015625)"/>
      <path id="Cambria-1e2" d="M 1119 725 
Q 1163 506 1163 294 
Q 1163 75 1088 -106 
Q 1013 -288 848 -467 
Q 684 -647 397 -863 
L 228 -672 
Q 388 -522 459 -401 
Q 531 -281 562 -128 
Q 594 25 594 256 
Q 594 494 572 725 
L 1119 725 
z
M 1156 2822 
L 1156 2091 
L 531 2091 
L 531 2822 
L 1156 2822 
z
" transform="scale(0.015625)"/>
     </defs>
     <use xlink:href="#Cambria-376"/>
     <use xlink:href="#Cambria-379" transform="translate(55.375 0)"/>
     <use xlink:href="#Cambria-3" transform="translate(110.75 0)"/>
     <use xlink:href="#Cambria-94" transform="translate(132.765625 0)"/>
     <use xlink:href="#Cambria-91" transform="translate(172.65625 0)"/>
     <use xlink:href="#Cambria-99" transform="translate(225.25 0)"/>
     <use xlink:href="#Cambria-95" transform="translate(301.859375 0)"/>
     <use xlink:href="#Cambria-3" transform="translate(344.828125 0)"/>
     <use xlink:href="#Cambria-3b1" transform="translate(366.84375 0)"/>
     <use xlink:href="#Cambria-3" transform="translate(422.21875 0)"/>
     <use xlink:href="#Cambria-374" transform="translate(444.234375 0)"/>
     <use xlink:href="#Cambria-37b" transform="translate(499.609375 0)"/>
     <use xlink:href="#Cambria-3" transform="translate(554.984375 0)"/>
     <use xlink:href="#Cambria-90" transform="translate(577 0)"/>
     <use xlink:href="#Cambria-91" transform="translate(632.8125 0)"/>
     <use xlink:href="#Cambria-94" transform="translate(685.890625 0)"/>
     <use xlink:href="#Cambria-8f" transform="translate(727.25 0)"/>
     <use xlink:href="#Cambria-83" transform="translate(810.453125 0)"/>
     <use xlink:href="#Cambria-8e" transform="translate(859.28125 0)"/>
     <use xlink:href="#Cambria-8b" transform="translate(886.4375 0)"/>
     <use xlink:href="#Cambria-9c" transform="translate(914.21875 0)"/>
     <use xlink:href="#Cambria-87" transform="translate(959.671875 0)"/>
     <use xlink:href="#Cambria-86" transform="translate(1008.453125 0)"/>
     <use xlink:href="#Cambria-3" transform="translate(1063.921875 0)"/>
     <use xlink:href="#Cambria-85" transform="translate(1085.9375 0)"/>
     <use xlink:href="#Cambria-97" transform="translate(1130.03125 0)"/>
     <use xlink:href="#Cambria-94" transform="translate(1185.25 0)"/>
     <use xlink:href="#Cambria-98" transform="translate(1226.609375 0)"/>
     <use xlink:href="#Cambria-87" transform="translate(1275.046875 0)"/>
     <use xlink:href="#Cambria-95" transform="translate(1323.828125 0)"/>
     <use xlink:href="#Cambria-1e2" transform="translate(1366.796875 0)"/>
    </g>
    <!-- Magma: 22 integral-point lists, -->
    <g style="fill: #52514e" transform="translate(299.904145 86.734925) scale(0.082 -0.082)">
     <defs>
      <path id="Cambria-10" d="M 4841 4113 
Q 4703 4078 4642 4043 
Q 4581 4009 4545 3957 
Q 4509 3906 4492 3803 
Q 4475 3700 4475 3484 
L 4475 781 
Q 4475 572 4489 475 
Q 4503 378 4536 322 
Q 4569 266 4633 228 
Q 4697 191 4841 153 
L 4841 0 
L 3538 0 
L 3538 153 
Q 3716 197 3784 253 
Q 3853 309 3878 418 
Q 3903 528 3903 781 
L 3903 1978 
Q 3903 2450 3917 2933 
Q 3931 3416 3950 3594 
L 3897 3594 
L 2659 497 
L 2300 497 
L 1150 3644 
L 1097 3644 
Q 1113 3453 1127 2953 
Q 1141 2453 1141 1925 
L 1141 781 
Q 1141 572 1155 475 
Q 1169 378 1201 322 
Q 1234 266 1298 228 
Q 1363 191 1506 153 
L 1506 0 
L 366 0 
L 366 153 
Q 559 203 625 264 
Q 691 325 711 437 
Q 731 550 731 781 
L 731 3484 
Q 731 3700 715 3798 
Q 700 3897 664 3951 
Q 628 4006 568 4039 
Q 509 4072 366 4113 
L 366 4266 
L 1481 4266 
L 2578 1225 
L 3784 4266 
L 4841 4266 
L 4841 4113 
z
" transform="scale(0.015625)"/>
      <path id="Cambria-1e3" d="M 1156 2822 
L 1156 2091 
L 531 2091 
L 531 2822 
L 1156 2822 
z
M 1156 725 
L 1156 0 
L 531 0 
L 531 725 
L 1156 725 
z
" transform="scale(0.015625)"/>
     </defs>
     <use xlink:href="#Cambria-10"/>
     <use xlink:href="#Cambria-83" transform="translate(81.546875 0)"/>
     <use xlink:href="#Cambria-89" transform="translate(130.375 0)"/>
     <use xlink:href="#Cambria-8f" transform="translate(179.796875 0)"/>
     <use xlink:href="#Cambria-83" transform="translate(263 0)"/>
     <use xlink:href="#Cambria-1e3" transform="translate(311.828125 0)"/>
     <use xlink:href="#Cambria-3" transform="translate(338.203125 0)"/>
     <use xlink:href="#Cambria-374" transform="translate(360.21875 0)"/>
     <use xlink:href="#Cambria-374" transform="translate(415.59375 0)"/>
     <use xlink:href="#Cambria-3" transform="translate(470.96875 0)"/>
     <use xlink:href="#Cambria-8b" transform="translate(492.984375 0)"/>
     <use xlink:href="#Cambria-90" transform="translate(520.765625 0)"/>
     <use xlink:href="#Cambria-96" transform="translate(576.578125 0)"/>
     <use xlink:href="#Cambria-87" transform="translate(609.546875 0)"/>
     <use xlink:href="#Cambria-89" transform="translate(658.328125 0)"/>
     <use xlink:href="#Cambria-94" transform="translate(707.75 0)"/>
     <use xlink:href="#Cambria-83" transform="translate(747.40625 0)"/>
     <use xlink:href="#Cambria-8e" transform="translate(796.234375 0)"/>
     <use xlink:href="#Cambria-1e6" transform="translate(823.390625 0)"/>
     <use xlink:href="#Cambria-92" transform="translate(856.59375 0)"/>
     <use xlink:href="#Cambria-91" transform="translate(912.203125 0)"/>
     <use xlink:href="#Cambria-8b" transform="translate(965.28125 0)"/>
     <use xlink:href="#Cambria-90" transform="translate(993.0625 0)"/>
     <use xlink:href="#Cambria-96" transform="translate(1048.875 0)"/>
     <use xlink:href="#Cambria-3" transform="translate(1082.71875 0)"/>
     <use xlink:href="#Cambria-8e" transform="translate(1104.734375 0)"/>
     <use xlink:href="#Cambria-8b" transform="translate(1131.890625 0)"/>
     <use xlink:href="#Cambria-95" transform="translate(1159.671875 0)"/>
     <use xlink:href="#Cambria-96" transform="translate(1202.640625 0)"/>
     <use xlink:href="#Cambria-95" transform="translate(1236.484375 0)"/>
     <use xlink:href="#Cambria-1e1" transform="translate(1279.453125 0)"/>
    </g>
    <!-- 5 empty fake 2-Selmer sets, -->
    <g style="fill: #52514e" transform="translate(299.904145 96.348304) scale(0.082 -0.082)">
     <defs>
      <path id="Cambria-8d" d="M 1138 1741 
L 1238 1741 
Q 1341 1741 1406 1763 
Q 1484 1791 1578 1858 
Q 1672 1925 1844 2084 
Q 1988 2219 2061 2312 
Q 2134 2406 2163 2484 
Q 2188 2550 2188 2616 
Q 2188 2709 2130 2762 
Q 2072 2816 1941 2834 
L 1941 2988 
L 3288 2988 
L 3288 2834 
Q 3144 2806 2981 2706 
Q 2819 2606 2647 2444 
L 1928 1763 
L 2828 588 
Q 2984 381 3111 282 
Q 3238 184 3388 153 
L 3388 0 
L 2188 0 
L 2188 153 
Q 2269 163 2308 189 
Q 2347 216 2347 278 
Q 2347 325 2330 370 
Q 2313 416 2259 494 
Q 2206 572 2066 766 
L 1694 1266 
Q 1588 1406 1542 1450 
Q 1497 1494 1447 1512 
Q 1397 1531 1313 1531 
L 1138 1531 
L 1138 781 
Q 1138 513 1163 408 
Q 1188 303 1258 248 
Q 1328 194 1488 153 
L 1488 0 
L 247 0 
L 247 153 
Q 403 194 464 237 
Q 525 281 551 342 
Q 578 403 589 508 
Q 600 613 600 781 
L 600 3397 
Q 600 3697 595 3815 
Q 591 3934 570 4017 
Q 550 4100 514 4147 
Q 478 4194 417 4222 
Q 356 4250 197 4278 
L 197 4441 
L 950 4472 
L 1138 4472 
L 1138 1741 
z
" transform="scale(0.015625)"/>
      <path id="Cambria-16" d="M 663 972 
Q 725 697 831 537 
Q 938 378 1106 301 
Q 1275 225 1541 225 
Q 1906 225 2101 415 
Q 2297 606 2297 972 
Q 2297 1206 2215 1365 
Q 2134 1525 1950 1665 
Q 1766 1806 1388 1994 
Q 1022 2175 809 2348 
Q 597 2522 492 2725 
Q 388 2928 388 3169 
Q 388 3519 552 3776 
Q 716 4034 1033 4175 
Q 1350 4316 1759 4316 
Q 1997 4316 2223 4291 
Q 2450 4266 2791 4178 
L 2791 3334 
L 2481 3334 
Q 2409 3609 2300 3762 
Q 2191 3916 2044 3977 
Q 1897 4038 1663 4038 
Q 1459 4038 1298 3963 
Q 1138 3888 1044 3736 
Q 950 3584 950 3375 
Q 950 3153 1029 3000 
Q 1109 2847 1278 2715 
Q 1447 2584 1778 2422 
Q 2178 2222 2398 2050 
Q 2619 1878 2742 1658 
Q 2866 1438 2866 1144 
Q 2866 816 2762 589 
Q 2659 363 2476 220 
Q 2294 78 2039 14 
Q 1784 -50 1481 -50 
Q 991 -50 350 116 
L 350 972 
L 663 972 
z
" transform="scale(0.015625)"/>
     </defs>
     <use xlink:href="#Cambria-377"/>
     <use xlink:href="#Cambria-3" transform="translate(55.375 0)"/>
     <use xlink:href="#Cambria-87" transform="translate(77.390625 0)"/>
     <use xlink:href="#Cambria-8f" transform="translate(126.171875 0)"/>
     <use xlink:href="#Cambria-92" transform="translate(209.375 0)"/>
     <use xlink:href="#Cambria-96" transform="translate(264.984375 0)"/>
     <use xlink:href="#Cambria-9b" transform="translate(298.828125 0)"/>
     <use xlink:href="#Cambria-3" transform="translate(349.21875 0)"/>
     <use xlink:href="#Cambria-88" transform="translate(371.234375 0)"/>
     <use xlink:href="#Cambria-83" transform="translate(400.34375 0)"/>
     <use xlink:href="#Cambria-8d" transform="translate(449.171875 0)"/>
     <use xlink:href="#Cambria-87" transform="translate(499.90625 0)"/>
     <use xlink:href="#Cambria-3" transform="translate(548.6875 0)"/>
     <use xlink:href="#Cambria-374" transform="translate(570.703125 0)"/>
     <use xlink:href="#Cambria-1e6" transform="translate(626.078125 0)"/>
     <use xlink:href="#Cambria-16" transform="translate(656.359375 0)"/>
     <use xlink:href="#Cambria-87" transform="translate(705.96875 0)"/>
     <use xlink:href="#Cambria-8e" transform="translate(754.75 0)"/>
     <use xlink:href="#Cambria-8f" transform="translate(781.90625 0)"/>
     <use xlink:href="#Cambria-87" transform="translate(865.109375 0)"/>
     <use xlink:href="#Cambria-94" transform="translate(913.890625 0)"/>
     <use xlink:href="#Cambria-3" transform="translate(955.25 0)"/>
     <use xlink:href="#Cambria-95" transform="translate(977.265625 0)"/>
     <use xlink:href="#Cambria-87" transform="translate(1020.234375 0)"/>
     <use xlink:href="#Cambria-96" transform="translate(1069.015625 0)"/>
     <use xlink:href="#Cambria-95" transform="translate(1102.859375 0)"/>
     <use xlink:href="#Cambria-1e1" transform="translate(1145.828125 0)"/>
    </g>
    <!-- 1 symmetric rank-0 pair -->
    <g style="fill: #52514e" transform="translate(299.904145 105.961683) scale(0.082 -0.082)">
     <use xlink:href="#Cambria-373"/>
     <use xlink:href="#Cambria-3" transform="translate(55.375 0)"/>
     <use xlink:href="#Cambria-95" transform="translate(77.390625 0)"/>
     <use xlink:href="#Cambria-9b" transform="translate(119.625 0)"/>
     <use xlink:href="#Cambria-8f" transform="translate(170.015625 0)"/>
     <use xlink:href="#Cambria-8f" transform="translate(253.21875 0)"/>
     <use xlink:href="#Cambria-87" transform="translate(336.421875 0)"/>
     <use xlink:href="#Cambria-96" transform="translate(385.203125 0)"/>
     <use xlink:href="#Cambria-94" transform="translate(419.046875 0)"/>
     <use xlink:href="#Cambria-8b" transform="translate(460.40625 0)"/>
     <use xlink:href="#Cambria-85" transform="translate(488.1875 0)"/>
     <use xlink:href="#Cambria-3" transform="translate(532.28125 0)"/>
     <use xlink:href="#Cambria-94" transform="translate(554.296875 0)"/>
     <use xlink:href="#Cambria-83" transform="translate(593.953125 0)"/>
     <use xlink:href="#Cambria-90" transform="translate(642.78125 0)"/>
     <use xlink:href="#Cambria-8d" transform="translate(698.59375 0)"/>
     <use xlink:href="#Cambria-1e6" transform="translate(747.609375 0)"/>
     <use xlink:href="#Cambria-372" transform="translate(780.8125 0)"/>
     <use xlink:href="#Cambria-3" transform="translate(836.1875 0)"/>
     <use xlink:href="#Cambria-92" transform="translate(858.203125 0)"/>
     <use xlink:href="#Cambria-83" transform="translate(913.8125 0)"/>
     <use xlink:href="#Cambria-8b" transform="translate(962.640625 0)"/>
     <use xlink:href="#Cambria-94" transform="translate(990.421875 0)"/>
    </g>
   </g>
   <g id="text_18">
    <!-- Quartic/quartic reduction: only $(11,13;12,10)$ survives -->
    <g style="fill: #0b0b0b" transform="translate(47.643125 17.311816) scale(0.13 -0.13)">
     <defs>
      <path id="Cambria-14" d="M 2600 28 
L 2709 -131 
Q 2794 -253 2869 -351 
Q 2944 -450 3030 -539 
Q 3116 -628 3192 -683 
Q 3269 -738 3337 -761 
Q 3406 -784 3469 -784 
Q 3641 -784 3766 -720 
Q 3891 -656 4006 -544 
L 4156 -738 
Q 3913 -981 3703 -1087 
Q 3494 -1194 3272 -1194 
Q 3094 -1194 2978 -1159 
Q 2863 -1125 2748 -1047 
Q 2634 -969 2493 -809 
Q 2353 -650 2169 -375 
L 1947 -47 
Q 1169 -9 770 537 
Q 372 1084 372 2097 
Q 372 2794 584 3294 
Q 797 3794 1192 4055 
Q 1588 4316 2109 4316 
Q 2666 4316 3045 4070 
Q 3425 3825 3617 3348 
Q 3809 2872 3809 2188 
Q 3809 1319 3500 764 
Q 3191 209 2600 28 
z
M 1016 2184 
Q 1016 1225 1295 725 
Q 1575 225 2113 225 
Q 2453 225 2690 442 
Q 2928 659 3047 1078 
Q 3166 1497 3166 2056 
Q 3166 2738 3027 3186 
Q 2888 3634 2647 3837 
Q 2406 4041 2088 4041 
Q 1806 4041 1604 3909 
Q 1403 3778 1270 3536 
Q 1138 3294 1077 2950 
Q 1016 2606 1016 2184 
z
" transform="scale(0.015625)"/>
      <path id="Cambria-200" d="M 2941 4472 
L 684 -1344 
L 194 -1344 
L 2456 4472 
L 2941 4472 
z
" transform="scale(0.015625)"/>
      <path id="Cambria-93" d="M 3300 -1344 
L 2025 -1344 
L 2025 -1191 
Q 2175 -1159 2242 -1121 
Q 2309 -1084 2345 -1026 
Q 2381 -969 2395 -870 
Q 2409 -772 2409 -566 
L 2409 513 
Q 2241 322 2095 208 
Q 1950 94 1772 22 
Q 1594 -50 1394 -50 
Q 878 -50 601 334 
Q 325 719 325 1453 
Q 325 1972 504 2330 
Q 684 2688 1006 2864 
Q 1328 3041 1750 3041 
Q 1972 3041 2150 2995 
Q 2328 2950 2516 2850 
L 2734 3041 
L 2947 2991 
L 2947 -566 
Q 2947 -750 2961 -858 
Q 2975 -966 3011 -1028 
Q 3047 -1091 3117 -1125 
Q 3188 -1159 3300 -1191 
L 3300 -1344 
z
M 2409 1863 
Q 2409 2153 2371 2312 
Q 2334 2472 2243 2583 
Q 2153 2694 2031 2742 
Q 1909 2791 1744 2791 
Q 1341 2791 1127 2466 
Q 913 2141 913 1550 
Q 913 950 1086 637 
Q 1259 325 1606 325 
Q 1738 325 1830 348 
Q 1922 372 2011 425 
Q 2100 478 2192 568 
Q 2284 659 2325 732 
Q 2366 806 2387 903 
Q 2409 1000 2409 1153 
L 2409 1863 
z
" transform="scale(0.015625)"/>
      <path id="Cmr10-77" d="M 1984 -1588 
Q 1628 -1306 1370 -942 
Q 1113 -578 948 -165 
Q 784 247 703 697 
Q 622 1147 622 1600 
Q 622 2059 703 2509 
Q 784 2959 951 3375 
Q 1119 3791 1378 4153 
Q 1638 4516 1984 4788 
Q 1984 4800 2016 4800 
L 2075 4800 
Q 2094 4800 2109 4783 
Q 2125 4766 2125 4744 
Q 2125 4716 2113 4703 
Q 1800 4397 1592 4047 
Q 1384 3697 1257 3301 
Q 1131 2906 1075 2482 
Q 1019 2059 1019 1600 
Q 1019 -434 2106 -1491 
Q 2125 -1509 2125 -1544 
Q 2125 -1559 2108 -1579 
Q 2091 -1600 2075 -1600 
L 2016 -1600 
Q 1984 -1600 1984 -1588 
z
" transform="scale(0.015625)"/>
      <path id="Cmmi10-2c" d="M 634 -1153 
Q 634 -1125 659 -1100 
Q 891 -878 1019 -587 
Q 1147 -297 1147 25 
L 1147 103 
Q 1044 0 891 0 
Q 744 0 641 103 
Q 538 206 538 353 
Q 538 503 641 603 
Q 744 703 891 703 
Q 1119 703 1216 492 
Q 1313 281 1313 25 
Q 1313 -331 1170 -651 
Q 1028 -972 769 -1228 
Q 744 -1241 728 -1241 
Q 697 -1241 665 -1212 
Q 634 -1184 634 -1153 
z
" transform="scale(0.015625)"/>
      <path id="Cmr10-6e" d="M 609 494 
Q 759 275 1012 169 
Q 1266 63 1556 63 
Q 1928 63 2084 380 
Q 2241 697 2241 1100 
Q 2241 1281 2208 1462 
Q 2175 1644 2097 1800 
Q 2019 1956 1883 2050 
Q 1747 2144 1550 2144 
L 1125 2144 
Q 1069 2144 1069 2203 
L 1069 2259 
Q 1069 2309 1125 2309 
L 1478 2338 
Q 1703 2338 1851 2506 
Q 2000 2675 2069 2917 
Q 2138 3159 2138 3378 
Q 2138 3684 1994 3881 
Q 1850 4078 1556 4078 
Q 1313 4078 1091 3986 
Q 869 3894 738 3706 
Q 750 3709 759 3711 
Q 769 3713 781 3713 
Q 925 3713 1022 3613 
Q 1119 3513 1119 3372 
Q 1119 3234 1022 3134 
Q 925 3034 781 3034 
Q 641 3034 541 3134 
Q 441 3234 441 3372 
Q 441 3647 606 3850 
Q 772 4053 1033 4158 
Q 1294 4263 1556 4263 
Q 1750 4263 1965 4205 
Q 2181 4147 2356 4039 
Q 2531 3931 2642 3762 
Q 2753 3594 2753 3378 
Q 2753 3109 2633 2881 
Q 2513 2653 2303 2487 
Q 2094 2322 1844 2241 
Q 2122 2188 2372 2031 
Q 2622 1875 2773 1631 
Q 2925 1388 2925 1106 
Q 2925 753 2731 467 
Q 2538 181 2222 20 
Q 1906 -141 1556 -141 
Q 1256 -141 954 -26 
Q 653 88 461 316 
Q 269 544 269 863 
Q 269 1022 375 1128 
Q 481 1234 641 1234 
Q 744 1234 830 1186 
Q 916 1138 964 1050 
Q 1013 963 1013 863 
Q 1013 706 903 600 
Q 794 494 641 494 
L 609 494 
z
" transform="scale(0.015625)"/>
      <path id="Cmr10-1f" d="M 634 -1153 
Q 634 -1125 647 -1113 
Q 1094 -628 1094 25 
L 1094 56 
Q 1000 0 891 0 
Q 744 0 641 103 
Q 538 206 538 353 
Q 538 503 641 603 
Q 744 703 891 703 
Q 1113 703 1186 498 
Q 1259 294 1259 25 
Q 1259 -200 1204 -419 
Q 1150 -638 1039 -847 
Q 928 -1056 775 -1222 
Q 756 -1241 728 -1241 
Q 697 -1241 665 -1212 
Q 634 -1184 634 -1153 
z
M 538 2406 
Q 538 2497 584 2578 
Q 631 2659 714 2709 
Q 797 2759 891 2759 
Q 981 2759 1064 2709 
Q 1147 2659 1194 2578 
Q 1241 2497 1241 2406 
Q 1241 2263 1139 2158 
Q 1038 2053 891 2053 
Q 747 2053 642 2158 
Q 538 2263 538 2406 
z
" transform="scale(0.015625)"/>
      <path id="Cmr10-28" d="M 1600 -141 
Q 816 -141 533 504 
Q 250 1150 250 2041 
Q 250 2597 351 3087 
Q 453 3578 754 3920 
Q 1056 4263 1600 4263 
Q 2022 4263 2290 4056 
Q 2559 3850 2700 3523 
Q 2841 3197 2892 2823 
Q 2944 2450 2944 2041 
Q 2944 1491 2842 1011 
Q 2741 531 2444 195 
Q 2147 -141 1600 -141 
z
M 1600 25 
Q 1956 25 2131 390 
Q 2306 756 2347 1200 
Q 2388 1644 2388 2144 
Q 2388 2625 2347 3031 
Q 2306 3438 2132 3767 
Q 1959 4097 1600 4097 
Q 1238 4097 1063 3765 
Q 888 3434 847 3029 
Q 806 2625 806 2144 
Q 806 1788 823 1472 
Q 841 1156 916 820 
Q 991 484 1158 254 
Q 1325 25 1600 25 
z
" transform="scale(0.015625)"/>
      <path id="Cmr10-44" d="M 416 -1600 
Q 359 -1600 359 -1544 
Q 359 -1516 372 -1503 
Q 1466 -434 1466 1600 
Q 1466 3634 384 4691 
Q 359 4706 359 4744 
Q 359 4766 376 4783 
Q 394 4800 416 4800 
L 475 4800 
Q 494 4800 506 4788 
Q 966 4425 1272 3906 
Q 1578 3388 1720 2800 
Q 1863 2213 1863 1600 
Q 1863 1147 1786 708 
Q 1709 269 1542 -157 
Q 1375 -584 1119 -945 
Q 863 -1306 506 -1588 
Q 494 -1600 475 -1600 
L 416 -1600 
z
" transform="scale(0.015625)"/>
     </defs>
     <use xlink:href="#Cambria-14"/>
     <use xlink:href="#Cambria-97" transform="translate(65.332031 0)"/>
     <use xlink:href="#Cambria-83" transform="translate(120.556641 0)"/>
     <use xlink:href="#Cambria-94" transform="translate(169.384766 0)"/>
     <use xlink:href="#Cambria-96" transform="translate(210.742188 0)"/>
     <use xlink:href="#Cambria-8b" transform="translate(244.580078 0)"/>
     <use xlink:href="#Cambria-85" transform="translate(272.363281 0)"/>
     <use xlink:href="#Cambria-200" transform="translate(316.455078 0)"/>
     <use xlink:href="#Cambria-93" transform="translate(365.478516 0)"/>
     <use xlink:href="#Cambria-97" transform="translate(420.166016 0)"/>
     <use xlink:href="#Cambria-83" transform="translate(475.390625 0)"/>
     <use xlink:href="#Cambria-94" transform="translate(524.21875 0)"/>
     <use xlink:href="#Cambria-96" transform="translate(565.576172 0)"/>
     <use xlink:href="#Cambria-8b" transform="translate(599.414062 0)"/>
     <use xlink:href="#Cambria-85" transform="translate(627.197266 0)"/>
     <use xlink:href="#Cambria-3" transform="translate(671.289062 0)"/>
     <use xlink:href="#Cambria-94" transform="translate(693.310547 0)"/>
     <use xlink:href="#Cambria-87" transform="translate(734.667969 0)"/>
     <use xlink:href="#Cambria-86" transform="translate(783.447266 0)"/>
     <use xlink:href="#Cambria-97" transform="translate(838.916016 0)"/>
     <use xlink:href="#Cambria-85" transform="translate(894.140625 0)"/>
     <use xlink:href="#Cambria-96" transform="translate(938.232422 0)"/>
     <use xlink:href="#Cambria-8b" transform="translate(972.070312 0)"/>
     <use xlink:href="#Cambria-91" transform="translate(999.853516 0)"/>
     <use xlink:href="#Cambria-90" transform="translate(1052.929688 0)"/>
     <use xlink:href="#Cambria-1e3" transform="translate(1108.740234 0)"/>
     <use xlink:href="#Cambria-3" transform="translate(1135.107422 0)"/>
     <use xlink:href="#Cambria-91" transform="translate(1157.128906 0)"/>
     <use xlink:href="#Cambria-90" transform="translate(1210.205078 0)"/>
     <use xlink:href="#Cambria-8e" transform="translate(1266.015625 0)"/>
     <use xlink:href="#Cambria-9b" transform="translate(1293.164062 0)"/>
     <use xlink:href="#Cambria-3" transform="translate(1343.554688 0)"/>
     <use xlink:href="#Cmr10-77" transform="translate(1365.576172 0)"/>
     <use xlink:href="#Cmr10-64" transform="translate(1404.394531 0)"/>
     <use xlink:href="#Cmr10-64" transform="translate(1454.394531 0)"/>
     <use xlink:href="#Cmmi10-2c" transform="translate(1504.394531 0)"/>
     <use xlink:href="#Cmr10-64" transform="translate(1552.080135 0)"/>
     <use xlink:href="#Cmr10-6e" transform="translate(1602.080135 0)"/>
     <use xlink:href="#Cmr10-1f" transform="translate(1652.080135 0)"/>
     <use xlink:href="#Cmr10-64" transform="translate(1699.765739 0)"/>
     <use xlink:href="#Cmr10-31" transform="translate(1749.765739 0)"/>
     <use xlink:href="#Cmmi10-2c" transform="translate(1799.765739 0)"/>
     <use xlink:href="#Cmr10-64" transform="translate(1847.451344 0)"/>
     <use xlink:href="#Cmr10-28" transform="translate(1897.451344 0)"/>
     <use xlink:href="#Cmr10-44" transform="translate(1947.451344 0)"/>
     <use xlink:href="#Cambria-3" transform="translate(1986.269703 0)"/>
     <use xlink:href="#Cambria-95" transform="translate(2008.291187 0)"/>
     <use xlink:href="#Cambria-97" transform="translate(2051.259937 0)"/>
     <use xlink:href="#Cambria-94" transform="translate(2106.484547 0)"/>
     <use xlink:href="#Cambria-98" transform="translate(2147.841969 0)"/>
     <use xlink:href="#Cambria-8b" transform="translate(2198.232594 0)"/>
     <use xlink:href="#Cambria-98" transform="translate(2226.015797 0)"/>
     <use xlink:href="#Cambria-87" transform="translate(2276.406422 0)"/>
     <use xlink:href="#Cambria-95" transform="translate(2325.185719 0)"/>
    </g>
   </g>
  </g>
 </g>
 <defs>
  <clipPath id="pb8b616cceb">
   <rect x="47.643125" y="25.311816" width="428.616016" height="165.332227"/>
  </clipPath>
 </defs>
</svg>
